<svg height="157.34" viewBox="0 0 281.94 157.34" width="281.94" xmlns="http://www.w3.org/2000/svg"><path d="m4.92 96.71 6.34 8.51c1.23 4.39 1.59 3.44 3.49 6.61 1.43 2.36 5 6.14 2.95 9-.54.77-6.35 2.21-3.21 6.18 2.29 2.9 5.81 1.29 6.12 7.1.08 1.44 1.87 3.32 2.63 4.9 2.87 5.86 7 4.71 11.78 1.93 1.41-.81 5-2.24 6.65-1.21a15.31 15.31 0 0 1 4.15 3.15c3.27 3.26 6.46-2.16 10.93-.71 4.28 1.39 12.39-3.91 16.6 3.16 1.75 2.94-1.45 10.9 2.57 11.68 1.86.35 5.63-2.27 7.11-3.3.78-.55 2.49-1.61 3.33-2.1 3.62-4.13 3.61-3.13 7.51-5.88 4.07-2.88 3.39-4 6.46-7.64a57.41 57.41 0 0 0 5-8.07c.91-2.53 1.67-4.71 2.45-7.26s3.71-4 6.07-4.74c2.2-.73 4.49-3 5.86-4.76 0-.07.69-.8.76-.87 1.82-2.19 2.53-2.47 3.51-5 1.06-2.72 6.46-2.13 9.25-5.58.85-1 2.44-2.36 3.57-3.7s1.87-2.35 2.83-3.48c2.59-3.08 4.93-2.94 7.74-7.19 4.12-6.24 11.72-8 17.72-12.63 3.67-2.84 2-5.86 9.53-10.18 1.91-1.09 4.76-1.72 7.21-3.09 5.78-3.21 5.8.78 12.12-.27a9.36 9.36 0 0 0 5.14-3.27c5.4-2.31 5.24-2.73 9.67-5.59 1.05-.68 5-2.68 6.4-1.92 4.66 2.58-1.63 9.67 6 13.58 1.94 1 6.75-.51 7.77-2.47.47-.9 1.32-1.61 1.69-3l.15-.33 4.16-3.27 8.93-3a22.41 22.41 0 0 0 11.14-3.5c2-1.25 5.11-6.72 8.77-8.28a46.84 46.84 0 0 0 5.24-4.1c5-5.61 2.54-5.48 5.15-10.51 1.95-3.77 1.41-4.07 4.83-7.49 4.54-4.54.64-12.74 2.7-17.93-3.57 3.31-6.59 5.75-7.66 5.75-15.25 0-21.87 10.14-38.19 1.6-6.56-3.43-17 2.23-22.81 6.77l-46.92 17.1-38.11 20.78c-9.68 5.27-25.6 11.68-37.07 14.19-10.38 2.62-15.75 8.15-23.26 14.76-4.2 3.69-13.44 5.92-18.21 2.63-2.62-1.81-.64-6.6-5.63-5.64-5.72 1.1-10.34 5.39-15.95 7-2.11.59-19-2.65-19.43-4-1.64-4.49 2.76-8-1.76-9.88a15.09 15.09 0 0 0 -4.69 4.22c-4.06 7-.21 14.25 2.91 21.24z" fill="#191919" fill-rule="evenodd" stroke="#fff" stroke-miterlimit="1.18" stroke-width=".51"/></svg>