<svg height="118.64" viewBox="0 0 118.89 118.64" width="118.89" xmlns="http://www.w3.org/2000/svg"><path d="m7.44 35.52c2.37 2.51 2 1.71 3.64 3.21 3.2 2.94 3.1 6.2 3.78 10.16.64 3.74-1.33 8.9.62 11.79 2.53 3.76 4.53-3 6-1.48.56.6-.71 4.11.41 6.12 1.26 2.27.82 3.55 3.85 2.75 2.75-.73 3.56-2 4.85 1.15a19.92 19.92 0 0 1 1.7 3.34c.6 2.14 4.71 8.15 7 9 4.24 1.57 6.38.49 10.3-.5 2.69-.68 8.55-2.29 11.07-1.13 3.93 1.82 5.78 4.67 6.32 8.88.75 2.36.89 1.82 1.93 3.55 1.36 2.25 5.21 2.75 4.46 5.52a2.13 2.13 0 0 1 -.38.69l-2.2 1.77 4.8 2.82c2 1.92 2.3 1.91 4.77 2.53 3.63.91 8.14.29 11.17 3 2.64 2.32 3.43 2.81 4.65 6.35 0 .09.31.6.37.7l.8 2.7c4.28-.55 6.69-.23 10.77-.15 3.18.07 4.32-2.78 4.76-5.38a5.11 5.11 0 0 1 2.53-3.74c1.73-.72 3.88-9.42 3.11-11.69a18 18 0 0 0 -1.52-3.99 15.13 15.13 0 0 1 -1.79-4c-.66-2.47-5-7.94-7.26-9.27-.81-.48-3.59-4.69-3.88-5.65-.93-3-2.37-5.12-1.63-8.52l.07-.18a23.15 23.15 0 0 0 -1.9-7.37c-.69-1.85-.29-2.81-2-4.88-2.34-2.81-1.31-2-4.54-4.17-1.12-.73-3.93-2.94-4.17-4.21-.3-1.63.09-3.27-.51-5.66-.41-1.64-.47-6.71-2.73-6.71-3.9 0-9.1-.91-11.76-4-1.86-2.19-4.07-4.24-6.07-6.6-1.75-2.06-6-3.44-8.65-3.4-2.05 0-8.3-.19-7.24-3.65.56-1.85 1.72-5 1.19-6.71-.11-.36-.21-.61-.34-1-1.65-4.59-1.65-4.71-6.38-5.18-4-.4-9.41.16-13.71.16a65.94 65.94 0 0 0 -8.66.57 20 20 0 0 1 -2.36-.06l-3.33-2.78a3 3 0 0 1 -.42.24c-1.77.55-3.19 2.17-3.69 2.38-1.82.75-2.71 3.56-4.66 4.67-3 1.73-.06 5.34-1 7.68-1.26 3.23-5.89 1.38-7.5 1.81-3.86 1.11-.64 6.89 1 8.57 1.86 1.9 1.78 2.76 2.82 4.75a14.53 14.53 0 0 1 1.54 5.17z" fill="#191919" fill-rule="evenodd" stroke="#fff" stroke-miterlimit="1.18" stroke-width=".51"/></svg>