<svg height="148.62" viewBox="0 0 131.35 148.62" width="131.35" xmlns="http://www.w3.org/2000/svg"><path d="m1.63 33.3c6.35.21 6.47.78 13-1.52 7.34-2.61 8.59-4.06 14.88-8 10.93-6.8 14-3.63 25.13-5.14l1.08-.2c6.28-.54 9.07-2.03 14.84-3.44 3.83-.93 7.89-4.68 10.46-7.52 1.34-1.48 2.3-2.56 3.74-4l4.89-3.27c2.4 2.93 2.18 2 5 2.7 1.38.35 2.68.06 4.48.63 3.1 1 2.56-.06 4.88 3 1.51 2-2 3.59 2.68 8.2 4.48 4.39-2.14 7.82 2.61 13.7 3.55 4.39 3.52 6.75 4.46 12 .3 1.7 2.34 5.65 3.79 6.5 3 1.77 5.89 1.9 8.07 5.23a67.71 67.71 0 0 0 5.59 4.45l-8.89 5.3c-3.44 2-8.8-.14-11.17 2.63-5.06.46-4.1 1.52-7.23 4.23-2.39 2.08-10.55.71-11.45 3.86-1 .28-1 3.89-2.34 5-14.23 11.36-3.79 8.18-7.22 22.17-1.47 6-10.34 4.86-11.92 11-1.08 4.22-5.65 9.52-10.32 7.33-7.08-3.31-1.13-16.57-8.92-20-4-1.75-3 5.64-5.07 7.61l-9.68 9.1c-5.63 4.18-3.3 16.05-3.94 22.37-.92 9-2.92 10.06-6.91 11.15 0-.26.29-4.26.29-4.44-.06-1.66 1.69-5.25.77-6.6-1.92-2.85 0-8.27.33-11.49.22-2.32-.25-6.5-1.78-8.35-2.82-3.41-2.89-7.71-2.89-11.93 0-6.46 3.43-10.85-.6-16.37-2.14-2.94-2.21-3.15-2.55-7.25-.09-2.51 1.77-5 .34-8.26s-5.33-1.8-6.54-5.31-.17-5.73-3.38-8.94c-3.52-3.51 1.66-7.62-2.67-10.56-2-1.35-3.12-3.47-4.36-5.46-3-4.82-3.91-4.08-1.5-10.11z" fill="#191919" fill-rule="evenodd" stroke="#fff" stroke-miterlimit="1.18" stroke-width=".51"/></svg>