<svg height="194.47" viewBox="0 0 188.76 194.47" width="188.76" xmlns="http://www.w3.org/2000/svg"><path d="m139.74.26c.68 1.79 1 1.87 2.23 3 .5.49.55.12 1.24 1.23a6.72 6.72 0 0 1 1.3 3.52c.63 3.55 2.81 4.7 3.51 8.32s2.93 10 7.64 5.86c1-.9 3.6-3.39 4.76-3.72 1.56-.44 1.65.06 3.49-1.05 2.12-1.27 3-3.3 4.78-5 2.17-2.06 3.53-3.65 6.63-3.08a8.61 8.61 0 0 0 3.43.25c0 3.21-.59 4.61-.59 7.63 0 2.44 3.65 7.58 4.85 9.87 1.07 2 2 3.6 3 5.72 2.47 5.14 4.77 13.51-1.55 16.84-1.55.81-3.64 4.14-3.55 6.05a37.34 37.34 0 0 1 -1.11 6.62l-4.16 11c-3.64 1.08-2.64 1.36-5.24 3.2-1.67 1.17-4.6 1.88-6.3.3-1.49-1.39-2.63-2.07-4.22-3.79-3.69-4-3.87.54-4.6 3.08-.62 2.12.29 2.22-1.26 4.11-2.51 3-2.18 7.42-5.29 9-1.34.66-3.21-.69-4.63 1.61-2.93 4.77-7.52-.34-8 5.23-.18 2.24-1.55 4.85.11 6.3 1.28 1.1-2.44 7.57 2.53 8.64 1 .21 3.13-1.35 6.29-1 3.38.32 5 1.43 8.29 2.12 4.52 1 8.28 5.29 12.41 7.17-4.72 7.64-2.59 23.91-10.6 29.8-5.16 3.79-11.36-1.31-14.93-4.89-.44-1.47 3.66-7.43 3.66-10.53a30.17 30.17 0 0 0 -2.81-12.4c-3.52-8-21.3 22.06-25.72 28-1.23 1.76-6.24 9.11-.37 9.11 1.76 0 7.15-8.25 6.47-3.85-1.41 9.22-10.27 10.71-18.39 8.55-3.14-.83-13.83 2.27-16.8 4.14-6.67 4.2-11.65 14.08-15.86 20.4-4.51 6.77-20.18 11-21-.57-.35-4.81-4.74-8.18-4.51-13.25.21-4.5 6-11.75-1.4-11.75-8.51 0-14.87 9.4-21.31 9.4-.59-1.78 1.81-8.2-.65-7.61-3.18.76-8.27 5.73-10.23 5.73 0-2.72 2.38-12.94 1.76-17.21 1.62-1.77 6-3.19 7.83-4.49 2.48-1.75 4.31-5.83 4.31-8.83 0-2.68 2.25-11.18 4.25-12.89 1-.85 3.82-3 4.06-4.12.8-3.69-3.18-4.66-5.83-5.12a56.86 56.86 0 0 1 -5.79-1.63c-6-1.7-4.7-5-11.83-6.29-5.28-1-6-.44-9.87-4.44 6.77-1 3.41-1.07 6.51-5 1.87-2.36 8.11-1.8 10.81-2 2.39-.15 5.44-2.41 6.91-4.26 2-2.48 7.3-5.69 10.5-3.73s6.31.09 8.52-2.23c3.75-3.92 5.45-2 9.37-3.48l9.35-1.19c1.48 2.89 2.36 3.92 5.41 4.93s11.88-3.67 14.82-1.7c2.69 1.79 5.62-.09 8.8 3.18.89.91 3.56 3.06 4.87 3 5.07-.1 2.79-6.56 4-10.2.83-2.4.42-5 1.5-7.68 2.62-6.44-.59-6.32-.06-10.21.67-4.92 6.33 0 5.79-5.91-.36-4 1.19-7.08 5.53-7.08 5.2 0 6.56-1.73 8.23-6.28.72-2 .47-3.09 1.53-5.61l.08-.18c2-3 1-3 2.39-5.39s1.88-2.55 3.4-4.59c2.63-3.52.25-7.58.65-8.92 1.06-3.59 1.48-1.43.42-5.23-.85-3.07 5.19-4 2.64-7.56-1.74-2.4-.94-5.55 2.44-6.19.2 0 3.78-.61 5.1-.77z" fill="#191919" fill-rule="evenodd" stroke="#fff" stroke-miterlimit="1.18" stroke-width=".51"/></svg>