<svg height="65.53" viewBox="0 0 133.78 65.53" width="133.78" xmlns="http://www.w3.org/2000/svg"><path d="m40.44 12.79c4.91 3.13 6.92 4.88 12.33 1.42 2.55-1.63 4.78-4.21 8.23-4.85 3.18-.56 4 1.11 7.62-.41s3.27-2.77 5-3.7c.72-.38 3.4-2.5 4.41-3.14.25-.17.52-.33.77-.49l5.31-1.37c0 5.38 1.09 6.19 5.15 9.42 2.74 2.18 6.74.33 8.4 4.56.74 1.85 2.53 5.27 4.71 5.5 3 .32 1.37-.42 3.44 1.79 4.67 5 11.59-2.56 15.79 2.55.83 1 1.78 5.24 2.81 7 1.61 2.81.36 1.29 2.81 3.74 2.81 2.82 6.3 3.3 6.3 8.93 0 2.22-1.81 7.42-2.64 9.51a17.23 17.23 0 0 1 -1.75-.44c-1.86-.57-8.55-4.15-9.47-2.91-1.45 1.92-2.13 4.79-4.6 5.82-3.63 1.52-6.78.14-10.51-.18-2.76 0-5.13 1.71-7.51 1.59s-2.77-2.37-4.51-2.63c-3.53-.5-5.76 7.37-12.67 7.37-4.51 0-6.74 2.73-10.7 3.39-1.93.32-6.82-6.29-8.25-8-3.71-4.39-6.13-8.17-7.79-14-3.8-1.9-20.38 11.93-22.53 15.42-4.13-1.89-7.89-6.21-12.41-7.17-3.27-.69-4.91-1.81-8.29-2.13-3.16-.29-5.28 1.27-6.29 1-5-1.07-1.25-7.53-2.53-8.64-1.66-1.44-.29-4-.11-6.29.45-5.58 5-.47 8-5.23 1.42-2.3 3.3-.95 4.63-1.62 3.11-1.55 2.78-5.92 5.29-9 1.56-1.88.64-2 1.26-4.11.73-2.53.91-7.09 4.61-3.08 1.59 1.73 2.72 2.41 4.21 3.8 1.7 1.58 4.63.87 6.3-.3 2.63-1.84 1.6-2.13 5.21-3.2z" fill="#191919" fill-rule="evenodd" stroke="#fff" stroke-miterlimit="1.18" stroke-width=".51"/></svg>