<svg height="256.03" viewBox="0 0 237.74 256.03" width="237.74" xmlns="http://www.w3.org/2000/svg"><path d="m.16 94.9c3.9-2.9 3.12-1.46 6.84-2.9 3.09-1.24 1.94-4.15 2.72-7.29.53-2.14 2.37-8.29 3.77-9.69 2.37-2.37 5.63-1 8.49-.41 5.16 1 2-3.47 6.08-4.1 3.43-.53 5.54-4.7 2.19-6.66a6.52 6.52 0 0 1 -2.75-6 7.19 7.19 0 0 0 0-1c.13-5 .73-5.71 5-7.25 2.48-.9 2.34-1.24 5.33-1.62 2.83-.36 6.54-2.79 9.9-3.21 4.18-.52 7-5.09 10.37-2.38 5.46 4.43 7.08-2 10.7-3.66 3.29-1.49 6.2-9.57 3.84-9.52-2.84.06-9.85 4.13-11.63 2.73-1.15-.89 6.2-8-1.9-4.21-2.21 1-8.7 2-10.35.15-1.39-1.56 3.08-4.23 4.13-4.73 4.43-2.11 3.67-1.41 6.83-5 3.46-3.91 9-.88 13.44-2 3.65-.9 6-6.22 11.18-7.58l.47-.17c4 .83 6.43 1.77 4.33 5.88-.87 1.69-3.2 6.81.44 7 2.14.08 2.55-4.66 8.21-3 1.8.54 7 1.26 8.11-.41.63-1-4.38-5.2-4.88-6.08-1-1.87-.28-3.55 2.1-3.55a20.3 20.3 0 0 0 4.19-.32 9.84 9.84 0 0 1 1.22 0l3.16-1.92c2 .22 3.88.51 5.79.91a44.68 44.68 0 0 1 4.57.68c3.73 1 8.5 0 12.57 0 3.24 0 9 .95 11.37-1.14s3.37-5.38 6-6.07c1.15-.29 1.91 2.08 4.55 1.57 3.19-.63 5.27.43 9.83-.74 2.47-.64 6.2-.11 7 2.89.52 2.08 2 4.5 4.37 3.51 6.26-2.61 6.96-7.26 15.06-7.35 1.7 0 3.57.48 5 .59 3.17 1.8 3.93 2.34 5.08 5.79s-.56 2.56 2.15 7.08c2.29 3.81 2.38 2.86 3.26 7.54.56 3 2 8 3.84 10.31 4.59 5.85.34 15.83 2.48 19.83 3.47 6.47 8.93-4.62 12.51-4.62s8.12 1.1 9.64 4.7a67.61 67.61 0 0 1 .68 6.92c-2.33 5.33-1.87 4.26-2.12 9.4-.07 1.39-2.09 2.46-.83 6.35 1.16 3.61-2.55 7.39-3.29 11-1.36 6.65-1.18 4.36-4.23 9.62a32.86 32.86 0 0 0 -3 8.36c-1.1 4.45-3.21 7.6-3.46 12.59a11 11 0 0 1 -.34 2.29c-.76 9.79-.68 10-4.32 18.86-.92 2.24-.54 3.74-2.21 6.48-.59 1-4.1 7.85-4.06 8.72-4.16 2-4.52 1.33-6.74 6.32-1.74 3.92.59 8.73-2.25 13.86l-4.87 8.8c-1.64 3-9.42 4.18-12.54 7.3s-4.86 8.24-8.61 11.42c-2.09 1.77-7.28.64-9.17 2.62-1.41 1.47.05 5.31-1.5 6.74-3.18 2.93-9 .93-7.49 7.11 1.06 4.45-2.53 9.3-6.74 11a6.54 6.54 0 0 0 -3.56 5 24.05 24.05 0 0 1 -5.8 3.21c-2.83 1-6.5-.47-8.91 1.6-3.41 2.92-4.45 8.69-8.26 12.31-2.06 1.95-8.41 4-11.17 4.7-1.89.19-6.71 1.23-8.69 1.51-3.33.47-3.17-.69-5.3-1.43-1.52-.52-2.36-1.49-3.48-2-2.53-1.08-5 2.34-8.17-5.7-2-5.11.09-8.27.09-12.74 0-1.43-2.8-3.84-3.89-4.74-1.46-1.19-3.93-4.72-4.21-6.42-.73-4.41-1.73-4.88-.24-9.61 4.28-.54 6.69-.23 10.77-.14 3.18.07 4.32-2.79 4.76-5.39a5.08 5.08 0 0 1 2.53-3.73c1.73-.73 3.88-9.43 3.11-11.7a18 18 0 0 0 -1.44-3.94 15.13 15.13 0 0 1 -1.79-4c-.66-2.46-5-7.94-7.26-9.27-.81-.48-3.59-4.68-3.88-5.65-.93-3-2.37-5.12-1.63-8.52l.07-.18a23.22 23.22 0 0 0 -1.9-7.37c-.69-1.85-.29-2.81-2-4.88-2.34-2.81-1.31-2-4.54-4.16-1.12-.74-3.93-3-4.17-4.21-.3-1.64.09-3.28-.51-5.67-.41-1.64-.47-6.71-2.73-6.71-3.9 0-9.1-.91-11.76-4-1.86-2.18-4.07-4.24-6.07-6.6-1.75-2.06-6-3.43-8.65-3.4-2.05 0-8.3-.18-7.24-3.65.56-1.84 1.72-5 1.19-6.7-.11-.36-.21-.61-.34-1-1.6-4.45-1.6-4.58-6.35-5.06-4-.4-9.41.16-13.71.16a66 66 0 0 0 -8.66.58 22.11 22.11 0 0 1 -2.38-.07l-3.33-2.77z" fill="#191919" fill-rule="evenodd" stroke="#fff" stroke-miterlimit="1.18" stroke-width=".51"/></svg>