<svg height="179.24" viewBox="0 0 135.39 179.24" width="135.39" xmlns="http://www.w3.org/2000/svg"><path d="m135.14 104.4-2.34 7.53v.13l.75 8c-1.48.27-2.09 1.82-2.52 3-1 2.87.46 4.88.21 5.75-1.58 5.42-4.36 6.16-8.44 8.93-2.1 1.42-3.8 2.36-6.08 4-.94.43-1.67.51-2.3 1.44-1.68 2.49-6.2 5.24-8.31 2.24-1.62-2.3-5.09 3.18-7.39 3-2.83-.27-2.21-4.23-1.71-6.07 1.36-4.94-.57-2.84-1-4.16-.64-2.26 3.78-3.14 1.45-7.35-.39-.7-4.66-3.36-5.53-3.55-3.74-.83-7.12.16-10.76-1.41-2.45-1.06-6.52 1-8.2 2.81-3.69 4.08.12 8.53-2.53 12.17-4.31 5.92-3.13 3.34-2 9.13.55 2.77 1.07 4.31-.83 6.66a27.64 27.64 0 0 1 -6.37 4.79c-2.41 1-10.38 7.44-12.3 9.6-1.74 2-2.36 3.48-4.51 5.16-2.81 2.21-3.56 1.71-6.57 2.6-1.62.48-3.68.19-5.29.11a3.25 3.25 0 0 0 -.42-.41 37.36 37.36 0 0 1 -3.63-3.18c-.56-.5-1.91-2-2-2.11-1.2-1-2-5.85-1.66-7.27a55.89 55.89 0 0 0 .41-8.09c0-1.83-3.31-8.37-4.36-10.08-1.33-2.16 1-6.07 2.31-7.82 1.81-2.43.39-6.62-1.84-7.54a64.79 64.79 0 0 1 -7.68-3.85l-12.52-9.31a20.24 20.24 0 0 0 -.51-4.6c-2.47-7.6 6.74-7.37 11.05-9.55 2.29-1.16 1.53-4 3.12-5.33 3.06-2.52 5.43-3.45 2.44-6.21-4.37-4 .29-22.66 2.63-27.35 1.22-2.45.84-8.81-.28-11.19-1.51-3.19-1-5.64-.38-8.93s-5.95-9.09-7.11-11.81l.07-.3a6.43 6.43 0 0 1 1-2.31l36.28.61c11.12.18 23.2-6.26 32.94-10.16 4.49-7.87-1.7-13.71 8.26-20.3 6.67-4.43 13.09 3.18 21.47-1.6l.84 8.08c1.11 4.43 2.34 4.35 3.26 7 1.68 4.85-.32 8.47.89 13.42.73 3 3.59 4.2 5.29 7.4 3 5.56.71 6.43-1.43 11.88a16.51 16.51 0 0 0 -1.46 8.44c1.66 4.14 1.15 3.83 1.93 7.48 1.28 6 2.23 11.84 6.07 16.68 3.06 3.86 3.36 10.64 3.64 15.36.1 1.71 2.8 7.79 3.92 8.44z" fill="#191919" fill-rule="evenodd" stroke="#fff" stroke-miterlimit="1.18" stroke-width=".51"/></svg>