<svg height="168.62" viewBox="0 0 191.76 168.62" width="191.76" xmlns="http://www.w3.org/2000/svg"><path d="m191.51 55.09-1.57 13.6-.51 13.69-5.1 2.29a14 14 0 0 0 -5.13 4.91c-1.58 3.48-3.8 8-8.46 6.21-1.87-.7-4.33-.41-5.48 1.28-3.78 5.55-4.54-1.17-7.37 3.41-3.42 5.53-10.2 1-15.26 3.68-2.43 1.28-3.89 1.19-5.69 2-4.67 2.21-7.08.94-11.35-1.2-2.59-1.3-6.76 2.62-8.15 4.55-2.52 3.5-1.39 4.25-2.34 6.2-.89 1.8-2.69 2-4 2.54-2.44 1-4.84 1.06-4.74 4 .07 2.06-3 5-4.76 5.08-3.76.19-5.25 2.76-8.24 4.51-3.86 2.26-5.23 2.13-9.79 1.87a28.4 28.4 0 0 0 -4.1-.09c-6.12 0-6.73 5.53-11 7.84s-5.87 2.79-10.6 2.79c-3.54 0-10.3 1.76-11.28 5.76-.55 2.27-3.28 4.47-3.86 5.72-1.17 2.5-4.19 5.68-7 6.13-3.09.49-5.57 2.76-7.7 4.95-1.46 1.51-6 2.17-7.42.66a15.2 15.2 0 0 0 -3.24-3.09c-.52-1.15.35-6.54.51-8.14.3-3.17-.3-5.13-3.67-6-4.06-1-4.15-4.55-4.15-8.1 0-6.42.06-4.23-2.81-9.86l-7-6.82 8.5-8.7c3.7-3.8 14.58-4.79 13.79-10.34-11.36-7.1-5.1-15.74 3.38-21.81.8-1.06 2.15-3.33 3.29-4 3.1-6.86 11.42-11.49 15.29-18.05 12.24-20.82 38.11-35.33 56.5-50.06 5.11-4.76 8.59-7.64 9-12.35l6.34 8.51c1.23 4.39 1.59 3.44 3.5 6.61 1.42 2.37 5 6.15 2.94 9.05-.53.76-6.35 2.21-3.21 6.17 2.29 2.9 5.81 1.29 6.12 7.1.08 1.44 1.87 3.33 2.64 4.9 2.86 5.86 6.95 4.71 11.77 1.93 1.41-.81 5.05-2.23 6.65-1.21a15.51 15.51 0 0 1 4.25 3.15c3.28 3.26 6.46-2.16 10.93-.71 4.28 1.39 12.4-3.91 16.6 3.17 1.75 2.93-1.45 10.9 2.58 11.67 1.85.35 5.62-2.27 7.1-3.3.78-.54 2.49-1.61 3.33-2.1z" fill="#191919" fill-rule="evenodd" stroke="#fff" stroke-miterlimit="1.18" stroke-width=".51"/></svg>