<svg height="114.39" viewBox="0 0 134.97 114.39" width="134.97" xmlns="http://www.w3.org/2000/svg"><path d="m76.58 5.08c4.42.92 2.49.85 5.51 1.92s5.58-1.19 8.1-2.77a5.74 5.74 0 0 0 .68-.51l3.7-3.53c2.91 4.79 2.21 4.07 6 7.68 5 4.86 1.75 9.71 2.85 15.85 1.05 5.81 1.9 10.7 9.23 8.74 2.15-.57 13.78-.71 15.71.07 3.52 1.43 6.48 3.38 6.4 7.64 0 1.75-1.47 4.78-2.31 6.28-1 2.78-2.77 7.63-6.48 7.74-1.9.06-2.22-2.38-4.91.42-1.37 1.43-8.06 2.44-9.93 2.55-2.36.13-7.76 1.59-5.38 4.93 2.07 2.91-1.55 2.07-2.7 3.65-4.06 5.6 4.12 5.53-1.37 12-2 2.35.28 5.11-.42 8.7-.62 3.21 1.65 4-2.25 6a8 8 0 0 0 -2.87 3.41l.9 1.78c-1.12.33-2.91 2.89-3.9 3.8a6.24 6.24 0 0 1 -3.74 1.5c-3.64-.36-3-2.23-5.88-2.37-1.81-.09-4.37.53-5.52 2-.92 1.19-2 1.72-2.94 2.65-1.86 1.92-1.45 1.48-3.67 2.75a14.34 14.34 0 0 1 -4.18 2l-8 3.94c-4.22 0-8 .71-12.14-.12.82-2.09 2.64-7.29 2.64-9.51 0-5.63-3.49-6.11-6.3-8.93-2.45-2.45-1.21-.93-2.82-3.75-1-1.79-2-6-2.8-7-4.24-5.19-11.16 2.41-15.79-2.59-2.07-2.22-.46-1.47-3.44-1.79-2.18-.24-4-3.65-4.7-5.5-1.7-4.25-5.67-2.39-8.41-4.56-4.06-3.24-5.14-4-5.14-9.42 5.42-4.21 2.86-1.44 6.82-3.57 2.91-1.58 3.21-.75 4.89-4.19 1-2.09 4.67-3.35 6.87-3.63 2.64-.34 4-1.34 6-2.95 2.61-2 3.8-6.05 7.41-8.35 1.34-.85 3.11-2.61 4.64-3.27s4.06-4.42 4.06-6.61a19.22 19.22 0 0 1 1-3.95c1.33-2.76.63-3.59 2.47-5.68 1.3-1.47 4.4.94 6 1.54 2 .75 1.72 2.34 5.43 1.56 7.14-1.49 7.27-4.9 11.32-10.15 3.36-4.42 4.2-3.84 8.78-6.19a2.37 2.37 0 0 1 .58-.21z" fill="#191919" fill-rule="evenodd" stroke="#fff" stroke-miterlimit="1.18" stroke-width=".51"/></svg>