<svg height="176.9" viewBox="0 0 195.74 176.9" width="195.74" xmlns="http://www.w3.org/2000/svg"><path d="m81.31 117.51c3.9-2.89 3.11-1.45 6.8-2.93 3.08-1.24 1.94-4.15 2.72-7.29.53-2.14 2.37-8.29 3.77-9.7 2.36-2.36 5.63-1 8.48-.4 5.16 1 2-3.47 6.08-4.1 3.43-.53 5.55-4.7 2.19-6.66a6.54 6.54 0 0 1 -2.74-6 7.31 7.31 0 0 0 0-1c.14-5 .73-5.7 5-7.25 2.48-.89 2.34-1.23 5.33-1.61 2.83-.37 6.54-2.8 9.9-3.21 4.18-.52 7-5.09 10.37-2.38 5.45 4.42 7.08-2 10.69-3.66 3.29-1.49 6.21-9.58 3.85-9.53-2.85.07-9.85 4.14-11.64 2.74-1.14-.89 6.2-8-1.89-4.21-2.22 1-8.7 2-10.35.14-1.4-1.55 3.08-4.22 4.13-4.72 4.43-2.11 3.67-1.42 6.82-5 3.47-3.91 9-.88 13.45-2 3.64-.9 6-6.23 11.18-7.59l.55-.15c4 .84 6.43 1.78 4.33 5.89-.87 1.69-3.19 6.81.44 7 2.15.08 2.55-4.66 8.22-3 1.8.53 7 1.25 8.1-.41.64-1-4.38-5.2-4.87-6.09-1-1.86-.28-3.55 2.09-3.55a20.35 20.35 0 0 0 4.2-.32h1.22l3.16-1.92-.91-5.35a.9.9 0 0 0 -.05-.43c-1-1.91-.38-2-2.07-3.66-3.37-3.27-.61-5.43 2.63-7 1.65-.82 3.46-2.64 3-4.61-.41-1.63-.27-5.56-.32-7.21a5.7 5.7 0 0 0 -1.77.52c-5.29 1.87-5.6 4.46-9.37 6.84a33.72 33.72 0 0 0 -5.61 4.82c-.91 1.33-3.39 2.92-4.56 3.94-1.56 1.37-5.88 4.14-7.85 4.62-4.84 1.17-7.07 1.39-12.06.28l-15.95-2.5c-4.65-1.34-7.35.65-10.38-.17-6-1.62-5.89-.16-11 2-2.55 1.1-5.73 3-8.31 4.25a80 80 0 0 1 -11.22 4.48c-3.69 1.23-10.88 4.57-13.82 7a81.65 81.65 0 0 1 -7.12 5.06c-2.44 1.67-5.8 1.76-8.65 1.27-5.54-1-7.87-2.53-13.91-2.53-3 0-6.21.6-8.88.6-3.53 0-3.16-.26-7.25.34-1.31 0-2.52.08-3.8.08-4.65 0-8.39 1.59-12.85.06-1.38-.47-3.5-4.28-4.13-5.75-1.59-3.68-7.84 1-9.73 2.38-2.88 2.15-3.15 2.85-6.73 4.96 2.91 4.8 2.21 4.07 6 7.69 5 4.85 1.75 9.7 2.86 15.84 1 5.81 1.89 10.7 9.22 8.74 2.15-.57 13.78-.71 15.71.07 3.52 1.43 6.48 3.38 6.4 7.64 0 1.75-1.47 4.78-2.3 6.28-1.06 2.78-2.77 7.63-6.49 7.74-1.89.06-2.22-2.38-4.91.43-1.37 1.42-8.06 2.44-9.93 2.54-2.36.13-7.76 1.59-5.38 4.93 2.07 2.91-1.55 2.07-2.7 3.65-4.06 5.6 4.12 5.53-1.37 12-2 2.35.28 5.11-.41 8.7-.62 3.21 1.64 4-2.26 6a8 8 0 0 0 -2.87 3.4l.9 1.78c6-1.79 5.12-1 9.73-5.09 3.6-3.22 1.13-2.73 4.67-1.35 2.5 1 7.28-3.32 7.28 2.29 0 5.43-.75 9.42 6 5.41 5.81-3.46 5 2 7.79 4.22 4.94 3.87 1.62 5.65-.11 9.34-2.24 4.78-1.77 2.17-.78 6.66.68 3.06-1.28 5.57-2.3 8.68-.75 2.25-1.58 4.51 1.53 5.78 3.45 1.4 6.85-.79 9.55-2.77 4.77-3.51 5.86-10.6 13.25-9 6.31 1.39 5.06-4.73 6.64-7.38.92-1.55 1.8-3.54 3.55-4.27a14.73 14.73 0 0 0 -1.53-5.17c-1.05-2-1-2.85-2.83-4.75-1.63-1.68-4.86-7.46-1-8.57 1.61-.46 6.23 1.39 7.51-1.84.92-2.33-2-5.94 1-7.67 1.95-1.12 2.85-3.92 4.67-4.68.5-.21 1.92-1.83 3.68-2.38a2.18 2.18 0 0 0 .42-.24z" fill="#191919" fill-rule="evenodd" stroke="#fff" stroke-miterlimit="1.18" stroke-width=".51"/></svg>