<svg height="185.19" viewBox="0 0 158.6 185.19" width="158.6" xmlns="http://www.w3.org/2000/svg"><path d="m11.58 75.87 8.93-3a22.41 22.41 0 0 0 11.15-3.48c2.05-1.25 5.11-6.72 8.78-8.28a47.68 47.68 0 0 0 5.23-4.11c5-5.61 2.55-5.48 5.15-10.51 2-3.77 1.41-4.07 4.83-7.49 4.54-4.54.65-12.74 2.71-17.93 6.48-6 14.78-14.88 16.46-17.19 10.98-4.54 30.73-3.53 42.79-3.53l27.78.28c0 4.91-6.25 15.05-8.54 19.65-3.23 6.47-11.32 12-16.42 17.11-7 7-10.18 15.33-18 21.71-4.39 3.57-1.14 6.44 2.72 8.37 4.58 2.29 3.69 8.17 1.13 12.22 2 3 1.82 3.35 2.25 7 .31 2.7 3.22 2.93 5.44 3 2.91.1 2.12 4.89 3.94 7.52 2.27 3.28 6.18 3.5 9.48 4.33 1.46 3.4 1.34 7.61 2.44 11.18 2.3 7.48-4.93 11-2.63 18 1.11 3.33-.32 7.6.66 10.24 1.78 4.82 6.26-2.13 8-3.66 8-4.77 22.52-8.44 22.52 6.29 0 6.19-4.52 8.61-8.91 12-.53.93-2.16 3.09-2.16 4.13-3.09 4-4 3.52-8.17 5.92-1.78 4-5 9.24-10.13 5.36-6.18-4.64-5.68.11-11-.37-8-6.66-21.37 8.23-28.53 10.71-11.2 3.88-15.31 6.47-24.5-2.72-5.64-5.71-10.61-4.74-14.52-1l.37-11.6c.09-3 1.15-8.45.21-10.62-1.23-2.85-11-3.89-13.88-4.32-5.29-.79-8.14-2.27-12.84-3.35-3.34-.76-6.22-1.44-9.52-2.43-2.83-.86-4.07-2.14-6.28-2.94-2-.71-6.41-6.57-7-8.4-.94-3.06-1.39-3.27-1.09-6.93-.76-1.68 1-5 2.69-5.34 2.43-.51 2.87-1 5-2.11 3.13-1.58 3.94-8.58 3.57-11.58-.26-2.14.88-6 2.83-7 3.6-1.89 1.26-11.65.22-14.62-1.33-3.79-2.12-6.53-3.16-10.47z" fill="#191919" fill-rule="evenodd" stroke="#fff" stroke-miterlimit="1.18" stroke-width=".51"/></svg>