<svg viewBox="0 0 599.02 514.27" xmlns="http://www.w3.org/2000/svg"><rect fill="#191919" height="513.52" rx="12" width="598.27" x=".38" y=".38"/><rect fill="none" height="513.52" rx="12" stroke="#fff" stroke-miterlimit="1.18" stroke-width=".75" width="598.27" x=".38" y=".38"/><path d="m118.46 115.6h363.62" fill="none" stroke="#fff" stroke-miterlimit="1.18" stroke-width=".25"/><path d="m32 362v-2h12.75v-6.71h1.86v8.71z" fill="#fff"/><path d="m32 351.22v-9.44h1.86v7.46h4.34v-6.94h1.86v6.94h4.69v-7.83h1.86v9.81z" fill="#fff"/><path d="m32 340.6v-2.29l11.9-4.3-11.9-4.5v-2.17l14.63 5.76v1.9z" fill="#fff"/><path d="m32 325.58v-9.44h1.86v7.46h4.34v-6.94h1.86v6.94h4.69v-7.83h1.86v9.81z" fill="#fff"/><path d="m32 313v-2h12.75v-6.72h1.86v8.72z" fill="#fff"/><path d="m47 289.78a7.94 7.94 0 0 1 -.59 3.08 7.11 7.11 0 0 1 -1.62 2.41 7.64 7.64 0 0 1 -2.44 1.57 8.37 8.37 0 0 1 -6.07 0 7.64 7.64 0 0 1 -2.44-1.57 7.11 7.11 0 0 1 -1.62-2.41 8.33 8.33 0 0 1 0-6.16 7.07 7.07 0 0 1 1.62-2.4 7.31 7.31 0 0 1 2.44-1.57 8.37 8.37 0 0 1 6.07 0 7.31 7.31 0 0 1 2.44 1.57 7.07 7.07 0 0 1 1.62 2.4 8 8 0 0 1 .59 3.08zm-1.86 0a5.35 5.35 0 0 0 -.46-2.27 5.49 5.49 0 0 0 -1.25-1.74 5.57 5.57 0 0 0 -1.85-1.11 6.61 6.61 0 0 0 -4.53 0 5.57 5.57 0 0 0 -1.85 1.11 5.49 5.49 0 0 0 -1.25 1.74 5.49 5.49 0 0 0 1.25 6.28 5.76 5.76 0 0 0 1.8 1.12 6.77 6.77 0 0 0 4.53 0 5.76 5.76 0 0 0 1.85-1.12 5.31 5.31 0 0 0 1.71-4z" fill="#fff"/><path d="m32 279.31v-9.2h1.86v7.21h4.59v-6.71h1.86v6.71h6.32v2z" fill="#fff"/><path d="m32 261.71v-5.15a6.06 6.06 0 0 1 .38-2.31 4 4 0 0 1 1-1.44 3.42 3.42 0 0 1 1.33-.73 5.07 5.07 0 0 1 1.41-.21 5.14 5.14 0 0 1 1.42.21 3.38 3.38 0 0 1 1.32.73 4 4 0 0 1 1 1.44 6.06 6.06 0 0 1 .38 2.31v3.16h6.45v2zm6.45-2v-2.6a7.34 7.34 0 0 0 -.1-1.15 2.94 2.94 0 0 0 -.34-1 1.8 1.8 0 0 0 -.71-.71 2.85 2.85 0 0 0 -2.42 0 1.8 1.8 0 0 0 -.71.71 2.94 2.94 0 0 0 -.34 1 7.33 7.33 0 0 0 -.09 1.15v2.6z" fill="#fff"/><path d="m32 249.45v-5.14a6.06 6.06 0 0 1 .38-2.31 4 4 0 0 1 1-1.44 3.29 3.29 0 0 1 1.33-.73 5.07 5.07 0 0 1 1.41-.21 3.86 3.86 0 0 1 2.53 1 4.06 4.06 0 0 1 .89 1.14 3.81 3.81 0 0 1 .44 1.5l6.68-4.16v2.48l-6.45 3.72v2.21h6.45v2zm6.45-2v-2.6a7.34 7.34 0 0 0 -.1-1.15 2.94 2.94 0 0 0 -.34-1 1.8 1.8 0 0 0 -.71-.71 2.85 2.85 0 0 0 -2.42 0 1.8 1.8 0 0 0 -.71.71 2.94 2.94 0 0 0 -.34 1 7.33 7.33 0 0 0 -.09 1.15v2.6z" fill="#fff"/><path d="m32 236.83v-2h14.61v2z" fill="#fff"/><path d="m32 231.42v-5.1a9.61 9.61 0 0 1 .35-2.72 7.61 7.61 0 0 1 .94-2 6 6 0 0 1 1.36-1.42 7.13 7.13 0 0 1 1.57-.9 7.37 7.37 0 0 1 1.61-.47 8.07 8.07 0 0 1 1.48-.15 7.23 7.23 0 0 1 2.72.52 6.78 6.78 0 0 1 2.34 1.53 7.59 7.59 0 0 1 1.63 2.48 9 9 0 0 1 .62 3.46v4.77zm12.77-2v-2.5a8.12 8.12 0 0 0 -.34-2.39 5.85 5.85 0 0 0 -1-2 4.93 4.93 0 0 0 -1.71-1.35 5.43 5.43 0 0 0 -2.39-.49 7.21 7.21 0 0 0 -1.64.22 4.89 4.89 0 0 0 -3.22 2.61 6.21 6.21 0 0 0 -.59 2.89v3z" fill="#fff"/><path d="m32 215.78v-9.44h1.86v7.46h4.34v-7h1.86v7h4.69v-7.8h1.86v9.81z" fill="#fff"/><path d="m66 432.5c0-.55 0-1.13.08-1.75a12 12 0 0 1 .28-1.81 9.22 9.22 0 0 1 .57-1.68 5 5 0 0 1 .93-1.4 4.06 4.06 0 0 1 1.36-1 5.12 5.12 0 0 1 3.77 0 4.17 4.17 0 0 1 1.36 1 4.79 4.79 0 0 1 .92 1.4 8.52 8.52 0 0 1 .57 1.68 13.39 13.39 0 0 1 .29 1.81c0 .62.07 1.2.07 1.75s0 1.16-.07 1.77a13.5 13.5 0 0 1 -.29 1.8 8.65 8.65 0 0 1 -.57 1.67 5 5 0 0 1 -.92 1.41 4.17 4.17 0 0 1 -1.36 1 5.12 5.12 0 0 1 -3.77 0 4.06 4.06 0 0 1 -1.36-1 5.23 5.23 0 0 1 -.93-1.41 9.39 9.39 0 0 1 -.57-1.67 12 12 0 0 1 -.28-1.8c-.08-.61-.08-1.2-.08-1.77zm1.44 0v1.34a13.14 13.14 0 0 0 .18 1.49 9.33 9.33 0 0 0 .38 1.47 5.23 5.23 0 0 0 .65 1.27 3 3 0 0 0 1 .89 2.73 2.73 0 0 0 1.41.34 2.78 2.78 0 0 0 1.41-.34 3 3 0 0 0 1-.89 4.61 4.61 0 0 0 .65-1.27 9.37 9.37 0 0 0 .39-1.47c.08-.51.14-1 .17-1.49s0-.93 0-1.34 0-.83 0-1.33-.09-1-.17-1.49a9.37 9.37 0 0 0 -.39-1.47 4.61 4.61 0 0 0 -.65-1.27 3.19 3.19 0 0 0 -1-.9 2.88 2.88 0 0 0 -1.41-.34 2.84 2.84 0 0 0 -1.4.34 3.23 3.23 0 0 0 -1 .9 5.23 5.23 0 0 0 -.65 1.27 9.33 9.33 0 0 0 -.38 1.47 12.87 12.87 0 0 0 -.18 1.49c-.04.5-.06.94-.06 1.33z" fill="#fff"/><path d="m133.31 426h-6.37l-.06 4.9a3.32 3.32 0 0 1 1.09-.35 7.65 7.65 0 0 1 1.16-.09 4.77 4.77 0 0 1 2 .41 4.49 4.49 0 0 1 1.51 1.1 5 5 0 0 1 1 1.62 5.82 5.82 0 0 1 .34 2 5 5 0 0 1 -.45 2.18 4.6 4.6 0 0 1 -1.17 1.55 4.77 4.77 0 0 1 -1.59.91 5 5 0 0 1 -1.72.31 5.32 5.32 0 0 1 -2.84-.7 4.72 4.72 0 0 1 -1.78-1.92l1.35-.67a3.23 3.23 0 0 0 .54.82 3.82 3.82 0 0 0 .77.67 3.57 3.57 0 0 0 .94.46 3.2 3.2 0 0 0 1 .16 3 3 0 0 0 1.13-.23 3.59 3.59 0 0 0 2-1.84 3.57 3.57 0 0 0 .35-1.61 4.09 4.09 0 0 0 -.3-1.56 3.83 3.83 0 0 0 -3.58-2.45 4.67 4.67 0 0 0 -1.61.29 6.16 6.16 0 0 0 -1.44.76l.13-7.87h7.61z" fill="#fff"/><path d="m181.63 426.62-2.79 2.29-.8-1 3.81-3.12h1.11v15.43h-1.31z" fill="#fff"/><path d="m187.84 432.5c0-.55 0-1.13.08-1.75a12 12 0 0 1 .28-1.81 9.22 9.22 0 0 1 .57-1.68 5 5 0 0 1 .93-1.4 4.06 4.06 0 0 1 1.36-1 5.12 5.12 0 0 1 3.77 0 4.17 4.17 0 0 1 1.36 1 5 5 0 0 1 .93 1.4 9.2 9.2 0 0 1 .56 1.68 13.39 13.39 0 0 1 .29 1.81c.05.62.07 1.2.07 1.75s0 1.16-.07 1.77a13.5 13.5 0 0 1 -.29 1.8 9.36 9.36 0 0 1 -.56 1.67 5.23 5.23 0 0 1 -.93 1.41 4.17 4.17 0 0 1 -1.36 1 5.12 5.12 0 0 1 -3.77 0 4.06 4.06 0 0 1 -1.36-1 5.23 5.23 0 0 1 -.93-1.41 9.39 9.39 0 0 1 -.57-1.67 12 12 0 0 1 -.28-1.8c-.05-.61-.08-1.2-.08-1.77zm1.44 0c0 .41 0 .86.05 1.34a11.15 11.15 0 0 0 .17 1.49 9.33 9.33 0 0 0 .38 1.47 5.23 5.23 0 0 0 .65 1.27 3 3 0 0 0 1 .89 2.73 2.73 0 0 0 1.41.34 2.78 2.78 0 0 0 1.41-.34 3 3 0 0 0 1-.89 4.61 4.61 0 0 0 .65-1.27 9.37 9.37 0 0 0 .39-1.47c.08-.51.14-1 .17-1.49s0-.93 0-1.34 0-.83 0-1.33-.09-1-.17-1.49a9.37 9.37 0 0 0 -.39-1.47 4.61 4.61 0 0 0 -.65-1.27 3.19 3.19 0 0 0 -1-.9 2.88 2.88 0 0 0 -1.41-.34 2.84 2.84 0 0 0 -1.4.34 3.23 3.23 0 0 0 -1 .9 5.23 5.23 0 0 0 -.65 1.27 9.33 9.33 0 0 0 -.38 1.47 11 11 0 0 0 -.17 1.49c-.04.5-.06.94-.06 1.33z" fill="#fff"/><path d="m239.74 426.62-2.79 2.29-.8-1 3.81-3.12h1.11v15.43h-1.31z" fill="#fff"/><path d="m255.19 426h-6.36l-.06 4.9a3.32 3.32 0 0 1 1.09-.35 7.65 7.65 0 0 1 1.16-.09 4.77 4.77 0 0 1 2 .41 4.49 4.49 0 0 1 1.51 1.1 5 5 0 0 1 1 1.62 5.82 5.82 0 0 1 .34 2 5 5 0 0 1 -.45 2.18 4.6 4.6 0 0 1 -1.17 1.55 4.87 4.87 0 0 1 -1.59.91 5 5 0 0 1 -1.72.31 5.32 5.32 0 0 1 -2.84-.7 4.72 4.72 0 0 1 -1.78-1.92l1.35-.67a3.23 3.23 0 0 0 .54.82 3.82 3.82 0 0 0 .77.67 3.57 3.57 0 0 0 .94.46 3.2 3.2 0 0 0 1 .16 3 3 0 0 0 1.13-.23 3.59 3.59 0 0 0 2-1.84 3.57 3.57 0 0 0 .35-1.61 4.09 4.09 0 0 0 -.3-1.56 3.83 3.83 0 0 0 -3.58-2.45 4.67 4.67 0 0 0 -1.61.29 6.16 6.16 0 0 0 -1.44.76l.13-7.87h7.6z" fill="#fff"/><path d="m293.06 438.69 5.8-6.12q.39-.39.78-.84a8 8 0 0 0 .71-.94 4.94 4.94 0 0 0 .51-1 3.52 3.52 0 0 0 .2-1.18 2.66 2.66 0 0 0 -.87-2.11 3.22 3.22 0 0 0 -2.2-.77 3.07 3.07 0 0 0 -2 .7 3.22 3.22 0 0 0 -1.07 1.83l-1.52-.15a4.1 4.1 0 0 1 1.63-2.67 5.18 5.18 0 0 1 3.05-.88 5.31 5.31 0 0 1 1.7.27 4.52 4.52 0 0 1 1.42.77 3.89 3.89 0 0 1 1 1.23 3.76 3.76 0 0 1 .36 1.67 4.7 4.7 0 0 1 -.28 1.66 7.22 7.22 0 0 1 -.71 1.45 8.45 8.45 0 0 1 -1 1.29c-.38.41-.77.82-1.16 1.22l-4.82 5h8.11v1.18h-9.55z" fill="#fff"/><path d="m304.07 432.5c0-.55 0-1.13.07-1.75a12 12 0 0 1 .29-1.81 8.5 8.5 0 0 1 .56-1.68 5 5 0 0 1 .93-1.4 4.17 4.17 0 0 1 1.36-1 5.12 5.12 0 0 1 3.77 0 4.06 4.06 0 0 1 1.36 1 5 5 0 0 1 .93 1.4 9.22 9.22 0 0 1 .57 1.68 13.38 13.38 0 0 1 .28 1.81c.05.62.08 1.2.08 1.75s0 1.16-.08 1.77a13.48 13.48 0 0 1 -.28 1.8 9.39 9.39 0 0 1 -.57 1.67 5.23 5.23 0 0 1 -.93 1.41 4.06 4.06 0 0 1 -1.36 1 5.12 5.12 0 0 1 -3.77 0 4.17 4.17 0 0 1 -1.36-1 5.23 5.23 0 0 1 -.93-1.41 8.63 8.63 0 0 1 -.56-1.67 12.06 12.06 0 0 1 -.29-1.8c-.05-.61-.07-1.2-.07-1.77zm1.44 0v1.34s.09 1 .17 1.49a10.57 10.57 0 0 0 .38 1.47 4.92 4.92 0 0 0 .66 1.27 3.12 3.12 0 0 0 1 .89 3.09 3.09 0 0 0 2.82 0 3 3 0 0 0 1-.89 4.92 4.92 0 0 0 .66-1.27 10.57 10.57 0 0 0 .38-1.47 13.08 13.08 0 0 0 .17-1.49c0-.48.05-.93.05-1.34s0-.83-.05-1.33a12.83 12.83 0 0 0 -.17-1.49 10.57 10.57 0 0 0 -.38-1.47 4.92 4.92 0 0 0 -.66-1.27 3.09 3.09 0 0 0 -1-.9 3.07 3.07 0 0 0 -2.81 0 3.19 3.19 0 0 0 -1 .9 4.92 4.92 0 0 0 -.66 1.27 10.57 10.57 0 0 0 -.38 1.47c-.08.5-.14 1-.17 1.49s-.01.94-.01 1.33z" fill="#fff"/><path d="m351.17 438.69 5.8-6.12q.39-.39.78-.84a7 7 0 0 0 .71-.94 4.94 4.94 0 0 0 .51-1 3.29 3.29 0 0 0 .2-1.18 2.66 2.66 0 0 0 -.87-2.11 3.22 3.22 0 0 0 -2.2-.77 3.07 3.07 0 0 0 -2 .7 3.22 3.22 0 0 0 -1.07 1.83l-1.52-.15a4.1 4.1 0 0 1 1.63-2.67 5.2 5.2 0 0 1 3.05-.88 5.27 5.27 0 0 1 1.7.27 4.52 4.52 0 0 1 1.42.77 3.63 3.63 0 0 1 1.33 2.9 4.94 4.94 0 0 1 -.27 1.66 7.26 7.26 0 0 1 -.72 1.45 8.45 8.45 0 0 1 -1 1.29c-.38.41-.77.82-1.16 1.22l-4.82 5h8.11v1.18h-9.55z" fill="#fff"/><path d="m371.42 426h-6.36l-.07 4.9a3.32 3.32 0 0 1 1.09-.35 7.75 7.75 0 0 1 1.16-.09 4.77 4.77 0 0 1 2 .41 4.49 4.49 0 0 1 1.51 1.1 5 5 0 0 1 1 1.62 5.59 5.59 0 0 1 .34 2 5 5 0 0 1 -.45 2.18 4.45 4.45 0 0 1 -1.16 1.55 4.87 4.87 0 0 1 -1.59.91 5 5 0 0 1 -1.72.31 5.33 5.33 0 0 1 -2.85-.7 4.69 4.69 0 0 1 -1.77-1.92l1.35-.67a3.19 3.19 0 0 0 .53.82 4.12 4.12 0 0 0 .77.67 3.73 3.73 0 0 0 .94.46 3.26 3.26 0 0 0 1 .16 3.12 3.12 0 0 0 1.13-.23 3.78 3.78 0 0 0 1.13-.68 3.68 3.68 0 0 0 .87-1.16 3.44 3.44 0 0 0 .35-1.61 4.28 4.28 0 0 0 -.29-1.56 4 4 0 0 0 -.82-1.27 3.82 3.82 0 0 0 -2.77-1.18 4.67 4.67 0 0 0 -1.61.29 6.59 6.59 0 0 0 -1.44.76l.13-7.87h7.61z" fill="#fff"/><path d="m410.7 437a4 4 0 0 0 1.19 1.71 3.22 3.22 0 0 0 2.06.6 3.87 3.87 0 0 0 1.5-.26 2.77 2.77 0 0 0 1.08-.72 3 3 0 0 0 .64-1.07 3.7 3.7 0 0 0 .22-1.3 2.8 2.8 0 0 0 -.36-1.46 3 3 0 0 0 -.93-1 4.15 4.15 0 0 0 -1.31-.56 6.16 6.16 0 0 0 -1.47-.18h-.57v-1.3h.65a4.87 4.87 0 0 0 1.24-.17 3.52 3.52 0 0 0 1.11-.51 2.65 2.65 0 0 0 .79-.9 2.68 2.68 0 0 0 .31-1.34 2.71 2.71 0 0 0 -2.85-2.84 3.17 3.17 0 0 0 -1.72.49 3.47 3.47 0 0 0 -1.2 1.32l-1.24-.69a4 4 0 0 1 1.73-1.75 5.48 5.48 0 0 1 2.43-.54 5.34 5.34 0 0 1 1.66.25 4 4 0 0 1 1.37.74 3.58 3.58 0 0 1 .93 1.23 4.25 4.25 0 0 1 .34 1.74 3.77 3.77 0 0 1 -.7 2.24 3.66 3.66 0 0 1 -2 1.34 4 4 0 0 1 1.34.49 4.42 4.42 0 0 1 1 .88 3.93 3.93 0 0 1 .67 1.18 4 4 0 0 1 .24 1.4 5.13 5.13 0 0 1 -.29 1.72 3.92 3.92 0 0 1 -.9 1.4 4.19 4.19 0 0 1 -1.49.95 5.79 5.79 0 0 1 -2.09.35 5.63 5.63 0 0 1 -3-.73 4.44 4.44 0 0 1 -1.81-2.3z" fill="#fff"/><path d="m420.29 432.5c0-.55 0-1.13.08-1.75a12 12 0 0 1 .28-1.81 9.22 9.22 0 0 1 .57-1.68 5.23 5.23 0 0 1 .92-1.4 4.11 4.11 0 0 1 1.37-1 5.09 5.09 0 0 1 3.76 0 4.11 4.11 0 0 1 1.37 1 5 5 0 0 1 .92 1.4 9.22 9.22 0 0 1 .57 1.68 12 12 0 0 1 .28 1.81c0 .62.08 1.2.08 1.75s0 1.16-.08 1.77a12 12 0 0 1 -.28 1.8 9.39 9.39 0 0 1 -.57 1.67 5.2 5.2 0 0 1 -.92 1.41 4.11 4.11 0 0 1 -1.37 1 5.09 5.09 0 0 1 -3.76 0 4.11 4.11 0 0 1 -1.37-1 5.45 5.45 0 0 1 -.92-1.41 9.39 9.39 0 0 1 -.57-1.67 12 12 0 0 1 -.28-1.8c-.05-.61-.08-1.2-.08-1.77zm1.44 0v1.34a13.14 13.14 0 0 0 .18 1.49 8.36 8.36 0 0 0 .38 1.47 4.61 4.61 0 0 0 .65 1.27 3.12 3.12 0 0 0 1 .89 3.11 3.11 0 0 0 2.83 0 3.15 3.15 0 0 0 1-.89 4.9 4.9 0 0 0 .65-1.27 8.36 8.36 0 0 0 .38-1.47 13.14 13.14 0 0 0 .18-1.49c0-.48 0-.93 0-1.34s0-.83 0-1.33a12.87 12.87 0 0 0 -.18-1.49 8.36 8.36 0 0 0 -.38-1.47 4.9 4.9 0 0 0 -.65-1.27 3.31 3.31 0 0 0 -1-.9 3.09 3.09 0 0 0 -2.82 0 3.19 3.19 0 0 0 -1 .9 4.61 4.61 0 0 0 -.65 1.27 8.36 8.36 0 0 0 -.38 1.47 12.87 12.87 0 0 0 -.18 1.49c0 .5-.01.94-.01 1.33z" fill="#fff"/><path d="m468.81 437a4 4 0 0 0 1.19 1.7 3.22 3.22 0 0 0 2.06.6 3.87 3.87 0 0 0 1.5-.26 2.77 2.77 0 0 0 1.08-.72 3 3 0 0 0 .65-1.07 3.94 3.94 0 0 0 .21-1.3 2.8 2.8 0 0 0 -.36-1.46 3 3 0 0 0 -.93-1 4.06 4.06 0 0 0 -1.31-.56 6.16 6.16 0 0 0 -1.47-.18h-.57v-1.3h.66a4.86 4.86 0 0 0 1.23-.17 3.52 3.52 0 0 0 1.11-.51 2.55 2.55 0 0 0 .79-.9 2.68 2.68 0 0 0 .31-1.34 2.82 2.82 0 0 0 -.77-2 2.79 2.79 0 0 0 -2.09-.8 3.19 3.19 0 0 0 -1.72.49 3.47 3.47 0 0 0 -1.2 1.32l-1.24-.69a3.93 3.93 0 0 1 1.74-1.75 5.41 5.41 0 0 1 2.42-.54 5.29 5.29 0 0 1 1.66.25 4 4 0 0 1 1.37.74 3.46 3.46 0 0 1 .93 1.23 4.09 4.09 0 0 1 .34 1.74 3.71 3.71 0 0 1 -.7 2.24 3.62 3.62 0 0 1 -2.05 1.34 3.9 3.9 0 0 1 1.34.49 4.22 4.22 0 0 1 1 .88 3.93 3.93 0 0 1 .67 1.18 4 4 0 0 1 .24 1.4 5.13 5.13 0 0 1 -.29 1.72 4 4 0 0 1 -.89 1.4 4.33 4.33 0 0 1 -1.5.95 5.75 5.75 0 0 1 -2.09.35 5.56 5.56 0 0 1 -2.95-.73 4.4 4.4 0 0 1 -1.82-2.3z" fill="#fff"/><path d="m487.64 426h-6.36l-.07 4.9a3.38 3.38 0 0 1 1.1-.35 7.65 7.65 0 0 1 1.16-.09 4.77 4.77 0 0 1 2 .41 4.36 4.36 0 0 1 1.5 1.1 4.89 4.89 0 0 1 1 1.62 5.82 5.82 0 0 1 .33 2 5 5 0 0 1 -.44 2.18 4.6 4.6 0 0 1 -1.17 1.55 4.87 4.87 0 0 1 -1.59.91 5 5 0 0 1 -1.72.31 5.32 5.32 0 0 1 -2.84-.7 4.65 4.65 0 0 1 -1.78-1.92l1.35-.67a3.47 3.47 0 0 0 .53.82 4.18 4.18 0 0 0 .78.67 3.57 3.57 0 0 0 .94.46 3.2 3.2 0 0 0 1 .16 3 3 0 0 0 1.13-.23 3.71 3.71 0 0 0 1.14-.68 3.84 3.84 0 0 0 .87-1.16 3.57 3.57 0 0 0 .35-1.61 4.09 4.09 0 0 0 -.3-1.56 3.86 3.86 0 0 0 -.82-1.27 3.59 3.59 0 0 0 -1.23-.86 3.71 3.71 0 0 0 -1.53-.32 4.63 4.63 0 0 0 -1.61.29 6.16 6.16 0 0 0 -1.44.76l.13-7.87h7.6z" fill="#fff"/><path d="m531.79 436.43h-6.67v-1.55l6.16-10.09h1.81v10.46h2.36v1.18h-2.36v3.79h-1.3zm0-10.2-5.45 9h5.5z" fill="#fff"/><path d="m536.51 432.5c0-.55 0-1.13.08-1.75a13.38 13.38 0 0 1 .28-1.81 9.22 9.22 0 0 1 .57-1.68 5 5 0 0 1 .93-1.4 4.06 4.06 0 0 1 1.36-1 5.12 5.12 0 0 1 3.77 0 4.17 4.17 0 0 1 1.36 1 5 5 0 0 1 .93 1.4 8.5 8.5 0 0 1 .56 1.68 12 12 0 0 1 .29 1.81c.05.62.07 1.2.07 1.75s0 1.16-.07 1.77a12.06 12.06 0 0 1 -.29 1.8 8.63 8.63 0 0 1 -.56 1.67 5.23 5.23 0 0 1 -.93 1.41 4.17 4.17 0 0 1 -1.36 1 5.12 5.12 0 0 1 -3.77 0 4.06 4.06 0 0 1 -1.36-1 5.23 5.23 0 0 1 -.93-1.41 9.39 9.39 0 0 1 -.57-1.67 13.48 13.48 0 0 1 -.28-1.8c-.05-.61-.08-1.2-.08-1.77zm1.44 0v1.34a11.15 11.15 0 0 0 .17 1.49 9.33 9.33 0 0 0 .38 1.47 4.92 4.92 0 0 0 .66 1.27 3 3 0 0 0 1 .89 2.73 2.73 0 0 0 1.41.34 2.78 2.78 0 0 0 1.43-.3 3 3 0 0 0 1-.89 4.92 4.92 0 0 0 .66-1.27 10.57 10.57 0 0 0 .38-1.47c.08-.51.14-1 .17-1.49s0-.93 0-1.34 0-.83 0-1.33-.09-1-.17-1.49a10.57 10.57 0 0 0 -.38-1.47 4.92 4.92 0 0 0 -.66-1.27 3.19 3.19 0 0 0 -1-.9 3.07 3.07 0 0 0 -2.81 0 3.09 3.09 0 0 0 -1 .9 4.92 4.92 0 0 0 -.66 1.27 9.33 9.33 0 0 0 -.38 1.47 11 11 0 0 0 -.17 1.49c.02.46.02.9.02 1.29z" fill="#fff"/><path d="m71.05 419.44h464.9" fill="none" stroke="#fff" stroke-miterlimit="10"/><path d="m71.05 419.44v-7.09" fill="none" stroke="#fff" stroke-miterlimit="10"/><path d="m129.16 419.44v-7.09" fill="none" stroke="#fff" stroke-miterlimit="10"/><path d="m187.28 419.44v-7.09" fill="none" stroke="#fff" stroke-miterlimit="10"/><path d="m245.39 419.44v-7.09" fill="none" stroke="#fff" stroke-miterlimit="10"/><path d="m303.5 419.44v-7.09" fill="none" stroke="#fff" stroke-miterlimit="10"/><path d="m361.61 419.44v-7.09" fill="none" stroke="#fff" stroke-miterlimit="10"/><path d="m419.72 419.44v-7.09" fill="none" stroke="#fff" stroke-miterlimit="10"/><path d="m477.84 419.44v-7.09" fill="none" stroke="#fff" stroke-miterlimit="10"/><path d="m535.95 419.44v-7.09" fill="none" stroke="#fff" stroke-miterlimit="10"/><path d="m71.05 419.44v-283.77" fill="none" stroke="#fff" stroke-miterlimit="10"/><path d="m71.05 277.55h11.63" fill="none" stroke="#fff" stroke-miterlimit="10"/><path d="m71.05 337.15h464.9v51.08h-464.9z" fill="#245b96" stroke="#fff" stroke-miterlimit="10" stroke-width=".5"/><path d="m71.05 280.39h232.45v51.08h-232.45z" fill="#14396c" stroke="#fff" stroke-miterlimit="10" stroke-width=".5"/><path d="m71.05 223.64h464.9v51.08h-464.9z" fill="#061f4b" stroke="#fff" stroke-miterlimit="10" stroke-width=".5"/><g fill="#fff"><path d="m195.71 306.45a1.72 1.72 0 0 0 .76.77 2.16 2.16 0 0 0 1.05.27 1.88 1.88 0 0 0 .52-.08 1.55 1.55 0 0 0 .46-.24 1.42 1.42 0 0 0 .33-.36.9.9 0 0 0 .13-.49.79.79 0 0 0 -.28-.66 1.89 1.89 0 0 0 -.68-.34 6.59 6.59 0 0 0 -.9-.22 4 4 0 0 1 -.89-.27 2.1 2.1 0 0 1 -.69-.52 1.44 1.44 0 0 1 -.27-.94 1.62 1.62 0 0 1 .19-.81 1.69 1.69 0 0 1 .49-.57 2.34 2.34 0 0 1 .69-.34 2.87 2.87 0 0 1 .77-.11 2.9 2.9 0 0 1 1.33.29 2 2 0 0 1 .88.91l-.74.44a1.73 1.73 0 0 0 -.57-.67 1.62 1.62 0 0 0 -.9-.22 1.88 1.88 0 0 0 -.46.06 1.48 1.48 0 0 0 -.42.2 1.05 1.05 0 0 0 -.32.31.76.76 0 0 0 -.13.44.74.74 0 0 0 .28.64 2 2 0 0 0 .68.32 6.69 6.69 0 0 0 .9.2 4 4 0 0 1 .89.27 1.7 1.7 0 0 1 .68.54 1.53 1.53 0 0 1 .28 1 1.94 1.94 0 0 1 -.18.86 1.75 1.75 0 0 1 -.5.61 2.1 2.1 0 0 1 -.73.37 3 3 0 0 1 -.85.13 3.42 3.42 0 0 1 -1.48-.32 2.24 2.24 0 0 1 -1-1z"/><path d="m201.11 304.89a3.4 3.4 0 0 1 .25-1.34 3.2 3.2 0 0 1 .67-1.06 2.93 2.93 0 0 1 1.05-.7 3.64 3.64 0 0 1 2.65 0 3 3 0 0 1 1 .7 3.07 3.07 0 0 1 .68 1.06 3.4 3.4 0 0 1 .25 1.34 3.44 3.44 0 0 1 -.25 1.34 3.16 3.16 0 0 1 -.68 1.06 3.13 3.13 0 0 1 -1 .7 3.64 3.64 0 0 1 -2.65 0 3.07 3.07 0 0 1 -1.05-.7 3.3 3.3 0 0 1 -.67-1.06 3.44 3.44 0 0 1 -.25-1.34zm.82 0a2.82 2.82 0 0 0 .17 1 2.31 2.31 0 0 0 .49.83 2.51 2.51 0 0 0 .79.56 2.59 2.59 0 0 0 1 .2 2.63 2.63 0 0 0 1-.2 2.59 2.59 0 0 0 .78-.56 2.49 2.49 0 0 0 .5-.83 3.06 3.06 0 0 0 .17-1 3 3 0 0 0 -.17-1 2.39 2.39 0 0 0 -.5-.83 2.59 2.59 0 0 0 -.78-.56 2.46 2.46 0 0 0 -1-.2 2.43 2.43 0 0 0 -1 .2 2.51 2.51 0 0 0 -.79.56 2.23 2.23 0 0 0 -.49.83 2.78 2.78 0 0 0 -.17 1z"/><path d="m209.51 303.5c0-.12 0-.27 0-.44s0-.34 0-.51 0-.34 0-.49 0-.27 0-.35h.82v.69a1.74 1.74 0 0 0 0 .42 2.26 2.26 0 0 1 .82-.9 2.35 2.35 0 0 1 1.32-.38 2.05 2.05 0 0 1 1.14.33 1.84 1.84 0 0 1 .75 1.05 2 2 0 0 1 .88-1.05 2.53 2.53 0 0 1 1.24-.33 2.61 2.61 0 0 1 1.2.24 2 2 0 0 1 .72.61 2.27 2.27 0 0 1 .37.87 5.69 5.69 0 0 1 .1 1v3.79h-.82v-3.75a4.74 4.74 0 0 0 -.06-.75 2.19 2.19 0 0 0 -.24-.65 1.22 1.22 0 0 0 -.47-.46 1.58 1.58 0 0 0 -.8-.17 1.83 1.83 0 0 0 -.93.21 1.59 1.59 0 0 0 -.58.54 2.29 2.29 0 0 0 -.3.72 3.88 3.88 0 0 0 -.08.73v3.58h-.82v-3.83a2.79 2.79 0 0 0 -.31-1.42 1.07 1.07 0 0 0 -1-.53 2.36 2.36 0 0 0 -.84.15 1.78 1.78 0 0 0 -.69.49 2.12 2.12 0 0 0 -.46.81 3.32 3.32 0 0 0 -.17 1.15v3.18h-.82z"/><path d="m226.58 306.87a2.67 2.67 0 0 1 -1.17 1.05 3.72 3.72 0 0 1 -1.54.32 3.38 3.38 0 0 1 -1.3-.25 3 3 0 0 1 -1-.7 3.07 3.07 0 0 1 -.64-1.06 3.92 3.92 0 0 1 -.23-1.36 3.81 3.81 0 0 1 .23-1.32 3.32 3.32 0 0 1 .65-1.05 3 3 0 0 1 1-.7 3.05 3.05 0 0 1 1.26-.26 3 3 0 0 1 1.27.26 2.84 2.84 0 0 1 .92.67 2.73 2.73 0 0 1 .56 1 3.17 3.17 0 0 1 .19 1.09v.58h-5.25a2.71 2.71 0 0 0 .1.66 2.31 2.31 0 0 0 .37.8 2.56 2.56 0 0 0 .72.66 2.32 2.32 0 0 0 1.18.27 2.6 2.6 0 0 0 1.2-.3 2.19 2.19 0 0 0 .9-.83zm-.62-2.52a2 2 0 0 0 -.17-.8 2.13 2.13 0 0 0 -.46-.65 2.17 2.17 0 0 0 -.69-.45 2.22 2.22 0 0 0 -.85-.16 2.06 2.06 0 0 0 -1.1.27 2.55 2.55 0 0 0 -.7.63 2.8 2.8 0 0 0 -.37.7 1.9 1.9 0 0 0 -.1.46z"/><path d="m227.71 301.71h.89l1.52 5.33 1.75-5.33h.77l1.86 5.33 1.47-5.33h.82l-1.79 6.36h-.85l-1.86-5.21-1.75 5.21h-.84z"/><path d="m238.12 297.66h.82v5.16a2.26 2.26 0 0 1 .82-.9 2.35 2.35 0 0 1 1.32-.38 2.61 2.61 0 0 1 1.2.24 1.88 1.88 0 0 1 .72.61 2.27 2.27 0 0 1 .37.87 4.9 4.9 0 0 1 .1 1v3.79h-.81v-3.75a4.76 4.76 0 0 0 -.07-.75 2.19 2.19 0 0 0 -.24-.65 1.22 1.22 0 0 0 -.47-.46 1.58 1.58 0 0 0 -.8-.17 2.36 2.36 0 0 0 -.84.15 1.78 1.78 0 0 0 -.69.49 2.12 2.12 0 0 0 -.46.81 3.32 3.32 0 0 0 -.17 1.15v3.18h-.82z"/><path d="m250.52 305.4v.84s0 .48 0 .69 0 .41 0 .59a5.14 5.14 0 0 0 .06.55h-.76a6.53 6.53 0 0 1 -.08-1 2.32 2.32 0 0 1 -.87.91 2.74 2.74 0 0 1 -1.32.29 3.09 3.09 0 0 1 -.8-.11 2.06 2.06 0 0 1 -.7-.33 1.78 1.78 0 0 1 -.51-.58 1.8 1.8 0 0 1 -.2-.87 1.7 1.7 0 0 1 .37-1.16 2.25 2.25 0 0 1 .9-.64 4.22 4.22 0 0 1 1.14-.27 8.53 8.53 0 0 1 1.06-.07h.95v-.38a1.38 1.38 0 0 0 -.5-1.19 2.2 2.2 0 0 0 -1.26-.35 2.81 2.81 0 0 0 -1.91.71l-.48-.56a2.83 2.83 0 0 1 1.11-.67 4 4 0 0 1 1.28-.23 2.75 2.75 0 0 1 1.81.55 2.11 2.11 0 0 1 .68 1.75zm-1.63-.53a8 8 0 0 0 -1 .07 3.69 3.69 0 0 0 -.87.24 1.58 1.58 0 0 0 -.61.44 1 1 0 0 0 -.24.69 1.07 1.07 0 0 0 .13.51 1.14 1.14 0 0 0 .34.38 1.57 1.57 0 0 0 .45.22 1.79 1.79 0 0 0 .51.07 2.56 2.56 0 0 0 1.07-.19 1.93 1.93 0 0 0 .67-.5 1.67 1.67 0 0 0 .34-.71 3 3 0 0 0 .1-.79v-.43z"/><path d="m255.75 302.45h-1.75v4.15a.93.93 0 0 0 .23.66.9.9 0 0 0 .64.23 2 2 0 0 0 .47-.06 2.69 2.69 0 0 0 .45-.16l.07.75-.53.15a2.87 2.87 0 0 1 -.53.07 2 2 0 0 1 -.74-.13 1.38 1.38 0 0 1 -.51-.36 1.47 1.47 0 0 1 -.27-.51 2.2 2.2 0 0 1 -.09-.64v-4.15h-1.36v-.74h1.36v-1.84h.81v1.84h1.79z"/><path d="m260.55 301.71h.81v1.11a2 2 0 0 1 .47-.57 3.12 3.12 0 0 1 .62-.4 3.29 3.29 0 0 1 .69-.23 3.69 3.69 0 0 1 .72-.08 3.34 3.34 0 0 1 1.32.25 3.12 3.12 0 0 1 1.05.7 3.07 3.07 0 0 1 .68 1.06 3.59 3.59 0 0 1 .24 1.34 3.63 3.63 0 0 1 -.24 1.34 3.16 3.16 0 0 1 -.68 1.06 3.27 3.27 0 0 1 -1.05.7 3.53 3.53 0 0 1 -1.32.25 3.69 3.69 0 0 1 -.72-.08 3.29 3.29 0 0 1 -.69-.23 3.12 3.12 0 0 1 -.62-.4 2 2 0 0 1 -.47-.58v4.26h-.81zm.73 3.18a2.57 2.57 0 0 0 .76 1.84 2.77 2.77 0 0 0 .82.56 2.7 2.7 0 0 0 1 .2 2.63 2.63 0 0 0 1-.2 2.51 2.51 0 0 0 .79-.56 2.47 2.47 0 0 0 .49-.83 3.06 3.06 0 0 0 .17-1 3 3 0 0 0 -.17-1 2.37 2.37 0 0 0 -.49-.83 2.51 2.51 0 0 0 -.79-.56 2.46 2.46 0 0 0 -1-.2 2.52 2.52 0 0 0 -1 .2 2.77 2.77 0 0 0 -.82.56 2.53 2.53 0 0 0 -.56.83 2.6 2.6 0 0 0 -.2.99z"/><path d="m269 303.5c0-.12 0-.27 0-.44s0-.34 0-.51 0-.34 0-.49 0-.27 0-.35h.81q0 .36 0 .69a1.74 1.74 0 0 0 0 .42 2.85 2.85 0 0 1 .8-.92 1.93 1.93 0 0 1 1.19-.36h.24l.23.05-.09.81a1.18 1.18 0 0 0 -.31-.05 2.36 2.36 0 0 0 -.92.17 1.68 1.68 0 0 0 -.63.48 2.06 2.06 0 0 0 -.38.7 3.17 3.17 0 0 0 -.12.88v3.47h-.82z"/><path d="m272.91 304.89a3.4 3.4 0 0 1 .25-1.34 3.2 3.2 0 0 1 .67-1.06 2.93 2.93 0 0 1 1.05-.7 3.64 3.64 0 0 1 2.65 0 3 3 0 0 1 1 .7 3.07 3.07 0 0 1 .68 1.06 3.4 3.4 0 0 1 .25 1.34 3.44 3.44 0 0 1 -.25 1.34 3.16 3.16 0 0 1 -.68 1.06 3.13 3.13 0 0 1 -1 .7 3.64 3.64 0 0 1 -2.65 0 3.07 3.07 0 0 1 -1.05-.7 3.3 3.3 0 0 1 -.67-1.06 3.44 3.44 0 0 1 -.25-1.34zm.82 0a2.82 2.82 0 0 0 .17 1 2.31 2.31 0 0 0 .49.83 2.51 2.51 0 0 0 .79.56 2.59 2.59 0 0 0 1 .2 2.63 2.63 0 0 0 1-.2 2.59 2.59 0 0 0 .78-.56 2.49 2.49 0 0 0 .5-.83 3.05 3.05 0 0 0 .16-1 3 3 0 0 0 -.16-1 2.39 2.39 0 0 0 -.5-.83 2.59 2.59 0 0 0 -.78-.56 2.46 2.46 0 0 0 -1-.2 2.43 2.43 0 0 0 -1 .2 2.51 2.51 0 0 0 -.79.56 2.23 2.23 0 0 0 -.49.83 2.78 2.78 0 0 0 -.17 1z"/><path d="m286.61 306.28v.43s0 .35 0 .52 0 .34 0 .49 0 .27 0 .35h-.82c0-.24 0-.47 0-.69a1.91 1.91 0 0 0 0-.43 2.24 2.24 0 0 1 -.81.91 2.36 2.36 0 0 1 -1.33.38 2.61 2.61 0 0 1 -1.2-.24 1.91 1.91 0 0 1 -.73-.61 2.16 2.16 0 0 1 -.36-.88 5.67 5.67 0 0 1 -.1-1v-3.79h.82v3.74a3.67 3.67 0 0 0 .07.75 1.91 1.91 0 0 0 .23.66 1.25 1.25 0 0 0 .48.46 1.62 1.62 0 0 0 .79.17 2.22 2.22 0 0 0 .85-.16 1.8 1.8 0 0 0 .69-.48 2.26 2.26 0 0 0 .46-.81 3.62 3.62 0 0 0 .17-1.15v-3.18h.81z"/><path d="m294.32 307a2.22 2.22 0 0 1 -.47.58 3.12 3.12 0 0 1 -.62.4 3.19 3.19 0 0 1 -.7.23 3.49 3.49 0 0 1 -2-.17 3.07 3.07 0 0 1 -1-.7 3.14 3.14 0 0 1 -.67-1.06 3.44 3.44 0 0 1 -.25-1.34 3.4 3.4 0 0 1 .25-1.34 3 3 0 0 1 .67-1.06 2.93 2.93 0 0 1 1-.7 3.37 3.37 0 0 1 1.32-.25 3.53 3.53 0 0 1 .72.08 3.19 3.19 0 0 1 .7.23 3.12 3.12 0 0 1 .62.4 2.17 2.17 0 0 1 .47.57v-5.16h.81v10.41h-.81zm.08-2.06a2.6 2.6 0 0 0 -.2-1 2.53 2.53 0 0 0 -.56-.83 2.7 2.7 0 0 0 -.83-.56 2.49 2.49 0 0 0 -1-.2 2.41 2.41 0 0 0 -1 .2 2.51 2.51 0 0 0 -.79.56 2.39 2.39 0 0 0 -.5.83 3 3 0 0 0 -.16 1 3.05 3.05 0 0 0 .16 1 2.49 2.49 0 0 0 .5.83 2.51 2.51 0 0 0 .79.56 2.58 2.58 0 0 0 1 .2 2.66 2.66 0 0 0 1-.2 2.7 2.7 0 0 0 .83-.56 2.57 2.57 0 0 0 .76-1.84z"/><path d="m488.82 360.24c0-.12 0-.26 0-.43s0-.34 0-.52 0-.34 0-.49 0-.27 0-.35h.81v.69a2.83 2.83 0 0 0 0 .43 2.33 2.33 0 0 1 2.15-1.28 2.6 2.6 0 0 1 1.19.23 2 2 0 0 1 .72.61 2.39 2.39 0 0 1 .37.88 4.9 4.9 0 0 1 .1 1v3.78h-.81v-3.74a4.54 4.54 0 0 0 -.07-.75 2.25 2.25 0 0 0 -.24-.66 1.3 1.3 0 0 0 -.47-.46 1.68 1.68 0 0 0 -.79-.17 2.18 2.18 0 0 0 -.85.16 1.66 1.66 0 0 0 -.69.48 2.29 2.29 0 0 0 -.46.81 3.36 3.36 0 0 0 -.17 1.15v3.18h-.82z"/><path d="m501.88 363.62a2.71 2.71 0 0 1 -1.17 1 3.69 3.69 0 0 1 -1.54.32 3.24 3.24 0 0 1 -1.3-.25 3 3 0 0 1 -1-.69 3.17 3.17 0 0 1 -.64-1.06 4 4 0 0 1 -.23-1.36 3.73 3.73 0 0 1 .23-1.32 3.12 3.12 0 0 1 .66-1.06 2.88 2.88 0 0 1 1-.7 3 3 0 0 1 1.26-.25 3 3 0 0 1 1.27.25 2.88 2.88 0 0 1 .92.67 2.82 2.82 0 0 1 .56 1 3.17 3.17 0 0 1 .19 1.09v.58h-5.25a2.78 2.78 0 0 0 .1.67 2.46 2.46 0 0 0 .37.79 2.21 2.21 0 0 0 1.9.94 2.58 2.58 0 0 0 1.2-.31 2.24 2.24 0 0 0 .9-.82zm-.62-2.52a1.91 1.91 0 0 0 -.17-.8 2.18 2.18 0 0 0 -.46-.66 2.06 2.06 0 0 0 -.69-.45 2.22 2.22 0 0 0 -.85-.16 2.06 2.06 0 0 0 -1.1.27 2.49 2.49 0 0 0 -1.06 1.33 1.6 1.6 0 0 0 -.11.47z"/><path d="m509.19 363v.44s0 .34 0 .51 0 .34 0 .49 0 .27 0 .35h-.81c0-.23 0-.46 0-.68a2.71 2.71 0 0 0 0-.43 2.26 2.26 0 0 1 -.82.9 2.35 2.35 0 0 1 -1.32.38 2.76 2.76 0 0 1 -1.2-.23 2 2 0 0 1 -.74-.62 2.25 2.25 0 0 1 -.35-.87 4.9 4.9 0 0 1 -.1-1v-3.79h.81v3.75a4.76 4.76 0 0 0 .07.75 2.19 2.19 0 0 0 .24.65 1.22 1.22 0 0 0 .47.46 1.58 1.58 0 0 0 .8.18 2.37 2.37 0 0 0 .84-.16 1.87 1.87 0 0 0 .69-.48 2.25 2.25 0 0 0 .46-.82 3.32 3.32 0 0 0 .17-1.15v-3.18h.82z"/><path d="m514.48 359.19h-1.79v4.15a.88.88 0 0 0 .24.66.82.82 0 0 0 .63.24 1.91 1.91 0 0 0 .47-.07 3 3 0 0 0 .45-.15l.07.74-.53.15a2.15 2.15 0 0 1 -.53.07 1.85 1.85 0 0 1 -.74-.13 1.35 1.35 0 0 1 -.5-.35 1.38 1.38 0 0 1 -.25-.5 2.2 2.2 0 0 1 -.09-.64v-4.15h-1.35v-.74h1.35v-1.83h.81v1.83h1.79z"/><path d="m515.93 360.24c0-.12 0-.26 0-.43s0-.34 0-.52 0-.34 0-.49 0-.27 0-.35h.82v.69a1.91 1.91 0 0 0 0 .43 2.9 2.9 0 0 1 .8-.93 2 2 0 0 1 1.19-.35 1 1 0 0 1 .24 0h.24l-.1.82a.89.89 0 0 0 -.31-.06 2.27 2.27 0 0 0 -.91.17 1.83 1.83 0 0 0 -.64.48 1.93 1.93 0 0 0 -.37.71 3 3 0 0 0 -.13.87v3.47h-.81z"/><path d="m525.31 362.14v.86.69s0 .41 0 .59a4.87 4.87 0 0 0 .06.55h-.76a6.43 6.43 0 0 1 -.08-1 2.25 2.25 0 0 1 -.87.91 2.74 2.74 0 0 1 -1.32.29 3.08 3.08 0 0 1 -.8-.1 2.2 2.2 0 0 1 -.71-.33 1.92 1.92 0 0 1 -.5-.59 1.7 1.7 0 0 1 -.2-.87 1.72 1.72 0 0 1 .36-1.15 2.38 2.38 0 0 1 .91-.65 4.15 4.15 0 0 1 1.13-.27c.41 0 .76-.06 1.07-.06h1v-.39a1.34 1.34 0 0 0 -.51-1.18 2.09 2.09 0 0 0 -1.26-.36 2.82 2.82 0 0 0 -1.91.72l-.47-.57a3 3 0 0 1 1.11-.67 4 4 0 0 1 1.27-.22 2.84 2.84 0 0 1 1.82.54 2.13 2.13 0 0 1 .68 1.76zm-1.63-.52a6.41 6.41 0 0 0 -1 .07 3.17 3.17 0 0 0 -.87.23 1.69 1.69 0 0 0 -.62.44 1.08 1.08 0 0 0 -.23.69 1.11 1.11 0 0 0 .13.52 1.31 1.31 0 0 0 .33.37 1.5 1.5 0 0 0 .46.22 1.69 1.69 0 0 0 .5.08 2.52 2.52 0 0 0 1.07-.2 1.85 1.85 0 0 0 .68-.5 1.83 1.83 0 0 0 .34-.7 3.56 3.56 0 0 0 .1-.79v-.43z"/><path d="m527.61 354.4h.81v10.41h-.81z"/><path d="m465.33 246h.92l2.09 5.46 2-5.46h.83l-2.47 6.36h-.84z"/><path d="m478 251.13a2.67 2.67 0 0 1 -1.17 1.05 3.69 3.69 0 0 1 -1.54.31 3.38 3.38 0 0 1 -1.3-.24 3 3 0 0 1 -1-.7 3.07 3.07 0 0 1 -.64-1.06 3.92 3.92 0 0 1 -.23-1.36 3.81 3.81 0 0 1 .23-1.32 3.32 3.32 0 0 1 .65-1.05 3 3 0 0 1 1-.71 3.22 3.22 0 0 1 1.26-.25 3.16 3.16 0 0 1 1.27.25 2.86 2.86 0 0 1 .92.68 2.73 2.73 0 0 1 .56 1 3.13 3.13 0 0 1 .19 1.09v.57h-5.2a2.71 2.71 0 0 0 .1.67 2.37 2.37 0 0 0 .37.79 2.3 2.3 0 0 0 .72.66 2.22 2.22 0 0 0 1.18.28 2.6 2.6 0 0 0 1.2-.3 2.19 2.19 0 0 0 .9-.83zm-.62-2.52a2 2 0 0 0 -.17-.8 2.13 2.13 0 0 0 -.46-.65 2.06 2.06 0 0 0 -.69-.45 2.22 2.22 0 0 0 -.85-.17 2.06 2.06 0 0 0 -1.1.28 2.27 2.27 0 0 0 -.7.63 2.8 2.8 0 0 0 -.37.7 1.81 1.81 0 0 0 -.1.46z"/><path d="m480 247.76c0-.12 0-.27 0-.44s0-.34 0-.51 0-.34 0-.49 0-.27 0-.35h.81v.68a2.32 2.32 0 0 0 0 .43 2.64 2.64 0 0 1 .8-.92 1.93 1.93 0 0 1 1.19-.36h.24l.23.05-.09.81a1.18 1.18 0 0 0 -.31-.05 2.16 2.16 0 0 0 -.92.17 1.58 1.58 0 0 0 -.63.47 2 2 0 0 0 -.38.71 3.12 3.12 0 0 0 -.12.88v3.47h-.82z"/><path d="m486.29 254.3a2.39 2.39 0 0 1 -.64 1 1.61 1.61 0 0 1 -1.08.35 2.83 2.83 0 0 1 -.41 0 2.74 2.74 0 0 1 -.39-.09l.08-.77.36.1a1.57 1.57 0 0 0 .37 0 .71.71 0 0 0 .39-.1 1 1 0 0 0 .29-.24 1.94 1.94 0 0 0 .21-.34c.06-.13.11-.25.16-.38l.56-1.47-2.54-6.36h.91l2.07 5.35 2-5.35h.86z"/><path d="m494.15 246h.85v1.11a2 2 0 0 1 .47-.57 3.12 3.12 0 0 1 .62-.4 2.74 2.74 0 0 1 .7-.23 3.51 3.51 0 0 1 .71-.08 3.34 3.34 0 0 1 1.32.25 3.14 3.14 0 0 1 1.05.69 3.27 3.27 0 0 1 .68 1.06 3.74 3.74 0 0 1 0 2.69 3.08 3.08 0 0 1 -1.73 1.76 3.52 3.52 0 0 1 -1.32.24 3.49 3.49 0 0 1 -.71-.07 2.76 2.76 0 0 1 -.7-.24 2.69 2.69 0 0 1 -.62-.39 2.18 2.18 0 0 1 -.47-.58v4.26h-.81zm.73 3.18a2.67 2.67 0 0 0 .2 1 2.64 2.64 0 0 0 .56.83 2.57 2.57 0 0 0 .82.55 2.53 2.53 0 0 0 1 .21 2.43 2.43 0 0 0 1-.21 2.34 2.34 0 0 0 .79-.55 2.31 2.31 0 0 0 .49-.83 3.12 3.12 0 0 0 0-2 2.27 2.27 0 0 0 -.49-.82 2.36 2.36 0 0 0 -.79-.56 2.43 2.43 0 0 0 -1-.21 2.53 2.53 0 0 0 -1 .21 2.68 2.68 0 0 0 -1.38 1.38 2.69 2.69 0 0 0 -.2.97z"/><path d="m502.6 247.76c0-.12 0-.27 0-.44s0-.34 0-.51 0-.34 0-.49 0-.27 0-.35h.82v.68a1.85 1.85 0 0 0 0 .43 2.75 2.75 0 0 1 .8-.92 1.93 1.93 0 0 1 1.19-.36h.24l.24.05-.1.81a1.18 1.18 0 0 0 -.31-.05 2.11 2.11 0 0 0 -.91.17 1.69 1.69 0 0 0 -.64.47 2 2 0 0 0 -.37.71 2.8 2.8 0 0 0 -.13.88v3.47h-.81z"/><path d="m506.52 249.15a3.68 3.68 0 0 1 .24-1.35 3.27 3.27 0 0 1 .68-1.06 3 3 0 0 1 1-.69 3.42 3.42 0 0 1 1.33-.25 3.34 3.34 0 0 1 1.32.25 3.1 3.1 0 0 1 1 .69 3.29 3.29 0 0 1 .69 1.06 3.89 3.89 0 0 1 0 2.69 3.19 3.19 0 0 1 -.69 1.06 3.13 3.13 0 0 1 -1 .7 3.52 3.52 0 0 1 -1.32.24 3.61 3.61 0 0 1 -1.33-.24 3 3 0 0 1 -1-.7 3.16 3.16 0 0 1 -.68-1.06 3.67 3.67 0 0 1 -.24-1.34zm.81 0a3.1 3.1 0 0 0 .17 1 2.47 2.47 0 0 0 .49.83 2.34 2.34 0 0 0 .79.55 2.63 2.63 0 0 0 2.06 0 2.3 2.3 0 0 0 .78-.55 2.33 2.33 0 0 0 .5-.83 3.12 3.12 0 0 0 0-2 2.29 2.29 0 0 0 -.5-.82 2.32 2.32 0 0 0 -.78-.56 2.63 2.63 0 0 0 -2.06 0 2.36 2.36 0 0 0 -.79.56 2.42 2.42 0 0 0 -.49.82 3.12 3.12 0 0 0 -.17 1z"/><path d="m520.21 250.54v.43s0 .34 0 .52 0 .34 0 .49 0 .27 0 .35h-.81c0-.24 0-.47 0-.69a2.44 2.44 0 0 0 0-.43 2.24 2.24 0 0 1 -.81.91 2.35 2.35 0 0 1 -1.33.37 2.62 2.62 0 0 1 -1.2-.23 2 2 0 0 1 -.73-.61 2.55 2.55 0 0 1 -.36-.88 5.69 5.69 0 0 1 -.09-1v-3.77h.81v3.74a3.67 3.67 0 0 0 .07.75 1.8 1.8 0 0 0 .24.66 1.3 1.3 0 0 0 .47.46 1.65 1.65 0 0 0 .79.17 2.22 2.22 0 0 0 .85-.16 1.66 1.66 0 0 0 .69-.48 2.45 2.45 0 0 0 .46-.81 3.62 3.62 0 0 0 .17-1.15v-3.18h.81z"/><path d="m527.92 251.21a2.18 2.18 0 0 1 -.47.58 2.69 2.69 0 0 1 -.62.39 2.76 2.76 0 0 1 -.7.24 3.49 3.49 0 0 1 -.71.07 3.61 3.61 0 0 1 -1.33-.24 3 3 0 0 1 -1-.7 3.16 3.16 0 0 1 -.68-1.06 3.89 3.89 0 0 1 0-2.69 3.27 3.27 0 0 1 .68-1.06 3 3 0 0 1 1-.69 3.42 3.42 0 0 1 1.33-.25 3.51 3.51 0 0 1 .71.08 2.74 2.74 0 0 1 .7.23 3.12 3.12 0 0 1 .62.4 2 2 0 0 1 .47.57v-5.16h.81v10.41h-.81zm.08-2.06a2.69 2.69 0 0 0 -.2-1 2.68 2.68 0 0 0 -1.38-1.38 2.53 2.53 0 0 0 -1-.21 2.43 2.43 0 0 0 -1 .21 2.36 2.36 0 0 0 -.79.56 2.27 2.27 0 0 0 -.49.82 3.12 3.12 0 0 0 0 2 2.31 2.31 0 0 0 .49.83 2.34 2.34 0 0 0 .79.55 2.43 2.43 0 0 0 1 .21 2.53 2.53 0 0 0 1-.21 2.57 2.57 0 0 0 .82-.55 2.64 2.64 0 0 0 .56-.83 2.67 2.67 0 0 0 .2-1z"/><path d="m241.17 468h5.06a6 6 0 0 1 2.28.38 4 4 0 0 1 1.41 1 3.3 3.3 0 0 1 .72 1.32 5.2 5.2 0 0 1 .21 1.42 5.07 5.07 0 0 1 -.21 1.41 3.27 3.27 0 0 1 -.72 1.33 4 4 0 0 1 -1.41 1 6 6 0 0 1 -2.28.38h-3.11v6.45h-2zm2 6.45h2.56a7.08 7.08 0 0 0 1.13-.1 2.88 2.88 0 0 0 1-.34 1.84 1.84 0 0 0 .7-.71 2.95 2.95 0 0 0 0-2.42 1.84 1.84 0 0 0 -.7-.71 2.88 2.88 0 0 0 -1-.34 7.08 7.08 0 0 0 -1.13-.1h-2.56z"/><path d="m253.22 468h9.29v1.86h-7.34v4.36h6.83v1.86h-6.83v4.69h7.7v1.86h-9.65z"/><path d="m265.64 468h5.06a5.87 5.87 0 0 1 2.27.38 4 4 0 0 1 1.42 1 3.56 3.56 0 0 1 .72 1.32 5.58 5.58 0 0 1 .2 1.42 3.84 3.84 0 0 1 -.24 1.35 4 4 0 0 1 -.7 1.18 4.11 4.11 0 0 1 -1.12.89 3.76 3.76 0 0 1 -1.48.44l4.09 6.68h-2.44l-3.66-6.45h-2.17v6.45h-1.95zm1.95 6.45h2.56a7.19 7.19 0 0 0 1.13-.1 2.83 2.83 0 0 0 1-.34 1.77 1.77 0 0 0 .7-.71 2.85 2.85 0 0 0 0-2.42 1.77 1.77 0 0 0 -.7-.71 2.83 2.83 0 0 0 -1-.34 7.19 7.19 0 0 0 -1.13-.1h-2.56z"/><path d="m288.07 471.2a4 4 0 0 0 -1.54-1.24 4.55 4.55 0 0 0 -1.93-.43 5.11 5.11 0 0 0 -2.21.46 5 5 0 0 0 -1.68 1.27 5.89 5.89 0 0 0 -1.09 1.89 6.86 6.86 0 0 0 -.39 2.33 6.38 6.38 0 0 0 .37 2.19 5.49 5.49 0 0 0 1 1.82 5.08 5.08 0 0 0 1.69 1.23 5.31 5.31 0 0 0 2.26.46 4.36 4.36 0 0 0 2.17-.52 4.73 4.73 0 0 0 1.59-1.44l1.64 1.26a7 7 0 0 1 -.57.65 5.86 5.86 0 0 1 -1.07.84 7.64 7.64 0 0 1 -1.62.75 6.9 6.9 0 0 1 -2.18.32 7 7 0 0 1 -3.08-.66 7.31 7.31 0 0 1 -2.34-1.74 7.53 7.53 0 0 1 -1.47-2.43 7.67 7.67 0 0 1 -.51-2.73 8.58 8.58 0 0 1 .55-3.13 7.35 7.35 0 0 1 1.53-2.48 6.76 6.76 0 0 1 2.37-1.62 7.75 7.75 0 0 1 3.05-.58 7.17 7.17 0 0 1 2.79.56 5.18 5.18 0 0 1 2.25 1.71z"/><path d="m292.36 468h9.29v1.86h-7.34v4.36h6.83v1.86h-6.83v4.69h7.69v1.86h-9.65z"/><path d="m304.78 468h2.56l7.92 12v-12h1.95v14.63h-2.48l-8-12v12h-2z"/><path d="m324 469.9h-4.63v-1.9h11.21v1.86h-4.63v12.77h-2z"/><path d="m335.26 468h1.74l6.15 14.63h-2.27l-1.45-3.62h-6.84l-1.43 3.62h-2.27zm3.49 9.28-2.68-6.72-2.72 6.72z"/><path d="m357.31 474.49v7.21a6.66 6.66 0 0 1 -1.2.57 12 12 0 0 1 -1.4.43 12.11 12.11 0 0 1 -2.85.34 8.17 8.17 0 0 1 -3.26-.62 7 7 0 0 1 -3.92-4.12 8.29 8.29 0 0 1 -.52-2.95 8 8 0 0 1 .56-3 7.4 7.4 0 0 1 1.54-2.44 7 7 0 0 1 2.37-1.62 7.51 7.51 0 0 1 3-.59 9 9 0 0 1 3.25.5 6 6 0 0 1 2.11 1.4l-1.38 1.51a5.05 5.05 0 0 0 -1.89-1.21 6.32 6.32 0 0 0 -2.09-.34 5.22 5.22 0 0 0 -2.24.46 5.27 5.27 0 0 0 -2.8 3.1 6.51 6.51 0 0 0 -.39 2.26 6 6 0 0 0 .43 2.31 5.43 5.43 0 0 0 5.16 3.52 9.5 9.5 0 0 0 2-.2 5.25 5.25 0 0 0 1.57-.57v-4.07h-3.19v-1.85z"/><path d="m360.86 468h9.29v1.86h-7.34v4.36h6.83v1.86h-6.83v4.69h7.7v1.86h-9.65z"/><path d="m550.7 249.93h-4.15v-1l3.84-6.37h1.12v6.61h1.49v.74h-1.47v2.4h-.81zm0-6.44-3.38 5.7h3.41z"/><path d="m553.64 247.45c0-.35 0-.72.05-1.11a8.46 8.46 0 0 1 .17-1.14 6.3 6.3 0 0 1 .36-1.06 3.15 3.15 0 0 1 .57-.89 2.75 2.75 0 0 1 .85-.61 3.09 3.09 0 0 1 2.34 0 2.75 2.75 0 0 1 .85.61 3.15 3.15 0 0 1 .57.89 6.3 6.3 0 0 1 .36 1.06 8.46 8.46 0 0 1 .17 1.14c0 .39.05.76.05 1.11s0 .73-.05 1.12a8.56 8.56 0 0 1 -.17 1.13 5.74 5.74 0 0 1 -.36 1.06 3 3 0 0 1 -.57.89 2.63 2.63 0 0 1 -.85.62 3.22 3.22 0 0 1 -2.34 0 2.63 2.63 0 0 1 -.85-.62 3 3 0 0 1 -.57-.89 5.74 5.74 0 0 1 -.36-1.06 8.56 8.56 0 0 1 -.17-1.13c-.03-.39-.05-.76-.05-1.12zm.89 0v.85s.06.62.11.94a5.3 5.3 0 0 0 .24.93 3.15 3.15 0 0 0 .4.8 2 2 0 0 0 .62.57 1.93 1.93 0 0 0 1.75 0 2 2 0 0 0 .63-.57 3.15 3.15 0 0 0 .4-.8 5.3 5.3 0 0 0 .24-.93c0-.32.09-.63.11-.94s0-.59 0-.85 0-.53 0-.84-.06-.62-.11-.94a4.89 4.89 0 0 0 -.24-.93 3.4 3.4 0 0 0 -.4-.81 2 2 0 0 0 -.63-.56 1.75 1.75 0 0 0 -.87-.21 1.72 1.72 0 0 0 -.87.21 2 2 0 0 0 -.63.56 3.4 3.4 0 0 0 -.4.81 4.89 4.89 0 0 0 -.24.93c0 .32-.09.63-.11.94s0 .59 0 .84z"/><path d="m560.85 244.78a2.32 2.32 0 0 1 .18-.92 2.29 2.29 0 0 1 .5-.75 2.23 2.23 0 0 1 .74-.51 2.12 2.12 0 0 1 .91-.19 2.15 2.15 0 0 1 .91.19 2.29 2.29 0 0 1 .73.51 2.38 2.38 0 0 1 0 3.34 2.29 2.29 0 0 1 -.73.51 2.15 2.15 0 0 1 -.91.19 2.12 2.12 0 0 1 -.91-.19 2.23 2.23 0 0 1 -.74-.51 2.29 2.29 0 0 1 -.5-.75 2.32 2.32 0 0 1 -.18-.92zm.73 0a1.53 1.53 0 0 0 .13.64 1.67 1.67 0 0 0 .34.52 1.75 1.75 0 0 0 .51.34 1.64 1.64 0 0 0 .62.13 1.59 1.59 0 0 0 .61-.13 1.52 1.52 0 0 0 .51-.34 1.64 1.64 0 0 0 0-2.32 1.52 1.52 0 0 0 -.51-.34 1.58 1.58 0 0 0 -.61-.12 1.63 1.63 0 0 0 -.62.12 1.75 1.75 0 0 0 -.51.34 1.67 1.67 0 0 0 -.34.52 1.53 1.53 0 0 0 -.13.64zm7.07-2.67.62.38-6.19 10.31-.61-.39zm-2.45 8a2.36 2.36 0 0 1 .18-.92 2.52 2.52 0 0 1 .5-.75 2.71 2.71 0 0 1 .74-.51 2.27 2.27 0 0 1 .91-.18 2.31 2.31 0 0 1 .91.18 2.39 2.39 0 0 1 1.24 1.26 2.36 2.36 0 0 1 .18.92 2.41 2.41 0 0 1 -.18.93 2.39 2.39 0 0 1 -1.24 1.26 2.31 2.31 0 0 1 -.91.18 2.27 2.27 0 0 1 -.91-.18 2.71 2.71 0 0 1 -.74-.51 2.52 2.52 0 0 1 -.5-.75 2.41 2.41 0 0 1 -.18-.92zm.73 0a1.5 1.5 0 0 0 .13.64 1.67 1.67 0 0 0 .34.52 1.78 1.78 0 0 0 .51.35 1.63 1.63 0 0 0 .62.12 1.53 1.53 0 0 0 1.12-.47 1.7 1.7 0 0 0 .35-.52 1.66 1.66 0 0 0 .13-.64 1.74 1.74 0 0 0 -.13-.64 1.65 1.65 0 0 0 -.35-.51 1.53 1.53 0 0 0 -1.12-.47 1.63 1.63 0 0 0 -.62.12 1.78 1.78 0 0 0 -.51.35 1.63 1.63 0 0 0 -.34.51 1.56 1.56 0 0 0 -.13.65z"/><path d="m550.7 362.42h-4.15v-1l3.84-6.38h1.12v6.61h1.49v.75h-1.46v2.39h-.81zm0-6.45-3.39 5.7h3.42z"/><path d="m553.64 359.94a10.78 10.78 0 0 1 .05-1.11 8.46 8.46 0 0 1 .17-1.14 7.06 7.06 0 0 1 .35-1.07 3.36 3.36 0 0 1 .58-.88 2.67 2.67 0 0 1 .85-.62 2.76 2.76 0 0 1 3.19.62 3.33 3.33 0 0 1 .57.88 6.11 6.11 0 0 1 .36 1.07 8.46 8.46 0 0 1 .17 1.14c0 .39.05.76.05 1.11s0 .73-.05 1.11a8.46 8.46 0 0 1 -.17 1.14 6.3 6.3 0 0 1 -.36 1.06 3.39 3.39 0 0 1 -.57.89 2.6 2.6 0 0 1 -.85.61 3.09 3.09 0 0 1 -2.34 0 2.5 2.5 0 0 1 -.85-.61 3.42 3.42 0 0 1 -.58-.89 7.31 7.31 0 0 1 -.35-1.06 8.46 8.46 0 0 1 -.17-1.14 10.54 10.54 0 0 1 -.05-1.11zm.89 0v.85a7.59 7.59 0 0 0 .11.93 4.89 4.89 0 0 0 .24.93 3.06 3.06 0 0 0 .4.81 2 2 0 0 0 .62.56 1.85 1.85 0 0 0 1.75 0 2 2 0 0 0 .63-.56 3.4 3.4 0 0 0 .4-.81 5.77 5.77 0 0 0 .24-.93c0-.31.09-.63.11-.93s0-.59 0-.85 0-.53 0-.84-.06-.63-.11-1a6.36 6.36 0 0 0 -.24-.93 3.15 3.15 0 0 0 -.4-.8 2 2 0 0 0 -.63-.57 1.93 1.93 0 0 0 -1.75 0 2.1 2.1 0 0 0 -.62.57 2.86 2.86 0 0 0 -.4.8 5.3 5.3 0 0 0 -.24.93 7.91 7.91 0 0 0 -.11 1q0 .47 0 .84z"/><path d="m560.85 357.27a2.41 2.41 0 0 1 .18-.93 2.52 2.52 0 0 1 .5-.75 2.57 2.57 0 0 1 .74-.51 2.37 2.37 0 0 1 1.81 0 2.57 2.57 0 0 1 .74.51 2.52 2.52 0 0 1 .5.75 2.24 2.24 0 0 1 .19.93 2.2 2.2 0 0 1 -.19.92 2.52 2.52 0 0 1 -.5.75 2.23 2.23 0 0 1 -.74.51 2.37 2.37 0 0 1 -1.81 0 2.23 2.23 0 0 1 -.74-.51 2.52 2.52 0 0 1 -.5-.75 2.36 2.36 0 0 1 -.18-.92zm.73 0a1.53 1.53 0 0 0 .13.64 1.63 1.63 0 0 0 .34.51 1.78 1.78 0 0 0 .51.35 1.64 1.64 0 0 0 1.23 0 1.54 1.54 0 0 0 .51-.35 1.65 1.65 0 0 0 .35-.51 1.69 1.69 0 0 0 .12-.64 1.75 1.75 0 0 0 -.12-.65 1.78 1.78 0 0 0 -.35-.51 1.54 1.54 0 0 0 -.51-.35 1.64 1.64 0 0 0 -1.23 0 1.78 1.78 0 0 0 -.51.35 1.75 1.75 0 0 0 -.34.51 1.57 1.57 0 0 0 -.13.65zm7.07-2.68.62.39-6.19 10.3-.61-.38zm-2.45 8a2.32 2.32 0 0 1 .18-.92 2.29 2.29 0 0 1 .5-.75 2.23 2.23 0 0 1 .74-.51 2.12 2.12 0 0 1 .91-.19 2.08 2.08 0 0 1 .9.19 2.13 2.13 0 0 1 .74.51 2.35 2.35 0 0 1 0 3.34 2.13 2.13 0 0 1 -.74.51 2.08 2.08 0 0 1 -.9.19 2.12 2.12 0 0 1 -.91-.19 2.23 2.23 0 0 1 -.74-.51 2.29 2.29 0 0 1 -.5-.75 2.32 2.32 0 0 1 -.18-.9zm.73 0a1.53 1.53 0 0 0 .13.64 1.67 1.67 0 0 0 .34.52 1.75 1.75 0 0 0 .51.34 1.64 1.64 0 0 0 .62.13 1.59 1.59 0 0 0 .61-.13 1.52 1.52 0 0 0 .51-.34 1.64 1.64 0 0 0 0-2.32 1.52 1.52 0 0 0 -.51-.34 1.59 1.59 0 0 0 -.61-.13 1.64 1.64 0 0 0 -.62.13 1.75 1.75 0 0 0 -.51.34 1.67 1.67 0 0 0 -.34.52 1.53 1.53 0 0 0 -.13.66z"/><path d="m314.28 307.11 3.6-3.87.49-.53a5.13 5.13 0 0 0 .44-.6 3 3 0 0 0 .32-.65 2.25 2.25 0 0 0 .12-.74 1.7 1.7 0 0 0 -.54-1.34 2 2 0 0 0 -1.37-.48 1.83 1.83 0 0 0 -1.26.44 2 2 0 0 0 -.66 1.16l-.95-.1a2.61 2.61 0 0 1 1-1.69 3.23 3.23 0 0 1 1.9-.56 3.15 3.15 0 0 1 1.06.18 2.78 2.78 0 0 1 .88.48 2.55 2.55 0 0 1 .6.78 2.39 2.39 0 0 1 .22 1.06 3 3 0 0 1 -.17 1 4.57 4.57 0 0 1 -.44.92 6.24 6.24 0 0 1 -.64.82l-.72.77-3 3.13h5v.74h-5.93z"/><path d="m321.12 303.19c0-.34 0-.71.05-1.1a8.61 8.61 0 0 1 .17-1.15 6.3 6.3 0 0 1 .36-1.06 3.56 3.56 0 0 1 .57-.89 2.75 2.75 0 0 1 .85-.61 3.09 3.09 0 0 1 2.34 0 2.75 2.75 0 0 1 .85.61 3.59 3.59 0 0 1 .58.89 7.31 7.31 0 0 1 .35 1.06 8.61 8.61 0 0 1 .17 1.15v1.1s0 .73 0 1.12a8.46 8.46 0 0 1 -.17 1.14 7.31 7.31 0 0 1 -.35 1.06 3.59 3.59 0 0 1 -.58.89 2.75 2.75 0 0 1 -.85.61 3.09 3.09 0 0 1 -2.34 0 2.75 2.75 0 0 1 -.85-.61 3.56 3.56 0 0 1 -.57-.89 6.3 6.3 0 0 1 -.36-1.06 8.46 8.46 0 0 1 -.17-1.14c-.03-.39-.05-.76-.05-1.12zm.89 0v.85s.06.62.11.94a5.09 5.09 0 0 0 .24.93 3.15 3.15 0 0 0 .4.8 2 2 0 0 0 .62.57 1.93 1.93 0 0 0 1.75 0 1.91 1.91 0 0 0 .63-.57 3.15 3.15 0 0 0 .4-.8 5.09 5.09 0 0 0 .24-.93c.05-.32.09-.63.11-.94s0-.59 0-.85 0-.52 0-.84-.06-.62-.11-.94a4.89 4.89 0 0 0 -.24-.93 3.15 3.15 0 0 0 -.4-.8 1.91 1.91 0 0 0 -.63-.57 1.91 1.91 0 0 0 -1.74 0 1.91 1.91 0 0 0 -.63.57 3.15 3.15 0 0 0 -.4.8 4.89 4.89 0 0 0 -.24.93c0 .32-.09.63-.11.94s-.01.65-.01.84z"/><path d="m328.33 300.52a2.32 2.32 0 0 1 .18-.92 2.52 2.52 0 0 1 .5-.75 2.23 2.23 0 0 1 .74-.51 2.28 2.28 0 0 1 .91-.19 2.32 2.32 0 0 1 .91.19 2.19 2.19 0 0 1 .73.51 2.56 2.56 0 0 1 .51.75 2.32 2.32 0 0 1 .18.92 2.41 2.41 0 0 1 -.18.93 2.56 2.56 0 0 1 -.51.75 2.52 2.52 0 0 1 -.73.51 2.31 2.31 0 0 1 -.91.18 2.27 2.27 0 0 1 -.91-.18 2.57 2.57 0 0 1 -.74-.51 2.52 2.52 0 0 1 -.5-.75 2.41 2.41 0 0 1 -.18-.93zm.73 0a1.5 1.5 0 0 0 .13.64 1.67 1.67 0 0 0 .34.52 1.57 1.57 0 0 0 .51.34 1.47 1.47 0 0 0 .62.13 1.42 1.42 0 0 0 .61-.13 1.39 1.39 0 0 0 .51-.34 1.7 1.7 0 0 0 .35-.52 1.66 1.66 0 0 0 .13-.64 1.7 1.7 0 0 0 -.13-.64 1.54 1.54 0 0 0 -.35-.51 1.41 1.41 0 0 0 -.51-.35 1.58 1.58 0 0 0 -.61-.12 1.63 1.63 0 0 0 -.62.12 1.6 1.6 0 0 0 -.51.35 1.64 1.64 0 0 0 -.47 1.15zm7.07-2.67.62.39-6.19 10.3-.61-.39zm-2.45 8a2.41 2.41 0 0 1 .18-.93 2.52 2.52 0 0 1 .5-.75 2.71 2.71 0 0 1 .74-.51 2.27 2.27 0 0 1 .91-.18 2.31 2.31 0 0 1 .91.18 2.39 2.39 0 0 1 1.24 1.26 2.41 2.41 0 0 1 .18.93 2.36 2.36 0 0 1 -.18.92 2.73 2.73 0 0 1 -.5.75 2.31 2.31 0 0 1 -1.65.7 2.28 2.28 0 0 1 -.91-.19 2.33 2.33 0 0 1 -.74-.51 2.52 2.52 0 0 1 -.5-.75 2.36 2.36 0 0 1 -.18-.9zm.73 0a1.53 1.53 0 0 0 .13.64 1.65 1.65 0 0 0 .35.51 1.46 1.46 0 0 0 .5.35 1.66 1.66 0 0 0 1.24 0 1.46 1.46 0 0 0 .5-.35 1.65 1.65 0 0 0 .35-.51 1.7 1.7 0 0 0 .13-.64 1.66 1.66 0 0 0 -.13-.64 1.7 1.7 0 0 0 -.35-.52 1.43 1.43 0 0 0 -.5-.34 1.54 1.54 0 0 0 -1.24 0 1.43 1.43 0 0 0 -.5.34 1.7 1.7 0 0 0 -.35.52 1.5 1.5 0 0 0 -.13.66z"/><path d="m57.59 28.5h2.25l4.23 11.9 4.43-11.9h2.13l-5.63 14.62h-1.86z"/><path d="m75.94 28.5h1.77l6.15 14.62h-2.27l-1.45-3.61h-6.84l-1.43 3.61h-2.27zm3.49 9.27-2.68-6.71-2.75 6.71z"/><path d="m85.73 28.5h5.06a5.78 5.78 0 0 1 2.28.38 3.84 3.84 0 0 1 1.41 1 3.17 3.17 0 0 1 .72 1.32 5.14 5.14 0 0 1 .21 1.42 3.85 3.85 0 0 1 -.25 1.35 3.73 3.73 0 0 1 -.7 1.18 4 4 0 0 1 -1.12.89 3.76 3.76 0 0 1 -1.47.44l4.13 6.64h-2.48l-3.66-6.44h-2.18v6.44h-2zm2 6.44h2.56a7.08 7.08 0 0 0 1.13-.09 3.11 3.11 0 0 0 1-.34 1.91 1.91 0 0 0 .7-.71 2.52 2.52 0 0 0 .26-1.21 2.5 2.5 0 0 0 -.26-1.21 1.84 1.84 0 0 0 -.7-.71 2.88 2.88 0 0 0 -1-.34 6.09 6.09 0 0 0 -1.13-.1h-2.61z"/><path d="m98.15 28.5h1.95v14.62h-1.95z"/><path d="m103.8 28.5h9.28v1.86h-7.33v4.35h6.83v1.86h-6.83v4.69h7.7v1.86h-9.65z"/><path d="m119.22 30.36h-4.63v-1.86h11.22v1.86h-4.64v12.76h-2z"/><path d="m131.27 36.88-5.44-8.38h2.49l3.93 6.42 4-6.42h2.38l-5.45 8.38v6.24h-1.95z"/><path d="m139.42 35.93a1.26 1.26 0 0 1 -.94-.4 1.35 1.35 0 0 1 0-1.92 1.26 1.26 0 0 1 .94-.4 1.29 1.29 0 0 1 1 .4 1.38 1.38 0 0 1 0 1.92 1.29 1.29 0 0 1 -1 .4zm-1.34 6a1.37 1.37 0 0 1 1.34-1.36 1.35 1.35 0 0 1 1.34 1.36 1.37 1.37 0 0 1 -1.34 1.37 1.38 1.38 0 0 1 -1.34-1.37z"/></g><path d="m161.85 28.5h4.15a10.16 10.16 0 0 1 1.64.13 3.92 3.92 0 0 1 1.5.56 3.07 3.07 0 0 1 1.07 1.18 4.06 4.06 0 0 1 .42 2 3.07 3.07 0 0 1 -.63 1.93 3.2 3.2 0 0 1 -1.93 1.1 3.67 3.67 0 0 1 1.3.34 3.26 3.26 0 0 1 1 .74 3.41 3.41 0 0 1 .66 1.11 4.19 4.19 0 0 1 .23 1.4 4 4 0 0 1 -.48 2.06 3.51 3.51 0 0 1 -1.2 1.25 4.6 4.6 0 0 1 -1.58.7 8.22 8.22 0 0 1 -1.58.16h-4.59zm1.34 6.32h2.81a4.63 4.63 0 0 0 1.68-.26 2.78 2.78 0 0 0 1-.63 1.89 1.89 0 0 0 .49-.8 3 3 0 0 0 -.13-2 2.11 2.11 0 0 0 -.69-.81 2.6 2.6 0 0 0 -1-.42 5.81 5.81 0 0 0 -1.2-.12h-3zm0 7.06h3.07a5 5 0 0 0 1.9-.29 2.89 2.89 0 0 0 1.11-.72 2.25 2.25 0 0 0 .52-.92 3.23 3.23 0 0 0 .13-.88 3 3 0 0 0 -.3-1.38 2.73 2.73 0 0 0 -.8-.94 3.21 3.21 0 0 0 -1.1-.53 4.87 4.87 0 0 0 -1.25-.16h-3.28z" fill="#9c5edb"/><path d="m173.72 35.81a8.31 8.31 0 0 1 .55-3.08 7.31 7.31 0 0 1 1.52-2.43 7 7 0 0 1 2.35-1.6 8.15 8.15 0 0 1 6 0 7 7 0 0 1 2.34 1.6 7.49 7.49 0 0 1 1.53 2.43 8.52 8.52 0 0 1 .54 3.08 8.61 8.61 0 0 1 -.54 3.09 7.43 7.43 0 0 1 -1.53 2.44 6.84 6.84 0 0 1 -2.34 1.59 8.29 8.29 0 0 1 -6 0 6.79 6.79 0 0 1 -2.35-1.59 7.25 7.25 0 0 1 -1.52-2.44 8.4 8.4 0 0 1 -.55-3.09zm1.34 0a7.24 7.24 0 0 0 .43 2.54 6 6 0 0 0 1.22 2 5.54 5.54 0 0 0 1.92 1.36 6.21 6.21 0 0 0 2.53.5 6.28 6.28 0 0 0 2.53-.5 5.63 5.63 0 0 0 1.92-1.36 6.11 6.11 0 0 0 1.22-2 7.89 7.89 0 0 0 0-5.08 6.11 6.11 0 0 0 -1.22-2.05 5.77 5.77 0 0 0 -1.92-1.36 6.28 6.28 0 0 0 -2.53-.5 6.21 6.21 0 0 0 -2.53.5 5.67 5.67 0 0 0 -1.92 1.36 6 6 0 0 0 -1.22 2.05 7.24 7.24 0 0 0 -.43 2.54z" fill="#9c5edb"/><path d="m191.6 28.5h3.78.77a7 7 0 0 1 1.06.12 6.54 6.54 0 0 1 1.16.33 3.36 3.36 0 0 1 1.06.66 3.44 3.44 0 0 1 .77 1.1 3.89 3.89 0 0 1 .3 1.61 3.8 3.8 0 0 1 -.35 1.73 3.33 3.33 0 0 1 -.9 1.11 3.78 3.78 0 0 1 -1.19.63 7.61 7.61 0 0 1 -1.24.29l4.19 7h-1.52l-4.05-6.94h-2.5v6.94h-1.34zm1.34 6.44h2.85a4.63 4.63 0 0 0 1.72-.27 2.69 2.69 0 0 0 1-.66 2 2 0 0 0 .5-.84 2.71 2.71 0 0 0 0-1.66 2 2 0 0 0 -.5-.84 2.7 2.7 0 0 0 -1-.67 4.86 4.86 0 0 0 -1.72-.26h-2.85z" fill="#9c5edb"/><path d="m203.65 28.5h1.73l8.76 12.81v-12.81h1.34v14.62h-1.73l-8.75-12.81v12.81h-1.34z" fill="#9c5edb"/><path d="m218.53 35.81a8.31 8.31 0 0 1 .55-3.08 7.31 7.31 0 0 1 1.52-2.43 7 7 0 0 1 2.4-1.6 8.13 8.13 0 0 1 6 0 7 7 0 0 1 2.35 1.6 7.31 7.31 0 0 1 1.52 2.43 8.31 8.31 0 0 1 .55 3.08 8.4 8.4 0 0 1 -.55 3.09 7.25 7.25 0 0 1 -1.52 2.44 6.79 6.79 0 0 1 -2.35 1.59 8.26 8.26 0 0 1 -6 0 6.79 6.79 0 0 1 -2.35-1.59 7.25 7.25 0 0 1 -1.52-2.44 8.4 8.4 0 0 1 -.6-3.09zm1.34 0a7.24 7.24 0 0 0 .43 2.54 6 6 0 0 0 1.22 2 5.45 5.45 0 0 0 1.92 1.36 6.21 6.21 0 0 0 2.53.5 6.28 6.28 0 0 0 2.53-.5 5.63 5.63 0 0 0 1.92-1.36 6.27 6.27 0 0 0 1.22-2 7.89 7.89 0 0 0 0-5.08 6.27 6.27 0 0 0 -1.22-2.05 5.77 5.77 0 0 0 -1.92-1.36 6.28 6.28 0 0 0 -2.53-.5 6.21 6.21 0 0 0 -2.53.5 5.58 5.58 0 0 0 -1.92 1.36 6 6 0 0 0 -1.22 2.05 7.24 7.24 0 0 0 -.43 2.54z" fill="#9c5edb"/><path d="m248.28 42.17a9 9 0 0 1 -2.61 1 12.68 12.68 0 0 1 -2.76.3 7.76 7.76 0 0 1 -3-.57 6.79 6.79 0 0 1 -2.35-1.59 7.43 7.43 0 0 1 -1.56-2.41 8.61 8.61 0 0 1 -.54-3.09 8.52 8.52 0 0 1 .54-3.08 7.49 7.49 0 0 1 1.53-2.43 7 7 0 0 1 2.35-1.6 7.76 7.76 0 0 1 3-.58 6.94 6.94 0 0 1 5.19 2l-1 1a4.38 4.38 0 0 0 -.8-.73 5.54 5.54 0 0 0 -1-.58 6.38 6.38 0 0 0 -1.17-.37 5.46 5.46 0 0 0 -1.2-.14 6.28 6.28 0 0 0 -2.53.5 5.77 5.77 0 0 0 -1.92 1.36 6.11 6.11 0 0 0 -1.22 2.05 7.89 7.89 0 0 0 0 5.08 6.11 6.11 0 0 0 1.22 2 5.63 5.63 0 0 0 1.92 1.36 6.28 6.28 0 0 0 2.53.5 12.46 12.46 0 0 0 2.18-.19 5.47 5.47 0 0 0 1.85-.68v-4.81h-3.46v-1.24h4.8z" fill="#9c5edb"/><path d="m251.29 35.81a8.52 8.52 0 0 1 .54-3.08 7.49 7.49 0 0 1 1.53-2.43 7 7 0 0 1 2.35-1.6 8.13 8.13 0 0 1 6 0 7 7 0 0 1 2.35 1.6 7.31 7.31 0 0 1 1.52 2.43 8.31 8.31 0 0 1 .55 3.08 8.4 8.4 0 0 1 -.55 3.09 7.25 7.25 0 0 1 -1.52 2.44 6.79 6.79 0 0 1 -2.35 1.59 8.26 8.26 0 0 1 -6 0 6.79 6.79 0 0 1 -2.35-1.59 7.43 7.43 0 0 1 -1.53-2.44 8.61 8.61 0 0 1 -.54-3.09zm1.34 0a7.48 7.48 0 0 0 .42 2.54 6.11 6.11 0 0 0 1.22 2 5.63 5.63 0 0 0 1.92 1.36 6.28 6.28 0 0 0 2.53.5 6.21 6.21 0 0 0 2.53-.5 5.45 5.45 0 0 0 1.92-1.36 6 6 0 0 0 1.22-2 7.72 7.72 0 0 0 0-5.08 6 6 0 0 0 -1.22-2.05 5.58 5.58 0 0 0 -1.92-1.36 6.21 6.21 0 0 0 -2.53-.5 6.28 6.28 0 0 0 -2.53.5 5.77 5.77 0 0 0 -1.92 1.36 6.11 6.11 0 0 0 -1.22 2.05 7.48 7.48 0 0 0 -.42 2.54z" fill="#9c5edb"/><path d="m269.17 28.5h3.83.77a7 7 0 0 1 1.06.12 6.79 6.79 0 0 1 1.16.33 3.21 3.21 0 0 1 1.05.66 3.63 3.63 0 0 1 .78 1.1 3.89 3.89 0 0 1 .3 1.61 3.67 3.67 0 0 1 -.36 1.73 3.19 3.19 0 0 1 -.89 1.11 3.89 3.89 0 0 1 -1.19.63 7.86 7.86 0 0 1 -1.24.29l4.19 7h-1.53l-4-6.94h-2.5v6.94h-1.34zm1.34 6.44h2.84a4.59 4.59 0 0 0 1.72-.27 2.82 2.82 0 0 0 1-.66 2.16 2.16 0 0 0 .5-.84 2.71 2.71 0 0 0 0-1.66 2.16 2.16 0 0 0 -.5-.84 2.83 2.83 0 0 0 -1-.67 4.83 4.83 0 0 0 -1.72-.26h-2.84z" fill="#9c5edb"/><path d="m281.22 28.5h1.34v14.62h-1.34z" fill="#9c5edb"/><path d="m289.69 36.82-5.28-8.32h1.59l4.34 6.94 4.45-6.94h1.51l-5.3 8.32v6.3h-1.34z" fill="#9c5edb"/><path d="m301.07 28.5h1.38l6.06 14.62h-1.51l-1.57-3.88h-7.62l-1.62 3.88h-1.41zm.63 1.5-3.35 8h6.65z" fill="#9c5edb"/><path d="m59.56 61.78h5.06a5.87 5.87 0 0 1 2.27.38 3.89 3.89 0 0 1 1.42 1 3.41 3.41 0 0 1 .69 1.3 5.11 5.11 0 0 1 0 2.83 3.41 3.41 0 0 1 -.72 1.32 3.88 3.88 0 0 1 -1.42 1 5.69 5.69 0 0 1 -2.27.38h-3.08v6.45h-1.95zm1.95 6.45h2.56a7.17 7.17 0 0 0 1.13-.09 3.06 3.06 0 0 0 1-.35 1.77 1.77 0 0 0 .7-.71 2.38 2.38 0 0 0 .27-1.21 2.41 2.41 0 0 0 -.27-1.21 1.84 1.84 0 0 0 -.7-.71 3 3 0 0 0 -1-.34 7.17 7.17 0 0 0 -1.13-.09h-2.56z" fill="#fff"/><path d="m78.21 76.78a7.5 7.5 0 0 1 -3-.59 6.85 6.85 0 0 1 -2.37-1.62 7.59 7.59 0 0 1 -1.55-2.44 8.65 8.65 0 0 1 0-6.07 7.59 7.59 0 0 1 1.55-2.44 6.85 6.85 0 0 1 2.35-1.62 8 8 0 0 1 6 0 7 7 0 0 1 2.37 1.62 7.4 7.4 0 0 1 1.54 2.44 8.5 8.5 0 0 1 0 6.07 7.4 7.4 0 0 1 -1.54 2.44 7 7 0 0 1 -2.37 1.62 7.51 7.51 0 0 1 -2.98.59zm0-1.86a5.22 5.22 0 0 0 2.24-.46 5.27 5.27 0 0 0 2.8-3.1 6.77 6.77 0 0 0 0-4.53 5.52 5.52 0 0 0 -1.09-1.83 5.29 5.29 0 0 0 -1.71-1.24 5.55 5.55 0 0 0 -4.47 0 5.19 5.19 0 0 0 -1.71 1.24 5.72 5.72 0 0 0 -1.1 1.85 6.94 6.94 0 0 0 0 4.53 5.72 5.72 0 0 0 1.1 1.85 5.36 5.36 0 0 0 1.73 1.23 5.2 5.2 0 0 0 2.21.46z" fill="#fff"/><path d="m88.52 61.78h5.06a5.87 5.87 0 0 1 2.27.38 3.77 3.77 0 0 1 1.41 1 3.31 3.31 0 0 1 .74 1.3 5.11 5.11 0 0 1 0 2.83 3.31 3.31 0 0 1 -.73 1.32 3.75 3.75 0 0 1 -1.41 1 5.69 5.69 0 0 1 -2.27.38h-3.12v6.45h-2zm2 6.45h2.48a7 7 0 0 0 1.12-.09 3 3 0 0 0 1-.35 1.77 1.77 0 0 0 .7-.71 2.38 2.38 0 0 0 .27-1.21 2.41 2.41 0 0 0 -.27-1.21 1.84 1.84 0 0 0 -.7-.71 3 3 0 0 0 -1-.34 7 7 0 0 0 -1.12-.09h-2.53z" fill="#fff"/><path d="m102.25 61.78v9a5.43 5.43 0 0 0 .19 1.41 4.06 4.06 0 0 0 .61 1.36 3.28 3.28 0 0 0 1.11 1 3.94 3.94 0 0 0 3.42 0 3.28 3.28 0 0 0 1.11-1 4.3 4.3 0 0 0 .62-1.36 5.86 5.86 0 0 0 .18-1.41v-9h2v9.28a6 6 0 0 1 -.43 2.32 5.46 5.46 0 0 1 -1.18 1.81 5.23 5.23 0 0 1 -1.77 1.18 6.05 6.05 0 0 1 -4.38 0 5.23 5.23 0 0 1 -1.77-1.18 5.46 5.46 0 0 1 -1.18-1.81 6 6 0 0 1 -.43-2.32v-9.28z" fill="#fff"/><path d="m114.87 61.78h1.95v12.77h6.61v1.86h-8.56z" fill="#fff"/><path d="m129.93 61.78h1.77l6.16 14.63h-2.28l-1.44-3.62h-6.85l-1.42 3.62h-2.28zm3.5 9.28-2.69-6.72-2.74 6.72z" fill="#fff"/><path d="m139.73 61.78h5.06a5.87 5.87 0 0 1 2.27.38 3.77 3.77 0 0 1 1.41 1 3.31 3.31 0 0 1 .73 1.32 5.51 5.51 0 0 1 .2 1.41 3.72 3.72 0 0 1 -.25 1.36 3.68 3.68 0 0 1 -.7 1.17 3.92 3.92 0 0 1 -1.11.89 4 4 0 0 1 -1.48.45l4.14 6.65h-2.44l-3.71-6.41h-2.17v6.45h-2zm2 6.45h2.56a7 7 0 0 0 1.12-.09 3 3 0 0 0 1-.35 1.77 1.77 0 0 0 .7-.71 2.38 2.38 0 0 0 .27-1.21 2.41 2.41 0 0 0 -.27-1.21 1.84 1.84 0 0 0 -.7-.71 3 3 0 0 0 -1-.34 7 7 0 0 0 -1.12-.09h-2.56z" fill="#fff"/><path d="m152.14 61.78h2v14.63h-2z" fill="#fff"/><path d="m160.8 63.64h-4.63v-1.86h11.21v1.86h-4.63v12.77h-1.95z" fill="#fff"/><path d="m172.85 70.17-5.45-8.39h2.5l3.92 6.43 4.05-6.43h2.38l-5.45 8.39v6.24h-2z" fill="#fff"/><path d="m181 69.22a1.29 1.29 0 0 1 -.95-.4 1.34 1.34 0 0 1 -.39-1 1.37 1.37 0 0 1 1.34-1.33 1.38 1.38 0 0 1 1.34 1.37 1.31 1.31 0 0 1 -.4 1 1.26 1.26 0 0 1 -.94.36zm-1.34 6a1.34 1.34 0 0 1 .39-1 1.29 1.29 0 0 1 .95-.4 1.26 1.26 0 0 1 .94.4 1.35 1.35 0 0 1 0 1.92 1.26 1.26 0 0 1 -.94.4 1.29 1.29 0 0 1 -.95-.4 1.34 1.34 0 0 1 -.39-.97z" fill="#fff"/><path d="m207.5 63.52-2.6 2.17-.76-1 3.56-3h1v14.72h-1.2z" fill="#fff"/><path d="m214.43 75.54a1 1 0 0 1 .28-.7 1 1 0 0 1 1.38 0 1 1 0 0 1 .29.7 1 1 0 0 1 -.29.71 1 1 0 0 1 -1.38 0 1 1 0 0 1 -.28-.71z" fill="#fff"/><path d="m219.39 65.34a3.86 3.86 0 0 1 .3-1.55 3.53 3.53 0 0 1 .83-1.2 4 4 0 0 1 1.25-.78 4.46 4.46 0 0 1 3.11 0 3.89 3.89 0 0 1 1.25.78 3.7 3.7 0 0 1 .84 1.2 3.86 3.86 0 0 1 .3 1.55 3.29 3.29 0 0 1 -.16 1 3.79 3.79 0 0 1 -.46 1 3.3 3.3 0 0 1 -.72.77 2.8 2.8 0 0 1 -1 .48 3.14 3.14 0 0 1 1.21.51 3.6 3.6 0 0 1 .88.86 4.3 4.3 0 0 1 .54 1.12 4.75 4.75 0 0 1 -.16 3.06 3.79 3.79 0 0 1 -.93 1.35 4.4 4.4 0 0 1 -1.41.87 5.14 5.14 0 0 1 -1.77.31 5.06 5.06 0 0 1 -1.77-.31 4.4 4.4 0 0 1 -1.41-.87 4 4 0 0 1 -.94-1.35 4.64 4.64 0 0 1 -.33-1.79 4.48 4.48 0 0 1 .18-1.27 3.62 3.62 0 0 1 1.41-2 3.21 3.21 0 0 1 1.21-.51 2.75 2.75 0 0 1 -1-.48 2.93 2.93 0 0 1 -.72-.77 3.79 3.79 0 0 1 -.46-1 3.29 3.29 0 0 1 -.07-.98zm.83 7a3.41 3.41 0 0 0 .22 1.24 3.19 3.19 0 0 0 .63 1 3 3 0 0 0 1 .69 2.93 2.93 0 0 0 1.28.26 3 3 0 0 0 2.25-1 3.19 3.19 0 0 0 .63-1 3.41 3.41 0 0 0 .23-1.24 3.26 3.26 0 0 0 -.25-1.31 3.05 3.05 0 0 0 -.66-1 2.63 2.63 0 0 0 -1-.65 3.12 3.12 0 0 0 -1.22-.23 3.08 3.08 0 0 0 -1.22.23 2.75 2.75 0 0 0 -1 .65 3.4 3.4 0 0 0 -.66 1 3.43 3.43 0 0 0 -.23 1.36zm.51-7a2.75 2.75 0 0 0 .19 1 2.65 2.65 0 0 0 .53.85 2.37 2.37 0 0 0 .81.57 2.47 2.47 0 0 0 1.07.22 2.65 2.65 0 0 0 1.88-.79 2.84 2.84 0 0 0 .53-.85 3 3 0 0 0 .19-1 2.65 2.65 0 0 0 -.74-2 2.55 2.55 0 0 0 -1.86-.73 2.52 2.52 0 0 0 -1.86.73 2.61 2.61 0 0 0 -.74 2z" fill="#fff"/><path d="m230 65.34a3.7 3.7 0 0 1 .31-1.55 3.53 3.53 0 0 1 .83-1.2 3.89 3.89 0 0 1 1.25-.78 4.46 4.46 0 0 1 3.11 0 3.89 3.89 0 0 1 1.25.78 3.53 3.53 0 0 1 .83 1.2 3.86 3.86 0 0 1 .31 1.55 3.3 3.3 0 0 1 -.17 1 3.76 3.76 0 0 1 -.45 1 3.3 3.3 0 0 1 -.72.77 2.89 2.89 0 0 1 -1 .48 3.21 3.21 0 0 1 1.21.51 3.39 3.39 0 0 1 .87.86 3.75 3.75 0 0 1 .54 1.12 4.49 4.49 0 0 1 .19 1.27 4.64 4.64 0 0 1 -.34 1.79 3.82 3.82 0 0 1 -.94 1.35 4.3 4.3 0 0 1 -1.41.87 5.18 5.18 0 0 1 -3.53 0 4.34 4.34 0 0 1 -1.42-.87 3.79 3.79 0 0 1 -.93-1.35 4.64 4.64 0 0 1 -.34-1.79 4.49 4.49 0 0 1 .19-1.27 3.75 3.75 0 0 1 .54-1.12 3.39 3.39 0 0 1 .87-.86 3.14 3.14 0 0 1 1.21-.51 2.89 2.89 0 0 1 -1-.48 3.3 3.3 0 0 1 -.72-.77 4.17 4.17 0 0 1 -.46-1 3.61 3.61 0 0 1 -.08-1zm.84 7a3.41 3.41 0 0 0 .22 1.24 3.19 3.19 0 0 0 .63 1 3 3 0 0 0 2.25 1 2.9 2.9 0 0 0 1.28-.26 3 3 0 0 0 1-.69 3.19 3.19 0 0 0 .63-1 3.65 3.65 0 0 0 0-2.55 3.05 3.05 0 0 0 -.66-1 2.75 2.75 0 0 0 -1-.65 3.08 3.08 0 0 0 -1.22-.23 3 3 0 0 0 -1.21.23 2.75 2.75 0 0 0 -1 .65 3.05 3.05 0 0 0 -.66 1 3.43 3.43 0 0 0 -.31 1.26zm.5-7a2.75 2.75 0 0 0 .2 1 2.49 2.49 0 0 0 .53.85 2.37 2.37 0 0 0 .81.57 2.45 2.45 0 0 0 1.06.22 2.48 2.48 0 0 0 1.06-.18 2.32 2.32 0 0 0 .82-.57 2.65 2.65 0 0 0 .53-.85 2.75 2.75 0 0 0 .2-1 2.61 2.61 0 0 0 -.75-2 2.52 2.52 0 0 0 -1.86-.73 2.55 2.55 0 0 0 -1.86.73 2.65 2.65 0 0 0 -.79 1.96z" fill="#fff"/><path d="m240 65.09a3.55 3.55 0 0 1 .27-1.39 3.76 3.76 0 0 1 .76-1.12 3.41 3.41 0 0 1 1.1-.77 3.47 3.47 0 0 1 2.73 0 3.41 3.41 0 0 1 1.1.77 3.76 3.76 0 0 1 .76 1.12 3.55 3.55 0 0 1 .27 1.39 3.5 3.5 0 0 1 -.27 1.38 3.81 3.81 0 0 1 -.76 1.13 3.39 3.39 0 0 1 -1.1.76 3.47 3.47 0 0 1 -2.73 0 3.39 3.39 0 0 1 -1.1-.76 3.81 3.81 0 0 1 -.76-1.13 3.5 3.5 0 0 1 -.27-1.38zm1.1 0a2.38 2.38 0 0 0 .19 1 2.55 2.55 0 0 0 .52.77 2.24 2.24 0 0 0 .76.52 2.35 2.35 0 0 0 1.85 0 2.24 2.24 0 0 0 .76-.52 2.55 2.55 0 0 0 .52-.77 2.38 2.38 0 0 0 .19-1 2.32 2.32 0 0 0 -.19-1 2.48 2.48 0 0 0 -.52-.78 2.41 2.41 0 0 0 -1.68-.7 2.24 2.24 0 0 0 -.93.19 2.21 2.21 0 0 0 -.76.51 2.48 2.48 0 0 0 -.52.78 2.32 2.32 0 0 0 -.24 1zm10.61-4 .93.58-9.34 15.44-.91-.58zm-3.71 12.01a3.54 3.54 0 0 1 .27-1.38 3.6 3.6 0 0 1 .75-1.13 3.71 3.71 0 0 1 1.11-.76 3.44 3.44 0 0 1 2.72 0 3.71 3.71 0 0 1 1.11.76 3.6 3.6 0 0 1 .75 1.13 3.57 3.57 0 0 1 0 2.77 3.44 3.44 0 0 1 -.75 1.12 3.57 3.57 0 0 1 -1.11.77 3.44 3.44 0 0 1 -2.72 0 3.57 3.57 0 0 1 -1.11-.77 3.44 3.44 0 0 1 -.75-1.12 3.55 3.55 0 0 1 -.27-1.39zm1.09 0a2.4 2.4 0 0 0 .2 1 2.55 2.55 0 0 0 .52.77 2.41 2.41 0 0 0 2.61.52 2.51 2.51 0 0 0 .76-.52 2.55 2.55 0 0 0 .52-.77 2.55 2.55 0 0 0 0-1.93 2.55 2.55 0 0 0 -.52-.77 2.51 2.51 0 0 0 -.76-.52 2.36 2.36 0 0 0 -2.61.52 2.55 2.55 0 0 0 -.52.77 2.39 2.39 0 0 0 -.22.93z" fill="#fff"/></svg>