<svg viewBox="0 0 599.02 514.27" xmlns="http://www.w3.org/2000/svg"><rect fill="#191919" height="513.52" rx="12" width="598.27" x=".38" y=".38"/><rect fill="none" height="513.52" rx="12" stroke="#fff" stroke-miterlimit="1.18" stroke-width=".75" width="598.27" x=".38" y=".38"/><path d="m118.46 115.6h363.62" fill="none" stroke="#fff" stroke-miterlimit="1.18" stroke-width=".25"/><path d="m32 362v-2h12.75v-6.71h1.86v8.71z" fill="#fff"/><path d="m32 351.22v-9.44h1.86v7.46h4.34v-6.94h1.86v6.94h4.69v-7.83h1.86v9.81z" fill="#fff"/><path d="m32 340.6v-2.29l11.9-4.3-11.9-4.5v-2.17l14.63 5.76v1.9z" fill="#fff"/><path d="m32 325.58v-9.44h1.86v7.46h4.34v-6.94h1.86v6.94h4.69v-7.83h1.86v9.81z" fill="#fff"/><path d="m32 313v-2h12.75v-6.72h1.86v8.72z" fill="#fff"/><path d="m47 289.78a7.94 7.94 0 0 1 -.59 3.08 7.11 7.11 0 0 1 -1.62 2.41 7.64 7.64 0 0 1 -2.44 1.57 8.5 8.5 0 0 1 -6.07 0 7.64 7.64 0 0 1 -2.44-1.57 7.11 7.11 0 0 1 -1.62-2.41 8.33 8.33 0 0 1 0-6.16 7.21 7.21 0 0 1 1.62-2.41 7.64 7.64 0 0 1 2.44-1.57 8.5 8.5 0 0 1 6.07 0 7.64 7.64 0 0 1 2.44 1.57 7.21 7.21 0 0 1 1.62 2.41 7.94 7.94 0 0 1 .59 3.08zm-1.86 0a5.51 5.51 0 0 0 -.46-2.27 5.38 5.38 0 0 0 -1.25-1.74 5.57 5.57 0 0 0 -1.85-1.11 6.61 6.61 0 0 0 -4.53 0 5.57 5.57 0 0 0 -1.85 1.11 5.49 5.49 0 0 0 0 8 5.57 5.57 0 0 0 1.8 1.13 6.61 6.61 0 0 0 4.53 0 5.57 5.57 0 0 0 1.85-1.11 5.38 5.38 0 0 0 1.25-1.74 5.51 5.51 0 0 0 .49-2.27z" fill="#fff"/><path d="m32 279.31v-9.2h1.86v7.21h4.59v-6.71h1.86v6.71h6.32v2z" fill="#fff"/><path d="m32 261.71v-5.15a6.06 6.06 0 0 1 .38-2.31 4 4 0 0 1 1-1.44 3.29 3.29 0 0 1 1.33-.73 5.07 5.07 0 0 1 1.41-.21 5.14 5.14 0 0 1 1.42.21 3.19 3.19 0 0 1 1.32.73 3.88 3.88 0 0 1 1 1.44 5.87 5.87 0 0 1 .38 2.31v3.16h6.45v2zm6.45-2v-2.6a6.3 6.3 0 0 0 -.1-1.15 2.94 2.94 0 0 0 -.34-1 1.8 1.8 0 0 0 -.71-.71 2.38 2.38 0 0 0 -1.21-.27 2.41 2.41 0 0 0 -1.21.27 1.8 1.8 0 0 0 -.71.71 2.94 2.94 0 0 0 -.34 1 7.33 7.33 0 0 0 -.09 1.15v2.6z" fill="#fff"/><path d="m32 249.45v-5.14a6.06 6.06 0 0 1 .38-2.31 4 4 0 0 1 1-1.44 3.29 3.29 0 0 1 1.33-.73 5.07 5.07 0 0 1 1.41-.21 3.86 3.86 0 0 1 2.53 1 4.06 4.06 0 0 1 .89 1.14 3.81 3.81 0 0 1 .44 1.49l6.68-4.15v2.48l-6.45 3.72v2.21h6.45v2zm6.45-2v-2.6a6.3 6.3 0 0 0 -.1-1.15 2.87 2.87 0 0 0 -.34-1 1.73 1.73 0 0 0 -.71-.71 2.38 2.38 0 0 0 -1.21-.27 2.41 2.41 0 0 0 -1.21.27 1.73 1.73 0 0 0 -.71.71 2.87 2.87 0 0 0 -.34 1 7.33 7.33 0 0 0 -.09 1.15v2.6z" fill="#fff"/><path d="m32 236.83v-2h14.61v2z" fill="#fff"/><path d="m32 231.42v-5.1a9.61 9.61 0 0 1 .35-2.72 7.61 7.61 0 0 1 .94-2 6.11 6.11 0 0 1 1.35-1.42 7.19 7.19 0 0 1 1.58-.9 8 8 0 0 1 1.61-.48 9 9 0 0 1 1.48-.14 7.23 7.23 0 0 1 2.72.52 6.9 6.9 0 0 1 2.34 1.52 7.74 7.74 0 0 1 1.63 2.49 9 9 0 0 1 .62 3.46v4.77zm12.77-2v-2.5a8.4 8.4 0 0 0 -.34-2.38 5.7 5.7 0 0 0 -1-2 4.81 4.81 0 0 0 -1.7-1.35 5.43 5.43 0 0 0 -2.39-.49 7.21 7.21 0 0 0 -1.64.22 5.05 5.05 0 0 0 -1.78.86 5 5 0 0 0 -1.44 1.75 6.21 6.21 0 0 0 -.59 2.89v3z" fill="#fff"/><path d="m32 215.78v-9.44h1.86v7.45h4.34v-6.94h1.86v6.94h4.69v-7.79h1.86v9.82z" fill="#fff"/><path d="m66 432.5c0-.55 0-1.13.08-1.75a12 12 0 0 1 .28-1.81 9.22 9.22 0 0 1 .57-1.68 5.23 5.23 0 0 1 .92-1.4 4.21 4.21 0 0 1 1.37-1 5.12 5.12 0 0 1 3.77 0 4.17 4.17 0 0 1 1.36 1 4.79 4.79 0 0 1 .92 1.4 9.22 9.22 0 0 1 .57 1.68 13.39 13.39 0 0 1 .29 1.81c0 .62.07 1.2.07 1.75s0 1.16-.07 1.77a13.5 13.5 0 0 1 -.29 1.8 9.39 9.39 0 0 1 -.57 1.67 5 5 0 0 1 -.92 1.41 4.17 4.17 0 0 1 -1.36 1 5.12 5.12 0 0 1 -3.77 0 4.21 4.21 0 0 1 -1.37-1 5.45 5.45 0 0 1 -.92-1.41 9.39 9.39 0 0 1 -.57-1.67 12 12 0 0 1 -.28-1.8c-.08-.61-.08-1.2-.08-1.77zm1.44 0v1.34a11.15 11.15 0 0 0 .17 1.49 9.33 9.33 0 0 0 .39 1.47 5.23 5.23 0 0 0 .65 1.27 3.27 3.27 0 0 0 1 .9 3.2 3.2 0 0 0 2.83 0 3.19 3.19 0 0 0 1-.9 4.61 4.61 0 0 0 .65-1.27 9.37 9.37 0 0 0 .39-1.47c.08-.51.14-1 .17-1.49s0-.93 0-1.34 0-.83 0-1.33-.09-1-.17-1.49a9.37 9.37 0 0 0 -.39-1.47 4.61 4.61 0 0 0 -.65-1.27 3.19 3.19 0 0 0 -1-.9 2.88 2.88 0 0 0 -1.41-.34 2.84 2.84 0 0 0 -1.4.34 3.23 3.23 0 0 0 -1 .9 5.23 5.23 0 0 0 -.65 1.27 9.33 9.33 0 0 0 -.38 1.47 11 11 0 0 0 -.17 1.49c-.06.5-.08.94-.08 1.33z" fill="#fff"/><path d="m142.89 426.62-2.79 2.29-.81-1 3.82-3.12h1.11v15.43h-1.31z" fill="#fff"/><path d="m149.1 432.5c0-.55 0-1.13.08-1.75a12 12 0 0 1 .28-1.81 9.22 9.22 0 0 1 .57-1.68 5.23 5.23 0 0 1 .92-1.4 4.21 4.21 0 0 1 1.37-1 4.5 4.5 0 0 1 1.88-.36 4.59 4.59 0 0 1 1.89.36 4.17 4.17 0 0 1 1.36 1 5 5 0 0 1 .92 1.4 9.22 9.22 0 0 1 .57 1.68 12 12 0 0 1 .28 1.81c.05.62.08 1.2.08 1.75s0 1.16-.08 1.77a12 12 0 0 1 -.28 1.8 9.39 9.39 0 0 1 -.57 1.67 5.2 5.2 0 0 1 -.92 1.41 4.17 4.17 0 0 1 -1.36 1 4.59 4.59 0 0 1 -1.89.36 4.5 4.5 0 0 1 -1.88-.36 4.21 4.21 0 0 1 -1.37-1 5.45 5.45 0 0 1 -.92-1.41 9.39 9.39 0 0 1 -.57-1.67 12 12 0 0 1 -.28-1.8c-.05-.61-.08-1.2-.08-1.77zm1.44 0v1.34a13.14 13.14 0 0 0 .18 1.49 8.36 8.36 0 0 0 .38 1.47 4.61 4.61 0 0 0 .65 1.27 3.27 3.27 0 0 0 1 .9 3.2 3.2 0 0 0 2.83 0 3.19 3.19 0 0 0 1-.9 4.61 4.61 0 0 0 .65-1.27 8.36 8.36 0 0 0 .38-1.47 13.14 13.14 0 0 0 .18-1.49c0-.48 0-.93 0-1.34s0-.83 0-1.33a12.87 12.87 0 0 0 -.18-1.49 8.36 8.36 0 0 0 -.38-1.47 4.61 4.61 0 0 0 -.65-1.27 3.19 3.19 0 0 0 -1-.9 3.09 3.09 0 0 0 -2.82 0 3.19 3.19 0 0 0 -1 .9 4.61 4.61 0 0 0 -.65 1.27 8.36 8.36 0 0 0 -.38 1.47 12.87 12.87 0 0 0 -.18 1.49c0 .5-.01.94-.01 1.33z" fill="#fff"/><path d="m215.58 438.69 5.8-6.12q.39-.39.78-.84a8 8 0 0 0 .71-.94 4.94 4.94 0 0 0 .51-1 3.52 3.52 0 0 0 .2-1.18 2.66 2.66 0 0 0 -.87-2.11 3.25 3.25 0 0 0 -2.21-.77 3.06 3.06 0 0 0 -2 .7 3.22 3.22 0 0 0 -1.07 1.83l-1.53-.15a4.15 4.15 0 0 1 1.64-2.67 5.18 5.18 0 0 1 3-.88 5.31 5.31 0 0 1 1.7.27 4.52 4.52 0 0 1 1.42.77 3.82 3.82 0 0 1 1 1.24 3.68 3.68 0 0 1 .36 1.66 4.94 4.94 0 0 1 -.28 1.66 6.76 6.76 0 0 1 -.72 1.45 8.38 8.38 0 0 1 -1 1.29c-.38.41-.77.82-1.17 1.22l-4.85 4.88h8.1v1.18h-9.54z" fill="#fff"/><path d="m226.58 432.5c0-.55 0-1.13.08-1.75a13.38 13.38 0 0 1 .28-1.81 9.22 9.22 0 0 1 .57-1.68 5 5 0 0 1 .93-1.4 4.06 4.06 0 0 1 1.36-1 5.12 5.12 0 0 1 3.77 0 4.17 4.17 0 0 1 1.36 1 5 5 0 0 1 .93 1.4 8.5 8.5 0 0 1 .56 1.68 12 12 0 0 1 .29 1.81c0 .62.07 1.2.07 1.75s0 1.16-.07 1.77a12.06 12.06 0 0 1 -.29 1.8 8.63 8.63 0 0 1 -.56 1.67 5.23 5.23 0 0 1 -.93 1.41 4.17 4.17 0 0 1 -1.36 1 5.12 5.12 0 0 1 -3.77 0 4.06 4.06 0 0 1 -1.36-1 5.23 5.23 0 0 1 -.93-1.41 9.39 9.39 0 0 1 -.57-1.67 13.48 13.48 0 0 1 -.28-1.8c-.05-.61-.08-1.2-.08-1.77zm1.44 0v1.34a13.08 13.08 0 0 0 .17 1.49 10.57 10.57 0 0 0 .38 1.47 4.92 4.92 0 0 0 .66 1.27 3.16 3.16 0 0 0 1 .9 2.83 2.83 0 0 0 1.41.33 2.88 2.88 0 0 0 1.41-.33 3.19 3.19 0 0 0 1-.9 4.92 4.92 0 0 0 .66-1.27 10.57 10.57 0 0 0 .38-1.47c.08-.51.14-1 .17-1.49s0-.93 0-1.34 0-.83 0-1.33-.09-1-.17-1.49a10.57 10.57 0 0 0 -.38-1.47 4.92 4.92 0 0 0 -.66-1.27 3.19 3.19 0 0 0 -1-.9 3.07 3.07 0 0 0 -2.81 0 3.09 3.09 0 0 0 -1 .9 4.92 4.92 0 0 0 -.66 1.27 10.57 10.57 0 0 0 -.38 1.47 12.83 12.83 0 0 0 -.17 1.49c-.03.5-.03.94-.03 1.33z" fill="#fff"/><path d="m294.48 437a3.92 3.92 0 0 0 1.19 1.71 3.19 3.19 0 0 0 2.05.6 4 4 0 0 0 1.51-.26 2.85 2.85 0 0 0 1.08-.72 3.11 3.11 0 0 0 .64-1.07 3.7 3.7 0 0 0 .22-1.3 2.8 2.8 0 0 0 -.36-1.46 2.88 2.88 0 0 0 -.94-1 4 4 0 0 0 -1.31-.56 6 6 0 0 0 -1.47-.17h-.56v-1.31h.65a4.74 4.74 0 0 0 1.23-.17 3 3 0 0 0 1.11-.51 2.58 2.58 0 0 0 .8-.9 2.8 2.8 0 0 0 -2.55-4.18 3.17 3.17 0 0 0 -1.72.49 3.47 3.47 0 0 0 -1.2 1.32l-1.24-.69a4 4 0 0 1 1.73-1.75 5.7 5.7 0 0 1 4.09-.29 4 4 0 0 1 1.37.74 3.43 3.43 0 0 1 .92 1.23 4.09 4.09 0 0 1 .34 1.74 3.77 3.77 0 0 1 -.69 2.24 3.66 3.66 0 0 1 -2.05 1.34 4 4 0 0 1 1.34.49 4.18 4.18 0 0 1 1 .88 4.08 4.08 0 0 1 .68 1.18 4 4 0 0 1 .24 1.4 4.9 4.9 0 0 1 -.3 1.72 3.76 3.76 0 0 1 -.89 1.4 4.28 4.28 0 0 1 -1.49.95 5.85 5.85 0 0 1 -2.1.35 5.59 5.59 0 0 1 -2.95-.73 4.5 4.5 0 0 1 -1.82-2.3z" fill="#fff"/><path d="m304.07 432.5c0-.55 0-1.13.07-1.75a12 12 0 0 1 .29-1.81 8.5 8.5 0 0 1 .56-1.68 5 5 0 0 1 .93-1.4 4.17 4.17 0 0 1 1.36-1 5.12 5.12 0 0 1 3.77 0 4.06 4.06 0 0 1 1.36 1 5 5 0 0 1 .93 1.4 9.22 9.22 0 0 1 .57 1.68 13.38 13.38 0 0 1 .28 1.81c.05.62.08 1.2.08 1.75s0 1.16-.08 1.77a13.48 13.48 0 0 1 -.28 1.8 9.39 9.39 0 0 1 -.57 1.67 5.23 5.23 0 0 1 -.93 1.41 4.06 4.06 0 0 1 -1.36 1 5.12 5.12 0 0 1 -3.77 0 4.17 4.17 0 0 1 -1.36-1 5.23 5.23 0 0 1 -.93-1.41 8.63 8.63 0 0 1 -.56-1.67 12.06 12.06 0 0 1 -.29-1.8c-.05-.61-.07-1.2-.07-1.77zm1.44 0v1.34s.09 1 .17 1.49a9.37 9.37 0 0 0 .39 1.47 4.61 4.61 0 0 0 .65 1.27 3.27 3.27 0 0 0 1 .9 3.18 3.18 0 0 0 2.82 0 3.19 3.19 0 0 0 1-.9 4.92 4.92 0 0 0 .66-1.27 10.57 10.57 0 0 0 .38-1.47 13.08 13.08 0 0 0 .17-1.49c0-.48.05-.93.05-1.34s0-.83-.05-1.33a12.83 12.83 0 0 0 -.17-1.49 10.57 10.57 0 0 0 -.38-1.47 4.92 4.92 0 0 0 -.66-1.27 3.19 3.19 0 0 0 -1-.9 3.07 3.07 0 0 0 -2.81 0 3.19 3.19 0 0 0 -1 .9 4.61 4.61 0 0 0 -.65 1.27 9.37 9.37 0 0 0 -.39 1.47c-.08.5-.14 1-.17 1.49s-.01.94-.01 1.33z" fill="#fff"/><path d="m376.82 436.43h-6.67v-1.55l6.17-10.09h1.81v10.46h2.35v1.18h-2.35v3.79h-1.31zm0-10.2-5.45 9h5.49z" fill="#fff"/><path d="m381.55 432.5c0-.55 0-1.13.07-1.75a13.39 13.39 0 0 1 .29-1.81 9.22 9.22 0 0 1 .57-1.68 4.79 4.79 0 0 1 .92-1.4 4.17 4.17 0 0 1 1.36-1 4.55 4.55 0 0 1 1.89-.36 4.5 4.5 0 0 1 1.88.36 4.21 4.21 0 0 1 1.37 1 5.23 5.23 0 0 1 .92 1.4 9.22 9.22 0 0 1 .57 1.68 12 12 0 0 1 .28 1.81c.05.62.08 1.2.08 1.75s0 1.16-.08 1.77a12 12 0 0 1 -.28 1.8 9.39 9.39 0 0 1 -.57 1.67 5.45 5.45 0 0 1 -.92 1.41 4.21 4.21 0 0 1 -1.37 1 4.5 4.5 0 0 1 -1.88.36 4.55 4.55 0 0 1 -1.89-.36 4.17 4.17 0 0 1 -1.36-1 5 5 0 0 1 -.92-1.41 9.39 9.39 0 0 1 -.57-1.67 13.5 13.5 0 0 1 -.29-1.8c-.05-.61-.07-1.2-.07-1.77zm1.44 0v1.34a13.14 13.14 0 0 0 .18 1.49 8.36 8.36 0 0 0 .38 1.47 4.61 4.61 0 0 0 .65 1.27 3.27 3.27 0 0 0 1 .9 3.18 3.18 0 0 0 2.82 0 3.23 3.23 0 0 0 1-.9 4.9 4.9 0 0 0 .65-1.27 9.33 9.33 0 0 0 .38-1.47 13.14 13.14 0 0 0 .18-1.49c0-.48 0-.93 0-1.34s0-.83 0-1.33a12.87 12.87 0 0 0 -.18-1.49 9.33 9.33 0 0 0 -.38-1.47 4.9 4.9 0 0 0 -.65-1.27 3.23 3.23 0 0 0 -1-.9 2.84 2.84 0 0 0 -1.4-.34 2.88 2.88 0 0 0 -1.41.34 3.19 3.19 0 0 0 -1 .9 4.61 4.61 0 0 0 -.65 1.27 8.36 8.36 0 0 0 -.38 1.47 12.87 12.87 0 0 0 -.18 1.49v1.33z" fill="#fff"/><path d="m456.94 426h-6.36l-.07 4.9a3.4 3.4 0 0 1 1.09-.35 7.75 7.75 0 0 1 1.16-.09 4.73 4.73 0 0 1 2 .41 4.4 4.4 0 0 1 1.51 1.1 4.71 4.71 0 0 1 1 1.62 5.63 5.63 0 0 1 .34 2 5 5 0 0 1 -.45 2.18 4.45 4.45 0 0 1 -1.16 1.55 4.87 4.87 0 0 1 -1.59.91 5 5 0 0 1 -1.72.31 5.35 5.35 0 0 1 -2.85-.7 4.69 4.69 0 0 1 -1.77-1.92l1.35-.67a3.47 3.47 0 0 0 .53.82 3.88 3.88 0 0 0 .78.67 3.66 3.66 0 0 0 .93.46 3.31 3.31 0 0 0 1 .16 3.08 3.08 0 0 0 1.13-.23 3.66 3.66 0 0 0 1.13-.68 3.86 3.86 0 0 0 .88-1.16 3.57 3.57 0 0 0 .34-1.61 4.08 4.08 0 0 0 -.29-1.56 4 4 0 0 0 -.82-1.27 3.79 3.79 0 0 0 -1.23-.86 3.72 3.72 0 0 0 -1.54-.32 4.67 4.67 0 0 0 -1.61.29 6.59 6.59 0 0 0 -1.44.76l.13-7.87h7.61z" fill="#fff"/><path d="m459 432.5c0-.55 0-1.13.08-1.75a12 12 0 0 1 .28-1.81 9.22 9.22 0 0 1 .57-1.68 5.23 5.23 0 0 1 .92-1.4 4.11 4.11 0 0 1 1.37-1 4.5 4.5 0 0 1 1.88-.36 4.55 4.55 0 0 1 1.89.36 4.17 4.17 0 0 1 1.36 1 5 5 0 0 1 .92 1.4 9.22 9.22 0 0 1 .57 1.68 12 12 0 0 1 .28 1.81c.06.62.08 1.2.08 1.75s0 1.16-.08 1.77a12 12 0 0 1 -.28 1.8 9.39 9.39 0 0 1 -.57 1.67 5.2 5.2 0 0 1 -.92 1.41 4.17 4.17 0 0 1 -1.36 1 4.55 4.55 0 0 1 -1.89.36 4.5 4.5 0 0 1 -1.88-.36 4.11 4.11 0 0 1 -1.37-1 5.45 5.45 0 0 1 -.92-1.41 9.39 9.39 0 0 1 -.57-1.67 12 12 0 0 1 -.28-1.8c-.02-.61-.08-1.2-.08-1.77zm1.44 0v1.34a13.14 13.14 0 0 0 .18 1.49 9.33 9.33 0 0 0 .38 1.47 5.23 5.23 0 0 0 .65 1.27 3.27 3.27 0 0 0 1 .9 3.2 3.2 0 0 0 2.83 0 3.19 3.19 0 0 0 1-.9 4.61 4.61 0 0 0 .65-1.27 8.36 8.36 0 0 0 .38-1.47 13.14 13.14 0 0 0 .18-1.49c0-.48 0-.93 0-1.34s0-.83 0-1.33a12.87 12.87 0 0 0 -.18-1.49 8.36 8.36 0 0 0 -.38-1.47 4.61 4.61 0 0 0 -.65-1.27 3.19 3.19 0 0 0 -1-.9 2.88 2.88 0 0 0 -1.41-.34 2.82 2.82 0 0 0 -1.4.34 3.23 3.23 0 0 0 -1 .9 5.23 5.23 0 0 0 -.65 1.27 9.33 9.33 0 0 0 -.38 1.47 12.87 12.87 0 0 0 -.18 1.49c.02.5.01.94.01 1.33z" fill="#fff"/><path d="m528.28 431.59a2.55 2.55 0 0 1 1.06-.49 5.07 5.07 0 0 1 1.23-.16 4.72 4.72 0 0 1 1.89.37 4.4 4.4 0 0 1 1.51 1 4.59 4.59 0 0 1 1 1.5 5 5 0 0 1 .35 1.87 4.84 4.84 0 0 1 -.38 1.92 4.57 4.57 0 0 1 -1.06 1.52 5 5 0 0 1 -1.6 1 5.54 5.54 0 0 1 -2 .36 5.44 5.44 0 0 1 -2-.36 5.06 5.06 0 0 1 -1.61-1 4.4 4.4 0 0 1 -1-1.52 4.67 4.67 0 0 1 -.38-1.92 4.79 4.79 0 0 1 .13-1.16 5 5 0 0 1 .35-1 10 10 0 0 1 .45-.93c.16-.29.32-.57.48-.83l4.19-6.95h1.65zm2 .48a3.45 3.45 0 0 0 -1.41.28 3.8 3.8 0 0 0 -1.15.77 3.67 3.67 0 0 0 -.77 1.16 3.52 3.52 0 0 0 -.29 1.41 3.92 3.92 0 0 0 .27 1.47 3.27 3.27 0 0 0 1.88 1.88 4.29 4.29 0 0 0 2.94 0 3.21 3.21 0 0 0 1.15-.74 3.4 3.4 0 0 0 .74-1.14 4.13 4.13 0 0 0 .26-1.47 3.6 3.6 0 0 0 -2.21-3.34 3.55 3.55 0 0 0 -1.41-.28z" fill="#fff"/><path d="m536.51 432.5c0-.55 0-1.13.08-1.75a13.38 13.38 0 0 1 .28-1.81 9.22 9.22 0 0 1 .57-1.68 5 5 0 0 1 .93-1.4 4.06 4.06 0 0 1 1.36-1 5.12 5.12 0 0 1 3.77 0 4.17 4.17 0 0 1 1.36 1 5 5 0 0 1 .93 1.4 9.2 9.2 0 0 1 .56 1.68 12 12 0 0 1 .29 1.81c.05.62.07 1.2.07 1.75s0 1.16-.07 1.77a12.06 12.06 0 0 1 -.29 1.8 9.36 9.36 0 0 1 -.56 1.67 5.23 5.23 0 0 1 -.93 1.41 4.17 4.17 0 0 1 -1.36 1 5.12 5.12 0 0 1 -3.77 0 4.06 4.06 0 0 1 -1.36-1 5.23 5.23 0 0 1 -.93-1.41 9.39 9.39 0 0 1 -.57-1.67 13.48 13.48 0 0 1 -.28-1.8c-.05-.61-.08-1.2-.08-1.77zm1.44 0v1.34a13.08 13.08 0 0 0 .17 1.49 9.33 9.33 0 0 0 .38 1.47 4.92 4.92 0 0 0 .66 1.27 3.05 3.05 0 0 0 1 .9 2.83 2.83 0 0 0 1.41.33 2.88 2.88 0 0 0 1.43-.3 3.19 3.19 0 0 0 1-.9 4.92 4.92 0 0 0 .66-1.27 10.57 10.57 0 0 0 .38-1.47c.08-.51.14-1 .17-1.49s0-.93 0-1.34 0-.83 0-1.33-.09-1-.17-1.49a10.57 10.57 0 0 0 -.38-1.47 4.92 4.92 0 0 0 -.66-1.27 3.19 3.19 0 0 0 -1-.9 3.07 3.07 0 0 0 -2.81 0 3.09 3.09 0 0 0 -1 .9 4.92 4.92 0 0 0 -.66 1.27 9.33 9.33 0 0 0 -.38 1.47 12.83 12.83 0 0 0 -.17 1.49c.02.47.02.91.02 1.3z" fill="#fff"/><path d="m71.05 419.44h464.9" fill="none" stroke="#fff" stroke-miterlimit="10"/><path d="m71.05 419.44v-7.09" fill="none" stroke="#fff" stroke-miterlimit="10"/><path d="m148.54 419.44v-7.09" fill="none" stroke="#fff" stroke-miterlimit="10"/><path d="m226.02 419.44v-7.09" fill="none" stroke="#fff" stroke-miterlimit="10"/><path d="m303.5 419.44v-7.09" fill="none" stroke="#fff" stroke-miterlimit="10"/><path d="m380.98 419.44v-7.09" fill="none" stroke="#fff" stroke-miterlimit="10"/><path d="m458.47 419.44v-7.09" fill="none" stroke="#fff" stroke-miterlimit="10"/><path d="m535.95 419.44v-7.09" fill="none" stroke="#fff" stroke-miterlimit="10"/><path d="m71.05 419.44v-283.77" fill="none" stroke="#fff" stroke-miterlimit="10"/><path d="m71.05 277.55h11.63" fill="none" stroke="#fff" stroke-miterlimit="10"/><path d="m71.05 337.15h77.48v51.08h-77.48z" fill="#245b96" stroke="#fff" stroke-miterlimit="10" stroke-width=".5"/><path d="m71.05 280.39h232.45v51.08h-232.45z" fill="#14396c" stroke="#fff" stroke-miterlimit="10" stroke-width=".5"/><path d="m71.05 223.64h464.9v51.08h-464.9z" fill="#061f4b" stroke="#fff" stroke-miterlimit="10" stroke-width=".5"/><g fill="#fff"><path d="m194.71 307.45a1.72 1.72 0 0 0 .76.77 2.16 2.16 0 0 0 1.05.27 1.88 1.88 0 0 0 .52-.08 1.55 1.55 0 0 0 .46-.24 1.42 1.42 0 0 0 .33-.36.9.9 0 0 0 .13-.49.79.79 0 0 0 -.28-.66 1.89 1.89 0 0 0 -.68-.34 6.59 6.59 0 0 0 -.9-.22 4 4 0 0 1 -.89-.27 2.1 2.1 0 0 1 -.69-.52 1.44 1.44 0 0 1 -.27-.94 1.62 1.62 0 0 1 .19-.81 1.69 1.69 0 0 1 .49-.57 2.22 2.22 0 0 1 .69-.34 2.87 2.87 0 0 1 .77-.11 2.9 2.9 0 0 1 1.33.29 2 2 0 0 1 .88.91l-.74.44a1.73 1.73 0 0 0 -.57-.67 1.62 1.62 0 0 0 -.9-.22 1.88 1.88 0 0 0 -.46.06 1.48 1.48 0 0 0 -.42.2 1.05 1.05 0 0 0 -.32.31.76.76 0 0 0 -.13.44.74.74 0 0 0 .28.64 2 2 0 0 0 .68.32 6.69 6.69 0 0 0 .9.2 4 4 0 0 1 .89.27 1.7 1.7 0 0 1 .68.54 1.53 1.53 0 0 1 .28 1 1.94 1.94 0 0 1 -.18.86 1.75 1.75 0 0 1 -.5.61 2.1 2.1 0 0 1 -.73.37 3 3 0 0 1 -.85.13 3.42 3.42 0 0 1 -1.48-.32 2.24 2.24 0 0 1 -1-1z"/><path d="m200.11 305.89a3.44 3.44 0 0 1 .25-1.34 3.2 3.2 0 0 1 .67-1.06 3.07 3.07 0 0 1 1.05-.7 3.64 3.64 0 0 1 2.65 0 3.13 3.13 0 0 1 1 .7 3.07 3.07 0 0 1 .68 1.06 3.72 3.72 0 0 1 0 2.68 3.16 3.16 0 0 1 -.68 1.06 3.13 3.13 0 0 1 -1 .7 3.64 3.64 0 0 1 -2.65 0 3.07 3.07 0 0 1 -1.05-.7 3.3 3.3 0 0 1 -.67-1.06 3.44 3.44 0 0 1 -.25-1.34zm.82 0a2.82 2.82 0 0 0 .17 1 2.31 2.31 0 0 0 .49.83 2.51 2.51 0 0 0 .79.56 2.59 2.59 0 0 0 1 .2 2.63 2.63 0 0 0 1-.2 2.59 2.59 0 0 0 .78-.56 2.31 2.31 0 0 0 .49-.83 2.82 2.82 0 0 0 .17-1 2.78 2.78 0 0 0 -.17-1 2.23 2.23 0 0 0 -.49-.83 2.59 2.59 0 0 0 -.78-.56 2.46 2.46 0 0 0 -1-.2 2.43 2.43 0 0 0 -1 .2 2.51 2.51 0 0 0 -.79.56 2.23 2.23 0 0 0 -.49.83 2.78 2.78 0 0 0 -.17 1z"/><path d="m208.51 304.5c0-.12 0-.27 0-.44s0-.34 0-.51 0-.34 0-.49 0-.27 0-.35h.82v.69a1.74 1.74 0 0 0 0 .42 2.19 2.19 0 0 1 .82-.9 2.33 2.33 0 0 1 1.32-.38 2.05 2.05 0 0 1 1.14.33 1.84 1.84 0 0 1 .75 1.05 2 2 0 0 1 .88-1.05 2.53 2.53 0 0 1 1.24-.33 2.61 2.61 0 0 1 1.2.24 2 2 0 0 1 .72.61 2.27 2.27 0 0 1 .37.87 5.69 5.69 0 0 1 .1 1v3.79h-.82v-3.75a4.74 4.74 0 0 0 -.06-.75 2.19 2.19 0 0 0 -.24-.65 1.22 1.22 0 0 0 -.47-.46 1.58 1.58 0 0 0 -.8-.17 1.83 1.83 0 0 0 -.93.21 1.59 1.59 0 0 0 -.58.54 2.29 2.29 0 0 0 -.3.72 3.88 3.88 0 0 0 -.08.73v3.58h-.82v-3.83a2.79 2.79 0 0 0 -.31-1.42 1.07 1.07 0 0 0 -1-.53 2.36 2.36 0 0 0 -.84.15 1.78 1.78 0 0 0 -.69.49 2.12 2.12 0 0 0 -.46.81 3.32 3.32 0 0 0 -.17 1.15v3.18h-.82z"/><path d="m225.58 307.87a2.67 2.67 0 0 1 -1.17 1.05 3.72 3.72 0 0 1 -1.54.32 3.38 3.38 0 0 1 -1.3-.25 3 3 0 0 1 -1-.7 3.07 3.07 0 0 1 -.64-1.06 3.92 3.92 0 0 1 -.23-1.36 3.81 3.81 0 0 1 .23-1.32 3.32 3.32 0 0 1 .65-1.05 3 3 0 0 1 1-.7 3.05 3.05 0 0 1 1.26-.26 3 3 0 0 1 1.27.26 2.84 2.84 0 0 1 .92.67 2.73 2.73 0 0 1 .56 1 3.17 3.17 0 0 1 .19 1.09v.58h-5.26a2.8 2.8 0 0 0 .11.66 2.31 2.31 0 0 0 .37.8 2.56 2.56 0 0 0 .72.66 2.32 2.32 0 0 0 1.18.27 2.6 2.6 0 0 0 1.2-.3 2.19 2.19 0 0 0 .9-.83zm-.62-2.52a2 2 0 0 0 -.17-.8 2.13 2.13 0 0 0 -.46-.65 2.29 2.29 0 0 0 -.69-.45 2.22 2.22 0 0 0 -.85-.16 2.06 2.06 0 0 0 -1.1.27 2.55 2.55 0 0 0 -.7.63 2.8 2.8 0 0 0 -.37.7 2.1 2.1 0 0 0 -.11.46z"/><path d="m226.71 302.71h.89l1.52 5.33 1.75-5.33h.77l1.86 5.33 1.47-5.33h.82l-1.79 6.36h-.85l-1.86-5.21-1.75 5.21h-.84z"/><path d="m237.12 298.66h.82v5.16a2.26 2.26 0 0 1 .82-.9 2.35 2.35 0 0 1 1.32-.38 2.61 2.61 0 0 1 1.2.24 2 2 0 0 1 .72.61 2.27 2.27 0 0 1 .37.87 4.9 4.9 0 0 1 .1 1v3.79h-.81v-3.75a4.76 4.76 0 0 0 -.07-.75 2.19 2.19 0 0 0 -.24-.65 1.22 1.22 0 0 0 -.47-.46 1.58 1.58 0 0 0 -.8-.17 2.36 2.36 0 0 0 -.84.15 1.78 1.78 0 0 0 -.69.49 2.12 2.12 0 0 0 -.46.81 3.32 3.32 0 0 0 -.17 1.15v3.18h-.82z"/><path d="m249.52 306.4v.84s0 .48 0 .69 0 .41 0 .59a5.14 5.14 0 0 0 .06.55h-.76a6.53 6.53 0 0 1 -.08-1 2.32 2.32 0 0 1 -.87.91 2.74 2.74 0 0 1 -1.32.29 3.09 3.09 0 0 1 -.8-.11 2.06 2.06 0 0 1 -.7-.33 1.69 1.69 0 0 1 -.51-.58 1.8 1.8 0 0 1 -.2-.87 1.7 1.7 0 0 1 .37-1.16 2.25 2.25 0 0 1 .9-.64 4.22 4.22 0 0 1 1.14-.27 8.53 8.53 0 0 1 1.06-.07h.95v-.38a1.38 1.38 0 0 0 -.5-1.19 2.2 2.2 0 0 0 -1.26-.35 2.8 2.8 0 0 0 -1.91.71l-.48-.56a2.83 2.83 0 0 1 1.11-.67 4 4 0 0 1 1.28-.23 2.75 2.75 0 0 1 1.81.55 2.11 2.11 0 0 1 .68 1.75zm-1.63-.53a8 8 0 0 0 -1 .07 3.69 3.69 0 0 0 -.87.24 1.58 1.58 0 0 0 -.61.44 1 1 0 0 0 -.24.69 1.07 1.07 0 0 0 .13.51 1.14 1.14 0 0 0 .34.38 1.57 1.57 0 0 0 .45.22 1.79 1.79 0 0 0 .51.07 2.56 2.56 0 0 0 1.07-.19 1.93 1.93 0 0 0 .67-.5 1.8 1.8 0 0 0 .34-.71 3 3 0 0 0 .1-.79v-.43z"/><path d="m254.75 303.45h-1.75v4.15a.93.93 0 0 0 .23.66.88.88 0 0 0 .64.23 1.82 1.82 0 0 0 .46-.06 2.51 2.51 0 0 0 .46-.16l.07.75-.53.15a2.87 2.87 0 0 1 -.53.07 2.1 2.1 0 0 1 -.75-.13 1.43 1.43 0 0 1 -.5-.36 1.32 1.32 0 0 1 -.27-.51 2.2 2.2 0 0 1 -.09-.64v-4.15h-1.36v-.74h1.36v-1.84h.81v1.84h1.79z"/><path d="m259.54 302.71h.82v1.11a2 2 0 0 1 .47-.57 2.86 2.86 0 0 1 .62-.4 3.29 3.29 0 0 1 .69-.23 3.69 3.69 0 0 1 .72-.08 3.34 3.34 0 0 1 1.32.25 3.27 3.27 0 0 1 1.05.7 3.07 3.07 0 0 1 .68 1.06 3.86 3.86 0 0 1 0 2.68 3.16 3.16 0 0 1 -.68 1.06 3.27 3.27 0 0 1 -1.05.7 3.53 3.53 0 0 1 -1.32.25 3.69 3.69 0 0 1 -.72-.08 3.29 3.29 0 0 1 -.69-.23 2.86 2.86 0 0 1 -.62-.4 2.14 2.14 0 0 1 -.47-.57v4.25h-.82zm.74 3.18a2.46 2.46 0 0 0 .2 1 2.64 2.64 0 0 0 .56.83 2.77 2.77 0 0 0 .82.56 2.7 2.7 0 0 0 1 .2 2.63 2.63 0 0 0 1-.2 2.51 2.51 0 0 0 .79-.56 2.47 2.47 0 0 0 .49-.83 3.06 3.06 0 0 0 .17-1 3 3 0 0 0 -.17-1 2.37 2.37 0 0 0 -.49-.83 2.51 2.51 0 0 0 -.79-.56 2.46 2.46 0 0 0 -1-.2 2.52 2.52 0 0 0 -1 .2 2.77 2.77 0 0 0 -.82.56 2.53 2.53 0 0 0 -.56.83 2.43 2.43 0 0 0 -.2 1z"/><path d="m268 304.5c0-.12 0-.27 0-.44v-.51c0-.18 0-.34 0-.49s0-.27 0-.35h.81v.69a2.18 2.18 0 0 0 0 .42 2.85 2.85 0 0 1 .8-.92 1.93 1.93 0 0 1 1.19-.36h.24l.23.05-.09.81a1.18 1.18 0 0 0 -.31-.05 2.32 2.32 0 0 0 -.92.17 1.68 1.68 0 0 0 -.63.48 1.9 1.9 0 0 0 -.38.7 3.17 3.17 0 0 0 -.12.88v3.47h-.82z"/><path d="m271.91 305.89a3.44 3.44 0 0 1 .25-1.34 3 3 0 0 1 1.72-1.76 3.64 3.64 0 0 1 2.65 0 3.13 3.13 0 0 1 1 .7 3.07 3.07 0 0 1 .68 1.06 3.72 3.72 0 0 1 0 2.68 3.16 3.16 0 0 1 -.68 1.06 3.13 3.13 0 0 1 -1 .7 3.64 3.64 0 0 1 -2.65 0 3.07 3.07 0 0 1 -1.05-.7 3.14 3.14 0 0 1 -.67-1.06 3.44 3.44 0 0 1 -.25-1.34zm.82 0a2.82 2.82 0 0 0 .17 1 2.31 2.31 0 0 0 .49.83 2.51 2.51 0 0 0 .79.56 2.59 2.59 0 0 0 1 .2 2.66 2.66 0 0 0 1-.2 2.59 2.59 0 0 0 .78-.56 2.31 2.31 0 0 0 .49-.83 2.82 2.82 0 0 0 .17-1 2.78 2.78 0 0 0 -.17-1 2.23 2.23 0 0 0 -.49-.83 2.59 2.59 0 0 0 -.78-.56 2.49 2.49 0 0 0 -1-.2 2.43 2.43 0 0 0 -1 .2 2.51 2.51 0 0 0 -.79.56 2.23 2.23 0 0 0 -.49.83 2.78 2.78 0 0 0 -.17 1z"/><path d="m285.61 307.28v.43s0 .35 0 .52 0 .34 0 .49 0 .27 0 .35h-.82c0-.24 0-.47 0-.69a1.74 1.74 0 0 0 0-.42 2.29 2.29 0 0 1 -.81.9 2.38 2.38 0 0 1 -1.33.38 2.61 2.61 0 0 1 -1.2-.24 1.91 1.91 0 0 1 -.73-.61 2.16 2.16 0 0 1 -.36-.88 5.67 5.67 0 0 1 -.1-1v-3.79h.82v3.74a4.56 4.56 0 0 0 .06.75 2.15 2.15 0 0 0 .24.66 1.18 1.18 0 0 0 .48.46 1.62 1.62 0 0 0 .79.17 2.22 2.22 0 0 0 .85-.16 1.8 1.8 0 0 0 .69-.48 2.42 2.42 0 0 0 .46-.81 3.62 3.62 0 0 0 .17-1.15v-3.18h.81z"/><path d="m293.32 308a2.34 2.34 0 0 1 -.47.57 3.12 3.12 0 0 1 -.62.4 3.19 3.19 0 0 1 -.7.23 3.49 3.49 0 0 1 -2-.17 3.07 3.07 0 0 1 -1-.7 3.14 3.14 0 0 1 -.67-1.06 3.72 3.72 0 0 1 0-2.68 3 3 0 0 1 1.72-1.76 3.37 3.37 0 0 1 1.32-.25 3.53 3.53 0 0 1 .72.08 3.19 3.19 0 0 1 .7.23 3.12 3.12 0 0 1 .62.4 2.17 2.17 0 0 1 .47.57v-5.16h.81v10.41h-.81zm.08-2.07a2.6 2.6 0 0 0 -.2-1 2.53 2.53 0 0 0 -.56-.83 2.7 2.7 0 0 0 -.83-.56 2.75 2.75 0 0 0 -2.06 0 2.59 2.59 0 0 0 -.78.56 2.39 2.39 0 0 0 -.5.83 3 3 0 0 0 -.17 1 3.06 3.06 0 0 0 .17 1 2.49 2.49 0 0 0 .5.83 2.59 2.59 0 0 0 .78.56 2.75 2.75 0 0 0 2.06 0 2.7 2.7 0 0 0 .83-.56 2.57 2.57 0 0 0 .76-1.84z"/><path d="m99.82 361.24c0-.12 0-.26 0-.43s0-.35 0-.52 0-.34 0-.49 0-.27 0-.35h.81v.69a2.83 2.83 0 0 0 0 .43 2.36 2.36 0 0 1 2.14-1.29 2.61 2.61 0 0 1 1.2.24 2.06 2.06 0 0 1 .72.61 2.32 2.32 0 0 1 .37.88 4.9 4.9 0 0 1 .1 1v3.78h-.81v-3.74a4.54 4.54 0 0 0 -.07-.75 2.15 2.15 0 0 0 -.24-.66 1.3 1.3 0 0 0 -.47-.46 1.69 1.69 0 0 0 -.8-.17 2.17 2.17 0 0 0 -.84.16 1.66 1.66 0 0 0 -.69.48 2.2 2.2 0 0 0 -.46.81 3.36 3.36 0 0 0 -.17 1.15v3.18h-.82z"/><path d="m112.88 364.62a2.71 2.71 0 0 1 -1.17 1 3.69 3.69 0 0 1 -1.54.32 3.24 3.24 0 0 1 -1.3-.25 3 3 0 0 1 -1-.69 3.11 3.11 0 0 1 -.64-1.07 3.86 3.86 0 0 1 -.23-1.35 3.73 3.73 0 0 1 .23-1.32 3.25 3.25 0 0 1 .65-1.06 3 3 0 0 1 1-.7 3.05 3.05 0 0 1 1.26-.26 3 3 0 0 1 1.27.26 2.74 2.74 0 0 1 1.48 1.63 3.17 3.17 0 0 1 .19 1.09v.58h-5.25a2.78 2.78 0 0 0 .1.67 2.46 2.46 0 0 0 .37.79 2.23 2.23 0 0 0 .73.66 2.25 2.25 0 0 0 1.17.27 2.6 2.6 0 0 0 1.2-.3 2.24 2.24 0 0 0 .9-.82zm-.62-2.53a1.9 1.9 0 0 0 -.17-.79 2.18 2.18 0 0 0 -.46-.66 2.06 2.06 0 0 0 -.69-.45 2.22 2.22 0 0 0 -.85-.16 2.06 2.06 0 0 0 -1.1.27 2.56 2.56 0 0 0 -.7.64 2.93 2.93 0 0 0 -.37.69 1.9 1.9 0 0 0 -.1.46z"/><path d="m120.19 364v.44s0 .34 0 .51 0 .34 0 .49 0 .27 0 .35h-.81c0-.24 0-.46 0-.69a2.55 2.55 0 0 0 0-.42 2.26 2.26 0 0 1 -.82.9 2.35 2.35 0 0 1 -1.32.38 2.61 2.61 0 0 1 -1.2-.24 1.87 1.87 0 0 1 -.74-.61 2.25 2.25 0 0 1 -.35-.87 4.9 4.9 0 0 1 -.1-1v-3.79h.81v3.75a4.76 4.76 0 0 0 .07.75 2.19 2.19 0 0 0 .24.65 1.22 1.22 0 0 0 .47.46 1.58 1.58 0 0 0 .8.17 2.36 2.36 0 0 0 .84-.15 1.78 1.78 0 0 0 .69-.49 2.12 2.12 0 0 0 .46-.81 3.32 3.32 0 0 0 .17-1.15v-3.18h.82z"/><path d="m125.48 360.19h-1.79v4.15a.93.93 0 0 0 .23.66.85.85 0 0 0 .64.23 2 2 0 0 0 .47-.06 2.18 2.18 0 0 0 .45-.16l.07.75-.53.15a2.15 2.15 0 0 1 -.53.07 1.85 1.85 0 0 1 -.74-.13 1.35 1.35 0 0 1 -.5-.35 1.38 1.38 0 0 1 -.25-.5 2.2 2.2 0 0 1 -.09-.64v-4.15h-1.35v-.74h1.35v-1.83h.81v1.83h1.79z"/><path d="m126.93 361.24c0-.12 0-.26 0-.43s0-.35 0-.52 0-.34 0-.49 0-.27 0-.35h.82v.69a1.91 1.91 0 0 0 0 .43 2.9 2.9 0 0 1 .8-.93 2 2 0 0 1 1.19-.36h.24.24l-.1.82a.89.89 0 0 0 -.31-.06 2.27 2.27 0 0 0 -.91.17 1.83 1.83 0 0 0 -.64.48 1.93 1.93 0 0 0 -.37.71 3 3 0 0 0 -.13.87v3.47h-.81z"/><path d="m136.31 363.14v.86.69s0 .41 0 .59a4.87 4.87 0 0 0 .06.55h-.76a6.43 6.43 0 0 1 -.08-1 2.25 2.25 0 0 1 -.87.91 2.74 2.74 0 0 1 -1.32.29 3.58 3.58 0 0 1 -.8-.1 2 2 0 0 1 -.71-.34 1.77 1.77 0 0 1 -.5-.58 2 2 0 0 1 .16-2 2.38 2.38 0 0 1 .91-.65 4.15 4.15 0 0 1 1.13-.27c.4 0 .76-.06 1.07-.06h1v-.39a1.34 1.34 0 0 0 -.51-1.18 2.09 2.09 0 0 0 -1.26-.36 2.86 2.86 0 0 0 -1.91.71l-.47-.56a3 3 0 0 1 1.11-.67 4 4 0 0 1 1.27-.23 2.84 2.84 0 0 1 1.82.55 2.12 2.12 0 0 1 .68 1.75zm-1.63-.52a6.41 6.41 0 0 0 -1 .07 3.17 3.17 0 0 0 -.87.23 1.69 1.69 0 0 0 -.62.44 1.06 1.06 0 0 0 -.23.69 1 1 0 0 0 .13.52 1.31 1.31 0 0 0 .33.37 1.5 1.5 0 0 0 .46.22 1.68 1.68 0 0 0 .5.07 2.53 2.53 0 0 0 1.07-.19 1.74 1.74 0 0 0 .67-.5 1.71 1.71 0 0 0 .35-.7 3.58 3.58 0 0 0 .1-.8v-.42z"/><path d="m138.61 355.4h.81v10.41h-.81z"/><path d="m463.33 246h.92l2.09 5.46 2-5.46h.83l-2.47 6.36h-.84z"/><path d="m476 251.13a2.67 2.67 0 0 1 -1.17 1.05 3.69 3.69 0 0 1 -1.54.31 3.42 3.42 0 0 1 -1.3-.24 3 3 0 0 1 -1.64-1.76 3.92 3.92 0 0 1 -.23-1.36 3.81 3.81 0 0 1 .23-1.32 3.32 3.32 0 0 1 .65-1.05 3 3 0 0 1 1-.71 3.22 3.22 0 0 1 1.26-.25 3.16 3.16 0 0 1 1.27.25 2.76 2.76 0 0 1 .92.68 2.73 2.73 0 0 1 .56 1 3.11 3.11 0 0 1 .19 1.08v.58h-5.2a2.71 2.71 0 0 0 .1.67 2.37 2.37 0 0 0 .37.79 2.23 2.23 0 0 0 .73.66 2.16 2.16 0 0 0 1.17.28 2.6 2.6 0 0 0 1.2-.3 2.19 2.19 0 0 0 .9-.83zm-.62-2.52a2 2 0 0 0 -.17-.8 2.13 2.13 0 0 0 -.46-.65 2.06 2.06 0 0 0 -.69-.45 2.22 2.22 0 0 0 -.85-.17 2.06 2.06 0 0 0 -1.1.28 2.39 2.39 0 0 0 -.7.63 2.8 2.8 0 0 0 -.37.7 1.81 1.81 0 0 0 -.1.46z"/><path d="m478 247.76c0-.12 0-.27 0-.44s0-.34 0-.51 0-.34 0-.49 0-.27 0-.35h.81v.68a2.32 2.32 0 0 0 0 .43 2.75 2.75 0 0 1 .8-.92 1.93 1.93 0 0 1 1.19-.36h.24l.23.05-.09.81a.87.87 0 0 0 -.31-.05 2.16 2.16 0 0 0 -.92.17 1.66 1.66 0 0 0 -.63.47 2 2 0 0 0 -.38.71 3.12 3.12 0 0 0 -.12.88v3.47h-.82z"/><path d="m484.29 254.3a2.39 2.39 0 0 1 -.64 1 1.61 1.61 0 0 1 -1.08.35 2.83 2.83 0 0 1 -.41 0 2.74 2.74 0 0 1 -.39-.09l.08-.77.36.1a1.57 1.57 0 0 0 .37 0 .71.71 0 0 0 .39-.1 1 1 0 0 0 .29-.24 2.39 2.39 0 0 0 .21-.34c.06-.13.11-.25.16-.38l.57-1.47-2.55-6.36h.91l2.07 5.35 2-5.35h.86z"/><path d="m492.15 246h.85v1.11a2 2 0 0 1 .47-.57 3.12 3.12 0 0 1 .62-.4 2.74 2.74 0 0 1 .7-.23 3.51 3.51 0 0 1 .71-.08 3.42 3.42 0 0 1 1.33.25 3.2 3.2 0 0 1 1 .69 3.27 3.27 0 0 1 .68 1.06 3.74 3.74 0 0 1 0 2.69 3.16 3.16 0 0 1 -.68 1.06 3.23 3.23 0 0 1 -1 .7 3.61 3.61 0 0 1 -1.33.24 3.49 3.49 0 0 1 -.71-.07 2.76 2.76 0 0 1 -.7-.24 2.43 2.43 0 0 1 -.62-.4 2 2 0 0 1 -.47-.57v4.26h-.81zm.73 3.18a2.67 2.67 0 0 0 .2 1 2.64 2.64 0 0 0 .56.83 2.57 2.57 0 0 0 .82.55 2.53 2.53 0 0 0 1 .21 2.43 2.43 0 0 0 1-.21 2.34 2.34 0 0 0 .79-.55 2.31 2.31 0 0 0 .49-.83 3.12 3.12 0 0 0 0-2 2.27 2.27 0 0 0 -.49-.82 2.36 2.36 0 0 0 -.79-.56 2.43 2.43 0 0 0 -1-.21 2.53 2.53 0 0 0 -1 .21 2.68 2.68 0 0 0 -1.38 1.38 2.69 2.69 0 0 0 -.2.97z"/><path d="m500.6 247.76c0-.12 0-.27 0-.44s0-.34 0-.51 0-.34 0-.49 0-.27 0-.35h.82v.68a1.85 1.85 0 0 0 0 .43 2.86 2.86 0 0 1 .8-.92 2 2 0 0 1 1.19-.36h.24l.24.05-.1.81a.87.87 0 0 0 -.31-.05 2.11 2.11 0 0 0 -.91.17 1.69 1.69 0 0 0 -.64.47 2 2 0 0 0 -.37.71 3.12 3.12 0 0 0 -.13.88v3.47h-.81z"/><path d="m504.52 249.15a3.68 3.68 0 0 1 .24-1.35 3.27 3.27 0 0 1 .68-1.06 3 3 0 0 1 1-.69 3.42 3.42 0 0 1 1.33-.25 3.34 3.34 0 0 1 1.32.25 3.1 3.1 0 0 1 1 .69 3.29 3.29 0 0 1 .69 1.06 3.89 3.89 0 0 1 0 2.69 3.19 3.19 0 0 1 -.69 1.06 3.13 3.13 0 0 1 -1 .7 3.52 3.52 0 0 1 -1.32.24 3.61 3.61 0 0 1 -1.33-.24 3 3 0 0 1 -1-.7 3.16 3.16 0 0 1 -.68-1.06 3.67 3.67 0 0 1 -.24-1.34zm.81 0a3.1 3.1 0 0 0 .17 1 2.47 2.47 0 0 0 .49.83 2.34 2.34 0 0 0 .79.55 2.63 2.63 0 0 0 2.06 0 2.2 2.2 0 0 0 .78-.55 2.33 2.33 0 0 0 .5-.83 3.12 3.12 0 0 0 0-2 2.29 2.29 0 0 0 -.5-.82 2.23 2.23 0 0 0 -.78-.56 2.63 2.63 0 0 0 -2.06 0 2.36 2.36 0 0 0 -.79.56 2.42 2.42 0 0 0 -.49.82 3.12 3.12 0 0 0 -.17 1z"/><path d="m518.21 250.54v.43s0 .34 0 .52 0 .34 0 .49 0 .27 0 .35h-.81c0-.24 0-.47 0-.69a2.44 2.44 0 0 0 0-.43 2.24 2.24 0 0 1 -.81.91 2.35 2.35 0 0 1 -1.33.37 2.65 2.65 0 0 1 -1.2-.23 2 2 0 0 1 -.73-.61 2.55 2.55 0 0 1 -.36-.88 5.69 5.69 0 0 1 -.09-1v-3.77h.81v3.74a3.67 3.67 0 0 0 .07.75 1.8 1.8 0 0 0 .24.66 1.3 1.3 0 0 0 .47.46 1.65 1.65 0 0 0 .79.17 2.22 2.22 0 0 0 .85-.16 1.66 1.66 0 0 0 .69-.48 2.45 2.45 0 0 0 .46-.81 3.62 3.62 0 0 0 .17-1.15v-3.18h.81z"/><path d="m525.92 251.21a2 2 0 0 1 -.47.57 2.43 2.43 0 0 1 -.62.4 2.82 2.82 0 0 1 -.69.24 3.65 3.65 0 0 1 -.72.07 3.61 3.61 0 0 1 -1.33-.24 3 3 0 0 1 -1-.7 3.16 3.16 0 0 1 -.68-1.06 3.89 3.89 0 0 1 0-2.69 3.27 3.27 0 0 1 .68-1.06 3 3 0 0 1 1-.69 3.42 3.42 0 0 1 1.33-.25 3.69 3.69 0 0 1 .72.08 2.8 2.8 0 0 1 .69.23 3.12 3.12 0 0 1 .62.4 2 2 0 0 1 .47.57v-5.16h.81v10.41h-.81zm.08-2.06a2.69 2.69 0 0 0 -.2-1 2.68 2.68 0 0 0 -1.38-1.38 2.53 2.53 0 0 0 -1-.21 2.46 2.46 0 0 0 -1 .21 2.36 2.36 0 0 0 -.79.56 2.42 2.42 0 0 0 -.49.82 3.12 3.12 0 0 0 0 2 2.47 2.47 0 0 0 .49.83 2.34 2.34 0 0 0 .79.55 2.46 2.46 0 0 0 1 .21 2.53 2.53 0 0 0 1-.21 2.57 2.57 0 0 0 .82-.55 2.64 2.64 0 0 0 .56-.83 2.67 2.67 0 0 0 .2-1z"/><path d="m241.17 468h5.06a6 6 0 0 1 2.28.38 4 4 0 0 1 1.41 1 3.3 3.3 0 0 1 .72 1.32 5.17 5.17 0 0 1 .2 1.42 5.05 5.05 0 0 1 -.2 1.41 3.27 3.27 0 0 1 -.72 1.33 4 4 0 0 1 -1.41 1 6 6 0 0 1 -2.28.38h-3.11v6.45h-2zm2 6.45h2.56a7.08 7.08 0 0 0 1.13-.1 3 3 0 0 0 1-.34 1.84 1.84 0 0 0 .7-.71 2.95 2.95 0 0 0 0-2.42 1.84 1.84 0 0 0 -.7-.71 3 3 0 0 0 -1-.34 7.08 7.08 0 0 0 -1.13-.1h-2.56z"/><path d="m253.22 468h9.29v1.86h-7.34v4.36h6.83v1.86h-6.83v4.69h7.7v1.86h-9.65z"/><path d="m265.64 468h5.06a5.87 5.87 0 0 1 2.27.38 4 4 0 0 1 1.42 1 3.56 3.56 0 0 1 .72 1.32 5.58 5.58 0 0 1 .2 1.42 3.84 3.84 0 0 1 -.24 1.35 4 4 0 0 1 -.7 1.18 4.11 4.11 0 0 1 -1.12.89 3.76 3.76 0 0 1 -1.48.44l4.09 6.68h-2.44l-3.66-6.45h-2.17v6.45h-1.95zm1.95 6.45h2.56a7.19 7.19 0 0 0 1.13-.1 2.83 2.83 0 0 0 1-.34 1.77 1.77 0 0 0 .7-.71 2.85 2.85 0 0 0 0-2.42 1.77 1.77 0 0 0 -.7-.71 2.83 2.83 0 0 0 -1-.34 7.19 7.19 0 0 0 -1.13-.1h-2.56z"/><path d="m288.07 471.2a4 4 0 0 0 -1.54-1.24 4.55 4.55 0 0 0 -1.93-.43 5.11 5.11 0 0 0 -2.21.46 5 5 0 0 0 -1.68 1.27 5.89 5.89 0 0 0 -1.09 1.89 6.86 6.86 0 0 0 -.39 2.33 6.38 6.38 0 0 0 .37 2.19 5.49 5.49 0 0 0 1 1.82 5.08 5.08 0 0 0 1.69 1.23 5.28 5.28 0 0 0 2.26.46 4.36 4.36 0 0 0 2.17-.52 4.73 4.73 0 0 0 1.59-1.44l1.64 1.26a7 7 0 0 1 -.57.65 5.86 5.86 0 0 1 -1.07.84 7.64 7.64 0 0 1 -1.62.75 6.9 6.9 0 0 1 -2.18.32 7 7 0 0 1 -3.08-.66 7.31 7.31 0 0 1 -2.34-1.74 7.53 7.53 0 0 1 -1.47-2.43 7.67 7.67 0 0 1 -.51-2.73 8.58 8.58 0 0 1 .55-3.13 7.2 7.2 0 0 1 1.53-2.48 6.76 6.76 0 0 1 2.37-1.62 7.75 7.75 0 0 1 3.05-.58 7.17 7.17 0 0 1 2.79.56 5.18 5.18 0 0 1 2.25 1.71z"/><path d="m292.36 468h9.29v1.86h-7.34v4.36h6.83v1.86h-6.83v4.69h7.69v1.86h-9.65z"/><path d="m304.78 468h2.56l7.92 12v-12h1.95v14.63h-2.48l-8-12v12h-2z"/><path d="m324 469.9h-4.63v-1.9h11.21v1.86h-4.63v12.77h-2z"/><path d="m335.26 468h1.74l6.15 14.63h-2.27l-1.45-3.62h-6.84l-1.43 3.62h-2.27zm3.49 9.28-2.68-6.72-2.72 6.72z"/><path d="m357.3 474.49v7.21a6.25 6.25 0 0 1 -1.19.57 12 12 0 0 1 -1.4.43 12.11 12.11 0 0 1 -2.85.34 8.17 8.17 0 0 1 -3.26-.62 7 7 0 0 1 -3.92-4.12 8.29 8.29 0 0 1 -.52-2.95 8 8 0 0 1 .56-3 7.4 7.4 0 0 1 1.54-2.44 7 7 0 0 1 2.37-1.62 7.51 7.51 0 0 1 3-.59 9 9 0 0 1 3.25.5 6 6 0 0 1 2.11 1.4l-1.38 1.51a5.05 5.05 0 0 0 -1.89-1.21 6.36 6.36 0 0 0 -2.09-.34 5.22 5.22 0 0 0 -2.24.46 5.27 5.27 0 0 0 -2.8 3.1 6.51 6.51 0 0 0 -.39 2.26 6 6 0 0 0 .43 2.31 5.47 5.47 0 0 0 2.94 3.08 5.6 5.6 0 0 0 2.22.44 9.5 9.5 0 0 0 2-.2 5.25 5.25 0 0 0 1.57-.57v-4.07h-3.19v-1.85z"/><path d="m360.86 468h9.29v1.86h-7.34v4.36h6.83v1.86h-6.83v4.69h7.7v1.86h-9.65z"/><path d="m546.52 247.21a1.69 1.69 0 0 1 .66-.31 3.13 3.13 0 0 1 .77-.1 2.86 2.86 0 0 1 2.72 1.82 3.26 3.26 0 0 1 .22 1.18 3.05 3.05 0 0 1 -.24 1.22 2.94 2.94 0 0 1 -.66 1 3.14 3.14 0 0 1 -1 .62 3.54 3.54 0 0 1 -2.51 0 3.14 3.14 0 0 1 -1-.62 2.94 2.94 0 0 1 -.66-1 3.05 3.05 0 0 1 -.24-1.22 3.4 3.4 0 0 1 .08-.73 4.64 4.64 0 0 1 .22-.66c.09-.2.18-.4.28-.58s.2-.36.3-.52l2.6-4.4h1zm1.24.3a2.2 2.2 0 0 0 -.88.18 2.31 2.31 0 0 0 -.71.49 2.44 2.44 0 0 0 -.48.73 2.24 2.24 0 0 0 -.17.89 2.52 2.52 0 0 0 .16.93 2.06 2.06 0 0 0 1.17 1.19 2.42 2.42 0 0 0 .91.16 2.47 2.47 0 0 0 .92-.16 2.15 2.15 0 0 0 .71-.47 2.07 2.07 0 0 0 .46-.72 2.52 2.52 0 0 0 .16-.93 2.24 2.24 0 0 0 -.17-.89 2.44 2.44 0 0 0 -.48-.73 2.36 2.36 0 0 0 -.72-.49 2.2 2.2 0 0 0 -.88-.18z"/><path d="m551.64 247.79c0-.35 0-.72.05-1.11a8.46 8.46 0 0 1 .17-1.14 6.59 6.59 0 0 1 .35-1.06 3.26 3.26 0 0 1 .58-.89 2.76 2.76 0 0 1 4 0 3.23 3.23 0 0 1 .57.89 5.74 5.74 0 0 1 .36 1.06 8.46 8.46 0 0 1 .17 1.14c0 .39.05.76.05 1.11s0 .73-.05 1.11a8.46 8.46 0 0 1 -.17 1.14 6 6 0 0 1 -.36 1.06 3.39 3.39 0 0 1 -.57.89 2.6 2.6 0 0 1 -.85.61 3.09 3.09 0 0 1 -2.34 0 2.6 2.6 0 0 1 -.85-.61 3.42 3.42 0 0 1 -.58-.89 6.93 6.93 0 0 1 -.35-1.06 8.46 8.46 0 0 1 -.17-1.14c.01-.38-.01-.75-.01-1.11zm.89 0v.84s.06.62.11.94a4.89 4.89 0 0 0 .24.93 3.4 3.4 0 0 0 .4.81 2 2 0 0 0 .62.56 1.93 1.93 0 0 0 1.75 0 2 2 0 0 0 .63-.56 3.4 3.4 0 0 0 .4-.81 4.89 4.89 0 0 0 .24-.93c0-.32.09-.63.11-.94s0-.59 0-.84 0-.53 0-.84-.06-.63-.11-.95a5.3 5.3 0 0 0 -.24-.93 3.15 3.15 0 0 0 -.4-.8 2 2 0 0 0 -.63-.57 1.75 1.75 0 0 0 -.87-.21 1.72 1.72 0 0 0 -.87.21 2 2 0 0 0 -.63.57 3.15 3.15 0 0 0 -.4.8 5.3 5.3 0 0 0 -.24.93c0 .32-.09.64-.11.95s0 .59 0 .84z"/><path d="m558.85 245.12a2.41 2.41 0 0 1 .18-.93 2.52 2.52 0 0 1 .5-.75 2.57 2.57 0 0 1 .74-.51 2.37 2.37 0 0 1 1.81 0 2.57 2.57 0 0 1 .74.51 2.35 2.35 0 0 1 .5.75 2.24 2.24 0 0 1 .19.93 2.2 2.2 0 0 1 -.19.92 2.35 2.35 0 0 1 -.5.75 2.57 2.57 0 0 1 -.74.51 2.37 2.37 0 0 1 -1.81 0 2.57 2.57 0 0 1 -.74-.51 2.52 2.52 0 0 1 -.5-.75 2.36 2.36 0 0 1 -.18-.92zm.73 0a1.53 1.53 0 0 0 .13.64 1.63 1.63 0 0 0 .34.51 1.78 1.78 0 0 0 .51.35 1.64 1.64 0 0 0 1.23 0 1.54 1.54 0 0 0 .51-.35 1.65 1.65 0 0 0 .35-.51 1.7 1.7 0 0 0 .13-.64 1.66 1.66 0 0 0 -.13-.64 1.7 1.7 0 0 0 -.35-.52 1.54 1.54 0 0 0 -.51-.35 1.64 1.64 0 0 0 -1.23 0 1.78 1.78 0 0 0 -.51.35 1.67 1.67 0 0 0 -.34.52 1.5 1.5 0 0 0 -.13.64zm7.07-2.68.62.39-6.19 10.3-.61-.38zm-2.45 8a2.32 2.32 0 0 1 .18-.92 2.29 2.29 0 0 1 .5-.75 2.23 2.23 0 0 1 .74-.51 2.12 2.12 0 0 1 .91-.19 2.15 2.15 0 0 1 .91.19 2.19 2.19 0 0 1 .73.51 2.35 2.35 0 0 1 0 3.34 2.19 2.19 0 0 1 -.73.51 2.15 2.15 0 0 1 -.91.19 2.12 2.12 0 0 1 -.91-.19 2.23 2.23 0 0 1 -.74-.51 2.29 2.29 0 0 1 -.5-.75 2.32 2.32 0 0 1 -.18-.9zm.73 0a1.53 1.53 0 0 0 .13.64 1.67 1.67 0 0 0 .34.52 1.75 1.75 0 0 0 .51.34 1.63 1.63 0 0 0 .62.12 1.54 1.54 0 0 0 .61-.12 1.52 1.52 0 0 0 .51-.34 1.64 1.64 0 0 0 0-2.32 1.52 1.52 0 0 0 -.51-.34 1.55 1.55 0 0 0 -.61-.13 1.64 1.64 0 0 0 -.62.13 1.75 1.75 0 0 0 -.51.34 1.67 1.67 0 0 0 -.34.52 1.53 1.53 0 0 0 -.13.66z"/><path d="m160.78 357.22-1.78 1.45-.5-.64 2.37-2h.69v9.75h-.81z"/><path d="m164.64 360.94a10.78 10.78 0 0 1 .05-1.11 8.46 8.46 0 0 1 .17-1.14 6.59 6.59 0 0 1 .35-1.06 3 3 0 0 1 .58-.89 2.76 2.76 0 0 1 4 0 3.23 3.23 0 0 1 .57.89 5.74 5.74 0 0 1 .36 1.06 8.46 8.46 0 0 1 .17 1.14v1.11s0 .73 0 1.11a8.46 8.46 0 0 1 -.17 1.14 6 6 0 0 1 -.36 1.06 3.39 3.39 0 0 1 -.57.89 2.6 2.6 0 0 1 -.85.61 3.09 3.09 0 0 1 -2.34 0 2.6 2.6 0 0 1 -.85-.61 3.18 3.18 0 0 1 -.58-.89 6.93 6.93 0 0 1 -.35-1.06 8.46 8.46 0 0 1 -.17-1.14 10.54 10.54 0 0 1 -.01-1.11zm.89 0v.85s.06.62.11.93a4.89 4.89 0 0 0 .24.93 3.06 3.06 0 0 0 .4.81 2 2 0 0 0 .62.56 1.71 1.71 0 0 0 .88.22 1.75 1.75 0 0 0 .87-.22 2 2 0 0 0 .63-.56 3.4 3.4 0 0 0 .4-.81 5.77 5.77 0 0 0 .24-.93c.05-.31.09-.63.11-.93s0-.59 0-.85 0-.53 0-.84-.06-.63-.11-1a6.36 6.36 0 0 0 -.24-.93 3.15 3.15 0 0 0 -.4-.8 2.15 2.15 0 0 0 -.63-.57 1.75 1.75 0 0 0 -.87-.21 1.7 1.7 0 0 0 -.87.21 2.15 2.15 0 0 0 -.63.57 2.86 2.86 0 0 0 -.4.8 5.3 5.3 0 0 0 -.24.93c0 .32-.09.64-.11 1s0 .59 0 .84z"/><path d="m171.85 358.27a2.41 2.41 0 0 1 .18-.93 2.52 2.52 0 0 1 .5-.75 2.57 2.57 0 0 1 .74-.51 2.37 2.37 0 0 1 1.81 0 2.57 2.57 0 0 1 .74.51 2.35 2.35 0 0 1 .5.75 2.24 2.24 0 0 1 .19.93 2.2 2.2 0 0 1 -.19.92 2.35 2.35 0 0 1 -.5.75 2.23 2.23 0 0 1 -.74.51 2.25 2.25 0 0 1 -1.81 0 2.23 2.23 0 0 1 -.74-.51 2.52 2.52 0 0 1 -.5-.75 2.36 2.36 0 0 1 -.18-.92zm.73 0a1.53 1.53 0 0 0 .13.64 1.63 1.63 0 0 0 .34.51 1.78 1.78 0 0 0 .51.35 1.64 1.64 0 0 0 1.23 0 1.54 1.54 0 0 0 .51-.35 1.65 1.65 0 0 0 .35-.51 1.7 1.7 0 0 0 .13-.64 1.66 1.66 0 0 0 -.13-.64 1.7 1.7 0 0 0 -.35-.52 1.54 1.54 0 0 0 -.51-.35 1.64 1.64 0 0 0 -1.23 0 1.78 1.78 0 0 0 -.51.35 1.67 1.67 0 0 0 -.34.52 1.5 1.5 0 0 0 -.13.64zm7.07-2.68.62.39-6.19 10.3-.61-.38zm-2.45 8a2.32 2.32 0 0 1 .18-.92 2.29 2.29 0 0 1 .5-.75 2.23 2.23 0 0 1 .74-.51 2.12 2.12 0 0 1 .91-.19 2.15 2.15 0 0 1 .91.19 2.29 2.29 0 0 1 .73.51 2.35 2.35 0 0 1 0 3.34 2.29 2.29 0 0 1 -.73.51 2.15 2.15 0 0 1 -.91.19 2.12 2.12 0 0 1 -.91-.19 2.23 2.23 0 0 1 -.74-.51 2.29 2.29 0 0 1 -.5-.75 2.32 2.32 0 0 1 -.18-.9zm.73 0a1.53 1.53 0 0 0 .13.64 1.67 1.67 0 0 0 .34.52 1.75 1.75 0 0 0 .51.34 1.64 1.64 0 0 0 .62.13 1.59 1.59 0 0 0 .61-.13 1.52 1.52 0 0 0 .51-.34 1.64 1.64 0 0 0 0-2.32 1.52 1.52 0 0 0 -.51-.34 1.59 1.59 0 0 0 -.61-.13 1.64 1.64 0 0 0 -.62.13 1.75 1.75 0 0 0 -.51.34 1.67 1.67 0 0 0 -.34.52 1.53 1.53 0 0 0 -.13.66z"/><path d="m314.16 307a2.5 2.5 0 0 0 .74 1.08 1.94 1.94 0 0 0 1.28.38 2.45 2.45 0 0 0 .93-.16 1.82 1.82 0 0 0 .67-.46 1.9 1.9 0 0 0 .4-.67 2.54 2.54 0 0 0 .14-.83 1.77 1.77 0 0 0 -.81-1.55 2.46 2.46 0 0 0 -.81-.35 4 4 0 0 0 -.91-.11h-.36v-.83h.41a3 3 0 0 0 .77-.1 2.24 2.24 0 0 0 .68-.32 1.66 1.66 0 0 0 .5-.58 1.68 1.68 0 0 0 .19-.84 1.79 1.79 0 0 0 -.48-1.29 1.68 1.68 0 0 0 -1.29-.5 1.92 1.92 0 0 0 -1.08.31 2.13 2.13 0 0 0 -.74.83l-.77-.44a2.43 2.43 0 0 1 1.07-1.1 3.33 3.33 0 0 1 1.52-.35 3.4 3.4 0 0 1 1 .16 2.56 2.56 0 0 1 .86.47 2.25 2.25 0 0 1 .57.78 2.67 2.67 0 0 1 .21 1.1 2.38 2.38 0 0 1 -.43 1.41 2.24 2.24 0 0 1 -1.27.85 2.19 2.19 0 0 1 .83.31 2.42 2.42 0 0 1 .64.55 2.5 2.5 0 0 1 .42.75 2.54 2.54 0 0 1 .15.88 3.24 3.24 0 0 1 -.18 1.09 2.44 2.44 0 0 1 -.56.89 2.72 2.72 0 0 1 -.92.6 3.69 3.69 0 0 1 -1.3.22 3.42 3.42 0 0 1 -1.84-.47 2.76 2.76 0 0 1 -1.13-1.45z"/><path d="m320.12 304.19c0-.34 0-.71.05-1.1a8.61 8.61 0 0 1 .17-1.15 6.3 6.3 0 0 1 .36-1.06 3.56 3.56 0 0 1 .57-.89 2.75 2.75 0 0 1 .85-.61 3.09 3.09 0 0 1 2.34 0 2.75 2.75 0 0 1 .85.61 3.3 3.3 0 0 1 .57.89 6.3 6.3 0 0 1 .36 1.06 8.61 8.61 0 0 1 .17 1.15 10.72 10.72 0 0 1 0 1.1 10.85 10.85 0 0 1 0 1.12 8.7 8.7 0 0 1 -.17 1.14 6.3 6.3 0 0 1 -.36 1.06 3.3 3.3 0 0 1 -.57.89 2.75 2.75 0 0 1 -.85.61 3.09 3.09 0 0 1 -2.34 0 2.75 2.75 0 0 1 -.85-.61 3.56 3.56 0 0 1 -.57-.89 6.3 6.3 0 0 1 -.36-1.06 8.7 8.7 0 0 1 -.17-1.14c-.03-.39-.05-.76-.05-1.12zm.89 0v.85s.06.62.11.94a6.36 6.36 0 0 0 .24.93 3.15 3.15 0 0 0 .4.8 2 2 0 0 0 .62.57 1.93 1.93 0 0 0 1.75 0 1.91 1.91 0 0 0 .63-.57 2.86 2.86 0 0 0 .4-.8 5.3 5.3 0 0 0 .24-.93c.05-.32.09-.63.11-.94s0-.59 0-.85 0-.52 0-.84-.06-.62-.11-.94a4.89 4.89 0 0 0 -.24-.93 2.86 2.86 0 0 0 -.4-.8 1.91 1.91 0 0 0 -.63-.57 1.91 1.91 0 0 0 -1.74 0 1.91 1.91 0 0 0 -.63.57 3.15 3.15 0 0 0 -.4.8 5.77 5.77 0 0 0 -.24.93c0 .32-.09.63-.11.94s-.01.65-.01.84z"/><path d="m327.33 301.52a2.32 2.32 0 0 1 .18-.92 2.29 2.29 0 0 1 .5-.75 2.23 2.23 0 0 1 .74-.51 2.28 2.28 0 0 1 .91-.19 2.32 2.32 0 0 1 .91.19 2.19 2.19 0 0 1 .73.51 2.41 2.41 0 0 1 .69 1.67 2.24 2.24 0 0 1 -.19.93 2.35 2.35 0 0 1 -.5.75 2.52 2.52 0 0 1 -.73.51 2.31 2.31 0 0 1 -.91.18 2.27 2.27 0 0 1 -.91-.18 2.57 2.57 0 0 1 -.74-.51 2.52 2.52 0 0 1 -.5-.75 2.41 2.41 0 0 1 -.18-.93zm.73 0a1.5 1.5 0 0 0 .13.64 1.67 1.67 0 0 0 .34.52 1.57 1.57 0 0 0 .51.34 1.47 1.47 0 0 0 .62.13 1.65 1.65 0 0 0 1.12-.47 1.7 1.7 0 0 0 .35-.52 1.66 1.66 0 0 0 .13-.64 1.7 1.7 0 0 0 -.13-.64 1.54 1.54 0 0 0 -.35-.51 1.41 1.41 0 0 0 -.51-.35 1.54 1.54 0 0 0 -.61-.12 1.63 1.63 0 0 0 -.62.12 1.6 1.6 0 0 0 -.51.35 1.64 1.64 0 0 0 -.47 1.15zm7.07-2.67.62.39-6.19 10.3-.61-.39zm-2.45 8a2.41 2.41 0 0 1 .18-.93 2.52 2.52 0 0 1 .5-.75 2.71 2.71 0 0 1 .74-.51 2.27 2.27 0 0 1 .91-.18 2.31 2.31 0 0 1 .91.18 2.71 2.71 0 0 1 .74.51 2.52 2.52 0 0 1 .5.75 2.41 2.41 0 0 1 .18.93 2.36 2.36 0 0 1 -.18.92 2.52 2.52 0 0 1 -.5.75 2.31 2.31 0 0 1 -1.65.7 2.28 2.28 0 0 1 -.91-.19 2.33 2.33 0 0 1 -.74-.51 2.52 2.52 0 0 1 -.5-.75 2.36 2.36 0 0 1 -.18-.9zm.73 0a1.53 1.53 0 0 0 .13.64 1.63 1.63 0 0 0 .34.51 1.6 1.6 0 0 0 .51.35 1.63 1.63 0 0 0 .62.12 1.54 1.54 0 0 0 .61-.12 1.41 1.41 0 0 0 .51-.35 1.65 1.65 0 0 0 .35-.51 1.7 1.7 0 0 0 .13-.64 1.66 1.66 0 0 0 -.13-.64 1.7 1.7 0 0 0 -.35-.52 1.65 1.65 0 0 0 -1.12-.47 1.47 1.47 0 0 0 -.62.13 1.57 1.57 0 0 0 -.51.34 1.67 1.67 0 0 0 -.34.52 1.5 1.5 0 0 0 -.13.66z"/><path d="m57.59 28.5h2.25l4.23 11.9 4.43-11.9h2.13l-5.63 14.62h-1.86z"/><path d="m75.94 28.5h1.77l6.15 14.62h-2.27l-1.45-3.61h-6.84l-1.43 3.61h-2.27zm3.49 9.27-2.68-6.71-2.75 6.71z"/><path d="m85.73 28.5h5.06a5.78 5.78 0 0 1 2.28.38 3.75 3.75 0 0 1 1.41 1 3.17 3.17 0 0 1 .72 1.32 5.14 5.14 0 0 1 .21 1.42 3.85 3.85 0 0 1 -.25 1.35 3.73 3.73 0 0 1 -.7 1.18 4 4 0 0 1 -1.12.89 3.76 3.76 0 0 1 -1.47.44l4.13 6.64h-2.48l-3.66-6.44h-2.18v6.44h-2zm2 6.44h2.56a7.08 7.08 0 0 0 1.13-.09 3 3 0 0 0 1-.34 1.91 1.91 0 0 0 .7-.71 2.41 2.41 0 0 0 .26-1.21 2.39 2.39 0 0 0 -.26-1.21 1.84 1.84 0 0 0 -.7-.71 2.82 2.82 0 0 0 -1-.34 6.09 6.09 0 0 0 -1.13-.1h-2.61z"/><path d="m98.15 28.5h1.95v14.62h-1.95z"/><path d="m103.8 28.5h9.28v1.86h-7.33v4.35h6.83v1.86h-6.83v4.69h7.7v1.86h-9.65z"/><path d="m119.22 30.36h-4.63v-1.86h11.22v1.86h-4.64v12.76h-2z"/><path d="m131.27 36.88-5.44-8.38h2.5l3.92 6.42 4-6.42h2.38l-5.45 8.38v6.24h-1.95z"/><path d="m139.42 35.93a1.26 1.26 0 0 1 -.94-.4 1.35 1.35 0 0 1 0-1.92 1.26 1.26 0 0 1 .94-.4 1.29 1.29 0 0 1 1 .4 1.38 1.38 0 0 1 0 1.92 1.29 1.29 0 0 1 -1 .4zm-1.34 6a1.37 1.37 0 0 1 1.34-1.36 1.35 1.35 0 0 1 1.34 1.36 1.37 1.37 0 0 1 -1.34 1.37 1.38 1.38 0 0 1 -1.34-1.37z"/></g><path d="m161.67 28.5h4.45a9.48 9.48 0 0 1 3.17.46 6.94 6.94 0 0 1 2.16 1.19 5.87 5.87 0 0 1 1.37 1.6 7.78 7.78 0 0 1 1 3.14c0 .43.06.74.06.92s0 .49-.06.92a7.78 7.78 0 0 1 -1 3.14 5.87 5.87 0 0 1 -1.37 1.6 6.94 6.94 0 0 1 -2.16 1.19 9.48 9.48 0 0 1 -3.17.46h-4.45zm1.33 13.38h2.76a9.57 9.57 0 0 0 2.67-.36 6.17 6.17 0 0 0 2.15-1.1 5.23 5.23 0 0 0 1.42-1.89 7.24 7.24 0 0 0 0-5.44 5.23 5.23 0 0 0 -1.44-1.89 6.17 6.17 0 0 0 -2.15-1.1 9.57 9.57 0 0 0 -2.67-.36h-2.74z" fill="#ff7a20"/><path d="m181.32 28.5h1.38l6.06 14.62h-1.51l-1.56-3.88h-7.62l-1.63 3.88h-1.44zm.68 1.5-3.35 8h6.6z" fill="#ff7a20"/><path d="m190.83 28.5h3.78.77a7 7 0 0 1 1.06.12 6.79 6.79 0 0 1 1.16.33 3.21 3.21 0 0 1 1.05.66 3.46 3.46 0 0 1 .78 1.1 3.89 3.89 0 0 1 .3 1.61 3.8 3.8 0 0 1 -.35 1.73 3.33 3.33 0 0 1 -.9 1.11 3.78 3.78 0 0 1 -1.19.63 7.61 7.61 0 0 1 -1.24.29l4.19 7h-1.53l-4-6.94h-2.5v6.94h-1.34zm1.34 6.44h2.83a4.57 4.57 0 0 0 1.71-.27 2.74 2.74 0 0 0 1-.66 2.16 2.16 0 0 0 .5-.84 2.71 2.71 0 0 0 0-1.66 2.16 2.16 0 0 0 -.5-.84 2.75 2.75 0 0 0 -1-.67 4.81 4.81 0 0 0 -1.71-.26h-2.85z" fill="#ff7a20"/><path d="m202.88 28.5h3.78.77a7 7 0 0 1 1.06.12 6.79 6.79 0 0 1 1.16.33 3.21 3.21 0 0 1 1 .66 3.46 3.46 0 0 1 .78 1.1 3.89 3.89 0 0 1 .3 1.61 3.8 3.8 0 0 1 -.35 1.73 3.33 3.33 0 0 1 -.9 1.11 3.78 3.78 0 0 1 -1.19.63 7.61 7.61 0 0 1 -1.24.29l4.19 7h-1.53l-4-6.94h-2.5v6.94h-1.34zm1.34 6.44h2.85a4.57 4.57 0 0 0 1.71-.27 2.74 2.74 0 0 0 1-.66 2.16 2.16 0 0 0 .5-.84 2.71 2.71 0 0 0 0-1.66 2.16 2.16 0 0 0 -.5-.84 2.75 2.75 0 0 0 -1-.67 4.81 4.81 0 0 0 -1.71-.26h-2.85z" fill="#ff7a20"/><path d="m219.34 28.5h1.38l6.06 14.62h-1.51l-1.56-3.88h-7.62l-1.63 3.88h-1.4zm.66 1.5-3.35 8h6.6z" fill="#ff7a20"/><path d="m228.85 28.5h1.73l8.76 12.81v-12.81h1.34v14.62h-1.68l-8.76-12.81v12.81h-1.34z" fill="#ff7a20"/><path d="m256.53 42.17a9 9 0 0 1 -2.61 1 12.68 12.68 0 0 1 -2.76.3 7.76 7.76 0 0 1 -3-.57 6.79 6.79 0 0 1 -2.35-1.59 7.43 7.43 0 0 1 -1.53-2.44 9.08 9.08 0 0 1 0-6.17 7.49 7.49 0 0 1 1.53-2.43 7 7 0 0 1 2.35-1.6 7.76 7.76 0 0 1 3-.58 6.94 6.94 0 0 1 5.19 2l-1 1a4.38 4.38 0 0 0 -.8-.73 5.54 5.54 0 0 0 -1-.58 6.38 6.38 0 0 0 -1.17-.37 5.46 5.46 0 0 0 -1.2-.14 6.28 6.28 0 0 0 -2.53.5 5.77 5.77 0 0 0 -1.92 1.36 6.11 6.11 0 0 0 -1.22 2.05 7.89 7.89 0 0 0 0 5.08 6.11 6.11 0 0 0 1.22 2 5.63 5.63 0 0 0 1.92 1.36 6.28 6.28 0 0 0 2.53.5 12.46 12.46 0 0 0 2.18-.19 5.55 5.55 0 0 0 1.85-.68v-4.78h-3.46v-1.24h4.8z" fill="#ff7a20"/><path d="m260.47 28.5h1.34v14.62h-1.34z" fill="#ff7a20"/><path d="m270.16 28.5h1.39l6.05 14.62h-1.5l-1.57-3.88h-7.62l-1.62 3.88h-1.41zm.63 1.48-3.35 8h6.61z" fill="#ff7a20"/><path d="m59.56 61.78h5.06a6 6 0 0 1 2.28.38 4 4 0 0 1 1.41 1 3.53 3.53 0 0 1 .69 1.3 5.11 5.11 0 0 1 0 2.83 3.41 3.41 0 0 1 -.72 1.32 3.92 3.92 0 0 1 -1.41 1 5.78 5.78 0 0 1 -2.28.38h-3.08v6.45h-1.95zm1.95 6.45h2.56a6.09 6.09 0 0 0 1.13-.1 2.83 2.83 0 0 0 1-.34 1.8 1.8 0 0 0 .71-.71 2.5 2.5 0 0 0 .26-1.21 2.52 2.52 0 0 0 -.26-1.21 1.86 1.86 0 0 0 -.71-.71 3 3 0 0 0 -1-.34 7.08 7.08 0 0 0 -1.13-.09h-2.56z" fill="#fff"/><path d="m78.21 76.78a7.67 7.67 0 0 1 -3-.59 6.94 6.94 0 0 1 -2.37-1.62 7.59 7.59 0 0 1 -1.55-2.44 8.65 8.65 0 0 1 0-6.07 7.59 7.59 0 0 1 1.55-2.44 6.94 6.94 0 0 1 2.35-1.62 8 8 0 0 1 6 0 7 7 0 0 1 2.37 1.62 7.4 7.4 0 0 1 1.54 2.44 8.5 8.5 0 0 1 0 6.07 7.4 7.4 0 0 1 -1.54 2.44 7 7 0 0 1 -2.37 1.62 7.69 7.69 0 0 1 -2.98.59zm0-1.86a5.22 5.22 0 0 0 2.24-.46 5.27 5.27 0 0 0 2.8-3.1 6.77 6.77 0 0 0 0-4.53 5.27 5.27 0 0 0 -2.8-3.1 5.66 5.66 0 0 0 -4.47 0 5.47 5.47 0 0 0 -1.71 1.27 5.72 5.72 0 0 0 -1.1 1.85 6.94 6.94 0 0 0 0 4.53 5.72 5.72 0 0 0 1.1 1.85 5.47 5.47 0 0 0 1.73 1.23 5.2 5.2 0 0 0 2.21.46z" fill="#fff"/><path d="m88.52 61.78h5.06a5.87 5.87 0 0 1 2.27.38 3.87 3.87 0 0 1 1.41 1 3.42 3.42 0 0 1 .74 1.3 5.11 5.11 0 0 1 0 2.83 3.31 3.31 0 0 1 -.73 1.32 3.75 3.75 0 0 1 -1.41 1 5.69 5.69 0 0 1 -2.27.38h-3.12v6.45h-2zm2 6.45h2.48a6.17 6.17 0 0 0 1.13-.1 2.83 2.83 0 0 0 1-.34 1.77 1.77 0 0 0 .7-.71 2.38 2.38 0 0 0 .27-1.21 2.41 2.41 0 0 0 -.27-1.21 1.84 1.84 0 0 0 -.7-.71 3 3 0 0 0 -1-.34 7.17 7.17 0 0 0 -1.13-.09h-2.53z" fill="#fff"/><path d="m102.25 61.78v9a5.48 5.48 0 0 0 .19 1.41 4.06 4.06 0 0 0 .61 1.36 3.28 3.28 0 0 0 1.11 1 3.47 3.47 0 0 0 4.54-1 4.51 4.51 0 0 0 .61-1.36 5.93 5.93 0 0 0 .18-1.41v-9h2v9.28a6 6 0 0 1 -.43 2.32 5.46 5.46 0 0 1 -1.18 1.81 5.29 5.29 0 0 1 -1.76 1.18 5.9 5.9 0 0 1 -2.2.41 5.81 5.81 0 0 1 -2.19-.41 5.23 5.23 0 0 1 -1.77-1.18 5.46 5.46 0 0 1 -1.18-1.81 6.15 6.15 0 0 1 -.43-2.32v-9.28z" fill="#fff"/><path d="m114.87 61.78h1.95v12.77h6.61v1.86h-8.56z" fill="#fff"/><path d="m129.93 61.78h1.77l6.16 14.63h-2.28l-1.44-3.62h-6.85l-1.42 3.62h-2.28zm3.5 9.28-2.69-6.72-2.74 6.72z" fill="#fff"/><path d="m139.73 61.78h5.06a5.87 5.87 0 0 1 2.27.38 3.87 3.87 0 0 1 1.41 1 3.42 3.42 0 0 1 .73 1.33 5.51 5.51 0 0 1 .2 1.41 3.92 3.92 0 0 1 -3.54 3.87l4.14 6.64h-2.44l-3.71-6.41h-2.17v6.45h-2zm2 6.45h2.56a6.17 6.17 0 0 0 1.13-.1 2.83 2.83 0 0 0 1-.34 1.77 1.77 0 0 0 .7-.71 2.38 2.38 0 0 0 .27-1.21 2.41 2.41 0 0 0 -.27-1.21 1.84 1.84 0 0 0 -.7-.71 3 3 0 0 0 -1-.34 7.17 7.17 0 0 0 -1.13-.09h-2.56z" fill="#fff"/><path d="m152.14 61.78h2v14.63h-2z" fill="#fff"/><path d="m160.8 63.64h-4.63v-1.86h11.21v1.86h-4.63v12.77h-1.95z" fill="#fff"/><path d="m172.85 70.17-5.45-8.39h2.5l3.93 6.43 4-6.43h2.38l-5.45 8.39v6.24h-2z" fill="#fff"/><path d="m181 69.22a1.35 1.35 0 0 1 -1.34-1.36 1.34 1.34 0 0 1 .39-1 1.32 1.32 0 0 1 .95-.4 1.37 1.37 0 0 1 0 2.73zm-1.34 6a1.34 1.34 0 0 1 .39-1 1.29 1.29 0 0 1 .95-.4 1.26 1.26 0 0 1 .94.4 1.35 1.35 0 0 1 0 1.92 1.26 1.26 0 0 1 -.94.4 1.29 1.29 0 0 1 -.95-.4 1.34 1.34 0 0 1 -.39-.97z" fill="#fff"/><path d="m207.5 63.52-2.6 2.17-.76-1 3.56-3h1v14.72h-1.2z" fill="#fff"/><path d="m214.43 75.54a1 1 0 0 1 .28-.7 1 1 0 0 1 1.38 0 1 1 0 0 1 .29.7 1 1 0 0 1 -.29.7 1 1 0 0 1 -1.38 0 .94.94 0 0 1 -.28-.7z" fill="#fff"/><path d="m219.38 65.33a3.85 3.85 0 0 1 .31-1.54 3.53 3.53 0 0 1 .83-1.2 4 4 0 0 1 1.25-.78 4.46 4.46 0 0 1 3.11 0 3.89 3.89 0 0 1 1.25.78 3.53 3.53 0 0 1 .83 1.2 3.69 3.69 0 0 1 .31 1.54 3.31 3.31 0 0 1 -.16 1 3.79 3.79 0 0 1 -.46 1 3.51 3.51 0 0 1 -.72.77 2.8 2.8 0 0 1 -1 .48 3.13 3.13 0 0 1 1.21.5 3.83 3.83 0 0 1 .88.87 4 4 0 0 1 .53 1.12 4.11 4.11 0 0 1 .19 1.27 4.46 4.46 0 0 1 -.34 1.79 3.79 3.79 0 0 1 -.93 1.35 4.4 4.4 0 0 1 -1.41.87 5.14 5.14 0 0 1 -1.77.31 5.06 5.06 0 0 1 -1.77-.31 4.4 4.4 0 0 1 -1.41-.87 4 4 0 0 1 -.94-1.35 4.64 4.64 0 0 1 -.33-1.79 4.43 4.43 0 0 1 .18-1.27 3.7 3.7 0 0 1 1.41-2 3.19 3.19 0 0 1 1.21-.5 2.75 2.75 0 0 1 -1-.48 3.33 3.33 0 0 1 -.73-.77 4.14 4.14 0 0 1 -.45-1 3.32 3.32 0 0 1 -.08-.99zm.84 7a3.41 3.41 0 0 0 .22 1.24 3.19 3.19 0 0 0 .63 1 3 3 0 0 0 1 .69 2.93 2.93 0 0 0 1.28.26 3 3 0 0 0 2.25-1 3.19 3.19 0 0 0 .63-1 3.41 3.41 0 0 0 .23-1.24 3.26 3.26 0 0 0 -.25-1.31 3.09 3.09 0 0 0 -.66-1 3 3 0 0 0 -1-.65 3.3 3.3 0 0 0 -1.22-.22 3.27 3.27 0 0 0 -1.22.22 3 3 0 0 0 -1 .65 3.09 3.09 0 0 0 -.66 1 3.43 3.43 0 0 0 -.23 1.37zm.51-7a2.8 2.8 0 0 0 .19 1 2.77 2.77 0 0 0 .53.85 2.37 2.37 0 0 0 .81.57 2.47 2.47 0 0 0 1.07.22 2.65 2.65 0 0 0 1.88-.79 3 3 0 0 0 .53-.85 3 3 0 0 0 .19-1 2.64 2.64 0 0 0 -.74-1.95 2.55 2.55 0 0 0 -1.86-.73 2.52 2.52 0 0 0 -1.86.73 2.6 2.6 0 0 0 -.74 1.95z" fill="#fff"/><path d="m230 65.33a3.69 3.69 0 0 1 .31-1.54 3.53 3.53 0 0 1 .83-1.2 3.89 3.89 0 0 1 1.25-.78 4.46 4.46 0 0 1 3.11 0 3.89 3.89 0 0 1 1.25.78 3.53 3.53 0 0 1 .83 1.2 3.85 3.85 0 0 1 .31 1.54 3.32 3.32 0 0 1 -.17 1 3.76 3.76 0 0 1 -.45 1 3.51 3.51 0 0 1 -.72.77 2.89 2.89 0 0 1 -1 .48 3.19 3.19 0 0 1 1.21.5 3.7 3.7 0 0 1 1.41 2 4.43 4.43 0 0 1 .18 1.27 4.64 4.64 0 0 1 -.33 1.79 3.82 3.82 0 0 1 -.94 1.35 4.4 4.4 0 0 1 -1.41.87 5.18 5.18 0 0 1 -3.53 0 4.34 4.34 0 0 1 -1.42-.87 3.79 3.79 0 0 1 -.93-1.35 4.64 4.64 0 0 1 -.34-1.79 4.11 4.11 0 0 1 .19-1.27 3.75 3.75 0 0 1 .54-1.12 3.59 3.59 0 0 1 .87-.87 3.13 3.13 0 0 1 1.21-.5 2.89 2.89 0 0 1 -1-.48 3.51 3.51 0 0 1 -.72-.77 4.17 4.17 0 0 1 -.46-1 3.63 3.63 0 0 1 -.08-1.01zm.84 7a3.41 3.41 0 0 0 .22 1.24 3.19 3.19 0 0 0 .63 1 3.19 3.19 0 0 0 3.53.69 3 3 0 0 0 1-.69 3.19 3.19 0 0 0 .63-1 3.65 3.65 0 0 0 0-2.55 3.09 3.09 0 0 0 -.66-1 3 3 0 0 0 -1-.65 3.27 3.27 0 0 0 -1.22-.22 3.3 3.3 0 0 0 -1.22.22 3 3 0 0 0 -1 .65 3.09 3.09 0 0 0 -.66 1 3.43 3.43 0 0 0 -.3 1.32zm.5-7a2.8 2.8 0 0 0 .2 1 2.74 2.74 0 0 0 .52.85 2.52 2.52 0 0 0 .82.57 2.45 2.45 0 0 0 1.06.22 2.52 2.52 0 0 0 1.06-.17 2.32 2.32 0 0 0 .82-.57 2.77 2.77 0 0 0 .53-.85 2.8 2.8 0 0 0 .2-1 2.61 2.61 0 0 0 -.75-1.95 2.52 2.52 0 0 0 -1.86-.73 2.55 2.55 0 0 0 -1.86.73 2.64 2.64 0 0 0 -.79 1.9z" fill="#fff"/><path d="m240 65.09a3.55 3.55 0 0 1 .27-1.39 3.76 3.76 0 0 1 .76-1.12 3.41 3.41 0 0 1 1.1-.77 3.47 3.47 0 0 1 2.73 0 3.41 3.41 0 0 1 1.1.77 3.76 3.76 0 0 1 .76 1.12 3.69 3.69 0 0 1 0 2.77 3.81 3.81 0 0 1 -.76 1.13 3.39 3.39 0 0 1 -1.1.76 3.47 3.47 0 0 1 -2.73 0 3.39 3.39 0 0 1 -1.1-.76 3.81 3.81 0 0 1 -.76-1.13 3.54 3.54 0 0 1 -.27-1.38zm1.1 0a2.38 2.38 0 0 0 .19 1 2.55 2.55 0 0 0 .52.77 2.39 2.39 0 0 0 .76.52 2.35 2.35 0 0 0 1.85 0 2.39 2.39 0 0 0 .76-.52 2.55 2.55 0 0 0 .52-.77 2.38 2.38 0 0 0 .19-1 2.32 2.32 0 0 0 -.19-1 2.48 2.48 0 0 0 -.52-.78 2.36 2.36 0 0 0 -3.37 0 2.48 2.48 0 0 0 -.52.78 2.32 2.32 0 0 0 -.24 1zm10.61-4 .93.58-9.34 15.44-.91-.58zm-3.71 12.01a3.54 3.54 0 0 1 .27-1.38 3.6 3.6 0 0 1 .75-1.13 3.54 3.54 0 0 1 1.11-.76 3.44 3.44 0 0 1 2.72 0 3.54 3.54 0 0 1 1.11.76 3.6 3.6 0 0 1 .75 1.13 3.57 3.57 0 0 1 0 2.77 3.63 3.63 0 0 1 -1.86 1.89 3.44 3.44 0 0 1 -2.72 0 3.54 3.54 0 0 1 -2.13-3.28zm1.09 0a2.32 2.32 0 0 0 .2 1 2.48 2.48 0 0 0 .52.78 2.41 2.41 0 0 0 2.61.52 2.51 2.51 0 0 0 .76-.52 2.48 2.48 0 0 0 .52-.78 2.32 2.32 0 0 0 .19-1 2.38 2.38 0 0 0 -.19-1 2.55 2.55 0 0 0 -.52-.77 2.51 2.51 0 0 0 -.76-.52 2.35 2.35 0 0 0 -1.85 0 2.39 2.39 0 0 0 -.76.52 2.55 2.55 0 0 0 -.52.77 2.39 2.39 0 0 0 -.22 1z" fill="#fff"/></svg>