<svg viewBox="0 0 599.02 514.27" xmlns="http://www.w3.org/2000/svg"><rect fill="#191919" height="513.52" rx="12" width="598.27" x=".38" y=".38"/><rect fill="none" height="513.52" rx="12" stroke="#fff" stroke-miterlimit="1.18" stroke-width=".75" width="598.27" x=".38" y=".38"/><path d="m32 362v-2h12.75v-6.71h1.86v8.71z" fill="#fff"/><path d="m32 351.22v-9.44h1.86v7.46h4.34v-6.94h1.86v6.94h4.69v-7.83h1.86v9.81z" fill="#fff"/><path d="m32 340.6v-2.29l11.9-4.3-11.9-4.5v-2.17l14.63 5.76v1.9z" fill="#fff"/><path d="m32 325.58v-9.44h1.86v7.46h4.34v-6.94h1.86v6.94h4.69v-7.83h1.86v9.81z" fill="#fff"/><path d="m32 313v-2h12.75v-6.72h1.86v8.72z" fill="#fff"/><path d="m47 289.78a7.94 7.94 0 0 1 -.59 3.08 7.11 7.11 0 0 1 -1.62 2.41 7.64 7.64 0 0 1 -2.44 1.57 8.5 8.5 0 0 1 -6.07 0 7.64 7.64 0 0 1 -2.44-1.57 7.11 7.11 0 0 1 -1.62-2.41 8.33 8.33 0 0 1 0-6.16 7.21 7.21 0 0 1 1.62-2.41 7.64 7.64 0 0 1 2.44-1.57 8.5 8.5 0 0 1 6.07 0 7.64 7.64 0 0 1 2.44 1.57 7.21 7.21 0 0 1 1.62 2.41 7.94 7.94 0 0 1 .59 3.08zm-1.86 0a5.31 5.31 0 0 0 -1.71-4 5.57 5.57 0 0 0 -1.85-1.11 6.61 6.61 0 0 0 -4.53 0 5.57 5.57 0 0 0 -1.85 1.11 5.49 5.49 0 0 0 0 8 5.57 5.57 0 0 0 1.8 1.12 6.61 6.61 0 0 0 4.53 0 5.57 5.57 0 0 0 1.85-1.11 5.31 5.31 0 0 0 1.71-4z" fill="#fff"/><path d="m32 279.31v-9.2h1.86v7.21h4.59v-6.71h1.86v6.71h6.32v2z" fill="#fff"/><path d="m32 261.71v-5.15a6.06 6.06 0 0 1 .38-2.31 4 4 0 0 1 1-1.44 3.29 3.29 0 0 1 1.33-.73 4.87 4.87 0 0 1 2.83 0 3.19 3.19 0 0 1 1.32.73 3.88 3.88 0 0 1 1 1.44 6.06 6.06 0 0 1 .38 2.31v3.16h6.45v2zm6.45-2v-2.6a6.3 6.3 0 0 0 -.1-1.15 2.94 2.94 0 0 0 -.34-1 1.8 1.8 0 0 0 -.71-.71 2.85 2.85 0 0 0 -2.42 0 1.86 1.86 0 0 0 -.71.71 3.17 3.17 0 0 0 -.34 1 7.33 7.33 0 0 0 -.09 1.15v2.6z" fill="#fff"/><path d="m32 249.45v-5.14a6.06 6.06 0 0 1 .38-2.31 4 4 0 0 1 1-1.44 3.29 3.29 0 0 1 1.33-.73 5.13 5.13 0 0 1 1.41-.21 3.86 3.86 0 0 1 2.53 1 4.06 4.06 0 0 1 .89 1.14 3.81 3.81 0 0 1 .44 1.49l6.68-4.15v2.48l-6.45 3.72v2.21h6.45v2zm6.45-2v-2.6a6.3 6.3 0 0 0 -.1-1.15 2.87 2.87 0 0 0 -.34-1 1.73 1.73 0 0 0 -.71-.71 2.85 2.85 0 0 0 -2.42 0 1.8 1.8 0 0 0 -.71.71 3.08 3.08 0 0 0 -.34 1 7.33 7.33 0 0 0 -.09 1.15v2.6z" fill="#fff"/><path d="m32 236.83v-2h14.61v2z" fill="#fff"/><path d="m32 231.42v-5.1a9.61 9.61 0 0 1 .35-2.72 7.61 7.61 0 0 1 .94-2 6 6 0 0 1 1.36-1.42 7.13 7.13 0 0 1 1.57-.9 8 8 0 0 1 1.61-.48 9 9 0 0 1 1.48-.14 7.23 7.23 0 0 1 2.72.52 6.9 6.9 0 0 1 2.34 1.52 7.74 7.74 0 0 1 1.63 2.49 9 9 0 0 1 .62 3.46v4.77zm12.77-2v-2.5a8.06 8.06 0 0 0 -.34-2.38 5.85 5.85 0 0 0 -1-2 4.93 4.93 0 0 0 -1.71-1.35 5.43 5.43 0 0 0 -2.39-.49 7.21 7.21 0 0 0 -1.64.22 5.18 5.18 0 0 0 -1.79.86 5.05 5.05 0 0 0 -1.43 1.75 6.21 6.21 0 0 0 -.59 2.89v3z" fill="#fff"/><path d="m32 215.78v-9.44h1.86v7.45h4.34v-6.94h1.86v6.94h4.69v-7.79h1.86v9.82z" fill="#fff"/><path d="m66 432.5c0-.55 0-1.13.08-1.75a12 12 0 0 1 .28-1.81 9.22 9.22 0 0 1 .57-1.68 5 5 0 0 1 .93-1.4 4.06 4.06 0 0 1 1.36-1 5.12 5.12 0 0 1 3.77 0 4.17 4.17 0 0 1 1.36 1 5 5 0 0 1 .93 1.4 9.2 9.2 0 0 1 .56 1.68 13.39 13.39 0 0 1 .29 1.81c0 .62.07 1.2.07 1.75s0 1.16-.07 1.77a13.5 13.5 0 0 1 -.29 1.8 9.36 9.36 0 0 1 -.56 1.67 5.23 5.23 0 0 1 -.93 1.41 4.17 4.17 0 0 1 -1.36 1 5.12 5.12 0 0 1 -3.77 0 4.06 4.06 0 0 1 -1.36-1 5.23 5.23 0 0 1 -.93-1.41 9.39 9.39 0 0 1 -.57-1.67 12 12 0 0 1 -.28-1.8c-.08-.61-.08-1.2-.08-1.77zm1.44 0v1.34a11.15 11.15 0 0 0 .17 1.49 9.33 9.33 0 0 0 .39 1.47 5.23 5.23 0 0 0 .65 1.27 3.19 3.19 0 0 0 1 .9 2.83 2.83 0 0 0 1.41.33 2.88 2.88 0 0 0 1.41-.33 3.19 3.19 0 0 0 1-.9 4.61 4.61 0 0 0 .65-1.27 9.37 9.37 0 0 0 .39-1.47c.08-.51.14-1 .17-1.49s0-.93 0-1.34 0-.83 0-1.33-.09-1-.17-1.49a9.37 9.37 0 0 0 -.39-1.47 4.61 4.61 0 0 0 -.65-1.27 3.19 3.19 0 0 0 -1-.9 2.88 2.88 0 0 0 -1.41-.34 2.84 2.84 0 0 0 -1.4.34 3.23 3.23 0 0 0 -1 .9 5.23 5.23 0 0 0 -.65 1.27 9.33 9.33 0 0 0 -.38 1.47 11 11 0 0 0 -.17 1.49c-.05.5-.07.94-.07 1.33z" fill="#fff"/><path d="m133.31 426h-6.37l-.06 4.9a3.32 3.32 0 0 1 1.09-.35 7.65 7.65 0 0 1 1.16-.09 4.77 4.77 0 0 1 2 .41 4.49 4.49 0 0 1 1.51 1.1 5 5 0 0 1 1 1.62 5.87 5.87 0 0 1 .34 2 5 5 0 0 1 -.45 2.18 4.6 4.6 0 0 1 -1.17 1.55 4.77 4.77 0 0 1 -1.59.91 5 5 0 0 1 -1.72.31 5.32 5.32 0 0 1 -2.84-.7 4.72 4.72 0 0 1 -1.78-1.92l1.35-.67a3.23 3.23 0 0 0 .54.82 3.82 3.82 0 0 0 .77.67 3.57 3.57 0 0 0 .94.46 3.2 3.2 0 0 0 1 .16 3.13 3.13 0 0 0 1.14-.23 3.78 3.78 0 0 0 1.13-.68 3.68 3.68 0 0 0 .87-1.16 3.57 3.57 0 0 0 .35-1.61 4.09 4.09 0 0 0 -.3-1.56 3.83 3.83 0 0 0 -3.58-2.45 4.67 4.67 0 0 0 -1.61.29 6.16 6.16 0 0 0 -1.44.76l.13-7.87h7.61z" fill="#fff"/><path d="m181.63 426.62-2.79 2.29-.8-1 3.81-3.12h1.11v15.43h-1.31z" fill="#fff"/><path d="m187.84 432.5c0-.55 0-1.13.08-1.75a13.38 13.38 0 0 1 .28-1.81 9.22 9.22 0 0 1 .57-1.68 5 5 0 0 1 .93-1.4 4.06 4.06 0 0 1 1.36-1 5.12 5.12 0 0 1 3.77 0 4.17 4.17 0 0 1 1.36 1 5 5 0 0 1 .93 1.4 9.2 9.2 0 0 1 .56 1.68 13.39 13.39 0 0 1 .29 1.81c.05.62.07 1.2.07 1.75s0 1.16-.07 1.77a13.5 13.5 0 0 1 -.29 1.8 9.36 9.36 0 0 1 -.56 1.67 5.23 5.23 0 0 1 -.93 1.41 4.17 4.17 0 0 1 -1.36 1 5.12 5.12 0 0 1 -3.77 0 4.06 4.06 0 0 1 -1.36-1 5.23 5.23 0 0 1 -.93-1.41 9.39 9.39 0 0 1 -.57-1.67 13.48 13.48 0 0 1 -.28-1.8c-.05-.61-.08-1.2-.08-1.77zm1.44 0c0 .41 0 .86.05 1.34a11.15 11.15 0 0 0 .17 1.49 9.33 9.33 0 0 0 .38 1.47 5.23 5.23 0 0 0 .65 1.27 3.19 3.19 0 0 0 1 .9 2.83 2.83 0 0 0 1.41.33 2.88 2.88 0 0 0 1.41-.33 3.19 3.19 0 0 0 1-.9 4.61 4.61 0 0 0 .65-1.27 9.37 9.37 0 0 0 .39-1.47c.08-.51.14-1 .17-1.49s0-.93 0-1.34 0-.83 0-1.33-.09-1-.17-1.49a9.37 9.37 0 0 0 -.39-1.47 4.61 4.61 0 0 0 -.65-1.27 3.19 3.19 0 0 0 -1-.9 2.88 2.88 0 0 0 -1.41-.34 2.84 2.84 0 0 0 -1.4.34 3.23 3.23 0 0 0 -1 .9 5.23 5.23 0 0 0 -.65 1.27 9.33 9.33 0 0 0 -.38 1.47 11 11 0 0 0 -.17 1.49c-.04.5-.06.94-.06 1.33z" fill="#fff"/><path d="m239.74 426.62-2.79 2.29-.8-1 3.81-3.12h1.11v15.43h-1.31z" fill="#fff"/><path d="m255.19 426h-6.36l-.06 4.9a3.32 3.32 0 0 1 1.09-.35 7.65 7.65 0 0 1 1.16-.09 4.77 4.77 0 0 1 2 .41 4.49 4.49 0 0 1 1.51 1.1 5 5 0 0 1 1 1.62 5.87 5.87 0 0 1 .34 2 5 5 0 0 1 -.45 2.18 4.6 4.6 0 0 1 -1.17 1.55 4.77 4.77 0 0 1 -1.59.91 5 5 0 0 1 -1.72.31 5.32 5.32 0 0 1 -2.84-.7 4.72 4.72 0 0 1 -1.78-1.92l1.35-.67a3.23 3.23 0 0 0 .54.82 3.82 3.82 0 0 0 .77.67 3.57 3.57 0 0 0 .94.46 3.2 3.2 0 0 0 1 .16 3 3 0 0 0 1.13-.23 3.59 3.59 0 0 0 2-1.84 3.57 3.57 0 0 0 .35-1.61 4.09 4.09 0 0 0 -.3-1.56 3.83 3.83 0 0 0 -3.58-2.45 4.67 4.67 0 0 0 -1.61.29 6.16 6.16 0 0 0 -1.44.76l.13-7.87h7.6z" fill="#fff"/><path d="m293.06 438.69 5.8-6.12q.39-.39.78-.84a8 8 0 0 0 .71-.94 4.94 4.94 0 0 0 .51-1 3.52 3.52 0 0 0 .2-1.18 2.66 2.66 0 0 0 -.87-2.11 3.22 3.22 0 0 0 -2.2-.77 3.07 3.07 0 0 0 -2 .7 3.22 3.22 0 0 0 -1.07 1.83l-1.52-.15a4.1 4.1 0 0 1 1.63-2.67 5.18 5.18 0 0 1 3.05-.88 5.31 5.31 0 0 1 1.7.27 4.52 4.52 0 0 1 1.42.77 3.82 3.82 0 0 1 1 1.24 3.68 3.68 0 0 1 .36 1.66 4.94 4.94 0 0 1 -.27 1.66 7.84 7.84 0 0 1 -.72 1.45 8.45 8.45 0 0 1 -1 1.29c-.38.41-.77.82-1.16 1.22l-4.82 5h8.11v1.18h-9.55z" fill="#fff"/><path d="m304.07 432.5c0-.55 0-1.13.07-1.75a12 12 0 0 1 .29-1.81 9.2 9.2 0 0 1 .56-1.68 5 5 0 0 1 .93-1.4 4.17 4.17 0 0 1 1.36-1 5.12 5.12 0 0 1 3.77 0 4.06 4.06 0 0 1 1.36 1 5 5 0 0 1 .93 1.4 9.22 9.22 0 0 1 .57 1.68 13.38 13.38 0 0 1 .28 1.81c.05.62.08 1.2.08 1.75s0 1.16-.08 1.77a13.48 13.48 0 0 1 -.28 1.8 9.39 9.39 0 0 1 -.57 1.67 5.23 5.23 0 0 1 -.93 1.41 4.06 4.06 0 0 1 -1.36 1 5.12 5.12 0 0 1 -3.77 0 4.17 4.17 0 0 1 -1.36-1 5.23 5.23 0 0 1 -.93-1.41 9.36 9.36 0 0 1 -.56-1.67 12.06 12.06 0 0 1 -.29-1.8c-.05-.61-.07-1.2-.07-1.77zm1.44 0v1.34s.09 1 .17 1.49a9.37 9.37 0 0 0 .39 1.47 4.61 4.61 0 0 0 .65 1.27 3.27 3.27 0 0 0 1 .9 3.18 3.18 0 0 0 2.82 0 3.09 3.09 0 0 0 1-.9 4.92 4.92 0 0 0 .66-1.27 9.33 9.33 0 0 0 .38-1.47 13.08 13.08 0 0 0 .17-1.49c0-.48.05-.93.05-1.34s0-.83-.05-1.33a12.83 12.83 0 0 0 -.17-1.49 9.33 9.33 0 0 0 -.38-1.47 4.92 4.92 0 0 0 -.66-1.27 3.09 3.09 0 0 0 -1-.9 3.07 3.07 0 0 0 -2.81 0 3.19 3.19 0 0 0 -1 .9 4.61 4.61 0 0 0 -.65 1.27 9.37 9.37 0 0 0 -.39 1.47c-.08.5-.14 1-.17 1.49s-.01.94-.01 1.33z" fill="#fff"/><path d="m351.17 438.69 5.8-6.12q.39-.39.78-.84a7 7 0 0 0 .71-.94 5.53 5.53 0 0 0 .52-1 3.52 3.52 0 0 0 .19-1.18 2.66 2.66 0 0 0 -.87-2.11 3.22 3.22 0 0 0 -2.2-.77 3.07 3.07 0 0 0 -2 .7 3.22 3.22 0 0 0 -1.07 1.83l-1.52-.15a4.14 4.14 0 0 1 1.63-2.67 5.2 5.2 0 0 1 3.05-.88 5.27 5.27 0 0 1 1.7.27 4.52 4.52 0 0 1 1.42.77 3.67 3.67 0 0 1 1.33 2.9 4.94 4.94 0 0 1 -.27 1.66 7.26 7.26 0 0 1 -.72 1.45 8.45 8.45 0 0 1 -1 1.29c-.38.41-.77.82-1.16 1.22l-4.82 5h8.11v1.18h-9.55z" fill="#fff"/><path d="m371.42 426h-6.36l-.07 4.9a3.32 3.32 0 0 1 1.09-.35 7.75 7.75 0 0 1 1.16-.09 4.77 4.77 0 0 1 2 .41 4.49 4.49 0 0 1 1.51 1.1 4.87 4.87 0 0 1 1 1.62 5.63 5.63 0 0 1 .34 2 5 5 0 0 1 -.45 2.18 4.45 4.45 0 0 1 -1.16 1.55 4.87 4.87 0 0 1 -1.59.91 5 5 0 0 1 -1.72.31 5.33 5.33 0 0 1 -2.85-.7 4.69 4.69 0 0 1 -1.77-1.92l1.35-.67a3.19 3.19 0 0 0 .53.82 4.12 4.12 0 0 0 .77.67 3.73 3.73 0 0 0 .94.46 3.31 3.31 0 0 0 1 .16 3.12 3.12 0 0 0 1.13-.23 3.78 3.78 0 0 0 1.13-.68 3.68 3.68 0 0 0 .87-1.16 3.44 3.44 0 0 0 .35-1.61 4.28 4.28 0 0 0 -.29-1.56 4 4 0 0 0 -.82-1.27 3.82 3.82 0 0 0 -2.77-1.18 4.67 4.67 0 0 0 -1.61.29 6.59 6.59 0 0 0 -1.44.76l.13-7.87h7.61z" fill="#fff"/><path d="m410.7 437a4 4 0 0 0 1.19 1.71 3.22 3.22 0 0 0 2.06.6 3.87 3.87 0 0 0 1.5-.26 2.77 2.77 0 0 0 1.08-.72 2.83 2.83 0 0 0 .64-1.07 3.7 3.7 0 0 0 .22-1.3 2.8 2.8 0 0 0 -.36-1.46 3 3 0 0 0 -.93-1 4.06 4.06 0 0 0 -1.31-.56 6.15 6.15 0 0 0 -1.47-.17h-.57v-1.31h.65a4.87 4.87 0 0 0 1.24-.17 3.13 3.13 0 0 0 1.11-.51 2.65 2.65 0 0 0 .79-.9 2.68 2.68 0 0 0 .31-1.34 2.71 2.71 0 0 0 -2.85-2.84 3.17 3.17 0 0 0 -1.72.49 3.47 3.47 0 0 0 -1.2 1.32l-1.24-.69a4 4 0 0 1 1.73-1.75 5.48 5.48 0 0 1 2.43-.54 5.34 5.34 0 0 1 1.66.25 4 4 0 0 1 1.37.74 3.58 3.58 0 0 1 .93 1.23 4.25 4.25 0 0 1 .34 1.74 3.77 3.77 0 0 1 -.7 2.24 3.66 3.66 0 0 1 -2 1.34 4 4 0 0 1 1.34.49 4.42 4.42 0 0 1 1 .88 4 4 0 0 1 .91 2.58 5.13 5.13 0 0 1 -.29 1.72 3.92 3.92 0 0 1 -.9 1.4 4.19 4.19 0 0 1 -1.49.95 5.79 5.79 0 0 1 -2.09.35 5.56 5.56 0 0 1 -2.95-.73 4.4 4.4 0 0 1 -1.82-2.3z" fill="#fff"/><path d="m420.29 432.5c0-.55 0-1.13.08-1.75a12 12 0 0 1 .28-1.81 9.22 9.22 0 0 1 .57-1.68 5.23 5.23 0 0 1 .92-1.4 4.11 4.11 0 0 1 1.37-1 4.5 4.5 0 0 1 1.88-.36 4.59 4.59 0 0 1 1.89.36 4.17 4.17 0 0 1 1.36 1 5 5 0 0 1 .92 1.4 9.22 9.22 0 0 1 .57 1.68 12 12 0 0 1 .28 1.81c0 .62.08 1.2.08 1.75s0 1.16-.08 1.77a12 12 0 0 1 -.28 1.8 9.39 9.39 0 0 1 -.57 1.67 5.2 5.2 0 0 1 -.92 1.41 4.17 4.17 0 0 1 -1.36 1 4.59 4.59 0 0 1 -1.89.36 4.5 4.5 0 0 1 -1.88-.36 4.11 4.11 0 0 1 -1.37-1 5.45 5.45 0 0 1 -.92-1.41 9.39 9.39 0 0 1 -.57-1.67 12 12 0 0 1 -.28-1.8c-.05-.61-.08-1.2-.08-1.77zm1.44 0v1.34a13.14 13.14 0 0 0 .18 1.49 8.36 8.36 0 0 0 .38 1.47 4.61 4.61 0 0 0 .65 1.27 3.27 3.27 0 0 0 1 .9 3.2 3.2 0 0 0 2.83 0 3.31 3.31 0 0 0 1-.9 4.9 4.9 0 0 0 .65-1.27 8.36 8.36 0 0 0 .38-1.47 13.14 13.14 0 0 0 .18-1.49c0-.48 0-.93 0-1.34s0-.83 0-1.33a12.87 12.87 0 0 0 -.18-1.49 8.36 8.36 0 0 0 -.38-1.47 4.9 4.9 0 0 0 -.65-1.27 3.31 3.31 0 0 0 -1-.9 2.88 2.88 0 0 0 -1.41-.34 2.82 2.82 0 0 0 -1.4.34 3.12 3.12 0 0 0 -1 .9 4.61 4.61 0 0 0 -.65 1.27 8.36 8.36 0 0 0 -.38 1.47 12.87 12.87 0 0 0 -.18 1.49c-.01.5-.02.94-.02 1.33z" fill="#fff"/><path d="m468.81 437a4.09 4.09 0 0 0 1.19 1.7 3.22 3.22 0 0 0 2.06.6 4 4 0 0 0 1.51-.26 2.81 2.81 0 0 0 1.07-.72 3 3 0 0 0 .65-1.07 3.94 3.94 0 0 0 .21-1.3 2.89 2.89 0 0 0 -.35-1.46 3.08 3.08 0 0 0 -.94-1 4.06 4.06 0 0 0 -1.31-.56 6.15 6.15 0 0 0 -1.47-.17h-.57v-1.31h.66a4.86 4.86 0 0 0 1.23-.17 3.13 3.13 0 0 0 1.11-.51 2.55 2.55 0 0 0 .79-.9 2.68 2.68 0 0 0 .31-1.34 2.82 2.82 0 0 0 -.77-2 2.78 2.78 0 0 0 -2.08-.8 3.2 3.2 0 0 0 -1.73.49 3.45 3.45 0 0 0 -1.19 1.32l-1.25-.69a3.93 3.93 0 0 1 1.74-1.75 5.42 5.42 0 0 1 2.43-.54 5.27 5.27 0 0 1 1.65.25 4 4 0 0 1 1.37.74 3.46 3.46 0 0 1 .93 1.23 4.09 4.09 0 0 1 .34 1.74 3.71 3.71 0 0 1 -.7 2.24 3.62 3.62 0 0 1 -2.05 1.34 3.9 3.9 0 0 1 1.34.49 4.22 4.22 0 0 1 1 .88 4 4 0 0 1 .91 2.58 5.13 5.13 0 0 1 -.29 1.72 4 4 0 0 1 -.89 1.4 4.24 4.24 0 0 1 -1.5.95 5.75 5.75 0 0 1 -2.09.35 5.56 5.56 0 0 1 -2.95-.73 4.4 4.4 0 0 1 -1.82-2.3z" fill="#fff"/><path d="m487.64 426h-6.36l-.07 4.9a3.38 3.38 0 0 1 1.1-.35 7.65 7.65 0 0 1 1.16-.09 4.77 4.77 0 0 1 2 .41 4.36 4.36 0 0 1 1.5 1.1 4.89 4.89 0 0 1 1 1.62 5.87 5.87 0 0 1 .34 2 5 5 0 0 1 -.45 2.18 4.6 4.6 0 0 1 -1.17 1.55 4.87 4.87 0 0 1 -1.59.91 5 5 0 0 1 -1.72.31 5.32 5.32 0 0 1 -2.84-.7 4.65 4.65 0 0 1 -1.78-1.92l1.35-.67a3.47 3.47 0 0 0 .53.82 4.18 4.18 0 0 0 .78.67 3.57 3.57 0 0 0 .94.46 3.2 3.2 0 0 0 1 .16 3 3 0 0 0 1.13-.23 3.71 3.71 0 0 0 1.14-.68 3.84 3.84 0 0 0 .87-1.16 3.57 3.57 0 0 0 .35-1.61 4.09 4.09 0 0 0 -.3-1.56 4 4 0 0 0 -.81-1.27 3.86 3.86 0 0 0 -2.77-1.18 4.63 4.63 0 0 0 -1.61.29 6.16 6.16 0 0 0 -1.44.76l.13-7.87h7.6z" fill="#fff"/><path d="m531.79 436.43h-6.67v-1.55l6.16-10.09h1.81v10.46h2.36v1.18h-2.36v3.79h-1.3zm0-10.2-5.45 9h5.5z" fill="#fff"/><path d="m536.51 432.5c0-.55 0-1.13.08-1.75a13.38 13.38 0 0 1 .28-1.81 9.22 9.22 0 0 1 .57-1.68 5 5 0 0 1 .93-1.4 4.06 4.06 0 0 1 1.36-1 5.12 5.12 0 0 1 3.77 0 4.17 4.17 0 0 1 1.36 1 5 5 0 0 1 .93 1.4 8.5 8.5 0 0 1 .56 1.68 12 12 0 0 1 .29 1.81c.05.62.07 1.2.07 1.75s0 1.16-.07 1.77a12.06 12.06 0 0 1 -.29 1.8 8.63 8.63 0 0 1 -.56 1.67 5.23 5.23 0 0 1 -.93 1.41 4.17 4.17 0 0 1 -1.36 1 5.12 5.12 0 0 1 -3.77 0 4.06 4.06 0 0 1 -1.36-1 5.23 5.23 0 0 1 -.93-1.41 9.39 9.39 0 0 1 -.57-1.67 13.48 13.48 0 0 1 -.28-1.8c-.05-.61-.08-1.2-.08-1.77zm1.44 0v1.34a13.08 13.08 0 0 0 .17 1.49 9.33 9.33 0 0 0 .38 1.47 4.92 4.92 0 0 0 .66 1.27 3.16 3.16 0 0 0 1 .9 2.83 2.83 0 0 0 1.41.33 2.88 2.88 0 0 0 1.43-.3 3.19 3.19 0 0 0 1-.9 4.92 4.92 0 0 0 .66-1.27 10.57 10.57 0 0 0 .38-1.47c.08-.51.14-1 .17-1.49s0-.93 0-1.34 0-.83 0-1.33-.09-1-.17-1.49a10.57 10.57 0 0 0 -.38-1.47 4.92 4.92 0 0 0 -.66-1.27 3.19 3.19 0 0 0 -1-.9 3.07 3.07 0 0 0 -2.81 0 3.09 3.09 0 0 0 -1 .9 4.92 4.92 0 0 0 -.66 1.27 9.33 9.33 0 0 0 -.38 1.47 12.83 12.83 0 0 0 -.17 1.49c.02.47.02.91.02 1.3z" fill="#fff"/><path d="m71.05 419.44h464.9" fill="none" stroke="#fff" stroke-miterlimit="10"/><path d="m71.05 419.44v-7.09" fill="none" stroke="#fff" stroke-miterlimit="10"/><path d="m129.16 419.44v-7.09" fill="none" stroke="#fff" stroke-miterlimit="10"/><path d="m187.28 419.44v-7.09" fill="none" stroke="#fff" stroke-miterlimit="10"/><path d="m245.39 419.44v-7.09" fill="none" stroke="#fff" stroke-miterlimit="10"/><path d="m303.5 419.44v-7.09" fill="none" stroke="#fff" stroke-miterlimit="10"/><path d="m361.61 419.44v-7.09" fill="none" stroke="#fff" stroke-miterlimit="10"/><path d="m419.72 419.44v-7.09" fill="none" stroke="#fff" stroke-miterlimit="10"/><path d="m477.84 419.44v-7.09" fill="none" stroke="#fff" stroke-miterlimit="10"/><path d="m535.95 419.44v-7.09" fill="none" stroke="#fff" stroke-miterlimit="10"/><path d="m71.05 419.44v-283.77" fill="none" stroke="#fff" stroke-miterlimit="10"/><path d="m71.05 277.55h11.63" fill="none" stroke="#fff" stroke-miterlimit="10"/><path d="m71.05 347.93h194.68v40.86h-194.68z" fill="#585a5c" stroke="#fff" stroke-miterlimit="10" stroke-width=".5"/><path d="m71.05 302.53h307.99v40.86h-307.99z" fill="#245b96" stroke="#fff" stroke-miterlimit="10" stroke-width=".5"/><path d="m71.05 257.12h464.9v40.86h-464.9z" fill="#14396c" stroke="#fff" stroke-miterlimit="10" stroke-width=".5"/><path d="m71.05 211.72h194.68v40.86h-194.68z" fill="#061f4b" stroke="#fff" stroke-miterlimit="10" stroke-width=".5"/><g fill="#fff"><path d="m329.44 323.3c0-.12 0-.27 0-.44s0-.34 0-.51 0-.34 0-.49 0-.27 0-.35h.81v.69a2.55 2.55 0 0 0 0 .42 2.16 2.16 0 0 1 .81-.9 2.36 2.36 0 0 1 1.33-.38 2.6 2.6 0 0 1 1.19.24 1.88 1.88 0 0 1 .72.61 2.27 2.27 0 0 1 .37.87 4.9 4.9 0 0 1 .1 1v3.79h-.77v-3.75a4.76 4.76 0 0 0 -.07-.75 2.19 2.19 0 0 0 -.24-.65 1.22 1.22 0 0 0 -.47-.46 1.57 1.57 0 0 0 -.79-.17 2.37 2.37 0 0 0 -.85.15 1.78 1.78 0 0 0 -.69.49 2.12 2.12 0 0 0 -.46.81 3.32 3.32 0 0 0 -.17 1.15v3.18h-.81z"/><path d="m342.49 326.67a2.67 2.67 0 0 1 -1.17 1.05 3.66 3.66 0 0 1 -1.54.32 3.33 3.33 0 0 1 -1.29-.25 3 3 0 0 1 -1-.7 3.07 3.07 0 0 1 -.64-1.06 3.9 3.9 0 0 1 -.23-1.35 3.61 3.61 0 0 1 .24-1.33 3.15 3.15 0 0 1 .65-1.05 3 3 0 0 1 1-.7 3.18 3.18 0 0 1 2.52 0 2.74 2.74 0 0 1 1.48 1.63 3.17 3.17 0 0 1 .19 1.09v.58h-5.25a2.71 2.71 0 0 0 .1.66 2.51 2.51 0 0 0 .37.8 2.47 2.47 0 0 0 .73.66 2.25 2.25 0 0 0 1.17.27 2.57 2.57 0 0 0 1.2-.3 2.19 2.19 0 0 0 .9-.83zm-.62-2.52a1.83 1.83 0 0 0 -.17-.8 2 2 0 0 0 -.46-.65 2.06 2.06 0 0 0 -.69-.45 2.22 2.22 0 0 0 -.85-.16 2.06 2.06 0 0 0 -1.1.27 2.53 2.53 0 0 0 -.7.63 2.59 2.59 0 0 0 -.36.7 1.63 1.63 0 0 0 -.11.46z"/><path d="m349.8 326.08v.43s0 .35 0 .52 0 .34 0 .49 0 .27 0 .35h-.81c0-.24 0-.47 0-.69a1.91 1.91 0 0 0 0-.43 2.36 2.36 0 0 1 -2.14 1.29 2.61 2.61 0 0 1 -1.2-.24 1.84 1.84 0 0 1 -.73-.61 2.16 2.16 0 0 1 -.36-.88 4.9 4.9 0 0 1 -.1-1v-3.78h.81v3.74a4.54 4.54 0 0 0 .07.75 2.15 2.15 0 0 0 .24.66 1.22 1.22 0 0 0 .47.46 1.69 1.69 0 0 0 .8.17 2.17 2.17 0 0 0 .84-.16 1.66 1.66 0 0 0 .69-.48 2.2 2.2 0 0 0 .46-.81 3.36 3.36 0 0 0 .17-1.15v-3.18h.82z"/><path d="m355.09 322.25h-1.78v4.15a.89.89 0 0 0 .23.66.85.85 0 0 0 .63.23 1.89 1.89 0 0 0 .47-.06 2.18 2.18 0 0 0 .45-.16l.07.75-.53.15a2.76 2.76 0 0 1 -.53.07 2.08 2.08 0 0 1 -.74-.13 1.27 1.27 0 0 1 -.5-.36 1.34 1.34 0 0 1 -.28-.51 2.2 2.2 0 0 1 -.09-.64v-4.15h-1.35v-.74h1.35v-1.83h.82v1.83h1.78z"/><path d="m356.54 323.3c0-.12 0-.27 0-.44s0-.34 0-.51 0-.34 0-.49 0-.27 0-.35h.82v.69a1.74 1.74 0 0 0 0 .42 3 3 0 0 1 .8-.92 2 2 0 0 1 1.19-.36h.24l.24.05-.1.81a1.18 1.18 0 0 0 -.31-.05 2.27 2.27 0 0 0 -.91.17 1.72 1.72 0 0 0 -.64.48 1.88 1.88 0 0 0 -.37.7 3.17 3.17 0 0 0 -.12.88v3.47h-.82z"/><path d="m365.92 325.2v.8.69s0 .41 0 .59a5.14 5.14 0 0 0 .06.55h-.76a6.53 6.53 0 0 1 -.08-1 2.32 2.32 0 0 1 -.87.91 2.74 2.74 0 0 1 -1.27.26 3.09 3.09 0 0 1 -.8-.11 2.2 2.2 0 0 1 -.71-.33 1.77 1.77 0 0 1 -.5-.58 2 2 0 0 1 .17-2 2.25 2.25 0 0 1 .9-.64 4.15 4.15 0 0 1 1.13-.27 8.8 8.8 0 0 1 1.07-.07h.95v-.38a1.38 1.38 0 0 0 -.5-1.19 2.2 2.2 0 0 0 -1.26-.35 2.84 2.84 0 0 0 -1.92.71l-.47-.56a2.83 2.83 0 0 1 1.11-.67 4 4 0 0 1 1.28-.23 2.77 2.77 0 0 1 1.81.55 2.11 2.11 0 0 1 .68 1.75zm-1.63-.52a8 8 0 0 0 -1 .06 3.69 3.69 0 0 0 -.87.24 1.69 1.69 0 0 0 -.62.44 1 1 0 0 0 -.23.69 1.07 1.07 0 0 0 .13.51 1.23 1.23 0 0 0 .33.38 1.78 1.78 0 0 0 .46.22 1.68 1.68 0 0 0 .5.07 2.5 2.5 0 0 0 1.07-.19 1.88 1.88 0 0 0 .68-.5 1.8 1.8 0 0 0 .34-.71 3.49 3.49 0 0 0 .1-.79v-.42z"/><path d="m368.22 317.46h.78v10.41h-.81z"/><path d="m426.27 280.54a1.74 1.74 0 0 0 .76.78 2.16 2.16 0 0 0 1.05.27 1.88 1.88 0 0 0 .52-.08 1.83 1.83 0 0 0 .46-.24 1.42 1.42 0 0 0 .33-.36.9.9 0 0 0 .13-.49.76.76 0 0 0 -.28-.66 2.07 2.07 0 0 0 -.68-.35 8.59 8.59 0 0 0 -.9-.21 3.56 3.56 0 0 1 -.89-.28 1.94 1.94 0 0 1 -.69-.51 1.46 1.46 0 0 1 -.27-.94 1.62 1.62 0 0 1 .19-.81 1.69 1.69 0 0 1 .49-.57 2.07 2.07 0 0 1 .68-.34 3 3 0 0 1 .78-.11 2.9 2.9 0 0 1 1.33.29 1.88 1.88 0 0 1 .87.91l-.73.44a1.66 1.66 0 0 0 -.57-.67 1.62 1.62 0 0 0 -.9-.23 1.9 1.9 0 0 0 -.46.07 1.62 1.62 0 0 0 -.42.19 1.08 1.08 0 0 0 -.32.32.76.76 0 0 0 -.13.44.74.74 0 0 0 .28.64 2.26 2.26 0 0 0 .68.32 8.7 8.7 0 0 0 .9.2 3.18 3.18 0 0 1 .89.27 1.77 1.77 0 0 1 .68.53 1.57 1.57 0 0 1 .28 1 1.91 1.91 0 0 1 -.18.86 1.78 1.78 0 0 1 -.5.62 2.28 2.28 0 0 1 -.73.37 3 3 0 0 1 -.85.12 3.41 3.41 0 0 1 -1.48-.31 2.3 2.3 0 0 1 -1-1z"/><path d="m431.67 279a3.49 3.49 0 0 1 .25-1.35 3.14 3.14 0 0 1 .67-1.06 2.91 2.91 0 0 1 1.05-.69 3.37 3.37 0 0 1 1.32-.25 3.42 3.42 0 0 1 1.33.25 3.05 3.05 0 0 1 1 .69 3.16 3.16 0 0 1 .68 1.06 3.74 3.74 0 0 1 0 2.69 3.16 3.16 0 0 1 -.68 1.06 3.05 3.05 0 0 1 -1 .69 3.42 3.42 0 0 1 -1.33.25 3.37 3.37 0 0 1 -1.32-.25 2.91 2.91 0 0 1 -1.05-.69 3.14 3.14 0 0 1 -.67-1.06 3.47 3.47 0 0 1 -.25-1.34zm.82 0a3.1 3.1 0 0 0 .16 1 2.44 2.44 0 0 0 .5.82 2.36 2.36 0 0 0 .79.56 2.61 2.61 0 0 0 2.05 0 2.36 2.36 0 0 0 .79-.56 2.27 2.27 0 0 0 .49-.82 3.12 3.12 0 0 0 0-2 2.27 2.27 0 0 0 -.49-.82 2.36 2.36 0 0 0 -.79-.56 2.61 2.61 0 0 0 -2.05 0 2.36 2.36 0 0 0 -.79.56 2.44 2.44 0 0 0 -.5.82 3.11 3.11 0 0 0 -.16 1z"/><path d="m440.07 277.59c0-.11 0-.26 0-.43s0-.34 0-.52 0-.33 0-.48 0-.27 0-.36h.82v.69a1.85 1.85 0 0 0 0 .43 2.23 2.23 0 0 1 .81-.9 2.38 2.38 0 0 1 1.33-.38 2.13 2.13 0 0 1 1.14.32 1.9 1.9 0 0 1 .75 1.06 2 2 0 0 1 .88-1 2.53 2.53 0 0 1 1.24-.33 2.68 2.68 0 0 1 1.19.23 1.94 1.94 0 0 1 .73.62 2.44 2.44 0 0 1 .37.87 5.69 5.69 0 0 1 .1 1v3.79h-.82v-3.75a4.56 4.56 0 0 0 -.06-.75 2.19 2.19 0 0 0 -.24-.65 1.25 1.25 0 0 0 -.47-.47 1.69 1.69 0 0 0 -.8-.17 1.73 1.73 0 0 0 -.93.22 1.59 1.59 0 0 0 -.58.54 2.29 2.29 0 0 0 -.3.72 3.14 3.14 0 0 0 -.08.73v3.58h-.82v-3.83a2.69 2.69 0 0 0 -.32-1.42 1.06 1.06 0 0 0 -1-.54 2.32 2.32 0 0 0 -.84.16 2 2 0 0 0 -.7.48 2.58 2.58 0 0 0 -.46.82 3.53 3.53 0 0 0 -.17 1.15v3.18h-.81z"/><path d="m457.14 281a2.85 2.85 0 0 1 -1.17 1 3.72 3.72 0 0 1 -1.54.31 3.21 3.21 0 0 1 -1.3-.25 2.8 2.8 0 0 1 -1-.69 2.92 2.92 0 0 1 -.64-1.06 3.92 3.92 0 0 1 -.23-1.36 3.73 3.73 0 0 1 .23-1.32 3.21 3.21 0 0 1 .65-1 3 3 0 0 1 2.25-1 3 3 0 0 1 1.27.25 2.8 2.8 0 0 1 1.48 1.64 3.11 3.11 0 0 1 .19 1.08v.58h-5.26a2.8 2.8 0 0 0 .11.67 2.19 2.19 0 0 0 .37.79 2.3 2.3 0 0 0 .72.66 2.2 2.2 0 0 0 1.17.28 2.61 2.61 0 0 0 1.21-.3 2.17 2.17 0 0 0 .89-.83zm-.62-2.52a1.94 1.94 0 0 0 -.17-.8 2 2 0 0 0 -.46-.65 2.29 2.29 0 0 0 -.69-.45 2.22 2.22 0 0 0 -.85-.17 2 2 0 0 0 -1.1.28 2.27 2.27 0 0 0 -.7.63 2.5 2.5 0 0 0 -.37.7 2 2 0 0 0 -.11.46z"/><path d="m458.27 275.8h.89l1.52 5.33 1.75-5.33h.77l1.86 5.33 1.47-5.33h.82l-1.85 6.37h-.84l-1.82-5.17-1.75 5.21h-.84z"/><path d="m468.68 271.75h.82v5.17a2.26 2.26 0 0 1 .82-.9 2.35 2.35 0 0 1 1.32-.38 2.76 2.76 0 0 1 1.2.23 2 2 0 0 1 .72.62 2.27 2.27 0 0 1 .37.87 5.69 5.69 0 0 1 .1 1v3.79h-.81v-3.75a4.54 4.54 0 0 0 -.07-.75 2.19 2.19 0 0 0 -.24-.65 1.25 1.25 0 0 0 -.47-.47 1.69 1.69 0 0 0 -.8-.17 2.37 2.37 0 0 0 -.84.16 1.87 1.87 0 0 0 -.69.48 2.25 2.25 0 0 0 -.46.82 3.28 3.28 0 0 0 -.17 1.15v3.18h-.82z"/><path d="m481.08 279.5v.84s0 .47 0 .68 0 .41 0 .6a5.43 5.43 0 0 0 .06.55h-.76a6.56 6.56 0 0 1 -.08-1 2.19 2.19 0 0 1 -.87.91 2.63 2.63 0 0 1 -1.32.29 3.08 3.08 0 0 1 -.8-.1 2.06 2.06 0 0 1 -.7-.33 1.72 1.72 0 0 1 -.51-.59 1.76 1.76 0 0 1 -.2-.86 1.68 1.68 0 0 1 .37-1.16 2.16 2.16 0 0 1 .9-.64 4.14 4.14 0 0 1 1.14-.28c.4 0 .75-.06 1.06-.06h1v-.38a1.37 1.37 0 0 0 -.5-1.19 2.13 2.13 0 0 0 -1.26-.36 2.81 2.81 0 0 0 -1.91.72l-.48-.57a2.93 2.93 0 0 1 1.11-.66 3.77 3.77 0 0 1 1.28-.23 2.83 2.83 0 0 1 1.81.54 2.14 2.14 0 0 1 .68 1.76zm-1.63-.53a8 8 0 0 0 -1 .07 3.69 3.69 0 0 0 -.87.23 1.71 1.71 0 0 0 -.62.45 1 1 0 0 0 -.23.68 1.08 1.08 0 0 0 .13.52 1.19 1.19 0 0 0 .33.37 1.5 1.5 0 0 0 .46.22 1.7 1.7 0 0 0 .51.08 2.73 2.73 0 0 0 1.07-.19 1.84 1.84 0 0 0 .67-.51 1.76 1.76 0 0 0 .34-.7 3 3 0 0 0 .1-.79v-.4z"/><path d="m486.31 276.55h-1.79v4.14a.9.9 0 0 0 .23.66.84.84 0 0 0 .64.24 1.82 1.82 0 0 0 .46-.06 3.57 3.57 0 0 0 .46-.16l.07.74a3.35 3.35 0 0 1 -.53.15 2.21 2.21 0 0 1 -.53.07 1.9 1.9 0 0 1 -.75-.13 1.41 1.41 0 0 1 -.5-.35 1.36 1.36 0 0 1 -.27-.52 2.15 2.15 0 0 1 -.09-.64v-4.14h-1.36v-.75h1.36v-1.8h.81v1.83h1.79z"/><path d="m491.1 275.8h.82v1.12a2.21 2.21 0 0 1 .48-.57 2.67 2.67 0 0 1 .61-.4 3.62 3.62 0 0 1 .7-.24 3.58 3.58 0 0 1 .72-.07 3.34 3.34 0 0 1 1.32.25 3 3 0 0 1 1 .69 3 3 0 0 1 .69 1.06 3.89 3.89 0 0 1 0 2.69 3 3 0 0 1 -.69 1.06 3 3 0 0 1 -1 .69 3.34 3.34 0 0 1 -1.32.25 3.58 3.58 0 0 1 -.72-.07 3.05 3.05 0 0 1 -.7-.24 2.67 2.67 0 0 1 -.61-.4 2.21 2.21 0 0 1 -.48-.57v4.26h-.82zm.74 3.19a2.5 2.5 0 0 0 .2 1 2.57 2.57 0 0 0 .55.82 2.64 2.64 0 0 0 .83.56 2.53 2.53 0 0 0 1 .21 2.46 2.46 0 0 0 1-.21 2.36 2.36 0 0 0 .79-.56 2.42 2.42 0 0 0 .49-.82 3.12 3.12 0 0 0 0-2 2.42 2.42 0 0 0 -.49-.82 2.36 2.36 0 0 0 -.79-.56 2.46 2.46 0 0 0 -1-.21 2.53 2.53 0 0 0 -1 .21 2.64 2.64 0 0 0 -.83.56 2.57 2.57 0 0 0 -.55.82 2.51 2.51 0 0 0 -.2 1.01z"/><path d="m499.56 277.59c0-.11 0-.26 0-.43s0-.34 0-.52 0-.33 0-.48 0-.27 0-.36h.81v.69a2.32 2.32 0 0 0 0 .43 2.64 2.64 0 0 1 .8-.92 1.93 1.93 0 0 1 1.19-.36h.23.24l-.09.81a.87.87 0 0 0 -.31 0 2.16 2.16 0 0 0 -.92.17 1.69 1.69 0 0 0 -.64.47 2.09 2.09 0 0 0 -.37.71 3.07 3.07 0 0 0 -.12.88v3.47h-.81z"/><path d="m503.47 279a3.49 3.49 0 0 1 .25-1.35 3.14 3.14 0 0 1 .67-1.06 2.91 2.91 0 0 1 1.05-.69 3.61 3.61 0 0 1 2.64 0 3 3 0 0 1 1.05.69 3.16 3.16 0 0 1 .68 1.06 3.74 3.74 0 0 1 0 2.69 3.16 3.16 0 0 1 -.68 1.06 3 3 0 0 1 -1.05.69 3.61 3.61 0 0 1 -2.64 0 2.91 2.91 0 0 1 -1.05-.69 3.14 3.14 0 0 1 -.67-1.06 3.47 3.47 0 0 1 -.25-1.34zm.81 0a3.1 3.1 0 0 0 .17 1 2.44 2.44 0 0 0 .5.82 2.32 2.32 0 0 0 .78.56 2.46 2.46 0 0 0 1 .21 2.43 2.43 0 0 0 1-.21 2.36 2.36 0 0 0 .79-.56 2.27 2.27 0 0 0 .49-.82 3.12 3.12 0 0 0 0-2 2.27 2.27 0 0 0 -.49-.82 2.36 2.36 0 0 0 -.79-.56 2.43 2.43 0 0 0 -1-.21 2.46 2.46 0 0 0 -1 .21 2.32 2.32 0 0 0 -.78.56 2.44 2.44 0 0 0 -.5.82 3.12 3.12 0 0 0 -.17 1z"/><path d="m517.17 280.38v.43s0 .34 0 .52 0 .33 0 .49 0 .26 0 .35h-.82c0-.24 0-.47 0-.69a1.91 1.91 0 0 0 0-.43 2.35 2.35 0 0 1 -2.14 1.28 2.76 2.76 0 0 1 -1.2-.23 1.93 1.93 0 0 1 -.73-.61 2.22 2.22 0 0 1 -.36-.88 4.9 4.9 0 0 1 -.1-1v-3.81h.82v3.75a4.56 4.56 0 0 0 .06.75 2.36 2.36 0 0 0 .24.66 1.3 1.3 0 0 0 .47.46 1.69 1.69 0 0 0 .8.17 2.13 2.13 0 0 0 .84-.16 1.87 1.87 0 0 0 .7-.48 2.64 2.64 0 0 0 .46-.81 3.62 3.62 0 0 0 .17-1.15v-3.19h.81z"/><path d="m524.88 281.05a2.21 2.21 0 0 1 -.48.57 2.47 2.47 0 0 1 -.61.4 2.9 2.9 0 0 1 -.7.24 3.51 3.51 0 0 1 -.72.07 3.34 3.34 0 0 1 -1.32-.25 2.91 2.91 0 0 1 -1-.69 3.33 3.33 0 0 1 -.68-1.06 3.89 3.89 0 0 1 0-2.69 3.33 3.33 0 0 1 .68-1.06 2.91 2.91 0 0 1 1-.69 3.34 3.34 0 0 1 1.32-.25 3.51 3.51 0 0 1 .72.07 3.4 3.4 0 0 1 .7.24 2.47 2.47 0 0 1 .61.4 2.21 2.21 0 0 1 .48.57v-5.17h.81v10.42h-.81zm.12-2.05a2.52 2.52 0 0 0 -.21-1 2.57 2.57 0 0 0 -.55-.82 2.64 2.64 0 0 0 -.83-.56 2.5 2.5 0 0 0 -1-.21 2.46 2.46 0 0 0 -1 .21 2.32 2.32 0 0 0 -.78.56 2.44 2.44 0 0 0 -.5.82 3.12 3.12 0 0 0 0 2 2.44 2.44 0 0 0 .5.82 2.32 2.32 0 0 0 .78.56 2.46 2.46 0 0 0 1 .21 2.5 2.5 0 0 0 1-.21 2.64 2.64 0 0 0 .83-.56 2.57 2.57 0 0 0 .55-.82 2.5 2.5 0 0 0 .21-1z"/><path d="m192 229.4h.92l2.09 5.47 2-5.47h.83l-2.47 6.37h-.84z"/><path d="m204.64 234.57a2.85 2.85 0 0 1 -1.17 1.05 3.72 3.72 0 0 1 -1.54.31 3.21 3.21 0 0 1 -1.3-.25 2.8 2.8 0 0 1 -1-.69 2.92 2.92 0 0 1 -.64-1.06 4 4 0 0 1 0-2.68 3.21 3.21 0 0 1 .65-1.05 3 3 0 0 1 2.25-1 3 3 0 0 1 1.27.25 2.8 2.8 0 0 1 1.48 1.64 3.11 3.11 0 0 1 .19 1.08v.58h-5.26a2.8 2.8 0 0 0 .11.67 2.19 2.19 0 0 0 .37.79 2.3 2.3 0 0 0 .72.66 2.18 2.18 0 0 0 1.17.28 2.61 2.61 0 0 0 1.21-.3 2.17 2.17 0 0 0 .89-.83zm-.62-2.52a1.94 1.94 0 0 0 -.17-.8 2 2 0 0 0 -.46-.65 2.29 2.29 0 0 0 -.69-.45 2.22 2.22 0 0 0 -.85-.17 2 2 0 0 0 -1.11.28 2.34 2.34 0 0 0 -.69.63 2.5 2.5 0 0 0 -.37.7 2 2 0 0 0 -.11.46z"/><path d="m206.65 231.19c0-.11 0-.26 0-.43s0-.34 0-.52 0-.33 0-.49 0-.26 0-.35h.81v.69a2.71 2.71 0 0 0 0 .43 2.86 2.86 0 0 1 .8-.92 2 2 0 0 1 1.2-.36h.23l.24.05-.09.81a1 1 0 0 0 -.32-.06 2.14 2.14 0 0 0 -.91.18 1.69 1.69 0 0 0 -.64.47 2.09 2.09 0 0 0 -.37.71 3.07 3.07 0 0 0 -.12.88v3.47h-.81z"/><path d="m212.92 237.74a2.39 2.39 0 0 1 -.64 1 1.57 1.57 0 0 1 -1.08.36 2.83 2.83 0 0 1 -.41 0 2.23 2.23 0 0 1 -.39-.09l.08-.77.36.1a1.5 1.5 0 0 0 .37.05.76.76 0 0 0 .39-.1.86.86 0 0 0 .29-.25 1.85 1.85 0 0 0 .21-.33 3 3 0 0 0 .15-.38l.57-1.48-2.54-6.39h.9l2.08 5.36 2-5.36h.87z"/><path d="m220.77 229.4h.82v1.12a2 2 0 0 1 .47-.57 2.73 2.73 0 0 1 .62-.4 2.82 2.82 0 0 1 .69-.24 3.65 3.65 0 0 1 .72-.07 3.34 3.34 0 0 1 1.32.25 3.09 3.09 0 0 1 1.05.69 3.16 3.16 0 0 1 .68 1.06 3.89 3.89 0 0 1 0 2.69 3.16 3.16 0 0 1 -.68 1.06 3.09 3.09 0 0 1 -1.05.69 3.34 3.34 0 0 1 -1.32.25 3.65 3.65 0 0 1 -.72-.07 2.82 2.82 0 0 1 -.69-.24 2.73 2.73 0 0 1 -.62-.4 2 2 0 0 1 -.47-.57v4.26h-.82zm.74 3.19a2.5 2.5 0 0 0 .2 1 2.57 2.57 0 0 0 .55.82 2.76 2.76 0 0 0 .83.56 2.53 2.53 0 0 0 1 .21 2.46 2.46 0 0 0 1-.21 2.36 2.36 0 0 0 .79-.56 2.42 2.42 0 0 0 .49-.82 3.12 3.12 0 0 0 0-2 2.42 2.42 0 0 0 -.49-.82 2.36 2.36 0 0 0 -.79-.56 2.46 2.46 0 0 0 -1-.21 2.53 2.53 0 0 0 -1 .21 2.76 2.76 0 0 0 -.83.56 2.57 2.57 0 0 0 -.55.82 2.51 2.51 0 0 0 -.2 1z"/><path d="m229.23 231.19c0-.11 0-.26 0-.43v-.52c0-.17 0-.33 0-.49s0-.26 0-.35h.77v.69a2.32 2.32 0 0 0 0 .43 2.75 2.75 0 0 1 .8-.92 1.93 1.93 0 0 1 1.19-.36h.24l.23.05-.09.81a.89.89 0 0 0 -.31-.06 2.19 2.19 0 0 0 -.92.18 1.58 1.58 0 0 0 -.63.47 1.94 1.94 0 0 0 -.38.71 3.07 3.07 0 0 0 -.12.88v3.47h-.81z"/><path d="m233.14 232.59a3.68 3.68 0 0 1 .25-1.35 3.16 3.16 0 0 1 .68-1.06 2.79 2.79 0 0 1 1-.69 3.64 3.64 0 0 1 2.65 0 3 3 0 0 1 1 .69 3.35 3.35 0 0 1 .69 1.06 3.89 3.89 0 0 1 0 2.69 3.35 3.35 0 0 1 -.69 1.06 3 3 0 0 1 -1 .69 3.64 3.64 0 0 1 -2.65 0 2.79 2.79 0 0 1 -1-.69 3.16 3.16 0 0 1 -.68-1.06 3.67 3.67 0 0 1 -.25-1.34zm.82 0a2.86 2.86 0 0 0 .17 1 2.27 2.27 0 0 0 .49.82 2.36 2.36 0 0 0 .79.56 2.43 2.43 0 0 0 1 .21 2.46 2.46 0 0 0 1-.21 2.43 2.43 0 0 0 .78-.56 2.27 2.27 0 0 0 .49-.82 3.12 3.12 0 0 0 0-2 2.27 2.27 0 0 0 -.49-.82 2.43 2.43 0 0 0 -.78-.56 2.46 2.46 0 0 0 -1-.21 2.43 2.43 0 0 0 -1 .21 2.36 2.36 0 0 0 -.79.56 2.27 2.27 0 0 0 -.49.82 2.88 2.88 0 0 0 -.13 1z"/><path d="m246.84 234v.43s0 .34 0 .52v.49.35h-.82c0-.24 0-.47 0-.69a1.91 1.91 0 0 0 0-.43 2.16 2.16 0 0 1 -.81.9 2.28 2.28 0 0 1 -1.33.38 2.76 2.76 0 0 1 -1.2-.23 2 2 0 0 1 -.73-.61 2.22 2.22 0 0 1 -.36-.88 5.69 5.69 0 0 1 -.09-1v-3.83h.81v3.75a3.67 3.67 0 0 0 .07.75 2.07 2.07 0 0 0 .23.66 1.33 1.33 0 0 0 .48.46 1.62 1.62 0 0 0 .79.17 2.22 2.22 0 0 0 .85-.16 2 2 0 0 0 .69-.48 2.64 2.64 0 0 0 .46-.81 3.62 3.62 0 0 0 .17-1.15v-3.19h.81z"/><path d="m254.55 234.65a2 2 0 0 1 -.47.57 3.05 3.05 0 0 1 -1.32.64 3.51 3.51 0 0 1 -.72.07 3.37 3.37 0 0 1 -1.32-.25 2.91 2.91 0 0 1 -1.05-.69 3.14 3.14 0 0 1 -.67-1.06 3.74 3.74 0 0 1 0-2.69 3.14 3.14 0 0 1 .67-1.06 2.91 2.91 0 0 1 1.05-.69 3.37 3.37 0 0 1 1.32-.25 3.51 3.51 0 0 1 .72.07 3.05 3.05 0 0 1 1.32.64 2 2 0 0 1 .47.57v-5.17h.81v10.42h-.81zm.08-2.06a2.69 2.69 0 0 0 -.2-1 2.68 2.68 0 0 0 -1.38-1.38 2.54 2.54 0 0 0 -1-.21 2.42 2.42 0 0 0 -1 .21 2.36 2.36 0 0 0 -.79.56 2.27 2.27 0 0 0 -.49.82 3.12 3.12 0 0 0 0 2 2.27 2.27 0 0 0 .49.82 2.36 2.36 0 0 0 .79.56 2.42 2.42 0 0 0 1 .21 2.54 2.54 0 0 0 1-.21 2.68 2.68 0 0 0 1.38-1.38 2.67 2.67 0 0 0 .2-1z"/><path d="m148.87 372a2 2 0 0 1 -.47.57 3.12 3.12 0 0 1 -.62.4 3.29 3.29 0 0 1 -.69.23 3.69 3.69 0 0 1 -.72.08 3.62 3.62 0 0 1 -1.37-.28 3 3 0 0 1 -1-.7 3.07 3.07 0 0 1 -.68-1.06 3.59 3.59 0 0 1 -.24-1.34 3.63 3.63 0 0 1 .24-1.34 3.16 3.16 0 0 1 .68-1.06 3 3 0 0 1 1-.7 3.62 3.62 0 0 1 1.33-.25 3.69 3.69 0 0 1 .72.08 3.29 3.29 0 0 1 .69.23 3.12 3.12 0 0 1 .62.4 2 2 0 0 1 .47.57v-5.16h.81v10.41h-.81zm.08-2.07a2.57 2.57 0 0 0 -.76-1.84 2.77 2.77 0 0 0 -.82-.56 2.7 2.7 0 0 0 -1-.2 2.59 2.59 0 0 0 -1 .2 2.51 2.51 0 0 0 -.79.56 2.47 2.47 0 0 0 -.49.83 2.82 2.82 0 0 0 -.17 1 2.78 2.78 0 0 0 .17 1 2.37 2.37 0 0 0 .49.83 2.51 2.51 0 0 0 .79.56 2.59 2.59 0 0 0 1 .2 2.7 2.7 0 0 0 1-.2 2.77 2.77 0 0 0 .82-.56 2.53 2.53 0 0 0 .56-.83 2.6 2.6 0 0 0 .25-1.04z"/><path d="m157.2 371.86a2.67 2.67 0 0 1 -1.17 1.05 3.69 3.69 0 0 1 -1.54.32 3.38 3.38 0 0 1 -1.3-.25 3 3 0 0 1 -1.64-1.76 4 4 0 0 1 0-2.68 3.32 3.32 0 0 1 .65-1.05 3 3 0 0 1 1-.7 3.05 3.05 0 0 1 1.26-.26 3 3 0 0 1 1.27.26 2.84 2.84 0 0 1 .92.67 2.73 2.73 0 0 1 .56 1 3.17 3.17 0 0 1 .19 1.09v.58h-5.25a2.85 2.85 0 0 0 .1.67 2.46 2.46 0 0 0 .37.79 2.56 2.56 0 0 0 .72.66 2.32 2.32 0 0 0 1.18.27 2.6 2.6 0 0 0 1.2-.3 2.19 2.19 0 0 0 .9-.83zm-.62-2.52a2 2 0 0 0 -.17-.8 2.26 2.26 0 0 0 -.46-.65 2.06 2.06 0 0 0 -.69-.45 2.22 2.22 0 0 0 -.85-.16 2.06 2.06 0 0 0 -1.1.27 2.42 2.42 0 0 0 -.7.64 2.93 2.93 0 0 0 -.37.69 1.9 1.9 0 0 0 -.1.46z"/><path d="m164.45 372.13a3 3 0 0 1 -1 .83 3 3 0 0 1 -1.26.27 3.62 3.62 0 0 1 -1.33-.25 3 3 0 0 1 -1-.7 3.07 3.07 0 0 1 -.68-1.06 3.59 3.59 0 0 1 -.24-1.34 3.63 3.63 0 0 1 .24-1.34 3.16 3.16 0 0 1 .68-1.06 3 3 0 0 1 1-.7 3.62 3.62 0 0 1 1.33-.25 2.93 2.93 0 0 1 1.28.29 3.56 3.56 0 0 1 1 .82l-.65.49a3.44 3.44 0 0 0 -.77-.63 1.91 1.91 0 0 0 -.91-.22 2.59 2.59 0 0 0 -1 .2 2.51 2.51 0 0 0 -.79.56 2.31 2.31 0 0 0 -.49.83 2.82 2.82 0 0 0 -.17 1 2.78 2.78 0 0 0 .17 1 2.23 2.23 0 0 0 .49.83 2.51 2.51 0 0 0 .79.56 2.59 2.59 0 0 0 1 .2 1.91 1.91 0 0 0 .94-.24 2.5 2.5 0 0 0 .74-.64z"/><path d="m165.86 362.65h.81v10.41h-.81z"/><path d="m168.92 364.18a.59.59 0 0 1 .18-.44.6.6 0 0 1 .86 0 .59.59 0 0 1 .18.44.6.6 0 0 1 -.18.44.6.6 0 0 1 -.86 0 .6.6 0 0 1 -.18-.44zm.2 2.52h.82v6.36h-.82z"/><path d="m172.24 368.49c0-.12 0-.26 0-.43s0-.35 0-.52 0-.34 0-.49 0-.27 0-.35h.76v.69a1.74 1.74 0 0 0 0 .42 2.29 2.29 0 0 1 .81-.9 2.36 2.36 0 0 1 1.33-.38 2.54 2.54 0 0 1 1.19.24 1.91 1.91 0 0 1 .73.61 2.24 2.24 0 0 1 .36.88 4.87 4.87 0 0 1 .1 1v3.79h-.81v-3.74a3.67 3.67 0 0 0 -.07-.75 1.91 1.91 0 0 0 -.23-.66 1.25 1.25 0 0 0 -.48-.46 1.52 1.52 0 0 0 -.79-.17 2.22 2.22 0 0 0 -.85.16 1.8 1.8 0 0 0 -.69.48 2.26 2.26 0 0 0 -.46.81 3.62 3.62 0 0 0 -.17 1.15v3.18h-.81z"/><path d="m185.3 371.86a2.78 2.78 0 0 1 -1.17 1.05 3.72 3.72 0 0 1 -1.54.32 3.38 3.38 0 0 1 -1.3-.25 3 3 0 0 1 -1-.7 3 3 0 0 1 -.65-1.06 4.1 4.1 0 0 1 0-2.68 3.15 3.15 0 0 1 .65-1.05 3 3 0 0 1 1-.7 3.05 3.05 0 0 1 1.26-.26 3 3 0 0 1 1.27.26 2.84 2.84 0 0 1 .92.67 2.89 2.89 0 0 1 .56 1 3.17 3.17 0 0 1 .19 1.09v.58h-5.26a3.5 3.5 0 0 0 .1.67 2.49 2.49 0 0 0 .38.79 2.56 2.56 0 0 0 .72.66 2.25 2.25 0 0 0 1.17.27 2.61 2.61 0 0 0 1.21-.3 2.11 2.11 0 0 0 .89-.83zm-.62-2.52a2 2 0 0 0 -.17-.8 2.47 2.47 0 0 0 -.46-.65 2.29 2.29 0 0 0 -.69-.45 2.22 2.22 0 0 0 -.85-.16 2.12 2.12 0 0 0 -1.11.27 2.51 2.51 0 0 0 -.69.64 2.34 2.34 0 0 0 -.37.69 2.1 2.1 0 0 0 -.11.46z"/><path d="m192.78 372a2.17 2.17 0 0 1 -.47.57 3.12 3.12 0 0 1 -.62.4 3.19 3.19 0 0 1 -.7.23 3.49 3.49 0 0 1 -2-.17 3 3 0 0 1 -1.72-1.76 3.4 3.4 0 0 1 -.25-1.34 3.44 3.44 0 0 1 .25-1.34 3.14 3.14 0 0 1 .67-1.06 3.07 3.07 0 0 1 1-.7 3.49 3.49 0 0 1 2-.17 3.19 3.19 0 0 1 .7.23 3.12 3.12 0 0 1 .62.4 2.17 2.17 0 0 1 .47.57v-5.16h.81v10.41h-.81zm.08-2.07a2.64 2.64 0 0 0 -.2-1 2.63 2.63 0 0 0 -1.39-1.39 2.66 2.66 0 0 0 -1-.2 2.63 2.63 0 0 0 -1 .2 2.59 2.59 0 0 0 -.78.56 2.49 2.49 0 0 0 -.5.83 3.06 3.06 0 0 0 -.17 1 3 3 0 0 0 .17 1 2.39 2.39 0 0 0 .5.83 2.59 2.59 0 0 0 .78.56 2.63 2.63 0 0 0 1 .2 2.66 2.66 0 0 0 1-.2 2.82 2.82 0 0 0 .83-.56 2.7 2.7 0 0 0 .56-.83 2.6 2.6 0 0 0 .2-1.05z"/><path d="m202.17 367.44h-1.79v4.15a.89.89 0 0 0 .23.66.82.82 0 0 0 .63.23 1.89 1.89 0 0 0 .47-.06 2.51 2.51 0 0 0 .46-.16l.06.75-.53.15a2.67 2.67 0 0 1 -.52.07 2.1 2.1 0 0 1 -.75-.13 1.44 1.44 0 0 1 -.5-.35 1.38 1.38 0 0 1 -.28-.52 2.2 2.2 0 0 1 -.09-.64v-4.15h-1.35v-.74h1.35v-1.83h.82v1.83h1.79z"/><path d="m203.26 369.88a3.44 3.44 0 0 1 .25-1.34 3.14 3.14 0 0 1 .67-1.06 3.07 3.07 0 0 1 1-.7 3.56 3.56 0 0 1 1.32-.25 3.62 3.62 0 0 1 1.33.25 3.23 3.23 0 0 1 1 .7 3.16 3.16 0 0 1 .68 1.06 3.44 3.44 0 0 1 .25 1.34 3.4 3.4 0 0 1 -.25 1.34 3.07 3.07 0 0 1 -.68 1.06 3.23 3.23 0 0 1 -1 .7 3.62 3.62 0 0 1 -1.33.25 3.56 3.56 0 0 1 -1.32-.25 3 3 0 0 1 -1.72-1.76 3.4 3.4 0 0 1 -.2-1.34zm.81 0a3 3 0 0 0 .17 1 2.39 2.39 0 0 0 .5.83 2.51 2.51 0 0 0 .79.56 2.73 2.73 0 0 0 2.05 0 2.51 2.51 0 0 0 .79-.56 2.23 2.23 0 0 0 .49-.83 2.78 2.78 0 0 0 .17-1 2.82 2.82 0 0 0 -.17-1 2.31 2.31 0 0 0 -.49-.83 2.51 2.51 0 0 0 -.79-.56 2.73 2.73 0 0 0 -2.05 0 2.51 2.51 0 0 0 -.79.56 2.49 2.49 0 0 0 -.5.83 3.06 3.06 0 0 0 -.17 1z"/><path d="m220.05 370.39v.84.69s0 .41 0 .59a4.87 4.87 0 0 0 .06.55h-.76a6.43 6.43 0 0 1 -.08-1 2.25 2.25 0 0 1 -.87.91 2.74 2.74 0 0 1 -1.32.29 3.09 3.09 0 0 1 -.8-.11 1.85 1.85 0 0 1 -.71-.33 1.77 1.77 0 0 1 -.5-.58 2 2 0 0 1 .17-2 2.35 2.35 0 0 1 .9-.64 4.15 4.15 0 0 1 1.13-.27c.41 0 .76-.06 1.07-.06h.95v-.39a1.35 1.35 0 0 0 -.5-1.18 2.13 2.13 0 0 0 -1.26-.36 2.87 2.87 0 0 0 -1.92.71l-.47-.56a3 3 0 0 1 1.11-.67 4 4 0 0 1 1.28-.23 2.83 2.83 0 0 1 1.81.55 2.12 2.12 0 0 1 .68 1.75zm-1.63-.52a6.41 6.41 0 0 0 -1 .07 3.26 3.26 0 0 0 -.87.23 1.69 1.69 0 0 0 -.62.44 1 1 0 0 0 -.23.69 1.14 1.14 0 0 0 .13.52 1.31 1.31 0 0 0 .33.37 1.78 1.78 0 0 0 .46.22 1.68 1.68 0 0 0 .5.07 2.5 2.5 0 0 0 1.07-.19 1.77 1.77 0 0 0 .68-.5 1.83 1.83 0 0 0 .34-.7 3.65 3.65 0 0 0 .1-.8v-.42z"/><path d="m222.22 368.49c0-.12 0-.26 0-.43s0-.35 0-.52 0-.34 0-.49 0-.27 0-.35h.78v.69s0 .36 0 .42h.05a2.29 2.29 0 0 1 .81-.9 2.36 2.36 0 0 1 1.33-.38 2.6 2.6 0 0 1 1.19.24 1.88 1.88 0 0 1 .72.61 2.25 2.25 0 0 1 .37.88 4.87 4.87 0 0 1 .1 1v3.79h-.81v-3.74a4.54 4.54 0 0 0 -.07-.75 2.15 2.15 0 0 0 -.24-.66 1.22 1.22 0 0 0 -.47-.46 1.57 1.57 0 0 0 -.79-.17 2.18 2.18 0 0 0 -.85.16 1.66 1.66 0 0 0 -.69.48 2.12 2.12 0 0 0 -.46.81 3.36 3.36 0 0 0 -.17 1.15v3.18h-.81z"/><path d="m229.76 371.44a1.79 1.79 0 0 0 .76.78 2.31 2.31 0 0 0 1.06.26 1.51 1.51 0 0 0 .51-.08 1.42 1.42 0 0 0 .46-.23 1.16 1.16 0 0 0 .33-.37.88.88 0 0 0 .13-.49.81.81 0 0 0 -.27-.66 2.22 2.22 0 0 0 -.69-.34 8.91 8.91 0 0 0 -.89-.22 4 4 0 0 1 -.9-.27 2 2 0 0 1 -.68-.52 1.38 1.38 0 0 1 -.28-.93 1.63 1.63 0 0 1 .19-.82 1.72 1.72 0 0 1 .5-.57 2.28 2.28 0 0 1 .68-.34 2.87 2.87 0 0 1 .77-.11 2.94 2.94 0 0 1 1.34.29 2.07 2.07 0 0 1 .87.91l-.73.44a1.92 1.92 0 0 0 -.58-.67 1.62 1.62 0 0 0 -.9-.22 1.5 1.5 0 0 0 -.45.07 1.52 1.52 0 0 0 -.43.19 1.08 1.08 0 0 0 -.32.32.79.79 0 0 0 -.13.44.76.76 0 0 0 .28.63 2 2 0 0 0 .68.32 7.06 7.06 0 0 0 .9.2 4 4 0 0 1 .89.27 2 2 0 0 1 .69.54 1.61 1.61 0 0 1 .27 1 1.91 1.91 0 0 1 -.18.86 1.75 1.75 0 0 1 -.5.61 2.05 2.05 0 0 1 -.72.37 2.71 2.71 0 0 1 -.86.13 3.45 3.45 0 0 1 -1.48-.32 2.29 2.29 0 0 1 -1-1z"/><path d="m234.64 366.7h.89l1.52 5.33 1.74-5.33h.78l1.85 5.33 1.58-5.33h.81l-1.84 6.36h-.84l-1.87-5.2-1.75 5.2h-.84z"/><path d="m250.58 371.86a2.67 2.67 0 0 1 -1.17 1.05 3.69 3.69 0 0 1 -1.54.32 3.42 3.42 0 0 1 -1.3-.25 3.06 3.06 0 0 1 -1-.7 3 3 0 0 1 -.64-1.06 4 4 0 0 1 0-2.68 3.32 3.32 0 0 1 .65-1.05 3 3 0 0 1 1-.7 3.05 3.05 0 0 1 1.26-.26 3 3 0 0 1 1.27.26 2.74 2.74 0 0 1 1.48 1.63 3.17 3.17 0 0 1 .19 1.09v.58h-5.25a2.85 2.85 0 0 0 .1.67 2.35 2.35 0 0 0 1.1 1.45 2.25 2.25 0 0 0 1.17.27 2.6 2.6 0 0 0 1.2-.3 2.19 2.19 0 0 0 .9-.83zm-.62-2.52a2 2 0 0 0 -.17-.8 2.26 2.26 0 0 0 -.46-.65 2.06 2.06 0 0 0 -.69-.45 2.22 2.22 0 0 0 -.85-.16 2.06 2.06 0 0 0 -1.1.27 2.56 2.56 0 0 0 -.7.64 2.93 2.93 0 0 0 -.37.69 1.9 1.9 0 0 0 -.1.46z"/><path d="m252.59 368.49c0-.12 0-.26 0-.43s0-.35 0-.52 0-.34 0-.49 0-.27 0-.35h.81v.69a2.18 2.18 0 0 0 0 .42 2.85 2.85 0 0 1 .8-.92 1.93 1.93 0 0 1 1.19-.36h.24l.23.05-.09.82a.89.89 0 0 0 -.31-.06 2.32 2.32 0 0 0 -.92.17 1.79 1.79 0 0 0 -.63.48 1.94 1.94 0 0 0 -.38.71 3 3 0 0 0 -.12.87v3.47h-.81z"/><path d="m241.17 468h5.06a6 6 0 0 1 2.28.38 4 4 0 0 1 1.41 1 3.3 3.3 0 0 1 .72 1.32 5.17 5.17 0 0 1 .2 1.42 5.05 5.05 0 0 1 -.2 1.41 3.27 3.27 0 0 1 -.72 1.33 4 4 0 0 1 -1.41 1 6 6 0 0 1 -2.28.38h-3.11v6.45h-2zm2 6.45h2.56a7.08 7.08 0 0 0 1.13-.1 3 3 0 0 0 1-.34 1.84 1.84 0 0 0 .7-.71 2.95 2.95 0 0 0 0-2.42 1.84 1.84 0 0 0 -.7-.71 3 3 0 0 0 -1-.34 7.08 7.08 0 0 0 -1.13-.1h-2.56z"/><path d="m253.22 468h9.29v1.86h-7.34v4.36h6.83v1.86h-6.83v4.69h7.7v1.86h-9.65z"/><path d="m265.64 468h5.06a5.87 5.87 0 0 1 2.27.38 4 4 0 0 1 1.42 1 3.56 3.56 0 0 1 .72 1.32 5.58 5.58 0 0 1 .2 1.42 3.78 3.78 0 0 1 -.95 2.53 3.92 3.92 0 0 1 -1.11.89 3.76 3.76 0 0 1 -1.48.44l4.09 6.68h-2.44l-3.66-6.45h-2.17v6.45h-1.95zm1.95 6.45h2.56a7.19 7.19 0 0 0 1.13-.1 2.83 2.83 0 0 0 1-.34 1.77 1.77 0 0 0 .7-.71 2.85 2.85 0 0 0 0-2.42 1.77 1.77 0 0 0 -.7-.71 2.83 2.83 0 0 0 -1-.34 7.19 7.19 0 0 0 -1.13-.1h-2.56z"/><path d="m288.07 471.2a4.05 4.05 0 0 0 -1.54-1.24 4.55 4.55 0 0 0 -1.93-.43 5.11 5.11 0 0 0 -2.21.46 5.19 5.19 0 0 0 -1.69 1.27 5.86 5.86 0 0 0 -1.08 1.89 6.86 6.86 0 0 0 -.39 2.33 6.38 6.38 0 0 0 .37 2.19 5.49 5.49 0 0 0 1 1.82 5 5 0 0 0 1.69 1.23 5.28 5.28 0 0 0 2.26.46 4.36 4.36 0 0 0 2.17-.52 4.73 4.73 0 0 0 1.59-1.44l1.64 1.26a7 7 0 0 1 -.57.65 5.86 5.86 0 0 1 -1.07.84 7.64 7.64 0 0 1 -1.62.75 6.9 6.9 0 0 1 -2.18.32 7 7 0 0 1 -3.08-.66 7.31 7.31 0 0 1 -2.34-1.74 7.53 7.53 0 0 1 -1.47-2.43 7.67 7.67 0 0 1 -.51-2.73 8.58 8.58 0 0 1 .55-3.13 7.2 7.2 0 0 1 1.53-2.48 6.76 6.76 0 0 1 2.37-1.62 7.75 7.75 0 0 1 3.05-.58 7.17 7.17 0 0 1 2.79.56 5.23 5.23 0 0 1 2.25 1.71z"/><path d="m292.36 468h9.29v1.86h-7.34v4.36h6.83v1.86h-6.83v4.69h7.69v1.86h-9.65z"/><path d="m304.78 468h2.56l7.92 12v-12h1.95v14.63h-2.48l-8-12v12h-2z"/><path d="m324 469.9h-4.64v-1.9h11.22v1.86h-4.63v12.77h-2z"/><path d="m335.26 468h1.74l6.15 14.63h-2.27l-1.45-3.62h-6.85l-1.42 3.62h-2.27zm3.49 9.28-2.68-6.72-2.72 6.72z"/><path d="m357.3 474.49v7.21a6.25 6.25 0 0 1 -1.19.57 12.64 12.64 0 0 1 -1.4.43 14.39 14.39 0 0 1 -1.46.26 13.9 13.9 0 0 1 -1.39.08 8.17 8.17 0 0 1 -3.26-.62 7 7 0 0 1 -3.92-4.12 8.29 8.29 0 0 1 -.52-2.95 8 8 0 0 1 .56-3 7.4 7.4 0 0 1 1.54-2.44 7 7 0 0 1 2.37-1.62 7.51 7.51 0 0 1 3-.59 9 9 0 0 1 3.25.5 6 6 0 0 1 2.11 1.4l-1.38 1.51a5.05 5.05 0 0 0 -1.89-1.21 6.36 6.36 0 0 0 -2.09-.34 5.22 5.22 0 0 0 -2.24.46 5.27 5.27 0 0 0 -2.8 3.1 6.51 6.51 0 0 0 -.39 2.26 6 6 0 0 0 .43 2.31 5.47 5.47 0 0 0 2.94 3.08 5.6 5.6 0 0 0 2.22.44 9.5 9.5 0 0 0 2-.2 5.25 5.25 0 0 0 1.57-.57v-4.07h-3.19v-1.85z"/><path d="m360.86 468h9.29v1.86h-7.34v4.36h6.83v1.86h-6.83v4.69h7.7v1.86h-9.65z"/><path d="m279.23 227.51-1.75 1.49-.5-.63 2.37-2h.65v9.75h-.81z"/><path d="m285 230.65a1.69 1.69 0 0 1 .66-.31 3.17 3.17 0 0 1 .77-.11 2.92 2.92 0 0 1 2.11.88 3 3 0 0 1 .61.95 3.26 3.26 0 0 1 .22 1.18 3.09 3.09 0 0 1 -.24 1.22 2.79 2.79 0 0 1 -.66.95 3 3 0 0 1 -1 .63 3.48 3.48 0 0 1 -1.26.23 3.39 3.39 0 0 1 -1.21-.27 3 3 0 0 1 -1-.63 2.77 2.77 0 0 1 -.65-.95 3.09 3.09 0 0 1 -.24-1.22 3.4 3.4 0 0 1 .08-.73 4.64 4.64 0 0 1 .22-.66c.09-.2.18-.4.28-.58s.2-.36.3-.53l2.6-4.39h1zm1.24.3a2.16 2.16 0 0 0 -.88.18 2.2 2.2 0 0 0 -.71.49 2.44 2.44 0 0 0 -.48.73 2.25 2.25 0 0 0 -.18.89 2.52 2.52 0 0 0 .17.93 1.93 1.93 0 0 0 .46.72 2 2 0 0 0 .71.47 2.42 2.42 0 0 0 .91.16 2.47 2.47 0 0 0 .92-.16 2.15 2.15 0 0 0 .71-.47 2.07 2.07 0 0 0 .46-.72 2.52 2.52 0 0 0 .16-.93 2.28 2.28 0 0 0 -.65-1.62 2.36 2.36 0 0 0 -.72-.49 2.2 2.2 0 0 0 -.86-.13z"/><path d="m290.9 235.52a.6.6 0 0 1 .19-.46.61.61 0 0 1 .46-.2.63.63 0 0 1 .46.2.64.64 0 0 1 .19.46.67.67 0 0 1 -.19.47.63.63 0 0 1 -.46.2.61.61 0 0 1 -.46-.2.63.63 0 0 1 -.19-.47z"/><path d="m299.31 227.09-3.82 9h-.91l3.89-9h-4.61v-.74h5.45z"/><path d="m306.45 227.09h-4v3.1a2.26 2.26 0 0 1 .68-.22 6.09 6.09 0 0 1 .72-.05 2.94 2.94 0 0 1 1.25.25 2.69 2.69 0 0 1 .93.7 3.06 3.06 0 0 1 .6 1 3.73 3.73 0 0 1 .21 1.25 3.33 3.33 0 0 1 -.27 1.38 3 3 0 0 1 -.73 1 3.3 3.3 0 0 1 -1 .58 3.4 3.4 0 0 1 -1.07.19 3.37 3.37 0 0 1 -1.77-.44 3.06 3.06 0 0 1 -1.1-1.21l.84-.43a2 2 0 0 0 .33.51 2.18 2.18 0 0 0 .48.43 2.25 2.25 0 0 0 .58.29 2 2 0 0 0 .64.1 1.94 1.94 0 0 0 .71-.14 2.45 2.45 0 0 0 .7-.43 2.35 2.35 0 0 0 .54-.73 2.25 2.25 0 0 0 .22-1 2.54 2.54 0 0 0 -.69-1.79 2.51 2.51 0 0 0 -.77-.55 2.31 2.31 0 0 0 -.95-.2 2.7 2.7 0 0 0 -1 .19 4 4 0 0 0 -.89.47l.08-5h4.73z"/><path d="m307.91 228.55a2.2 2.2 0 0 1 .19-.92 2.35 2.35 0 0 1 .5-.75 2.57 2.57 0 0 1 .74-.51 2.23 2.23 0 0 1 .9-.18 2.27 2.27 0 0 1 .91.18 2.57 2.57 0 0 1 .74.51 2.52 2.52 0 0 1 .5.75 2.47 2.47 0 0 1 0 1.85 2.52 2.52 0 0 1 -.5.75 2.57 2.57 0 0 1 -.74.51 2.27 2.27 0 0 1 -.91.18 2.23 2.23 0 0 1 -.9-.18 2.57 2.57 0 0 1 -.74-.51 2.35 2.35 0 0 1 -.5-.75 2.21 2.21 0 0 1 -.19-.93zm.73 0a1.75 1.75 0 0 0 .13.65 1.78 1.78 0 0 0 .35.51 1.54 1.54 0 0 0 .51.35 1.58 1.58 0 0 0 .61.12 1.63 1.63 0 0 0 .62-.12 1.78 1.78 0 0 0 .51-.35 1.75 1.75 0 0 0 .34-.51 1.67 1.67 0 0 0 0-1.29 1.63 1.63 0 0 0 -.34-.51 1.78 1.78 0 0 0 -.51-.35 1.63 1.63 0 0 0 -.62-.12 1.58 1.58 0 0 0 -.61.12 1.54 1.54 0 0 0 -.51.35 1.65 1.65 0 0 0 -.35.51 1.74 1.74 0 0 0 -.13.64zm7.08-2.67.62.39-6.19 10.3-.61-.38zm-2.46 8a2.17 2.17 0 0 1 .19-.92 2.29 2.29 0 0 1 .5-.75 2.23 2.23 0 0 1 .74-.51 2.25 2.25 0 0 1 1.81 0 2.23 2.23 0 0 1 .74.51 2.29 2.29 0 0 1 .5.75 2.44 2.44 0 0 1 0 1.84 2.29 2.29 0 0 1 -.5.75 2.23 2.23 0 0 1 -.74.51 2.25 2.25 0 0 1 -1.81 0 2.23 2.23 0 0 1 -.74-.51 2.29 2.29 0 0 1 -.5-.75 2.17 2.17 0 0 1 -.19-.9zm.74 0a1.58 1.58 0 0 0 .47 1.16 1.52 1.52 0 0 0 .51.34 1.64 1.64 0 0 0 1.23 0 1.75 1.75 0 0 0 .51-.34 1.67 1.67 0 0 0 .34-.52 1.64 1.64 0 0 0 0-1.28 1.67 1.67 0 0 0 -.34-.52 1.75 1.75 0 0 0 -.51-.34 1.52 1.52 0 0 0 -1.23 0 1.52 1.52 0 0 0 -.51.34 1.58 1.58 0 0 0 -.47 1.16z"/><path d="m389.09 326.91 3.61-3.91.49-.53a6.61 6.61 0 0 0 .44-.6 3 3 0 0 0 .31-.65 2 2 0 0 0 .13-.74 1.68 1.68 0 0 0 -.55-1.34 2 2 0 0 0 -1.36-.48 1.83 1.83 0 0 0 -1.26.44 2 2 0 0 0 -.67 1.15l-1-.09a2.66 2.66 0 0 1 1-1.69 3.21 3.21 0 0 1 1.9-.56 3 3 0 0 1 1.05.18 2.58 2.58 0 0 1 .88.48 2.33 2.33 0 0 1 .61.78 2.39 2.39 0 0 1 .22 1.06 3.19 3.19 0 0 1 -.17 1 4.13 4.13 0 0 1 -.45.92 5.42 5.42 0 0 1 -.63.82l-.64.85-3 3.13h5v.74h-5.94z"/><path d="m397.86 322.42a1.46 1.46 0 0 1 .65-.31 3.17 3.17 0 0 1 .77-.11 2.9 2.9 0 0 1 1.18.24 2.86 2.86 0 0 1 1.54 1.59 3.22 3.22 0 0 1 0 2.39 3 3 0 0 1 -.65 1 3.14 3.14 0 0 1 -1 .63 3.39 3.39 0 0 1 -1.25.23 3.44 3.44 0 0 1 -1.26-.23 3 3 0 0 1 -1-.63 2.84 2.84 0 0 1 -.66-1 3 3 0 0 1 -.18-1.22 3.33 3.33 0 0 1 .08-.73 4.64 4.64 0 0 1 .22-.66 6.27 6.27 0 0 1 .29-.58c.1-.19.19-.36.29-.53l2.6-4.39h1zm1.25.3a2.13 2.13 0 0 0 -.88.18 2.24 2.24 0 0 0 -.72.49 2.32 2.32 0 0 0 -.48.73 2.39 2.39 0 0 0 -.17.89 2.52 2.52 0 0 0 .16.93 2.07 2.07 0 0 0 .46.72 2.15 2.15 0 0 0 .71.47 2.7 2.7 0 0 0 1.83 0 2.06 2.06 0 0 0 1.17-1.19 2.52 2.52 0 0 0 .17-.93 2.21 2.21 0 0 0 -.18-.89 2.32 2.32 0 0 0 -.48-.73 2.24 2.24 0 0 0 -.72-.49 2.19 2.19 0 0 0 -.87-.18z"/><path d="m403.74 327.29a.64.64 0 0 1 .19-.47.65.65 0 0 1 .92 0 .64.64 0 0 1 .19.47.63.63 0 0 1 -.19.47.65.65 0 0 1 -.92 0 .63.63 0 0 1 -.19-.47z"/><path d="m412.25 318.86h-4v3.1a2.26 2.26 0 0 1 .68-.22 5.81 5.81 0 0 1 .72-.05 2.89 2.89 0 0 1 1.24.25 2.73 2.73 0 0 1 .94.7 3.06 3.06 0 0 1 .6 1 3.69 3.69 0 0 1 .21 1.25 3.18 3.18 0 0 1 -.28 1.38 2.74 2.74 0 0 1 -.72 1 3.11 3.11 0 0 1 -1 .58 3.16 3.16 0 0 1 -1.07.2 3.23 3.23 0 0 1 -1.77-.45 2.93 2.93 0 0 1 -1.1-1.21l.84-.42a2 2 0 0 0 .33.51 2.46 2.46 0 0 0 .48.43 2.42 2.42 0 0 0 .58.29 2 2 0 0 0 .64.1 2.07 2.07 0 0 0 .7-.14 2.21 2.21 0 0 0 .71-.44 2.43 2.43 0 0 0 .54-.73 2.32 2.32 0 0 0 .22-1 2.52 2.52 0 0 0 -.19-1 2.57 2.57 0 0 0 -.5-.81 2.44 2.44 0 0 0 -.77-.54 2.32 2.32 0 0 0 -1-.2 2.69 2.69 0 0 0 -1 .19 4 4 0 0 0 -.89.47l.08-5h4.73z"/><path d="m413.71 320.32a2.32 2.32 0 0 1 .18-.92 2.56 2.56 0 0 1 .51-.75 2.19 2.19 0 0 1 .73-.51 2.32 2.32 0 0 1 .87-.14 2.28 2.28 0 0 1 .91.19 2.33 2.33 0 0 1 .74.51 2.52 2.52 0 0 1 .5.75 2.32 2.32 0 0 1 .18.92 2.41 2.41 0 0 1 -.18.93 2.52 2.52 0 0 1 -.5.75 2.71 2.71 0 0 1 -.74.51 2.27 2.27 0 0 1 -.91.18 2.31 2.31 0 0 1 -.91-.18 2.52 2.52 0 0 1 -.73-.51 2.56 2.56 0 0 1 -.51-.75 2.41 2.41 0 0 1 -.14-.98zm.73 0a1.66 1.66 0 0 0 .13.64 1.7 1.7 0 0 0 .35.52 1.43 1.43 0 0 0 .5.34 1.54 1.54 0 0 0 1.24 0 1.57 1.57 0 0 0 .51-.34 1.87 1.87 0 0 0 .34-.52 1.5 1.5 0 0 0 .13-.64 1.53 1.53 0 0 0 -.13-.64 1.69 1.69 0 0 0 -.34-.51 1.6 1.6 0 0 0 -.51-.35 1.66 1.66 0 0 0 -1.24 0 1.46 1.46 0 0 0 -.5.35 1.54 1.54 0 0 0 -.35.51 1.7 1.7 0 0 0 -.13.64zm7.07-2.67.63.39-6.14 10.3-.61-.39zm-2.45 8a2.41 2.41 0 0 1 .18-.93 2.56 2.56 0 0 1 .51-.75 2.44 2.44 0 0 1 .74-.51 2.23 2.23 0 0 1 .9-.18 2.27 2.27 0 0 1 .91.18 2.57 2.57 0 0 1 .74.51 2.52 2.52 0 0 1 .5.75 2.41 2.41 0 0 1 .18.93 2.36 2.36 0 0 1 -.18.92 2.52 2.52 0 0 1 -.5.75 2.23 2.23 0 0 1 -.74.51 2.28 2.28 0 0 1 -.91.19 2.23 2.23 0 0 1 -.9-.19 2.13 2.13 0 0 1 -.74-.51 2.56 2.56 0 0 1 -.51-.75 2.36 2.36 0 0 1 -.18-.9zm.73 0a1.7 1.7 0 0 0 .13.64 1.65 1.65 0 0 0 .35.51 1.54 1.54 0 0 0 .51.35 1.58 1.58 0 0 0 .61.12 1.63 1.63 0 0 0 .62-.12 1.78 1.78 0 0 0 .51-.35 1.63 1.63 0 0 0 .34-.51 1.53 1.53 0 0 0 .13-.64 1.5 1.5 0 0 0 -.13-.64 1.67 1.67 0 0 0 -.34-.52 1.78 1.78 0 0 0 -.51-.35 1.63 1.63 0 0 0 -.62-.12 1.58 1.58 0 0 0 -.61.12 1.54 1.54 0 0 0 -.51.35 1.7 1.7 0 0 0 -.35.52 1.66 1.66 0 0 0 -.13.66z"/><path d="m279 364.58-1.75 1.42-.5-.64 2.37-2h.69v9.75h-.81z"/><path d="m284.79 367.72a1.62 1.62 0 0 1 .66-.31 3.13 3.13 0 0 1 .77-.1 3 3 0 0 1 1.17.23 2.85 2.85 0 0 1 .94.64 3 3 0 0 1 .61.95 3.3 3.3 0 0 1 .22 1.18 3.05 3.05 0 0 1 -.24 1.22 2.94 2.94 0 0 1 -.66 1 3.14 3.14 0 0 1 -1 .62 3.48 3.48 0 0 1 -1.26.23 3.39 3.39 0 0 1 -1.25-.23 3.18 3.18 0 0 1 -1-.62 2.77 2.77 0 0 1 -.65-1 3.05 3.05 0 0 1 -.24-1.22 3.4 3.4 0 0 1 .08-.73 4.13 4.13 0 0 1 .22-.65 6.49 6.49 0 0 1 .28-.59c.1-.18.2-.36.3-.52l2.6-4.4h1zm1.24.3a2.16 2.16 0 0 0 -.88.18 2.37 2.37 0 0 0 -.71.49 2.44 2.44 0 0 0 -.48.73 2.25 2.25 0 0 0 -.18.89 2.52 2.52 0 0 0 .17.93 1.93 1.93 0 0 0 .46.72 2 2 0 0 0 .71.47 2.42 2.42 0 0 0 .91.17 2.47 2.47 0 0 0 .92-.17 2.15 2.15 0 0 0 .71-.47 2.07 2.07 0 0 0 .46-.72 2.52 2.52 0 0 0 .16-.93 2.43 2.43 0 0 0 -.17-.89 2.29 2.29 0 0 0 -.49-.73 2.37 2.37 0 0 0 -.71-.49 2.2 2.2 0 0 0 -.91-.2z"/><path d="m290.67 372.6a.63.63 0 0 1 .19-.47.6.6 0 0 1 .46-.19.62.62 0 0 1 .46.19.67.67 0 0 1 .19.47.64.64 0 0 1 -.19.46.63.63 0 0 1 -.46.2.61.61 0 0 1 -.46-.2.6.6 0 0 1 -.19-.46z"/><path d="m299.08 364.17-3.82 9h-.91l3.89-9h-4.61v-.75h5.45z"/><path d="m306.22 364.17h-4v3.1a2 2 0 0 1 .68-.22 4.56 4.56 0 0 1 .72-.06 3 3 0 0 1 1.25.26 2.79 2.79 0 0 1 .93.69 3.21 3.21 0 0 1 .6 1 3.63 3.63 0 0 1 .21 1.24 3.12 3.12 0 0 1 -.28 1.38 2.78 2.78 0 0 1 -.72 1 3.11 3.11 0 0 1 -1 .58 3.14 3.14 0 0 1 -1.07.19 3.37 3.37 0 0 1 -1.77-.44 3 3 0 0 1 -1.1-1.21l.84-.43a2.07 2.07 0 0 0 .33.52 2.41 2.41 0 0 0 .48.42 2.25 2.25 0 0 0 .58.29 2 2 0 0 0 .64.11 1.88 1.88 0 0 0 .7-.15 2.18 2.18 0 0 0 .76-.44 2.32 2.32 0 0 0 .76-1.75 2.53 2.53 0 0 0 -.19-1 2.64 2.64 0 0 0 -.5-.8 2.51 2.51 0 0 0 -.77-.55 2.31 2.31 0 0 0 -.95-.2 2.92 2.92 0 0 0 -1 .19 3.64 3.64 0 0 0 -.89.48l.08-5h4.73z"/><path d="m307.68 365.63a2.41 2.41 0 0 1 .18-.93 2.56 2.56 0 0 1 .51-.75 2.44 2.44 0 0 1 .74-.51 2.23 2.23 0 0 1 .9-.18 2.27 2.27 0 0 1 .91.18 2.57 2.57 0 0 1 .74.51 2.52 2.52 0 0 1 .5.75 2.41 2.41 0 0 1 .18.93 2.32 2.32 0 0 1 -.18.92 2.52 2.52 0 0 1 -.5.75 2.23 2.23 0 0 1 -.74.51 2.28 2.28 0 0 1 -.91.19 2.23 2.23 0 0 1 -.9-.19 2.13 2.13 0 0 1 -.74-.51 2.56 2.56 0 0 1 -.51-.75 2.32 2.32 0 0 1 -.18-.92zm.73 0a1.7 1.7 0 0 0 .13.64 1.65 1.65 0 0 0 .35.51 1.41 1.41 0 0 0 .51.35 1.58 1.58 0 0 0 .61.12 1.63 1.63 0 0 0 .62-.12 1.6 1.6 0 0 0 .51-.35 1.63 1.63 0 0 0 .34-.51 1.53 1.53 0 0 0 .13-.64 1.5 1.5 0 0 0 -.13-.64 1.67 1.67 0 0 0 -.34-.52 1.57 1.57 0 0 0 -.51-.34 1.47 1.47 0 0 0 -.63-.13 1.42 1.42 0 0 0 -.61.13 1.39 1.39 0 0 0 -.51.34 1.7 1.7 0 0 0 -.35.52 1.66 1.66 0 0 0 -.12.64zm7.08-2.67.62.38-6.19 10.3-.61-.38zm-2.49 8.04a2.17 2.17 0 0 1 .19-.92 2.29 2.29 0 0 1 .5-.75 2.23 2.23 0 0 1 .74-.51 2.25 2.25 0 0 1 1.81 0 2.23 2.23 0 0 1 .74.51 2.29 2.29 0 0 1 .5.75 2.44 2.44 0 0 1 0 1.84 2.29 2.29 0 0 1 -.5.75 2.23 2.23 0 0 1 -.74.51 2.25 2.25 0 0 1 -1.81 0 2.23 2.23 0 0 1 -.74-.51 2.29 2.29 0 0 1 -.5-.75 2.17 2.17 0 0 1 -.19-.92zm.74 0a1.58 1.58 0 0 0 .47 1.16 1.39 1.39 0 0 0 .51.34 1.52 1.52 0 0 0 1.23 0 1.57 1.57 0 0 0 .51-.34 1.67 1.67 0 0 0 .34-.52 1.64 1.64 0 0 0 0-1.28 1.67 1.67 0 0 0 -.34-.52 1.75 1.75 0 0 0 -.51-.34 1.64 1.64 0 0 0 -1.23 0 1.52 1.52 0 0 0 -.51.34 1.58 1.58 0 0 0 -.47 1.16z"/></g><path d="m118.72 115.6h363.62" fill="none" stroke="#fff" stroke-miterlimit="1.18" stroke-width=".25"/><path d="m57.86 28.5h2.25l4.23 11.9 4.39-11.9h2.17l-5.67 14.62h-1.83z" fill="#fff"/><path d="m76.21 28.5h1.79l6.16 14.62h-2.3l-1.45-3.61h-6.85l-1.42 3.61h-2.27zm3.49 9.27-2.7-6.71-2.72 6.71z" fill="#fff"/><path d="m86 28.5h5.06a5.78 5.78 0 0 1 2.28.38 3.92 3.92 0 0 1 1.41 1 3.17 3.17 0 0 1 .72 1.32 5.12 5.12 0 0 1 .2 1.42 3.84 3.84 0 0 1 -.24 1.35 3.92 3.92 0 0 1 -.7 1.18 4.11 4.11 0 0 1 -1.12.89 3.76 3.76 0 0 1 -1.47.44l4.08 6.67h-2.44l-3.65-6.44h-2.13v6.44h-2zm2 6.44h2.56a7.08 7.08 0 0 0 1.13-.09 3.19 3.19 0 0 0 1-.34 1.91 1.91 0 0 0 .7-.71 2.52 2.52 0 0 0 .26-1.21 2.5 2.5 0 0 0 -.26-1.21 1.84 1.84 0 0 0 -.7-.71 3.2 3.2 0 0 0 -1-.35 7.08 7.08 0 0 0 -1.13-.09h-2.56z" fill="#fff"/><path d="m98.42 28.5h2v14.62h-2z" fill="#fff"/><path d="m104.07 28.5h9.28v1.86h-7.35v4.35h6.83v1.86h-6.83v4.69h7.7v1.86h-9.65z" fill="#fff"/><path d="m119.49 30.36h-4.63v-1.86h11.21v1.86h-4.63v12.76h-2z" fill="#fff"/><path d="m131.54 36.88-5.45-8.38h2.5l3.93 6.42 4-6.42h2.38l-5.45 8.38v6.24h-2z" fill="#fff"/><path d="m139.69 35.93a1.29 1.29 0 0 1 -.95-.4 1.38 1.38 0 0 1 0-1.92 1.29 1.29 0 0 1 .95-.4 1.25 1.25 0 0 1 .94.4 1.35 1.35 0 0 1 0 1.92 1.25 1.25 0 0 1 -.94.4zm-1.34 6a1.34 1.34 0 0 1 .39-1 1.29 1.29 0 0 1 .95-.4 1.25 1.25 0 0 1 .94.4 1.31 1.31 0 0 1 .4 1 1.28 1.28 0 0 1 -.4 1 1.26 1.26 0 0 1 -.94.41 1.37 1.37 0 0 1 -1.34-1.37z" fill="#fff"/><path d="m162.12 28.5h1.73l8.76 12.81v-12.81h1.39v14.62h-1.73l-8.77-12.81v12.81h-1.34z" fill="#fb9a99"/><path d="m177 35.81a8.52 8.52 0 0 1 .54-3.08 7.49 7.49 0 0 1 1.53-2.43 7 7 0 0 1 2.35-1.6 8.13 8.13 0 0 1 6 0 7 7 0 0 1 2.35 1.6 7.31 7.31 0 0 1 1.52 2.43 8.93 8.93 0 0 1 0 6.17 7.35 7.35 0 0 1 -1.52 2.44 6.79 6.79 0 0 1 -2.35 1.59 8.26 8.26 0 0 1 -6 0 6.79 6.79 0 0 1 -2.35-1.59 7.54 7.54 0 0 1 -1.53-2.44 8.57 8.57 0 0 1 -.54-3.09zm1.34 0a7.48 7.48 0 0 0 .42 2.54 6.11 6.11 0 0 0 1.22 2 5.63 5.63 0 0 0 1.92 1.36 6.28 6.28 0 0 0 2.53.5 6.21 6.21 0 0 0 2.53-.5 5.45 5.45 0 0 0 1.92-1.36 6 6 0 0 0 1.22-2 7.72 7.72 0 0 0 0-5.08 6 6 0 0 0 -1.22-2.05 5.45 5.45 0 0 0 -1.88-1.36 6.21 6.21 0 0 0 -2.53-.5 6.28 6.28 0 0 0 -2.53.5 5.63 5.63 0 0 0 -1.94 1.36 6.11 6.11 0 0 0 -1.22 2.05 7.48 7.48 0 0 0 -.44 2.54z" fill="#fb9a99"/><path d="m194.88 28.5h1.73l8.75 12.81v-12.81h1.34v14.62h-1.7l-8.76-12.81v12.81h-1.34z" fill="#fb9a99"/><path d="m209.59 37.67h5v1.11h-5z" fill="#fb9a99"/><path d="m217.84 40.42a3.43 3.43 0 0 0 1.37 1.38 4.06 4.06 0 0 0 1.92.46 3.7 3.7 0 0 0 1.26-.21 3.13 3.13 0 0 0 1-.58 2.78 2.78 0 0 0 .69-.9 2.67 2.67 0 0 0 .26-1.19 2.31 2.31 0 0 0 -.32-1.26 2.51 2.51 0 0 0 -.84-.81 5.67 5.67 0 0 0 -1.19-.55l-1.36-.45c-.47-.16-.92-.33-1.36-.52a4.44 4.44 0 0 1 -1.19-.75 3.28 3.28 0 0 1 -.85-1.17 4.27 4.27 0 0 1 -.31-1.74 3.78 3.78 0 0 1 .37-1.72 3.51 3.51 0 0 1 1-1.26 4.49 4.49 0 0 1 1.47-.77 6 6 0 0 1 1.75-.26 5.66 5.66 0 0 1 2.19.43 4.08 4.08 0 0 1 1.78 1.45l-1.16.85a3.19 3.19 0 0 0 -2.8-1.45 4.23 4.23 0 0 0 -1.24.18 3.22 3.22 0 0 0 -1 .52 2.54 2.54 0 0 0 -.7.85 2.74 2.74 0 0 0 -.26 1.22 2.39 2.39 0 0 0 .55 1.69 3.86 3.86 0 0 0 1.37.93 17 17 0 0 0 1.79.6 8.52 8.52 0 0 1 1.79.69 4 4 0 0 1 1.37 1.21 3.67 3.67 0 0 1 .55 2.13 4.07 4.07 0 0 1 -.37 1.76 3.81 3.81 0 0 1 -1 1.29 4.41 4.41 0 0 1 -1.44.8 5.28 5.28 0 0 1 -1.68.27 6.67 6.67 0 0 1 -2.63-.51 4.89 4.89 0 0 1 -2.05-1.71z" fill="#fb9a99"/><path d="m232 29.74h-5v-1.24h11.2v1.24h-4.91v13.38h-1.29z" fill="#fb9a99"/><path d="m243.45 28.5h1.38l6 14.62h-1.5l-1.56-3.88h-7.57l-1.63 3.88h-1.4zm.63 1.48-3.36 8h6.61z" fill="#fb9a99"/><path d="m253 28.5h1.72l8.76 12.81v-12.81h1.34v14.62h-1.72l-8.76-12.81v12.81h-1.34z" fill="#fb9a99"/><path d="m268.58 28.5h4.42a9.54 9.54 0 0 1 3.18.46 7.17 7.17 0 0 1 2.16 1.19 5.83 5.83 0 0 1 1.36 1.6 7.93 7.93 0 0 1 .73 1.68 7.75 7.75 0 0 1 .3 1.46c0 .43.06.74.06.92s0 .49-.06.92a7.75 7.75 0 0 1 -.3 1.46 7.93 7.93 0 0 1 -.73 1.68 5.83 5.83 0 0 1 -1.36 1.6 7.17 7.17 0 0 1 -2.16 1.19 9.54 9.54 0 0 1 -3.18.46h-4.45zm1.35 13.38h2.76a9.45 9.45 0 0 0 2.66-.36 6.13 6.13 0 0 0 2.16-1.1 5.23 5.23 0 0 0 1.49-1.89 7.24 7.24 0 0 0 0-5.44 5.23 5.23 0 0 0 -1.44-1.89 6.13 6.13 0 0 0 -2.16-1.1 9.45 9.45 0 0 0 -2.66-.36h-2.76z" fill="#fb9a99"/><path d="m288.24 28.5h1.38l6.05 14.62h-1.5l-1.57-3.88h-7.6l-1.62 3.88h-1.38zm.62 1.48-3.35 8h6.61z" fill="#fb9a99"/><path d="m297.74 28.5h3.79.77a7 7 0 0 1 1.05.12 6.54 6.54 0 0 1 1.16.33 3.26 3.26 0 0 1 1.06.66 3.44 3.44 0 0 1 .77 1.1 3.88 3.88 0 0 1 .31 1.61 3.67 3.67 0 0 1 -.36 1.73 3.43 3.43 0 0 1 -.89 1.11 3.89 3.89 0 0 1 -1.19.63 8.13 8.13 0 0 1 -1.24.29l4.18 7h-1.52l-4-6.94h-2.5v6.94h-1.35zm1.35 6.44h2.84a4.59 4.59 0 0 0 1.72-.27 2.82 2.82 0 0 0 1-.66 2 2 0 0 0 .5-.84 2.71 2.71 0 0 0 0-1.66 2 2 0 0 0 -.5-.84 2.7 2.7 0 0 0 -1-.67 4.83 4.83 0 0 0 -1.72-.26h-2.84z" fill="#fb9a99"/><path d="m309.61 28.5h4.45a9.44 9.44 0 0 1 3.17.46 7.11 7.11 0 0 1 2.17 1.19 5.83 5.83 0 0 1 1.36 1.6 8.48 8.48 0 0 1 .73 1.68 8.63 8.63 0 0 1 .3 1.46c0 .43.06.74.06.92s0 .49-.06.92a8.63 8.63 0 0 1 -.3 1.46 8.48 8.48 0 0 1 -.73 1.68 5.83 5.83 0 0 1 -1.36 1.6 7.11 7.11 0 0 1 -2.17 1.19 9.44 9.44 0 0 1 -3.17.46h-4.45zm1.39 13.38h2.77a9.5 9.5 0 0 0 2.66-.36 6.08 6.08 0 0 0 2.15-1.1 5.37 5.37 0 0 0 1.42-1.89 7.24 7.24 0 0 0 0-5.44 5.37 5.37 0 0 0 -1.45-1.89 6.08 6.08 0 0 0 -2.15-1.1 9.5 9.5 0 0 0 -2.66-.36h-2.74z" fill="#fb9a99"/><path d="m59.83 61.78h5.06a5.87 5.87 0 0 1 2.27.38 3.89 3.89 0 0 1 1.42 1 3.41 3.41 0 0 1 .72 1.32 5.11 5.11 0 0 1 0 2.83 3.41 3.41 0 0 1 -.72 1.32 3.88 3.88 0 0 1 -1.42 1 5.69 5.69 0 0 1 -2.27.38h-3.11v6.45h-2zm2 6.45h2.56a7.17 7.17 0 0 0 1.13-.09 3.06 3.06 0 0 0 1-.35 1.77 1.77 0 0 0 .7-.71 2.38 2.38 0 0 0 .27-1.21 2.41 2.41 0 0 0 -.27-1.21 1.84 1.84 0 0 0 -.7-.71 3 3 0 0 0 -1-.34 7.17 7.17 0 0 0 -1.13-.09h-2.61z" fill="#fff"/><path d="m78.48 76.78a7.51 7.51 0 0 1 -3-.59 6.9 6.9 0 0 1 -2.36-1.62 7.42 7.42 0 0 1 -1.55-2.44 8.5 8.5 0 0 1 0-6.07 7.42 7.42 0 0 1 1.55-2.44 6.9 6.9 0 0 1 2.33-1.62 8.08 8.08 0 0 1 6.06 0 7 7 0 0 1 2.37 1.62 7.56 7.56 0 0 1 1.54 2.44 8.5 8.5 0 0 1 0 6.07 7.56 7.56 0 0 1 -1.54 2.44 7 7 0 0 1 -2.37 1.62 7.51 7.51 0 0 1 -3.03.59zm0-1.86a5.25 5.25 0 0 0 2.24-.46 5.32 5.32 0 0 0 1.7-1.25 5.55 5.55 0 0 0 1.1-1.85 6.77 6.77 0 0 0 0-4.53 5.55 5.55 0 0 0 -1.1-1.83 5.32 5.32 0 0 0 -1.7-1.25 5.25 5.25 0 0 0 -2.24-.46 5.17 5.17 0 0 0 -2.23.46 5.25 5.25 0 0 0 -1.71 1.25 5.72 5.72 0 0 0 -1.1 1.85 6.94 6.94 0 0 0 0 4.53 5.72 5.72 0 0 0 1.1 1.85 5.25 5.25 0 0 0 1.71 1.25 5.17 5.17 0 0 0 2.23.44z" fill="#fff"/><path d="m88.78 61.78h5.06a5.93 5.93 0 0 1 2.28.38 3.77 3.77 0 0 1 1.41 1 3.17 3.17 0 0 1 .72 1.32 4.87 4.87 0 0 1 0 2.83 3.17 3.17 0 0 1 -.72 1.32 3.75 3.75 0 0 1 -1.41 1 5.74 5.74 0 0 1 -2.28.38h-3.1v6.45h-2zm2 6.45h2.52a7 7 0 0 0 1.12-.09 3 3 0 0 0 1-.35 1.84 1.84 0 0 0 .7-.71 2.39 2.39 0 0 0 .26-1.21 2.41 2.41 0 0 0 -.26-1.21 1.91 1.91 0 0 0 -.7-.71 3 3 0 0 0 -1-.34 7 7 0 0 0 -1.12-.09h-2.56z" fill="#fff"/><path d="m102.52 61.78v9a5.86 5.86 0 0 0 .18 1.41 4.51 4.51 0 0 0 .61 1.36 3.68 3.68 0 0 0 4.54 1 3.28 3.28 0 0 0 1.11-1 4.06 4.06 0 0 0 .61-1.36 5.89 5.89 0 0 0 .19-1.41v-9h1.95v9.28a6 6 0 0 1 -.43 2.32 5.46 5.46 0 0 1 -1.18 1.81 5.23 5.23 0 0 1 -1.77 1.18 6.08 6.08 0 0 1 -4.39 0 5.29 5.29 0 0 1 -1.76-1.18 5.46 5.46 0 0 1 -1.18-1.81 6 6 0 0 1 -.43-2.32v-9.28z" fill="#fff"/><path d="m115.14 61.78h2v12.77h6.61v1.86h-8.56z" fill="#fff"/><path d="m130.2 61.78h1.8l6.15 14.63h-2.27l-1.44-3.62h-6.85l-1.43 3.62h-2.27zm3.49 9.28-2.69-6.72-2.72 6.72z" fill="#fff"/><path d="m140 61.78h5.06a5.93 5.93 0 0 1 2.28.38 3.77 3.77 0 0 1 1.41 1 3.17 3.17 0 0 1 .72 1.32 5.13 5.13 0 0 1 .21 1.41 3.72 3.72 0 0 1 -.25 1.36 3.68 3.68 0 0 1 -.7 1.17 3.92 3.92 0 0 1 -2.59 1.34l4.09 6.67h-2.44l-3.67-6.43h-2.18v6.45h-1.94zm1.95 6.45h2.57a7 7 0 0 0 1.12-.09 3 3 0 0 0 1-.35 1.84 1.84 0 0 0 .7-.71 2.39 2.39 0 0 0 .26-1.21 2.41 2.41 0 0 0 -.26-1.21 1.91 1.91 0 0 0 -.7-.71 3 3 0 0 0 -1-.34 7 7 0 0 0 -1.12-.09h-2.57z" fill="#fff"/><path d="m152.41 61.78h2v14.63h-2z" fill="#fff"/><path d="m161.07 63.64h-4.64v-1.86h11.22v1.86h-4.65v12.77h-2z" fill="#fff"/><path d="m173.12 70.17-5.45-8.39h2.5l3.92 6.43 4-6.43h2.37l-5.44 8.39v6.24h-1.95z" fill="#fff"/><path d="m181.27 69.22a1.29 1.29 0 0 1 -1-.4 1.34 1.34 0 0 1 -.39-1 1.37 1.37 0 0 1 1.34-1.37 1.38 1.38 0 0 1 1.34 1.37 1.31 1.31 0 0 1 -.4 1 1.26 1.26 0 0 1 -.89.4zm-1.34 6a1.34 1.34 0 0 1 .39-1 1.29 1.29 0 0 1 1-.4 1.26 1.26 0 0 1 .94.4 1.35 1.35 0 0 1 0 1.92 1.26 1.26 0 0 1 -.94.4 1.29 1.29 0 0 1 -1-.4 1.34 1.34 0 0 1 -.39-.97z" fill="#fff"/><path d="m211.47 62.9-5.73 13.51h-1.37l5.84-13.51h-6.91v-1.12h8.17z" fill="#fff"/><path d="m214.7 75.54a1 1 0 0 1 .28-.7 1 1 0 0 1 1.38 0 1 1 0 0 1 .29.7 1 1 0 0 1 -.29.7 1 1 0 0 1 -1.38 0 .94.94 0 0 1 -.28-.7z" fill="#fff"/><path d="m227.46 62.9h-5.93l-.07 4.65a3.05 3.05 0 0 1 1-.33 6.74 6.74 0 0 1 1.08-.09 4.31 4.31 0 0 1 1.87.39 4 4 0 0 1 1.4 1 4.63 4.63 0 0 1 .9 1.54 5.48 5.48 0 0 1 .32 1.87 4.77 4.77 0 0 1 -.42 2.06 4.22 4.22 0 0 1 -1.09 1.47 4.45 4.45 0 0 1 -1.48.87 4.84 4.84 0 0 1 -1.6.29 5 5 0 0 1 -2.64-.62 4.47 4.47 0 0 1 -1.65-1.82l1.26-.64a3 3 0 0 0 .49.77 3.73 3.73 0 0 0 .73.64 3.56 3.56 0 0 0 .87.44 3.11 3.11 0 0 0 1 .15 3.06 3.06 0 0 0 1-.21 3.6 3.6 0 0 0 1.06-.66 3.65 3.65 0 0 0 .81-1.09 3.38 3.38 0 0 0 .33-1.53 4.06 4.06 0 0 0 -.28-1.48 3.7 3.7 0 0 0 -.76-1.21 3.63 3.63 0 0 0 -1.15-.81 3.43 3.43 0 0 0 -1.43-.3 4 4 0 0 0 -1.5.28 5.79 5.79 0 0 0 -1.35.71l.12-7.46h7.1z" fill="#fff"/><path d="m235.57 72.81h-6.22v-1.46l5.75-9.57h1.69v9.92h2.21v1.11h-2.19v3.6h-1.22zm0-9.66-5.09 8.55h5.13z" fill="#fff"/><path d="m240.22 65.09a3.55 3.55 0 0 1 .27-1.39 3.76 3.76 0 0 1 .76-1.12 3.41 3.41 0 0 1 1.1-.77 3.47 3.47 0 0 1 2.73 0 3.41 3.41 0 0 1 1.1.77 3.76 3.76 0 0 1 .76 1.12 3.55 3.55 0 0 1 .27 1.39 3.5 3.5 0 0 1 -.27 1.38 3.81 3.81 0 0 1 -.76 1.13 3.39 3.39 0 0 1 -1.1.76 3.47 3.47 0 0 1 -2.73 0 3.39 3.39 0 0 1 -1.1-.76 3.81 3.81 0 0 1 -.76-1.13 3.5 3.5 0 0 1 -.27-1.38zm1.1 0a2.38 2.38 0 0 0 .19 1 2.55 2.55 0 0 0 .52.77 2.24 2.24 0 0 0 .76.52 2.35 2.35 0 0 0 1.85 0 2.24 2.24 0 0 0 .76-.52 2.55 2.55 0 0 0 .52-.77 2.38 2.38 0 0 0 .19-1 2.32 2.32 0 0 0 -.19-1 2.48 2.48 0 0 0 -.52-.78 2.41 2.41 0 0 0 -1.68-.7 2.24 2.24 0 0 0 -.93.19 2.21 2.21 0 0 0 -.76.51 2.48 2.48 0 0 0 -.52.78 2.32 2.32 0 0 0 -.19 1zm10.61-4 .93.58-9.29 15.45-.91-.58zm-3.68 12a3.54 3.54 0 0 1 .27-1.38 3.6 3.6 0 0 1 .75-1.13 3.71 3.71 0 0 1 1.11-.76 3.44 3.44 0 0 1 2.72 0 3.71 3.71 0 0 1 1.11.76 3.6 3.6 0 0 1 .75 1.13 3.57 3.57 0 0 1 0 2.77 3.44 3.44 0 0 1 -.75 1.12 3.57 3.57 0 0 1 -1.11.77 3.44 3.44 0 0 1 -2.72 0 3.57 3.57 0 0 1 -1.11-.77 3.44 3.44 0 0 1 -.75-1.12 3.55 3.55 0 0 1 -.27-1.38zm1.09 0a2.32 2.32 0 0 0 .2 1 2.48 2.48 0 0 0 .52.78 2.41 2.41 0 0 0 2.61.52 2.51 2.51 0 0 0 .76-.52 2.48 2.48 0 0 0 .52-.78 2.32 2.32 0 0 0 .19-1 2.38 2.38 0 0 0 -.19-1 2.55 2.55 0 0 0 -.52-.77 2.51 2.51 0 0 0 -.76-.52 2.36 2.36 0 0 0 -2.61.52 2.55 2.55 0 0 0 -.52.77 2.39 2.39 0 0 0 -.2 1.01z" fill="#fff"/></svg>