<svg xmlns="http://www.w3.org/2000/svg" viewBox="0 0 562.16 127.57"><defs></defs><g id="edbbfffc-feb4-4f8e-b943-b05a6e2c3752" data-name="Layer 2"><g id="aa9672c2-4f08-489e-94d2-f72257dbbd0e" data-name="Layer 1"><path class="svgtext" d="M3.36,44.24H0L12.32,15.92h2.8L27.44,44.24H24.08L21,36.8H6.48Zm4.2-10.08H19.84L13.72,19.28Z"/><path class="svgtext" d="M37.84,44.24h-3l-7.6-18.72H30.4l6,15.76h.08l6-15.76h3Z"/><path class="svgtext" d="M50.72,35.6a8.36,8.36,0,0,0,.68,2.64A6.92,6.92,0,0,0,55,41.8a6.46,6.46,0,0,0,2.6.52,6.67,6.67,0,0,0,3.66-1,7.26,7.26,0,0,0,2.34-2.24l2,1.68a10.17,10.17,0,0,1-3.7,3,10.29,10.29,0,0,1-4.34.92,10,10,0,0,1-3.86-.74,9.08,9.08,0,0,1-3.06-2.06,9.69,9.69,0,0,1-2-3.12,10.34,10.34,0,0,1-.74-3.92,10.52,10.52,0,0,1,.72-3.92,9.69,9.69,0,0,1,2-3.12,9.13,9.13,0,0,1,3-2.06,9.38,9.38,0,0,1,3.74-.66,9.19,9.19,0,0,1,3.8.76,8.15,8.15,0,0,1,4.56,5,10.62,10.62,0,0,1,.6,3.62v1.2Zm12.72-2.16a5.63,5.63,0,0,0-6.08-6,6.42,6.42,0,0,0-2.48.5,6.9,6.9,0,0,0-2.1,1.34,6.77,6.77,0,0,0-1.44,1.92,5,5,0,0,0-.54,2.24Z"/><path class="svgtext" d="M73.64,25.52c0,.51.09,1,.1,1.5s0,1,0,1.5h.08A6.3,6.3,0,0,1,75,27.08,7.45,7.45,0,0,1,76.52,26a8.1,8.1,0,0,1,1.78-.72,7,7,0,0,1,1.82-.18q3.6,0,5.32,1.9a7.78,7.78,0,0,1,1.72,5.42V44.24H84.52V33.88a8.81,8.81,0,0,0-1.08-4.8c-.72-1.11-2-1.66-4-1.66a8.39,8.39,0,0,0-1.12.16,5,5,0,0,0-1.94.88,6.33,6.33,0,0,0-1.82,2.16,8.37,8.37,0,0,0-.8,4v9.6H71.12V29.64q0-.77-.06-1.92c0-.77-.09-1.51-.14-2.2Z"/><path class="svgtext" d="M97.2,18.32a1.67,1.67,0,0,1-.15.76,1.63,1.63,0,0,1-.45.62,1.88,1.88,0,0,1-2.64,0,1.63,1.63,0,0,1-.45-.62,1.67,1.67,0,0,1-.15-.76A1.74,1.74,0,0,1,94,16.94a1.88,1.88,0,0,1,2.64,0,1.69,1.69,0,0,1,.43.63,1.75,1.75,0,0,1,.13.75Zm-.6,25.92H94V25.52h2.6Z"/><path class="svgtext" d="M103.24,31.36q0-1.24-.06-2.52c0-.85-.07-2-.1-3.32h2.6V29h.08a5.94,5.94,0,0,1,.8-1.46,6.27,6.27,0,0,1,1.26-1.26,6.14,6.14,0,0,1,1.72-.9,6.73,6.73,0,0,1,2.22-.34,7.45,7.45,0,0,1,2,.24l-.52,2.6a4.61,4.61,0,0,0-1.52-.2,5.35,5.35,0,0,0-2.6.58,5.85,5.85,0,0,0-1.8,1.48,6.33,6.33,0,0,0-1.06,1.94,6.46,6.46,0,0,0-.34,2V44.24h-2.64Z"/><path class="svgtext" d="M128.32,15.92h8.44a16.23,16.23,0,0,1,3.4.36,8.59,8.59,0,0,1,2.92,1.2,6.3,6.3,0,0,1,2,2.2,6.77,6.77,0,0,1,.76,3.36,6.08,6.08,0,0,1-5,6.22v.08a6.81,6.81,0,0,1,4.7,2.1,7.09,7.09,0,0,1,1.7,5,8.46,8.46,0,0,1-.34,2,6.9,6.9,0,0,1-1.42,2.62,9,9,0,0,1-3.12,2.26,13,13,0,0,1-5.44,1h-8.64Zm2.88,12.4H137a8.37,8.37,0,0,0,2.06-.26,5.26,5.26,0,0,0,1.84-.86,4.83,4.83,0,0,0,1.34-1.54,4.6,4.6,0,0,0,.52-2.3,6.51,6.51,0,0,0-.18-1.24,4.16,4.16,0,0,0-.8-1.6A5,5,0,0,0,140,19.14a7.49,7.49,0,0,0-3.24-.58H131.2Zm0,13.28h5.52a13.06,13.06,0,0,0,2.92-.32,7.25,7.25,0,0,0,2.36-1,4.92,4.92,0,0,0,1.58-1.66,4.66,4.66,0,0,0,.58-2.4,4.77,4.77,0,0,0-.39-2.3,4.87,4.87,0,0,0-1.41-1.86,8.64,8.64,0,0,0-5.28-1.36H131.2Z"/><path class="svgtext" d="M171.48,34.88a10.34,10.34,0,0,1-.74,3.92,9.33,9.33,0,0,1-2.06,3.12A9.51,9.51,0,0,1,165.54,44a10.71,10.71,0,0,1-4,.74,10.52,10.52,0,0,1-4-.74,9.28,9.28,0,0,1-5.2-5.18,10.72,10.72,0,0,1,0-7.84,9.28,9.28,0,0,1,5.2-5.18,10.52,10.52,0,0,1,4-.74,10.71,10.71,0,0,1,4,.74,9.51,9.51,0,0,1,3.14,2.06A9.33,9.33,0,0,1,170.74,31,10.34,10.34,0,0,1,171.48,34.88Zm-2.88,0a8.3,8.3,0,0,0-.5-2.92,7.29,7.29,0,0,0-1.42-2.36A6.83,6.83,0,0,0,164.46,28a7.77,7.77,0,0,0-5.88,0,6.28,6.28,0,0,0-2.2,1.58A7.07,7.07,0,0,0,155,32a8.74,8.74,0,0,0,0,5.84,7.07,7.07,0,0,0,1.4,2.36,6.28,6.28,0,0,0,2.2,1.58,7.77,7.77,0,0,0,5.88,0,6.83,6.83,0,0,0,2.22-1.58,7.29,7.29,0,0,0,1.42-2.36A8.3,8.3,0,0,0,168.6,34.88Z"/><path class="svgtext" d="M195.2,34.88a10.34,10.34,0,0,1-.74,3.92,9.33,9.33,0,0,1-2.06,3.12A9.51,9.51,0,0,1,189.26,44a10.71,10.71,0,0,1-4,.74,10.52,10.52,0,0,1-4-.74,9.28,9.28,0,0,1-5.2-5.18,10.72,10.72,0,0,1,0-7.84,9.28,9.28,0,0,1,5.2-5.18,10.52,10.52,0,0,1,4-.74,10.71,10.71,0,0,1,4,.74,9.51,9.51,0,0,1,3.14,2.06A9.33,9.33,0,0,1,194.46,31,10.34,10.34,0,0,1,195.2,34.88Zm-2.88,0a8.3,8.3,0,0,0-.5-2.92,7.29,7.29,0,0,0-1.42-2.36A6.83,6.83,0,0,0,188.18,28a7.77,7.77,0,0,0-5.88,0,6.28,6.28,0,0,0-2.2,1.58A7.07,7.07,0,0,0,178.7,32a8.74,8.74,0,0,0,0,5.84,7.24,7.24,0,0,0,1.4,2.36,6.28,6.28,0,0,0,2.2,1.58,7.77,7.77,0,0,0,5.88,0,6.83,6.83,0,0,0,2.22-1.58,7.29,7.29,0,0,0,1.42-2.36A8.3,8.3,0,0,0,192.32,34.88Z"/><path class="svgtext" d="M202.64,34l8.84-8.44h4l-9.36,8.56,10.32,10.16h-4.08l-9.72-9.84v9.84H200V14h2.64Z"/><path class="svgtext" d="M12.56,76.64h2.72L27.2,105h-3l-3.08-7.52h-15L3,105H.2Zm1.24,2.88L7.2,95h13Z"/><path class="svgtext" d="M27.28,86.48H30l6.16,15.88,6-15.88H44.6L37.32,105H34.84Z"/><path class="svgtext" d="M64.72,101.48a8.05,8.05,0,0,1-3.46,3,11.07,11.07,0,0,1-4.54.92,9.89,9.89,0,0,1-3.84-.72,8.68,8.68,0,0,1-3-2A8.8,8.8,0,0,1,48,99.62a11.25,11.25,0,0,1-.66-3.94A10.7,10.7,0,0,1,48,91.8a9.17,9.17,0,0,1,2-3,9,9,0,0,1,2.92-2,9.32,9.32,0,0,1,3.72-.74,9.05,9.05,0,0,1,3.74.74,8.35,8.35,0,0,1,4.38,4.78,9.19,9.19,0,0,1,.56,3.16v1.68H49.76a7.93,7.93,0,0,0,.3,1.94,7,7,0,0,0,3.24,4.22,6.73,6.73,0,0,0,3.46.8,7.62,7.62,0,0,0,3.56-.88A6.34,6.34,0,0,0,63,100Zm-1.84-7.32a5.63,5.63,0,0,0-.5-2.32,6.3,6.3,0,0,0-3.4-3.2,6.66,6.66,0,0,0-2.5-.48,6.19,6.19,0,0,0-3.26.8,7.21,7.21,0,0,0-3.14,3.84,5.57,5.57,0,0,0-.32,1.34Z"/><path class="svgtext" d="M70.64,91.68V90.42a12.62,12.62,0,0,0-.06-1.5c-.06-.5,0-1-.06-1.42a5.44,5.44,0,0,1,0-1h2.4c0,.69,0,1.36.06,2a6.42,6.42,0,0,0,.1,1.24h.12a6.45,6.45,0,0,1,2.4-2.62A7,7,0,0,1,79.52,86,8,8,0,0,1,83,86.7a5.69,5.69,0,0,1,2.14,1.78A6.74,6.74,0,0,1,86.26,91a15.11,15.11,0,0,1,.3,3v11h-2.4V94.08A12.28,12.28,0,0,0,84,91.9a5.88,5.88,0,0,0-.7-1.9,3.6,3.6,0,0,0-1.4-1.34,4.87,4.87,0,0,0-2.34-.5,6.71,6.71,0,0,0-2.5.46A5.41,5.41,0,0,0,75,90a6.81,6.81,0,0,0-1.36,2.36,10.25,10.25,0,0,0-.5,3.34V105h-2.4Z"/><path class="svgtext" d="M92.68,79.16a1.8,1.8,0,0,1,1.45-1.73,1.8,1.8,0,0,1,1.18.19,1.77,1.77,0,0,1,.85,2.09,1.78,1.78,0,0,1-3,.73,1.69,1.69,0,0,1-.39-.59,1.63,1.63,0,0,1-.13-.69Zm.6,7.32h2.4V105h-2.4Z"/><path class="svgtext" d="M102.48,91.68V90.42a12.62,12.62,0,0,0-.06-1.5c-.06-.5,0-1-.06-1.42a5.44,5.44,0,0,1,0-1h2.4c0,.69,0,1.36.06,2a6.42,6.42,0,0,0,.1,1.24,8.21,8.21,0,0,1,2.36-2.68,5.88,5.88,0,0,1,3.52-1,4,4,0,0,1,.7.06l.7.14-.28,2.36a2.92,2.92,0,0,0-.92-.16,6.75,6.75,0,0,0-2.7.5,5,5,0,0,0-1.88,1.38,5.87,5.87,0,0,0-1.1,2.06,8.39,8.39,0,0,0-.36,2.54v10h-2.4Z"/><path class="svgtext" d="M126.88,76.64h2.64v25.92h13.2V105H126.88Z"/><path class="svgtext" d="M146,79.16a1.8,1.8,0,0,1,1.45-1.73,1.8,1.8,0,0,1,1.18.19,1.77,1.77,0,0,1,.85,2.09,1.78,1.78,0,0,1-3,.73,1.69,1.69,0,0,1-.39-.59,1.63,1.63,0,0,1-.13-.69Zm.6,7.32H149V105h-2.4Z"/><path class="svgtext" d="M174.36,103.8a13.25,13.25,0,0,1-1,5.56,8.76,8.76,0,0,1-2.5,3.28,8.32,8.32,0,0,1-3.22,1.56,13.68,13.68,0,0,1-3.12.4,14.79,14.79,0,0,1-2.74-.26,13.26,13.26,0,0,1-2.54-.76,10.59,10.59,0,0,1-2.18-1.22,8.81,8.81,0,0,1-1.7-1.64l1.88-1.76a7.62,7.62,0,0,0,3.2,2.64,10.07,10.07,0,0,0,4.08.84,8.63,8.63,0,0,0,3.1-.48,6.24,6.24,0,0,0,2.08-1.26,5.92,5.92,0,0,0,1.3-1.76,8.46,8.46,0,0,0,.68-1.88,9.67,9.67,0,0,0,.26-1.78v-3.92h-.08A7.3,7.3,0,0,1,169,104a8.68,8.68,0,0,1-4.18,1,9.91,9.91,0,0,1-3.84-.74,9.58,9.58,0,0,1-5.26-5,9.07,9.07,0,0,1,0-7.36,9.62,9.62,0,0,1,2.12-3A10.33,10.33,0,0,1,161,86.8a9.75,9.75,0,0,1,3.84-.76A8.68,8.68,0,0,1,169,87a7.3,7.3,0,0,1,2.82,2.64H172v-3.2h2.4ZM172,95.48a7,7,0,0,0-.58-2.86,7.29,7.29,0,0,0-3.88-3.88,7.34,7.34,0,0,0-5.72,0A7.25,7.25,0,0,0,158,92.62a7.34,7.34,0,0,0,0,5.72,7.29,7.29,0,0,0,3.88,3.88,7.34,7.34,0,0,0,5.72,0,7.29,7.29,0,0,0,3.88-3.88A7,7,0,0,0,172,95.48Z"/><path class="svgtext" d="M180.24,74.72h2.4v15h.08a6.45,6.45,0,0,1,2.4-2.62A7,7,0,0,1,189,86a8,8,0,0,1,3.52.68,5.77,5.77,0,0,1,2.14,1.78A6.74,6.74,0,0,1,195.74,91a15.11,15.11,0,0,1,.3,3v11h-2.4V94.08a12.28,12.28,0,0,0-.2-2.18,5.88,5.88,0,0,0-.7-1.9,3.68,3.68,0,0,0-1.4-1.34,4.87,4.87,0,0,0-2.34-.5,6.71,6.71,0,0,0-2.5.46,5.41,5.41,0,0,0-2,1.4,6.81,6.81,0,0,0-1.36,2.36,10.25,10.25,0,0,0-.5,3.34V105h-2.4Z"/><path class="svgtext" d="M211.52,88.64h-5.28v12a2.76,2.76,0,0,0,.14,1,2.63,2.63,0,0,0,.54.89,2.52,2.52,0,0,0,.87.53,2.48,2.48,0,0,0,1,.15,5.33,5.33,0,0,0,1.38-.18,7.85,7.85,0,0,0,1.34-.46l.2,2.16a12,12,0,0,1-1.56.44,7.41,7.41,0,0,1-1.56.2,5.7,5.7,0,0,1-2.2-.38,3.74,3.74,0,0,1-1.48-1,3.93,3.93,0,0,1-.82-1.5,6.48,6.48,0,0,1-.26-1.86v-12h-4V86.48h4V81.16h2.4v5.32h5.28Z"/><path class="svgtext" d="M277,1.92h3.84V13.68h14.68V1.92h3.84V30.24h-3.84v-13H280.84v13H277Z"/><path class="svgtext" d="M308.44,22.08a4.68,4.68,0,0,0,.54,2.26,5.57,5.57,0,0,0,1.38,1.74,6.68,6.68,0,0,0,2,1.12,7.24,7.24,0,0,0,2.4.4,5.45,5.45,0,0,0,2.92-.78A9.33,9.33,0,0,0,320,24.76l2.72,2.08a10,10,0,0,1-8.4,3.88,10.46,10.46,0,0,1-4.06-.76,9,9,0,0,1-3.08-2.1,9.37,9.37,0,0,1-1.94-3.16,11.27,11.27,0,0,1-.68-3.94,10.41,10.41,0,0,1,.74-3.94,9.17,9.17,0,0,1,5.1-5.26,10,10,0,0,1,3.92-.76,9.22,9.22,0,0,1,4.26.88A8.41,8.41,0,0,1,321.4,14a9.05,9.05,0,0,1,1.62,3.2,13.46,13.46,0,0,1,.5,3.62v1.28ZM319.8,19.2a7.81,7.81,0,0,0-.38-2.2,4.88,4.88,0,0,0-1-1.74,4.73,4.73,0,0,0-1.7-1.16,6.32,6.32,0,0,0-2.36-.42,5.77,5.77,0,0,0-2.42.5,5.9,5.9,0,0,0-3,3.08,4.8,4.8,0,0,0-.42,1.94Z"/><path class="svgtext" d="M328,13.6a10.18,10.18,0,0,1,3.52-2.1,11.86,11.86,0,0,1,4-.7,10.9,10.9,0,0,1,3.58.52,6.93,6.93,0,0,1,2.46,1.4,5.67,5.67,0,0,1,1.42,2,6.26,6.26,0,0,1,.46,2.38V28.62a16,16,0,0,0,.12,1.6h-3.2q-.12-1.44-.12-2.88h-.08a6.91,6.91,0,0,1-2.84,2.6,8.88,8.88,0,0,1-3.8.76,9,9,0,0,1-2.52-.36,6.17,6.17,0,0,1-2.1-1.08,5.23,5.23,0,0,1-1.42-1.78A5.5,5.5,0,0,1,327,25a5.39,5.39,0,0,1,.82-3.08,6.16,6.16,0,0,1,2.24-2,10.86,10.86,0,0,1,3.32-1.12,23,23,0,0,1,4.06-.34h2.64v-.8A3.93,3.93,0,0,0,337.56,14a5.27,5.27,0,0,0-2-.34,7.47,7.47,0,0,0-1.82.2,8,8,0,0,0-1.42.5,6,6,0,0,0-1.16.7l-1,.76Zm10.16,7.48a25.55,25.55,0,0,0-2.62.14,10.25,10.25,0,0,0-2.44.54,4.76,4.76,0,0,0-1.8,1.12,2.52,2.52,0,0,0-.54.85,2.54,2.54,0,0,0-.16,1,2.55,2.55,0,0,0,.24,1.33,2.61,2.61,0,0,0,.86,1,5.35,5.35,0,0,0,3,.72,5.88,5.88,0,0,0,2.52-.5,4.85,4.85,0,0,0,1.68-1.3,5,5,0,0,0,.92-1.78,6.69,6.69,0,0,0,.28-1.94v-1.2Z"/><path class="svgtext" d="M367.72,30.24h-3.6V27.52H364a6.92,6.92,0,0,1-2.86,2.36,8.81,8.81,0,0,1-3.74.84,10,10,0,0,1-4-.76,8.81,8.81,0,0,1-3-2.12,9.47,9.47,0,0,1-1.94-3.16,11.12,11.12,0,0,1-.68-3.92,11.27,11.27,0,0,1,.68-3.94,9.37,9.37,0,0,1,1.94-3.16,9.1,9.1,0,0,1,3-2.1,10.17,10.17,0,0,1,4-.76,8.8,8.8,0,0,1,3.84.86A6.53,6.53,0,0,1,364,14h.08V0h3.6Zm-9.84-2.88a6.61,6.61,0,0,0,2.6-.5,5.73,5.73,0,0,0,2-1.36,6,6,0,0,0,1.24-2.08,8.22,8.22,0,0,0,0-5.32A6,6,0,0,0,362.48,16a5.73,5.73,0,0,0-2-1.36,7,7,0,0,0-5.2,0,5.73,5.73,0,0,0-2,1.36,6.1,6.1,0,0,0-1.2,2.06,8.22,8.22,0,0,0,0,5.32,6,6,0,0,0,1.28,2.1,5.73,5.73,0,0,0,2,1.36,6.59,6.59,0,0,0,2.52.5Z"/><path class="svgtext" d="M372.6,4.48a2.64,2.64,0,0,1,.59-1.69,2.71,2.71,0,0,1,1.53-.94,2.67,2.67,0,0,1,1.78.26,2.6,2.6,0,0,1,1.21,1.32,2.63,2.63,0,0,1,.1,1.79,2.73,2.73,0,0,1-1.07,1.45,2.65,2.65,0,0,1-3.36-.33,2.57,2.57,0,0,1-.78-1.86Zm.84,6.8H377v19h-3.6Z"/><path class="svgtext" d="M382.76,11.28h3.6V14.2h.08a5.36,5.36,0,0,1,2.36-2.46,7.74,7.74,0,0,1,3.88-.94,8.35,8.35,0,0,1,2.62.42,5.92,5.92,0,0,1,2.2,1.3,6.26,6.26,0,0,1,1.5,2.26,8.85,8.85,0,0,1,.56,3.26v12.2H396V19.08a6.23,6.23,0,0,0-.36-2.26,4.28,4.28,0,0,0-1-1.52,3.57,3.57,0,0,0-1.38-.84,5.23,5.23,0,0,0-1.62-.26,5.91,5.91,0,0,0-2.08.36,4.3,4.3,0,0,0-1.68,1.14,5.49,5.49,0,0,0-1.12,2,9.12,9.12,0,0,0-.4,2.84V30.3h-3.6Z"/><path class="svgtext" d="M424,30.08a10.22,10.22,0,0,1-.74,3.94,8.89,8.89,0,0,1-2.1,3.08,9.63,9.63,0,0,1-3.28,2,12,12,0,0,1-4.24.72,15.4,15.4,0,0,1-5-.76,12.17,12.17,0,0,1-4.3-2.64l2.44-3a10.05,10.05,0,0,0,3,2.3,8.55,8.55,0,0,0,3.72.78,8.17,8.17,0,0,0,3.32-.58,5.91,5.91,0,0,0,2.1-1.5,5.3,5.3,0,0,0,1.1-2.1,9.16,9.16,0,0,0,.32-2.38V27.08h-.12a6.31,6.31,0,0,1-2.82,2.54,8.94,8.94,0,0,1-3.74.82,10,10,0,0,1-3.86-.74,8.92,8.92,0,0,1-3.06-2,9.41,9.41,0,0,1-2-3.08,10.21,10.21,0,0,1-.72-3.86,11,11,0,0,1,.68-3.9,9.46,9.46,0,0,1,1.94-3.18,8.81,8.81,0,0,1,3-2.12,10,10,0,0,1,4-.76,8.81,8.81,0,0,1,3.74.84A6.92,6.92,0,0,1,420.24,14h.12V11.28H424Zm-9.84-15.92a6.61,6.61,0,0,0-2.6.5,5.73,5.73,0,0,0-2,1.36,6.1,6.1,0,0,0-1.2,2.06,7.74,7.74,0,0,0-.44,2.66,6.35,6.35,0,0,0,.38,2.48,6.28,6.28,0,0,0,1.3,2.14,6.85,6.85,0,0,0,9.12,0,6.44,6.44,0,0,0,1.3-2.14,6.35,6.35,0,0,0,.38-2.48,7.74,7.74,0,0,0-.44-2.66A6,6,0,0,0,418.72,16a5.73,5.73,0,0,0-2-1.36,6.58,6.58,0,0,0-2.56-.48Z"/><path class="svgtext" d="M449.08,22.24h-9.84V18.88h9.84Z"/><path class="svgtext" d="M475,24H463V20.08L474.24,1.92h4.64V20.64h4V24h-4v6.24H475Zm0-17.52H475l-8.6,14.16h8.72Z"/><path class="svgtext" d="M485.2,16.08a22.8,22.8,0,0,1,.16-3.24,21.71,21.71,0,0,1,.58-3.3,17.13,17.13,0,0,1,1.12-3.1,9.28,9.28,0,0,1,1.8-2.58,8.53,8.53,0,0,1,2.6-1.76,9.61,9.61,0,0,1,7,0,8.53,8.53,0,0,1,2.6,1.76,9.28,9.28,0,0,1,1.8,2.58A17.13,17.13,0,0,1,504,9.54a21.71,21.71,0,0,1,.58,3.3c.11,1.12.16,2.2.16,3.24a30.88,30.88,0,0,1-.4,4.8,16.56,16.56,0,0,1-1.48,4.76,10,10,0,0,1-3,3.64,9.06,9.06,0,0,1-9.8,0,9.89,9.89,0,0,1-3-3.64,16.56,16.56,0,0,1-1.48-4.76,29.67,29.67,0,0,1-.36-4.8Zm3.84,0c0,.93.06,2,.18,3.32a16.7,16.7,0,0,0,.78,3.7,7.9,7.9,0,0,0,1.78,3,4.7,4.7,0,0,0,6.36,0,8.17,8.17,0,0,0,1.78-3,16.7,16.7,0,0,0,.78-3.7c.12-1.28.18-2.39.18-3.32,0-.64,0-1.37-.06-2.18a18.82,18.82,0,0,0-.28-2.48A15.86,15.86,0,0,0,499.92,9a8.42,8.42,0,0,0-1.06-2.12,5.05,5.05,0,0,0-1.62-1.5,4.92,4.92,0,0,0-4.56,0,5.05,5.05,0,0,0-1.62,1.5A8.1,8.1,0,0,0,490,9a15.86,15.86,0,0,0-.62,2.44,18.82,18.82,0,0,0-.28,2.48C489.06,14.71,489,15.44,489,16.08Z"/><path class="svgtext" d="M519.92,11.28h3.6V14h.08a6.92,6.92,0,0,1,2.86-2.36,8.81,8.81,0,0,1,3.74-.84,10.17,10.17,0,0,1,4,.76,8.81,8.81,0,0,1,3,2.12,9.46,9.46,0,0,1,1.94,3.18,11,11,0,0,1,.68,3.9,11.27,11.27,0,0,1-.68,3.94,9.37,9.37,0,0,1-1.94,3.16,9.1,9.1,0,0,1-3,2.1,10.17,10.17,0,0,1-4,.76,8.8,8.8,0,0,1-3.84-.86,6.53,6.53,0,0,1-2.76-2.34h-.08v14h-3.6Zm9.84,2.88a6.61,6.61,0,0,0-2.6.5,5.73,5.73,0,0,0-2,1.36,6.1,6.1,0,0,0-1.2,2.06,8.22,8.22,0,0,0,0,5.32,6,6,0,0,0,1.24,2.08,5.73,5.73,0,0,0,2,1.36,7,7,0,0,0,5.2,0,5.73,5.73,0,0,0,2-1.36,6,6,0,0,0,1.24-2.08,8.22,8.22,0,0,0,0-5.32A6,6,0,0,0,534.4,16a5.73,5.73,0,0,0-2-1.36A6.65,6.65,0,0,0,529.76,14.16Z"/><path class="svgtext" d="M549.56,20.08l-6.72-8.84h4.64l4.6,6.72,4.52-6.72H561l-6.48,8.84,7.68,10.12h-4.64l-5.6-8-5.6,8h-4.44Z"/><path class="svgtext" d="M275.86,66.13a3.89,3.89,0,0,0,1.59,1.39,4.78,4.78,0,0,0,2,.44,3.86,3.86,0,0,0,1.17-.18,3.76,3.76,0,0,0,1.1-.54,3,3,0,0,0,.8-.89,2.36,2.36,0,0,0,.31-1.22,1.78,1.78,0,0,0-.14-.82,1.8,1.8,0,0,0-.48-.68,5.48,5.48,0,0,0-1.55-.86c-.62-.24-1.29-.46-2-.68a7.67,7.67,0,0,1-2-.9,5.06,5.06,0,0,1-1.55-1.54,4.83,4.83,0,0,1-.62-2.63,4.3,4.3,0,0,1,.32-1.59,4.56,4.56,0,0,1,1-1.53,5.6,5.6,0,0,1,1.79-1.17,6.58,6.58,0,0,1,2.63-.46,8.87,8.87,0,0,1,2.66.38,4.56,4.56,0,0,1,2.28,1.55l-1.87,1.7a3.25,3.25,0,0,0-1.22-1.08,3.88,3.88,0,0,0-1.8-.4,4.36,4.36,0,0,0-1.6.25,3,3,0,0,0-1,.65,2.13,2.13,0,0,0-.54.85A2.66,2.66,0,0,0,277,57a2.24,2.24,0,0,0,.13.89,2.06,2.06,0,0,0,.5.76,4.74,4.74,0,0,0,1.55.94,17.29,17.29,0,0,0,2,.65,8.45,8.45,0,0,1,2,.8,4.92,4.92,0,0,1,1.55,1.39,4.12,4.12,0,0,1,.62,2.42,5.06,5.06,0,0,1-.47,2.2,4.76,4.76,0,0,1-1.26,1.66,5.54,5.54,0,0,1-1.87,1,7.47,7.47,0,0,1-2.3.36,8.43,8.43,0,0,1-3.1-.57A5.12,5.12,0,0,1,274,67.73Z"/><path class="svgtext" d="M298.23,69.68h-2.16V67.93a3.21,3.21,0,0,1-1.42,1.47,4.62,4.62,0,0,1-2.33.57,5,5,0,0,1-1.58-.25,3.57,3.57,0,0,1-1.31-.78,4,4,0,0,1-.9-1.36,5.26,5.26,0,0,1-.33-2V58.26h2.16V65a4,4,0,0,0,.21,1.36,2.57,2.57,0,0,0,.58.91,2.3,2.3,0,0,0,.83.51,3.37,3.37,0,0,0,1,.15,3.77,3.77,0,0,0,1.25-.21,2.68,2.68,0,0,0,1-.69,3.21,3.21,0,0,0,.68-1.19,5.42,5.42,0,0,0,.24-1.7V58.26h2.16Z"/><path class="svgtext" d="M301.49,51.52h2.16v8.4h.05a3.93,3.93,0,0,1,1.65-1.4,5.41,5.41,0,0,1,2.31-.51,6.12,6.12,0,0,1,2.39.45,5.46,5.46,0,0,1,1.82,1.26,5.72,5.72,0,0,1,1.16,1.9,7,7,0,0,1,0,4.71,5.72,5.72,0,0,1-1.16,1.9,5.17,5.17,0,0,1-1.82,1.29,6.13,6.13,0,0,1-2.39.46,5.29,5.29,0,0,1-2.25-.51,4,4,0,0,1-1.71-1.41h-.05v1.63h-2.16Zm5.9,16.41a3.8,3.8,0,0,0,1.56-.3,3.32,3.32,0,0,0,1.18-.81,3.6,3.6,0,0,0,.74-1.25,4.85,4.85,0,0,0,0-3.19,3.6,3.6,0,0,0-.74-1.25,3.22,3.22,0,0,0-1.18-.82,3.8,3.8,0,0,0-1.56-.3,3.94,3.94,0,0,0-1.56.3,3.54,3.54,0,0,0-1.17.82,3.63,3.63,0,0,0-.75,1.25,4.78,4.78,0,0,0-.26,1.59,4.83,4.83,0,0,0,.26,1.6,3.63,3.63,0,0,0,.75,1.25,3.51,3.51,0,0,0,1.17.81,4,4,0,0,0,1.56.32Z"/><path class="svgtext" d="M323.38,52.69h2.3v7.05h8.81V52.69h2.3v17h-2.3V61.91h-8.81v7.78h-2.3Z"/><path class="svgtext" d="M342.24,64.78a2.82,2.82,0,0,0,.33,1.36,3.15,3.15,0,0,0,.85,1,3.86,3.86,0,0,0,1.22.68,4.4,4.4,0,0,0,1.44.24,3.26,3.26,0,0,0,1.75-.47,5.47,5.47,0,0,0,1.34-1.2l1.63,1.25a6,6,0,0,1-5,2.33,6.14,6.14,0,0,1-2.43-.46,5.21,5.21,0,0,1-1.85-1.26,5.68,5.68,0,0,1-1.16-1.89A6.61,6.61,0,0,1,340,64a6.14,6.14,0,0,1,.44-2.36,6,6,0,0,1,1.23-1.9,5.7,5.7,0,0,1,1.85-1.21,5.92,5.92,0,0,1,2.35-.45,5.61,5.61,0,0,1,2.55.52A5.12,5.12,0,0,1,350.09,60a5.43,5.43,0,0,1,1,1.92,8,8,0,0,1,.3,2.18v.76Zm6.82-1.72a4.58,4.58,0,0,0-.23-1.32,3.08,3.08,0,0,0-.61-1.05,2.76,2.76,0,0,0-1-.69,3.66,3.66,0,0,0-1.43-.26,3.46,3.46,0,0,0-1.45.3,3.54,3.54,0,0,0-1.83,1.85,3.15,3.15,0,0,0-.25,1.17Z"/><path class="svgtext" d="M354,59.7a6.05,6.05,0,0,1,2.11-1.26,7.26,7.26,0,0,1,2.4-.42,6.51,6.51,0,0,1,2.15.31,4.27,4.27,0,0,1,1.48.84,3.32,3.32,0,0,1,.85,1.21,3.87,3.87,0,0,1,.28,1.43v6.91a4.81,4.81,0,0,0,.07,1h-1.9c0-.58-.07-1.15-.07-1.73a4.19,4.19,0,0,1-1.7,1.56,5.29,5.29,0,0,1-2.28.46,5.16,5.16,0,0,1-1.51-.22,3.52,3.52,0,0,1-1.26-.65,3.05,3.05,0,0,1-.86-1.06,3.42,3.42,0,0,1-.31-1.48,3.36,3.36,0,0,1,.49-1.85,3.74,3.74,0,0,1,1.3-1.23,6.38,6.38,0,0,1,2-.67,14.19,14.19,0,0,1,2.44-.21h1.58v-.48a2.31,2.31,0,0,0-.17-.86,2.22,2.22,0,0,0-.5-.78,2.45,2.45,0,0,0-.84-.55,3.07,3.07,0,0,0-1.2-.21,4,4,0,0,0-1.09.12,4.08,4.08,0,0,0-1.55.72l-.6.46Zm6.1,4.51a10.72,10.72,0,0,0-1.57.08,6.25,6.25,0,0,0-1.47.33,2.81,2.81,0,0,0-1.08.67,1.52,1.52,0,0,0-.32.51,1.5,1.5,0,0,0-.1.59,1.58,1.58,0,0,0,.14.8,1.65,1.65,0,0,0,.52.62,3.28,3.28,0,0,0,1.79.43,3.4,3.4,0,0,0,1.51-.3,2.83,2.83,0,0,0,1-.78,3.11,3.11,0,0,0,.55-1.07,4.17,4.17,0,0,0,.17-1.16v-.72Z"/><path class="svgtext" d="M377.81,69.68h-2.16V68.05a4,4,0,0,1-1.71,1.41,5.29,5.29,0,0,1-2.25.51,6.13,6.13,0,0,1-2.39-.46,5.25,5.25,0,0,1-1.82-1.27,5.72,5.72,0,0,1-1.16-1.9,7,7,0,0,1,0-4.71,5.72,5.72,0,0,1,1.16-1.9,5.37,5.37,0,0,1,1.77-1.21,6.12,6.12,0,0,1,2.39-.45,5.41,5.41,0,0,1,2.31.51A3.89,3.89,0,0,1,375.6,60V51.52h2.16ZM371.91,68a3.94,3.94,0,0,0,1.56-.3,3.51,3.51,0,0,0,1.17-.81,3.63,3.63,0,0,0,.75-1.25,4.88,4.88,0,0,0,.26-1.6,4.78,4.78,0,0,0-.26-1.59,3.63,3.63,0,0,0-.75-1.25,3.54,3.54,0,0,0-1.17-.82,3.94,3.94,0,0,0-1.56-.3,3.8,3.8,0,0,0-1.56.3,3.22,3.22,0,0,0-1.18.82,3.6,3.6,0,0,0-.74,1.25,4.54,4.54,0,0,0-.27,1.59,4.6,4.6,0,0,0,.27,1.6,3.6,3.6,0,0,0,.74,1.25,3.32,3.32,0,0,0,1.18.81A3.8,3.8,0,0,0,371.91,68Z"/><path class="svgtext" d="M380.74,54.22a1.62,1.62,0,0,1,.12-.61,1.46,1.46,0,0,1,.35-.5,1.5,1.5,0,0,1,.51-.35,1.53,1.53,0,0,1,.6-.12,1.58,1.58,0,0,1,.61.12,1.69,1.69,0,0,1,.86.86,1.59,1.59,0,0,1,0,1.21,1.69,1.69,0,0,1-.86.86,1.58,1.58,0,0,1-.61.12,1.53,1.53,0,0,1-.6-.12,1.69,1.69,0,0,1-.86-.86A1.28,1.28,0,0,1,380.74,54.22Zm.5,4.08h2.16V69.68h-2.16Z"/><path class="svgtext" d="M386.83,58.3H389v1.76H389a3.18,3.18,0,0,1,1.42-1.48,4.61,4.61,0,0,1,2.33-.56,5,5,0,0,1,1.57.25,3.61,3.61,0,0,1,1.32.78,3.86,3.86,0,0,1,.9,1.35,5.26,5.26,0,0,1,.33,2v7.32h-2.16V63a4,4,0,0,0-.21-1.36,2.72,2.72,0,0,0-.58-.91,2.08,2.08,0,0,0-.83-.5,2.83,2.83,0,0,0-1-.16,3.33,3.33,0,0,0-1.25.22,2.55,2.55,0,0,0-1,.68,3.21,3.21,0,0,0-.68,1.19,5.42,5.42,0,0,0-.24,1.7v5.86H386.8Z"/><path class="svgtext" d="M411.58,69.58a6,6,0,0,1-.45,2.37,5.21,5.21,0,0,1-1.26,1.85,5.71,5.71,0,0,1-2,1.21,7.16,7.16,0,0,1-2.55.43,9.26,9.26,0,0,1-3-.46,7.31,7.31,0,0,1-2.58-1.58l1.47-1.82A6.31,6.31,0,0,0,403,73a5.19,5.19,0,0,0,2.23.46,5.08,5.08,0,0,0,2-.34,3.78,3.78,0,0,0,1.26-.9,3.39,3.39,0,0,0,.66-1.26,5.79,5.79,0,0,0,.19-1.43V67.81h-.07a3.8,3.8,0,0,1-1.7,1.52,5.26,5.26,0,0,1-2.24.49,6,6,0,0,1-2.32-.44,5.44,5.44,0,0,1-3-3.07,6.16,6.16,0,0,1-.43-2.32,6.66,6.66,0,0,1,.4-2.34,5.69,5.69,0,0,1,1.17-1.91A5.25,5.25,0,0,1,403,58.47a6.12,6.12,0,0,1,2.39-.45,5.24,5.24,0,0,1,2.24.5,4.17,4.17,0,0,1,1.72,1.42h.05V58.3h2.16ZM405.67,60a3.94,3.94,0,0,0-1.56.3,3.54,3.54,0,0,0-1.17.82,3.63,3.63,0,0,0-.75,1.25,4.78,4.78,0,0,0-.26,1.59,3.78,3.78,0,0,0,1,2.77,4.09,4.09,0,0,0,5.47,0,3.83,3.83,0,0,0,.78-1.28A4,4,0,0,0,409.4,64a4.54,4.54,0,0,0-.27-1.59,3.6,3.6,0,0,0-.74-1.25,3.22,3.22,0,0,0-1.18-.82,3.88,3.88,0,0,0-1.54-.3Z"/><path class="svgtext" d="M426.63,64.88h-5.91v-2h5.91Z"/><path class="svgtext" d="M435.24,67.23l6.82-6.77a6.78,6.78,0,0,0,.69-.73,4.87,4.87,0,0,0,.6-.83,3.76,3.76,0,0,0,.42-.91,3.08,3.08,0,0,0,.16-1,2.68,2.68,0,0,0-.23-1.12,2.4,2.4,0,0,0-.62-.86,3,3,0,0,0-.94-.54,3.68,3.68,0,0,0-1.14-.19,3,3,0,0,0-2.06.7,3.16,3.16,0,0,0-1,1.92l-2.49-.22a5.25,5.25,0,0,1,.66-2,4.62,4.62,0,0,1,1.22-1.38,5,5,0,0,1,1.68-.82,7.56,7.56,0,0,1,2.06-.26,7.25,7.25,0,0,1,2.07.3,5.06,5.06,0,0,1,1.71.88A4.23,4.23,0,0,1,446,54.87a4.65,4.65,0,0,1,.42,2.05,5.14,5.14,0,0,1-.25,1.6,7,7,0,0,1-.66,1.38,10,10,0,0,1-.94,1.23c-.35.38-.72.76-1.1,1.12l-5.6,5.4h8.55v2H435.24Z"/><path class="svgtext" d="M455.55,65.94H448.3V63.58l6.77-10.89h2.78V63.92h2.4v2h-2.4v3.74h-2.3Zm0-10.52-5.19,8.5h5.24Z"/><path class="svgtext" d="M469.17,58.3h2.16v1.64A4.15,4.15,0,0,1,473,58.52a5.28,5.28,0,0,1,2.25-.5,6.12,6.12,0,0,1,2.39.45,5.39,5.39,0,0,1,1.82,1.27,5.76,5.76,0,0,1,1.16,1.91,7,7,0,0,1,0,4.71,5.68,5.68,0,0,1-1.16,1.89,5.36,5.36,0,0,1-1.82,1.26,6,6,0,0,1-2.39.46,5.14,5.14,0,0,1-2.31-.52,3.93,3.93,0,0,1-1.65-1.4v8.4h-2.16Zm5.9,1.73a4,4,0,0,0-1.56.3,3.54,3.54,0,0,0-1.17.82,3.63,3.63,0,0,0-.75,1.25,4.78,4.78,0,0,0-.26,1.59,4.83,4.83,0,0,0,.26,1.6,3.79,3.79,0,0,0,.75,1.25,3.51,3.51,0,0,0,1.17.81,4,4,0,0,0,1.56.3,3.77,3.77,0,0,0,1.56-.3,3.32,3.32,0,0,0,1.18-.81,3.6,3.6,0,0,0,.74-1.25,4.85,4.85,0,0,0,0-3.19,3.6,3.6,0,0,0-.74-1.25,3.22,3.22,0,0,0-1.18-.82A4,4,0,0,0,475,60Z"/><path class="svgtext" d="M486.91,63.61l-4-5.31h2.78l2.76,4,2.72-4h2.61l-3.89,5.31,4.61,6.07h-2.78l-3.36-4.78L485,69.68h-2.67Z"/><path class="svgtext" d="M275,87.17h3.27a8,8,0,0,1,1.29.11,3.11,3.11,0,0,1,1.18.43,2.47,2.47,0,0,1,.85.91,3.06,3.06,0,0,1,.32,1.54,2.41,2.41,0,0,1-.46,1.51,2.58,2.58,0,0,1-1.52.85,3.14,3.14,0,0,1,1,.26,2.53,2.53,0,0,1,1.32,1.43,3.32,3.32,0,0,1,.2,1.13,2.93,2.93,0,0,1-1.32,2.59,3.36,3.36,0,0,1-1.23.48,6.44,6.44,0,0,1-1.24.13H275Zm1.06,4.9h2.19a3.77,3.77,0,0,0,1.33-.2,2.43,2.43,0,0,0,.8-.49,1.38,1.38,0,0,0,.38-.62,1.76,1.76,0,0,0,.1-.6,2.29,2.29,0,0,0-.2-1,1.61,1.61,0,0,0-.54-.62,2,2,0,0,0-.78-.33,4.32,4.32,0,0,0-.95-.1h-2.33Zm0,5.47h2.39a4.47,4.47,0,0,0,1.5-.22,2.29,2.29,0,0,0,.87-.56,1.78,1.78,0,0,0,.41-.72,2.43,2.43,0,0,0-.12-1.7,2.09,2.09,0,0,0-.62-.73,2.76,2.76,0,0,0-.87-.4,3.76,3.76,0,0,0-1-.13h-2.56Z"/><path class="svgtext" d="M284.39,94.8a4.4,4.4,0,0,1,.29-1.56,3.68,3.68,0,0,1,2-2,4.51,4.51,0,0,1,3.13,0,3.76,3.76,0,0,1,1.23.81,3.61,3.61,0,0,1,.81,1.23,4.19,4.19,0,0,1,.29,1.56,4,4,0,0,1-.29,1.56,3.52,3.52,0,0,1-2,2,4,4,0,0,1-1.56.29,4,4,0,0,1-1.57-.29,3.58,3.58,0,0,1-1.23-.8,3.72,3.72,0,0,1-.8-1.24,4.2,4.2,0,0,1-.3-1.56Zm1,0A3.41,3.41,0,0,0,285.6,96a2.65,2.65,0,0,0,.58,1,2.74,2.74,0,0,0,.93.65,2.94,2.94,0,0,0,1.21.24,3,3,0,0,0,1.22-.24,2.84,2.84,0,0,0,.93-.65,2.79,2.79,0,0,0,.58-1,3.51,3.51,0,0,0,0-2.35,2.79,2.79,0,0,0-.58-1,2.88,2.88,0,0,0-2.15-.89,2.94,2.94,0,0,0-1.21.24,2.74,2.74,0,0,0-.93.65,2.65,2.65,0,0,0-.58,1,3.36,3.36,0,0,0-.25,1.17Z"/><path class="svgtext" d="M300.78,97.2a2.77,2.77,0,0,1-.56.67,4.07,4.07,0,0,1-.77.47,3,3,0,0,1-.83.27,4.24,4.24,0,0,1-2.41-.2,3.52,3.52,0,0,1-2-2,4.34,4.34,0,0,1,0-3.12,3.58,3.58,0,0,1,.8-1.23,3.76,3.76,0,0,1,1.23-.81,4.2,4.2,0,0,1,1.57-.28,4.78,4.78,0,0,1,.84.08,3.38,3.38,0,0,1,.83.28,3.46,3.46,0,0,1,.73.46,2.73,2.73,0,0,1,.56.66v-6h1v12.1h-1Zm.09-2.4a3,3,0,0,0-.23-1.15,3.12,3.12,0,0,0-2.87-1.87,3,3,0,0,0-1.22.24,2.84,2.84,0,0,0-.93.65,2.79,2.79,0,0,0-.58,1A3.51,3.51,0,0,0,295,96a2.79,2.79,0,0,0,.58,1,2.88,2.88,0,0,0,2.15.89A3.21,3.21,0,0,0,300,97a3,3,0,0,0,.66-1,3.08,3.08,0,0,0,.23-1.16Z"/><path class="svgtext" d="M306.17,100.79a2.77,2.77,0,0,1-.75,1.13,1.92,1.92,0,0,1-1.28.42h-.48l-.47-.1.1-.9.42.12a1.61,1.61,0,0,0,.44.06.93.93,0,0,0,.46-.12,1.16,1.16,0,0,0,.34-.28,1.67,1.67,0,0,0,.25-.4c.07-.14.13-.29.19-.44l.67-1.71-3-7.42h1.07l2.44,6.19L309,91.12h1Z"/><path class="svgtext" d="M325.26,96.72a4.85,4.85,0,0,1-1.89,1.62,5.61,5.61,0,0,1-2.32.48,6.28,6.28,0,0,1-2.38-.44,5.33,5.33,0,0,1-1.83-1.25,5.43,5.43,0,0,1-1.17-1.87,6.68,6.68,0,0,1,0-4.78,5.64,5.64,0,0,1,1.2-1.88,5.38,5.38,0,0,1,1.8-1.26,6.07,6.07,0,0,1,2.38-.45,5.63,5.63,0,0,1,2.15.41A4.27,4.27,0,0,1,325,88.67l-.86.72a3.19,3.19,0,0,0-1.35-1.17,4.12,4.12,0,0,0-1.69-.37,4.89,4.89,0,0,0-2,.39,4.42,4.42,0,0,0-1.51,1.05,4.65,4.65,0,0,0-1,1.59,6.05,6.05,0,0,0,0,4,4.65,4.65,0,0,0,1,1.59,4.24,4.24,0,0,0,1.51,1,4.89,4.89,0,0,0,2,.39,4,4,0,0,0,.9-.11,4.2,4.2,0,0,0,.9-.32,4.62,4.62,0,0,0,.84-.54,3.31,3.31,0,0,0,.7-.79Z"/><path class="svgtext" d="M326.51,94.8a4.18,4.18,0,0,1,.28-1.56,4,4,0,0,1,.8-1.23,3.91,3.91,0,0,1,1.24-.81,4.49,4.49,0,0,1,3.12,0,3.91,3.91,0,0,1,1.24.81,3.73,3.73,0,0,1,.8,1.23,4.34,4.34,0,0,1,0,3.12,3.62,3.62,0,0,1-.79,1.21,3.48,3.48,0,0,1-1.21.79,4,4,0,0,1-1.56.29,3.93,3.93,0,0,1-1.56-.29,3.62,3.62,0,0,1-1.24-.8,3.88,3.88,0,0,1-.8-1.24,4.18,4.18,0,0,1-.32-1.52Zm1,0a3.19,3.19,0,0,0,.2,1.18,2.65,2.65,0,0,0,.58,1,2.74,2.74,0,0,0,.93.65,3.2,3.2,0,0,0,2.43,0,2.74,2.74,0,0,0,.93-.65,2.79,2.79,0,0,0,.58-1,3.51,3.51,0,0,0,0-2.35,2.79,2.79,0,0,0-.58-1,3,3,0,0,0-.93-.65,3.2,3.2,0,0,0-2.43,0,2.74,2.74,0,0,0-.93.65,2.65,2.65,0,0,0-.58,1,3.16,3.16,0,0,0-.26,1.17Z"/><path class="svgtext" d="M336.45,93.19V91.11h1v.8a4,4,0,0,0,0,.49,2.53,2.53,0,0,1,1-1A2.73,2.73,0,0,1,340,91a3.07,3.07,0,0,1,1.4.27,2.19,2.19,0,0,1,.86.71,2.62,2.62,0,0,1,.43,1,5.83,5.83,0,0,1,.12,1.18v4.4h-1V94.17a5.12,5.12,0,0,0-.08-.87,2.05,2.05,0,0,0-.28-.76,1.39,1.39,0,0,0-.56-.54,2,2,0,0,0-.93-.2,2.85,2.85,0,0,0-1,.18,2.18,2.18,0,0,0-.82.56,2.72,2.72,0,0,0-.54.95,4,4,0,0,0-.2,1.33v3.7h-1Z"/><path class="svgtext" d="M348.94,92h-2.11v4.82a1,1,0,0,0,.06.41,1,1,0,0,0,.21.36,1,1,0,0,0,.35.21.91.91,0,0,0,.4.06,2.51,2.51,0,0,0,.55-.07,3.13,3.13,0,0,0,.54-.19l.08.87a4.91,4.91,0,0,1-.63.17,2.57,2.57,0,0,1-.62.08,2.21,2.21,0,0,1-.88-.15,1.53,1.53,0,0,1-.59-.41,1.68,1.68,0,0,1-.33-.6,2.64,2.64,0,0,1-.1-.74V92h-1.6v-.86h1.6V89h1v2.13H349Z"/><path class="svgtext" d="M357.18,97.11a3.18,3.18,0,0,1-1.39,1.23,4.35,4.35,0,0,1-1.81.37,3.87,3.87,0,0,1-1.54-.29,3.4,3.4,0,0,1-1.18-.79,3.35,3.35,0,0,1-.76-1.21,4.19,4.19,0,0,1-.27-1.57,4,4,0,0,1,.28-1.54,3.69,3.69,0,0,1,.76-1.22,3.54,3.54,0,0,1,1.17-.82,4,4,0,0,1,3,0,3.35,3.35,0,0,1,1.75,1.9,3.91,3.91,0,0,1,.27,1.17V95h-6.26a3.42,3.42,0,0,0,.12.78,2.77,2.77,0,0,0,1.3,1.69,2.65,2.65,0,0,0,1.38.32,3.08,3.08,0,0,0,1.43-.35,2.53,2.53,0,0,0,1-1Zm-.73-2.93a2.13,2.13,0,0,0-.2-.93,2.4,2.4,0,0,0-.54-.76,2.72,2.72,0,0,0-.82-.52,2.65,2.65,0,0,0-1-.19,2.56,2.56,0,0,0-1.3.32,2.8,2.8,0,0,0-.83.74,2.94,2.94,0,0,0-.43.8,2.5,2.5,0,0,0-.13.54Z"/><path class="svgtext" d="M359.55,93.19V91.11h1v.8a4,4,0,0,0,0,.49,2.53,2.53,0,0,1,1-1,2.73,2.73,0,0,1,1.57-.44,3.07,3.07,0,0,1,1.4.27,2.19,2.19,0,0,1,.86.71,2.62,2.62,0,0,1,.43,1,5.83,5.83,0,0,1,.12,1.18v4.4h-1V94.17a4.27,4.27,0,0,0-.08-.87,2.05,2.05,0,0,0-.28-.76A1.39,1.39,0,0,0,364,92a2,2,0,0,0-.93-.2,2.85,2.85,0,0,0-1,.18,2.18,2.18,0,0,0-.82.56,2.72,2.72,0,0,0-.54.95,4,4,0,0,0-.2,1.33v3.7h-1Z"/><path class="svgtext" d="M372.06,92H370v4.82a1,1,0,0,0,.06.41,1,1,0,0,0,.21.36,1,1,0,0,0,.35.21.91.91,0,0,0,.4.06,2.51,2.51,0,0,0,.55-.07,3.13,3.13,0,0,0,.54-.19l.08.87a4.91,4.91,0,0,1-.63.17,2.57,2.57,0,0,1-.62.08,2.21,2.21,0,0,1-.88-.15,1.65,1.65,0,0,1-.58-.39,1.6,1.6,0,0,1-.34-.61,2.64,2.64,0,0,1-.1-.74V92h-1.6v-.86H369V89h1v2.13h2.11Z"/><path class="svgtext" d="M377.34,94.28h4v.86h-4Z"/><path class="svgtext" d="M390.32,88.52l-2,1.68-.59-.74,2.8-2.29h.82V98.5h-1Z"/><path class="svgtext" d="M397.15,92.16a1.92,1.92,0,0,1,.78-.36,3.42,3.42,0,0,1,.9-.12,3.56,3.56,0,0,1,2.5,1,3.23,3.23,0,0,1,.72,1.1,3.78,3.78,0,0,1,.25,1.37,3.46,3.46,0,0,1-.28,1.42,3.17,3.17,0,0,1-.77,1.11,3.7,3.7,0,0,1-1.18.73,4.3,4.3,0,0,1-3,0,4,4,0,0,1-1.18-.73,3.31,3.31,0,0,1-.77-1.11,3.46,3.46,0,0,1-.28-1.42,4,4,0,0,1,.09-.85,5.24,5.24,0,0,1,.26-.76c.11-.24.22-.46.34-.68s.23-.41.35-.6L399,87.17h1.22Zm1.47.36a2.66,2.66,0,0,0-1,.2,2.84,2.84,0,0,0-.84.57,2.59,2.59,0,0,0-.57.85,2.49,2.49,0,0,0-.21,1,2.84,2.84,0,0,0,.2,1.08,2.33,2.33,0,0,0,.54.84,2.36,2.36,0,0,0,.84.55,3.2,3.2,0,0,0,2.16,0,2.36,2.36,0,0,0,.84-.55,2.33,2.33,0,0,0,.54-.84,2.84,2.84,0,0,0,.2-1.08,2.49,2.49,0,0,0-.21-1,2.67,2.67,0,0,0-1.42-1.42,2.61,2.61,0,0,0-1.07-.2Z"/><path class="svgtext" d="M408,91.11h1V92.4a2.48,2.48,0,0,1,.55-.66,3.46,3.46,0,0,1,.73-.46,3.38,3.38,0,0,1,.83-.28,4.8,4.8,0,0,1,.85-.08,4.09,4.09,0,0,1,1.55.28,3.91,3.91,0,0,1,1.24.81,3.73,3.73,0,0,1,.8,1.23,4.34,4.34,0,0,1,0,3.12,3.62,3.62,0,0,1-.79,1.21,3.48,3.48,0,0,1-1.21.79,3.92,3.92,0,0,1-1.55.29,4,4,0,0,1-.85-.09,3,3,0,0,1-.83-.27,3.46,3.46,0,0,1-.73-.46,2.38,2.38,0,0,1-.55-.67v5h-1Zm.87,3.69a3,3,0,0,0,.24,1.18,2.87,2.87,0,0,0,1.65,1.65,3.2,3.2,0,0,0,1.22.24,3.15,3.15,0,0,0,1.21-.24,2.84,2.84,0,0,0,.93-.65,2.79,2.79,0,0,0,.58-1,3.51,3.51,0,0,0,0-2.35,2.79,2.79,0,0,0-.58-1,3,3,0,0,0-.93-.65,3.15,3.15,0,0,0-1.21-.24,3.2,3.2,0,0,0-1.22.24,2.87,2.87,0,0,0-1.65,1.65A3,3,0,0,0,408.88,94.8Z"/><path class="svgtext" d="M419.88,94.5l-2.64-3.39h1.21l2,2.8,2-2.8h1.2L421,94.5l3.17,4H423l-2.51-3.34-2.53,3.34h-1.15Z"/><path class="svgtext" d="M275,112.63h3.27a8,8,0,0,1,1.29.11,3.11,3.11,0,0,1,1.18.43,2.47,2.47,0,0,1,.85.91,3.06,3.06,0,0,1,.32,1.54,2.39,2.39,0,0,1-.46,1.51,2.58,2.58,0,0,1-1.52.85,3.14,3.14,0,0,1,1,.26,2.53,2.53,0,0,1,1.32,1.43,3.36,3.36,0,0,1,.2,1.13,2.93,2.93,0,0,1-1.32,2.59,3.36,3.36,0,0,1-1.23.48,5.74,5.74,0,0,1-1.24.13H275Zm1.06,4.9h2.19a3.77,3.77,0,0,0,1.33-.2,2.27,2.27,0,0,0,.8-.49,1.38,1.38,0,0,0,.38-.62,1.76,1.76,0,0,0,.1-.6,2.29,2.29,0,0,0-.2-1,1.61,1.61,0,0,0-.54-.62,2,2,0,0,0-.78-.33,4.32,4.32,0,0,0-.95-.1h-2.33Zm0,5.47h2.39a4.23,4.23,0,0,0,1.5-.22,2.29,2.29,0,0,0,.87-.56,1.78,1.78,0,0,0,.41-.72,2.43,2.43,0,0,0-.12-1.7,2.09,2.09,0,0,0-.62-.73,2.76,2.76,0,0,0-.87-.4,3.76,3.76,0,0,0-1-.13h-2.56Z"/><path class="svgtext" d="M293.13,119.62a7.35,7.35,0,0,1-.21,1.75,4.22,4.22,0,0,1-.69,1.47,3.48,3.48,0,0,1-1.28,1,5,5,0,0,1-3.89,0,3.29,3.29,0,0,1-1.28-1,4,4,0,0,1-.7-1.47,7.35,7.35,0,0,1-.21-1.75v-7h1.06v6.72a8.05,8.05,0,0,0,.11,1.3,3.89,3.89,0,0,0,.44,1.28,2.71,2.71,0,0,0,.93,1,2.85,2.85,0,0,0,1.59.39,2.9,2.9,0,0,0,1.6-.39,2.76,2.76,0,0,0,.92-1,3.89,3.89,0,0,0,.44-1.28,8.05,8.05,0,0,0,.11-1.3v-6.72h1.06Z"/><path class="svgtext" d="M298.54,113.59h-3.87v-1h8.78v1h-3.86V124h-1Z"/><path class="svgtext" d="M307.72,113.59h-3.87v-1h8.8v1h-3.87V124h-1.06Z"/><path class="svgtext" d="M313.66,118.3a6.52,6.52,0,0,1,.43-2.39,5.74,5.74,0,0,1,1.2-1.88,5.6,5.6,0,0,1,1.85-1.23,6.49,6.49,0,0,1,4.75,0,5.45,5.45,0,0,1,3.05,3.12,6.89,6.89,0,0,1,0,4.78,5.26,5.26,0,0,1-3.05,3.1,6.59,6.59,0,0,1-4.75,0,5.6,5.6,0,0,1-1.85-1.23,5.68,5.68,0,0,1-1.2-1.89A6.47,6.47,0,0,1,313.66,118.3Zm1,0a5.68,5.68,0,0,0,.34,2,4.47,4.47,0,0,0,1,1.59,4.28,4.28,0,0,0,1.51,1,5.32,5.32,0,0,0,4,0,4.28,4.28,0,0,0,1.51-1,5,5,0,0,0,1-1.59,6.23,6.23,0,0,0,0-4,5,5,0,0,0-1-1.59,4.52,4.52,0,0,0-1.51-1,5.32,5.32,0,0,0-4,0,4.52,4.52,0,0,0-1.51,1,4.65,4.65,0,0,0-1,1.59,5.91,5.91,0,0,0-.29,2Z"/><path class="svgtext" d="M327.74,112.63h1.36l6.89,9.92v-9.92h1.06V124h-1.33l-6.9-9.92V124h-1.08Z"/><path class="svgtext" d="M343.45,119.74h4v.86h-4Z"/><path class="svgtext" d="M356.45,114l-2,1.68-.59-.74,2.8-2.29h.79V124h-1Z"/><path class="svgtext" d="M363.29,117.62a1.92,1.92,0,0,1,.78-.36,3.9,3.9,0,0,1,.9-.12,3.39,3.39,0,0,1,3.22,2.12,3.58,3.58,0,0,1,.25,1.37,3.46,3.46,0,0,1-.28,1.42,3.17,3.17,0,0,1-.77,1.11,3.6,3.6,0,0,1-1.18.73,4.3,4.3,0,0,1-3,0,4,4,0,0,1-1.18-.73,3.31,3.31,0,0,1-.77-1.11,3.46,3.46,0,0,1-.28-1.42,4,4,0,0,1,.09-.85,5.24,5.24,0,0,1,.26-.76c.11-.24.22-.46.34-.68s.23-.41.35-.6l3.07-5.11h1.22Zm1.47.36a2.87,2.87,0,0,0-1,.2,2.84,2.84,0,0,0-.84.57,2.7,2.7,0,0,0-.57.85,2.49,2.49,0,0,0-.21,1,2.84,2.84,0,0,0,.2,1.08,2.33,2.33,0,0,0,.54.84,2.45,2.45,0,0,0,.84.55,3.16,3.16,0,0,0,2.16,0,2.36,2.36,0,0,0,.84-.55,2.13,2.13,0,0,0,.54-.84,2.84,2.84,0,0,0,.2-1.08,2.49,2.49,0,0,0-.21-1,2.67,2.67,0,0,0-1.42-1.42A2.79,2.79,0,0,0,364.76,118Z"/><path class="svgtext" d="M374.15,116.57h1v1.29a2.34,2.34,0,0,1,.56-.66,3,3,0,0,1,.72-.46,3.38,3.38,0,0,1,.83-.28,4.8,4.8,0,0,1,.85-.08,4.39,4.39,0,0,1,1.56.28,3.68,3.68,0,0,1,2,2,4.49,4.49,0,0,1,0,3.12,3.91,3.91,0,0,1-.81,1.24,3.58,3.58,0,0,1-1.23.8,4.24,4.24,0,0,1-2.41.2,3.47,3.47,0,0,1-1.55-.73,2.13,2.13,0,0,1-.56-.67v4.95h-1Zm.87,3.69a3,3,0,0,0,.24,1.18,2.87,2.87,0,0,0,1.65,1.65,3,3,0,0,0,1.22.24,3,3,0,0,0,1.21-.24,2.84,2.84,0,0,0,.93-.65,2.58,2.58,0,0,0,.58-1,3.51,3.51,0,0,0,0-2.35,2.65,2.65,0,0,0-.58-1,3.18,3.18,0,0,0-.93-.65,3.15,3.15,0,0,0-1.21-.24,3.2,3.2,0,0,0-1.22.24,3.52,3.52,0,0,0-1,.65,3.14,3.14,0,0,0-.65,1A3,3,0,0,0,375,120.26Z"/><path class="svgtext" d="M386,120l-2.63-3.39h1.23l2,2.8,2-2.8h1.2L387.21,120l3.17,4h-1.25l-2.58-3.34L384,124H383Z"/></g></g></svg>
