<?xml version="1.0" encoding="utf-8"?>
<!-- Generator: Adobe Illustrator 25.4.1, SVG Export Plug-In . SVG Version: 6.00 Build 0)  -->
<svg version="1.1" id="Layer_1" xmlns="http://www.w3.org/2000/svg" xmlns:xlink="http://www.w3.org/1999/xlink" x="0px" y="0px"
	 viewBox="0 0 300 300" style="enable-background:new 0 0 300 300;" xml:space="preserve">
<style type="text/css">
	.st0{fill:#DB2C47;}
	.st1{fill:none;stroke:#EFEFEF;stroke-width:12;stroke-linecap:round;stroke-linejoin:round;}
</style>
<path class="st0" d="M28.4,0h243.1C287.2,0,300,12.8,300,28.4v243.1c0,15.7-12.8,28.4-28.4,28.4H28.4C12.8,300,0,287.2,0,271.6V28.4
	C0,12.8,12.8,0,28.4,0z"/>
<line class="st1" x1="120" y1="228" x2="180" y2="228"/>
<path class="st1" d="M113,179.3c-26.1-20.4-30.7-58.1-10.3-84.2s58.1-30.7,84.2-10.3s30.7,58.1,10.3,84.2c0,0,0,0,0,0
	c-3,3.8-6.4,7.2-10.2,10.2c-4.4,3.4-7,8.7-7,14.3v4.5c0,3.3-2.7,6-6,6h-48c-3.3,0-6-2.7-6-6v-4.5C120,187.9,117.4,182.7,113,179.3z"
	/>
<path class="st1" d="M156.1,96.6c15,2.6,26.8,14.4,29.4,29.4"/>
</svg>
