<svg xmlns="http://www.w3.org/2000/svg" viewBox="0 0 448.43 81.09"><defs><style>.a32f69ed-a00b-472e-84f6-26be52533120,.f5645449-e2c2-487e-956d-beaaf838ce9c,.ff8c6a1c-fa08-456e-9149-84a174a5a5d8{fill:none;}.a32f69ed-a00b-472e-84f6-26be52533120,.b94eaa8b-13b9-4f4b-b4b2-916fecaa2594,.f5645449-e2c2-487e-956d-beaaf838ce9c,.ff8c6a1c-fa08-456e-9149-84a174a5a5d8{stroke:#eb0029;}.b94eaa8b-13b9-4f4b-b4b2-916fecaa2594{fill:#eb0029;}.b7bf9c53-0ea4-44e6-a3ca-e9bc6f86b2a7{fill:#1c1c1c;}.a32f69ed-a00b-472e-84f6-26be52533120,.f5645449-e2c2-487e-956d-beaaf838ce9c{stroke-width:2px;}.f5645449-e2c2-487e-956d-beaaf838ce9c{stroke-linecap:round;stroke-linejoin:round;}</style></defs><g id="bbb797c6-4c63-48ec-9be1-af9c9322a70a" data-name="Layer 2"><g id="b385b250-2874-48d9-b0a7-90d7409c2160" data-name="Layer 1"><path class="svgtext" d="M1,50.53A.74.74,0,0,1,1.2,50a.66.66,0,0,1,.37-.19.67.67,0,0,1,.42,0,.68.68,0,0,1,.32.26.73.73,0,0,1,.13.4.66.66,0,0,1,0,.28.73.73,0,0,1-.16.23.71.71,0,0,1-.5.19.71.71,0,0,1-.5-.19.66.66,0,0,1-.17-.23A.67.67,0,0,1,1,50.53Zm.24,2.93h1v7.39h-1Z"/><path class="svgtext" d="M4.92,55.54V53.46h1v.8a4.17,4.17,0,0,0,0,.5H6a2.47,2.47,0,0,1,1-1,2.83,2.83,0,0,1,1.57-.44,3.07,3.07,0,0,1,1.4.27,2.28,2.28,0,0,1,.86.71,2.62,2.62,0,0,1,.43,1,5.83,5.83,0,0,1,.12,1.18v4.4h-1V56.5a5.12,5.12,0,0,0-.08-.87,2.05,2.05,0,0,0-.28-.76,1.45,1.45,0,0,0-.56-.54,2,2,0,0,0-.93-.2,2.65,2.65,0,0,0-1,.19,2.18,2.18,0,0,0-.82.56,2.6,2.6,0,0,0-.54.94,4.07,4.07,0,0,0-.2,1.34v3.69h-1Z"/><path class="svgtext" d="M19.56,57.75v2.49a2,2,0,0,0,.07.64h-.9a8.08,8.08,0,0,1-.09-1.2,2.75,2.75,0,0,1-1,1.06,3.23,3.23,0,0,1-1.56.33,3.73,3.73,0,0,1-.94-.12,2.32,2.32,0,0,1-.83-.38,2.19,2.19,0,0,1-.4-3A2.81,2.81,0,0,1,15,56.76a5.21,5.21,0,0,1,1.35-.32c.47,0,.89-.07,1.25-.07h1.12v-.45a1.64,1.64,0,0,0-.12-.76,1.57,1.57,0,0,0-.47-.61,2.54,2.54,0,0,0-1.49-.42,3.37,3.37,0,0,0-2.25.83l-.57-.65a3.61,3.61,0,0,1,1.32-.78,4.78,4.78,0,0,1,1.5-.26,3.35,3.35,0,0,1,2.14.63,2.43,2.43,0,0,1,.64.91,2.38,2.38,0,0,1,.17,1.09Zm-1.93-.61a9.2,9.2,0,0,0-1.17.08,3.53,3.53,0,0,0-1,.27,1.86,1.86,0,0,0-.73.51,1.23,1.23,0,0,0-.27.8,1.14,1.14,0,0,0,.15.6,1.49,1.49,0,0,0,.39.44,1.89,1.89,0,0,0,.54.25,2,2,0,0,0,.6.09A3.09,3.09,0,0,0,17.38,60a2.28,2.28,0,0,0,.79-.59,2,2,0,0,0,.41-.81,4.06,4.06,0,0,0,.11-.92v-.5Z"/><path class="svgtext" d="M28.31,59.76a3.62,3.62,0,0,1-1.23,1,3.5,3.5,0,0,1-1.49.31A4.17,4.17,0,0,1,24,60.76a3.68,3.68,0,0,1-2-2,4,4,0,0,1-.29-1.56A3.82,3.82,0,0,1,22,55.6a3.72,3.72,0,0,1,.8-1.24,3.58,3.58,0,0,1,1.23-.8,4,4,0,0,1,1.57-.29,3.57,3.57,0,0,1,1.51.33,4,4,0,0,1,1.24,1l-.77.57a3.33,3.33,0,0,0-.91-.72,2.24,2.24,0,0,0-1.07-.27,2.88,2.88,0,0,0-2.15.89,2.79,2.79,0,0,0-.58,1,3.51,3.51,0,0,0,0,2.35,2.79,2.79,0,0,0,.58,1,2.84,2.84,0,0,0,.93.65,3,3,0,0,0,1.22.24A2.26,2.26,0,0,0,26.71,60a2.81,2.81,0,0,0,.87-.74Z"/><path class="svgtext" d="M33.43,54.32H31.32v4.82a1.13,1.13,0,0,0,.05.41,1,1,0,0,0,.22.36,1,1,0,0,0,.35.21.91.91,0,0,0,.4.06,2,2,0,0,0,.55-.07,3.13,3.13,0,0,0,.54-.19l.08.87a4.91,4.91,0,0,1-.63.17,2.57,2.57,0,0,1-.62.08,2.21,2.21,0,0,1-.88-.15,1.53,1.53,0,0,1-.59-.41,1.68,1.68,0,0,1-.33-.6,2.64,2.64,0,0,1-.1-.74V54.32H28.75v-.86h1.61V51.33h1v2.13h2.11Z"/><path class="svgtext" d="M35.08,50.53a.69.69,0,0,1,.05-.28.65.65,0,0,1,.15-.23.73.73,0,0,1,.5-.19.71.71,0,0,1,.5.19.65.65,0,0,1,.15.23.81.81,0,0,1,0,.56.65.65,0,0,1-.15.23.71.71,0,0,1-.5.19.73.73,0,0,1-.5-.19.65.65,0,0,1-.15-.23A.69.69,0,0,1,35.08,50.53Zm.24,2.93h1v7.39h-1Z"/><path class="svgtext" d="M38,53.46h1l2.47,6.35,2.4-6.35h1L42,60.85H41Z"/><path class="svgtext" d="M52.93,59.46a3.2,3.2,0,0,1-1.38,1.22,4.55,4.55,0,0,1-1.82.36,4,4,0,0,1-1.53-.28,3.52,3.52,0,0,1-2-2,4.66,4.66,0,0,1-.2-1.62,4.46,4.46,0,0,1,.27-1.54A3.71,3.71,0,0,1,47,54.38a3.54,3.54,0,0,1,1.17-.82,3.59,3.59,0,0,1,1.48-.29,3.68,3.68,0,0,1,1.5.29,3.54,3.54,0,0,1,1.09.79,3.21,3.21,0,0,1,.66,1.11,3.6,3.6,0,0,1,.23,1.26v.68H47a3.34,3.34,0,0,0,.12.77,2.45,2.45,0,0,0,.44.92,2.84,2.84,0,0,0,.85.77,2.71,2.71,0,0,0,1.39.32,3.07,3.07,0,0,0,1.42-.35,2.62,2.62,0,0,0,1.06-1Zm-.73-2.93a2.29,2.29,0,0,0-.2-.93,2.59,2.59,0,0,0-2.37-1.47,2.58,2.58,0,0,0-1.3.32,2.76,2.76,0,0,0-.82.74,2.53,2.53,0,0,0-.43.81,2,2,0,0,0-.13.53Z"/><path class="svgtext" d="M.87,68.76h1v6a2.77,2.77,0,0,1,.56-.67,3.46,3.46,0,0,1,.73-.46A3.94,3.94,0,0,1,4,73.36a4,4,0,0,1,.85-.09,4,4,0,0,1,1.56.29,3.58,3.58,0,0,1,1.23.8,3.65,3.65,0,0,1,.81,1.24,4,4,0,0,1,.29,1.56,4.19,4.19,0,0,1-.29,1.56A3.6,3.6,0,0,1,7.61,80a3.76,3.76,0,0,1-1.23.81,4.18,4.18,0,0,1-1.56.28A5.56,5.56,0,0,1,4,81a3.46,3.46,0,0,1-.82-.28,3.1,3.1,0,0,1-.73-.46,2.73,2.73,0,0,1-.56-.66v1.29h-1Zm.86,8.4A2.9,2.9,0,0,0,2,78.32a3,3,0,0,0,.66,1,3.14,3.14,0,0,0,1,.65,3.2,3.2,0,0,0,1.22.24A2.82,2.82,0,0,0,6,79.94a2.7,2.7,0,0,0,.92-.65,2.8,2.8,0,0,0,.59-1,3.51,3.51,0,0,0,0-2.35,2.8,2.8,0,0,0-.59-1A2.7,2.7,0,0,0,6,74.37a3,3,0,0,0-1.22-.24,3.2,3.2,0,0,0-1.22.24,3.14,3.14,0,0,0-1,.65,3.16,3.16,0,0,0-.67,1,3.08,3.08,0,0,0-.23,1.16Z"/><path class="svgtext" d="M17.11,78.77v2.08h-1v-.8a2,2,0,0,0,0-.49,2.67,2.67,0,0,1-1,1,2.73,2.73,0,0,1-1.57.44,3.16,3.16,0,0,1-1.42-.27,2.19,2.19,0,0,1-.86-.71,2.62,2.62,0,0,1-.43-1,6.64,6.64,0,0,1-.11-1.18v-4.4h1v4.35a5.12,5.12,0,0,0,.08.87,2.58,2.58,0,0,0,.28.76,1.45,1.45,0,0,0,.56.54,2,2,0,0,0,.94.2,2.85,2.85,0,0,0,1-.18,2.4,2.4,0,0,0,.81-.56,2.72,2.72,0,0,0,.55-1,4,4,0,0,0,.2-1.33v-3.7h1Z"/><path class="svgtext" d="M23.37,74.32H21.25v4.82a.86.86,0,0,0,.06.39.87.87,0,0,0,.55.55.86.86,0,0,0,.39.06,2,2,0,0,0,.55-.07,3.13,3.13,0,0,0,.54-.19l.07.87a4.37,4.37,0,0,1-.62.17,2.57,2.57,0,0,1-.62.08,2.21,2.21,0,0,1-.88-.15,1.65,1.65,0,0,1-.6-.41,1.74,1.74,0,0,1-.32-.6,2.65,2.65,0,0,1-.11-.74V74.32h-1.6v-.86h1.6V71.33h1v2.13h2.12Z"/><path class="svgtext" d="M28.71,74.32H26.6v4.82a1.13,1.13,0,0,0,0,.41,1,1,0,0,0,.22.36,1,1,0,0,0,.35.21.91.91,0,0,0,.4.06,2,2,0,0,0,.55-.07,3.13,3.13,0,0,0,.54-.19l.08.87a4.91,4.91,0,0,1-.63.17,2.57,2.57,0,0,1-.62.08,2.21,2.21,0,0,1-.88-.15,1.65,1.65,0,0,1-.58-.39,1.6,1.6,0,0,1-.34-.61,2.64,2.64,0,0,1-.1-.74V74.32H24v-.86h1.6V71.33h1v2.13h2.11Z"/><path class="svgtext" d="M30,77.16a4.19,4.19,0,0,1,.29-1.56,3.72,3.72,0,0,1,.8-1.24,3.58,3.58,0,0,1,1.23-.8,4,4,0,0,1,1.57-.29,4,4,0,0,1,1.56.29,3.52,3.52,0,0,1,2,2,4,4,0,0,1,.29,1.56,4.19,4.19,0,0,1-.29,1.56A3.59,3.59,0,0,1,36.68,80a3.76,3.76,0,0,1-1.23.81,4.51,4.51,0,0,1-3.13,0,3.68,3.68,0,0,1-2-2A4,4,0,0,1,30,77.16Zm1,0a3.32,3.32,0,0,0,.21,1.17,2.65,2.65,0,0,0,.58,1,2.74,2.74,0,0,0,.93.65,2.94,2.94,0,0,0,1.21.24A3,3,0,0,0,35.15,80a2.74,2.74,0,0,0,.93-.65,2.79,2.79,0,0,0,.58-1,3.51,3.51,0,0,0,0-2.35,3.16,3.16,0,0,0-1.59-1.63,3,3,0,0,0-1.22-.24,2.94,2.94,0,0,0-1.21.24,2.74,2.74,0,0,0-.93.65,2.65,2.65,0,0,0-.58,1A3.26,3.26,0,0,0,31,77.16Z"/><path class="svgtext" d="M39.92,75.54V73.46h1v.8a2.09,2.09,0,0,0,0,.5h0a2.47,2.47,0,0,1,1-1.05,2.8,2.8,0,0,1,1.56-.44,3.11,3.11,0,0,1,1.41.27,2.28,2.28,0,0,1,.86.71,2.62,2.62,0,0,1,.43,1,5.83,5.83,0,0,1,.12,1.18v4.4h-1V76.5a5.12,5.12,0,0,0-.08-.87,2.24,2.24,0,0,0-.28-.76,1.45,1.45,0,0,0-.56-.54,2,2,0,0,0-.94-.2,2.65,2.65,0,0,0-1,.19,2.07,2.07,0,0,0-.81.56,2.77,2.77,0,0,0-.55.94,4.07,4.07,0,0,0-.2,1.34v3.69h-1Z"/><path class="svgtext" d="M161.82,57.75v2.49a2,2,0,0,0,.07.64H161a6.94,6.94,0,0,1-.1-1.2,2.75,2.75,0,0,1-1,1.06,3.23,3.23,0,0,1-1.56.33,3.81,3.81,0,0,1-1-.12,2.32,2.32,0,0,1-.83-.38,2.18,2.18,0,0,1-.6-.68,2.3,2.3,0,0,1,.2-2.34,2.77,2.77,0,0,1,1.07-.75,5.57,5.57,0,0,1,1.34-.32c.47,0,.89-.07,1.26-.07H161V56a1.64,1.64,0,0,0-.12-.76,1.59,1.59,0,0,0-.48-.61,2.5,2.5,0,0,0-1.48-.42,3.41,3.41,0,0,0-2.26.83l-.56-.65a3.49,3.49,0,0,1,1.31-.78,4.89,4.89,0,0,1,1.51-.26,3.35,3.35,0,0,1,2.14.63,2.47,2.47,0,0,1,.8,2Zm-1.92-.61a9.36,9.36,0,0,0-1.18.08,3.53,3.53,0,0,0-1,.27A2,2,0,0,0,157,58a1.3,1.3,0,0,0-.12,1.4,1.49,1.49,0,0,0,.39.44,1.89,1.89,0,0,0,.54.25,2,2,0,0,0,.6.09,3,3,0,0,0,1.26-.22,2.22,2.22,0,0,0,.8-.59,2.05,2.05,0,0,0,.4-.81,3.57,3.57,0,0,0,.12-.92v-.5Z"/><path class="svgtext" d="M170.57,59.76a3.4,3.4,0,0,1-1.23,1,3.5,3.5,0,0,1-1.49.31,4.2,4.2,0,0,1-1.57-.28,3.59,3.59,0,0,1-2-2,4.34,4.34,0,0,1,0-3.12,3.72,3.72,0,0,1,.8-1.24,3.58,3.58,0,0,1,1.23-.8,4,4,0,0,1,1.57-.29,3.43,3.43,0,0,1,1.51.33,4,4,0,0,1,1.24,1l-.76.57a3.23,3.23,0,0,0-.92-.72,2.24,2.24,0,0,0-1.07-.27,2.94,2.94,0,0,0-1.21.24,2.74,2.74,0,0,0-.93.65,2.82,2.82,0,0,0-.59,1,3.51,3.51,0,0,0,0,2.35,2.82,2.82,0,0,0,.59,1,2.74,2.74,0,0,0,.93.65,2.94,2.94,0,0,0,1.21.24A2.21,2.21,0,0,0,169,59.9a3,3,0,0,0,.88-.74Z"/><path class="svgtext" d="M175.69,54.32h-2.11v4.82a1.13,1.13,0,0,0,0,.41,1,1,0,0,0,.22.36,1,1,0,0,0,.35.21.91.91,0,0,0,.4.06,2.1,2.1,0,0,0,.56-.07,3.35,3.35,0,0,0,.53-.19l.08.87a6.29,6.29,0,0,1-.62.17,2.72,2.72,0,0,1-.63.08,2.21,2.21,0,0,1-.88-.15,1.65,1.65,0,0,1-.58-.39,1.6,1.6,0,0,1-.34-.61,2.64,2.64,0,0,1-.1-.74V54.32H171v-.86h1.6V51.33h1v2.13h2.11Z"/><path class="svgtext" d="M177.34,50.53a.72.72,0,1,1,1.44,0,.92.92,0,0,1-.05.28.73.73,0,0,1-.16.23.72.72,0,0,1-1,0,.66.66,0,0,1-.17-.23.67.67,0,0,1-.06-.28Zm.24,2.93h1v7.39h-1Z"/><path class="svgtext" d="M180.22,53.46h1.09l2.46,6.35,2.4-6.35h1l-2.92,7.39h-1Z"/><path class="svgtext" d="M195.19,59.46a3.2,3.2,0,0,1-1.38,1.22A4.47,4.47,0,0,1,192,61a4,4,0,0,1-1.54-.28,3.46,3.46,0,0,1-2-2,4.72,4.72,0,0,1-.26-1.58,4.46,4.46,0,0,1,.27-1.54,3.71,3.71,0,0,1,.77-1.22,3.54,3.54,0,0,1,1.17-.82,4,4,0,0,1,3,0,3.06,3.06,0,0,1,1.09.79,3.21,3.21,0,0,1,.66,1.11,3.6,3.6,0,0,1,.23,1.26v.68h-6.21a3.34,3.34,0,0,0,.12.77,2.89,2.89,0,0,0,.44.92,2.65,2.65,0,0,0,1,.85,2.5,2.5,0,0,0,1.26.28,3.07,3.07,0,0,0,1.42-.35,2.62,2.62,0,0,0,1.06-1Zm-.73-2.93a2.29,2.29,0,0,0-.2-.93,2.73,2.73,0,0,0-.55-.76,2.67,2.67,0,0,0-.81-.52,2.86,2.86,0,0,0-1-.19,2.6,2.6,0,0,0-1.31.32,2.89,2.89,0,0,0-.82.74,2.74,2.74,0,0,0-.43.81,2,2,0,0,0-.13.53Z"/><path class="svgtext" d="M155.87,68.76h1v6a2.77,2.77,0,0,1,.56-.67,3.46,3.46,0,0,1,.73-.46,3.94,3.94,0,0,1,.82-.27,4.24,4.24,0,0,1,2.41.2,3.58,3.58,0,0,1,1.23.8,3.65,3.65,0,0,1,.81,1.24,4.19,4.19,0,0,1,.29,1.56,4.4,4.4,0,0,1-.29,1.56,3.61,3.61,0,0,1-.81,1.23,3.76,3.76,0,0,1-1.23.81,4.18,4.18,0,0,1-1.56.28,4.62,4.62,0,0,1-.83,0,3.31,3.31,0,0,1-.82-.28,3.1,3.1,0,0,1-.73-.46,2.73,2.73,0,0,1-.56-.66v1.29h-1Zm.86,8.4a2.9,2.9,0,0,0,.24,1.16,3,3,0,0,0,.66,1,3.14,3.14,0,0,0,1,.65,3.2,3.2,0,0,0,1.22.24,3,3,0,0,0,1.22-.24,2.7,2.7,0,0,0,.92-.65,2.8,2.8,0,0,0,.59-1,3.51,3.51,0,0,0,0-2.35,2.92,2.92,0,0,0-.62-1,2.7,2.7,0,0,0-1-.64,3,3,0,0,0-1.22-.24,3.2,3.2,0,0,0-1.22.24,3.14,3.14,0,0,0-1,.65,3,3,0,0,0-.67,1,3.08,3.08,0,0,0-.23,1.16Z"/><path class="svgtext" d="M172.11,78.77v2.08h-1v-.8a2,2,0,0,0,0-.49,2.67,2.67,0,0,1-1,1,2.73,2.73,0,0,1-1.57.44,3.16,3.16,0,0,1-1.42-.27,2.19,2.19,0,0,1-.86-.71,2.62,2.62,0,0,1-.43-1,6.64,6.64,0,0,1-.11-1.18v-4.4h1v4.35a5.12,5.12,0,0,0,.08.87,2.58,2.58,0,0,0,.28.76,1.45,1.45,0,0,0,.56.54,2,2,0,0,0,.94.2,2.85,2.85,0,0,0,1-.18,2.4,2.4,0,0,0,.81-.56,2.72,2.72,0,0,0,.55-1,4,4,0,0,0,.2-1.33v-3.7h1Z"/><path class="svgtext" d="M178.37,74.32h-2.12v4.82a.86.86,0,0,0,.06.39.92.92,0,0,0,.21.34,1.08,1.08,0,0,0,.34.21.86.86,0,0,0,.39.06,2,2,0,0,0,.55-.07,3.13,3.13,0,0,0,.54-.19l.07.87a4.37,4.37,0,0,1-.62.17,2.57,2.57,0,0,1-.62.08,2.21,2.21,0,0,1-.88-.15,1.65,1.65,0,0,1-.6-.41,1.74,1.74,0,0,1-.32-.6,2.65,2.65,0,0,1-.11-.74V74.32h-1.6v-.86h1.6V71.33h1v2.13h2.12Z"/><path class="svgtext" d="M183.71,74.32H181.6v4.82a1.13,1.13,0,0,0,.05.41,1,1,0,0,0,.22.36,1,1,0,0,0,.35.21.91.91,0,0,0,.4.06,2,2,0,0,0,.55-.07,3.46,3.46,0,0,0,.54-.19l.08.87a4.91,4.91,0,0,1-.63.17,2.57,2.57,0,0,1-.62.08,2.21,2.21,0,0,1-.88-.15,1.65,1.65,0,0,1-.58-.39,1.6,1.6,0,0,1-.34-.61,2.64,2.64,0,0,1-.1-.74V74.32H179v-.86h1.6V71.33h1v2.13h2.11Z"/><path class="svgtext" d="M185,77.16a4,4,0,0,1,.29-1.56,3.72,3.72,0,0,1,.8-1.24,3.58,3.58,0,0,1,1.23-.8,4,4,0,0,1,1.57-.29,4,4,0,0,1,1.56.29,3.52,3.52,0,0,1,2,2,4.19,4.19,0,0,1,.29,1.56,4.4,4.4,0,0,1-.29,1.56,3.61,3.61,0,0,1-.81,1.23,3.76,3.76,0,0,1-1.23.81,4.51,4.51,0,0,1-3.13,0,3.59,3.59,0,0,1-2-2A4.18,4.18,0,0,1,185,77.16Zm1,0a3.32,3.32,0,0,0,.21,1.17,2.65,2.65,0,0,0,.58,1,2.74,2.74,0,0,0,.93.65,2.94,2.94,0,0,0,1.21.24,3,3,0,0,0,1.22-.24,2.74,2.74,0,0,0,.93-.65,2.79,2.79,0,0,0,.58-1,3.51,3.51,0,0,0,0-2.35,2.79,2.79,0,0,0-.58-1,2.89,2.89,0,0,0-.93-.65,3,3,0,0,0-1.22-.24,2.94,2.94,0,0,0-1.21.24,2.74,2.74,0,0,0-.93.65,2.65,2.65,0,0,0-.58,1A3.41,3.41,0,0,0,186,77.16Z"/><path class="svgtext" d="M194.92,75.54V73.46h1v.8a2.09,2.09,0,0,0,0,.5,2.47,2.47,0,0,1,1-1.05,2.77,2.77,0,0,1,1.56-.44,3.11,3.11,0,0,1,1.41.27,2.36,2.36,0,0,1,.86.71,2.62,2.62,0,0,1,.43,1,5.83,5.83,0,0,1,.12,1.18v4.4h-1V76.5a5.12,5.12,0,0,0-.08-.87,2.24,2.24,0,0,0-.28-.76,1.53,1.53,0,0,0-.56-.54,2,2,0,0,0-.94-.2,2.65,2.65,0,0,0-1,.19,2.07,2.07,0,0,0-.81.56,2.77,2.77,0,0,0-.55.94,4.07,4.07,0,0,0-.2,1.34v3.69h-1Z"/><path class="svgtext" d="M349.31,53.46h1v1.3a2.25,2.25,0,0,1,.56-.67,3.46,3.46,0,0,1,.73-.46,3.94,3.94,0,0,1,.82-.27,4,4,0,0,1,.85-.09,4,4,0,0,1,1.56.29,3.73,3.73,0,0,1,1.23.8,3.65,3.65,0,0,1,.81,1.24,4,4,0,0,1,.29,1.56,4.19,4.19,0,0,1-.29,1.56,3.61,3.61,0,0,1-.81,1.23,4,4,0,0,1-1.23.81,4.18,4.18,0,0,1-1.56.28,4.89,4.89,0,0,1-.85-.08,3.46,3.46,0,0,1-.82-.28,3.1,3.1,0,0,1-.73-.46,2.73,2.73,0,0,1-.56-.66V64.5h-1Zm.86,3.7a2.9,2.9,0,0,0,.24,1.16,3,3,0,0,0,.66,1,3,3,0,0,0,2.19.89,2.94,2.94,0,0,0,1.21-.24,2.74,2.74,0,0,0,.93-.65,2.82,2.82,0,0,0,.59-1A3.52,3.52,0,0,0,356,56a2.82,2.82,0,0,0-.59-1,2.74,2.74,0,0,0-.93-.65,2.94,2.94,0,0,0-1.21-.24,3,3,0,0,0-2.19.89,3,3,0,0,0-.67,1,3.08,3.08,0,0,0-.23,1.16Z"/><path class="svgtext" d="M359.45,48.76h1V60.85h-1Z"/><path class="svgtext" d="M368.87,57.75v2.49a2,2,0,0,0,.07.64H368a8.08,8.08,0,0,1-.09-1.2,2.75,2.75,0,0,1-1,1.06,3.23,3.23,0,0,1-1.56.33,3.73,3.73,0,0,1-.94-.12,2.32,2.32,0,0,1-.83-.38,2.19,2.19,0,0,1-.4-3,2.74,2.74,0,0,1,1.06-.75,5.57,5.57,0,0,1,1.34-.32c.48,0,.9-.07,1.26-.07H368V56a1.64,1.64,0,0,0-.12-.76,1.57,1.57,0,0,0-.47-.61,2.54,2.54,0,0,0-1.49-.42,3.41,3.41,0,0,0-2.26.83l-.56-.65a3.61,3.61,0,0,1,1.32-.78,4.78,4.78,0,0,1,1.5-.26,3.35,3.35,0,0,1,2.14.63,2.43,2.43,0,0,1,.64.91,2.52,2.52,0,0,1,.16,1.09ZM367,57.14a9.2,9.2,0,0,0-1.17.08,4.35,4.35,0,0,0-1,.27A1.93,1.93,0,0,0,364,58a1.17,1.17,0,0,0-.28.8,1.06,1.06,0,0,0,.16.6,1.49,1.49,0,0,0,.39.44,2,2,0,0,0,.53.25,2,2,0,0,0,.6.09,3.18,3.18,0,0,0,1.3-.18,2.11,2.11,0,0,0,.79-.59,2,2,0,0,0,.41-.81,4.06,4.06,0,0,0,.11-.92v-.5Z"/><path class="svgtext" d="M373.51,63.14a2.74,2.74,0,0,1-.75,1.14,1.91,1.91,0,0,1-1.28.41,3.84,3.84,0,0,1-.48,0,3.78,3.78,0,0,1-.46-.1l.09-.9.43.12a1.61,1.61,0,0,0,.44.06,1,1,0,0,0,.45-.11,1.21,1.21,0,0,0,.35-.29,1.58,1.58,0,0,0,.24-.39,3.43,3.43,0,0,0,.19-.44l.67-1.72-3-7.42h1.07l2.45,6.22,2.39-6.22h1Z"/><path class="svgtext" d="M407.63,53.46h1v1.3a2.25,2.25,0,0,1,.56-.67,3.1,3.1,0,0,1,.73-.46,3.94,3.94,0,0,1,.82-.27,4.24,4.24,0,0,1,2.41.2,3.73,3.73,0,0,1,1.23.8,3.65,3.65,0,0,1,.81,1.24,4,4,0,0,1,.29,1.56,4.19,4.19,0,0,1-.29,1.56,3.61,3.61,0,0,1-.81,1.23,4,4,0,0,1-1.23.81,4.18,4.18,0,0,1-1.56.28,4.89,4.89,0,0,1-.85-.08,3.46,3.46,0,0,1-.82-.28,2.91,2.91,0,0,1-.73-.46,2.73,2.73,0,0,1-.56-.66V64.5h-1Zm.86,3.7a2.9,2.9,0,0,0,.24,1.16,3,3,0,0,0,.66,1,3,3,0,0,0,2.19.89,2.94,2.94,0,0,0,1.21-.24,2.74,2.74,0,0,0,.93-.65,2.82,2.82,0,0,0,.59-1,3.51,3.51,0,0,0,0-2.35,2.82,2.82,0,0,0-.59-1,2.74,2.74,0,0,0-.93-.65,2.94,2.94,0,0,0-1.21-.24,3,3,0,0,0-2.19.89,3,3,0,0,0-.67,1,3.08,3.08,0,0,0-.23,1.16Z"/><path class="svgtext" d="M423.35,57.75v2.49a2,2,0,0,0,.07.64h-.9a8.08,8.08,0,0,1-.09-1.2,2.69,2.69,0,0,1-1,1.06,3.23,3.23,0,0,1-1.56.33,3.73,3.73,0,0,1-.94-.12,2.32,2.32,0,0,1-.83-.38,2.19,2.19,0,0,1-.4-3,2.74,2.74,0,0,1,1.06-.75,5.57,5.57,0,0,1,1.34-.32c.48,0,.9-.07,1.26-.07h1.12V56a1.64,1.64,0,0,0-.12-.76,1.57,1.57,0,0,0-.47-.61,2.54,2.54,0,0,0-1.49-.42,3.41,3.41,0,0,0-2.26.83l-.56-.65a3.61,3.61,0,0,1,1.32-.78,4.78,4.78,0,0,1,1.5-.26,3.35,3.35,0,0,1,2.14.63,2.43,2.43,0,0,1,.64.91,2.52,2.52,0,0,1,.16,1.09Zm-1.92-.61a9.2,9.2,0,0,0-1.17.08,4.35,4.35,0,0,0-1,.27,1.93,1.93,0,0,0-.72.51,1.17,1.17,0,0,0-.28.8,1.06,1.06,0,0,0,.16.6,1.49,1.49,0,0,0,.39.44,2,2,0,0,0,.53.25,2,2,0,0,0,.6.09,3.07,3.07,0,0,0,1.27-.22,2.19,2.19,0,0,0,.79-.59,2.07,2.07,0,0,0,.41-.81,4.06,4.06,0,0,0,.11-.92v-.5Z"/><path class="svgtext" d="M432.17,58.77a4.34,4.34,0,0,0,0,.51v1.57h-1v-.8a4,4,0,0,0,0-.49h-.05a2.53,2.53,0,0,1-1,1,2.73,2.73,0,0,1-1.57.44,3.16,3.16,0,0,1-1.42-.27,2.28,2.28,0,0,1-.86-.71,2.46,2.46,0,0,1-.42-1,5.83,5.83,0,0,1-.12-1.18v-4.4h1v4.35a5.12,5.12,0,0,0,.08.87,2.32,2.32,0,0,0,.28.76,1.45,1.45,0,0,0,.56.54,2,2,0,0,0,.94.2,2.85,2.85,0,0,0,1-.18,2.44,2.44,0,0,0,.82-.56,2.7,2.7,0,0,0,.54-1,4,4,0,0,0,.2-1.33v-3.7h1Z"/><path class="svgtext" d="M434.83,59a2,2,0,0,0,.89.91,2.6,2.6,0,0,0,1.25.31,2,2,0,0,0,1.15-.37,1.56,1.56,0,0,0,.39-.42,1.14,1.14,0,0,0,.16-.57,1,1,0,0,0-.07-.42.92.92,0,0,0-.26-.35,2.45,2.45,0,0,0-.81-.4c-.32-.09-.67-.18-1.06-.25a4.39,4.39,0,0,1-1.05-.32,2.17,2.17,0,0,1-.81-.6,1.56,1.56,0,0,1-.33-1.08,2,2,0,0,1,.22-1,2.19,2.19,0,0,1,.59-.66,2.43,2.43,0,0,1,.81-.39,3.13,3.13,0,0,1,.91-.13,3.56,3.56,0,0,1,1.58.33,2.33,2.33,0,0,1,1,1.06l-.87.51a1.94,1.94,0,0,0-.68-.77,1.89,1.89,0,0,0-1.06-.27,2,2,0,0,0-.54.08,1.89,1.89,0,0,0-.5.23,1.19,1.19,0,0,0-.38.36,1.07,1.07,0,0,0-.08.93.9.9,0,0,0,.26.32,2.73,2.73,0,0,0,.81.38,9.86,9.86,0,0,0,1,.23,4.31,4.31,0,0,1,1.06.31,2.17,2.17,0,0,1,.81.63,1.78,1.78,0,0,1,.32,1.16,2.14,2.14,0,0,1-.21,1,2,2,0,0,1-.59.71,2.78,2.78,0,0,1-.86.43,3.36,3.36,0,0,1-1,.14,4.22,4.22,0,0,1-1.75-.36A2.74,2.74,0,0,1,434,59.54Z"/><path class="svgtext" d="M448.15,59.46a3.2,3.2,0,0,1-1.38,1.22A4.45,4.45,0,0,1,445,61a4,4,0,0,1-1.53-.28,3.54,3.54,0,0,1-1.19-.79,3.64,3.64,0,0,1-.76-1.21,4.48,4.48,0,0,1-.26-1.58,4.24,4.24,0,0,1,.27-1.54,3.64,3.64,0,0,1,1.94-2,4,4,0,0,1,3,0,3.15,3.15,0,0,1,1.07.77,3.35,3.35,0,0,1,.68,1.13,3.6,3.6,0,0,1,.23,1.26v.68h-6.21a3.34,3.34,0,0,0,.12.77,2.89,2.89,0,0,0,.44.92A2.59,2.59,0,0,0,445,60.18a3.07,3.07,0,0,0,1.42-.35,2.62,2.62,0,0,0,1.06-1Zm-.73-2.93a2.29,2.29,0,0,0-.2-.93,2.73,2.73,0,0,0-.55-.76,2.6,2.6,0,0,0-1.81-.71,2.41,2.41,0,0,0-1.31.32A2.91,2.91,0,0,0,442.3,56a2,2,0,0,0-.13.53Z"/><rect class="ff8c6a1c-fa08-456e-9149-84a174a5a5d8" x="0.5" y="0.5" width="128" height="37" rx="2.5"/><path class="svgtext" d="M21.87,14.91a3.42,3.42,0,0,0-1.2-.84,3.94,3.94,0,0,0-1.62-.31,4,4,0,0,0-1.71.35,3.84,3.84,0,0,0-1.29.94,4.16,4.16,0,0,0-.8,1.37A4.6,4.6,0,0,0,15,18a4.75,4.75,0,0,0,.28,1.64,4.11,4.11,0,0,0,.8,1.36,4,4,0,0,0,1.29.94,4,4,0,0,0,1.71.35,5.92,5.92,0,0,0,1.47-.18,5.62,5.62,0,0,0,1.27-.52V18.31H19.42v-.92H22.8v4.85A7.42,7.42,0,0,1,21,23a7.64,7.64,0,0,1-1.9.25A5.36,5.36,0,0,1,17,22.86a5.09,5.09,0,0,1-1.64-1.08,5,5,0,0,1-1.08-1.65,5.77,5.77,0,0,1,0-4.17,4.88,4.88,0,0,1,1.08-1.64A5,5,0,0,1,17,13.23a5.36,5.36,0,0,1,2.06-.39,5.66,5.66,0,0,1,2,.33,4.31,4.31,0,0,1,1.54,1Zm5.78,7.17H33V23H26.64V13.09h6.14V14H27.65v3.38h4.8v.92h-4.8ZM39.3,23h-1V14H35v-.92h7.64V14H39.3Zm15.83-8.27a2.17,2.17,0,0,0-1.92-1,2.92,2.92,0,0,0-.77.11,2,2,0,0,0-.68.32,1.54,1.54,0,0,0-.48.56,1.69,1.69,0,0,0-.18.8,1.42,1.42,0,0,0,.38,1.05,2.87,2.87,0,0,0,.94.6,11.35,11.35,0,0,0,1.21.44,5.45,5.45,0,0,1,1.24.5,2.84,2.84,0,0,1,.93.83,2.27,2.27,0,0,1,.38,1.41,2.59,2.59,0,0,1-.29,1.22,2.85,2.85,0,0,1-.76.9,3.53,3.53,0,0,1-1.05.56,3.57,3.57,0,0,1-1.16.19,4.64,4.64,0,0,1-1.74-.33,3.42,3.42,0,0,1-1.38-1.14l.91-.66a2.45,2.45,0,0,0,.89.89,2.82,2.82,0,0,0,1.36.32,2.85,2.85,0,0,0,.76-.11,2.51,2.51,0,0,0,.67-.35,1.86,1.86,0,0,0,.5-.58,1.67,1.67,0,0,0,0-1.62,1.69,1.69,0,0,0-.58-.58,3.39,3.39,0,0,0-.81-.39l-.94-.31c-.32-.1-.63-.22-.94-.35a3.5,3.5,0,0,1-.81-.49,2.4,2.4,0,0,1-.57-.75A2.78,2.78,0,0,1,50,15.65a2.88,2.88,0,0,1,.26-1.25,2.84,2.84,0,0,1,.73-.88A3.5,3.5,0,0,1,52,13a4.51,4.51,0,0,1,2.7.1A3.26,3.26,0,0,1,56,14ZM62.59,23h-1V14H58.26v-.92h7.65V14H62.59ZM69,19.47h4.29l-2.14-5.21ZM67.52,23H66.34l4.31-9.91h1L75.94,23H74.77l-1.09-2.6H68.61Zm12-5.53h1.79a4.12,4.12,0,0,0,1.14-.14,2.18,2.18,0,0,0,.75-.36,1.45,1.45,0,0,0,.41-.55,1.92,1.92,0,0,0,.12-.69,1.75,1.75,0,0,0-.12-.65,1.34,1.34,0,0,0-.41-.56,2,2,0,0,0-.75-.37A4.12,4.12,0,0,0,81.27,14H79.48Zm0,5.53h-1V13.09h3a3.85,3.85,0,0,1,2.38.66,2.3,2.3,0,0,1,.89,2,2.47,2.47,0,0,1-.66,1.75,2.81,2.81,0,0,1-1.88.82L85.11,23H83.88l-2.72-4.61H79.48Zm11.74,0h-1V14H86.89v-.92h7.65V14H91.22Zm7.06-.92h5.3V23H97.27V13.09h6.15V14H98.28v3.38h4.8v.92h-4.8Zm9.35,0h2a5.28,5.28,0,0,0,2-.34,4,4,0,0,0,1.38-.91,3.57,3.57,0,0,0,.83-1.29A4.24,4.24,0,0,0,114,18a4.17,4.17,0,0,0-.27-1.48,3.49,3.49,0,0,0-.83-1.29,3.91,3.91,0,0,0-1.38-.91,5.08,5.08,0,0,0-2-.35h-2Zm-1-9h3.29a5.7,5.7,0,0,1,1.85.31,5,5,0,0,1,1.68.93,4.64,4.64,0,0,1,1.22,1.56,4.83,4.83,0,0,1,.46,2.15,4.66,4.66,0,0,1-1.68,3.73,5.1,5.1,0,0,1-1.68.92,5.7,5.7,0,0,1-1.85.31h-3.29Z"/><rect class="b94eaa8b-13b9-4f4b-b4b2-916fecaa2594" x="154.5" y="0.5" width="128" height="37" rx="2.5"/><path class="b7bf9c53-0ea4-44e6-a3ca-e9bc6f86b2a7" d="M175.87,14.91a3.42,3.42,0,0,0-1.2-.84,3.94,3.94,0,0,0-1.62-.31,4,4,0,0,0-1.71.35,3.84,3.84,0,0,0-1.29.94,4.16,4.16,0,0,0-.8,1.37A4.84,4.84,0,0,0,169,18a5,5,0,0,0,.28,1.64,4.11,4.11,0,0,0,.8,1.36,4,4,0,0,0,1.29.94,4,4,0,0,0,1.71.35,5.92,5.92,0,0,0,1.47-.18,5.62,5.62,0,0,0,1.27-.52V18.31h-2.37v-.92h3.38v4.85A7.42,7.42,0,0,1,175,23a7.66,7.66,0,0,1-1.91.25,5.35,5.35,0,0,1-2-.39,5.09,5.09,0,0,1-1.64-1.08,5,5,0,0,1-1.08-1.65,5.77,5.77,0,0,1,0-4.17,4.88,4.88,0,0,1,1.08-1.64A5,5,0,0,1,171,13.23a5.35,5.35,0,0,1,2-.39,5.68,5.68,0,0,1,2.05.33,4.31,4.31,0,0,1,1.54,1Zm5.78,7.17H187V23h-6.31V13.09h6.14V14h-5.13v3.38h4.8v.92h-4.8ZM193.3,23h-1V14H189v-.92h7.64V14h-3.31Zm15.83-8.27a2.17,2.17,0,0,0-1.92-1,2.92,2.92,0,0,0-.77.11,2,2,0,0,0-.68.32,1.54,1.54,0,0,0-.48.56,1.69,1.69,0,0,0-.18.8,1.42,1.42,0,0,0,.38,1.05,2.87,2.87,0,0,0,.94.6,10.6,10.6,0,0,0,1.21.44,5.45,5.45,0,0,1,1.24.5,2.84,2.84,0,0,1,.93.83,2.27,2.27,0,0,1,.38,1.41,2.59,2.59,0,0,1-.29,1.22,2.85,2.85,0,0,1-.76.9,3.53,3.53,0,0,1-1,.56,3.57,3.57,0,0,1-1.16.19,4.64,4.64,0,0,1-1.74-.33,3.42,3.42,0,0,1-1.38-1.14l.91-.66a2.45,2.45,0,0,0,.89.89,2.82,2.82,0,0,0,1.36.32,2.85,2.85,0,0,0,.76-.11,2.51,2.51,0,0,0,.67-.35,2,2,0,0,0,.5-.58,1.5,1.5,0,0,0,.2-.77,1.58,1.58,0,0,0-.22-.85,1.69,1.69,0,0,0-.58-.58,3.39,3.39,0,0,0-.81-.39l-.94-.31c-.32-.1-.63-.22-.94-.35a3.3,3.3,0,0,1-.81-.49,2.4,2.4,0,0,1-.57-.75,2.78,2.78,0,0,1-.21-1.15,2.88,2.88,0,0,1,.26-1.25,2.84,2.84,0,0,1,.73-.88,3.38,3.38,0,0,1,1-.52,4.51,4.51,0,0,1,2.7.1A3.26,3.26,0,0,1,210,14ZM216.59,23h-1V14h-3.32v-.92h7.65V14h-3.32ZM223,19.47h4.3l-2.14-5.21ZM221.51,23h-1.17l4.31-9.91h1L229.94,23h-1.17l-1.1-2.6h-5.06Zm12-5.53h1.79a4,4,0,0,0,1.13-.14,2.15,2.15,0,0,0,.76-.36,1.45,1.45,0,0,0,.41-.55,1.92,1.92,0,0,0,.12-.69,1.75,1.75,0,0,0-.12-.65,1.34,1.34,0,0,0-.41-.56,2,2,0,0,0-.76-.37,4,4,0,0,0-1.13-.14h-1.79Zm0,5.53h-1V13.09h3.05a3.85,3.85,0,0,1,2.38.66,2.3,2.3,0,0,1,.89,2,2.47,2.47,0,0,1-.66,1.75,2.81,2.81,0,0,1-1.88.82l2.86,4.7h-1.23l-2.72-4.61h-1.68Zm11.74,0h-1V14h-3.32v-.92h7.65V14h-3.32Zm7.06-.92h5.3V23h-6.31V13.09h6.15V14h-5.14v3.38h4.8v.92h-4.8Zm9.35,0h2a5.28,5.28,0,0,0,2-.34,4,4,0,0,0,1.38-.91,3.57,3.57,0,0,0,.83-1.29A4.24,4.24,0,0,0,268,18a4.17,4.17,0,0,0-.27-1.48,3.49,3.49,0,0,0-.83-1.29,3.91,3.91,0,0,0-1.38-.91,5.08,5.08,0,0,0-2-.35h-2Zm-1-9h3.29a5.7,5.7,0,0,1,1.85.31,5,5,0,0,1,1.68.93,4.64,4.64,0,0,1,1.22,1.56,4.83,4.83,0,0,1,.46,2.15,4.66,4.66,0,0,1-1.68,3.73,5.1,5.1,0,0,1-1.68.92,5.7,5.7,0,0,1-1.85.31h-3.29Z"/><rect class="a32f69ed-a00b-472e-84f6-26be52533120" x="350" y="8" width="26" height="26" rx="2"/><path class="f5645449-e2c2-487e-956d-beaaf838ce9c" d="M358.5,14l9.5,6.78L358.5,28"/><rect class="a32f69ed-a00b-472e-84f6-26be52533120" x="416" y="8" width="26" height="26" rx="2"/><path class="f5645449-e2c2-487e-956d-beaaf838ce9c" d="M425,14V28m8-14V28"/></g></g></svg>
