<?xml version="1.0" encoding="utf-8"?>
<!-- Generator: Adobe Illustrator 25.4.1, SVG Export Plug-In . SVG Version: 6.00 Build 0)  -->
<svg version="1.1" id="Layer_1" xmlns="http://www.w3.org/2000/svg" xmlns:xlink="http://www.w3.org/1999/xlink" x="0px" y="0px"
	 viewBox="0 0 192 192" style="enable-background:new 0 0 192 192;" xml:space="preserve">
<style type="text/css">
	.st0{fill:none;stroke:#DB2C47;stroke-width:12;stroke-linecap:round;stroke-miterlimit:10;}
</style>
<path class="st0" d="M8.6,99h8c5.1,0,9.2-4.1,9.2-9.2v-2.3c0-5.1,4.1-9.2,9.2-9.2h0c5.1,0,9.2,4.1,9.2,9.2V109
	c0,5.1,4.1,9.2,9.2,9.2h0.6c5.1,0,9.2-4.1,9.2-9.2V71.1c0-5.7,4.6-10.3,10.3-10.3h0c5.7,0,10.3,4.6,10.3,10.3v58
	c0,5.8,4.7,10.5,10.5,10.5h0c5.8,0,10.5-4.7,10.5-10.5V57.2c0-6.4,5.2-11.6,11.6-11.6h0c6.4,0,11.6,5.2,11.6,11.6v63.9
	c0,5.8,4.7,10.5,10.5,10.5h0c5.8,0,10.5-4.7,10.5-10.5V83.9c0-5.5,4.4-9.9,9.9-9.9h0c5.5,0,9.9,4.4,9.9,9.9v6c0,5.1,4.1,9.2,9.2,9.2
	h4.2"/>
</svg>
