<?xml version="1.0" encoding="utf-8"?>
<!-- Generator: Adobe Illustrator 25.4.1, SVG Export Plug-In . SVG Version: 6.00 Build 0)  -->
<svg version="1.1" id="Layer_1" xmlns="http://www.w3.org/2000/svg" xmlns:xlink="http://www.w3.org/1999/xlink" x="0px" y="0px"
	 viewBox="0 0 500 500" style="enable-background:new 0 0 500 500;" xml:space="preserve">
<style type="text/css">
</style>
<g id="b831b85b-26b6-4874-aef2-a7ab5dac2112">
	<g id="b4d7149c-775a-4d2c-9a7c-0119f3c63d15">
		<path class="svgtext" d="M487.4,242.1v15.6c-0.1,0.8-0.3,1.7-0.4,2.5c-0.8,6.8-1.3,13.6-2.5,20.4c-3.6,21.7-11.5,42.6-23.3,61.2
			c-17.3,28.2-42.3,50.9-72.1,65.4c-17.5,8.6-36.3,14.2-55.6,16.4c-4.3,0.5-8.6,0.9-12.9,1.4H153.8c-0.8-0.2-1.7-0.4-2.5-0.5
			c-16.7-1-33.1-5-48.4-11.6c-33.6-14.7-58.6-38.4-75-71.3C20.7,327.2,16,311.6,14,295.5c-0.5-3.9-0.9-7.8-1.4-11.7v-15.2
			c0.2-0.8,0.4-1.7,0.5-2.5c0.9-14.5,3.9-28.7,9.1-42.3c14.2-36.6,38.9-63.7,74-81.3c18.1-8.9,37.8-14.1,57.9-15
			c9.9-0.5,19.9,0,29.7,1.4c1,0.1,2-0.2,2.8-0.9c14.1-14.4,30.5-26.3,48.6-35.2c17.6-8.7,36.5-14.2,55.9-16.5
			c4.6-0.5,9.2-1,13.9-1.4h14.2c0.9,0.1,1.9,0.3,2.8,0.4c7,0.8,14.1,1.3,21.1,2.5c21.6,3.7,42.2,11.5,60.8,23.1
			c28.3,17.3,51.1,42.4,65.7,72.2c8.7,17.5,14.2,36.3,16.4,55.7C486.5,233.2,486.9,237.7,487.4,242.1 M221.9,141
			c0.3,0.4,0.4,0.6,0.5,0.6c9.8,4.8,19.1,10.5,27.9,16.9c0.9,0.3,1.8,0.3,2.6-0.2c24.2-15.3,50.4-20.6,78.6-15.6
			c27.6,4.9,50,18.7,67.2,40.7c19.4,24.9,26.8,53.1,21.5,84.5c-3.6,21-12,39.9-26.3,55.6c-26.1,28.8-58.8,40.7-97.3,35.7
			c-23.7-3.1-44.1-13.3-61.1-30.4c-21.7-21.9-43.6-43.7-65.4-65.6c-2.9-2.9-6.1-5.3-10.3-5.8c-7.1-0.9-14,2.8-17.1,9.3
			c-2.8,5.9-2.4,12.5,3.7,18.5c24.3,23.8,48.4,47.9,72.6,71.8c4.1,4.1,8.6,7.9,13.3,11.3c17.7,12.9,37.7,20,59.3,22.8
			c16.9,2.3,34,1.7,50.6-2c31.9-7.2,58.3-23.4,79.1-48.6c27-32.7,37.9-75.7,29.9-117.3c-4.8-24.7-15.3-46.9-32.1-65.7
			c-32-35.9-72.2-52-120.1-48.4c-18.3,1.5-36.1,6.7-52.3,15.4C237.9,129.1,229.5,134.7,221.9,141 M210.2,391.8
			c-0.7-0.6-1.3-1.2-2-1.8c-9.9-9.4-19.9-18.7-29.7-28.2c-1.6-1.8-3.9-2.7-6.3-2.7c-9.9,0.2-19.9,0.3-29.7-1.9
			c-48.7-11-77-64-59-110.5c14.2-36.7,53.3-59.1,92-52.2c17.3,3.1,32.5,10.4,45,23.3c15.2,15.7,30.9,31,46.3,46.5
			c3.5,3.5,7.5,5.2,12.4,4.5c6.3-0.9,11.3-3.9,13.5-10c2.3-5.6,1-12.1-3.4-16.4c-16.1-16.4-31.9-33.1-48.7-48.8
			c-32.6-30.4-71-39.4-113.5-26.5C70,184.5,36.5,243.6,49.6,301.8c11.6,52.9,58.5,90.5,112.6,90.3h45.5
			C208.5,391.9,209.4,391.8,210.2,391.8"/>
	</g>
</g>
</svg>
