<?xml version="1.0" encoding="utf-8"?>
<!-- Generator: Adobe Illustrator 25.4.1, SVG Export Plug-In . SVG Version: 6.00 Build 0)  -->
<svg version="1.1" id="Layer_1" xmlns="http://www.w3.org/2000/svg" xmlns:xlink="http://www.w3.org/1999/xlink" x="0px" y="0px"
	 viewBox="0 0 500 500" style="enable-background:new 0 0 500 500;" xml:space="preserve">
<style type="text/css">
</style>
<desc>Created using Figma</desc>
<path id="path0_fill" class="svgtext" d="M168.2,495.4c45.1,0,81.8-36.6,81.8-81.8v-81.8h-81.8c-45.1,0-81.8,36.6-81.8,81.8
	S123.1,495.4,168.2,495.4z"/>
<path id="path1_fill" class="svgtext" d="M86.4,250c0-45.1,36.6-81.8,81.8-81.8H250v163.6h-81.8C123.1,331.8,86.4,295.1,86.4,250z"/>
<path id="path1_fill_1_" class="svgtext" d="M86.4,86.4c0-45.1,36.6-81.8,81.8-81.8H250v163.6h-81.8C123.1,168.2,86.4,131.6,86.4,86.4z"
	/>
<path id="path2_fill" class="svgtext" d="M250,4.6h81.8c45.1,0,81.8,36.6,81.8,81.8s-36.6,81.8-81.8,81.8H250V4.6z"/>
<path id="path3_fill" class="svgtext" d="M413.6,250c0,45.1-36.6,81.8-81.8,81.8S250,295.1,250,250s36.6-81.8,81.8-81.8
	S413.6,204.9,413.6,250z"/>
</svg>
