<?xml version="1.0" encoding="utf-8"?>
<!-- Generator: Adobe Illustrator 25.4.1, SVG Export Plug-In . SVG Version: 6.00 Build 0)  -->
<svg version="1.1" id="Layer_1" xmlns="http://www.w3.org/2000/svg" xmlns:xlink="http://www.w3.org/1999/xlink" x="0px" y="0px"
	 viewBox="0 0 192 192" style="enable-background:new 0 0 192 192;" xml:space="preserve">
<style type="text/css">
	.st0gaming{fill:none;}
	.svgstroke{fill:none;stroke-width:12;stroke-linecap:round;stroke-linejoin:round;stroke-miterlimit:3;}
</style>
<rect class="st0gaming" width="192" height="192"/>
<line class="svgstroke" x1="114" y1="81" x2="138" y2="81"/>
<line class="svgstroke" x1="54" y1="81" x2="78" y2="81"/>
<line class="svgstroke" x1="66" y1="69" x2="66" y2="93"/>
<path class="svgstroke" d="M129,41.8L63,42c-18.9,0-35.1,13.6-38.4,32.2l0,0l-12.3,63.1c-2,11.4,5.6,22.3,17,24.3c6.7,1.2,13.6-1,18.5-5.8
	l0,0L80.3,120l48.7-0.2c21.5,0,39-17.5,39-39S150.6,41.8,129,41.8z"/>
<path class="svgstroke" d="M167.4,74l12.3,63.3c2,11.4-5.6,22.3-17,24.3c-6.7,1.2-13.6-1-18.5-5.8l0,0l-32.4-36"/>
</svg>
