<?xml version="1.0" encoding="utf-8"?>
<!-- Generator: Adobe Illustrator 25.4.1, SVG Export Plug-In . SVG Version: 6.00 Build 0)  -->
<svg version="1.1" id="Layer_1" xmlns="http://www.w3.org/2000/svg" xmlns:xlink="http://www.w3.org/1999/xlink" x="0px" y="0px"
	 viewBox="0 0 500 500" style="enable-background:new 0 0 500 500;" xml:space="preserve">
<path class="svgtext" d="M250,6C115.2,6,6,115.2,6,250s109.2,244,244,244s244-109.2,244-244S384.8,6,250,6z M114.1,385.9
	c-35.3-35.1-55.3-82.7-55.8-132.5l190,188.2C198.1,440.8,150.1,420.9,114.1,385.9z M291.8,436.5L63.5,208.2
	C86.7,104.9,189.3,39.9,292.6,63.1c45.2,10.1,85.1,36.3,112.5,73.6L379,159.4c-30-41.3-77.9-65.9-129-66.2
	c-66.4,0.4-125.5,42.1-148.1,104.6l200.4,200.4c50.8-18,88.9-60.8,101.1-113.3h-83.7V250h122C441.4,339.5,379.2,417,291.8,436.5z"/>
</svg>
