<?xml version="1.0" encoding="utf-8"?>
<!-- Generator: Adobe Illustrator 25.4.1, SVG Export Plug-In . SVG Version: 6.00 Build 0)  -->
<svg version="1.1" id="Layer_1" xmlns="http://www.w3.org/2000/svg" xmlns:xlink="http://www.w3.org/1999/xlink" x="0px" y="0px"
	 viewBox="0 0 500 500" style="enable-background:new 0 0 500 500;" xml:space="preserve">
<style type="text/css">
</style>
<path class="svgtext" d="M10,10l21.3,233.1l92.8,26.1l93.9-26.1L239.3,10C239,10,10,10,10,10z M194.6,65.7l-1.1,14.1l-1.1,5.7h-68.7l0,0
	H83.6l3.1,29.2h37.6l0,0H191l-1.1,7.8l-7.3,75.6v5.2l-58.4,16.1l0,0l0,0l-58.4-16.1l-4.1-45.4h28.2l0,0l2.1,23l32.4,8.9l0,0l0,0
	l32.4-8.9l3.1-37.6h-35.4l0,0H60.6l-7.3-77.7l-1.1-7.8h71.6l0,0h71.5L194.6,65.7z"/>
<path class="svgtext" d="M260.1,230.8L281.5,465l93.9,25l93.9-25l21.3-234.2L260.1,230.8L260.1,230.8z M446.3,278.2l-3.1,28.2l0,0
	l-68.4,29.7l0,0l0,0h66.7l-7.8,87.6l-58.9,17.2l0,0l0,0l-58.4-17.2l-4.1-44.3l0,0l0,0h29.2l2.1,23l31.3,7.8l0,0l0,0l32.4-8.9
	l2.1-37.6H375l0,0h-64.7l0,0l-2.1-27.1l66.7-28.2l0,0l4.1-2.1h-4.1h-69.3l-3.1-28.2H375L446.3,278.2L446.3,278.2L446.3,278.2z"/>
</svg>
