<?xml version="1.0" encoding="utf-8"?>
<!-- Generator: Adobe Illustrator 25.4.1, SVG Export Plug-In . SVG Version: 6.00 Build 0)  -->
<svg version="1.1" id="Layer_1" xmlns="http://www.w3.org/2000/svg" xmlns:xlink="http://www.w3.org/1999/xlink" x="0px" y="0px"
	 viewBox="0 0 491.1 157.1" style="enable-background:new 0 0 491.1 157.1;" xml:space="preserve">
<style type="text/css">
	.st0{fill:#111115;}
	.st1{fill:#66B933;}
</style>
<g>
	<path class="st0" d="M184.9,156.7c-2.8,0-5.6,0-8.5,0c-1.3,0-2.5-0.5-3.3-1.4c-3.5-3.6-7.1-7.1-10.6-10.6l-6.6-6.6l-23-22.9
		c-0.4-0.4-0.9-0.9-1.4-1.3c-1.3-1.3-3.4-1.4-4.7-0.1c-0.1,0.1-0.1,0.1-0.2,0.2c-1,0.9-2,1.9-3,2.9c-5.7,5.6-11.3,11.2-16.9,16.8
		l-20.5,20.4c-0.5,0.4-0.9,0.9-1.3,1.4c-0.7,0.8-1.7,1.3-2.8,1.2c-2.9,0-5.8,0-8.7,0s-5.9,0-8.8,0c-1.9,0.1-3.5-1.4-3.6-3.3
		c0-0.1,0-0.2,0-0.4c0-5.8,0-11.5,0-17.3c-0.1-1.2,0.4-2.3,1.3-3c0.3-0.2,0.6-0.5,0.8-0.8l40.6-40.5c0.6-0.6,1.1-1.3,1.3-2.1
		c0.2-1.2-0.2-2.4-1.1-3.2c-2.3-2.3-4.7-4.7-7-7.1L72.7,54.9l-8.6-8.6c-0.6-0.6-1.2-1.1-1.8-1.7c-0.8-0.7-1.2-1.7-1.2-2.7V24.3
		c-0.2-1.9,1.2-3.5,3-3.7c0.2,0,0.4,0,0.7,0H82c1.2-0.1,2.4,0.4,3.2,1.4c0.3,0.3,0.6,0.6,0.9,1l40.3,40.2c0.2,0.2,0.4,0.4,0.7,0.6
		c1.3,1,3.2,1,4.4-0.1c0.2-0.2,0.4-0.4,0.6-0.6l32.3-32.3l7.4-7.4c0.5-0.5,1.1-1.1,1.6-1.6c0.7-0.8,1.7-1.3,2.7-1.2h17.8
		c1.8-0.1,3.3,1.3,3.4,3.2c0,0,0,0,0,0c0,0.1,0,0.2,0,0.3V42c0,1-0.4,1.9-1.1,2.6l-19.9,19.9l-12.7,12.7l-8.7,8.7
		c-0.2,0.2-0.4,0.4-0.6,0.6c-1.2,1.3-1.1,3.3,0.1,4.6c0.9,0.9,1.8,1.8,2.6,2.7c9.4,9.4,18.8,18.8,28.2,28.2l9.8,9.8
		c0.3,0.3,0.7,0.7,1.1,0.9c0.9,0.6,1.4,1.7,1.4,2.8V153c0,0.3,0,0.7-0.1,1c-0.3,1.6-1.6,2.7-3.2,2.7c-2.2,0-4.3,0-6.5,0L184.9,156.7
		L184.9,156.7z"/>
	<path class="st0" d="M234.5,157.1V2.8h1h52.2h4.1c11.5,0.3,22.5,4.4,31.4,11.6c5.9,4.8,10.7,10.7,14.1,17.5c3.1,5.7,5,12,5.6,18.5
		c0.5,5.2,0.7,10.5,0.8,15.8c0,5.5,0.1,11.1,0.1,16.6c0,6-0.2,12-0.4,18c-0.1,4.7-0.6,9.4-1.4,14.1c-0.7,4.2-2.1,8.2-4.1,11.9
		c-3.3,6.3-7.6,11.9-12.9,16.6c-7.4,6.5-16.3,11-26,12.8c-4,0.8-8,1.1-12,1L234.5,157.1z M258,24.9v109.9h0.8H286
		c3.7,0,7.4-0.4,11-1.3c12.2-3.1,21.2-13.4,22.4-25.9c0.3-4,0.6-8.1,0.7-12.1c0.2-10.7,0.2-21.4-0.1-32.1c-0.1-3.9-0.4-7.8-1-11.7
		c-0.5-4.1-2-8-4.2-11.5c-1.3-1.9-2.6-3.7-4.1-5.4c-3.1-3.8-7.3-6.6-11.9-8.2c-3.9-1.2-7.9-1.8-11.9-1.8c-9.3,0-18.6,0-27.9,0
		L258,24.9z"/>
	<path class="st0" d="M491.1,157.1h-24.8c-3.9-11.5-7.8-22.9-11.8-34.4h-58.5c-4,11.4-8,22.9-12,34.4h-24.7
		c18.7-51.5,37.3-102.9,55.9-154.3h19.7L491.1,157.1z M447.8,101.7c-0.1-0.4-0.2-0.7-0.3-0.9L443.3,88
		c-5.8-17.5-11.6-35.1-17.4-52.7c-0.1-0.3,0-0.8-0.6-0.8s-0.5,0.5-0.6,0.9c-4.1,12.3-8.2,24.6-12.2,36.9l-9.4,28.3
		c-0.1,0.4-0.2,0.8-0.4,1.2L447.8,101.7z"/>
	<path class="st0" d="M0,2.8h23.2c0.2,0.7,0.3,152.8,0.1,154.1c-0.7,0.2-22.1,0.2-23.3,0V2.8z"/>
	<path class="st0" d="M146.4,17.4c0,0.9-0.4,1.8-1.1,2.4l-4,4l-9.6,9.6c-0.9,1-2.2,1.4-3.5,1.1c-0.7-0.2-1.4-0.6-1.9-1.2l-9-9
		l-4.4-4.4c-1.4-1.2-1.6-3.3-0.4-4.8c0.1-0.1,0.2-0.3,0.4-0.4c4.5-4.5,9-9,13.5-13.5c1.2-1.5,3.4-1.7,4.8-0.5
		c0.2,0.1,0.3,0.3,0.5,0.5c4.5,4.5,9.1,9,13.6,13.5C146.1,15.5,146.5,16.5,146.4,17.4L146.4,17.4z"/>
</g>
<path class="st1" d="M85.7,23.9v18c0,1.8-1.5,3.3-3.3,3.3h-18c-1.8,0-3.3-1.5-3.3-3.3v-18c0-1.8,1.5-3.3,3.3-3.3h18
	C84.2,20.6,85.7,22.1,85.7,23.9z"/>
<path class="st1" d="M197.4,23.9v18c0,1.8-1.5,3.3-3.3,3.3h-18c-1.8,0-3.3-1.5-3.3-3.3v-18c0-1.8,1.5-3.3,3.3-3.3h18
	C195.9,20.6,197.4,22.1,197.4,23.9z"/>
<path class="st1" d="M197.4,135.5v18c0,1.8-1.5,3.3-3.3,3.3h-18c-1.8,0-3.3-1.5-3.3-3.3v-18c0-1.8,1.5-3.3,3.3-3.3h18
	C195.9,132.2,197.4,133.7,197.4,135.5z"/>
<path class="st1" d="M85.4,135.5v18c0,1.8-1.5,3.3-3.3,3.3h-18c-1.8,0-3.3-1.5-3.3-3.3v-18c0-1.8,1.5-3.3,3.3-3.3h18
	C84,132.2,85.4,133.7,85.4,135.5z"/>
</svg>
