<svg xmlns="http://www.w3.org/2000/svg" viewBox="0 0 500 500"><defs></defs><g id="f06fe5f5-8d5b-4dd9-98e2-657af9a7201f" data-name="Layer 2"><g id="e93a9241-e9a6-4980-b2c6-a144b1f9a096" data-name="Layer 1"><path class="svgtext" d="M0,0V500H500V0ZM272.3,390c0,48.7-28.5,70.8-70.2,70.8-37.6,0-59.4-19.4-70.5-42.9l38.3-23.2c7.4,13.1,14.1,24.2,30.2,24.2,15.5,0,25.2-6,25.2-29.5V229.6h47Zm111,70.9c-43.7,0-71.8-20.8-85.6-48l38.2-22.3c10.1,16.4,23.2,28.6,46.3,28.6,19.4,0,31.9-9.8,31.9-23.2,0-16.1-12.8-21.8-34.2-31.2l-11.7-5.1c-33.9-14.4-56.4-32.5-56.4-70.8,0-35.2,26.8-62.1,68.8-62.1,29.8,0,51.3,10.4,66.8,37.6L410.8,288c-8-14.4-16.7-20.2-30.2-20.2-13.7,0-22.5,8.7-22.5,20.2,0,14.1,8.7,19.8,28.9,28.6l11.7,5c39.9,17.1,62.5,34.6,62.5,73.8C461.2,437.7,427.9,460.9,383.3,460.9Z"/></g></g></svg>
