<?xml version="1.0" encoding="utf-8"?>
<!-- Generator: Adobe Illustrator 25.4.1, SVG Export Plug-In . SVG Version: 6.00 Build 0)  -->
<svg version="1.1" id="Layer_1" xmlns="http://www.w3.org/2000/svg" xmlns:xlink="http://www.w3.org/1999/xlink" x="0px" y="0px"
	 viewBox="0 0 192 192" style="enable-background:new 0 0 192 192;" xml:space="preserve">
<style type="text/css">
	.st0music{fill:none;}
	.svgstroke{fill:none;stroke-width:12;stroke-linecap:round;stroke-linejoin:round;stroke-miterlimit:3;}
</style>
<rect class="st0music" width="192" height="192"/>
<path class="svgstroke" d="M169.1,102h-24c-6.6,0-12,5.4-12,12v30c0,6.6,5.4,12,12,12h12c6.6,0,12-5.4,12-12V102c0-39.8-32.2-72-72-72
	c-0.2,0-0.4,0-0.5,0C56.8,29.7,24.3,61.7,24,101.5c0,0.2,0,0.4,0,0.5v42c0,6.6,5.4,12,12,12h12c6.6,0,12-5.4,12-12v-30
	c0-6.6-5.4-12-12-12H24"/>
</svg>
