<svg viewBox="0 0 600 374.28" xmlns="http://www.w3.org/2000/svg"><g fill="#fff"><path d="m412.52 2.51a8.74 8.74 0 0 1 6.13-2.51h108.35a8.76 8.76 0 0 1 5.31 15.72l-159.07 138.52a8.77 8.77 0 0 1 -12.67-.3l-54.2-47.18a8.75 8.75 0 0 1 .86-12.59z"/><path d="m412.52 371.77a8.74 8.74 0 0 0 6.13 2.51h108.35a8.76 8.76 0 0 0 5.31-15.72l-159.07-138.56a8.76 8.76 0 0 0 -12.67.31l-54.2 47.17a8.75 8.75 0 0 0 .86 12.59l105.29 91.66z"/><path d="m123.19 372a8.69 8.69 0 0 1 -5.91 2.3h-108.53a8.75 8.75 0 0 1 -6.19-14.94l190.17-165.5a8.76 8.76 0 0 0 .31-13.13l-189.94-165.29a8.76 8.76 0 0 1 5.65-15.44h108.53a8.77 8.77 0 0 1 5.93 2.31l204.73 178.22a8.74 8.74 0 0 1 0 13.24z"/><path d="m550.4 349.1h-7.24a2.43 2.43 0 1 1 0-4.86h19.84a2.43 2.43 0 0 1 0 4.86h-7.28v22.58a2.65 2.65 0 0 1 -5.29 0v-22.58z"/><path d="m570.68 346.71a2.63 2.63 0 0 1 2.65-2.64h.55a2.76 2.76 0 0 1 2.43 1.41l9 14.14 9.08-14.19a2.63 2.63 0 0 1 2.38-1.36h.56a2.62 2.62 0 0 1 2.64 2.64v25a2.59 2.59 0 0 1 -2.64 2.6 2.63 2.63 0 0 1 -2.6-2.6v-17.92l-7.29 10.95a2.45 2.45 0 0 1 -4.39 0l-7.24-10.87v17.86a2.54 2.54 0 0 1 -2.6 2.55 2.51 2.51 0 0 1 -2.56-2.55v-25z"/></g></svg>