<svg viewBox="0 0 332.84 331.34" xmlns="http://www.w3.org/2000/svg"><g fill="#fff"><path d="m120.5 245.56 98.5-161.08s1.51-2.86-2.11-3l-12.1-.08-2.31.73.28-.46-103.83 170.03h.07l-.26.45h15s3.8.13 6.76-6.59z"/><path d="m253.84 164.9a4.91 4.91 0 0 1 -.22 4.74l-48.38 79.36s-2.13 3.74 3 3.75h19.57s4.55 0 6.72-3.47l48.56-79.28a7.07 7.07 0 0 0 -.35-6.45l-43-69.9s-1.21-1.88-2.75.47l-13.49 22.06 11.63 17.72z"/><path d="m252.56 0-37.46 61.37h.23l-.28.46 25.41.07s3.87-.18 5.77 2.85l60.06 98.79s2.94 4.42-.38 7.9l-59 96.48s-2.7 4-6.33 4.14h-73.25l62.47-102.3a7.63 7.63 0 0 0 -.81-6.86l-6-9.12-11.7-17.66-81.89 133.94s-2.27 2.69-4.81 2.18l-37.87.43.26-.45h-.58l-36.08 59.12h282.52v-331.34z"/><path d="m223.47 116.17-12.18 19.95 12.19-19.94z"/><path d="m202.76 81.67h.1l12.19-19.84h-.1z"/><path d="m87.01 272.22 11.74-20.07h-.03l-11.74 20.07h.02z"/><path d="m86.44 214.13-32-43.67c-2.46-1.91-.46-5.91-.46-5.91l47.58-78c3.66-5.58-3-5.14-3-5.14h-18.11a9.6 9.6 0 0 0 -7.45 3.59l-47.77 77.84a7.84 7.84 0 0 0 0 8.43l41.9 68.42c1.92 3.12 3.76 0 3.76 0l106.37-174.32a8.34 8.34 0 0 1 6-4h31.84l-12.39 20.3-4.19-.17c-7.1-.37-9.81 4.42-9.81 4.42l-98.17 160.36c-4.31 6.66-.39 5.42-.39 5.42h8.78l-12.53 20.53-19.84.09a6.51 6.51 0 0 1 -5.33-2.91l-59.43-97.74c-3.64-5.86-.64-8.21-.64-8.21l58.78-96.13c1.69-5.91 8.83-5.19 8.83-5.19h71.47l-60.38 98.69c-4.28 6.88-1.28 10.48-1.28 10.48l19.87 23.2z"/></g></svg>