<?xml version="1.0" encoding="utf-8"?>
<!-- Generator: Adobe Illustrator 25.4.1, SVG Export Plug-In . SVG Version: 6.00 Build 0)  -->
<svg version="1.1" id="Layer_1" xmlns="http://www.w3.org/2000/svg" xmlns:xlink="http://www.w3.org/1999/xlink" x="0px" y="0px"
	 viewBox="0 0 332.8 331.3" style="enable-background:new 0 0 332.8 331.3;" xml:space="preserve">
<style type="text/css">
	.st0{fill:#111115;}
</style>
<g>
	<path class="st0" d="M120.5,245.6L219,84.5c0,0,1.5-2.9-2.1-3l-12.1-0.1l-2.3,0.7l0.3-0.5l-103.8,170H99l-0.3,0.4h15
		C113.7,252.1,117.5,252.3,120.5,245.6z"/>
	<path class="st0" d="M253.8,164.9c0.7,1.5,0.7,3.3-0.2,4.7L205.2,249c0,0-2.1,3.7,3,3.8h19.6c0,0,4.6,0,6.7-3.5l48.6-79.3
		c0.9-2.1,0.8-4.5-0.4-6.4l-43-69.9c0,0-1.2-1.9-2.8,0.5l-13.5,22.1l11.6,17.7L253.8,164.9z"/>
	<path class="st0" d="M252.6,0l-37.5,61.4h0.2l-0.3,0.5l25.4,0.1c0,0,3.9-0.2,5.8,2.9l60.1,98.8c0,0,2.9,4.4-0.4,7.9l-59,96.5
		c0,0-2.7,4-6.3,4.1h-73.2l62.5-102.3c0.8-2.3,0.5-4.8-0.8-6.9l-6-9.1l-11.7-17.7l-81.9,133.9c0,0-2.3,2.7-4.8,2.2l-37.9,0.4
		l0.3-0.5h-0.6l-36.1,59.1h282.5V0H252.6z"/>
	<path class="st0" d="M223.5,116.2l-12.2,19.9L223.5,116.2L223.5,116.2z"/>
	<path class="st0" d="M202.8,81.7h0.1l12.2-19.8h-0.1L202.8,81.7z"/>
	<path class="st0" d="M87,272.2l11.7-20.1h0L87,272.2L87,272.2L87,272.2z"/>
	<path class="st0" d="M86.4,214.1l-32-43.7c-2.5-1.9-0.5-5.9-0.5-5.9l47.6-78c3.7-5.6-3-5.1-3-5.1H80.5c-2.9,0-5.6,1.3-7.4,3.6
		l-47.8,77.8c-1.6,2.6-1.6,5.9,0,8.4l41.9,68.4c1.9,3.1,3.8,0,3.8,0L177.3,65.4c1.3-2.2,3.5-3.6,6-4h31.8l-12.4,20.3l-4.2-0.2
		c-7.1-0.4-9.8,4.4-9.8,4.4L90.5,246.3c-4.3,6.7-0.4,5.4-0.4,5.4h8.8l-12.5,20.5l-19.8,0.1c-2.1,0-4.1-1.1-5.3-2.9L1.8,171.7
		c-3.6-5.9-0.6-8.2-0.6-8.2l58.8-96.1c1.7-5.9,8.8-5.2,8.8-5.2h71.5l-60.4,98.7c-4.3,6.9-1.3,10.5-1.3,10.5l19.9,23.2L86.4,214.1z"
		/>
</g>
</svg>
