<?xml version="1.0" encoding="utf-8"?>
<!-- Generator: Adobe Illustrator 25.4.1, SVG Export Plug-In . SVG Version: 6.00 Build 0)  -->
<svg version="1.1" id="Layer_1" xmlns="http://www.w3.org/2000/svg" xmlns:xlink="http://www.w3.org/1999/xlink" x="0px" y="0px"
	 viewBox="0 0 535.5 521.2" style="enable-background:new 0 0 535.5 521.2;" xml:space="preserve">
<style type="text/css">
	.st0{fill:#111115;}
</style>
<g>
	<path class="st0" d="M300.8,211.8c1.4,0.1,2.7-0.1,4-0.6c23.3-6.9,47.2-7.9,71.2-6.1s47.3,6.8,70.6,12.7c9.7,2.4,13.9,7.9,7,17.8
		c-1.3,1.9-2.4,4-3.6,6c-0.9,1.3-1.9,2.5-2.7,3.8c-10.1,15.2-21.5,29.6-34,43c-16.5,17.6-34.6,33-56.1,44.3
		c-21.9,11.5-44.9,17.2-69.8,14.2c-12.7-1.6-24.6-5.8-36.2-11c-2.8-2.1-6-3.8-9.3-4.9c-1.3-1.1-2.8-2.1-4.2-3.1
		c-2.6-1.5-4.8-4.8-7.9-4.3s-4.9,3.6-7.2,5.8c-36.2,34.4-58.8,76.4-70.4,124.7c-0.8,3.1-2,6.3-1.1,9.7l0.1-0.3
		c-1.6,0.3-1.7,2.5-3.4,2.5h-11.5c-3.4-2-1.9-6.2-4-8.8c0.3-2.8-0.7-5.4-1.2-8c-7.6-35.9-12.5-72.1-12.8-108.9
		c-0.3-36.1,3.5-71.6,15.9-105.7c2.2-6.2,2.2-11.8,1.5-18.1c-7.5-62.2,14.7-111,67.3-145.3c23.8-15.5,50.4-24.4,77.9-30.5
		c29.2-6.4,58.8-9.2,88.7-9.9c7.7-0.2,11.2,3.9,9.8,11.4c-0.9,4.6-2.9,8.9-3.4,13.5c-1.4,2-1.8,4.3-2.5,6.5
		c-8.3,25.5-18.8,50.3-31.4,74c-13.3,24.7-28.9,47.6-49.1,67.2c-15.5,15.1-33,27.2-53.6,34.4c-27.2,9.5-54.3,8.4-81.4-0.3
		c-5.5-1.8-5.4-3.1-8,4.1c-10.3,29.8-14.2,60.6-14.7,91.8c-0.5,29.3,2.4,58.3,7,87.2c0.2,1.4,0.3,2.9,1.8,4.1
		c1.4-3.4,2.6-6.5,2.9-9.8c1.4-1.2,1.8-3,2.4-4.6c15.6-38.9,38.3-72.8,70.2-100.3c2.4-2,4-4.8,4.4-7.9c2.5-16,8.3-31.3,17.1-44.9
		c2.2-3.4,5.1-6.3,6.8-10.1c1.5-1.5,3.2-2.9,4.6-4.4c11.5-12.2,25.6-21.6,41.2-27.7C296.1,214.3,298.5,213.2,300.8,211.8
		L300.8,211.8z M255,285.1c2.4-1.2,4.8-2.5,7.3-3.7c5.6-2.8,11.1-5.8,17-7.8c4.3-1.4,9,0.9,10.4,5.2c1.2,3.6-0.2,7.5-3.4,9.5
		c-1.5,0.9-3.1,1.7-4.7,2.3c-10.7,4.7-21,10.3-30.7,16.7c-2.1,1.4-4.3,2.5-6.1,4.9c14.3,9.7,29.5,16.1,46.5,18
		c23.7,2.6,45.1-4.1,65-16.2c31.2-19,54.9-45.6,75.3-75.4c1.6-1.6,2.8-3.6,3.5-5.8c-1.1-1.3-2.5-1.4-3.8-1.7
		c-22.5-5.5-45.3-9.4-68.5-10.1c-19.8-0.6-39.3,1.1-58.1,7.7c-28.2,9.9-48.3,28.4-59,56.5c-0.7,1.9-1.9,3.7-1.1,6.3L255,285.1z
		 M357,56.9c1.4-1.3,1.5-3.2,2-4.8c1.2-3.9,0.9-4.3-3.4-4.1c-24,1.2-47.8,3.8-71.2,9c-26.8,6-52.5,14.8-75.5,30.2
		c-33,22-52.6,52.4-57.2,92c-0.8,5.3-0.9,10.7-0.5,16c0.7,0.2,1.4,0,1.8-0.7c0.6-0.9,1.7-1.7,1.7-3l4.7-6.6
		c9.3-13.1,20.2-24.7,33.4-34c3.6-2.6,7.4-5.2,11.6-6.7c4.5-1.5,9.3,0.9,10.8,5.4c1.1,3.2,0.2,6.7-2.3,9c-1.2,1-2.5,1.8-3.9,2.6
		c-21.9,13.8-36.9,33.7-48.7,56.3c-1.2,2.4-0.6,3.4,1.9,4.2c29.2,9.4,57.9,8.9,85.6-5.3c20.1-10.3,36.2-25.5,50.2-42.9
		c22.2-27.8,38-59.2,50.9-92.1C351.9,73.2,355.3,65.3,357,56.9L357,56.9z"/>
	<path class="st0" d="M71.9,381.3c1,3.9,3.9,6.7,6.2,9.7c5.6,7.5,11.6,14.6,18,21.4c3.2,3.3,4.3,6.8,2.4,11.1
		c-5.6,5.7-9.5,5.7-15.1-0.3c-33.3-36.1-55-78.3-63.3-126.7c-12-70.2,2.2-135,44.4-192.5c43.3-59.1,102-93,174.9-102.1
		c7.9-1,15.9-1.4,23.9-1.7c1.6-0.1,3.1-0.1,4.7,0c3.5,0.5,6.3,2.2,7.4,5.7c1.3,3.2,0.1,6.9-2.8,8.7c-0.4,0.4-0.8,0.8-1.2,1.3
		c-1.5-0.6-2.2,1.3-3.7,1.1c-8.1-1.3-16.2,0-24.3,0.8c-9.6,0.9-19.3,2-28.5,5.1c-18.8,4.1-36.9,10.7-54,19.5
		c-13.8,7.1-27,15.2-38.8,25.3c-0.6-0.1-0.9,0.2-0.9,0.8l-0.2,0.1c-0.5-0.1-1.1,0.2-1.2,0.8v0.2c-1.9,0.8-3.5,2.2-4.7,3.9
		c-0.4-0.1-0.9,0.1-1,0.5v0.3l-0.2,0.2c-0.6,0-1,0.4-1.1,0.9v0.1l-0.1,0.1c-0.6,0-1.1,0.4-1.2,1c-0.7,0-1.2,0.5-1.3,1.1
		c-6.4,5.2-12.3,11-17.4,17.5c-0.6,0.1-1.1,0.6-1.1,1.2l-0.1,0.1c-0.6,0-1,0.4-1,1v0.1l-0.1,0.1c-0.5,0-0.9,0.4-0.9,0.9v0.1
		l-0.2,0.2c-0.6,0-0.8,0.3-0.8,0.8c-1.3,0.8-2.3,2-2.8,3.5c-0.6,0.1-1,0.7-1,1.3l-0.1,0.1c-0.5,0-0.8,0.4-0.8,0.9v0.1
		c-0.9,0.4-1.5,1.2-1.7,2.2c-0.6,0.2-1.1,0.7-1.1,1.4c-0.6,0.2-1.1,0.7-1.1,1.4c-0.5,0.1-0.9,0.3-0.8,0.9c-2.6,2.7-4.7,5.8-6.4,9.1
		c-0.6,0.2-1.1,0.8-1,1.4l-0.1,0.1c-0.4,0-0.8,0.4-0.7,0.8v0.2c-5.4,7-9.5,14.7-13.4,22.5c-3.5,7.1-7.3,14.1-9.3,21.9
		c-0.8,0.5-1.2,1.5-1,2.4c-1.9,3.5-3.1,7.3-3.8,11.3c-0.8,0.7-1.2,1.7-0.9,2.7c-0.3,0.2-0.4,0.6-0.2,0.9c-0.8,0.6-1.1,1.6-0.9,2.6
		l-0.4,1.9c-0.8,0.7-1.2,1.8-0.9,2.8c-0.4,1.3-1,2.5-1.3,3.9c-6.6,27.3-8.2,55.5-4.9,83.4c3.8,32.7,14.5,64.3,31.4,92.5
		c0.6,1.1,0.8,2.7,2.6,2.7v-0.1c-0.5,1.3,0,2,1.2,2.4v-0.1C69.2,379.2,70.6,380.2,71.9,381.3L71.9,381.3z"/>
	<path class="st0" d="M147.8,466c-0.4,0.4-0.8,0.8-1.1,1.2c-3.4-0.8-7.2,1.2-10.4-1.2H147.8z"/>
	<path class="st0" d="M502.7,254.7c0.1-35.5-6.5-66.9-19.5-97c-0.5-1.1-0.9-2.1-1.3-3.3c-1.2-4.5,0.7-8.5,4.6-10.2s8.5-0.1,10.5,3.8
		c1.3,2.4,2.4,4.9,3.4,7.4c14.4,35.1,21.1,71.8,18.7,109.6c-4.1,66-29.9,122.3-77.5,168.3c-35.6,34.4-77.8,56.2-126.3,65.6
		c-39.5,7.7-78.7,5.8-117.4-5.2c-1.5-0.4-3-0.9-4.4-1.6c-4-2.1-5.6-7-3.5-11.1c1.5-3,4.7-4.7,8.1-4.4c2.1,0.3,4.2,0.7,6.3,1.4
		c63.7,16.9,124.7,10.1,181.5-23.6c64.9-38.4,102.9-95.9,114.6-170.5C502,274.4,502.7,264.6,502.7,254.7L502.7,254.7z"/>
	<path class="st0" d="M457.3,90.7c2.2-0.1,4.3,0.8,5.7,2.5c3.2,3.4,6.1,7.1,8.5,11.1c2.1,3.7,1.1,7.6-2.3,10.4
		c-3,2.5-7.3,2.4-10.2-0.2c-3.7-3.4-6.8-7.5-9.2-11.9c-2.1-4-0.5-8.9,3.5-10.9C454.5,90.9,455.9,90.6,457.3,90.7z"/>
	<path class="st0" d="M411.5,47.6c1.8-0.1,3.6,0.4,5.1,1.3c3.8,2.4,7.3,5.2,10.5,8.3c2.9,2.8,3.2,7.4,0.8,10.6
		c-2.3,3.4-6.8,4.4-10.4,2.4c-4.2-2.4-8.1-5.4-11.5-8.9c-2.5-2.4-3-6.1-1.3-9.2C405.9,49.5,408.5,47.7,411.5,47.6z"/>
	<path class="st0" d="M43.7,181.5c0.3,1,0,2.1-0.9,2.7C42.5,183.2,42.9,182.2,43.7,181.5z"/>
	<path class="st0" d="M42.6,185.2c0.2,1-0.1,2-0.9,2.6C41.5,186.8,41.8,185.8,42.6,185.2z"/>
	<path class="st0" d="M48.5,167.8c0.2,0.9-0.2,1.9-1,2.4C47.3,169.3,47.7,168.3,48.5,167.8z"/>
	<path class="st0" d="M41.3,189.6c0.1,1.1,0.1,2.1-0.9,2.8C40.2,191.4,40.5,190.3,41.3,189.6z"/>
	<path class="st0" d="M92.9,95.3c-0.1,0.6-0.5,1.1-1.1,1.2C91.8,95.9,92.3,95.4,92.9,95.3z"/>
	<path class="st0" d="M111.6,76.7c-0.2,0.6-0.7,1-1.3,1.1C110.4,77.1,110.9,76.6,111.6,76.7z"/>
	<path class="st0" d="M72.9,120.8c0,0.6-0.4,1.2-1,1.4C71.9,121.6,72.3,121,72.9,120.8z"/>
	<path class="st0" d="M71.9,122.4c-0.2,0.3-0.5,0.7-0.7,1c-0.1-0.4,0.1-0.8,0.5-1H71.9z"/>
	<path class="st0" d="M91.7,96.6l-1,1.1C90.6,97.2,91,96.6,91.7,96.6L91.7,96.6z"/>
	<path class="st0" d="M89.5,99.2c-0.2,0.3-0.5,0.6-0.8,0.8C88.6,99.5,88.9,99.2,89.5,99.2z"/>
	<path class="st0" d="M114,74.5l-1.1,1C112.9,75,113.4,74.5,114,74.5C113.9,74.5,114,74.5,114,74.5z"/>
	<path class="st0" d="M115.1,73.5l-1,0.8c0-0.4,0.3-0.8,0.7-0.9C114.9,73.5,115,73.5,115.1,73.5z"/>
	<path class="st0" d="M80.1,110.8l-0.8,0.9C79.2,111.1,79.5,110.8,80.1,110.8z"/>
	<path class="st0" d="M121,68.7l-1.2,1c0-0.6,0.4-1,1-1C120.8,68.6,120.9,68.7,121,68.7z"/>
	<path class="st0" d="M82.3,108c-0.1,0.6-0.5,1.2-1.1,1.4C81.2,108.7,81.7,108.2,82.3,108z"/>
	<path class="st0" d="M122.1,67.8l-0.9,0.8C121.2,68,121.5,67.7,122.1,67.8z"/>
	<path class="st0" d="M85.9,103.5l-1,1.3C84.8,104.1,85.3,103.6,85.9,103.5z"/>
	<path class="st0" d="M84.8,104.9l-0.8,1c-0.1-0.5,0.2-0.9,0.7-1H84.8z"/>
	<path class="st0" d="M90.6,97.9L89.7,99C89.6,98.5,90,98,90.6,97.9L90.6,97.9z"/>
	<path class="st0" d="M112.8,75.6c-0.2,0.5-0.6,0.9-1.2,1C111.7,76,112.2,75.6,112.8,75.6z"/>
</g>
</svg>
