<?xml version="1.0" encoding="utf-8"?>
<!-- Generator: Adobe Illustrator 25.4.1, SVG Export Plug-In . SVG Version: 6.00 Build 0)  -->
<svg version="1.1" id="Layer_1" xmlns="http://www.w3.org/2000/svg" xmlns:xlink="http://www.w3.org/1999/xlink" x="0px" y="0px"
	 viewBox="0 0 192 192" style="enable-background:new 0 0 192 192;" xml:space="preserve">
<style type="text/css">
	.st0writing{fill:none;}
	.svgstroke{fill:none;stroke-width:12;stroke-linecap:round;stroke-linejoin:round;stroke-miterlimit:3;}
</style>
<rect class="st0writing" width="192" height="192"/>
<circle class="svgstroke" cx="87" cy="105" r="15"/>
<line class="svgstroke" x1="24" y1="168" x2="76.4" y2="115.6"/>
<path class="svgstroke" d="M24,168l104.6-17.4c2.1-0.4,3.9-1.8,4.6-3.8L150,102L90,42L45.2,58.8c-2,0.8-3.5,2.5-3.8,4.6L24,168z"/>
<path class="svgstroke" d="M150,102l19.8-19.8c2.3-2.3,2.3-6.1,0-8.5c0,0,0,0,0,0l-51.5-51.5c-2.3-2.3-6.1-2.3-8.5,0L90,42"/>
</svg>
