<?xml version="1.0" encoding="UTF-8"?>
<svg data-bbox="0 0 498.32 316.64" viewBox="0 0 498.32 316.64" xmlns:xlink="http://www.w3.org/1999/xlink" xmlns="http://www.w3.org/2000/svg" data-type="ugc">
    <g>
        <defs>
            <linearGradient gradientUnits="userSpaceOnUse" gradientTransform="rotate(35.9 293.512 242.276)" y2="292.16" x2="339.31" y1="292.16" x1="310.42" id="8383e5b4-8f2c-4cc7-b41d-4d012b07a8fb">
                <stop stop-color="#343a44" offset="0"/>
                <stop stop-color="#232d3e" offset=".3"/>
                <stop stop-color="#182439" offset=".64"/>
                <stop stop-color="#142138" offset="1"/>
            </linearGradient>
            <linearGradient xlink:href="#8383e5b4-8f2c-4cc7-b41d-4d012b07a8fb" y2="303.59" x2="344.19" y1="303.59" x1="315.3" id="93d86444-9a20-451a-8ffa-a24c365b6e94"/>
            <linearGradient xlink:href="#8383e5b4-8f2c-4cc7-b41d-4d012b07a8fb" gradientTransform="matrix(-.66 -.75 -.75 .66 760.56 327.95)" y2="110.33" x2="334.03" y1="110.33" x1="302.71" id="357d88cb-184b-44ff-8d79-9ef4525d5219"/>
            <linearGradient xlink:href="#8383e5b4-8f2c-4cc7-b41d-4d012b07a8fb" y2="213.47" x2="464.84" y1="213.47" x1="369.07" id="283f90cf-c563-4abf-9111-96a0c7734104"/>
        </defs>
        <g>
            <path fill="#dca86e" d="M422.51 245.61l32.86 71.03 3.7-.01L430.66 241l-8.15 4.61z"/>
            <path fill="#dca86e" d="M388.52 247.13l-32.87 69.51-3.7-.01 28.42-71.08 8.15 1.58z"/>
            <path d="M305 301.42L288.32 316l-19.69-13.86s6.7-2.24 18.19.82l11.76-9.89z" fill="url(#8383e5b4-8f2c-4cc7-b41d-4d012b07a8fb)"/>
            <path d="M401.71 220.8s-36.92 18.92-50 24.58-57.41 50.09-57.41 50.09S300 307 302.86 305c25.05-17.91 48.13-33.94 63-39.53 29.37-11.08 37.56-13.49 45.08-22.2-.04.01-4.45-10.47-9.23-22.47z" fill="#2167be"/>
            <path d="M344.19 294l-4.81 21.66-24.08.48s4.07-5.77 15.15-10.11l3.63-14.92z" fill="url(#93d86444-9a20-451a-8ffa-a24c365b6e94)"/>
            <path d="M402.6 216s-34.34 3.71-46.85 10.45S333.26 295 333.26 295s9.73 5.28 10.93 2a450.55 450.55 0 0120.48-47.15c12.34-2.25 40.92 11.66 61.57-8.69 0-.01-17.86-13.61-23.64-25.16z" fill="#277fd9"/>
            <path d="M461.77 174.25a45.77 45.77 0 00-4 9.25l-14.13-1.3s7.3-11 6.74-17.75z" fill="#fec4ad"/>
            <path d="M458.73 151.43c-.8-.22-3.82-1.05-4.43-.8-.84.35.14 1.46-.46 2.14-1 1.09-2.89 1.12-4.14 1.78a8.21 8.21 0 00-3.35 3.09c-1.15 2 3 6.53 3.7 9.91 1.37 7.07 10.31 8.12 17.57 5.95a12.56 12.56 0 006.4-5.37c1.67-2.66.73-7.11-.67-9.76a12.39 12.39 0 00-3.93-4c-1.31-.9-1.67-4.66-3.25-4.93 0 .04-5.63 2.46-7.44 1.99z" fill="#fec4ad"/>
            <path d="M479 170.41s-.24-1.18 1.81-3.11c6.77-6.38-.47-18.86-7.86-21-3.77-1.11-6.19.06-7.54-3.69.09.27-1.53 1-1.69 1.09a2.93 2.93 0 00-1.34 2.52c-.12 5.45 4.76 10.53 8.45 14 1.66 1.54-2.43.48-4.07.79-1.08.21-3.86 3.15-4.46 3.59 1.55 1.93 2.93.19 5 1.12 1.93.86.71 3.32-1.09 3.61a3.77 3.77 0 01-3.92-1.39c-1.28.69-1.48 4.83-2.49 5.91 1.39.76 9.46 2.18 11.36 2.16a8.08 8.08 0 007.84-5.6z" fill="url(#357d88cb-184b-44ff-8d79-9ef4525d5219)"/>
            <path d="M461.31 176.45c3 33-35.07 64.7-35.07 64.7s-24.83.93-23.64-25.16c0 0 1.93-4.74 17.31-18.68 10.27-9.3 17.49-23.2 24.71-22.92 19.74.76 16.69 2.06 16.69 2.06z" fill="#ff5e69"/>
            <path d="M369.07 243s22.9 8.55 53.43-3 38.85-65.65 38.85-65.65l3.49 1.77s-3.39 59.67-43.59 72.63c-30.72 9.91-52.18-1.89-52.18-1.89z" fill="url(#283f90cf-c563-4abf-9111-96a0c7734104)"/>
            <path d="M457.64 209.45s3.66 12.67 3.86 19-2.5 27.75-2.5 27.75l5.82.73s5.17-25.56 5.29-33.9-4.69-21.85-4.69-21.85z" fill="#f8d2a1"/>
            <path d="M457.28 210c4.22 18.46 2.47 43.19 2.47 43.19l6.31.4c6.92-14.47 6.28-46.55 2.62-60-2.15-7.93-3.42-15.92-8.79-17.16-3.35-.77-10.25 1.69-11.17 5-2.01 7.13 6.48 19.5 8.56 28.57z" fill="#ff5e69"/>
            <path d="M456.4 259.39c-1.39 2.65-2 4.6-1.2 5.26.56.47 1.47-2.11 2.57-3a8 8 0 01-.31 4.77c-.78 1.91-.71 3.55.74 3.69s3.82 0 4.34-1.16 1.72-6.23 2.37-7.9-.21-3.6 0-4.55-4.29-2.56-4.29-2.56c-.25.38-1.65 2.29-1.65 2.29a14.46 14.46 0 01-1.58 1.67 5.42 5.42 0 00-.99 1.49z" fill="#f8d2a1"/>
            <path stroke="#d4dbe2" stroke-width=".25" fill="none" stroke-miterlimit="10" d="M421.94 0v44"/>
            <path d="M429.73 60.92a7.72 7.72 0 11-7.1-8.29 7.71 7.71 0 017.1 8.29z" fill="#ffba01"/>
            <path fill="#d2dceb" d="M458.38 63.6H385.5l31.9-23.2h9.09l31.89 23.2z"/>
            <path stroke="#d4dbe2" stroke-width=".25" fill="none" stroke-miterlimit="10" d="M78.88 0v44"/>
            <path d="M86.67 60.92a7.72 7.72 0 11-7.1-8.29 7.72 7.72 0 017.1 8.29z" fill="#ffba01"/>
            <path fill="#d2dceb" d="M115.31 63.6H42.44l31.89-23.2h9.09l31.89 23.2z"/>
            <path stroke="#a6aeba" stroke-width=".5" fill="none" stroke-miterlimit="10" d="M0 316.29h498.32"/>
            <path d="M181.15 163.2a30.54 30.54 0 014.33-7.12c2.79-3.35 7-8.93 7-8.93s-2 4-4.78 8.46a34.43 34.43 0 01-6.55 7.59z" fill="#50cc85"/>
            <path d="M184 156.66a17.72 17.72 0 004.95-7.57c1.86-5.15 3.55-9.06 3.55-9.06a72.68 72.68 0 00-5.73 9.71c-1.7 3.98-2.77 6.92-2.77 6.92z" fill="#50cc85"/>
            <path d="M181.35 162.47a64.81 64.81 0 001.94-10.57c.32-4.7.28-7.65.28-7.65s-2 8.52-2.65 12.14a11.68 11.68 0 00.43 6.08z" fill="#50cc85"/>
            <path d="M180 166.38a34.22 34.22 0 00-1.18-11.48A35.8 35.8 0 01177 146a36.57 36.57 0 00.15 10.57 69.74 69.74 0 002.85 9.81z" fill="#50cc85"/>
            <path d="M180.47 165s4.31-3.67 6.48-4.54a25.44 25.44 0 005.2-3.38s-3.73 4.78-5.82 5.73-5.86 2.19-5.86 2.19z" fill="#50cc85"/>
            <path d="M179 170.18a17.43 17.43 0 00-1.51-8 42.58 42.58 0 01-2.37-7s-.11 6.37 1.15 8.75 2.73 6.25 2.73 6.25z" fill="#50cc85"/>
            <path d="M179.39 167.77a13.82 13.82 0 014.86-2 12 12 0 003-.66 5.66 5.66 0 01-4.15 2.57c-2.92.4-3.71.09-3.71.09z" fill="#50cc85"/>
            <path d="M177.77 173.34c.54-2.08 1.22-5.3 1.93-7.44A66 66 0 01185 155c-2.27 5.05-3.93 7.88-5.08 12.23-.45 1.73-1.23 4.12-1.66 5.69-.08.46-.42.82-.49.42z" fill="#50cc85"/>
            <path d="M178.87 164.9a32.45 32.45 0 00-1.89-8.65c-1.65-4.34-3.9-11.39-3.9-11.39s.66 4.69 1.88 10.16a36.53 36.53 0 003.91 9.88z" fill="#77e6a6"/>
            <path d="M178.23 157.32a18.9 18.9 0 01-2.36-9.32c-.08-5.81-.43-10.34-.43-10.34a76.61 76.61 0 012.4 11.75c.36 4.59.39 7.91.39 7.91z" fill="#77e6a6"/>
            <path d="M178.91 164.09a68.61 68.61 0 011.72-11.3C181.93 148 183 145 183 145s-.9 9.27-1.53 13.12a12.47 12.47 0 01-2.56 5.97z" fill="#77e6a6"/>
            <path d="M179 168.5a36.52 36.52 0 015.16-11.13 38.23 38.23 0 004.87-8.28 39 39 0 01-3.8 10.56 74.74 74.74 0 01-6.23 8.85z" fill="#77e6a6"/>
            <path d="M178.91 167s-3-5.18-4.94-6.81a27.28 27.28 0 01-4.06-5.2s2.1 6.11 3.87 7.78 5.13 4.23 5.13 4.23z" fill="#77e6a6"/>
            <path d="M178.63 172.66a18.34 18.34 0 014.28-7.51 44.78 44.78 0 004.8-6.23s-2.09 6.44-4.19 8.4-4.89 5.34-4.89 5.34z" fill="#77e6a6"/>
            <path d="M179.05 170.1a14.87 14.87 0 00-4.19-3.68 12.73 12.73 0 01-2.81-1.7 6 6 0 003.28 4c2.83 1.41 3.72 1.38 3.72 1.38z" fill="#77e6a6"/>
            <path d="M178.76 176.25c.18-2.27.6-5.74.63-8.15a69.69 69.69 0 00-1.56-12.73c.54 5.85 1.23 9.28.87 14-.14 1.89-.18 4.56-.3 6.28-.07.51.15.99.36.6z" fill="#50cc85"/>
            <path d="M175.6 165.79a31 31 0 00-4.33-7.12c-2.8-3.35-7-8.93-7-8.93s2 4 4.79 8.46a34.13 34.13 0 006.54 7.59z" fill="#50cc85"/>
            <path d="M172.71 159.25a17.83 17.83 0 01-5-7.57c-1.86-5.15-3.55-9.06-3.55-9.06a73.46 73.46 0 015.74 9.71c1.77 3.98 2.81 6.92 2.81 6.92z" fill="#50cc85"/>
            <path d="M175.39 165.06a64.81 64.81 0 01-1.94-10.57c-.31-4.7-.28-7.65-.28-7.65s2 8.52 2.66 12.14a11.74 11.74 0 01-.44 6.08z" fill="#50cc85"/>
            <path d="M176.77 169a34.36 34.36 0 011.23-11.51 36 36 0 001.79-8.86 36.56 36.56 0 01-.15 10.57 69.74 69.74 0 01-2.87 9.8z" fill="#50cc85"/>
            <path d="M176.27 167.63s-4.3-3.67-6.48-4.54a25.75 25.75 0 01-5.2-3.38s3.74 4.78 5.83 5.73 5.85 2.19 5.85 2.19z" fill="#50cc85"/>
            <path d="M177.76 172.77a17.32 17.32 0 011.5-8 41.33 41.33 0 002.37-7s.12 6.37-1.15 8.75a67 67 0 00-2.72 6.25z" fill="#50cc85"/>
            <path d="M177.36 170.36a13.92 13.92 0 00-4.86-2 11.85 11.85 0 01-3-.66 5.63 5.63 0 004.14 2.57c2.92.4 3.72.09 3.72.09z" fill="#50cc85"/>
            <path d="M179 175.93c-.53-2.08-1.22-5.3-1.93-7.45a65.31 65.31 0 00-5.29-10.85c2.28 5.05 3.94 7.88 5.08 12.23.45 1.73 1.24 4.12 1.66 5.69.04.45.38.78.48.38z" fill="#50cc85"/>
            <path fill="#d2dceb" d="M184.44 190.45h-11.67l-3.61-20.55h19.3l-4.02 20.55z"/>
            <path fill="#dca86e" d="M317.73 196.1l19.24 120.3 3.71-.01-15.23-120.32-7.72.03z"/>
            <path fill="#dca86e" d="M185.09 196.15l-25.06 120.43-4.99.01 19.65-120.41 10.4-.03z"/>
            <path fill="#dca86e" d="M352.68 189.07v9.27H145.65v-9.27h207.03z"/>
            <path fill="#f3ba7a" d="M362.6 189.07v6.15H135.72v-6.15H362.6z"/>
            <path fill="#a6aeba" d="M299.15 185.82h-8.05l-8.05-51.37h6.12l9.98 51.37z"/>
            <path fill="#d2dceb" d="M296.84 185.82h-31.43l-8.05-51.37h31.43l8.05 51.37z"/>
            <path fill="#d2dceb" d="M299.15 184.66v3.83h-34.16v-3.83h34.16z"/>
            <path fill="#a6aeba" d="M342.22 184.66v3.83h-43.07v-3.83h43.07z"/>
            <path d="M279.58 162.63c.91 3.94.27 8.18-1.43 9.49s-3.81-.82-4.72-4.75-.27-8.18 1.43-9.49 3.81.82 4.72 4.75z" fill="#a6aeba"/>
            <path d="M230.69 188.31h-4.45a3.74 3.74 0 01-3.7-3.16l-1.78-11.47h15.41l-1.79 11.47a3.72 3.72 0 01-3.69 3.16z" fill="#a6aeba"/>
            <path d="M234.82 185.87h-.7l-.16-.13c-.12-.08-2.72-2.12-2.72-5s2-5.41 4.42-5.41a4.61 4.61 0 013.59 1.52 4.67 4.67 0 01.82 4c-.59 3.15-2.49 5.02-5.25 5.02zm-.16-1.41c2.81.09 3.7-2.07 4-3.92a3.35 3.35 0 00-.52-2.86 3.22 3.22 0 00-2.51-1c-1.66 0-3 1.8-3 4a5.59 5.59 0 002.03 3.78z" fill="#a6aeba"/>
            <path fill="#d2dceb" d="M219.23 189.32h19.52l3.11-3.45h-25.74l3.11 3.45z"/>
            <path fill="#b6bfcc" d="M115.79 114.33v202.04h-93.4V114.33h93.4z"/>
            <path fill="#d2dceb" d="M105.04 123.16v21.18h-71.9v-21.18h71.9z"/>
            <path fill="#ffffff" d="M78.49 131.98v3.54a.8.8 0 01-.8.8h-17.2a.8.8 0 01-.8-.8v-3.54a.8.8 0 01.8-.8h17.2a.8.8 0 01.8.8z"/>
            <path fill="#d2dceb" d="M105.04 150.11v21.18h-71.9v-21.18h71.9z"/>
            <path fill="#ffffff" d="M78.49 158.94v3.54a.8.8 0 01-.8.8h-17.2a.8.8 0 01-.8-.8v-3.54a.8.8 0 01.8-.8h17.2a.8.8 0 01.8.8z"/>
            <path fill="#d2dceb" d="M105.04 177.07v21.18h-71.9v-21.18h71.9z"/>
            <path fill="#ffffff" d="M78.49 185.9v3.54a.8.8 0 01-.8.8h-17.2a.8.8 0 01-.8-.8v-3.54a.8.8 0 01.8-.8h17.2a.8.8 0 01.8.8z"/>
            <path fill="#d2dceb" d="M105.04 204.34v103.84h-71.9V204.34h71.9z"/>
            <path fill="#ffffff" d="M78.49 213.16v3.54a.8.8 0 01-.8.8h-17.2a.8.8 0 01-.8-.8v-3.54a.8.8 0 01.8-.8h17.2a.8.8 0 01.8.8z"/>
        </g>
    </g>
</svg>
