<svg xmlns="http://www.w3.org/2000/svg"><defs><font horiz-adv-x="240"><font-face ascent="800" bbox="-167 -250 1000 936" cap-height="708" descent="-200" panose-1="2 11 4 2 2 2 3 2 2 4" underline-position="-100" underline-thickness="50" unicode-range="U+000D-FB02" x-height="462"/><missing-glyph d="M222 117v67h56v-67h-56zM225 234l-2 17q0 56 13 81 7 13 18 27.5t28 31.5q32 30 41 47.5t9 35.5q0 36-22.5 60.5t-53.5 24.5-53.5-22-28.5-73l-50 8q7 72 44 104.5t91 32.5 89-35.5 35-95.5q0-32-12.5-58.5t-50.5-61.5q-37-33-43-52-6-20-6-72h-46zM462 50v617h-412v-617h412zM512 718v-718h-512v718h512z" horiz-adv-x="512"/><glyph d="M222 117v67h56v-67h-56zM225 234l-2 17q0 56 13 81 7 13 18 27.5t28 31.5q32 30 41 47.5t9 35.5q0 36-22.5 60.5t-53.5 24.5-53.5-22-28.5-73l-50 8q7 72 44 104.5t91 32.5 89-35.5 35-95.5q0-32-12.5-58.5t-50.5-61.5q-37-33-43-52-6-20-6-72h-46zM462 50v617h-412v-617h412zM512 718v-718h-512v718h512z" glyph-name=".notdef" horiz-adv-x="512"/><glyph glyph-name="nonmarkingreturn" horiz-adv-x="0" unicode="&#xd;"/><glyph glyph-name="space" horiz-adv-x="260" unicode="&#x20;"/><glyph d="M215 186h-60v522h60v-522zM137 42q0 20 14 34t34 14 34-14 14-34-14-34-34-14-34 14-14 34z" glyph-name="exclam" horiz-adv-x="370" unicode="&#x21;"/><glyph d="M161 708h60v-228h-60v228zM299 708h60v-228h-60v228z" glyph-name="quotedbl" horiz-adv-x="520" unicode="&#x22;"/><glyph d="M121 229h-108v48h115l22 156h-108v48h115l30 227h52l-31-227h139l31 227h52l-31-227h108v-48h-115l-21-156h108v-48h-115l-30-229h-52l30 229h-139l-30-229h-52zM340 433h-138l-21-156h138z" glyph-name="numbersign" horiz-adv-x="520" unicode="&#x23;"/><glyph d="M281 42q28 1 52 12.5t42 30.5 28 44.5 10 55.5q0 15-4 31t-13.5 31-27 28-44.5 23l-43 16v-272zM233 666q-24-4-45.5-15t-38-28.5-26.5-41-10-51.5q0-53 28-80t75-44l17-6v266zM233-12q-27 0-55 6.5t-54.5 20-49.5 33-41 45.5l57 39q24-41 62-64.5t81-25.5v290l-71 26q-37 13-59.5 35t-35 46-16.5 47-4 40q0 42 16.5 76.5t43.5 59.5 60 40 66 18v67h48v-67q25 0 50-3.5t48.5-13.5 45-27.5 41.5-44.5l-55-40q-23 36-58.5 55.5t-71.5 19.5v-282l70-24q22-8 45-22t41.5-35.5 30-51.5 11.5-70q0-43-16.5-77.5t-44-59.5-63.5-39.5-74-16.5v-67h-48v67z" glyph-name="dollar" horiz-adv-x="520" unicode="&#x24;"/><glyph d="M614 742l46-28-457-748-45 28zM38 548q0 36 13.5 67t37 54.5 54.5 37 67 13.5 67-13.5 54.5-37 37-54.5 13.5-67-13.5-67-37-54.5-54.5-37-67-13.5-67 13.5-54.5 37-37 54.5-13.5 67zM92 548q0-25 9.5-46.5t25.5-37.5 37.5-25 45.5-9 45.5 9 37.5 25 25.5 37.5 9.5 46.5-9.5 46.5-25.5 37.5-37.5 25-45.5 9-45.5-9-37.5-25-25.5-37.5-9.5-46.5zM433 160q0 36 13.5 67t37 54.5 54.5 37 67 13.5 67-13.5 54.5-37 37-54.5 13.5-67-13.5-67-37-54.5-54.5-37-67-13.5-67 13.5-54.5 37-37 54.5-13.5 67zM487 160q0-25 9.5-46.5t25.5-37.5 37.5-25 45.5-9 45.5 9 37.5 25 25.5 37.5 9.5 46.5-9.5 46.5-25.5 37.5-37.5 25-45.5 9-45.5-9-37.5-25-25.5-37.5-9.5-46.5z" glyph-name="percent" horiz-adv-x="815" unicode="&#x25;"/><glyph d="M487 206l102 184h68l-128-226 161-169h-89l-106 114q-43-58-94.5-92.5t-125.5-34.5q-45 0-84.5 14.5t-68.5 41.5-46 65-17 85q0 41 14 72t36.5 55 51.5 43.5 60 38.5q-15 18-30.5 37.5t-27.5 40.5-20 43.5-8 46.5q0 38 14.5 68t39 50.5 57 31.5 67.5 11q31 0 60-11t51.5-30.5 35.5-47 13-61.5q0-38-13.5-66t-36-50-50.5-39-58-33zM308 666q-45 0-76-27.5t-31-72.5q0-18 7.5-37t19-37 25-34 24.5-29q21 11 44 24t42 30 31.5 38.5 12.5 49.5q0 42-28 68.5t-71 26.5zM259 355q-24-14-47.5-30t-43-35.5-31.5-44-12-55.5q0-34 12.5-61t34-46.5 51-30 62.5-10.5q28 0 52.5 9t45.5 24 39 34.5 33 41.5z" glyph-name="ampersand" horiz-adv-x="704" unicode="&#x26;"/><glyph d="M100 708h60v-228h-60v228z" glyph-name="quotesingle" horiz-adv-x="260" unicode="&#x27;"/><glyph d="M248 700q-33-41-57-91.5t-40.5-104.5-24.5-109-8-107q0-117 34-217t96-197l-47-30q-35 48-61.5 102.5t-44.5 111.5-27.5 115-9.5 115q0 119 36.5 235t102.5 209z" glyph-name="parenleft" horiz-adv-x="260" unicode="&#x28;"/><glyph d="M12-124q33 41 57 91t40.5 104 24.5 109.5 8 107.5q0 58-9 112t-25.5 105-40.5 99.5-55 97.5l47 30q35-48 61.5-102.5t44.5-111.5 27.5-115 9.5-115q0-119-36.5-235t-102.5-209z" glyph-name="parenright" horiz-adv-x="260" unicode="&#x29;"/><glyph d="M247 556l144 48 15-48-144-47 91-122-37-29-94 125-89-125-40 29 91 122-146 50 14 45 147-48v152h48v-152z" glyph-name="asterisk" horiz-adv-x="444" unicode="&#x2a;"/><glyph d="M78 327h231v231h48v-231h231v-48h-231v-231h-48v231h-231v48z" glyph-name="plus" horiz-adv-x="666" unicode="&#x2b;"/><glyph d="M116 90h70l-77-228h-59z" glyph-name="comma" horiz-adv-x="260" unicode="&#x2c;"/><glyph d="M43 264h247v-54h-247v54z" glyph-name="hyphen" horiz-adv-x="333" unicode="&#x2d;"/><glyph d="M82 42q0 20 14 34t34 14 34-14 14-34-14-34-34-14-34 14-14 34z" glyph-name="period" horiz-adv-x="260" unicode="&#x2e;"/><glyph d="M313 744l52-18-303-762-53 18z" glyph-name="slash" horiz-adv-x="370" unicode="&#x2f;"/><glyph d="M26 354q0 38 3.5 80.5t13 83 26 77 42.5 64.5 62.5 44.5 86.5 16.5 86.5-16.5 62.5-44.5 42.5-64.5 26-77 13-83 3.5-80.5q0-39-3.5-81t-13-82.5-26-77-42.5-64.5-62.5-44.5-86.5-16.5-86.5 16.5-62.5 44.5-42.5 64.5-26 77-13 82.5-3.5 81zM92 354q0-28 2-61.5t8-68 17.5-67.5 30-58.5 45.5-41 65-15.5q37 0 64.5 15.5t46 41 30 58.5 17.5 67.5 8 68 2 61.5q0 27-2 61t-8 68.5-17.5 67.5-30 58.5-46 41-64.5 15.5-64.5-15.5-46-41-30-58.5-17.5-67.5-8-68.5-2-61z" glyph-name="zero" horiz-adv-x="520" unicode="&#x30;"/><glyph d="M261 624h-1l-128-105-37 46 175 143h51v-708h-60v624z" glyph-name="one" horiz-adv-x="520" unicode="&#x31;"/><glyph d="M41 70l266 281q18 18 36 38.5t32.5 43 23.5 47.5 9 54q0 62-40 97t-101 35q-55 0-93-32t-49-84l-70 7q17 82 75 122.5t140 40.5q41 0 78-12.5t65-35.5 44.5-56.5 16.5-76.5q0-41-12.5-76t-33-66.5-47-59.5-53.5-56l-221-227h372v-54h-438v70z" glyph-name="two" horiz-adv-x="520" unicode="&#x32;"/><glyph d="M106 148q20-51 54.5-78.5t94.5-27.5q39 0 69 12t49.5 33 29.5 49 10 60q0 39-16.5 67t-43 45.5-60 25.5-67.5 8h-26v60h30q28 0 56.5 7.5t51 23.5 36.5 41.5 14 61.5q0 57-35.5 93.5t-95.5 36.5q-44 0-79-22.5t-55-60.5l-57 32q29 55 79.5 80t111.5 25q40 0 76-11.5t63-34 42.5-56.5 15.5-80q0-58-32-102.5t-94-61.5v-2q34-6 61.5-22.5t47.5-40.5 31-54 11-64q0-42-13.5-79t-41-64.5-68.5-43.5-96-16q-80 0-135.5 33.5t-83.5 105.5z" glyph-name="three" horiz-adv-x="520" unicode="&#x33;"/><glyph d="M329 174h-306v71l283 463h83v-480h108v-54h-108v-174h-60v174zM329 642h-2l-250-414h252v414z" glyph-name="four" horiz-adv-x="520" unicode="&#x34;"/><glyph d="M451 654h-292l-3-225q23 12 50 16t53 4q51 0 91.5-18.5t69-50.5 44-74.5 15.5-90.5q0-57-20.5-100t-53.5-71-73-42-79-14q-78 0-130.5 32t-81.5 88l62 31q9-20 24.5-37.5t35.5-31 43-21 47-7.5 52 10.5 52 31.5 40 53 16 74q0 38-13.5 71.5t-37.5 58.5-56.5 39.5-70.5 14.5-74-13.5-66-34.5l6 361h350v-54z" glyph-name="five" horiz-adv-x="520" unicode="&#x35;"/><glyph d="M168 396h2q18 15 48.5 22.5t56.5 7.5q47 0 87-17t69-46.5 45-69 16-85.5q0-48-17.5-88.5t-48.5-69.5-73.5-45.5-92.5-16.5-92.5 16.5-73.5 45.5-48.5 69.5-17.5 88.5q0 28 6 53t16 47.5 21 42.5 22 38l192 319h76zM260 374q-35 0-65-13t-52.5-35.5-35.5-53-13-64.5q0-37 12-67.5t34-52.5 52.5-34 67.5-12 67.5 12 52.5 34 34 52.5 12 67.5q0 34-13 64.5t-35.5 53-53 35.5-64.5 13z" glyph-name="six" horiz-adv-x="520" unicode="&#x36;"/><glyph d="M443 654l-282-654h-67l287 654h-340v54h402v-54z" glyph-name="seven" horiz-adv-x="520" unicode="&#x37;"/><glyph d="M66 536q0 41 15 75t41 58 61.5 37.5 76.5 13.5 76.5-13.5 61.5-37.5 41-58 15-75q0-25-8-49.5t-22.5-46-35.5-37.5-47-23v-1q34-7 59.5-24.5t43-42 26.5-54 9-61.5q0-48-16.5-86.5t-46-65.5-69.5-42-87-15-87 15-69.5 42-46 65.5-16.5 86.5q0 32 9 61.5t26.5 54 43 42 59.5 24.5v1q-26 7-47 23t-35.5 37.5-22.5 46-8 49.5zM132 536q0-27 9.5-50.5t26-41 40-28 52.5-10.5q28 0 52 10.5t40.5 28 26 41 9.5 50.5q0 59-36.5 94.5t-91.5 35.5-91.5-35.5-36.5-94.5zM107 197q0-32 11-60t31-49 48-33.5 63-12.5 63 12.5 48 33.5 31 49 11 60q0 35-12 63.5t-32.5 49-48.5 31.5-60 11-60-11-48.5-31.5-32.5-49-12-63.5z" glyph-name="eight" horiz-adv-x="520" unicode="&#x38;"/><glyph d="M352 312h-2q-18-15-48.5-22.5t-56.5-7.5q-47 0-87 17t-69 46.5-45 69-16 85.5q0 48 17.5 88.5t48.5 69.5 73.5 45.5 92.5 16.5 92.5-16.5 73.5-45.5 48.5-69.5 17.5-88.5q0-28-6-53t-16-47.5-21.5-42.5-21.5-38l-192-319h-76zM260 334q34 0 64.5 13t53 35.5 35.5 52.5 13 65q0 37-12 67.5t-34 52.5-52.5 34-67.5 12-67.5-12-52.5-34-34-52.5-12-67.5q0-35 13-65t35.5-52.5 52.5-35.5 65-13z" glyph-name="nine" horiz-adv-x="520" unicode="&#x39;"/><glyph d="M82 420q0 20 14 34t34 14 34-14 14-34-14-34-34-14-34 14-14 34zM82 42q0 20 14 34t34 14 34-14 14-34-14-34-34-14-34 14-14 34z" glyph-name="colon" horiz-adv-x="260" unicode="&#x3a;"/><glyph d="M116 90h70l-77-228h-59zM82 420q0 20 14 34t34 14 34-14 14-34-14-34-34-14-34 14-14 34z" glyph-name="semicolon" horiz-adv-x="260" unicode="&#x3b;"/><glyph d="M584 511l-448-208 448-208v-50l-502 234v48l502 234v-50z" glyph-name="less" horiz-adv-x="666" unicode="&#x3c;"/><glyph d="M78 399h510v-48h-510v48zM78 255h510v-48h-510v48z" glyph-name="equal" horiz-adv-x="666" unicode="&#x3d;"/><glyph d="M82 95l448 208-448 208v50l502-234v-48l-502-234v50z" glyph-name="greater" horiz-adv-x="666" unicode="&#x3e;"/><glyph d="M204 270q0 33 11.5 58t29 45 37.5 38 37.5 38.5 29 44.5 11.5 57q0 54-31 87.5t-86 33.5q-53 0-86.5-32t-44.5-84l-65 8q14 77 67 119.5t128 42.5q39 0 73-11.5t58.5-33.5 38.5-54 14-73q0-42-12-71t-30-51-39-40.5-39-38-30-44-12-59.5v-64h-60v84zM187 42q0 20 14 34t34 14 34-14 14-34-14-34-34-14-34 14-14 34z" glyph-name="question" horiz-adv-x="463" unicode="&#x3f;"/><glyph d="M254 280q0-42 22.5-68.5t61.5-26.5q35 0 66 23t54 57.5 36 74 13 72.5q0 48-19.5 75t-61.5 27q-38 0-69.5-23t-54.5-58-35.5-76-12.5-77zM525 259q-5-16-8-29t-3-19q0-8 4.5-17t21.5-9q26 0 54.5 22t52.5 56.5 39.5 77.5 15.5 85q0 56-23.5 102.5t-63 79.5-91.5 51.5-108 18.5q-68 0-126.5-26.5t-101-71-66.5-103-24-122.5q0-67 25-126t68.5-103.5 102-70 124.5-25.5q37 0 74 10t70.5 27.5 61.5 41.5 48 53h58q-23-42-57-75t-75-56.5-87-36-93-12.5q-81 0-150 29t-118.5 79.5-77.5 118.5-28 146 29 145.5 79 118 117.5 79 144.5 28.5q73 0 135.5-23t108.5-63 72-95 26-119q0-62-20.5-116t-54-94-75.5-62.5-84-22.5q-26 0-44 16.5t-18 50.5h-2q-20-25-55-46t-74-21q-34 0-59 11.5t-42 32-25.5 47-8.5 56.5q0 52 16.5 104t47 93 74 67 98.5 26q33 0 62.5-18.5t43.5-64.5h2l24 64h60z" glyph-name="at" horiz-adv-x="800" unicode="&#x40;"/><glyph d="M314 708h68l298-708h-74l-77 188h-375l-80-188h-69zM345 636l-165-388h325z" glyph-name="A" horiz-adv-x="685" unicode="&#x41;"/><glyph d="M97 708h204q40 0 81-6.5t73.5-27 53-57 20.5-96.5q0-54-32-94t-95-53v-2q35-3 64-16.5t50-36 32.5-53.5 11.5-68q0-61-23.5-99.5t-59-60.5-77-30-77.5-8h-226v708zM163 402h137q51 0 83 12.5t50 30.5 24 38.5 6 37.5q0 37-12.5 61.5t-33.5 39-49 20.5-59 6h-146v-246zM163 60h151q58 0 93.5 14t54.5 35 25.5 44.5 6.5 42.5q0 39-15 67t-39 45.5-54.5 25.5-61.5 8h-161v-282z" glyph-name="B" horiz-adv-x="630" unicode="&#x42;"/><glyph d="M680 111q-51-69-118-99t-145-30q-81 0-148.5 27.5t-115.5 77-75 118-27 149.5 27 149 75 117.5 115.5 77.5 148.5 28q72 0 134.5-25.5t109.5-85.5l-54-45q-33 50-84.5 73t-105.5 23q-69 0-124.5-24t-94.5-66-60-99-21-123 21-123 60-99 94.5-66 124.5-24q27 0 56 6.5t56.5 20 52.5 34 44 49.5z" glyph-name="C" horiz-adv-x="704" unicode="&#x43;"/><glyph d="M88 708h219q92 0 156-22.5t106.5-57.5 67-77.5 36-81.5 14.5-70.5 3-44.5-3-44.5-14.5-70.5-36-81.5-67-77.5-106.5-57.5-156-22.5h-219v708zM154 60h136q70 0 131 17.5t106 53.5 71 91.5 26 131.5-26 131.5-71 91.5-106 53.5-131 17.5h-136v-588z" glyph-name="D" horiz-adv-x="741" unicode="&#x44;"/><glyph d="M97 708h433v-60h-367v-252h344v-60h-344v-276h383v-60h-449v708z" glyph-name="E" horiz-adv-x="593" unicode="&#x45;"/><glyph d="M97 708h424v-60h-358v-252h333v-60h-333v-336h-66v708z" glyph-name="F" horiz-adv-x="556" unicode="&#x46;"/><glyph d="M681 46q-62-35-128.5-49.5t-135.5-14.5q-81 0-148.5 27.5t-115.5 77-75 118-27 149.5 27 149 75 117.5 115.5 77.5 148.5 28q158 0 255-98l-48-50q-16 19-39.5 35.5t-51 28-57.5 18-59 6.5q-69 0-124.5-24t-94.5-66-60-99-21-123 21-123 60-99 94.5-66 124.5-24q57 0 107 9t91 33v238h-170v60h236v-336z" glyph-name="G" horiz-adv-x="778" unicode="&#x47;"/><glyph d="M97 708h66v-312h396v312h66v-708h-66v336h-396v-336h-66v708z" glyph-name="H" horiz-adv-x="722" unicode="&#x48;"/><glyph d="M97 708h66v-708h-66v708z" glyph-name="I" horiz-adv-x="260" unicode="&#x49;"/><glyph d="M385 208q0-32-4.5-71t-24-73.5-58-58-107.5-23.5q-78 0-123.5 39.5t-60.5 105.5l66 12q24-97 118-97 35 0 59.5 11.5t39.5 31.5 22 47.5 7 59.5v516h66v-500z" glyph-name="J" horiz-adv-x="482" unicode="&#x4a;"/><glyph d="M97 708h66v-312h6l343 312h91l-358-324 378-384h-95l-359 366h-6v-366h-66v708z" glyph-name="K" horiz-adv-x="611" unicode="&#x4b;"/><glyph d="M97 708h66v-648h330v-60h-396v708z" glyph-name="L" horiz-adv-x="500" unicode="&#x4c;"/><glyph d="M90 708h99l258-594 258 594h94v-708h-66v624h-2l-270-624h-29l-274 624h-2v-624h-66v708z" glyph-name="M" horiz-adv-x="889" unicode="&#x4d;"/><glyph d="M97 708h85l431-620h2v620h66v-708h-85l-431 620h-2v-620h-66v708z" glyph-name="N" horiz-adv-x="778" unicode="&#x4e;"/><glyph d="M51 354q0 81 27 149t75 117.5 115.5 77.5 148.5 28 148.5-28 115.5-77.5 75-117.5 27-149-27-149.5-75-118-115.5-77-148.5-27.5-148.5 27.5-115.5 77-75 118-27 149.5zM117 354q0-66 21-123t60-99 94.5-66 124.5-24 124.5 24 94.5 66 60 99 21 123-21 123-60 99-94.5 66-124.5 24-124.5-24-94.5-66-60-99-21-123z" glyph-name="O" horiz-adv-x="834" unicode="&#x4f;"/><glyph d="M97 708h204q37 0 77.5-8.5t74-29.5 55-57.5 21.5-91.5q0-48-17.5-83t-47-57.5-68-33.5-80.5-11h-153v-336h-66v708zM163 396h150q28 0 55 6.5t48 21 34 38.5 13 59q0 34-13.5 58t-35 39.5-49.5 22.5-56 7h-146v-252z" glyph-name="P" horiz-adv-x="574" unicode="&#x50;"/><glyph d="M813 0h-390q-74 0-141.5 26t-118.5 73.5-81.5 114.5-30.5 149q0 77 25.5 143.5t72 115 113 76.5 148.5 28 148.5-28 113-76.5 72-115 25.5-143.5q0-47-12-93.5t-35-87.5-56-72.5-74-47.5v-2h221v-60zM117 363q0-62 22.5-117.5t63-96.5 96-65 122.5-24q68 0 120.5 25.5t88.5 67.5 54.5 96.5 18.5 113.5q0 64-20 119.5t-57.5 96.5-92 64-123.5 23-123.5-23-92-64-57.5-96.5-20-119.5z" glyph-name="Q" horiz-adv-x="834" unicode="&#x51;"/><glyph d="M163 396h140q52 0 84.5 13t50.5 32 24.5 41 6.5 40-6.5 40-24.5 41-50.5 32-84.5 13h-140v-252zM97 708h186q14 0 38-1t52-6 57-16 52-32 38-53 15-78q0-51-17.5-84t-44-53.5-58.5-30.5-61-14l206-340h-75l-199 336h-123v-336h-66v708z" glyph-name="R" horiz-adv-x="593" unicode="&#x52;"/><glyph d="M116 131q26-45 67.5-67t94.5-22q33 0 62 10t50.5 28 34 43.5 12.5 57.5q0 37-15.5 61t-41.5 39.5-58.5 26.5-67 22-67 25-58.5 36.5-41.5 56.5-15.5 84q0 47 18.5 83.5t50 61 72.5 37 86 12.5q58 0 107.5-20.5t85.5-68.5l-57-41q-25 35-58.5 52.5t-79.5 17.5q-32 0-61-8.5t-50.5-25-34.5-41.5-13-59q0-53 27-81.5t67.5-45 88-29 88-33.5 67.5-58.5 27-103.5q0-48-18-85t-48.5-62.5-70.5-38.5-83-13q-70 0-129 24.5t-101 82.5z" glyph-name="S" horiz-adv-x="556" unicode="&#x53;"/><glyph d="M254 648h-242v60h550v-60h-242v-648h-66v648z" glyph-name="T" horiz-adv-x="574" unicode="&#x54;"/><glyph d="M600 271q0-57-13-109t-43.5-92-80-64-121.5-24-121.5 24-80 64-43.5 92-13 109v437h66v-420q0-38 7-81t27.5-80 58-61 99.5-24 99.5 24 58 61 27.5 80 7 81v420h66v-437z" glyph-name="U" horiz-adv-x="684" unicode="&#x55;"/><glyph d="M-3 708h71l228-621 230 621h70l-269-708h-66z" glyph-name="V" horiz-adv-x="593" unicode="&#x56;"/><glyph d="M5 708h68l176-627h2l179 627h84l179-627h2l176 627h68l-206-708h-81l-179 630h-2l-179-630h-81z" glyph-name="W" horiz-adv-x="944" unicode="&#x57;"/><glyph d="M267 372l-242 336h78l204-288 201 288h79l-240-336 263-372h-82l-224 320-224-320h-79z" glyph-name="X" horiz-adv-x="611" unicode="&#x58;"/><glyph d="M254 305l-260 403h79l214-336 219 336h74l-260-403v-305h-66v305z" glyph-name="Y" horiz-adv-x="574" unicode="&#x59;"/><glyph d="M23 52l414 596h-408v60h493v-54l-417-594h428v-60h-510v52z" glyph-name="Z" horiz-adv-x="556" unicode="&#x5a;"/><glyph d="M224 684h-90v-792h90v-48h-150v888h150v-48z" glyph-name="bracketleft" horiz-adv-x="260" unicode="&#x5b;"/><glyph d="M361-18l-53-18-303 762 52 18z" glyph-name="backslash" horiz-adv-x="370" unicode="&#x5c;"/><glyph d="M36-108h90v792h-90v48h150v-888h-150v48z" glyph-name="bracketright" horiz-adv-x="260" unicode="&#x5d;"/><glyph d="M310 708h46l228-452h-56l-195 398-194-398h-57z" glyph-name="asciicircum" horiz-adv-x="666" unicode="&#x5e;"/><glyph d="M0-75h500v-50h-500v50z" glyph-name="underscore" horiz-adv-x="500" unicode="&#x5f;"/><glyph d="M178 564h-50l-134 144h80z" glyph-name="grave" unicode="&#x60;"/><glyph d="M439 194q0-34 .5-61t1.5-50 2.5-43 4.5-40h-56q-6 34-6 75h-2q-26-45-64.5-66t-97.5-21q-30 0-59 7.5t-52 24-37.5 42.5-14.5 63q0 53 27 84t66.5 46.5 84 20 78.5 4.5h70v28q0 60-37 86t-93 26q-80 0-141-52l-35 41q33 32 82 48.5t94 16.5q84 0 134-39.5t50-127.5v-113zM319 232q-38 0-73.5-5t-64-17-45.5-32-17-50q0-21 9.5-37.5t24.5-27 33.5-16 37.5-5.5q48 0 79 14t49.5 36.5 25.5 51 7 57.5v31h-66z" glyph-name="a" horiz-adv-x="519" unicode="&#x61;"/><glyph d="M67 756h60v-375h2q14 24 35 41.5t45.5 29 51.5 17 53 5.5q53 0 97.5-18t77-50.5 50.5-77 18-97.5-18-97.5-50.5-77-77-50.5-97.5-18q-26 0-53 5.5t-51.5 17-45.5 29-35 41.5h-2v-81h-60v756zM121 231q0-39 15-73.5t41-60 61-40.5 76-15q42 0 76 15t58 40.5 36.5 60 12.5 73.5-12.5 73.5-36.5 60-58 40.5-76 15q-41 0-76-15t-61-40.5-41-60-15-73.5z" glyph-name="b" horiz-adv-x="611" unicode="&#x62;"/><glyph d="M467 68q-34-41-77-60.5t-93-19.5q-53 0-98 18t-77 50.5-50 77-18 97.5 18 97.5 50 77 77 50.5 98 18q51 0 94.5-21t77.5-59l-48-36q-26 29-57 45.5t-67 16.5q-42 0-76-15t-58-40.5-36.5-60-12.5-73.5 12.5-73.5 36.5-60 58-40.5 76-15q38 0 69.5 17.5t54.5 46.5z" glyph-name="c" horiz-adv-x="481" unicode="&#x63;"/><glyph d="M484 81h-2q-14-24-35-41.5t-45.5-29-51.5-17-53-5.5q-53 0-98 18t-77 50.5-50 77-18 97.5 18 97.5 50 77 77 50.5 98 18q26 0 53-5.5t51.5-17 45.5-29 35-41.5h2v375h60v-756h-60v81zM490 231q0 39-15 73.5t-41 60-61 40.5-76 15q-42 0-76-15t-58-40.5-36.5-60-12.5-73.5 12.5-73.5 36.5-60 58-40.5 76-15q41 0 76 15t61 40.5 41 60 15 73.5z" glyph-name="d" horiz-adv-x="611" unicode="&#x64;"/><glyph d="M488 87q-35-53-86.5-76t-113.5-23q-53 0-96 18t-74 50.5-47.5 77-16.5 98.5q0 52 17 96t48 76.5 73 51 93 18.5q53 0 93.5-18.5t68-49 41.5-69.5 14-79v-42h-388q0-19 7.5-48.5t27.5-57.5 53.5-48 86.5-20q46 0 89 22t66 60zM442 270q0 31-12.5 58t-34 47.5-51 32.5-62.5 12q-49 0-81.5-20t-51.5-46-27-50.5-8-33.5h328z" glyph-name="e" horiz-adv-x="556" unicode="&#x65;"/><glyph d="M114 408h-96v54h96v151q0 45 13.5 74.5t33.5 47.5 44.5 25.5 46.5 7.5q42 0 69-12l-12-52q-20 10-54 10-81 0-81-123v-129h108v-54h-108v-408h-60v408z" glyph-name="f" horiz-adv-x="296" unicode="&#x66;"/><glyph d="M544 30q0-86-25-139t-62.5-82-80.5-39-78-10-68.5 6.5-63.5 19-54.5 30.5-42.5 41l47 44q32-45 80-66t102-21q46 0 77.5 12t52 31.5 32 43 17 47 6.5 44.5 1 34v64h-2q-26-42-70.5-66t-104.5-24q-51 0-96 18.5t-78.5 51-53 75.5-19.5 92 19.5 92 53 75 78.5 51 96 19q60 0 104.5-24t70.5-66h2v78h60v-432zM486 237q0 38-14.5 71.5t-39 58-58 39-71.5 14.5-71.5-14.5-58-39-39-58-14.5-71.5 14.5-71.5 39-58 58-39 71.5-14.5 71.5 14.5 58 39 39 58 14.5 71.5z" glyph-name="g" horiz-adv-x="611" unicode="&#x67;"/><glyph d="M80 756h60v-375h2q18 38 60 65.5t98 27.5q54 0 88-17t53.5-44.5 27-63.5 7.5-74v-275h-60v272q0 28-5 54.5t-17.5 47.5-35 33.5-58.5 12.5q-33 0-62.5-11.5t-51-35-34-59-12.5-83.5v-231h-60v756z" glyph-name="h" horiz-adv-x="556" unicode="&#x68;"/><glyph d="M90 462h60v-462h-60v462zM75 645q0 19 13 32t32 13 32-13 13-32-13-32-32-13-32 13-13 32z" glyph-name="i" unicode="&#x69;"/><glyph d="M150-81q0-36-5.5-65t-20.5-50-40.5-32.5-65.5-11.5q-24 0-48 9l9 53q21-8 38-8 24 0 38.5 8.5t22 22 10 31.5 2.5 38v548h60v-543zM75 645q0 19 13 32t32 13 32-13 13-32-13-32-32-13-32 13-13 32z" glyph-name="j" unicode="&#x6a;"/><glyph d="M80 756h60v-504l228 209h88l-238-211 266-250h-91l-253 244v-244h-60v756z" glyph-name="k" horiz-adv-x="481" unicode="&#x6b;"/><glyph d="M90 756h60v-756h-60v756z" glyph-name="l" unicode="&#x6c;"/><glyph d="M80 332q0 13-1 31.5t-1.5 37.5-1.5 35.5-1 25.5h60q1-26 1.5-50t2.5-31h3q18 38 60 65.5t98 27.5q46 0 84-23.5t55-76.5q22 52 65.5 76t91.5 24q54 0 88-17t53.5-44.5 27-63.5 7.5-74v-275h-60v272q0 28-5 54.5t-17.5 47.5-35 33.5-58.5 12.5q-42 0-69-15.5t-42.5-39.5-22-52-6.5-53v-260h-60v278q0 64-23.5 103t-72.5 39q-33 0-62.5-11.5t-51-35-34-59-12.5-83.5v-231h-60v332z" glyph-name="m" horiz-adv-x="852" unicode="&#x6d;"/><glyph d="M80 332q0 13-1 31.5t-1.5 37.5-1.5 35.5-1 25.5h60q1-26 1.5-50t2.5-31h3q18 38 60 65.5t98 27.5q54 0 88-17t53.5-44.5 27-63.5 7.5-74v-275h-60v272q0 28-5 54.5t-17.5 47.5-35 33.5-58.5 12.5q-33 0-62.5-11.5t-51-35-34-59-12.5-83.5v-231h-60v332z" glyph-name="n" horiz-adv-x="556" unicode="&#x6e;"/><glyph d="M54 231q0 53 18 97.5t50 77 77 50.5 98 18 97.5-18 77-50.5 50.5-77 18-97.5-18-97.5-50.5-77-77-50.5-97.5-18-98 18-77 50.5-50 77-18 97.5zM114 231q0-39 12.5-73.5t36.5-60 58-40.5 76-15 76 15 58 40.5 36.5 60 12.5 73.5-12.5 73.5-36.5 60-58 40.5-76 15-76-15-58-40.5-36.5-60-12.5-73.5z" glyph-name="o" horiz-adv-x="594" unicode="&#x6f;"/><glyph d="M67 462h60v-81h2q14 24 35 41.5t45.5 29 51.5 17 53 5.5q53 0 97.5-18t77-50.5 50.5-77 18-97.5-18-97.5-50.5-77-77-50.5-97.5-18q-26 0-53 5.5t-51.5 17-45.5 29-35 41.5h-2v-309h-60v690zM121 231q0-39 15-73.5t41-60 61-40.5 76-15q42 0 76 15t58 40.5 36.5 60 12.5 73.5-12.5 73.5-36.5 60-58 40.5-76 15q-41 0-76-15t-61-40.5-41-60-15-73.5z" glyph-name="p" horiz-adv-x="611" unicode="&#x70;"/><glyph d="M484 81h-2q-14-24-35-41.5t-45.5-29-51.5-17-53-5.5q-53 0-98 18t-77 50.5-50 77-18 97.5 18 97.5 50 77 77 50.5 98 18q26 0 53-5.5t51.5-17 45.5-29 35-41.5h2v81h60v-690h-60v309zM490 231q0 39-15 73.5t-41 60-61 40.5-76 15q-42 0-76-15t-58-40.5-36.5-60-12.5-73.5 12.5-73.5 36.5-60 58-40.5 76-15q41 0 76 15t61 40.5 41 60 15 73.5z" glyph-name="q" horiz-adv-x="611" unicode="&#x71;"/><glyph d="M80 332q0 13-1 31.5t-1.5 37.5-1.5 35.5-1 25.5h60q1-26 1.5-50t2.5-31q23 41 59 67t88 26q9 0 17.5-1.5t17.5-3.5l-7-59q-12 4-23 4-39 0-67.5-12.5t-47-34.5-27.5-51.5-9-63.5v-252h-60v332z" glyph-name="r" horiz-adv-x="333" unicode="&#x72;"/><glyph d="M81 118q19-37 56-56.5t78-19.5q19 0 38 6t34 17 24.5 26.5 9.5 35.5q0 32-20.5 48t-50.5 25-66 15.5-66 20-50.5 37.5-20.5 68q0 34 14 59t36.5 41.5 50.5 24.5 57 8q57 0 98.5-21t64.5-66l-54-32q-17 32-42.5 48.5t-66.5 16.5q-16 0-33.5-5t-31.5-14-23.5-23-9.5-32q0-31 20.5-46t50.5-23.5 66-14.5 66-19.5 50.5-39 20.5-72.5q0-36-13.5-62.5t-37-44.5-53.5-27-63-9q-60 0-109.5 23t-76.5 71z" glyph-name="s" horiz-adv-x="426" unicode="&#x73;"/><glyph d="M306 408h-132v-301q0-31 17-48t47-17q17 0 34.5 4.5t33.5 11.5l5-54q-17-6-39-11t-39-5q-32 0-55 9.5t-37 25.5-20.5 37.5-6.5 46.5v301h-100v54h100v133h60v-133h132v-54z" glyph-name="t" horiz-adv-x="333" unicode="&#x74;"/><glyph d="M471 130q0-13 1-31.5t1.5-37.5 1.5-35.5 1-25.5h-60q-1 26-1.5 50t-2.5 31h-3q-18-38-60-65.5t-98-27.5q-54 0-88.5 17t-54 44.5-26.5 63.5-7 74v275h60v-272q0-28 5-54.5t17.5-47.5 35-33.5 58.5-12.5q33 0 62.5 11.5t51 35 34 59 12.5 83.5v231h60v-332z" glyph-name="u" horiz-adv-x="556" unicode="&#x75;"/><glyph d="M15 462h68l154-397 150 397h61l-182-462h-62z" glyph-name="v" horiz-adv-x="463" unicode="&#x76;"/><glyph d="M15 462h66l112-387h2l129 387h57l137-387h2l109 387h60l-136-462h-62l-138 378h-2l-129-378h-62z" glyph-name="w" horiz-adv-x="704" unicode="&#x77;"/><glyph d="M198 250l-165 212h77l128-175 127 175h75l-163-212 198-250h-78l-161 209-158-209h-72z" glyph-name="x" horiz-adv-x="481" unicode="&#x78;"/><glyph d="M210-143q-17-45-47-71t-80-26q-15 0-30 2.5t-29 6.5l6 56q13-4 26.5-7.5t27.5-3.5q16 0 28.5 7t21.5 18 15.5 24.5 11.5 27.5l42 107-188 464h67l153-389 149 389h64z" glyph-name="y" horiz-adv-x="463" unicode="&#x79;"/><glyph d="M27 36l277 372h-263v54h346v-36l-276-372h288v-54h-372v36z" glyph-name="z" horiz-adv-x="426" unicode="&#x7a;"/><glyph d="M274 684h-23q-15 0-25.5-8.5t-17-22-9.5-31-3-36.5v-141q0-39-9-67.5t-21-47.5-23.5-29-16.5-12v-2q5-3 16.5-13t23.5-28.5 21-47 9-67.5v-142q0-18 3-35.5t9.5-31 17-22 25.5-8.5h23v-48h-50q-42 0-65 32.5t-23 88.5v146q0 29-3 56.5t-11 49-21.5 34.5-34.5 13v48q21 0 34.5 13t21.5 34.5 11 49.5 3 57v145q0 57 23 89t65 32h50v-48z" glyph-name="braceleft" horiz-adv-x="333" unicode="&#x7b;"/><glyph d="M135 750v-1000h-48v1000h48z" glyph-name="bar" horiz-adv-x="222" unicode="&#x7c;"/><glyph d="M59-108h23q15 0 25.5 8.5t17 22 9.5 31 3 36.5v141q0 39 9 67.5t21 47.5 23.5 29 16.5 12v2q-5 3-16.5 13t-23.5 28.5-21 47-9 67.5v142q0 18-3 35.5t-9.5 31-17 22-25.5 8.5h-23v48h50q42 0 65-32.5t23-88.5v-146q0-29 3-56.5t11-49 21.5-34.5 34.5-13v-48q-21 0-34.5-13t-21.5-34.5-11-49.5-3-57v-145q0-57-23-89t-65-32h-50v48z" glyph-name="braceright" horiz-adv-x="333" unicode="&#x7d;"/><glyph d="M563 332q-8-17-19.5-33.5t-26.5-29-34.5-20-44.5-7.5q-28 0-57.5 12t-57.5 24q-29 13-54 22.5t-44 9.5q-30 0-50.5-21t-37.5-47l-34 32q8 16 19.5 32t26.5 29 34.5 21 44.5 8q28 0 57.5-12t57.5-24q29-13 54-22.5t44-9.5q30 0 50.5 21t37.5 47z" glyph-name="asciitilde" horiz-adv-x="666" unicode="&#x7e;"/><glyph d="M425 649q-13 7-34.5 12.5t-51.5 5.5q-69 0-115.5-52t-63.5-154h223l-13-48h-218q-2-13-3-30.5t-1-32.5q0-11 .5-26.5t1.5-26.5h200l-11-48h-183q12-97 59-151.5t116-54.5q32 0 55.5 8t42.5 19l12-57q-17-11-46-20t-71-9q-51 0-91 19.5t-69.5 55-48.5 84-27 106.5h-63l12 48h48q-2 11-2.5 26.5t-.5 26.5q0 14 1 31.5t3 31.5h-59l11 48h52q24 134 87.5 198.5t159.5 64.5q32 0 59.5-6t44.5-14z" glyph-name="Euro" horiz-adv-x="470" unicode="&#x20ac;"/><glyph d="M125 90h73l-77-228h-59z" glyph-name="quotesinglbase" horiz-adv-x="260" unicode="&#x201a;"/><glyph d="M395 371h-117l-72-391q-11-58-44.5-91t-98.5-33q-21 0-41.5 5t-37.5 19l30 47q11-9 25-13t28-4q40 0 58.5 28.5t28.5 82.5l64 350h-108v48h117l29 154q5 26 14.5 52.5t26.5 47.5 42 34 60 13q49 0 90-30l-32-45q-13 9-27.5 15t-30.5 6q-38 0-57-26.5t-26-63.5l-29-157h108v-48z" glyph-name="florin" horiz-adv-x="520" unicode="&#x192;"/><glyph d="M342 90h73l-77-228h-59zM168 90h73l-77-228h-59z" glyph-name="quotedblbase" horiz-adv-x="520" unicode="&#x201e;"/><glyph d="M119 42q0 20 14 34t34 14 34-14 14-34-14-34-34-14-34 14-14 34zM452 42q0 20 14 34t34 14 34-14 14-34-14-34-34-14-34 14-14 34zM785 42q0 20 14 34t34 14 34-14 14-34-14-34-34-14-34 14-14 34z" glyph-name="ellipsis" horiz-adv-x="1000" unicode="&#x2026;"/><glyph d="M230 461h-192v48h192v199h60v-199h192v-48h-192v-587h-60v587z" glyph-name="dagger" horiz-adv-x="520" unicode="&#x2020;"/><glyph d="M230 73h-192v48h192v340h-192v48h192v199h60v-199h192v-48h-192v-340h192v-48h-192v-199h-60v199z" glyph-name="daggerdbl" horiz-adv-x="520" unicode="&#x2021;"/><glyph d="M85 708h70l108-144h-65l-81 108-81-108h-59z" glyph-name="circumflex" unicode="&#x2c6;"/><glyph d="M522 742l46-28-457-748-45 28zM306 141q0 31 12 59t33 49 48.5 33 59.5 12q31 0 59-12t49-33 33-49 12-59q0-32-12-59.5t-33-48.5-49-33-59-12q-32 0-59.5 12t-48.5 33-33 48.5-12 59.5zM354 141q0-22 8-41t22.5-33.5 33.5-22.5 41-8 41 8 33 22.5 22.5 33.5 8.5 41-8.5 41-22.5 33-33 22.5-41 8.5-41-8.5-33.5-22.5-22.5-33-8-41zM649 141q0 31 12 59t33 49 48.5 33 59.5 12q31 0 59-12t49-33 33-49 12-59q0-32-12-59.5t-33-48.5-49-33-59-12q-32 0-59.5 12t-48.5 33-33 48.5-12 59.5zM697 141q0-22 8-41t22.5-33.5 33.5-22.5 41-8 41 8 33 22.5 22.5 33.5 8.5 41-8.5 41-22.5 33-33 22.5-41 8.5-41-8.5-33.5-22.5-22.5-33-8-41zM26 567q0 31 12 59t33 49 48.5 33 59.5 12q31 0 59-12t49-33 33-49 12-59q0-32-12-59.5t-33-48.5-49-33-59-12q-32 0-59.5 12t-48.5 33-33 48.5-12 59.5zM74 567q0-22 8-41t22.5-33.5 33.5-22.5 41-8 41 8 33 22.5 22.5 33.5 8.5 41-8.5 41-22.5 33-33 22.5-41 8.5-41-8.5-33.5-22.5-22.5-33-8-41z" glyph-name="perthousand" horiz-adv-x="981" unicode="&#x2030;"/><glyph d="M116 131q26-45 67.5-67t94.5-22q33 0 62 10t50.5 28 34 43.5 12.5 57.5q0 37-15.5 61t-41.5 39.5-58.5 26.5-67 22-67 25-58.5 36.5-41.5 56.5-15.5 84q0 47 18.5 83.5t50 61 72.5 37 86 12.5q58 0 107.5-20.5t85.5-68.5l-57-41q-25 35-58.5 52.5t-79.5 17.5q-32 0-61-8.5t-50.5-25-34.5-41.5-13-59q0-53 27-81.5t67.5-45 88-29 88-33.5 67.5-58.5 27-103.5q0-48-18-85t-48.5-62.5-70.5-38.5-83-13q-70 0-129 24.5t-101 82.5zM311 752h-70l-109 144h62l83-114 86 114h54z" glyph-name="Scaron" horiz-adv-x="556" unicode="&#x160;"/><glyph d="M63 237l137 203 42-29-116-174 118-176-44-27z" glyph-name="guilsinglleft" horiz-adv-x="315" unicode="&#x2039;"/><glyph d="M581 60h304v-60h-472q-71 0-135.5 25t-113 71.5-77 112-28.5 145.5q0 88 32.5 154t86.5 110.5 123.5 67 143.5 22.5h432v-60h-296v-252h279v-60h-279v-276zM515 648h-78q-53 0-108-17t-100.5-53-74.5-91.5-29-132.5q0-83 31.5-139t78-90.5 99.5-49.5 97-15h84v588z" glyph-name="OE" horiz-adv-x="944" unicode="&#x152;"/><glyph d="M23 52l414 596h-408v60h493v-54l-417-594h428v-60h-510v52zM311 752h-70l-109 144h62l83-114 86 114h54z" glyph-name="Zcaron" horiz-adv-x="556" unicode="&#x17d;"/><glyph d="M134 480h-72l76 228h60z" glyph-name="quoteleft" horiz-adv-x="260" unicode="&#x2018;"/><glyph d="M125 708h73l-77-228h-59z" glyph-name="quoteright" horiz-adv-x="260" unicode="&#x2019;"/><glyph d="M178 480h-73l77 228h59zM352 480h-73l77 228h59z" glyph-name="quotedblleft" horiz-adv-x="520" unicode="&#x201c;"/><glyph d="M342 708h73l-77-228h-59zM168 708h73l-77-228h-59z" glyph-name="quotedblright" horiz-adv-x="520" unicode="&#x201d;"/><glyph d="M73 354q0 37 14 69t38 56 56 38 69 14 69-14 56-38 38-56 14-69-14-69-38-56-56-38-69-14-69 14-56 38-38 56-14 69z" glyph-name="bullet" horiz-adv-x="500" unicode="&#x2022;"/><glyph d="M0 264h500v-54h-500v54z" glyph-name="endash" horiz-adv-x="500" unicode="&#x2013;"/><glyph d="M0 264h1000v-54h-1000v54z" glyph-name="emdash" horiz-adv-x="1000" unicode="&#x2014;"/><glyph d="M-36 581q2 17 9 35.5t18 32.5q11 15 27 24.5t36 9.5 39-8 36-17q17-8 33-15.5t30-7.5q22 0 33 15t15 33h36q-2-18-8-36.5t-16.5-33-25-23.5-34.5-9-38.5 8-36.5 16-34.5 16-31.5 8q-23 0-34.5-15t-16.5-33h-36z" glyph-name="tilde" unicode="&#x2dc;"/><glyph d="M217 660h-133v48h320v-48h-133v-364h-54v364zM478 708h86l130-328 129 328h83v-412h-54v361h-2l-142-361h-32l-142 361h-2v-361h-54v412z" glyph-name="trademark" horiz-adv-x="990" unicode="&#x2122;"/><glyph d="M81 118q19-37 56-56.5t78-19.5q19 0 38 6t34 17 24.5 26.5 9.5 35.5q0 32-20.5 48t-50.5 25-66 15.5-66 20-50.5 37.5-20.5 68q0 34 14 59t36.5 41.5 50.5 24.5 57 8q57 0 98.5-21t64.5-66l-54-32q-17 32-42.5 48.5t-66.5 16.5q-16 0-33.5-5t-31.5-14-23.5-23-9.5-32q0-31 20.5-46t50.5-23.5 66-14.5 66-19.5 50.5-39 20.5-72.5q0-36-13.5-62.5t-37-44.5-53.5-27-63-9q-60 0-109.5 23t-76.5 71zM246 564h-70l-109 144h62l83-114 86 114h54z" glyph-name="scaron" horiz-adv-x="426" unicode="&#x161;"/><glyph d="M252 237l-137-203-42 29 116 174-118 176 44 27z" glyph-name="guilsinglright" horiz-adv-x="315" unicode="&#x203a;"/><glyph d="M803 270q0 31-9 58.5t-27 47.5-45.5 32-65.5 12q-35 0-62.5-12t-46.5-32.5-29.5-47.5-10.5-58h296zM507 216q-2-36 8-67.5t30-55 50.5-37.5 71.5-14q43 0 77 19.5t56 54.5l47-34q-39-51-82.5-72.5t-107.5-21.5q-61 0-109 27t-73 87h-2q-29-56-81-85t-118-29q-50 0-92 18t-72.5 50.5-48 77-17.5 97.5 17.5 97.5 48 77 72.5 50.5 92 18 85-13.5 58-32 36.5-38 19.5-31.5q9 20 24 40.5t37 37 52 27 68 10.5q42 0 80-12.5t66.5-39.5 45.5-69.5 17-101.5v-35h-356zM104 231q0-37 12-71t34.5-60.5 54-42 71.5-15.5 71.5 15 53.5 40.5 34 60 12 73.5-12 73.5-34 60-53.5 40.5-71.5 15-71.5-15.5-54-42-34.5-60.5-12-71z" glyph-name="oe" horiz-adv-x="907" unicode="&#x153;"/><glyph d="M27 36l277 372h-263v54h346v-36l-276-372h288v-54h-372v36zM246 564h-70l-109 144h62l83-114 86 114h54z" glyph-name="zcaron" horiz-adv-x="426" unicode="&#x17e;"/><glyph d="M254 305l-260 403h79l214-336 219 336h74l-260-403v-305h-66v305zM144 840q0 20 14 34t34 14 34-14 14-34-14-34-34-14-34 14-14 34zM334 840q0 20 14 34t34 14 34-14 14-34-14-34-34-14-34 14-14 34z" glyph-name="Ydieresis" horiz-adv-x="574" unicode="&#x178;"/><glyph glyph-name="uni00A0" horiz-adv-x="260" unicode="&#xa0;"/><glyph d="M155 300h60v-522h-60v522zM233 444q0-20-14-34t-34-14-34 14-14 34 14 34 34 14 34-14 14-34z" glyph-name="exclamdown" horiz-adv-x="370" unicode="&#xa1;"/><glyph d="M256 417q-35-5-61.5-22t-45-42-28-56-9.5-64 10-63.5 29-55.5 45.5-42.5 59.5-24.5v370zM304 42q35 2 64.5 19.5t51.5 44.5l46-38q-63-77-162-80v-69h-48v72q-46 6-83.5 27t-64.5 53.5-41.5 73.5-14.5 88 15 87.5 42 72 64.5 52 82.5 26.5v72h48v-71q49-1 90.5-21.5t73.5-56.5l-48-36q-23 26-51 41.5t-65 18.5v-376z" glyph-name="cent" horiz-adv-x="520" unicode="&#xa2;"/><glyph d="M58 54h105v288h-95v54h95v117q0 34 11 70.5t36 67 65 50 98 19.5q79 0 143-56l-40-48q-21 21-47.5 35.5t-58.5 14.5q-38 0-64.5-14.5t-43.5-36-25-47.5-8-48v-124h165v-54h-165v-288h245v-54h-416v54z" glyph-name="sterling" horiz-adv-x="520" unicode="&#xa3;"/><glyph d="M71 197q-60 65-60 157t60 157l-57 55 34 37 57-56q33 26 73 39.5t82 13.5 82-13.5 73-39.5l57 56 34-37-57-55q60-65 60-157t-60-157l57-55-34-37-57 56q-33-26-73-39.5t-82-13.5-82 13.5-73 39.5l-57-56-34 37zM71 354q0-40 15-75t41-61 60-41 73-15 73 15 60 41 41 61 15 75-15 75-41 61-60 41-73 15-73-15-60-41-41-61-15-75z" glyph-name="currency" horiz-adv-x="520" unicode="&#xa4;"/><glyph d="M227 180h-170v48h170v77l-9 16h-161v48h134l-191 339h68l192-344 195 344h65l-191-339h134v-48h-161l-9-16v-77h170v-48h-170v-180h-66v180z" glyph-name="yen" horiz-adv-x="520" unicode="&#xa5;"/><glyph d="M135 675v-350h-48v350h48zM135 175v-350h-48v350h48z" glyph-name="brokenbar" horiz-adv-x="222" unicode="&#xa6;"/><glyph d="M314 175q13 7 26.5 17t24.5 22 18 26.5 7 30.5q0 18-7 33t-18 27.5-24 22-25 15.5l-75 41q-16-5-33-13t-31.5-19.5-23.5-27-9-35.5q0-38 20-56t48-32zM125 6q17-45 50-67.5t80-22.5q22 0 44 6t39 18.5 27.5 30.5 10.5 42q0 34-22 56.5t-55 40-72 34-72 39-55 53-22 77.5q0 25 8.5 45t23.5 36 34 27.5 40 20.5q-36 22-59 52t-23 75q0 39 16 68t42.5 49 59.5 30 68 10q25 0 49.5-5.5t46-16.5 38-29 26.5-43l-58-34q-14 34-41.5 51t-63.5 17q-23 0-44-6t-37-18-26-30.5-10-42.5q0-32 21.5-53.5t53.5-39 69-34 69-38.5 53.5-52 21.5-74q0-46-25.5-78.5t-63.5-53.5q33-20 54-51.5t21-71.5-15.5-71-41.5-52.5-59.5-32.5-69.5-11q-31 0-60.5 7t-54.5 22-45 37.5-32 53.5z" glyph-name="section" horiz-adv-x="520" unicode="&#xa7;"/><glyph d="M-23 652q0 20 14 34t34 14 34-14 14-34-14-34-34-14-34 14-14 34zM167 652q0 20 14 34t34 14 34-14 14-34-14-34-34-14-34 14-14 34z" glyph-name="dieresis" unicode="&#xa8;"/><glyph d="M540 431q-9 41-42 72t-88 32q-38 0-68-14.5t-50.5-39.5-31.5-57.5-11-69.5 11-70 31.5-57.5 50.5-39 68-14.5q27 0 49.5 8.5t39 23 27 33 14.5 39.5h54q-5-37-21-65t-41-47.5-56.5-29.5-66.5-10q-51 0-91 17t-67 48-41.5 72.5-14.5 91.5q0 49 14.5 91t41.5 73 67 48 91 17q35 0 66.5-10t56.5-29.5 41-47.5 21-65h-54zM28 354q0 77 29.5 144.5t80 118 118 80 144.5 29.5 144.5-29.5 118-80 80-118 29.5-144.5-29.5-144.5-80-118-118-80-144.5-29.5-144.5 29.5-118 80-80 118-29.5 144.5zM82 354q0-66 25-124t68-101 101-68 124-25 124 25 101 68 68 101 25 124-25 124-68 101-101 68-124 25-124-25-101-68-68-101-25-124z" glyph-name="copyright" horiz-adv-x="800" unicode="&#xa9;"/><glyph d="M250 602v9q-1 16-5 28.5t-13.5 21-25 13-39.5 4.5q-30 0-51.5-9t-42.5-26l-26 38q48 39 131 39 60 0 90-24t30-85v-80q0-26 .5-51.5t4.5-49.5h-49q-3 11-3 22t-1 24h-2q-17-28-43-40t-61-12q-21 0-41 4.5t-35.5 14-24.5 25-9 37.5q0 29 13.5 48t35.5 30 49 15 54 4h64zM212 560q-21 0-44-2t-42-8-31.5-16.5-12.5-26.5q0-18 22.5-29.5t49.5-11.5q26 0 44.5 8.5t30 21.5 16.5 28.5 5 28.5v7h-38z" glyph-name="ordfeminine" horiz-adv-x="337" unicode="&#xaa;"/><glyph d="M63 237l137 203 42-29-116-174 118-176-44-27zM229 237l137 203 42-29-116-174 118-176-44-27z" glyph-name="guillemotleft" horiz-adv-x="481" unicode="&#xab;"/><glyph d="M540 351h-462v48h510v-265h-48v217z" glyph-name="logicalnot" horiz-adv-x="666" unicode="&#xac;"/><glyph d="M43 264h247v-54h-247v54z" glyph-name="uni00AD" horiz-adv-x="333" unicode="&#xad;"/><glyph d="M319 141h-54v429h165q73 0 104-30.5t31-88.5q0-30-8.5-51t-23.5-35.5-34.5-23-41.5-12.5l128-188h-61l-128 188h-77v-188zM319 377h69q22 0 44 1.5t39.5 9 28.5 22 11 41.5q0 21-8.5 34.5t-22 21.5-31 11.5-34.5 3.5h-96v-145zM28 354q0 77 29.5 144.5t80 118 118 80 144.5 29.5 144.5-29.5 118-80 80-118 29.5-144.5-29.5-144.5-80-118-118-80-144.5-29.5-144.5 29.5-118 80-80 118-29.5 144.5zM82 354q0-66 25-124t68-101 101-68 124-25 124 25 101 68 68 101 25 124-25 124-68 101-101 68-124 25-124-25-101-68-68-101-25-124z" glyph-name="registered" horiz-adv-x="800" unicode="&#xae;"/><glyph d="M252 606h-264v48h264v-48z" glyph-name="macron" unicode="&#xaf;"/><glyph d="M200 432q-30 0-56.5 11.5t-46 31-30.5 46-11 56.5 11 56 30.5 45.5 46 30.5 56.5 11 56-11 45.5-30.5 31-45.5 11.5-56-11.5-56.5-31-46-45.5-31-56-11.5zM200 480q40 0 68 28t28 68-28 68-68 28-68-28-28-68 28-68 68-28z" glyph-name="degree" horiz-adv-x="400" unicode="&#xb0;"/><glyph d="M78 375h228v183h48v-183h234v-48h-234v-183h-48v183h-228v48zM82 96h502v-48h-502v48z" glyph-name="plusminus" horiz-adv-x="666" unicode="&#xb1;"/><glyph d="M23 332l172 168q27 26 46 50t19 59q0 28-22 45.5t-62 17.5q-38 0-58-18t-28-41l-51 4q7 29 22.5 48.5t35 31.5 41 17.5 40.5 5.5q58 0 97-28.5t39-80.5q0-24-8-45t-20.5-39-29-35-34.5-34l-127-121h220v-48h-292v43z" glyph-name="twosuperior" horiz-adv-x="338" unicode="&#xb2;"/><glyph d="M127 536h23q15 0 32 4t31 12.5 23 23 9 35.5q0 26-21 43.5t-56 17.5q-29 0-51.5-13.5t-36.5-36.5l-39 25q20 32 52 52.5t75 20.5q27 0 51-7.5t42-21.5 28-34 10-45q0-35-23.5-61.5t-58.5-37.5v-2q44-6 69-36t25-71q0-28-11-50.5t-30.5-38-46-24-57.5-8.5q-49 0-85 20.5t-54 68.5l47 18q11-27 32-43t60-16q17 0 33.5 6t29 16.5 20.5 24.5 8 29q0 24-9.5 39.5t-25 24.5-36 13-42.5 4h-17v48z" glyph-name="threesuperior" horiz-adv-x="338" unicode="&#xb3;"/><glyph d="M166 708h80l-134-144h-50z" glyph-name="acute" unicode="&#xb4;"/><glyph d="M471 130q0-13 1-31.5t1.5-37.5 1.5-35.5 1-25.5h-60q-1 26-1.5 50t-2.5 31h-3q-18-38-60-65.5t-98-27.5q-41 0-69 10t-48 28v-254h-59v690h60v-272q0-28 5-54.5t17.5-47.5 35-33.5 58.5-12.5q33 0 62.5 11.5t51 35 34 59 12.5 83.5v231h60v-332z" glyph-name="mu" horiz-adv-x="556" unicode="&#xb5;"/><glyph d="M267 323q-44 0-82 15t-65.5 41-43.5 60-16 73q0 95 58.5 145.5t164.5 50.5h227v-834h-60v786h-123v-786h-60v449z" glyph-name="paragraph" horiz-adv-x="600" unicode="&#xb6;"/><glyph d="M82 318q0 20 14 34t34 14 34-14 14-34-14-34-34-14-34 14-14 34z" glyph-name="periodcentered" horiz-adv-x="260" unicode="&#xb7;"/><glyph d="M124-64l2-2q13 7 31 7 32 0 57.5-18t25.5-54q0-23-10-39t-26.5-26-36.5-15-39-5q-50 0-95 21l14 32q33-17 76-17 10 0 21 2.5t20.5 7.5 15.5 13 6 20q0 23-18 32.5t-38 9.5q-23 0-44-8l-16 15 63 88h38z" glyph-name="cedilla" unicode="&#xb8;"/><glyph d="M177 660l-85-66-25 34 110 86h54v-425h-54v371z" glyph-name="onesuperior" horiz-adv-x="338" unicode="&#xb9;"/><glyph d="M34 572q0 33 11 60t32 46.5 50 30.5 65 11q34 0 63.5-10.5t51-30 33.5-46.5 12-61q0-33-12-60t-33.5-46.5-51-30.5-63.5-11q-36 0-65 11t-50 30.5-32 46.5-11 60zM82 572q0-21 8-40t22.5-34 35-23.5 44.5-8.5 44.5 8.5 35.5 23 23.5 33.5 8.5 41q0 45-30.5 75.5t-81.5 30.5q-24 0-44-8.5t-35-23.5-23-34-8-40z" glyph-name="ordmasculine" horiz-adv-x="386" unicode="&#xba;"/><glyph d="M252 237l-137-203-42 29 116 174-118 176 44 27zM418 237l-137-203-42 29 116 174-118 176 44 27z" glyph-name="guillemotright" horiz-adv-x="481" unicode="&#xbb;"/><glyph d="M146 660l-85-66-25 34 110 86h54v-425h-54v371zM571 742l46-28-457-748-45 28zM624 102h-190v45l185 277h59v-274h64v-48h-64v-102h-54v102zM624 352h-2l-134-202h136v202z" glyph-name="onequarter" horiz-adv-x="778" unicode="&#xbc;"/><glyph d="M138 660l-85-66-25 34 110 86h54v-425h-54v371zM562 742l46-28-457-748-45 28zM458 43l172 168q27 26 46 50t19 59q0 28-22 45.5t-62 17.5q-38 0-58-18t-28-41l-51 4q7 29 22.5 48.5t35 31.5 41 17.5 40.5 5.5q58 0 97-28.5t39-80.5q0-24-8-45t-20.5-39-29-35-34.5-34l-127-121h220v-48h-292v43z" glyph-name="onehalf" horiz-adv-x="778" unicode="&#xbd;"/><glyph d="M121 536h23q15 1 32 5t31 12.5 23 22.5 9 35q0 26-21 43.5t-56 17.5q-29 0-51.5-13.5t-36.5-36.5l-39 25q20 32 52 52.5t75 20.5q27 0 51-7.5t42-21.5 28-34 10-45q0-35-23.5-61.5t-58.5-37.5v-2q44-6 69-36t25-71q0-28-11-50.5t-30.5-38-46-24-57.5-8.5q-49 0-85 20.5t-55 68.5l48 18q11-27 32-43t60-16q17 0 33.5 6t29 16.5 20.5 24.5 8 29q0 24-9.5 39.5t-25 24.5-36 13-42.5 4h-17v48zM622 742l46-28-457-748-45 28zM640 102h-190v45l185 277h59v-274h64v-48h-64v-102h-54v102zM638 352h-2l-134-202h136v202z" glyph-name="threequarters" horiz-adv-x="778" unicode="&#xbe;"/><glyph d="M259 216q0-33-11.5-58t-29-45-37.5-38-37.5-38.5-29-44.5-11.5-57q0-54 31-87.5t86-33.5q53 0 86.5 32t44.5 84l65-8q-14-77-67-119.5t-128-42.5q-39 0-73 11.5t-58.5 33.5-38.5 54-14 73q0 42 12 71t30 51 39 40.5 39 38 30 44 12 59.5v64h60v-84zM276 444q0-20-14-34t-34-14-34 14-14 34 14 34 34 14 34-14 14-34z" glyph-name="questiondown" horiz-adv-x="463" unicode="&#xbf;"/><glyph d="M314 708h68l298-708h-74l-77 188h-375l-80-188h-69zM345 636l-165-388h325zM401 752h-50l-134 144h80z" glyph-name="Agrave" horiz-adv-x="685" unicode="&#xc0;"/><glyph d="M314 708h68l298-708h-74l-77 188h-375l-80-188h-69zM345 636l-165-388h325zM389 896h80l-134-144h-50z" glyph-name="Aacute" horiz-adv-x="685" unicode="&#xc1;"/><glyph d="M314 708h68l298-708h-74l-77 188h-375l-80-188h-69zM345 636l-165-388h325zM308 896h70l108-144h-65l-81 108-81-108h-59z" glyph-name="Acircumflex" horiz-adv-x="685" unicode="&#xc2;"/><glyph d="M314 708h68l298-708h-74l-77 188h-375l-80-188h-69zM345 636l-165-388h325zM187 769q2 17 9 35.5t18 32.5q11 15 27 24.5t36 9.5 39-8 36-17q17-8 33-15.5t30-7.5q22 0 33 15t15 33h36q-2-18-8-36.5t-16.5-33-25.5-23.5-34-9q-20 0-38.5 8t-36.5 16-34.5 16-31.5 8q-23 0-34.5-15t-16.5-33h-36z" glyph-name="Atilde" horiz-adv-x="685" unicode="&#xc3;"/><glyph d="M314 708h68l298-708h-74l-77 188h-375l-80-188h-69zM345 636l-165-388h325zM200 840q0 20 14 34t34 14 34-14 14-34-14-34-34-14-34 14-14 34zM390 840q0 20 14 34t34 14 34-14 14-34-14-34-34-14-34 14-14 34z" glyph-name="Adieresis" horiz-adv-x="685" unicode="&#xc4;"/><glyph d="M314 708h68l298-708h-74l-77 188h-375l-80-188h-69zM345 636l-165-388h325zM250 837q0 19 7.5 36.5t20 30.5 29.5 20.5 37 7.5q19 0 36-8t29.5-21.5 19.5-30.5 7-36q0-18-7-35t-19.5-30-29.5-21-36-8q-20 0-37 7.5t-29.5 20.5-20 30-7.5 37zM400 837q0 25-16 42t-41 17-41-17.5-16-42.5 16.5-41.5 40.5-16.5q25 0 41 17t16 42z" glyph-name="Aring" horiz-adv-x="685" unicode="&#xc5;"/><glyph d="M456 708h403v-60h-293v-252h276v-60h-276v-276h301v-60h-367v188h-312l-123-188h-70zM500 648h-12l-261-400h273v400z" glyph-name="AE" horiz-adv-x="926" unicode="&#xc6;"/><glyph d="M680 111q-51-69-118-99t-145-30h-13.5t-13.5 1l-34-47 2-2q13 7 31 7 32 0 57.5-18t25.5-54q0-23-10-39t-26.5-26-36.5-15-39-5q-50 0-95 21l14 32q33-17 76-17 10 0 21 2.5t20.5 7.5 15.5 13 6 20q0 23-18 32.5t-38 9.5q-23 0-44-8l-16 15 54 75q-68 9-124.5 40.5t-96.5 79.5-62 111-22 136q0 81 27 149t75 117.5 115.5 77.5 148.5 28q72 0 134.5-25.5t109.5-85.5l-54-45q-33 50-84.5 73t-105.5 23q-69 0-124.5-24t-94.5-66-60-99-21-123 21-123 60-99 94.5-66 124.5-24q27 0 56 6.5t56.5 20 52.5 34 44 49.5z" glyph-name="Ccedilla" horiz-adv-x="704" unicode="&#xc7;"/><glyph d="M97 708h433v-60h-367v-252h344v-60h-344v-276h383v-60h-449v708zM355 752h-50l-134 144h80z" glyph-name="Egrave" horiz-adv-x="593" unicode="&#xc8;"/><glyph d="M97 708h433v-60h-367v-252h344v-60h-344v-276h383v-60h-449v708zM343 896h80l-134-144h-50z" glyph-name="Eacute" horiz-adv-x="593" unicode="&#xc9;"/><glyph d="M97 708h433v-60h-367v-252h344v-60h-344v-276h383v-60h-449v708zM262 896h70l108-144h-65l-81 108-81-108h-59z" glyph-name="Ecircumflex" horiz-adv-x="593" unicode="&#xca;"/><glyph d="M97 708h433v-60h-367v-252h344v-60h-344v-276h383v-60h-449v708zM154 840q0 20 14 34t34 14 34-14 14-34-14-34-34-14-34 14-14 34zM344 840q0 20 14 34t34 14 34-14 14-34-14-34-34-14-34 14-14 34z" glyph-name="Edieresis" horiz-adv-x="593" unicode="&#xcb;"/><glyph d="M97 708h66v-708h-66v708zM188 752h-50l-134 144h80z" glyph-name="Igrave" horiz-adv-x="260" unicode="&#xcc;"/><glyph d="M97 708h66v-708h-66v708zM176 896h80l-134-144h-50z" glyph-name="Iacute" horiz-adv-x="260" unicode="&#xcd;"/><glyph d="M97 708h66v-708h-66v708zM95 896h70l108-144h-65l-81 108-81-108h-59z" glyph-name="Icircumflex" horiz-adv-x="260" unicode="&#xce;"/><glyph d="M97 708h66v-708h-66v708zM-13 840q0 20 14 34t34 14 34-14 14-34-14-34-34-14-34 14-14 34zM177 840q0 20 14 34t34 14 34-14 14-34-14-34-34-14-34 14-14 34z" glyph-name="Idieresis" horiz-adv-x="260" unicode="&#xcf;"/><glyph d="M154 396h258v-54h-258v-282h136q70 0 131 17.5t106 53.5 71 91.5 26 131.5-26 131.5-71 91.5-106 53.5-131 17.5h-136v-252zM88 342h-78v54h78v312h219q92 0 156-22.5t106.5-57.5 67-77.5 36-81.5 14.5-70.5 3-44.5-3-44.5-14.5-70.5-36-81.5-67-77.5-106.5-57.5-156-22.5h-219v342z" glyph-name="Eth" horiz-adv-x="741" unicode="&#xd0;"/><glyph d="M97 708h85l431-620h2v620h66v-708h-85l-431 620h-2v-620h-66v708zM233 769q2 17 9 35.5t18 32.5q11 15 27 24.5t36 9.5 39-8 36-17q17-8 33-15.5t30-7.5q22 0 33 15t15 33h36q-2-18-8-36.5t-16.5-33-25.5-23.5-34-9q-20 0-38.5 8t-36.5 16-34.5 16-31.5 8q-23 0-34.5-15t-16.5-33h-36z" glyph-name="Ntilde" horiz-adv-x="778" unicode="&#xd1;"/><glyph d="M51 354q0 81 27 149t75 117.5 115.5 77.5 148.5 28 148.5-28 115.5-77.5 75-117.5 27-149-27-149.5-75-118-115.5-77-148.5-27.5-148.5 27.5-115.5 77-75 118-27 149.5zM117 354q0-66 21-123t60-99 94.5-66 124.5-24 124.5 24 94.5 66 60 99 21 123-21 123-60 99-94.5 66-124.5 24-124.5-24-94.5-66-60-99-21-123zM475 752h-50l-134 144h80z" glyph-name="Ograve" horiz-adv-x="834" unicode="&#xd2;"/><glyph d="M51 354q0 81 27 149t75 117.5 115.5 77.5 148.5 28 148.5-28 115.5-77.5 75-117.5 27-149-27-149.5-75-118-115.5-77-148.5-27.5-148.5 27.5-115.5 77-75 118-27 149.5zM117 354q0-66 21-123t60-99 94.5-66 124.5-24 124.5 24 94.5 66 60 99 21 123-21 123-60 99-94.5 66-124.5 24-124.5-24-94.5-66-60-99-21-123zM463 896h80l-134-144h-50z" glyph-name="Oacute" horiz-adv-x="834" unicode="&#xd3;"/><glyph d="M51 354q0 81 27 149t75 117.5 115.5 77.5 148.5 28 148.5-28 115.5-77.5 75-117.5 27-149-27-149.5-75-118-115.5-77-148.5-27.5-148.5 27.5-115.5 77-75 118-27 149.5zM117 354q0-66 21-123t60-99 94.5-66 124.5-24 124.5 24 94.5 66 60 99 21 123-21 123-60 99-94.5 66-124.5 24-124.5-24-94.5-66-60-99-21-123zM382 896h70l108-144h-65l-81 108-81-108h-59z" glyph-name="Ocircumflex" horiz-adv-x="834" unicode="&#xd4;"/><glyph d="M51 354q0 81 27 149t75 117.5 115.5 77.5 148.5 28 148.5-28 115.5-77.5 75-117.5 27-149-27-149.5-75-118-115.5-77-148.5-27.5-148.5 27.5-115.5 77-75 118-27 149.5zM117 354q0-66 21-123t60-99 94.5-66 124.5-24 124.5 24 94.5 66 60 99 21 123-21 123-60 99-94.5 66-124.5 24-124.5-24-94.5-66-60-99-21-123zM261 769q2 17 9 35.5t18 32.5q11 15 27 24.5t36 9.5 39-8 36-17q17-8 33-15.5t30-7.5q22 0 33 15t15 33h36q-2-18-8-36.5t-16.5-33-25.5-23.5-34-9q-20 0-38.5 8t-36.5 16-34.5 16-31.5 8q-23 0-34.5-15t-16.5-33h-36z" glyph-name="Otilde" horiz-adv-x="834" unicode="&#xd5;"/><glyph d="M51 354q0 81 27 149t75 117.5 115.5 77.5 148.5 28 148.5-28 115.5-77.5 75-117.5 27-149-27-149.5-75-118-115.5-77-148.5-27.5-148.5 27.5-115.5 77-75 118-27 149.5zM117 354q0-66 21-123t60-99 94.5-66 124.5-24 124.5 24 94.5 66 60 99 21 123-21 123-60 99-94.5 66-124.5 24-124.5-24-94.5-66-60-99-21-123zM274 840q0 20 14 34t34 14 34-14 14-34-14-34-34-14-34 14-14 34zM464 840q0 20 14 34t34 14 34-14 14-34-14-34-34-14-34 14-14 34z" glyph-name="Odieresis" horiz-adv-x="834" unicode="&#xd6;"/><glyph d="M334 337l199 198 33-34-199-198 198-198-34-34-197 199-199-199-35 34 200 198-198 198 34 34z" glyph-name="multiply" horiz-adv-x="666" unicode="&#xd7;"/><glyph d="M144 97q-45 49-69 114t-24 143q0 81 27 149t75 117.5 115.5 77.5 148.5 28q70 0 129-20.5t106-58.5l74 81 34-31-75-81q47-49 72.5-115.5t25.5-146.5q0-81-27-149.5t-75-118-115.5-77-148.5-27.5q-72 0-132 21.5t-107 61.5l-75-81-35 31zM609 601q-38 31-86 48t-106 17q-69 0-124.5-24t-94.5-66-60-99-21-123q0-127 71-210zM220 111q38-33 87.5-51t109.5-18q69 0 124.5 24t94.5 66 60 99 21 123q0 64-19.5 119t-55.5 96z" glyph-name="Oslash" horiz-adv-x="834" unicode="&#xd8;"/><glyph d="M600 271q0-57-13-109t-43.5-92-80-64-121.5-24-121.5 24-80 64-43.5 92-13 109v437h66v-420q0-38 7-81t27.5-80 58-61 99.5-24 99.5 24 58 61 27.5 80 7 81v420h66v-437zM400 752h-50l-134 144h80z" glyph-name="Ugrave" horiz-adv-x="684" unicode="&#xd9;"/><glyph d="M600 271q0-57-13-109t-43.5-92-80-64-121.5-24-121.5 24-80 64-43.5 92-13 109v437h66v-420q0-38 7-81t27.5-80 58-61 99.5-24 99.5 24 58 61 27.5 80 7 81v420h66v-437zM388 896h80l-134-144h-50z" glyph-name="Uacute" horiz-adv-x="684" unicode="&#xda;"/><glyph d="M600 271q0-57-13-109t-43.5-92-80-64-121.5-24-121.5 24-80 64-43.5 92-13 109v437h66v-420q0-38 7-81t27.5-80 58-61 99.5-24 99.5 24 58 61 27.5 80 7 81v420h66v-437zM307 896h70l108-144h-65l-81 108-81-108h-59z" glyph-name="Ucircumflex" horiz-adv-x="684" unicode="&#xdb;"/><glyph d="M600 271q0-57-13-109t-43.5-92-80-64-121.5-24-121.5 24-80 64-43.5 92-13 109v437h66v-420q0-38 7-81t27.5-80 58-61 99.5-24 99.5 24 58 61 27.5 80 7 81v420h66v-437zM199 840q0 20 14 34t34 14 34-14 14-34-14-34-34-14-34 14-14 34zM389 840q0 20 14 34t34 14 34-14 14-34-14-34-34-14-34 14-14 34z" glyph-name="Udieresis" horiz-adv-x="684" unicode="&#xdc;"/><glyph d="M254 305l-260 403h79l214-336 219 336h74l-260-403v-305h-66v305zM333 896h80l-134-144h-50z" glyph-name="Yacute" horiz-adv-x="574" unicode="&#xdd;"/><glyph d="M97 708h65v-156h139q37 0 77.5-8.5t74-29.5 55-57.5 21.5-91.5q0-48-17.5-83t-47-57.5-68-33.5-80.5-11h-153v-180h-66v708zM163 240h150q28 0 55 6.5t48 21 34 38.5 13 59q0 34-13.5 58t-35 39.5-49.5 22.5-56 7h-146v-252z" glyph-name="Thorn" horiz-adv-x="574" unicode="&#xde;"/><glyph d="M266 458h15q60 0 97.5 34.5t37.5 94.5q0 63-36.5 95t-93.5 32q-41 0-69-15t-45-41-24.5-60.5-7.5-72.5v-525h-60v534q0 51 13.5 94t40.5 74 66.5 48.5 90.5 17.5q39 0 73-12t58.5-34.5 39-56 14.5-76.5q0-59-27-99.5t-72-54.5v-2q28-5 56-17t51-36 37.5-62.5 14.5-96.5q0-54-18.5-96.5t-51.5-71.5-78-44-99-15q-12 0-23.5 1t-23.5 4v58q13-5 26-7t27-2q40 0 73.5 12t57.5 34.5 37 54.5 13 71q0 47-15.5 82t-42 57.5-60.5 33.5-71 11h-21v54z" glyph-name="germandbls" horiz-adv-x="593" unicode="&#xdf;"/><glyph d="M439 194q0-34 .5-61t1.5-50 2.5-43 4.5-40h-56q-6 34-6 75h-2q-26-45-64.5-66t-97.5-21q-30 0-59 7.5t-52 24-37.5 42.5-14.5 63q0 53 27 84t66.5 46.5 84 20 78.5 4.5h70v28q0 60-37 86t-93 26q-80 0-141-52l-35 41q33 32 82 48.5t94 16.5q84 0 134-39.5t50-127.5v-113zM319 232q-38 0-73.5-5t-64-17-45.5-32-17-50q0-21 9.5-37.5t24.5-27 33.5-16 37.5-5.5q48 0 79 14t49.5 36.5 25.5 51 7 57.5v31h-66zM318 564h-50l-134 144h80z" glyph-name="agrave" horiz-adv-x="519" unicode="&#xe0;"/><glyph d="M439 194q0-34 .5-61t1.5-50 2.5-43 4.5-40h-56q-6 34-6 75h-2q-26-45-64.5-66t-97.5-21q-30 0-59 7.5t-52 24-37.5 42.5-14.5 63q0 53 27 84t66.5 46.5 84 20 78.5 4.5h70v28q0 60-37 86t-93 26q-80 0-141-52l-35 41q33 32 82 48.5t94 16.5q84 0 134-39.5t50-127.5v-113zM319 232q-38 0-73.5-5t-64-17-45.5-32-17-50q0-21 9.5-37.5t24.5-27 33.5-16 37.5-5.5q48 0 79 14t49.5 36.5 25.5 51 7 57.5v31h-66zM306 708h80l-134-144h-50z" glyph-name="aacute" horiz-adv-x="519" unicode="&#xe1;"/><glyph d="M439 194q0-34 .5-61t1.5-50 2.5-43 4.5-40h-56q-6 34-6 75h-2q-26-45-64.5-66t-97.5-21q-30 0-59 7.5t-52 24-37.5 42.5-14.5 63q0 53 27 84t66.5 46.5 84 20 78.5 4.5h70v28q0 60-37 86t-93 26q-80 0-141-52l-35 41q33 32 82 48.5t94 16.5q84 0 134-39.5t50-127.5v-113zM319 232q-38 0-73.5-5t-64-17-45.5-32-17-50q0-21 9.5-37.5t24.5-27 33.5-16 37.5-5.5q48 0 79 14t49.5 36.5 25.5 51 7 57.5v31h-66zM225 708h70l108-144h-65l-81 108-81-108h-59z" glyph-name="acircumflex" horiz-adv-x="519" unicode="&#xe2;"/><glyph d="M439 194q0-34 .5-61t1.5-50 2.5-43 4.5-40h-56q-6 34-6 75h-2q-26-45-64.5-66t-97.5-21q-30 0-59 7.5t-52 24-37.5 42.5-14.5 63q0 53 27 84t66.5 46.5 84 20 78.5 4.5h70v28q0 60-37 86t-93 26q-80 0-141-52l-35 41q33 32 82 48.5t94 16.5q84 0 134-39.5t50-127.5v-113zM319 232q-38 0-73.5-5t-64-17-45.5-32-17-50q0-21 9.5-37.5t24.5-27 33.5-16 37.5-5.5q48 0 79 14t49.5 36.5 25.5 51 7 57.5v31h-66zM104 581q2 17 9 35.5t18 32.5q11 15 27 24.5t36 9.5 39-8 36-17q17-8 33-15.5t30-7.5q22 0 33 15t15 33h36q-2-18-8-36.5t-16.5-33-25-23.5-34.5-9-38.5 8-36.5 16-34.5 16-31.5 8q-23 0-34.5-15t-16.5-33h-36z" glyph-name="atilde" horiz-adv-x="519" unicode="&#xe3;"/><glyph d="M439 194q0-34 .5-61t1.5-50 2.5-43 4.5-40h-56q-6 34-6 75h-2q-26-45-64.5-66t-97.5-21q-30 0-59 7.5t-52 24-37.5 42.5-14.5 63q0 53 27 84t66.5 46.5 84 20 78.5 4.5h70v28q0 60-37 86t-93 26q-80 0-141-52l-35 41q33 32 82 48.5t94 16.5q84 0 134-39.5t50-127.5v-113zM319 232q-38 0-73.5-5t-64-17-45.5-32-17-50q0-21 9.5-37.5t24.5-27 33.5-16 37.5-5.5q48 0 79 14t49.5 36.5 25.5 51 7 57.5v31h-66zM117 652q0 20 14 34t34 14 34-14 14-34-14-34-34-14-34 14-14 34zM307 652q0 20 14 34t34 14 34-14 14-34-14-34-34-14-34 14-14 34z" glyph-name="adieresis" horiz-adv-x="519" unicode="&#xe4;"/><glyph d="M439 194q0-34 .5-61t1.5-50 2.5-43 4.5-40h-56q-6 34-6 75h-2q-26-45-64.5-66t-97.5-21q-30 0-59 7.5t-52 24-37.5 42.5-14.5 63q0 53 27 84t66.5 46.5 84 20 78.5 4.5h70v28q0 60-37 86t-93 26q-80 0-141-52l-35 41q33 32 82 48.5t94 16.5q84 0 134-39.5t50-127.5v-113zM319 232q-38 0-73.5-5t-64-17-45.5-32-17-50q0-21 9.5-37.5t24.5-27 33.5-16 37.5-5.5q48 0 79 14t49.5 36.5 25.5 51 7 57.5v31h-66zM167 649q0 19 7.5 36.5t20 30.5 29.5 20.5 37 7.5q19 0 36-8t29.5-21.5 19.5-30.5 7-36q0-18-7-35t-19.5-30-29.5-21-36-8q-20 0-37 7.5t-29.5 20.5-20 30.5-7.5 36.5zM317 649q0 25-16 42t-41 17-41-17.5-16-42.5 16.5-41.5 40.5-16.5q25 0 41 17t16 42z" glyph-name="aring" horiz-adv-x="519" unicode="&#xe5;"/><glyph d="M392 279q0 68-33.5 104.5t-108.5 36.5q-80 0-141-52l-35 41q33 32 82 48.5t94 16.5q63 0 108.5-20.5t71.5-75.5q13 24 32 42t41.5 30 47 18 48.5 6q42 0 80-12.5t66.5-39.5 45.5-69.5 17-101.5v-35h-356q-2-36 8-67.5t30-55 50.5-37.5 71.5-14q43 0 77 19.5t56 54.5l47-34q-39-51-82.5-72.5t-107.5-21.5q-61 0-109 27t-73 87q-29-62-83-88t-120-26q-30 0-59 7.5t-52 24-37.5 42.5-14.5 63q0 22 8.5 47.5t32.5 47 67.5 36 114.5 14.5h115v9zM275 216q-53 0-84.5-10t-48.5-23.5-22.5-29-5.5-25.5q0-21 9.5-37.5t24.5-27 33.5-16 37.5-5.5q46 0 79 14t54 37.5 30.5 55 9.5 67.5h-117zM748 270q0 31-9 58.5t-27 47.5-45.5 32-65.5 12q-35 0-62.5-12t-46.5-32.5-29.5-47.5-10.5-58h296z" glyph-name="ae" horiz-adv-x="852" unicode="&#xe6;"/><glyph d="M467 68q-34-41-77-60.5t-93-19.5q-9 0-14 1l-38-53 2-2q13 7 31 7 32 0 57.5-18t25.5-54q0-23-10-39t-26.5-26-36.5-15-39-5q-50 0-95 21l14 32q33-17 76-17 10 0 21 2.5t20.5 7.5 15.5 13 6 20q0 23-18 32.5t-38 9.5q-23 0-44-8l-16 15 57 81q-43 7-79 27.5t-61.5 51.5-39.5 71.5-14 87.5q0 53 18 97.5t50 77 77 50.5 98 18q51 0 94.5-21t77.5-59l-48-36q-26 29-57 45.5t-67 16.5q-42 0-76-15t-58-40.5-36.5-60-12.5-73.5 12.5-73.5 36.5-60 58-40.5 76-15q38 0 69.5 17.5t54.5 46.5z" glyph-name="ccedilla" horiz-adv-x="481" unicode="&#xe7;"/><glyph d="M488 87q-35-53-86.5-76t-113.5-23q-53 0-96 18t-74 50.5-47.5 77-16.5 98.5q0 52 17 96t48 76.5 73 51 93 18.5q53 0 93.5-18.5t68-49 41.5-69.5 14-79v-42h-388q0-19 7.5-48.5t27.5-57.5 53.5-48 86.5-20q46 0 89 22t66 60zM442 270q0 31-12.5 58t-34 47.5-51 32.5-62.5 12q-49 0-81.5-20t-51.5-46-27-50.5-8-33.5h328zM336 564h-50l-134 144h80z" glyph-name="egrave" horiz-adv-x="556" unicode="&#xe8;"/><glyph d="M488 87q-35-53-86.5-76t-113.5-23q-53 0-96 18t-74 50.5-47.5 77-16.5 98.5q0 52 17 96t48 76.5 73 51 93 18.5q53 0 93.5-18.5t68-49 41.5-69.5 14-79v-42h-388q0-19 7.5-48.5t27.5-57.5 53.5-48 86.5-20q46 0 89 22t66 60zM442 270q0 31-12.5 58t-34 47.5-51 32.5-62.5 12q-49 0-81.5-20t-51.5-46-27-50.5-8-33.5h328zM324 708h80l-134-144h-50z" glyph-name="eacute" horiz-adv-x="556" unicode="&#xe9;"/><glyph d="M488 87q-35-53-86.5-76t-113.5-23q-53 0-96 18t-74 50.5-47.5 77-16.5 98.5q0 52 17 96t48 76.5 73 51 93 18.5q53 0 93.5-18.5t68-49 41.5-69.5 14-79v-42h-388q0-19 7.5-48.5t27.5-57.5 53.5-48 86.5-20q46 0 89 22t66 60zM442 270q0 31-12.5 58t-34 47.5-51 32.5-62.5 12q-49 0-81.5-20t-51.5-46-27-50.5-8-33.5h328zM243 708h70l108-144h-65l-81 108-81-108h-59z" glyph-name="ecircumflex" horiz-adv-x="556" unicode="&#xea;"/><glyph d="M488 87q-35-53-86.5-76t-113.5-23q-53 0-96 18t-74 50.5-47.5 77-16.5 98.5q0 52 17 96t48 76.5 73 51 93 18.5q53 0 93.5-18.5t68-49 41.5-69.5 14-79v-42h-388q0-19 7.5-48.5t27.5-57.5 53.5-48 86.5-20q46 0 89 22t66 60zM442 270q0 31-12.5 58t-34 47.5-51 32.5-62.5 12q-49 0-81.5-20t-51.5-46-27-50.5-8-33.5h328zM135 652q0 20 14 34t34 14 34-14 14-34-14-34-34-14-34 14-14 34zM325 652q0 20 14 34t34 14 34-14 14-34-14-34-34-14-34 14-14 34z" glyph-name="edieresis" horiz-adv-x="556" unicode="&#xeb;"/><glyph d="M90 462h60v-462h-60v462zM178 564h-50l-134 144h80z" glyph-name="igrave" unicode="&#xec;"/><glyph d="M90 462h60v-462h-60v462zM166 708h80l-134-144h-50z" glyph-name="iacute" unicode="&#xed;"/><glyph d="M90 462h60v-462h-60v462zM85 708h70l108-144h-65l-81 108-81-108h-59z" glyph-name="icircumflex" unicode="&#xee;"/><glyph d="M90 462h60v-462h-60v462zM-23 652q0 20 14 34t34 14 34-14 14-34-14-34-34-14-34 14-14 34zM167 652q0 20 14 34t34 14 34-14 14-34-14-34-34-14-34 14-14 34z" glyph-name="idieresis" unicode="&#xef;"/><glyph d="M253 660q-23 21-49 42.5t-45 35.5l52 30q23-17 49-38.5t46-41.5l104 56 36-30-106-57q22-20 56-56t66-86.5 55-115.5 23-143q0-62-18-112t-50.5-84.5-77-53-97.5-18.5-98 18-77 50.5-50 77-18 97.5 18 97.5 50 77 77 50.5 98 18q42 0 79.5-13t69.5-42l2 2q-38 67-81 120.5t-80 86.5l-107-57-31 33zM114 231q0-39 12.5-73.5t36.5-60 58-40.5 76-15 76 15 58 40.5 36.5 60 12.5 73.5-12.5 73.5-36.5 60-58 40.5-76 15-76-15-58-40.5-36.5-60-12.5-73.5z" glyph-name="eth" horiz-adv-x="594" unicode="&#xf0;"/><glyph d="M80 332q0 13-1 31.5t-1.5 37.5-1.5 35.5-1 25.5h60q1-26 1.5-50t2.5-31h3q18 38 60 65.5t98 27.5q54 0 88-17t53.5-44.5 27-63.5 7.5-74v-275h-60v272q0 28-5 54.5t-17.5 47.5-35 33.5-58.5 12.5q-33 0-62.5-11.5t-51-35-34-59-12.5-83.5v-231h-60v332zM122 581q2 17 9 35.5t18 32.5q11 15 27 24.5t36 9.5 39-8 36-17q17-8 33-15.5t30-7.5q22 0 33 15t15 33h36q-2-18-8-36.5t-16.5-33-25-23.5-34.5-9-38.5 8-36.5 16-34.5 16-31.5 8q-23 0-34.5-15t-16.5-33h-36z" glyph-name="ntilde" horiz-adv-x="556" unicode="&#xf1;"/><glyph d="M54 231q0 53 18 97.5t50 77 77 50.5 98 18 97.5-18 77-50.5 50.5-77 18-97.5-18-97.5-50.5-77-77-50.5-97.5-18-98 18-77 50.5-50 77-18 97.5zM114 231q0-39 12.5-73.5t36.5-60 58-40.5 76-15 76 15 58 40.5 36.5 60 12.5 73.5-12.5 73.5-36.5 60-58 40.5-76 15-76-15-58-40.5-36.5-60-12.5-73.5zM355 564h-50l-134 144h80z" glyph-name="ograve" horiz-adv-x="594" unicode="&#xf2;"/><glyph d="M54 231q0 53 18 97.5t50 77 77 50.5 98 18 97.5-18 77-50.5 50.5-77 18-97.5-18-97.5-50.5-77-77-50.5-97.5-18-98 18-77 50.5-50 77-18 97.5zM114 231q0-39 12.5-73.5t36.5-60 58-40.5 76-15 76 15 58 40.5 36.5 60 12.5 73.5-12.5 73.5-36.5 60-58 40.5-76 15-76-15-58-40.5-36.5-60-12.5-73.5zM343 708h80l-134-144h-50z" glyph-name="oacute" horiz-adv-x="594" unicode="&#xf3;"/><glyph d="M54 231q0 53 18 97.5t50 77 77 50.5 98 18 97.5-18 77-50.5 50.5-77 18-97.5-18-97.5-50.5-77-77-50.5-97.5-18-98 18-77 50.5-50 77-18 97.5zM114 231q0-39 12.5-73.5t36.5-60 58-40.5 76-15 76 15 58 40.5 36.5 60 12.5 73.5-12.5 73.5-36.5 60-58 40.5-76 15-76-15-58-40.5-36.5-60-12.5-73.5zM262 708h70l108-144h-65l-81 108-81-108h-59z" glyph-name="ocircumflex" horiz-adv-x="594" unicode="&#xf4;"/><glyph d="M54 231q0 53 18 97.5t50 77 77 50.5 98 18 97.5-18 77-50.5 50.5-77 18-97.5-18-97.5-50.5-77-77-50.5-97.5-18-98 18-77 50.5-50 77-18 97.5zM114 231q0-39 12.5-73.5t36.5-60 58-40.5 76-15 76 15 58 40.5 36.5 60 12.5 73.5-12.5 73.5-36.5 60-58 40.5-76 15-76-15-58-40.5-36.5-60-12.5-73.5zM141 581q2 17 9 35.5t18 32.5q11 15 27 24.5t36 9.5 39-8 36-17q17-8 33-15.5t30-7.5q22 0 33 15t15 33h36q-2-18-8-36.5t-16.5-33-25-23.5-34.5-9-38.5 8-36.5 16-34.5 16-31.5 8q-23 0-34.5-15t-16.5-33h-36z" glyph-name="otilde" horiz-adv-x="594" unicode="&#xf5;"/><glyph d="M54 231q0 53 18 97.5t50 77 77 50.5 98 18 97.5-18 77-50.5 50.5-77 18-97.5-18-97.5-50.5-77-77-50.5-97.5-18-98 18-77 50.5-50 77-18 97.5zM114 231q0-39 12.5-73.5t36.5-60 58-40.5 76-15 76 15 58 40.5 36.5 60 12.5 73.5-12.5 73.5-36.5 60-58 40.5-76 15-76-15-58-40.5-36.5-60-12.5-73.5zM154 652q0 20 14 34t34 14 34-14 14-34-14-34-34-14-34 14-14 34zM344 652q0 20 14 34t34 14 34-14 14-34-14-34-34-14-34 14-14 34z" glyph-name="odieresis" horiz-adv-x="594" unicode="&#xf6;"/><glyph d="M78 327h510v-48h-510v48zM282 457q0 21 15 36t36 15 36-15 15-36-15-36-36-15-36 15-15 36zM282 149q0 22 15 36t36 15q21 0 36-15t15-36-15-36-36-15-36 15-15 36z" glyph-name="divide" horiz-adv-x="666" unicode="&#xf7;"/><glyph d="M109 73q-55 64-55 158 0 53 18 97.5t50 77 77 50.5 98 18q47 0 86.5-14t70.5-39l69 70 32-29-71-71q27-31 41.5-71.5t14.5-88.5q0-53-18-97.5t-50.5-77-77-50.5-97.5-18q-48 0-88 14t-70 40l-68-69-32 29zM413 380q-23 19-52 29.5t-64 10.5q-42 0-76-15t-58-40.5-36.5-60-12.5-73.5q0-33 9-63t27-53zM180 83q22-20 51.5-30.5t65.5-10.5q42 0 76 15t58 40.5 36.5 60 12.5 73.5q0 35-9.5 65t-27.5 53z" glyph-name="oslash" horiz-adv-x="594" unicode="&#xf8;"/><glyph d="M471 130q0-13 1-31.5t1.5-37.5 1.5-35.5 1-25.5h-60q-1 26-1.5 50t-2.5 31h-3q-18-38-60-65.5t-98-27.5q-54 0-88.5 17t-54 44.5-26.5 63.5-7 74v275h60v-272q0-28 5-54.5t17.5-47.5 35-33.5 58.5-12.5q33 0 62.5 11.5t51 35 34 59 12.5 83.5v231h60v-332zM336 564h-50l-134 144h80z" glyph-name="ugrave" horiz-adv-x="556" unicode="&#xf9;"/><glyph d="M471 130q0-13 1-31.5t1.5-37.5 1.5-35.5 1-25.5h-60q-1 26-1.5 50t-2.5 31h-3q-18-38-60-65.5t-98-27.5q-54 0-88.5 17t-54 44.5-26.5 63.5-7 74v275h60v-272q0-28 5-54.5t17.5-47.5 35-33.5 58.5-12.5q33 0 62.5 11.5t51 35 34 59 12.5 83.5v231h60v-332zM324 708h80l-134-144h-50z" glyph-name="uacute" horiz-adv-x="556" unicode="&#xfa;"/><glyph d="M471 130q0-13 1-31.5t1.5-37.5 1.5-35.5 1-25.5h-60q-1 26-1.5 50t-2.5 31h-3q-18-38-60-65.5t-98-27.5q-54 0-88.5 17t-54 44.5-26.5 63.5-7 74v275h60v-272q0-28 5-54.5t17.5-47.5 35-33.5 58.5-12.5q33 0 62.5 11.5t51 35 34 59 12.5 83.5v231h60v-332zM243 708h70l108-144h-65l-81 108-81-108h-59z" glyph-name="ucircumflex" horiz-adv-x="556" unicode="&#xfb;"/><glyph d="M471 130q0-13 1-31.5t1.5-37.5 1.5-35.5 1-25.5h-60q-1 26-1.5 50t-2.5 31h-3q-18-38-60-65.5t-98-27.5q-54 0-88.5 17t-54 44.5-26.5 63.5-7 74v275h60v-272q0-28 5-54.5t17.5-47.5 35-33.5 58.5-12.5q33 0 62.5 11.5t51 35 34 59 12.5 83.5v231h60v-332zM135 652q0 20 14 34t34 14 34-14 14-34-14-34-34-14-34 14-14 34zM325 652q0 20 14 34t34 14 34-14 14-34-14-34-34-14-34 14-14 34z" glyph-name="udieresis" horiz-adv-x="556" unicode="&#xfc;"/><glyph d="M210-143q-17-45-47-71t-80-26q-15 0-30 2.5t-29 6.5l6 56q13-4 26.5-7.5t27.5-3.5q16 0 28.5 7t21.5 18 15.5 24.5 11.5 27.5l42 107-188 464h67l153-389 149 389h64zM278 708h80l-134-144h-50z" glyph-name="yacute" horiz-adv-x="463" unicode="&#xfd;"/><glyph d="M67 756h60v-375h2q14 24 35 41.5t45.5 29 51.5 17 53 5.5q53 0 97.5-18t77-50.5 50.5-77 18-97.5-18-97.5-50.5-77-77-50.5-97.5-18q-26 0-53 5.5t-51.5 17-45.5 29-35 41.5h-2v-309h-60v984zM121 231q0-39 15-73.5t41-60 61-40.5 76-15q42 0 76 15t58 40.5 36.5 60 12.5 73.5-12.5 73.5-36.5 60-58 40.5-76 15q-41 0-76-15t-61-40.5-41-60-15-73.5z" glyph-name="thorn" horiz-adv-x="611" unicode="&#xfe;"/><glyph d="M210-143q-17-45-47-71t-80-26q-15 0-30 2.5t-29 6.5l6 56q13-4 26.5-7.5t27.5-3.5q16 0 28.5 7t21.5 18 15.5 24.5 11.5 27.5l42 107-188 464h67l153-389 149 389h64zM89 652q0 20 14 34t34 14 34-14 14-34-14-34-34-14-34 14-14 34zM279 652q0 20 14 34t34 14 34-14 14-34-14-34-34-14-34 14-14 34z" glyph-name="ydieresis" horiz-adv-x="463" unicode="&#xff;"/><glyph d="M314 708h68l298-708h-74l-77 188h-375l-80-188h-69zM345 636l-165-388h325zM477 799h-264v48h264v-48z" glyph-name="Amacron" horiz-adv-x="685" unicode="&#x100;"/><glyph d="M439 194q0-34 .5-61t1.5-50 2.5-43 4.5-40h-56q-6 34-6 75h-2q-26-45-64.5-66t-97.5-21q-30 0-59 7.5t-52 24-37.5 42.5-14.5 63q0 53 27 84t66.5 46.5 84 20 78.5 4.5h70v28q0 60-37 86t-93 26q-80 0-141-52l-35 41q33 32 82 48.5t94 16.5q84 0 134-39.5t50-127.5v-113zM319 232q-38 0-73.5-5t-64-17-45.5-32-17-50q0-21 9.5-37.5t24.5-27 33.5-16 37.5-5.5q48 0 79 14t49.5 36.5 25.5 51 7 57.5v31h-66zM404 606h-264v48h264v-48z" glyph-name="amacron" horiz-adv-x="519" unicode="&#x101;"/><glyph d="M314 708h68l298-708h-74l-77 188h-375l-80-188h-69zM345 636l-165-388h325zM262 881q6-40 33.5-59t66.5-19q45 0 69.5 16.5t34.5 61.5h42q-7-60-46.5-93t-99.5-33-99.5 33-42.5 93h42z" glyph-name="Abreve" horiz-adv-x="685" unicode="&#x102;"/><glyph d="M439 194q0-34 .5-61t1.5-50 2.5-43 4.5-40h-56q-6 34-6 75h-2q-26-45-64.5-66t-97.5-21q-30 0-59 7.5t-52 24-37.5 42.5-14.5 63q0 53 27 84t66.5 46.5 84 20 78.5 4.5h70v28q0 60-37 86t-93 26q-80 0-141-52l-35 41q33 32 82 48.5t94 16.5q84 0 134-39.5t50-127.5v-113zM319 232q-38 0-73.5-5t-64-17-45.5-32-17-50q0-21 9.5-37.5t24.5-27 33.5-16 37.5-5.5q48 0 79 14t49.5 36.5 25.5 51 7 57.5v31h-66zM170 708q6-40 33.5-59t66.5-19q45 0 69.5 17t34.5 61h42q-7-60-46.5-93t-99.5-33q-59 0-99 33t-43 93h42z" glyph-name="abreve" horiz-adv-x="519" unicode="&#x103;"/><glyph d="M695-183q-16-14-36.5-23.5t-48.5-9.5q-40 0-66 22t-26 60q0 21 8 40t20.5 35.5 28.5 31.5 31 27l-77 188h-375l-80-188h-69l309 708h68l298-708h-29q-11-8-23.5-21t-23.5-29-18.5-34-7.5-37q0-47 43-47 21 0 34.5 7.5t20.5 15.5zM345 636l-165-388h325z" glyph-name="Aogonek" horiz-adv-x="685" unicode="&#x104;"/><glyph d="M481-183q-16-14-36.5-23.5t-48.5-9.5q-40 0-66 22t-26 60q0 21 8 40t20.5 35.5 28.5 31.5 31 27q-6 34-6 75h-2q-26-45-64-66t-98-21q-30 0-59 7.5t-52 24-37.5 42.5-14.5 63q0 53 27 84t66.5 46.5 83.5 20 79 4.5h70v28q0 60-36.5 86t-93.5 26q-80 0-141-52l-35 41q33 32 82 48.5t94 16.5q84 0 134-39.5t50-127.5v-113q0-34 .5-61t1-50 2.5-43 5-40h-11q-11-8-23.5-21t-23.5-29-18.5-34-7.5-37q0-47 43-47 21 0 34.5 7.5t20.5 15.5zM319 232q-38 0-73.5-5t-64-17-45.5-32-17-50q0-21 9.5-37.5t24.5-27 33.5-16 37.5-5.5q48 0 79 14t49.5 36.5 25.5 51 7 57.5v31h-66z" glyph-name="aogonek" horiz-adv-x="519" unicode="&#x105;"/><glyph d="M680 111q-51-69-118-99t-145-30q-81 0-148.5 27.5t-115.5 77-75 118-27 149.5 27 149 75 117.5 115.5 77.5 148.5 28q72 0 134.5-25.5t109.5-85.5l-54-45q-33 50-84.5 73t-105.5 23q-69 0-124.5-24t-94.5-66-60-99-21-123 21-123 60-99 94.5-66 124.5-24q27 0 56 6.5t56.5 20 52.5 34 44 49.5zM445 896h80l-134-144h-50z" glyph-name="Cacute" horiz-adv-x="704" unicode="&#x106;"/><glyph d="M467 68q-34-41-77-60.5t-93-19.5q-53 0-98 18t-77 50.5-50 77-18 97.5 18 97.5 50 77 77 50.5 98 18q51 0 94.5-21t77.5-59l-48-36q-26 29-57 45.5t-67 16.5q-42 0-76-15t-58-40.5-36.5-60-12.5-73.5 12.5-73.5 36.5-60 58-40.5 76-15q38 0 69.5 17.5t54.5 46.5zM341 708h80l-134-144h-50z" glyph-name="cacute" horiz-adv-x="481" unicode="&#x107;"/><glyph d="M680 111q-51-69-118-99t-145-30q-81 0-148.5 27.5t-115.5 77-75 118-27 149.5 27 149 75 117.5 115.5 77.5 148.5 28q72 0 134.5-25.5t109.5-85.5l-54-45q-33 50-84.5 73t-105.5 23q-69 0-124.5-24t-94.5-66-60-99-21-123 21-123 60-99 94.5-66 124.5-24q27 0 56 6.5t56.5 20 52.5 34 44 49.5zM382 896h70l108-144h-65l-81 108-81-108h-59z" glyph-name="Ccircumflex" horiz-adv-x="704" unicode="&#x108;"/><glyph d="M467 68q-34-41-77-60.5t-93-19.5q-53 0-98 18t-77 50.5-50 77-18 97.5 18 97.5 50 77 77 50.5 98 18q51 0 94.5-21t77.5-59l-48-36q-26 29-57 45.5t-67 16.5q-42 0-76-15t-58-40.5-36.5-60-12.5-73.5 12.5-73.5 36.5-60 58-40.5 76-15q38 0 69.5 17.5t54.5 46.5zM259 708h70l108-144h-65l-81 108-81-108h-59z" glyph-name="ccircumflex" horiz-adv-x="481" unicode="&#x109;"/><glyph d="M680 111q-51-69-118-99t-145-30q-81 0-148.5 27.5t-115.5 77-75 118-27 149.5 27 149 75 117.5 115.5 77.5 148.5 28q72 0 134.5-25.5t109.5-85.5l-54-45q-33 50-84.5 73t-105.5 23q-69 0-124.5-24t-94.5-66-60-99-21-123 21-123 60-99 94.5-66 124.5-24q27 0 56 6.5t56.5 20 52.5 34 44 49.5zM372 840q0 20 14 34t34 14 34-14 14-34-14-34-34-14-34 14-14 34z" glyph-name="Cdotaccent" horiz-adv-x="704" unicode="&#x10a;"/><glyph d="M467 68q-34-41-77-60.5t-93-19.5q-53 0-98 18t-77 50.5-50 77-18 97.5 18 97.5 50 77 77 50.5 98 18q51 0 94.5-21t77.5-59l-48-36q-26 29-57 45.5t-67 16.5q-42 0-76-15t-58-40.5-36.5-60-12.5-73.5 12.5-73.5 36.5-60 58-40.5 76-15q38 0 69.5 17.5t54.5 46.5zM249 652q0 20 14 34t34 14 34-14 14-34-14-34-34-14-34 14-14 34z" glyph-name="cdotaccent" horiz-adv-x="481" unicode="&#x10b;"/><glyph d="M680 111q-51-69-118-99t-145-30q-81 0-148.5 27.5t-115.5 77-75 118-27 149.5 27 149 75 117.5 115.5 77.5 148.5 28q72 0 134.5-25.5t109.5-85.5l-54-45q-33 50-84.5 73t-105.5 23q-69 0-124.5-24t-94.5-66-60-99-21-123 21-123 60-99 94.5-66 124.5-24q27 0 56 6.5t56.5 20 52.5 34 44 49.5zM450 752h-70l-109 144h62l83-114 86 114h54z" glyph-name="Ccaron" horiz-adv-x="704" unicode="&#x10c;"/><glyph d="M467 68q-34-41-77-60.5t-93-19.5q-53 0-98 18t-77 50.5-50 77-18 97.5 18 97.5 50 77 77 50.5 98 18q51 0 94.5-21t77.5-59l-48-36q-26 29-57 45.5t-67 16.5q-42 0-76-15t-58-40.5-36.5-60-12.5-73.5 12.5-73.5 36.5-60 58-40.5 76-15q38 0 69.5 17.5t54.5 46.5zM327 564h-70l-109 144h62l83-114 86 114h54z" glyph-name="ccaron" horiz-adv-x="481" unicode="&#x10d;"/><glyph d="M88 708h219q92 0 156-22.5t106.5-57.5 67-77.5 36-81.5 14.5-70.5 3-44.5-3-44.5-14.5-70.5-36-81.5-67-77.5-106.5-57.5-156-22.5h-219v708zM154 60h136q70 0 131 17.5t106 53.5 71 91.5 26 131.5-26 131.5-71 91.5-106 53.5-131 17.5h-136v-588zM360 752h-70l-109 144h62l83-114 86 114h54z" glyph-name="Dcaron" horiz-adv-x="741" unicode="&#x10e;"/><glyph d="M484 81h-2q-14-24-35-41.5t-45.5-29-51.5-17-53-5.5q-53 0-98 18t-77 50.5-50 77-18 97.5 18 97.5 50 77 77 50.5 98 18q26 0 53-5.5t51.5-17 45.5-29 35-41.5h2v375h60v-756h-60v81zM490 231q0 39-15 73.5t-41 60-61 40.5-76 15q-42 0-76-15t-58-40.5-36.5-60-12.5-73.5 12.5-73.5 36.5-60 58-40.5 76-15q41 0 76 15t61 40.5 41 60 15 73.5zM668 708h65l-63-185h-53z" glyph-name="dcaron" horiz-adv-x="611" unicode="&#x10f;"/><glyph d="M154 396h258v-54h-258v-282h136q70 0 131 17.5t106 53.5 71 91.5 26 131.5-26 131.5-71 91.5-106 53.5-131 17.5h-136v-252zM88 342h-78v54h78v312h219q92 0 156-22.5t106.5-57.5 67-77.5 36-81.5 14.5-70.5 3-44.5-3-44.5-14.5-70.5-36-81.5-67-77.5-106.5-57.5-156-22.5h-219v342z" glyph-name="Dcroat" horiz-adv-x="741" unicode="&#x110;"/><glyph d="M484 81h-2q-14-24-35-41.5t-45.5-29-51.5-17-53-5.5q-53 0-98 18t-77 50.5-50 77-18 97.5 18 97.5 50 77 77 50.5 98 18q26 0 53-5.5t51.5-17 45.5-29 35-41.5h2v200h-162v53h162v122h60v-122h72v-53h-72v-581h-60v81zM490 231q0 39-15 73.5t-41 60-61.5 40.5-75.5 15q-42 0-76-15t-58-40.5-36.5-60-12.5-73.5 12.5-73.5 36.5-60 58-40.5 76-15q40 0 75.5 15t61.5 40.5 41 60 15 73.5z" glyph-name="dcroat" horiz-adv-x="611" unicode="&#x111;"/><glyph d="M97 708h433v-60h-367v-252h344v-60h-344v-276h383v-60h-449v708zM453 799h-264v48h264v-48z" glyph-name="Emacron" horiz-adv-x="593" unicode="&#x112;"/><glyph d="M488 87q-35-53-86.5-76t-113.5-23q-53 0-96 18t-74 50.5-47.5 77-16.5 98.5q0 52 17 96t48 76.5 73 51 93 18.5q53 0 93.5-18.5t68-49 41.5-69.5 14-79v-42h-388q0-19 7.5-48.5t27.5-57.5 53.5-48 86.5-20q46 0 89 22t66 60zM442 270q0 31-12.5 58t-34 47.5-51 32.5-62.5 12q-49 0-81.5-20t-51.5-46-27-50.5-8-33.5h328zM426 606h-264v48h264v-48z" glyph-name="emacron" horiz-adv-x="556" unicode="&#x113;"/><glyph d="M97 708h433v-60h-367v-252h344v-60h-344v-276h383v-60h-449v708zM219 881q6-40 33.5-59t66.5-19q45 0 69.5 16.5t34.5 61.5h42q-7-60-46.5-93t-99.5-33-99.5 33-42.5 93h42z" glyph-name="Ebreve" horiz-adv-x="593" unicode="&#x114;"/><glyph d="M488 87q-35-53-86.5-76t-113.5-23q-53 0-96 18t-74 50.5-47.5 77-16.5 98.5q0 52 17 96t48 76.5 73 51 93 18.5q53 0 93.5-18.5t68-49 41.5-69.5 14-79v-42h-388q0-19 7.5-48.5t27.5-57.5 53.5-48 86.5-20q46 0 89 22t66 60zM442 270q0 31-12.5 58t-34 47.5-51 32.5-62.5 12q-49 0-81.5-20t-51.5-46-27-50.5-8-33.5h328zM192 708q6-40 33.5-59t66.5-19q45 0 69.5 17t34.5 61h42q-7-60-46.5-93t-99.5-33q-59 0-99 33t-43 93h42z" glyph-name="ebreve" horiz-adv-x="556" unicode="&#x115;"/><glyph d="M97 708h433v-60h-367v-252h344v-60h-344v-276h383v-60h-449v708zM276 840q0 20 14 34t34 14 34-14 14-34-14-34-34-14-34 14-14 34z" glyph-name="Edotaccent" horiz-adv-x="593" unicode="&#x116;"/><glyph d="M488 87q-35-53-86.5-76t-113.5-23q-53 0-96 18t-74 50.5-47.5 77-16.5 98.5q0 52 17 96t48 76.5 73 51 93 18.5q53 0 93.5-18.5t68-49 41.5-69.5 14-79v-42h-388q0-19 7.5-48.5t27.5-57.5 53.5-48 86.5-20q46 0 89 22t66 60zM442 270q0 31-12.5 58t-34 47.5-51 32.5-62.5 12q-49 0-81.5-20t-51.5-46-27-50.5-8-33.5h328zM249 652q0 20 14 34t34 14 34-14 14-34-14-34-34-14-34 14-14 34z" glyph-name="edotaccent" horiz-adv-x="556" unicode="&#x117;"/><glyph d="M97 708h433v-60h-367v-252h344v-60h-344v-276h383v-60h-52q-11-8-23.5-21t-23.5-29-18.5-34-7.5-37q0-47 43-47 21 0 34.5 7.5t20.5 15.5l19-38q-16-14-36.5-23.5t-48.5-9.5q-40 0-66 22t-26 60q0 21 8 40t20.5 35.5 28.5 31.5 31 27h-352v708z" glyph-name="Eogonek" horiz-adv-x="593" unicode="&#x118;"/><glyph d="M388-183q-16-14-36.5-23.5t-48.5-9.5q-40 0-66 22t-26 60q0 37 22.5 68t50.5 54q-52 1-94.5 19.5t-72.5 50.5-46.5 76.5-16.5 97.5q0 52 17 96t48 76.5 73 51 93 18.5q53 0 93.5-18.5t68-49 41.5-69.5 14-79v-42h-388q0-19 7.5-48.5t27.5-57.5 53.5-48 86.5-20q23 0 45.5 5.5t43 16 37.5 26 29 34.5l44-37q-29-43-68-66t-87-30q-21-18-41.5-48t-20.5-64q0-47 43-47 21 0 34.5 7.5t20.5 15.5zM442 270q0 31-12.5 58t-34 47.5-51 32.5-62.5 12q-49 0-81.5-20t-51.5-46-27-50.5-8-33.5h328z" glyph-name="eogonek" horiz-adv-x="556" unicode="&#x119;"/><glyph d="M97 708h433v-60h-367v-252h344v-60h-344v-276h383v-60h-449v708zM354 752h-70l-109 144h62l83-114 86 114h54z" glyph-name="Ecaron" horiz-adv-x="593" unicode="&#x11a;"/><glyph d="M488 87q-35-53-86.5-76t-113.5-23q-53 0-96 18t-74 50.5-47.5 77-16.5 98.5q0 52 17 96t48 76.5 73 51 93 18.5q53 0 93.5-18.5t68-49 41.5-69.5 14-79v-42h-388q0-19 7.5-48.5t27.5-57.5 53.5-48 86.5-20q46 0 89 22t66 60zM442 270q0 31-12.5 58t-34 47.5-51 32.5-62.5 12q-49 0-81.5-20t-51.5-46-27-50.5-8-33.5h328zM327 564h-70l-109 144h62l83-114 86 114h54z" glyph-name="ecaron" horiz-adv-x="556" unicode="&#x11b;"/><glyph d="M681 46q-62-35-128.5-49.5t-135.5-14.5q-81 0-148.5 27.5t-115.5 77-75 118-27 149.5 27 149 75 117.5 115.5 77.5 148.5 28q158 0 255-98l-48-50q-16 19-39.5 35.5t-51 28-57.5 18-59 6.5q-69 0-124.5-24t-94.5-66-60-99-21-123 21-123 60-99 94.5-66 124.5-24q57 0 107 9t91 33v238h-170v60h236v-336zM380 896h70l108-144h-65l-81 108-81-108h-59z" glyph-name="Gcircumflex" horiz-adv-x="778" unicode="&#x11c;"/><glyph d="M544 30q0-86-25-139t-62.5-82-80.5-39-78-10-68.5 6.5-63.5 19-54.5 30.5-42.5 41l47 44q32-45 80-66t102-21q46 0 77.5 12t52 31.5 32 43 17 47 6.5 44.5 1 34v64h-2q-26-42-70.5-66t-104.5-24q-51 0-96 18.5t-78.5 51-53 75.5-19.5 92 19.5 92 53 75 78.5 51 96 19q60 0 104.5-24t70.5-66h2v78h60v-432zM486 237q0 38-14.5 71.5t-39 58-58 39-71.5 14.5-71.5-14.5-58-39-39-58-14.5-71.5 14.5-71.5 39-58 58-39 71.5-14.5 71.5 14.5 58 39 39 58 14.5 71.5zM294 708h70l108-144h-65l-81 108-81-108h-59z" glyph-name="gcircumflex" horiz-adv-x="611" unicode="&#x11d;"/><glyph d="M681 46q-62-35-128.5-49.5t-135.5-14.5q-81 0-148.5 27.5t-115.5 77-75 118-27 149.5 27 149 75 117.5 115.5 77.5 148.5 28q158 0 255-98l-48-50q-16 19-39.5 35.5t-51 28-57.5 18-59 6.5q-69 0-124.5-24t-94.5-66-60-99-21-123 21-123 60-99 94.5-66 124.5-24q57 0 107 9t91 33v238h-170v60h236v-336zM313 881q6-40 33.5-59t66.5-19q45 0 69.5 16.5t34.5 61.5h42q-7-60-46.5-93t-99.5-33-99.5 33-42.5 93h42z" glyph-name="Gbreve" horiz-adv-x="778" unicode="&#x11e;"/><glyph d="M544 30q0-86-25-139t-62.5-82-80.5-39-78-10-68.5 6.5-63.5 19-54.5 30.5-42.5 41l47 44q32-45 80-66t102-21q46 0 77.5 12t52 31.5 32 43 17 47 6.5 44.5 1 34v64h-2q-26-42-70.5-66t-104.5-24q-51 0-96 18.5t-78.5 51-53 75.5-19.5 92 19.5 92 53 75 78.5 51 96 19q60 0 104.5-24t70.5-66h2v78h60v-432zM486 237q0 38-14.5 71.5t-39 58-58 39-71.5 14.5-71.5-14.5-58-39-39-58-14.5-71.5 14.5-71.5 39-58 58-39 71.5-14.5 71.5 14.5 58 39 39 58 14.5 71.5zM227 708q6-40 33.5-59t66.5-19q45 0 69.5 17t34.5 61h42q-7-60-46.5-93t-99.5-33q-59 0-99 33t-43 93h42z" glyph-name="gbreve" horiz-adv-x="611" unicode="&#x11f;"/><glyph d="M681 46q-62-35-128.5-49.5t-135.5-14.5q-81 0-148.5 27.5t-115.5 77-75 118-27 149.5 27 149 75 117.5 115.5 77.5 148.5 28q158 0 255-98l-48-50q-16 19-39.5 35.5t-51 28-57.5 18-59 6.5q-69 0-124.5-24t-94.5-66-60-99-21-123 21-123 60-99 94.5-66 124.5-24q57 0 107 9t91 33v238h-170v60h236v-336zM370 840q0 20 14 34t34 14 34-14 14-34-14-34-34-14-34 14-14 34z" glyph-name="Gdotaccent" horiz-adv-x="778" unicode="&#x120;"/><glyph d="M544 30q0-86-25-139t-62.5-82-80.5-39-78-10-68.5 6.5-63.5 19-54.5 30.5-42.5 41l47 44q32-45 80-66t102-21q46 0 77.5 12t52 31.5 32 43 17 47 6.5 44.5 1 34v64h-2q-26-42-70.5-66t-104.5-24q-51 0-96 18.5t-78.5 51-53 75.5-19.5 92 19.5 92 53 75 78.5 51 96 19q60 0 104.5-24t70.5-66h2v78h60v-432zM486 237q0 38-14.5 71.5t-39 58-58 39-71.5 14.5-71.5-14.5-58-39-39-58-14.5-71.5 14.5-71.5 39-58 58-39 71.5-14.5 71.5 14.5 58 39 39 58 14.5 71.5zM284 652q0 20 14 34t34 14 34-14 14-34-14-34-34-14-34 14-14 34z" glyph-name="gdotaccent" horiz-adv-x="611" unicode="&#x121;"/><glyph d="M681 46q-62-35-128.5-49.5t-135.5-14.5q-81 0-148.5 27.5t-115.5 77-75 118-27 149.5 27 149 75 117.5 115.5 77.5 148.5 28q158 0 255-98l-48-50q-16 19-39.5 35.5t-51 28-57.5 18-59 6.5q-69 0-124.5-24t-94.5-66-60-99-21-123 21-123 60-99 94.5-66 124.5-24q57 0 107 9t91 33v238h-170v60h236v-336zM387-66h65l-62-165h-53z" glyph-name="Gcommaaccent" horiz-adv-x="778" unicode="&#x122;"/><glyph d="M544 30q0-86-25-139t-62.5-82-80.5-39-78-10-68.5 6.5-63.5 19-54.5 30.5-42.5 41l47 44q32-45 80-66t102-21q46 0 77.5 12t52 31.5 32 43 17 47 6.5 44.5 1 34v64h-2q-26-42-70.5-66t-104.5-24q-51 0-96 18.5t-78.5 51-53 75.5-19.5 92 19.5 92 53 75 78.5 51 96 19q60 0 104.5-24t70.5-66h2v78h60v-432zM486 237q0 38-14.5 71.5t-39 58-58 39-71.5 14.5-71.5-14.5-58-39-39-58-14.5-71.5 14.5-71.5 39-58 58-39 71.5-14.5 71.5 14.5 58 39 39 58 14.5 71.5zM350 594h-65l63 165h53z" glyph-name="gcommaaccent" horiz-adv-x="611" unicode="&#x123;"/><glyph d="M97 708h66v-312h396v312h66v-708h-66v336h-396v-336h-66v708zM325 896h70l108-144h-65l-81 108-81-108h-59z" glyph-name="Hcircumflex" horiz-adv-x="722" unicode="&#x124;"/><glyph d="M80 756h60v-375h2q18 38 60 65.5t98 27.5q54 0 88-17t53.5-44.5 27-63.5 7.5-74v-275h-60v272q0 28-5 54.5t-17.5 47.5-35 33.5-58.5 12.5q-33 0-62.5-11.5t-51-35-34-59-12.5-83.5v-231h-60v756zM216 936h70l108-144h-65l-81 108-81-108h-59z" glyph-name="hcircumflex" horiz-adv-x="556" unicode="&#x125;"/><glyph d="M97 708h66v-111h396v111h66v-708h-66v336h-396v-336h-66v708zM559 396v153h-396v-153h396z" glyph-name="Hbar" horiz-adv-x="722" unicode="&#x126;"/><glyph d="M80 581h-72v53h72v122h60v-122h162v-53h-162v-200h2q18 38 60 65.5t98 27.5q54 0 88-17t53.5-44.5 27-63.5 7.5-74v-275h-60v272q0 28-5 54.5t-17.5 47.5-35 33.5-58.5 12.5q-33 0-62.5-11.5t-51-35-34-59-12.5-83.5v-231h-60v581z" glyph-name="hbar" horiz-adv-x="556" unicode="&#x127;"/><glyph d="M97 708h66v-708h-66v708zM-25 769q2 17 9 35.5t18 32.5q11 15 27 24.5t36 9.5 39-8 36-17q17-8 33-15.5t30-7.5q22 0 33 15t15 33h36q-2-18-8-36.5t-16.5-33-25.5-23.5-34-9q-20 0-38.5 8t-36.5 16-34.5 16-31.5 8q-23 0-34.5-15t-16.5-33h-36z" glyph-name="Itilde" horiz-adv-x="260" unicode="&#x128;"/><glyph d="M90 462h60v-462h-60v462zM-34 581q2 17 9 35.5t18 32.5q11 15 27 24.5t36 9.5 39-8 36-17q17-8 33-15.5t30-7.5q22 0 33 15t15 33h36q-2-18-8-36.5t-16.5-33-25-23.5-34.5-9-38.5 8-36.5 16-34.5 16-31.5 8q-23 0-34.5-15t-16.5-33h-36z" glyph-name="itilde" unicode="&#x129;"/><glyph d="M97 708h66v-708h-66v708zM261 799h-264v48h264v-48z" glyph-name="Imacron" horiz-adv-x="260" unicode="&#x12a;"/><glyph d="M90 462h60v-462h-60v462zM253 606h-264v48h264v-48z" glyph-name="imacron" unicode="&#x12b;"/><glyph d="M97 708h66v-708h-13q-11-8-23.5-21t-23.5-29-18.5-34-7.5-37q0-47 43-47 21 0 34.5 7.5t20.5 15.5l19-38q-16-14-36.5-23.5t-48.5-9.5q-40 0-66 22t-26 60q0 21 8 40t20.5 35.5 28.5 31.5 31 27h-8v708z" glyph-name="Iogonek" horiz-adv-x="260" unicode="&#x12e;"/><glyph d="M90 462h60v-462h-10q-11-8-23.5-21t-23.5-29-18.5-34-7.5-37q0-47 43-47 21 0 34.5 7.5t20.5 15.5l19-38q-16-14-36.5-23.5t-48.5-9.5q-40 0-66 22t-26 60q0 21 8 40t20.5 35.5 28.5 31.5 31 27h-5v462zM75 645q0 19 13 32t32 13 32-13 13-32-13-32-32-13-32 13-13 32z" glyph-name="iogonek" unicode="&#x12f;"/><glyph d="M97 708h66v-708h-66v708zM86 840q0 20 14 34t34 14 34-14 14-34-14-34-34-14-34 14-14 34z" glyph-name="Idotaccent" horiz-adv-x="260" unicode="&#x130;"/><glyph d="M90 462h60v-462h-60v462z" glyph-name="dotlessi" unicode="&#x131;"/><glyph d="M97 708h66v-708h-66v708zM611 208q0-32-4.5-71t-24-73.5-58-58-107.5-23.5q-78 0-123.5 39.5t-60.5 105.5l66 12q24-97 118-97 35 0 59.5 11.5t39.5 31.5 22 47.5 7 59.5v516h66v-500z" glyph-name="IJ" horiz-adv-x="708" unicode="&#x132;"/><glyph d="M90 462h60v-462h-60v462zM75 645q0 19 13 32t32 13 32-13 13-32-13-32-32-13-32 13-13 32zM365-81q0-36-5.5-65t-20.5-50-40.5-32.5-65.5-11.5q-24 0-48 9l9 53q21-8 38-8 24 0 38.5 8.5t22 22 10 31.5 2.5 38v548h60v-543zM290 645q0 19 13 32t32 13 32-13 13-32-13-32-32-13-32 13-13 32z" glyph-name="ij" horiz-adv-x="455" unicode="&#x133;"/><glyph d="M385 208q0-32-4.5-71t-24-73.5-58-58-107.5-23.5q-78 0-123.5 39.5t-60.5 105.5l66 12q24-97 118-97 35 0 59.5 11.5t39.5 31.5 22 47.5 7 59.5v516h66v-500zM315 896h70l108-144h-65l-81 108-81-108h-59z" glyph-name="Jcircumflex" horiz-adv-x="482" unicode="&#x134;"/><glyph d="M150-81q0-36-5.5-65t-20.5-50-40.5-32.5-65.5-11.5q-24 0-48 9l9 53q22-8 38-8 24 0 38.5 8.5t22 22 10 31.5 2.5 38v548h60v-543zM85 708h70l108-144h-65l-81 108-81-108h-59z" glyph-name="jcircumflex" unicode="&#x135;"/><glyph d="M97 708h66v-312h6l343 312h91l-358-324 378-384h-95l-359 366h-6v-366h-66v708zM311-66h65l-62-165h-53z" glyph-name="Kcommaaccent" horiz-adv-x="611" unicode="&#x136;"/><glyph d="M80 756h60v-504l228 209h88l-238-211 266-250h-91l-253 244v-244h-60v756zM211-66h65l-62-165h-53z" glyph-name="kcommaaccent" horiz-adv-x="481" unicode="&#x137;"/><glyph d="M97 708h66v-648h330v-60h-396v708zM176 896h80l-134-144h-50z" glyph-name="Lacute" horiz-adv-x="500" unicode="&#x139;"/><glyph d="M90 756h60v-756h-60v756zM174 936h80l-134-144h-50z" glyph-name="lacute" unicode="&#x13a;"/><glyph d="M97 708h66v-648h330v-60h-396v708zM270-66h65l-62-165h-53z" glyph-name="Lcommaaccent" horiz-adv-x="500" unicode="&#x13b;"/><glyph d="M90 756h60v-756h-60v756zM113-66h65l-62-165h-53z" glyph-name="lcommaaccent" unicode="&#x13c;"/><glyph d="M97 708h66v-648h330v-60h-396v708zM283 708h65l-63-185h-53z" glyph-name="Lcaron" horiz-adv-x="500" unicode="&#x13d;"/><glyph d="M90 756h60v-756h-60v756zM270 708h65l-63-185h-53z" glyph-name="lcaron" unicode="&#x13e;"/><glyph d="M97 708h66v-648h330v-60h-396v708zM338 345q0 20 14 34t34 14 34-14 14-34-14-34-34-14-34 14-14 34z" glyph-name="Ldot" horiz-adv-x="500" unicode="&#x13f;"/><glyph d="M90 756h60v-756h-60v756zM234 375q0 20 14 34t34 14 34-14 14-34-14-34-34-14-34 14-14 34z" glyph-name="ldot" horiz-adv-x="336" unicode="&#x140;"/><glyph d="M97 231l-72-64v65l72 63v413h66v-358l216 189v-62l-216-189v-228h330v-60h-396v231z" glyph-name="Lslash" horiz-adv-x="500" unicode="&#x141;"/><glyph d="M90 324l-84-85v67l84 85v365h60v-305l84 86v-67l-84-85v-385h-60v324z" glyph-name="lslash" unicode="&#x142;"/><glyph d="M97 708h85l431-620h2v620h66v-708h-85l-431 620h-2v-620h-66v708zM446 896h80l-134-144h-50z" glyph-name="Nacute" horiz-adv-x="778" unicode="&#x143;"/><glyph d="M80 332q0 13-1 31.5t-1.5 37.5-1.5 35.5-1 25.5h60q1-26 1.5-50t2.5-31h3q18 38 60 65.5t98 27.5q54 0 88-17t53.5-44.5 27-63.5 7.5-74v-275h-60v272q0 28-5 54.5t-17.5 47.5-35 33.5-58.5 12.5q-33 0-62.5-11.5t-51-35-34-59-12.5-83.5v-231h-60v332zM312 708h80l-134-144h-50z" glyph-name="nacute" horiz-adv-x="556" unicode="&#x144;"/><glyph d="M97 708h85l431-620h2v620h66v-708h-85l-431 620h-2v-620h-66v708zM363-66h65l-62-165h-53z" glyph-name="Ncommaaccent" horiz-adv-x="778" unicode="&#x145;"/><glyph d="M80 332q0 13-1 31.5t-1.5 37.5-1.5 35.5-1 25.5h60q1-26 1.5-50t2.5-31h3q18 38 60 65.5t98 27.5q54 0 88-17t53.5-44.5 27-63.5 7.5-74v-275h-60v272q0 28-5 54.5t-17.5 47.5-35 33.5-58.5 12.5q-33 0-62.5-11.5t-51-35-34-59-12.5-83.5v-231h-60v332zM255-66h65l-62-165h-53z" glyph-name="ncommaaccent" horiz-adv-x="556" unicode="&#x146;"/><glyph d="M97 708h85l431-620h2v620h66v-708h-85l-431 620h-2v-620h-66v708zM425 752h-70l-109 144h62l83-114 86 114h54z" glyph-name="Ncaron" horiz-adv-x="778" unicode="&#x147;"/><glyph d="M80 332q0 13-1 31.5t-1.5 37.5-1.5 35.5-1 25.5h60q1-26 1.5-50t2.5-31h3q18 38 60 65.5t98 27.5q54 0 88-17t53.5-44.5 27-63.5 7.5-74v-275h-60v272q0 28-5 54.5t-17.5 47.5-35 33.5-58.5 12.5q-33 0-62.5-11.5t-51-35-34-59-12.5-83.5v-231h-60v332zM318 564h-70l-109 144h62l83-114 86 114h54z" glyph-name="ncaron" horiz-adv-x="556" unicode="&#x148;"/><glyph d="M80 332q0 13-1 31.5t-1.5 37.5-1.5 35.5-1 25.5h60q1-26 1.5-50t2.5-31h3q18 38 60 65.5t98 27.5q54 0 88-17t53.5-44.5 27-63.5 7.5-74v-275h-60v272q0 28-5 54.5t-17.5 47.5-35 33.5-58.5 12.5q-33 0-62.5-11.5t-51-35-34-59-12.5-83.5v-231h-60v332zM65 708h65l-63-185h-53z" glyph-name="napostrophe" horiz-adv-x="556" unicode="&#x149;"/><glyph d="M51 354q0 81 27 149t75 117.5 115.5 77.5 148.5 28 148.5-28 115.5-77.5 75-117.5 27-149-27-149.5-75-118-115.5-77-148.5-27.5-148.5 27.5-115.5 77-75 118-27 149.5zM117 354q0-66 21-123t60-99 94.5-66 124.5-24 124.5 24 94.5 66 60 99 21 123-21 123-60 99-94.5 66-124.5 24-124.5-24-94.5-66-60-99-21-123zM550 799h-264v48h264v-48z" glyph-name="Omacron" horiz-adv-x="834" unicode="&#x14c;"/><glyph d="M54 231q0 53 18 97.5t50 77 77 50.5 98 18 97.5-18 77-50.5 50.5-77 18-97.5-18-97.5-50.5-77-77-50.5-97.5-18-98 18-77 50.5-50 77-18 97.5zM114 231q0-39 12.5-73.5t36.5-60 58-40.5 76-15 76 15 58 40.5 36.5 60 12.5 73.5-12.5 73.5-36.5 60-58 40.5-76 15-76-15-58-40.5-36.5-60-12.5-73.5zM430 606h-264v48h264v-48z" glyph-name="omacron" horiz-adv-x="594" unicode="&#x14d;"/><glyph d="M51 354q0 81 27 149t75 117.5 115.5 77.5 148.5 28 148.5-28 115.5-77.5 75-117.5 27-149-27-149.5-75-118-115.5-77-148.5-27.5-148.5 27.5-115.5 77-75 118-27 149.5zM117 354q0-66 21-123t60-99 94.5-66 124.5-24 124.5 24 94.5 66 60 99 21 123-21 123-60 99-94.5 66-124.5 24-124.5-24-94.5-66-60-99-21-123zM316 881q6-40 33.5-59t66.5-19q45 0 69.5 16.5t34.5 61.5h42q-7-60-46.5-93t-99.5-33-99.5 33-42.5 93h42z" glyph-name="Obreve" horiz-adv-x="834" unicode="&#x14e;"/><glyph d="M54 231q0 53 18 97.5t50 77 77 50.5 98 18 97.5-18 77-50.5 50.5-77 18-97.5-18-97.5-50.5-77-77-50.5-97.5-18-98 18-77 50.5-50 77-18 97.5zM114 231q0-39 12.5-73.5t36.5-60 58-40.5 76-15 76 15 58 40.5 36.5 60 12.5 73.5-12.5 73.5-36.5 60-58 40.5-76 15-76-15-58-40.5-36.5-60-12.5-73.5zM196 708q6-40 33.5-59t66.5-19q45 0 69.5 17t34.5 61h42q-7-60-46.5-93t-99.5-33q-59 0-99 33t-43 93h42z" glyph-name="obreve" horiz-adv-x="594" unicode="&#x14f;"/><glyph d="M51 354q0 81 27 149t75 117.5 115.5 77.5 148.5 28 148.5-28 115.5-77.5 75-117.5 27-149-27-149.5-75-118-115.5-77-148.5-27.5-148.5 27.5-115.5 77-75 118-27 149.5zM117 354q0-66 21-123t60-99 94.5-66 124.5-24 124.5 24 94.5 66 60 99 21 123-21 123-60 99-94.5 66-124.5 24-124.5-24-94.5-66-60-99-21-123zM412 896h80l-134-144h-50zM558 896h80l-134-144h-50z" glyph-name="Ohungarumlaut" horiz-adv-x="834" unicode="&#x150;"/><glyph d="M54 231q0 53 18 97.5t50 77 77 50.5 98 18 97.5-18 77-50.5 50.5-77 18-97.5-18-97.5-50.5-77-77-50.5-97.5-18-98 18-77 50.5-50 77-18 97.5zM114 231q0-39 12.5-73.5t36.5-60 58-40.5 76-15 76 15 58 40.5 36.5 60 12.5 73.5-12.5 73.5-36.5 60-58 40.5-76 15-76-15-58-40.5-36.5-60-12.5-73.5zM295 708h80l-134-144h-50zM441 708h80l-134-144h-50z" glyph-name="ohungarumlaut" horiz-adv-x="594" unicode="&#x151;"/><glyph d="M163 396h140q52 0 84.5 13t50.5 32 24.5 41 6.5 40-6.5 40-24.5 41-50.5 32-84.5 13h-140v-252zM97 708h186q14 0 38-1t52-6 57-16 52-32 38-53 15-78q0-51-17.5-84t-44-53.5-58.5-30.5-61-14l206-340h-75l-199 336h-123v-336h-66v708zM332 896h80l-134-144h-50z" glyph-name="Racute" horiz-adv-x="593" unicode="&#x154;"/><glyph d="M80 332q0 13-1 31.5t-1.5 37.5-1.5 35.5-1 25.5h60q1-26 1.5-50t2.5-31q23 41 59 67t88 26q9 0 17.5-1.5t17.5-3.5l-7-59q-12 4-23 4-39 0-67.5-12.5t-47-34.5-27.5-51.5-9-63.5v-252h-60v332zM233 708h80l-134-144h-50z" glyph-name="racute" horiz-adv-x="333" unicode="&#x155;"/><glyph d="M163 396h140q52 0 84.5 13t50.5 32 24.5 41 6.5 40-6.5 40-24.5 41-50.5 32-84.5 13h-140v-252zM97 708h186q14 0 38-1t52-6 57-16 52-32 38-53 15-78q0-51-17.5-84t-44-53.5-58.5-30.5-61-14l206-340h-75l-199 336h-123v-336h-66v708zM269-66h65l-62-165h-53z" glyph-name="Rcommaaccent" horiz-adv-x="593" unicode="&#x156;"/><glyph d="M80 332q0 13-1 31.5t-1.5 37.5-1.5 35.5-1 25.5h60q1-26 1.5-50t2.5-31q23 41 59 67t88 26q9 0 17.5-1.5t17.5-3.5l-7-59q-12 4-23 4-39 0-67.5-12.5t-47-34.5-27.5-51.5-9-63.5v-252h-60v332zM128-66h65l-62-165h-53z" glyph-name="rcommaaccent" horiz-adv-x="333" unicode="&#x157;"/><glyph d="M163 396h140q52 0 84.5 13t50.5 32 24.5 41 6.5 40-6.5 40-24.5 41-50.5 32-84.5 13h-140v-252zM97 708h186q14 0 38-1t52-6 57-16 52-32 38-53 15-78q0-51-17.5-84t-44-53.5-58.5-30.5-61-14l206-340h-75l-199 336h-123v-336h-66v708zM329 752h-70l-109 144h62l83-114 86 114h54z" glyph-name="Rcaron" horiz-adv-x="593" unicode="&#x158;"/><glyph d="M80 332q0 13-1 31.5t-1.5 37.5-1.5 35.5-1 25.5h60q1-26 1.5-50t2.5-31q23 41 59 67t88 26q9 0 17.5-1.5t17.5-3.5l-7-59q-12 4-23 4-39 0-67.5-12.5t-47-34.5-27.5-51.5-9-63.5v-252h-60v332zM222 564h-70l-109 144h62l83-114 86 114h54z" glyph-name="rcaron" horiz-adv-x="333" unicode="&#x159;"/><glyph d="M116 131q26-45 67.5-67t94.5-22q33 0 62 10t50.5 28 34 43.5 12.5 57.5q0 37-15.5 61t-41.5 39.5-58.5 26.5-67 22-67 25-58.5 36.5-41.5 56.5-15.5 84q0 47 18.5 83.5t50 61 72.5 37 86 12.5q58 0 107.5-20.5t85.5-68.5l-57-41q-25 35-58.5 52.5t-79.5 17.5q-32 0-61-8.5t-50.5-25-34.5-41.5-13-59q0-53 27-81.5t67.5-45 88-29 88-33.5 67.5-58.5 27-103.5q0-48-18-85t-48.5-62.5-70.5-38.5-83-13q-70 0-129 24.5t-101 82.5zM342 896h80l-134-144h-50z" glyph-name="Sacute" horiz-adv-x="556" unicode="&#x15a;"/><glyph d="M81 118q19-37 56-56.5t78-19.5q19 0 38 6t34 17 24.5 26.5 9.5 35.5q0 32-20.5 48t-50.5 25-66 15.5-66 20-50.5 37.5-20.5 68q0 34 14 59t36.5 41.5 50.5 24.5 57 8q57 0 98.5-21t64.5-66l-54-32q-17 32-42.5 48.5t-66.5 16.5q-16 0-33.5-5t-31.5-14-23.5-23-9.5-32q0-31 20.5-46t50.5-23.5 66-14.5 66-19.5 50.5-39 20.5-72.5q0-36-13.5-62.5t-37-44.5-53.5-27-63-9q-60 0-109.5 23t-76.5 71zM266 708h80l-134-144h-50z" glyph-name="sacute" horiz-adv-x="426" unicode="&#x15b;"/><glyph d="M116 131q26-45 67.5-67t94.5-22q33 0 62 10t50.5 28 34 43.5 12.5 57.5q0 37-15.5 61t-41.5 39.5-58.5 26.5-67 22-67 25-58.5 36.5-41.5 56.5-15.5 84q0 47 18.5 83.5t50 61 72.5 37 86 12.5q58 0 107.5-20.5t85.5-68.5l-57-41q-25 35-58.5 52.5t-79.5 17.5q-32 0-61-8.5t-50.5-25-34.5-41.5-13-59q0-53 27-81.5t67.5-45 88-29 88-33.5 67.5-58.5 27-103.5q0-48-18-85t-48.5-62.5-70.5-38.5-83-13q-70 0-129 24.5t-101 82.5zM263 896h70l108-144h-65l-81 108-81-108h-59z" glyph-name="Scircumflex" horiz-adv-x="556" unicode="&#x15c;"/><glyph d="M81 118q19-37 56-56.5t78-19.5q19 0 38 6t34 17 24.5 26.5 9.5 35.5q0 32-20.5 48t-50.5 25-66 15.5-66 20-50.5 37.5-20.5 68q0 34 14 59t36.5 41.5 50.5 24.5 57 8q57 0 98.5-21t64.5-66l-54-32q-17 32-42.5 48.5t-66.5 16.5q-16 0-33.5-5t-31.5-14-23.5-23-9.5-32q0-31 20.5-46t50.5-23.5 66-14.5 66-19.5 50.5-39 20.5-72.5q0-36-13.5-62.5t-37-44.5-53.5-27-63-9q-60 0-109.5 23t-76.5 71zM182 708h70l108-144h-65l-81 108-81-108h-59z" glyph-name="scircumflex" horiz-adv-x="426" unicode="&#x15d;"/><glyph d="M116 131q26-45 67-67t95-22q33 0 62 10t50.5 28 34 43.5 12.5 57.5q0 37-15.5 61t-41.5 39.5-58.5 26.5-67 22-67 25-58.5 36.5-41.5 56.5-15.5 84q0 47 18.5 83.5t50 61 72.5 37 86 12.5q58 0 107.5-20.5t85.5-68.5l-57-41q-49 70-138 70-32 0-61-8.5t-50.5-25-34.5-41.5-13-59q0-53 27-81.5t67.5-45 88-29 88-33.5 67.5-58.5 27-103.5q0-46-17-82t-45.5-61-66-39-77.5-16l-34-47 2-2q13 7 31 7 32 0 57.5-18t25.5-54q0-23-10-39t-26.5-26-36.5-15-39-5q-50 0-95 21l14 32q34-17 76-17 10 0 21 2.5t20.5 7.5 15.5 13 6 20q0 23-18 32.5t-38 9.5q-22 0-44-8l-16 15 50 71q-63 4-115.5 28t-90.5 78z" glyph-name="Scedilla" horiz-adv-x="556" unicode="&#x15e;"/><glyph d="M81 118q19-37 55.5-56.5t78.5-19.5q19 0 38 6t34 17 24.5 26.5 9.5 35.5q0 32-20.5 48t-50.5 25-66 15.5-66 20-50.5 37.5-20.5 68q0 34 14 59t36.5 41.5 50.5 24.5 57 8q57 0 98.5-21t64.5-66l-54-32q-17 32-42 48.5t-67 16.5q-16 0-33.5-5t-31.5-14-23.5-23-9.5-32q0-31 20.5-46t50.5-23.5 66-14.5 66-19.5 50.5-39 20.5-72.5q0-33-12-58.5t-32.5-43.5-47.5-28-57-12l-39-53 2-2q13 7 31 7 32 0 57.5-18t25.5-54q0-23-10-39t-26.5-26-36.5-15-39-5q-50 0-95 21l14 32q34-17 76-17 10 0 21 2.5t20.5 7.5 15.5 13 6 20q0 23-18 32.5t-38 9.5q-22 0-44-8l-16 15 55 77q-54 3-97.5 25.5t-68.5 67.5z" glyph-name="scedilla" horiz-adv-x="426" unicode="&#x15f;"/><glyph d="M254 648h-242v60h550v-60h-242v-648h-66v648zM259-66h65l-62-165h-53z" glyph-name="Tcommaaccent" horiz-adv-x="574" unicode="&#x162;"/><glyph d="M306 408h-132v-301q0-31 17-48t47-17q17 0 34.5 4.5t33.5 11.5l5-54q-17-6-39-11t-39-5q-32 0-55 9.5t-37 25.5-20.5 37.5-6.5 46.5v301h-100v54h100v133h60v-133h132v-54zM158-66h65l-62-165h-53z" glyph-name="tcommaaccent" horiz-adv-x="333" unicode="&#x163;"/><glyph d="M254 648h-242v60h550v-60h-242v-648h-66v648zM324 752h-70l-109 144h62l83-114 86 114h54z" glyph-name="Tcaron" horiz-adv-x="574" unicode="&#x164;"/><glyph d="M306 408h-132v-301q0-31 17-48t47-17q17 0 34.5 4.5t33.5 11.5l5-54q-17-6-39-11t-39-5q-32 0-55 9.5t-37 25.5-20.5 37.5-6.5 46.5v301h-100v54h100v133h60v-133h132v-54zM278 708h65l-63-185h-53z" glyph-name="tcaron" horiz-adv-x="333" unicode="&#x165;"/><glyph d="M470 414h-150v-414h-66v414h-148v48h148v186h-242v60h550v-60h-242v-186h150v-48z" glyph-name="Tbar" horiz-adv-x="574" unicode="&#x166;"/><glyph d="M291 277h-117v-170q0-31 17-48t47-17q17 0 34.5 4.5t33.5 11.5l5-54q-17-6-39-11t-39-5q-32 0-55 9.5t-37 25.5-20.5 37.5-6.5 46.5v170h-87v48h87v83h-100v54h100v133h60v-133h132v-54h-132v-83h117v-48z" glyph-name="tbar" horiz-adv-x="333" unicode="&#x167;"/><glyph d="M600 271q0-57-13-109t-43.5-92-80-64-121.5-24-121.5 24-80 64-43.5 92-13 109v437h66v-420q0-38 7-81t27.5-80 58-61 99.5-24 99.5 24 58 61 27.5 80 7 81v420h66v-437zM187 769q2 17 9 35.5t18 32.5q11 15 27 24.5t36 9.5 39-8 36-17q17-8 33-15.5t30-7.5q22 0 33 15t15 33h36q-2-18-8-36.5t-16.5-33-25.5-23.5-34-9q-20 0-38.5 8t-36.5 16-34.5 16-31.5 8q-23 0-34.5-15t-16.5-33h-36z" glyph-name="Utilde" horiz-adv-x="684" unicode="&#x168;"/><glyph d="M471 130q0-13 1-31.5t1.5-37.5 1.5-35.5 1-25.5h-60q-1 26-1.5 50t-2.5 31h-3q-18-38-60-65.5t-98-27.5q-54 0-88.5 17t-54 44.5-26.5 63.5-7 74v275h60v-272q0-28 5-54.5t17.5-47.5 35-33.5 58.5-12.5q33 0 62.5 11.5t51 35 34 59 12.5 83.5v231h60v-332zM121 581q2 17 9 35.5t18 32.5q11 15 27 24.5t36 9.5 39-8 36-17q17-8 33-15.5t30-7.5q22 0 33 15t15 33h36q-2-18-8-36.5t-16.5-33-25-23.5-34.5-9-38.5 8-36.5 16-34.5 16-31.5 8q-23 0-34.5-15t-16.5-33h-36z" glyph-name="utilde" horiz-adv-x="556" unicode="&#x169;"/><glyph d="M600 271q0-57-13-109t-43.5-92-80-64-121.5-24-121.5 24-80 64-43.5 92-13 109v437h66v-420q0-38 7-81t27.5-80 58-61 99.5-24 99.5 24 58 61 27.5 80 7 81v420h66v-437zM475 799h-264v48h264v-48z" glyph-name="Umacron" horiz-adv-x="684" unicode="&#x16a;"/><glyph d="M471 130q0-13 1-31.5t1.5-37.5 1.5-35.5 1-25.5h-60q-1 26-1.5 50t-2.5 31h-3q-18-38-60-65.5t-98-27.5q-54 0-88.5 17t-54 44.5-26.5 63.5-7 74v275h60v-272q0-28 5-54.5t17.5-47.5 35-33.5 58.5-12.5q33 0 62.5 11.5t51 35 34 59 12.5 83.5v231h60v-332zM409 606h-264v48h264v-48z" glyph-name="umacron" horiz-adv-x="556" unicode="&#x16b;"/><glyph d="M600 271q0-57-13-109t-43.5-92-80-64-121.5-24-121.5 24-80 64-43.5 92-13 109v437h66v-420q0-38 7-81t27.5-80 58-61 99.5-24 99.5 24 58 61 27.5 80 7 81v420h66v-437zM241 881q6-40 33.5-59t66.5-19q45 0 69.5 16.5t34.5 61.5h42q-7-60-46.5-93t-99.5-33-99.5 33-42.5 93h42z" glyph-name="Ubreve" horiz-adv-x="684" unicode="&#x16c;"/><glyph d="M471 130q0-13 1-31.5t1.5-37.5 1.5-35.5 1-25.5h-60q-1 26-1.5 50t-2.5 31h-3q-18-38-60-65.5t-98-27.5q-54 0-88.5 17t-54 44.5-26.5 63.5-7 74v275h60v-272q0-28 5-54.5t17.5-47.5 35-33.5 58.5-12.5q33 0 62.5 11.5t51 35 34 59 12.5 83.5v231h60v-332zM175 708q6-40 33.5-59t66.5-19q45 0 69.5 17t34.5 61h42q-7-60-46.5-93t-99.5-33q-59 0-99 33t-43 93h42z" glyph-name="ubreve" horiz-adv-x="556" unicode="&#x16d;"/><glyph d="M600 271q0-57-13-109t-43.5-92-80-64-121.5-24-121.5 24-80 64-43.5 92-13 109v437h66v-420q0-38 7-81t27.5-80 58-61 99.5-24 99.5 24 58 61 27.5 80 7 81v420h66v-437zM250 837q0 19 7.5 36.5t20 30.5 29.5 20.5 37 7.5q19 0 36-8t29.5-21.5 19.5-30.5 7-36q0-18-7-35t-19.5-30-29.5-21-36-8q-20 0-37 7.5t-29.5 20.5-20 30-7.5 37zM400 837q0 25-16 42t-41 17-41-17.5-16-42.5 16.5-41.5 40.5-16.5q25 0 41 17t16 42z" glyph-name="Uring" horiz-adv-x="684" unicode="&#x16e;"/><glyph d="M471 130q0-13 1-31.5t1.5-37.5 1.5-35.5 1-25.5h-60q-1 26-1.5 50t-2.5 31h-3q-18-38-60-65.5t-98-27.5q-54 0-88.5 17t-54 44.5-26.5 63.5-7 74v275h60v-272q0-28 5-54.5t17.5-47.5 35-33.5 58.5-12.5q33 0 62.5 11.5t51 35 34 59 12.5 83.5v231h60v-332zM184 649q0 19 7.5 36.5t20 30.5 29.5 20.5 37 7.5q19 0 36-8t29.5-21.5 19.5-30.5 7-36q0-18-7-35t-19.5-30-29.5-21-36-8q-20 0-37 7.5t-29.5 20.5-20 30.5-7.5 36.5zM334 649q0 25-16 42t-41 17-41-17.5-16-42.5 16.5-41.5 40.5-16.5q25 0 41 17t16 42z" glyph-name="uring" horiz-adv-x="556" unicode="&#x16f;"/><glyph d="M600 271q0-57-13-109t-43.5-92-80-64-121.5-24-121.5 24-80 64-43.5 92-13 109v437h66v-420q0-38 7-81t27.5-80 58-61 99.5-24 99.5 24 58 61 27.5 80 7 81v420h66v-437zM326 896h80l-134-144h-50zM472 896h80l-134-144h-50z" glyph-name="Uhungarumlaut" horiz-adv-x="684" unicode="&#x170;"/><glyph d="M471 130q0-13 1-31.5t1.5-37.5 1.5-35.5 1-25.5h-60q-1 26-1.5 50t-2.5 31h-3q-18-38-60-65.5t-98-27.5q-54 0-88.5 17t-54 44.5-26.5 63.5-7 74v275h60v-272q0-28 5-54.5t17.5-47.5 35-33.5 58.5-12.5q33 0 62.5 11.5t51 35 34 59 12.5 83.5v231h60v-332zM260 708h80l-134-144h-50zM406 708h80l-134-144h-50z" glyph-name="uhungarumlaut" horiz-adv-x="556" unicode="&#x171;"/><glyph d="M442-183q-16-14-36.5-23.5t-48.5-9.5q-40 0-66 22t-26 60q0 35 20 64.5t46 52.5q-69 2-116 26.5t-76.5 64-42 90.5-12.5 107v437h66v-420q0-38 7-81t27.5-80 58-61 99.5-24q61 0 99 24t58.5 61 27.5 80 7 81v420h66v-437q0-53-11.5-102t-37.5-88-68.5-65-103.5-32q-20-19-37-46.5t-17-58.5q0-47 43-47 21 0 34.5 7.5t20.5 15.5z" glyph-name="Uogonek" horiz-adv-x="684" unicode="&#x172;"/><glyph d="M505-183q-16-14-36.5-23.5t-48.5-9.5q-40 0-66 22t-26 60q0 21 8 40t20.5 35.5 28.5 31.5 31 27q-1 26-1.5 50t-2.5 31h-3q-18-38-60-65.5t-98-27.5q-54 0-88.5 17t-54 44.5-26.5 63.5-7 74v275h60v-272q0-28 5-54.5t17.5-47.5 35-33.5 58.5-12.5q33 0 62.5 11.5t51 35 34 59 12.5 83.5v231h60v-332q0-13 1-31.5t1.5-37.5 1.5-35.5 1-25.5h-15q-11-8-23.5-21t-23.5-29-18.5-34-7.5-37q0-47 43-47 21 0 34.5 7.5t20.5 15.5z" glyph-name="uogonek" horiz-adv-x="556" unicode="&#x173;"/><glyph d="M5 708h68l176-627h2l179 627h84l179-627h2l176 627h68l-206-708h-81l-179 630h-2l-179-630h-81zM437 896h70l108-144h-65l-81 108-81-108h-59z" glyph-name="Wcircumflex" horiz-adv-x="944" unicode="&#x174;"/><glyph d="M15 462h66l112-387h2l129 387h57l137-387h2l109 387h60l-136-462h-62l-138 378h-2l-129-378h-62zM318 708h70l108-144h-65l-81 108-81-108h-59z" glyph-name="wcircumflex" horiz-adv-x="704" unicode="&#x175;"/><glyph d="M254 305l-260 403h79l214-336 219 336h74l-260-403v-305h-66v305zM252 896h70l108-144h-65l-81 108-81-108h-59z" glyph-name="Ycircumflex" horiz-adv-x="574" unicode="&#x176;"/><glyph d="M210-143q-17-45-47-71t-80-26q-15 0-30 2.5t-29 6.5l6 56q13-4 26.5-7.5t27.5-3.5q16 0 28.5 7t21.5 18 15.5 24.5 11.5 27.5l42 107-188 464h67l153-389 149 389h64zM202 708h70l108-144h-65l-81 108-81-108h-59z" glyph-name="ycircumflex" horiz-adv-x="463" unicode="&#x177;"/><glyph d="M23 52l414 596h-408v60h493v-54l-417-594h428v-60h-510v52zM329 896h80l-134-144h-50z" glyph-name="Zacute" horiz-adv-x="556" unicode="&#x179;"/><glyph d="M27 36l277 372h-263v54h346v-36l-276-372h288v-54h-372v36zM266 708h80l-134-144h-50z" glyph-name="zacute" horiz-adv-x="426" unicode="&#x17a;"/><glyph d="M23 52l414 596h-408v60h493v-54l-417-594h428v-60h-510v52zM246 840q0 20 14 34t34 14 34-14 14-34-14-34-34-14-34 14-14 34z" glyph-name="Zdotaccent" horiz-adv-x="556" unicode="&#x17b;"/><glyph d="M27 36l277 372h-263v54h346v-36l-276-372h288v-54h-372v36zM184 652q0 20 14 34t34 14 34-14 14-34-14-34-34-14-34 14-14 34z" glyph-name="zdotaccent" horiz-adv-x="426" unicode="&#x17c;"/><glyph d="M116 131q26-45 67.5-67t94.5-22q33 0 62 10t50.5 28 34 43.5 12.5 57.5q0 37-15.5 61t-41.5 39.5-58.5 26.5-67 22-67 25-58.5 36.5-41.5 56.5-15.5 84q0 47 18.5 83.5t50 61 72.5 37 86 12.5q58 0 107.5-20.5t85.5-68.5l-57-41q-25 35-58.5 52.5t-79.5 17.5q-32 0-61-8.5t-50.5-25-34.5-41.5-13-59q0-53 27-81.5t67.5-45 88-29 88-33.5 67.5-58.5 27-103.5q0-48-18-85t-48.5-62.5-70.5-38.5-83-13q-70 0-129 24.5t-101 82.5zM254-66h65l-62-165h-53z" glyph-name="Scommaaccent" horiz-adv-x="556" unicode="&#x218;"/><glyph d="M81 118q19-37 56-56.5t78-19.5q19 0 38 6t34 17 24.5 26.5 9.5 35.5q0 32-20.5 48t-50.5 25-66 15.5-66 20-50.5 37.5-20.5 68q0 34 14 59t36.5 41.5 50.5 24.5 57 8q57 0 98.5-21t64.5-66l-54-32q-17 32-42.5 48.5t-66.5 16.5q-16 0-33.5-5t-31.5-14-23.5-23-9.5-32q0-31 20.5-46t50.5-23.5 66-14.5 66-19.5 50.5-39 20.5-72.5q0-36-13.5-62.5t-37-44.5-53.5-27-63-9q-60 0-109.5 23t-76.5 71zM192-66h65l-62-165h-53z" glyph-name="scommaaccent" horiz-adv-x="426" unicode="&#x219;"/><glyph d="M254 648h-242v60h550v-60h-242v-648h-66v648zM259-66h65l-62-165h-53z" glyph-name="uni021A" horiz-adv-x="574" unicode="&#x21a;"/><glyph d="M306 408h-132v-301q0-31 17-48t47-17q17 0 34.5 4.5t33.5 11.5l5-54q-17-6-39-11t-39-5q-32 0-55 9.5t-37 25.5-20.5 37.5-6.5 46.5v301h-100v54h100v133h60v-133h132v-54zM158-66h65l-62-165h-53z" glyph-name="uni021B" horiz-adv-x="333" unicode="&#x21b;"/><glyph d="M150-81q0-36-5.5-65t-20.5-50-40.5-32.5-65.5-11.5q-24 0-48 9l9 53q22-8 38-8 24 0 38.5 8.5t22 22 10 31.5 2.5 38v548h60v-543z" glyph-name="dotlessj" unicode="&#x237;"/><glyph d="M153 564h-70l-109 144h62l83-114 86 114h54z" glyph-name="caron" unicode="&#x2c7;"/><glyph d="M252 606h-264v48h264v-48z" glyph-name="uni02C9" unicode="&#x2c9;"/><glyph d="M18 708q6-40 33.5-59t66.5-19q45 0 69.5 17t34.5 61h42q-7-60-46.5-93t-99.5-33q-59 0-99 33t-43 93h42z" glyph-name="breve" unicode="&#x2d8;"/><glyph d="M75 652q0 20 14 34t34 14 34-14 14-34-14-34-34-14-34 14-14 34z" glyph-name="dotaccent" unicode="&#x2d9;"/><glyph d="M27 649q0 19 7.5 36.5t20 30.5 29.5 20.5 37 7.5q19 0 36-8t29.5-21.5 19.5-30.5 7-36q0-18-7-35t-19.5-30-29.5-21-36-8q-20 0-37 7.5t-29.5 20.5-20 30.5-7.5 36.5zM177 649q0 25-16 42t-41 17-41-17.5-16-42.5 16.5-41.5 40.5-16.5q25 0 41 17t16 42z" glyph-name="ring" unicode="&#x2da;"/><glyph d="M187-183q-16-14-36.5-23.5t-48.5-9.5q-40 0-66 22t-26 60q0 21 8 40t20.5 36 28.5 31.5 31 26.5h45q-11-8-23.5-21t-23.5-28.5-18.5-34-7.5-37.5q0-47 43-47 21 0 34.5 7.5t20.5 15.5z" glyph-name="ogonek" unicode="&#x2db;"/></font>
</defs>
</svg>
