<svg fill="none" height="105" viewBox="0 0 580 105" width="580" xmlns="http://www.w3.org/2000/svg"><g stroke-miterlimit="10" stroke-width="5"><path d="m27.236 100c-32.31467 0-32.31467-32.3333 0-32.3333 32.3147 0 32.3147-32.3334 0-32.3334-32.31467 0-32.31467-32.3333 0-32.3333h64.764" stroke="#3a9a7e"/><path d="m172.125 100c34.246-1.1375 32.597-46.6375-1.649-45.5-34.247 1.1375-35.769-44.2361-1.649-45.5" stroke="#fa072f"/><path d="m253 99.6h53.2c13.5 0 25.9-7 31.6-18.1 7.6-14.6 2.8-34.4-12.6-45.5" stroke="#ecb743"/><path d="m410.122 68.5528c12.478.121 22.755-9.7994 22.877-21.5344.122-12.461-10.888-21.8974-22.877-22.0184-11.989 0-22.388 9.5574-23.122 21.7764v57.2236" stroke="#fa072f"/><path d="m293 28s-36 0-36 36" stroke="#3a9a7e"/><path d="m506.314 78.7808c-1-11.3-11.1-19.7-22-18.7-10.4.9-18.7 10.1-18.3 20.7.3 10.7 9.1 19.4002 19.9 19.7002 7.3-.2 14.6-.5002 21.8-.7002" stroke="#3c85b2"/><path d="m540 36.6c0-36.799997 37-36.799997 37 0v36.8c0 36.8-37 36.8-37 0v-18.2994" stroke="#3a9a7e"/><path d="m206 46c9.941 0 18-8.0589 18-18s-8.059-18-18-18-18 8.0589-18 18 8.059 18 18 18z" stroke="#e77621"/><path d="m81.1878 102.626c-12.5-9.7004-14.9-27.9004-5.3-40.4004 9.7-12.7 28.0002-14.8 40.5002-5.4 12.7 9.6 15.2 28.1 5.4 40.9" stroke="#0a95c8"/></g></svg>