<svg fill="none" height="230" viewBox="0 0 365 230" width="365" xmlns="http://www.w3.org/2000/svg"><g fill="#fff"><path d="m1.484 29v-2.968h2.576v-13.608h-2.576v-2.968h8.876v2.968h-2.604v13.608h2.604v2.968zm12.6518-19.544h9.044c.8027 0 1.5214.12133 2.156.364.6534.2427 1.204.5787 1.652 1.008s.784.9613 1.008 1.596c.2427.616.364 1.2973.364 2.044s-.1026 1.3813-.308 1.904c-.1866.504-.448.924-.784 1.26-.3173.336-.6906.588-1.12.756-.4106.168-.84.2613-1.288.28v.168c.4294 0 .8867.084 1.372.252.504.168.9614.4387 1.372.812.4294.3547.784.8213 1.064 1.4.28.56.42 1.26.42 2.1 0 .784-.1306 1.5213-.392 2.212-.2426.672-.588 1.26-1.036 1.764s-.98.9053-1.596 1.204c-.616.28-1.288.42-2.016.42h-9.912zm3.696 16.408h5.152c.7094 0 1.26-.1773 1.652-.532.392-.3733.588-.9053.588-1.596v-.952c0-.6907-.196-1.2227-.588-1.596s-.9426-.56-1.652-.56h-5.152zm0-8.26h4.564c.672 0 1.1947-.1773 1.568-.532.3734-.3733.56-.8867.56-1.54v-.868c0-.6533-.1866-1.1573-.56-1.512-.3733-.3733-.896-.56-1.568-.56h-4.564zm29.6265-2.632h-.112l-1.5121 3.108-4.0039 7.392-4.004-7.392-1.512-3.108h-.112v14.028h-3.5v-19.544h4.172l5.012 9.548h.112l4.956-9.548h4.004v19.544h-3.5zm14.7205 14.028v-19.544h8.792c.896 0 1.6987.14933 2.408.448.728.28 1.344.6907 1.848 1.232.504.5227.8867 1.1573 1.148 1.904s.392 1.568.392 2.464c0 .9147-.1307 1.7453-.392 2.492-.2613.728-.644 1.3627-1.148 1.904-.504.5227-1.12.9333-1.848 1.232-.7093.28-1.512.42-2.408.42h-5.096v7.448zm3.696-10.64h4.76c.7093 0 1.2693-.1867 1.68-.56.4107-.392.616-.9427.616-1.652v-1.288c0-.7093-.2053-1.2507-.616-1.624s-.9707-.56-1.68-.56h-4.76zm17.6015 10.64c-1.232 0-2.1373-.308-2.716-.924s-.868-1.484-.868-2.604v-17.192h3.584v17.864h1.932v2.856zm10.5545.336c-1.0827 0-2.0534-.1773-2.912-.532-.84-.3733-1.5587-.8867-2.156-1.54-.5787-.672-1.0267-1.4747-1.344-2.408-.3174-.952-.476-2.016-.476-3.192 0-1.1573.1493-2.2027.448-3.136.3173-.9333.7653-1.7267 1.344-2.38.5786-.672 1.288-1.1853 2.128-1.54.84-.3733 1.792-.56 2.856-.56 1.1386 0 2.128.196 2.968.588s1.5306.924 2.072 1.596c.5413.672.9426 1.456 1.2042 2.352.28.8773.42 1.82.42 2.828v1.176h-9.7162v.364c0 1.064.2986 1.9227.896 2.576.5973.6347 1.484.952 2.66.952.896 0 1.624-.1867 2.184-.56.5786-.3733 1.092-.8493 1.54-1.428l1.9322 2.156c-.5976.84-1.4189 1.5027-2.4642 1.988-1.0267.4667-2.2214.7-3.584.7zm-.056-12.6c-.952 0-1.708.3173-2.268.952s-.84 1.456-.84 2.464v.224h5.992v-.252c0-1.008-.252-1.82-.756-2.436-.4854-.6347-1.1947-.952-2.128-.952zm7.8112 12.264 4.984-7.42-4.872-7.196h4.088l3.024 4.844h.112l2.996-4.844h3.808l-4.956 7.252 4.984 7.364h-4.088l-3.08-5.04h-.112l-3.08 5.04zm29.688.336c-1.68 0-3.108-.2987-4.284-.896-1.158-.5973-2.156-1.3813-2.996-2.352l2.492-2.408c.672.784 1.418 1.3813 2.24 1.792.84.4107 1.764.616 2.772.616 1.138 0 1.997-.2427 2.576-.728.578-.504.868-1.176.868-2.016 0-.6533-.187-1.1853-.56-1.596-.374-.4107-1.074-.7093-2.1-.896l-1.848-.28c-3.902-.616-5.852-2.5107-5.852-5.684 0-.8773.158-1.6707.476-2.38.336-.7093.812-1.316 1.428-1.82s1.353-.88667 2.212-1.148c.877-.28 1.866-.42 2.968-.42 1.474 0 2.762.24267 3.864.728 1.101.4853 2.044 1.204 2.828 2.156l-2.52 2.38c-.486-.5973-1.074-1.0827-1.764-1.456-.691-.3733-1.559-.56-2.604-.56-1.064 0-1.867.2053-2.408.616-.523.392-.784.952-.784 1.68 0 .7467.214 1.2973.644 1.652.429.3547 1.12.616 2.072.784l1.82.336c1.978.3547 3.434.9893 4.368 1.904.952.896 1.428 2.156 1.428 3.78 0 .9333-.168 1.7827-.504 2.548-.318.7467-.794 1.4-1.428 1.96-.616.5413-1.382.9613-2.296 1.26-.896.2987-1.932.448-3.108.448zm21.569-.336c-.784 0-1.41-.224-1.876-.672-.448-.4667-.728-1.0827-.84-1.848h-.168c-.243.952-.738 1.6707-1.484 2.156-.747.4667-1.671.7-2.772.7-1.494 0-2.642-.392-3.444-1.176-.803-.784-1.204-1.8293-1.204-3.136 0-1.512.541-2.632 1.624-3.36 1.082-.7467 2.622-1.12 4.62-1.12h2.492v-1.064c0-.8213-.215-1.456-.644-1.904-.43-.448-1.12-.672-2.072-.672-.84 0-1.522.1867-2.044.56-.504.3547-.934.784-1.288 1.288l-2.128-1.904c.541-.84 1.26-1.512 2.156-2.016.896-.5227 2.081-.784 3.556-.784 1.978 0 3.481.448 4.508 1.344 1.026.896 1.54 2.184 1.54 3.864v6.888h1.456v2.856zm-5.936-2.268c.802 0 1.484-.1773 2.044-.532s.84-.8773.84-1.568v-1.932h-2.296c-1.867 0-2.8.5973-2.8 1.792v.476c0 .5973.186 1.0453.56 1.344.392.28.942.42 1.652.42zm10.824 2.268v-14.616h3.584v2.436h.14c.299-.784.766-1.4373 1.4-1.96.654-.5413 1.55-.812 2.688-.812 1.512 0 2.67.4947 3.472 1.484.803.9893 1.204 2.3987 1.204 4.228v9.24h-3.584v-8.876c0-1.0453-.186-1.8293-.56-2.352-.373-.5227-.989-.784-1.848-.784-.373 0-.737.056-1.092.168-.336.0933-.644.2427-.924.448-.261.1867-.476.4293-.644.728-.168.28-.252.616-.252 1.008v9.66zm21.249.336c-1.4 0-2.576-.2333-3.528-.7-.952-.4853-1.792-1.148-2.52-1.988l2.184-2.128c.542.616 1.13 1.1013 1.764 1.456.654.3547 1.4.532 2.24.532.859 0 1.475-.1493 1.848-.448.392-.2987.588-.7093.588-1.232 0-.4293-.14-.7653-.42-1.008-.261-.2613-.718-.4387-1.372-.532l-1.456-.196c-1.586-.2053-2.8-.6533-3.64-1.344-.821-.7093-1.232-1.736-1.232-3.08 0-.7093.131-1.344.392-1.904.262-.5787.635-1.064 1.12-1.456.486-.4107 1.064-.7187 1.736-.924.691-.224 1.456-.336 2.296-.336.71 0 1.335.056 1.876.168.56.0933 1.064.2427 1.512.448.448.1867.859.4293 1.232.728.374.28.738.5973 1.092.952l-2.1 2.1c-.429-.448-.942-.8213-1.54-1.12-.597-.2987-1.25-.448-1.96-.448-.784 0-1.353.14-1.708.42-.336.28-.504.644-.504 1.092 0 .4853.14.8587.42 1.12.299.2427.794.42 1.484.532l1.484.196c3.155.448 4.732 1.8853 4.732 4.312 0 .7093-.149 1.3627-.448 1.96-.28.5787-.681 1.0827-1.204 1.512-.522.4107-1.157.7373-1.904.98-.728.224-1.549.336-2.464.336zm22.102 0c-1.68 0-3.108-.2987-4.284-.896-1.157-.5973-2.156-1.3813-2.996-2.352l2.492-2.408c.672.784 1.419 1.3813 2.24 1.792.84.4107 1.764.616 2.772.616 1.139 0 1.997-.2427 2.576-.728.579-.504.868-1.176.868-2.016 0-.6533-.187-1.1853-.56-1.596s-1.073-.7093-2.1-.896l-1.848-.28c-3.901-.616-5.852-2.5107-5.852-5.684 0-.8773.159-1.6707.476-2.38.336-.7093.812-1.316 1.428-1.82s1.353-.88667 2.212-1.148c.877-.28 1.867-.42 2.968-.42 1.475 0 2.763.24267 3.864.728 1.101.4853 2.044 1.204 2.828 2.156l-2.52 2.38c-.485-.5973-1.073-1.0827-1.764-1.456s-1.559-.56-2.604-.56c-1.064 0-1.867.2053-2.408.616-.523.392-.784.952-.784 1.68 0 .7467.215 1.2973.644 1.652s1.12.616 2.072.784l1.82.336c1.979.3547 3.435.9893 4.368 1.904.952.896 1.428 2.156 1.428 3.78 0 .9333-.168 1.7827-.504 2.548-.317.7467-.793 1.4-1.428 1.96-.616.5413-1.381.9613-2.296 1.26-.896.2987-1.932.448-3.108.448zm16.725 0c-1.082 0-2.053-.1773-2.912-.532-.84-.3733-1.558-.8867-2.156-1.54-.578-.672-1.026-1.4747-1.344-2.408-.317-.952-.476-2.016-.476-3.192 0-1.1573.15-2.2027.448-3.136.318-.9333.766-1.7267 1.344-2.38.579-.672 1.288-1.1853 2.128-1.54.84-.3733 1.792-.56 2.856-.56 1.139 0 2.128.196 2.968.588s1.531.924 2.072 1.596c.542.672.943 1.456 1.204 2.352.28.8773.42 1.82.42 2.828v1.176h-9.716v.364c0 1.064.299 1.9227.896 2.576.598.6347 1.484.952 2.66.952.896 0 1.624-.1867 2.184-.56.579-.3733 1.092-.8493 1.54-1.428l1.932 2.156c-.597.84-1.418 1.5027-2.464 1.988-1.026.4667-2.221.7-3.584.7zm-.056-12.6c-.952 0-1.708.3173-2.268.952s-.84 1.456-.84 2.464v.224h5.992v-.252c0-1.008-.252-1.82-.756-2.436-.485-.6347-1.194-.952-2.128-.952zm9.762 12.264v-14.616h3.584v2.436h.14c.28-.7653.728-1.4187 1.344-1.96s1.474-.812 2.576-.812c1.008 0 1.876.2427 2.604.728s1.269 1.2227 1.624 2.212h.056c.261-.8213.774-1.512 1.54-2.072.784-.5787 1.764-.868 2.94-.868 1.437 0 2.538.4947 3.304 1.484.784.9893 1.176 2.3987 1.176 4.228v9.24h-3.584v-8.876c0-2.0907-.784-3.136-2.352-3.136-.355 0-.7.056-1.036.168-.318.0933-.607.2427-.868.448-.243.1867-.439.4293-.588.728-.15.28-.224.616-.224 1.008v9.66h-3.584v-8.876c0-2.0907-.784-3.136-2.352-3.136-.336 0-.672.056-1.008.168-.318.0933-.607.2427-.868.448-.243.1867-.448.4293-.616.728-.15.28-.224.616-.224 1.008v9.66zm26.647-16.744c-.747 0-1.288-.168-1.624-.504-.317-.336-.476-.7653-.476-1.288v-.56c0-.52267.159-.952.476-1.288.336-.336.877-.504 1.624-.504.728 0 1.26.168 1.596.504s.504.76533.504 1.288v.56c0 .5227-.168.952-.504 1.288s-.868.504-1.596.504zm-1.792 2.128h3.584v14.616h-3.584zm7.962-4.928h9.044c.803 0 1.522.12133 2.156.364.654.2427 1.204.5787 1.652 1.008s.784.9613 1.008 1.596c.243.616.364 1.2973.364 2.044s-.102 1.3813-.308 1.904c-.186.504-.448.924-.784 1.26-.317.336-.69.588-1.12.756-.41.168-.84.2613-1.288.28v.168c.43 0 .887.084 1.372.252.504.168.962.4387 1.372.812.43.3547.784.8213 1.064 1.4.28.56.42 1.26.42 2.1 0 .784-.13 1.5213-.392 2.212-.242.672-.588 1.26-1.036 1.764s-.98.9053-1.596 1.204c-.616.28-1.288.42-2.016.42h-9.912zm3.696 16.408h5.152c.71 0 1.26-.1773 1.652-.532.392-.3733.588-.9053.588-1.596v-.952c0-.6907-.196-1.2227-.588-1.596s-.942-.56-1.652-.56h-5.152zm0-8.26h4.564c.672 0 1.195-.1773 1.568-.532.374-.3733.56-.8867.56-1.54v-.868c0-.6533-.186-1.1573-.56-1.512-.373-.3733-.896-.56-1.568-.56h-4.564zm20.443 11.732c-1.046 0-1.988-.1773-2.828-.532-.822-.3547-1.531-.868-2.128-1.54-.579-.672-1.027-1.4747-1.344-2.408-.318-.952-.476-2.016-.476-3.192s.158-2.2307.476-3.164c.317-.9333.765-1.7267 1.344-2.38.597-.672 1.306-1.1853 2.128-1.54.84-.3547 1.782-.532 2.828-.532 1.045 0 1.988.1773 2.828.532s1.549.868 2.128 1.54c.597.6533 1.054 1.4467 1.372 2.38.317.9333.476 1.988.476 3.164s-.159 2.24-.476 3.192c-.318.9333-.775 1.736-1.372 2.408-.579.672-1.288 1.1853-2.128 1.54s-1.783.532-2.828.532zm0-2.884c.952 0 1.698-.2893 2.24-.868.541-.5787.812-1.428.812-2.548v-2.716c0-1.1013-.271-1.9413-.812-2.52-.542-.5787-1.288-.868-2.24-.868-.934 0-1.671.2893-2.212.868-.542.5787-.812 1.4187-.812 2.52v2.716c0 1.12.27 1.9693.812 2.548.541.5787 1.278.868 2.212.868zm13.565 2.548c-1.232 0-2.137-.308-2.716-.924s-.868-1.484-.868-2.604v-17.192h3.584v17.864h1.932v2.856zm13.719-2.436h-.14c-.262.84-.756 1.512-1.484 2.016s-1.578.756-2.548.756c-1.848 0-3.267-.6627-4.256-1.988-.971-1.3253-1.456-3.22-1.456-5.684 0-2.4453.485-4.3213 1.456-5.628.989-1.3253 2.408-1.988 4.256-1.988.97 0 1.82.252 2.548.756.728.4853 1.222 1.148 1.484 1.988h.14v-8.512h3.584v20.72h-3.584zm-3.024-.196c.858 0 1.577-.2053 2.156-.616.578-.4107.868-.9987.868-1.764v-4.648c0-.7093-.29-1.2787-.868-1.708-.579-.4293-1.298-.644-2.156-.644-.934 0-1.69.3173-2.268.952-.56.616-.84 1.4467-.84 2.492v2.52c0 1.0453.28 1.876.84 2.492.578.616 1.334.924 2.268.924zm-307.249 38.632v-1.96h2.744v-15.624h-2.744v-1.96h7.84v1.96h-2.744v15.624h2.744v1.96zm12.1349-19.544h8.036c1.624 0 2.8934.4573 3.808 1.372.9334.9147 1.4 2.1373 1.4 3.668 0 .728-.1026 1.344-.308 1.848-.2053.504-.4666.924-.784 1.26-.3173.3173-.6626.56-1.036.728-.3733.1493-.7186.252-1.036.308v.168c.3547.0187.7467.112 1.176.28.448.168.868.4387 1.26.812.392.3547.7187.8213.98 1.4.28.56.42 1.2413.42 2.044s-.1306 1.5493-.392 2.24c-.2426.6907-.588 1.288-1.036 1.792s-.98.9053-1.596 1.204c-.616.28-1.288.42-2.016.42h-8.876zm2.352 17.472h5.796c1.008 0 1.8014-.252 2.38-.756.5787-.5227.868-1.2787.868-2.268v-.952c0-.9893-.2893-1.736-.868-2.24-.5786-.5227-1.372-.784-2.38-.784h-5.796zm0-9.016h5.404c.9334 0 1.6614-.2333 2.184-.7.5227-.4667.784-1.1387.784-2.016v-.952c0-.8773-.2613-1.5493-.784-2.016-.5226-.4667-1.2506-.7-2.184-.7h-5.404zm31.173-5.376h-.14l-1.652 3.276-4.676 8.512-4.676-8.512-1.652-3.276h-.14v16.464h-2.296v-19.544h3.136l5.6 10.528h.14l5.628-10.528h3.024v19.544h-2.296zm14.1079 16.464v-19.544h7.784c1.7546 0 3.0986.504 4.032 1.512.952.9893 1.428 2.352 1.428 4.088s-.476 3.108-1.428 4.116c-.9334.9893-2.2774 1.484-4.032 1.484h-5.432v8.344zm2.352-10.416h5.432c.9333 0 1.652-.2427 2.156-.728.5226-.4853.784-1.176.784-2.072v-1.456c0-.896-.2614-1.5867-.784-2.072-.504-.4853-1.2227-.728-2.156-.728h-5.432zm16.7844 10.416c-.784 0-1.3813-.2147-1.792-.644-.392-.448-.588-1.008-.588-1.68v-18.396h2.24v18.76h2.128v1.96zm10.6809.336c-.9893 0-1.8853-.1773-2.688-.532-.784-.3547-1.4653-.8587-2.044-1.512-.56-.672-.9986-1.4653-1.316-2.38-.2986-.9333-.448-1.9787-.448-3.136 0-1.1387.1494-2.1747.448-3.108.3174-.9333.756-1.7267 1.316-2.38.5787-.672 1.26-1.1853 2.044-1.54.8027-.3547 1.6987-.532 2.688-.532.9707 0 1.8387.1773 2.604.532.7654.3547 1.4187.8493 1.96 1.484.5414.616.952 1.3533 1.232 2.212.2987.8587.448 1.8013.448 2.828v1.064h-10.388v.672c0 .616.0934 1.1947.28 1.736.2054.5227.4854.98.84 1.372.3734.392.8214.7 1.344.924.5414.224 1.148.336 1.82.336.9147 0 1.708-.2147 2.38-.644.6907-.4293 1.2227-1.0453 1.596-1.848l1.596 1.148c-.4666.9893-1.1946 1.792-2.184 2.408-.9893.5973-2.1653.896-3.528.896zm0-13.244c-.616 0-1.176.112-1.68.336-.504.2053-.9426.504-1.316.896-.3546.392-.6346.8587-.84 1.4-.2053.5227-.308 1.1013-.308 1.736v.196h7.98v-.308c0-1.288-.3546-2.3147-1.064-3.08-.6906-.784-1.6146-1.176-2.772-1.176zm7.8151 12.908 5.3478-7.28-5.1238-7.168h2.6318l3.668 5.376h.084l3.808-5.376h2.492l-5.096 7 5.208 7.448h-2.632l-3.752-5.656h-.084l-4.06 5.656zm28.3128.336c-1.587 0-2.94-.2987-4.06-.896-1.12-.616-2.072-1.456-2.856-2.52l1.736-1.456c.69.9147 1.456 1.6147 2.296 2.1.84.4667 1.829.7 2.968.7 1.4 0 2.464-.336 3.192-1.008.746-.672 1.12-1.568 1.12-2.688 0-.9333-.28-1.652-.84-2.156s-1.484-.9053-2.772-1.204l-1.596-.364c-1.792-.4107-3.164-1.0267-4.116-1.848-.934-.84-1.4-2.016-1.4-3.528 0-.8587.158-1.624.476-2.296.317-.672.756-1.232 1.316-1.68.578-.448 1.26-.784 2.044-1.008.802-.2427 1.68-.364 2.632-.364 1.474 0 2.734.2707 3.78.812 1.064.5413 1.96 1.3347 2.688 2.38l-1.764 1.288c-.542-.7467-1.195-1.3347-1.96-1.764-.766-.4293-1.718-.644-2.856-.644-1.251 0-2.24.2707-2.968.812-.71.5227-1.064 1.316-1.064 2.38 0 .9333.298 1.6427.896 2.128.616.4667 1.54.84 2.772 1.12l1.596.364c1.922.4293 3.313 1.0827 4.172 1.96.858.8773 1.288 2.044 1.288 3.5 0 .896-.159 1.708-.476 2.436-.299.728-.738 1.344-1.316 1.848-.579.504-1.288.896-2.128 1.176-.822.28-1.755.42-2.8.42zm21.057-.336c-.84 0-1.446-.224-1.82-.672-.354-.448-.578-1.008-.672-1.68h-.14c-.317.896-.84 1.568-1.568 2.016s-1.596.672-2.604.672c-1.53 0-2.725-.392-3.584-1.176-.84-.784-1.26-1.848-1.26-3.192 0-1.3627.495-2.408 1.484-3.136 1.008-.728 2.567-1.092 4.676-1.092h2.856v-1.428c0-1.0267-.28-1.8107-.84-2.352s-1.418-.812-2.576-.812c-.877 0-1.614.196-2.212.588-.578.392-1.064.9147-1.456 1.568l-1.344-1.26c.392-.784 1.018-1.4467 1.876-1.988.859-.56 1.942-.84 3.248-.84 1.755 0 3.118.4293 4.088 1.288.971.8587 1.456 2.0533 1.456 3.584v7.952h1.652v1.96zm-6.44-1.568c.56 0 1.074-.0653 1.54-.196.467-.1307.868-.3173 1.204-.56s.598-.5227.784-.84c.187-.3173.28-.6627.28-1.036v-2.38h-2.968c-1.288 0-2.23.1867-2.828.56-.578.3733-.868.9147-.868 1.624v.588c0 .7093.252 1.26.756 1.652.523.392 1.223.588 2.1.588zm10.897 1.568v-14.448h2.24v2.352h.112c.355-.8213.85-1.4747 1.484-1.96.654-.4853 1.522-.728 2.604-.728 1.494 0 2.67.4853 3.528 1.456.878.952 1.316 2.3053 1.316 4.06v9.268h-2.24v-8.876c0-2.5947-1.092-3.892-3.276-3.892-.448 0-.886.056-1.316.168-.41.112-.784.28-1.12.504s-.606.5133-.812.868c-.186.336-.28.7373-.28 1.204v10.024zm20.254.336c-1.344 0-2.473-.252-3.388-.756-.896-.5227-1.67-1.2133-2.324-2.072l1.596-1.288c.56.7093 1.186 1.26 1.876 1.652.691.3733 1.494.56 2.408.56.952 0 1.69-.2053 2.212-.616.542-.4107.812-.9893.812-1.736 0-.56-.186-1.036-.56-1.428-.354-.4107-1.008-.6907-1.96-.84l-1.148-.168c-.672-.0933-1.288-.2333-1.848-.42-.56-.2053-1.054-.4667-1.484-.784-.41-.336-.737-.7467-.98-1.232-.224-.4853-.336-1.064-.336-1.736 0-.7093.131-1.3253.392-1.848.262-.5413.616-.9893 1.064-1.344.467-.3547 1.018-.616 1.652-.784.635-.1867 1.316-.28 2.044-.28 1.176 0 2.156.2053 2.94.616.803.4107 1.503.98 2.1 1.708l-1.484 1.344c-.317-.448-.784-.8493-1.4-1.204-.616-.3733-1.39-.56-2.324-.56-.933 0-1.642.2053-2.128.616-.466.392-.7.9333-.7 1.624 0 .7093.234 1.2227.7 1.54.486.3173 1.176.5507 2.072.7l1.12.168c1.606.2427 2.744.7093 3.416 1.4.672.672 1.008 1.5587 1.008 2.66 0 1.4-.476 2.5013-1.428 3.304s-2.258 1.204-3.92 1.204zm18.498-.336h-2.352v-19.544h7.784c1.717 0 3.052.476 4.004 1.428.971.952 1.456 2.324 1.456 4.116 0 1.4373-.336 2.6227-1.008 3.556-.653.9147-1.624 1.5213-2.912 1.82l4.48 8.624h-2.66l-4.228-8.4h-4.564zm5.432-10.416c.933 0 1.652-.2427 2.156-.728.523-.4853.784-1.176.784-2.072v-1.456c0-.896-.261-1.5867-.784-2.072-.504-.4853-1.223-.728-2.156-.728h-5.432v7.056zm14.924 10.752c-.989 0-1.885-.1773-2.688-.532-.784-.3547-1.465-.8587-2.044-1.512-.56-.672-.999-1.4653-1.316-2.38-.299-.9333-.448-1.9787-.448-3.136 0-1.1387.149-2.1747.448-3.108.317-.9333.756-1.7267 1.316-2.38.579-.672 1.26-1.1853 2.044-1.54.803-.3547 1.699-.532 2.688-.532.971 0 1.839.1773 2.604.532s1.419.8493 1.96 1.484c.541.616.952 1.3533 1.232 2.212.299.8587.448 1.8013.448 2.828v1.064h-10.388v.672c0 .616.093 1.1947.28 1.736.205.5227.485.98.84 1.372.373.392.821.7 1.344.924.541.224 1.148.336 1.82.336.915 0 1.708-.2147 2.38-.644.691-.4293 1.223-1.0453 1.596-1.848l1.596 1.148c-.467.9893-1.195 1.792-2.184 2.408-.989.5973-2.165.896-3.528.896zm0-13.244c-.616 0-1.176.112-1.68.336-.504.2053-.943.504-1.316.896-.355.392-.635.8587-.84 1.4-.205.5227-.308 1.1013-.308 1.736v.196h7.98v-.308c0-1.288-.355-2.3147-1.064-3.08-.691-.784-1.615-1.176-2.772-1.176zm22.115 14.504c0 1.4933-.588 2.5853-1.764 3.276-1.157.7093-2.902 1.064-5.236 1.064-2.258 0-3.882-.308-4.872-.924-.989-.616-1.484-1.4933-1.484-2.632 0-.784.206-1.4.616-1.848.411-.4293.971-.7467 1.68-.952v-.308c-.858-.4107-1.288-1.0827-1.288-2.016 0-.728.234-1.2787.7-1.652.467-.392 1.064-.6813 1.792-.868v-.112c-.858-.4107-1.53-.9987-2.016-1.764-.466-.7653-.7-1.652-.7-2.66 0-.728.131-1.4.392-2.016.262-.616.626-1.1387 1.092-1.568.486-.448 1.055-.7933 1.708-1.036.672-.2427 1.419-.364 2.24-.364 1.027 0 1.942.1867 2.744.56v-.252c0-.56.131-1.0173.392-1.372.262-.3733.691-.56 1.288-.56h2.156v1.96h-2.744v.924c.523.448.924.9893 1.204 1.624.299.616.448 1.316.448 2.1 0 .728-.13 1.4-.392 2.016-.261.616-.634 1.148-1.12 1.596-.466.4293-1.036.7653-1.708 1.008s-1.418.364-2.24.364c-.466 0-.933-.0467-1.4-.14-.485.1307-.924.3267-1.316.588-.392.2427-.588.588-.588 1.036 0 .4293.206.7187.616.868.411.1493.943.224 1.596.224h3.08c1.792 0 3.09.3453 3.892 1.036.822.672 1.232 1.6053 1.232 2.8zm-2.1.168c0-.5787-.224-1.0453-.672-1.4-.429-.336-1.204-.504-2.324-.504h-4.816c-.896.4107-1.344 1.064-1.344 1.96 0 .6347.234 1.176.7 1.624.486.448 1.298.672 2.436.672h2.072c1.251 0 2.222-.196 2.912-.588.691-.392 1.036-.98 1.036-1.764zm-5.012-8.372c.952 0 1.708-.224 2.268-.672.56-.4667.84-1.176.84-2.128v-.784c0-.952-.28-1.652-.84-2.1-.56-.4667-1.316-.7-2.268-.7s-1.708.2333-2.268.7c-.56.448-.84 1.148-.84 2.1v.784c0 .952.28 1.6613.84 2.128.56.448 1.316.672 2.268.672zm18.52 4.256h-.112c-.149.336-.336.672-.56 1.008-.205.3173-.467.6067-.784.868-.317.2427-.7.4387-1.148.588s-.971.224-1.568.224c-1.493 0-2.679-.476-3.556-1.428-.877-.9707-1.316-2.3333-1.316-4.088v-9.268h2.24v8.876c0 2.5947 1.101 3.892 3.304 3.892.448 0 .877-.056 1.288-.168.429-.112.803-.28 1.12-.504.336-.224.597-.504.784-.84.205-.3547.308-.7747.308-1.26v-9.996h2.24v14.448h-2.24zm9.39 2.352c-.784 0-1.381-.2147-1.792-.644-.392-.448-.588-1.008-.588-1.68v-18.396h2.24v18.76h2.128v1.96zm15.749 0c-.84 0-1.447-.224-1.82-.672-.355-.448-.579-1.008-.672-1.68h-.14c-.317.896-.84 1.568-1.568 2.016s-1.596.672-2.604.672c-1.531 0-2.725-.392-3.584-1.176-.84-.784-1.26-1.848-1.26-3.192 0-1.3627.495-2.408 1.484-3.136 1.008-.728 2.567-1.092 4.676-1.092h2.856v-1.428c0-1.0267-.28-1.8107-.84-2.352s-1.419-.812-2.576-.812c-.877 0-1.615.196-2.212.588-.579.392-1.064.9147-1.456 1.568l-1.344-1.26c.392-.784 1.017-1.4467 1.876-1.988.859-.56 1.941-.84 3.248-.84 1.755 0 3.117.4293 4.088 1.288s1.456 2.0533 1.456 3.584v7.952h1.652v1.96zm-6.44-1.568c.56 0 1.073-.0653 1.54-.196s.868-.3173 1.204-.56.597-.5227.784-.84.28-.6627.28-1.036v-2.38h-2.968c-1.288 0-2.231.1867-2.828.56-.579.3733-.868.9147-.868 1.624v.588c0 .7093.252 1.26.756 1.652.523.392 1.223.588 2.1.588zm10.897 1.568v-14.448h2.24v2.66h.14c.261-.6907.728-1.3067 1.4-1.848s1.596-.812 2.772-.812h.868v2.24h-1.316c-1.213 0-2.165.2333-2.856.7-.672.448-1.008 1.0173-1.008 1.708v9.8z"/><path d="m18.18 118.38h-10.476v10.62h-4.752v-25.128h4.752v10.296h10.476v-10.296h4.752v25.128h-4.752zm17.955 11.052c-1.392 0-2.64-.228-3.744-.684-1.08-.48-2.004-1.14-2.772-1.98-.744-.864-1.32-1.896-1.728-3.096-.408-1.224-.612-2.592-.612-4.104 0-1.488.192-2.832.576-4.032.408-1.2.984-2.22 1.728-3.06.744-.864 1.656-1.524 2.736-1.98 1.08-.48 2.304-.72 3.672-.72 1.464 0 2.736.252 3.816.756s1.968 1.188 2.664 2.052 1.212 1.872 1.548 3.024c.36 1.128.54 2.34.54 3.636v1.512h-12.492v.468c0 1.368.384 2.472 1.152 3.312.768.816 1.908 1.224 3.42 1.224 1.152 0 2.088-.24 2.808-.72.744-.48 1.404-1.092 1.98-1.836l2.484 2.772c-.768 1.08-1.824 1.932-3.168 2.556-1.32.6-2.856.9-4.608.9zm-.072-16.2c-1.224 0-2.196.408-2.916 1.224s-1.08 1.872-1.08 3.168v.288h7.704v-.324c0-1.296-.324-2.34-.972-3.132-.624-.816-1.536-1.224-2.736-1.224zm26.3742 15.768c-1.008 0-1.812-.288-2.412-.864-.576-.6-.936-1.392-1.08-2.376h-.216c-.312 1.224-.948 2.148-1.908 2.772-.96.6-2.148.9-3.564.9-1.92 0-3.396-.504-4.428-1.512s-1.548-2.352-1.548-4.032c0-1.944.696-3.384 2.088-4.32 1.392-.96 3.372-1.44 5.94-1.44h3.204v-1.368c0-1.056-.276-1.872-.828-2.448s-1.44-.864-2.664-.864c-1.08 0-1.956.24-2.628.72-.648.456-1.2 1.008-1.656 1.656l-2.736-2.448c.696-1.08 1.62-1.944 2.772-2.592 1.152-.672 2.676-1.008 4.572-1.008 2.544 0 4.476.576 5.796 1.728s1.98 2.808 1.98 4.968v8.856h1.872v3.672zm-7.632-2.916c1.032 0 1.908-.228 2.628-.684s1.08-1.128 1.08-2.016v-2.484h-2.952c-2.4 0-3.6.768-3.6 2.304v.612c0 .768.24 1.344.72 1.728.504.36 1.212.54 2.124.54zm25.5814-.216h-.18c-.336 1.08-.972 1.944-1.908 2.592s-2.028.972-3.276.972c-2.376 0-4.2-.852-5.472-2.556-1.248-1.704-1.872-4.14-1.872-7.308 0-3.144.624-5.556 1.872-7.236 1.272-1.704 3.096-2.556 5.472-2.556 1.248 0 2.34.324 3.276.972.936.624 1.572 1.476 1.908 2.556h.18v-10.944h4.608v26.64h-4.608zm-3.888-.252c1.104 0 2.028-.264 2.772-.792s1.116-1.284 1.116-2.268v-5.976c0-.912-.372-1.644-1.116-2.196s-1.668-.828-2.772-.828c-1.2 0-2.172.408-2.916 1.224-.72.792-1.08 1.86-1.08 3.204v3.24c0 1.344.36 2.412 1.08 3.204.744.792 1.716 1.188 2.916 1.188zm16.1139-18.144c-.96 0-1.656-.216-2.088-.648-.408-.432-.612-.984-.612-1.656v-.72c0-.672.204-1.224.612-1.656.432-.432 1.128-.648 2.088-.648.936 0 1.62.216 2.052.648s.648.984.648 1.656v.72c0 .672-.216 1.224-.648 1.656s-1.116.648-2.052.648zm-2.304 2.736h4.608v18.792h-4.608zm9.9495 18.792v-18.792h4.608v3.132h.18c.384-1.008.984-1.848 1.8-2.52.84-.696 1.992-1.044 3.456-1.044 1.944 0 3.432.636 4.464 1.908s1.548 3.084 1.548 5.436v11.88h-4.608v-11.412c0-1.344-.24-2.352-.72-3.024s-1.272-1.008-2.376-1.008c-.48 0-.948.072-1.404.216-.432.12-.828.312-1.188.576-.336.24-.612.552-.828.936-.216.36-.324.792-.324 1.296v12.42zm38.12 1.584c0 .984-.18 1.848-.54 2.592-.336.768-.9 1.404-1.692 1.908s-1.812.888-3.06 1.152-2.772.396-4.572.396c-1.584 0-2.928-.108-4.032-.324-1.104-.192-2.016-.48-2.736-.864-.696-.36-1.2-.816-1.512-1.368s-.468-1.176-.468-1.872c0-1.056.288-1.884.864-2.484.6-.576 1.428-.948 2.484-1.116v-.396c-.768-.192-1.368-.564-1.8-1.116-.408-.576-.612-1.248-.612-2.016 0-.48.096-.9.288-1.26.192-.384.444-.708.756-.972.336-.264.708-.48 1.116-.648.408-.192.84-.336 1.296-.432v-.144c-1.152-.528-2.016-1.26-2.592-2.196-.552-.936-.828-2.028-.828-3.276 0-1.92.66-3.456 1.98-4.608 1.32-1.176 3.252-1.764 5.796-1.764.576 0 1.14.036 1.692.108.576.072 1.104.192 1.584.36v-.612c0-1.824.888-2.736 2.664-2.736h2.916v3.528h-3.996v.504c.984.552 1.716 1.272 2.196 2.16s.72 1.908.72 3.06c0 1.896-.66 3.42-1.98 4.572-1.296 1.152-3.228 1.728-5.796 1.728-1.104 0-2.064-.108-2.88-.324-.36.168-.672.396-.936.684-.264.264-.396.6-.396 1.008 0 .936.816 1.404 2.448 1.404h5.04c2.304 0 3.972.48 5.004 1.44 1.056.936 1.584 2.244 1.584 3.924zm-4.32.54c0-.6-.24-1.068-.72-1.404s-1.308-.504-2.484-.504h-6.408c-.648.48-.972 1.128-.972 1.944 0 .72.3 1.284.9 1.692s1.62.612 3.06.612h2.304c1.512 0 2.604-.192 3.276-.576.696-.384 1.044-.972 1.044-1.764zm-5.544-11.808c2.256 0 3.384-.96 3.384-2.88v-.612c0-1.92-1.128-2.88-3.384-2.88s-3.384.96-3.384 2.88v.612c0 1.92 1.128 2.88 3.384 2.88zm20.457 1.008v-4.572h10.296v4.572zm30.336-6.3c1.44 0 2.496-.288 3.168-.864.696-.6 1.044-1.356 1.044-2.268v-.252c0-1.032-.336-1.836-1.008-2.412-.648-.6-1.548-.9-2.7-.9-1.104 0-2.088.264-2.952.792-.84.528-1.572 1.272-2.196 2.232l-3.024-2.736c.432-.576.9-1.116 1.404-1.62.528-.528 1.128-.972 1.8-1.332.672-.384 1.428-.684 2.268-.9s1.788-.324 2.844-.324c1.272 0 2.424.156 3.456.468 1.056.288 1.956.72 2.7 1.296.768.576 1.356 1.272 1.764 2.088.408.792.612 1.692.612 2.7 0 .816-.132 1.548-.396 2.196-.24.648-.588 1.212-1.044 1.692-.432.48-.948.876-1.548 1.188-.576.288-1.188.504-1.836.648v.216c.72.144 1.404.372 2.052.684s1.2.732 1.656 1.26c.48.504.852 1.104 1.116 1.8.288.696.432 1.488.432 2.376 0 1.104-.228 2.112-.684 3.024-.432.912-1.056 1.692-1.872 2.34s-1.788 1.152-2.916 1.512c-1.128.336-2.388.504-3.78.504-1.224 0-2.304-.132-3.24-.396-.936-.24-1.764-.576-2.484-1.008-.696-.432-1.308-.924-1.836-1.476-.528-.576-.984-1.176-1.368-1.8l3.492-2.664c.288.504.6.972.936 1.404.336.408.72.768 1.152 1.08s.924.552 1.476.72 1.176.252 1.872.252c1.392 0 2.46-.336 3.204-1.008s1.116-1.596 1.116-2.772v-.252c0-1.152-.408-2.028-1.224-2.628-.792-.6-1.944-.9-3.456-.9h-2.484v-3.96zm23.062 15.408c-1.44 0-2.724-.228-3.852-.684-1.128-.48-2.088-1.14-2.88-1.98-.792-.864-1.392-1.896-1.8-3.096-.408-1.224-.612-2.592-.612-4.104 0-1.8.264-3.492.792-5.076.552-1.608 1.26-3.072 2.124-4.392.864-1.344 1.824-2.532 2.88-3.564 1.08-1.056 2.148-1.944 3.204-2.664h6.408c-1.488 1.056-2.82 2.076-3.996 3.06-1.152.984-2.172 1.98-3.06 2.988-.864 1.008-1.584 2.064-2.16 3.168-.552 1.08-.972 2.256-1.26 3.528l.288.072c.24-.48.516-.936.828-1.368.336-.456.732-.852 1.188-1.188.456-.36.984-.636 1.584-.828.6-.216 1.296-.324 2.088-.324 1.032 0 1.992.18 2.88.54.912.36 1.692.888 2.34 1.584.672.672 1.188 1.488 1.548 2.448.384.96.576 2.028.576 3.204 0 1.272-.216 2.436-.648 3.492s-1.044 1.968-1.836 2.736-1.752 1.368-2.88 1.8c-1.104.432-2.352.648-3.744.648zm0-3.744c1.32 0 2.352-.36 3.096-1.08.768-.744 1.152-1.8 1.152-3.168v-.54c0-1.368-.384-2.412-1.152-3.132-.744-.744-1.776-1.116-3.096-1.116-1.344 0-2.388.372-3.132 1.116-.744.72-1.116 1.764-1.116 3.132v.54c0 1.368.372 2.424 1.116 3.168.744.72 1.788 1.08 3.132 1.08zm21.85-15.48h4.608v3.096h.144c.336-1.08.972-1.932 1.908-2.556.936-.648 2.028-.972 3.276-.972 2.4 0 4.224.852 5.472 2.556 1.272 1.68 1.908 4.092 1.908 7.236 0 3.168-.636 5.604-1.908 7.308-1.248 1.704-3.072 2.556-5.472 2.556-1.248 0-2.34-.324-3.276-.972-.912-.648-1.548-1.512-1.908-2.592h-.144v10.332h-4.608zm8.46 15.408c1.2 0 2.172-.396 2.916-1.188s1.116-1.86 1.116-3.204v-3.24c0-1.344-.372-2.412-1.116-3.204-.744-.816-1.716-1.224-2.916-1.224-1.104 0-2.028.276-2.772.828-.72.552-1.08 1.284-1.08 2.196v5.976c0 .984.36 1.74 1.08 2.268.744.528 1.668.792 2.772.792zm10.618 3.384 6.408-9.54-6.264-9.252h5.256l3.888 6.228h.144l3.852-6.228h4.896l-6.372 9.324 6.408 9.468h-5.256l-3.96-6.48h-.144l-3.96 6.48zm-238.214 29.204c-1.02 0-1.887-.181-2.601-.544-.70267-.363-1.309-.839-1.819-1.428l1.513-1.462c.408.476.86133.839 1.36 1.088.51.249 1.071.374 1.683.374.69133 0 1.21267-.147 1.564-.442.35133-.306.527-.714.527-1.224 0-.397-.11333-.72-.34-.969s-.65167-.431-1.275-.544l-1.122-.17c-2.36867-.374-3.553-1.524-3.553-3.451 0-.533.09633-1.014.289-1.445.204-.431.493-.799.867-1.105s.82167-.538 1.343-.697c.53267-.17 1.13333-.255 1.802-.255.89533 0 1.67733.147 2.346.442s1.241.731 1.717 1.309l-1.53 1.445c-.29467-.363-.65167-.657-1.071-.884s-.94633-.34-1.581-.34c-.646 0-1.13333.125-1.462.374-.31733.238-.476.578-.476 1.02 0 .453.13033.788.391 1.003s.68.374 1.258.476l1.105.204c1.20133.215 2.08533.601 2.652 1.156.578.544.867 1.309.867 2.295 0 .567-.102 1.082-.306 1.547-.19267.453-.48167.85-.867 1.19-.374.329-.83867.584-1.394.765-.544.181-1.173.272-1.887.272zm10.1546 0c-.6574 0-1.2467-.108-1.768-.323-.51-.227-.9464-.538-1.309-.935-.3514-.408-.6234-.895-.816-1.462-.1927-.578-.289-1.224-.289-1.938 0-.703.0906-1.337.272-1.904.1926-.567.4646-1.048.816-1.445.3513-.408.782-.72 1.292-.935.51-.227 1.088-.34 1.734-.34.6913 0 1.292.119 1.802.357s.9293.561 1.258.969c.3286.408.5723.884.731 1.428.17.533.255 1.105.255 1.717v.714h-5.899v.221c0 .646.1813 1.167.544 1.564.3626.385.901.578 1.615.578.544 0 .986-.113 1.326-.34.3513-.227.663-.516.935-.867l1.173 1.309c-.3627.51-.8614.912-1.496 1.207-.6234.283-1.3487.425-2.176.425zm-.034-7.65c-.578 0-1.037.193-1.377.578s-.51.884-.51 1.496v.136h3.638v-.153c0-.612-.153-1.105-.459-1.479-.2947-.385-.7254-.578-1.292-.578zm9.4285 7.65c-.6574 0-1.241-.108-1.751-.323s-.9407-.527-1.292-.935c-.34-.408-.6007-.895-.782-1.462-.1814-.578-.272-1.224-.272-1.938s.0906-1.354.272-1.921c.1813-.567.442-1.048.782-1.445.3513-.408.782-.72 1.292-.935s1.0936-.323 1.751-.323c.8953 0 1.632.198 2.21.595.5893.397 1.0143.946 1.275 1.649l-1.785.799c-.102-.374-.2947-.68-.578-.918-.272-.249-.646-.374-1.122-.374-.612 0-1.071.193-1.377.578-.2947.385-.442.89-.442 1.513v1.615c0 .623.1473 1.128.442 1.513.306.374.765.561 1.377.561.5213 0 .9236-.13 1.207-.391.2833-.272.5043-.606.663-1.003l1.666.799c-.2947.782-.7424 1.371-1.343 1.768-.6007.385-1.3317.578-2.193.578zm7.9848-.204c-.748 0-1.3203-.193-1.717-.578-.3853-.397-.578-.958-.578-1.683v-4.879h-1.309v-1.734h.68c.3287 0 .5497-.074.663-.221.1247-.159.187-.391.187-.697v-1.513h1.955v2.431h1.819v1.734h-1.819v5.406h1.683v1.734zm4.6754-10.166c-.4533 0-.782-.102-.986-.306-.1927-.204-.289-.465-.289-.782v-.34c0-.317.0963-.578.289-.782.204-.204.5327-.306.986-.306.442 0 .765.102.969.306s.306.465.306.782v.34c0 .317-.102.578-.306.782s-.527.306-.969.306zm-1.088 1.292h2.176v8.874h-2.176zm8.2172 9.078c-.6346 0-1.207-.108-1.717-.323-.4986-.215-.9293-.527-1.292-.935-.3513-.408-.6233-.895-.816-1.462-.1926-.578-.289-1.224-.289-1.938s.0964-1.354.289-1.921c.1927-.567.4647-1.048.816-1.445.3627-.408.7934-.72 1.292-.935.51-.215 1.0824-.323 1.717-.323.6347 0 1.207.108 1.717.323s.9407.527 1.292.935c.3627.397.6404.878.833 1.445.1927.567.289 1.207.289 1.921s-.0963 1.36-.289 1.938c-.1926.567-.4703 1.054-.833 1.462-.3513.408-.782.72-1.292.935s-1.0823.323-1.717.323zm0-1.751c.578 0 1.0314-.176 1.36-.527.3287-.351.493-.867.493-1.547v-1.649c0-.669-.1643-1.179-.493-1.53-.3286-.351-.782-.527-1.36-.527-.5666 0-1.0143.176-1.343.527-.3286.351-.493.861-.493 1.53v1.649c0 .68.1644 1.196.493 1.547.3287.351.7764.527 1.343.527zm6.0601 1.547v-8.874h2.176v1.479h.085c.1814-.476.4647-.873.85-1.19.3967-.329.9407-.493 1.632-.493.918 0 1.6207.3 2.108.901.4874.601.731 1.456.731 2.567v5.61h-2.176v-5.389c0-.635-.1133-1.111-.34-1.428-.2266-.317-.6006-.476-1.122-.476-.2266 0-.4476.034-.663.102-.204.057-.391.147-.561.272-.1586.113-.289.261-.391.442-.102.17-.153.374-.153.612v5.865zm21.3388-5.015h-4.947v5.015h-2.244v-11.866h2.244v4.862h4.947v-4.862h2.244v11.866h-2.244zm8.4787 5.219c-.6573 0-1.2467-.108-1.768-.323-.51-.227-.9463-.538-1.309-.935-.3513-.408-.6233-.895-.816-1.462-.1927-.578-.289-1.224-.289-1.938 0-.703.0907-1.337.272-1.904.1927-.567.4647-1.048.816-1.445.3513-.408.782-.72 1.292-.935.51-.227 1.088-.34 1.734-.34.6913 0 1.292.119 1.802.357s.9293.561 1.258.969.5723.884.731 1.428c.17.533.255 1.105.255 1.717v.714h-5.899v.221c0 .646.1813 1.167.544 1.564.3627.385.901.578 1.615.578.544 0 .986-.113 1.326-.34.3513-.227.663-.516.935-.867l1.173 1.309c-.3627.51-.8613.912-1.496 1.207-.6233.283-1.3487.425-2.176.425zm-.034-7.65c-.578 0-1.037.193-1.377.578s-.51.884-.51 1.496v.136h3.638v-.153c0-.612-.153-1.105-.459-1.479-.2947-.385-.7253-.578-1.292-.578zm12.4545 7.446c-.476 0-.8557-.136-1.139-.408-.272-.283-.442-.657-.51-1.122h-.102c-.1473.578-.4477 1.014-.901 1.309-.4533.283-1.0143.425-1.683.425-.9067 0-1.6037-.238-2.091-.714s-.731-1.111-.731-1.904c0-.918.3287-1.598.986-2.04.6573-.453 1.5923-.68 2.805-.68h1.513v-.646c0-.499-.1303-.884-.391-1.156s-.68-.408-1.258-.408c-.51 0-.9237.113-1.241.34-.306.215-.5667.476-.782.782l-1.292-1.156c.3287-.51.765-.918 1.309-1.224.544-.317 1.2637-.476 2.159-.476 1.2013 0 2.1137.272 2.737.816s.935 1.326.935 2.346v4.182h.884v1.734zm-3.604-1.377c.4873 0 .901-.108 1.241-.323s.51-.533.51-.952v-1.173h-1.394c-1.1333 0-1.7.363-1.7 1.088v.289c0 .363.1133.635.34.816.238.17.5723.255 1.003.255zm12.0804-.102h-.085c-.159.51-.459.918-.901 1.224-.4423.306-.958.459-1.5473.459-1.122 0-1.9833-.402-2.584-1.207-.5893-.805-.884-1.955-.884-3.451 0-1.485.2947-2.624.884-3.417.6007-.805 1.462-1.207 2.584-1.207.5893 0 1.105.153 1.5473.459.442.295.742.697.901 1.207h.085v-5.168h2.176v12.58h-2.176zm-1.8363-.119c.5213 0 .9573-.125 1.3093-.374.351-.249.527-.606.527-1.071v-2.822c0-.431-.176-.776-.527-1.037-.352-.261-.788-.391-1.3093-.391-.5667 0-1.0257.193-1.377.578-.34.374-.51.878-.51 1.513v1.53c0 .635.17 1.139.51 1.513.3513.374.8103.561 1.377.561zm7.6093-8.568c-.453 0-.782-.102-.986-.306-.193-.204-.289-.465-.289-.782v-.34c0-.317.096-.578.289-.782.204-.204.533-.306.986-.306.442 0 .765.102.969.306s.306.465.306.782v.34c0 .317-.102.578-.306.782s-.527.306-.969.306zm-1.088 1.292h2.176v8.874h-2.176zm4.698 8.874v-8.874h2.176v1.479h.085c.182-.476.465-.873.85-1.19.397-.329.941-.493 1.632-.493.918 0 1.621.3 2.108.901.488.601.731 1.456.731 2.567v5.61h-2.176v-5.389c0-.635-.113-1.111-.34-1.428-.226-.317-.6-.476-1.122-.476-.226 0-.447.034-.663.102-.204.057-.391.147-.561.272-.158.113-.289.261-.391.442-.102.17-.153.374-.153.612v5.865zm18.001.748c0 .465-.085.873-.255 1.224-.158.363-.425.663-.799.901s-.855.419-1.445.544c-.589.125-1.309.187-2.159.187-.748 0-1.382-.051-1.904-.153-.521-.091-.952-.227-1.292-.408-.328-.17-.566-.385-.714-.646-.147-.261-.221-.555-.221-.884 0-.499.136-.89.408-1.173.284-.272.675-.448 1.173-.527v-.187c-.362-.091-.646-.266-.85-.527-.192-.272-.289-.589-.289-.952 0-.227.046-.425.136-.595.091-.181.21-.334.357-.459.159-.125.335-.227.527-.306.193-.091.397-.159.612-.204v-.068c-.544-.249-.952-.595-1.224-1.037-.26-.442-.391-.958-.391-1.547 0-.907.312-1.632.935-2.176.624-.555 1.536-.833 2.737-.833.272 0 .539.017.799.051.272.034.522.091.748.17v-.289c0-.861.42-1.292 1.258-1.292h1.377v1.666h-1.887v.238c.465.261.811.601 1.037 1.02.227.419.34.901.34 1.445 0 .895-.311 1.615-.935 2.159-.612.544-1.524.816-2.737.816-.521 0-.974-.051-1.36-.153-.17.079-.317.187-.442.323-.124.125-.187.283-.187.476 0 .442.386.663 1.156.663h2.38c1.088 0 1.876.227 2.363.68.499.442.748 1.06.748 1.853zm-2.04.255c0-.283-.113-.504-.34-.663-.226-.159-.617-.238-1.173-.238h-3.026c-.306.227-.459.533-.459.918 0 .34.142.606.425.799.284.193.765.289 1.445.289h1.088c.714 0 1.23-.091 1.547-.272.329-.181.493-.459.493-.833zm-2.618-5.576c1.066 0 1.598-.453 1.598-1.36v-.289c0-.907-.532-1.36-1.598-1.36-1.065 0-1.598.453-1.598 1.36v.289c0 .907.533 1.36 1.598 1.36zm9.661.476v-2.159h4.862v2.159zm11.418 4.097v-1.819h3.264v-8.432h-.153l-2.584 3.06-1.394-1.173 2.941-3.502h3.383v10.047h2.72v1.819zm11.519 0 4.131-10.047h-4.097v2.176h-1.904v-3.995h8.228v1.921l-4.012 9.945zm8.579-8.874h2.176v1.462h.068c.158-.51.459-.912.901-1.207.442-.306.957-.459 1.547-.459 1.133 0 1.994.402 2.584 1.207.6.793.901 1.932.901 3.417 0 1.496-.301 2.646-.901 3.451-.59.805-1.451 1.207-2.584 1.207-.59 0-1.105-.153-1.547-.459-.431-.306-.731-.714-.901-1.224h-.068v4.879h-2.176zm3.995 7.276c.566 0 1.025-.187 1.377-.561.351-.374.527-.878.527-1.513v-1.53c0-.635-.176-1.139-.527-1.513-.352-.385-.811-.578-1.377-.578-.522 0-.958.13-1.309.391-.34.261-.51.606-.51 1.037v2.822c0 .465.17.822.51 1.071.351.249.787.374 1.309.374zm5.014 1.598 3.026-4.505-2.958-4.369h2.482l1.836 2.941h.068l1.819-2.941h2.312l-3.009 4.403 3.026 4.471h-2.482l-1.87-3.06h-.068l-1.87 3.06zm-172.527 17.134h4.879c.986 0 1.75667.278 2.312.833.56667.555.85 1.298.85 2.227 0 .442-.06233.816-.187 1.122s-.28333.561-.476.765c-.19267.193-.40233.34-.629.442-.22667.091-.43633.153-.629.187v.102c.21533.011.45333.068.714.17.272.102.527.266.765.493.238.215.43633.499.595.85.17.34.255.754.255 1.241s-.07933.941-.238 1.36c-.14733.419-.357.782-.629 1.088s-.595.55-.969.731c-.374.17-.782.255-1.224.255h-5.389zm1.428 10.608h3.519c.612 0 1.09367-.153 1.445-.459.35133-.317.527-.776.527-1.377v-.578c0-.601-.17567-1.054-.527-1.36-.35133-.317-.833-.476-1.445-.476h-3.519zm0-5.474h3.281c.56667 0 1.00867-.142 1.326-.425s.476-.691.476-1.224v-.578c0-.533-.15867-.941-.476-1.224s-.75933-.425-1.326-.425h-3.281zm12.8574 6.936c-.5893 0-1.1276-.108-1.615-.323-.4873-.215-.9066-.521-1.258-.918-.34-.408-.6063-.89-.799-1.445-.1926-.567-.289-1.201-.289-1.904 0-.691.0964-1.32.289-1.887.1927-.567.459-1.048.799-1.445.3514-.408.7707-.72 1.258-.935.4874-.215 1.0257-.323 1.615-.323.5894 0 1.122.108 1.598.323.4874.215.9067.527 1.258.935.3514.397.6234.878.816 1.445.1927.567.289 1.196.289 1.887 0 .703-.0963 1.337-.289 1.904-.1926.555-.4646 1.037-.816 1.445-.3513.397-.7706.703-1.258.918-.476.215-1.0086.323-1.598.323zm0-1.207c.7367 0 1.3374-.227 1.802-.68.4647-.453.697-1.145.697-2.074v-1.258c0-.929-.2323-1.621-.697-2.074-.4646-.453-1.0653-.68-1.802-.68-.7366 0-1.3373.227-1.802.68-.4646.453-.697 1.145-.697 2.074v1.258c0 .929.2324 1.621.697 2.074.4647.453 1.0654.68 1.802.68zm11.8077-.425h-.068c-.5326 1.088-1.3883 1.632-2.567 1.632-.544 0-1.037-.108-1.479-.323s-.8216-.521-1.139-.918c-.306-.397-.544-.878-.714-1.445-.1586-.567-.238-1.201-.238-1.904s.0794-1.337.238-1.904c.17-.567.408-1.048.714-1.445.3174-.397.697-.703 1.139-.918s.935-.323 1.479-.323c.612 0 1.1334.136 1.564.408.442.261.7764.669 1.003 1.224h.068v-5.236h1.36v12.58h-1.36zm-2.261.408c.306 0 .595-.04.867-.119.2834-.079.527-.193.731-.34.204-.159.3627-.346.476-.561.1247-.227.187-.482.187-.765v-3.264c0-.238-.0623-.459-.187-.663-.1133-.215-.272-.397-.476-.544s-.4476-.261-.731-.34c-.272-.091-.561-.136-.867-.136-.7706 0-1.377.244-1.819.731-.442.476-.663 1.105-.663 1.887v1.496c0 .782.221 1.417.663 1.904.442.476 1.0484.714 1.819.714zm11.9184-7.752h1.343l-3.927 10.812c-.102.261-.204.476-.306.646-.102.181-.2267.323-.374.425-.1474.102-.3344.176-.561.221-.2154.045-.4817.068-.799.068h-.697v-1.19h1.377l.663-1.87-3.281-9.112h1.36l2.108 5.967.408 1.428h.085l.476-1.428zm6.8229 4.335v-1.462h4.437v1.462zm11.1307 4.437v-1.258h3.315v-9.554h-.119l-2.992 2.788-.833-.901 3.145-2.941h2.227v10.608h3.06v1.258zm13.7973.204c-1.4166 0-2.4536-.538-3.111-1.615-.646-1.077-.969-2.584-.969-4.522s.323-3.445.969-4.522c.6574-1.077 1.6944-1.615 3.111-1.615 1.4167 0 2.448.538 3.094 1.615.6574 1.077.986 2.584.986 4.522s-.3286 3.445-.986 4.522c-.646 1.077-1.6773 1.615-3.094 1.615zm0-1.241c.4647 0 .8614-.096 1.19-.289.3287-.193.595-.465.799-.816s.3514-.765.442-1.241c.102-.476.153-1.003.153-1.581v-1.938c0-.578-.051-1.105-.153-1.581-.0906-.476-.238-.89-.442-1.241s-.4703-.623-.799-.816c-.3286-.193-.7253-.289-1.19-.289-.4646 0-.8613.096-1.19.289-.3286.193-.595.465-.799.816s-.357.765-.459 1.241c-.0906.476-.136 1.003-.136 1.581v1.938c0 .578.0454 1.105.136 1.581.102.476.255.89.459 1.241s.4704.623.799.816c.3287.193.7254.289 1.19.289zm10.556-7.735h1.36v1.428h.068c.2266-.555.5553-.963.986-1.224.442-.272.969-.408 1.581-.408.544 0 1.037.108 1.479.323s.816.521 1.122.918c.3173.397.5553.878.714 1.445.17.567.255 1.201.255 1.904s-.085 1.337-.255 1.904c-.1587.567-.3967 1.048-.714 1.445-.306.397-.68.703-1.122.918s-.935.323-1.479.323c-1.19 0-2.0457-.544-2.567-1.632h-.068v4.828h-1.36zm3.621 7.752c.7706 0 1.377-.238 1.819-.714.442-.487.663-1.122.663-1.904v-1.496c0-.782-.221-1.411-.663-1.887-.442-.487-1.0484-.731-1.819-.731-.306 0-.6007.045-.884.136-.272.079-.51.193-.714.34s-.3684.329-.493.544c-.1134.204-.17.425-.17.663v3.264c0 .283.0566.538.17.765.1246.215.289.402.493.561.204.147.442.261.714.34.2833.079.578.119.884.119zm4.9531 1.02 3.247-4.42-3.111-4.352h1.598l2.227 3.264h.051l2.312-3.264h1.513l-3.094 4.25 3.162 4.522h-1.598l-2.278-3.434h-.051l-2.465 3.434zm-83.2825 29.204c-.578 0-1.11067-.102-1.598-.306s-.91233-.504-1.275-.901c-.35133-.408-.629-.901-.833-1.479-.19267-.589-.289-1.269-.289-2.04 0-1.031.136-2 .408-2.907.272-.918.65733-1.717 1.156-2.397.49867-.691 1.09933-1.235 1.802-1.632.70267-.408 1.48467-.612 2.346-.612.96333 0 1.76233.221 2.397.663.646.442 1.1163 1.122 1.411 2.04l-1.241.561c-.21533-.669-.53267-1.173-.952-1.513s-1.003-.51-1.751-.51c-.45333 0-.884.085-1.292.255-.39667.17-.75933.414-1.088.731-.31733.306-.595.68-.833 1.122-.22667.431-.391.918-.493 1.462l-.391 1.955c-.04533.215-.07367.414-.085.595s-.017.357-.017.527c0 .465.06233.89.187 1.275s.30033.72.527 1.003c.22667.272.50433.487.833.646.34.147.72533.221 1.156.221.408 0 .77067-.051 1.088-.153.32867-.102.61767-.244.867-.425.26067-.193.493-.425.697-.697.21533-.283.41933-.595.612-.935l1.156.578c-.52133.986-1.139 1.711-1.853 2.176s-1.598.697-2.652.697zm12.5595-.204c-.3853 0-.6743-.096-.867-.289-.1813-.193-.272-.448-.272-.765 0-.136.017-.289.051-.459l.085-.391h-.051c-.3626.737-.765 1.275-1.207 1.615-.442.329-.986.493-1.632.493-.8046 0-1.4506-.295-1.938-.884-.4873-.601-.731-1.422-.731-2.465 0-.646.085-1.309.255-1.989.1814-.691.4477-1.32.799-1.887.3514-.578.7934-1.048 1.326-1.411.544-.363 1.1787-.544 1.904-.544.2607 0 .5157.034.765.102.2494.068.476.17.68.306s.3797.306.527.51c.1474.204.255.442.323.714h.068l.289-1.428h1.309l-1.53 7.616h1.241l-.221 1.156zm-3.553-.986c.3854 0 .7254-.074 1.02-.221.2947-.159.5724-.374.833-.646.2947-.295.527-.612.697-.952.1814-.34.3174-.725.408-1.156l.357-1.785c.0567-.272.0624-.527.017-.765-.0453-.249-.1473-.465-.306-.646-.1586-.193-.374-.346-.646-.459s-.6006-.17-.986-.17c-.714 0-1.3033.232-1.768.697-.4646.465-.782 1.122-.952 1.972l-.255 1.275c-.0566.317-.085.606-.085.867 0 .601.1417 1.082.425 1.445.2834.363.697.544 1.241.544zm8.4152-7.786h1.309l-.391 1.904h.051c.3626-.737.765-1.269 1.207-1.598.442-.34.986-.51 1.632-.51.8046 0 1.4506.3 1.938.901.4873.589.731 1.405.731 2.448 0 .646-.0907 1.315-.272 2.006-.17.68-.4307 1.309-.782 1.887-.3514.567-.799 1.031-1.343 1.394-.5327.363-1.1617.544-1.887.544-.2607 0-.5157-.034-.765-.102-.2494-.068-.476-.17-.68-.306s-.3797-.306-.527-.51c-.1474-.204-.255-.442-.323-.714h-.068l-.969 4.828h-1.309zm2.074 7.786c.714 0 1.3033-.232 1.768-.697.4646-.465.782-1.122.952-1.972l.255-1.275c.0566-.317.085-.606.085-.867 0-.578-.136-1.054-.408-1.428-.2607-.374-.6857-.561-1.275-.561-.3854 0-.7254.079-1.02.238-.2834.159-.5554.368-.816.629-.2834.283-.5157.595-.697.935-.1814.34-.3174.731-.408 1.173l-.357 1.785c-.0567.272-.0624.533-.017.782.0453.249.1473.47.306.663.1586.181.3683.329.629.442.272.102.6063.153 1.003.153zm7.5035.986c-.3967 0-.697-.096-.901-.289-.1927-.204-.289-.465-.289-.782 0-.102.017-.238.051-.408l1.241-6.137h-1.292l.221-1.156h.663c.3173 0 .527-.062.629-.187.1133-.125.1983-.34.255-.646l.323-1.598h1.207l-.476 2.431h1.853l-.221 1.156h-1.853l-1.309 6.46h1.717l-.221 1.156zm6.6353-10.829c-.2607 0-.4477-.057-.561-.17-.102-.125-.153-.266-.153-.425 0-.034 0-.079 0-.136.0113-.068.034-.181.068-.34.0453-.215.136-.38.272-.493.1473-.125.3627-.187.646-.187.2607 0 .442.062.544.187.1133.113.17.249.17.408 0 .034-.0057.085-.017.153 0 .057-.017.164-.051.323-.0453.215-.1417.385-.289.51-.136.113-.3457.17-.629.17zm-1.445 10.829c-.3967 0-.697-.096-.901-.289-.1927-.204-.289-.465-.289-.782 0-.102.017-.238.051-.408l1.462-7.293h1.309l-1.53 7.616h1.241l-.221 1.156zm6.4204.204c-.4646 0-.8896-.074-1.275-.221-.3853-.159-.7196-.385-1.003-.68-.272-.306-.4873-.68-.646-1.122-.1586-.453-.238-.98-.238-1.581 0-.737.1077-1.439.323-2.108.2267-.68.5384-1.275.935-1.785.3967-.51.8727-.918 1.428-1.224.5554-.306 1.1674-.459 1.836-.459.4534 0 .8727.079 1.258.238.3967.147.731.374 1.003.68.2834.295.5044.669.663 1.122.1587.453.238.975.238 1.564 0 .737-.1133 1.445-.34 2.125-.2153.669-.5213 1.258-.918 1.768-.3966.51-.8726.918-1.428 1.224-.5553.306-1.1673.459-1.836.459zm.17-1.173c.6347 0 1.2014-.232 1.7-.697.4987-.465.8387-1.145 1.02-2.04l.255-1.275c.0567-.283.085-.538.085-.765 0-.612-.1756-1.105-.527-1.479-.34-.385-.8443-.578-1.513-.578-.6346 0-1.2013.232-1.7.697-.4986.465-.8386 1.145-1.02 2.04l-.255 1.275c-.0566.283-.085.538-.085.765 0 .612.17 1.111.51 1.496.3514.374.8614.561 1.53.561zm5.7937.969 1.768-8.772h1.309l-.357 1.734h.085c.306-.657.6687-1.145 1.088-1.462.4307-.317.9633-.476 1.598-.476.7593 0 1.326.215 1.7.646s.561 1.026.561 1.785c0 .159-.0113.334-.034.527-.0113.193-.0397.397-.085.612l-.85 4.25h1.241l-.221 1.156h-1.241c-.3287 0-.595-.079-.799-.238-.1927-.159-.289-.408-.289-.748 0-.057 0-.108 0-.153s.0113-.113.034-.204l.816-4.063c.034-.17.0567-.334.068-.493.0113-.17.017-.306.017-.408 0-.499-.1077-.867-.323-1.105-.204-.249-.544-.374-1.02-.374-.612 0-1.1503.232-1.615.697-.2947.295-.544.646-.748 1.054s-.34.788-.408 1.139l-.986 4.896zm14.1909-4.471.272-1.394h4.267l-.272 1.394zm10.1328 4.471.238-1.224h3.4l1.921-9.588h-.136l-3.519 2.788-.697-.901 3.689-2.941h2.244l-2.125 10.642h3.162l-.238 1.224zm13.8143.204c-.5326 0-1.003-.096-1.411-.289-.3966-.204-.7253-.482-.986-.833-.2606-.363-.459-.793-.595-1.292-.1246-.499-.187-1.054-.187-1.666 0-.601.0454-1.224.136-1.87.0907-.646.2267-1.269.408-1.87.1927-.612.4307-1.184.714-1.717.2834-.544.6177-1.014 1.003-1.411.3854-.408.8217-.731 1.309-.969.4874-.238 1.0314-.357 1.632-.357.5327 0 .9974.102 1.394.306.3967.193.7254.47.986.833.272.351.4704.776.595 1.275.136.499.204 1.054.204 1.666 0 .601-.0453 1.224-.136 1.87-.0906.646-.2323 1.275-.425 1.887-.1813.601-.4136 1.173-.697 1.717-.2833.533-.6176 1.003-1.003 1.411-.3853.397-.8273.714-1.326.952-.4873.238-1.0256.357-1.615.357zm.17-1.207c.408 0 .782-.096 1.122-.289s.6404-.459.901-.799c.2607-.34.4817-.748.663-1.224.1927-.487.3457-1.02.459-1.598l.357-1.785c.0567-.261.0964-.521.119-.782.0227-.261.034-.51.034-.748 0-.816-.1643-1.456-.493-1.921-.3286-.476-.8216-.714-1.479-.714-.408 0-.782.096-1.122.289s-.6403.459-.901.799c-.2606.34-.4873.754-.68 1.241-.1813.476-.3286 1.003-.442 1.581l-.357 1.785c-.0566.261-.0963.521-.119.782-.0226.261-.034.51-.034.748 0 .816.1644 1.462.493 1.938.3287.465.8217.697 1.479.697zm12.086-7.769h1.3094l-.391 1.904h.051c.362-.737.765-1.269 1.207-1.598.442-.34.986-.51 1.632-.51.804 0 1.45.3 1.938.901.487.589.731 1.405.731 2.448 0 .646-.091 1.315-.272 2.006-.17.68-.431 1.309-.782 1.887-.352.567-.799 1.031-1.343 1.394-.533.363-1.162.544-1.887.544-.261 0-.516-.034-.765-.102-.25-.068-.476-.17-.68-.306s-.38-.306-.527-.51c-.1478-.204-.2554-.442-.3234-.714h-.068l-.969 4.828h-1.309zm2.0744 7.786c.714 0 1.303-.232 1.768-.697.464-.465.782-1.122.952-1.972l.255-1.275c.056-.317.085-.606.085-.867 0-.578-.136-1.054-.408-1.428-.261-.374-.686-.561-1.275-.561-.386 0-.726.079-1.02.238-.284.159-.556.368-.816.629-.284.283-.516.595-.697.935-.182.34-.318.731-.408 1.173l-.357 1.785c-.0571.272-.0628.533-.017.782.045.249.147.47.306.663.158.181.368.329.629.442.272.102.606.153 1.003.153zm4.416.986 3.978-4.539-2.142-4.233h1.428l1.581 3.366h.085l2.856-3.366h1.496l-3.808 4.352 2.312 4.42h-1.428l-1.751-3.57h-.085l-3.026 3.57z"/></g></svg>