<svg fill="none" height="913" viewBox="0 0 1004 913" width="1004" xmlns="http://www.w3.org/2000/svg"><g stroke-miterlimit="10" stroke-width="10"><path d="m601.667 103.286c0-67.4015-67.397-67.4015-67.397 0v67.401c-.001 67.402 67.397 67.402 67.397 0v-33.7" stroke="#0a95c8"/><path d="m950.715 343.248c0-37.42 37.418-37.42 37.418 0v37.42c0 37.42-37.418 37.42-37.418 0v-18.71" stroke="#ed1c4e"/><path d="m144.423 512.991c0-37.42 37.418-37.42 37.418 0v37.42c0 37.42-37.418 37.42-37.418 0v-18.71" stroke="#10a79b"/><path d="m623.758 411.776c0 28.516-28.514 28.516-28.514 0v-28.516c0-28.516 28.514-28.516 28.514 0v14.202" stroke="#ed1c4e"/><path d="m841.729 480.531-110.113 197.809c-20.174 36.18-6.988 82.505 29.191 102.68 28.965 16.118 80.133 11.159 102.674-29.192 20.174-36.18 6.988-82.505-29.191-102.68" stroke="#fff"/><path d="m912.507 377.625v121.503c0 22.204 18.259 40.464 40.461 40.464 17.808 0 40.461-15.78 40.461-40.464 0-22.204-18.258-40.463-40.461-40.463" stroke="#e18c42"/><path d="m895.827 337.05c-1.352-23.332-21.413-41.14-43.842-39.9-21.414 1.24-38.883 19.274-38.996 41.14-.112 21.866 17.357 40.463 39.447 41.59h44.744" stroke="#fff"/><path d="m719.331 175.984c29.416 1.691 51.957 27.051 50.379 55.454-1.465 27.051-24.457 49.142-52.069 49.255-27.726.113-51.169-21.866-52.634-49.818v-56.582" stroke="#e18c42"/><path d="m658.922 50.8742c2.028-23.2186 22.766-40.3507 45.194-38.3219 21.302 1.9161 38.207 20.6262 37.531 42.4922-.676 21.8661-18.709 39.7872-40.799 40.238-14.877-.4508-29.754-1.0144-44.744-1.4652" stroke="#10a79b"/><path d="m149.156 786.543c-2.028-23.219-22.766-40.351-45.194-38.322-21.3017 1.916-38.2075 20.626-37.5313 42.492.6763 21.866 18.7091 39.787 40.7993 40.238 14.877-.451 29.754-1.014 44.744-1.465" stroke="#fff"/><g stroke="#eabb65"><path d="m80.4061 122.897c-41.2501-.563-74.83616 32.574-75.39969 71.798-.56354 41.365 35.95289 73.149 75.39969 73.262 39.5599.113 73.5959-31.672 76.1889-72.473v-190.483"/><path d="m969.424 273.48h-108.986c-27.725.112-52.971 14.201-64.805 36.969-15.553 29.981-5.635 70.445 25.809 93.1"/><path d="m659.935 143.861h108.986c27.725-.113 52.971-14.202 64.805-36.97 15.554-29.981 5.635-70.4444-25.809-93.0995"/></g><path d="m797.436 887.306h108.985c27.726-.112 52.972-14.201 64.806-36.969 15.553-29.981 5.635-70.445-25.81-93.1" stroke="#0a95c8"/><path d="m288.009 893.055h108.986c27.725-.112 52.971-14.201 64.805-36.969 15.553-29.981 5.635-70.445-25.809-93.1" stroke="#eabb65"/><path d="m792.702 238.313 160.267.001" stroke="#fff"/><path d="m835.53 584.112h160.379" stroke="#fff"/><path d="m175.417 5 337.889.00006" stroke="#10a79b"/><path d="m119.064 893.055h158.576" stroke="#10a79b"/><path d="m981.821 97.1987v160.3883" stroke="#0a95c8"/><path d="m350.899 101.707v160.389" stroke="#e18c42"/><path d="m836.545 616.235c53.196 19.95 80.584 79.913 61.086 132.887-19.724 53.651-80.359 80.589-133.218 61.203-53.535-19.612-81.824-80.364-61.875-134.578" stroke="#eabb65"/><path d="m243.49 581.295 3.043-87.351c.564-16.005 14.201-28.629 30.093-28.065 12.735.45 28.739 12.285 28.063 30.094-.563 16.005-14.201 28.628-30.092 28.065" stroke="#0a95c8"/><path d="m266.595 549.172c30.431 5.636 60.072-14.539 65.933-44.746 5.86-30.545-14.765-60.188-44.857-66.049-30.543-5.974-60.748 14.427-66.721 45.31" stroke="#ed1c4e"/><path d="m108.47 893.055c-56.8031-.338-103.35029-47-103.46298-103.469-.1127-57.145 47.33618-103.469 103.68898-103.695 57.028-.225 104.59 46.889 104.703 104.71" stroke="#e18c42"/><path d="m417.62 109.822c18.032-1.578 31.332-17.5831 29.754-35.0534-1.465-16.5686-16.004-29.6432-32.91-29.1923-17.019.4508-30.881 14.5397-31.219 31.6719.338 11.6093.789 23.1058 1.127 34.7148" stroke="#fff"/><path d="m61.8096 387.093c-25.2459-2.254-43.8423-24.683-41.7009-49.029 2.0287-23.219 22.4284-41.478 46.2091-40.802 23.7808.677 43.2792 20.288 43.7292 44.296-.563 16.23-1.127 32.348-1.578 48.579" stroke="#fff"/><path d="m203.932 91.5633c1.916 55.2287 75.625 52.6367 73.709-2.5923-1.916-55.2287 71.793-57.821 73.709-2.5924" stroke="#0a95c8"/><path d="m248.901 702.234v160.276" stroke="#ed1c4e"/><path d="m112.415 410.762c1.916 55.228 75.625 52.636 73.709-2.593-1.916-55.228 71.793-57.821 73.709-2.592" stroke="#eabb65"/><path d="m531.452 844.025c-25.246-2.254-43.843-24.684-41.701-49.029 2.029-23.219 22.428-41.478 46.209-40.802s43.279 20.288 43.729 44.296c-.563 16.23-1.127 32.348-1.577 48.578" stroke="#e18c42"/><path d="m582.057 867.582c1.916 55.229 75.625 52.636 73.709-2.592-1.916-55.229 71.793-57.822 73.709-2.593" stroke="#ed1c4e"/><path d="m946.545 176.435c.789-55.342-72.92-56.356-73.709-1.015-.789 55.342-74.498 54.327-73.709-1.014" stroke="#10a79b"/><path d="m915.663 107.456c20.354 0 36.855-16.5018 36.855-36.8571 0-20.3554-16.501-36.8567-36.855-36.8567s-36.854 16.5013-36.854 36.8567c0 20.3553 16.5 36.8571 36.854 36.8571z" stroke="#ed1c4e"/><path d="m398.235 863.637c20.354 0 36.854-16.501 36.854-36.857 0-20.355-16.5-36.856-36.854-36.856s-36.855 16.501-36.855 36.856c0 20.356 16.501 36.857 36.855 36.857z" stroke="#0a95c8"/><path d="m82.8858 230.875c20.3542 0 36.8542-16.502 36.8542-36.857 0-20.356-16.5-36.857-36.8542-36.857s-36.8546 16.501-36.8546 36.857c0 20.355 16.5004 36.857 36.8546 36.857z" stroke="#ed1c4e"/><path d="m908 5s73.709.00001 73.709 73.7134" stroke="#fff"/><path d="m203.819 648.921h-160.3795" stroke="#fff"/><path d="m14.6992 507.919v160.276" stroke="#eabb65"/><path d="m49.8632 587.155c-.7889-55.341 72.9198-56.355 73.7088-1.014s74.498 54.327 73.709-1.014" stroke="#ed1c4e"/><path d="m433.286 674.733h81.824" stroke="#fff"/><path d="m308.521 636.071c-37.418-.563-38.094 49.368-.676 49.931 37.418.564 36.742 50.382-.676 49.932" stroke="#e18c42"/><path d="m298.828 285.652c-37.418-.563-38.094 49.368-.676 49.931 37.418.564 36.742 50.382-.676 49.932" stroke="#fff"/><path d="m80.7447 518.065c20.3543 0 36.8543-16.501 36.8543-36.857 0-20.355-16.5-36.856-36.8543-36.856-20.3542 0-36.8546 16.501-36.8546 36.856 0 20.356 16.5004 36.857 36.8546 36.857z" stroke="#e18c42"/><path d="m88.4083 415.722s-73.7091 0-73.7091 73.713" stroke="#10a79b"/><path d="m634.577 99.3403s0-93.32515-93.32-93.32516" stroke="#ed1c4e"/><path d="m545.652 616.686c0-67.402 67.398-67.402 67.398 0v67.401c0 67.402-67.398 67.402-67.398 0v-33.7" stroke="#ed1c4e"/><path d="m488.398 564.275c-2.028-23.218-22.766-40.351-45.194-38.322-21.302 1.916-38.207 20.626-37.531 42.492s18.709 39.788 40.799 40.238c14.877-.45 29.754-1.014 44.744-1.465" stroke="#10a79b"/><path d="m512.743 612.74s0-93.325 93.32-93.325" stroke="#0a95c8"/><path d="m829.106 408.733s43.166 27.389 18.033 64.584" stroke="#ed1c4e"/><path d="m428.214 754.983s-43.166-27.389-18.033-64.584" stroke="#ed1c4e"/><path d="m685.294 484.25-269.703-1.015c-25.584 0-48.914 13.3-59.846 34.265-14.427 27.614-5.185 65.034 23.78 86.111" stroke="#eabb65"/><path d="m715.612 483.235c49.252 0 49.252-49.254 0-49.254s-49.252-49.255 0-49.255 49.252-49.255 0-49.255h-98.392" stroke="#fff"/><path d="m222.978 335.921c-49.252 0-49.252-49.255 0-49.255s49.252-49.255 0-49.255-49.252-49.255 0-49.255h98.392" stroke="#10a79b"/><path d="m61.8098 87.0552c-27.0492 0-27.0492-27.0508 0-27.0508 27.0493 0 27.0493-27.0508 0-27.0508-27.0492 0-27.0492-27.05077.0001-27.05076l54.0981.00001" stroke="#0a95c8"/><path d="m376.821 355.195c-11.383.113-20.512 9.243-20.625 20.627 0 12.623 11.496 20.626 20.625 20.626 11.383 0 20.513-9.243 20.625-20.626v-61.766" stroke="#10a79b"/><path d="m436.104 222.984c20.963.226 38.094-16.568 38.32-36.405.225-20.965-18.258-37.195-38.32-37.195-20.061 0-37.418 16.118-38.658 36.856v96.82" stroke="#ed1c4e"/><path d="m636.38 741.796c-11.383 0-20.512 9.242-20.625 20.626 0 12.624 11.496 20.626 20.625 20.626 11.383 0 20.512-9.242 20.625-20.626v-61.766" stroke="#e18c42"/><path d="m298.152 814.382c-11.383.113-20.512 9.242-20.625 20.626 0 12.624 11.496 20.626 20.625 20.626 11.384 0 20.513-9.242 20.625-20.626v-61.766" stroke="#fff"/><path d="m695.663 609.584c20.963.225 38.095-16.569 38.32-36.406.338-20.964-18.258-37.195-38.32-37.195-20.061 0-37.418 16.118-38.658 36.857v96.819" stroke="#0a95c8"/><path d="m969.536 679.918c15.666.225 28.515-12.399 28.627-27.277.226-15.666-13.637-27.839-28.627-27.839-14.989 0-27.95 12.06-28.965 27.614v72.474" stroke="#ed1c4e"/><path d="m473.184 356.66c-25.697-19.837-30.543-57.144-10.933-82.73 19.836-25.924 57.367-30.432 82.951-10.933 25.922 19.725 31.107 57.596 11.045 83.745" stroke="#e18c42"/><path d="m548.696 354.068-53.986 43.507c-9.918 8.003-11.383 22.542-3.494 32.461 6.424 7.89 21.527 12.398 32.459 3.494 9.918-8.002 11.384-22.542 3.494-32.461" stroke="#fff"/></g></svg>