<svg xmlns="http://www.w3.org/2000/svg" xmlns:xlink="http://www.w3.org/1999/xlink" viewBox="0 0 436.29 436.58"><defs><style>.cls-1{fill:none;}.cls-2{clip-path:url(#clip-path);}</style><clipPath id="clip-path" transform="translate(0 0)"><rect class="cls-1" width="436.29" height="436.55"/></clipPath></defs><g id="Layer_2" data-name="Layer 2"><g id="Layer_1-2" data-name="Layer 1"><g class="cls-2"><path class="cls-1-quote" d="M436,102.09a133.71,133.71,0,0,0-2.13-23.46c-1.76-9.46-4.36-18.64-8.81-27.17a94.77,94.77,0,0,0-18.17-24.2,89.13,89.13,0,0,0-39.7-22.62C353.47.93,339.37.19,325.28.19c-.09-.1-.09-.1-.09-.19h-214V.19c-8.07.18-16,.09-24,1.11A102.11,102.11,0,0,0,61.48,7,91,91,0,0,0,27.35,29.3,89.66,89.66,0,0,0,4.64,69.08C1,82.71.19,96.62.19,110.62L0,325.47c.28,9.73.37,19.47,2,29.11,1.76,10.2,4.17,20.12,8.9,29.4a92.34,92.34,0,0,0,26.24,31.71A88.27,88.27,0,0,0,63.33,430c14,4.54,28.47,6.3,43.21,6.3,9.18.1,18.27.28,27.45.28,32.82-.09,65.74,0,98.57,0V290.69H183.5v-58.6h49.06v-42s-3.53-69.73,65.18-75.3h52.11v53H311.93s-16.14,3.1-18.73,18.21v45h54.15l-6,56.1H292.27V436.37c13.72-.1,27.54-.19,41.26-.38a154.11,154.11,0,0,0,26.15-2.78,89,89,0,0,0,43.86-21.32c14.65-13.08,24.48-29,28.93-48.31,2.88-12.61,3.62-25.41,3.8-38.21v-2.59c.1-.84-.27-217.91-.27-220.69Z" transform="translate(0 0)"/></g></g></g></svg>
