<svg fill="none" height="437" viewBox="0 0 437 437" width="437" xmlns="http://www.w3.org/2000/svg" xmlns:xlink="http://www.w3.org/1999/xlink"><clipPath id="a"><path d="m0 0h436.29v436.55h-436.29z"/></clipPath><g clip-path="url(#a)"><path d="m232.548 436.554 59.722-.183 73.701-146.06v-186.054h-187.878v186.054z" fill="#fff"/><path d="m436 102.09c-.015-7.8676-.728-15.7183-2.13-23.46-1.76-9.46-4.36-18.64-8.81-27.17-4.724-8.9863-10.858-17.1567-18.17-24.2-11.042-10.8623-24.726-18.65857-39.7-22.62-13.72-3.71-27.82-4.45-41.91-4.45-.09-.1-.09-.1-.09-.19h-214v.19c-8.07.18-16 .09-24 1.11-8.7803.78107-17.4223 2.69704-25.71 5.7-12.916 4.758-24.5852 12.3824-34.13 22.3-10.8863 11.0703-18.71157 24.7775-22.71 39.78-3.64 13.63-4.45 27.54-4.45 41.54l-.19 214.85c.28 9.73.37 19.47 2 29.11 1.76 10.2 4.17 20.12 8.9 29.4 6.2545 12.406 15.2231 23.245 26.24 31.71 7.8535 6.223 16.7103 11.063 26.19 14.31 14 4.54 28.47 6.3 43.21 6.3 9.18.1 18.27.28 27.45.28 32.82-.09 65.74 0 98.57 0v-145.89h-49.06v-58.6h49.06v-42s-3.53-69.73 65.18-75.3h52.11v53h-37.92s-16.14 3.1-18.73 18.21v45h54.15l-6 56.1h-49.08v149.27c13.72-.1 27.54-.19 41.26-.38 8.78-.178 17.529-1.108 26.15-2.78 16.32-2.884 31.51-10.268 43.86-21.32 14.65-13.08 24.48-29 28.93-48.31 2.88-12.61 3.62-25.41 3.8-38.21v-2.59c.1-.84-.27-217.91-.27-220.69z" fill="#4267b2"/></g></svg>