<svg xmlns="http://www.w3.org/2000/svg" xmlns:xlink="http://www.w3.org/1999/xlink" viewBox="0 0 435.83 436.29"><defs><style>.cls-1{fill:none;}.cls-2{clip-path:url(#clip-path);}</style><clipPath id="clip-path" transform="translate(0 0)"><rect class="cls-1" width="435.8" height="436.29"/></clipPath></defs><g id="Layer_2" data-name="Layer 2"><g id="Layer_1-2" data-name="Layer 1"><g class="cls-2"><path class="cls-1-quote" d="M217.94,165.51a52.54,52.54,0,1,0,37.12,15.38,52.53,52.53,0,0,0-37.12-15.38Z" transform="translate(0 0)"/><path class="cls-1-quote" d="M279.72,84.19H156.16A72.14,72.14,0,0,0,84.1,156.25V279.9A72.13,72.13,0,0,0,156.16,352H279.81a72.14,72.14,0,0,0,72.06-72.06V156.25a72.18,72.18,0,0,0-72.15-72.06ZM217.94,298.33a80.24,80.24,0,1,1,30.73-6.1,80.31,80.31,0,0,1-30.73,6.1Zm88.27-148.47a19.91,19.91,0,1,1,14-5.85,19.84,19.84,0,0,1-14,5.85Z" transform="translate(0 0)"/><path class="cls-1-quote" d="M435.51,102a133.48,133.48,0,0,0-2.13-23.44c-1.76-9.44-4.36-18.61-8.8-27.14a94.58,94.58,0,0,0-18.16-24.17,89,89,0,0,0-39.64-22.6C353.07.93,339,.19,324.92.19c-.1-.1-.1-.1-.1-.19H111.05V.19c-8,.18-16,.09-24,1.11A110.47,110.47,0,0,0,61.41,7,92.12,92.12,0,0,0,4.63,69.1C1,82.71.19,96.6.19,110.59L0,325.19c.28,9.73.37,19.45,2,29.09,1.75,10.19,4.16,20.1,8.89,29.36A93.5,93.5,0,0,0,37.1,415.41a88.13,88.13,0,0,0,26.21,14.26c14,4.54,28.44,6.3,43.16,6.3,9.17.09,18.25.28,27.42.28,66.41-.28,132.91.46,199.32-.37a153.76,153.76,0,0,0,26.12-2.78,88.91,88.91,0,0,0,43.81-21.3c14.63-13.06,24.45-29,28.9-48.26,2.87-12.6,3.61-25.38,3.79-38.16v-2.59c.05-1.12-.32-217.94-.32-220.79ZM379.56,279.81a99.83,99.83,0,0,1-99.75,99.75H156.16a99.83,99.83,0,0,1-99.75-99.75V156.25A99.83,99.83,0,0,1,156.16,56.5H279.81a99.85,99.85,0,0,1,99.75,99.75Z" transform="translate(0 0)"/></g></g></g></svg>
