<svg fill="none" height="437" viewBox="0 0 437 437" width="437" xmlns="http://www.w3.org/2000/svg" xmlns:xlink="http://www.w3.org/1999/xlink"><clipPath id="a"><path d="m0 .26001h436.29v436.29h-436.29z"/></clipPath><g clip-path="url(#a)"><path d="m344.049.26001h-251.8076c-49.66 0-89.93116 40.70219-89.93116 90.89369v254.5023c0 50.191 40.27116 90.894 89.93116 90.894h251.8076c49.678 0 89.931-40.703 89.931-90.894v-254.5023c0-50.1915-40.253-90.89369-89.931-90.89369zm-197.849 345.39599h-53.9586v-199.966h53.9586zm-26.979-223.017c-17.375 0-31.4762-14.361-31.4762-32.067 0-17.7061 14.1012-32.0673 31.4762-32.0673 17.374 0 31.476 14.3612 31.476 32.0673 0 17.706-14.084 32.067-31.476 32.067zm242.814 223.017h-53.959v-101.874c0-61.226-71.945-56.59-71.945 0v101.874h-53.958v-199.966h53.958v32.085c25.109-47.01 125.904-50.482 125.904 45.011z" fill="#ecf2fb"/></g></svg>