<svg xmlns="http://www.w3.org/2000/svg" xmlns:xlink="http://www.w3.org/1999/xlink" viewBox="0 0 431.67 436.29"><defs><style>.cls-1{fill:none;}.cls-2{clip-path:url(#clip-path);}</style><clipPath id="clip-path" transform="translate(-2.31)"><rect class="cls-1" width="436.29" height="436.29"/></clipPath></defs><g id="Layer_2" data-name="Layer 2"><g id="Layer_1-2" data-name="Layer 1"><g class="cls-2"><path class="cls-1-quote" d="M344.05,0H92.24C42.58,0,2.31,40.7,2.31,90.89V345.4c0,50.19,40.27,90.89,89.93,90.89H344.05c49.68,0,89.93-40.7,89.93-90.89V90.89C434,40.7,393.73,0,344.05,0ZM146.2,345.4h-54v-200h54Zm-27-223c-17.37,0-31.48-14.36-31.48-32.07s14.11-32.07,31.48-32.07S150.7,72.61,150.7,90.31,136.61,122.38,119.22,122.38ZM362,345.4h-54V243.52c0-61.22-71.95-56.59-71.95,0V345.4h-54v-200h54v32.08c25.11-47,125.9-50.48,125.9,45Z" transform="translate(-2.31)"/></g></g></g></svg>
