<svg enable-background="new 0 0 100 100" viewBox="0 0 100 100" xmlns="http://www.w3.org/2000/svg"><path d="m55.8 44.7c1-1.8 2.4-3.4 4-4.7-3.4-4.1-7.3-7.1-11.8-9-.7-.3-1.4-.6-2.2-.8-3.8 4.4-5.7 10.4-5.7 17.8 0 10.8 4.1 17.5 9.1 21.7.8-2.4 1.4-5.4 2-8.9.9-5.1 1.9-11 4.6-16.1z" fill="none"/><path d="m9.9 64.6c.8.4 1.8.1 2.2-.7l2.7-5.2c-.6 5.1-.7 13.3 3.4 18.3 2.3 2.9 5.7 4.4 10 4.4h.1c6.4-.1 9.9-2.7 12.1-6.5 8.5 5.2 18 5.4 18.1 5.4.9 0 1.6-.7 1.6-1.6s-.7-1.6-1.6-1.6c-.6 0-9.2-.2-16.9-5 1.2-3.1 1.8-6.7 2.4-10.3.9-5.2 1.8-10.6 4.3-15.2.8-1.4 1.8-2.6 3.1-3.6 1.7 2.4 3.2 5.1 4.6 8.2l-4.3-4.1c-.6-.6-1.7-.6-2.3.1-.6.6-.6 1.7.1 2.3l10.5 9.6c.3.3.7.4 1.1.4.2 0 .5-.1.7-.2.6-.3 1-.9.9-1.6l-1.2-13.7c-.1-.9-.9-1.5-1.7-1.5-.9.1-1.5.8-1.5 1.7l.4 4.8c-1.3-2.8-2.8-5.4-4.5-7.8 7.5-3.9 19.1-4.2 26.1-3.9l-5.2 1.3c-.9.2-1.4 1.1-1.2 1.9.2.7.8 1.2 1.6 1.2h.4l13.8-3.5c.6-.2 1.1-.7 1.2-1.4s-.3-1.3-.8-1.6l-12.3-6.5c-.8-.4-1.8-.1-2.2.7s-.1 1.8.7 2.2l4.6 2.4c-7.5-.3-20.2-.1-28.6 4.5-3.8-4.6-8.2-8.1-13.3-10.2-.3-.1-.6-.2-.9-.3 8.3-6.9 20.2-6.3 20.3-6.3.9.1 1.6-.6 1.7-1.5 0-.9-.6-1.6-1.5-1.7-.6 0-14.3-.7-23.7 8.1-.1.1-.2.2-.3.3-11.9-3.1-22.4 1.4-22.9 1.6-.7.5-1.1 1.4-.7 2.2s1.3 1.2 2.1.8c.1 0 8.9-3.9 19.1-1.8-3.7 4.9-5.5 11.1-5.5 18.7 0 12.5 5 20 11.1 24.7-1.8 3.3-4.5 5.1-9.5 5.1-3.4 0-5.9-1-7.6-3.2-3-3.8-3.2-10.1-2.8-14.7l1.2 4.7c.2.7.8 1.2 1.6 1.2h.4c.9-.2 1.4-1.1 1.2-1.9l-3.5-13.8c-.2-.6-.7-1.1-1.4-1.2s-1.3.3-1.6.8l-6.5 12.3c-.5.8-.2 1.8.6 2.2zm20-16.2c0-7.4 1.9-13.4 5.7-17.8.7.2 1.4.5 2.2.8 4.5 1.9 8.4 4.9 11.8 9-1.7 1.3-3 2.8-4 4.7-2.7 5-3.7 10.9-4.6 16.1-.6 3.5-1.2 6.4-2 8.9-5-4.2-9.1-10.9-9.1-21.7z" fill="#4c81f6"/></svg>