<svg viewBox="0 0 300.98 320.98" xmlns="http://www.w3.org/2000/svg"><g fill="#fff" transform="translate(-.82 -3.24)"><path d="m23.52 25.5v-18l-8.82 15.21h-.7l-8.84-15.12v17.91h-1.5v-21h1.34l9.39 16.23 9.34-16.23h1.27v21z"/><path d="m34 24.6a7.28 7.28 0 0 1 -2.8-2.84 8.19 8.19 0 0 1 -1-4.09 8.19 8.19 0 0 1 1-4.09 7.35 7.35 0 0 1 2.8-2.84 8.37 8.37 0 0 1 8 0 7.37 7.37 0 0 1 2.81 2.84 8.19 8.19 0 0 1 1 4.09 8.19 8.19 0 0 1 -1 4.09 7.31 7.31 0 0 1 -2.81 2.84 8.37 8.37 0 0 1 -8 0zm7.23-1.17a6 6 0 0 0 2.25-2.34 7 7 0 0 0 .83-3.42 7 7 0 0 0 -.83-3.42 6 6 0 0 0 -2.25-2.34 6.61 6.61 0 0 0 -6.45 0 6 6 0 0 0 -2.25 2.34 7 7 0 0 0 -.82 3.42 7 7 0 0 0 .82 3.42 6 6 0 0 0 2.25 2.34 6.61 6.61 0 0 0 6.45 0z"/><path d="m62.76 11.43a6.66 6.66 0 0 1 1.71 4.92v9.15h-1.47v-9a5.56 5.56 0 0 0 -1.34-4 4.94 4.94 0 0 0 -3.73-1.38 5.76 5.76 0 0 0 -4.35 1.65 6.13 6.13 0 0 0 -1.58 4.39v8.34h-1.5v-15.66h1.4v3.39a6 6 0 0 1 2.41-2.58 7.46 7.46 0 0 1 3.8-.93 6.28 6.28 0 0 1 4.65 1.71z"/><path d="m78.42 24.51a3.66 3.66 0 0 1 -1.43.82 5.58 5.58 0 0 1 -1.78.29 4.23 4.23 0 0 1 -3.15-1.12 4.28 4.28 0 0 1 -1.06-3.14v-10.23h-2.93v-1.29h2.93v-3.42h1.5v3.42h5v1.29h-5v10.08a3.34 3.34 0 0 0 .73 2.33 2.83 2.83 0 0 0 2.18.79 3.48 3.48 0 0 0 2.43-.87z"/><path d="m83 25.05a7.45 7.45 0 0 1 -2.67-1.44l.69-1.2a7.91 7.91 0 0 0 2.47 1.35 9.38 9.38 0 0 0 3.17.54 6.19 6.19 0 0 0 3.49-.78 2.49 2.49 0 0 0 1.13-2.16 2 2 0 0 0 -.62-1.56 3.77 3.77 0 0 0 -1.56-.8q-.9-.27-2.49-.57a20.79 20.79 0 0 1 -3-.72 4.7 4.7 0 0 1 -2-1.26 3.38 3.38 0 0 1 -.81-2.4 3.77 3.77 0 0 1 1.54-3.08 7 7 0 0 1 4.4-1.21 10.76 10.76 0 0 1 3 .42 7.43 7.43 0 0 1 2.4 1.11l-.69 1.2a7.17 7.17 0 0 0 -2.19-1 8.93 8.93 0 0 0 -2.5-.49 5.58 5.58 0 0 0 -3.3.81 2.52 2.52 0 0 0 -1.11 2.19 2.15 2.15 0 0 0 .65 1.62 4.21 4.21 0 0 0 1.54.87c.61.19 1.47.39 2.57.61a22 22 0 0 1 3 .7 4.62 4.62 0 0 1 1.89 1.2 3.26 3.26 0 0 1 .78 2.31 3.66 3.66 0 0 1 -1.62 3.12 7.69 7.69 0 0 1 -4.56 1.17 11.31 11.31 0 0 1 -3.6-.55z"/><path d="m110.16 18h-13.47a6.59 6.59 0 0 0 .93 3.26 5.93 5.93 0 0 0 2.35 2.2 7.51 7.51 0 0 0 6.18.22 5.53 5.53 0 0 0 2.18-1.63l.87 1a6.7 6.7 0 0 1 -2.57 1.95 8.92 8.92 0 0 1 -7.51-.36 7.41 7.41 0 0 1 -2.87-2.82 8.09 8.09 0 0 1 -1-4.11 8.49 8.49 0 0 1 1-4.09 7.22 7.22 0 0 1 2.69-2.84 7.77 7.77 0 0 1 7.66 0 7.22 7.22 0 0 1 2.67 2.81 8.43 8.43 0 0 1 1 4.08zm-10.41-6.22a5.66 5.66 0 0 0 -2.12 2.06 6.8 6.8 0 0 0 -.91 3h12a6.28 6.28 0 0 0 -.9-3 5.83 5.83 0 0 0 -5.1-2.82 6 6 0 0 0 -2.97.76z"/><path d="m118.53 10.63a7.22 7.22 0 0 1 3.72-.91v1.47h-.36a5.24 5.24 0 0 0 -4.08 1.63 6.59 6.59 0 0 0 -1.47 4.55v8.13h-1.5v-15.66h1.44v3.42a5.48 5.48 0 0 1 2.25-2.63z"/><path d="m130.08 10.63a7.22 7.22 0 0 1 3.72-.91v1.47h-.36a5.24 5.24 0 0 0 -4.08 1.63 6.59 6.59 0 0 0 -1.47 4.55v8.13h-1.5v-15.66h1.44v3.42a5.48 5.48 0 0 1 2.25-2.63z"/><path d="m147.69 11.21a5.74 5.74 0 0 1 1.56 4.36v9.93h-1.44v-2.79a5.28 5.28 0 0 1 -2.19 2.15 7.26 7.26 0 0 1 -3.45.76 6.37 6.37 0 0 1 -4.17-1.23 4 4 0 0 1 -1.51-3.24 4 4 0 0 1 1.43-3.15 6.66 6.66 0 0 1 4.46-1.22h5.37v-1.27a4.41 4.41 0 0 0 -1.19-3.33 4.8 4.8 0 0 0 -3.46-1.18 8.38 8.38 0 0 0 -3 .54 7.46 7.46 0 0 0 -2.4 1.46l-.7-1.06a8.51 8.51 0 0 1 2.82-1.64 10.5 10.5 0 0 1 3.45-.58 6.19 6.19 0 0 1 4.42 1.49zm-2 12.28a5.48 5.48 0 0 0 2.06-2.61v-2.94h-5.34a5.33 5.33 0 0 0 -3.35.84 2.81 2.81 0 0 0 -1 2.31 2.87 2.87 0 0 0 1.14 2.41 5.13 5.13 0 0 0 3.21.89 5.87 5.87 0 0 0 3.28-.9z"/><path d="m163.2 24.51a3.66 3.66 0 0 1 -1.43.82 5.58 5.58 0 0 1 -1.78.29 4.23 4.23 0 0 1 -3.15-1.12 4.28 4.28 0 0 1 -1.11-3.14v-10.23h-2.88v-1.29h2.88v-3.42h1.5v3.42h5v1.29h-5v10.08a3.34 3.34 0 0 0 .73 2.33 2.83 2.83 0 0 0 2.18.79 3.48 3.48 0 0 0 2.43-.87z"/><path d="m175.56 4.5h1.53v19.62h12.09v1.38h-13.62z"/><path d="m192.51 5.68a1.11 1.11 0 0 1 -.36-.85 1.24 1.24 0 0 1 2.1-.88 1.11 1.11 0 0 1 .36.85 1.24 1.24 0 0 1 -2.1.88zm.12 4.16h1.5v15.66h-1.5z"/><path d="m214.56 9.84v14q0 3.9-1.89 5.76t-5.67 1.84a12.46 12.46 0 0 1 -4.08-.66 7.94 7.94 0 0 1 -3.12-1.78l.81-1.14a8.26 8.26 0 0 0 2.82 1.68 10.19 10.19 0 0 0 3.51.6 6.38 6.38 0 0 0 4.62-1.48 6.25 6.25 0 0 0 1.5-4.61v-2.69a6.65 6.65 0 0 1 -2.67 2.64 7.91 7.91 0 0 1 -3.84.93 8.17 8.17 0 0 1 -4-1 7.18 7.18 0 0 1 -2.8-2.72 7.63 7.63 0 0 1 -1-3.93 7.63 7.63 0 0 1 1-3.93 7.06 7.06 0 0 1 2.8-2.7 8.28 8.28 0 0 1 4-1 7.94 7.94 0 0 1 3.9 1 6.55 6.55 0 0 1 2.67 2.7v-3.51zm-4.59 13a5.82 5.82 0 0 0 2.29-2.22 6.4 6.4 0 0 0 .83-3.26 6.3 6.3 0 0 0 -.83-3.24 5.77 5.77 0 0 0 -2.29-2.2 7.19 7.19 0 0 0 -6.59 0 5.81 5.81 0 0 0 -2.28 2.2 6.29 6.29 0 0 0 -.82 3.24 6.39 6.39 0 0 0 .82 3.26 5.86 5.86 0 0 0 2.28 2.22 7.27 7.27 0 0 0 6.59 0z"/><path d="m233.22 11.43a6.66 6.66 0 0 1 1.71 4.92v9.15h-1.5v-9a5.56 5.56 0 0 0 -1.34-4 4.94 4.94 0 0 0 -3.73-1.38 5.76 5.76 0 0 0 -4.36 1.6 6.13 6.13 0 0 0 -1.59 4.44v8.34h-1.5v-22.26h1.5v9.87a5.74 5.74 0 0 1 2.4-2.5 7.59 7.59 0 0 1 3.75-.89 6.28 6.28 0 0 1 4.66 1.71z"/><path d="m248.88 24.51a3.66 3.66 0 0 1 -1.43.82 5.58 5.58 0 0 1 -1.78.29 4.23 4.23 0 0 1 -3.15-1.12 4.28 4.28 0 0 1 -1.11-3.14v-10.23h-2.88v-1.29h2.88v-3.42h1.5v3.42h5v1.29h-5v10.08a3.34 3.34 0 0 0 .73 2.33 2.83 2.83 0 0 0 2.18.79 3.48 3.48 0 0 0 2.43-.87z"/><path d="m25.23 41.5v21h-2.13v-16.8l-8.25 14.13h-1l-8.25-14v16.67h-2.18v-21h1.83l9.12 15.57 9-15.57z"/><path d="m34 61.62a7.63 7.63 0 0 1 -2.88-2.87 8.69 8.69 0 0 1 0-8.28 7.44 7.44 0 0 1 2.88-2.85 8.79 8.79 0 0 1 8.22 0 7.32 7.32 0 0 1 2.78 2.85 8.76 8.76 0 0 1 0 8.28 7.51 7.51 0 0 1 -2.86 2.87 8.72 8.72 0 0 1 -8.22 0zm7.08-1.62a5.36 5.36 0 0 0 2.09-2.18 7.24 7.24 0 0 0 0-6.42 5.42 5.42 0 0 0 -2.09-2.18 6.36 6.36 0 0 0 -6 0 5.51 5.51 0 0 0 -2.08 2.18 7.16 7.16 0 0 0 0 6.42 5.45 5.45 0 0 0 2.05 2.18 6.36 6.36 0 0 0 6 0z"/><path d="m63.19 48.33a6.73 6.73 0 0 1 1.76 5v9.17h-2.13v-8.94a5.23 5.23 0 0 0 -1.23-3.75 4.62 4.62 0 0 0 -3.51-1.29 5.41 5.41 0 0 0 -4.08 1.48 5.69 5.69 0 0 0 -1.48 4.18v8.32h-2.09v-15.78h2v2.91a5.92 5.92 0 0 1 2.41-2.24 7.88 7.88 0 0 1 3.59-.79 6.4 6.4 0 0 1 4.76 1.73z"/><path d="m79.05 61.54a4.21 4.21 0 0 1 -1.49.83 6.26 6.26 0 0 1 -1.84.28 4.18 4.18 0 0 1 -4.62-4.59v-9.54h-2.82v-1.8h2.82v-3.45h2.13v3.45h4.77v1.8h-4.8v9.42a3 3 0 0 0 .7 2.14 2.65 2.65 0 0 0 2 .74 3.89 3.89 0 0 0 1.27-.21 3.19 3.19 0 0 0 1.13-.61z"/><path d="m83.47 62.09a7.71 7.71 0 0 1 -2.74-1.39l1-1.68a8.08 8.08 0 0 0 2.49 1.27 9.9 9.9 0 0 0 3.12.5 5.94 5.94 0 0 0 3.19-.67 2.16 2.16 0 0 0 1-1.91 1.72 1.72 0 0 0 -.53-1.37 3.93 3.93 0 0 0 -1.44-.75 23.26 23.26 0 0 0 -2.31-.49 26.62 26.62 0 0 1 -3.09-.73 4.57 4.57 0 0 1 -2-1.28 3.54 3.54 0 0 1 -.82-2.49 3.9 3.9 0 0 1 1.66-3.24 7.41 7.41 0 0 1 4.59-1.26 12.36 12.36 0 0 1 3.06.4 8.68 8.68 0 0 1 2.52 1.07l-.93 1.71a8 8 0 0 0 -4.65-1.35 5.41 5.41 0 0 0 -3.08.72 2.2 2.2 0 0 0 -1 1.89 1.86 1.86 0 0 0 .49 1.44 3.63 3.63 0 0 0 1.46.8 23.7 23.7 0 0 0 2.4.52 27.61 27.61 0 0 1 3 .72 4.45 4.45 0 0 1 1.95 1.23 3.38 3.38 0 0 1 .81 2.4 3.81 3.81 0 0 1 -1.73 3.28 8.11 8.11 0 0 1 -4.78 1.22 12.15 12.15 0 0 1 -3.64-.56z"/><path d="m111.33 55.27h-13.2a5.65 5.65 0 0 0 1.89 4 6.32 6.32 0 0 0 4.32 1.51 7 7 0 0 0 2.7-.52 5.91 5.91 0 0 0 2.13-1.55l1.2 1.38a6.77 6.77 0 0 1 -2.63 1.91 9.47 9.47 0 0 1 -7.77-.37 7.53 7.53 0 0 1 -2.92-2.87 8.17 8.17 0 0 1 -1-4.14 8.45 8.45 0 0 1 1-4.14 7.28 7.28 0 0 1 2.76-2.85 7.72 7.72 0 0 1 3.95-1 7.63 7.63 0 0 1 3.93 1 7.24 7.24 0 0 1 2.73 2.84 8.52 8.52 0 0 1 1 4.15zm-11.45-5.39a5.74 5.74 0 0 0 -1.75 3.8h11.19a5.75 5.75 0 0 0 -1.76-3.8 5.81 5.81 0 0 0 -7.68 0z"/><path d="m120 47.41a7.62 7.62 0 0 1 3.68-.81v2.07h-.51a5 5 0 0 0 -3.9 1.53 6.1 6.1 0 0 0 -1.41 4.29v8h-2.13v-15.77h2v3.09a5.15 5.15 0 0 1 2.27-2.4z"/><path d="m131.77 47.41a7.62 7.62 0 0 1 3.68-.81v2.07h-.51a5 5 0 0 0 -3.9 1.53 6.1 6.1 0 0 0 -1.41 4.29v8h-2.13v-15.77h2v3.09a5.15 5.15 0 0 1 2.27-2.4z"/><path d="m149.52 48.14a6 6 0 0 1 1.65 4.58v9.78h-2v-2.5a4.9 4.9 0 0 1 -2.17 2 7.38 7.38 0 0 1 -3.31.69 6.49 6.49 0 0 1 -4.2-1.26 4.34 4.34 0 0 1 -.11-6.57 7.14 7.14 0 0 1 4.62-1.27h5v-1a4 4 0 0 0 -1.14-3.1 4.71 4.71 0 0 0 -3.33-1.07 8.23 8.23 0 0 0 -2.88.5 7.25 7.25 0 0 0 -2.37 1.36l-1-1.59a8.5 8.5 0 0 1 2.88-1.57 11.21 11.21 0 0 1 3.54-.56 6.72 6.72 0 0 1 4.82 1.58zm-2.4 12a4.91 4.91 0 0 0 1.88-2.38v-2.58h-4.95q-4.05 0-4.05 2.82a2.56 2.56 0 0 0 1.05 2.17 4.71 4.71 0 0 0 2.95.83 5.53 5.53 0 0 0 3.12-.86z"/><path d="m165.27 61.54a4.21 4.21 0 0 1 -1.49.83 6.26 6.26 0 0 1 -1.84.28 4.18 4.18 0 0 1 -4.62-4.59v-9.54h-2.82v-1.8h2.82v-3.45h2.13v3.45h4.8v1.8h-4.8v9.42a3 3 0 0 0 .7 2.14 2.65 2.65 0 0 0 2 .74 3.89 3.89 0 0 0 1.27-.21 3.19 3.19 0 0 0 1.07-.6z"/><path d="m191.79 62.5-4.79-6.75a15.21 15.21 0 0 1 -1.68.09h-5.64v6.66h-2.22v-21h7.86a9.49 9.49 0 0 1 6.3 1.92 6.53 6.53 0 0 1 2.28 5.28 6.52 6.52 0 0 1 -4.8 6.6l5.13 7.2zm-1.79-9.93a4.77 4.77 0 0 0 1.65-3.87 4.78 4.78 0 0 0 -1.65-3.91 7.31 7.31 0 0 0 -4.77-1.37h-5.58v10.58h5.58a7.25 7.25 0 0 0 4.77-1.43z"/><path d="m212.43 55.27h-13.2a5.65 5.65 0 0 0 1.89 4 6.32 6.32 0 0 0 4.32 1.51 7 7 0 0 0 2.7-.52 5.91 5.91 0 0 0 2.13-1.55l1.2 1.38a6.77 6.77 0 0 1 -2.63 1.91 9.47 9.47 0 0 1 -7.77-.37 7.53 7.53 0 0 1 -2.92-2.87 8.17 8.17 0 0 1 -1.05-4.14 8.45 8.45 0 0 1 1-4.14 7.28 7.28 0 0 1 2.76-2.85 7.72 7.72 0 0 1 3.95-1 7.63 7.63 0 0 1 3.93 1 7.24 7.24 0 0 1 2.73 2.84 8.52 8.52 0 0 1 1 4.15zm-11.43-5.39a5.74 5.74 0 0 0 -1.75 3.8h11.19a5.75 5.75 0 0 0 -1.76-3.8 5.81 5.81 0 0 0 -7.68 0z"/><path d="m231.42 46.72v13.86q0 4-2 6t-5.92 1.93a13.56 13.56 0 0 1 -4.16-.64 8.67 8.67 0 0 1 -3.16-1.87l1.08-1.62a8.08 8.08 0 0 0 2.74 1.62 10.39 10.39 0 0 0 3.44.57 6 6 0 0 0 4.41-1.4 5.86 5.86 0 0 0 1.41-4.33v-2a6.43 6.43 0 0 1 -2.6 2.28 8 8 0 0 1 -3.55.78 8.3 8.3 0 0 1 -4-1 7.11 7.11 0 0 1 -2.85-2.72 7.69 7.69 0 0 1 -1-4 7.59 7.59 0 0 1 1-4 7.16 7.16 0 0 1 2.84-2.7 8.47 8.47 0 0 1 4-1 8 8 0 0 1 3.63.81 6.54 6.54 0 0 1 2.61 2.34v-3zm-5 12.56a5.31 5.31 0 0 0 2.14-2.06 5.88 5.88 0 0 0 .77-3 5.78 5.78 0 0 0 -.77-3 5.36 5.36 0 0 0 -2.13-2 6.43 6.43 0 0 0 -3.1-.74 6.51 6.51 0 0 0 -3.08.72 5.23 5.23 0 0 0 -2.13 2 6.3 6.3 0 0 0 0 6 5.35 5.35 0 0 0 2.13 2.06 6.4 6.4 0 0 0 3.08.73 6.47 6.47 0 0 0 3.11-.71z"/><path d="m251.61 46.72v15.78h-2v-2.88a5.85 5.85 0 0 1 -2.31 2.24 7.06 7.06 0 0 1 -3.36.79 6.11 6.11 0 0 1 -6.66-6.78v-9.15h2.13v8.94a5.28 5.28 0 0 0 1.23 3.78 4.62 4.62 0 0 0 3.51 1.29 5.13 5.13 0 0 0 3.85-1.52 5.84 5.84 0 0 0 1.48-4.21v-8.28z"/><path d="m257.58 40.24h2.13v22.26h-2.13z"/><path d="m275.91 48.14a6 6 0 0 1 1.65 4.58v9.78h-2v-2.5a4.9 4.9 0 0 1 -2.16 2 7.38 7.38 0 0 1 -3.31.69 6.49 6.49 0 0 1 -4.2-1.26 4.34 4.34 0 0 1 -.11-6.57 7.14 7.14 0 0 1 4.64-1.23h5v-1a4 4 0 0 0 -1.14-3.1 4.71 4.71 0 0 0 -3.28-1.07 8.23 8.23 0 0 0 -2.88.5 7.25 7.25 0 0 0 -2.37 1.36l-1-1.59a8.5 8.5 0 0 1 2.88-1.57 11.21 11.21 0 0 1 3.54-.56 6.72 6.72 0 0 1 4.74 1.54zm-2.4 12a4.91 4.91 0 0 0 1.92-2.38v-2.58h-4.95q-4.05 0-4.05 2.82a2.56 2.56 0 0 0 1.05 2.17 4.71 4.71 0 0 0 2.94.8 5.53 5.53 0 0 0 3.09-.83z"/><path d="m287.62 47.41a7.62 7.62 0 0 1 3.68-.81v2.07h-.51a5 5 0 0 0 -3.9 1.53 6.1 6.1 0 0 0 -1.41 4.29v8h-2.13v-15.77h2v3.09a5.15 5.15 0 0 1 2.27-2.4z"/><path d="m22.62 99.5v-15.3l-7.62 12.8h-1.38l-7.62-12.71v15.21h-2.85v-21h2.46l8.76 14.76 8.63-14.76h2.46v21z"/><path d="m33.93 98.63a7.68 7.68 0 0 1 -3-2.89 8.26 8.26 0 0 1 -1.06-4.19 8.17 8.17 0 0 1 1.13-4.18 7.39 7.39 0 0 1 3-2.88 8.62 8.62 0 0 1 4.26-1 8.51 8.51 0 0 1 4.24 1 7.4 7.4 0 0 1 2.94 2.88 8.18 8.18 0 0 1 1.07 4.18 8.27 8.27 0 0 1 -1.07 4.19 7.7 7.7 0 0 1 -2.94 2.89 8.52 8.52 0 0 1 -4.24 1.05 8.62 8.62 0 0 1 -4.33-1.05zm7-2.17a5 5 0 0 0 1.91-2 6 6 0 0 0 .69-2.92 6.1 6.1 0 0 0 -.69-2.93 4.94 4.94 0 0 0 -1.91-2 5.81 5.81 0 0 0 -5.49 0 5 5 0 0 0 -1.92 2 6 6 0 0 0 -.7 2.93 5.92 5.92 0 0 0 .7 2.92 5 5 0 0 0 1.92 2 5.73 5.73 0 0 0 5.49 0z"/><path d="m63.73 85.21a6.89 6.89 0 0 1 1.79 5.14v9.15h-2.88v-8.82a4.88 4.88 0 0 0 -1.11-3.48 4.17 4.17 0 0 0 -3.18-1.2 5 5 0 0 0 -3.69 1.36 5.36 5.36 0 0 0 -1.35 3.92v8.22h-2.88v-15.9h2.76v2.4a5.58 5.58 0 0 1 2.35-1.89 8.25 8.25 0 0 1 3.38-.66 6.56 6.56 0 0 1 4.81 1.76z"/><path d="m79.8 98.57a4.14 4.14 0 0 1 -1.56.82 6.52 6.52 0 0 1 -1.92.29 5.1 5.1 0 0 1 -3.72-1.29 4.93 4.93 0 0 1 -1.32-3.69v-8.7h-2.7v-2.4h2.7v-3.48h2.88v3.48h4.56v2.4h-4.56v8.61a2.79 2.79 0 0 0 .64 2 2.41 2.41 0 0 0 1.85.69 3.47 3.47 0 0 0 2.25-.75z"/><path d="m84.09 99.16a8.23 8.23 0 0 1 -2.82-1.34l1.2-2.28a8.61 8.61 0 0 0 2.53 1.2 10.49 10.49 0 0 0 3 .45q3.78 0 3.78-2.16a1.4 1.4 0 0 0 -.51-1.14 3.25 3.25 0 0 0 -1.27-.61c-.51-.13-1.23-.28-2.17-.44a21.4 21.4 0 0 1 -3.14-.69 4.82 4.82 0 0 1 -2.08-1.32 3.67 3.67 0 0 1 -.87-2.61 4.09 4.09 0 0 1 1.8-3.47 8.06 8.06 0 0 1 4.83-1.3 13.31 13.31 0 0 1 3.18.39 8.55 8.55 0 0 1 2.61 1l-1.16 2.33a8.27 8.27 0 0 0 -4.59-1.26 5.31 5.31 0 0 0 -2.79.6 1.81 1.81 0 0 0 -1 1.59 1.52 1.52 0 0 0 .54 1.23 3.39 3.39 0 0 0 1.34.67c.53.14 1.28.3 2.24.48a24.26 24.26 0 0 1 3.1.7 4.76 4.76 0 0 1 2 1.28 3.55 3.55 0 0 1 .87 2.54 4 4 0 0 1 -1.85 3.44 8.77 8.77 0 0 1 -5 1.27 13.69 13.69 0 0 1 -3.77-.55z"/><path d="m112.62 92.51h-12.9a5 5 0 0 0 1.84 3.37 6 6 0 0 0 3.92 1.28 5.9 5.9 0 0 0 4.59-1.92l1.59 1.86a7 7 0 0 1 -2.66 1.9 10.09 10.09 0 0 1 -8-.38 7.32 7.32 0 0 1 -3-2.89 8.3 8.3 0 0 1 -1.06-4.2 8.43 8.43 0 0 1 1-4.17 7.34 7.34 0 0 1 2.85-2.89 8 8 0 0 1 4.1-1 7.84 7.84 0 0 1 4.06 1 7.19 7.19 0 0 1 2.79 2.89 8.82 8.82 0 0 1 1 4.26 8.25 8.25 0 0 1 -.12.89zm-11.27-5.37a5.07 5.07 0 0 0 -1.63 3.3h10.2a5.08 5.08 0 0 0 -1.64-3.28 4.89 4.89 0 0 0 -3.46-1.28 5 5 0 0 0 -3.47 1.26z"/><path d="m121.65 84.17a8.06 8.06 0 0 1 3.57-.72v2.79a5.62 5.62 0 0 0 -.66 0 4.82 4.82 0 0 0 -3.68 1.4 5.51 5.51 0 0 0 -1.33 4v7.86h-2.88v-15.9h2.76v2.67a4.91 4.91 0 0 1 2.22-2.1z"/><path d="m133.74 84.17a8.06 8.06 0 0 1 3.57-.72v2.79a5.62 5.62 0 0 0 -.66 0 4.82 4.82 0 0 0 -3.68 1.4 5.51 5.51 0 0 0 -1.33 4v7.86h-2.88v-15.9h2.76v2.67a4.91 4.91 0 0 1 2.22-2.1z"/><path d="m151.66 85.07a6.26 6.26 0 0 1 1.76 4.83v9.6h-2.73v-2.1a4.49 4.49 0 0 1 -2.06 1.69 7.65 7.65 0 0 1 -3.16.59 6.64 6.64 0 0 1 -4.28-1.29 4.13 4.13 0 0 1 -1.6-3.39 4.2 4.2 0 0 1 1.53-3.38 7.6 7.6 0 0 1 4.88-1.27h4.56v-.57a3.67 3.67 0 0 0 -1.08-2.85 4.56 4.56 0 0 0 -3.18-1 8.17 8.17 0 0 0 -2.76.47 6.92 6.92 0 0 0 -2.28 1.24l-1.26-2.15a8.9 8.9 0 0 1 3-1.49 12.3 12.3 0 0 1 3.63-.52 7.18 7.18 0 0 1 5.03 1.59zm-2.86 11.65a4.15 4.15 0 0 0 1.74-2.08v-2.22h-4.44q-3.66 0-3.66 2.46a2.23 2.23 0 0 0 .93 1.89 4.25 4.25 0 0 0 2.58.69 5.35 5.35 0 0 0 2.85-.74z"/><path d="m167.7 98.57a4.14 4.14 0 0 1 -1.56.82 6.52 6.52 0 0 1 -1.92.29 5.1 5.1 0 0 1 -3.72-1.29 4.93 4.93 0 0 1 -1.32-3.69v-8.7h-2.7v-2.4h2.7v-3.48h2.88v3.48h4.56v2.4h-4.56v8.61a2.79 2.79 0 0 0 .64 2 2.41 2.41 0 0 0 1.85.69 3.47 3.47 0 0 0 2.25-.75z"/><path d="m199.14 99.5v-15.3l-7.62 12.8h-1.38l-7.59-12.66v15.16h-2.88v-21h2.46l8.76 14.76 8.64-14.76h2.47v21z"/><path d="m222.21 92.51h-12.9a5 5 0 0 0 1.84 3.37 6 6 0 0 0 3.92 1.28 5.9 5.9 0 0 0 4.59-1.92l1.59 1.86a7 7 0 0 1 -2.69 1.9 10.09 10.09 0 0 1 -8.05-.38 7.32 7.32 0 0 1 -3-2.89 8.3 8.3 0 0 1 -1.06-4.2 8.43 8.43 0 0 1 1-4.17 7.34 7.34 0 0 1 2.85-2.89 8 8 0 0 1 4.1-1 7.84 7.84 0 0 1 4.06 1 7.19 7.19 0 0 1 2.79 2.89 8.82 8.82 0 0 1 1 4.26 8.25 8.25 0 0 1 -.04.89zm-11.27-5.37a5.07 5.07 0 0 0 -1.63 3.3h10.2a5.08 5.08 0 0 0 -1.64-3.28 4.89 4.89 0 0 0 -3.46-1.28 5 5 0 0 0 -3.47 1.26z"/><path d="m241.26 77.24v22.26h-2.76v-2.5a6.24 6.24 0 0 1 -2.43 2 7.53 7.53 0 0 1 -3.24.69 8.36 8.36 0 0 1 -4.14-1 7.27 7.27 0 0 1 -2.87-2.87 9.22 9.22 0 0 1 0-8.47 7.35 7.35 0 0 1 2.87-2.85 8.36 8.36 0 0 1 4.14-1 7.78 7.78 0 0 1 3.15.64 6.22 6.22 0 0 1 2.4 1.91v-8.81zm-5.46 19.22a4.91 4.91 0 0 0 1.92-2 6 6 0 0 0 .69-2.92 6.1 6.1 0 0 0 -.69-2.93 4.9 4.9 0 0 0 -1.92-2 5.79 5.79 0 0 0 -5.48 0 5 5 0 0 0 -1.92 2 6 6 0 0 0 -.7 2.93 5.92 5.92 0 0 0 .7 2.92 5 5 0 0 0 1.92 2 5.71 5.71 0 0 0 5.48 0z"/><path d="m246.76 80a1.77 1.77 0 0 1 -.55-1.32 1.83 1.83 0 0 1 .55-1.34 1.94 1.94 0 0 1 1.4-.55 1.9 1.9 0 0 1 1.39.53 1.72 1.72 0 0 1 .56 1.3 1.9 1.9 0 0 1 -2 1.92 1.93 1.93 0 0 1 -1.35-.54zm0 3.6h2.88v15.9h-2.88z"/><path d="m269.91 83.6v15.9h-2.73v-2.4a5.79 5.79 0 0 1 -2.3 1.9 7.78 7.78 0 0 1 -8.11-1.08 6.83 6.83 0 0 1 -1.83-5.17v-9.15h2.88v8.82a5 5 0 0 0 1.11 3.5 4.14 4.14 0 0 0 3.18 1.18 4.75 4.75 0 0 0 3.6-1.38 5.42 5.42 0 0 0 1.32-3.9v-8.22z"/><path d="m300 85.19a7 7 0 0 1 1.76 5.16v9.15h-2.88v-8.82a5 5 0 0 0 -1.07-3.48 3.9 3.9 0 0 0 -3-1.17 4.59 4.59 0 0 0 -3.48 1.36 5.51 5.51 0 0 0 -1.33 3.92v8.19h-2.88v-8.82a5 5 0 0 0 -1.07-3.48 3.9 3.9 0 0 0 -3-1.17 4.59 4.59 0 0 0 -3.48 1.36 5.51 5.51 0 0 0 -1.29 3.92v8.19h-2.88v-15.9h2.76v2.4a5.67 5.67 0 0 1 2.28-1.88 7.79 7.79 0 0 1 3.21-.64 7 7 0 0 1 3.3.75 5.21 5.21 0 0 1 2.22 2.19 6.08 6.08 0 0 1 2.5-2.16 8.19 8.19 0 0 1 3.62-.78 6.44 6.44 0 0 1 4.71 1.71z"/><path d="m21.6 136.5v-12.6l-6.18 10.38h-2.22l-6.15-10.11v12.33h-4.56v-21h4l7.86 13.05 7.74-13.05h4l.06 21z"/><path d="m33.91 135.67a7.89 7.89 0 0 1 -3.16-2.95 8.64 8.64 0 0 1 0-8.58 8 8 0 0 1 3.16-3 9.82 9.82 0 0 1 4.58-1.06 9.71 9.71 0 0 1 4.56 1.06 8 8 0 0 1 3.15 3 8.64 8.64 0 0 1 0 8.58 7.93 7.93 0 0 1 -3.15 2.95 9.59 9.59 0 0 1 -4.56 1.07 9.7 9.7 0 0 1 -4.58-1.07zm7.53-4a4.5 4.5 0 0 0 1.16-3.25 4.56 4.56 0 0 0 -1.16-3.26 3.92 3.92 0 0 0 -2.95-1.16 4 4 0 0 0 -3 1.21 4.52 4.52 0 0 0 -1.17 3.26 4.47 4.47 0 0 0 1.17 3.25 3.91 3.91 0 0 0 3 1.22 3.86 3.86 0 0 0 2.95-1.26z"/><path d="m65.11 121.92a7.14 7.14 0 0 1 1.89 5.34v9.24h-4.72v-8.5a4.19 4.19 0 0 0 -.84-2.86 3.08 3.08 0 0 0 -2.43-1 3.76 3.76 0 0 0 -2.82 1.09 4.56 4.56 0 0 0 -1 3.26v8h-4.73v-16.13h4.47v1.89a6.22 6.22 0 0 1 2.31-1.58 8 8 0 0 1 3-.55 6.63 6.63 0 0 1 4.87 1.8z"/><path d="m81.6 135.72a4.84 4.84 0 0 1 -1.7.77 9 9 0 0 1 -2.11.25 6.3 6.3 0 0 1 -4.46-1.47 5.62 5.62 0 0 1 -1.57-4.27v-6.63h-2.49v-3.6h2.49v-3.93h4.68v3.93h4v3.6h-4v6.57a2.19 2.19 0 0 0 .52 1.57 2 2 0 0 0 1.49.56 3 3 0 0 0 1.89-.6z"/><path d="m85.74 136.25a10.26 10.26 0 0 1 -3.06-1.25l1.56-3.36a9.5 9.5 0 0 0 2.61 1.12 11 11 0 0 0 3 .44q3 0 3-1.47a1 1 0 0 0 -.81-1 12 12 0 0 0 -2.49-.51 24 24 0 0 1 -3.27-.69 5.09 5.09 0 0 1 -2.28-1.37 3.92 3.92 0 0 1 -.94-2.82 4.45 4.45 0 0 1 .88-2.72 5.69 5.69 0 0 1 2.58-1.84 11 11 0 0 1 4-.66 15.68 15.68 0 0 1 3.4.38 9.56 9.56 0 0 1 2.81 1l-1.56 3.33a9.31 9.31 0 0 0 -4.65-1.2 4.73 4.73 0 0 0 -2.25.42 1.23 1.23 0 0 0 -.75 1.08 1.07 1.07 0 0 0 .81 1 14.34 14.34 0 0 0 2.58.57 27.49 27.49 0 0 1 3.24.71 4.86 4.86 0 0 1 2.19 1.36 3.87 3.87 0 0 1 .93 2.76 4.26 4.26 0 0 1 -.9 2.67 5.68 5.68 0 0 1 -2.63 1.81 11.66 11.66 0 0 1 -4.09.65 15.67 15.67 0 0 1 -3.91-.41z"/><path d="m115.89 129.75h-12.21a3.8 3.8 0 0 0 1.56 2.37 5.17 5.17 0 0 0 3.06.87 6.17 6.17 0 0 0 2.23-.37 5.45 5.45 0 0 0 1.82-1.19l2.49 2.7q-2.28 2.61-6.66 2.61a10.54 10.54 0 0 1 -4.83-1.07 7.8 7.8 0 0 1 -3.24-2.95 8.14 8.14 0 0 1 -1.11-4.29 8.23 8.23 0 0 1 1.12-4.27 7.91 7.91 0 0 1 3.09-3 9.2 9.2 0 0 1 4.4-1.06 9 9 0 0 1 4.29 1 7.38 7.38 0 0 1 3 2.93 8.68 8.68 0 0 1 1.1 4.42q0 .13-.11 1.3zm-11-5.19a3.83 3.83 0 0 0 -1.32 2.46h7.95a3.86 3.86 0 0 0 -1.32-2.44 3.9 3.9 0 0 0 -2.64-.92 4 4 0 0 0 -2.62.9z"/><path d="m125.83 120.72a8.43 8.43 0 0 1 3.29-.6v4.32q-.78-.06-1.05-.06a4.29 4.29 0 0 0 -3.15 1.12 4.56 4.56 0 0 0 -1.14 3.38v7.62h-4.68v-16.14h4.47v2.13a5.19 5.19 0 0 1 2.26-1.77z"/><path d="m138.64 120.72a8.43 8.43 0 0 1 3.29-.6v4.32q-.78-.06-1.05-.06a4.29 4.29 0 0 0 -3.15 1.12 4.56 4.56 0 0 0 -1.14 3.38v7.62h-4.68v-16.14h4.47v2.13a5.19 5.19 0 0 1 2.26-1.77z"/><path d="m156.9 121.91a6.81 6.81 0 0 1 2 5.38v9.21h-4.38v-2q-1.32 2.25-4.92 2.25a7.66 7.66 0 0 1 -3.23-.63 4.79 4.79 0 0 1 -2.08-1.74 4.53 4.53 0 0 1 -.72-2.52 4.2 4.2 0 0 1 1.69-3.54 8.65 8.65 0 0 1 5.24-1.29h3.72a3 3 0 0 0 -.93-2.35 4.1 4.1 0 0 0 -2.79-.83 7.9 7.9 0 0 0 -2.54.41 6.47 6.47 0 0 0 -2.11 1.09l-1.68-3.27a10.11 10.11 0 0 1 3.16-1.44 14.21 14.21 0 0 1 3.8-.51 8.35 8.35 0 0 1 5.77 1.78zm-4 11.13a3 3 0 0 0 1.32-1.64v-1.65h-3.22q-2.88 0-2.88 1.89a1.7 1.7 0 0 0 .7 1.43 3.19 3.19 0 0 0 1.94.52 4.07 4.07 0 0 0 2.15-.59z"/><path d="m173.55 135.72a4.84 4.84 0 0 1 -1.7.77 9 9 0 0 1 -2.11.25 6.3 6.3 0 0 1 -4.46-1.47 5.62 5.62 0 0 1 -1.57-4.32v-6.63h-2.49v-3.6h2.49v-3.93h4.68v3.93h4v3.6h-4v6.57a2.19 2.19 0 0 0 .52 1.57 2 2 0 0 0 1.49.56 3 3 0 0 0 1.89-.6z"/><path d="m203.25 127.49a5.24 5.24 0 0 1 1 3.28 4.84 4.84 0 0 1 -2.15 4.24 11 11 0 0 1 -6.25 1.49h-10.85v-21h10.26a10 10 0 0 1 5.89 1.47 4.66 4.66 0 0 1 2.06 4 5.07 5.07 0 0 1 -2.79 4.62 5.55 5.55 0 0 1 2.83 1.9zm-13.41-8.33v5h4.83a4.88 4.88 0 0 0 2.73-.63 2.1 2.1 0 0 0 .93-1.86 2.06 2.06 0 0 0 -.93-1.84 5 5 0 0 0 -2.73-.62zm8.56 13.05a2.16 2.16 0 0 0 1-2q0-2.61-3.87-2.61h-5.67v5.19h5.67a5.37 5.37 0 0 0 2.87-.58z"/><path d="m210.73 135.67a7.89 7.89 0 0 1 -3.16-2.95 8.64 8.64 0 0 1 0-8.58 8 8 0 0 1 3.16-3 9.82 9.82 0 0 1 4.58-1.06 9.71 9.71 0 0 1 4.56 1.06 8 8 0 0 1 3.15 3 8.64 8.64 0 0 1 0 8.58 7.93 7.93 0 0 1 -3.15 2.95 9.59 9.59 0 0 1 -4.56 1.07 9.7 9.7 0 0 1 -4.58-1.07zm7.53-4a4.5 4.5 0 0 0 1.16-3.25 4.56 4.56 0 0 0 -1.16-3.26 3.92 3.92 0 0 0 -2.95-1.21 4 4 0 0 0 -3 1.21 4.52 4.52 0 0 0 -1.17 3.26 4.47 4.47 0 0 0 1.17 3.25 3.91 3.91 0 0 0 3 1.22 3.86 3.86 0 0 0 2.95-1.21z"/><path d="m227.28 114.24h4.72v22.26h-4.68z"/><path d="m252.75 114.24v22.26h-4.47v-1.86a6.17 6.17 0 0 1 -5 2.1 8.4 8.4 0 0 1 -4.13-1 7.29 7.29 0 0 1 -2.89-2.91 9.66 9.66 0 0 1 0-8.76 7.29 7.29 0 0 1 2.89-2.91 8.4 8.4 0 0 1 4.13-1 6.14 6.14 0 0 1 4.83 1.95v-7.83zm-5.75 17.44a4.47 4.47 0 0 0 1.17-3.25 4.52 4.52 0 0 0 -1.17-3.26 4.21 4.21 0 0 0 -5.91 0 4.52 4.52 0 0 0 -1.17 3.26 4.47 4.47 0 0 0 1.17 3.25 4.19 4.19 0 0 0 5.91 0z"/><path d="m17.4 193.7v16.8h-3.89v-6.89h-7.63v6.89h-3.88v-16.8h3.88v6.62h7.63v-6.62z"/><path d="m33.7 205.1h-9.77a3 3 0 0 0 1.25 1.9 4.13 4.13 0 0 0 2.44.69 4.94 4.94 0 0 0 1.79-.3 4.14 4.14 0 0 0 1.45-.95l2 2.16a6.69 6.69 0 0 1 -5.33 2.09 8.42 8.42 0 0 1 -3.87-.85 6.31 6.31 0 0 1 -2.59-2.36 6.53 6.53 0 0 1 -.91-3.44 6.62 6.62 0 0 1 .9-3.42 6.33 6.33 0 0 1 2.47-2.37 7.69 7.69 0 0 1 7 0 6 6 0 0 1 2.41 2.34 6.94 6.94 0 0 1 .88 3.54s-.08.35-.12.97zm-8.76-4.1a3 3 0 0 0 -1.06 2h6.36a3.1 3.1 0 0 0 -1.06-2 3.13 3.13 0 0 0 -2.11-.73 3.19 3.19 0 0 0 -2.13.73z"/><path d="m45.72 198.82a5.49 5.49 0 0 1 1.61 4.31v7.37h-3.51v-1.61q-1.05 1.8-3.93 1.8a6.22 6.22 0 0 1 -2.58-.5 3.86 3.86 0 0 1 -1.67-1.39 3.7 3.7 0 0 1 -.58-2 3.38 3.38 0 0 1 1.36-2.8 6.89 6.89 0 0 1 4.19-1h3a2.38 2.38 0 0 0 -.74-1.89 3.28 3.28 0 0 0 -2.23-.66 6.39 6.39 0 0 0 -2 .33 5.19 5.19 0 0 0 -1.69.87l-1.41-2.65a8.26 8.26 0 0 1 2.54-1.16 11.35 11.35 0 0 1 3-.4 6.73 6.73 0 0 1 4.64 1.38zm-3.19 8.91a2.42 2.42 0 0 0 1-1.31v-1.32h-2.53c-1.54 0-2.31.5-2.31 1.51a1.34 1.34 0 0 0 .57 1.14 2.51 2.51 0 0 0 1.54.42 3.35 3.35 0 0 0 1.73-.44z"/><path d="m64 192.69v17.81h-3.57v-1.5a4.94 4.94 0 0 1 -4 1.68 6.72 6.72 0 0 1 -3.3-.81 5.91 5.91 0 0 1 -2.32-2.33 7.73 7.73 0 0 1 0-7 5.91 5.91 0 0 1 2.32-2.33 6.72 6.72 0 0 1 3.3-.81 4.89 4.89 0 0 1 3.83 1.6v-6.27zm-4.61 14a4.08 4.08 0 0 0 0-5.21 3.12 3.12 0 0 0 -2.35-1 3.17 3.17 0 0 0 -2.38 1 4.11 4.11 0 0 0 0 5.21 3.17 3.17 0 0 0 2.38 1 3.12 3.12 0 0 0 2.36-1.04z"/><path d="m67.66 195.19a2 2 0 0 1 0-3 2.37 2.37 0 0 1 1.68-.6 2.44 2.44 0 0 1 1.68.58 1.83 1.83 0 0 1 .64 1.44 2.05 2.05 0 0 1 -.64 1.55 2.41 2.41 0 0 1 -1.68.61 2.37 2.37 0 0 1 -1.68-.58zm-.2 2.4h3.75v12.91h-3.75z"/><path d="m86.41 198.84a5.68 5.68 0 0 1 1.48 4.27v7.39h-3.75v-6.82a3.37 3.37 0 0 0 -.67-2.29 2.47 2.47 0 0 0 -1.94-.75 3 3 0 0 0 -2.26.87 3.64 3.64 0 0 0 -.84 2.61v6.38h-3.74v-12.91h3.57v1.51a5.15 5.15 0 0 1 1.85-1.26 6.37 6.37 0 0 1 2.43-.44 5.31 5.31 0 0 1 3.87 1.44z"/><path d="m104.73 197.59v10.75q0 3.56-1.84 5.28a7.67 7.67 0 0 1 -5.4 1.73 13.31 13.31 0 0 1 -3.56-.46 7.65 7.65 0 0 1 -2.78-1.32l1.49-2.69a6 6 0 0 0 2.06 1.12 8.06 8.06 0 0 0 2.5.4 4 4 0 0 0 2.87-.88 3.51 3.51 0 0 0 .92-2.65v-.55a5.26 5.26 0 0 1 -4.08 1.61 6.84 6.84 0 0 1 -3.25-.78 5.9 5.9 0 0 1 -2.34-2.2 6.56 6.56 0 0 1 0-6.53 5.88 5.88 0 0 1 2.34-2.19 6.84 6.84 0 0 1 3.25-.78 5.12 5.12 0 0 1 4.27 1.84v-1.65zm-4.64 8.34a3.25 3.25 0 0 0 0-4.59 3.86 3.86 0 0 0 -4.88 0 3.22 3.22 0 0 0 0 4.59 3.86 3.86 0 0 0 4.88 0z"/><path d="m114.53 202.24h6.79v3h-6.79z"/><path d="m142.82 207.33v3.17h-12.69v-2.5l6.48-6.12a7.17 7.17 0 0 0 1.39-1.69 3.08 3.08 0 0 0 .36-1.41 1.84 1.84 0 0 0 -.69-1.54 3.16 3.16 0 0 0 -2-.54 4.57 4.57 0 0 0 -2 .42 3.83 3.83 0 0 0 -1.49 1.26l-2.83-1.83a6.64 6.64 0 0 1 2.71-2.29 9.07 9.07 0 0 1 4-.83 8.31 8.31 0 0 1 3.28.61 5.12 5.12 0 0 1 2.18 1.73 4.49 4.49 0 0 1 .78 2.63 5.79 5.79 0 0 1 -.58 2.57 9.63 9.63 0 0 1 -2.23 2.73l-3.86 3.65z"/><path d="m159.57 207h-2.73v3.53h-3.79v-3.53h-9.05v-2.61l7.92-10.66h4.08l-7.35 10.1h4.52v-3.14h3.67v3.14h2.73z"/><path d="m179.22 198.22a6 6 0 0 1 2.31 2.33 7.69 7.69 0 0 1 0 7 5.92 5.92 0 0 1 -2.31 2.32 6.53 6.53 0 0 1 -3.28.83 5 5 0 0 1 -3.89-1.56v6h-3.74v-17.55h3.58v1.49a5 5 0 0 1 4.05-1.68 6.63 6.63 0 0 1 3.28.82zm-1.56 8.43a4.15 4.15 0 0 0 0-5.21 3.37 3.37 0 0 0 -4.73 0 4.15 4.15 0 0 0 0 5.21 3.37 3.37 0 0 0 4.73 0z"/><path d="m192.67 210.5-2.83-4-2.93 4h-4.08l5-6.5-4.8-6.41h4.2l2.73 3.77 2.81-3.77h4l-4.8 6.31 5 6.6z"/><path d="m3.13 247.17a6.31 6.31 0 0 1 -2.31-1.27l.74-1.56a6.13 6.13 0 0 0 2.05 1.17 7.52 7.52 0 0 0 2.57.45 4.65 4.65 0 0 0 2.6-.59 1.83 1.83 0 0 0 .86-1.57 1.56 1.56 0 0 0 -.47-1.17 3.12 3.12 0 0 0 -1.17-.69q-.69-.24-1.95-.54a20.44 20.44 0 0 1 -2.55-.76 4.13 4.13 0 0 1 -1.66-1.17 3.14 3.14 0 0 1 -.69-2.13 3.62 3.62 0 0 1 .59-2 4 4 0 0 1 1.79-1.44 7.25 7.25 0 0 1 3-.54 9.56 9.56 0 0 1 2.44.32 6.39 6.39 0 0 1 2.06.92l-.66 1.6a7.24 7.24 0 0 0 -1.88-.85 7.16 7.16 0 0 0 -2-.29 4.36 4.36 0 0 0 -2.55.62 1.89 1.89 0 0 0 -.85 1.6 1.53 1.53 0 0 0 .48 1.17 3.41 3.41 0 0 0 1.19.7 18.59 18.59 0 0 0 1.93.53 19.71 19.71 0 0 1 2.54.76 4.24 4.24 0 0 1 1.65 1.16 3.06 3.06 0 0 1 .69 2.1 3.59 3.59 0 0 1 -.6 2 4 4 0 0 1 -1.82 1.44 7.56 7.56 0 0 1 -3 .53 9.5 9.5 0 0 1 -3.02-.5z"/><path d="m24.12 236.9v10.6h-1.82v-1.6a3.88 3.88 0 0 1 -1.53 1.27 4.75 4.75 0 0 1 -2.07.45 4.63 4.63 0 0 1 -3.34-1.17 4.58 4.58 0 0 1 -1.22-3.45v-6.1h1.92v5.88a3.31 3.31 0 0 0 .74 2.33 2.75 2.75 0 0 0 2.12.79 3.19 3.19 0 0 0 2.4-.92 3.59 3.59 0 0 0 .88-2.6v-5.48z"/><path d="m36.16 237.48a4.91 4.91 0 0 1 1.91 1.9 5.61 5.61 0 0 1 .69 2.82 5.68 5.68 0 0 1 -.69 2.83 4.87 4.87 0 0 1 -1.91 1.91 5.59 5.59 0 0 1 -2.76.68 5 5 0 0 1 -2.16-.46 4.21 4.21 0 0 1 -1.62-1.34v1.68h-1.84v-14.84h1.92v5.84a4.13 4.13 0 0 1 1.6-1.27 5 5 0 0 1 2.1-.43 5.59 5.59 0 0 1 2.76.68zm-1.09 8a3.32 3.32 0 0 0 1.28-1.32 4.28 4.28 0 0 0 0-3.9 3.29 3.29 0 0 0 -1.28-1.31 3.85 3.85 0 0 0 -3.65 0 3.23 3.23 0 0 0 -1.28 1.31 4.36 4.36 0 0 0 0 3.9 3.26 3.26 0 0 0 1.28 1.32 3.78 3.78 0 0 0 3.65 0z"/><path d="m59.12 233.5v14h-2v-6.24h-8v6.24h-2v-14h2v6h8v-6z"/><path d="m72.58 242.84h-8.58a3.34 3.34 0 0 0 1.23 2.25 4 4 0 0 0 2.61.85 3.93 3.93 0 0 0 3.06-1.28l1.06 1.24a4.63 4.63 0 0 1 -1.79 1.28 6.75 6.75 0 0 1 -5.37-.25 4.86 4.86 0 0 1 -2-1.93 5.91 5.91 0 0 1 0-5.58 4.9 4.9 0 0 1 1.9-1.93 5.43 5.43 0 0 1 2.73-.69 5.3 5.3 0 0 1 2.71.69 4.87 4.87 0 0 1 1.86 1.93 5.84 5.84 0 0 1 .67 2.84 4.68 4.68 0 0 1 -.09.58zm-7.51-3.58a3.39 3.39 0 0 0 -1.09 2.2h6.8a3.44 3.44 0 0 0 -1.09-2.19 3.28 3.28 0 0 0 -2.31-.85 3.32 3.32 0 0 0 -2.31.84z"/><path d="m82.21 237.88a4.17 4.17 0 0 1 1.17 3.22v6.4h-1.82v-1.4a3.07 3.07 0 0 1 -1.37 1.13 5.23 5.23 0 0 1 -2.11.39 4.42 4.42 0 0 1 -2.85-.86 3 3 0 0 1 0-4.51 5 5 0 0 1 3.24-.85h3v-.4a2.44 2.44 0 0 0 -.72-1.9 3 3 0 0 0 -2.12-.66 5.51 5.51 0 0 0 -1.84.31 4.7 4.7 0 0 0 -1.52.83l-.8-1.44a5.78 5.78 0 0 1 2-1 8.33 8.33 0 0 1 2.42-.35 4.79 4.79 0 0 1 3.32 1.09zm-1.91 7.77a2.84 2.84 0 0 0 1.16-1.39v-1.48h-3c-1.63 0-2.44.55-2.44 1.64a1.5 1.5 0 0 0 .62 1.26 2.81 2.81 0 0 0 1.72.46 3.54 3.54 0 0 0 1.94-.49z"/><path d="m97 232.66v14.84h-1.84v-1.68a4.21 4.21 0 0 1 -1.62 1.34 5 5 0 0 1 -2.16.46 5.59 5.59 0 0 1 -2.76-.68 4.87 4.87 0 0 1 -1.91-1.94 5.68 5.68 0 0 1 -.71-2.8 5.61 5.61 0 0 1 .69-2.82 4.91 4.91 0 0 1 1.91-1.9 5.59 5.59 0 0 1 2.76-.68 5 5 0 0 1 2.1.43 4.13 4.13 0 0 1 1.6 1.27v-5.84zm-3.64 12.81a3.26 3.26 0 0 0 1.28-1.32 4.36 4.36 0 0 0 0-3.9 3.23 3.23 0 0 0 -1.28-1.31 3.85 3.85 0 0 0 -3.65 0 3.29 3.29 0 0 0 -1.28 1.31 4.28 4.28 0 0 0 0 3.9 3.32 3.32 0 0 0 1.28 1.32 3.78 3.78 0 0 0 3.65 0z"/><path d="m100.67 234.5a1.16 1.16 0 0 1 -.37-.88 1.2 1.2 0 0 1 .37-.89 1.26 1.26 0 0 1 .93-.37 1.33 1.33 0 0 1 .93.35 1.16 1.16 0 0 1 .37.87 1.26 1.26 0 0 1 -1.3 1.28 1.29 1.29 0 0 1 -.93-.36zm0 2.4h1.92v10.6h-1.92z"/><path d="m115.09 238a4.61 4.61 0 0 1 1.19 3.43v6.1h-1.92v-5.88a3.26 3.26 0 0 0 -.74-2.32 2.79 2.79 0 0 0 -2.12-.78 3.29 3.29 0 0 0 -2.46.91 3.57 3.57 0 0 0 -.9 2.61v5.46h-1.92v-10.63h1.84v1.6a3.64 3.64 0 0 1 1.57-1.26 5.54 5.54 0 0 1 2.25-.44 4.38 4.38 0 0 1 3.21 1.2z"/><path d="m130 236.9v9.16a5.49 5.49 0 0 1 -1.38 4.11 5.7 5.7 0 0 1 -4.12 1.33 9.94 9.94 0 0 1 -2.86-.41 5.55 5.55 0 0 1 -2.2-1.17l.92-1.48a5.36 5.36 0 0 0 1.83 1 6.89 6.89 0 0 0 2.25.37 3.75 3.75 0 0 0 2.75-.88 3.64 3.64 0 0 0 .89-2.68v-.84a4.16 4.16 0 0 1 -1.67 1.23 5.64 5.64 0 0 1 -2.15.41 5.84 5.84 0 0 1 -2.75-.65 4.77 4.77 0 0 1 -1.93-1.82 5.44 5.44 0 0 1 0-5.34 4.75 4.75 0 0 1 1.93-1.81 5.84 5.84 0 0 1 2.75-.64 5.69 5.69 0 0 1 2.23.44 4.12 4.12 0 0 1 1.69 1.3v-1.63zm-3.65 8a3.21 3.21 0 0 0 1.3-1.23 3.47 3.47 0 0 0 .47-1.79 3.23 3.23 0 0 0 -1-2.49 4.12 4.12 0 0 0 -5.26 0 3.23 3.23 0 0 0 -1 2.49 3.47 3.47 0 0 0 .47 1.79 3.21 3.21 0 0 0 1.3 1.23 4.24 4.24 0 0 0 3.76 0z"/><path d="m138.4 241.18h5.38v1.66h-5.38z"/><path d="m161.1 245.76v1.74h-10.1v-1.36l5.7-5.5a6.88 6.88 0 0 0 1.4-1.73 3.32 3.32 0 0 0 .36-1.47 2.08 2.08 0 0 0 -.77-1.71 3.48 3.48 0 0 0 -2.21-.61 4.39 4.39 0 0 0 -3.58 1.52l-1.36-1.18a5.33 5.33 0 0 1 2.15-1.56 7.6 7.6 0 0 1 3-.56 5.41 5.41 0 0 1 3.5 1 3.49 3.49 0 0 1 1.3 2.85 4.84 4.84 0 0 1 -.48 2.12 8.44 8.44 0 0 1 -1.82 2.28l-4.28 4.12z"/><path d="m165.45 246.81a5.7 5.7 0 0 1 -2-2.47 10.33 10.33 0 0 1 0-7.68 5.7 5.7 0 0 1 2-2.47 5.51 5.51 0 0 1 5.88 0 5.77 5.77 0 0 1 2 2.47 10.33 10.33 0 0 1 0 7.68 5.77 5.77 0 0 1 -2 2.47 5.51 5.51 0 0 1 -5.88 0zm5.64-2.31a8.43 8.43 0 0 0 0-8 3.33 3.33 0 0 0 -5.4 0 8.43 8.43 0 0 0 0 8 3.33 3.33 0 0 0 5.4 0z"/><path d="m190.64 237.48a4.91 4.91 0 0 1 1.91 1.9 5.61 5.61 0 0 1 .69 2.82 5.68 5.68 0 0 1 -.69 2.83 4.87 4.87 0 0 1 -1.91 1.91 5.64 5.64 0 0 1 -2.76.68 5 5 0 0 1 -2.09-.44 4.26 4.26 0 0 1 -1.61-1.28v5.48h-1.92v-14.48h1.84v1.68a4 4 0 0 1 1.62-1.33 5.09 5.09 0 0 1 2.16-.45 5.64 5.64 0 0 1 2.76.68zm-1.09 8a3.39 3.39 0 0 0 1.28-1.32 4.28 4.28 0 0 0 0-3.9 3.36 3.36 0 0 0 -1.28-1.31 3.61 3.61 0 0 0 -1.83-.46 3.56 3.56 0 0 0 -1.81.47 3.36 3.36 0 0 0 -1.28 1.31 3.85 3.85 0 0 0 -.47 1.94 4 4 0 0 0 .46 2 3.19 3.19 0 0 0 1.28 1.32 3.78 3.78 0 0 0 3.65 0z"/><path d="m202.3 247.5-3.06-4.06-3.1 4.06h-2.14l4.18-5.42-4-5.18h2.14l2.92 3.82 2.9-3.82h2.1l-4 5.18 4.22 5.42z"/><path d="m10.58 279.68a2.73 2.73 0 0 1 .6 1.83 2.55 2.55 0 0 1 -1.06 2.21 5.29 5.29 0 0 1 -3.12.78h-5.18v-11.2h4.84a4.88 4.88 0 0 1 2.9.75 2.47 2.47 0 0 1 1 2.13 2.72 2.72 0 0 1 -.45 1.58 2.77 2.77 0 0 1 -1.26 1 2.93 2.93 0 0 1 1.73.92zm-7.58-5.4v4.06h3.58a3.57 3.57 0 0 0 2.09-.52 1.91 1.91 0 0 0 0-3 3.57 3.57 0 0 0 -2.09-.52zm6.23 8.72a1.79 1.79 0 0 0 .77-1.6c0-1.4-1-2.09-3-2.09h-4v4.2h4a4.12 4.12 0 0 0 2.23-.51z"/><path d="m14.9 284a4 4 0 0 1 -1.54-1.53 4.64 4.64 0 0 1 0-4.42 4 4 0 0 1 1.54-1.52 4.71 4.71 0 0 1 4.38 0 4 4 0 0 1 1.53 1.52 4.72 4.72 0 0 1 0 4.42 4 4 0 0 1 -1.53 1.53 4.64 4.64 0 0 1 -4.38 0zm3.8-.87a2.83 2.83 0 0 0 1.11-1.13 3.86 3.86 0 0 0 0-3.42 2.89 2.89 0 0 0 -1.11-1.16 3.37 3.37 0 0 0 -3.22 0 2.91 2.91 0 0 0 -1.12 1.16 3.77 3.77 0 0 0 0 3.42 2.85 2.85 0 0 0 1.12 1.16 3.37 3.37 0 0 0 3.22 0z"/><path d="m31.36 272.63v11.87h-1.09v-1.66a3.48 3.48 0 0 1 -1.35 1.29 4 4 0 0 1 -1.9.45 4.28 4.28 0 0 1 -2.14-.54 3.91 3.91 0 0 1 -1.5-1.52 4.78 4.78 0 0 1 0-4.45 3.76 3.76 0 0 1 1.5-1.51 4.28 4.28 0 0 1 2.12-.56 4 4 0 0 1 1.85.42 3.57 3.57 0 0 1 1.35 1.24v-5.05zm-2.65 10.53a2.79 2.79 0 0 0 1.12-1.16 3.77 3.77 0 0 0 0-3.42 2.85 2.85 0 0 0 -1.12-1.16 3.14 3.14 0 0 0 -1.59-.41 3.21 3.21 0 0 0 -1.61.41 2.91 2.91 0 0 0 -1.12 1.16 3.77 3.77 0 0 0 0 3.42 2.85 2.85 0 0 0 1.12 1.16 3.11 3.11 0 0 0 1.61.41 3 3 0 0 0 1.59-.41z"/><path d="m41.6 276.08-4.21 9.43a4 4 0 0 1 -1.18 1.68 2.66 2.66 0 0 1 -1.62.49 3.23 3.23 0 0 1 -1.13-.19 2.55 2.55 0 0 1 -.92-.57l.53-.85a2.13 2.13 0 0 0 1.54.64 1.56 1.56 0 0 0 1-.32 3 3 0 0 0 .76-1.09l.37-.82-3.74-8.4h1.18l3.17 7.16 3.17-7.16z"/><path d="m49.5 283.86a5.35 5.35 0 0 1 -2.1-2 6 6 0 0 1 0-5.84 5.42 5.42 0 0 1 2.1-2 6.5 6.5 0 0 1 5.31-.32 4.72 4.72 0 0 1 1.8 1.22l-.76.75a4.42 4.42 0 0 0 -3.31-1.33 4.8 4.8 0 0 0 -2.41.61 4.4 4.4 0 0 0 -1.71 1.66 4.91 4.91 0 0 0 0 4.74 4.4 4.4 0 0 0 1.71 1.66 4.8 4.8 0 0 0 2.41.61 4.4 4.4 0 0 0 3.31-1.34l.76.75a4.83 4.83 0 0 1 -1.8 1.22 6 6 0 0 1 -2.31.43 6.12 6.12 0 0 1 -3-.82z"/><path d="m59.78 284a4 4 0 0 1 -1.54-1.53 4.64 4.64 0 0 1 0-4.42 4 4 0 0 1 1.54-1.52 4.71 4.71 0 0 1 4.38 0 4 4 0 0 1 1.53 1.52 4.72 4.72 0 0 1 0 4.42 4 4 0 0 1 -1.53 1.53 4.64 4.64 0 0 1 -4.38 0zm3.8-.87a2.83 2.83 0 0 0 1.11-1.13 3.86 3.86 0 0 0 0-3.42 2.89 2.89 0 0 0 -1.11-1.16 3.24 3.24 0 0 0 -1.58-.42 3.19 3.19 0 0 0 -1.61.41 2.85 2.85 0 0 0 -1.12 1.16 3.77 3.77 0 0 0 0 3.42 2.79 2.79 0 0 0 1.12 1.16 3.09 3.09 0 0 0 1.61.41 3.14 3.14 0 0 0 1.58-.4z"/><path d="m75.37 276.94a3.61 3.61 0 0 1 .93 2.68v4.88h-1.13v-4.77a2.79 2.79 0 0 0 -.66-2 2.46 2.46 0 0 0 -1.87-.69 2.85 2.85 0 0 0 -2.15.81 3 3 0 0 0 -.8 2.23v4.42h-1.13v-8.42h1.09v1.56a3.22 3.22 0 0 1 1.28-1.2 4.18 4.18 0 0 1 1.92-.42 3.47 3.47 0 0 1 2.52.92z"/><path d="m83.82 284a2.08 2.08 0 0 1 -.79.44 3.19 3.19 0 0 1 -1 .15 2.23 2.23 0 0 1 -2.47-2.45v-5.14h-1.5v-1h1.5v-1.84h1.14v1.84h2.56v1h-2.54v5a1.58 1.58 0 0 0 .37 1.14 1.46 1.46 0 0 0 1.08.39 1.9 1.9 0 0 0 .68-.11 1.59 1.59 0 0 0 .57-.32z"/><path d="m92.91 280.64h-7a3 3 0 0 0 1 2.12 3.33 3.33 0 0 0 2.3.81 3.52 3.52 0 0 0 1.44-.28 3.08 3.08 0 0 0 1.14-.82l.64.73a3.63 3.63 0 0 1 -1.4 1 4.84 4.84 0 0 1 -1.85.35 4.69 4.69 0 0 1 -2.3-.55 4.09 4.09 0 0 1 -1.56-1.53 4.4 4.4 0 0 1 -.56-2.21 4.49 4.49 0 0 1 .54-2.21 4 4 0 0 1 1.47-1.52 4.17 4.17 0 0 1 2.11-.54 4.07 4.07 0 0 1 2.09.54 3.88 3.88 0 0 1 1.46 1.52 4.54 4.54 0 0 1 .53 2.21zm-6.1-2.87a3.08 3.08 0 0 0 -.94 2h6a3.08 3.08 0 0 0 -.94-2 3.1 3.1 0 0 0 -4.09 0z"/><path d="m102.06 276.94a3.61 3.61 0 0 1 .93 2.68v4.88h-1.14v-4.77a2.79 2.79 0 0 0 -.65-2 2.46 2.46 0 0 0 -1.87-.69 2.85 2.85 0 0 0 -2.15.81 3 3 0 0 0 -.8 2.23v4.42h-1.13v-8.42h1.08v1.56a3.18 3.18 0 0 1 1.29-1.2 4.18 4.18 0 0 1 1.92-.42 3.47 3.47 0 0 1 2.52.92z"/><path d="m110.51 284a2.16 2.16 0 0 1 -.79.44 3.24 3.24 0 0 1 -1 .15 2.47 2.47 0 0 1 -1.83-.64 2.44 2.44 0 0 1 -.64-1.81v-5.14h-1.5v-1h1.5v-1.84h1.14v1.84h2.61v1h-2.56v5a1.58 1.58 0 0 0 .37 1.14 1.43 1.43 0 0 0 1.08.39 1.94 1.94 0 0 0 .68-.11 1.59 1.59 0 0 0 .57-.32z"/><path d="m116.14 279.67h4.19v1h-4.19z"/><path d="m125 273.3v11.2h-1.15v-10.18h-2.64v-1z"/><path d="m134.23 278.21a3.14 3.14 0 0 1 1.82 3 3.29 3.29 0 0 1 -.5 1.8 3.22 3.22 0 0 1 -1.37 1.21 4.31 4.31 0 0 1 -2 .43 4.13 4.13 0 0 1 -3.41-1.47 6.45 6.45 0 0 1 -1.18-4.13 7.05 7.05 0 0 1 .64-3.17 4.44 4.44 0 0 1 1.79-2 5.34 5.34 0 0 1 2.69-.67 5.11 5.11 0 0 1 2.66.61l-.47.93a3.91 3.91 0 0 0 -2.17-.53 3.72 3.72 0 0 0 -2.92 1.18 5 5 0 0 0 -1 3.41 7.81 7.81 0 0 0 0 .92 3 3 0 0 1 1.32-1.42 4.24 4.24 0 0 1 2.1-.5 4.38 4.38 0 0 1 2 .4zm-.08 4.75a2.24 2.24 0 0 0 .76-1.77 2.2 2.2 0 0 0 -.76-1.76 3 3 0 0 0 -2.06-.66 3.37 3.37 0 0 0 -1.49.32 2.66 2.66 0 0 0 -1 .88 2.29 2.29 0 0 0 -.37 1.25 2.15 2.15 0 0 0 .35 1.18 2.43 2.43 0 0 0 1 .88 3.49 3.49 0 0 0 1.6.34 2.91 2.91 0 0 0 1.97-.62z"/><path d="m148.8 276.56a3.76 3.76 0 0 1 1.5 1.51 4.4 4.4 0 0 1 .55 2.22 4.45 4.45 0 0 1 -.55 2.24 3.8 3.8 0 0 1 -1.49 1.51 4.33 4.33 0 0 1 -2.16.54 4 4 0 0 1 -1.84-.42 3.67 3.67 0 0 1 -1.36-1.24v4.68h-1.13v-11.52h1.09v1.67a3.46 3.46 0 0 1 1.35-1.28 3.94 3.94 0 0 1 1.89-.45 4.32 4.32 0 0 1 2.15.54zm-.63 6.6a2.81 2.81 0 0 0 1.13-1.16 3.54 3.54 0 0 0 .41-1.71 3.48 3.48 0 0 0 -.41-1.7 2.93 2.93 0 0 0 -1.13-1.16 3.26 3.26 0 0 0 -3.2 0 2.91 2.91 0 0 0 -1.12 1.16 3.37 3.37 0 0 0 -.41 1.7 3.43 3.43 0 0 0 .41 1.71 2.79 2.79 0 0 0 1.12 1.16 3.33 3.33 0 0 0 3.2 0z"/><path d="m158.22 284.5-2.67-3.5-2.69 3.52h-1.28l3.33-4.32-3.17-4.1h1.26l2.53 3.3 2.53-3.3h1.25l-3.17 4.1 3.36 4.32z"/><path d="m9.26 317.28a2.39 2.39 0 0 1 .53 1.6 2.24 2.24 0 0 1 -.94 1.94 4.64 4.64 0 0 1 -2.75.68h-4.5v-9.8h4.22a4.27 4.27 0 0 1 2.55.66 2.17 2.17 0 0 1 .9 1.86 2.28 2.28 0 0 1 -1.5 2.23 2.58 2.58 0 0 1 1.49.83zm-6.63-4.73v3.56h3.12a3.19 3.19 0 0 0 1.84-.45 1.53 1.53 0 0 0 .64-1.33 1.5 1.5 0 0 0 -.64-1.33 3.18 3.18 0 0 0 -1.84-.46zm5.45 7.65a1.56 1.56 0 0 0 .67-1.4c0-1.22-.89-1.84-2.66-1.84h-3.46v3.69h3.46a3.6 3.6 0 0 0 1.99-.45z"/><path d="m13.13 320.49a4.36 4.36 0 0 1 -1.06-3.18v-5.61h1v5.57a3.68 3.68 0 0 0 .77 2.55 2.89 2.89 0 0 0 2.23.84 2.88 2.88 0 0 0 2.24-.84 3.68 3.68 0 0 0 .77-2.55v-5.57h1v5.61a4.36 4.36 0 0 1 -1.06 3.18 3.91 3.91 0 0 1 -3 1.09 4 4 0 0 1 -2.89-1.09z"/><path d="m25 312.6h-3.5v-.9h7.93v.9h-3.43v8.9h-1z"/><path d="m33.12 312.6h-3.44v-.9h7.92v.9h-3.44v8.9h-1z"/><path d="m40.76 320.93a4.8 4.8 0 0 1 -1.85-1.78 5.26 5.26 0 0 1 0-5.1 4.8 4.8 0 0 1 1.85-1.78 5.68 5.68 0 0 1 5.26 0 4.8 4.8 0 0 1 1.85 1.73 5.23 5.23 0 0 1 0 5.12 4.8 4.8 0 0 1 -1.87 1.82 5.68 5.68 0 0 1 -5.26 0zm4.74-.8a3.79 3.79 0 0 0 1.5-1.45 4.35 4.35 0 0 0 0-4.16 3.86 3.86 0 0 0 -1.47-1.45 4.45 4.45 0 0 0 -4.21 0 3.82 3.82 0 0 0 -1.48 1.45 4.28 4.28 0 0 0 0 4.16 3.75 3.75 0 0 0 1.48 1.45 4.45 4.45 0 0 0 4.21 0z"/><path d="m59.05 311.7v9.8h-.85l-6.3-7.95v7.95h-1v-9.8h.86l6.24 7.95v-7.95z"/><path d="m65.15 317.27h3.67v.87h-3.67z"/><path d="m76.77 311.7v9.8h-1v-8.9h-2.31v-.9z"/><path d="m87.44 318.92h-2v2.58h-1v-2.58h-5.5v-.72l5.2-6.5h1.12l-5 6.33h4.24v-2.27h1v2.24h2z"/><path d="m98.36 314.55a3.35 3.35 0 0 1 1.32 1.32 4.3 4.3 0 0 1 0 3.91 3.39 3.39 0 0 1 -1.31 1.32 3.8 3.8 0 0 1 -1.88.47 3.45 3.45 0 0 1 -1.62-.37 3 3 0 0 1 -1.18-1.09v4.11h-1v-10.08h1v1.45a3.12 3.12 0 0 1 1.19-1.12 3.48 3.48 0 0 1 1.66-.39 3.79 3.79 0 0 1 1.82.47zm-.54 5.78a2.57 2.57 0 0 0 1-1 3.08 3.08 0 0 0 .36-1.5 3 3 0 0 0 -.36-1.49 2.54 2.54 0 0 0 -1-1 2.78 2.78 0 0 0 -1.4-.36 2.74 2.74 0 0 0 -1.41.36 2.54 2.54 0 0 0 -1 1 3 3 0 0 0 -.36 1.49 3.08 3.08 0 0 0 .36 1.5 2.57 2.57 0 0 0 1 1 2.74 2.74 0 0 0 1.41.36 2.78 2.78 0 0 0 1.4-.36z"/><path d="m106.61 321.5-2.34-3.08-2.35 3.08h-1.12l2.91-3.78-2.77-3.58h1.12l2.21 2.88 2.21-2.88h1.09l-2.77 3.58 2.94 3.78z"/></g></svg>