<svg viewBox="0 0 541.02 62.49" xmlns="http://www.w3.org/2000/svg"><g fill="#fff"><path d="m298.72 51.73a3.2 3.2 0 0 1 .87 2.44v5.22h-1.08v-1.32a2.69 2.69 0 0 1 -1.13 1 4.05 4.05 0 0 1 -1.77.37 3.46 3.46 0 0 1 -2.24-.68 2.32 2.32 0 0 1 -.06-3.5 3.81 3.81 0 0 1 2.48-.66h2.67v-.51a2.14 2.14 0 0 0 -.61-1.65 2.5 2.5 0 0 0 -1.78-.57 4.64 4.64 0 0 0 -1.53.26 3.9 3.9 0 0 0 -1.26.73l-.52-.85a4.66 4.66 0 0 1 1.54-.84 6.23 6.23 0 0 1 1.89-.29 3.57 3.57 0 0 1 2.53.85zm-1.29 6.4a2.61 2.61 0 0 0 1-1.27v-1.38h-2.64c-1.44 0-2.16.5-2.16 1.51a1.39 1.39 0 0 0 .56 1.16 2.55 2.55 0 0 0 1.57.42 3 3 0 0 0 1.67-.44z"/><path d="m304 58.92a3.84 3.84 0 0 1 -1.54-1.53 4.64 4.64 0 0 1 0-4.42 3.88 3.88 0 0 1 1.54-1.52 4.57 4.57 0 0 1 2.23-.54 4.37 4.37 0 0 1 1.95.42 3.23 3.23 0 0 1 1.35 1.24l-.85.58a2.65 2.65 0 0 0 -1.06-.94 3.08 3.08 0 0 0 -1.39-.31 3.22 3.22 0 0 0 -1.64.41 2.87 2.87 0 0 0 -1.13 1.16 3.79 3.79 0 0 0 0 3.43 2.91 2.91 0 0 0 1.13 1.15 3.33 3.33 0 0 0 1.64.41 3.08 3.08 0 0 0 1.39-.31 2.6 2.6 0 0 0 1.06-.92l.85.57a3.19 3.19 0 0 1 -1.39 1.2 4.39 4.39 0 0 1 -1.94.43 4.58 4.58 0 0 1 -2.2-.51z"/><path d="m312.83 58.92a3.91 3.91 0 0 1 -1.54-1.53 4.64 4.64 0 0 1 0-4.42 4 4 0 0 1 1.54-1.52 4.61 4.61 0 0 1 2.24-.54 4.35 4.35 0 0 1 1.94.42 3.23 3.23 0 0 1 1.35 1.24l-.85.58a2.56 2.56 0 0 0 -1.05-.94 3.11 3.11 0 0 0 -1.39-.31 3.2 3.2 0 0 0 -1.64.41 2.83 2.83 0 0 0 -1.14 1.16 3.79 3.79 0 0 0 0 3.43 2.87 2.87 0 0 0 1.14 1.15 3.3 3.3 0 0 0 1.64.41 3.11 3.11 0 0 0 1.39-.31 2.52 2.52 0 0 0 1.05-.92l.85.57a3.14 3.14 0 0 1 -1.36 1.2 4.34 4.34 0 0 1 -1.93.43 4.62 4.62 0 0 1 -2.24-.51z"/><path d="m327.77 55.53h-7a3 3 0 0 0 1 2.12 3.33 3.33 0 0 0 2.3.81 3.7 3.7 0 0 0 1.44-.28 3.11 3.11 0 0 0 1.14-.83l.64.74a3.51 3.51 0 0 1 -1.4 1 4.95 4.95 0 0 1 -4.14-.2 4 4 0 0 1 -1.57-1.52 4.4 4.4 0 0 1 -.56-2.21 4.49 4.49 0 0 1 .54-2.21 3.91 3.91 0 0 1 1.47-1.52 4.17 4.17 0 0 1 2.11-.54 4.07 4.07 0 0 1 2.09.54 3.86 3.86 0 0 1 1.43 1.57 4.61 4.61 0 0 1 .53 2.22zm-6.1-2.87a3.07 3.07 0 0 0 -.94 2h6a3.07 3.07 0 0 0 -.94-2 3.07 3.07 0 0 0 -4.09 0z"/><path d="m336.59 51.44a3.82 3.82 0 0 1 1.5 1.51 4.9 4.9 0 0 1 0 4.47 3.82 3.82 0 0 1 -1.5 1.51 4.26 4.26 0 0 1 -2.15.54 4 4 0 0 1 -1.85-.43 3.48 3.48 0 0 1 -1.35-1.24v4.69h-1.13v-11.49h1.08v1.66a3.63 3.63 0 0 1 1.36-1.28 4.05 4.05 0 0 1 1.89-.44 4.42 4.42 0 0 1 2.15.5zm-.59 6.61a2.87 2.87 0 0 0 1.13-1.16 3.77 3.77 0 0 0 0-3.42 3 3 0 0 0 -1.13-1.16 3.2 3.2 0 0 0 -1.6-.41 3.24 3.24 0 0 0 -1.61.41 3.12 3.12 0 0 0 -1.12 1.16 3.86 3.86 0 0 0 0 3.42 3 3 0 0 0 1.12 1.16 3.24 3.24 0 0 0 1.61.41 3.2 3.2 0 0 0 1.6-.41z"/><path d="m345.39 58.87a2.07 2.07 0 0 1 -.8.44 2.92 2.92 0 0 1 -1 .16 2.47 2.47 0 0 1 -1.82-.64 2.44 2.44 0 0 1 -.64-1.81v-5.09h-1.51v-.93h1.51v-1.87h1.13v1.87h2.56v1h-2.56v5a1.59 1.59 0 0 0 .38 1.15 1.43 1.43 0 0 0 1.08.39 2.25 2.25 0 0 0 .68-.11 1.76 1.76 0 0 0 .57-.32z"/><path d="m317.81 23.25-3.81-3.83-1.29 1.3 5.08 5.12 10.92-11-1.29-1.3z"/></g><circle cx="320.31" cy="19.43" fill="#4caf50" r="19"/><path d="m317.81 23.25-3.81-3.83-1.29 1.3 5.08 5.12 10.92-11-1.29-1.3z" fill="#fff"/><path d="m224.63 58.92a3.93 3.93 0 0 1 -1.55-1.53 4.64 4.64 0 0 1 0-4.42 4 4 0 0 1 1.55-1.52 4.54 4.54 0 0 1 2.23-.54 4.35 4.35 0 0 1 1.94.42 3.32 3.32 0 0 1 1.36 1.24l-.85.58a2.65 2.65 0 0 0 -1.06-.94 3.11 3.11 0 0 0 -1.39-.31 3.2 3.2 0 0 0 -1.64.41 2.89 2.89 0 0 0 -1.14 1.16 3.88 3.88 0 0 0 0 3.43 2.93 2.93 0 0 0 1.14 1.15 3.3 3.3 0 0 0 1.64.41 3.11 3.11 0 0 0 1.39-.31 2.6 2.6 0 0 0 1.06-.92l.85.57a3.25 3.25 0 0 1 -1.36 1.2 4.42 4.42 0 0 1 -1.94.43 4.55 4.55 0 0 1 -2.23-.51z" fill="#fff"/><path d="m232.25 47.51h1.14v11.88h-1.14z" fill="#fff"/><path d="m237.8 58.91a3.92 3.92 0 0 1 -1.53-1.52 4.64 4.64 0 0 1 0-4.42 3.92 3.92 0 0 1 1.53-1.52 4.73 4.73 0 0 1 4.39 0 3.92 3.92 0 0 1 1.53 1.55 4.72 4.72 0 0 1 0 4.42 3.92 3.92 0 0 1 -1.53 1.52 4.58 4.58 0 0 1 -4.39 0zm3.8-.86a2.85 2.85 0 0 0 1.12-1.16 3.94 3.94 0 0 0 0-3.42 2.85 2.85 0 0 0 -1.12-1.16 3.35 3.35 0 0 0 -3.21 0 2.85 2.85 0 0 0 -1.12 1.16 3.77 3.77 0 0 0 0 3.42 2.85 2.85 0 0 0 1.12 1.16 3.35 3.35 0 0 0 3.21 0z" fill="#fff"/><path d="m246.88 59.17a4.23 4.23 0 0 1 -1.46-.74l.51-.9a4.37 4.37 0 0 0 1.33.68 5.15 5.15 0 0 0 1.66.26 3.2 3.2 0 0 0 1.71-.36 1.13 1.13 0 0 0 .55-1 .93.93 0 0 0 -.3-.73 2 2 0 0 0 -.77-.4 10.17 10.17 0 0 0 -1.23-.26 12.53 12.53 0 0 1 -1.65-.4 2.43 2.43 0 0 1 -1.07-.68 1.9 1.9 0 0 1 -.44-1.32 2.1 2.1 0 0 1 .88-1.73 4 4 0 0 1 2.45-.67 6.51 6.51 0 0 1 1.63.21 4.72 4.72 0 0 1 1.35.57l-.5.91a4.24 4.24 0 0 0 -2.48-.72 2.86 2.86 0 0 0 -1.64.39 1.16 1.16 0 0 0 -.55 1 1 1 0 0 0 .31.77 2 2 0 0 0 .78.43c.31.09.73.18 1.28.28a12.55 12.55 0 0 1 1.61.38 2.38 2.38 0 0 1 1 .66 1.79 1.79 0 0 1 .44 1.28 2 2 0 0 1 -.92 1.75 4.43 4.43 0 0 1 -2.56.65 6.42 6.42 0 0 1 -1.92-.31z" fill="#fff"/><path d="m261.74 55.53h-7a3 3 0 0 0 1 2.12 3.33 3.33 0 0 0 2.3.81 3.77 3.77 0 0 0 1.44-.28 3.11 3.11 0 0 0 1.14-.83l.64.74a3.58 3.58 0 0 1 -1.4 1 5 5 0 0 1 -4.15-.2 4 4 0 0 1 -1.56-1.52 4.4 4.4 0 0 1 -.56-2.21 4.49 4.49 0 0 1 .51-2.16 3.91 3.91 0 0 1 1.47-1.52 4.17 4.17 0 0 1 2.11-.54 4.09 4.09 0 0 1 2.09.54 3.86 3.86 0 0 1 1.46 1.52 4.61 4.61 0 0 1 .53 2.22zm-6.1-2.87a3 3 0 0 0 -.94 2h6a3.07 3.07 0 0 0 -.94-2 2.86 2.86 0 0 0 -2.05-.78 2.82 2.82 0 0 0 -2.07.78z" fill="#fff"/><path d="m249.66 13.68-1.4-1.4-5.6 5.6-5.6-5.6-1.4 1.4 5.6 5.6-5.6 5.6 1.4 1.4 5.6-5.6 5.6 5.6 1.4-1.4-5.6-5.6z" fill="#fff" fill-rule="evenodd"/><circle cx="242.66" cy="19.43" fill="#f4b400" r="19"/><path d="m249.66 13.68-1.4-1.4-5.6 5.6-5.6-5.6-1.4 1.4 5.6 5.6-5.6 5.6 1.4 1.4 5.6-5.6 5.6 5.6 1.4-1.4-5.6-5.6z" fill="#fff" fill-rule="evenodd"/><path d="m482.11 48.12v11.88h-1.11v-1.67a3.48 3.48 0 0 1 -1.35 1.29 4 4 0 0 1 -1.9.45 4.28 4.28 0 0 1 -2.14-.54 4 4 0 0 1 -1.49-1.53 4.85 4.85 0 0 1 0-4.45 3.85 3.85 0 0 1 1.51-1.51 4.28 4.28 0 0 1 2.14-.54 3.91 3.91 0 0 1 1.85.43 3.46 3.46 0 0 1 1.38 1.24v-5.05zm-2.65 10.53a2.85 2.85 0 0 0 1.12-1.16 3.77 3.77 0 0 0 0-3.42 2.91 2.91 0 0 0 -1.12-1.16 3.33 3.33 0 0 0 -3.2 0 2.91 2.91 0 0 0 -1.12 1.16 3.77 3.77 0 0 0 0 3.42 2.85 2.85 0 0 0 1.12 1.16 3.33 3.33 0 0 0 3.2 0z" fill="#fff"/><path d="m492.6 56.13h-7a3 3 0 0 0 1 2.12 3.36 3.36 0 0 0 2.31.81 3.59 3.59 0 0 0 1.44-.28 3.13 3.13 0 0 0 1.13-.82l.64.73a3.63 3.63 0 0 1 -1.4 1 4.8 4.8 0 0 1 -1.85.35 4.62 4.62 0 0 1 -2.29-.55 4 4 0 0 1 -1.58-1.49 4.3 4.3 0 0 1 -.56-2.21 4.63 4.63 0 0 1 .53-2.21 3.84 3.84 0 0 1 1.48-1.51 4.28 4.28 0 0 1 4.2 0 3.83 3.83 0 0 1 1.45 1.51 4.54 4.54 0 0 1 .53 2.21zm-6.1-2.87a3.08 3.08 0 0 0 -.94 2h6a3.07 3.07 0 0 0 -.93-2 2.92 2.92 0 0 0 -2.06-.77 2.89 2.89 0 0 0 -2.07.77z" fill="#fff"/><path d="m494.94 48.12h1.14v11.88h-1.14z" fill="#fff"/><path d="m506.57 56.13h-7a3 3 0 0 0 1 2.12 3.35 3.35 0 0 0 2.3.81 3.52 3.52 0 0 0 1.44-.28 3.08 3.08 0 0 0 1.14-.82l.64.73a3.63 3.63 0 0 1 -1.4 1 4.84 4.84 0 0 1 -1.85.35 4.62 4.62 0 0 1 -2.29-.55 4 4 0 0 1 -1.55-1.49 4.3 4.3 0 0 1 -.56-2.21 4.51 4.51 0 0 1 .53-2.21 3.88 3.88 0 0 1 1.47-1.51 4.08 4.08 0 0 1 2.11-.55 4 4 0 0 1 2.09.55 3.79 3.79 0 0 1 1.46 1.51 4.54 4.54 0 0 1 .53 2.21zm-6.1-2.87a3.08 3.08 0 0 0 -.94 2h6a3.08 3.08 0 0 0 -.94-2 3.1 3.1 0 0 0 -4.09 0z" fill="#fff"/><path d="m513.34 59.48a2.16 2.16 0 0 1 -.79.44 3.3 3.3 0 0 1 -1 .15 2.23 2.23 0 0 1 -2.46-2.45v-5.09h-1.5v-1h1.5v-1.8h1.14v1.84h2.56v1h-2.56v5a1.58 1.58 0 0 0 .37 1.14 1.43 1.43 0 0 0 1.08.39 1.94 1.94 0 0 0 .68-.11 1.59 1.59 0 0 0 .57-.32z" fill="#fff"/><path d="m522.43 56.13h-7a3 3 0 0 0 1 2.12 3.31 3.31 0 0 0 2.3.81 3.59 3.59 0 0 0 1.44-.28 3.08 3.08 0 0 0 1.14-.82l.64.73a3.7 3.7 0 0 1 -1.4 1 4.84 4.84 0 0 1 -1.85.35 4.66 4.66 0 0 1 -2.3-.55 4 4 0 0 1 -1.59-1.49 4.4 4.4 0 0 1 -.56-2.21 4.52 4.52 0 0 1 .54-2.21 3.81 3.81 0 0 1 1.47-1.51 4.28 4.28 0 0 1 4.2 0 3.86 3.86 0 0 1 1.46 1.51 4.54 4.54 0 0 1 .52 2.21zm-6.11-2.87a3 3 0 0 0 -.93 2h6a3.08 3.08 0 0 0 -.94-2 2.92 2.92 0 0 0 -2.06-.77 2.89 2.89 0 0 0 -2.07.77z" fill="#fff"/><circle cx="474.01" cy="19.78" fill="#db4437" r="19"/><path d="m464.41 18.18h19.2v3.2h-19.2z" fill="#fff"/><circle cx="522.02" cy="20.18" fill="#db4437" r="19"/><path d="m525.52 12.18h3.48v2h-14v-2h3.5l1-1h5zm-7.5 17a2 2 0 0 1 -2-2v-12h12v12a2 2 0 0 1 -2 2z" fill="#fff" fill-rule="evenodd"/><path d="m388 52.18a3.18 3.18 0 0 1 .88 2.44v5.22h-1.09v-1.31a2.5 2.5 0 0 1 -1.13 1 3.84 3.84 0 0 1 -1.76.37 3.44 3.44 0 0 1 -2.24-.67 2.31 2.31 0 0 1 -.06-3.51 3.84 3.84 0 0 1 2.47-.65h2.67v-.51a2.18 2.18 0 0 0 -.6-1.66 2.52 2.52 0 0 0 -1.78-.57 4.46 4.46 0 0 0 -1.54.27 3.71 3.71 0 0 0 -1.26.72l-.56-.82a4.28 4.28 0 0 1 1.53-.84 5.94 5.94 0 0 1 1.89-.3 3.61 3.61 0 0 1 2.58.82zm-1.28 6.4a2.55 2.55 0 0 0 1-1.27v-1.37h-2.64q-2.16 0-2.16 1.5a1.38 1.38 0 0 0 .56 1.16 2.59 2.59 0 0 0 1.57.42 3 3 0 0 0 1.65-.44z" fill="#fff"/><path d="m399.66 48v11.84h-1.09v-1.66a3.48 3.48 0 0 1 -1.35 1.29 4 4 0 0 1 -1.9.45 4.28 4.28 0 0 1 -2.14-.54 3.91 3.91 0 0 1 -1.5-1.52 4.78 4.78 0 0 1 0-4.45 3.76 3.76 0 0 1 1.5-1.51 4.28 4.28 0 0 1 2.14-.54 4 4 0 0 1 1.85.42 3.57 3.57 0 0 1 1.35 1.22v-5zm-2.66 10.5a2.79 2.79 0 0 0 1.12-1.16 3.77 3.77 0 0 0 0-3.42 2.85 2.85 0 0 0 -1.12-1.16 3.14 3.14 0 0 0 -1.59-.41 3.21 3.21 0 0 0 -1.61.41 2.91 2.91 0 0 0 -1.12 1.16 3.77 3.77 0 0 0 0 3.42 2.85 2.85 0 0 0 1.12 1.16 3.11 3.11 0 0 0 1.61.41 3 3 0 0 0 1.59-.41z" fill="#fff"/><path d="m410.51 48v11.84h-1.09v-1.66a3.48 3.48 0 0 1 -1.35 1.29 4 4 0 0 1 -1.9.45 4.28 4.28 0 0 1 -2.14-.54 4 4 0 0 1 -1.51-1.52 4.85 4.85 0 0 1 0-4.45 3.85 3.85 0 0 1 1.48-1.51 4.28 4.28 0 0 1 2.14-.54 4 4 0 0 1 1.85.42 3.57 3.57 0 0 1 1.38 1.22v-5zm-2.65 10.5a2.85 2.85 0 0 0 1.14-1.16 3.77 3.77 0 0 0 0-3.42 2.91 2.91 0 0 0 -1.12-1.16 3.33 3.33 0 0 0 -3.2 0 2.91 2.91 0 0 0 -1.12 1.16 3.77 3.77 0 0 0 0 3.42 2.85 2.85 0 0 0 1.12 1.16 3.33 3.33 0 0 0 3.2 0z" fill="#fff"/><circle cx="396.51" cy="18.93" fill="#4caf50" r="18.5"/><path d="m395.51 11.93v6h-6v2h6v6h2v-6h6v-2h-6v-6z" fill="#fff" fill-rule="evenodd"/><path d="m71.49 51.9a3.76 3.76 0 0 1 1.51 1.51 4.85 4.85 0 0 1 0 4.45 3.91 3.91 0 0 1 -1.5 1.52 4.32 4.32 0 0 1 -2.15.54 3.94 3.94 0 0 1 -1.89-.45 3.58 3.58 0 0 1 -1.36-1.29v1.66h-1.1v-11.84h1.13v5a3.57 3.57 0 0 1 1.35-1.24 4 4 0 0 1 1.85-.42 4.32 4.32 0 0 1 2.16.56zm-.63 6.6a2.81 2.81 0 0 0 1.14-1.16 3.77 3.77 0 0 0 0-3.42 2.87 2.87 0 0 0 -1.13-1.16 3.35 3.35 0 0 0 -3.21 0 3 3 0 0 0 -1.12 1.16 3.86 3.86 0 0 0 0 3.42 2.91 2.91 0 0 0 1.12 1.16 3.35 3.35 0 0 0 3.21 0z" fill="#fff"/><path d="m83.44 51.42v8.42h-1.09v-1.54a3.15 3.15 0 0 1 -1.23 1.2 3.75 3.75 0 0 1 -1.79.42 3.27 3.27 0 0 1 -3.56-3.62v-4.88h1.14v4.77a2.81 2.81 0 0 0 .66 2 2.45 2.45 0 0 0 1.87.69 2.74 2.74 0 0 0 2.09-.81 3.11 3.11 0 0 0 .77-2.25v-4.4z" fill="#fff"/><path d="m91.05 59.33a2.08 2.08 0 0 1 -.79.44 3.19 3.19 0 0 1 -1 .15 2.23 2.23 0 0 1 -2.47-2.45v-5.09h-1.5v-1h1.5v-1.8h1.21v1.84h2.56v1h-2.56v5a1.54 1.54 0 0 0 .38 1.14 1.43 1.43 0 0 0 1.08.39 2 2 0 0 0 .68-.11 1.64 1.64 0 0 0 .56-.32z" fill="#fff"/><path d="m97.33 59.33a2.21 2.21 0 0 1 -.8.44 3.19 3.19 0 0 1 -1 .15 2.23 2.23 0 0 1 -2.46-2.45v-5.09h-1.49v-1h1.51v-1.8h1.13v1.84h2.56v1h-2.56v5a1.58 1.58 0 0 0 .38 1.14 1.43 1.43 0 0 0 1.08.39 2 2 0 0 0 .68-.11 1.59 1.59 0 0 0 .57-.32z" fill="#fff"/><path d="m100.33 59.37a4 4 0 0 1 -1.53-1.53 4.64 4.64 0 0 1 0-4.42 4 4 0 0 1 1.53-1.52 4.73 4.73 0 0 1 4.39 0 4 4 0 0 1 1.53 1.52 4.72 4.72 0 0 1 0 4.42 4 4 0 0 1 -1.53 1.53 4.66 4.66 0 0 1 -4.39 0zm3.8-.87a2.79 2.79 0 0 0 1.12-1.16 3.86 3.86 0 0 0 0-3.42 2.85 2.85 0 0 0 -1.12-1.16 3.35 3.35 0 0 0 -3.21 0 2.85 2.85 0 0 0 -1.12 1.16 3.77 3.77 0 0 0 0 3.42 2.79 2.79 0 0 0 1.12 1.16 3.35 3.35 0 0 0 3.21 0z" fill="#fff"/><path d="m115.93 52.28a3.61 3.61 0 0 1 .93 2.68v4.88h-1.13v-4.77a2.79 2.79 0 0 0 -.66-2 2.46 2.46 0 0 0 -1.87-.69 2.85 2.85 0 0 0 -2.15.81 3.06 3.06 0 0 0 -.8 2.23v4.42h-1.13v-8.42h1.09v1.58a3.09 3.09 0 0 1 1.28-1.2 4.18 4.18 0 0 1 1.92-.42 3.47 3.47 0 0 1 2.52.9z" fill="#fff"/><path d="m2.22 0h177.35c1.23 0 2.22 1.79 2.22 4v33c0 2.21-1 4-2.22 4h-177.35c-1.22 0-2.22-1.79-2.22-4v-33c0-2.21 1-4 2.22-4z" fill="#ffc907"/><path d="m30.73 25.61a7 7 0 0 1 -2.14-.33 4.62 4.62 0 0 1 -1.61-.9l.52-1.09a4.42 4.42 0 0 0 1.42.82 5.34 5.34 0 0 0 1.81.31 3.3 3.3 0 0 0 1.82-.4 1.29 1.29 0 0 0 .6-1.11 1 1 0 0 0 -.33-.81 2 2 0 0 0 -.82-.49c-.31-.11-.77-.24-1.35-.38a14.68 14.68 0 0 1 -1.8-.53 3.21 3.21 0 0 1 -1.16-.81 2.25 2.25 0 0 1 -.47-1.5 2.58 2.58 0 0 1 .4-1.42 2.86 2.86 0 0 1 1.26-1 5 5 0 0 1 2.12-.38 6.58 6.58 0 0 1 1.71.22 4.54 4.54 0 0 1 1.44.65l-.46 1.12a4.6 4.6 0 0 0 -1.35-.58 4.75 4.75 0 0 0 -1.34-.22 3 3 0 0 0 -1.79.43 1.31 1.31 0 0 0 -.59 1.12 1.12 1.12 0 0 0 .33.83 2.61 2.61 0 0 0 .83.49c.34.11.79.23 1.36.36a15.52 15.52 0 0 1 1.78.53 2.9 2.9 0 0 1 1.14.82 2.09 2.09 0 0 1 .49 1.47 2.53 2.53 0 0 1 -.42 1.41 2.85 2.85 0 0 1 -1.27 1 5.42 5.42 0 0 1 -2.13.37zm14.27-1.33v1.22h-7.08v-9.8h6.92v1.22h-5.52v3h4.91v1.19h-4.91v3.16zm10.73 0v1.22h-7.08v-9.8h6.91v1.22h-5.51v3h4.95v1.19h-4.95v3.16zm10.67-7.36h-3.33v-1.22h8.11v1.22h-3.36v8.58h-1.39zm7.62-1.22h1.4v9.8h-1.4zm14.77 9.8v-7.14l-3.54 5.95h-.65l-3.52-5.91v7.1h-1.34v-9.8h1.15l4.11 6.89 4-6.89h1.14v9.8zm12.75-1.22v1.22h-7.08v-9.8h6.91v1.22h-5.51v3h4.91v1.19h-4.91v3.16zm5.56-7.36h-3.36v-1.22h8.11v1.22h-3.36v8.58h-1.39zm13.38 6.13h-5.18l-1.08 2.45h-1.44l4.44-9.8h1.38l4.45 9.8h-1.47zm-.48-1.12-2.12-4.8-2.11 4.8zm12.44-1.51a2.47 2.47 0 0 1 1.34.87 2.41 2.41 0 0 1 .49 1.56 2.25 2.25 0 0 1 -1 2 4.75 4.75 0 0 1 -2.79.69h-4.67v-9.84h4.39a4.27 4.27 0 0 1 2.59.67 2.17 2.17 0 0 1 .93 1.86 2.39 2.39 0 0 1 -.37 1.33 2.26 2.26 0 0 1 -.89.86zm-5.19-3.59v3.17h2.87a2.94 2.94 0 0 0 1.65-.39 1.35 1.35 0 0 0 .59-1.18 1.31 1.31 0 0 0 -.59-1.16 2.85 2.85 0 0 0 -1.65-.41zm3.22 7.54a3.23 3.23 0 0 0 1.79-.4 1.36 1.36 0 0 0 .6-1.23c0-1.09-.8-1.64-2.39-1.64h-3.22v3.27zm7.32-8.67h1.4v8.58h5.31v1.22h-6.71zm16.78 8.58v1.22h-7.12v-9.8h6.92v1.22h-5.52v3h4.92v1.19h-4.92v3.16z" fill="#444"/></svg>