<svg enable-background="new 0 0 82.7 86.7" viewBox="0 0 82.7 86.7" xmlns="http://www.w3.org/2000/svg"><g fill="none"><path d="m66.2 13 .6-.2c.1 0 .1-.1.1-.2v-.1c0-.1 0-.2-.1-.2l-.6-.2c-.3-.1-.5 0-.5.3v.4c-.1.2.2.3.5.2z"/><circle cx="67.4" cy="12.5" r=".4"/><path d="m68.6 13c.3.1.5 0 .5-.3v-.4c0-.2-.2-.3-.3-.3s-.1 0-.2 0l-.6.2c-.1 0-.1.1-.1.2v.1c0 .1 0 .2.1.2z"/><path d="m74.5 24.6c0 .1.1.2.1.3v.2 1.1c.9-2.3 1.9-4.5 3.1-6.6-.5-.2-1-.4-1.5-.6-.8-.4-2.4-1.2-3.5-1.8l1.6 6.9c.1.2.1.3.2.5z"/><path d="m35.4 25 1-1-.2-11.1c.1-.1.1-.3.1-.4 0-.5-.4-.9-.9-.9s-.9.4-.9.9c0 .1 0 .3.1.4l-.1 11.1z"/><path d="m28 26.4c0-.4 0-.8.1-1.2v-.1c0-.2.1-.5.2-.7l1.6-7.1c-1.1.6-2.7 1.5-3.5 1.9-.5.2-1 .4-1.5.6 1.2 2.1 2.2 4.3 3.1 6.6z"/><path d="m42.8 25.2v.1c.1.4.1.7.1 1.1.9-2.3 1.9-4.6 3.2-6.7-.5-.1-1-.3-1.5-.6-.8-.4-2.4-1.2-3.5-1.9l1.6 7c-.1.3 0 .7.1 1z"/><path d="m65.3 9.3c0 .1.1.2.1.3.1.1.3.1.4 0 0 0 0 0 0-.1l.3-.3h.2c.4-.1.7-.3.9-.6.1-.1.1-.3.2-.4.1.1.1.3.2.4.2.3.5.6.9.6h.2l.3.3c0 .1.2.2.3.1h.1c.1 0 .1-.2.1-.3v-.3-1c-.1-.7-.8-1.2-1.5-1.1-.2 0-.4.1-.6.2-.2-.1-.4-.2-.6-.2-.7-.1-1.4.4-1.5 1.1-.1.3-.1.7 0 1z"/><path d="m39.2 77.4c-.1 0-.3.1-.3.2v.1 3.2l-2.6 2.6c-.1.1-.1.3 0 .4s.1.1.2.1.1 0 .2-.1l2.8-2.8v-3.4c0-.2-.1-.3-.3-.3z"/></g><path d="m39.2 74.9c-3.3 0-5.9 2.6-5.9 5.9s2.6 5.9 5.9 5.9 5.9-2.6 5.9-5.9c0-3.3-2.6-5.9-5.9-5.9zm.3 6.2-2.8 2.8c-.1.1-.1.1-.2.1s-.1 0-.2-.1-.1-.3 0-.4l2.6-2.6v-3.2c0-.1.1-.3.2-.3h.1c.2 0 .3.1.3.2z" fill="#eb0029"/><path d="m75.3 69h-75.3v1.7h75.3v3.5l7.4-4.3-7.4-4.3z" fill="#eb0029"/><path d="m67.4 10.5c2.8 0 5.1-2.3 5.1-5.1s-2.3-5.1-5.1-5.1-5.1 2.3-5.1 5.1c0 2.8 2.3 5.1 5.1 5.1zm-2.1-1.5v-1c.1-.7.8-1.2 1.5-1.1.2 0 .4.1.6.2.2-.1.4-.2.6-.2.7-.1 1.4.4 1.5 1.1.1.3.1.7 0 1v.3c0 .1-.1.2-.1.3-.1.1-.3.1-.4 0 0 0 0 0 0-.1l-.3-.3h-.2c-.4-.1-.7-.3-.9-.6-.1-.1-.1-.3-.2-.4-.1.1-.1.3-.2.4-.2.3-.5.6-.9.6h-.2l-.3.3c0 .1-.2.2-.3.1h-.1c-.1 0-.1-.2-.1-.3z" fill="#eb0029"/><path d="m58.1 37c.3.3.4.8.4 1.2h.9c0-.9-.4-1.7-1.1-2.2 0 .3-.1.7-.2 1z" fill="#eb0029"/><path d="m53.8 64h.9v-25.8c0-.7.3-1.3.9-1.6l-.3-.9c-.9.4-1.6 1.4-1.6 2.4v.1c.1 0 .1 25.8.1 25.8z" fill="#eb0029"/><path d="m56.9 37.6c1.7 0 1.8-10.5 1.8-10.5 0-.4-.1-.7-.3-1 .3-.6.5-1.1.7-1.5.5-1.3 2.6-6.9 2.7-7.5h.2l-1.6 7.2c0 .1 0 .2-.1.2 0 .2-.1.3-.1.5v.1.1c0 .2 0 .3-.1.5v.7c0 1.5.5 3 1.3 4.2 0 .2-.1.3-.1.5-.5 1.7-1.5 7.9.1 30.1.1.1.1.1.2.1v.5c-.1 1.2.8 2.3 2 2.4 1.2-.1 2.1-1.2 2-2.4v-.4c.1-.1.3-.2.4-.3.4-10.1-.4-21.7 1.3-25.9.4 1.1.6 2.3.8 3.5.1.9.1 1.8.2 2.4 0 .3.1.7.1 1.2.2 5.3 0 12.4.3 18.8.1.1.2.1.3.2v.4c-.1 1.2.8 2.3 2 2.4 1.2-.1 2.1-1.2 2-2.4v-.4l.4-.2c1.8-24.8.3-29.6-.1-30.5.3-.4.6-.9.8-1.4 0 .2.1.3.2.4 1.5.8 6.8-8.3 6.8-8.3.3-.4.3-.9.1-1.4 0-.2 0-.3-.1-.5-1.1-3.1-4.9-5.2-7.7-6.2-4.9-3.2-11.4-2-14.9 2.6-.3.4-.6.8-.8 1.3 0 .1 0 .1-.1.2-1.2 2.2-2.8 6.2-2.3 9.5-.1.2-.1.4-.1.6-.1-.3 0 10.2 1.7 10.2zm19.4-18.5 1.5.6c-1.2 2.1-2.2 4.3-3.1 6.6v-1.1-.2c0-.1 0-.2-.1-.3 0-.2-.1-.3-.1-.5l-1.6-6.9c1 .5 2.6 1.4 3.4 1.8zm-8.5-6.6c0-.1 0-.2.1-.2l.6-.2c.3-.1.5 0 .5.3v.4c0 .2-.2.3-.3.3s-.1 0-.2 0l-.6-.2c-.1 0-.1-.1-.1-.2zm-.4-.4c.2 0 .4.2.4.4s-.2.4-.4.4-.4-.2-.4-.4.2-.4.4-.4zm-1.8.3c0-.2.2-.3.3-.3h.2l.6.2c.1 0 .1.1.1.2v.1c0 .1 0 .2-.1.2l-.6.2c-.3.1-.5 0-.5-.3z" fill="#eb0029"/><circle cx="35.4" cy="5.2" fill="#eb0029" r="5.2"/><path d="m21.5 21.3s5.4 9.3 6.9 8.4c.1-.1.2-.2.2-.4.1.1.1.3.2.4v2.6c-.5 3.1-.9 10.7.4 29.2.1.1.2.1.3.2v.8c-.1 1.2.8 2.3 2 2.4 1.2-.1 2.1-1.2 2-2.4v-.7c.1-.1.2-.1.3-.2.3-6.7 0-14.1.3-19.6v-.4c0-.5.1-1.2.1-2 .1-1.5.4-2.9.9-4.3 1.7 4.2.9 16.1 1.3 26.4.1.1.2.2.4.2v.6c-.1 1.2.8 2.3 2 2.4 1.2-.1 2.1-1.2 2-2.4v-.7c.1-.1.2-.1.3-.2 1.3-18.7.9-26.2.4-29.3v-2.1c.2-.2.3-.5.4-.8 0 .2.1.3.2.4 1.5.9 6.9-8.4 6.9-8.4.3-.5.3-1 .1-1.5 0-.2 0-.3-.1-.5-1.8-5-10.6-7.4-11-7.2l-.5-1.1-2.2.2h-.4l-2.2-.2-.2 1c-.5-.2-9.2 2.2-11 7.2-.1.2-.1.3-.1.5-.2.5-.2 1 .1 1.5zm23-2.2c.5.2 1 .4 1.5.6-.5 1-2.2 4.2-3.2 6.7 0-.4 0-.7-.1-1.1v-.1c-.1-.3-.1-.6-.2-1l-1.6-7c1.2.7 2.8 1.5 3.6 1.9zm-9.9-6.6c0-.5.4-.9.9-.9s.9.4.9.9c0 .1 0 .3-.1.4l.2 11.1-1 1-1-1 .2-11.1c-.1-.1-.1-.3-.1-.4zm-8.2 6.6c.8-.4 2.4-1.2 3.5-1.9l-1.6 7.1c-.1.2-.1.5-.2.7v.1c-.1.4-.1.8-.1 1.2-.9-2.3-1.9-4.6-3.2-6.7.6-.1 1.1-.2 1.6-.5z" fill="#eb0029"/><path d="m.8 48.7c.1.1.3.1.4.1.5 0 .9-.3 1.1-.8l3.6-9.3v23.1 1.7c0 .8.6 1.4 1.3 1.4h.1.3c.8 0 1.4-.6 1.4-1.3 0 0 0 0 0-.1v-1.5-12.9h1.7v3.1 11.2c0 .8.6 1.4 1.3 1.4h.1.4c.8 0 1.4-.6 1.4-1.3 0 0 0 0 0-.1v-1.5-23l3.6 9.3c.2.5.6.8 1.1.8.1 0 .3 0 .4-.1.6-.2.9-.9.7-1.5l-4.8-12.4c-.2-.4-.6-.7-1-.7h-2.4v-1.2c1.2-.5 2.2-1.5 2.6-2.8.5-.8.7-1.7.7-2.6 0-1.6-.8-3.1-2.1-4 .8-.2.5-1.1 0-1.3 0 .8-2.1.4-2.1.4-.2 0-.5-.1-.7-.1-2.7 0-4.9 2.2-4.9 4.9 0 .9.2 1.8.7 2.6.4 1.3 1.3 2.3 2.6 2.8v1.2h-2.4c-.4 0-.8.3-1 .7l-4.8 12.3c-.2.6.1 1.3.7 1.5z" fill="#eb0029"/></svg>