<?xml version="1.0" encoding="utf-8"?>
<!-- Generator: Adobe Illustrator 25.4.1, SVG Export Plug-In . SVG Version: 6.00 Build 0)  -->
<svg version="1.1" id="Layer_1" xmlns="http://www.w3.org/2000/svg" xmlns:xlink="http://www.w3.org/1999/xlink" x="0px" y="0px"
	 viewBox="0 0 192 192" style="enable-background:new 0 0 192 192;" xml:space="preserve">
<style type="text/css">
	.st0{fill:none;stroke:#DB2C47;stroke-width:12;stroke-linecap:round;stroke-linejoin:round;stroke-miterlimit:3;}
</style>
<line class="st0" x1="96" y1="129.4" x2="96" y2="62.7"/>
<path class="st0" d="M68.1,107.2c15.3,0,27.9,12.5,27.9,27.9s-12.5,27.9-27.9,27.9S40.3,150.4,40.3,135v-4.6"/>
<path class="st0" d="M123.9,107.2c-15.3,0-27.9,12.5-27.9,27.9s12.5,27.9,27.9,27.9s27.9-12.5,27.9-27.9v-4.6"/>
<path class="st0" d="M57,132.2h-5.7C33,132.2,18,117.3,18,98.7c0-14.1,8.9-26.9,22.2-31.5V56.9C40.3,41.5,52.8,29,68.1,29
	S96,41.7,96,57.1v78"/>
<path class="st0" d="M135,132.2h5.7c18.4,0,33.3-14.9,33.3-33.5c0-14.1-8.9-26.9-22.2-31.5V56.9c0-15.3-12.5-27.9-27.9-27.9
	S96,41.7,96,57.1"/>
<path class="st0" d="M68.1,65.4V71c0,10.7-8.7,19.6-19.6,19.6"/>
<path class="st0" d="M123.9,65.4V71c0,10.7,8.7,19.6,19.6,19.6"/>
</svg>
