<svg xmlns="http://www.w3.org/2000/svg" viewBox="0 0 232 232"><defs><style>.ab041cdd-d8f4-4219-8fe5-9bf7fed0c092{fill:#111115;}.a2083155-7dd4-4c8e-a2b0-215c4a515053,.b5fa6d6d-463c-4b72-aec9-d99b4abd23b2,.fc26fbdf-c779-4540-81d5-b697568efcbb{fill:none;}.a2083155-7dd4-4c8e-a2b0-215c4a515053{stroke:#d63737;stroke-miterlimit:10;}.a2083155-7dd4-4c8e-a2b0-215c4a515053,.b5fa6d6d-463c-4b72-aec9-d99b4abd23b2{stroke-width:10px;}.b5fa6d6d-463c-4b72-aec9-d99b4abd23b2,.fc26fbdf-c779-4540-81d5-b697568efcbb{stroke:#fff;stroke-linecap:round;stroke-linejoin:round;}.e95e98fe-d80d-4429-86f2-f3d8e81ec8a0{fill:#fff;}.fc26fbdf-c779-4540-81d5-b697568efcbb{stroke-width:4px;}</style></defs><g id="b65f892d-1998-443b-a244-4a68e3f77995" data-name="Layer 2"><g id="e51ccd31-5fcc-4190-9bff-0049f1f61cfc" data-name="Layer 1"><rect class="ab041cdd-d8f4-4219-8fe5-9bf7fed0c092" width="232" height="232" rx="27.54"/><circle class="a2083155-7dd4-4c8e-a2b0-215c4a515053" cx="116" cy="116" r="93.57"/><path class="b5fa6d6d-463c-4b72-aec9-d99b4abd23b2" d="M167.43,157.78V125.64a21.34,21.34,0,0,0-.18-3.39c-1.07-15.9-4.64-24.47-18.21-33"/><path class="b5fa6d6d-463c-4b72-aec9-d99b4abd23b2" d="M72.78,164.21c0,9.64,8.22,17.32,18,17.32h52.68"/><circle class="b5fa6d6d-463c-4b72-aec9-d99b4abd23b2" cx="143.5" cy="157.78" r="23.75"/><circle class="b5fa6d6d-463c-4b72-aec9-d99b4abd23b2" cx="117.25" cy="74.03" r="35.36"/><path class="e95e98fe-d80d-4429-86f2-f3d8e81ec8a0" d="M75.48,101.1H72.22a.48.48,0,0,0-.46.46v10a.5.5,0,0,0,.46.47h3.26a.5.5,0,0,0,.46-.47v-10S75.71,101.1,75.48,101.1Z"/><path class="e95e98fe-d80d-4429-86f2-f3d8e81ec8a0" d="M75.94,99.94c.7-3.49,0-5.58-2.09-6.75-2.09,1.63-2.79,3.72-2.09,6.75Z"/><path class="e95e98fe-d80d-4429-86f2-f3d8e81ec8a0" d="M79.66,130.43A9.61,9.61,0,0,1,78.5,126v-7.67A1.59,1.59,0,0,0,77,116.71H70.59A1.59,1.59,0,0,0,69,118.27V126a9.62,9.62,0,0,1-1.17,4.42A18,18,0,0,0,65,139.26V156a35.74,35.74,0,0,0,.7,7,19,19,0,0,0,.93,3.48v1.4c0,.93,1.16,1.63,2.33,1.63h9.3c1.39,0,2.32-.7,2.32-1.63v-1.16a19.11,19.11,0,0,0,.93-3.49,35,35,0,0,0,.7-7v-16.8a14.85,14.85,0,0,0-2.56-9Z"/><path class="e95e98fe-d80d-4429-86f2-f3d8e81ec8a0" d="M117.25,77.8A3.77,3.77,0,1,0,113.48,74h0A3.84,3.84,0,0,0,117.25,77.8Z"/><path class="fc26fbdf-c779-4540-81d5-b697568efcbb" d="M110.46,67.25V80.82H124l13-26.43Z"/></g></g></svg>
