<svg xmlns="http://www.w3.org/2000/svg" viewBox="0 0 300 300.1"><defs><style>.a609c88b-c59c-4a4e-9a4c-fa5f486f31ed{fill:#DB2C47;}.afbda75f-0ef7-4b0b-b40b-acc0211c0dbf,.e844a246-8486-4c6b-a21f-cecca712eae2{fill:none;}.afbda75f-0ef7-4b0b-b40b-acc0211c0dbf{stroke:#fff;stroke-linecap:round;stroke-linejoin:round;stroke-width:12px;}</style></defs><g id="f5d48958-b61a-436f-b22e-373ee4c0e9f5" data-name="Layer 2"><g id="efa6b5b7-2c25-458f-8eda-d7a0c82d27bc" data-name="Layer 1"><path class="a609c88b-c59c-4a4e-9a4c-fa5f486f31ed" d="M28.9,0H271.2A28.83,28.83,0,0,1,300,28.9V271.2a28.91,28.91,0,0,1-28.9,28.9H28.9A29,29,0,0,1,0,271.1V28.9A28.85,28.85,0,0,1,28.9,0Z"/><rect class="e844a246-8486-4c6b-a21f-cecca712eae2" x="54" y="54" width="192" height="192"/><rect class="e844a246-8486-4c6b-a21f-cecca712eae2" x="54" y="54" width="192" height="192"/><polyline class="afbda75f-0ef7-4b0b-b40b-acc0211c0dbf" points="186.13 128.79 222.13 128.79 222.13 92.79"/><path class="afbda75f-0ef7-4b0b-b40b-acc0211c0dbf" d="M103.33,103.33a66,66,0,0,1,93.34,0h0l25.45,25.46"/><polyline class="afbda75f-0ef7-4b0b-b40b-acc0211c0dbf" points="113.88 171.21 77.88 171.21 77.88 207.21"/><path class="afbda75f-0ef7-4b0b-b40b-acc0211c0dbf" d="M196.67,196.67a66,66,0,0,1-93.34,0h0L77.88,171.21"/></g></g></svg>
