<?xml version="1.0" encoding="utf-8"?>
<!-- Generator: Adobe Illustrator 25.4.1, SVG Export Plug-In . SVG Version: 6.00 Build 0)  -->
<svg version="1.1" id="Layer_1" xmlns="http://www.w3.org/2000/svg" xmlns:xlink="http://www.w3.org/1999/xlink" x="0px" y="0px"
	 viewBox="0 0 192 192" style="enable-background:new 0 0 192 192;" xml:space="preserve">
<style type="text/css">
	.st0{fill:none;stroke:#DB2C47;stroke-width:12;stroke-linecap:round;stroke-miterlimit:10;}
	.st1{fill:none;stroke:#DB2C47;stroke-width:12;stroke-linecap:round;stroke-linejoin:round;stroke-miterlimit:3;}
</style>
<path class="st0" d="M178.5,46.4"/>
<path class="st0" d="M159.4,21.3"/>
<path class="st0" d="M116.9-7"/>
<polyline class="st1" points="21.8,169.3 21.8,138.3 58.6,138.3 58.6,158 91.5,158 91.5,111.2 124.8,77.9 152.5,105.6 152.5,87.4 
	176.2,87.4 176.2,148.3 176.2,169.3 "/>
<path class="st0" d="M15.8,60.9h8c5.1,0,9.2-4.1,9.2-9.2v-2.3c0-5.1,4.1-9.2,9.2-9.2h0c5.1,0,9.2,4.1,9.2,9.2v21.5
	c0,5.1,4.1,9.2,9.2,9.2H61c5.1,0,9.2-4.1,9.2-9.2V33c0-5.7,4.6-10.3,10.3-10.3h0.1c5.6,0,10.1,4.5,10.1,10.1V47
	c0,5.5,4.4,9.9,9.9,9.9h15.1"/>
</svg>
