<?xml version="1.0" encoding="utf-8"?>
<!-- Generator: Adobe Illustrator 25.4.1, SVG Export Plug-In . SVG Version: 6.00 Build 0)  -->
<svg version="1.1" id="Layer_1" xmlns="http://www.w3.org/2000/svg" xmlns:xlink="http://www.w3.org/1999/xlink" x="0px" y="0px"
	 viewBox="0 0 300 300" style="enable-background:new 0 0 300 300;" xml:space="preserve">
<style type="text/css">
	.st0{fill:#034EA2;}
	.st1{fill:none;}
	.st2{fill:none;stroke:#FFFFFF;stroke-width:12;stroke-linecap:round;stroke-linejoin:round;stroke-miterlimit:3;}
</style>
<path class="st0" d="M28.9,0h242.3C287.1,0,300,12.9,300,28.9v242.3c0,15.9-12.9,28.9-28.9,28.9H28.9C12.9,300,0,287.1,0,271.1V28.9
	C0,12.9,12.9,0,28.9,0z"/>
<rect x="54" y="54" class="st1" width="192" height="192"/>
<line class="st2" x1="126" y1="168" x2="174" y2="168"/>
<line class="st2" x1="126" y1="144" x2="174" y2="144"/>
<path class="st2" d="M174,84h30c3.3,0,6,2.7,6,6v126c0,3.3-2.7,6-6,6H96c-3.3,0-6-2.7-6-6V90c0-3.3,2.7-6,6-6h30"/>
<path class="st2" d="M120,108v-6c0-16.6,13.4-30,30-30s30,13.4,30,30v6H120z"/>
</svg>
