<?xml version="1.0" encoding="utf-8"?>
<!-- Generator: Adobe Illustrator 25.4.1, SVG Export Plug-In . SVG Version: 6.00 Build 0)  -->
<svg version="1.1" id="Layer_1" xmlns="http://www.w3.org/2000/svg" xmlns:xlink="http://www.w3.org/1999/xlink" x="0px" y="0px"
	 viewBox="0 0 300 300" style="enable-background:new 0 0 300 300;" xml:space="preserve">
<style type="text/css">
	.st0{fill:#034EA2;}
	.st1{fill:none;}
	.st2{fill:none;stroke:#EFEFEF;stroke-width:12;stroke-linecap:round;stroke-linejoin:round;}
</style>
<path class="st0" d="M28.7,0h242.6C287.1,0,300,12.9,300,28.7v242.6c0,15.9-12.9,28.7-28.7,28.7H28.7C12.9,300,0,287.1,0,271.3V28.7
	C0,12.9,12.9,0,28.7,0z"/>
<rect x="54" y="54" class="st1" width="192" height="192"/>
<path class="st2" d="M126,216H90c-3.3,0-6-2.7-6-6v-33.5c0-1.6,0.6-3.1,1.8-4.2l90-90c2.3-2.3,6.1-2.3,8.5,0l33.5,33.5
	c2.3,2.3,2.3,6.1,0,8.5L126,216z"/>
<line class="st2" x1="156" y1="102" x2="198" y2="144"/>
<polyline class="st2" points="216,216 126,216 84.4,174.4 "/>
</svg>
