<svg fill="none" height="123" viewBox="0 0 879 123" width="879" xmlns="http://www.w3.org/2000/svg"><path d="m17.09 112.925h-2.31l-.54 3.075h-.96l.54-3.075h-1.92v-.9h2.07l.42-2.52h-1.905v-.9h2.07l.525-3.075h.96l-.525 3.075h2.31l.525-3.075h.96l-.525 3.075h1.92v.9h-2.085l-.42 2.52h1.92v.9h-2.07l-.54 3.075h-.96zm.15-.9.42-2.52h-2.31l-.42 2.52zm5.8484 3.975v-10.47h6.39v1.11h-5.13v3.51h4.83v1.11h-4.83v3.63h5.13v1.11zm14.8201-9.36h-4.59l-.3 3.99h.105c.25-.35.53-.63.84-.84.32-.21.755-.315 1.305-.315.45 0 .865.075 1.245.225s.71.365.99.645c.28.27.495.605.645 1.005.16.4.24.855.24 1.365s-.08.98-.24 1.41c-.16.42-.395.785-.705 1.095-.3.3-.67.535-1.11.705-.43.17-.92.255-1.47.255-.44 0-.83-.05-1.17-.15-.33-.1-.625-.235-.885-.405s-.49-.36-.69-.57c-.19-.21-.365-.43-.525-.66l.945-.72c.13.21.265.4.405.57.15.17.31.315.48.435.18.12.385.215.615.285.23.06.505.09.825.09.72 0 1.265-.19 1.635-.57s.555-.915.555-1.605v-.15c0-.69-.185-1.225-.555-1.605s-.915-.57-1.635-.57c-.48 0-.86.09-1.14.27-.27.17-.515.375-.735.615l-1.065-.15.375-5.76h5.61zm5.4391 3.33c.71 0 1.24-.16 1.59-.48.36-.33.54-.75.54-1.26v-.105c0-.55-.175-.96-.525-1.23-.34-.28-.79-.42-1.35-.42-.54 0-.98.12-1.32.36-.34.23-.62.545-.84.945l-.93-.72c.13-.21.285-.415.465-.615.19-.21.41-.395.66-.555s.54-.29.87-.39.705-.15 1.125-.15c.44 0 .855.06 1.245.18.39.11.725.28 1.005.51.29.22.515.495.675.825.17.33.255.705.255 1.125 0 .34-.055.645-.165.915-.1.27-.24.505-.42.705s-.395.37-.645.51c-.24.14-.5.245-.78.315v.06c.28.06.55.16.81.3.27.13.505.305.705.525.21.21.375.47.495.78.13.3.195.645.195 1.035 0 .45-.085.865-.255 1.245-.17.37-.41.69-.72.96-.31.26-.685.465-1.125.615s-.925.225-1.455.225c-.45 0-.85-.05-1.2-.15s-.66-.235-.93-.405-.51-.36-.72-.57c-.2-.21-.38-.43-.54-.66l.945-.72c.13.21.27.4.42.57.16.17.335.315.525.435s.405.215.645.285c.24.06.52.09.84.09.74 0 1.3-.165 1.68-.495.38-.34.57-.82.57-1.44v-.12c0-.62-.19-1.095-.57-1.425-.38-.34-.94-.51-1.68-.51h-1.23v-1.095zm6.4742-4.44h4.305c.87 0 1.55.245 2.04.735.5.49.75 1.145.75 1.965 0 .39-.055.72-.165.99s-.25.495-.42.675c-.17.17-.355.3-.555.39-.2.08-.385.135-.555.165v.09c.19.01.4.06.63.15.24.09.465.235.675.435.21.19.385.44.525.75.15.3.225.665.225 1.095s-.07.83-.21 1.2c-.13.37-.315.69-.555.96s-.525.485-.855.645c-.33.15-.69.225-1.08.225h-4.755zm1.26 9.36h3.105c.54 0 .965-.135 1.275-.405.31-.28.465-.685.465-1.215v-.51c0-.53-.155-.93-.465-1.2-.31-.28-.735-.42-1.275-.42h-3.105zm0-4.83h2.895c.5 0 .89-.125 1.17-.375s.42-.61.42-1.08v-.51c0-.47-.14-.83-.42-1.08s-.67-.375-1.17-.375h-2.895zm15.1398 5.94h-6.87v-1.29l3.42-3.15c.49-.45.9-.925 1.23-1.425.33-.51.495-1.02.495-1.53v-.18c0-.58-.16-1.05-.48-1.41s-.805-.54-1.455-.54c-.32 0-.6.045-.84.135s-.45.215-.63.375c-.17.16-.315.35-.435.57-.11.21-.2.44-.27.69l-1.125-.435c.1-.31.235-.61.405-.9.18-.3.4-.565.66-.795.27-.23.59-.415.96-.555.38-.14.825-.21 1.335-.21s.965.075 1.365.225.735.36 1.005.63.475.59.615.96c.15.37.225.78.225 1.23 0 .41-.06.79-.18 1.14-.11.35-.265.685-.465 1.005-.2.31-.445.615-.735.915-.28.3-.585.6-.915.9l-2.82 2.535h5.505zm8.4691-9.36h-4.59l-.3 3.99h.105c.25-.35.53-.63.84-.84.32-.21.755-.315 1.305-.315.45 0 .865.075 1.245.225s.71.365.99.645c.28.27.495.605.645 1.005.16.4.24.855.24 1.365s-.08.98-.24 1.41c-.16.42-.395.785-.705 1.095-.3.3-.67.535-1.11.705-.43.17-.92.255-1.47.255-.44 0-.83-.05-1.17-.15-.33-.1-.625-.235-.885-.405s-.49-.36-.69-.57c-.19-.21-.365-.43-.525-.66l.945-.72c.13.21.265.4.405.57.15.17.31.315.48.435.18.12.385.215.615.285.23.06.505.09.825.09.72 0 1.265-.19 1.635-.57s.555-.915.555-1.605v-.15c0-.69-.185-1.225-.555-1.605s-.915-.57-1.635-.57c-.48 0-.86.09-1.14.27-.27.17-.515.375-.735.615l-1.065-.15.375-5.76h5.61z" fill="#fff"/><rect fill="#e53b25" height="88" rx="15" width="88"/><path d="m808.09 112.925h-2.31l-.54 3.075h-.96l.54-3.075h-1.92v-.9h2.07l.42-2.52h-1.905v-.9h2.07l.525-3.075h.96l-.525 3.075h2.31l.525-3.075h.96l-.525 3.075h1.92v.9h-2.085l-.42 2.52h1.92v.9h-2.07l-.54 3.075h-.96zm.15-.9.42-2.52h-2.31l-.42 2.52zm8.953 4.155c-1.25 0-2.165-.475-2.745-1.425-.57-.95-.855-2.28-.855-3.99s.285-3.04.855-3.99c.58-.95 1.495-1.425 2.745-1.425s2.16.475 2.73 1.425c.58.95.87 2.28.87 3.99s-.29 3.04-.87 3.99c-.57.95-1.48 1.425-2.73 1.425zm0-1.095c.41 0 .76-.085 1.05-.255s.525-.41.705-.72.31-.675.39-1.095c.09-.42.135-.885.135-1.395v-1.71c0-.51-.045-.975-.135-1.395-.08-.42-.21-.785-.39-1.095s-.415-.55-.705-.72-.64-.255-1.05-.255-.76.085-1.05.255-.525.41-.705.72-.315.675-.405 1.095c-.08.42-.12.885-.12 1.395v1.71c0 .51.04.975.12 1.395.09.42.225.785.405 1.095s.415.55.705.72.64.255 1.05.255zm8.995 1.095c-1.25 0-2.165-.475-2.745-1.425-.57-.95-.855-2.28-.855-3.99s.285-3.04.855-3.99c.58-.95 1.495-1.425 2.745-1.425s2.16.475 2.73 1.425c.58.95.87 2.28.87 3.99s-.29 3.04-.87 3.99c-.57.95-1.48 1.425-2.73 1.425zm0-1.095c.41 0 .76-.085 1.05-.255s.525-.41.705-.72.31-.675.39-1.095c.09-.42.135-.885.135-1.395v-1.71c0-.51-.045-.975-.135-1.395-.08-.42-.21-.785-.39-1.095s-.415-.55-.705-.72-.64-.255-1.05-.255-.76.085-1.05.255-.525.41-.705.72-.315.675-.405 1.095c-.08.42-.12.885-.12 1.395v1.71c0 .51.04.975.12 1.395.09.42.225.785.405 1.095s.415.55.705.72.64.255 1.05.255zm8.994 1.095c-1.25 0-2.165-.475-2.745-1.425-.57-.95-.855-2.28-.855-3.99s.285-3.04.855-3.99c.58-.95 1.495-1.425 2.745-1.425s2.16.475 2.73 1.425c.58.95.87 2.28.87 3.99s-.29 3.04-.87 3.99c-.57.95-1.48 1.425-2.73 1.425zm0-1.095c.41 0 .76-.085 1.05-.255s.525-.41.705-.72.31-.675.39-1.095c.09-.42.135-.885.135-1.395v-1.71c0-.51-.045-.975-.135-1.395-.08-.42-.21-.785-.39-1.095s-.415-.55-.705-.72-.64-.255-1.05-.255-.76.085-1.05.255-.525.41-.705.72-.315.675-.405 1.095c-.08.42-.12.885-.12 1.395v1.71c0 .51.04.975.12 1.395.09.42.225.785.405 1.095s.415.55.705.72.64.255 1.05.255zm8.994 1.095c-1.25 0-2.165-.475-2.745-1.425-.57-.95-.855-2.28-.855-3.99s.285-3.04.855-3.99c.58-.95 1.495-1.425 2.745-1.425s2.16.475 2.73 1.425c.58.95.87 2.28.87 3.99s-.29 3.04-.87 3.99c-.57.95-1.48 1.425-2.73 1.425zm0-1.095c.41 0 .76-.085 1.05-.255s.525-.41.705-.72.31-.675.39-1.095c.09-.42.135-.885.135-1.395v-1.71c0-.51-.045-.975-.135-1.395-.08-.42-.21-.785-.39-1.095s-.415-.55-.705-.72-.64-.255-1.05-.255-.76.085-1.05.255-.525.41-.705.72-.315.675-.405 1.095c-.08.42-.12.885-.12 1.395v1.71c0 .51.04.975.12 1.395.09.42.225.785.405 1.095s.415.55.705.72.64.255 1.05.255zm8.994 1.095c-1.25 0-2.165-.475-2.745-1.425-.57-.95-.855-2.28-.855-3.99s.285-3.04.855-3.99c.58-.95 1.495-1.425 2.745-1.425s2.16.475 2.73 1.425c.58.95.87 2.28.87 3.99s-.29 3.04-.87 3.99c-.57.95-1.48 1.425-2.73 1.425zm0-1.095c.41 0 .76-.085 1.05-.255s.525-.41.705-.72.31-.675.39-1.095c.09-.42.135-.885.135-1.395v-1.71c0-.51-.045-.975-.135-1.395-.08-.42-.21-.785-.39-1.095s-.415-.55-.705-.72-.64-.255-1.05-.255-.76.085-1.05.255-.525.41-.705.72-.315.675-.405 1.095c-.08.42-.12.885-.12 1.395v1.71c0 .51.04.975.12 1.395.09.42.225.785.405 1.095s.415.55.705.72.64.255 1.05.255zm8.994 1.095c-1.25 0-2.165-.475-2.745-1.425-.57-.95-.855-2.28-.855-3.99s.285-3.04.855-3.99c.58-.95 1.495-1.425 2.745-1.425s2.16.475 2.73 1.425c.58.95.87 2.28.87 3.99s-.29 3.04-.87 3.99c-.57.95-1.48 1.425-2.73 1.425zm0-1.095c.41 0 .76-.085 1.05-.255s.525-.41.705-.72.31-.675.39-1.095c.09-.42.135-.885.135-1.395v-1.71c0-.51-.045-.975-.135-1.395-.08-.42-.21-.785-.39-1.095s-.415-.55-.705-.72-.64-.255-1.05-.255-.76.085-1.05.255-.525.41-.705.72-.315.675-.405 1.095c-.08.42-.12.885-.12 1.395v1.71c0 .51.04.975.12 1.395.09.42.225.785.405 1.095s.415.55.705.72.64.255 1.05.255z" fill="#fff"/><rect fill="#000" height="88" rx="15" width="88" x="791"/><path d="m695.16 112.925h-2.31l-.54 3.075h-.96l.54-3.075h-1.92v-.9h2.07l.42-2.52h-1.905v-.9h2.07l.525-3.075h.96l-.525 3.075h2.31l.525-3.075h.96l-.525 3.075h1.92v.9h-2.085l-.42 2.52h1.92v.9h-2.07l-.54 3.075h-.96zm.15-.9.42-2.52h-2.31l-.42 2.52zm5.849 3.975v-10.47h6.39v1.11h-5.13v3.51h4.83v1.11h-4.83v3.63h5.13v1.11zm12.435.18c-1.33 0-2.365-.45-3.105-1.35-.74-.91-1.11-2.245-1.11-4.005s.37-3.11 1.11-4.05c.74-.95 1.775-1.425 3.105-1.425.88 0 1.615.2 2.205.6.6.4 1.065.965 1.395 1.695l-1.02.615c-.21-.54-.53-.97-.96-1.29-.43-.33-.97-.495-1.62-.495-.45 0-.855.085-1.215.255-.35.17-.65.415-.9.735-.24.31-.425.685-.555 1.125-.13.43-.195.915-.195 1.455v1.56c0 1.08.25 1.925.75 2.535s1.205.915 2.115.915c.67 0 1.23-.17 1.68-.51.45-.35.78-.81.99-1.38l1.005.63c-.33.74-.805 1.325-1.425 1.755-.62.42-1.37.63-2.25.63zm5.626-10.65h4.305c.87 0 1.55.245 2.04.735.5.49.75 1.145.75 1.965 0 .39-.055.72-.165.99s-.25.495-.42.675c-.17.17-.355.3-.555.39-.2.08-.385.135-.555.165v.09c.19.01.4.06.63.15.24.09.465.235.675.435.21.19.385.44.525.75.15.3.225.665.225 1.095s-.07.83-.21 1.2c-.13.37-.315.69-.555.96s-.525.485-.855.645c-.33.15-.69.225-1.08.225h-4.755zm1.26 9.36h3.105c.54 0 .965-.135 1.275-.405.31-.28.465-.685.465-1.215v-.51c0-.53-.155-.93-.465-1.2-.31-.28-.735-.42-1.275-.42h-3.105zm0-4.83h2.895c.5 0 .89-.125 1.17-.375s.42-.61.42-1.08v-.51c0-.47-.14-.83-.42-1.08s-.67-.375-1.17-.375h-2.895zm15.14 5.94h-6.87v-1.29l3.42-3.15c.49-.45.9-.925 1.23-1.425.33-.51.495-1.02.495-1.53v-.18c0-.58-.16-1.05-.48-1.41s-.805-.54-1.455-.54c-.32 0-.6.045-.84.135s-.45.215-.63.375c-.17.16-.315.35-.435.57-.11.21-.2.44-.27.69l-1.125-.435c.1-.31.235-.61.405-.9.18-.3.4-.565.66-.795.27-.23.59-.415.96-.555.38-.14.825-.21 1.335-.21s.965.075 1.365.225.735.36 1.005.63.475.59.615.96c.15.37.225.78.225 1.23 0 .41-.06.79-.18 1.14-.11.35-.265.685-.465 1.005-.2.31-.445.615-.735.915-.28.3-.585.6-.915.9l-2.82 2.535h5.505zm6.084.18c-1.33 0-2.365-.45-3.105-1.35-.74-.91-1.11-2.245-1.11-4.005s.37-3.11 1.11-4.05c.74-.95 1.775-1.425 3.105-1.425.88 0 1.615.2 2.205.6.6.4 1.065.965 1.395 1.695l-1.02.615c-.21-.54-.53-.97-.96-1.29-.43-.33-.97-.495-1.62-.495-.45 0-.855.085-1.215.255-.35.17-.65.415-.9.735-.24.31-.425.685-.555 1.125-.13.43-.195.915-.195 1.455v1.56c0 1.08.25 1.925.75 2.535s1.205.915 2.115.915c.67 0 1.23-.17 1.68-.51.45-.35.78-.81.99-1.38l1.005.63c-.33.74-.805 1.325-1.425 1.755-.62.42-1.37.63-2.25.63zm8.732 0c-.6 0-1.125-.075-1.575-.225-.45-.16-.83-.375-1.14-.645-.3-.27-.53-.59-.69-.96-.15-.37-.225-.77-.225-1.2 0-.72.195-1.29.585-1.71s.9-.715 1.53-.885v-.12c-.55-.19-.99-.495-1.32-.915-.32-.43-.48-.945-.48-1.545 0-.8.29-1.435.87-1.905.58-.48 1.395-.72 2.445-.72s1.865.24 2.445.72c.58.47.87 1.105.87 1.905 0 .6-.165 1.115-.495 1.545-.32.42-.755.725-1.305.915v.12c.63.17 1.14.465 1.53.885s.585.99.585 1.71c0 .43-.08.83-.24 1.2-.15.37-.38.69-.69.96-.3.27-.675.485-1.125.645-.45.15-.975.225-1.575.225zm0-1.095c.73 0 1.295-.16 1.695-.48.4-.33.6-.795.6-1.395v-.315c0-.6-.2-1.06-.6-1.38-.4-.33-.965-.495-1.695-.495s-1.295.165-1.695.495c-.4.32-.6.78-.6 1.38v.315c0 .6.2 1.065.6 1.395.4.32.965.48 1.695.48zm0-5.115c.66 0 1.16-.14 1.5-.42s.51-.69.51-1.23v-.225c0-.54-.17-.95-.51-1.23s-.84-.42-1.5-.42-1.16.14-1.5.42-.51.69-.51 1.23v.225c0 .54.17.95.51 1.23s.84.42 1.5.42z" fill="#fff"/><rect fill="#ecb2c8" height="88" rx="15" width="88" x="678"/><path d="m469.09 112.925h-2.31l-.54 3.075h-.96l.54-3.075h-1.92v-.9h2.07l.42-2.52h-1.905v-.9h2.07l.525-3.075h.96l-.525 3.075h2.31l.525-3.075h.96l-.525 3.075h1.92v.9h-2.085l-.42 2.52h1.92v.9h-2.07l-.54 3.075h-.96zm.15-.9.42-2.52h-2.31l-.42 2.52zm7.078 3.975 4.005-9.39h-4.47v1.95h-1.125v-3.03h6.87v1.11l-3.93 9.36zm7.765 0v-10.47h6.39v1.11h-5.13v3.51h4.83v1.11h-4.83v3.63h5.13v1.11zm12.435.18c-1.33 0-2.365-.45-3.105-1.35-.74-.91-1.11-2.245-1.11-4.005s.37-3.11 1.11-4.05c.74-.95 1.775-1.425 3.105-1.425.88 0 1.615.2 2.205.6.6.4 1.065.965 1.395 1.695l-1.02.615c-.21-.54-.53-.97-.96-1.29-.43-.33-.97-.495-1.62-.495-.45 0-.855.085-1.215.255-.35.17-.65.415-.9.735-.24.31-.425.685-.555 1.125-.13.43-.195.915-.195 1.455v1.56c0 1.08.25 1.925.75 2.535s1.205.915 2.115.915c.67 0 1.23-.17 1.68-.51.45-.35.78-.81.99-1.38l1.005.63c-.33.74-.805 1.325-1.425 1.755-.62.42-1.37.63-2.25.63zm5.551-.18v-1.11h2.925v-8.43h-.105l-2.64 2.46-.735-.795 2.775-2.595h1.965v9.36h2.7v1.11zm9.069-10.47h3.51c.65 0 1.24.11 1.77.33s.98.55 1.35.99c.38.43.67.975.87 1.635.2.65.3 1.41.3 2.28s-.1 1.635-.3 2.295c-.2.65-.49 1.195-.87 1.635-.37.43-.82.755-1.35.975s-1.12.33-1.77.33h-3.51zm3.51 9.36c.43 0 .825-.07 1.185-.21.36-.15.67-.365.93-.645s.46-.62.6-1.02c.15-.41.225-.875.225-1.395v-1.71c0-.52-.075-.98-.225-1.38-.14-.41-.34-.755-.6-1.035s-.57-.49-.93-.63c-.36-.15-.755-.225-1.185-.225h-2.25v8.25zm12.629-8.25h-4.59l-.3 3.99h.105c.25-.35.53-.63.84-.84.32-.21.755-.315 1.305-.315.45 0 .865.075 1.245.225s.71.365.99.645c.28.27.495.605.645 1.005.16.4.24.855.24 1.365s-.08.98-.24 1.41c-.16.42-.395.785-.705 1.095-.3.3-.67.535-1.11.705-.43.17-.92.255-1.47.255-.44 0-.83-.05-1.17-.15-.33-.1-.625-.235-.885-.405s-.49-.36-.69-.57c-.19-.21-.365-.43-.525-.66l.945-.72c.13.21.265.4.405.57.15.17.31.315.48.435.18.12.385.215.615.285.23.06.505.09.825.09.72 0 1.265-.19 1.635-.57s.555-.915.555-1.605v-.15c0-.69-.185-1.225-.555-1.605s-.915-.57-1.635-.57c-.48 0-.86.09-1.14.27-.27.17-.515.375-.735.615l-1.065-.15.375-5.76h5.61z" fill="#fff"/><rect fill="#7ec1d5" height="88" rx="15" width="88" x="452"/><path d="m130.09 112.925h-2.31l-.54 3.075h-.96l.54-3.075h-1.92v-.9h2.07l.42-2.52h-1.905v-.9h2.07l.525-3.075h.96l-.525 3.075h2.31l.525-3.075h.96l-.525 3.075h1.92v.9h-2.085l-.42 2.52h1.92v.9h-2.07l-.54 3.075h-.96zm.15-.9.42-2.52h-2.31l-.42 2.52zm5.848 3.975v-10.47h6.39v1.11h-5.13v3.51h4.83v1.11h-4.83v3.63h5.13v1.11zm11.865.18c-.54 0-1.03-.09-1.47-.27-.43-.19-.8-.455-1.11-.795-.3-.35-.53-.775-.69-1.275s-.24-1.06-.24-1.68c0-.78.115-1.51.345-2.19.23-.69.525-1.315.885-1.875.37-.57.775-1.07 1.215-1.5.44-.44.87-.795 1.29-1.065h1.62c-.56.41-1.06.81-1.5 1.2s-.825.8-1.155 1.23c-.33.42-.61.875-.84 1.365-.23.48-.415 1.025-.555 1.635l.075.03c.25-.43.57-.785.96-1.065.4-.29.92-.435 1.56-.435.45 0 .865.075 1.245.225s.705.365.975.645.48.62.63 1.02c.16.4.24.845.24 1.335 0 .51-.085.98-.255 1.41-.16.42-.395.785-.705 1.095-.3.3-.665.535-1.095.705s-.905.255-1.425.255zm-.015-1.095c.69 0 1.225-.19 1.605-.57.39-.38.585-.925.585-1.635v-.12c0-.71-.195-1.255-.585-1.635-.38-.38-.915-.57-1.605-.57s-1.23.19-1.62.57c-.38.38-.57.925-.57 1.635v.12c0 .71.19 1.255.57 1.635.39.38.93.57 1.62.57zm7.12.915 4.005-9.39h-4.47v1.95h-1.125v-3.03h6.87v1.11l-3.93 9.36zm10.884.18c-.54 0-1.03-.09-1.47-.27-.43-.19-.8-.455-1.11-.795-.3-.35-.53-.775-.69-1.275s-.24-1.06-.24-1.68c0-.78.115-1.51.345-2.19.23-.69.525-1.315.885-1.875.37-.57.775-1.07 1.215-1.5.44-.44.87-.795 1.29-1.065h1.62c-.56.41-1.06.81-1.5 1.2s-.825.8-1.155 1.23c-.33.42-.61.875-.84 1.365-.23.48-.415 1.025-.555 1.635l.075.03c.25-.43.57-.785.96-1.065.4-.29.92-.435 1.56-.435.45 0 .865.075 1.245.225s.705.365.975.645.48.62.63 1.02c.16.4.24.845.24 1.335 0 .51-.085.98-.255 1.41-.16.42-.395.785-.705 1.095-.3.3-.665.535-1.095.705s-.905.255-1.425.255zm-.015-1.095c.69 0 1.225-.19 1.605-.57.39-.38.585-.925.585-1.635v-.12c0-.71-.195-1.255-.585-1.635-.38-.38-.915-.57-1.605-.57s-1.23.19-1.62.57c-.38.38-.57.925-.57 1.635v.12c0 .71.19 1.255.57 1.635.39.38.93.57 1.62.57zm5.814.915v-1.11h2.925v-8.43h-.105l-2.64 2.46-.735-.795 2.775-2.595h1.965v9.36h2.7v1.11zm9.069 0v-10.47h6.39v1.11h-5.13v3.51h4.83v1.11h-4.83v3.63h5.13v1.11z" fill="#fff"/><rect fill="#e6761e" height="88" rx="15" width="88" x="113"/><path d="m355.09 112.925h-2.31l-.54 3.075h-.96l.54-3.075h-1.92v-.9h2.07l.42-2.52h-1.905v-.9h2.07l.525-3.075h.96l-.525 3.075h2.31l.525-3.075h.96l-.525 3.075h1.92v.9h-2.085l-.42 2.52h1.92v.9h-2.07l-.54 3.075h-.96zm.15-.9.42-2.52h-2.31l-.42 2.52zm8.953 4.155c-1.25 0-2.165-.475-2.745-1.425-.57-.95-.855-2.28-.855-3.99s.285-3.04.855-3.99c.58-.95 1.495-1.425 2.745-1.425s2.16.475 2.73 1.425c.58.95.87 2.28.87 3.99s-.29 3.04-.87 3.99c-.57.95-1.48 1.425-2.73 1.425zm0-1.095c.41 0 .76-.085 1.05-.255s.525-.41.705-.72.31-.675.39-1.095c.09-.42.135-.885.135-1.395v-1.71c0-.51-.045-.975-.135-1.395-.08-.42-.21-.785-.39-1.095s-.415-.55-.705-.72-.64-.255-1.05-.255-.76.085-1.05.255-.525.41-.705.72-.315.675-.405 1.095c-.08.42-.12.885-.12 1.395v1.71c0 .51.04.975.12 1.395.09.42.225.785.405 1.095s.415.55.705.72.64.255 1.05.255zm5.89-9.555h3.51c.65 0 1.24.11 1.77.33s.98.55 1.35.99c.38.43.67.975.87 1.635.2.65.3 1.41.3 2.28s-.1 1.635-.3 2.295c-.2.65-.49 1.195-.87 1.635-.37.43-.82.755-1.35.975s-1.12.33-1.77.33h-3.51zm3.51 9.36c.43 0 .825-.07 1.185-.21.36-.15.67-.365.93-.645s.46-.62.6-1.02c.15-.41.225-.875.225-1.395v-1.71c0-.52-.075-.98-.225-1.38-.14-.41-.34-.755-.6-1.035s-.57-.49-.93-.63c-.36-.15-.755-.225-1.185-.225h-2.25v8.25zm13.153-5.52c0 .78-.115 1.515-.345 2.205-.23.68-.53 1.305-.9 1.875-.36.56-.76 1.06-1.2 1.5-.44.43-.87.78-1.29 1.05h-1.62c.56-.41 1.06-.81 1.5-1.2s.825-.795 1.155-1.215c.33-.43.61-.885.84-1.365.23-.49.415-1.04.555-1.65l-.075-.03c-.25.43-.575.79-.975 1.08-.39.28-.905.42-1.545.42-.45 0-.865-.075-1.245-.225s-.705-.365-.975-.645-.485-.615-.645-1.005c-.15-.4-.225-.85-.225-1.35 0-.51.08-.975.24-1.395.17-.43.405-.795.705-1.095.31-.31.675-.55 1.095-.72.43-.17.91-.255 1.44-.255.54 0 1.025.095 1.455.285.44.18.81.445 1.11.795.31.34.545.76.705 1.26s.24 1.06.24 1.68zm-3.495 1.605c.69 0 1.225-.19 1.605-.57.39-.38.585-.925.585-1.635v-.12c0-.71-.195-1.255-.585-1.635-.38-.38-.915-.57-1.605-.57s-1.23.19-1.62.57c-.38.38-.57.925-.57 1.635v.12c0 .71.19 1.255.57 1.635.39.38.93.57 1.62.57zm8.409-1.005c.71 0 1.24-.16 1.59-.48.36-.33.54-.75.54-1.26v-.105c0-.55-.175-.96-.525-1.23-.34-.28-.79-.42-1.35-.42-.54 0-.98.12-1.32.36-.34.23-.62.545-.84.945l-.93-.72c.13-.21.285-.415.465-.615.19-.21.41-.395.66-.555s.54-.29.87-.39.705-.15 1.125-.15c.44 0 .855.06 1.245.18.39.11.725.28 1.005.51.29.22.515.495.675.825.17.33.255.705.255 1.125 0 .34-.055.645-.165.915-.1.27-.24.505-.42.705s-.395.37-.645.51c-.24.14-.5.245-.78.315v.06c.28.06.55.16.81.3.27.13.505.305.705.525.21.21.375.47.495.78.13.3.195.645.195 1.035 0 .45-.085.865-.255 1.245-.17.37-.41.69-.72.96-.31.26-.685.465-1.125.615s-.925.225-1.455.225c-.45 0-.85-.05-1.2-.15s-.66-.235-.93-.405-.51-.36-.72-.57c-.2-.21-.38-.43-.54-.66l.945-.72c.13.21.27.4.42.57.16.17.335.315.525.435s.405.215.645.285c.24.06.52.09.84.09.74 0 1.3-.165 1.68-.495.38-.34.57-.82.57-1.44v-.12c0-.62-.19-1.095-.57-1.425-.38-.34-.94-.51-1.68-.51h-1.23v-1.095zm9.594 6.21c-.54 0-1.03-.09-1.47-.27-.43-.19-.8-.455-1.11-.795-.3-.35-.53-.775-.69-1.275s-.24-1.06-.24-1.68c0-.78.115-1.51.345-2.19.23-.69.525-1.315.885-1.875.37-.57.775-1.07 1.215-1.5.44-.44.87-.795 1.29-1.065h1.62c-.56.41-1.06.81-1.5 1.2s-.825.8-1.155 1.23c-.33.42-.61.875-.84 1.365-.23.48-.415 1.025-.555 1.635l.075.03c.25-.43.57-.785.96-1.065.4-.29.92-.435 1.56-.435.45 0 .865.075 1.245.225s.705.365.975.645.48.62.63 1.02c.16.4.24.845.24 1.335 0 .51-.085.98-.255 1.41-.16.42-.395.785-.705 1.095-.3.3-.665.535-1.095.705s-.905.255-1.425.255zm-.015-1.095c.69 0 1.225-.19 1.605-.57.39-.38.585-.925.585-1.635v-.12c0-.71-.195-1.255-.585-1.635-.38-.38-.915-.57-1.605-.57s-1.23.19-1.62.57c-.38.38-.57.925-.57 1.635v.12c0 .71.19 1.255.57 1.635.39.38.93.57 1.62.57zm12.444.915-1.05-3.09h-4.23l-1.05 3.09h-1.275l3.66-10.47h1.605l3.66 10.47zm-3.135-9.3h-.075l-1.77 5.1h3.615z" fill="#fff"/><rect fill="#0d936a" height="88" rx="15" width="88" x="339"/><path d="m581.09 112.925h-2.31l-.54 3.075h-.96l.54-3.075h-1.92v-.9h2.07l.42-2.52h-1.905v-.9h2.07l.525-3.075h.96l-.525 3.075h2.31l.525-3.075h.96l-.525 3.075h1.92v.9h-2.085l-.42 2.52h1.92v.9h-2.07l-.54 3.075h-.96zm.15-.9.42-2.52h-2.31l-.42 2.52zm8.368-2.055c.71 0 1.24-.16 1.59-.48.36-.33.54-.75.54-1.26v-.105c0-.55-.175-.96-.525-1.23-.34-.28-.79-.42-1.35-.42-.54 0-.98.12-1.32.36-.34.23-.62.545-.84.945l-.93-.72c.13-.21.285-.415.465-.615.19-.21.41-.395.66-.555s.54-.29.87-.39.705-.15 1.125-.15c.44 0 .855.06 1.245.18.39.11.725.28 1.005.51.29.22.515.495.675.825.17.33.255.705.255 1.125 0 .34-.055.645-.165.915-.1.27-.24.505-.42.705s-.395.37-.645.51c-.24.14-.5.245-.78.315v.06c.28.06.55.16.81.3.27.13.505.305.705.525.21.21.375.47.495.78.13.3.195.645.195 1.035 0 .45-.085.865-.255 1.245-.17.37-.41.69-.72.96-.31.26-.685.465-1.125.615s-.925.225-1.455.225c-.45 0-.85-.05-1.2-.15s-.66-.235-.93-.405-.51-.36-.72-.57c-.2-.21-.38-.43-.54-.66l.945-.72c.13.21.27.4.42.57.16.17.335.315.525.435s.405.215.645.285c.24.06.52.09.84.09.74 0 1.3-.165 1.68-.495.38-.34.57-.82.57-1.44v-.12c0-.62-.19-1.095-.57-1.425-.38-.34-.94-.51-1.68-.51h-1.23v-1.095zm6.475-4.44h3.51c.65 0 1.24.11 1.77.33s.98.55 1.35.99c.38.43.67.975.87 1.635.2.65.3 1.41.3 2.28s-.1 1.635-.3 2.295c-.2.65-.49 1.195-.87 1.635-.37.43-.82.755-1.35.975s-1.12.33-1.77.33h-3.51zm3.51 9.36c.43 0 .825-.07 1.185-.21.36-.15.67-.365.93-.645s.46-.62.6-1.02c.15-.41.225-.875.225-1.395v-1.71c0-.52-.075-.98-.225-1.38-.14-.41-.34-.755-.6-1.035s-.57-.49-.93-.63c-.36-.15-.755-.225-1.185-.225h-2.25v8.25zm9.658 1.29c-.6 0-1.125-.075-1.575-.225-.45-.16-.83-.375-1.14-.645-.3-.27-.53-.59-.69-.96-.15-.37-.225-.77-.225-1.2 0-.72.195-1.29.585-1.71s.9-.715 1.53-.885v-.12c-.55-.19-.99-.495-1.32-.915-.32-.43-.48-.945-.48-1.545 0-.8.29-1.435.87-1.905.58-.48 1.395-.72 2.445-.72s1.865.24 2.445.72c.58.47.87 1.105.87 1.905 0 .6-.165 1.115-.495 1.545-.32.42-.755.725-1.305.915v.12c.63.17 1.14.465 1.53.885s.585.99.585 1.71c0 .43-.08.83-.24 1.2-.15.37-.38.69-.69.96-.3.27-.675.485-1.125.645-.45.15-.975.225-1.575.225zm0-1.095c.73 0 1.295-.16 1.695-.48.4-.33.6-.795.6-1.395v-.315c0-.6-.2-1.06-.6-1.38-.4-.33-.965-.495-1.695-.495s-1.295.165-1.695.495c-.4.32-.6.78-.6 1.38v.315c0 .6.2 1.065.6 1.395.4.32.965.48 1.695.48zm0-5.115c.66 0 1.16-.14 1.5-.42s.51-.69.51-1.23v-.225c0-.54-.17-.95-.51-1.23s-.84-.42-1.5-.42-1.16.14-1.5.42-.51.69-.51 1.23v.225c0 .54.17.95.51 1.23s.84.42 1.5.42zm11.964-3.33h-4.59l-.3 3.99h.105c.25-.35.53-.63.84-.84.32-.21.755-.315 1.305-.315.45 0 .865.075 1.245.225s.71.365.99.645c.28.27.495.605.645 1.005.16.4.24.855.24 1.365s-.08.98-.24 1.41c-.16.42-.395.785-.705 1.095-.3.3-.67.535-1.11.705-.43.17-.92.255-1.47.255-.44 0-.83-.05-1.17-.15-.33-.1-.625-.235-.885-.405s-.49-.36-.69-.57c-.19-.21-.365-.43-.525-.66l.945-.72c.13.21.265.4.405.57.15.17.31.315.48.435.18.12.385.215.615.285.23.06.505.09.825.09.72 0 1.265-.19 1.635-.57s.555-.915.555-1.605v-.15c0-.69-.185-1.225-.555-1.605s-.915-.57-1.635-.57c-.48 0-.86.09-1.14.27-.27.17-.515.375-.735.615l-1.065-.15.375-5.76h5.61zm2.919-1.11h4.305c.87 0 1.55.245 2.04.735.5.49.75 1.145.75 1.965 0 .39-.055.72-.165.99s-.25.495-.42.675c-.17.17-.355.3-.555.39-.2.08-.385.135-.555.165v.09c.19.01.4.06.63.15.24.09.465.235.675.435.21.19.385.44.525.75.15.3.225.665.225 1.095s-.07.83-.21 1.2c-.13.37-.315.69-.555.96s-.525.485-.855.645c-.33.15-.69.225-1.08.225h-4.755zm1.26 9.36h3.105c.54 0 .965-.135 1.275-.405.31-.28.465-.685.465-1.215v-.51c0-.53-.155-.93-.465-1.2-.31-.28-.735-.42-1.275-.42h-3.105zm0-4.83h2.895c.5 0 .89-.125 1.17-.375s.42-.61.42-1.08v-.51c0-.47-.14-.83-.42-1.08s-.67-.375-1.17-.375h-2.895zm15.14 5.94h-6.87v-1.29l3.42-3.15c.49-.45.9-.925 1.23-1.425.33-.51.495-1.02.495-1.53v-.18c0-.58-.16-1.05-.48-1.41s-.805-.54-1.455-.54c-.32 0-.6.045-.84.135s-.45.215-.63.375c-.17.16-.315.35-.435.57-.11.21-.2.44-.27.69l-1.125-.435c.1-.31.235-.61.405-.9.18-.3.4-.565.66-.795.27-.23.59-.415.96-.555.38-.14.825-.21 1.335-.21s.965.075 1.365.225.735.36 1.005.63.475.59.615.96c.15.37.225.78.225 1.23 0 .41-.06.79-.18 1.14-.11.35-.265.685-.465 1.005-.2.31-.445.615-.735.915-.28.3-.585.6-.915.9l-2.82 2.535h5.505z" fill="#fff"/><rect fill="#3d85b2" height="88" rx="15" width="88" x="565"/><path d="m243.09 112.925h-2.31l-.54 3.075h-.96l.54-3.075h-1.92v-.9h2.07l.42-2.52h-1.905v-.9h2.07l.525-3.075h.96l-.525 3.075h2.31l.525-3.075h.96l-.525 3.075h1.92v.9h-2.085l-.42 2.52h1.92v.9h-2.07l-.54 3.075h-.96zm.15-.9.42-2.52h-2.31l-.42 2.52zm5.848 3.975v-10.47h6.39v1.11h-5.13v3.51h4.83v1.11h-4.83v3.63h5.13v1.11zm8.745 0v-10.47h6.39v1.11h-5.13v3.51h4.83v1.11h-4.83v3.63h5.13v1.11zm15.301 0-1.05-3.09h-4.23l-1.05 3.09h-1.275l3.66-10.47h1.605l3.66 10.47zm-3.135-9.3h-.075l-1.77 5.1h3.615zm9.294 9.48c-.6 0-1.125-.075-1.575-.225-.45-.16-.83-.375-1.14-.645-.3-.27-.53-.59-.69-.96-.15-.37-.225-.77-.225-1.2 0-.72.195-1.29.585-1.71s.9-.715 1.53-.885v-.12c-.55-.19-.99-.495-1.32-.915-.32-.43-.48-.945-.48-1.545 0-.8.29-1.435.87-1.905.58-.48 1.395-.72 2.445-.72s1.865.24 2.445.72c.58.47.87 1.105.87 1.905 0 .6-.165 1.115-.495 1.545-.32.42-.755.725-1.305.915v.12c.63.17 1.14.465 1.53.885s.585.99.585 1.71c0 .43-.08.83-.24 1.2-.15.37-.38.69-.69.96-.3.27-.675.485-1.125.645-.45.15-.975.225-1.575.225zm0-1.095c.73 0 1.295-.16 1.695-.48.4-.33.6-.795.6-1.395v-.315c0-.6-.2-1.06-.6-1.38-.4-.33-.965-.495-1.695-.495s-1.295.165-1.695.495c-.4.32-.6.78-.6 1.38v.315c0 .6.2 1.065.6 1.395.4.32.965.48 1.695.48zm0-5.115c.66 0 1.16-.14 1.5-.42s.51-.69.51-1.23v-.225c0-.54-.17-.95-.51-1.23s-.84-.42-1.5-.42-1.16.14-1.5.42-.51.69-.51 1.23v.225c0 .54.17.95.51 1.23s.84.42 1.5.42zm12.489 6.03h-6.87v-1.29l3.42-3.15c.49-.45.9-.925 1.23-1.425.33-.51.495-1.02.495-1.53v-.18c0-.58-.16-1.05-.48-1.41s-.805-.54-1.455-.54c-.32 0-.6.045-.84.135s-.45.215-.63.375c-.17.16-.315.35-.435.57-.11.21-.2.44-.27.69l-1.125-.435c.1-.31.235-.61.405-.9.18-.3.4-.565.66-.795.27-.23.59-.415.96-.555.38-.14.825-.21 1.335-.21s.965.075 1.365.225.735.36 1.005.63.475.59.615.96c.15.37.225.78.225 1.23 0 .41-.06.79-.18 1.14-.11.35-.265.685-.465 1.005-.2.31-.445.615-.735.915-.28.3-.585.6-.915.9l-2.82 2.535h5.505zm2.394-10.47h4.305c.87 0 1.55.245 2.04.735.5.49.75 1.145.75 1.965 0 .39-.055.72-.165.99s-.25.495-.42.675c-.17.17-.355.3-.555.39-.2.08-.385.135-.555.165v.09c.19.01.4.06.63.15.24.09.465.235.675.435.21.19.385.44.525.75.15.3.225.665.225 1.095s-.07.83-.21 1.2c-.13.37-.315.69-.555.96s-.525.485-.855.645c-.33.15-.69.225-1.08.225h-4.755zm1.26 9.36h3.105c.54 0 .965-.135 1.275-.405.31-.28.465-.685.465-1.215v-.51c0-.53-.155-.93-.465-1.2-.31-.28-.735-.42-1.275-.42h-3.105zm0-4.83h2.895c.5 0 .89-.125 1.17-.375s.42-.61.42-1.08v-.51c0-.47-.14-.83-.42-1.08s-.67-.375-1.17-.375h-2.895z" fill="#fff"/><rect fill="#eea82b" height="88" rx="15" width="88" x="226"/></svg>