<svg xmlns="http://www.w3.org/2000/svg" viewBox="0 0 1507.26 667.74"><defs><style>.ae9fa876-2402-443e-beae-e5e9d1ea764e,.b19cb3f4-73d3-4097-ac5d-ceb6729b6ccb,.e1ca2ec7-21a7-4878-b575-7277ede2f3c1,.e641d953-d958-4b45-aedb-1ff1f27e65b5{fill:none;stroke:#799400;}.ae9fa876-2402-443e-beae-e5e9d1ea764e,.b19cb3f4-73d3-4097-ac5d-ceb6729b6ccb{stroke-linecap:round;stroke-linejoin:round;}.b19cb3f4-73d3-4097-ac5d-ceb6729b6ccb,.e641d953-d958-4b45-aedb-1ff1f27e65b5{stroke-dasharray:5 5;}.a522eb57-bd0d-4f49-be2d-402c7c5ef0dc{fill:#799400;}.e1ca2ec7-21a7-4878-b575-7277ede2f3c1{stroke-width:2px;}.adc013c9-8282-432d-8817-edcd39dbc173{fill:#111115;}</style></defs><g id="ada8d379-c03d-4515-8406-a2450fcbcc1a" data-name="Layer 2"><g id="b0090120-b97f-4969-9a8c-cbc89e247500" data-name="Layer 1"><path class="ae9fa876-2402-443e-beae-e5e9d1ea764e" d="M.5.5H1506.76V667.24H.5Z"/><path class="b19cb3f4-73d3-4097-ac5d-ceb6729b6ccb" d="M239.63,246.41h1028V377.47h-1028Z"/><path class="b19cb3f4-73d3-4097-ac5d-ceb6729b6ccb" d="M419.12,413.76h669v196h-669Z"/><path class="a522eb57-bd0d-4f49-be2d-402c7c5ef0dc" d="M60.08,99.65h1.05v10.73H60l-6.08-9.2v9.09H52.82V99.65h1.23l6,9.11Z"/><path class="a522eb57-bd0d-4f49-be2d-402c7c5ef0dc" d="M67.87,109.34h-.05a2.88,2.88,0,0,1-2.28,1.16,2.26,2.26,0,0,1-2.47-2.16q0-2.5,4.73-2.77v-.46A1.63,1.63,0,0,0,66,103.25a4.76,4.76,0,0,0-2.55.94l-.23-1a5.48,5.48,0,0,1,2.89-.93,2.45,2.45,0,0,1,2.78,2.79v3.74c0,.61.14.79.78.78l-.06.86C68.56,110.51,68,110.14,67.87,109.34Zm-.07-.78v-2.28c-2.62.29-3.62.87-3.62,1.94a1.43,1.43,0,0,0,1.6,1.36A2.66,2.66,0,0,0,67.8,108.56Z"/><path class="a522eb57-bd0d-4f49-be2d-402c7c5ef0dc" d="M74.05,110.29h-1L70,102.49h1.14l2.46,6.43L76,102.49h1.11Z"/><path class="a522eb57-bd0d-4f49-be2d-402c7c5ef0dc" d="M85.21,106.28a4.4,4.4,0,0,1-1.07,3,3.61,3.61,0,0,1-2.77,1.19,4.37,4.37,0,0,1-1.91-.43l-1,.46V98.82l1-.22v4.7a3.33,3.33,0,0,1,2.35-1C83.86,102.32,85.21,103.93,85.21,106.28Zm-1.09,0c0-1.8-1-3-2.52-3a3.07,3.07,0,0,0-2.14.87v4.77a3.08,3.08,0,0,0,2,.61C83.08,109.54,84.12,108.25,84.12,106.33Z"/><path class="a522eb57-bd0d-4f49-be2d-402c7c5ef0dc" d="M91.22,109.34h0a2.84,2.84,0,0,1-2.27,1.16,2.26,2.26,0,0,1-2.47-2.16q0-2.5,4.73-2.77v-.46a1.63,1.63,0,0,0-1.84-1.86,4.73,4.73,0,0,0-2.55.94l-.24-1a5.54,5.54,0,0,1,2.89-.93,2.45,2.45,0,0,1,2.79,2.79v3.74c0,.61.14.79.78.78l-.07.86C91.92,110.51,91.34,110.14,91.22,109.34Zm-.06-.78v-2.28c-2.62.29-3.62.87-3.62,1.94a1.42,1.42,0,0,0,1.59,1.36A2.67,2.67,0,0,0,91.16,108.56Z"/><path class="a522eb57-bd0d-4f49-be2d-402c7c5ef0dc" d="M95.61,105.28v5h-1v-7.78l1-.22v1.66a2.57,2.57,0,0,1,2.3-1.66,2.71,2.71,0,0,1,1.36.36l-.28,1a2.28,2.28,0,0,0-1.19-.34C96.94,103.27,96.21,103.93,95.61,105.28Z"/><rect class="e1ca2ec7-21a7-4878-b575-7277ede2f3c1" x="664.63" y="29.49" width="178" height="50" rx="9"/><path class="a522eb57-bd0d-4f49-be2d-402c7c5ef0dc" d="M677.31,34H830c4.74,0,8.59,3.31,8.59,7.4V67.64c0,4.09-3.85,7.4-8.59,7.4H677.31c-4.74,0-8.59-3.31-8.59-7.4V41.35C668.72,37.26,672.57,34,677.31,34Z"/><path class="adc013c9-8282-432d-8817-edcd39dbc173" d="M703.33,56.08v4.25h-1.09V49.71h2.85c2.57,0,3.86,1.14,3.86,3.06a3.08,3.08,0,0,1-2.46,3l2.94,4.57h-1.26L705.45,56Zm0-1,1.9-.07c1.5,0,2.64-.89,2.64-2.23s-1-2.12-2.89-2.12h-1.65Z"/><path class="adc013c9-8282-432d-8817-edcd39dbc173" d="M718,56.42a4.13,4.13,0,0,1-1.09,3,3.63,3.63,0,0,1-2.74,1.15,3.52,3.52,0,0,1-2.7-1.12,4.67,4.67,0,0,1,0-6,3.59,3.59,0,0,1,2.74-1.14,3.52,3.52,0,0,1,2.7,1.12A4.16,4.16,0,0,1,718,56.42Zm-1,0c0-1.92-1.09-3.18-2.75-3.18s-2.74,1.27-2.74,3.14,1.09,3.18,2.75,3.18S717,58.33,717,56.46Z"/><path class="adc013c9-8282-432d-8817-edcd39dbc173" d="M724,48.84l-.05.24c-.06.17-.09.32-.14.48l-.07.24a2.69,2.69,0,0,0-1.19-.33c-.86,0-1.29.61-1.29,1.82v1.29h2.45l0,.94h-2.4v6.81h-1V53.55l-1.25-.08.06-.67,1.18-.27V51.31c0-1.87.82-2.81,2.35-2.81A3.4,3.4,0,0,1,724,48.84Z"/><path class="adc013c9-8282-432d-8817-edcd39dbc173" d="M729.18,48.84l0,.24c0,.17-.08.32-.13.48l-.07.24a2.69,2.69,0,0,0-1.19-.33c-.87,0-1.29.61-1.29,1.82v1.29h2.44l0,.94h-2.39v6.81h-1V53.55l-1.26-.08.07-.67,1.17-.27,0-1.22c0-1.87.82-2.81,2.34-2.81A3.37,3.37,0,0,1,729.18,48.84Z"/><path class="adc013c9-8282-432d-8817-edcd39dbc173" d="M741.58,60.33V55.49h-6.23v4.84h-1.09V49.71h1.09V54.5h6.23V49.71h1.08V60.33Z"/><path class="adc013c9-8282-432d-8817-edcd39dbc173" d="M752.32,56.42a4.13,4.13,0,0,1-1.09,3,3.62,3.62,0,0,1-2.73,1.15,3.53,3.53,0,0,1-2.71-1.12,4.67,4.67,0,0,1,.05-6,3.59,3.59,0,0,1,2.74-1.14,3.51,3.51,0,0,1,2.7,1.12A4.16,4.16,0,0,1,752.32,56.42Zm-1,0c0-1.92-1.09-3.18-2.75-3.18s-2.74,1.27-2.74,3.14,1.09,3.18,2.76,3.18S751.28,58.33,751.28,56.46Z"/><path class="adc013c9-8282-432d-8817-edcd39dbc173" d="M765.05,60.33h-1v-5c0-1.33-.55-2-1.65-2a3.23,3.23,0,0,0-2.19,1c0,.14,0,.38,0,.7v5.3h-1.05v-5c0-1.33-.55-2-1.65-2a3.25,3.25,0,0,0-2.16.9v6.1h-1.06V52.55l1.06-.22V53.4a3.58,3.58,0,0,1,2.46-1.07,2.07,2.07,0,0,1,2.11,1.29,3.85,3.85,0,0,1,2.76-1.29c1.49,0,2.39,1,2.39,2.68Z"/><path class="adc013c9-8282-432d-8817-edcd39dbc173" d="M768,56.48v.08c0,1.78,1.1,3,2.72,3a4,4,0,0,0,2.26-.65l.2,1a4.63,4.63,0,0,1-2.49.66,3.72,3.72,0,0,1-3.76-4,4.39,4.39,0,0,1,1-3,3.37,3.37,0,0,1,2.62-1.17,2.67,2.67,0,0,1,2.84,2.87,4,4,0,0,1-.17,1.24Zm.07-.84h4.32a2.75,2.75,0,0,0,0-.34,1.78,1.78,0,0,0-1.87-2A2.5,2.5,0,0,0,768.08,55.64Z"/><path class="adc013c9-8282-432d-8817-edcd39dbc173" d="M776.49,53.33a3.25,3.25,0,0,1,2.26-.95c2.09,0,3.49,1.63,3.49,4a4.21,4.21,0,0,1-1.07,3,3.63,3.63,0,0,1-2.77,1.17,4.45,4.45,0,0,1-1.91-.4V64.3h-1V52.51l1-.22Zm0,.89V59a3.1,3.1,0,0,0,2,.61c1.63,0,2.7-1.31,2.7-3.18s-1-3.07-2.57-3.07A3,3,0,0,0,776.49,54.22Z"/><path class="adc013c9-8282-432d-8817-edcd39dbc173" d="M788.33,59.4h-.06A2.83,2.83,0,0,1,786,60.55a2.25,2.25,0,0,1-2.47-2.15q0-2.51,4.73-2.77v-.46a1.63,1.63,0,0,0-1.84-1.86,4.73,4.73,0,0,0-2.55.94l-.24-1a5.54,5.54,0,0,1,2.89-.93,2.45,2.45,0,0,1,2.79,2.79v3.74c0,.61.14.79.78.78l-.07.86C789,60.57,788.44,60.2,788.33,59.4Zm-.07-.78V56.34c-2.62.29-3.62.87-3.62,1.94a1.42,1.42,0,0,0,1.59,1.36A2.67,2.67,0,0,0,788.26,58.62Z"/><path class="adc013c9-8282-432d-8817-edcd39dbc173" d="M792.25,60.35c-.69-.25-1-.66-1-1.24a1.71,1.71,0,0,1,1.27-1.48,2.61,2.61,0,0,1-1.25-2.38,2.87,2.87,0,0,1,3-2.92,3.64,3.64,0,0,1,1.84.46l2.16-.17.05,1.05-1.72-.17a2.73,2.73,0,0,1,.63,1.75,2.84,2.84,0,0,1-3,2.86,3.47,3.47,0,0,1-1.16-.22q-.87.34-.87.93c0,.53.45.8,1.77.8h1c2.16,0,3.23.68,3.23,2a2.43,2.43,0,0,1-1.2,2.07,5,5,0,0,1-2.89.82c-2.09,0-3.52-.92-3.52-2.28A2.08,2.08,0,0,1,792.25,60.35Zm.92.2c-.93.26-1.58.87-1.58,1.54,0,.93,1,1.59,2.65,1.59s2.93-.78,2.93-1.83c0-.89-.75-1.24-2.37-1.24C794.16,60.61,793.61,60.59,793.17,60.55Zm-.92-5.28a1.9,1.9,0,0,0,2,2,1.81,1.81,0,0,0,1.41-.58,2,2,0,0,0,.53-1.46,2.08,2.08,0,0,0-.51-1.46,1.94,1.94,0,0,0-1.48-.57A1.91,1.91,0,0,0,792.25,55.27Z"/><path class="adc013c9-8282-432d-8817-edcd39dbc173" d="M800.17,56.48v.08c.06,1.78,1.11,3,2.72,3a4.1,4.1,0,0,0,2.27-.65l.2,1a4.69,4.69,0,0,1-2.5.66,3.72,3.72,0,0,1-3.76-4,4.35,4.35,0,0,1,1.06-3,3.34,3.34,0,0,1,2.61-1.17,2.66,2.66,0,0,1,2.84,2.87,4,4,0,0,1-.17,1.24Zm.07-.84h4.32a1.39,1.39,0,0,0,0-.34,1.79,1.79,0,0,0-1.87-2A2.51,2.51,0,0,0,800.24,55.64Z"/><rect class="e1ca2ec7-21a7-4878-b575-7277ede2f3c1" x="45.93" y="131.05" width="178" height="50" rx="9"/><path class="a522eb57-bd0d-4f49-be2d-402c7c5ef0dc" d="M112.66,154.58c0,2.29-1.58,3.5-4.28,3.55l-1.45,0v3.74h-1.08V151.26h2.66C111.25,151.26,112.66,152.55,112.66,154.58Zm-1.12,0c0-1.53-1.07-2.36-3.06-2.36h-1.55v4.87l1.52,0C110.5,157.08,111.54,156.24,111.54,154.63Z"/><path class="a522eb57-bd0d-4f49-be2d-402c7c5ef0dc" d="M115.59,156.89v5h-1.06V154.1l1.06-.22v1.67a2.55,2.55,0,0,1,2.29-1.67,2.66,2.66,0,0,1,1.36.36l-.27,1a2.28,2.28,0,0,0-1.19-.34Q116.48,154.88,115.59,156.89Z"/><path class="a522eb57-bd0d-4f49-be2d-402c7c5ef0dc" d="M127.49,158a4.11,4.11,0,0,1-1.09,3,3.6,3.6,0,0,1-2.74,1.16A3.56,3.56,0,0,1,121,161a4.68,4.68,0,0,1,.05-6,3.62,3.62,0,0,1,2.74-1.14,3.56,3.56,0,0,1,2.7,1.12A4.18,4.18,0,0,1,127.49,158Zm-1,0c0-1.92-1.09-3.18-2.75-3.18S121,156.11,121,158s1.09,3.18,2.75,3.18S126.45,159.88,126.45,158Z"/><path class="a522eb57-bd0d-4f49-be2d-402c7c5ef0dc" d="M134.68,154.36v-3.93l1-.22v11.68h-1v-.73a3.25,3.25,0,0,1-2.26,1c-2.09,0-3.49-1.65-3.49-4.05a4.17,4.17,0,0,1,1.09-3,3.65,3.65,0,0,1,2.77-1.16A4.35,4.35,0,0,1,134.68,154.36Zm0,1.12a3.12,3.12,0,0,0-1.94-.6c-1.67,0-2.72,1.29-2.72,3.17s1,3.09,2.58,3.09a3,3,0,0,0,2.08-.87v-4.79Z"/><path class="a522eb57-bd0d-4f49-be2d-402c7c5ef0dc" d="M138.11,154.1h1.06v5c0,1.31.56,2,1.68,2a3.31,3.31,0,0,0,2.4-1.1v-5.9h1.05v7.79l-1.05.22v-1.26a3.75,3.75,0,0,1-2.69,1.26,2.36,2.36,0,0,1-2.45-2.67Z"/><path class="a522eb57-bd0d-4f49-be2d-402c7c5ef0dc" d="M152.46,161.44a4.39,4.39,0,0,1-2.41.67c-2.33,0-3.81-1.63-3.81-4.1a4.12,4.12,0,0,1,1.09-3,3.57,3.57,0,0,1,2.73-1.16,4.4,4.4,0,0,1,2.43.66l-.27,1a3.75,3.75,0,0,0-2.16-.63c-1.68,0-2.73,1.24-2.73,3.11s1.08,3.14,2.75,3.14a4,4,0,0,0,2.16-.64Z"/><path class="a522eb57-bd0d-4f49-be2d-402c7c5ef0dc" d="M158.29,161.73a4,4,0,0,1-1.73.41c-1.45,0-2.14-.81-2.09-2.45l.12-4.6L153.4,155l0-.66,1.17-.27,0-1.77h1l0,1.82h2.6l-.05.93h-2.58l-.12,4.66c0,1,.34,1.46,1.14,1.46a3.81,3.81,0,0,0,1.49-.37Z"/><path class="a522eb57-bd0d-4f49-be2d-402c7c5ef0dc" d="M164.68,159.76c0,1.41-1.19,2.35-2.79,2.35a4.74,4.74,0,0,1-2.55-.7l.29-1a4.06,4.06,0,0,0,2.3.72c1,0,1.75-.5,1.75-1.31a1,1,0,0,0-.12-.5,1.52,1.52,0,0,0-.27-.35,2.09,2.09,0,0,0-.48-.28,4.62,4.62,0,0,0-.49-.2l-.6-.19c-1.35-.4-2.26-1-2.26-2.21,0-1.39,1.11-2.24,2.64-2.24a5,5,0,0,1,2.36.58l-.3.95a4.33,4.33,0,0,0-2.13-.58c-.95,0-1.56.44-1.56,1.19a.79.79,0,0,0,.12.46,1.43,1.43,0,0,0,.25.34,1.26,1.26,0,0,0,.46.27l.49.21c.12,0,.33.1.6.18C163.8,157.89,164.68,158.47,164.68,159.76Z"/><rect class="e1ca2ec7-21a7-4878-b575-7277ede2f3c1" x="249.55" y="131.05" width="178" height="50" rx="9"/><path class="a522eb57-bd0d-4f49-be2d-402c7c5ef0dc" d="M285.86,156.5c0,3.36-2.1,5.39-5.71,5.39h-2.81V151.26h2.89a5.79,5.79,0,0,1,4.11,1.43A5,5,0,0,1,285.86,156.5Zm-1.09.08c0-2.7-1.68-4.31-4.61-4.31h-1.73v8.61h1.77C283,160.88,284.77,159.42,284.77,156.58Z"/><path class="a522eb57-bd0d-4f49-be2d-402c7c5ef0dc" d="M289.14,151.54a.83.83,0,0,1-.19.54.69.69,0,0,1-1.05,0,.85.85,0,0,1,0-1.07.6.6,0,0,1,.52-.22.61.61,0,0,1,.53.22A.82.82,0,0,1,289.14,151.54ZM289,161.89H287.9V154.1l1.05-.22Z"/><path class="a522eb57-bd0d-4f49-be2d-402c7c5ef0dc" d="M296.11,159.76c0,1.41-1.19,2.35-2.79,2.35a4.69,4.69,0,0,1-2.55-.7l.29-1a4,4,0,0,0,2.29.72c1,0,1.75-.5,1.75-1.31a1,1,0,0,0-.11-.5,1.53,1.53,0,0,0-.28-.35,1.78,1.78,0,0,0-.47-.28,4.62,4.62,0,0,0-.49-.2l-.6-.19c-1.36-.4-2.26-1-2.26-2.21,0-1.39,1.1-2.24,2.63-2.24a5,5,0,0,1,2.37.58l-.31.95a4.32,4.32,0,0,0-2.12-.58c-1,0-1.57.44-1.57,1.19a.79.79,0,0,0,.12.46,1.43,1.43,0,0,0,.25.34,1.26,1.26,0,0,0,.46.27l.5.21c.12,0,.32.1.59.18C295.22,157.89,296.11,158.47,296.11,159.76Z"/><path class="a522eb57-bd0d-4f49-be2d-402c7c5ef0dc" d="M303.72,161.44a4.39,4.39,0,0,1-2.41.67c-2.33,0-3.81-1.63-3.81-4.1a4.12,4.12,0,0,1,1.09-3,3.57,3.57,0,0,1,2.74-1.16,4.45,4.45,0,0,1,2.43.66l-.27,1a3.75,3.75,0,0,0-2.16-.63c-1.69,0-2.74,1.24-2.74,3.11s1.09,3.14,2.75,3.14a3.93,3.93,0,0,0,2.16-.64Z"/><path class="a522eb57-bd0d-4f49-be2d-402c7c5ef0dc" d="M312.67,158a4.11,4.11,0,0,1-1.09,3,3.62,3.62,0,0,1-2.74,1.16,3.56,3.56,0,0,1-2.7-1.12,4.65,4.65,0,0,1,.05-6,3.61,3.61,0,0,1,2.73-1.14,3.57,3.57,0,0,1,2.71,1.12A4.18,4.18,0,0,1,312.67,158Zm-1,0c0-1.92-1.09-3.18-2.76-3.18s-2.73,1.28-2.73,3.15,1.09,3.18,2.75,3.18S311.63,159.88,311.63,158Z"/><path class="a522eb57-bd0d-4f49-be2d-402c7c5ef0dc" d="M317.39,161.9h-.95l-3.08-7.8h1.14l2.47,6.43,2.37-6.43h1.11Z"/><path class="a522eb57-bd0d-4f49-be2d-402c7c5ef0dc" d="M322.22,158v.08c0,1.79,1.1,3,2.72,3a4.12,4.12,0,0,0,2.26-.64l.2,1a4.55,4.55,0,0,1-2.49.67,3.73,3.73,0,0,1-3.76-4.05,4.36,4.36,0,0,1,1.05-3,3.37,3.37,0,0,1,2.62-1.17,2.67,2.67,0,0,1,2.84,2.87,4,4,0,0,1-.17,1.24Zm.07-.83,4.31,0a1.34,1.34,0,0,0,0-.34,1.78,1.78,0,0,0-1.87-2A2.51,2.51,0,0,0,322.29,157.2Z"/><path class="a522eb57-bd0d-4f49-be2d-402c7c5ef0dc" d="M330.7,156.89v5h-1.05V154.1l1.05-.22v1.67a2.56,2.56,0,0,1,2.3-1.67,2.71,2.71,0,0,1,1.36.36l-.27,1a2.34,2.34,0,0,0-1.19-.34C332,154.88,331.3,155.55,330.7,156.89Z"/><path class="a522eb57-bd0d-4f49-be2d-402c7c5ef0dc" d="M342.42,161.14c1.47,0,2.51-.87,2.51-2s-.82-1.68-2.68-2.22c-.45-.14-.82-.28-1.13-.41a4.92,4.92,0,0,1-1-.53,2.24,2.24,0,0,1-.74-.85,2.61,2.61,0,0,1-.26-1.19c0-1.68,1.41-2.89,3.4-2.89a5.86,5.86,0,0,1,3.2.92l-.4.95a4.8,4.8,0,0,0-2.78-.88c-1.53,0-2.37.76-2.37,1.82s.8,1.53,2.69,2.12a12,12,0,0,1,1.14.41,7.52,7.52,0,0,1,1,.56,2.38,2.38,0,0,1,.73.88,3.17,3.17,0,0,1,.24,1.23c0,1.78-1.47,3.06-3.59,3.06a6.17,6.17,0,0,1-3.42-1l.39-1A5.29,5.29,0,0,0,342.42,161.14Z"/><path class="a522eb57-bd0d-4f49-be2d-402c7c5ef0dc" d="M355,158a4.11,4.11,0,0,1-1.09,3,3.6,3.6,0,0,1-2.74,1.16,3.56,3.56,0,0,1-2.7-1.12,4.68,4.68,0,0,1,.05-6,3.62,3.62,0,0,1,2.74-1.14,3.56,3.56,0,0,1,2.7,1.12A4.18,4.18,0,0,1,355,158Zm-1,0c0-1.92-1.09-3.18-2.75-3.18s-2.74,1.28-2.74,3.15,1.09,3.18,2.75,3.18S353.94,159.88,353.94,158Z"/><path class="a522eb57-bd0d-4f49-be2d-402c7c5ef0dc" d="M356.93,161.89V150.43l1.06-.22v11.68Z"/><path class="a522eb57-bd0d-4f49-be2d-402c7c5ef0dc" d="M360.37,154.1h1.05v5c0,1.31.56,2,1.68,2a3.28,3.28,0,0,0,2.4-1.1v-5.9h1.05v7.79l-1.05.22v-1.26a3.75,3.75,0,0,1-2.69,1.26,2.35,2.35,0,0,1-2.44-2.67Z"/><path class="a522eb57-bd0d-4f49-be2d-402c7c5ef0dc" d="M372.88,161.73a4,4,0,0,1-1.74.41c-1.44,0-2.14-.81-2.09-2.45l.12-4.6L368,155l0-.66,1.18-.27.05-1.77h1l-.05,1.82h2.6l-.05.93h-2.59l-.11,4.66c0,1,.34,1.46,1.14,1.46a3.85,3.85,0,0,0,1.49-.37Z"/><path class="a522eb57-bd0d-4f49-be2d-402c7c5ef0dc" d="M375.85,151.54a.82.82,0,0,1-.18.54.71.71,0,0,1-1.06,0,.85.85,0,0,1,0-1.07.75.75,0,0,1,1.06,0A.81.81,0,0,1,375.85,151.54Zm-.18,10.35h-1.06V154.1l1.06-.22Z"/><path class="a522eb57-bd0d-4f49-be2d-402c7c5ef0dc" d="M385.22,158a4.11,4.11,0,0,1-1.09,3,3.82,3.82,0,0,1-5.44,0,4.23,4.23,0,0,1-1.05-3,4.16,4.16,0,0,1,1.1-3,3.62,3.62,0,0,1,2.74-1.14,3.53,3.53,0,0,1,2.7,1.12A4.18,4.18,0,0,1,385.22,158Zm-1,0c0-1.92-1.09-3.18-2.75-3.18s-2.74,1.28-2.74,3.15,1.09,3.18,2.76,3.18S384.18,159.88,384.18,158Z"/><path class="a522eb57-bd0d-4f49-be2d-402c7c5ef0dc" d="M393.36,161.89h-1.05v-5c0-1.36-.53-2-1.72-2a3.34,3.34,0,0,0-2.36,1.11v5.9h-1.06V154.1l1.06-.22v1.28a3.76,3.76,0,0,1,2.65-1.28,2.35,2.35,0,0,1,2.48,2.67Z"/><path class="a522eb57-bd0d-4f49-be2d-402c7c5ef0dc" d="M400.43,159.76c0,1.41-1.18,2.35-2.78,2.35a4.69,4.69,0,0,1-2.55-.7l.29-1a4,4,0,0,0,2.29.72c1,0,1.75-.5,1.75-1.31a1,1,0,0,0-.12-.5A1.29,1.29,0,0,0,399,159a1.71,1.71,0,0,0-.48-.28,4.62,4.62,0,0,0-.49-.2l-.59-.19c-1.36-.4-2.26-1-2.26-2.21,0-1.39,1.1-2.24,2.63-2.24a5,5,0,0,1,2.36.58l-.3.95a4.33,4.33,0,0,0-2.13-.58c-.95,0-1.56.44-1.56,1.19a.79.79,0,0,0,.12.46,1.43,1.43,0,0,0,.25.34,1.26,1.26,0,0,0,.46.27l.49.21c.12,0,.33.1.6.18C399.55,157.89,400.43,158.47,400.43,159.76Z"/><rect class="e1ca2ec7-21a7-4878-b575-7277ede2f3c1" x="453.17" y="131.05" width="178" height="50" rx="9"/><path class="a522eb57-bd0d-4f49-be2d-402c7c5ef0dc" d="M529.46,152.28v9.61h-1.09v-9.61h-3.74v-1h8.56v1Z"/><path class="a522eb57-bd0d-4f49-be2d-402c7c5ef0dc" d="M540.27,158a4.11,4.11,0,0,1-1.09,3,3.6,3.6,0,0,1-2.74,1.16,3.56,3.56,0,0,1-2.7-1.12,4.65,4.65,0,0,1,0-6,3.62,3.62,0,0,1,2.74-1.14,3.56,3.56,0,0,1,2.7,1.12A4.18,4.18,0,0,1,540.27,158Zm-1,0c0-1.92-1.09-3.18-2.75-3.18s-2.74,1.28-2.74,3.15,1.09,3.18,2.75,3.18S539.23,159.88,539.23,158Z"/><path class="a522eb57-bd0d-4f49-be2d-402c7c5ef0dc" d="M549.29,158a4.06,4.06,0,0,1-1.09,3,3.82,3.82,0,0,1-5.44,0,4.23,4.23,0,0,1-1-3,4.17,4.17,0,0,1,1.11-3,3.61,3.61,0,0,1,2.73-1.14,3.53,3.53,0,0,1,2.7,1.12A4.18,4.18,0,0,1,549.29,158Zm-1,0c0-1.92-1.08-3.18-2.75-3.18s-2.74,1.28-2.74,3.15,1.09,3.18,2.76,3.18S548.25,159.88,548.25,158Z"/><path class="a522eb57-bd0d-4f49-be2d-402c7c5ef0dc" d="M551.25,161.89V150.43l1-.22v11.68Z"/><path class="a522eb57-bd0d-4f49-be2d-402c7c5ef0dc" d="M559.42,159.76c0,1.41-1.19,2.35-2.78,2.35a4.69,4.69,0,0,1-2.55-.7l.29-1a4,4,0,0,0,2.29.72c1,0,1.75-.5,1.75-1.31a1,1,0,0,0-.12-.5A1.29,1.29,0,0,0,558,159a1.71,1.71,0,0,0-.48-.28,4.62,4.62,0,0,0-.49-.2l-.59-.19c-1.36-.4-2.26-1-2.26-2.21,0-1.39,1.1-2.24,2.63-2.24a5,5,0,0,1,2.36.58l-.3.95a4.33,4.33,0,0,0-2.13-.58c-.95,0-1.56.44-1.56,1.19a.79.79,0,0,0,.12.46,1.43,1.43,0,0,0,.25.34,1.26,1.26,0,0,0,.46.27l.49.21c.12,0,.33.1.6.18C558.54,157.89,559.42,158.47,559.42,159.76Z"/><rect class="e1ca2ec7-21a7-4878-b575-7277ede2f3c1" x="656.79" y="131.05" width="178" height="50" rx="9"/><path class="a522eb57-bd0d-4f49-be2d-402c7c5ef0dc" d="M724,161.89h-1.1l-1.12-3H717l-1.13,3h-1.1l4-10.63h1.27Zm-4.62-9.56-2,5.53h4.06Z"/><path class="a522eb57-bd0d-4f49-be2d-402c7c5ef0dc" d="M732.3,157.89a4.34,4.34,0,0,1-1.07,3,3.57,3.57,0,0,1-2.77,1.19,4.36,4.36,0,0,1-1.9-.43l-1.06.46V150.43l1.06-.22v4.71a3.32,3.32,0,0,1,2.34-1C731,153.93,732.3,155.55,732.3,157.89Zm-1.08.05c0-1.8-1-3-2.52-3a3.07,3.07,0,0,0-2.14.87v4.77a3.07,3.07,0,0,0,2,.62C730.18,161.16,731.22,159.86,731.22,157.94Z"/><path class="a522eb57-bd0d-4f49-be2d-402c7c5ef0dc" d="M741.26,158a4.06,4.06,0,0,1-1.09,3,3.82,3.82,0,0,1-5.44,0,4.23,4.23,0,0,1-1.05-3,4.16,4.16,0,0,1,1.1-3,3.65,3.65,0,0,1,2.74-1.14,3.53,3.53,0,0,1,2.7,1.12A4.18,4.18,0,0,1,741.26,158Zm-1,0c0-1.92-1.08-3.18-2.75-3.18s-2.74,1.28-2.74,3.15,1.09,3.18,2.76,3.18S740.22,159.88,740.22,158Z"/><path class="a522eb57-bd0d-4f49-be2d-402c7c5ef0dc" d="M743.15,154.1h1.05v5c0,1.31.56,2,1.69,2a3.27,3.27,0,0,0,2.39-1.1v-5.9h1.06v7.79l-1.06.22v-1.26a3.71,3.71,0,0,1-2.68,1.26,2.36,2.36,0,0,1-2.45-2.67Z"/><path class="a522eb57-bd0d-4f49-be2d-402c7c5ef0dc" d="M755.66,161.73a4,4,0,0,1-1.73.41c-1.45,0-2.15-.81-2.09-2.45l.11-4.6-1.19-.07.06-.66,1.17-.27,0-1.77h1l0,1.82h2.6l-.05.93H753l-.12,4.66c0,1,.34,1.46,1.14,1.46a3.81,3.81,0,0,0,1.49-.37Z"/><path class="a522eb57-bd0d-4f49-be2d-402c7c5ef0dc" d="M769.28,157.82c0,2.69-1.41,4.29-4,4.29s-4-1.57-4-4.12v-6.73h1.06v6.6c0,2.07,1,3.24,3,3.24s2.91-1.12,2.91-3.26v-6.58h1.07Z"/><path class="a522eb57-bd0d-4f49-be2d-402c7c5ef0dc" d="M776.4,159.76c0,1.41-1.19,2.35-2.79,2.35a4.69,4.69,0,0,1-2.55-.7l.29-1a4.06,4.06,0,0,0,2.3.72c1,0,1.75-.5,1.75-1.31a1.06,1.06,0,0,0-.12-.5A1.86,1.86,0,0,0,775,159a2.09,2.09,0,0,0-.48-.28,4.62,4.62,0,0,0-.49-.2l-.6-.19c-1.36-.4-2.26-1-2.26-2.21,0-1.39,1.11-2.24,2.64-2.24a5,5,0,0,1,2.36.58l-.31.95a4.29,4.29,0,0,0-2.12-.58c-1,0-1.57.44-1.57,1.19a.88.88,0,0,0,.12.46,1.43,1.43,0,0,0,.26.34,1.18,1.18,0,0,0,.46.27l.49.21c.12,0,.32.1.59.18C775.52,157.89,776.4,158.47,776.4,159.76Z"/><rect class="e1ca2ec7-21a7-4878-b575-7277ede2f3c1" x="276.05" y="284.52" width="178" height="50" rx="9"/><path class="svgtext" d="M304.93,309.92a2.52,2.52,0,0,1,2.38,2.48c0,1.82-1.22,3-3.83,3H300V304.74h3.32c2.46,0,3.62,1.05,3.62,2.77A2.46,2.46,0,0,1,304.93,309.92Zm.95-2.33c0-1.19-.85-1.87-2.48-1.87h-2.28v3.83h2.11C304.86,309.55,305.88,308.85,305.88,307.59Zm.34,4.81c0-1.24-1-1.87-2.92-1.87h-2.18v3.84h2.45C305.34,314.37,306.22,313.71,306.22,312.4Z"/><path class="svgtext" d="M313.38,314.42h-.05a2.85,2.85,0,0,1-2.28,1.16,2.25,2.25,0,0,1-2.47-2.16c0-1.66,1.59-2.58,4.73-2.77v-.46a1.63,1.63,0,0,0-1.84-1.85,4.82,4.82,0,0,0-2.55.93l-.23-1a5.4,5.4,0,0,1,2.89-.94,2.45,2.45,0,0,1,2.78,2.79v3.74c0,.61.14.8.79.78l-.07.87C314.08,315.6,313.5,315.22,313.38,314.42Zm-.07-.78v-2.27c-2.62.28-3.62.86-3.62,1.93a1.42,1.42,0,0,0,1.6,1.36A2.66,2.66,0,0,0,313.31,313.64Z"/><path class="svgtext" d="M320.59,315.21a4.08,4.08,0,0,1-1.74.4c-1.44,0-2.14-.81-2.09-2.44l.12-4.61-1.19-.07.05-.66,1.17-.27,0-1.77h1l-.05,1.82h2.6l0,.93h-2.59l-.12,4.66c0,1,.34,1.46,1.14,1.46a3.85,3.85,0,0,0,1.5-.37Z"/><path class="svgtext" d="M328.49,315.36h-1.05v-5c0-1.31-.56-2-1.67-2a3.37,3.37,0,0,0-2.41,1.1v5.9H322.3V303.9l1.06-.22v4.91a3.76,3.76,0,0,1,2.7-1.24c1.53,0,2.43.95,2.43,2.67Z"/><path class="svgtext" d="M331.94,310.36v5h-1.05v-7.79l1.05-.22V309a2.56,2.56,0,0,1,2.3-1.67,2.71,2.71,0,0,1,1.36.36l-.28,1a2.19,2.19,0,0,0-1.19-.34C333.27,308.36,332.54,309,331.94,310.36Z"/><path class="svgtext" d="M343.84,311.45a4.11,4.11,0,0,1-1.09,3,3.6,3.6,0,0,1-2.73,1.16,3.53,3.53,0,0,1-2.71-1.12,4.23,4.23,0,0,1-1.05-3,4.18,4.18,0,0,1,1.1-3,3.64,3.64,0,0,1,2.74-1.14,3.53,3.53,0,0,1,2.7,1.12A4.18,4.18,0,0,1,343.84,311.45Zm-1,0c0-1.92-1.08-3.18-2.75-3.18s-2.74,1.28-2.74,3.15,1.09,3.18,2.76,3.18S342.8,313.35,342.8,311.48Z"/><path class="svgtext" d="M352.87,311.45a4.11,4.11,0,0,1-1.09,3,3.6,3.6,0,0,1-2.74,1.16,3.52,3.52,0,0,1-2.7-1.12,4.68,4.68,0,0,1,.05-6,3.62,3.62,0,0,1,2.74-1.14,3.56,3.56,0,0,1,2.7,1.12A4.18,4.18,0,0,1,352.87,311.45Zm-1,0c0-1.92-1.09-3.18-2.75-3.18s-2.74,1.28-2.74,3.15,1.09,3.18,2.75,3.18S351.83,313.35,351.83,311.48Z"/><path class="svgtext" d="M365.6,315.36h-1.05v-5q0-2-1.65-2a3.27,3.27,0,0,0-2.2,1,5.11,5.11,0,0,1,0,.7v5.3h-1.06v-5c0-1.32-.54-2-1.65-2a3.2,3.2,0,0,0-2.15.9v6.1h-1.06v-7.79l1.06-.22v1.07a3.61,3.61,0,0,1,2.46-1.07,2.08,2.08,0,0,1,2.11,1.3,3.86,3.86,0,0,1,2.75-1.3c1.5,0,2.4,1,2.4,2.69Z"/><path class="svgtext" d="M372,315.36V304.74h1.09v9.6h5.25v1Z"/><path class="svgtext" d="M380.39,311.5v.09c.05,1.78,1.11,3,2.72,3a4.12,4.12,0,0,0,2.26-.64l.21,1a4.69,4.69,0,0,1-2.5.66,3.72,3.72,0,0,1-3.76-4,4.38,4.38,0,0,1,1.05-3,3.35,3.35,0,0,1,2.62-1.18,2.67,2.67,0,0,1,2.84,2.88,4.09,4.09,0,0,1-.17,1.24Zm.07-.83,4.31,0a1.34,1.34,0,0,0,0-.34,1.78,1.78,0,0,0-1.87-2A2.52,2.52,0,0,0,380.46,310.67Z"/><path class="svgtext" d="M392,314.42h-.05a2.85,2.85,0,0,1-2.28,1.16,2.24,2.24,0,0,1-2.46-2.16c0-1.66,1.58-2.58,4.72-2.77v-.46a1.62,1.62,0,0,0-1.83-1.85,4.76,4.76,0,0,0-2.55.93l-.24-1a5.43,5.43,0,0,1,2.89-.94,2.46,2.46,0,0,1,2.79,2.79v3.74c0,.61.13.8.78.78l-.07.87C392.65,315.6,392.07,315.22,392,314.42Zm-.07-.78v-2.27c-2.62.28-3.62.86-3.62,1.93a1.42,1.42,0,0,0,1.6,1.36A2.63,2.63,0,0,0,391.88,313.64Z"/><path class="svgtext" d="M396.34,311.48v3.88h-1.06V303.9l1.06-.22v7.48h0l3.5-3.59h1.33l-3.74,3.71,3.75,4.08h-1.34l-3.5-3.88Z"/><path class="svgtext" d="M406.79,314.42h-.05a2.85,2.85,0,0,1-2.28,1.16,2.24,2.24,0,0,1-2.46-2.16c0-1.66,1.58-2.58,4.72-2.77v-.46a1.62,1.62,0,0,0-1.83-1.85,4.76,4.76,0,0,0-2.55.93l-.24-1a5.43,5.43,0,0,1,2.89-.94,2.46,2.46,0,0,1,2.79,2.79v3.74c0,.61.13.8.78.78l-.07.87C407.49,315.6,406.91,315.22,406.79,314.42Zm-.07-.78v-2.27c-2.62.28-3.62.86-3.62,1.93a1.42,1.42,0,0,0,1.6,1.36A2.63,2.63,0,0,0,406.72,313.64Z"/><path class="svgtext" d="M410.72,315.38c-.7-.26-1.06-.67-1.06-1.24a1.71,1.71,0,0,1,1.28-1.48,2.61,2.61,0,0,1-1.26-2.38,2.88,2.88,0,0,1,3.06-2.93,3.78,3.78,0,0,1,1.84.46l2.16-.17.05,1.06-1.72-.17a2.69,2.69,0,0,1,.63,1.75,2.85,2.85,0,0,1-3,2.85,3.42,3.42,0,0,1-1.15-.22c-.58.24-.87.55-.87.94s.44.8,1.77.8h1c2.16,0,3.23.68,3.23,2a2.44,2.44,0,0,1-1.21,2.07,5.06,5.06,0,0,1-2.89.82c-2.09,0-3.52-.92-3.52-2.28A2.06,2.06,0,0,1,410.72,315.38Zm.92.2c-.94.26-1.58.87-1.58,1.53,0,.94,1,1.6,2.65,1.6s2.92-.78,2.92-1.84c0-.88-.75-1.24-2.36-1.24C412.62,315.63,412.08,315.61,411.64,315.58Zm-.92-5.29a1.89,1.89,0,0,0,2,2,1.78,1.78,0,0,0,1.41-.57,2,2,0,0,0,.53-1.47,2.11,2.11,0,0,0-.51-1.46,2,2,0,0,0-1.48-.56A1.9,1.9,0,0,0,410.72,310.29Z"/><path class="svgtext" d="M418.64,311.5v.09c.05,1.78,1.11,3,2.72,3a4.12,4.12,0,0,0,2.26-.64l.21,1a4.69,4.69,0,0,1-2.5.66,3.72,3.72,0,0,1-3.76-4,4.38,4.38,0,0,1,1.05-3,3.35,3.35,0,0,1,2.62-1.18,2.67,2.67,0,0,1,2.84,2.88,4.09,4.09,0,0,1-.17,1.24Zm.07-.83,4.31,0a1.34,1.34,0,0,0,0-.34,1.78,1.78,0,0,0-1.87-2A2.52,2.52,0,0,0,418.71,310.67Z"/><path class="svgtext" d="M430.74,313.23c0,1.42-1.19,2.35-2.78,2.35a4.69,4.69,0,0,1-2.55-.7l.28-1a4.06,4.06,0,0,0,2.3.72c1,0,1.75-.49,1.75-1.31a.89.89,0,0,0-.12-.49,1.4,1.4,0,0,0-.27-.36,1.8,1.8,0,0,0-.48-.27l-.49-.21-.59-.18c-1.36-.41-2.27-1-2.27-2.21,0-1.4,1.11-2.25,2.64-2.25a5,5,0,0,1,2.36.58l-.3.95a4.33,4.33,0,0,0-2.13-.58c-.95,0-1.56.45-1.56,1.2a.76.76,0,0,0,.12.45,1.25,1.25,0,0,0,.25.34,1.41,1.41,0,0,0,.46.28l.49.2c.12.05.33.1.6.19C429.86,311.37,430.74,311.94,430.74,313.23Z"/><rect class="e1ca2ec7-21a7-4878-b575-7277ede2f3c1" x="470.34" y="284.52" width="178" height="50" rx="9"/><path class="svgtext" d="M514.89,310c0,3.37-2.09,5.39-5.71,5.39h-2.8V304.74h2.89a5.8,5.8,0,0,1,4.11,1.42A5.06,5.06,0,0,1,514.89,310Zm-1.08.09c0-2.71-1.69-4.32-4.61-4.32h-1.73v8.62h1.76C512.05,314.36,513.81,312.89,513.81,310.06Z"/><path class="svgtext" d="M517.48,311.5v.09c0,1.78,1.1,3,2.72,3a4.12,4.12,0,0,0,2.26-.64l.2,1a4.64,4.64,0,0,1-2.5.66,3.72,3.72,0,0,1-3.75-4,4.33,4.33,0,0,1,1.05-3,3.35,3.35,0,0,1,2.62-1.18,2.67,2.67,0,0,1,2.84,2.88,4.09,4.09,0,0,1-.17,1.24Zm.07-.83,4.31,0a1.34,1.34,0,0,0,0-.34,1.78,1.78,0,0,0-1.87-2A2.51,2.51,0,0,0,517.55,310.67Z"/><path class="svgtext" d="M531.71,311.37a4.37,4.37,0,0,1-1.07,3,3.57,3.57,0,0,1-2.77,1.19,4.51,4.51,0,0,1-1.91-.42l-1.05.45V303.9l1.05-.22v4.71a3.34,3.34,0,0,1,2.35-1C530.36,307.4,531.71,309,531.71,311.37Zm-1.09.05c0-1.81-1-3.05-2.52-3.05a3.07,3.07,0,0,0-2.14.87V314a3.14,3.14,0,0,0,2,.61C529.58,314.63,530.62,313.34,530.62,311.42Z"/><path class="svgtext" d="M540.67,311.45a4.11,4.11,0,0,1-1.09,3,3.6,3.6,0,0,1-2.74,1.16,3.52,3.52,0,0,1-2.7-1.12,4.65,4.65,0,0,1,.05-6,3.62,3.62,0,0,1,2.74-1.14,3.56,3.56,0,0,1,2.7,1.12A4.18,4.18,0,0,1,540.67,311.45Zm-1,0c0-1.92-1.09-3.18-2.75-3.18s-2.74,1.28-2.74,3.15,1.09,3.18,2.75,3.18S539.63,313.35,539.63,311.48Z"/><path class="svgtext" d="M548.81,315.36h-1.06v-5c0-1.36-.52-2-1.71-2a3.35,3.35,0,0,0-2.37,1.1v5.9h-1v-7.79l1-.22v1.28a3.78,3.78,0,0,1,2.66-1.28,2.35,2.35,0,0,1,2.48,2.67Z"/><path class="svgtext" d="M556.44,307.83V303.9l1.06-.22v11.68h-1.06v-.73a3.25,3.25,0,0,1-2.26.95c-2.09,0-3.48-1.65-3.48-4a4.17,4.17,0,0,1,1.08-3,3.69,3.69,0,0,1,2.77-1.16A4.35,4.35,0,0,1,556.44,307.83Zm0,1.12a3.09,3.09,0,0,0-1.94-.59c-1.66,0-2.72,1.29-2.72,3.16s1,3.09,2.59,3.09a2.94,2.94,0,0,0,2.07-.87V309Z"/><path class="svgtext" d="M561.2,305a.83.83,0,0,1-.19.54.63.63,0,0,1-.52.24.67.67,0,0,1-.53-.24.85.85,0,0,1,0-1.07.65.65,0,0,1,.53-.22.62.62,0,0,1,.52.22A.82.82,0,0,1,561.2,305ZM561,315.36h-1v-7.79l1-.22Z"/><path class="svgtext" d="M569.68,315.36h-1v-5c0-1.36-.53-2-1.72-2a3.33,3.33,0,0,0-2.36,1.1v5.9h-1v-7.79l1-.22v1.28a3.76,3.76,0,0,1,2.65-1.28c1.57,0,2.48.95,2.48,2.67Z"/><path class="svgtext" d="M572.68,315.38c-.7-.26-1.06-.67-1.06-1.24a1.71,1.71,0,0,1,1.28-1.48,2.59,2.59,0,0,1-1.26-2.38,2.88,2.88,0,0,1,3.06-2.93,3.78,3.78,0,0,1,1.84.46l2.15-.17.06,1.06-1.72-.17a2.75,2.75,0,0,1,.63,1.75,2.85,2.85,0,0,1-3,2.85,3.37,3.37,0,0,1-1.15-.22c-.58.24-.87.55-.87.94s.44.8,1.77.8h1c2.16,0,3.23.68,3.23,2a2.44,2.44,0,0,1-1.21,2.07,5.06,5.06,0,0,1-2.89.82c-2.09,0-3.52-.92-3.52-2.28A2.06,2.06,0,0,1,572.68,315.38Zm.91.2c-.93.26-1.58.87-1.58,1.53,0,.94,1,1.6,2.66,1.6s2.92-.78,2.92-1.84c0-.88-.75-1.24-2.36-1.24C574.58,315.63,574,315.61,573.59,315.58Zm-.91-5.29a1.89,1.89,0,0,0,2,2,1.78,1.78,0,0,0,1.41-.57,2,2,0,0,0,.53-1.47,2.11,2.11,0,0,0-.51-1.46,2,2,0,0,0-1.48-.56A1.89,1.89,0,0,0,572.68,310.29Z"/><path class="svgtext" d="M587.91,305.76v9.6h-1.09v-9.6h-3.74v-1h8.57v1Z"/><path class="svgtext" d="M594.52,305a.83.83,0,0,1-.19.54.65.65,0,0,1-.52.24.67.67,0,0,1-.53-.24.85.85,0,0,1,0-1.07.65.65,0,0,1,.53-.22.63.63,0,0,1,.52.22A.82.82,0,0,1,594.52,305Zm-.19,10.35h-1.05v-7.79l1.05-.22Z"/><path class="svgtext" d="M596.82,315.36V303.9l1-.22v11.68Z"/><path class="svgtext" d="M600.88,311.5v.09c0,1.78,1.1,3,2.72,3a4.12,4.12,0,0,0,2.26-.64l.2,1a4.64,4.64,0,0,1-2.5.66,3.72,3.72,0,0,1-3.75-4,4.38,4.38,0,0,1,1.05-3,3.35,3.35,0,0,1,2.62-1.18,2.67,2.67,0,0,1,2.84,2.88,4.09,4.09,0,0,1-.17,1.24Zm.07-.83,4.31,0a1.34,1.34,0,0,0,0-.34,1.78,1.78,0,0,0-1.87-2A2.51,2.51,0,0,0,601,310.67Z"/><path class="svgtext" d="M613,313.23c0,1.42-1.19,2.35-2.79,2.35a4.74,4.74,0,0,1-2.55-.7l.29-1a4.06,4.06,0,0,0,2.3.72c1,0,1.75-.49,1.75-1.31a.89.89,0,0,0-.12-.49,1.4,1.4,0,0,0-.27-.36,1.8,1.8,0,0,0-.48-.27l-.49-.21-.6-.18c-1.35-.41-2.26-1-2.26-2.21,0-1.4,1.11-2.25,2.64-2.25a5,5,0,0,1,2.36.58l-.3.95a4.33,4.33,0,0,0-2.13-.58c-1,0-1.56.45-1.56,1.2a.76.76,0,0,0,.12.45,1.25,1.25,0,0,0,.25.34,1.41,1.41,0,0,0,.46.28l.49.2c.12.05.33.1.6.19C612.1,311.37,613,311.94,613,313.23Z"/><rect class="e1ca2ec7-21a7-4878-b575-7277ede2f3c1" x="664.63" y="284.52" width="178" height="50" rx="9"/><path class="svgtext" d="M710.58,310c0,3.37-2.09,5.39-5.71,5.39h-2.81V304.74H705a5.83,5.83,0,0,1,4.12,1.42A5.06,5.06,0,0,1,710.58,310Zm-1.09.09c0-2.71-1.68-4.32-4.61-4.32h-1.73v8.62h1.77C707.74,314.36,709.49,312.89,709.49,310.06Z"/><path class="svgtext" d="M713.86,305a.83.83,0,0,1-.19.54.69.69,0,0,1-1,0,.85.85,0,0,1,0-1.07.64.64,0,0,1,.53-.22.63.63,0,0,1,.52.22A.82.82,0,0,1,713.86,305Zm-.19,10.35h-1v-7.79l1-.22Z"/><path class="svgtext" d="M717.21,310.36v5h-1.06v-7.79l1.06-.22V309a2.55,2.55,0,0,1,2.29-1.67,2.66,2.66,0,0,1,1.36.36l-.27,1a2.19,2.19,0,0,0-1.19-.34C718.53,308.36,717.8,309,717.21,310.36Z"/><path class="svgtext" d="M726.34,315.21a4.08,4.08,0,0,1-1.74.4c-1.44,0-2.14-.81-2.09-2.44l.12-4.61-1.19-.07,0-.66,1.18-.27.05-1.77h1l-.05,1.82h2.6l0,.93h-2.59l-.12,4.66c0,1,.34,1.46,1.14,1.46a3.85,3.85,0,0,0,1.5-.37Z"/><path class="svgtext" d="M734,307.57l-3,7.7-.63,1.69c-.68,1.85-1.39,2.45-2.51,2.45a3.84,3.84,0,0,1-1.51-.36l.32-1a2.57,2.57,0,0,0,1.19.34c.64,0,1.07-.39,1.6-1.8l.52-1.38-3-7.67H728l2.45,6.43,2.39-6.43Z"/><path class="svgtext" d="M743.13,305.76v9.6H742v-9.6H738.3v-1h8.57v1Z"/><path class="svgtext" d="M749.75,305a.83.83,0,0,1-.19.54.71.71,0,0,1-1.06,0,.89.89,0,0,1,0-1.07.75.75,0,0,1,1.06,0A.82.82,0,0,1,749.75,305Zm-.19,10.35H748.5v-7.79l1.06-.22Z"/><path class="svgtext" d="M752,315.36V303.9l1.05-.22v11.68Z"/><path class="svgtext" d="M756.1,311.5v.09c0,1.78,1.11,3,2.72,3a4.12,4.12,0,0,0,2.26-.64l.21,1a4.69,4.69,0,0,1-2.5.66,3.72,3.72,0,0,1-3.76-4,4.34,4.34,0,0,1,1.06-3,3.31,3.31,0,0,1,2.61-1.18,2.67,2.67,0,0,1,2.84,2.88,4.09,4.09,0,0,1-.17,1.24Zm.07-.83,4.32,0a2.66,2.66,0,0,0,0-.34,1.78,1.78,0,0,0-1.86-2A2.52,2.52,0,0,0,756.17,310.67Z"/><path class="svgtext" d="M772,312.1c0,2.19-1,3.48-3.2,3.48a4.37,4.37,0,0,1-2.36-.66l.19-1.06a4.07,4.07,0,0,0,2.19.73c1.41,0,2.11-.85,2.11-2.53v-7.32H772Z"/><path class="svgtext" d="M781.52,311.45a4.11,4.11,0,0,1-1.09,3,3.6,3.6,0,0,1-2.74,1.16,3.52,3.52,0,0,1-2.7-1.12,4.68,4.68,0,0,1,0-6,3.62,3.62,0,0,1,2.74-1.14,3.56,3.56,0,0,1,2.7,1.12A4.18,4.18,0,0,1,781.52,311.45Zm-1,0c0-1.92-1.09-3.18-2.75-3.18s-2.74,1.28-2.74,3.15,1.09,3.18,2.75,3.18S780.48,313.35,780.48,311.48Z"/><path class="svgtext" d="M784.73,305a.83.83,0,0,1-.19.54.65.65,0,0,1-.52.24.67.67,0,0,1-.53-.24.85.85,0,0,1,0-1.07.65.65,0,0,1,.53-.22.63.63,0,0,1,.52.22A.82.82,0,0,1,784.73,305Zm-.19,10.35h-1v-7.79l1-.22Z"/><path class="svgtext" d="M793.21,315.36h-1.05v-5c0-1.36-.53-2-1.72-2a3.33,3.33,0,0,0-2.36,1.1v5.9H787v-7.79l1.06-.22v1.28a3.76,3.76,0,0,1,2.65-1.28,2.35,2.35,0,0,1,2.48,2.67Z"/><path class="svgtext" d="M799.49,315.21a4.08,4.08,0,0,1-1.74.4c-1.44,0-2.14-.81-2.09-2.44l.12-4.61-1.19-.07,0-.66,1.17-.27.05-1.77h1l0,1.82h2.6l0,.93h-2.59l-.12,4.66c0,1,.34,1.46,1.14,1.46a3.85,3.85,0,0,0,1.5-.37Z"/><path class="svgtext" d="M805.88,313.23c0,1.42-1.19,2.35-2.79,2.35a4.69,4.69,0,0,1-2.55-.7l.29-1a4,4,0,0,0,2.29.72c1,0,1.75-.49,1.75-1.31a.89.89,0,0,0-.12-.49,1.2,1.2,0,0,0-.27-.36,1.57,1.57,0,0,0-.47-.27l-.5-.21-.59-.18c-1.36-.41-2.26-1-2.26-2.21,0-1.4,1.1-2.25,2.63-2.25a5,5,0,0,1,2.37.58l-.31.95a4.32,4.32,0,0,0-2.12-.58c-1,0-1.57.45-1.57,1.2a.84.84,0,0,0,.12.45,1.25,1.25,0,0,0,.26.34,1.22,1.22,0,0,0,.46.28l.49.2c.12.05.32.1.59.19C805,311.37,805.88,311.94,805.88,313.23Z"/><rect class="e1ca2ec7-21a7-4878-b575-7277ede2f3c1" x="470.34" y="437.99" width="178" height="50" rx="9"/><path class="svgtext" d="M494.36,468.08c1.48,0,2.51-.86,2.51-2s-.81-1.69-2.68-2.23a8.2,8.2,0,0,1-1.12-.41,4.36,4.36,0,0,1-1-.52,2.26,2.26,0,0,1-.75-.85,2.61,2.61,0,0,1-.26-1.19c0-1.69,1.41-2.89,3.4-2.89a5.8,5.8,0,0,1,3.2.91l-.39,1a4.79,4.79,0,0,0-2.79-.89c-1.53,0-2.36.77-2.36,1.82s.8,1.53,2.68,2.13a11.25,11.25,0,0,1,1.14.4,7.35,7.35,0,0,1,1,.56,2.34,2.34,0,0,1,.73.89,3,3,0,0,1,.24,1.22c0,1.79-1.46,3.06-3.59,3.06a6.19,6.19,0,0,1-3.41-1l.39-1A5.34,5.34,0,0,0,494.36,468.08Z"/><path class="svgtext" d="M506.92,464.92a4.13,4.13,0,0,1-1.09,3,3.62,3.62,0,0,1-2.73,1.15,3.53,3.53,0,0,1-2.71-1.12,4.68,4.68,0,0,1,.05-6,3.63,3.63,0,0,1,2.74-1.13,3.49,3.49,0,0,1,2.7,1.12A4.14,4.14,0,0,1,506.92,464.92Zm-1,0c0-1.93-1.08-3.18-2.75-3.18s-2.74,1.27-2.74,3.14,1.09,3.18,2.76,3.18S505.88,466.83,505.88,465Z"/><path class="svgtext" d="M508.88,468.83V457.37l1.05-.22v11.68Z"/><path class="svgtext" d="M512.31,461.05h1.05v5c0,1.31.56,2,1.69,2a3.29,3.29,0,0,0,2.39-1.11v-5.89h1.06v7.78l-1.06.22v-1.26a3.68,3.68,0,0,1-2.68,1.26,2.35,2.35,0,0,1-2.45-2.67Z"/><path class="svgtext" d="M524.82,468.68a4.06,4.06,0,0,1-1.73.41c-1.45,0-2.14-.82-2.09-2.45l.12-4.61-1.19-.07.05-.66,1.17-.27.05-1.77h1l-.05,1.82h2.6l0,.93h-2.58l-.12,4.66c0,1,.34,1.46,1.14,1.46a3.81,3.81,0,0,0,1.49-.37Z"/><path class="svgtext" d="M527.8,458.48a.83.83,0,0,1-.19.54.64.64,0,0,1-.53.24.61.61,0,0,1-.52-.24.83.83,0,0,1-.19-.54.86.86,0,0,1,.19-.53.62.62,0,0,1,.52-.22.65.65,0,0,1,.53.22A.86.86,0,0,1,527.8,458.48Zm-.19,10.35h-1.05v-7.78l1.05-.22Z"/><path class="svgtext" d="M537.16,464.92a4.09,4.09,0,0,1-1.09,3,3.62,3.62,0,0,1-2.73,1.15,3.53,3.53,0,0,1-2.71-1.12,4.67,4.67,0,0,1,.06-6,3.61,3.61,0,0,1,2.73-1.13,3.53,3.53,0,0,1,2.71,1.12A4.18,4.18,0,0,1,537.16,464.92Zm-1,0c0-1.93-1.09-3.18-2.76-3.18s-2.74,1.27-2.74,3.14,1.09,3.18,2.76,3.18S536.13,466.83,536.13,465Z"/><path class="svgtext" d="M545.3,468.83h-1v-5c0-1.36-.53-2-1.72-2a3.33,3.33,0,0,0-2.36,1.1v5.9h-1v-7.78l1-.22v1.27a3.76,3.76,0,0,1,2.65-1.27,2.34,2.34,0,0,1,2.48,2.66Z"/><path class="svgtext" d="M560.23,463.44c0,3.37-2.09,5.39-5.71,5.39h-2.81V458.21h2.89a5.81,5.81,0,0,1,4.12,1.42A5.06,5.06,0,0,1,560.23,463.44Zm-1.09.09c0-2.7-1.68-4.32-4.6-4.32H552.8v8.62h1.77C557.39,467.83,559.14,466.37,559.14,463.53Z"/><path class="svgtext" d="M562.82,465v.09c0,1.78,1.1,3,2.72,3a4.17,4.17,0,0,0,2.26-.65l.2,1a4.66,4.66,0,0,1-2.5.66,3.72,3.72,0,0,1-3.76-4,4.34,4.34,0,0,1,1.06-3,3.36,3.36,0,0,1,2.62-1.17,2.66,2.66,0,0,1,2.83,2.87,4.38,4.38,0,0,1-.16,1.24Zm.06-.83,4.32,0a1.34,1.34,0,0,0,0-.34,1.78,1.78,0,0,0-1.87-2A2.51,2.51,0,0,0,562.88,464.14Z"/><path class="svgtext" d="M574.92,466.71c0,1.41-1.19,2.34-2.79,2.34a4.77,4.77,0,0,1-2.55-.69l.29-1a4.1,4.1,0,0,0,2.3.71c1,0,1.75-.49,1.75-1.31a1,1,0,0,0-.12-.49,2.4,2.4,0,0,0-.27-.36,2.13,2.13,0,0,0-.48-.27,4.62,4.62,0,0,0-.49-.2c-.11,0-.31-.11-.6-.19-1.36-.41-2.26-1-2.26-2.21,0-1.4,1.11-2.24,2.64-2.24a5,5,0,0,1,2.36.57l-.31,1a4.28,4.28,0,0,0-2.12-.57c-.95,0-1.57.44-1.57,1.19a.9.9,0,0,0,.12.46,1.67,1.67,0,0,0,.26.34,1.49,1.49,0,0,0,.46.27l.49.2c.12.05.32.1.59.19C574,464.84,574.92,465.41,574.92,466.71Z"/><path class="svgtext" d="M582.54,468.39a4.53,4.53,0,0,1-2.42.66c-2.33,0-3.81-1.63-3.81-4.09a4.16,4.16,0,0,1,1.09-3,3.61,3.61,0,0,1,2.74-1.15,4.45,4.45,0,0,1,2.43.66l-.27.95a3.75,3.75,0,0,0-2.16-.63c-1.68,0-2.74,1.24-2.74,3.11s1.09,3.15,2.76,3.15a3.93,3.93,0,0,0,2.15-.65Z"/><path class="svgtext" d="M585.54,463.83v5h-1v-7.78l1-.22v1.66a2.58,2.58,0,0,1,2.3-1.66,2.7,2.7,0,0,1,1.36.35l-.27,1a2.34,2.34,0,0,0-1.19-.34C586.87,461.83,586.14,462.49,585.54,463.83Z"/><path class="svgtext" d="M591.8,458.48a.83.83,0,0,1-.19.54.62.62,0,0,1-.52.24.64.64,0,0,1-.53-.24.83.83,0,0,1-.19-.54.86.86,0,0,1,.19-.53.65.65,0,0,1,.53-.22.63.63,0,0,1,.52.22A.86.86,0,0,1,591.8,458.48Zm-.19,10.35h-1.05v-7.78l1.05-.22Z"/><path class="svgtext" d="M595.15,461.83a3.25,3.25,0,0,1,2.26-.95c2.09,0,3.48,1.63,3.48,4a4.19,4.19,0,0,1-1.07,3,3.63,3.63,0,0,1-2.77,1.17,4.3,4.3,0,0,1-1.9-.41v4.15h-1.06V461l1.06-.22Zm0,.88v4.78a3.07,3.07,0,0,0,2,.61c1.64,0,2.71-1.31,2.71-3.18s-1-3.08-2.57-3.08A3,3,0,0,0,595.15,462.71Z"/><path class="svgtext" d="M606.73,468.68a4.1,4.1,0,0,1-1.74.41c-1.44,0-2.14-.82-2.09-2.45L603,462l-1.19-.07,0-.66,1.17-.27.05-1.77h1l-.05,1.82h2.6l0,.93H604l-.12,4.66c0,1,.34,1.46,1.14,1.46a3.85,3.85,0,0,0,1.5-.37Z"/><path class="svgtext" d="M609.7,458.48a.83.83,0,0,1-.19.54.62.62,0,0,1-.52.24.64.64,0,0,1-.53-.24.83.83,0,0,1-.19-.54.86.86,0,0,1,.19-.53.65.65,0,0,1,.53-.22.63.63,0,0,1,.52.22A.86.86,0,0,1,609.7,458.48Zm-.19,10.35h-1v-7.78l1-.22Z"/><path class="svgtext" d="M619.07,464.92a4.13,4.13,0,0,1-1.09,3,3.63,3.63,0,0,1-2.74,1.15,3.52,3.52,0,0,1-2.7-1.12,4.68,4.68,0,0,1,.05-6,3.61,3.61,0,0,1,2.74-1.13A3.52,3.52,0,0,1,618,462,4.14,4.14,0,0,1,619.07,464.92Zm-1,0c0-1.93-1.09-3.18-2.75-3.18s-2.74,1.27-2.74,3.14,1.09,3.18,2.75,3.18S618,466.83,618,465Z"/><path class="svgtext" d="M627.21,468.83h-1.05v-5c0-1.36-.53-2-1.72-2a3.33,3.33,0,0,0-2.36,1.1v5.9H621v-7.78l1.06-.22v1.27a3.74,3.74,0,0,1,2.65-1.27,2.34,2.34,0,0,1,2.48,2.66Z"/><rect class="e1ca2ec7-21a7-4878-b575-7277ede2f3c1" x="664.63" y="437.99" width="178" height="50" rx="9"/><path class="svgtext" d="M706.94,451.32c0,2.3-1.58,3.5-4.28,3.55l-1.45,0v3.74h-1.09V448h2.67C705.53,448,706.94,449.3,706.94,451.32Zm-1.12.05c0-1.53-1.07-2.36-3.06-2.36h-1.55v4.88l1.51,0C704.78,453.82,705.82,453,705.82,451.37Z"/><path class="svgtext" d="M709.86,453.63v5h-1.05v-7.79l1.05-.22v1.67a2.56,2.56,0,0,1,2.3-1.67,2.71,2.71,0,0,1,1.36.36l-.27,1a2.34,2.34,0,0,0-1.19-.34C711.19,451.63,710.46,452.29,709.86,453.63Z"/><path class="svgtext" d="M721.76,454.72a4.1,4.1,0,0,1-1.09,3,3.62,3.62,0,0,1-2.73,1.15,3.49,3.49,0,0,1-2.7-1.12,4.65,4.65,0,0,1,0-6,3.61,3.61,0,0,1,2.73-1.14,3.54,3.54,0,0,1,2.71,1.13A4.18,4.18,0,0,1,721.76,454.72Zm-1,0c0-1.92-1.09-3.17-2.76-3.17s-2.73,1.27-2.73,3.14,1.08,3.18,2.75,3.18S720.73,456.62,720.73,454.75Z"/><path class="svgtext" d="M729,451.1v-3.93L730,447v11.68H729v-.73a3.23,3.23,0,0,1-2.26,1c-2.09,0-3.48-1.65-3.48-4a4.18,4.18,0,0,1,1.09-3,3.67,3.67,0,0,1,2.77-1.16A4.34,4.34,0,0,1,729,451.1Zm0,1.12a3.08,3.08,0,0,0-1.93-.59c-1.67,0-2.72,1.29-2.72,3.16s1,3.09,2.58,3.09A2.94,2.94,0,0,0,729,457v-4.79Z"/><path class="svgtext" d="M732.39,450.84h1.05v5c0,1.3.56,2,1.69,2a3.29,3.29,0,0,0,2.39-1.11v-5.9h1.06v7.79l-1.06.22v-1.26a3.69,3.69,0,0,1-2.68,1.26,2.35,2.35,0,0,1-2.45-2.67Z"/><path class="svgtext" d="M746.74,458.19a4.53,4.53,0,0,1-2.42.66c-2.33,0-3.81-1.63-3.81-4.1a4.15,4.15,0,0,1,1.09-3,3.59,3.59,0,0,1,2.74-1.16,4.37,4.37,0,0,1,2.43.67l-.27.95a3.75,3.75,0,0,0-2.16-.63c-1.68,0-2.74,1.24-2.74,3.11s1.09,3.15,2.76,3.15a3.93,3.93,0,0,0,2.15-.65Z"/><path class="svgtext" d="M752.57,458.48a4.08,4.08,0,0,1-1.74.4c-1.44,0-2.14-.81-2.09-2.44l.12-4.61-1.19-.07.05-.66,1.18-.27.05-1.77h1l-.05,1.82h2.6l0,.93h-2.59l-.11,4.66c0,1,.34,1.46,1.13,1.46a3.85,3.85,0,0,0,1.5-.37Z"/><path class="svgtext" d="M759.38,454.38v4.25H758.3V448h2.85c2.57,0,3.86,1.13,3.86,3.06a3.09,3.09,0,0,1-2.46,3l2.94,4.57h-1.26l-2.72-4.39Zm0-1,1.91-.07c1.49,0,2.63-.88,2.63-2.22S762.9,449,761,449h-1.65Z"/><path class="svgtext" d="M767.55,454.77v.09c.05,1.78,1.1,3,2.71,3a4.18,4.18,0,0,0,2.27-.65l.2,1a4.69,4.69,0,0,1-2.5.66,3.72,3.72,0,0,1-3.76-4,4.34,4.34,0,0,1,1.06-3,3.32,3.32,0,0,1,2.62-1.18A2.67,2.67,0,0,1,773,453.5a4,4,0,0,1-.17,1.24Zm.06-.83,4.32,0a1.34,1.34,0,0,0,0-.34,1.78,1.78,0,0,0-1.87-2A2.51,2.51,0,0,0,767.61,453.94Z"/><path class="svgtext" d="M780.69,458.19a4.53,4.53,0,0,1-2.42.66c-2.33,0-3.81-1.63-3.81-4.1a4.15,4.15,0,0,1,1.09-3,3.59,3.59,0,0,1,2.74-1.16,4.37,4.37,0,0,1,2.43.67l-.27.95a3.75,3.75,0,0,0-2.16-.63c-1.68,0-2.74,1.24-2.74,3.11s1.09,3.15,2.76,3.15a3.93,3.93,0,0,0,2.15-.65Z"/><path class="svgtext" d="M789.63,454.72a4.15,4.15,0,0,1-1.09,3,3.63,3.63,0,0,1-2.74,1.15,3.52,3.52,0,0,1-2.7-1.12,4.68,4.68,0,0,1,0-6,3.62,3.62,0,0,1,2.74-1.14,3.53,3.53,0,0,1,2.7,1.13A4.14,4.14,0,0,1,789.63,454.72Zm-1,0c0-1.92-1.09-3.17-2.75-3.17s-2.74,1.27-2.74,3.14,1.09,3.18,2.75,3.18S788.59,456.62,788.59,454.75Z"/><path class="svgtext" d="M802.36,458.63h-1.05v-5c0-1.33-.55-2-1.65-2a3.27,3.27,0,0,0-2.2,1,5.11,5.11,0,0,1,0,.7v5.3h-1.06v-5c0-1.33-.54-2-1.64-2a3.21,3.21,0,0,0-2.16.9v6.1h-1.06v-7.79l1.06-.22v1.07a3.61,3.61,0,0,1,2.46-1.07,2.08,2.08,0,0,1,2.11,1.3,3.86,3.86,0,0,1,2.75-1.3c1.5,0,2.4,1,2.4,2.69Z"/><path class="svgtext" d="M804.11,455v-1H808v1Z"/><path class="svgtext" d="M729.28,479h-1.06v-5c0-1.32-.54-2-1.65-2a3.27,3.27,0,0,0-2.19,1,5.11,5.11,0,0,1,0,.7V479h-1.06v-5c0-1.32-.54-2-1.65-2a3.22,3.22,0,0,0-2.16.9V479h-1v-7.79l1-.22v1.07A3.65,3.65,0,0,1,722,471a2.09,2.09,0,0,1,2.11,1.3,3.84,3.84,0,0,1,2.75-1.3c1.5,0,2.4,1,2.4,2.69Z"/><path class="svgtext" d="M732.24,475.17v.09c0,1.78,1.1,3,2.72,3a4.14,4.14,0,0,0,2.26-.64l.2,1a4.66,4.66,0,0,1-2.5.66,3.72,3.72,0,0,1-3.75-4,4.33,4.33,0,0,1,1.05-3,3.33,3.33,0,0,1,2.62-1.18,2.67,2.67,0,0,1,2.84,2.88,4.42,4.42,0,0,1-.17,1.24Zm.06-.83,4.32,0a1.34,1.34,0,0,0,0-.34,1.78,1.78,0,0,0-1.87-2A2.53,2.53,0,0,0,732.3,474.34Z"/><path class="svgtext" d="M745.85,479H744.8v-5c0-1.36-.53-2-1.72-2a3.33,3.33,0,0,0-2.36,1.1V479h-1.05v-7.79l1.05-.22v1.28a3.76,3.76,0,0,1,2.65-1.28,2.35,2.35,0,0,1,2.48,2.67Z"/><path class="svgtext" d="M753.49,471.5v-3.93l1-.22V479h-1v-.73a3.26,3.26,0,0,1-2.27.95c-2.09,0-3.48-1.65-3.48-4a4.18,4.18,0,0,1,1.09-3,3.69,3.69,0,0,1,2.77-1.16A4.38,4.38,0,0,1,753.49,471.5Zm0,1.12a3.11,3.11,0,0,0-1.94-.59c-1.67,0-2.72,1.29-2.72,3.16s1,3.09,2.58,3.09a3,3,0,0,0,2.08-.87v-4.79Z"/><path class="svgtext" d="M761.12,478.09h0a2.85,2.85,0,0,1-2.28,1.16,2.24,2.24,0,0,1-2.46-2.16c0-1.66,1.58-2.58,4.72-2.77v-.46a1.63,1.63,0,0,0-1.84-1.85,4.76,4.76,0,0,0-2.54.93l-.24-1a5.43,5.43,0,0,1,2.89-.94,2.46,2.46,0,0,1,2.79,2.79v3.74c0,.61.13.8.78.78l-.07.87C761.82,479.27,761.24,478.89,761.12,478.09Zm-.07-.78V475c-2.62.28-3.62.86-3.62,1.93a1.42,1.42,0,0,0,1.6,1.36A2.63,2.63,0,0,0,761.05,477.31Z"/><path class="svgtext" d="M768.33,478.88a4.08,4.08,0,0,1-1.74.4c-1.44,0-2.14-.81-2.09-2.44l.12-4.61-1.19-.07.05-.66,1.18-.27.05-1.77h1l-.05,1.82h2.6l0,.93h-2.59l-.12,4.66c0,1,.35,1.46,1.14,1.46a3.85,3.85,0,0,0,1.5-.37Z"/><path class="svgtext" d="M771.3,468.68a.88.88,0,0,1-.18.54.71.71,0,0,1-1.06,0,.85.85,0,0,1,0-1.07.75.75,0,0,1,1.06,0A.87.87,0,0,1,771.3,468.68ZM771.12,479h-1.06v-7.79l1.06-.22Z"/><path class="svgtext" d="M780.67,475.12a4.11,4.11,0,0,1-1.09,3,3.6,3.6,0,0,1-2.74,1.16,3.52,3.52,0,0,1-2.7-1.12,4.68,4.68,0,0,1,.05-6,3.62,3.62,0,0,1,2.74-1.14,3.56,3.56,0,0,1,2.7,1.12A4.18,4.18,0,0,1,780.67,475.12Zm-1,0c0-1.92-1.09-3.18-2.75-3.18s-2.74,1.28-2.74,3.15,1.09,3.18,2.75,3.18S779.63,477,779.63,475.15Z"/><path class="svgtext" d="M788.81,479h-1v-5c0-1.36-.53-2-1.72-2a3.33,3.33,0,0,0-2.36,1.1V479h-1.06v-7.79l1.06-.22v1.28a3.76,3.76,0,0,1,2.65-1.28,2.35,2.35,0,0,1,2.48,2.67Z"/><rect class="e1ca2ec7-21a7-4878-b575-7277ede2f3c1" x="858.92" y="437.99" width="178" height="50" rx="9"/><path class="svgtext" d="M898,468.83h-1.11l-1.12-3H891l-1.12,3h-1.11l4-10.62h1.28Zm-4.63-9.55-2,5.52h4.07Z"/><path class="svgtext" d="M900.55,461.83a3.25,3.25,0,0,1,2.26-.95c2.09,0,3.49,1.63,3.49,4a4.24,4.24,0,0,1-1.07,3,3.63,3.63,0,0,1-2.77,1.17,4.31,4.31,0,0,1-1.91-.41v4.15h-1V461l1-.22Zm0,.88v4.78a3.08,3.08,0,0,0,2,.61c1.63,0,2.7-1.31,2.7-3.18s-1-3.08-2.57-3.08A3,3,0,0,0,900.55,462.71Z"/><path class="svgtext" d="M909.31,461.83a3.23,3.23,0,0,1,2.26-.95c2.09,0,3.48,1.63,3.48,4a4.24,4.24,0,0,1-1.07,3,3.63,3.63,0,0,1-2.77,1.17,4.24,4.24,0,0,1-1.9-.41v4.15h-1.06V461l1.06-.22Zm0,.88v4.78a3,3,0,0,0,2,.61c1.63,0,2.7-1.31,2.7-3.18s-1-3.08-2.56-3.08A3,3,0,0,0,909.31,462.71Z"/><path class="svgtext" d="M917,468.83V457.37l1-.22v11.68Z"/><path class="svgtext" d="M921.77,458.48a.83.83,0,0,1-.19.54.64.64,0,0,1-.53.24.62.62,0,0,1-.52-.24.83.83,0,0,1-.19-.54.86.86,0,0,1,.19-.53.63.63,0,0,1,.52-.22.65.65,0,0,1,.53.22A.86.86,0,0,1,921.77,458.48Zm-.19,10.35h-1.05v-7.78l1.05-.22Z"/><path class="svgtext" d="M929.77,468.39a4.47,4.47,0,0,1-2.41.66c-2.33,0-3.81-1.63-3.81-4.09a4.16,4.16,0,0,1,1.09-3,3.6,3.6,0,0,1,2.74-1.15,4.45,4.45,0,0,1,2.43.66l-.27.95a3.75,3.75,0,0,0-2.16-.63c-1.69,0-2.74,1.24-2.74,3.11s1.09,3.15,2.75,3.15a3.94,3.94,0,0,0,2.16-.65Z"/><path class="svgtext" d="M935.86,467.9h-.05a2.86,2.86,0,0,1-2.28,1.15,2.24,2.24,0,0,1-2.46-2.16c0-1.66,1.58-2.58,4.72-2.77v-.46a1.62,1.62,0,0,0-1.83-1.85,4.7,4.7,0,0,0-2.55.94l-.24-1a5.42,5.42,0,0,1,2.89-.93,2.46,2.46,0,0,1,2.79,2.78v3.74c0,.61.13.8.78.78l-.07.87C936.56,469.07,936,468.7,935.86,467.9Zm-.07-.79v-2.27c-2.62.29-3.62.86-3.62,1.93a1.42,1.42,0,0,0,1.6,1.36A2.63,2.63,0,0,0,935.79,467.11Z"/><path class="svgtext" d="M943.07,468.68a4.1,4.1,0,0,1-1.74.41c-1.44,0-2.14-.82-2.09-2.45l.12-4.61-1.19-.07.05-.66,1.18-.27.05-1.77h1l-.05,1.82H943l0,.93h-2.59l-.11,4.66c0,1,.34,1.46,1.13,1.46a3.85,3.85,0,0,0,1.5-.37Z"/><path class="svgtext" d="M946,458.48a.88.88,0,0,1-.18.54.71.71,0,0,1-1.06,0,.83.83,0,0,1-.19-.54.86.86,0,0,1,.19-.53.75.75,0,0,1,1.06,0A.91.91,0,0,1,946,458.48Zm-.18,10.35H944.8v-7.78l1.06-.22Z"/><path class="svgtext" d="M955.41,464.92a4.13,4.13,0,0,1-1.09,3,3.63,3.63,0,0,1-2.74,1.15,3.52,3.52,0,0,1-2.7-1.12,4.68,4.68,0,0,1,0-6,3.61,3.61,0,0,1,2.74-1.13,3.52,3.52,0,0,1,2.7,1.12A4.14,4.14,0,0,1,955.41,464.92Zm-1,0c0-1.93-1.09-3.18-2.75-3.18s-2.74,1.27-2.74,3.14,1.09,3.18,2.75,3.18S954.37,466.83,954.37,465Z"/><path class="svgtext" d="M963.55,468.83h-1v-5c0-1.36-.53-2-1.72-2a3.33,3.33,0,0,0-2.36,1.1v5.9h-1.06v-7.78l1.06-.22v1.27a3.74,3.74,0,0,1,2.65-1.27,2.34,2.34,0,0,1,2.48,2.66Z"/><path class="svgtext" d="M973.94,468.83h-1.28l-3.89-10.62h1.11l3.45,9.5,3.43-9.5h1.1Z"/><path class="svgtext" d="M980.52,458.48a.83.83,0,0,1-.19.54.64.64,0,0,1-.53.24.62.62,0,0,1-.52-.24.83.83,0,0,1-.19-.54.86.86,0,0,1,.19-.53.63.63,0,0,1,.52-.22.65.65,0,0,1,.53.22A.86.86,0,0,1,980.52,458.48Zm-.19,10.35h-1.05v-7.78l1.05-.22Z"/><path class="svgtext" d="M988.05,461.3v-3.93l1.05-.22v11.68h-1.05v-.73a3.25,3.25,0,0,1-2.26.95c-2.09,0-3.49-1.65-3.49-4a4.18,4.18,0,0,1,1.09-3,3.68,3.68,0,0,1,2.77-1.15A4.34,4.34,0,0,1,988.05,461.3Zm0,1.12a3.11,3.11,0,0,0-1.94-.59c-1.67,0-2.72,1.29-2.72,3.16s1,3.09,2.58,3.09a3,3,0,0,0,2.08-.86v-4.8Z"/><path class="svgtext" d="M992.11,465v.09c0,1.78,1.11,3,2.72,3a4.12,4.12,0,0,0,2.26-.65l.21,1a4.69,4.69,0,0,1-2.5.66,3.72,3.72,0,0,1-3.76-4,4.38,4.38,0,0,1,1.05-3,3.37,3.37,0,0,1,2.62-1.17,2.66,2.66,0,0,1,2.84,2.87,4,4,0,0,1-.17,1.24Zm.07-.83,4.32,0a2.66,2.66,0,0,0,0-.34,1.78,1.78,0,0,0-1.87-2A2.51,2.51,0,0,0,992.18,464.14Z"/><path class="svgtext" d="M1006.61,464.92a4.13,4.13,0,0,1-1.09,3,3.62,3.62,0,0,1-2.73,1.15,3.53,3.53,0,0,1-2.71-1.12,4.68,4.68,0,0,1,0-6,3.64,3.64,0,0,1,2.74-1.13,3.49,3.49,0,0,1,2.7,1.12A4.14,4.14,0,0,1,1006.61,464.92Zm-1,0c0-1.93-1.08-3.18-2.75-3.18s-2.74,1.27-2.74,3.14,1.09,3.18,2.76,3.18S1005.57,466.83,1005.57,465Z"/><rect class="e1ca2ec7-21a7-4878-b575-7277ede2f3c1" x="858.92" y="284.52" width="178" height="50" rx="9"/><path class="svgtext" d="M906.2,314.53a6.37,6.37,0,0,1-3.62,1.05,4.85,4.85,0,0,1-3.72-1.49,6.41,6.41,0,0,1,0-8.06,4.84,4.84,0,0,1,3.69-1.52,6.26,6.26,0,0,1,3.37.89l-.36,1a5.47,5.47,0,0,0-3-.88c-2.39,0-4,1.68-4,4.54s1.58,4.55,4.05,4.55a5.3,5.3,0,0,0,2.55-.64v-2.89h-3.08v-1h4.13Z"/><path class="svgtext" d="M909.55,310.36v5h-1v-7.79l1-.22V309a2.56,2.56,0,0,1,2.3-1.67,2.71,2.71,0,0,1,1.36.36l-.28,1a2.18,2.18,0,0,0-1.18-.34C910.88,308.36,910.15,309,909.55,310.36Z"/><path class="svgtext" d="M918.6,314.42h-.05a2.85,2.85,0,0,1-2.28,1.16,2.25,2.25,0,0,1-2.47-2.16q0-2.49,4.73-2.77v-.46a1.63,1.63,0,0,0-1.84-1.85,4.82,4.82,0,0,0-2.55.93l-.24-1a5.46,5.46,0,0,1,2.89-.94,2.46,2.46,0,0,1,2.79,2.79v3.74c0,.61.14.8.78.78l-.06.87C919.29,315.6,918.71,315.22,918.6,314.42Zm-.07-.78v-2.27c-2.62.28-3.62.86-3.62,1.93a1.42,1.42,0,0,0,1.59,1.36A2.67,2.67,0,0,0,918.53,313.64Z"/><path class="svgtext" d="M927.16,307.83V303.9l1.06-.22v11.68h-1.06v-.73a3.23,3.23,0,0,1-2.26.95c-2.09,0-3.48-1.65-3.48-4a4.18,4.18,0,0,1,1.09-3,3.67,3.67,0,0,1,2.77-1.16A4.34,4.34,0,0,1,927.16,307.83Zm0,1.12a3.08,3.08,0,0,0-1.93-.59c-1.67,0-2.72,1.29-2.72,3.16s1,3.09,2.58,3.09a2.94,2.94,0,0,0,2.07-.87V309Z"/><path class="svgtext" d="M930.6,307.57h1v5c0,1.3.56,2,1.69,2a3.29,3.29,0,0,0,2.39-1.11v-5.9h1.06v7.79l-1.06.22v-1.26a3.69,3.69,0,0,1-2.68,1.26,2.36,2.36,0,0,1-2.45-2.67Z"/><path class="svgtext" d="M943.37,314.42h-.06a2.81,2.81,0,0,1-2.27,1.16,2.25,2.25,0,0,1-2.47-2.16q0-2.49,4.73-2.77v-.46a1.63,1.63,0,0,0-1.84-1.85,4.82,4.82,0,0,0-2.55.93l-.24-1a5.46,5.46,0,0,1,2.89-.94,2.46,2.46,0,0,1,2.79,2.79v3.74c0,.61.14.8.78.78l-.06.87C944.06,315.6,943.48,315.22,943.37,314.42Zm-.07-.78v-2.27c-2.62.28-3.62.86-3.62,1.93a1.42,1.42,0,0,0,1.59,1.36A2.67,2.67,0,0,0,943.3,313.64Z"/><path class="svgtext" d="M946.7,315.36V303.9l1-.22v11.68Z"/><path class="svgtext" d="M962.73,310c0,3.37-2.09,5.39-5.71,5.39h-2.81V304.74h2.89a5.79,5.79,0,0,1,4.11,1.42A5,5,0,0,1,962.73,310Zm-1.09.09c0-2.71-1.68-4.32-4.61-4.32H955.3v8.62h1.77C959.89,314.36,961.64,312.89,961.64,310.06Z"/><path class="svgtext" d="M964.68,307.57h1.06v5c0,1.3.56,2,1.68,2a3.32,3.32,0,0,0,2.4-1.11v-5.9h1v7.79l-1,.22v-1.26a3.71,3.71,0,0,1-2.69,1.26,2.36,2.36,0,0,1-2.45-2.67Z"/><path class="svgtext" d="M973.32,315.36V303.9l1-.22v11.68Z"/><path class="svgtext" d="M976.82,315.36V303.9l1.06-.22v11.68Z"/><path class="svgtext" d="M981.58,305a.83.83,0,0,1-.19.54.63.63,0,0,1-.52.24.67.67,0,0,1-.53-.24.85.85,0,0,1,0-1.07.65.65,0,0,1,.53-.22.62.62,0,0,1,.52.22A.82.82,0,0,1,981.58,305Zm-.19,10.35h-1v-7.79l1-.22Z"/><path class="svgtext" d="M990.06,315.36h-1v-5c0-1.36-.53-2-1.72-2a3.33,3.33,0,0,0-2.36,1.1v5.9h-1v-7.79l1-.22v1.28a3.76,3.76,0,0,1,2.65-1.28c1.57,0,2.48.95,2.48,2.67Z"/><path class="svgtext" d="M993.06,315.38c-.7-.26-1.06-.67-1.06-1.24a1.71,1.71,0,0,1,1.28-1.48,2.59,2.59,0,0,1-1.26-2.38,2.88,2.88,0,0,1,3.06-2.93,3.78,3.78,0,0,1,1.84.46l2.15-.17,0,1.06-1.71-.17a2.75,2.75,0,0,1,.63,1.75,2.85,2.85,0,0,1-3,2.85,3.37,3.37,0,0,1-1.15-.22c-.58.24-.87.55-.87.94s.44.8,1.77.8h1c2.16,0,3.23.68,3.23,2a2.44,2.44,0,0,1-1.21,2.07,5.06,5.06,0,0,1-2.89.82c-2.09,0-3.52-.92-3.52-2.28A2.06,2.06,0,0,1,993.06,315.38Zm.91.2c-.93.26-1.58.87-1.58,1.53,0,.94,1,1.6,2.66,1.6s2.92-.78,2.92-1.84c0-.88-.75-1.24-2.36-1.24C995,315.63,994.42,315.61,994,315.58Zm-.91-5.29a1.89,1.89,0,0,0,2,2,1.78,1.78,0,0,0,1.41-.57,2,2,0,0,0,.53-1.47,2.11,2.11,0,0,0-.51-1.46,2,2,0,0,0-1.48-.56A1.89,1.89,0,0,0,993.06,310.29Z"/><rect class="e1ca2ec7-21a7-4878-b575-7277ede2f3c1" x="1053.21" y="284.52" width="178" height="50" rx="9"/><path class="svgtext" d="M1082.14,304.51a5,5,0,0,1,3.74,1.53,5.47,5.47,0,0,1,1.48,4,5.56,5.56,0,0,1-1.48,4,5.25,5.25,0,0,1-7.48,0,5.41,5.41,0,0,1-1.49-4,5.56,5.56,0,0,1,1.48-4A5,5,0,0,1,1082.14,304.51Zm4.12,5.56a4.74,4.74,0,0,0-1.16-3.31,3.89,3.89,0,0,0-3-1.28,3.8,3.8,0,0,0-2.94,1.26,5.21,5.21,0,0,0,0,6.58,3.83,3.83,0,0,0,3,1.29,3.79,3.79,0,0,0,2.94-1.27A4.67,4.67,0,0,0,1086.26,310.07Z"/><path class="svgtext" d="M1089.38,315.36V303.9l1.06-.22v11.68Z"/><path class="svgtext" d="M1098.12,307.83V303.9l1.06-.22v11.68h-1.06v-.73a3.25,3.25,0,0,1-2.26.95c-2.09,0-3.48-1.65-3.48-4a4.17,4.17,0,0,1,1.08-3,3.71,3.71,0,0,1,2.78-1.16A4.34,4.34,0,0,1,1098.12,307.83Zm0,1.12a3.09,3.09,0,0,0-1.94-.59c-1.66,0-2.72,1.29-2.72,3.16s1,3.09,2.59,3.09a2.94,2.94,0,0,0,2.07-.87V309Z"/><path class="svgtext" d="M1109.5,305.76v9.6h-1.09v-9.6h-3.74v-1h8.57v1Z"/><path class="svgtext" d="M1116.11,305a.83.83,0,0,1-.19.54.69.69,0,0,1-1.05,0,.85.85,0,0,1,0-1.07.63.63,0,0,1,.52-.22.64.64,0,0,1,.53.22A.82.82,0,0,1,1116.11,305Zm-.19,10.35h-1.05v-7.79l1.05-.22Z"/><path class="svgtext" d="M1118.4,315.36V303.9l1.06-.22v11.68Z"/><path class="svgtext" d="M1122.47,311.5v.09c0,1.78,1.1,3,2.72,3a4.14,4.14,0,0,0,2.26-.64l.2,1a4.66,4.66,0,0,1-2.5.66,3.72,3.72,0,0,1-3.75-4,4.33,4.33,0,0,1,1-3,3.33,3.33,0,0,1,2.62-1.18,2.67,2.67,0,0,1,2.84,2.88,4.42,4.42,0,0,1-.17,1.24Zm.06-.83,4.32,0a1.34,1.34,0,0,0,0-.34,1.78,1.78,0,0,0-1.87-2A2.53,2.53,0,0,0,1122.53,310.67Z"/><path class="svgtext" d="M1135,311.11v4.25h-1.09V304.74h2.85c2.57,0,3.86,1.13,3.86,3.06a3.08,3.08,0,0,1-2.46,3l2.94,4.57h-1.26l-2.72-4.39Zm0-1,1.9-.07c1.5-.05,2.63-.88,2.63-2.22s-1-2.13-2.89-2.13H1135Z"/><path class="svgtext" d="M1143.16,311.5v.09c0,1.78,1.1,3,2.72,3a4.14,4.14,0,0,0,2.26-.64l.2,1a4.66,4.66,0,0,1-2.5.66,3.72,3.72,0,0,1-3.75-4,4.33,4.33,0,0,1,1.05-3,3.33,3.33,0,0,1,2.62-1.18,2.67,2.67,0,0,1,2.84,2.88,4.42,4.42,0,0,1-.17,1.24Zm.06-.83,4.32,0a1.34,1.34,0,0,0,0-.34,1.78,1.78,0,0,0-1.87-2A2.53,2.53,0,0,0,1143.22,310.67Z"/><path class="svgtext" d="M1156.77,315.36h-1v-5c0-1.36-.53-2-1.72-2a3.33,3.33,0,0,0-2.36,1.1v5.9h-1.05v-7.79l1.05-.22v1.28a3.76,3.76,0,0,1,2.65-1.28,2.35,2.35,0,0,1,2.48,2.67Z"/><path class="svgtext" d="M1166.24,311.45a4.11,4.11,0,0,1-1.09,3,3.6,3.6,0,0,1-2.73,1.16,3.53,3.53,0,0,1-2.71-1.12,4.23,4.23,0,0,1-1-3,4.18,4.18,0,0,1,1.1-3,3.65,3.65,0,0,1,2.74-1.14,3.53,3.53,0,0,1,2.7,1.12A4.18,4.18,0,0,1,1166.24,311.45Zm-1,0c0-1.92-1.08-3.18-2.75-3.18s-2.74,1.28-2.74,3.15,1.09,3.18,2.76,3.18S1165.2,313.35,1165.2,311.48Z"/><path class="svgtext" d="M1171,315.38h-1l-3.08-7.81h1.14l2.46,6.43,2.38-6.43H1174Z"/><path class="svgtext" d="M1179.45,314.42h0a2.85,2.85,0,0,1-2.28,1.16,2.24,2.24,0,0,1-2.46-2.16c0-1.66,1.58-2.58,4.72-2.77v-.46a1.62,1.62,0,0,0-1.83-1.85,4.76,4.76,0,0,0-2.55.93l-.24-1a5.43,5.43,0,0,1,2.89-.94,2.46,2.46,0,0,1,2.79,2.79v3.74c0,.61.13.8.78.78l-.07.87C1180.15,315.6,1179.57,315.22,1179.45,314.42Zm-.07-.78v-2.27c-2.62.28-3.62.86-3.62,1.93a1.42,1.42,0,0,0,1.6,1.36A2.63,2.63,0,0,0,1179.38,313.64Z"/><path class="svgtext" d="M1186.66,315.21a4.08,4.08,0,0,1-1.74.4c-1.44,0-2.14-.81-2.09-2.44l.12-4.61-1.19-.07,0-.66,1.18-.27,0-1.77h1l0,1.82h2.6l0,.93H1184l-.12,4.66c0,1,.34,1.46,1.14,1.46a3.85,3.85,0,0,0,1.49-.37Z"/><path class="svgtext" d="M1189.63,305a.82.82,0,0,1-.18.54.71.71,0,0,1-1.06,0,.82.82,0,0,1-.18-.54.81.81,0,0,1,.18-.53.75.75,0,0,1,1.06,0A.81.81,0,0,1,1189.63,305Zm-.18,10.35h-1.06v-7.79l1.06-.22Z"/><path class="svgtext" d="M1199,311.45a4.11,4.11,0,0,1-1.09,3,3.6,3.6,0,0,1-2.74,1.16,3.52,3.52,0,0,1-2.7-1.12,4.23,4.23,0,0,1-1-3,4.18,4.18,0,0,1,1.1-3,3.62,3.62,0,0,1,2.74-1.14,3.54,3.54,0,0,1,2.7,1.12A4.18,4.18,0,0,1,1199,311.45Zm-1,0c0-1.92-1.09-3.18-2.75-3.18s-2.74,1.28-2.74,3.15,1.09,3.18,2.76,3.18S1198,313.35,1198,311.48Z"/><path class="svgtext" d="M1207.14,315.36h-1.05v-5c0-1.36-.53-2-1.72-2a3.33,3.33,0,0,0-2.36,1.1v5.9H1201v-7.79l1.06-.22v1.28a3.76,3.76,0,0,1,2.65-1.28,2.35,2.35,0,0,1,2.48,2.67Z"/><rect class="a522eb57-bd0d-4f49-be2d-402c7c5ef0dc" x="850.42" y="131.05" width="178" height="50" rx="9"/><path class="adc013c9-8282-432d-8817-edcd39dbc173" d="M920.52,161.14c1.48,0,2.52-.87,2.52-2s-.82-1.68-2.69-2.22c-.44-.14-.81-.28-1.12-.41a4.65,4.65,0,0,1-1-.53,2.27,2.27,0,0,1-.75-.85,2.61,2.61,0,0,1-.25-1.19c0-1.68,1.41-2.89,3.4-2.89a5.8,5.8,0,0,1,3.19.92l-.39.95a4.83,4.83,0,0,0-2.79-.88c-1.53,0-2.36.76-2.36,1.82s.8,1.53,2.69,2.12c.44.14.81.27,1.14.41a6.82,6.82,0,0,1,1,.56,2.32,2.32,0,0,1,.74.88,3.17,3.17,0,0,1,.23,1.23c0,1.78-1.46,3.06-3.58,3.06a6.17,6.17,0,0,1-3.42-1l.39-1A5.28,5.28,0,0,0,920.52,161.14Z"/><path class="adc013c9-8282-432d-8817-edcd39dbc173" d="M926.57,158v.08c0,1.79,1.11,3,2.72,3a4.12,4.12,0,0,0,2.26-.64l.21,1a4.61,4.61,0,0,1-2.5.67,3.73,3.73,0,0,1-3.76-4.05,4.37,4.37,0,0,1,1.06-3,3.34,3.34,0,0,1,2.61-1.17,2.66,2.66,0,0,1,2.84,2.87,4,4,0,0,1-.17,1.24Zm.07-.83,4.32,0a1.34,1.34,0,0,0,0-.34,1.79,1.79,0,0,0-1.87-2A2.52,2.52,0,0,0,926.64,157.2Z"/><path class="adc013c9-8282-432d-8817-edcd39dbc173" d="M938.13,161h0a2.83,2.83,0,0,1-2.28,1.16,2.25,2.25,0,0,1-2.46-2.16c0-1.67,1.58-2.58,4.72-2.77v-.46a1.62,1.62,0,0,0-1.83-1.85,4.68,4.68,0,0,0-2.55.93l-.24-1a5.43,5.43,0,0,1,2.89-.94,2.46,2.46,0,0,1,2.79,2.79v3.74c0,.61.13.8.78.78l-.07.87C938.83,162.13,938.25,161.75,938.13,161Zm-.07-.78v-2.28c-2.61.29-3.62.87-3.62,1.94a1.42,1.42,0,0,0,1.6,1.36A2.63,2.63,0,0,0,938.06,160.17Z"/><path class="adc013c9-8282-432d-8817-edcd39dbc173" d="M942.52,156.89v5h-1.06V154.1l1.06-.22v1.67a2.55,2.55,0,0,1,2.29-1.67,2.66,2.66,0,0,1,1.36.36l-.27,1a2.28,2.28,0,0,0-1.19-.34Q943.41,154.88,942.52,156.89Z"/><path class="adc013c9-8282-432d-8817-edcd39dbc173" d="M953.06,161.44a4.43,4.43,0,0,1-2.42.67c-2.32,0-3.8-1.63-3.8-4.1a4.12,4.12,0,0,1,1.08-3,3.6,3.6,0,0,1,2.74-1.16,4.4,4.4,0,0,1,2.43.66l-.27,1a3.75,3.75,0,0,0-2.16-.63c-1.68,0-2.74,1.24-2.74,3.11s1.09,3.14,2.76,3.14a4,4,0,0,0,2.16-.64Z"/><path class="adc013c9-8282-432d-8817-edcd39dbc173" d="M961.2,161.89h-1.05v-5c0-1.31-.56-2-1.67-2a3.38,3.38,0,0,0-2.41,1.11v5.9H955V150.43l1.06-.22v4.91a3.76,3.76,0,0,1,2.7-1.24c1.53,0,2.43,1,2.43,2.67Z"/><rect class="a522eb57-bd0d-4f49-be2d-402c7c5ef0dc" x="1054.04" y="131.05" width="178" height="50" rx="9"/><path class="adc013c9-8282-432d-8817-edcd39dbc173" d="M1100.44,151.26h6.26v1h-5.17v4h4.29v1h-4.29v4.64h-1.09Z"/><path class="adc013c9-8282-432d-8817-edcd39dbc173" d="M1109.71,151.54a.83.83,0,0,1-.19.54.69.69,0,0,1-1,0,.85.85,0,0,1,0-1.07.61.61,0,0,1,.53-.22.6.6,0,0,1,.52.22A.82.82,0,0,1,1109.71,151.54Zm-.19,10.35h-1V154.1l1-.22Z"/><path class="adc013c9-8282-432d-8817-edcd39dbc173" d="M1118.19,161.89h-1v-5c0-1.36-.53-2-1.72-2a3.34,3.34,0,0,0-2.36,1.11v5.9H1112V154.1l1.06-.22v1.28a3.76,3.76,0,0,1,2.65-1.28,2.35,2.35,0,0,1,2.48,2.67Z"/><path class="adc013c9-8282-432d-8817-edcd39dbc173" d="M1125.82,154.36v-3.93l1.06-.22v11.68h-1.06v-.73a3.23,3.23,0,0,1-2.26,1c-2.09,0-3.48-1.65-3.48-4.05a4.17,4.17,0,0,1,1.09-3,3.65,3.65,0,0,1,2.77-1.16A4.34,4.34,0,0,1,1125.82,154.36Zm0,1.12a3.09,3.09,0,0,0-1.93-.6c-1.67,0-2.72,1.29-2.72,3.17s1,3.09,2.58,3.09a2.93,2.93,0,0,0,2.07-.87v-4.79Z"/><path class="adc013c9-8282-432d-8817-edcd39dbc173" d="M1137.33,161h0a2.83,2.83,0,0,1-2.28,1.16,2.25,2.25,0,0,1-2.46-2.16c0-1.67,1.58-2.58,4.73-2.77v-.46a1.63,1.63,0,0,0-1.84-1.85,4.68,4.68,0,0,0-2.55.93l-.24-1a5.46,5.46,0,0,1,2.89-.94,2.46,2.46,0,0,1,2.79,2.79v3.74c0,.61.14.8.78.78l-.07.87C1138,162.13,1137.45,161.75,1137.33,161Zm-.06-.78v-2.28c-2.62.29-3.62.87-3.62,1.94a1.42,1.42,0,0,0,1.59,1.36A2.67,2.67,0,0,0,1137.27,160.17Z"/><path class="adc013c9-8282-432d-8817-edcd39dbc173" d="M1153.19,156.5c0,3.36-2.09,5.39-5.71,5.39h-2.8V151.26h2.89a5.79,5.79,0,0,1,4.11,1.43A5.06,5.06,0,0,1,1153.19,156.5Zm-1.08.08c0-2.7-1.69-4.31-4.61-4.31h-1.73v8.61h1.76C1150.36,160.88,1152.11,159.42,1152.11,156.58Z"/><path class="adc013c9-8282-432d-8817-edcd39dbc173" d="M1155.78,158v.08c0,1.79,1.1,3,2.72,3a4.12,4.12,0,0,0,2.26-.64l.2,1a4.56,4.56,0,0,1-2.5.67,3.72,3.72,0,0,1-3.75-4.05,4.41,4.41,0,0,1,1-3,3.37,3.37,0,0,1,2.62-1.17,2.67,2.67,0,0,1,2.84,2.87,4,4,0,0,1-.17,1.24Zm.07-.83,4.31,0a1.34,1.34,0,0,0,0-.34,1.78,1.78,0,0,0-1.87-2A2.51,2.51,0,0,0,1155.85,157.2Z"/><path class="adc013c9-8282-432d-8817-edcd39dbc173" d="M1167.34,161h0a2.85,2.85,0,0,1-2.28,1.16,2.24,2.24,0,0,1-2.46-2.16c0-1.67,1.58-2.58,4.72-2.77v-.46a1.63,1.63,0,0,0-1.84-1.85,4.68,4.68,0,0,0-2.54.93l-.24-1a5.43,5.43,0,0,1,2.89-.94,2.46,2.46,0,0,1,2.79,2.79v3.74c0,.61.13.8.78.78l-.07.87C1168,162.13,1167.46,161.75,1167.34,161Zm-.07-.78v-2.28c-2.62.29-3.62.87-3.62,1.94a1.42,1.42,0,0,0,1.6,1.36A2.63,2.63,0,0,0,1167.27,160.17Z"/><path class="adc013c9-8282-432d-8817-edcd39dbc173" d="M1170.67,161.89V150.43l1-.22v11.68Z"/><path class="adc013c9-8282-432d-8817-edcd39dbc173" d="M1174.73,158v.08c.06,1.79,1.11,3,2.72,3a4.12,4.12,0,0,0,2.26-.64l.21,1a4.61,4.61,0,0,1-2.5.67,3.73,3.73,0,0,1-3.76-4.05,4.37,4.37,0,0,1,1.06-3,3.34,3.34,0,0,1,2.62-1.17,2.66,2.66,0,0,1,2.83,2.87A4,4,0,0,1,1180,158Zm.07-.83,4.32,0a1.34,1.34,0,0,0,0-.34,1.79,1.79,0,0,0-1.87-2A2.52,2.52,0,0,0,1174.8,157.2Z"/><path class="adc013c9-8282-432d-8817-edcd39dbc173" d="M1183.22,156.89v5h-1.06V154.1l1.06-.22v1.67a2.55,2.55,0,0,1,2.29-1.67,2.69,2.69,0,0,1,1.36.36l-.27,1a2.28,2.28,0,0,0-1.19-.34Q1184.11,154.88,1183.22,156.89Z"/><rect class="e1ca2ec7-21a7-4878-b575-7277ede2f3c1" x="1257.66" y="131.05" width="178" height="50" rx="9"/><path class="a522eb57-bd0d-4f49-be2d-402c7c5ef0dc" d="M1338.18,152.61l-3.49,9.21h-1.19l-3.52-9.23-.18,9.3h-1.08l.36-10.63h1.46l3.59,9.39,3.54-9.39h1.44l.34,10.63h-1.1Z"/><path class="a522eb57-bd0d-4f49-be2d-402c7c5ef0dc" d="M1342.34,158v.08c.05,1.79,1.11,3,2.72,3a4.12,4.12,0,0,0,2.26-.64l.21,1a4.61,4.61,0,0,1-2.5.67,3.73,3.73,0,0,1-3.76-4.05,4.41,4.41,0,0,1,1-3,3.37,3.37,0,0,1,2.62-1.17,2.66,2.66,0,0,1,2.84,2.87,4,4,0,0,1-.17,1.24Zm.07-.83,4.32,0a2.66,2.66,0,0,0,0-.34,1.78,1.78,0,0,0-1.87-2A2.52,2.52,0,0,0,1342.41,157.2Z"/><path class="a522eb57-bd0d-4f49-be2d-402c7c5ef0dc" d="M1356,161.89h-1.06v-5c0-1.36-.52-2-1.71-2a3.37,3.37,0,0,0-2.37,1.11v5.9h-1V154.1l1-.22v1.28a3.78,3.78,0,0,1,2.66-1.28,2.35,2.35,0,0,1,2.48,2.67Z"/><path class="a522eb57-bd0d-4f49-be2d-402c7c5ef0dc" d="M1358.29,154.1h1v5c0,1.31.56,2,1.68,2a3.28,3.28,0,0,0,2.4-1.1v-5.9h1v7.79l-1,.22v-1.26a3.73,3.73,0,0,1-2.68,1.26,2.36,2.36,0,0,1-2.45-2.67Z"/><path class="a522eb57-bd0d-4f49-be2d-402c7c5ef0dc" d="M996.05,512.44V501.82h1.08v10.62Z"/><path class="a522eb57-bd0d-4f49-be2d-402c7c5ef0dc" d="M1003.75,501l0,.24c-.05.17-.08.32-.13.47l-.07.24a2.8,2.8,0,0,0-1.19-.32c-.87,0-1.29.61-1.29,1.82v1.29h2.45l-.05.93H1001v6.82h-1v-6.78l-1.26-.09.07-.66,1.17-.27,0-1.23c0-1.87.82-2.8,2.35-2.8A3.36,3.36,0,0,1,1003.75,501Z"/><path class="a522eb57-bd0d-4f49-be2d-402c7c5ef0dc" d="M1017,512.44h-1.11l-1.12-3H1010l-1.12,3h-1.11l4-10.62H1013Zm-4.63-9.55-2,5.52h4.07Z"/><path class="a522eb57-bd0d-4f49-be2d-402c7c5ef0dc" d="M1021.33,512.46h-1l-3.08-7.81h1.14l2.47,6.43,2.38-6.43h1.1Z"/><path class="a522eb57-bd0d-4f49-be2d-402c7c5ef0dc" d="M1029.82,511.51h-.06a2.83,2.83,0,0,1-2.27,1.15,2.25,2.25,0,0,1-2.47-2.16q0-2.49,4.73-2.77v-.46a1.63,1.63,0,0,0-1.84-1.85,4.82,4.82,0,0,0-2.55.93l-.24-1a5.46,5.46,0,0,1,2.89-.94,2.46,2.46,0,0,1,2.79,2.79V511c0,.61.14.8.78.78l-.06.87C1030.51,512.68,1029.93,512.3,1029.82,511.51Zm-.07-.79v-2.27c-2.62.28-3.62.86-3.62,1.93a1.42,1.42,0,0,0,1.6,1.36A2.66,2.66,0,0,0,1029.75,510.72Z"/><path class="a522eb57-bd0d-4f49-be2d-402c7c5ef0dc" d="M1034.41,502.09a.83.83,0,0,1-.19.54.67.67,0,0,1-.53.24.63.63,0,0,1-.52-.24.85.85,0,0,1,0-1.07.62.62,0,0,1,.52-.22.65.65,0,0,1,.53.22A.82.82,0,0,1,1034.41,502.09Zm-.19,10.35h-1v-7.79l1-.22Z"/><path class="a522eb57-bd0d-4f49-be2d-402c7c5ef0dc" d="M1036.7,512.44V501l1-.22v11.68Z"/><path class="a522eb57-bd0d-4f49-be2d-402c7c5ef0dc" d="M1044.33,511.51h0a2.85,2.85,0,0,1-2.28,1.15,2.25,2.25,0,0,1-2.46-2.16c0-1.66,1.58-2.58,4.72-2.77v-.46a1.62,1.62,0,0,0-1.83-1.85,4.76,4.76,0,0,0-2.55.93l-.24-1a5.46,5.46,0,0,1,2.89-.94,2.46,2.46,0,0,1,2.79,2.79V511c0,.61.14.8.78.78l-.07.87C1045,512.68,1044.45,512.3,1044.33,511.51Zm-.07-.79v-2.27c-2.61.28-3.61.86-3.61,1.93a1.42,1.42,0,0,0,1.59,1.36A2.63,2.63,0,0,0,1044.26,510.72Z"/><path class="a522eb57-bd0d-4f49-be2d-402c7c5ef0dc" d="M1054.47,508.45a4.33,4.33,0,0,1-1.08,3,3.56,3.56,0,0,1-2.77,1.19,4.49,4.49,0,0,1-1.9-.42l-1,.45V501l1-.22v4.71a3.34,3.34,0,0,1,2.35-1C1053.12,504.48,1054.47,506.1,1054.47,508.45Zm-1.09.05c0-1.81-1-3.05-2.52-3.05a3.07,3.07,0,0,0-2.14.87v4.78a3.07,3.07,0,0,0,2,.61C1052.34,511.71,1053.38,510.42,1053.38,508.5Z"/><path class="a522eb57-bd0d-4f49-be2d-402c7c5ef0dc" d="M1056.35,512.44V501l1.06-.22v11.68Z"/><path class="a522eb57-bd0d-4f49-be2d-402c7c5ef0dc" d="M1060.42,508.58v.09c0,1.78,1.1,3,2.72,3a4.14,4.14,0,0,0,2.26-.64l.2,1a4.66,4.66,0,0,1-2.5.66,3.72,3.72,0,0,1-3.76-4,4.34,4.34,0,0,1,1.06-3,3.32,3.32,0,0,1,2.62-1.18,2.66,2.66,0,0,1,2.83,2.88,4.09,4.09,0,0,1-.17,1.24Zm.06-.83,4.32,0a1.34,1.34,0,0,0,0-.34,1.78,1.78,0,0,0-1.87-2A2.52,2.52,0,0,0,1060.48,507.75Z"/><rect class="a522eb57-bd0d-4f49-be2d-402c7c5ef0dc" x="664.63" y="544.38" width="178" height="50" rx="9"/><path class="adc013c9-8282-432d-8817-edcd39dbc173" d="M713.68,575.22h-1.27l-3.9-10.63h1.11l3.45,9.51,3.43-9.51h1.11Z"/><path class="adc013c9-8282-432d-8817-edcd39dbc173" d="M720.26,564.87a.83.83,0,0,1-.19.54.65.65,0,0,1-.52.24.67.67,0,0,1-.53-.24.85.85,0,0,1,0-1.07.65.65,0,0,1,.53-.22.63.63,0,0,1,.52.22A.82.82,0,0,1,720.26,564.87Zm-.19,10.35H719v-7.79l1.05-.22Z"/><path class="adc013c9-8282-432d-8817-edcd39dbc173" d="M723.12,571.36v.09c0,1.78,1.1,3,2.72,3a4.14,4.14,0,0,0,2.26-.64l.2,1a4.66,4.66,0,0,1-2.5.66,3.72,3.72,0,0,1-3.75-4.05,4.32,4.32,0,0,1,1.05-3,3.33,3.33,0,0,1,2.62-1.18,2.67,2.67,0,0,1,2.84,2.88,4.42,4.42,0,0,1-.17,1.24Zm.06-.83,4.32,0a1.34,1.34,0,0,0,0-.34,1.78,1.78,0,0,0-1.87-2A2.53,2.53,0,0,0,723.18,570.53Z"/><path class="adc013c9-8282-432d-8817-edcd39dbc173" d="M732.13,575.25l-2.38-7.82h1.12l1.8,6.21,2-6.19h.95l2.13,6.22,1.61-6.24h1.16l-2.31,7.82h-.94L735.17,569,733,575.25Z"/><path class="adc013c9-8282-432d-8817-edcd39dbc173" d="M752.8,567.91c0,2.29-1.58,3.5-4.29,3.55l-1.44,0v3.74H746V564.59h2.67C751.39,564.59,752.8,565.89,752.8,567.91Zm-1.12.05c0-1.53-1.08-2.36-3.06-2.36h-1.55v4.88l1.51,0C750.64,570.41,751.68,569.58,751.68,568Z"/><path class="adc013c9-8282-432d-8817-edcd39dbc173" d="M755.72,570.22v5h-1.05v-7.79l1.05-.22v1.67a2.56,2.56,0,0,1,2.3-1.67,2.71,2.71,0,0,1,1.36.36l-.28,1a2.18,2.18,0,0,0-1.18-.34C757.05,568.22,756.32,568.88,755.72,570.22Z"/><path class="adc013c9-8282-432d-8817-edcd39dbc173" d="M767.62,571.31a4.11,4.11,0,0,1-1.09,3,3.6,3.6,0,0,1-2.73,1.16,3.53,3.53,0,0,1-2.71-1.12,4.23,4.23,0,0,1-1.05-3,4.18,4.18,0,0,1,1.1-3,3.65,3.65,0,0,1,2.74-1.14,3.53,3.53,0,0,1,2.7,1.12A4.18,4.18,0,0,1,767.62,571.31Zm-1,0c0-1.92-1.08-3.18-2.75-3.18s-2.74,1.28-2.74,3.15,1.09,3.18,2.76,3.18S766.58,573.21,766.58,571.34Z"/><path class="adc013c9-8282-432d-8817-edcd39dbc173" d="M774.81,567.69v-3.93l1.06-.22v11.68h-1.06v-.73a3.25,3.25,0,0,1-2.26,1c-2.09,0-3.48-1.65-3.48-4.05a4.16,4.16,0,0,1,1.08-3,3.67,3.67,0,0,1,2.77-1.16A4.35,4.35,0,0,1,774.81,567.69Zm0,1.12a3.09,3.09,0,0,0-1.94-.59c-1.66,0-2.72,1.29-2.72,3.16s1,3.09,2.59,3.09a2.94,2.94,0,0,0,2.07-.87v-4.79Z"/><path class="adc013c9-8282-432d-8817-edcd39dbc173" d="M778.25,567.43h1v5c0,1.3.56,2,1.68,2a3.29,3.29,0,0,0,2.4-1.11v-5.9h1v7.79l-1,.22v-1.26a3.75,3.75,0,0,1-2.69,1.26,2.35,2.35,0,0,1-2.44-2.67Z"/><path class="adc013c9-8282-432d-8817-edcd39dbc173" d="M792.59,574.78a4.47,4.47,0,0,1-2.41.66c-2.33,0-3.81-1.63-3.81-4.1a4.14,4.14,0,0,1,1.09-3,3.57,3.57,0,0,1,2.74-1.16,4.37,4.37,0,0,1,2.43.67l-.27,1a3.75,3.75,0,0,0-2.16-.63c-1.69,0-2.74,1.24-2.74,3.11s1.09,3.14,2.75,3.14a3.93,3.93,0,0,0,2.16-.64Z"/><path class="adc013c9-8282-432d-8817-edcd39dbc173" d="M798.43,575.07a4.08,4.08,0,0,1-1.74.4c-1.44,0-2.14-.81-2.09-2.44l.12-4.61-1.19-.07.05-.66,1.17-.27,0-1.77h1l0,1.82h2.6l-.05.93h-2.59l-.12,4.66c0,1,.34,1.46,1.14,1.46a3.85,3.85,0,0,0,1.5-.37Z"/><path class="e641d953-d958-4b45-aedb-1ff1f27e65b5" d="M37.48,210.71H1472.94"/><polyline class="e641d953-d958-4b45-aedb-1ff1f27e65b5" points="338.55 181.05 338.55 224.85 755.21 224.85 755.21 237.6"/><path class="a522eb57-bd0d-4f49-be2d-402c7c5ef0dc" d="M751.45,237.42a3.76,3.76,0,1,0,3.76-3.76A3.76,3.76,0,0,0,751.45,237.42Z"/><line class="e641d953-d958-4b45-aedb-1ff1f27e65b5" x1="753.63" y1="377.47" x2="753.63" y2="403.8"/><path class="a522eb57-bd0d-4f49-be2d-402c7c5ef0dc" d="M749.87,403.61a3.76,3.76,0,1,0,3.76-3.76A3.76,3.76,0,0,0,749.87,403.61Z"/><line class="e641d953-d958-4b45-aedb-1ff1f27e65b5" x1="753.63" y1="487.99" x2="753.63" y2="531.92"/><polygon class="a522eb57-bd0d-4f49-be2d-402c7c5ef0dc" points="753.63 538.98 749.57 529.03 753.63 531.39 757.7 529.03 753.63 538.98"/></g></g></svg>
