<?xml version="1.0" encoding="utf-8"?>
<!-- Generator: Adobe Illustrator 25.4.1, SVG Export Plug-In . SVG Version: 6.00 Build 0)  -->
<svg version="1.1" id="Layer_1" xmlns="http://www.w3.org/2000/svg" xmlns:xlink="http://www.w3.org/1999/xlink" x="0px" y="0px"
	 viewBox="0 0 192 192" style="enable-background:new 0 0 192 192;" xml:space="preserve">
<style type="text/css">
	.st0{fill:none;}
	.st1{fill:none;stroke:#799400;stroke-width:12;stroke-linecap:round;stroke-linejoin:round;stroke-miterlimit:3;}
</style>
<rect class="st0" width="192" height="192"/>
<path class="st1" d="M111,61v92.8c0,2,1,3.9,2.7,5l8.2,5.5c2.8,1.8,6.5,1.1,8.3-1.7c0.4-0.6,0.7-1.2,0.8-1.9L141,121"/>
<path class="st1" d="M141,121c16.6,0,30-13.4,30-30s-13.4-30-30-30h-30c0,0-40.8,0-80.1-33c-2.5-2.1-6.3-1.8-8.5,0.7
	c-0.9,1.1-1.4,2.4-1.4,3.9v116.7c0,3.3,2.7,6,6,6c1.4,0,2.8-0.5,3.9-1.4c39.3-33,80.1-33,80.1-33H141z"/>
</svg>
