<?xml version="1.0" encoding="utf-8"?>
<!-- Generator: Adobe Illustrator 25.4.1, SVG Export Plug-In . SVG Version: 6.00 Build 0)  -->
<svg version="1.1" id="Layer_1" xmlns="http://www.w3.org/2000/svg" xmlns:xlink="http://www.w3.org/1999/xlink" x="0px" y="0px"
	 viewBox="0 0 600.2 176.6" style="enable-background:new 0 0 600.2 176.6;" xml:space="preserve">
<style type="text/css">
	.st1{fill:#FCF22C;}
</style>
<rect x="5.8" y="172.5" class="svgtext" width="594.4" height="4.1"/>
<polygon class="svgtext" points="417.8,137.4 409.9,137.4 409.9,132.7 430.3,132.7 430.3,137.4 422.8,137.4 422.8,162 417.8,162 "/>
<rect x="428.8" y="147" class="svgtext" width="10.3" height="4.8"/>
<path class="svgtext" d="M454.5,147h18.1v0.6c0,8.4-6.8,15-14.4,15c-8.4,0.1-15.2-6.7-15.3-15.1c-0.1-8.4,6.7-15.2,15.1-15.3
	c5.9,0.1,11.1,3.7,13.2,9.2h-6c-1.5-2.6-4.3-4.2-7.3-4.2c-6.5,0-9.7,5.7-9.7,10.2s3.1,10.1,9.9,10.1c3.6,0,6.7-2.3,8-5.6h-11.7V147
	H454.5z"/>
<path class="svgtext" d="M513.1,137.4h3.4c3.2,0,4.2,1.4,4.2,3.3c0,3.1-3.3,3.1-4.6,3.1h-3L513.1,137.4L513.1,137.4z M508.2,162h8.6
	c2,0,5.2-0.2,7.3-1.9c2.2-1.6,3.5-4.2,3.4-6.9c0-5-2.9-6.6-4.7-7.3c0.9-0.5,3-1.9,3-5.6c0-2-0.8-4-2.3-5.4c-2.3-2.2-5.5-2.2-8.8-2.2
	h-6.6V162H508.2z M513.1,148.5h4.1c4.6,0,4.8,3.4,4.8,4.6c0,2.9-2.7,3.8-4.9,3.8h-4L513.1,148.5L513.1,148.5z"/>
<rect x="556.5" y="132.7" class="svgtext" width="5.3" height="29.3"/>
<path class="svgtext" d="M490,157.4c-5.6,0-10.1-4.5-10.1-10.1c0-5.6,4.5-10.2,10.1-10.2c5.6,0,10.2,4.5,10.4,10.1
	c0,5.6-4.6,10.2-10.2,10.2C490.1,157.4,490.1,157.4,490,157.4 M490,132.2c-8.4,0.1-15.2,6.9-15.1,15.3c0.1,8.4,6.9,15.2,15.3,15.1
	c8.4-0.1,15.2-6.9,15.1-15.3c0.1-8.3-6.6-15-14.9-15.1C490.3,132.2,490.1,132.2,490,132.2"/>
<path class="svgtext" d="M540.8,140.2L540.8,140.2l-3.9,9.5h7.5L540.8,140.2z M527.1,162l11.6-29.3h4l11.4,29.3h-5.3l-2.7-7.5h-11
	l-2.8,7.5H527.1z"/>
<polygon class="svgtext" points="566.8,132.7 571.9,132.7 584.1,151.9 584.1,132.7 589.1,132.7 589.1,162 584.4,162 571.8,141.8
	571.8,162 566.8,162 "/>
<path class="svgtext" d="M331.7,153.6c0.2,2.9,3.2,3.8,4.8,3.8c2,0,4.2-1.4,4.2-3.6c0-2.9-2.3-3.9-5.7-5.3c-2.5-0.9-7.3-2-7.3-8
	c0-4.8,3.9-8.4,8.9-8.4c4.7,0,8.4,3.7,8.5,8.4h-5c0-1.9-1.6-3.5-3.5-3.5c-0.1,0-0.1,0-0.2,0c-1.6,0-3.7,1.2-3.7,2.9
	c0,2.7,2.6,3.4,5.4,4.4c2.3,0.8,7.7,2.4,7.7,8.8c0.1,5.1-4,9.3-9.2,9.4c-0.1,0-0.1,0-0.2,0c-3.9,0-9.5-2.7-9.8-9h5.1V153.6z"/>
<rect x="374.9" y="132.7" class="svgtext" width="5.1" height="29.3"/>
<path class="svgtext" d="M359,140.2L359,140.2l-3.7,9.5h7.3L359,140.2z M345.2,162l11.7-29.3h3.9l11.4,29.3h-5.3l-2.8-7.5h-10.8
	l-2.8,7.5H345.2z"/>
<polygon class="svgtext" points="385,132.7 390.1,132.7 402.3,151.9 402.3,132.7 407.3,132.7 407.3,162 402.5,162 390,141.8 390,162
	385,162 "/>
<polygon class="svgtext" points="130.8,118.2 130.9,118.3 130.9,118.2 "/>
<path class="svgtext" d="M64.4,118.9l0.2-0.4h66.3L89.4,7.3l31.9,21.4V0.2H5.8v57.6l0,0C19.4,47,38.4,45.9,53.1,55.2l0,0
	c0.1,0.1,0.1,0.1,0.2,0.1c11.5,7.6,18.5,20.4,18.6,34.2c0,10.9-4.3,21.3-12.1,28.9l0,0c-5.6,5.5-12.7,9.3-20.4,10.9h-0.1l-1.9,0.3
	c-0.2,0-0.3,0-0.5,0.1c-0.5,0.1-1,0.1-1.6,0.2c-0.3,0-0.7,0.1-1,0.1s-0.7,0.1-1.1,0.1c-0.7,0-1.4,0.1-2.1,0.1
	c-1.1,0-2.2-0.1-3.4-0.1c-0.4,0-0.7-0.1-1.1-0.1l-2.2-0.3c-0.4-0.1-0.8-0.2-1.2-0.2c-0.7-0.1-1.3-0.3-2-0.4l-1.2-0.3
	c-0.6-0.2-1.3-0.4-1.9-0.6c-0.4-0.1-0.8-0.3-1.2-0.4c-0.6-0.2-1.2-0.5-1.8-0.7c-0.4-0.2-0.8-0.3-1.2-0.5c-0.6-0.3-1.1-0.5-1.7-0.8
	c-0.4-0.2-0.7-0.4-1.1-0.6c-0.6-0.3-1.1-0.6-1.6-1c-0.4-0.2-0.7-0.5-1.1-0.7c-0.8-0.5-1.6-1.1-2.3-1.7c-3.9,1.1-6.1,3.6-6.1,5
	c0,0.7,0.5,1.4,1.5,2.1c4.3,3.6,18.9,6.8,36.9,7.2h4.8c23.9,0,42.9-4.1,42.9-9.4c0-1-0.9-2-2.5-2.9c-3.8-2.3-11.6-4.1-19.8-4.6h0.6
	L64.4,118.9z"/>
<path class="st1" d="M75.4,91.4c0.1-15.5-8.2-29.9-21.6-37.6l23-30.4L88.3,8c1.9,6.9,36,106.4,36,106.4l-56,0.6
	C73.1,108.3,75.4,100.2,75.4,91.4"/>
<polygon class="svgtext" points="197.9,118.5 181.8,68.9 165.9,118.5 145.6,118.5 114.1,34 140,34 156.3,84.2 172.6,34 191.1,34
	207,84.2 223.7,34 249.6,34 218.2,118.5 "/>
<path class="svgtext" d="M331.6,84.2h-62.9c2.9,10.5,11,16.5,22,16.5c8.2,0,14.2-2.2,17-6.9h23.4c-3.1,17.5-19.6,26.8-39.6,26.8
	c-27.4,0-46.8-17.8-46.8-45.1c0-25.7,19-43.6,43.4-43.6C316.9,31.9,334,52.5,331.6,84.2 M308.6,66.9c-1-9.6-7.7-17.5-19.7-17.5
	c-10.8,0-18.5,6.2-20.9,17.5H308.6z"/>
<path class="svgtext" d="M362.7,38.6c26.8-15.4,67.1-3.8,67.1,37.7c0,25.2-17.3,44.2-44.9,44.2s-44.8-18.3-44.8-43.6V0h22.6L362.7,38.6
	L362.7,38.6z M362.7,77.9c0,13.6,8.4,22,22.1,22s22.1-10.1,22.1-23.5c0-24.7-28-29.8-44.2-15.3V77.9z"/>
<path class="svgtext" d="M524,84.2h-62.9c2.9,10.5,11,16.5,22,16.5c8.2,0,14.2-2.2,17-6.9h23.5c-3.1,17.5-19.6,26.8-39.6,26.8
	c-27.4,0-46.8-17.8-46.8-45.1c0-25.7,19-43.6,43.4-43.6C509.2,31.9,526.4,52.5,524,84.2 M501,66.9c-1-9.6-7.7-17.5-19.7-17.5
	c-10.8,0-18.5,6.2-20.9,17.5H501z"/>
<path class="svgtext" d="M589.1,54.5c-11.1,0-24.2,2.1-33.4,7.6v56.4h-22.5V47.3c16.9-10.2,36.2-15.5,55.9-15.4L589.1,54.5z"/>
</svg>
