<svg xmlns="http://www.w3.org/2000/svg" viewBox="0 0 742.79 107.86">
  <defs>
    <style>
      .cls-1 {
        fill: none;
        stroke: #111115;
        stroke-miterlimit: 10;
        stroke-width: 2px;
      }

      .cls-2, .cls-4 {
        fill: #111115;
      }

      .cls-3 {
        fill: #b9d053;
      }

      .cls-4 {
        fill-opacity: 0.7;
      }
    </style>
  </defs>
  <g id="Layer_2" data-name="Layer 2">
    <g id="Layer_1-2" data-name="Layer 1">
      <circle class="cls-1" cx="548" cy="39.5" r="38.5"/>
      <path class="cls-1" d="M539.35,24.74l25,14.46-25,14.47Z"/>
      <path class="cls-1" d="M432,13.5H280a26,26,0,0,0,0,52H432a26,26,0,0,0,0-52Z"/>
      <path class="cls-2" d="M312.28,44.36h4V45.5h-5.45V34.22h1.45Zm6.94-9v3.86h4.29v1.12h-4.29v3.94H324V45.5h-6.23V34.22H324V35.4Zm13.24,7.49h-5l-.94,2.61H325l4.18-11.07h1.65L335,45.5h-1.57Zm-.41-1.13L330,36.06l-2.06,5.7Zm10.38,3.74-2.94-4.61h-1.58V45.5h-1.46V34.22h3.71a4,4,0,0,1,2.88.93,3.2,3.2,0,0,1,1,2.43,3.13,3.13,0,0,1-.77,2.22,3.52,3.52,0,0,1-2.22,1l3.07,4.66Zm-4.52-5.66H340c1.66,0,2.48-.73,2.48-2.18s-.82-2.18-2.48-2.18h-2.12Zm16.64,5.66h-1.46l-5.86-8.91V45.5h-1.45V34.22h1.45l5.86,8.93V34.22h1.46Zm17.59-11.09V45.5h-1.46V36.65l-3.53,8.85h-1.3l-3.55-8.82V45.5h-1.46V34.41h1.75l3.93,9.31,3.87-9.31Zm7.49-.33a5.44,5.44,0,0,1,2.82.73,5.2,5.2,0,0,1,2,2.07,6,6,0,0,1,.72,3,6.15,6.15,0,0,1-.72,3,5.21,5.21,0,0,1-2,2,5.44,5.44,0,0,1-2.82.74,5.6,5.6,0,0,1-2.84-.74,5.17,5.17,0,0,1-2-2,6.15,6.15,0,0,1-.72-3,6,6,0,0,1,.72-3,5.15,5.15,0,0,1,2-2.07A5.59,5.59,0,0,1,379.63,34.08Zm0,1.36a4.09,4.09,0,0,0-2.09.54,3.64,3.64,0,0,0-1.44,1.54,5,5,0,0,0-.51,2.33,5.11,5.11,0,0,0,.51,2.34,3.79,3.79,0,0,0,1.44,1.55,4.19,4.19,0,0,0,2.09.53,3.91,3.91,0,0,0,2.07-.55,3.67,3.67,0,0,0,1.44-1.53,5,5,0,0,0,.53-2.34,4.92,4.92,0,0,0-.53-2.33A3.53,3.53,0,0,0,381.7,36,4,4,0,0,0,379.63,35.44ZM393.11,45.5l-2.95-4.61h-1.58V45.5h-1.46V34.22h3.71a4,4,0,0,1,2.88.93,3.2,3.2,0,0,1,1,2.43,3.17,3.17,0,0,1-.76,2.22,3.57,3.57,0,0,1-2.23,1l3.07,4.66Zm-4.53-5.66h2.13c1.65,0,2.48-.73,2.48-2.18s-.83-2.18-2.48-2.18h-2.13Zm9.33-4.44v3.86h4.28v1.12h-4.28v3.94h4.76V45.5h-6.22V34.22h6.22V35.4Z"/>
      <path class="cls-3" d="M178,13.5H26a26,26,0,0,0,0,52H178a26,26,0,0,0,0-52Z"/>
      <path d="M41.19,34.22l3.44,9.66,3.49-9.66h1.59L45.56,45.5H43.72L39.59,34.22Zm11.44,0V45.5H51.18V34.22Zm3.8,1.18v3.86h4.29v1.12H56.43v3.94H61.2V45.5H55V34.22H61.2V35.4Zm20.51-1.18L74.07,45.5H72.3l-2.61-9.22L67.08,45.5H65.31L62.43,34.22H64L66.2,43.8l2.67-9.58h1.62l2.67,9.55,2.18-9.55Zm12.79,8.35a2.87,2.87,0,0,1-1.55,2.61,3.93,3.93,0,0,1-1.93.43,4.7,4.7,0,0,1-2-.4,3.8,3.8,0,0,1-1.4-1.12,3.31,3.31,0,0,1-.59-1.63h1.55a2.44,2.44,0,0,0,.32.94,2.54,2.54,0,0,0,.8.76,2.67,2.67,0,0,0,1.27.28,2,2,0,0,0,1.47-.51,1.78,1.78,0,0,0,.51-1.31,1.65,1.65,0,0,0-.37-1.12,2.27,2.27,0,0,0-.88-.67,12.06,12.06,0,0,0-1.44-.55,15.71,15.71,0,0,1-1.72-.65,3.14,3.14,0,0,1-1.11-1A2.72,2.72,0,0,1,82.21,37a2.71,2.71,0,0,1,1.64-2.6,4.49,4.49,0,0,1,1.87-.36,4,4,0,0,1,2.64.81,3.05,3.05,0,0,1,1.13,2H87.93a2.13,2.13,0,0,0-2.21-1.7,2.05,2.05,0,0,0-1.41.47A1.59,1.59,0,0,0,83.78,37a1.62,1.62,0,0,0,.34,1.07,2.52,2.52,0,0,0,.86.64,14.51,14.51,0,0,0,1.41.51,14.34,14.34,0,0,1,1.74.67,3,3,0,0,1,1.14,1,2.86,2.86,0,0,1,.46,1.71Zm7.13-8.49a5.49,5.49,0,0,1,2.82.73,5.2,5.2,0,0,1,2,2.07,6,6,0,0,1,.72,3,6.15,6.15,0,0,1-.72,3,5.21,5.21,0,0,1-2,2,5.5,5.5,0,0,1-2.82.74A5.61,5.61,0,0,1,94,44.89a5.21,5.21,0,0,1-2-2,6.15,6.15,0,0,1-.72-3,6,6,0,0,1,.72-3,5.2,5.2,0,0,1,2-2.07A5.6,5.6,0,0,1,96.86,34.08Zm0,1.36a4.1,4.1,0,0,0-2.1.54,3.77,3.77,0,0,0-1.44,1.54,5,5,0,0,0-.51,2.33,5.11,5.11,0,0,0,.51,2.34,3.93,3.93,0,0,0,1.44,1.55,4.2,4.2,0,0,0,2.1.53,3.85,3.85,0,0,0,2.06-.55,3.67,3.67,0,0,0,1.44-1.53,4.87,4.87,0,0,0,.53-2.34,4.8,4.8,0,0,0-.53-2.33A3.53,3.53,0,0,0,98.92,36,3.93,3.93,0,0,0,96.86,35.44Zm8.94,8.92h4V45.5h-5.45V34.22h1.45Zm6.86-10.14V41a3.53,3.53,0,0,0,.74,2.46,2.67,2.67,0,0,0,2,.79,2.57,2.57,0,0,0,2-.8,3.58,3.58,0,0,0,.72-2.45V34.22h1.46V41a4.75,4.75,0,0,1-1.16,3.47,4.06,4.06,0,0,1-3,1.15,4.13,4.13,0,0,1-3.06-1.15A4.79,4.79,0,0,1,111.21,41V34.22Zm16.12,0V35.4h-3.19V45.5h-1.45V35.4H121V34.22Zm2.9,0V45.5h-1.46V34.22Zm7.51-.14a5.43,5.43,0,0,1,2.81.73,5.15,5.15,0,0,1,2,2.07,6,6,0,0,1,.72,3,6.15,6.15,0,0,1-.72,3,5.17,5.17,0,0,1-2,2,5.43,5.43,0,0,1-2.81.74,5.61,5.61,0,0,1-2.85-.74,5.21,5.21,0,0,1-2-2,6.15,6.15,0,0,1-.72-3,6,6,0,0,1,.72-3,5.2,5.2,0,0,1,2-2.07A5.6,5.6,0,0,1,139.19,34.08Zm0,1.36a4.1,4.1,0,0,0-2.1.54,3.64,3.64,0,0,0-1.44,1.54,5,5,0,0,0-.51,2.33,5.11,5.11,0,0,0,.51,2.34,3.79,3.79,0,0,0,1.44,1.55,4.2,4.2,0,0,0,2.1.53,3.87,3.87,0,0,0,2.06-.55,3.67,3.67,0,0,0,1.44-1.53,5,5,0,0,0,.53-2.34,4.92,4.92,0,0,0-.53-2.33A3.53,3.53,0,0,0,141.25,36,4,4,0,0,0,139.19,35.44ZM155.44,45.5H154l-5.86-8.91V45.5h-1.45V34.22h1.45L154,43.15V34.22h1.45Zm9.48-2.93a3.06,3.06,0,0,1-.38,1.49,2.94,2.94,0,0,1-1.17,1.12,4,4,0,0,1-1.94.43,4.76,4.76,0,0,1-2-.4A3.77,3.77,0,0,1,158,44.09a3.22,3.22,0,0,1-.59-1.63H159a2.29,2.29,0,0,0,.32.94,2.44,2.44,0,0,0,.8.76,2.65,2.65,0,0,0,1.27.28,2,2,0,0,0,1.47-.51,1.78,1.78,0,0,0,.51-1.31A1.65,1.65,0,0,0,163,41.5a2.35,2.35,0,0,0-.88-.67,12.06,12.06,0,0,0-1.44-.55,16.84,16.84,0,0,1-1.73-.65,3.19,3.19,0,0,1-1.1-1A2.72,2.72,0,0,1,157.4,37a2.89,2.89,0,0,1,.42-1.56,2.94,2.94,0,0,1,1.21-1,4.57,4.57,0,0,1,1.88-.36,4,4,0,0,1,2.64.81,3.05,3.05,0,0,1,1.13,2h-1.57a2.08,2.08,0,0,0-.68-1.18,2.14,2.14,0,0,0-1.52-.52,2.05,2.05,0,0,0-1.41.47A1.59,1.59,0,0,0,159,37a1.62,1.62,0,0,0,.34,1.07,2.52,2.52,0,0,0,.86.64,14.51,14.51,0,0,0,1.41.51,15.78,15.78,0,0,1,1.74.67,3,3,0,0,1,1.14,1,2.86,2.86,0,0,1,.46,1.71Z"/>
      <path class="cls-4" d="M660.4,17.5a22.43,22.43,0,1,0,15.82,6.57A22.44,22.44,0,0,0,660.4,17.5Zm0,42.92a20.55,20.55,0,1,1,14.5-6A20.52,20.52,0,0,1,660.4,60.42Z"/>
      <path class="cls-4" d="M672.53,39h-22l6.8-6.8a1,1,0,0,0,.26-.66.88.88,0,0,0-.28-.64.92.92,0,0,0-.64-.28,1,1,0,0,0-.66.26l-8.4,8.4a.94.94,0,0,0-.27.66,1,1,0,0,0,.27.66L656,49a1,1,0,0,0,.66.27.94.94,0,0,0,.66-.27.92.92,0,0,0,.28-.66.91.91,0,0,0-.28-.66l-6.8-6.81h22a1,1,0,0,0,.66-.27.94.94,0,0,0,0-1.32,1,1,0,0,0-.66-.27Z"/>
      <path class="cls-2" d="M720.4,17.5a22.43,22.43,0,1,1-15.83,6.57A22.41,22.41,0,0,1,720.4,17.5Zm0,42.92a20.55,20.55,0,1,0-14.51-6A20.49,20.49,0,0,0,720.4,60.42Z"/>
      <path class="cls-2" d="M708.27,39h22l-6.8-6.8a1,1,0,0,1-.26-.66,1,1,0,0,1,.92-.92,1,1,0,0,1,.66.26l8.4,8.4a.94.94,0,0,1,.27.66,1,1,0,0,1-.27.66l-8.4,8.4a1.1,1.1,0,0,1-.31.2.84.84,0,0,1-.35.07.89.89,0,0,1-.36-.07,1,1,0,0,1-.3-.2.79.79,0,0,1-.2-.31.85.85,0,0,1-.08-.35.9.9,0,0,1,.08-.36.75.75,0,0,1,.2-.3l6.8-6.81h-22a.94.94,0,0,1-.66-.27.92.92,0,0,1,0-1.32.94.94,0,0,1,.66-.27Z"/>
      <path class="cls-2" d="M52.35,104.5V93.85h4.41a2.66,2.66,0,0,1,1.26.3,3.15,3.15,0,0,1,1,.77A3.19,3.19,0,0,1,59.67,96a3.26,3.26,0,0,1,.24,1.21,3.91,3.91,0,0,1-.22,1.28,3.37,3.37,0,0,1-.62,1.07,3.24,3.24,0,0,1-1,.75,2.7,2.7,0,0,1-1.25.28H53.39v3.93Zm1-4.86h3.41a1.8,1.8,0,0,0,.84-.2,2,2,0,0,0,.66-.54,2.54,2.54,0,0,0,.42-.78,2.92,2.92,0,0,0,.15-.93,2.44,2.44,0,0,0-.18-.93,2.31,2.31,0,0,0-.47-.77,2,2,0,0,0-.69-.52,1.93,1.93,0,0,0-.82-.19H53.38Zm11.93-2.06a3.21,3.21,0,0,0-1.8.57,2.89,2.89,0,0,0-1.08,1.49v4.86h-1V96.68h1v1.88a4.16,4.16,0,0,1,1.07-1.37,2.15,2.15,0,0,1,1.42-.55h.45Zm1.36,6.92V96.68h1v7.82Zm0-9.45v-1.5h1v1.5ZM81.5,104.5h-1v-4.36a3.7,3.7,0,0,0-.43-2,1.43,1.43,0,0,0-1.29-.64,2.27,2.27,0,0,0-.86.17,2.71,2.71,0,0,0-.73.46,3.25,3.25,0,0,0-.59.72,3.31,3.31,0,0,0-.39.9v4.77h-1v-4.36a3.77,3.77,0,0,0-.42-2,1.44,1.44,0,0,0-1.29-.63,2.29,2.29,0,0,0-1.57.62,3.33,3.33,0,0,0-1,1.62v4.78h-1V96.68h.93v1.77a3.62,3.62,0,0,1,1.26-1.39,3.07,3.07,0,0,1,1.72-.51,2.25,2.25,0,0,1,1.59.55,2.34,2.34,0,0,1,.72,1.46,3.35,3.35,0,0,1,3-2,2.32,2.32,0,0,1,1.1.24,1.8,1.8,0,0,1,.73.69,2.9,2.9,0,0,1,.41,1.06,6.6,6.6,0,0,1,.13,1.38Zm4.19.15a3.21,3.21,0,0,1-1.1-.18,2.55,2.55,0,0,1-.85-.53,2.4,2.4,0,0,1-.54-.76,2.24,2.24,0,0,1-.2-.92,2,2,0,0,1,.24-1,2.24,2.24,0,0,1,.68-.76,3.17,3.17,0,0,1,1-.49,4.79,4.79,0,0,1,1.35-.18,7.14,7.14,0,0,1,1.2.11,5.32,5.32,0,0,1,1.1.3v-.7a2.22,2.22,0,0,0-.6-1.64,2.09,2.09,0,0,0-1.59-.61,3.52,3.52,0,0,0-1.26.24,5.65,5.65,0,0,0-1.26.69l-.36-.68A6.31,6.31,0,0,1,85,96.81a4.46,4.46,0,0,1,1.5-.26,3.11,3.11,0,0,1,2.27.83,3,3,0,0,1,.84,2.27v3.53q0,.42.36.42v.9h-.23a.62.62,0,0,1-.18,0,.93.93,0,0,1-.55-.18.71.71,0,0,1-.27-.54l0-.62a3.56,3.56,0,0,1-1.35,1.09A4,4,0,0,1,85.69,104.65Zm.25-.78a3.21,3.21,0,0,0,1.34-.29,2.64,2.64,0,0,0,1.06-.8,1.75,1.75,0,0,0,.18-.29.75.75,0,0,0,.08-.3v-1.28a6.26,6.26,0,0,0-1.07-.3,5.79,5.79,0,0,0-1.08-.1,3.2,3.2,0,0,0-1.78.45,1.37,1.37,0,0,0-.68,1.21,1.67,1.67,0,0,0,.12.62,1.6,1.6,0,0,0,.36.54,2,2,0,0,0,.62.39,2.19,2.19,0,0,0,.85.15Zm9.8-6.28a3.21,3.21,0,0,0-1.8.57,2.86,2.86,0,0,0-1.08,1.48v4.86h-1V96.69h1v1.87a4,4,0,0,1,1.06-1.36,2.19,2.19,0,0,1,1.43-.56h.25l.2,0Zm1.81,9.33h.15l.15,0,.31,0,.26-.06a.39.39,0,0,0,.15-.14,1.26,1.26,0,0,0,.21-.34q.14-.24.33-.69c.13-.29.29-.69.49-1.19l-3.4-7.81h1.06l2.9,6.87,2.67-6.87h1l-4.06,10.08a1.6,1.6,0,0,1-1.68,1.09,2.64,2.64,0,0,1-.51,0Zm19.35-5.16a2.57,2.57,0,0,1-.24,1.11,2.88,2.88,0,0,1-.64.87,3.12,3.12,0,0,1-1,.57,3.34,3.34,0,0,1-1.15.19h-5V93.85H114a2.12,2.12,0,0,1,1,.24,2.44,2.44,0,0,1,.76.63,2.63,2.63,0,0,1,.48.87,2.87,2.87,0,0,1-.22,2.46,2.53,2.53,0,0,1-1.13,1,2.67,2.67,0,0,1,1.44,1A2.82,2.82,0,0,1,116.9,101.76Zm-1.05-.18a2.11,2.11,0,0,0-.13-.75,1.85,1.85,0,0,0-.39-.65,1.75,1.75,0,0,0-.59-.45,1.48,1.48,0,0,0-.72-.18h-4.08v4h4a1.8,1.8,0,0,0,.76-.17,2,2,0,0,0,.62-.43,2.28,2.28,0,0,0,.4-.65A2,2,0,0,0,115.85,101.58Zm-5.91-6.81V98.7h3.66a1.59,1.59,0,0,0,.72-.17,1.83,1.83,0,0,0,.59-.43,1.91,1.91,0,0,0,.39-.62,2.26,2.26,0,0,0,0-1.51,1.66,1.66,0,0,0-.36-.62,1.56,1.56,0,0,0-.56-.42,1.46,1.46,0,0,0-.69-.16Zm11.13,9.88a2.18,2.18,0,0,1-1.86-.84,4.23,4.23,0,0,1-.63-2.53V96.69h1v4.41c0,1.77.61,2.65,1.82,2.65a2.79,2.79,0,0,0,1.68-.58,3.61,3.61,0,0,0,1.14-1.56V96.69h1v6.49c0,.28.12.42.37.42v.9l-.42,0a.91.91,0,0,1-.6-.21.68.68,0,0,1-.24-.53v-1.08a3.66,3.66,0,0,1-3.3,1.92Zm10.26-.52-.27.12-.39.15a4.71,4.71,0,0,1-.51.13,2.91,2.91,0,0,1-.6.06,2.18,2.18,0,0,1-.63-.09,1.56,1.56,0,0,1-.53-.27,1.44,1.44,0,0,1-.36-.48,1.53,1.53,0,0,1-.13-.66V97.5h-1.08v-.81h1.08V94.05h1v2.64h1.8v.81h-1.8v5.31a.83.83,0,0,0,.3.64,1.06,1.06,0,0,0,.64.2,2,2,0,0,0,.77-.14,3.81,3.81,0,0,0,.42-.21Zm5,0-.27.12-.39.15a4.71,4.71,0,0,1-.51.13,2.91,2.91,0,0,1-.6.06,2.18,2.18,0,0,1-.63-.09,1.47,1.47,0,0,1-.53-.27,1.44,1.44,0,0,1-.36-.48,1.53,1.53,0,0,1-.13-.66V97.5H131.8v-.81h1.08V94.05h1v2.64h1.8v.81h-1.8v5.31a.83.83,0,0,0,.3.64,1.06,1.06,0,0,0,.64.2,2,2,0,0,0,.77-.14,3.81,3.81,0,0,0,.42-.21Zm4.41.52a3.91,3.91,0,0,1-1.58-.31,3.86,3.86,0,0,1-2-2.18,4.21,4.21,0,0,1-.29-1.54,4.15,4.15,0,0,1,1.1-2.85,4,4,0,0,1,1.23-.89,3.7,3.7,0,0,1,1.56-.33,3.58,3.58,0,0,1,1.54.33,3.81,3.81,0,0,1,1.23.89,3.92,3.92,0,0,1,.81,1.29,4.09,4.09,0,0,1,.3,1.56,4,4,0,0,1-.3,1.54,3.92,3.92,0,0,1-.81,1.29,3.81,3.81,0,0,1-1.23.89A3.72,3.72,0,0,1,140.71,104.65Zm-2.84-4a3.22,3.22,0,0,0,.81,2.22,2.91,2.91,0,0,0,.9.66,2.64,2.64,0,0,0,1.11.24,2.56,2.56,0,0,0,1.1-.24,3,3,0,0,0,.91-.67,3.28,3.28,0,0,0,.84-2.24,3.25,3.25,0,0,0-.22-1.21,3.12,3.12,0,0,0-.62-1,2.79,2.79,0,0,0-.9-.67,2.4,2.4,0,0,0-1.09-.26,2.51,2.51,0,0,0-1.11.26,2.79,2.79,0,0,0-.9.67,3.43,3.43,0,0,0-.6,1A3.32,3.32,0,0,0,137.87,100.63Zm15,3.87h-1v-4.36a3.88,3.88,0,0,0-.41-2,1.39,1.39,0,0,0-1.26-.63,2.61,2.61,0,0,0-.9.17,3.13,3.13,0,0,0-.84.46,3.38,3.38,0,0,0-.69.72,3.19,3.19,0,0,0-.43.89v4.78h-1V96.69h.93v1.77a3.62,3.62,0,0,1,.58-.77,3.94,3.94,0,0,1,.8-.61,3.77,3.77,0,0,1,1.93-.53,2.27,2.27,0,0,1,1.1.24,1.88,1.88,0,0,1,.72.68,3.08,3.08,0,0,1,.39,1.06,7.53,7.53,0,0,1,.12,1.4Z"/>
      <path class="cls-2" d="M300.61,95.85a3.25,3.25,0,0,0-1.22-.83,4.32,4.32,0,0,0-1.69-.31,3.22,3.22,0,0,0-2.08.54,1.78,1.78,0,0,0-.64,1.44,1.68,1.68,0,0,0,.17.79,1.61,1.61,0,0,0,.54.53,4.07,4.07,0,0,0,.93.39c.38.11.82.22,1.33.33a14,14,0,0,1,1.53.4,4,4,0,0,1,1.16.56,2.2,2.2,0,0,1,.73.82,2.54,2.54,0,0,1,.25,1.2,2.74,2.74,0,0,1-.28,1.28,2.46,2.46,0,0,1-.8.9,3.84,3.84,0,0,1-1.21.54,6.72,6.72,0,0,1-1.53.16,6.29,6.29,0,0,1-4.28-1.54l.52-.86a4.79,4.79,0,0,0,1.57,1,5.62,5.62,0,0,0,2.21.42,3.74,3.74,0,0,0,2-.45,1.54,1.54,0,0,0,.72-1.39,1.53,1.53,0,0,0-.21-.83,1.6,1.6,0,0,0-.6-.58,4.06,4.06,0,0,0-1-.44c-.4-.12-.86-.24-1.39-.36s-1.05-.26-1.47-.4a4,4,0,0,1-1.07-.53,2.18,2.18,0,0,1-.64-.75,2.55,2.55,0,0,1-.21-1.09,3,3,0,0,1,.27-1.31,2.63,2.63,0,0,1,.78-1,3.53,3.53,0,0,1,1.2-.58,5.36,5.36,0,0,1,1.54-.21,5,5,0,0,1,1.88.33,4.92,4.92,0,0,1,1.51.9Zm6.09,8.8a3.78,3.78,0,0,1-2.82-1.2,4.56,4.56,0,0,1-.83-1.31,4.29,4.29,0,0,1-.28-1.57,4.09,4.09,0,0,1,.28-1.54,4.16,4.16,0,0,1,.83-1.28,3.82,3.82,0,0,1,1.23-.87,3.76,3.76,0,0,1,1.58-.33,3.83,3.83,0,0,1,2.79,1.2,4,4,0,0,1,.79,1.28,4.08,4.08,0,0,1,.29,1.53,1.64,1.64,0,0,1,0,.23.67.67,0,0,1,0,.17h-6.68a3.47,3.47,0,0,0,.29,1.17,3.51,3.51,0,0,0,.63.91,2.6,2.6,0,0,0,2,.83,2.87,2.87,0,0,0,.77-.11,3,3,0,0,0,.69-.28,2.37,2.37,0,0,0,.55-.44,2,2,0,0,0,.39-.58l.89.24a2.67,2.67,0,0,1-.51.79,4,4,0,0,1-.77.62,3.72,3.72,0,0,1-1,.39,3.91,3.91,0,0,1-1.08.15Zm2.88-4.47a3,3,0,0,0-.3-1.14,2.91,2.91,0,0,0-.63-.9,2.5,2.5,0,0,0-.88-.58,2.88,2.88,0,0,0-2.16,0,2.68,2.68,0,0,0-.9.58,3.07,3.07,0,0,0-.62.9,3.53,3.53,0,0,0-.27,1.14Zm2,.39a4.28,4.28,0,0,1,.29-1.56,3.84,3.84,0,0,1,.79-1.27,3.68,3.68,0,0,1,1.25-.88,3.92,3.92,0,0,1,1.59-.31,3.59,3.59,0,0,1,1.93.51,3.19,3.19,0,0,1,1.25,1.35l-1,.31a2.35,2.35,0,0,0-.92-.93,2.5,2.5,0,0,0-1.3-.34,2.7,2.7,0,0,0-1.13.24,2.91,2.91,0,0,0-.9.66,3.06,3.06,0,0,0-.6,1,3.6,3.6,0,0,0-.21,1.25,3.47,3.47,0,0,0,.23,1.25,3.1,3.1,0,0,0,.61,1,3.14,3.14,0,0,0,.9.68,2.63,2.63,0,0,0,1.85.13,3,3,0,0,0,.69-.28,2.65,2.65,0,0,0,.54-.44,1.37,1.37,0,0,0,.31-.51l1,.3a2.65,2.65,0,0,1-.48.78,3.54,3.54,0,0,1-.75.62,3.44,3.44,0,0,1-.94.39,3.79,3.79,0,0,1-1.07.15,3.86,3.86,0,0,1-1.57-.32,4,4,0,0,1-1.25-.88,4.2,4.2,0,0,1-1.11-2.88Zm12.05,4.08a3.91,3.91,0,0,1-1.58-.32,3.8,3.8,0,0,1-2-2.17,4.27,4.27,0,0,1-.29-1.55,4.19,4.19,0,0,1,.29-1.55,4.45,4.45,0,0,1,.81-1.3,4,4,0,0,1,1.23-.88,3.7,3.7,0,0,1,1.56-.33,3.58,3.58,0,0,1,1.54.33,3.78,3.78,0,0,1,1.23.88,4.19,4.19,0,0,1,.81,4.4,3.92,3.92,0,0,1-.81,1.29,3.78,3.78,0,0,1-1.23.88,3.72,3.72,0,0,1-1.54.32Zm-2.84-4a3.22,3.22,0,0,0,.81,2.22,2.91,2.91,0,0,0,.9.66,2.64,2.64,0,0,0,1.11.24,2.56,2.56,0,0,0,1.1-.24,3,3,0,0,0,.91-.67,3.28,3.28,0,0,0,.84-2.24,3.25,3.25,0,0,0-.22-1.21,3.12,3.12,0,0,0-.62-1,2.79,2.79,0,0,0-.9-.67,2.4,2.4,0,0,0-1.09-.26,2.51,2.51,0,0,0-1.11.26,2.79,2.79,0,0,0-.9.67,3.43,3.43,0,0,0-.6,1A3.32,3.32,0,0,0,320.78,100.63Zm15,3.87h-1v-4.36a3.89,3.89,0,0,0-.4-2,1.39,1.39,0,0,0-1.26-.63,2.61,2.61,0,0,0-.9.17,3.13,3.13,0,0,0-.84.46,3.38,3.38,0,0,0-.69.72,3.21,3.21,0,0,0-.44.89v4.78h-1V96.69h.93v1.77a3.66,3.66,0,0,1,.59-.77,3.86,3.86,0,0,1,2.73-1.14,2.23,2.23,0,0,1,1.09.24,1.88,1.88,0,0,1,.72.68,3.08,3.08,0,0,1,.39,1.06,7.53,7.53,0,0,1,.12,1.4Zm5.36.15a3.43,3.43,0,0,1-1.5-.33,4.11,4.11,0,0,1-1.2-.9,4.22,4.22,0,0,1-.78-1.27,4.4,4.4,0,0,1-.27-1.53,4.49,4.49,0,0,1,.27-1.56,4.29,4.29,0,0,1,.74-1.31,3.49,3.49,0,0,1,1.12-.87,3.17,3.17,0,0,1,1.44-.33,3.07,3.07,0,0,1,1.76.53,4,4,0,0,1,1.21,1.24V93.55h1v9.63q0,.42.36.42v.9a2.63,2.63,0,0,1-.41,0,.89.89,0,0,1-.61-.21.71.71,0,0,1-.24-.53V103a3.51,3.51,0,0,1-1.27,1.21,3.24,3.24,0,0,1-1.64.45Zm.21-.9a2.4,2.4,0,0,0,.81-.15,2.93,2.93,0,0,0,1.44-1,1.66,1.66,0,0,0,.33-.76V99.4a2.42,2.42,0,0,0-.45-.75,3.29,3.29,0,0,0-.66-.63,2.94,2.94,0,0,0-.78-.42,2.32,2.32,0,0,0-.81-.15,2.54,2.54,0,0,0-1.16.27,2.75,2.75,0,0,0-.87.72,4,4,0,0,0-.57,1,3.59,3.59,0,0,0-.19,1.17,3.23,3.23,0,0,0,.22,1.2,3.43,3.43,0,0,0,.62,1,3.24,3.24,0,0,0,.91.68,2.69,2.69,0,0,0,1.16.25Zm8,.9a3.21,3.21,0,0,1-1.1-.18,2.7,2.7,0,0,1-.85-.52,2.44,2.44,0,0,1-.54-.77,2.19,2.19,0,0,1-.2-.91,2,2,0,0,1,.24-1,2.24,2.24,0,0,1,.68-.76,3.16,3.16,0,0,1,1-.48,4.79,4.79,0,0,1,1.35-.18,7.11,7.11,0,0,1,1.2.1,5.32,5.32,0,0,1,1.1.3v-.7a2.22,2.22,0,0,0-.6-1.64,2.09,2.09,0,0,0-1.59-.61,3.52,3.52,0,0,0-1.26.24,6.09,6.09,0,0,0-1.26.69l-.36-.68a6.72,6.72,0,0,1,1.48-.76,4.46,4.46,0,0,1,1.5-.26,3.11,3.11,0,0,1,2.27.83,3,3,0,0,1,.84,2.28v3.52q0,.42.36.42v.9l-.23,0h-.18a.93.93,0,0,1-.55-.18.71.71,0,0,1-.27-.54l0-.61a3.45,3.45,0,0,1-1.35,1.08,4,4,0,0,1-1.68.37Zm.25-.78a3.36,3.36,0,0,0,1.34-.28,2.66,2.66,0,0,0,1.06-.81,1.75,1.75,0,0,0,.18-.29.75.75,0,0,0,.08-.3v-1.27a6.28,6.28,0,0,0-1.07-.31,5.79,5.79,0,0,0-1.08-.1,3.2,3.2,0,0,0-1.78.45,1.37,1.37,0,0,0-.68,1.21,1.67,1.67,0,0,0,.12.62,1.6,1.6,0,0,0,.36.54,2,2,0,0,0,.62.39,2.19,2.19,0,0,0,.85.15Zm9.79-6.28a3.21,3.21,0,0,0-1.8.57,2.86,2.86,0,0,0-1.08,1.48v4.86h-1V96.69h1v1.87a4,4,0,0,1,1.07-1.36,2.17,2.17,0,0,1,1.42-.56h.26l.19,0Zm1.81,9.33h.15l.15,0,.32,0,.25-.06a.39.39,0,0,0,.15-.14,1.26,1.26,0,0,0,.21-.34q.13-.24.33-.69c.13-.29.3-.69.5-1.19l-3.41-7.81h1.07l2.89,6.87,2.67-6.87h1l-4.07,10.08a1.76,1.76,0,0,1-.61.82,1.82,1.82,0,0,1-1.07.27,2.64,2.64,0,0,1-.51,0Zm19.36-5.16a2.57,2.57,0,0,1-.24,1.11,2.88,2.88,0,0,1-.64.87,3.12,3.12,0,0,1-1,.57,3.34,3.34,0,0,1-1.15.19h-5V93.85h5.11a2.15,2.15,0,0,1,1,.24,2.44,2.44,0,0,1,.76.63,2.63,2.63,0,0,1,.48.87,2.87,2.87,0,0,1-.22,2.46,2.53,2.53,0,0,1-1.13,1,2.67,2.67,0,0,1,1.44,1,2.81,2.81,0,0,1,.54,1.71Zm-1.05-.18a2.11,2.11,0,0,0-.13-.75,1.73,1.73,0,0,0-.4-.65,1.71,1.71,0,0,0-.58-.45,1.48,1.48,0,0,0-.72-.18h-4.08v4h4a1.8,1.8,0,0,0,.76-.17,2,2,0,0,0,.62-.43,2.28,2.28,0,0,0,.4-.65A2,2,0,0,0,379.43,101.58Zm-5.91-6.81V98.7h3.66a1.59,1.59,0,0,0,.72-.17,1.83,1.83,0,0,0,.59-.43,1.91,1.91,0,0,0,.39-.62,2.26,2.26,0,0,0,0-1.51,1.66,1.66,0,0,0-.36-.62,1.56,1.56,0,0,0-.56-.42,1.46,1.46,0,0,0-.69-.16Zm11.13,9.88a2.18,2.18,0,0,1-1.86-.84,4.23,4.23,0,0,1-.63-2.53V96.69h1v4.41c0,1.77.61,2.65,1.82,2.65a2.79,2.79,0,0,0,1.68-.58,3.61,3.61,0,0,0,1.14-1.56V96.69h1v6.49c0,.28.12.42.37.42v.9l-.42,0a.91.91,0,0,1-.6-.21.68.68,0,0,1-.24-.53v-1.08a3.66,3.66,0,0,1-3.3,1.92Zm10.26-.52-.27.12-.39.15a4.71,4.71,0,0,1-.51.13,2.91,2.91,0,0,1-.6.06,2.18,2.18,0,0,1-.63-.09,1.56,1.56,0,0,1-.53-.27,1.44,1.44,0,0,1-.36-.48,1.53,1.53,0,0,1-.13-.66V97.5h-1.08v-.81h1.08V94.05h1v2.64h1.8v.81h-1.8v5.31a.83.83,0,0,0,.3.64,1.06,1.06,0,0,0,.64.2,2,2,0,0,0,.77-.14,3.81,3.81,0,0,0,.42-.21Zm5,0-.27.12-.39.15a4.71,4.71,0,0,1-.51.13,2.91,2.91,0,0,1-.6.06,2.18,2.18,0,0,1-.63-.09,1.51,1.51,0,0,1-.52-.27,1.44,1.44,0,0,1-.36-.48,1.53,1.53,0,0,1-.14-.66V97.5h-1.08v-.81h1.08V94.05h1v2.64h1.8v.81h-1.8v5.31a.83.83,0,0,0,.3.64,1.09,1.09,0,0,0,.65.2,2,2,0,0,0,.76-.14,3.81,3.81,0,0,0,.42-.21Zm4.42.52a3.91,3.91,0,0,1-1.58-.31,3.86,3.86,0,0,1-2-2.18,4.21,4.21,0,0,1-.29-1.54,4.15,4.15,0,0,1,1.1-2.85,4,4,0,0,1,1.23-.89,3.7,3.7,0,0,1,1.56-.33,3.58,3.58,0,0,1,1.54.33,3.81,3.81,0,0,1,1.23.89,3.92,3.92,0,0,1,.81,1.29,4.09,4.09,0,0,1,.3,1.56,4,4,0,0,1-.3,1.54,3.92,3.92,0,0,1-.81,1.29,3.81,3.81,0,0,1-1.23.89,3.72,3.72,0,0,1-1.54.31Zm-2.84-4a3.22,3.22,0,0,0,.81,2.22,2.91,2.91,0,0,0,.9.66,2.64,2.64,0,0,0,1.11.24,2.56,2.56,0,0,0,1.1-.24,3,3,0,0,0,.91-.67,3.28,3.28,0,0,0,.84-2.24,3.25,3.25,0,0,0-.22-1.21,3.12,3.12,0,0,0-.62-1,2.79,2.79,0,0,0-.9-.67,2.4,2.4,0,0,0-1.09-.26,2.51,2.51,0,0,0-1.11.26,2.79,2.79,0,0,0-.9.67,3.43,3.43,0,0,0-.6,1A3.32,3.32,0,0,0,401.45,100.63Zm14.95,3.87h-1v-4.36a3.89,3.89,0,0,0-.4-2,1.39,1.39,0,0,0-1.26-.63,2.61,2.61,0,0,0-.9.17,3.13,3.13,0,0,0-.84.46,3.38,3.38,0,0,0-.69.72,3.21,3.21,0,0,0-.44.89v4.78h-1V96.69h.93v1.77a3.66,3.66,0,0,1,.59-.77,3.86,3.86,0,0,1,2.73-1.14,2.23,2.23,0,0,1,1.09.24,1.88,1.88,0,0,1,.72.68,3.08,3.08,0,0,1,.39,1.06,7.53,7.53,0,0,1,.12,1.4Z"/>
      <path class="cls-2" d="M534.15,104.5V93.85h4.41a2.66,2.66,0,0,1,1.26.3,3.19,3.19,0,0,1,1,.77,3.36,3.36,0,0,1,.65,1.06,3.46,3.46,0,0,1,.23,1.21,3.67,3.67,0,0,1-.22,1.28,3.34,3.34,0,0,1-.61,1.07,3.16,3.16,0,0,1-1,.75,2.66,2.66,0,0,1-1.24.28h-3.47v3.93Zm1-4.86h3.41a1.83,1.83,0,0,0,.84-.2,2,2,0,0,0,.66-.54,2.52,2.52,0,0,0,.41-.78,2.93,2.93,0,0,0,.16-.93,2.44,2.44,0,0,0-.18-.93,2.31,2.31,0,0,0-.47-.77,2,2,0,0,0-.69-.52,1.94,1.94,0,0,0-.83-.19h-3.31Zm8.07-6.09h1v9.18a1,1,0,0,0,.24.69.92.92,0,0,0,.68.24,2,2,0,0,0,.39,0,2.58,2.58,0,0,0,.42-.12l.18.82a3.43,3.43,0,0,1-.71.19,3.19,3.19,0,0,1-.7.08,1.39,1.39,0,0,1-1.52-1.52Zm6,11.1a3.16,3.16,0,0,1-1.09-.18,2.59,2.59,0,0,1-.86-.53,2.4,2.4,0,0,1-.54-.76,2.23,2.23,0,0,1-.19-.92,2,2,0,0,1,.24-1,2.21,2.21,0,0,1,.67-.76,3.23,3.23,0,0,1,1-.49,4.79,4.79,0,0,1,1.35-.18,7.14,7.14,0,0,1,1.2.11,5.22,5.22,0,0,1,1.09.3v-.7a2.22,2.22,0,0,0-.6-1.64,2.09,2.09,0,0,0-1.59-.61,3.52,3.52,0,0,0-1.26.24,5.65,5.65,0,0,0-1.26.69l-.36-.68a6.37,6.37,0,0,1,1.49-.76,4.46,4.46,0,0,1,1.5-.26,3.08,3.08,0,0,1,2.26.83,3,3,0,0,1,.84,2.27v3.53q0,.42.36.42v.9h-.22a.62.62,0,0,1-.18,0,1,1,0,0,1-.56-.18.71.71,0,0,1-.27-.54l0-.62a3.56,3.56,0,0,1-1.35,1.09A4,4,0,0,1,549.24,104.65Zm.26-.78a3.16,3.16,0,0,0,1.33-.29,2.67,2.67,0,0,0,1.07-.8,1.75,1.75,0,0,0,.18-.29.72.72,0,0,0,.07-.3v-1.28a6.15,6.15,0,0,0-1.06-.3,5.79,5.79,0,0,0-1.08-.1,3.23,3.23,0,0,0-1.79.45,1.36,1.36,0,0,0-.67,1.21,1.67,1.67,0,0,0,.12.62,1.6,1.6,0,0,0,.36.54,2,2,0,0,0,.61.39,2.24,2.24,0,0,0,.86.15Zm6.09,3h.3l.31,0,.26-.06a.39.39,0,0,0,.15-.14,1.46,1.46,0,0,0,.21-.34c.09-.17.2-.39.33-.7s.3-.68.5-1.18l-3.41-7.82h1.07l2.89,6.88,2.67-6.88h1l-4.07,10.08a1.74,1.74,0,0,1-.61.83,1.82,1.82,0,0,1-1.07.27,2.59,2.59,0,0,1-.51,0Z"/>
      <path class="cls-2" d="M662,95.8v8.7h-1V93.85h.81l7,8.86V93.86h1V104.5h-.91Zm12.38,8.85a3.21,3.21,0,0,1-1.1-.18,2.55,2.55,0,0,1-.85-.53,2.4,2.4,0,0,1-.54-.76,2.24,2.24,0,0,1-.2-.92,2,2,0,0,1,.24-1,2.24,2.24,0,0,1,.68-.76,3.17,3.17,0,0,1,1-.49,4.79,4.79,0,0,1,1.35-.18,7.14,7.14,0,0,1,1.2.11,5.32,5.32,0,0,1,1.1.3v-.7a2.22,2.22,0,0,0-.6-1.64,2.09,2.09,0,0,0-1.59-.61,3.52,3.52,0,0,0-1.26.24,5.65,5.65,0,0,0-1.26.69l-.36-.68a6.31,6.31,0,0,1,1.48-.76,4.46,4.46,0,0,1,1.5-.26,3.11,3.11,0,0,1,2.27.83,3,3,0,0,1,.84,2.27v3.53q0,.42.36.42v.9h-.23a.62.62,0,0,1-.18,0,.93.93,0,0,1-.55-.18.71.71,0,0,1-.27-.54l0-.62a3.56,3.56,0,0,1-1.35,1.09A4,4,0,0,1,674.34,104.65Zm.25-.78a3.21,3.21,0,0,0,1.34-.29,2.64,2.64,0,0,0,1.06-.8,1.75,1.75,0,0,0,.18-.29.75.75,0,0,0,.08-.3v-1.28a6.26,6.26,0,0,0-1.07-.3,5.79,5.79,0,0,0-1.08-.1,3.2,3.2,0,0,0-1.78.45,1.37,1.37,0,0,0-.68,1.21,1.67,1.67,0,0,0,.12.62,1.6,1.6,0,0,0,.36.54,2,2,0,0,0,.62.39,2.19,2.19,0,0,0,.85.15Zm8,.63-3.18-7.82h1.07l2.68,6.88,2.7-6.88h1l-3.18,7.82Zm5.61,0V96.68h1v7.82Zm0-9.45v-1.5h1v1.5Zm6.38,9.56a3.36,3.36,0,0,1-1.49-.33,4.21,4.21,0,0,1-1.15-.9,4.31,4.31,0,0,1-.75-1.28,4.22,4.22,0,0,1-.27-1.49,4.65,4.65,0,0,1,.25-1.54,4.23,4.23,0,0,1,.75-1.31,3.64,3.64,0,0,1,1.14-.88,3.36,3.36,0,0,1,1.49-.33,3,3,0,0,1,1.74.51,4.72,4.72,0,0,1,1.26,1.26V96.68h.91v7.85a3.13,3.13,0,0,1-.31,1.43,3,3,0,0,1-.83,1.05,3.4,3.4,0,0,1-1.21.63,5.21,5.21,0,0,1-1.49.21,4.26,4.26,0,0,1-2.16-.49,3.82,3.82,0,0,1-1.33-1.29l.63-.49a2.75,2.75,0,0,0,1.23,1.09,3.77,3.77,0,0,0,1.63.36,3.49,3.49,0,0,0,1.08-.16,2.41,2.41,0,0,0,.9-.47,2,2,0,0,0,.62-.78,2.44,2.44,0,0,0,.22-1.09V103a3.35,3.35,0,0,1-1.24,1.18,3.22,3.22,0,0,1-1.62.43Zm.28-.86a2.51,2.51,0,0,0,.89-.17,2.89,2.89,0,0,0,1.38-1.06,1.88,1.88,0,0,0,.31-.7V99.4a2.81,2.81,0,0,0-.46-.78,3.12,3.12,0,0,0-.65-.61,3.23,3.23,0,0,0-.78-.41,2.33,2.33,0,0,0-.82-.15,2.36,2.36,0,0,0-1.17.29,2.75,2.75,0,0,0-.87.72,3.37,3.37,0,0,0-.56,1,3.78,3.78,0,0,0-.18,1.15,3.36,3.36,0,0,0,.84,2.2,3.1,3.1,0,0,0,.92.68,2.79,2.79,0,0,0,1.15.24Zm7.87.9a3.21,3.21,0,0,1-1.1-.18,2.55,2.55,0,0,1-.85-.53,2.4,2.4,0,0,1-.54-.76,2.24,2.24,0,0,1-.2-.92,2,2,0,0,1,.24-1,2.24,2.24,0,0,1,.68-.76,3.17,3.17,0,0,1,1-.49,4.79,4.79,0,0,1,1.35-.18,7.14,7.14,0,0,1,1.2.11,5.32,5.32,0,0,1,1.1.3v-.7a2.22,2.22,0,0,0-.6-1.64,2.09,2.09,0,0,0-1.59-.61,3.52,3.52,0,0,0-1.26.24,5.65,5.65,0,0,0-1.26.69l-.36-.68a6.31,6.31,0,0,1,1.48-.76,4.46,4.46,0,0,1,1.5-.26,3.11,3.11,0,0,1,2.27.83,3,3,0,0,1,.84,2.27v3.53q0,.42.36.42v.9h-.23a.62.62,0,0,1-.18,0,.93.93,0,0,1-.55-.18.71.71,0,0,1-.27-.54l0-.62a3.56,3.56,0,0,1-1.35,1.09A4,4,0,0,1,702.7,104.65Zm.25-.78a3.21,3.21,0,0,0,1.34-.29,2.64,2.64,0,0,0,1.06-.8,1.75,1.75,0,0,0,.18-.29.75.75,0,0,0,.08-.3v-1.28a6.26,6.26,0,0,0-1.07-.3,5.79,5.79,0,0,0-1.08-.1,3.2,3.2,0,0,0-1.78.45,1.37,1.37,0,0,0-.68,1.21,1.67,1.67,0,0,0,.12.62,1.6,1.6,0,0,0,.36.54,2,2,0,0,0,.62.39,2.19,2.19,0,0,0,.85.15Zm9.57.25-.27.13-.39.15a4.71,4.71,0,0,1-.51.13,2.91,2.91,0,0,1-.6.06,2.18,2.18,0,0,1-.63-.09,1.51,1.51,0,0,1-.52-.27,1.44,1.44,0,0,1-.36-.48,1.53,1.53,0,0,1-.14-.66V97.5H708v-.81h1.08V94.05h1v2.64h1.8v.81h-1.8v5.31a.83.83,0,0,0,.3.64,1.08,1.08,0,0,0,.65.19,2,2,0,0,0,.76-.13,3.81,3.81,0,0,0,.42-.21Zm4.62.53a3.86,3.86,0,0,1-1.57-.32,4,4,0,0,1-1.25-.88,4.2,4.2,0,0,1-1.11-2.88A4.1,4.1,0,0,1,713.5,99a4,4,0,0,1,.82-1.28,3.82,3.82,0,0,1,1.23-.87,3.76,3.76,0,0,1,1.58-.33,3.83,3.83,0,0,1,2.79,1.2,4,4,0,0,1,.79,1.28,4.08,4.08,0,0,1,.29,1.53,1.64,1.64,0,0,1,0,.23.67.67,0,0,1,0,.17h-6.68a3.47,3.47,0,0,0,.29,1.17,3.51,3.51,0,0,0,.63.91,2.6,2.6,0,0,0,2,.83,2.87,2.87,0,0,0,.77-.11,3,3,0,0,0,.69-.28,2.37,2.37,0,0,0,.55-.44,2,2,0,0,0,.39-.58l.89.24a2.67,2.67,0,0,1-.51.79,4,4,0,0,1-.77.62,3.72,3.72,0,0,1-1,.39,3.91,3.91,0,0,1-1.08.15Zm2.88-4.47a3,3,0,0,0-.3-1.14,2.91,2.91,0,0,0-.63-.9,2.5,2.5,0,0,0-.88-.58,2.88,2.88,0,0,0-2.16,0,2.68,2.68,0,0,0-.9.58,3.07,3.07,0,0,0-.62.9,3.53,3.53,0,0,0-.27,1.14Z"/>
    </g>
  </g>
</svg>
