<svg viewBox="0 0 599.02 514.27" xmlns="http://www.w3.org/2000/svg"><rect fill="#191919" height="513.52" rx="12" width="598.27" x=".38" y=".38"/><rect fill="none" height="513.52" rx="12" stroke="#fff" stroke-miterlimit="1.18" stroke-width=".75" width="598.27" x=".38" y=".38"/><path d="m32 362v-2h12.75v-6.71h1.86v8.71z" fill="#fff"/><path d="m32 351.22v-9.44h1.86v7.46h4.34v-6.94h1.86v6.94h4.69v-7.83h1.86v9.81z" fill="#fff"/><path d="m32 340.6v-2.29l11.9-4.3-11.9-4.5v-2.17l14.63 5.76v1.9z" fill="#fff"/><path d="m32 325.58v-9.44h1.86v7.46h4.34v-6.94h1.86v6.94h4.69v-7.83h1.86v9.81z" fill="#fff"/><path d="m32 313v-2h12.75v-6.72h1.86v8.72z" fill="#fff"/><path d="m47 289.78a7.94 7.94 0 0 1 -.59 3.08 7.11 7.11 0 0 1 -1.62 2.41 7.64 7.64 0 0 1 -2.44 1.57 8.37 8.37 0 0 1 -6.07 0 7.64 7.64 0 0 1 -2.44-1.57 7.11 7.11 0 0 1 -1.62-2.41 8.33 8.33 0 0 1 0-6.16 7.07 7.07 0 0 1 1.62-2.4 7.31 7.31 0 0 1 2.44-1.57 8.37 8.37 0 0 1 6.07 0 7.31 7.31 0 0 1 2.44 1.57 7.07 7.07 0 0 1 1.62 2.4 8 8 0 0 1 .59 3.08zm-1.86 0a5.35 5.35 0 0 0 -.46-2.27 5.49 5.49 0 0 0 -1.25-1.74 5.57 5.57 0 0 0 -1.85-1.11 6.61 6.61 0 0 0 -4.53 0 5.57 5.57 0 0 0 -1.85 1.11 5.49 5.49 0 0 0 -1.25 1.74 5.49 5.49 0 0 0 1.25 6.28 5.76 5.76 0 0 0 1.8 1.12 6.77 6.77 0 0 0 4.53 0 5.76 5.76 0 0 0 1.85-1.12 5.31 5.31 0 0 0 1.71-4z" fill="#fff"/><path d="m32 279.31v-9.2h1.86v7.21h4.59v-6.71h1.86v6.71h6.32v2z" fill="#fff"/><path d="m32 261.71v-5.15a6.06 6.06 0 0 1 .38-2.31 4 4 0 0 1 1-1.44 3.42 3.42 0 0 1 1.33-.73 4.87 4.87 0 0 1 2.83 0 3.31 3.31 0 0 1 1.32.73 4 4 0 0 1 1 1.44 6.06 6.06 0 0 1 .38 2.31v3.16h6.45v2zm6.45-2v-2.6a6.3 6.3 0 0 0 -.1-1.15 2.94 2.94 0 0 0 -.34-1 1.8 1.8 0 0 0 -.71-.71 2.38 2.38 0 0 0 -1.21-.27 2.41 2.41 0 0 0 -1.21.27 1.86 1.86 0 0 0 -.71.71 2.94 2.94 0 0 0 -.34 1 7.33 7.33 0 0 0 -.09 1.15v2.6z" fill="#fff"/><path d="m32 249.45v-5.14a6.06 6.06 0 0 1 .38-2.31 4 4 0 0 1 1-1.44 3.29 3.29 0 0 1 1.33-.73 5.13 5.13 0 0 1 1.41-.21 3.86 3.86 0 0 1 2.53 1 4.06 4.06 0 0 1 .89 1.14 3.81 3.81 0 0 1 .44 1.5l6.68-4.16v2.48l-6.45 3.72v2.21h6.45v2zm6.45-2v-2.6a6.3 6.3 0 0 0 -.1-1.15 2.94 2.94 0 0 0 -.34-1 1.8 1.8 0 0 0 -.71-.71 2.38 2.38 0 0 0 -1.21-.27 2.41 2.41 0 0 0 -1.21.27 1.86 1.86 0 0 0 -.71.71 2.94 2.94 0 0 0 -.34 1 7.33 7.33 0 0 0 -.09 1.15v2.6z" fill="#fff"/><path d="m32 236.83v-2h14.61v2z" fill="#fff"/><path d="m32 231.42v-5.1a9.61 9.61 0 0 1 .35-2.72 7.61 7.61 0 0 1 .94-2 6.11 6.11 0 0 1 1.35-1.42 7.19 7.19 0 0 1 1.58-.9 7.37 7.37 0 0 1 1.61-.47 8.07 8.07 0 0 1 1.48-.15 7.23 7.23 0 0 1 2.72.52 6.78 6.78 0 0 1 2.34 1.53 7.44 7.44 0 0 1 1.63 2.48 9 9 0 0 1 .62 3.46v4.77zm12.77-2v-2.5a8.47 8.47 0 0 0 -.34-2.39 5.7 5.7 0 0 0 -1-2 4.81 4.81 0 0 0 -1.7-1.35 5.43 5.43 0 0 0 -2.39-.49 7.21 7.21 0 0 0 -1.64.22 4.89 4.89 0 0 0 -3.22 2.61 6.21 6.21 0 0 0 -.59 2.89v3z" fill="#fff"/><path d="m32 215.78v-9.44h1.86v7.46h4.34v-7h1.86v7h4.69v-7.8h1.86v9.81z" fill="#fff"/><path d="m66 432.5c0-.55 0-1.13.08-1.75a12 12 0 0 1 .28-1.81 9.22 9.22 0 0 1 .57-1.68 5 5 0 0 1 .93-1.4 4.06 4.06 0 0 1 1.36-1 5.12 5.12 0 0 1 3.77 0 4.17 4.17 0 0 1 1.36 1 5 5 0 0 1 .93 1.4 9.2 9.2 0 0 1 .56 1.68 13.39 13.39 0 0 1 .29 1.81c0 .62.07 1.2.07 1.75s0 1.16-.07 1.77a13.5 13.5 0 0 1 -.29 1.8 9.36 9.36 0 0 1 -.56 1.67 5.23 5.23 0 0 1 -.93 1.41 4.17 4.17 0 0 1 -1.36 1 5.12 5.12 0 0 1 -3.77 0 4.06 4.06 0 0 1 -1.36-1 5.23 5.23 0 0 1 -.93-1.41 9.39 9.39 0 0 1 -.57-1.67 12 12 0 0 1 -.28-1.8c-.08-.61-.08-1.2-.08-1.77zm1.44 0v1.34a11.15 11.15 0 0 0 .17 1.49 9.33 9.33 0 0 0 .39 1.47 5.23 5.23 0 0 0 .65 1.27 3 3 0 0 0 1 .89 2.73 2.73 0 0 0 1.41.34 2.78 2.78 0 0 0 1.41-.34 3 3 0 0 0 1-.89 4.61 4.61 0 0 0 .65-1.27 9.37 9.37 0 0 0 .39-1.47c.08-.51.14-1 .17-1.49s0-.93 0-1.34 0-.83 0-1.33-.09-1-.17-1.49a9.37 9.37 0 0 0 -.39-1.47 4.61 4.61 0 0 0 -.65-1.27 3.19 3.19 0 0 0 -1-.9 2.88 2.88 0 0 0 -1.41-.34 2.84 2.84 0 0 0 -1.4.34 3.23 3.23 0 0 0 -1 .9 5.23 5.23 0 0 0 -.65 1.27 9.33 9.33 0 0 0 -.38 1.47 11 11 0 0 0 -.17 1.49c-.05.5-.07.94-.07 1.33z" fill="#fff"/><path d="m153.59 438.69 5.8-6.12q.39-.39.78-.84a7 7 0 0 0 .71-.94 5.53 5.53 0 0 0 .52-1 3.52 3.52 0 0 0 .19-1.18 2.66 2.66 0 0 0 -.87-2.11 3.22 3.22 0 0 0 -2.2-.77 3.07 3.07 0 0 0 -2 .7 3.22 3.22 0 0 0 -1.07 1.83l-1.52-.15a4.14 4.14 0 0 1 1.63-2.67 5.2 5.2 0 0 1 3.05-.88 5.27 5.27 0 0 1 1.7.27 4.52 4.52 0 0 1 1.42.77 3.63 3.63 0 0 1 1.33 2.9 4.94 4.94 0 0 1 -.27 1.66 6.76 6.76 0 0 1 -.72 1.45 8.45 8.45 0 0 1 -1 1.29c-.38.41-.77.82-1.16 1.22l-4.91 4.88h8.11v1.18h-9.55z" fill="#fff"/><path d="m164.6 432.5c0-.55 0-1.13.07-1.75a13.39 13.39 0 0 1 .29-1.81 9.22 9.22 0 0 1 .57-1.68 4.79 4.79 0 0 1 .92-1.4 4.17 4.17 0 0 1 1.36-1 5.12 5.12 0 0 1 3.77 0 4.21 4.21 0 0 1 1.37 1 5.23 5.23 0 0 1 .92 1.4 9.22 9.22 0 0 1 .57 1.68 12 12 0 0 1 .28 1.81c.05.62.08 1.2.08 1.75s0 1.16-.08 1.77a12 12 0 0 1 -.28 1.8 9.39 9.39 0 0 1 -.57 1.67 5.45 5.45 0 0 1 -.92 1.41 4.21 4.21 0 0 1 -1.37 1 5.12 5.12 0 0 1 -3.77 0 4.17 4.17 0 0 1 -1.36-1 5 5 0 0 1 -.92-1.41 9.39 9.39 0 0 1 -.57-1.67 13.5 13.5 0 0 1 -.29-1.8c-.05-.61-.07-1.2-.07-1.77zm1.44 0v1.34s.09 1 .17 1.49a9.37 9.37 0 0 0 .39 1.47 4.61 4.61 0 0 0 .65 1.27 3.12 3.12 0 0 0 1 .89 3.09 3.09 0 0 0 2.82 0 3.08 3.08 0 0 0 1-.89 5.23 5.23 0 0 0 .65-1.27 9.33 9.33 0 0 0 .38-1.47 13.14 13.14 0 0 0 .18-1.49c0-.48 0-.93 0-1.34s0-.83 0-1.33a12.87 12.87 0 0 0 -.18-1.49 9.33 9.33 0 0 0 -.38-1.47 5.23 5.23 0 0 0 -.65-1.27 3.23 3.23 0 0 0 -1-.9 2.84 2.84 0 0 0 -1.4-.34 2.88 2.88 0 0 0 -1.41.34 3.19 3.19 0 0 0 -1 .9 4.61 4.61 0 0 0 -.65 1.27 9.37 9.37 0 0 0 -.39 1.47c-.08.5-.14 1-.17 1.49s-.05.94-.05 1.33z" fill="#fff"/><path d="m252.85 436.43h-6.67v-1.55l6.17-10.09h1.81v10.46h2.35v1.18h-2.35v3.79h-1.31zm0-10.2-5.45 9h5.49z" fill="#fff"/><path d="m257.58 432.5c0-.55 0-1.13.07-1.75a13.39 13.39 0 0 1 .29-1.81 9.2 9.2 0 0 1 .56-1.68 5 5 0 0 1 .93-1.4 4.17 4.17 0 0 1 1.36-1 5.12 5.12 0 0 1 3.77 0 4.06 4.06 0 0 1 1.36 1 5 5 0 0 1 .93 1.4 9.22 9.22 0 0 1 .57 1.68 12 12 0 0 1 .28 1.81c.05.62.08 1.2.08 1.75s0 1.16-.08 1.77a12 12 0 0 1 -.28 1.8 9.39 9.39 0 0 1 -.57 1.67 5.23 5.23 0 0 1 -.93 1.41 4.06 4.06 0 0 1 -1.36 1 5.12 5.12 0 0 1 -3.77 0 4.17 4.17 0 0 1 -1.36-1 5.23 5.23 0 0 1 -.93-1.41 9.36 9.36 0 0 1 -.56-1.67 13.5 13.5 0 0 1 -.29-1.8c-.05-.61-.07-1.2-.07-1.77zm1.44 0v1.34s.09 1 .17 1.49a9.37 9.37 0 0 0 .39 1.47 4.61 4.61 0 0 0 .65 1.27 3.12 3.12 0 0 0 1 .89 3.09 3.09 0 0 0 2.82 0 3.08 3.08 0 0 0 1-.89 5.23 5.23 0 0 0 .65-1.27 9.33 9.33 0 0 0 .38-1.47 11.15 11.15 0 0 0 .17-1.49c0-.48 0-.93 0-1.34s0-.83 0-1.33a11 11 0 0 0 -.17-1.49 9.33 9.33 0 0 0 -.38-1.47 5.23 5.23 0 0 0 -.65-1.27 3.23 3.23 0 0 0 -1-.9 3.07 3.07 0 0 0 -2.81 0 3.19 3.19 0 0 0 -1 .9 4.61 4.61 0 0 0 -.65 1.27 9.37 9.37 0 0 0 -.39 1.47c-.08.5-.14 1-.17 1.49s-.03.94-.03 1.33z" fill="#fff"/><path d="m342.32 431.59a2.61 2.61 0 0 1 1.06-.49 5.11 5.11 0 0 1 1.23-.17 5 5 0 0 1 1.9.37 4.64 4.64 0 0 1 1.5 1 4.59 4.59 0 0 1 1 1.5 5 5 0 0 1 .35 1.86 4.85 4.85 0 0 1 -.38 1.93 4.57 4.57 0 0 1 -1.06 1.52 4.91 4.91 0 0 1 -1.6 1 5.82 5.82 0 0 1 -4 0 4.91 4.91 0 0 1 -1.6-1 4.43 4.43 0 0 1 -1.06-1.52 4.85 4.85 0 0 1 -.38-1.93 4.77 4.77 0 0 1 .13-1.15 5.67 5.67 0 0 1 .35-1 8 8 0 0 1 .46-.93c.16-.29.31-.57.47-.83l4.19-6.95h1.66zm2 .48a3.48 3.48 0 0 0 -1.41.28 3.8 3.8 0 0 0 -1.15.77 3.85 3.85 0 0 0 -.77 1.16 3.5 3.5 0 0 0 -.28 1.4 3.94 3.94 0 0 0 .26 1.48 3.27 3.27 0 0 0 1.88 1.88 3.92 3.92 0 0 0 1.47.26 3.85 3.85 0 0 0 1.47-.26 3.21 3.21 0 0 0 1.15-.74 3.26 3.26 0 0 0 .74-1.14 4.14 4.14 0 0 0 .26-1.48 3.5 3.5 0 0 0 -.28-1.4 3.6 3.6 0 0 0 -1.93-1.93 3.51 3.51 0 0 0 -1.41-.28z" fill="#fff"/><path d="m350.56 432.5c0-.55 0-1.13.07-1.75a12 12 0 0 1 .29-1.81 8.5 8.5 0 0 1 .56-1.68 5 5 0 0 1 .93-1.4 4.17 4.17 0 0 1 1.36-1 5.12 5.12 0 0 1 3.77 0 4.06 4.06 0 0 1 1.36 1 5 5 0 0 1 .93 1.4 9.22 9.22 0 0 1 .57 1.68 13.38 13.38 0 0 1 .28 1.81c.05.62.08 1.2.08 1.75s0 1.16-.08 1.77a13.48 13.48 0 0 1 -.28 1.8 9.39 9.39 0 0 1 -.57 1.67 5.23 5.23 0 0 1 -.93 1.41 4.06 4.06 0 0 1 -1.36 1 5.12 5.12 0 0 1 -3.77 0 4.17 4.17 0 0 1 -1.36-1 5.23 5.23 0 0 1 -.93-1.41 8.63 8.63 0 0 1 -.56-1.67 12.06 12.06 0 0 1 -.29-1.8c-.05-.61-.07-1.2-.07-1.77zm1.44 0v1.34s.09 1 .17 1.49a10.57 10.57 0 0 0 .38 1.47 4.92 4.92 0 0 0 .66 1.27 3.12 3.12 0 0 0 1 .89 3.09 3.09 0 0 0 2.82 0 3 3 0 0 0 1-.89 4.92 4.92 0 0 0 .66-1.27 10.57 10.57 0 0 0 .38-1.47 13.08 13.08 0 0 0 .17-1.49c0-.48.05-.93.05-1.34s0-.83-.05-1.33a12.83 12.83 0 0 0 -.17-1.49 10.57 10.57 0 0 0 -.38-1.47 4.92 4.92 0 0 0 -.66-1.27 3.19 3.19 0 0 0 -1-.9 3.07 3.07 0 0 0 -2.81 0 3.19 3.19 0 0 0 -1 .9 4.92 4.92 0 0 0 -.66 1.27 10.57 10.57 0 0 0 -.38 1.47c-.08.5-.14 1-.17 1.49s-.01.94-.01 1.33z" fill="#fff"/><path d="m433.08 428.54a4 4 0 0 1 .32-1.64 3.82 3.82 0 0 1 .9-1.26 4 4 0 0 1 1.34-.82 4.92 4.92 0 0 1 3.33 0 4.13 4.13 0 0 1 1.34.82 3.65 3.65 0 0 1 .89 1.26 4 4 0 0 1 .33 1.64 3.69 3.69 0 0 1 -.17 1.08 4.22 4.22 0 0 1 -.49 1 3.56 3.56 0 0 1 -.78.82 3 3 0 0 1 -1 .5 3.6 3.6 0 0 1 1.3.53 3.7 3.7 0 0 1 .93.92 3.88 3.88 0 0 1 .58 1.17 4.63 4.63 0 0 1 .2 1.34 4.75 4.75 0 0 1 -.36 1.89 4.17 4.17 0 0 1 -1 1.43 4.58 4.58 0 0 1 -1.51.91 5.61 5.61 0 0 1 -3.79 0 4.73 4.73 0 0 1 -1.52-.91 4.15 4.15 0 0 1 -1-1.43 4.75 4.75 0 0 1 -.36-1.89 4.63 4.63 0 0 1 .2-1.34 4.1 4.1 0 0 1 .57-1.17 3.91 3.91 0 0 1 .94-.92 3.53 3.53 0 0 1 1.3-.53 3.18 3.18 0 0 1 -1-.5 3.74 3.74 0 0 1 -.77-.82 4.22 4.22 0 0 1 -.49-1 3.38 3.38 0 0 1 -.23-1.08zm.89 7.38a3.51 3.51 0 0 0 .24 1.31 3.18 3.18 0 0 0 .67 1.07 3.14 3.14 0 0 0 1.05.73 3.35 3.35 0 0 0 1.37.27 3.4 3.4 0 0 0 1.38-.27 3.25 3.25 0 0 0 1.72-1.8 3.51 3.51 0 0 0 .24-1.31 3.61 3.61 0 0 0 -.26-1.38 3.45 3.45 0 0 0 -.71-1.07 3.16 3.16 0 0 0 -1.06-.68 3.55 3.55 0 0 0 -1.31-.24 3.49 3.49 0 0 0 -1.3.24 3.16 3.16 0 0 0 -1.06.68 3.45 3.45 0 0 0 -.71 1.07 3.61 3.61 0 0 0 -.23 1.38zm.54-7.38a2.87 2.87 0 0 0 .21 1.1 2.83 2.83 0 0 0 .57.89 2.58 2.58 0 0 0 .87.61 2.8 2.8 0 0 0 1.14.23 2.87 2.87 0 0 0 1.14-.23 2.52 2.52 0 0 0 .88-.61 2.83 2.83 0 0 0 .57-.89 3.07 3.07 0 0 0 .2-1.1 2.79 2.79 0 1 0 -5.58 0z" fill="#fff"/><path d="m443.54 432.5c0-.55 0-1.13.07-1.75a12 12 0 0 1 .29-1.81 8.5 8.5 0 0 1 .56-1.68 5 5 0 0 1 .93-1.4 4.17 4.17 0 0 1 1.36-1 5.12 5.12 0 0 1 3.77 0 4.17 4.17 0 0 1 1.36 1 5 5 0 0 1 .93 1.4 8.5 8.5 0 0 1 .56 1.68 12 12 0 0 1 .29 1.81c0 .62.08 1.2.08 1.75s0 1.16-.08 1.77a12.06 12.06 0 0 1 -.29 1.8 8.63 8.63 0 0 1 -.56 1.67 5.23 5.23 0 0 1 -.93 1.41 4.17 4.17 0 0 1 -1.36 1 5.12 5.12 0 0 1 -3.77 0 4.17 4.17 0 0 1 -1.36-1 5.23 5.23 0 0 1 -.93-1.41 8.63 8.63 0 0 1 -.56-1.67 12.06 12.06 0 0 1 -.29-1.8c-.05-.61-.07-1.2-.07-1.77zm1.43 0v1.34s.09 1 .17 1.49a10.57 10.57 0 0 0 .38 1.47 4.92 4.92 0 0 0 .66 1.27 3.12 3.12 0 0 0 1 .89 3.09 3.09 0 0 0 2.82 0 3 3 0 0 0 1-.89 4.92 4.92 0 0 0 .66-1.27 10.57 10.57 0 0 0 .38-1.47 13.08 13.08 0 0 0 .17-1.49c0-.48.05-.93.05-1.34s0-.83-.05-1.33a12.83 12.83 0 0 0 -.17-1.49 10.57 10.57 0 0 0 -.38-1.47 4.92 4.92 0 0 0 -.66-1.27 3.19 3.19 0 0 0 -1-.9 3.07 3.07 0 0 0 -2.81 0 3.19 3.19 0 0 0 -1 .9 4.92 4.92 0 0 0 -.66 1.27 10.57 10.57 0 0 0 -.38 1.47c-.08.5-.14 1-.17 1.49s.02.94.02 1.33z" fill="#fff"/><path d="m524.64 426.62-2.79 2.29-.81-1 3.81-3.12h1.15v15.43h-1.31z" fill="#fff"/><path d="m530.85 432.5c0-.55 0-1.13.08-1.75a12 12 0 0 1 .28-1.81 9.22 9.22 0 0 1 .57-1.68 5 5 0 0 1 .92-1.4 4.17 4.17 0 0 1 1.36-1 4.55 4.55 0 0 1 1.89-.36 4.5 4.5 0 0 1 1.88.36 4.21 4.21 0 0 1 1.37 1 5.23 5.23 0 0 1 .92 1.4 9.22 9.22 0 0 1 .57 1.68 12 12 0 0 1 .28 1.81c0 .62.08 1.2.08 1.75s0 1.16-.08 1.77a12 12 0 0 1 -.28 1.8 9.39 9.39 0 0 1 -.57 1.67 5.45 5.45 0 0 1 -.92 1.41 4.21 4.21 0 0 1 -1.37 1 4.5 4.5 0 0 1 -1.88.36 4.55 4.55 0 0 1 -1.89-.36 4.17 4.17 0 0 1 -1.36-1 5.2 5.2 0 0 1 -.92-1.41 9.39 9.39 0 0 1 -.57-1.67 12 12 0 0 1 -.28-1.8c-.06-.61-.08-1.2-.08-1.77zm1.44 0v1.34a13.14 13.14 0 0 0 .18 1.49 8.36 8.36 0 0 0 .38 1.47 4.61 4.61 0 0 0 .65 1.27 3.12 3.12 0 0 0 1 .89 2.77 2.77 0 0 0 1.42.34 2.72 2.72 0 0 0 1.4-.34 3.08 3.08 0 0 0 1-.89 4.9 4.9 0 0 0 .65-1.27 9.33 9.33 0 0 0 .38-1.47 13.14 13.14 0 0 0 .18-1.49c0-.48 0-.93 0-1.34s0-.83 0-1.33a12.87 12.87 0 0 0 -.18-1.49 9.33 9.33 0 0 0 -.38-1.47 4.9 4.9 0 0 0 -.65-1.27 3.23 3.23 0 0 0 -1-.9 2.82 2.82 0 0 0 -1.4-.34 2.88 2.88 0 0 0 -1.41.34 3.19 3.19 0 0 0 -1 .9 4.61 4.61 0 0 0 -.65 1.27 8.36 8.36 0 0 0 -.38 1.47 12.87 12.87 0 0 0 -.18 1.49c0 .5-.01.94-.01 1.33z" fill="#fff"/><path d="m542.18 432.5c0-.55 0-1.13.08-1.75a12 12 0 0 1 .28-1.81 9.22 9.22 0 0 1 .57-1.68 5.23 5.23 0 0 1 .92-1.4 4.11 4.11 0 0 1 1.37-1 5.09 5.09 0 0 1 3.76 0 4.11 4.11 0 0 1 1.37 1 5 5 0 0 1 .92 1.4 9.22 9.22 0 0 1 .57 1.68 12 12 0 0 1 .28 1.81c.05.62.08 1.2.08 1.75s0 1.16-.08 1.77a12 12 0 0 1 -.28 1.8 9.39 9.39 0 0 1 -.57 1.67 5.2 5.2 0 0 1 -.92 1.41 4.11 4.11 0 0 1 -1.37 1 5.09 5.09 0 0 1 -3.76 0 4.11 4.11 0 0 1 -1.37-1 5.45 5.45 0 0 1 -.92-1.41 9.39 9.39 0 0 1 -.57-1.67 12 12 0 0 1 -.28-1.8c-.05-.61-.08-1.2-.08-1.77zm1.44 0v1.34a13.14 13.14 0 0 0 .18 1.49 8.36 8.36 0 0 0 .38 1.47 4.61 4.61 0 0 0 .65 1.27 3.12 3.12 0 0 0 1 .89 3.11 3.11 0 0 0 2.83 0 3.15 3.15 0 0 0 1-.89 4.9 4.9 0 0 0 .65-1.27 8.36 8.36 0 0 0 .38-1.47 13.14 13.14 0 0 0 .18-1.49c0-.48 0-.93 0-1.34s0-.83 0-1.33a12.87 12.87 0 0 0 -.18-1.49 8.36 8.36 0 0 0 -.38-1.47 4.9 4.9 0 0 0 -.65-1.27 3.31 3.31 0 0 0 -1-.9 3.09 3.09 0 0 0 -2.82 0 3.19 3.19 0 0 0 -1 .9 4.61 4.61 0 0 0 -.65 1.27 8.36 8.36 0 0 0 -.38 1.47 12.87 12.87 0 0 0 -.18 1.49c0 .5-.01.94-.01 1.33z" fill="#fff"/><path d="m71.05 419.44h464.9" fill="none" stroke="#fff" stroke-miterlimit="10"/><path d="m71.05 419.44v-7.09" fill="none" stroke="#fff" stroke-miterlimit="10"/><path d="m164.03 419.44v-7.09" fill="none" stroke="#fff" stroke-miterlimit="10"/><path d="m257.01 419.44v-7.09" fill="none" stroke="#fff" stroke-miterlimit="10"/><path d="m349.99 419.44v-7.09" fill="none" stroke="#fff" stroke-miterlimit="10"/><path d="m442.97 419.44v-7.09" fill="none" stroke="#fff" stroke-miterlimit="10"/><path d="m535.95 419.44v-7.09" fill="none" stroke="#fff" stroke-miterlimit="10"/><path d="m71.05 419.44v-283.77" fill="none" stroke="#fff" stroke-miterlimit="10"/><path d="m71.05 277.55h11.63" fill="none" stroke="#fff" stroke-miterlimit="10"/><path d="m71.05 283.23h464.9v102.16h-464.9z" fill="#061f4b" stroke="#fff" stroke-miterlimit="10" stroke-width=".5"/><g fill="#fff"><path d="m447.25 330.31h1l2.27 5.95 2.22-5.95h.9l-2.64 6.93h-1z"/><path d="m461.06 335.93a3 3 0 0 1 -1.28 1.14 4 4 0 0 1 -1.67.35 3.59 3.59 0 0 1 -1.42-.27 3.11 3.11 0 0 1 -1.09-.76 3.21 3.21 0 0 1 -.7-1.15 4.38 4.38 0 0 1 -.24-1.48 4 4 0 0 1 .25-1.44 3.45 3.45 0 0 1 .7-1.15 3.41 3.41 0 0 1 1.08-.76 3.23 3.23 0 0 1 1.37-.28 3.18 3.18 0 0 1 1.38.28 3 3 0 0 1 1 .73 3.2 3.2 0 0 1 .61 1 3.5 3.5 0 0 1 .2 1.19v.67h-5.72a3.4 3.4 0 0 0 .11.73 2.63 2.63 0 0 0 1.2 1.58 2.41 2.41 0 0 0 1.27.3 2.87 2.87 0 0 0 1.32-.33 2.41 2.41 0 0 0 1-.9zm-.68-2.74a2.12 2.12 0 0 0 -.18-.87 2.41 2.41 0 0 0 -1.26-1.2 2.39 2.39 0 0 0 -.92-.18 2.23 2.23 0 0 0 -1.2.3 2.56 2.56 0 0 0 -.76.69 2.66 2.66 0 0 0 -.4.76 2 2 0 0 0 -.12.5z"/><path d="m463.24 332.26c0-.13 0-.29 0-.47s0-.38 0-.57 0-.36 0-.53 0-.29 0-.38h.88v.75a2.12 2.12 0 0 0 0 .46 3.13 3.13 0 0 1 .87-1 2.15 2.15 0 0 1 1.3-.39h.26l.26.05-.11.89a1 1 0 0 0 -.34-.06 2.33 2.33 0 0 0 -1 .19 1.78 1.78 0 0 0 -.69.51 2.08 2.08 0 0 0 -.41.78 3.21 3.21 0 0 0 -.13.95v3.78h-.89z"/><path d="m470.07 339.38a2.58 2.58 0 0 1 -.69 1.07 1.73 1.73 0 0 1 -1.18.39 2.12 2.12 0 0 1 -.44 0 3 3 0 0 1 -.43-.1l.09-.84.39.12a1.83 1.83 0 0 0 .4 0 .82.82 0 0 0 .42-.11 1 1 0 0 0 .32-.27 1.69 1.69 0 0 0 .23-.36c.06-.14.12-.28.17-.42l.62-1.6-2.77-7h1l2.26 5.83 2.2-5.83h.94z"/><path d="m478.63 330.31h.89v1.21a2.38 2.38 0 0 1 .52-.62 3.18 3.18 0 0 1 .67-.43 3.41 3.41 0 0 1 .76-.26 4.3 4.3 0 0 1 .78-.08 3.7 3.7 0 0 1 1.44.27 3.35 3.35 0 0 1 1.88 1.91 3.87 3.87 0 0 1 .27 1.46 3.92 3.92 0 0 1 -.27 1.47 3.35 3.35 0 0 1 -1.88 1.91 3.7 3.7 0 0 1 -1.44.27 4.3 4.3 0 0 1 -.78-.08 3.41 3.41 0 0 1 -.76-.26 3.18 3.18 0 0 1 -.67-.43 2.43 2.43 0 0 1 -.52-.63v4.64h-.89zm.8 3.46a2.78 2.78 0 0 0 .22 1.11 2.76 2.76 0 0 0 1.5 1.5 2.8 2.8 0 0 0 1.12.23 2.75 2.75 0 0 0 1.13-.23 2.61 2.61 0 0 0 .85-.6 2.58 2.58 0 0 0 .54-.9 3.4 3.4 0 0 0 .18-1.11 3.34 3.34 0 0 0 -.18-1.1 2.58 2.58 0 0 0 -.54-.9 2.64 2.64 0 0 0 -.85-.61 2.75 2.75 0 0 0 -1.13-.22 2.8 2.8 0 0 0 -1.12.22 2.82 2.82 0 0 0 -1.5 1.51 2.74 2.74 0 0 0 -.22 1.1z"/><path d="m487.84 332.26c0-.13 0-.29 0-.47s0-.38 0-.57 0-.36 0-.53 0-.29 0-.38h.89v.75a1.91 1.91 0 0 0 0 .46 2.91 2.91 0 0 1 .87-1 2.11 2.11 0 0 1 1.3-.39h.25l.26.05-.1.89a1.06 1.06 0 0 0 -.31-.07 2.38 2.38 0 0 0 -1 .19 1.78 1.78 0 0 0 -.69.51 2.23 2.23 0 0 0 -.41.78 3.57 3.57 0 0 0 -.13.95v3.78h-.88z"/><path d="m492.1 333.77a3.87 3.87 0 0 1 .27-1.46 3.42 3.42 0 0 1 .73-1.15 3.31 3.31 0 0 1 1.14-.76 3.78 3.78 0 0 1 1.45-.27 3.68 3.68 0 0 1 1.43.27 3.35 3.35 0 0 1 1.88 1.91 3.87 3.87 0 0 1 .27 1.46 3.92 3.92 0 0 1 -.27 1.47 3.35 3.35 0 0 1 -1.88 1.91 3.68 3.68 0 0 1 -1.43.27 3.78 3.78 0 0 1 -1.45-.27 3.31 3.31 0 0 1 -1.14-.76 3.42 3.42 0 0 1 -.73-1.15 3.92 3.92 0 0 1 -.27-1.47zm.89 0a3.4 3.4 0 0 0 .18 1.11 2.58 2.58 0 0 0 .54.9 2.61 2.61 0 0 0 .85.6 2.87 2.87 0 0 0 2.25 0 2.61 2.61 0 0 0 .85-.6 2.58 2.58 0 0 0 .54-.9 3.4 3.4 0 0 0 .19-1.11 3.34 3.34 0 0 0 -.19-1.1 2.58 2.58 0 0 0 -.54-.9 2.64 2.64 0 0 0 -.85-.61 3 3 0 0 0 -2.25 0 2.64 2.64 0 0 0 -.85.61 2.58 2.58 0 0 0 -.54.9 3.34 3.34 0 0 0 -.17 1.1z"/><path d="m507 335.29v.47s0 .37 0 .56v.54.38h-.88v-.75a2.24 2.24 0 0 0 0-.47 2.49 2.49 0 0 1 -.88 1 2.62 2.62 0 0 1 -1.45.41 2.94 2.94 0 0 1 -1.31-.26 2.15 2.15 0 0 1 -.79-.66 2.56 2.56 0 0 1 -.39-1 5.8 5.8 0 0 1 -.11-1.11v-4.12h.89v4.08a4.28 4.28 0 0 0 .07.81 2.28 2.28 0 0 0 .26.72 1.32 1.32 0 0 0 .52.5 1.69 1.69 0 0 0 .86.19 2.55 2.55 0 0 0 .92-.17 2.09 2.09 0 0 0 .76-.53 2.67 2.67 0 0 0 .5-.88 4 4 0 0 0 .18-1.26v-3.46h.85z"/><path d="m515.41 336a2.61 2.61 0 0 1 -.51.63 3 3 0 0 1 -.68.43 3.25 3.25 0 0 1 -.76.26 4.13 4.13 0 0 1 -.78.08 3.77 3.77 0 0 1 -1.44-.27 3.13 3.13 0 0 1 -1.14-.76 3.61 3.61 0 0 1 -.74-1.15 4.13 4.13 0 0 1 -.26-1.47 4.07 4.07 0 0 1 .26-1.46 3.61 3.61 0 0 1 .74-1.15 3.13 3.13 0 0 1 1.14-.76 3.77 3.77 0 0 1 1.44-.27 4.13 4.13 0 0 1 .78.08 3.25 3.25 0 0 1 .76.26 3 3 0 0 1 .68.43 2.56 2.56 0 0 1 .51.62v-5.6h.89v11.34h-.89zm.09-2.25a2.74 2.74 0 0 0 -.22-1.1 2.92 2.92 0 0 0 -.61-.9 2.86 2.86 0 0 0 -.9-.61 3 3 0 0 0 -2.24 0 2.64 2.64 0 0 0 -.85.61 2.58 2.58 0 0 0 -.54.9 3.1 3.1 0 0 0 -.19 1.1 3.16 3.16 0 0 0 .19 1.11 2.58 2.58 0 0 0 .54.9 2.61 2.61 0 0 0 .85.6 2.84 2.84 0 0 0 2.24 0 2.84 2.84 0 0 0 .9-.6 2.92 2.92 0 0 0 .61-.9 2.78 2.78 0 0 0 .22-1.09z"/><path d="m241.17 468h5.06a6 6 0 0 1 2.28.38 4 4 0 0 1 1.41 1 3.3 3.3 0 0 1 .72 1.32 5.17 5.17 0 0 1 .2 1.42 5.05 5.05 0 0 1 -.2 1.41 3.27 3.27 0 0 1 -.72 1.33 4 4 0 0 1 -1.41 1 6 6 0 0 1 -2.28.38h-3.11v6.45h-2zm2 6.45h2.56a7.08 7.08 0 0 0 1.13-.1 3 3 0 0 0 1-.34 1.84 1.84 0 0 0 .7-.71 2.95 2.95 0 0 0 0-2.42 1.84 1.84 0 0 0 -.7-.71 3 3 0 0 0 -1-.34 7.08 7.08 0 0 0 -1.13-.1h-2.56z"/><path d="m253.22 468h9.29v1.86h-7.34v4.36h6.83v1.86h-6.83v4.69h7.7v1.86h-9.65z"/><path d="m265.64 468h5.06a5.87 5.87 0 0 1 2.27.38 4 4 0 0 1 1.42 1 3.56 3.56 0 0 1 .72 1.32 5.58 5.58 0 0 1 .2 1.42 3.84 3.84 0 0 1 -.24 1.35 4 4 0 0 1 -.7 1.18 4.11 4.11 0 0 1 -1.12.89 3.76 3.76 0 0 1 -1.48.44l4.09 6.68h-2.44l-3.66-6.45h-2.17v6.45h-1.95zm1.95 6.45h2.56a7.19 7.19 0 0 0 1.13-.1 2.83 2.83 0 0 0 1-.34 1.77 1.77 0 0 0 .7-.71 2.85 2.85 0 0 0 0-2.42 1.77 1.77 0 0 0 -.7-.71 2.83 2.83 0 0 0 -1-.34 7.19 7.19 0 0 0 -1.13-.1h-2.56z"/><path d="m288.07 471.2a4.05 4.05 0 0 0 -1.54-1.24 4.55 4.55 0 0 0 -1.93-.43 5.11 5.11 0 0 0 -2.21.46 5 5 0 0 0 -1.68 1.27 5.71 5.71 0 0 0 -1.09 1.89 6.86 6.86 0 0 0 -.39 2.33 6.38 6.38 0 0 0 .37 2.19 5.49 5.49 0 0 0 1 1.82 5.08 5.08 0 0 0 1.69 1.23 5.28 5.28 0 0 0 2.26.46 4.36 4.36 0 0 0 2.17-.52 4.73 4.73 0 0 0 1.59-1.44l1.64 1.26a7 7 0 0 1 -.57.65 5.86 5.86 0 0 1 -1.07.84 7.64 7.64 0 0 1 -1.62.75 6.9 6.9 0 0 1 -2.18.32 7 7 0 0 1 -3.08-.66 7.31 7.31 0 0 1 -2.34-1.74 7.53 7.53 0 0 1 -1.47-2.43 7.67 7.67 0 0 1 -.51-2.73 8.58 8.58 0 0 1 .55-3.13 7.2 7.2 0 0 1 1.53-2.48 6.76 6.76 0 0 1 2.37-1.62 7.75 7.75 0 0 1 3.05-.58 7.17 7.17 0 0 1 2.79.56 5.18 5.18 0 0 1 2.25 1.71z"/><path d="m292.36 468h9.29v1.86h-7.34v4.36h6.83v1.86h-6.83v4.69h7.69v1.86h-9.65z"/><path d="m304.78 468h2.56l7.92 12v-12h1.95v14.63h-2.48l-8-12v12h-2z"/><path d="m324 469.9h-4.63v-1.9h11.21v1.86h-4.63v12.77h-2z"/><path d="m335.26 468h1.74l6.15 14.63h-2.27l-1.45-3.62h-6.84l-1.43 3.62h-2.27zm3.49 9.28-2.68-6.72-2.72 6.72z"/><path d="m357.3 474.49v7.21a6.25 6.25 0 0 1 -1.19.57 12 12 0 0 1 -1.4.43 12.11 12.11 0 0 1 -2.85.34 8.17 8.17 0 0 1 -3.26-.62 7 7 0 0 1 -3.92-4.12 8.29 8.29 0 0 1 -.52-2.95 8 8 0 0 1 .56-3 7.4 7.4 0 0 1 1.54-2.44 7 7 0 0 1 2.37-1.62 7.51 7.51 0 0 1 3-.59 9 9 0 0 1 3.25.5 6 6 0 0 1 2.11 1.4l-1.38 1.51a5.05 5.05 0 0 0 -1.89-1.21 6.36 6.36 0 0 0 -2.09-.34 5.22 5.22 0 0 0 -2.24.46 5.27 5.27 0 0 0 -2.8 3.1 6.51 6.51 0 0 0 -.39 2.26 6 6 0 0 0 .43 2.31 5.47 5.47 0 0 0 2.94 3.08 5.6 5.6 0 0 0 2.22.44 9.5 9.5 0 0 0 2-.2 5.25 5.25 0 0 0 1.57-.57v-4.07h-3.19v-1.85z"/><path d="m360.86 468h9.29v1.86h-7.34v4.36h6.83v1.86h-6.83v4.69h7.7v1.86h-9.65z"/><path d="m57.86 28.5h2.25l4.23 11.9 4.39-11.9h2.17l-5.67 14.62h-1.83z"/><path d="m76.21 28.5h1.79l6.16 14.62h-2.31l-1.44-3.61h-6.85l-1.42 3.61h-2.27zm3.49 9.27-2.7-6.71-2.73 6.71z"/><path d="m86 28.5h5.06a5.78 5.78 0 0 1 2.28.38 3.92 3.92 0 0 1 1.41 1 3.41 3.41 0 0 1 .72 1.32 5.12 5.12 0 0 1 .2 1.42 3.84 3.84 0 0 1 -.24 1.35 3.92 3.92 0 0 1 -.7 1.18 4.11 4.11 0 0 1 -1.12.89 3.76 3.76 0 0 1 -1.47.44l4.08 6.67h-2.44l-3.65-6.44h-2.13v6.44h-2zm2 6.44h2.56a7.08 7.08 0 0 0 1.13-.09 3.19 3.19 0 0 0 1-.34 1.91 1.91 0 0 0 .7-.71 2.52 2.52 0 0 0 .26-1.21 2.5 2.5 0 0 0 -.26-1.21 1.84 1.84 0 0 0 -.7-.71 3 3 0 0 0 -1-.34 6.09 6.09 0 0 0 -1.13-.1h-2.56z"/><path d="m98.42 28.5h2v14.62h-2z"/><path d="m104.07 28.5h9.28v1.86h-7.35v4.35h6.82v1.86h-6.82v4.69h7.7v1.86h-9.65z"/><path d="m119.49 30.36h-4.63v-1.86h11.21v1.86h-4.63v12.76h-2z"/><path d="m131.54 36.88-5.45-8.38h2.5l3.93 6.42 4-6.42h2.38l-5.45 8.38v6.24h-2z"/><path d="m139.69 35.93a1.25 1.25 0 0 1 -.94-.4 1.35 1.35 0 0 1 0-1.92 1.3 1.3 0 0 1 1.88 0 1.35 1.35 0 0 1 0 1.92 1.25 1.25 0 0 1 -.94.4zm-1.34 6a1.31 1.31 0 0 1 .4-1 1.3 1.3 0 0 1 1.88 0 1.31 1.31 0 0 1 .4 1 1.28 1.28 0 0 1 -.4 1 1.28 1.28 0 0 1 -1.88 0 1.28 1.28 0 0 1 -.4-1.05z"/></g><path d="m174 42.17a9 9 0 0 1 -2.61 1 12.68 12.68 0 0 1 -2.76.3 7.76 7.76 0 0 1 -3-.57 6.79 6.79 0 0 1 -2.35-1.59 7.25 7.25 0 0 1 -1.52-2.44 8.4 8.4 0 0 1 -.55-3.09 8.31 8.31 0 0 1 .55-3.08 7.31 7.31 0 0 1 1.52-2.43 7 7 0 0 1 2.35-1.6 7.76 7.76 0 0 1 3-.58 6.94 6.94 0 0 1 5.19 2l-1 1a4.38 4.38 0 0 0 -.8-.73 5.54 5.54 0 0 0 -1-.58 6.38 6.38 0 0 0 -1.17-.37 5.46 5.46 0 0 0 -1.2-.14 6.28 6.28 0 0 0 -2.53.5 5.77 5.77 0 0 0 -1.92 1.36 6.27 6.27 0 0 0 -1.2 2.14 7.89 7.89 0 0 0 0 5.08 6.27 6.27 0 0 0 1.22 2 5.63 5.63 0 0 0 1.92 1.36 6.28 6.28 0 0 0 2.53.5 12.46 12.46 0 0 0 2.18-.19 5.47 5.47 0 0 0 1.85-.68v-4.87h-3.46v-1.24h4.76z" fill="#ff5aef"/><path d="m177 35.81a8.52 8.52 0 0 1 .54-3.08 7.49 7.49 0 0 1 1.53-2.43 7 7 0 0 1 2.34-1.6 8.15 8.15 0 0 1 6 0 7 7 0 0 1 2.35 1.6 7.31 7.31 0 0 1 1.52 2.43 8.31 8.31 0 0 1 .55 3.08 8.4 8.4 0 0 1 -.55 3.09 7.25 7.25 0 0 1 -1.52 2.44 6.79 6.79 0 0 1 -2.35 1.59 8.29 8.29 0 0 1 -6 0 6.84 6.84 0 0 1 -2.34-1.59 7.43 7.43 0 0 1 -1.53-2.44 8.61 8.61 0 0 1 -.54-3.09zm1.34 0a7.48 7.48 0 0 0 .42 2.54 6.11 6.11 0 0 0 1.22 2 5.63 5.63 0 0 0 1.92 1.36 6.28 6.28 0 0 0 2.53.5 6.21 6.21 0 0 0 2.53-.5 5.45 5.45 0 0 0 1.92-1.36 6 6 0 0 0 1.22-2 7.72 7.72 0 0 0 0-5.08 6 6 0 0 0 -1.22-2.05 5.58 5.58 0 0 0 -1.88-1.36 6.21 6.21 0 0 0 -2.53-.5 6.28 6.28 0 0 0 -2.53.5 5.77 5.77 0 0 0 -1.94 1.36 6.11 6.11 0 0 0 -1.22 2.05 7.48 7.48 0 0 0 -.44 2.54z" fill="#ff5aef"/><path d="m199.29 28.5h1.38l6.06 14.62h-1.51l-1.56-3.88h-7.66l-1.63 3.88h-1.37zm.63 1.48-3.35 8h6.6z" fill="#ff5aef"/><path d="m208.8 28.5h1.34v13.38h6.71v1.24h-8z" fill="#ff5aef"/><path d="m219 28.5h4.15a7.31 7.31 0 0 1 1.57.17 4.51 4.51 0 0 1 1.5.61 3.37 3.37 0 0 1 1.12 1.19 3.72 3.72 0 0 1 .44 1.89 3.78 3.78 0 0 1 -.36 1.71 3.2 3.2 0 0 1 -.95 1.19 4.07 4.07 0 0 1 -1.38.69 5.6 5.6 0 0 1 -1.64.23h-3.15v6.94h-1.3zm1.34 6.44h3a4.7 4.7 0 0 0 1.12-.13 2.86 2.86 0 0 0 1-.44 2.12 2.12 0 0 0 .69-.79 2.53 2.53 0 0 0 .27-1.22 2.37 2.37 0 0 0 -.28-1.2 2.42 2.42 0 0 0 -.71-.81 2.8 2.8 0 0 0 -1-.47 4.45 4.45 0 0 0 -1.14-.14h-3z" fill="#ff5aef"/><path d="m233.53 28.5h1.38l6.09 14.62h-1.51l-1.56-3.88h-7.62l-1.63 3.88h-1.4zm.63 1.48-3.35 8h6.6z" fill="#ff5aef"/><path d="m243 28.5h3.78.77a7 7 0 0 1 1.06.12 6.79 6.79 0 0 1 1.16.33 3.21 3.21 0 0 1 1.05.66 3.46 3.46 0 0 1 .78 1.1 3.89 3.89 0 0 1 .3 1.61 3.8 3.8 0 0 1 -.35 1.73 3.33 3.33 0 0 1 -.9 1.11 3.78 3.78 0 0 1 -1.19.63 7.61 7.61 0 0 1 -1.24.29l4.19 7h-1.53l-4-6.94h-2.5v6.94h-1.38zm1.34 6.44h2.85a4.57 4.57 0 0 0 1.71-.27 2.74 2.74 0 0 0 1-.66 2.16 2.16 0 0 0 .5-.84 2.71 2.71 0 0 0 0-1.66 2.16 2.16 0 0 0 -.5-.84 2.75 2.75 0 0 0 -1-.67 4.81 4.81 0 0 0 -1.71-.26h-2.85z" fill="#ff5aef"/><path d="m255.09 28.5h1.34v14.62h-1.34z" fill="#ff5aef"/><path d="m263.57 36.82-5.29-8.32h1.61l4.35 6.94 4.44-6.94h1.51l-5.28 8.32v6.3h-1.34z" fill="#ff5aef"/><path d="m274.94 28.5h1.39l6.05 14.62h-1.5l-1.57-3.88h-7.62l-1.62 3.88h-1.41zm.64 1.48-3.36 8h6.61z" fill="#ff5aef"/><path d="m59.83 61.78h5.06a5.87 5.87 0 0 1 2.27.38 3.89 3.89 0 0 1 1.42 1 3.41 3.41 0 0 1 .72 1.32 5.11 5.11 0 0 1 0 2.83 3.41 3.41 0 0 1 -.72 1.32 3.88 3.88 0 0 1 -1.42 1 5.69 5.69 0 0 1 -2.27.38h-3.11v6.45h-2zm2 6.45h2.56a7.17 7.17 0 0 0 1.13-.09 3.06 3.06 0 0 0 1-.35 1.77 1.77 0 0 0 .7-.71 2.38 2.38 0 0 0 .27-1.21 2.41 2.41 0 0 0 -.27-1.21 1.84 1.84 0 0 0 -.7-.71 3 3 0 0 0 -1-.34 7.17 7.17 0 0 0 -1.13-.09h-2.61z" fill="#fff"/><path d="m78.48 76.78a7.58 7.58 0 0 1 -3-.59 6.9 6.9 0 0 1 -2.36-1.62 7.42 7.42 0 0 1 -1.55-2.44 8.5 8.5 0 0 1 0-6.07 7.42 7.42 0 0 1 1.55-2.44 6.9 6.9 0 0 1 2.33-1.62 8.08 8.08 0 0 1 6.06 0 7 7 0 0 1 2.37 1.62 7.56 7.56 0 0 1 1.54 2.44 8.5 8.5 0 0 1 0 6.07 7.56 7.56 0 0 1 -1.54 2.44 7 7 0 0 1 -2.37 1.62 7.51 7.51 0 0 1 -3.03.59zm0-1.86a5.25 5.25 0 0 0 2.24-.46 5.32 5.32 0 0 0 1.7-1.25 5.55 5.55 0 0 0 1.1-1.85 6.77 6.77 0 0 0 0-4.53 5.55 5.55 0 0 0 -1.1-1.83 5.23 5.23 0 0 0 -3.94-1.71 5.27 5.27 0 0 0 -3.94 1.71 5.72 5.72 0 0 0 -1.1 1.85 6.94 6.94 0 0 0 0 4.53 5.72 5.72 0 0 0 1.1 1.85 5.18 5.18 0 0 0 3.94 1.71z" fill="#fff"/><path d="m88.78 61.78h5.06a6 6 0 0 1 2.28.38 3.77 3.77 0 0 1 1.41 1 3.17 3.17 0 0 1 .72 1.32 4.87 4.87 0 0 1 0 2.83 3.17 3.17 0 0 1 -.72 1.32 3.75 3.75 0 0 1 -1.41 1 5.78 5.78 0 0 1 -2.28.38h-3.1v6.45h-2zm2 6.45h2.52a7 7 0 0 0 1.12-.09 3 3 0 0 0 1-.35 1.84 1.84 0 0 0 .7-.71 2.39 2.39 0 0 0 .26-1.21 2.41 2.41 0 0 0 -.26-1.21 1.91 1.91 0 0 0 -.7-.71 3 3 0 0 0 -1-.34 7 7 0 0 0 -1.12-.09h-2.56z" fill="#fff"/><path d="m102.52 61.78v9a5.86 5.86 0 0 0 .18 1.41 4.51 4.51 0 0 0 .61 1.36 3.68 3.68 0 0 0 4.54 1 3.28 3.28 0 0 0 1.11-1 4.06 4.06 0 0 0 .61-1.36 5.89 5.89 0 0 0 .19-1.41v-9h1.95v9.28a6 6 0 0 1 -.43 2.32 5.46 5.46 0 0 1 -1.18 1.81 5.23 5.23 0 0 1 -1.77 1.18 6.08 6.08 0 0 1 -4.39 0 5.35 5.35 0 0 1 -2.94-3 6 6 0 0 1 -.43-2.32v-9.27z" fill="#fff"/><path d="m115.14 61.78h2v12.77h6.61v1.86h-8.56z" fill="#fff"/><path d="m130.2 61.78h1.8l6.15 14.63h-2.27l-1.44-3.62h-6.85l-1.43 3.62h-2.27zm3.49 9.28-2.69-6.72-2.72 6.72z" fill="#fff"/><path d="m140 61.78h5.05a5.93 5.93 0 0 1 2.28.38 3.77 3.77 0 0 1 1.41 1 3.17 3.17 0 0 1 .72 1.32 5.13 5.13 0 0 1 .21 1.41 4 4 0 0 1 -.25 1.36 3.68 3.68 0 0 1 -.7 1.17 4 4 0 0 1 -2.59 1.34l4.09 6.67h-2.44l-3.66-6.43h-2.18v6.45h-1.94zm1.94 6.45h2.56a7.08 7.08 0 0 0 1.13-.09 3 3 0 0 0 1-.35 1.84 1.84 0 0 0 .7-.71 2.39 2.39 0 0 0 .26-1.21 2.41 2.41 0 0 0 -.26-1.21 1.91 1.91 0 0 0 -.7-.71 3 3 0 0 0 -1-.34 7.08 7.08 0 0 0 -1.13-.09h-2.56z" fill="#fff"/><path d="m152.41 61.78h2v14.63h-2z" fill="#fff"/><path d="m161.07 63.64h-4.64v-1.86h11.22v1.86h-4.65v12.77h-2z" fill="#fff"/><path d="m173.12 70.17-5.45-8.39h2.5l3.92 6.43 4-6.43h2.37l-5.44 8.39v6.24h-1.95z" fill="#fff"/><path d="m181.27 69.22a1.27 1.27 0 0 1 -1-.4 1.35 1.35 0 0 1 -.4-1 1.31 1.31 0 0 1 .4-1 1.35 1.35 0 0 1 2.29 1 1.31 1.31 0 0 1 -.4 1 1.26 1.26 0 0 1 -.89.4zm-1.35 6a1.35 1.35 0 0 1 .4-1 1.32 1.32 0 0 1 1.89 0 1.35 1.35 0 0 1 0 1.92 1.32 1.32 0 0 1 -1.89 0 1.35 1.35 0 0 1 -.4-.97z" fill="#fff"/><path d="m211.61 62.9h-5.94l-.06 4.65a2.91 2.91 0 0 1 1-.33 6.74 6.74 0 0 1 1.08-.09 4.31 4.31 0 0 1 1.87.39 4 4 0 0 1 1.4 1 4.63 4.63 0 0 1 .9 1.54 5.48 5.48 0 0 1 .34 1.94 4.77 4.77 0 0 1 -.42 2.06 4.22 4.22 0 0 1 -1.09 1.47 4.45 4.45 0 0 1 -1.48.87 4.85 4.85 0 0 1 -1.61.29 5 5 0 0 1 -2.6-.69 4.47 4.47 0 0 1 -1.65-1.82l1.26-.64a3 3 0 0 0 .49.77 3.67 3.67 0 0 0 .72.64 3.81 3.81 0 0 0 .88.44 2.91 2.91 0 0 0 2-.06 3.6 3.6 0 0 0 1.06-.66 3.65 3.65 0 0 0 .81-1.09 3.38 3.38 0 0 0 .32-1.53 4.09 4.09 0 0 0 -.27-1.48 3.72 3.72 0 0 0 -.76-1.2 3.61 3.61 0 0 0 -1.15-.82 3.43 3.43 0 0 0 -1.43-.3 4.12 4.12 0 0 0 -1.51.28 5.92 5.92 0 0 0 -1.34.71l.12-7.46h7.1z" fill="#fff"/><path d="m214.7 75.54a1 1 0 0 1 .28-.7 1 1 0 0 1 1.38 0 1 1 0 0 1 .29.7 1 1 0 0 1 -.29.71 1 1 0 0 1 -1.38 0 1 1 0 0 1 -.28-.71z" fill="#fff"/><path d="m221.73 68.23a2.42 2.42 0 0 1 1-.47 5 5 0 0 1 1.15-.15 4.47 4.47 0 0 1 1.77.35 4.16 4.16 0 0 1 1.4 1 4.45 4.45 0 0 1 .92 1.43 4.83 4.83 0 0 1 .32 1.76 4.77 4.77 0 0 1 -.35 1.83 4.3 4.3 0 0 1 -1 1.44 4.66 4.66 0 0 1 -1.49.94 5.27 5.27 0 0 1 -1.88.34 5.19 5.19 0 0 1 -1.88-.34 4.6 4.6 0 0 1 -1.5-.94 4.14 4.14 0 0 1 -1-1.44 4.6 4.6 0 0 1 -.36-1.83 4.79 4.79 0 0 1 .17-1.15 5.13 5.13 0 0 1 .33-1c.13-.31.28-.61.42-.88s.3-.54.45-.79l3.9-6.59h1.55zm1.87.45a3.18 3.18 0 0 0 -1.32.27 3.33 3.33 0 0 0 -1.07.73 3.38 3.38 0 0 0 -.72 1.1 3.33 3.33 0 0 0 -.27 1.33 3.71 3.71 0 0 0 .25 1.4 3 3 0 0 0 1.76 1.78 3.88 3.88 0 0 0 2.74 0 3 3 0 0 0 1.06-.7 3.2 3.2 0 0 0 .7-1.08 3.92 3.92 0 0 0 .24-1.4 3.5 3.5 0 0 0 -.26-1.33 3.58 3.58 0 0 0 -.73-1.1 3.33 3.33 0 0 0 -1.07-.73 3.27 3.27 0 0 0 -1.31-.27z" fill="#fff"/><path d="m232.29 68.23a2.54 2.54 0 0 1 1-.47 4.91 4.91 0 0 1 1.15-.15 4.54 4.54 0 0 1 1.77.35 4.16 4.16 0 0 1 1.4 1 4.42 4.42 0 0 1 .91 1.43 4.84 4.84 0 0 1 0 3.59 4.28 4.28 0 0 1 -1 1.44 4.6 4.6 0 0 1 -1.5.94 5.19 5.19 0 0 1 -1.88.34 5.27 5.27 0 0 1 -1.88-.34 4.66 4.66 0 0 1 -1.49-.94 4.3 4.3 0 0 1 -1-1.44 5 5 0 0 1 -.23-2.92 5.13 5.13 0 0 1 .33-1 9 9 0 0 1 .42-.88c.15-.28.3-.54.45-.79l3.9-6.59h1.55zm1.87.45a3.25 3.25 0 0 0 -1.32.27 3.57 3.57 0 0 0 -1.07.73 3.74 3.74 0 0 0 -.72 1.1 3.5 3.5 0 0 0 -.26 1.33 3.92 3.92 0 0 0 .24 1.4 3.33 3.33 0 0 0 .69 1.08 3.11 3.11 0 0 0 1.07.7 3.88 3.88 0 0 0 2.74 0 3 3 0 0 0 1.76-1.78 3.92 3.92 0 0 0 .25-1.4 3.33 3.33 0 0 0 -.27-1.33 3.38 3.38 0 0 0 -.72-1.1 3.27 3.27 0 0 0 -1.08-.73 3.23 3.23 0 0 0 -1.31-.27z" fill="#fff"/><path d="m240.22 65.09a3.55 3.55 0 0 1 .27-1.39 3.76 3.76 0 0 1 .76-1.12 3.37 3.37 0 0 1 2.46-1 3.46 3.46 0 0 1 1.37.28 3.66 3.66 0 0 1 1.85 1.89 3.39 3.39 0 0 1 .28 1.39 3.34 3.34 0 0 1 -.28 1.38 3.6 3.6 0 0 1 -.75 1.13 3.5 3.5 0 0 1 -1.1.76 3.47 3.47 0 0 1 -2.73 0 3.39 3.39 0 0 1 -1.1-.76 3.81 3.81 0 0 1 -.76-1.13 3.5 3.5 0 0 1 -.27-1.43zm1.1 0a2.38 2.38 0 0 0 .19 1 2.55 2.55 0 0 0 .52.77 2.24 2.24 0 0 0 .76.52 2.35 2.35 0 0 0 1.85 0 2.34 2.34 0 0 0 .76-.52 2.55 2.55 0 0 0 .52-.77 2.38 2.38 0 0 0 .19-1 2.32 2.32 0 0 0 -.19-1 2.48 2.48 0 0 0 -.52-.78 2.31 2.31 0 0 0 -.76-.51 2.35 2.35 0 0 0 -1.85 0 2.21 2.21 0 0 0 -.76.51 2.48 2.48 0 0 0 -.52.78 2.32 2.32 0 0 0 -.19 1zm10.6-4 .94.58-9.29 15.45-.91-.58zm-3.67 12a3.54 3.54 0 0 1 .27-1.38 3.6 3.6 0 0 1 .75-1.13 3.71 3.71 0 0 1 1.11-.76 3.44 3.44 0 0 1 2.72 0 3.71 3.71 0 0 1 1.11.76 3.6 3.6 0 0 1 .75 1.13 3.57 3.57 0 0 1 0 2.77 3.44 3.44 0 0 1 -.75 1.12 3.57 3.57 0 0 1 -1.11.77 3.44 3.44 0 0 1 -2.72 0 3.57 3.57 0 0 1 -1.11-.77 3.44 3.44 0 0 1 -.75-1.12 3.55 3.55 0 0 1 -.27-1.38zm1.09 0a2.4 2.4 0 0 0 .2 1 2.52 2.52 0 0 0 .51.77 2.43 2.43 0 0 0 .77.52 2.39 2.39 0 0 0 .92.18 2.36 2.36 0 0 0 .92-.18 2.43 2.43 0 0 0 .77-.52 2.75 2.75 0 0 0 .52-.77 2.55 2.55 0 0 0 0-1.93 2.75 2.75 0 0 0 -.52-.77 2.43 2.43 0 0 0 -.77-.52 2.36 2.36 0 0 0 -.92-.18 2.39 2.39 0 0 0 -.92.18 2.43 2.43 0 0 0 -.77.52 2.52 2.52 0 0 0 -.51.77 2.39 2.39 0 0 0 -.2.94z" fill="#fff"/><path d="m118.72 115.6h363.62" fill="none" stroke="#fff" stroke-miterlimit="1.18" stroke-width=".25"/></svg>