<svg viewBox="0 0 599.02 514.27" xmlns="http://www.w3.org/2000/svg"><rect fill="#191919" height="513.52" rx="12" width="598.27" x=".38" y=".38"/><rect fill="none" height="513.52" rx="12" stroke="#fff" stroke-miterlimit="1.18" stroke-width=".75" width="598.27" x=".38" y=".38"/><path d="m32 362v-2h12.75v-6.71h1.86v8.71z" fill="#fff"/><path d="m32 351.22v-9.44h1.86v7.46h4.34v-6.94h1.86v6.94h4.69v-7.83h1.86v9.81z" fill="#fff"/><path d="m32 340.6v-2.29l11.9-4.3-11.9-4.5v-2.17l14.63 5.76v1.9z" fill="#fff"/><path d="m32 325.58v-9.44h1.86v7.46h4.34v-6.94h1.86v6.94h4.69v-7.83h1.86v9.81z" fill="#fff"/><path d="m32 313v-2h12.75v-6.72h1.86v8.72z" fill="#fff"/><path d="m47 289.78a7.94 7.94 0 0 1 -.59 3.08 7.11 7.11 0 0 1 -1.62 2.41 7.64 7.64 0 0 1 -2.44 1.57 8.37 8.37 0 0 1 -6.07 0 7.64 7.64 0 0 1 -2.44-1.57 7.11 7.11 0 0 1 -1.62-2.41 8.33 8.33 0 0 1 0-6.16 7.07 7.07 0 0 1 1.62-2.4 7.31 7.31 0 0 1 2.44-1.57 8.37 8.37 0 0 1 6.07 0 7.31 7.31 0 0 1 2.44 1.57 7.07 7.07 0 0 1 1.62 2.4 8 8 0 0 1 .59 3.08zm-1.86 0a5.35 5.35 0 0 0 -.46-2.27 5.49 5.49 0 0 0 -1.25-1.74 5.57 5.57 0 0 0 -1.85-1.11 6.61 6.61 0 0 0 -4.53 0 5.57 5.57 0 0 0 -1.85 1.11 5.49 5.49 0 0 0 -1.25 1.74 5.49 5.49 0 0 0 1.25 6.28 5.76 5.76 0 0 0 1.8 1.12 6.77 6.77 0 0 0 4.53 0 5.76 5.76 0 0 0 1.85-1.12 5.31 5.31 0 0 0 1.71-4z" fill="#fff"/><path d="m32 279.31v-9.2h1.86v7.21h4.59v-6.71h1.86v6.71h6.32v2z" fill="#fff"/><path d="m32 261.71v-5.15a6.06 6.06 0 0 1 .38-2.31 4 4 0 0 1 1-1.44 3.42 3.42 0 0 1 1.33-.73 4.87 4.87 0 0 1 2.83 0 3.31 3.31 0 0 1 1.32.73 3.88 3.88 0 0 1 1 1.44 6.06 6.06 0 0 1 .38 2.31v3.16h6.45v2zm6.45-2v-2.6a6.3 6.3 0 0 0 -.1-1.15 2.94 2.94 0 0 0 -.34-1 1.8 1.8 0 0 0 -.71-.71 2.85 2.85 0 0 0 -2.42 0 1.86 1.86 0 0 0 -.71.71 2.94 2.94 0 0 0 -.34 1 7.33 7.33 0 0 0 -.09 1.15v2.6z" fill="#fff"/><path d="m32 249.45v-5.14a6.06 6.06 0 0 1 .38-2.31 4 4 0 0 1 1-1.44 3.29 3.29 0 0 1 1.33-.73 5.13 5.13 0 0 1 1.41-.21 3.86 3.86 0 0 1 2.53 1 4.06 4.06 0 0 1 .89 1.14 3.81 3.81 0 0 1 .44 1.5l6.68-4.16v2.48l-6.45 3.72v2.21h6.45v2zm6.45-2v-2.6a6.3 6.3 0 0 0 -.1-1.15 2.94 2.94 0 0 0 -.34-1 1.8 1.8 0 0 0 -.71-.71 2.85 2.85 0 0 0 -2.42 0 1.86 1.86 0 0 0 -.71.71 2.94 2.94 0 0 0 -.34 1 7.33 7.33 0 0 0 -.09 1.15v2.6z" fill="#fff"/><path d="m32 236.83v-2h14.61v2z" fill="#fff"/><path d="m32 231.42v-5.1a9.61 9.61 0 0 1 .35-2.72 7.61 7.61 0 0 1 .94-2 6.11 6.11 0 0 1 1.35-1.42 7.19 7.19 0 0 1 1.58-.9 7.37 7.37 0 0 1 1.61-.47 8.07 8.07 0 0 1 1.48-.15 7.23 7.23 0 0 1 2.72.52 6.78 6.78 0 0 1 2.34 1.53 7.59 7.59 0 0 1 1.63 2.48 9 9 0 0 1 .62 3.46v4.77zm12.77-2v-2.5a8.47 8.47 0 0 0 -.34-2.39 5.7 5.7 0 0 0 -1-2 4.81 4.81 0 0 0 -1.7-1.35 5.43 5.43 0 0 0 -2.39-.49 7.21 7.21 0 0 0 -1.64.22 5.18 5.18 0 0 0 -1.79.86 5.05 5.05 0 0 0 -1.43 1.75 6.21 6.21 0 0 0 -.59 2.89v3z" fill="#fff"/><path d="m32 215.78v-9.44h1.86v7.46h4.34v-7h1.86v7h4.69v-7.8h1.86v9.81z" fill="#fff"/><path d="m66 432.5c0-.55 0-1.13.08-1.75a12 12 0 0 1 .28-1.81 9.22 9.22 0 0 1 .57-1.68 5 5 0 0 1 .93-1.4 4.06 4.06 0 0 1 1.36-1 5.12 5.12 0 0 1 3.77 0 4.17 4.17 0 0 1 1.36 1 5 5 0 0 1 .93 1.4 9.2 9.2 0 0 1 .56 1.68 13.39 13.39 0 0 1 .29 1.81c0 .62.07 1.2.07 1.75s0 1.16-.07 1.77a13.5 13.5 0 0 1 -.29 1.8 9.36 9.36 0 0 1 -.56 1.67 5.23 5.23 0 0 1 -.93 1.41 4.17 4.17 0 0 1 -1.36 1 5.12 5.12 0 0 1 -3.77 0 4.06 4.06 0 0 1 -1.36-1 5.23 5.23 0 0 1 -.93-1.41 9.39 9.39 0 0 1 -.57-1.67 12 12 0 0 1 -.28-1.8c-.08-.61-.08-1.2-.08-1.77zm1.44 0v1.34a11.15 11.15 0 0 0 .17 1.49 9.33 9.33 0 0 0 .39 1.47 5.23 5.23 0 0 0 .65 1.27 3 3 0 0 0 1 .89 2.73 2.73 0 0 0 1.41.34 2.78 2.78 0 0 0 1.41-.34 3 3 0 0 0 1-.89 4.61 4.61 0 0 0 .65-1.27 9.37 9.37 0 0 0 .39-1.47c.08-.51.14-1 .17-1.49s0-.93 0-1.34 0-.83 0-1.33-.09-1-.17-1.49a9.37 9.37 0 0 0 -.39-1.47 4.61 4.61 0 0 0 -.65-1.27 3.19 3.19 0 0 0 -1-.9 2.88 2.88 0 0 0 -1.41-.34 2.84 2.84 0 0 0 -1.4.34 3.23 3.23 0 0 0 -1 .9 5.23 5.23 0 0 0 -.65 1.27 9.33 9.33 0 0 0 -.38 1.47 11 11 0 0 0 -.17 1.49c-.05.5-.07.94-.07 1.33z" fill="#fff"/><path d="m133.31 426h-6.37l-.06 4.9a3.32 3.32 0 0 1 1.09-.35 7.65 7.65 0 0 1 1.16-.09 4.77 4.77 0 0 1 2 .41 4.49 4.49 0 0 1 1.51 1.1 5 5 0 0 1 1 1.62 5.82 5.82 0 0 1 .34 2 5 5 0 0 1 -.45 2.18 4.6 4.6 0 0 1 -1.17 1.55 4.77 4.77 0 0 1 -1.59.91 5 5 0 0 1 -1.72.31 5.32 5.32 0 0 1 -2.84-.7 4.72 4.72 0 0 1 -1.78-1.92l1.35-.67a3.23 3.23 0 0 0 .54.82 3.82 3.82 0 0 0 .77.67 3.57 3.57 0 0 0 .94.46 3.2 3.2 0 0 0 1 .16 3.13 3.13 0 0 0 1.14-.23 3.78 3.78 0 0 0 1.13-.68 3.68 3.68 0 0 0 .87-1.16 3.57 3.57 0 0 0 .35-1.61 4.09 4.09 0 0 0 -.3-1.56 3.83 3.83 0 0 0 -3.58-2.45 4.67 4.67 0 0 0 -1.61.29 6.16 6.16 0 0 0 -1.44.76l.13-7.87h7.61z" fill="#fff"/><path d="m181.63 426.62-2.79 2.29-.8-1 3.81-3.12h1.11v15.43h-1.31z" fill="#fff"/><path d="m187.84 432.5c0-.55 0-1.13.08-1.75a13.38 13.38 0 0 1 .28-1.81 9.22 9.22 0 0 1 .57-1.68 5 5 0 0 1 .93-1.4 4.06 4.06 0 0 1 1.36-1 5.12 5.12 0 0 1 3.77 0 4.17 4.17 0 0 1 1.36 1 5 5 0 0 1 .93 1.4 9.2 9.2 0 0 1 .56 1.68 13.39 13.39 0 0 1 .29 1.81c.05.62.07 1.2.07 1.75s0 1.16-.07 1.77a13.5 13.5 0 0 1 -.29 1.8 9.36 9.36 0 0 1 -.56 1.67 5.23 5.23 0 0 1 -.93 1.41 4.17 4.17 0 0 1 -1.36 1 5.12 5.12 0 0 1 -3.77 0 4.06 4.06 0 0 1 -1.36-1 5.23 5.23 0 0 1 -.93-1.41 9.39 9.39 0 0 1 -.57-1.67 13.48 13.48 0 0 1 -.28-1.8c-.05-.61-.08-1.2-.08-1.77zm1.44 0c0 .41 0 .86.05 1.34a11.15 11.15 0 0 0 .17 1.49 9.33 9.33 0 0 0 .38 1.47 5.23 5.23 0 0 0 .65 1.27 3 3 0 0 0 1 .89 2.73 2.73 0 0 0 1.41.34 2.78 2.78 0 0 0 1.41-.34 3 3 0 0 0 1-.89 4.61 4.61 0 0 0 .65-1.27 9.37 9.37 0 0 0 .39-1.47c.08-.51.14-1 .17-1.49s0-.93 0-1.34 0-.83 0-1.33-.09-1-.17-1.49a9.37 9.37 0 0 0 -.39-1.47 4.61 4.61 0 0 0 -.65-1.27 3.19 3.19 0 0 0 -1-.9 2.88 2.88 0 0 0 -1.41-.34 2.84 2.84 0 0 0 -1.4.34 3.23 3.23 0 0 0 -1 .9 5.23 5.23 0 0 0 -.65 1.27 9.33 9.33 0 0 0 -.38 1.47 11 11 0 0 0 -.17 1.49c-.04.5-.06.94-.06 1.33z" fill="#fff"/><path d="m239.74 426.62-2.79 2.29-.8-1 3.81-3.12h1.11v15.43h-1.31z" fill="#fff"/><path d="m255.2 426h-6.37l-.06 4.9a3.32 3.32 0 0 1 1.09-.35 7.65 7.65 0 0 1 1.16-.09 4.77 4.77 0 0 1 2 .41 4.49 4.49 0 0 1 1.51 1.1 5 5 0 0 1 1 1.62 5.82 5.82 0 0 1 .34 2 5 5 0 0 1 -.45 2.18 4.6 4.6 0 0 1 -1.17 1.55 4.77 4.77 0 0 1 -1.59.91 5 5 0 0 1 -1.72.31 5.32 5.32 0 0 1 -2.84-.7 4.72 4.72 0 0 1 -1.78-1.92l1.35-.67a3.23 3.23 0 0 0 .54.82 3.82 3.82 0 0 0 .77.67 3.57 3.57 0 0 0 .94.46 3.2 3.2 0 0 0 1 .16 3 3 0 0 0 1.13-.23 3.59 3.59 0 0 0 2-1.84 3.57 3.57 0 0 0 .35-1.61 4.09 4.09 0 0 0 -.3-1.56 3.83 3.83 0 0 0 -3.58-2.45 4.67 4.67 0 0 0 -1.61.29 6.16 6.16 0 0 0 -1.44.76l.13-7.87h7.61z" fill="#fff"/><path d="m293.06 438.69 5.8-6.12q.39-.39.78-.84a8 8 0 0 0 .71-.94 4.94 4.94 0 0 0 .51-1 3.52 3.52 0 0 0 .2-1.18 2.66 2.66 0 0 0 -.87-2.11 3.22 3.22 0 0 0 -2.2-.77 3.07 3.07 0 0 0 -2 .7 3.22 3.22 0 0 0 -1.07 1.83l-1.52-.15a4.1 4.1 0 0 1 1.63-2.67 5.18 5.18 0 0 1 3.05-.88 5.31 5.31 0 0 1 1.7.27 4.52 4.52 0 0 1 1.42.77 3.89 3.89 0 0 1 1 1.23 3.76 3.76 0 0 1 .36 1.67 4.94 4.94 0 0 1 -.27 1.66 7.84 7.84 0 0 1 -.72 1.45 8.45 8.45 0 0 1 -1 1.29c-.38.41-.77.82-1.16 1.22l-4.82 5h8.11v1.18h-9.55z" fill="#fff"/><path d="m304.07 432.5c0-.55 0-1.13.07-1.75a12 12 0 0 1 .29-1.81 9.2 9.2 0 0 1 .56-1.68 5 5 0 0 1 .93-1.4 4.17 4.17 0 0 1 1.36-1 5.12 5.12 0 0 1 3.77 0 4.06 4.06 0 0 1 1.36 1 5 5 0 0 1 .93 1.4 9.22 9.22 0 0 1 .57 1.68 13.38 13.38 0 0 1 .28 1.81c.05.62.08 1.2.08 1.75s0 1.16-.08 1.77a13.48 13.48 0 0 1 -.28 1.8 9.39 9.39 0 0 1 -.57 1.67 5.23 5.23 0 0 1 -.93 1.41 4.06 4.06 0 0 1 -1.36 1 5.12 5.12 0 0 1 -3.77 0 4.17 4.17 0 0 1 -1.36-1 5.23 5.23 0 0 1 -.93-1.41 9.36 9.36 0 0 1 -.56-1.67 12.06 12.06 0 0 1 -.29-1.8c-.05-.61-.07-1.2-.07-1.77zm1.44 0v1.34s.09 1 .17 1.49a9.37 9.37 0 0 0 .39 1.47 4.61 4.61 0 0 0 .65 1.27 3.12 3.12 0 0 0 1 .89 3.09 3.09 0 0 0 2.82 0 3 3 0 0 0 1-.89 4.92 4.92 0 0 0 .66-1.27 9.33 9.33 0 0 0 .38-1.47 13.08 13.08 0 0 0 .17-1.49c0-.48.05-.93.05-1.34s0-.83-.05-1.33a12.83 12.83 0 0 0 -.17-1.49 9.33 9.33 0 0 0 -.38-1.47 4.92 4.92 0 0 0 -.66-1.27 3.09 3.09 0 0 0 -1-.9 3.07 3.07 0 0 0 -2.81 0 3.19 3.19 0 0 0 -1 .9 4.61 4.61 0 0 0 -.65 1.27 9.37 9.37 0 0 0 -.39 1.47c-.08.5-.14 1-.17 1.49s-.01.94-.01 1.33z" fill="#fff"/><path d="m351.17 438.69 5.8-6.12q.39-.39.78-.84a7 7 0 0 0 .71-.94 5.53 5.53 0 0 0 .52-1 3.52 3.52 0 0 0 .19-1.18 2.66 2.66 0 0 0 -.87-2.11 3.22 3.22 0 0 0 -2.2-.77 3.07 3.07 0 0 0 -2 .7 3.22 3.22 0 0 0 -1.07 1.83l-1.52-.15a4.14 4.14 0 0 1 1.63-2.67 5.2 5.2 0 0 1 3.05-.88 5.27 5.27 0 0 1 1.7.27 4.52 4.52 0 0 1 1.42.77 3.63 3.63 0 0 1 1.33 2.9 4.94 4.94 0 0 1 -.27 1.66 7.26 7.26 0 0 1 -.72 1.45 8.45 8.45 0 0 1 -1 1.29c-.38.41-.77.82-1.16 1.22l-4.82 5h8.11v1.18h-9.55z" fill="#fff"/><path d="m371.42 426h-6.36l-.07 4.9a3.32 3.32 0 0 1 1.09-.35 7.75 7.75 0 0 1 1.16-.09 4.77 4.77 0 0 1 2 .41 4.49 4.49 0 0 1 1.51 1.1 4.87 4.87 0 0 1 1 1.62 5.59 5.59 0 0 1 .34 2 5 5 0 0 1 -.45 2.18 4.45 4.45 0 0 1 -1.16 1.55 4.87 4.87 0 0 1 -1.59.91 5 5 0 0 1 -1.72.31 5.33 5.33 0 0 1 -2.85-.7 4.69 4.69 0 0 1 -1.77-1.92l1.35-.67a3.19 3.19 0 0 0 .53.82 4.12 4.12 0 0 0 .77.67 3.73 3.73 0 0 0 .94.46 3.31 3.31 0 0 0 1 .16 3.12 3.12 0 0 0 1.13-.23 3.78 3.78 0 0 0 1.13-.68 3.68 3.68 0 0 0 .87-1.16 3.44 3.44 0 0 0 .35-1.61 4.28 4.28 0 0 0 -.29-1.56 4 4 0 0 0 -.82-1.27 3.82 3.82 0 0 0 -2.77-1.18 4.67 4.67 0 0 0 -1.61.29 6.59 6.59 0 0 0 -1.44.76l.13-7.87h7.61z" fill="#fff"/><path d="m410.7 437a4 4 0 0 0 1.19 1.71 3.22 3.22 0 0 0 2.06.6 3.87 3.87 0 0 0 1.5-.26 2.77 2.77 0 0 0 1.08-.72 2.83 2.83 0 0 0 .64-1.07 3.7 3.7 0 0 0 .22-1.3 2.8 2.8 0 0 0 -.36-1.46 3 3 0 0 0 -.93-1 4.06 4.06 0 0 0 -1.31-.56 6.16 6.16 0 0 0 -1.47-.18h-.57v-1.3h.65a4.87 4.87 0 0 0 1.24-.17 3.52 3.52 0 0 0 1.11-.51 2.65 2.65 0 0 0 .79-.9 2.68 2.68 0 0 0 .31-1.34 2.71 2.71 0 0 0 -2.85-2.84 3.17 3.17 0 0 0 -1.72.49 3.47 3.47 0 0 0 -1.2 1.32l-1.24-.69a4 4 0 0 1 1.73-1.75 5.48 5.48 0 0 1 2.43-.54 5.34 5.34 0 0 1 1.66.25 4 4 0 0 1 1.37.74 3.58 3.58 0 0 1 .93 1.23 4.25 4.25 0 0 1 .34 1.74 3.77 3.77 0 0 1 -.7 2.24 3.66 3.66 0 0 1 -2 1.34 4 4 0 0 1 1.34.49 4.42 4.42 0 0 1 1 .88 3.93 3.93 0 0 1 .67 1.18 4 4 0 0 1 .24 1.4 5.13 5.13 0 0 1 -.29 1.72 3.92 3.92 0 0 1 -.9 1.4 4.19 4.19 0 0 1 -1.49.95 5.79 5.79 0 0 1 -2.09.35 5.56 5.56 0 0 1 -2.95-.73 4.4 4.4 0 0 1 -1.82-2.3z" fill="#fff"/><path d="m420.29 432.5c0-.55 0-1.13.08-1.75a12 12 0 0 1 .28-1.81 9.22 9.22 0 0 1 .57-1.68 5.23 5.23 0 0 1 .92-1.4 4.11 4.11 0 0 1 1.37-1 4.5 4.5 0 0 1 1.88-.36 4.59 4.59 0 0 1 1.89.36 4.17 4.17 0 0 1 1.36 1 5 5 0 0 1 .92 1.4 9.22 9.22 0 0 1 .57 1.68 12 12 0 0 1 .28 1.81c0 .62.08 1.2.08 1.75s0 1.16-.08 1.77a12 12 0 0 1 -.28 1.8 9.39 9.39 0 0 1 -.57 1.67 5.2 5.2 0 0 1 -.92 1.41 4.17 4.17 0 0 1 -1.36 1 4.59 4.59 0 0 1 -1.89.36 4.5 4.5 0 0 1 -1.88-.36 4.11 4.11 0 0 1 -1.37-1 5.45 5.45 0 0 1 -.92-1.41 9.39 9.39 0 0 1 -.57-1.67 12 12 0 0 1 -.28-1.8c-.05-.61-.08-1.2-.08-1.77zm1.44 0v1.34a13.14 13.14 0 0 0 .18 1.49 8.36 8.36 0 0 0 .38 1.47 4.61 4.61 0 0 0 .65 1.27 3.12 3.12 0 0 0 1 .89 3.11 3.11 0 0 0 2.83 0 3 3 0 0 0 1-.89 4.9 4.9 0 0 0 .65-1.27 8.36 8.36 0 0 0 .38-1.47 13.14 13.14 0 0 0 .18-1.49c0-.48 0-.93 0-1.34s0-.83 0-1.33a12.87 12.87 0 0 0 -.18-1.49 8.36 8.36 0 0 0 -.38-1.47 4.9 4.9 0 0 0 -.65-1.27 3.19 3.19 0 0 0 -1-.9 2.88 2.88 0 0 0 -1.41-.34 2.82 2.82 0 0 0 -1.4.34 3.12 3.12 0 0 0 -1 .9 4.61 4.61 0 0 0 -.65 1.27 8.36 8.36 0 0 0 -.38 1.47 12.87 12.87 0 0 0 -.18 1.49c-.01.5-.02.94-.02 1.33z" fill="#fff"/><path d="m468.81 437a4.09 4.09 0 0 0 1.19 1.7 3.22 3.22 0 0 0 2.06.6 4 4 0 0 0 1.51-.26 2.81 2.81 0 0 0 1.07-.72 3 3 0 0 0 .65-1.07 3.94 3.94 0 0 0 .21-1.3 2.89 2.89 0 0 0 -.35-1.46 3.08 3.08 0 0 0 -.94-1 4.06 4.06 0 0 0 -1.31-.56 6.16 6.16 0 0 0 -1.47-.18h-.57v-1.3h.66a4.86 4.86 0 0 0 1.23-.17 3.52 3.52 0 0 0 1.11-.51 2.55 2.55 0 0 0 .79-.9 2.68 2.68 0 0 0 .31-1.34 2.82 2.82 0 0 0 -.77-2 2.78 2.78 0 0 0 -2.08-.8 3.2 3.2 0 0 0 -1.73.49 3.45 3.45 0 0 0 -1.19 1.32l-1.25-.69a3.93 3.93 0 0 1 1.74-1.75 5.42 5.42 0 0 1 2.43-.54 5.27 5.27 0 0 1 1.65.25 4 4 0 0 1 1.37.74 3.46 3.46 0 0 1 .93 1.23 4.09 4.09 0 0 1 .34 1.74 3.71 3.71 0 0 1 -.7 2.24 3.62 3.62 0 0 1 -2.05 1.34 3.9 3.9 0 0 1 1.34.49 4.22 4.22 0 0 1 1 .88 3.93 3.93 0 0 1 .67 1.18 4 4 0 0 1 .24 1.4 5.13 5.13 0 0 1 -.29 1.72 4 4 0 0 1 -.89 1.4 4.24 4.24 0 0 1 -1.5.95 5.75 5.75 0 0 1 -2.09.35 5.56 5.56 0 0 1 -2.95-.73 4.4 4.4 0 0 1 -1.82-2.3z" fill="#fff"/><path d="m487.64 426h-6.36l-.07 4.9a3.38 3.38 0 0 1 1.1-.35 7.65 7.65 0 0 1 1.16-.09 4.77 4.77 0 0 1 2 .41 4.36 4.36 0 0 1 1.5 1.1 4.89 4.89 0 0 1 1 1.62 5.82 5.82 0 0 1 .34 2 5 5 0 0 1 -.45 2.18 4.6 4.6 0 0 1 -1.17 1.55 4.87 4.87 0 0 1 -1.59.91 5 5 0 0 1 -1.72.31 5.32 5.32 0 0 1 -2.84-.7 4.65 4.65 0 0 1 -1.78-1.92l1.35-.67a3.47 3.47 0 0 0 .53.82 4.18 4.18 0 0 0 .78.67 3.57 3.57 0 0 0 .94.46 3.2 3.2 0 0 0 1 .16 3 3 0 0 0 1.13-.23 3.71 3.71 0 0 0 1.14-.68 3.84 3.84 0 0 0 .87-1.16 3.57 3.57 0 0 0 .35-1.61 4.09 4.09 0 0 0 -.3-1.56 4 4 0 0 0 -.81-1.27 3.86 3.86 0 0 0 -2.77-1.18 4.63 4.63 0 0 0 -1.61.29 6.16 6.16 0 0 0 -1.44.76l.13-7.87h7.6z" fill="#fff"/><path d="m531.79 436.43h-6.67v-1.55l6.16-10.09h1.81v10.46h2.36v1.18h-2.36v3.79h-1.3zm0-10.2-5.45 9h5.5z" fill="#fff"/><path d="m536.51 432.5c0-.55 0-1.13.08-1.75a13.38 13.38 0 0 1 .28-1.81 9.22 9.22 0 0 1 .57-1.68 5 5 0 0 1 .93-1.4 4.06 4.06 0 0 1 1.36-1 5.12 5.12 0 0 1 3.77 0 4.17 4.17 0 0 1 1.36 1 5 5 0 0 1 .93 1.4 8.5 8.5 0 0 1 .56 1.68 12 12 0 0 1 .29 1.81c.05.62.07 1.2.07 1.75s0 1.16-.07 1.77a12.06 12.06 0 0 1 -.29 1.8 8.63 8.63 0 0 1 -.56 1.67 5.23 5.23 0 0 1 -.93 1.41 4.17 4.17 0 0 1 -1.36 1 5.12 5.12 0 0 1 -3.77 0 4.06 4.06 0 0 1 -1.36-1 5.23 5.23 0 0 1 -.93-1.41 9.39 9.39 0 0 1 -.57-1.67 13.48 13.48 0 0 1 -.28-1.8c-.05-.61-.08-1.2-.08-1.77zm1.44 0v1.34a13.08 13.08 0 0 0 .17 1.49 9.33 9.33 0 0 0 .38 1.47 4.92 4.92 0 0 0 .66 1.27 3 3 0 0 0 1 .89 2.73 2.73 0 0 0 1.41.34 2.78 2.78 0 0 0 1.43-.3 3 3 0 0 0 1-.89 4.92 4.92 0 0 0 .66-1.27 10.57 10.57 0 0 0 .38-1.47c.08-.51.14-1 .17-1.49s0-.93 0-1.34 0-.83 0-1.33-.09-1-.17-1.49a10.57 10.57 0 0 0 -.38-1.47 4.92 4.92 0 0 0 -.66-1.27 3.19 3.19 0 0 0 -1-.9 3.07 3.07 0 0 0 -2.81 0 3.09 3.09 0 0 0 -1 .9 4.92 4.92 0 0 0 -.66 1.27 9.33 9.33 0 0 0 -.38 1.47 12.83 12.83 0 0 0 -.17 1.49c.02.46.02.9.02 1.29z" fill="#fff"/><path d="m71.05 419.44h464.9" fill="none" stroke="#fff" stroke-miterlimit="10"/><path d="m71.05 419.44v-7.09" fill="none" stroke="#fff" stroke-miterlimit="10"/><path d="m129.16 419.44v-7.09" fill="none" stroke="#fff" stroke-miterlimit="10"/><path d="m187.28 419.44v-7.09" fill="none" stroke="#fff" stroke-miterlimit="10"/><path d="m245.39 419.44v-7.09" fill="none" stroke="#fff" stroke-miterlimit="10"/><path d="m303.5 419.44v-7.09" fill="none" stroke="#fff" stroke-miterlimit="10"/><path d="m361.61 419.44v-7.09" fill="none" stroke="#fff" stroke-miterlimit="10"/><path d="m419.72 419.44v-7.09" fill="none" stroke="#fff" stroke-miterlimit="10"/><path d="m477.84 419.44v-7.09" fill="none" stroke="#fff" stroke-miterlimit="10"/><path d="m535.95 419.44v-7.09" fill="none" stroke="#fff" stroke-miterlimit="10"/><path d="m71.05 419.44v-283.77" fill="none" stroke="#fff" stroke-miterlimit="10"/><path d="m71.05 277.55h11.63" fill="none" stroke="#fff" stroke-miterlimit="10"/><path d="m71.05 347.93h116.22v40.86h-116.22z" fill="#585a5c" stroke="#fff" stroke-miterlimit="10" stroke-width=".5"/><path d="m71.05 302.53h464.9v40.86h-464.9z" fill="#245b96" stroke="#fff" stroke-miterlimit="10" stroke-width=".5"/><path d="m71.05 257.12h464.9v40.86h-464.9z" fill="#14396c" stroke="#fff" stroke-miterlimit="10" stroke-width=".5"/><path d="m71.05 211.72h116.22v40.86h-116.22z" fill="#061f4b" stroke="#fff" stroke-miterlimit="10" stroke-width=".5"/><g fill="#fff"><path d="m486.44 323.3c0-.12 0-.27 0-.44s0-.34 0-.51 0-.34 0-.49 0-.27 0-.35h.81v.69a2.55 2.55 0 0 0 0 .42 2.16 2.16 0 0 1 .81-.9 2.36 2.36 0 0 1 1.33-.38 2.6 2.6 0 0 1 1.19.24 1.88 1.88 0 0 1 .72.61 2.27 2.27 0 0 1 .37.87 4.9 4.9 0 0 1 .1 1v3.79h-.77v-3.75a4.76 4.76 0 0 0 -.07-.75 2.19 2.19 0 0 0 -.24-.65 1.22 1.22 0 0 0 -.47-.46 1.57 1.57 0 0 0 -.79-.17 2.37 2.37 0 0 0 -.85.15 1.78 1.78 0 0 0 -.69.49 2.12 2.12 0 0 0 -.46.81 3.32 3.32 0 0 0 -.17 1.15v3.18h-.81z"/><path d="m499.49 326.67a2.67 2.67 0 0 1 -1.17 1.05 3.66 3.66 0 0 1 -1.54.32 3.33 3.33 0 0 1 -1.29-.25 3 3 0 0 1 -1-.7 3.07 3.07 0 0 1 -.64-1.06 3.92 3.92 0 0 1 -.23-1.36 3.6 3.6 0 0 1 .24-1.32 3.15 3.15 0 0 1 .65-1.05 3 3 0 0 1 1-.7 3.18 3.18 0 0 1 2.52 0 2.74 2.74 0 0 1 1.48 1.63 3.17 3.17 0 0 1 .19 1.09v.58h-5.25a2.71 2.71 0 0 0 .1.66 2.51 2.51 0 0 0 .37.8 2.47 2.47 0 0 0 .73.66 2.25 2.25 0 0 0 1.17.27 2.57 2.57 0 0 0 1.2-.3 2.19 2.19 0 0 0 .9-.83zm-.62-2.52a1.83 1.83 0 0 0 -.17-.8 2 2 0 0 0 -.46-.65 2.06 2.06 0 0 0 -.69-.45 2.22 2.22 0 0 0 -.85-.16 2.06 2.06 0 0 0 -1.1.27 2.53 2.53 0 0 0 -.7.63 2.46 2.46 0 0 0 -.36.7 1.56 1.56 0 0 0 -.11.46z"/><path d="m506.8 326.08v.43s0 .35 0 .52 0 .34 0 .49 0 .27 0 .35h-.81c0-.24 0-.47 0-.69a1.91 1.91 0 0 0 0-.43 2.36 2.36 0 0 1 -2.14 1.29 2.61 2.61 0 0 1 -1.2-.24 1.84 1.84 0 0 1 -.73-.61 2.16 2.16 0 0 1 -.36-.88 4.9 4.9 0 0 1 -.1-1v-3.78h.81v3.74a4.54 4.54 0 0 0 .07.75 2.15 2.15 0 0 0 .24.66 1.3 1.3 0 0 0 .47.46 1.69 1.69 0 0 0 .8.17 2.17 2.17 0 0 0 .84-.16 1.66 1.66 0 0 0 .69-.48 2.2 2.2 0 0 0 .46-.81 3.36 3.36 0 0 0 .17-1.15v-3.18h.82z"/><path d="m512.09 322.25h-1.78v4.15a.89.89 0 0 0 .23.66.85.85 0 0 0 .63.23 1.89 1.89 0 0 0 .47-.06 2.18 2.18 0 0 0 .45-.16l.07.75-.53.15a2.76 2.76 0 0 1 -.53.07 2.08 2.08 0 0 1 -.74-.13 1.27 1.27 0 0 1 -.5-.36 1.34 1.34 0 0 1 -.28-.51 2.2 2.2 0 0 1 -.09-.64v-4.15h-1.35v-.74h1.35v-1.84h.82v1.84h1.78z"/><path d="m513.54 323.3c0-.12 0-.27 0-.44s0-.34 0-.51 0-.34 0-.49 0-.27 0-.35h.82v.69a1.74 1.74 0 0 0 0 .42 3 3 0 0 1 .8-.92 2 2 0 0 1 1.19-.36h.24l.24.05-.1.81a1.18 1.18 0 0 0 -.31-.05 2.27 2.27 0 0 0 -.91.17 1.62 1.62 0 0 0 -.64.48 1.88 1.88 0 0 0 -.37.7 3.17 3.17 0 0 0 -.12.88v3.47h-.82z"/><path d="m522.92 325.2v.8q0 .38 0 .69v.59a5.14 5.14 0 0 0 .06.55h-.76a6.53 6.53 0 0 1 -.08-1 2.32 2.32 0 0 1 -.87.91 2.74 2.74 0 0 1 -1.27.26 3.09 3.09 0 0 1 -.8-.11 2.2 2.2 0 0 1 -.71-.33 1.88 1.88 0 0 1 -.5-.58 2 2 0 0 1 .17-2 2.25 2.25 0 0 1 .9-.64 4.15 4.15 0 0 1 1.13-.27 8.8 8.8 0 0 1 1.07-.07h1v-.38a1.38 1.38 0 0 0 -.5-1.19 2.13 2.13 0 0 0 -1.26-.35 2.84 2.84 0 0 0 -1.92.71l-.47-.56a2.83 2.83 0 0 1 1.11-.67 4 4 0 0 1 1.28-.23 2.77 2.77 0 0 1 1.81.55 2.11 2.11 0 0 1 .68 1.75zm-1.63-.53a8 8 0 0 0 -1 .07 3.69 3.69 0 0 0 -.87.24 1.69 1.69 0 0 0 -.62.44 1 1 0 0 0 -.23.69 1.07 1.07 0 0 0 .13.51 1.23 1.23 0 0 0 .33.38 1.78 1.78 0 0 0 .46.22 1.68 1.68 0 0 0 .5.07 2.5 2.5 0 0 0 1.07-.19 1.88 1.88 0 0 0 .68-.5 1.8 1.8 0 0 0 .34-.71 3.49 3.49 0 0 0 .1-.79v-.43z"/><path d="m525.22 317.46h.78v10.41h-.81z"/><path d="m426.27 280.54a1.74 1.74 0 0 0 .76.78 2.16 2.16 0 0 0 1.05.27 1.88 1.88 0 0 0 .52-.08 1.83 1.83 0 0 0 .46-.24 1.42 1.42 0 0 0 .33-.36.9.9 0 0 0 .13-.49.76.76 0 0 0 -.28-.66 2.07 2.07 0 0 0 -.68-.35 8.59 8.59 0 0 0 -.9-.21 3.56 3.56 0 0 1 -.89-.28 1.94 1.94 0 0 1 -.69-.51 1.46 1.46 0 0 1 -.27-.94 1.62 1.62 0 0 1 .19-.81 1.69 1.69 0 0 1 .49-.57 2.07 2.07 0 0 1 .68-.34 3 3 0 0 1 .78-.11 2.9 2.9 0 0 1 1.33.29 1.88 1.88 0 0 1 .87.91l-.73.44a1.66 1.66 0 0 0 -.57-.67 1.62 1.62 0 0 0 -.9-.23 1.9 1.9 0 0 0 -.46.07 1.62 1.62 0 0 0 -.42.19 1.08 1.08 0 0 0 -.32.32.76.76 0 0 0 -.13.44.74.74 0 0 0 .28.64 2.26 2.26 0 0 0 .68.32 8.7 8.7 0 0 0 .9.2 3.18 3.18 0 0 1 .89.27 1.7 1.7 0 0 1 .68.54 1.52 1.52 0 0 1 .28 1 1.91 1.91 0 0 1 -.18.86 1.78 1.78 0 0 1 -.5.62 2.28 2.28 0 0 1 -.73.37 3 3 0 0 1 -.85.12 3.41 3.41 0 0 1 -1.48-.31 2.3 2.3 0 0 1 -1-1z"/><path d="m431.67 279a3.49 3.49 0 0 1 .25-1.35 3.14 3.14 0 0 1 .67-1.06 2.91 2.91 0 0 1 1.05-.69 3.37 3.37 0 0 1 1.32-.25 3.42 3.42 0 0 1 1.33.25 3.05 3.05 0 0 1 1 .69 3.16 3.16 0 0 1 .68 1.06 3.74 3.74 0 0 1 0 2.69 3.16 3.16 0 0 1 -.68 1.06 3.05 3.05 0 0 1 -1 .69 3.42 3.42 0 0 1 -1.33.25 3.37 3.37 0 0 1 -1.32-.25 2.91 2.91 0 0 1 -1.05-.69 3.14 3.14 0 0 1 -.67-1.06 3.47 3.47 0 0 1 -.25-1.34zm.82 0a3.1 3.1 0 0 0 .16 1 2.49 2.49 0 0 0 .5.83 2.34 2.34 0 0 0 .79.55 2.61 2.61 0 0 0 2.05 0 2.34 2.34 0 0 0 .79-.55 2.31 2.31 0 0 0 .49-.83 3.12 3.12 0 0 0 0-2 2.27 2.27 0 0 0 -.49-.82 2.36 2.36 0 0 0 -.79-.56 2.61 2.61 0 0 0 -2.05 0 2.36 2.36 0 0 0 -.79.56 2.44 2.44 0 0 0 -.5.82 3.11 3.11 0 0 0 -.16 1z"/><path d="m440.07 277.59c0-.11 0-.26 0-.43s0-.34 0-.52 0-.33 0-.48 0-.27 0-.36h.82v.69a1.85 1.85 0 0 0 0 .43 2.23 2.23 0 0 1 .81-.9 2.38 2.38 0 0 1 1.33-.38 2.13 2.13 0 0 1 1.14.32 1.9 1.9 0 0 1 .75 1.06 2 2 0 0 1 .88-1 2.53 2.53 0 0 1 1.24-.33 2.68 2.68 0 0 1 1.19.23 1.94 1.94 0 0 1 .73.62 2.44 2.44 0 0 1 .37.87 5.69 5.69 0 0 1 .1 1v3.79h-.82v-3.75a4.56 4.56 0 0 0 -.06-.75 2.19 2.19 0 0 0 -.24-.65 1.25 1.25 0 0 0 -.47-.47 1.69 1.69 0 0 0 -.8-.17 1.73 1.73 0 0 0 -.93.22 1.59 1.59 0 0 0 -.58.54 2.29 2.29 0 0 0 -.3.72 3.79 3.79 0 0 0 -.08.73v3.58h-.82v-3.83a2.69 2.69 0 0 0 -.32-1.42 1.06 1.06 0 0 0 -1-.54 2.32 2.32 0 0 0 -.84.16 2 2 0 0 0 -.7.48 2.58 2.58 0 0 0 -.46.82 3.53 3.53 0 0 0 -.17 1.15v3.18h-.81z"/><path d="m457.14 281a2.85 2.85 0 0 1 -1.17 1 3.72 3.72 0 0 1 -1.54.31 3.21 3.21 0 0 1 -1.3-.25 2.8 2.8 0 0 1 -1-.69 2.92 2.92 0 0 1 -.64-1.06 3.92 3.92 0 0 1 -.23-1.36 3.77 3.77 0 0 1 .23-1.32 3.21 3.21 0 0 1 .65-1 3 3 0 0 1 2.25-1 3 3 0 0 1 1.27.25 2.8 2.8 0 0 1 1.48 1.64 3.11 3.11 0 0 1 .19 1.08v.58h-5.26a2.8 2.8 0 0 0 .11.67 2.19 2.19 0 0 0 .37.79 2.3 2.3 0 0 0 .72.66 2.22 2.22 0 0 0 1.18.28 2.6 2.6 0 0 0 1.2-.3 2.17 2.17 0 0 0 .89-.83zm-.62-2.52a1.94 1.94 0 0 0 -.17-.8 2 2 0 0 0 -.46-.65 2.29 2.29 0 0 0 -.69-.45 2.22 2.22 0 0 0 -.85-.17 2 2 0 0 0 -1.1.28 2.27 2.27 0 0 0 -.7.63 2.5 2.5 0 0 0 -.37.7 2 2 0 0 0 -.11.46z"/><path d="m458.27 275.8h.89l1.52 5.33 1.75-5.33h.77l1.86 5.33 1.47-5.33h.82l-1.85 6.37h-.84l-1.82-5.17-1.75 5.21h-.84z"/><path d="m468.68 271.75h.82v5.17a2.26 2.26 0 0 1 .82-.9 2.35 2.35 0 0 1 1.32-.38 2.76 2.76 0 0 1 1.2.23 2 2 0 0 1 .72.62 2.27 2.27 0 0 1 .37.87 5.69 5.69 0 0 1 .1 1v3.79h-.81v-3.75a4.54 4.54 0 0 0 -.07-.75 2.19 2.19 0 0 0 -.24-.65 1.25 1.25 0 0 0 -.47-.47 1.69 1.69 0 0 0 -.8-.17 2.37 2.37 0 0 0 -.84.16 1.87 1.87 0 0 0 -.69.48 2.25 2.25 0 0 0 -.46.82 3.28 3.28 0 0 0 -.17 1.15v3.18h-.82z"/><path d="m481.08 279.5v.84s0 .47 0 .68 0 .41 0 .6a5.43 5.43 0 0 0 .06.55h-.76a6.56 6.56 0 0 1 -.08-1 2.19 2.19 0 0 1 -.87.91 2.63 2.63 0 0 1 -1.32.29 3.08 3.08 0 0 1 -.8-.1 2.06 2.06 0 0 1 -.7-.33 1.73 1.73 0 0 1 -.71-1.45 1.68 1.68 0 0 1 .37-1.16 2.16 2.16 0 0 1 .9-.64 4.14 4.14 0 0 1 1.14-.28c.4 0 .75-.06 1.06-.06h1v-.38a1.37 1.37 0 0 0 -.5-1.19 2.13 2.13 0 0 0 -1.26-.36 2.81 2.81 0 0 0 -1.91.72l-.48-.57a2.93 2.93 0 0 1 1.11-.66 3.77 3.77 0 0 1 1.28-.23 2.83 2.83 0 0 1 1.81.54 2.14 2.14 0 0 1 .68 1.76zm-1.63-.53a8 8 0 0 0 -1 .07 3.27 3.27 0 0 0 -.87.24 1.59 1.59 0 0 0 -.62.44 1 1 0 0 0 -.23.68 1.08 1.08 0 0 0 .13.52 1.19 1.19 0 0 0 .33.37 1.5 1.5 0 0 0 .46.22 1.7 1.7 0 0 0 .51.08 2.56 2.56 0 0 0 1.07-.19 1.84 1.84 0 0 0 .67-.51 1.76 1.76 0 0 0 .34-.7 3 3 0 0 0 .1-.79v-.4z"/><path d="m486.31 276.55h-1.79v4.14a.94.94 0 0 0 .23.67.88.88 0 0 0 .64.23 1.82 1.82 0 0 0 .46-.06 3.57 3.57 0 0 0 .46-.16l.07.74a3.35 3.35 0 0 1 -.53.15 2.21 2.21 0 0 1 -.53.07 1.9 1.9 0 0 1 -.75-.13 1.29 1.29 0 0 1 -.5-.35 1.36 1.36 0 0 1 -.27-.52 2.15 2.15 0 0 1 -.09-.64v-4.14h-1.36v-.75h1.36v-1.8h.81v1.83h1.79z"/><path d="m491.1 275.8h.82v1.12a2.21 2.21 0 0 1 .48-.57 2.67 2.67 0 0 1 .61-.4 3.62 3.62 0 0 1 .7-.24 3.58 3.58 0 0 1 .72-.07 3.34 3.34 0 0 1 1.32.25 3 3 0 0 1 1 .69 3 3 0 0 1 .69 1.06 3.89 3.89 0 0 1 0 2.69 3 3 0 0 1 -.69 1.06 3 3 0 0 1 -1 .69 3.34 3.34 0 0 1 -1.32.25 3.58 3.58 0 0 1 -.72-.07 3.05 3.05 0 0 1 -.7-.24 2.67 2.67 0 0 1 -.61-.4 2.21 2.21 0 0 1 -.48-.57v4.26h-.82zm.74 3.19a2.5 2.5 0 0 0 .2 1 2.5 2.5 0 0 0 1.38 1.38 2.53 2.53 0 0 0 1 .21 2.46 2.46 0 0 0 1-.21 2.34 2.34 0 0 0 .79-.55 2.47 2.47 0 0 0 .49-.83 3.12 3.12 0 0 0 0-2 2.42 2.42 0 0 0 -.49-.82 2.36 2.36 0 0 0 -.79-.56 2.46 2.46 0 0 0 -1-.21 2.53 2.53 0 0 0 -1 .21 2.64 2.64 0 0 0 -.83.56 2.57 2.57 0 0 0 -.55.82 2.51 2.51 0 0 0 -.2 1.01z"/><path d="m499.56 277.59c0-.11 0-.26 0-.43s0-.34 0-.52 0-.33 0-.48 0-.27 0-.36h.81v.69a2.32 2.32 0 0 0 0 .43 2.64 2.64 0 0 1 .8-.92 1.93 1.93 0 0 1 1.19-.36h.23.24l-.09.81a.87.87 0 0 0 -.31 0 2.16 2.16 0 0 0 -.92.17 1.69 1.69 0 0 0 -.64.47 2.18 2.18 0 0 0 -.37.71 3.07 3.07 0 0 0 -.12.88v3.47h-.81z"/><path d="m503.47 279a3.49 3.49 0 0 1 .25-1.35 3.14 3.14 0 0 1 .67-1.06 2.91 2.91 0 0 1 1.05-.69 3.61 3.61 0 0 1 2.64 0 3 3 0 0 1 1.05.69 3.16 3.16 0 0 1 .68 1.06 3.74 3.74 0 0 1 0 2.69 3.16 3.16 0 0 1 -.68 1.06 3 3 0 0 1 -1.05.69 3.61 3.61 0 0 1 -2.64 0 2.91 2.91 0 0 1 -1.05-.69 3.14 3.14 0 0 1 -.67-1.06 3.47 3.47 0 0 1 -.25-1.34zm.81 0a3.1 3.1 0 0 0 .17 1 2.49 2.49 0 0 0 .5.83 2.3 2.3 0 0 0 .78.55 2.46 2.46 0 0 0 1 .21 2.43 2.43 0 0 0 1-.21 2.34 2.34 0 0 0 .79-.55 2.31 2.31 0 0 0 .49-.83 3.12 3.12 0 0 0 0-2 2.27 2.27 0 0 0 -.49-.82 2.36 2.36 0 0 0 -.79-.56 2.43 2.43 0 0 0 -1-.21 2.46 2.46 0 0 0 -1 .21 2.32 2.32 0 0 0 -.78.56 2.44 2.44 0 0 0 -.5.82 3.12 3.12 0 0 0 -.17 1z"/><path d="m517.17 280.38v.43s0 .34 0 .52 0 .33 0 .49 0 .26 0 .35h-.82c0-.24 0-.47 0-.69a1.91 1.91 0 0 0 0-.43 2.35 2.35 0 0 1 -2.14 1.28 2.76 2.76 0 0 1 -1.2-.23 1.93 1.93 0 0 1 -.73-.61 2.22 2.22 0 0 1 -.36-.88 4.9 4.9 0 0 1 -.1-1v-3.81h.82v3.75a4.56 4.56 0 0 0 .06.75 2.36 2.36 0 0 0 .24.66 1.3 1.3 0 0 0 .47.46 1.69 1.69 0 0 0 .8.17 2.13 2.13 0 0 0 .84-.16 1.87 1.87 0 0 0 .7-.48 2.64 2.64 0 0 0 .46-.81 3.62 3.62 0 0 0 .17-1.15v-3.19h.81z"/><path d="m524.88 281.05a2.21 2.21 0 0 1 -.48.57 2.47 2.47 0 0 1 -.61.4 2.9 2.9 0 0 1 -.7.24 3.51 3.51 0 0 1 -.72.07 3.34 3.34 0 0 1 -1.32-.25 2.91 2.91 0 0 1 -1-.69 3.33 3.33 0 0 1 -.68-1.06 3.89 3.89 0 0 1 0-2.69 3.33 3.33 0 0 1 .68-1.06 2.91 2.91 0 0 1 1-.69 3.34 3.34 0 0 1 1.32-.25 3.51 3.51 0 0 1 .72.07 3.4 3.4 0 0 1 .7.24 2.47 2.47 0 0 1 .61.4 2.21 2.21 0 0 1 .48.57v-5.17h.81v10.42h-.81zm.12-2.05a2.52 2.52 0 0 0 -.21-1 2.57 2.57 0 0 0 -.55-.82 2.64 2.64 0 0 0 -.83-.56 2.5 2.5 0 0 0 -1-.21 2.46 2.46 0 0 0 -1 .21 2.32 2.32 0 0 0 -.78.56 2.44 2.44 0 0 0 -.5.82 3.12 3.12 0 0 0 0 2 2.49 2.49 0 0 0 .5.83 2.3 2.3 0 0 0 .78.55 2.46 2.46 0 0 0 1 .21 2.5 2.5 0 0 0 1-.21 2.5 2.5 0 0 0 1.38-1.38 2.5 2.5 0 0 0 .21-1z"/><path d="m114 229.4h.92l2.09 5.47 2-5.47h.83l-2.47 6.37h-.84z"/><path d="m126.64 234.57a2.85 2.85 0 0 1 -1.17 1.05 3.72 3.72 0 0 1 -1.54.31 3.21 3.21 0 0 1 -1.3-.25 2.8 2.8 0 0 1 -1-.69 3.09 3.09 0 0 1 -.65-1.06 3.92 3.92 0 0 1 -.22-1.36 3.73 3.73 0 0 1 .23-1.32 3 3 0 0 1 .65-1.05 3 3 0 0 1 2.25-1 3 3 0 0 1 1.27.25 2.86 2.86 0 0 1 .92.68 2.94 2.94 0 0 1 .56 1 3.21 3.21 0 0 1 .19 1.09v.58h-5.26a2.8 2.8 0 0 0 .11.67 2.19 2.19 0 0 0 .37.79 2.3 2.3 0 0 0 .72.66 2.18 2.18 0 0 0 1.17.28 2.61 2.61 0 0 0 1.21-.3 2.17 2.17 0 0 0 .89-.83zm-.62-2.52a1.94 1.94 0 0 0 -.17-.8 2.18 2.18 0 0 0 -.46-.66 2.46 2.46 0 0 0 -.69-.44 2.22 2.22 0 0 0 -.85-.17 2 2 0 0 0 -1.11.28 2.34 2.34 0 0 0 -.69.63 2.5 2.5 0 0 0 -.37.7 2 2 0 0 0 -.11.46z"/><path d="m128.65 231.19c0-.11 0-.26 0-.43s0-.34 0-.52 0-.33 0-.49 0-.26 0-.35h.81v.69a2.83 2.83 0 0 0 0 .43 2.76 2.76 0 0 1 .8-.92 2 2 0 0 1 1.2-.36h.23l.24.05-.09.81a1 1 0 0 0 -.32-.06 2.14 2.14 0 0 0 -.91.18 1.69 1.69 0 0 0 -.64.47 1.93 1.93 0 0 0 -.37.71 3.07 3.07 0 0 0 -.12.88v3.47h-.81z"/><path d="m134.92 237.74a2.39 2.39 0 0 1 -.64 1 1.57 1.57 0 0 1 -1.08.36 2.83 2.83 0 0 1 -.41 0 3.75 3.75 0 0 1 -.39-.09l.08-.77.36.1a1.5 1.5 0 0 0 .37.05.76.76 0 0 0 .39-.1 1 1 0 0 0 .29-.25 1.85 1.85 0 0 0 .21-.33 3 3 0 0 0 .15-.38l.57-1.48-2.54-6.39h.9l2.08 5.36 2-5.36h.87z"/><path d="m142.77 229.4h.82v1.12a2.21 2.21 0 0 1 .48-.57 2.67 2.67 0 0 1 .61-.4 3.05 3.05 0 0 1 .7-.24 3.65 3.65 0 0 1 .72-.07 3.34 3.34 0 0 1 1.32.25 3.09 3.09 0 0 1 1.05.69 3.16 3.16 0 0 1 .68 1.06 3.89 3.89 0 0 1 0 2.69 3.16 3.16 0 0 1 -.68 1.06 3.09 3.09 0 0 1 -1.05.69 3.34 3.34 0 0 1 -1.32.25 3.65 3.65 0 0 1 -.72-.07 3.05 3.05 0 0 1 -.7-.24 2.67 2.67 0 0 1 -.61-.4 2.21 2.21 0 0 1 -.48-.57v4.26h-.82zm.74 3.18a2.51 2.51 0 0 0 .2 1 2.57 2.57 0 0 0 .55.82 2.76 2.76 0 0 0 .83.56 2.53 2.53 0 0 0 1 .21 2.46 2.46 0 0 0 1-.21 2.36 2.36 0 0 0 .79-.56 2.42 2.42 0 0 0 .49-.82 3.12 3.12 0 0 0 0-2 2.42 2.42 0 0 0 -.49-.82 2.36 2.36 0 0 0 -.79-.56 2.46 2.46 0 0 0 -1-.21 2.53 2.53 0 0 0 -1 .21 2.76 2.76 0 0 0 -.83.56 2.57 2.57 0 0 0 -.55.82 2.5 2.5 0 0 0 -.2 1z"/><path d="m151.23 231.19c0-.11 0-.26 0-.43s0-.34 0-.52 0-.33 0-.49 0-.26 0-.35h.77v.69a2.44 2.44 0 0 0 0 .43 2.66 2.66 0 0 1 .8-.92 1.93 1.93 0 0 1 1.19-.36h.24l.23.05-.09.81a.89.89 0 0 0 -.31-.06 2.16 2.16 0 0 0 -.92.18 1.58 1.58 0 0 0 -.63.47 1.94 1.94 0 0 0 -.38.71 3.07 3.07 0 0 0 -.12.88v3.47h-.81z"/><path d="m155.14 232.58a3.47 3.47 0 0 1 .25-1.34 3.3 3.3 0 0 1 .67-1.06 2.91 2.91 0 0 1 1.05-.69 3.64 3.64 0 0 1 2.65 0 3 3 0 0 1 1 .69 3.16 3.16 0 0 1 .68 1.06 3.74 3.74 0 0 1 0 2.69 3.16 3.16 0 0 1 -.68 1.06 3 3 0 0 1 -1 .69 3.64 3.64 0 0 1 -2.65 0 2.91 2.91 0 0 1 -1.05-.69 3.3 3.3 0 0 1 -.67-1.06 3.49 3.49 0 0 1 -.25-1.35zm.82 0a2.88 2.88 0 0 0 .17 1 2.27 2.27 0 0 0 .49.82 2.36 2.36 0 0 0 .79.56 2.43 2.43 0 0 0 1 .21 2.46 2.46 0 0 0 1-.21 2.43 2.43 0 0 0 .78-.56 2.27 2.27 0 0 0 .49-.82 3.12 3.12 0 0 0 0-2 2.27 2.27 0 0 0 -.49-.82 2.43 2.43 0 0 0 -.78-.56 2.46 2.46 0 0 0 -1-.21 2.43 2.43 0 0 0 -1 .21 2.36 2.36 0 0 0 -.79.56 2.27 2.27 0 0 0 -.49.82 2.86 2.86 0 0 0 -.13 1z"/><path d="m168.84 234v.43s0 .34 0 .52 0 .33 0 .49 0 .26 0 .35h-.82c0-.24 0-.47 0-.69a1.91 1.91 0 0 0 0-.43 2.16 2.16 0 0 1 -.81.9 2.31 2.31 0 0 1 -1.33.38 2.76 2.76 0 0 1 -1.2-.23 1.94 1.94 0 0 1 -.73-.62 2.11 2.11 0 0 1 -.36-.87 5.69 5.69 0 0 1 -.1-1v-3.83h.82v3.75a3.67 3.67 0 0 0 .07.75 1.93 1.93 0 0 0 .23.65 1.21 1.21 0 0 0 .48.47 1.62 1.62 0 0 0 .79.17 2.22 2.22 0 0 0 .85-.16 2 2 0 0 0 .69-.48 2.64 2.64 0 0 0 .46-.81 3.64 3.64 0 0 0 .17-1.16v-3.18h.81z"/><path d="m176.55 234.65a2.17 2.17 0 0 1 -.47.57 3.05 3.05 0 0 1 -1.32.64 3.51 3.51 0 0 1 -.72.07 3.37 3.37 0 0 1 -1.32-.25 2.91 2.91 0 0 1 -1.05-.69 3.14 3.14 0 0 1 -.67-1.06 3.74 3.74 0 0 1 0-2.69 3.14 3.14 0 0 1 .67-1.06 2.91 2.91 0 0 1 1.05-.69 3.37 3.37 0 0 1 1.32-.25 3.51 3.51 0 0 1 .72.07 3.05 3.05 0 0 1 1.32.64 2.17 2.17 0 0 1 .47.57v-5.17h.81v10.42h-.81zm.08-2.07a2.67 2.67 0 0 0 -.2-1 2.6 2.6 0 0 0 -.56-.82 2.53 2.53 0 0 0 -.83-.56 2.5 2.5 0 0 0 -1-.21 2.42 2.42 0 0 0 -1 .21 2.36 2.36 0 0 0 -.79.56 2.44 2.44 0 0 0 -.5.82 3.12 3.12 0 0 0 0 2 2.44 2.44 0 0 0 .5.82 2.36 2.36 0 0 0 .79.56 2.42 2.42 0 0 0 1 .21 2.5 2.5 0 0 0 1-.21 2.53 2.53 0 0 0 .83-.56 2.6 2.6 0 0 0 .56-.82 2.69 2.69 0 0 0 .2-1z"/><path d="m84.67 370.75a1.8 1.8 0 0 1 -.41.5 2.53 2.53 0 0 1 -1.14.55 3.57 3.57 0 0 1 -.63.07 3.15 3.15 0 0 1 -1.16-.22 2.56 2.56 0 0 1 -.9-.61 2.77 2.77 0 0 1 -.6-.92 3.36 3.36 0 0 1 0-2.34 2.77 2.77 0 0 1 .6-.92 2.56 2.56 0 0 1 .9-.61 3.15 3.15 0 0 1 1.16-.22 3.57 3.57 0 0 1 .63.07 2.53 2.53 0 0 1 1.14.55 1.8 1.8 0 0 1 .41.5v-4.5h.71v9.07h-.71zm.07-1.8a2.16 2.16 0 0 0 -.18-.88 2.27 2.27 0 0 0 -.48-.72 2.36 2.36 0 0 0 -.72-.49 2.26 2.26 0 0 0 -.9-.18 2.19 2.19 0 0 0 -.9.18 2.08 2.08 0 0 0 -.68.49 2 2 0 0 0 -.43.72 2.66 2.66 0 0 0 0 1.76 2 2 0 0 0 .43.72 2.08 2.08 0 0 0 .68.49 2.19 2.19 0 0 0 .9.18 2.26 2.26 0 0 0 .9-.18 2.36 2.36 0 0 0 .72-.49 2.27 2.27 0 0 0 .48-.72 2.16 2.16 0 0 0 .18-.83z"/><path d="m91.93 370.68a2.45 2.45 0 0 1 -1 .91 3.31 3.31 0 0 1 -1.34.28 3 3 0 0 1 -1.14-.22 2.45 2.45 0 0 1 -.87-.61 2.68 2.68 0 0 1 -.56-.92 3.44 3.44 0 0 1 -.2-1.18 3.27 3.27 0 0 1 .2-1.15 2.86 2.86 0 0 1 .57-.92 2.6 2.6 0 0 1 .86-.61 2.64 2.64 0 0 1 1.1-.23 2.51 2.51 0 0 1 1.1.23 2.4 2.4 0 0 1 .81.58 2.73 2.73 0 0 1 .49.84 2.83 2.83 0 0 1 .16.95v.5h-4.6a2.42 2.42 0 0 0 .09.58 2 2 0 0 0 .33.69 1.86 1.86 0 0 0 .63.58 1.93 1.93 0 0 0 1 .24 2.22 2.22 0 0 0 1-.27 1.82 1.82 0 0 0 .78-.72zm-.55-2.2a1.74 1.74 0 0 0 -.14-.69 1.81 1.81 0 0 0 -.41-.57 1.64 1.64 0 0 0 -.6-.39 1.85 1.85 0 0 0 -.74-.15 1.8 1.8 0 0 0 -1 .24 2.14 2.14 0 0 0 -.6.55 2.12 2.12 0 0 0 -.32.61 1.46 1.46 0 0 0 -.1.4z"/><path d="m98.24 370.91a2.57 2.57 0 0 1 -.91.72 2.52 2.52 0 0 1 -1.09.24 3.11 3.11 0 0 1 -1.16-.22 2.52 2.52 0 0 1 -.91-.61 2.74 2.74 0 0 1 -.59-.92 3.36 3.36 0 0 1 0-2.34 2.74 2.74 0 0 1 .59-.92 2.52 2.52 0 0 1 .91-.61 3.11 3.11 0 0 1 1.16-.22 2.45 2.45 0 0 1 1.11.26 2.92 2.92 0 0 1 .92.7l-.57.44a2.42 2.42 0 0 0 -.67-.55 1.68 1.68 0 0 0 -.79-.2 2.16 2.16 0 0 0 -.9.18 2 2 0 0 0 -1.12 1.21 2.66 2.66 0 0 0 0 1.76 2 2 0 0 0 1.12 1.17 2.16 2.16 0 0 0 .9.18 1.67 1.67 0 0 0 .82-.21 2.27 2.27 0 0 0 .64-.56z"/><path d="m99.47 362.65h.71v9.07h-.71z"/><path d="m102.14 364a.52.52 0 0 1 .15-.38.49.49 0 0 1 .38-.16.47.47 0 0 1 .37.16.49.49 0 0 1 .16.38.53.53 0 0 1 -.16.39.5.5 0 0 1 -.37.15.52.52 0 0 1 -.38-.15.56.56 0 0 1 -.15-.39zm.17 2.2h.69v5.54h-.71z"/><path d="m105 367.74c0-.11 0-.23 0-.38s0-.3 0-.45 0-.29 0-.43 0-.23 0-.3h.71v.6a2.51 2.51 0 0 0 0 .37 2 2 0 0 1 .71-.79 2 2 0 0 1 1.15-.33 2.21 2.21 0 0 1 1 .21 1.57 1.57 0 0 1 .63.53 2 2 0 0 1 .32.76 4.41 4.41 0 0 1 .09.89v3.3h-.61v-3.26a4.77 4.77 0 0 0 0-.66 1.77 1.77 0 0 0 -.21-.57 1.21 1.21 0 0 0 -.41-.4 1.43 1.43 0 0 0 -.7-.15 2 2 0 0 0 -.73.14 1.52 1.52 0 0 0 -.61.42 2.2 2.2 0 0 0 -.4.71 3 3 0 0 0 -.14 1v2.77h-.8z"/><path d="m116.41 370.68a2.45 2.45 0 0 1 -1 .91 3.31 3.31 0 0 1 -1.34.28 3 3 0 0 1 -1.14-.22 2.45 2.45 0 0 1 -.93-.65 2.53 2.53 0 0 1 -.56-.92 3.44 3.44 0 0 1 -.2-1.18 3.27 3.27 0 0 1 .2-1.15 2.86 2.86 0 0 1 .57-.92 2.5 2.5 0 0 1 .86-.61 2.64 2.64 0 0 1 1.13-.22 2.54 2.54 0 0 1 1.1.23 2.4 2.4 0 0 1 .81.58 2.73 2.73 0 0 1 .49.84 2.83 2.83 0 0 1 .16.95v.5h-4.56a2.42 2.42 0 0 0 .09.58 2.16 2.16 0 0 0 .32.69 2 2 0 0 0 .64.58 1.93 1.93 0 0 0 1 .24 2.22 2.22 0 0 0 1-.27 1.82 1.82 0 0 0 .78-.72zm-.55-2.2a1.74 1.74 0 0 0 -.14-.69 1.81 1.81 0 0 0 -.41-.57 1.64 1.64 0 0 0 -.6-.39 1.85 1.85 0 0 0 -.74-.15 1.8 1.8 0 0 0 -1 .24 2.06 2.06 0 0 0 -.92 1.16 1.46 1.46 0 0 0 -.1.4z"/><path d="m122.92 370.75a2 2 0 0 1 -.41.5 3.11 3.11 0 0 1 -.54.35 2.72 2.72 0 0 1 -.61.2 3.38 3.38 0 0 1 -.63.07 3.1 3.1 0 0 1 -1.15-.22 2.52 2.52 0 0 1 -.91-.61 2.74 2.74 0 0 1 -.59-.92 3.36 3.36 0 0 1 0-2.34 2.74 2.74 0 0 1 .59-.92 2.52 2.52 0 0 1 .91-.61 3.1 3.1 0 0 1 1.15-.22 3.38 3.38 0 0 1 .63.07 2.72 2.72 0 0 1 .61.2 3.11 3.11 0 0 1 .54.35 2 2 0 0 1 .41.5v-4.5h.71v9.07h-.71zm.08-1.75a2.34 2.34 0 0 0 -.17-.88 2.33 2.33 0 0 0 -1.21-1.21 2.19 2.19 0 0 0 -.9-.18 2.11 2.11 0 0 0 -.89.18 2 2 0 0 0 -1.12 1.21 2.66 2.66 0 0 0 0 1.76 2 2 0 0 0 1.12 1.21 2.11 2.11 0 0 0 .89.18 2.19 2.19 0 0 0 .9-.18 2.33 2.33 0 0 0 1.21-1.21 2.34 2.34 0 0 0 .17-.88z"/><path d="m131.1 366.83h-1.56v3.61a.77.77 0 0 0 .2.57.75.75 0 0 0 .56.21 1.51 1.51 0 0 0 .41-.06 3 3 0 0 0 .39-.13l.06.64a3.63 3.63 0 0 1 -.46.14 2.08 2.08 0 0 1 -.46.06 1.6 1.6 0 0 1 -.65-.12 1.18 1.18 0 0 1 -.44-.3 1.22 1.22 0 0 1 -.24-.45 2 2 0 0 1 -.08-.56v-3.61h-1.18v-.65h1.18v-1.6h.71v1.6h1.56z"/><path d="m132.06 369a3.2 3.2 0 0 1 .21-1.17 2.74 2.74 0 0 1 .59-.92 2.52 2.52 0 0 1 .91-.61 3.14 3.14 0 0 1 2.31 0 2.7 2.7 0 0 1 .91.61 2.74 2.74 0 0 1 .59.92 3.36 3.36 0 0 1 0 2.34 2.74 2.74 0 0 1 -.59.92 2.7 2.7 0 0 1 -.91.61 3.14 3.14 0 0 1 -2.31 0 2.52 2.52 0 0 1 -.91-.61 2.74 2.74 0 0 1 -.59-.92 3.2 3.2 0 0 1 -.21-1.17zm.71 0a2.54 2.54 0 0 0 .14.88 2 2 0 0 0 1.09 1.12 2.32 2.32 0 0 0 1.79 0 2 2 0 0 0 1.12-1.21 2.66 2.66 0 0 0 0-1.76 2 2 0 0 0 -1.12-1.21 2.32 2.32 0 0 0 -1.79 0 2 2 0 0 0 -1.12 1.21 2.54 2.54 0 0 0 -.11.97z"/><path d="m146.68 369.39v.74s0 .41 0 .6v.51a3.93 3.93 0 0 0 .06.48h-.66a4.94 4.94 0 0 1 -.08-.9 1.94 1.94 0 0 1 -.76.79 2.33 2.33 0 0 1 -1.15.26 2.74 2.74 0 0 1 -.7-.09 1.81 1.81 0 0 1 -.61-.29 1.46 1.46 0 0 1 -.44-.51 1.5 1.5 0 0 1 -.17-.76 1.52 1.52 0 0 1 .31-1 2.09 2.09 0 0 1 .79-.55 3.26 3.26 0 0 1 1-.24 8.3 8.3 0 0 1 .93-.06h.8v-.37a1.2 1.2 0 0 0 -.43-1 1.9 1.9 0 0 0 -1.1-.31 2.47 2.47 0 0 0 -1.67.63l-.41-.5a2.54 2.54 0 0 1 1-.58 3.43 3.43 0 0 1 1.11-.2 2.42 2.42 0 0 1 1.58.48 1.84 1.84 0 0 1 .59 1.53zm-1.42-.45a6 6 0 0 0 -.86.06 3.24 3.24 0 0 0 -.76.2 1.57 1.57 0 0 0 -.54.39.92.92 0 0 0 -.2.6.89.89 0 0 0 .12.45 1 1 0 0 0 .28.32 1.56 1.56 0 0 0 .84.26 2.24 2.24 0 0 0 .93-.17 1.58 1.58 0 0 0 .59-.44 1.66 1.66 0 0 0 .3-.61 2.71 2.71 0 0 0 .08-.69v-.37z"/><path d="m148.57 367.74c0-.11 0-.23 0-.38s0-.3 0-.45 0-.29 0-.43 0-.23 0-.3h.71v.6a1.41 1.41 0 0 0 0 .37 2 2 0 0 1 .71-.79 2 2 0 0 1 1.16-.33 2.19 2.19 0 0 1 1 .21 1.68 1.68 0 0 1 .64.53 2 2 0 0 1 .31.76 4.41 4.41 0 0 1 .09.89v3.3h-.71v-3.26a3.6 3.6 0 0 0 -.05-.66 1.77 1.77 0 0 0 -.21-.57 1.21 1.21 0 0 0 -.41-.4 1.41 1.41 0 0 0 -.69-.15 2 2 0 0 0 -.74.14 1.49 1.49 0 0 0 -.6.42 2 2 0 0 0 -.41.71 3.31 3.31 0 0 0 -.14 1v2.77h-.71z"/><path d="m155.14 370.31a1.53 1.53 0 0 0 .66.67 1.92 1.92 0 0 0 .93.24 1.75 1.75 0 0 0 .44-.07 1.27 1.27 0 0 0 .4-.21 1 1 0 0 0 .29-.32.74.74 0 0 0 .12-.42.68.68 0 0 0 -.25-.58 1.73 1.73 0 0 0 -.59-.3 7.5 7.5 0 0 0 -.78-.18 4.45 4.45 0 0 1 -.78-.24 1.79 1.79 0 0 1 -.6-.45 1.27 1.27 0 0 1 -.24-.82 1.46 1.46 0 0 1 .17-.71 1.59 1.59 0 0 1 .43-.5 1.81 1.81 0 0 1 .59-.29 2.6 2.6 0 0 1 .68-.1 2.48 2.48 0 0 1 1.16.26 1.67 1.67 0 0 1 .76.79l-.64.38a1.51 1.51 0 0 0 -.5-.58 1.41 1.41 0 0 0 -.78-.2 1.44 1.44 0 0 0 -.4.06 1.4 1.4 0 0 0 -.37.17.93.93 0 0 0 -.28.28.7.7 0 0 0 -.11.38.64.64 0 0 0 .24.55 1.67 1.67 0 0 0 .6.28 6.47 6.47 0 0 0 .78.18 3.21 3.21 0 0 1 .78.23 1.68 1.68 0 0 1 .59.47 1.37 1.37 0 0 1 .24.87 1.73 1.73 0 0 1 -.15.75 1.62 1.62 0 0 1 -.44.53 1.9 1.9 0 0 1 -.63.33 2.67 2.67 0 0 1 -.75.11 3 3 0 0 1 -1.29-.28 2 2 0 0 1 -.9-.85z"/><path d="m159.39 366.18h.78l1.32 4.64 1.52-4.64h.67l1.62 4.64 1.29-4.64h.71l-1.61 5.54h-.69l-1.63-4.53-1.52 4.53h-.74z"/><path d="m173.28 370.68a2.34 2.34 0 0 1 -1 .91 3.24 3.24 0 0 1 -1.34.28 3 3 0 0 1 -1.13-.22 2.45 2.45 0 0 1 -.87-.61 2.53 2.53 0 0 1 -.56-.92 3.44 3.44 0 0 1 -.2-1.18 3.27 3.27 0 0 1 .2-1.15 2.86 2.86 0 0 1 .57-.92 2.5 2.5 0 0 1 .86-.61 2.64 2.64 0 0 1 1.1-.23 2.54 2.54 0 0 1 1.1.23 2.4 2.4 0 0 1 .81.58 2.7 2.7 0 0 1 .48.84 2.61 2.61 0 0 1 .17.95v.5h-4.58a2.42 2.42 0 0 0 .09.58 2.16 2.16 0 0 0 .32.69 2 2 0 0 0 .64.58 1.93 1.93 0 0 0 1 .24 2.22 2.22 0 0 0 1.06-.22 1.94 1.94 0 0 0 .78-.72zm-.54-2.2a1.58 1.58 0 0 0 -.15-.69 1.64 1.64 0 0 0 -.4-.57 1.73 1.73 0 0 0 -.6-.39 1.85 1.85 0 0 0 -.74-.15 1.8 1.8 0 0 0 -1 .24 2.34 2.34 0 0 0 -.61.55 2.07 2.07 0 0 0 -.31.61 1.46 1.46 0 0 0 -.1.4z"/><path d="m175 367.74c0-.11 0-.23 0-.38s0-.3 0-.45 0-.29 0-.43 0-.23 0-.3h.71v.6a1.41 1.41 0 0 0 0 .37 2.34 2.34 0 0 1 .69-.8 1.71 1.71 0 0 1 1-.32h.21.21l-.09.71a.86.86 0 0 0 -.27-.05 1.92 1.92 0 0 0 -.79.15 1.48 1.48 0 0 0 -.56.42 1.74 1.74 0 0 0 -.32.62 2.63 2.63 0 0 0 -.11.76v3h-.68z"/><path d="m241.17 468h5.06a6 6 0 0 1 2.28.38 4 4 0 0 1 1.41 1 3.3 3.3 0 0 1 .72 1.32 5.17 5.17 0 0 1 .2 1.42 5.05 5.05 0 0 1 -.2 1.41 3.27 3.27 0 0 1 -.72 1.33 4 4 0 0 1 -1.41 1 6 6 0 0 1 -2.28.38h-3.11v6.45h-2zm2 6.45h2.56a7.08 7.08 0 0 0 1.13-.1 3 3 0 0 0 1-.34 1.84 1.84 0 0 0 .7-.71 2.95 2.95 0 0 0 0-2.42 1.84 1.84 0 0 0 -.7-.71 3 3 0 0 0 -1-.34 7.08 7.08 0 0 0 -1.13-.1h-2.56z"/><path d="m253.22 468h9.29v1.86h-7.34v4.36h6.83v1.86h-6.83v4.69h7.7v1.86h-9.65z"/><path d="m265.64 468h5.06a5.87 5.87 0 0 1 2.27.38 4 4 0 0 1 1.42 1 3.56 3.56 0 0 1 .72 1.32 5.58 5.58 0 0 1 .2 1.42 3.78 3.78 0 0 1 -.95 2.53 3.92 3.92 0 0 1 -1.11.89 3.76 3.76 0 0 1 -1.48.44l4.09 6.68h-2.44l-3.66-6.45h-2.17v6.45h-1.95zm1.95 6.45h2.56a7.19 7.19 0 0 0 1.13-.1 2.83 2.83 0 0 0 1-.34 1.77 1.77 0 0 0 .7-.71 2.85 2.85 0 0 0 0-2.42 1.77 1.77 0 0 0 -.7-.71 2.83 2.83 0 0 0 -1-.34 7.19 7.19 0 0 0 -1.13-.1h-2.56z"/><path d="m288.07 471.2a4.05 4.05 0 0 0 -1.54-1.24 4.55 4.55 0 0 0 -1.93-.43 5.11 5.11 0 0 0 -2.21.46 5.19 5.19 0 0 0 -1.69 1.27 5.86 5.86 0 0 0 -1.08 1.89 6.86 6.86 0 0 0 -.39 2.33 6.38 6.38 0 0 0 .37 2.19 5.49 5.49 0 0 0 1 1.82 5 5 0 0 0 1.69 1.23 5.28 5.28 0 0 0 2.26.46 4.36 4.36 0 0 0 2.17-.52 4.73 4.73 0 0 0 1.59-1.44l1.64 1.26a7 7 0 0 1 -.57.65 5.86 5.86 0 0 1 -1.07.84 7.64 7.64 0 0 1 -1.62.75 6.9 6.9 0 0 1 -2.18.32 7 7 0 0 1 -3.08-.66 7.31 7.31 0 0 1 -2.34-1.74 7.53 7.53 0 0 1 -1.47-2.43 7.67 7.67 0 0 1 -.51-2.73 8.58 8.58 0 0 1 .55-3.13 7.2 7.2 0 0 1 1.53-2.48 6.76 6.76 0 0 1 2.37-1.62 7.75 7.75 0 0 1 3.05-.58 7.17 7.17 0 0 1 2.79.56 5.23 5.23 0 0 1 2.25 1.71z"/><path d="m292.36 468h9.29v1.86h-7.34v4.36h6.83v1.86h-6.83v4.69h7.69v1.86h-9.65z"/><path d="m304.78 468h2.56l7.92 12v-12h1.95v14.63h-2.48l-8-12v12h-2z"/><path d="m324 469.9h-4.64v-1.9h11.22v1.86h-4.63v12.77h-2z"/><path d="m335.26 468h1.74l6.15 14.63h-2.27l-1.45-3.62h-6.85l-1.42 3.62h-2.27zm3.49 9.28-2.68-6.72-2.72 6.72z"/><path d="m357.3 474.49v7.21a6.25 6.25 0 0 1 -1.19.57 12 12 0 0 1 -1.4.43 14.39 14.39 0 0 1 -1.46.26 13.9 13.9 0 0 1 -1.39.08 8.17 8.17 0 0 1 -3.26-.62 7 7 0 0 1 -3.92-4.12 8.29 8.29 0 0 1 -.52-2.95 8 8 0 0 1 .56-3 7.4 7.4 0 0 1 1.54-2.44 7 7 0 0 1 2.37-1.62 7.51 7.51 0 0 1 3-.59 9 9 0 0 1 3.25.5 6 6 0 0 1 2.11 1.4l-1.38 1.51a5.05 5.05 0 0 0 -1.89-1.21 6.36 6.36 0 0 0 -2.09-.34 5.22 5.22 0 0 0 -2.24.46 5.27 5.27 0 0 0 -2.8 3.1 6.51 6.51 0 0 0 -.39 2.26 6 6 0 0 0 .43 2.31 5.47 5.47 0 0 0 2.94 3.08 5.6 5.6 0 0 0 2.22.44 9.5 9.5 0 0 0 2-.2 5.25 5.25 0 0 0 1.57-.57v-4.07h-3.19v-1.85z"/><path d="m360.86 468h9.29v1.86h-7.34v4.36h6.83v1.86h-6.83v4.69h7.7v1.86h-9.65z"/><path d="m201.23 227.17-1.73 1.45-.5-.62 2.38-2h.69v9.76h-.82z"/><path d="m205.09 230.89c0-.35 0-.72 0-1.11a7.13 7.13 0 0 1 .18-1.14 5.27 5.27 0 0 1 .35-1.06 3.18 3.18 0 0 1 .58-.89 2.46 2.46 0 0 1 .84-.61 3.12 3.12 0 0 1 2.35 0 2.46 2.46 0 0 1 .84.61 3.18 3.18 0 0 1 .58.89 6 6 0 0 1 .35 1.06 7.13 7.13 0 0 1 .18 1.14v1.11s0 .73 0 1.12a7.19 7.19 0 0 1 -.18 1.13 6 6 0 0 1 -.35 1.06 3.18 3.18 0 0 1 -.58.89 2.46 2.46 0 0 1 -.84.61 3.12 3.12 0 0 1 -2.35 0 2.46 2.46 0 0 1 -.84-.61 3.18 3.18 0 0 1 -.58-.89 5.27 5.27 0 0 1 -.35-1.06 7.19 7.19 0 0 1 -.18-1.13c.02-.39 0-.76 0-1.12zm.9 0v.85a7.54 7.54 0 0 0 .1.93 7 7 0 0 0 .24.93 2.8 2.8 0 0 0 .41.81 1.92 1.92 0 0 0 .61.56 1.87 1.87 0 0 0 1.76 0 2 2 0 0 0 .62-.56 3.08 3.08 0 0 0 .41-.81 5.75 5.75 0 0 0 .23-.93 7.59 7.59 0 0 0 .11-.93c0-.31 0-.59 0-.85s0-.53 0-.84a7.52 7.52 0 0 0 -.11-.94 5.75 5.75 0 0 0 -.23-.93 3.24 3.24 0 0 0 -.41-.81 2 2 0 0 0 -.62-.56 1.85 1.85 0 0 0 -1.75 0 1.85 1.85 0 0 0 -.62.56 2.94 2.94 0 0 0 -.41.81 7 7 0 0 0 -.24.93 7.5 7.5 0 0 0 -.1.94q.01.47.01.84z"/><path d="m212.3 228.22a2.32 2.32 0 0 1 .18-.92 2.48 2.48 0 0 1 .51-.76 2.31 2.31 0 0 1 .73-.5 2.15 2.15 0 0 1 .91-.19 2.12 2.12 0 0 1 .91.19 2.36 2.36 0 0 1 .74.5 2.45 2.45 0 0 1 .5.76 2.44 2.44 0 0 1 0 1.84 2.29 2.29 0 0 1 -.5.75 2.23 2.23 0 0 1 -.74.51 2.12 2.12 0 0 1 -.91.19 2.15 2.15 0 0 1 -.91-.19 2.19 2.19 0 0 1 -.73-.51 2.3 2.3 0 0 1 -.69-1.67zm.73 0a1.7 1.7 0 0 0 .13.64 1.54 1.54 0 0 0 .35.51 1.41 1.41 0 0 0 .51.35 1.54 1.54 0 0 0 .61.12 1.63 1.63 0 0 0 .62-.12 1.6 1.6 0 0 0 .51-.35 1.64 1.64 0 0 0 .34-1.79 1.67 1.67 0 0 0 -.34-.52 1.57 1.57 0 0 0 -.51-.34 1.47 1.47 0 0 0 -.62-.13 1.65 1.65 0 0 0 -1.12.47 1.64 1.64 0 0 0 -.48 1.16zm7.08-2.67.62.38-6.19 10.3-.61-.38zm-2.46 8a2.17 2.17 0 0 1 .19-.92 2.35 2.35 0 0 1 .5-.75 2.23 2.23 0 0 1 .74-.51 2.25 2.25 0 0 1 1.81 0 2.23 2.23 0 0 1 .74.51 2.52 2.52 0 0 1 .5.75 2.32 2.32 0 0 1 .18.92 2.41 2.41 0 0 1 -.18.93 2.52 2.52 0 0 1 -.5.75 2.57 2.57 0 0 1 -.74.51 2.37 2.37 0 0 1 -1.81 0 2.57 2.57 0 0 1 -.74-.51 2.35 2.35 0 0 1 -.5-.75 2.24 2.24 0 0 1 -.19-.92zm.73 0a1.66 1.66 0 0 0 .13.64 1.7 1.7 0 0 0 .35.52 1.39 1.39 0 0 0 .51.34 1.42 1.42 0 0 0 .61.13 1.47 1.47 0 0 0 .62-.13 1.57 1.57 0 0 0 .51-.34 1.67 1.67 0 0 0 .34-.52 1.5 1.5 0 0 0 .13-.64 1.64 1.64 0 0 0 -.47-1.15 1.6 1.6 0 0 0 -.51-.35 1.63 1.63 0 0 0 -.62-.12 1.58 1.58 0 0 0 -.61.12 1.41 1.41 0 0 0 -.51.35 1.54 1.54 0 0 0 -.35.51 1.7 1.7 0 0 0 -.13.65z"/><path d="m549.58 279.77h-4.15v-1l3.84-6.37h1.12v6.6h1.47v.74h-1.47v2.4h-.81zm0-6.45-3.41 5.68h3.41z"/><path d="m552.52 277.29c0-.35 0-.72.05-1.11a8.46 8.46 0 0 1 .17-1.14 6 6 0 0 1 .36-1.06 3.15 3.15 0 0 1 .57-.89 2.6 2.6 0 0 1 .85-.61 3.09 3.09 0 0 1 2.34 0 2.6 2.6 0 0 1 .85.61 3.42 3.42 0 0 1 .58.89 6.93 6.93 0 0 1 .35 1.06 8.46 8.46 0 0 1 .17 1.14c0 .39.05.76.05 1.11s0 .73-.05 1.12a8.56 8.56 0 0 1 -.17 1.13 6.93 6.93 0 0 1 -.35 1.06 3.26 3.26 0 0 1 -.58.89 2.76 2.76 0 0 1 -4 0 3 3 0 0 1 -.57-.89 6 6 0 0 1 -.36-1.06 8.56 8.56 0 0 1 -.17-1.13c-.07-.41-.09-.76-.09-1.12zm.89 0v.85s.06.62.11.94a5 5 0 0 0 .24.92 3.06 3.06 0 0 0 .4.81 2.07 2.07 0 0 0 .62.56 1.64 1.64 0 0 0 .88.22 1.69 1.69 0 0 0 .88-.22 2.07 2.07 0 0 0 .62-.56 3.06 3.06 0 0 0 .4-.81 5 5 0 0 0 .24-.92 7.75 7.75 0 0 0 .11-.94c0-.31 0-.59 0-.85s0-.53 0-.84a7.52 7.52 0 0 0 -.11-.94 4.89 4.89 0 0 0 -.24-.93 3.4 3.4 0 0 0 -.4-.81 2.07 2.07 0 0 0 -.62-.56 1.79 1.79 0 0 0 -.88-.22 1.75 1.75 0 0 0 -.87.22 2 2 0 0 0 -.63.56 3.4 3.4 0 0 0 -.4.81 4.89 4.89 0 0 0 -.24.93c0 .31-.09.63-.11.94s0 .55 0 .84z"/><path d="m559.73 274.62a2.32 2.32 0 0 1 .18-.92 2.29 2.29 0 0 1 .5-.75 2.23 2.23 0 0 1 .74-.51 2.12 2.12 0 0 1 .91-.19 2.15 2.15 0 0 1 .91.19 2.29 2.29 0 0 1 .73.51 2.35 2.35 0 0 1 0 3.34 2.29 2.29 0 0 1 -.73.51 2.15 2.15 0 0 1 -.91.19 2.12 2.12 0 0 1 -.91-.19 2.23 2.23 0 0 1 -.74-.51 2.29 2.29 0 0 1 -.5-.75 2.32 2.32 0 0 1 -.18-.92zm.73 0a1.53 1.53 0 0 0 .13.64 1.67 1.67 0 0 0 .34.52 1.75 1.75 0 0 0 .51.34 1.64 1.64 0 0 0 .62.13 1.59 1.59 0 0 0 .61-.13 1.52 1.52 0 0 0 .51-.34 1.64 1.64 0 0 0 0-2.32 1.52 1.52 0 0 0 -.51-.34 1.59 1.59 0 0 0 -.61-.13 1.64 1.64 0 0 0 -.62.13 1.75 1.75 0 0 0 -.51.34 1.67 1.67 0 0 0 -.34.52 1.53 1.53 0 0 0 -.13.64zm7.07-2.67.62.38-6.15 10.31-.61-.39zm-2.45 8a2.36 2.36 0 0 1 .18-.92 2.52 2.52 0 0 1 .5-.75 2.33 2.33 0 0 1 .74-.51 2.27 2.27 0 0 1 1.82 0 2.33 2.33 0 0 1 .74.51 2.73 2.73 0 0 1 .5.75 2.36 2.36 0 0 1 .18.92 2.41 2.41 0 0 1 -.18.93 2.39 2.39 0 0 1 -1.24 1.26 2.39 2.39 0 0 1 -1.82 0 2.71 2.71 0 0 1 -.74-.51 2.52 2.52 0 0 1 -.5-.75 2.41 2.41 0 0 1 -.18-.88zm.73 0a1.5 1.5 0 0 0 .13.64 1.7 1.7 0 0 0 .35.52 1.43 1.43 0 0 0 .5.34 1.54 1.54 0 0 0 1.24 0 1.43 1.43 0 0 0 .5-.34 1.7 1.7 0 0 0 .35-.52 1.5 1.5 0 0 0 .12-.59 1.53 1.53 0 0 0 -.13-.64 1.65 1.65 0 0 0 -.35-.51 1.46 1.46 0 0 0 -.5-.35 1.66 1.66 0 0 0 -1.24 0 1.46 1.46 0 0 0 -.5.35 1.65 1.65 0 0 0 -.35.51 1.53 1.53 0 0 0 -.12.64z"/><path d="m550 325.47h-4.15v-1l3.83-6.38h1.13v6.61h1.46v.74h-1.46v2.4h-.81zm0-6.44-3.39 5.7h3.39z"/><path d="m552.94 323c0-.34 0-.71 0-1.1a8.61 8.61 0 0 1 .18-1.15 5.49 5.49 0 0 1 .35-1.06 3.33 3.33 0 0 1 .58-.89 2.6 2.6 0 0 1 .84-.61 3.12 3.12 0 0 1 2.35 0 2.6 2.6 0 0 1 .84.61 3.33 3.33 0 0 1 .58.89 5.49 5.49 0 0 1 .35 1.06 7.25 7.25 0 0 1 .18 1.15v1.1s0 .73 0 1.12a7.31 7.31 0 0 1 -.18 1.14 5.49 5.49 0 0 1 -.35 1.06 3.33 3.33 0 0 1 -.58.89 2.6 2.6 0 0 1 -.84.61 3.12 3.12 0 0 1 -2.35 0 2.6 2.6 0 0 1 -.84-.61 3.33 3.33 0 0 1 -.58-.89 5.49 5.49 0 0 1 -.35-1.06 8.72 8.72 0 0 1 -.18-1.14c.06-.4 0-.77 0-1.12zm.89 0v.85a6.16 6.16 0 0 0 .11.94 6 6 0 0 0 .23.93 3.17 3.17 0 0 0 .41.8 1.87 1.87 0 0 0 .62.57 1.71 1.71 0 0 0 .88.21 1.75 1.75 0 0 0 .87-.21 1.78 1.78 0 0 0 .62-.57 2.87 2.87 0 0 0 .41-.8 7.47 7.47 0 0 0 .24-.93c0-.32.09-.63.11-.94s0-.59 0-.85 0-.52 0-.84-.06-.62-.11-.94a7 7 0 0 0 -.24-.93 2.87 2.87 0 0 0 -.41-.8 1.78 1.78 0 0 0 -.62-.57 1.93 1.93 0 0 0 -1.75 0 1.87 1.87 0 0 0 -.62.57 3.17 3.17 0 0 0 -.41.8 5.75 5.75 0 0 0 -.23.93 6.16 6.16 0 0 0 -.11.94q0 .47 0 .84z"/><path d="m560.14 320.32a2.17 2.17 0 0 1 .19-.92 2.35 2.35 0 0 1 .5-.75 2.23 2.23 0 0 1 .74-.51 2.25 2.25 0 0 1 1.81 0 2.23 2.23 0 0 1 .74.51 2.52 2.52 0 0 1 .5.75 2.32 2.32 0 0 1 .18.92 2.41 2.41 0 0 1 -.18.93 2.52 2.52 0 0 1 -.5.75 2.57 2.57 0 0 1 -.74.51 2.37 2.37 0 0 1 -1.81 0 2.57 2.57 0 0 1 -.74-.51 2.35 2.35 0 0 1 -.5-.75 2.24 2.24 0 0 1 -.19-.93zm.73 0a1.66 1.66 0 0 0 .13.64 1.7 1.7 0 0 0 .35.52 1.39 1.39 0 0 0 .51.34 1.52 1.52 0 0 0 1.23 0 1.57 1.57 0 0 0 .51-.34 1.67 1.67 0 0 0 .34-.52 1.5 1.5 0 0 0 .13-.64 1.64 1.64 0 0 0 -.47-1.15 1.53 1.53 0 0 0 -1.13-.47 1.58 1.58 0 0 0 -.61.12 1.41 1.41 0 0 0 -.51.35 1.54 1.54 0 0 0 -.35.51 1.7 1.7 0 0 0 -.13.64zm7.08-2.67.62.39-6.19 10.3-.61-.39zm-2.46 8a2.41 2.41 0 0 1 .19-.93 2.52 2.52 0 0 1 .5-.75 2.57 2.57 0 0 1 .74-.51 2.37 2.37 0 0 1 1.81 0 2.57 2.57 0 0 1 .74.51 2.52 2.52 0 0 1 .5.75 2.41 2.41 0 0 1 .18.93 2.36 2.36 0 0 1 -.18.92 2.52 2.52 0 0 1 -.5.75 2.23 2.23 0 0 1 -.74.51 2.25 2.25 0 0 1 -1.81 0 2.23 2.23 0 0 1 -.74-.51 2.52 2.52 0 0 1 -.5-.75 2.37 2.37 0 0 1 -.19-.9zm.74 0a1.53 1.53 0 0 0 .13.64 1.63 1.63 0 0 0 .34.51 1.54 1.54 0 0 0 .51.35 1.64 1.64 0 0 0 1.23 0 1.65 1.65 0 0 0 .51-.35 1.63 1.63 0 0 0 .34-.51 1.53 1.53 0 0 0 .13-.64 1.5 1.5 0 0 0 -.13-.64 1.67 1.67 0 0 0 -.34-.52 1.65 1.65 0 0 0 -.51-.35 1.64 1.64 0 0 0 -1.23 0 1.54 1.54 0 0 0 -.51.35 1.67 1.67 0 0 0 -.34.52 1.5 1.5 0 0 0 -.13.66z"/><path d="m199.87 364.35-1.51 1.26-.44-.56 2.07-1.71h.6v8.49h-.71z"/><path d="m203.24 367.59c0-.31 0-.63 0-1a8.31 8.31 0 0 1 .15-1 5.53 5.53 0 0 1 .31-.92 2.92 2.92 0 0 1 .5-.77 2.21 2.21 0 0 1 .74-.54 2.7 2.7 0 0 1 2 0 2.21 2.21 0 0 1 .74.54 2.92 2.92 0 0 1 .5.77 5.53 5.53 0 0 1 .31.92 8.31 8.31 0 0 1 .15 1v1s0 .63 0 1a8.46 8.46 0 0 1 -.15 1 5.53 5.53 0 0 1 -.31.92 3.15 3.15 0 0 1 -.5.78 2.33 2.33 0 0 1 -.74.53 2.7 2.7 0 0 1 -2 0 2.33 2.33 0 0 1 -.74-.53 3.15 3.15 0 0 1 -.5-.78 5.53 5.53 0 0 1 -.31-.92 8.46 8.46 0 0 1 -.15-1c.01-.37 0-.69 0-1zm.78 0v.73a8 8 0 0 0 .1.82 4.36 4.36 0 0 0 .2.81 2.57 2.57 0 0 0 .36.7 1.55 1.55 0 0 0 .53.49 1.64 1.64 0 0 0 1.53 0 1.49 1.49 0 0 0 .54-.49 2.57 2.57 0 0 0 .36-.7 4.36 4.36 0 0 0 .2-.81 8 8 0 0 0 .1-.82c0-.26 0-.51 0-.73s0-.46 0-.74a8 8 0 0 0 -.1-.82 4.79 4.79 0 0 0 -.2-.81 2.57 2.57 0 0 0 -.36-.7 1.59 1.59 0 0 0 -.54-.49 1.45 1.45 0 0 0 -.76-.19 1.43 1.43 0 0 0 -.76.19 1.59 1.59 0 0 0 -.54.49 2.57 2.57 0 0 0 -.36.7 4.79 4.79 0 0 0 -.2.81 8 8 0 0 0 -.1.82c-.02.28-.02.52-.02.74z"/><path d="m209.52 365.26a2 2 0 0 1 .16-.81 2.16 2.16 0 0 1 .43-.65 1.92 1.92 0 0 1 .65-.44 1.86 1.86 0 0 1 .79-.17 1.93 1.93 0 0 1 .79.17 1.88 1.88 0 0 1 .64.44 2.2 2.2 0 0 1 .44.65 2 2 0 0 1 .16.81 1.94 1.94 0 0 1 -.16.8 2.12 2.12 0 0 1 -.44.66 2.21 2.21 0 0 1 -.64.44 1.92 1.92 0 0 1 -.79.16 1.86 1.86 0 0 1 -.79-.16 2.26 2.26 0 0 1 -.65-.44 2.09 2.09 0 0 1 -.43-.66 1.94 1.94 0 0 1 -.16-.8zm.63 0a1.34 1.34 0 0 0 .12.56 1.37 1.37 0 0 0 .3.45 1.55 1.55 0 0 0 .44.3 1.4 1.4 0 0 0 .54.1 1.32 1.32 0 0 0 .53-.1 1.38 1.38 0 0 0 .75-.75 1.51 1.51 0 0 0 .11-.56 1.47 1.47 0 0 0 -.11-.56 1.77 1.77 0 0 0 -.3-.45 1.37 1.37 0 0 0 -.45-.3 1.32 1.32 0 0 0 -.53-.11 1.41 1.41 0 0 0 -.54.11 1.23 1.23 0 0 0 -.44.3 1.37 1.37 0 0 0 -.3.45 1.31 1.31 0 0 0 -.12.56zm6.17-2.33.54.34-5.39 9-.54-.33zm-2.14 7a2 2 0 0 1 .6-1.45 2.06 2.06 0 0 1 .64-.45 2 2 0 0 1 1.58 0 2.06 2.06 0 0 1 .64.45 2.08 2.08 0 0 1 .44 2.26 2 2 0 0 1 -3.74 0 2 2 0 0 1 -.16-.83zm.64 0a1.3 1.3 0 0 0 .11.56 1.37 1.37 0 0 0 .3.45 1.32 1.32 0 0 0 .44.3 1.38 1.38 0 0 0 1.08 0 1.32 1.32 0 0 0 .44-.3 1.37 1.37 0 0 0 .3-.45 1.3 1.3 0 0 0 .11-.56 1.26 1.26 0 0 0 -.11-.55 1.19 1.19 0 0 0 -.3-.45 1.32 1.32 0 0 0 -.44-.3 1.38 1.38 0 0 0 -1.08 0 1.32 1.32 0 0 0 -.44.3 1.19 1.19 0 0 0 -.3.45 1.26 1.26 0 0 0 -.11.53z"/><path d="m57.86 28.5h2.25l4.23 11.9 4.39-11.9h2.17l-5.67 14.62h-1.83z"/><path d="m76.21 28.5h1.79l6.16 14.62h-2.3l-1.45-3.61h-6.85l-1.42 3.61h-2.27zm3.49 9.27-2.7-6.71-2.72 6.71z"/><path d="m86 28.5h5.06a5.78 5.78 0 0 1 2.28.38 3.92 3.92 0 0 1 1.41 1 3.17 3.17 0 0 1 .72 1.32 5.12 5.12 0 0 1 .2 1.42 3.84 3.84 0 0 1 -.24 1.35 3.92 3.92 0 0 1 -.7 1.18 4.11 4.11 0 0 1 -1.12.89 3.76 3.76 0 0 1 -1.47.44l4.08 6.67h-2.44l-3.65-6.44h-2.13v6.44h-2zm2 6.44h2.56a7.08 7.08 0 0 0 1.13-.09 3.19 3.19 0 0 0 1-.34 1.91 1.91 0 0 0 .7-.71 2.52 2.52 0 0 0 .26-1.21 2.5 2.5 0 0 0 -.26-1.21 1.84 1.84 0 0 0 -.7-.71 3 3 0 0 0 -1-.34 6.09 6.09 0 0 0 -1.13-.1h-2.56z"/><path d="m98.42 28.5h2v14.62h-2z"/><path d="m104.07 28.5h9.28v1.86h-7.35v4.35h6.83v1.86h-6.83v4.69h7.7v1.86h-9.65z"/><path d="m119.49 30.36h-4.63v-1.86h11.21v1.86h-4.63v12.76h-2z"/><path d="m131.54 36.88-5.45-8.38h2.5l3.93 6.42 4-6.42h2.38l-5.45 8.38v6.24h-2z"/><path d="m139.69 35.93a1.29 1.29 0 0 1 -.95-.4 1.38 1.38 0 0 1 0-1.92 1.29 1.29 0 0 1 .95-.4 1.25 1.25 0 0 1 .94.4 1.35 1.35 0 0 1 0 1.92 1.25 1.25 0 0 1 -.94.4zm-1.34 6a1.35 1.35 0 0 1 1.34-1.36 1.29 1.29 0 0 1 .94.4 1.31 1.31 0 0 1 .4 1 1.28 1.28 0 0 1 -.4 1 1.26 1.26 0 0 1 -.94.41 1.37 1.37 0 0 1 -1.34-1.37z"/></g><path d="m162.51 40.42a3.43 3.43 0 0 0 1.37 1.38 4 4 0 0 0 1.92.46 3.7 3.7 0 0 0 1.26-.21 3.35 3.35 0 0 0 1-.58 2.78 2.78 0 0 0 .69-.9 2.67 2.67 0 0 0 .25-1.19 2.31 2.31 0 0 0 -.31-1.26 2.54 2.54 0 0 0 -.85-.81 5.67 5.67 0 0 0 -1.19-.55l-1.36-.45c-.47-.16-.92-.33-1.36-.52a4.44 4.44 0 0 1 -1.19-.75 3.38 3.38 0 0 1 -.84-1.17 4.26 4.26 0 0 1 -.32-1.74 3.82 3.82 0 0 1 .38-1.72 3.59 3.59 0 0 1 1-1.26 4.3 4.3 0 0 1 1.47-.77 5.93 5.93 0 0 1 1.75-.26 5.61 5.61 0 0 1 2.18.43 4.16 4.16 0 0 1 1.79 1.45l-1.16.85a3.46 3.46 0 0 0 -1.19-1.08 3.27 3.27 0 0 0 -1.61-.37 4.18 4.18 0 0 0 -1.24.18 3 3 0 0 0 -1 .52 2.42 2.42 0 0 0 -.7.85 2.61 2.61 0 0 0 -.27 1.22 2.44 2.44 0 0 0 .55 1.69 4.05 4.05 0 0 0 1.37.93 17.85 17.85 0 0 0 1.79.6 8.32 8.32 0 0 1 1.79.69 3.79 3.79 0 0 1 1.37 1.21 3.59 3.59 0 0 1 .55 2.13 4.07 4.07 0 0 1 -.36 1.76 4 4 0 0 1 -1 1.29 4.26 4.26 0 0 1 -1.43.8 5.34 5.34 0 0 1 -1.69.27 6.62 6.62 0 0 1 -2.62-.51 4.88 4.88 0 0 1 -2.05-1.7z" fill="#9bff00"/><path d="m177.83 28.5h1.38l6.06 14.62h-1.51l-1.56-3.88h-7.62l-1.58 3.88h-1.4zm.63 1.48-3.35 8h6.6z" fill="#9bff00"/><path d="m187.34 28.5h3.78.77a7 7 0 0 1 1.06.12 6.79 6.79 0 0 1 1.16.33 3.21 3.21 0 0 1 1 .66 3.46 3.46 0 0 1 .78 1.1 3.89 3.89 0 0 1 .3 1.61 3.8 3.8 0 0 1 -.35 1.73 3.33 3.33 0 0 1 -.9 1.11 3.78 3.78 0 0 1 -1.19.63 7.61 7.61 0 0 1 -1.24.29l4.19 7h-1.53l-4-6.94h-2.5v6.94h-1.34zm1.34 6.44h2.85a4.57 4.57 0 0 0 1.71-.27 2.74 2.74 0 0 0 1-.66 2.16 2.16 0 0 0 .5-.84 2.71 2.71 0 0 0 0-1.66 2.16 2.16 0 0 0 -.5-.84 2.75 2.75 0 0 0 -1-.67 4.81 4.81 0 0 0 -1.71-.26h-2.85z" fill="#9bff00"/><path d="m202.7 29.74h-4.92v-1.24h11.22v1.24h-5v13.38h-1.3z" fill="#9bff00"/><path d="m211.18 28.5h1.34v6.44h8v-6.44h1.35v14.62h-1.35v-6.94h-8v6.94h-1.34z" fill="#9bff00"/><path d="m225.85 28.5h8.8v1.24h-7.46v5.2h7v1.24h-7v5.7h7.81v1.24h-9.12z" fill="#9bff00"/><path d="m237.9 28.5h4.1a10.28 10.28 0 0 1 1.65.13 3.88 3.88 0 0 1 1.49.56 3.17 3.17 0 0 1 1.08 1.18 4.06 4.06 0 0 1 .42 2 3.07 3.07 0 0 1 -.64 1.93 3.22 3.22 0 0 1 -1.93 1.1 3.73 3.73 0 0 1 1.3.34 3.18 3.18 0 0 1 1.67 1.85 4.47 4.47 0 0 1 -.24 3.46 3.69 3.69 0 0 1 -1.2 1.25 4.6 4.6 0 0 1 -1.56.62 8.3 8.3 0 0 1 -1.58.16h-4.56zm1.34 6.32h2.76a4.69 4.69 0 0 0 1.69-.26 3 3 0 0 0 1-.63 1.87 1.87 0 0 0 .48-.8 2.53 2.53 0 0 0 .13-.77 2.81 2.81 0 0 0 -.26-1.27 2.08 2.08 0 0 0 -.68-.81 2.67 2.67 0 0 0 -1-.42 5.81 5.81 0 0 0 -1.2-.12h-3zm0 7.06h3.07a5.06 5.06 0 0 0 1.9-.29 2.89 2.89 0 0 0 1.11-.72 2.22 2.22 0 0 0 .51-.92 3.27 3.27 0 0 0 .14-.88 3 3 0 0 0 -.31-1.38 2.7 2.7 0 0 0 -.79-.94 3.35 3.35 0 0 0 -1.11-.53 4.82 4.82 0 0 0 -1.25-.16h-3.27z" fill="#9bff00"/><path d="m255.11 28.5h1.38l6.06 14.62h-1.55l-1.56-3.88h-7.62l-1.63 3.88h-1.4zm.63 1.48-3.35 8h6.61z" fill="#9bff00"/><path d="m264.62 28.5h3.78.77a7 7 0 0 1 1.06.12 6.79 6.79 0 0 1 1.16.33 3.21 3.21 0 0 1 1.05.66 3.46 3.46 0 0 1 .78 1.1 3.89 3.89 0 0 1 .3 1.61 3.8 3.8 0 0 1 -.35 1.73 3.33 3.33 0 0 1 -.9 1.11 3.78 3.78 0 0 1 -1.19.63 7.61 7.61 0 0 1 -1.24.29l4.19 7h-1.53l-4-6.94h-2.5v6.94h-1.34zm1.38 6.44h2.85a4.57 4.57 0 0 0 1.71-.27 2.74 2.74 0 0 0 1-.66 2.16 2.16 0 0 0 .5-.84 2.71 2.71 0 0 0 0-1.66 2.16 2.16 0 0 0 -.5-.84 2.75 2.75 0 0 0 -1-.67 4.81 4.81 0 0 0 -1.71-.26h-2.85z" fill="#9bff00"/><path d="m276.67 28.5h1.33v14.62h-1.34z" fill="#9bff00"/><path d="m285.15 36.82-5.29-8.32h1.61l4.35 6.94 4.45-6.94h1.5l-5.28 8.32v6.3h-1.34z" fill="#9bff00"/><path d="m296.53 28.5h1.38l6 14.62h-1.5l-1.57-3.88h-7.62l-1.62 3.88h-1.4zm.62 1.48-3.35 8h6.61z" fill="#9bff00"/><path d="m59.83 61.78h5.06a5.87 5.87 0 0 1 2.27.38 3.89 3.89 0 0 1 1.42 1 3.41 3.41 0 0 1 .72 1.32 5.11 5.11 0 0 1 0 2.83 3.41 3.41 0 0 1 -.72 1.32 3.88 3.88 0 0 1 -1.42 1 5.69 5.69 0 0 1 -2.27.38h-3.11v6.45h-2zm2 6.45h2.56a7.17 7.17 0 0 0 1.13-.09 3.06 3.06 0 0 0 1-.35 1.77 1.77 0 0 0 .7-.71 2.38 2.38 0 0 0 .27-1.21 2.41 2.41 0 0 0 -.27-1.21 1.84 1.84 0 0 0 -.7-.71 3 3 0 0 0 -1-.34 7.17 7.17 0 0 0 -1.13-.09h-2.61z" fill="#fff"/><path d="m78.48 76.78a7.58 7.58 0 0 1 -3-.59 6.9 6.9 0 0 1 -2.36-1.62 7.59 7.59 0 0 1 -1.55-2.44 8.5 8.5 0 0 1 0-6.07 7.59 7.59 0 0 1 1.55-2.44 6.9 6.9 0 0 1 2.33-1.62 8.08 8.08 0 0 1 6.06 0 7 7 0 0 1 2.37 1.62 7.56 7.56 0 0 1 1.54 2.44 8.5 8.5 0 0 1 0 6.07 7.56 7.56 0 0 1 -1.54 2.44 7 7 0 0 1 -2.37 1.62 7.51 7.51 0 0 1 -3.03.59zm0-1.86a5.25 5.25 0 0 0 2.24-.46 5.27 5.27 0 0 0 2.8-3.1 6.77 6.77 0 0 0 0-4.53 5.52 5.52 0 0 0 -1.09-1.83 5.29 5.29 0 0 0 -1.71-1.24 5.37 5.37 0 0 0 -6.18 1.24 5.72 5.72 0 0 0 -1.1 1.85 6.94 6.94 0 0 0 0 4.53 5.72 5.72 0 0 0 1.1 1.85 5.18 5.18 0 0 0 3.94 1.71z" fill="#fff"/><path d="m88.78 61.78h5.06a5.93 5.93 0 0 1 2.28.38 3.77 3.77 0 0 1 1.41 1 3.17 3.17 0 0 1 .72 1.32 4.87 4.87 0 0 1 0 2.83 3.17 3.17 0 0 1 -.72 1.32 3.75 3.75 0 0 1 -1.41 1 5.74 5.74 0 0 1 -2.28.38h-3.1v6.45h-2zm2 6.45h2.52a7 7 0 0 0 1.12-.09 3 3 0 0 0 1-.35 1.84 1.84 0 0 0 .7-.71 2.39 2.39 0 0 0 .26-1.21 2.41 2.41 0 0 0 -.26-1.21 1.91 1.91 0 0 0 -.7-.71 3 3 0 0 0 -1-.34 7 7 0 0 0 -1.12-.09h-2.56z" fill="#fff"/><path d="m102.52 61.78v9a5.86 5.86 0 0 0 .18 1.41 4.51 4.51 0 0 0 .61 1.36 3.68 3.68 0 0 0 4.54 1 3.28 3.28 0 0 0 1.11-1 4.06 4.06 0 0 0 .61-1.36 5.43 5.43 0 0 0 .19-1.41v-9h1.95v9.28a6 6 0 0 1 -.43 2.32 5.46 5.46 0 0 1 -1.18 1.81 5.23 5.23 0 0 1 -1.77 1.18 6.08 6.08 0 0 1 -4.39 0 5.29 5.29 0 0 1 -1.76-1.18 5.46 5.46 0 0 1 -1.18-1.81 6 6 0 0 1 -.43-2.32v-9.28z" fill="#fff"/><path d="m115.14 61.78h2v12.77h6.61v1.86h-8.56z" fill="#fff"/><path d="m130.2 61.78h1.8l6.15 14.63h-2.27l-1.44-3.62h-6.85l-1.43 3.62h-2.27zm3.49 9.28-2.69-6.72-2.72 6.72z" fill="#fff"/><path d="m140 61.78h5.06a5.93 5.93 0 0 1 2.28.38 3.77 3.77 0 0 1 1.41 1 3.17 3.17 0 0 1 .72 1.32 5.13 5.13 0 0 1 .21 1.41 3.72 3.72 0 0 1 -.25 1.36 3.68 3.68 0 0 1 -.7 1.17 3.92 3.92 0 0 1 -2.59 1.34l4.09 6.67h-2.44l-3.67-6.43h-2.12v6.45h-2zm2 6.45h2.56a7 7 0 0 0 1.12-.09 3 3 0 0 0 1-.35 1.84 1.84 0 0 0 .7-.71 2.39 2.39 0 0 0 .26-1.21 2.41 2.41 0 0 0 -.26-1.21 1.91 1.91 0 0 0 -.7-.71 3 3 0 0 0 -1-.34 7 7 0 0 0 -1.12-.09h-2.56z" fill="#fff"/><path d="m152.41 61.78h2v14.63h-2z" fill="#fff"/><path d="m161.07 63.64h-4.64v-1.86h11.22v1.86h-4.65v12.77h-2z" fill="#fff"/><path d="m173.12 70.17-5.45-8.39h2.5l3.92 6.43 4-6.43h2.37l-5.44 8.39v6.24h-1.95z" fill="#fff"/><path d="m181.27 69.22a1.29 1.29 0 0 1 -1-.4 1.34 1.34 0 0 1 -.39-1 1.37 1.37 0 0 1 1.34-1.37 1.38 1.38 0 0 1 1.34 1.37 1.31 1.31 0 0 1 -.4 1 1.26 1.26 0 0 1 -.89.4zm-1.34 6a1.34 1.34 0 0 1 .39-1 1.29 1.29 0 0 1 1-.4 1.26 1.26 0 0 1 .94.4 1.35 1.35 0 0 1 0 1.92 1.26 1.26 0 0 1 -.94.4 1.29 1.29 0 0 1 -1-.4 1.34 1.34 0 0 1 -.39-.97z" fill="#fff"/><path d="m207.77 63.52-2.6 2.17-.76-1 3.56-3h1v14.72h-1.22z" fill="#fff"/><path d="m214.7 75.54a1 1 0 0 1 .28-.7 1 1 0 0 1 1.38 0 1 1 0 0 1 .29.7 1 1 0 0 1 -.29.71 1 1 0 0 1 -1.38 0 1 1 0 0 1 -.28-.71z" fill="#fff"/><path d="m219.65 65.34a3.86 3.86 0 0 1 .31-1.55 3.53 3.53 0 0 1 .83-1.2 3.89 3.89 0 0 1 1.25-.78 4.46 4.46 0 0 1 3.11 0 3.89 3.89 0 0 1 1.25.78 3.53 3.53 0 0 1 .83 1.2 3.7 3.7 0 0 1 .31 1.55 3.29 3.29 0 0 1 -.16 1 3.79 3.79 0 0 1 -.46 1 3.3 3.3 0 0 1 -.72.77 2.89 2.89 0 0 1 -1 .48 3.14 3.14 0 0 1 1.21.51 3.6 3.6 0 0 1 .88.86 4 4 0 0 1 .53 1.12 4.16 4.16 0 0 1 .19 1.27 4.46 4.46 0 0 1 -.34 1.79 3.79 3.79 0 0 1 -.93 1.35 4.34 4.34 0 0 1 -1.42.87 5.18 5.18 0 0 1 -3.53 0 4.4 4.4 0 0 1 -1.41-.87 3.82 3.82 0 0 1 -.94-1.35 4.64 4.64 0 0 1 -.33-1.79 4.48 4.48 0 0 1 .18-1.27 3.75 3.75 0 0 1 .54-1.12 3.56 3.56 0 0 1 .87-.86 3.21 3.21 0 0 1 1.21-.51 2.75 2.75 0 0 1 -.95-.48 3.14 3.14 0 0 1 -.73-.77 4.14 4.14 0 0 1 -.45-1 3.3 3.3 0 0 1 -.13-1zm.84 7a3.41 3.41 0 0 0 .22 1.24 3.19 3.19 0 0 0 .63 1 3 3 0 0 0 1 .69 2.93 2.93 0 0 0 1.28.26 3 3 0 0 0 2.25-1 3.19 3.19 0 0 0 .63-1 3.51 3.51 0 0 0 0-2.55 3.05 3.05 0 0 0 -.66-1 2.71 2.71 0 0 0 -1-.65 3.12 3.12 0 0 0 -1.22-.23 3.08 3.08 0 0 0 -1.22.23 2.75 2.75 0 0 0 -1 .65 3.05 3.05 0 0 0 -.66 1 3.43 3.43 0 0 0 -.25 1.36zm.51-7a2.75 2.75 0 0 0 .19 1 2.65 2.65 0 0 0 .53.85 2.37 2.37 0 0 0 .81.57 2.47 2.47 0 0 0 1.07.22 2.65 2.65 0 0 0 1.88-.79 2.63 2.63 0 0 0 .52-.85 2.75 2.75 0 0 0 .2-1 2.65 2.65 0 0 0 -.74-2 2.55 2.55 0 0 0 -1.86-.73 2.52 2.52 0 0 0 -1.86.73 2.61 2.61 0 0 0 -.74 2z" fill="#fff"/><path d="m230.22 65.34a3.7 3.7 0 0 1 .31-1.55 3.53 3.53 0 0 1 .83-1.2 3.89 3.89 0 0 1 1.25-.78 4.46 4.46 0 0 1 3.11 0 4 4 0 0 1 1.25.78 3.53 3.53 0 0 1 .83 1.2 3.86 3.86 0 0 1 .31 1.55 3.3 3.3 0 0 1 -.17 1 4.14 4.14 0 0 1 -.45 1 3.14 3.14 0 0 1 -.73.77 2.75 2.75 0 0 1 -.95.48 3.21 3.21 0 0 1 1.21.51 3.62 3.62 0 0 1 1.41 2 4.48 4.48 0 0 1 .18 1.27 4.64 4.64 0 0 1 -.33 1.79 4 4 0 0 1 -.94 1.35 4.4 4.4 0 0 1 -1.41.87 5.18 5.18 0 0 1 -3.53 0 4.34 4.34 0 0 1 -1.42-.87 3.79 3.79 0 0 1 -.93-1.35 4.46 4.46 0 0 1 -.34-1.79 4.16 4.16 0 0 1 .19-1.27 4 4 0 0 1 .53-1.12 3.6 3.6 0 0 1 .88-.86 3.14 3.14 0 0 1 1.21-.51 2.8 2.8 0 0 1 -1-.48 3.3 3.3 0 0 1 -.72-.77 3.79 3.79 0 0 1 -.46-1 3.61 3.61 0 0 1 -.12-1.02zm.83 7a3.41 3.41 0 0 0 .23 1.24 3.19 3.19 0 0 0 .63 1 3.19 3.19 0 0 0 3.53.69 3 3 0 0 0 1-.69 3.19 3.19 0 0 0 .63-1 3.65 3.65 0 0 0 -.07-2.58 3.05 3.05 0 0 0 -.66-1 2.75 2.75 0 0 0 -1-.65 3.08 3.08 0 0 0 -1.22-.23 3.12 3.12 0 0 0 -1.22.23 2.71 2.71 0 0 0 -1 .65 3.05 3.05 0 0 0 -.66 1 3.44 3.44 0 0 0 -.19 1.34zm.51-7a3 3 0 0 0 .19 1 2.84 2.84 0 0 0 .53.85 2.52 2.52 0 0 0 .82.57 2.42 2.42 0 0 0 1.06.22 2.52 2.52 0 0 0 1.06-.22 2.41 2.41 0 0 0 .82-.57 2.65 2.65 0 0 0 .53-.85 2.75 2.75 0 0 0 .19-1 2.61 2.61 0 0 0 -.74-2 2.52 2.52 0 0 0 -1.86-.73 2.55 2.55 0 0 0 -1.86.73 2.65 2.65 0 0 0 -.74 2z" fill="#fff"/><path d="m240.22 65.09a3.55 3.55 0 0 1 .27-1.39 3.76 3.76 0 0 1 .76-1.12 3.37 3.37 0 0 1 2.46-1 3.46 3.46 0 0 1 1.37.28 3.53 3.53 0 0 1 1.1.77 3.76 3.76 0 0 1 .76 1.12 3.55 3.55 0 0 1 .27 1.39 3.5 3.5 0 0 1 -.27 1.38 3.81 3.81 0 0 1 -.76 1.13 3.5 3.5 0 0 1 -1.1.76 3.47 3.47 0 0 1 -2.73 0 3.39 3.39 0 0 1 -1.1-.76 3.81 3.81 0 0 1 -.76-1.13 3.5 3.5 0 0 1 -.27-1.43zm1.1 0a2.38 2.38 0 0 0 .19 1 2.55 2.55 0 0 0 .52.77 2.24 2.24 0 0 0 .76.52 2.35 2.35 0 0 0 1.85 0 2.34 2.34 0 0 0 .76-.52 2.55 2.55 0 0 0 .52-.77 2.38 2.38 0 0 0 .19-1 2.32 2.32 0 0 0 -.19-1 2.48 2.48 0 0 0 -.52-.78 2.31 2.31 0 0 0 -.76-.51 2.35 2.35 0 0 0 -1.85 0 2.21 2.21 0 0 0 -.76.51 2.48 2.48 0 0 0 -.52.78 2.32 2.32 0 0 0 -.19 1zm10.6-4 .94.58-9.29 15.45-.91-.58zm-3.67 12a3.54 3.54 0 0 1 .27-1.38 3.6 3.6 0 0 1 .75-1.13 3.71 3.71 0 0 1 1.11-.76 3.44 3.44 0 0 1 2.72 0 3.71 3.71 0 0 1 1.11.76 3.6 3.6 0 0 1 .75 1.13 3.57 3.57 0 0 1 0 2.77 3.44 3.44 0 0 1 -.75 1.12 3.57 3.57 0 0 1 -1.11.77 3.44 3.44 0 0 1 -2.72 0 3.57 3.57 0 0 1 -1.11-.77 3.44 3.44 0 0 1 -.75-1.12 3.55 3.55 0 0 1 -.27-1.38zm1.09 0a2.4 2.4 0 0 0 .2 1 2.52 2.52 0 0 0 .51.77 2.55 2.55 0 0 0 .77.52 2.39 2.39 0 0 0 .92.18 2.44 2.44 0 0 0 .93-.18 2.51 2.51 0 0 0 .76-.52 2.75 2.75 0 0 0 .52-.77 2.55 2.55 0 0 0 0-1.93 2.75 2.75 0 0 0 -.52-.77 2.51 2.51 0 0 0 -.76-.52 2.44 2.44 0 0 0 -.93-.18 2.39 2.39 0 0 0 -.92.18 2.55 2.55 0 0 0 -.77.52 2.52 2.52 0 0 0 -.51.77 2.39 2.39 0 0 0 -.2.94z" fill="#fff"/><path d="m118.72 115.6h363.62" fill="none" stroke="#fff" stroke-miterlimit="1.18" stroke-width=".25"/></svg>