<svg viewBox="0 0 599.02 514.27" xmlns="http://www.w3.org/2000/svg"><rect fill="#191919" height="513.52" rx="12" width="598.27" x=".38" y=".38"/><rect fill="none" height="513.52" rx="12" stroke="#fff" stroke-miterlimit="1.18" stroke-width=".75" width="598.27" x=".38" y=".38"/><g fill="#fff"><path d="m32 362v-2h12.75v-6.71h1.86v8.71z"/><path d="m32 351.22v-9.44h1.86v7.46h4.34v-6.94h1.86v6.94h4.69v-7.83h1.86v9.81z"/><path d="m32 340.6v-2.29l11.9-4.3-11.9-4.5v-2.17l14.63 5.76v1.9z"/><path d="m32 325.58v-9.44h1.86v7.46h4.34v-6.94h1.86v6.94h4.69v-7.83h1.86v9.81z"/><path d="m32 313v-2h12.75v-6.72h1.86v8.72z"/><path d="m47 289.78a7.94 7.94 0 0 1 -.59 3.08 7.11 7.11 0 0 1 -1.62 2.41 7.64 7.64 0 0 1 -2.44 1.57 8.37 8.37 0 0 1 -6.07 0 7.64 7.64 0 0 1 -2.44-1.57 7.11 7.11 0 0 1 -1.62-2.41 8.33 8.33 0 0 1 0-6.16 7.07 7.07 0 0 1 1.62-2.4 7.31 7.31 0 0 1 2.44-1.57 8.37 8.37 0 0 1 6.07 0 7.31 7.31 0 0 1 2.44 1.57 7.07 7.07 0 0 1 1.62 2.4 8 8 0 0 1 .59 3.08zm-1.86 0a5.31 5.31 0 0 0 -1.71-4 5.57 5.57 0 0 0 -1.85-1.11 6.61 6.61 0 0 0 -4.53 0 5.57 5.57 0 0 0 -1.85 1.11 5.49 5.49 0 0 0 -1.25 1.74 5.49 5.49 0 0 0 1.25 6.28 5.76 5.76 0 0 0 1.8 1.11 6.77 6.77 0 0 0 4.53 0 5.76 5.76 0 0 0 1.85-1.12 5.38 5.38 0 0 0 1.25-1.74 5.51 5.51 0 0 0 .49-2.27z"/><path d="m32 279.31v-9.2h1.86v7.21h4.59v-6.71h1.86v6.71h6.32v2z"/><path d="m32 261.71v-5.15a6.06 6.06 0 0 1 .38-2.31 4 4 0 0 1 1-1.44 3.42 3.42 0 0 1 1.33-.73 5.07 5.07 0 0 1 1.41-.21 5.14 5.14 0 0 1 1.42.21 3.31 3.31 0 0 1 1.32.73 3.88 3.88 0 0 1 1 1.44 5.87 5.87 0 0 1 .38 2.31v3.16h6.45v2zm6.45-2v-2.6a6.3 6.3 0 0 0 -.1-1.15 2.94 2.94 0 0 0 -.34-1 1.8 1.8 0 0 0 -.71-.71 2.38 2.38 0 0 0 -1.21-.27 2.41 2.41 0 0 0 -1.21.27 1.8 1.8 0 0 0 -.71.71 2.94 2.94 0 0 0 -.34 1 7.33 7.33 0 0 0 -.09 1.15v2.6z"/><path d="m32 249.45v-5.14a6.06 6.06 0 0 1 .38-2.31 4 4 0 0 1 1-1.44 3.29 3.29 0 0 1 1.33-.73 5.07 5.07 0 0 1 1.41-.21 3.86 3.86 0 0 1 2.53 1 4.06 4.06 0 0 1 .89 1.14 3.81 3.81 0 0 1 .44 1.5l6.68-4.16v2.48l-6.45 3.72v2.21h6.45v2zm6.45-2v-2.6a6.3 6.3 0 0 0 -.1-1.15 2.94 2.94 0 0 0 -.34-1 1.8 1.8 0 0 0 -.71-.71 2.38 2.38 0 0 0 -1.21-.27 2.41 2.41 0 0 0 -1.21.27 1.8 1.8 0 0 0 -.71.71 2.94 2.94 0 0 0 -.34 1 7.33 7.33 0 0 0 -.09 1.15v2.6z"/><path d="m32 236.83v-2h14.61v2z"/><path d="m32 231.42v-5.1a9.61 9.61 0 0 1 .35-2.72 7.61 7.61 0 0 1 .94-2 6.11 6.11 0 0 1 1.35-1.42 7.19 7.19 0 0 1 1.58-.9 7.37 7.37 0 0 1 1.61-.47 8.07 8.07 0 0 1 1.48-.15 7.23 7.23 0 0 1 2.72.52 6.78 6.78 0 0 1 2.34 1.53 7.59 7.59 0 0 1 1.63 2.48 9 9 0 0 1 .62 3.46v4.77zm12.77-2v-2.5a8.47 8.47 0 0 0 -.34-2.39 5.7 5.7 0 0 0 -1-2 4.81 4.81 0 0 0 -1.7-1.35 5.43 5.43 0 0 0 -2.39-.49 7.21 7.21 0 0 0 -1.64.22 5.05 5.05 0 0 0 -1.78.86 5 5 0 0 0 -1.44 1.75 6.21 6.21 0 0 0 -.59 2.89v3z"/><path d="m32 215.78v-9.44h1.86v7.46h4.34v-7h1.86v7h4.69v-7.8h1.86v9.81z"/><path d="m86.16 336.68a1.85 1.85 0 0 0 .76.78 2.23 2.23 0 0 0 1.06.27 1.93 1.93 0 0 0 .52-.08 1.39 1.39 0 0 0 .45-.24 1.29 1.29 0 0 0 .34-.36 1 1 0 0 0 .13-.49.82.82 0 0 0 -.28-.66 1.94 1.94 0 0 0 -.69-.34 6.43 6.43 0 0 0 -.89-.22 4 4 0 0 1 -.89-.27 2.1 2.1 0 0 1 -.69-.52 1.44 1.44 0 0 1 -.28-.94 1.64 1.64 0 0 1 .69-1.38 2.28 2.28 0 0 1 .68-.34 3 3 0 0 1 2.11.18 2 2 0 0 1 .87.91l-.73.44a1.73 1.73 0 0 0 -.57-.67 1.66 1.66 0 0 0 -.91-.22 1.86 1.86 0 0 0 -.45.06 1.54 1.54 0 0 0 -.43.2 1.14 1.14 0 0 0 -.31.31.86.86 0 0 0 .14 1.08 2.2 2.2 0 0 0 .69.32 6.89 6.89 0 0 0 .89.2 4 4 0 0 1 .9.27 1.7 1.7 0 0 1 .68.54 1.53 1.53 0 0 1 .28 1 1.94 1.94 0 0 1 -.18.86 1.87 1.87 0 0 1 -.51.61 2.05 2.05 0 0 1 -.72.37 3 3 0 0 1 -.85.13 3.46 3.46 0 0 1 -1.49-.32 2.27 2.27 0 0 1 -1-1z"/><path d="m91.57 335.13a3.59 3.59 0 0 1 .24-1.34 3.22 3.22 0 0 1 .68-1.06 3.07 3.07 0 0 1 1.05-.7 3.61 3.61 0 0 1 2.64 0 3.27 3.27 0 0 1 1 .7 3.07 3.07 0 0 1 .68 1.06 3.59 3.59 0 0 1 .24 1.34 3.63 3.63 0 0 1 -.24 1.34 3.16 3.16 0 0 1 -.68 1.06 3.27 3.27 0 0 1 -1 .7 3.61 3.61 0 0 1 -2.64 0 3.07 3.07 0 0 1 -1.05-.7 3.33 3.33 0 0 1 -.68-1.06 3.63 3.63 0 0 1 -.24-1.34zm.81 0a3.06 3.06 0 0 0 .17 1 2.33 2.33 0 0 0 .5.83 2.47 2.47 0 0 0 .78.56 2.75 2.75 0 0 0 2.06 0 2.51 2.51 0 0 0 .79-.56 2.47 2.47 0 0 0 .49-.83 2.82 2.82 0 0 0 .17-1 2.78 2.78 0 0 0 -.17-1 2.37 2.37 0 0 0 -.49-.83 2.51 2.51 0 0 0 -.79-.56 2.48 2.48 0 0 0 -2.84.56 2.25 2.25 0 0 0 -.5.83 3 3 0 0 0 -.17 1z"/><path d="m100 333.74c0-.12 0-.27 0-.44s0-.34 0-.51 0-.34 0-.49 0-.27 0-.35h.81v.69a1.74 1.74 0 0 0 0 .42 2.16 2.16 0 0 1 .81-.9 2.36 2.36 0 0 1 1.33-.38 2.05 2.05 0 0 1 1.14.33 1.79 1.79 0 0 1 .74 1.05 2.07 2.07 0 0 1 .89-1.05 2.5 2.5 0 0 1 1.24-.33 2.57 2.57 0 0 1 1.19.24 1.91 1.91 0 0 1 .73.61 2.42 2.42 0 0 1 .36.87 4.9 4.9 0 0 1 .1 1v3.79h-.81v-3.75a3.81 3.81 0 0 0 -.07-.75 1.93 1.93 0 0 0 -.23-.65 1.25 1.25 0 0 0 -.48-.46 1.52 1.52 0 0 0 -.79-.17 1.83 1.83 0 0 0 -.93.21 1.59 1.59 0 0 0 -.58.54 2.29 2.29 0 0 0 -.3.72 3.23 3.23 0 0 0 -.09.73v3.58h-.81v-3.83a2.79 2.79 0 0 0 -.32-1.42 1.05 1.05 0 0 0 -1-.53 2.41 2.41 0 0 0 -.85.15 1.94 1.94 0 0 0 -.69.49 2.26 2.26 0 0 0 -.46.81 3.57 3.57 0 0 0 -.17 1.15v3.18h-.76z"/><path d="m117 337.11a2.78 2.78 0 0 1 -1.17 1.05 3.72 3.72 0 0 1 -1.54.32 3.38 3.38 0 0 1 -1.3-.25 3 3 0 0 1 -1-.7 3.09 3.09 0 0 1 -.65-1.06 3.9 3.9 0 0 1 -.22-1.35 3.83 3.83 0 0 1 .23-1.33 3.15 3.15 0 0 1 .65-1.05 3 3 0 0 1 1-.7 3.05 3.05 0 0 1 1.26-.26 3 3 0 0 1 1.27.26 2.84 2.84 0 0 1 .92.67 3.07 3.07 0 0 1 .56 1 3.42 3.42 0 0 1 .19 1.09v.57h-5.2a3.29 3.29 0 0 0 .1.67 2.4 2.4 0 0 0 .38.79 2.45 2.45 0 0 0 .72.67 2.25 2.25 0 0 0 1.17.27 2.61 2.61 0 0 0 1.21-.3 2.11 2.11 0 0 0 .89-.83zm-.62-2.52a2 2 0 0 0 -.17-.8 2.32 2.32 0 0 0 -.46-.65 2.21 2.21 0 0 0 -.7-.45 2.36 2.36 0 0 0 -2 .11 2.49 2.49 0 0 0 -.69.63 2.38 2.38 0 0 0 -.37.7 2.1 2.1 0 0 0 -.11.46z"/><path d="m118.16 332h.9l1.51 5.33 1.75-5.33h.77l1.86 5.33 1.48-5.33h.81l-1.84 6.36h-.84l-1.87-5.21-1.69 5.16h-.84z"/><path d="m128.58 327.9h.81v5.16a2.16 2.16 0 0 1 .81-.9 2.38 2.38 0 0 1 1.33-.38 2.54 2.54 0 0 1 1.19.24 1.91 1.91 0 0 1 .73.61 2.26 2.26 0 0 1 .36.87 4.9 4.9 0 0 1 .11 1v3.79h-.82v-3.75a4.74 4.74 0 0 0 -.06-.75 2.19 2.19 0 0 0 -.24-.65 1.25 1.25 0 0 0 -.48-.46 1.52 1.52 0 0 0 -.79-.17 2.41 2.41 0 0 0 -.85.15 1.94 1.94 0 0 0 -.69.49 2.42 2.42 0 0 0 -.46.81 3.57 3.57 0 0 0 -.17 1.15v3.18h-.81z"/><path d="m141 335.64v.84.69s0 .41 0 .59a5.14 5.14 0 0 0 .06.55h-.76a6.53 6.53 0 0 1 -.08-1 2.39 2.39 0 0 1 -.87.91 2.74 2.74 0 0 1 -1.32.29 3.09 3.09 0 0 1 -.8-.11 2.2 2.2 0 0 1 -.71-.33 1.77 1.77 0 0 1 -.5-.58 1.7 1.7 0 0 1 -.2-.87 1.75 1.75 0 0 1 .36-1.16 2.35 2.35 0 0 1 .91-.64 4.15 4.15 0 0 1 1.13-.27 8.68 8.68 0 0 1 1.07-.07h.95v-.38a1.36 1.36 0 0 0 -.51-1.19 2.08 2.08 0 0 0 -1.26-.35 2.81 2.81 0 0 0 -1.91.71l-.47-.56a2.83 2.83 0 0 1 1.11-.67 4 4 0 0 1 1.27-.23 2.78 2.78 0 0 1 1.82.55 2.11 2.11 0 0 1 .68 1.75zm-1.63-.52a8 8 0 0 0 -1 .06 3.56 3.56 0 0 0 -.87.24 1.59 1.59 0 0 0 -.62.44 1 1 0 0 0 -.23.69 1 1 0 0 0 .13.51 1.35 1.35 0 0 0 .33.38 1.78 1.78 0 0 0 .46.22 1.68 1.68 0 0 0 .5.07 2.53 2.53 0 0 0 1.07-.19 1.84 1.84 0 0 0 .67-.5 1.69 1.69 0 0 0 .35-.71 3.49 3.49 0 0 0 .1-.79v-.42z"/><path d="m146.21 332.69h-1.79v4.15a.89.89 0 0 0 .23.66.86.86 0 0 0 .64.23 1.88 1.88 0 0 0 .46-.06 2.51 2.51 0 0 0 .46-.16l.06.74a4.62 4.62 0 0 1 -.52.16 2.87 2.87 0 0 1 -.53.07 1.89 1.89 0 0 1 -.75-.14 1.22 1.22 0 0 1 -.5-.35 1.34 1.34 0 0 1 -.28-.51 2.2 2.2 0 0 1 -.09-.64v-4.15h-1.35v-.69h1.35v-1.83h.82v1.83h1.79z"/><path d="m151.18 333.74c0-.12 0-.27 0-.44s0-.34 0-.51 0-.34 0-.49 0-.27 0-.35h.81v.69a2.18 2.18 0 0 0 0 .42 2.16 2.16 0 0 1 .81-.9 2.36 2.36 0 0 1 1.33-.38 2.57 2.57 0 0 1 1.19.24 1.91 1.91 0 0 1 .73.61 2.42 2.42 0 0 1 .36.87 4.9 4.9 0 0 1 .1 1v3.79h-.81v-3.75a3.81 3.81 0 0 0 -.07-.75 1.75 1.75 0 0 0 -.24-.65 1.22 1.22 0 0 0 -.47-.46 1.54 1.54 0 0 0 -.79-.17 2.41 2.41 0 0 0 -.85.15 1.78 1.78 0 0 0 -.69.49 2.26 2.26 0 0 0 -.46.81 3.57 3.57 0 0 0 -.17 1.15v3.18h-.81z"/><path d="m158.36 335.13a3.59 3.59 0 0 1 .24-1.34 3.07 3.07 0 0 1 .68-1.06 3 3 0 0 1 1-.7 3.42 3.42 0 0 1 1.33-.25 3.34 3.34 0 0 1 1.39.22 3.13 3.13 0 0 1 1 .7 3 3 0 0 1 .69 1.06 3.59 3.59 0 0 1 .24 1.34 3.63 3.63 0 0 1 -.24 1.34 3 3 0 0 1 -.69 1.06 3.13 3.13 0 0 1 -1 .7 3.53 3.53 0 0 1 -1.32.25 3.62 3.62 0 0 1 -1.33-.25 3 3 0 0 1 -1-.7 3.16 3.16 0 0 1 -.68-1.06 3.63 3.63 0 0 1 -.31-1.31zm.81 0a3.06 3.06 0 0 0 .17 1 2.47 2.47 0 0 0 .49.83 2.51 2.51 0 0 0 .79.56 2.75 2.75 0 0 0 2.06 0 2.36 2.36 0 0 0 .78-.56 2.33 2.33 0 0 0 .5-.83 3.06 3.06 0 0 0 .17-1 3 3 0 0 0 -.17-1 2.25 2.25 0 0 0 -.5-.83 2.36 2.36 0 0 0 -.78-.56 2.75 2.75 0 0 0 -2.06 0 2.51 2.51 0 0 0 -.79.56 2.37 2.37 0 0 0 -.49.83 3 3 0 0 0 -.17 1z"/><path d="m169.82 332.69h-1.82v4.15a.93.93 0 0 0 .23.66.88.88 0 0 0 .64.23 1.82 1.82 0 0 0 .46-.06 2.51 2.51 0 0 0 .46-.16l.07.74a4.83 4.83 0 0 1 -.53.16 2.87 2.87 0 0 1 -.53.07 1.89 1.89 0 0 1 -.75-.14 1.29 1.29 0 0 1 -.5-.35 1.32 1.32 0 0 1 -.27-.51 2.2 2.2 0 0 1 -.09-.64v-4.15h-1.36v-.69h1.36v-1.83h.81v1.83h1.79z"/><path d="m174.61 332h.82v1.11a2.21 2.21 0 0 1 .48-.57 3.06 3.06 0 0 1 .61-.4 3.58 3.58 0 0 1 .7-.23 3.69 3.69 0 0 1 .72-.08 3.34 3.34 0 0 1 1.32.25 3.27 3.27 0 0 1 1.05.7 3.07 3.07 0 0 1 .68 1.06 3.59 3.59 0 0 1 .24 1.34 3.63 3.63 0 0 1 -.24 1.34 3.16 3.16 0 0 1 -.68 1.06 3.27 3.27 0 0 1 -1.05.7 3.53 3.53 0 0 1 -1.32.25 3.69 3.69 0 0 1 -.72-.08 3.58 3.58 0 0 1 -.7-.23 3.06 3.06 0 0 1 -.61-.4 2.25 2.25 0 0 1 -.48-.58v4.26h-.82zm.74 3.18a2.46 2.46 0 0 0 .2 1 2.61 2.61 0 0 0 .55.83 3 3 0 0 0 .83.56 2.7 2.7 0 0 0 1 .2 2.63 2.63 0 0 0 1-.2 2.51 2.51 0 0 0 .79-.56 2.47 2.47 0 0 0 .49-.83 3.06 3.06 0 0 0 .17-1 3 3 0 0 0 -.17-1 2.37 2.37 0 0 0 -.49-.83 2.51 2.51 0 0 0 -.79-.56 2.46 2.46 0 0 0 -1-.2 2.52 2.52 0 0 0 -1 .2 3 3 0 0 0 -.83.56 2.51 2.51 0 0 0 -.55.83 2.43 2.43 0 0 0 -.2.95z"/><path d="m183.07 333.74c0-.12 0-.27 0-.44s0-.34 0-.51 0-.34 0-.49 0-.27 0-.35h.81v.69a2.18 2.18 0 0 0 0 .42 2.85 2.85 0 0 1 .8-.92 1.93 1.93 0 0 1 1.19-.36h.24l.23.05-.09.81a1.18 1.18 0 0 0 -.31-.05 2.32 2.32 0 0 0 -.92.17 1.61 1.61 0 0 0 -.63.48 1.9 1.9 0 0 0 -.38.7 3.17 3.17 0 0 0 -.12.88v3.47h-.81z"/><path d="m187 335.13a3.4 3.4 0 0 1 .25-1.34 3 3 0 0 1 1.75-1.79 3.37 3.37 0 0 1 1.32-.25 3.42 3.42 0 0 1 1.33.25 3.23 3.23 0 0 1 1 .7 3.07 3.07 0 0 1 .68 1.06 3.4 3.4 0 0 1 .25 1.34 3.44 3.44 0 0 1 -.25 1.34 3.16 3.16 0 0 1 -.68 1.06 3.23 3.23 0 0 1 -1 .7 3.62 3.62 0 0 1 -1.33.25 3.56 3.56 0 0 1 -1.32-.25 3.07 3.07 0 0 1 -1-.7 3.14 3.14 0 0 1 -.67-1.06 3.44 3.44 0 0 1 -.33-1.31zm.81 0a3.06 3.06 0 0 0 .17 1 2.49 2.49 0 0 0 .5.83 2.51 2.51 0 0 0 .79.56 2.73 2.73 0 0 0 2.05 0 2.51 2.51 0 0 0 .79-.56 2.31 2.31 0 0 0 .49-.83 2.82 2.82 0 0 0 .17-1 2.78 2.78 0 0 0 -.17-1 2.23 2.23 0 0 0 -.49-.83 2.51 2.51 0 0 0 -.79-.56 2.73 2.73 0 0 0 -2.05 0 2.51 2.51 0 0 0 -.79.56 2.39 2.39 0 0 0 -.5.83 3 3 0 0 0 -.19 1z"/><path d="m200.68 336.52v.43s0 .35 0 .52 0 .34 0 .49 0 .27 0 .35h-.82c0-.24 0-.47 0-.69a1.91 1.91 0 0 0 0-.43 2.24 2.24 0 0 1 -.81.91 2.38 2.38 0 0 1 -1.33.38 2.61 2.61 0 0 1 -1.2-.24 1.93 1.93 0 0 1 -.73-.61 2.16 2.16 0 0 1 -.36-.88 5.69 5.69 0 0 1 -.1-1v-3.75h.82v3.74a4.56 4.56 0 0 0 .06.75 2.15 2.15 0 0 0 .24.66 1.18 1.18 0 0 0 .48.46 1.62 1.62 0 0 0 .79.17 2.13 2.13 0 0 0 .84-.16 1.76 1.76 0 0 0 .7-.48 2.53 2.53 0 0 0 .46-.81 3.62 3.62 0 0 0 .17-1.15v-3.18h.81z"/><path d="m208.39 337.19a2.22 2.22 0 0 1 -.47.58 3.12 3.12 0 0 1 -.62.4 3.19 3.19 0 0 1 -.7.23 3.49 3.49 0 0 1 -2-.17 3.07 3.07 0 0 1 -1.05-.7 3.14 3.14 0 0 1 -.67-1.06 3.44 3.44 0 0 1 -.25-1.34 3.4 3.4 0 0 1 .25-1.34 3 3 0 0 1 1.72-1.76 3.34 3.34 0 0 1 1.32-.25 3.53 3.53 0 0 1 .72.08 3.19 3.19 0 0 1 .7.23 3.12 3.12 0 0 1 .62.4 2.17 2.17 0 0 1 .47.57v-5.16h.81v10.41h-.81zm.08-2.06a2.6 2.6 0 0 0 -.2-1 2.7 2.7 0 0 0 -.56-.83 2.82 2.82 0 0 0 -.83-.56 2.49 2.49 0 0 0 -1-.2 2.35 2.35 0 0 0 -1.81.76 2.39 2.39 0 0 0 -.5.83 3 3 0 0 0 -.17 1 3.06 3.06 0 0 0 .17 1 2.39 2.39 0 0 0 1.28 1.39 2.63 2.63 0 0 0 1 .2 2.66 2.66 0 0 0 1-.2 2.63 2.63 0 0 0 1.39-1.39 2.64 2.64 0 0 0 .23-1z"/><path d="m214.21 334.67h3.35v.75h-3.35z"/><path d="m222 333.43c0-.34 0-.71 0-1.1a8.61 8.61 0 0 1 .18-1.15 6.27 6.27 0 0 1 .35-1.06 3.33 3.33 0 0 1 .58-.89 2.6 2.6 0 0 1 .84-.61 3.12 3.12 0 0 1 2.35 0 2.6 2.6 0 0 1 .84.61 3.33 3.33 0 0 1 .58.89 5.49 5.49 0 0 1 .35 1.06 7.25 7.25 0 0 1 .18 1.15c0 .39.05.76.05 1.1s0 .73-.05 1.12a7.31 7.31 0 0 1 -.18 1.14 5.49 5.49 0 0 1 -.35 1.06 3.33 3.33 0 0 1 -.58.89 2.6 2.6 0 0 1 -.84.61 3.12 3.12 0 0 1 -2.35 0 2.6 2.6 0 0 1 -.84-.61 3.33 3.33 0 0 1 -.58-.89 6.27 6.27 0 0 1 -.35-1.06 8.72 8.72 0 0 1 -.18-1.14c0-.39 0-.76 0-1.12zm.89 0v.85a6.16 6.16 0 0 0 .11.94 6 6 0 0 0 .23.93 3.17 3.17 0 0 0 .41.8 1.87 1.87 0 0 0 .62.57 1.71 1.71 0 0 0 .88.21 1.75 1.75 0 0 0 .87-.21 1.78 1.78 0 0 0 .62-.57 2.87 2.87 0 0 0 .41-.8 7.47 7.47 0 0 0 .24-.93c0-.32.09-.63.11-.94s0-.59 0-.85 0-.52 0-.84-.06-.62-.11-.94a7 7 0 0 0 -.24-.93 3.08 3.08 0 0 0 -.41-.81 1.85 1.85 0 0 0 -.62-.56 1.93 1.93 0 0 0 -1.75 0 2 2 0 0 0 -.62.56 3.42 3.42 0 0 0 -.41.81 5.75 5.75 0 0 0 -.23.93 6.16 6.16 0 0 0 -.11.94q.02.48.02.84z"/><path d="m229.82 337.73a.64.64 0 0 1 .19-.47.65.65 0 0 1 .92 0 .64.64 0 0 1 .19.47.63.63 0 0 1 -.19.47.65.65 0 0 1 -.92 0 .63.63 0 0 1 -.19-.47z"/><path d="m233.67 336.27a2.42 2.42 0 0 0 .74 1.08 1.92 1.92 0 0 0 1.28.38 2.45 2.45 0 0 0 .93-.16 1.82 1.82 0 0 0 .67-.46 1.9 1.9 0 0 0 .4-.67 2.54 2.54 0 0 0 .14-.83 1.79 1.79 0 0 0 -.23-.92 1.85 1.85 0 0 0 -.58-.63 2.46 2.46 0 0 0 -.81-.35 4.06 4.06 0 0 0 -.92-.11h-.35v-.83h.41a2.84 2.84 0 0 0 .76-.1 2.19 2.19 0 0 0 .69-.32 1.66 1.66 0 0 0 .5-.58 2 2 0 0 0 -.29-2.13 1.7 1.7 0 0 0 -1.3-.5 1.91 1.91 0 0 0 -1.07.31 2.13 2.13 0 0 0 -.74.83l-.77-.44a2.43 2.43 0 0 1 1.07-1.1 3.32 3.32 0 0 1 1.51-.35 3.47 3.47 0 0 1 1 .16 2.56 2.56 0 0 1 .86.47 2.25 2.25 0 0 1 .57.78 2.67 2.67 0 0 1 .21 1.1 2.38 2.38 0 0 1 -.43 1.41 2.23 2.23 0 0 1 -1.28.85 2.18 2.18 0 0 1 .84.31 2.42 2.42 0 0 1 .64.55 2.5 2.5 0 0 1 .42.75 2.54 2.54 0 0 1 .15.88 3.24 3.24 0 0 1 -.18 1.09 2.44 2.44 0 0 1 -.56.89 2.6 2.6 0 0 1 -.93.59 3.79 3.79 0 0 1 -3.13-.24 2.76 2.76 0 0 1 -1.13-1.45z"/><path d="m239.79 330.76a2.3 2.3 0 0 1 .69-1.67 2.19 2.19 0 0 1 .73-.51 2.15 2.15 0 0 1 .91-.19 2.12 2.12 0 0 1 .91.19 2.33 2.33 0 0 1 .74.51 2.29 2.29 0 0 1 .5.75 2.32 2.32 0 0 1 .18.92 2.41 2.41 0 0 1 -.18.93 2.52 2.52 0 0 1 -.5.75 2.71 2.71 0 0 1 -.74.51 2.27 2.27 0 0 1 -.91.18 2.31 2.31 0 0 1 -.91-.18 2.52 2.52 0 0 1 -.73-.51 2.56 2.56 0 0 1 -.51-.75 2.41 2.41 0 0 1 -.18-.93zm.73 0a1.66 1.66 0 0 0 .13.64 1.7 1.7 0 0 0 .35.52 1.43 1.43 0 0 0 .5.34 1.54 1.54 0 0 0 1.24 0 1.57 1.57 0 0 0 .51-.34 1.87 1.87 0 0 0 .34-.52 1.5 1.5 0 0 0 .13-.64 1.53 1.53 0 0 0 -.13-.64 1.69 1.69 0 0 0 -.34-.51 1.6 1.6 0 0 0 -.51-.35 1.66 1.66 0 0 0 -1.24 0 1.46 1.46 0 0 0 -.5.35 1.54 1.54 0 0 0 -.35.51 1.7 1.7 0 0 0 -.13.64zm7.07-2.67.63.39-6.22 10.3-.61-.39zm-2.45 8a2.24 2.24 0 0 1 .19-.93 2.35 2.35 0 0 1 .5-.75 2.57 2.57 0 0 1 .74-.51 2.23 2.23 0 0 1 .9-.18 2.27 2.27 0 0 1 .91.18 2.57 2.57 0 0 1 .74.51 2.52 2.52 0 0 1 .5.75 2.41 2.41 0 0 1 .18.93 2.32 2.32 0 0 1 -.18.92 2.52 2.52 0 0 1 -.5.75 2.23 2.23 0 0 1 -.74.51 2.28 2.28 0 0 1 -.91.19 2.31 2.31 0 0 1 -1.64-.7 2.35 2.35 0 0 1 -.5-.75 2.17 2.17 0 0 1 -.19-.9zm.73 0a1.7 1.7 0 0 0 .13.64 1.65 1.65 0 0 0 .35.51 1.41 1.41 0 0 0 .51.35 1.58 1.58 0 0 0 .61.12 1.63 1.63 0 0 0 .62-.12 1.6 1.6 0 0 0 .51-.35 1.63 1.63 0 0 0 .34-.51 1.53 1.53 0 0 0 .13-.64 1.5 1.5 0 0 0 -.13-.64 1.67 1.67 0 0 0 -.34-.52 1.57 1.57 0 0 0 -.51-.34 1.47 1.47 0 0 0 -.62-.13 1.42 1.42 0 0 0 -.61.13 1.39 1.39 0 0 0 -.51.34 1.7 1.7 0 0 0 -.35.52 1.66 1.66 0 0 0 -.13.66z"/><path d="m146 374.76a2.21 2.21 0 0 1 -.48.57 3.06 3.06 0 0 1 -.61.4 3.54 3.54 0 0 1 -1.42.31 3.42 3.42 0 0 1 -1.33-.25 3.1 3.1 0 0 1 -1-.69 3.27 3.27 0 0 1 -.68-1.06 3.68 3.68 0 0 1 -.24-1.35 3.63 3.63 0 0 1 .24-1.34 3.16 3.16 0 0 1 .68-1.06 3.13 3.13 0 0 1 1-.7 3.52 3.52 0 0 1 2-.17 3.05 3.05 0 0 1 .7.24 2.63 2.63 0 0 1 .61.39 2.25 2.25 0 0 1 .48.58v-5.17h.82v10.41h-.77zm.09-2.07a2.47 2.47 0 0 0 -.21-1 2.5 2.5 0 0 0 -1.38-1.38 2.53 2.53 0 0 0 -1-.21 2.46 2.46 0 0 0 -1 .21 2.34 2.34 0 0 0 -.79.55 2.47 2.47 0 0 0 -.49.83 3.06 3.06 0 0 0 -.17 1 3 3 0 0 0 .17 1 2.37 2.37 0 0 0 .49.83 2.51 2.51 0 0 0 .79.56 2.46 2.46 0 0 0 1 .2 2.52 2.52 0 0 0 1-.2 2.82 2.82 0 0 0 .83-.56 2.51 2.51 0 0 0 .55-.83 2.44 2.44 0 0 0 .19-1z"/><path d="m154.32 374.68a2.79 2.79 0 0 1 -1.18 1 3.64 3.64 0 0 1 -1.53.32 3.17 3.17 0 0 1 -1.3-.25 3 3 0 0 1 -1-.69 3.17 3.17 0 0 1 -.64-1.06 4 4 0 0 1 -.22-1.36 3.52 3.52 0 0 1 .23-1.32 3.09 3.09 0 0 1 .65-1.06 3 3 0 0 1 1-.7 3 3 0 0 1 1.26-.26 3 3 0 0 1 1.26.26 2.88 2.88 0 0 1 .92.67 2.91 2.91 0 0 1 .57 1 3.41 3.41 0 0 1 .18 1.09v.58h-5.25a2.78 2.78 0 0 0 .1.67 2.46 2.46 0 0 0 .37.79 2.23 2.23 0 0 0 .73.66 2.25 2.25 0 0 0 1.17.27 2.64 2.64 0 0 0 1.21-.3 2.28 2.28 0 0 0 .89-.82zm-.63-2.52a1.77 1.77 0 0 0 -.17-.8 2 2 0 0 0 -.46-.66 2.06 2.06 0 0 0 -.69-.45 2.22 2.22 0 0 0 -.85-.16 2.06 2.06 0 0 0 -1.1.27 2.49 2.49 0 0 0 -1.06 1.33 1.6 1.6 0 0 0 -.11.47z"/><path d="m161.56 374.94a2.92 2.92 0 0 1 -1 .83 3 3 0 0 1 -1.26.27 3.42 3.42 0 0 1 -1.33-.25 3.1 3.1 0 0 1 -1-.69 3.27 3.27 0 0 1 -.68-1.06 3.68 3.68 0 0 1 -.24-1.35 3.63 3.63 0 0 1 .24-1.34 3.16 3.16 0 0 1 .68-1.06 3.13 3.13 0 0 1 1-.7 3.62 3.62 0 0 1 1.33-.25 2.9 2.9 0 0 1 1.28.29 3.56 3.56 0 0 1 1.05.82l-.65.49a3 3 0 0 0 -.77-.62 1.81 1.81 0 0 0 -.91-.23 2.46 2.46 0 0 0 -1 .21 2.34 2.34 0 0 0 -.79.55 2.47 2.47 0 0 0 -.49.83 3.06 3.06 0 0 0 -.17 1 3 3 0 0 0 .17 1 2.37 2.37 0 0 0 .49.83 2.51 2.51 0 0 0 .79.56 2.46 2.46 0 0 0 1 .2 1.88 1.88 0 0 0 .94-.24 2.38 2.38 0 0 0 .74-.64z"/><path d="m163 365.46h.82v10.41h-.82z"/><path d="m166 367a.6.6 0 0 1 .18-.44.58.58 0 0 1 .43-.18.6.6 0 0 1 .44.18.65.65 0 0 1 0 .88.6.6 0 0 1 -.44.18.58.58 0 0 1 -.43-.18.6.6 0 0 1 -.18-.44zm.21 2.52h.81v6.36h-.81z"/><path d="m169.35 371.3c0-.12 0-.26 0-.43s0-.34 0-.52 0-.34 0-.49 0-.27 0-.35h.82v.69a1.91 1.91 0 0 0 0 .43 2.32 2.32 0 0 1 .81-.91 2.38 2.38 0 0 1 1.33-.38 2.61 2.61 0 0 1 1.2.24 2.06 2.06 0 0 1 .72.61 2.39 2.39 0 0 1 .37.88 5.69 5.69 0 0 1 .1 1v3.78h-.82v-3.74a4.56 4.56 0 0 0 -.06-.75 2.15 2.15 0 0 0 -.24-.66 1.25 1.25 0 0 0 -.48-.46 1.62 1.62 0 0 0 -.79-.17 2.17 2.17 0 0 0 -.84.16 1.76 1.76 0 0 0 -.7.48 2.64 2.64 0 0 0 -.46.81 3.62 3.62 0 0 0 -.17 1.15v3.18h-.81z"/><path d="m182.41 374.68a2.76 2.76 0 0 1 -1.17 1 3.72 3.72 0 0 1 -1.54.32 3.21 3.21 0 0 1 -1.3-.25 2.93 2.93 0 0 1 -1-.69 3.17 3.17 0 0 1 -.64-1.06 4 4 0 0 1 -.23-1.36 3.73 3.73 0 0 1 .23-1.32 3.25 3.25 0 0 1 .65-1.06 3 3 0 0 1 1-.7 3.05 3.05 0 0 1 1.26-.26 2.87 2.87 0 0 1 2.19.93 2.73 2.73 0 0 1 .56 1 3.17 3.17 0 0 1 .19 1.09v.58h-5.26a2.87 2.87 0 0 0 .11.67 2.26 2.26 0 0 0 .37.79 2.14 2.14 0 0 0 1.9.93 2.6 2.6 0 0 0 1.2-.3 2.24 2.24 0 0 0 .9-.82zm-.62-2.52a1.91 1.91 0 0 0 -.17-.8 2.18 2.18 0 0 0 -.46-.66 2.29 2.29 0 0 0 -.69-.45 2.22 2.22 0 0 0 -.85-.16 2.06 2.06 0 0 0 -1.1.27 2.42 2.42 0 0 0 -.7.64 2.93 2.93 0 0 0 -.37.69 2 2 0 0 0 -.11.47z"/><path d="m189.89 374.76a2 2 0 0 1 -.47.57 3.12 3.12 0 0 1 -.62.4 3.19 3.19 0 0 1 -.7.23 3.51 3.51 0 0 1 -.71.08 3.42 3.42 0 0 1 -1.33-.25 2.91 2.91 0 0 1 -1-.69 3.27 3.27 0 0 1 -.68-1.06 3.68 3.68 0 0 1 -.25-1.35 3.63 3.63 0 0 1 .25-1.34 3.16 3.16 0 0 1 .68-1.06 2.94 2.94 0 0 1 1-.7 3.62 3.62 0 0 1 1.33-.25 3.51 3.51 0 0 1 .71.08 2.76 2.76 0 0 1 .7.24 2.69 2.69 0 0 1 .62.39 2 2 0 0 1 .47.58v-5.17h.81v10.41h-.81zm.08-2.07a2.57 2.57 0 0 0 -.76-1.84 2.57 2.57 0 0 0 -.82-.55 2.53 2.53 0 0 0 -1-.21 2.43 2.43 0 0 0 -1 .21 2.34 2.34 0 0 0 -.79.55 2.31 2.31 0 0 0 -.49.83 2.82 2.82 0 0 0 -.17 1 2.78 2.78 0 0 0 .17 1 2.23 2.23 0 0 0 .49.83 2.51 2.51 0 0 0 .79.56 2.43 2.43 0 0 0 1 .2 2.52 2.52 0 0 0 1-.2 2.77 2.77 0 0 0 .82-.56 2.53 2.53 0 0 0 .56-.83 2.6 2.6 0 0 0 .23-.99z"/><path d="m199.28 370.25h-1.79v4.15a.91.91 0 0 0 .23.66.84.84 0 0 0 .64.23 1.82 1.82 0 0 0 .46-.06 3.53 3.53 0 0 0 .46-.15l.07.74-.53.15a2.21 2.21 0 0 1 -.53.07 1.9 1.9 0 0 1 -.75-.13 1.54 1.54 0 0 1 -.5-.35 1.36 1.36 0 0 1 -.27-.52 2.2 2.2 0 0 1 -.09-.64v-4.15h-1.36v-.74h1.36v-1.83h.81v1.83h1.79z"/><path d="m200.37 372.69a3.63 3.63 0 0 1 .25-1.34 3.16 3.16 0 0 1 .68-1.06 2.94 2.94 0 0 1 1-.7 3.62 3.62 0 0 1 1.33-.25 3.53 3.53 0 0 1 1.32.25 3.13 3.13 0 0 1 1 .7 3.35 3.35 0 0 1 .69 1.06 3.63 3.63 0 0 1 .24 1.34 3.68 3.68 0 0 1 -.24 1.35 3.47 3.47 0 0 1 -.69 1.06 3.1 3.1 0 0 1 -1 .69 3.34 3.34 0 0 1 -1.32.25 3.42 3.42 0 0 1 -1.33-.25 2.91 2.91 0 0 1 -1-.69 3.27 3.27 0 0 1 -.68-1.06 3.68 3.68 0 0 1 -.25-1.35zm.82 0a2.78 2.78 0 0 0 .17 1 2.23 2.23 0 0 0 .49.83 2.51 2.51 0 0 0 .79.56 2.43 2.43 0 0 0 1 .2 2.35 2.35 0 0 0 1.81-.76 2.39 2.39 0 0 0 .5-.83 3 3 0 0 0 .17-1 3.06 3.06 0 0 0 -.17-1 2.49 2.49 0 0 0 -.5-.83 2.3 2.3 0 0 0 -.78-.55 2.46 2.46 0 0 0 -1-.21 2.43 2.43 0 0 0 -1 .21 2.34 2.34 0 0 0 -.79.55 2.31 2.31 0 0 0 -.49.83 2.82 2.82 0 0 0 -.2 1z"/><path d="m217.16 373.2v.84s0 .48 0 .69 0 .41 0 .59a4.87 4.87 0 0 0 .06.55h-.76a6.43 6.43 0 0 1 -.08-1 2.25 2.25 0 0 1 -.87.91 2.74 2.74 0 0 1 -1.32.29 3.58 3.58 0 0 1 -.8-.1 2.06 2.06 0 0 1 -.7-.33 1.74 1.74 0 0 1 -.71-1.46 1.66 1.66 0 0 1 .37-1.15 2.27 2.27 0 0 1 .9-.65 4.22 4.22 0 0 1 1.14-.27c.4 0 .75-.06 1.06-.06h1v-.39a1.36 1.36 0 0 0 -.5-1.18 2.13 2.13 0 0 0 -1.26-.36 2.86 2.86 0 0 0 -1.91.71l-.48-.56a3 3 0 0 1 1.11-.67 4 4 0 0 1 1.28-.23 2.81 2.81 0 0 1 1.81.55 2.13 2.13 0 0 1 .68 1.76zm-1.63-.52a6.41 6.41 0 0 0 -1 .07 3.26 3.26 0 0 0 -.87.23 1.58 1.58 0 0 0 -.61.44 1 1 0 0 0 -.23.69 1.11 1.11 0 0 0 .12.52 1.2 1.2 0 0 0 .34.37 1.35 1.35 0 0 0 .45.22 1.79 1.79 0 0 0 .51.07 2.56 2.56 0 0 0 1.07-.19 1.82 1.82 0 0 0 .67-.5 1.69 1.69 0 0 0 .34-.7 3.06 3.06 0 0 0 .1-.79v-.43z"/><path d="m219.33 371.3c0-.12 0-.26 0-.43s0-.34 0-.52 0-.34 0-.49 0-.27 0-.35h.81v.69a2.44 2.44 0 0 0 0 .43 2.24 2.24 0 0 1 .81-.91 2.36 2.36 0 0 1 1.33-.38 2.57 2.57 0 0 1 1.19.24 2 2 0 0 1 .73.61 2.55 2.55 0 0 1 .36.88 4.9 4.9 0 0 1 .1 1v3.78h-.81v-3.74a3.67 3.67 0 0 0 -.07-.75 1.91 1.91 0 0 0 -.23-.66 1.41 1.41 0 0 0 -.48-.46 1.65 1.65 0 0 0 -.79-.17 2.22 2.22 0 0 0 -.85.16 1.73 1.73 0 0 0 -.69.48 2.45 2.45 0 0 0 -.46.81 3.62 3.62 0 0 0 -.17 1.15v3.18h-.81z"/><path d="m226.87 374.25a1.79 1.79 0 0 0 .76.78 2.22 2.22 0 0 0 1.06.26 1.51 1.51 0 0 0 .51-.08 1.42 1.42 0 0 0 .46-.23 1.2 1.2 0 0 0 .34-.37 1 1 0 0 0 .12-.49.81.81 0 0 0 -.27-.66 2.22 2.22 0 0 0 -.69-.34 9 9 0 0 0 -.89-.21 4.12 4.12 0 0 1 -.9-.28 1.93 1.93 0 0 1 -.68-.52 1.43 1.43 0 0 1 -.28-.93 1.77 1.77 0 0 1 .19-.82 1.72 1.72 0 0 1 .5-.57 2.28 2.28 0 0 1 .68-.34 2.87 2.87 0 0 1 .77-.11 2.94 2.94 0 0 1 1.34.29 2.07 2.07 0 0 1 .87.91l-.76.46a1.71 1.71 0 0 0 -.58-.66 1.54 1.54 0 0 0 -.9-.23 1.5 1.5 0 0 0 -.45.07 1.52 1.52 0 0 0 -.43.19 1.22 1.22 0 0 0 -.32.32.81.81 0 0 0 -.12.44.75.75 0 0 0 .27.63 2.21 2.21 0 0 0 .69.33c.27.07.57.14.89.2a3.62 3.62 0 0 1 .9.26 2 2 0 0 1 .68.54 1.55 1.55 0 0 1 .28 1 1.79 1.79 0 0 1 -.19.86 1.64 1.64 0 0 1 -.5.61 2.05 2.05 0 0 1 -.72.37 2.7 2.7 0 0 1 -.85.13 3.46 3.46 0 0 1 -1.49-.32 2.22 2.22 0 0 1 -1-1z"/><path d="m231.75 369.51h.9l1.51 5.33 1.75-5.33h.77l1.86 5.33 1.48-5.33h.81l-1.83 6.36h-.84l-1.87-5.2-1.74 5.2h-.84z"/><path d="m247.7 374.68a2.79 2.79 0 0 1 -1.18 1 3.64 3.64 0 0 1 -1.52.32 3.17 3.17 0 0 1 -1.3-.25 3 3 0 0 1 -1-.69 3.17 3.17 0 0 1 -.7-1.06 4 4 0 0 1 -.22-1.36 3.52 3.52 0 0 1 .23-1.32 3.09 3.09 0 0 1 .65-1.06 3 3 0 0 1 1-.7 3.05 3.05 0 0 1 1.26-.26 3 3 0 0 1 1.26.26 2.77 2.77 0 0 1 .92.67 2.91 2.91 0 0 1 .57 1 3.42 3.42 0 0 1 .19 1.09v.58h-5.26a2.78 2.78 0 0 0 .1.67 2.46 2.46 0 0 0 .37.79 2.33 2.33 0 0 0 .73.66 2.25 2.25 0 0 0 1.17.27 2.64 2.64 0 0 0 1.21-.3 2.28 2.28 0 0 0 .89-.82zm-.63-2.52a1.77 1.77 0 0 0 -.17-.8 2 2 0 0 0 -.46-.66 2.06 2.06 0 0 0 -.69-.45 2.17 2.17 0 0 0 -.84-.16 2.07 2.07 0 0 0 -1.11.27 2.72 2.72 0 0 0 -.7.64 2.55 2.55 0 0 0 -.36.69 1.6 1.6 0 0 0 -.11.47z"/><path d="m249.7 371.3c0-.12 0-.26 0-.43s0-.34 0-.52 0-.34 0-.49 0-.27 0-.35h.82v.69a1.91 1.91 0 0 0 0 .43 2.79 2.79 0 0 1 .8-.93 1.93 1.93 0 0 1 1.19-.36h.24.24l-.1.82a.89.89 0 0 0 -.31-.06 2.27 2.27 0 0 0 -.91.17 1.83 1.83 0 0 0 -.64.48 1.93 1.93 0 0 0 -.37.71 2.73 2.73 0 0 0 -.13.87v3.47h-.81z"/><path d="m257.23 372.24h3.35v.76h-3.35z"/><path d="m270.69 366.87-3.82 9h-.87l3.88-9h-4.6v-.75h5.45z"/><path d="m272.84 375.29a.62.62 0 0 1 .19-.46.63.63 0 0 1 .92 0 .62.62 0 0 1 .19.46.65.65 0 1 1 -1.3 0z"/><path d="m279.71 373.48h-4.15v-1l3.84-6.38h1.12v6.61h1.48v.75h-1.46v2.39h-.81zm0-6.45-3.39 5.7h3.42z"/><path d="m282.81 368.33a2.41 2.41 0 0 1 .18-.93 2.56 2.56 0 0 1 .51-.75 2.52 2.52 0 0 1 .73-.51 2.31 2.31 0 0 1 .91-.18 2.27 2.27 0 0 1 .91.18 2.71 2.71 0 0 1 .74.51 2.52 2.52 0 0 1 .5.75 2.41 2.41 0 0 1 .18.93 2.36 2.36 0 0 1 -.18.92 2.52 2.52 0 0 1 -.5.75 2.71 2.71 0 0 1 -.74.51 2.28 2.28 0 0 1 -.91.19 2.32 2.32 0 0 1 -.91-.19 2.52 2.52 0 0 1 -.73-.51 2.56 2.56 0 0 1 -.51-.75 2.36 2.36 0 0 1 -.18-.92zm.73 0a1.53 1.53 0 0 0 .13.64 1.65 1.65 0 0 0 .35.51 1.61 1.61 0 0 0 .5.35 1.66 1.66 0 0 0 1.24 0 1.78 1.78 0 0 0 .51-.35 1.82 1.82 0 0 0 .34-.51 1.53 1.53 0 0 0 .13-.64 1.5 1.5 0 0 0 -.13-.64 1.87 1.87 0 0 0 -.34-.52 1.78 1.78 0 0 0 -.51-.35 1.66 1.66 0 0 0 -1.24 0 1.61 1.61 0 0 0 -.5.35 1.7 1.7 0 0 0 -.35.52 1.5 1.5 0 0 0 -.13.64zm7.07-2.68.63.39-6.19 10.3-.61-.38zm-2.45 8a2.3 2.3 0 0 1 .69-1.67 2.19 2.19 0 0 1 .73-.51 2.15 2.15 0 0 1 .91-.19 2.12 2.12 0 0 1 .91.19 2.23 2.23 0 0 1 .74.51 2.29 2.29 0 0 1 .5.75 2.44 2.44 0 0 1 0 1.84 2.29 2.29 0 0 1 -.5.75 2.23 2.23 0 0 1 -.74.51 2.12 2.12 0 0 1 -.91.19 2.15 2.15 0 0 1 -.91-.19 2.19 2.19 0 0 1 -.73-.51 2.3 2.3 0 0 1 -.69-1.67zm.73 0a1.64 1.64 0 0 0 .48 1.16 1.52 1.52 0 0 0 .51.34 1.58 1.58 0 0 0 .61.12 1.63 1.63 0 0 0 .62-.12 1.75 1.75 0 0 0 .51-.34 1.67 1.67 0 0 0 .34-.52 1.64 1.64 0 0 0 0-1.28 1.67 1.67 0 0 0 -.34-.52 1.75 1.75 0 0 0 -.51-.34 1.64 1.64 0 0 0 -.62-.13 1.59 1.59 0 0 0 -.61.13 1.52 1.52 0 0 0 -.51.34 1.64 1.64 0 0 0 -.48 1.16z"/><path d="m241.17 468h5.06a6 6 0 0 1 2.28.38 4 4 0 0 1 1.41 1 3.3 3.3 0 0 1 .72 1.32 5.17 5.17 0 0 1 .2 1.42 5.05 5.05 0 0 1 -.2 1.41 3.27 3.27 0 0 1 -.72 1.33 4 4 0 0 1 -1.41 1 6 6 0 0 1 -2.28.38h-3.11v6.45h-2zm2 6.45h2.56a7.08 7.08 0 0 0 1.13-.1 3 3 0 0 0 1-.34 1.84 1.84 0 0 0 .7-.71 2.95 2.95 0 0 0 0-2.42 1.84 1.84 0 0 0 -.7-.71 3 3 0 0 0 -1-.34 7.08 7.08 0 0 0 -1.13-.1h-2.56z"/><path d="m253.22 468h9.29v1.86h-7.34v4.36h6.83v1.86h-6.83v4.69h7.7v1.86h-9.65z"/><path d="m265.64 468h5.06a5.87 5.87 0 0 1 2.27.38 4 4 0 0 1 1.42 1 3.56 3.56 0 0 1 .72 1.32 5.58 5.58 0 0 1 .2 1.42 3.84 3.84 0 0 1 -.24 1.35 4 4 0 0 1 -.7 1.18 4.11 4.11 0 0 1 -1.12.89 3.76 3.76 0 0 1 -1.48.44l4.09 6.68h-2.44l-3.66-6.45h-2.17v6.45h-1.95zm1.95 6.45h2.56a7.19 7.19 0 0 0 1.13-.1 2.83 2.83 0 0 0 1-.34 1.77 1.77 0 0 0 .7-.71 2.85 2.85 0 0 0 0-2.42 1.77 1.77 0 0 0 -.7-.71 2.83 2.83 0 0 0 -1-.34 7.19 7.19 0 0 0 -1.13-.1h-2.56z"/><path d="m288.07 471.2a4.05 4.05 0 0 0 -1.54-1.24 4.55 4.55 0 0 0 -1.93-.43 5.11 5.11 0 0 0 -2.21.46 5.19 5.19 0 0 0 -1.69 1.27 5.86 5.86 0 0 0 -1.08 1.89 6.86 6.86 0 0 0 -.39 2.33 6.38 6.38 0 0 0 .37 2.19 5.49 5.49 0 0 0 1 1.82 5.08 5.08 0 0 0 1.69 1.23 5.28 5.28 0 0 0 2.26.46 4.36 4.36 0 0 0 2.17-.52 4.73 4.73 0 0 0 1.59-1.44l1.64 1.26a7 7 0 0 1 -.57.65 5.86 5.86 0 0 1 -1.07.84 7.64 7.64 0 0 1 -1.62.75 6.9 6.9 0 0 1 -2.18.32 7 7 0 0 1 -3.08-.66 7.31 7.31 0 0 1 -2.34-1.74 7.53 7.53 0 0 1 -1.47-2.43 7.67 7.67 0 0 1 -.51-2.73 8.58 8.58 0 0 1 .55-3.13 7.2 7.2 0 0 1 1.53-2.48 6.76 6.76 0 0 1 2.37-1.62 7.75 7.75 0 0 1 3.05-.58 7.17 7.17 0 0 1 2.79.56 5.18 5.18 0 0 1 2.25 1.71z"/><path d="m292.36 468h9.29v1.86h-7.34v4.36h6.83v1.86h-6.83v4.69h7.69v1.86h-9.65z"/><path d="m304.78 468h2.56l7.92 12v-12h1.95v14.63h-2.48l-8-12v12h-2z"/><path d="m324 469.9h-4.63v-1.9h11.21v1.86h-4.63v12.77h-2z"/><path d="m335.26 468h1.74l6.15 14.63h-2.27l-1.45-3.62h-6.84l-1.43 3.62h-2.27zm3.49 9.28-2.68-6.72-2.72 6.72z"/><path d="m357.3 474.49v7.21a6.25 6.25 0 0 1 -1.19.57 12 12 0 0 1 -1.4.43 12.11 12.11 0 0 1 -2.85.34 8.17 8.17 0 0 1 -3.26-.62 7 7 0 0 1 -3.92-4.12 8.29 8.29 0 0 1 -.52-2.95 8 8 0 0 1 .56-3 7.4 7.4 0 0 1 1.54-2.44 7 7 0 0 1 2.37-1.62 7.51 7.51 0 0 1 3-.59 9 9 0 0 1 3.25.5 6 6 0 0 1 2.11 1.4l-1.38 1.51a5.05 5.05 0 0 0 -1.89-1.21 6.36 6.36 0 0 0 -2.09-.34 5.22 5.22 0 0 0 -2.24.46 5.27 5.27 0 0 0 -2.8 3.1 6.51 6.51 0 0 0 -.39 2.26 6 6 0 0 0 .43 2.31 5.47 5.47 0 0 0 2.94 3.08 5.6 5.6 0 0 0 2.22.44 9.5 9.5 0 0 0 2-.2 5.25 5.25 0 0 0 1.57-.57v-4.07h-3.19v-1.85z"/><path d="m360.86 468h9.29v1.86h-7.34v4.36h6.83v1.86h-6.83v4.69h7.7v1.86h-9.65z"/><path d="m57.86 28.5h2.25l4.23 11.9 4.39-11.9h2.17l-5.67 14.62h-1.83z"/><path d="m76.2 28.5h1.8l6.16 14.62h-2.3l-1.45-3.61h-6.85l-1.42 3.61h-2.27zm3.5 9.27-2.7-6.71-2.72 6.71z"/><path d="m86 28.5h5.06a5.78 5.78 0 0 1 2.28.38 3.92 3.92 0 0 1 1.41 1 3.17 3.17 0 0 1 .72 1.32 5.12 5.12 0 0 1 .2 1.42 3.84 3.84 0 0 1 -.24 1.35 3.92 3.92 0 0 1 -.7 1.18 4.11 4.11 0 0 1 -1.12.89 3.76 3.76 0 0 1 -1.47.44l4.08 6.67h-2.44l-3.65-6.44h-2.13v6.44h-2zm2 6.44h2.56a7.08 7.08 0 0 0 1.13-.09 3.19 3.19 0 0 0 1-.34 1.91 1.91 0 0 0 .7-.71 2.52 2.52 0 0 0 .26-1.21 2.5 2.5 0 0 0 -.26-1.21 1.84 1.84 0 0 0 -.7-.71 3 3 0 0 0 -1-.34 6.09 6.09 0 0 0 -1.13-.1h-2.56z"/><path d="m98.42 28.5h2v14.62h-2z"/><path d="m104.07 28.5h9.28v1.86h-7.35v4.35h6.83v1.86h-6.83v4.69h7.7v1.86h-9.65z"/><path d="m119.49 30.36h-4.63v-1.86h11.21v1.86h-4.63v12.76h-2z"/><path d="m131.54 36.88-5.45-8.38h2.5l3.93 6.42 4-6.42h2.38l-5.45 8.38v6.24h-2z"/><path d="m139.69 35.93a1.29 1.29 0 0 1 -.95-.4 1.38 1.38 0 0 1 0-1.92 1.29 1.29 0 0 1 .95-.4 1.26 1.26 0 0 1 .94.4 1.35 1.35 0 0 1 0 1.92 1.26 1.26 0 0 1 -.94.4zm-1.34 6a1.35 1.35 0 0 1 1.34-1.36 1.37 1.37 0 0 1 1.31 1.31 1.38 1.38 0 0 1 -1.34 1.37 1.37 1.37 0 0 1 -1.34-1.37z"/></g><path d="m162.55 40.42a3.42 3.42 0 0 0 1.39 1.38 4.13 4.13 0 0 0 1.95.46 3.78 3.78 0 0 0 1.28-.21 3.34 3.34 0 0 0 1.05-.58 2.8 2.8 0 0 0 .7-.9 2.67 2.67 0 0 0 .26-1.19 2.31 2.31 0 0 0 -.32-1.26 2.57 2.57 0 0 0 -.86-.81 5.85 5.85 0 0 0 -1.21-.55l-1.38-.45c-.48-.16-.94-.33-1.39-.52a5 5 0 0 1 -1.21-.75 3.4 3.4 0 0 1 -.85-1.17 4.1 4.1 0 0 1 -.32-1.74 3.69 3.69 0 0 1 .38-1.72 3.62 3.62 0 0 1 1-1.26 4.64 4.64 0 0 1 1.5-.77 6.18 6.18 0 0 1 1.78-.26 5.82 5.82 0 0 1 2.22.43 4.16 4.16 0 0 1 1.79 1.45l-1.17.85a3.52 3.52 0 0 0 -1.21-1.08 3.39 3.39 0 0 0 -1.64-.37 4.36 4.36 0 0 0 -1.26.18 3.23 3.23 0 0 0 -1.05.52 2.56 2.56 0 0 0 -.71.85 2.61 2.61 0 0 0 -.27 1.22 2.39 2.39 0 0 0 .56 1.69 4 4 0 0 0 1.39.93 16.2 16.2 0 0 0 1.82.59 9.17 9.17 0 0 1 1.82.7 3.85 3.85 0 0 1 1.41 1.17 3.52 3.52 0 0 1 .56 2.13 4 4 0 0 1 -.37 1.76 3.86 3.86 0 0 1 -1 1.29 4.41 4.41 0 0 1 -1.46.8 5.46 5.46 0 0 1 -1.71.27 6.83 6.83 0 0 1 -2.67-.51 5 5 0 0 1 -2.09-1.7z" fill="#4a5fb8"/><path d="m176.88 29.74h-5v-1.24h11.37v1.24h-5v13.38h-1.37z" fill="#4a5fb8"/><path d="m188.58 28.5h1.42l6.16 14.62h-1.53l-1.63-3.88h-7.75l-1.65 3.88h-1.4zm.64 1.48-3.41 8h6.72z" fill="#4a5fb8"/><path d="m198.25 28.5h1.75l8.91 12.81v-12.81h1.36v14.62h-1.75l-8.91-12.81v12.81h-1.36z" fill="#4a5fb8"/><path d="m214.13 28.5h4.53a9.75 9.75 0 0 1 3.22.46 7.17 7.17 0 0 1 2.2 1.19 5.78 5.78 0 0 1 1.39 1.6 8.55 8.55 0 0 1 .74 1.68 7.75 7.75 0 0 1 .3 1.46c0 .43.06.74.06.92s0 .49-.06.92a7.75 7.75 0 0 1 -.3 1.46 8.55 8.55 0 0 1 -.74 1.68 5.93 5.93 0 0 1 -1.39 1.6 7.17 7.17 0 0 1 -2.2 1.19 9.75 9.75 0 0 1 -3.22.46h-4.53zm1.37 13.38h2.81a9.91 9.91 0 0 0 2.71-.36 6.14 6.14 0 0 0 2.18-1.1 5.31 5.31 0 0 0 1.47-1.89 7.12 7.12 0 0 0 0-5.44 5.31 5.31 0 0 0 -1.47-1.89 6.14 6.14 0 0 0 -2.2-1.1 9.91 9.91 0 0 0 -2.71-.36h-2.79z" fill="#4a5fb8"/><path d="m234.11 28.5h1.41l6.15 14.62h-1.52l-1.6-3.88h-7.74l-1.66 3.88h-1.42zm.64 1.48-3.41 8h6.72z" fill="#4a5fb8"/><path d="m243.78 28.5h3.84.79a7.15 7.15 0 0 1 1.07.12 6.74 6.74 0 0 1 1.18.33 3.34 3.34 0 0 1 1.08.66 3.63 3.63 0 0 1 .78 1.1 3.73 3.73 0 0 1 .31 1.61 3.67 3.67 0 0 1 -.36 1.73 3.24 3.24 0 0 1 -.91 1.11 3.88 3.88 0 0 1 -1.21.63 8.08 8.08 0 0 1 -1.26.29l4.26 7h-1.55l-4.11-6.94h-2.55v6.94h-1.36zm1.36 6.44h2.86a4.71 4.71 0 0 0 1.74-.27 2.83 2.83 0 0 0 1.05-.66 2.16 2.16 0 0 0 .5-.84 2.53 2.53 0 0 0 0-1.66 2.16 2.16 0 0 0 -.5-.84 2.84 2.84 0 0 0 -1.05-.67 5 5 0 0 0 -1.74-.26h-2.9z" fill="#4a5fb8"/><path d="m255.85 28.5h4.52a9.75 9.75 0 0 1 3.22.46 7.05 7.05 0 0 1 2.2 1.19 5.78 5.78 0 0 1 1.39 1.6 8 8 0 0 1 .74 1.68 7.75 7.75 0 0 1 .3 1.46c0 .43.07.74.07.92s0 .49-.07.92a7.75 7.75 0 0 1 -.3 1.46 8 8 0 0 1 -.74 1.68 5.93 5.93 0 0 1 -1.39 1.6 7.05 7.05 0 0 1 -2.2 1.19 9.75 9.75 0 0 1 -3.22.46h-4.52zm1.36 13.38h2.79a9.86 9.86 0 0 0 2.71-.36 6.27 6.27 0 0 0 2.19-1.1 5.17 5.17 0 0 0 1.46-1.89 7.12 7.12 0 0 0 0-5.44 5.17 5.17 0 0 0 -1.46-1.89 6.27 6.27 0 0 0 -2.19-1.1 9.86 9.86 0 0 0 -2.71-.36h-2.81z" fill="#4a5fb8"/><path d="m59.83 61.78h5.06a5.87 5.87 0 0 1 2.27.38 3.89 3.89 0 0 1 1.42 1 3.41 3.41 0 0 1 .72 1.32 5.11 5.11 0 0 1 0 2.83 3.41 3.41 0 0 1 -.72 1.32 3.88 3.88 0 0 1 -1.42 1 5.69 5.69 0 0 1 -2.27.38h-3.11v6.45h-2zm2 6.45h2.56a7.17 7.17 0 0 0 1.13-.09 3.06 3.06 0 0 0 1-.35 1.77 1.77 0 0 0 .7-.71 2.38 2.38 0 0 0 .27-1.21 2.41 2.41 0 0 0 -.27-1.21 1.84 1.84 0 0 0 -.7-.71 3 3 0 0 0 -1-.34 7.17 7.17 0 0 0 -1.13-.09h-2.61z" fill="#fff"/><path d="m78.48 76.78a7.51 7.51 0 0 1 -3-.59 6.9 6.9 0 0 1 -2.36-1.62 7.59 7.59 0 0 1 -1.55-2.44 8.5 8.5 0 0 1 0-6.07 7.59 7.59 0 0 1 1.55-2.44 6.9 6.9 0 0 1 2.33-1.62 8.08 8.08 0 0 1 6.06 0 7 7 0 0 1 2.37 1.62 7.4 7.4 0 0 1 1.54 2.44 8.5 8.5 0 0 1 0 6.07 7.4 7.4 0 0 1 -1.54 2.44 7 7 0 0 1 -2.37 1.62 7.51 7.51 0 0 1 -3.03.59zm0-1.86a5.25 5.25 0 0 0 2.24-.46 5.27 5.27 0 0 0 2.8-3.1 6.77 6.77 0 0 0 0-4.53 5.52 5.52 0 0 0 -1.09-1.83 5.29 5.29 0 0 0 -1.71-1.24 5.37 5.37 0 0 0 -6.18 1.24 5.72 5.72 0 0 0 -1.1 1.85 6.94 6.94 0 0 0 0 4.53 5.72 5.72 0 0 0 1.1 1.85 5.18 5.18 0 0 0 3.94 1.71z" fill="#fff"/><path d="m88.79 61.78h5a5.93 5.93 0 0 1 2.28.38 3.77 3.77 0 0 1 1.41 1 3.17 3.17 0 0 1 .72 1.32 4.87 4.87 0 0 1 0 2.83 3.17 3.17 0 0 1 -.72 1.32 3.75 3.75 0 0 1 -1.41 1 5.74 5.74 0 0 1 -2.28.38h-3.06v6.45h-1.94zm1.94 6.45h2.56a7.08 7.08 0 0 0 1.13-.09 3 3 0 0 0 1-.35 1.84 1.84 0 0 0 .7-.71 2.39 2.39 0 0 0 .26-1.21 2.41 2.41 0 0 0 -.26-1.21 1.91 1.91 0 0 0 -.7-.71 3 3 0 0 0 -1-.34 7.08 7.08 0 0 0 -1.13-.09h-2.56z" fill="#fff"/><path d="m102.52 61.78v9a5.86 5.86 0 0 0 .18 1.41 4.51 4.51 0 0 0 .61 1.36 3.24 3.24 0 0 0 2.83 1.4 3.46 3.46 0 0 0 1.71-.39 3.28 3.28 0 0 0 1.11-1 4.06 4.06 0 0 0 .61-1.36 5.43 5.43 0 0 0 .19-1.41v-9h1.95v9.28a6.15 6.15 0 0 1 -.43 2.32 5.46 5.46 0 0 1 -1.18 1.81 5.23 5.23 0 0 1 -1.77 1.18 6.08 6.08 0 0 1 -4.39 0 5.29 5.29 0 0 1 -1.76-1.18 5.46 5.46 0 0 1 -1.18-1.82 6 6 0 0 1 -.43-2.32v-9.28z" fill="#fff"/><path d="m115.14 61.78h2v12.77h6.61v1.86h-8.56z" fill="#fff"/><path d="m130.2 61.78h1.8l6.15 14.63h-2.27l-1.44-3.62h-6.85l-1.43 3.62h-2.27zm3.49 9.28-2.69-6.72-2.72 6.72z" fill="#fff"/><path d="m140 61.78h5.06a6 6 0 0 1 2.28.38 3.77 3.77 0 0 1 1.41 1 3.17 3.17 0 0 1 .72 1.32 5.13 5.13 0 0 1 .21 1.41 3.72 3.72 0 0 1 -.25 1.36 3.68 3.68 0 0 1 -.7 1.17 3.92 3.92 0 0 1 -2.59 1.34l4.09 6.67h-2.44l-3.67-6.43h-2.12v6.45h-2zm2 6.45h2.56a7 7 0 0 0 1.12-.09 3 3 0 0 0 1-.35 1.84 1.84 0 0 0 .7-.71 2.39 2.39 0 0 0 .26-1.21 2.41 2.41 0 0 0 -.26-1.21 1.91 1.91 0 0 0 -.7-.71 3 3 0 0 0 -1-.34 7 7 0 0 0 -1.12-.09h-2.56z" fill="#fff"/><path d="m152.41 61.78h2v14.63h-2z" fill="#fff"/><path d="m161.07 63.64h-4.64v-1.86h11.22v1.86h-4.65v12.77h-2z" fill="#fff"/><path d="m173.12 70.17-5.45-8.39h2.5l3.92 6.43 4-6.43h2.37l-5.44 8.39v6.24h-1.95z" fill="#fff"/><path d="m181.27 69.22a1.29 1.29 0 0 1 -1-.4 1.34 1.34 0 0 1 -.39-1 1.37 1.37 0 0 1 1.34-1.37 1.38 1.38 0 0 1 1.34 1.37 1.31 1.31 0 0 1 -.4 1 1.26 1.26 0 0 1 -.89.4zm-1.34 6a1.34 1.34 0 0 1 .39-1 1.29 1.29 0 0 1 1-.4 1.26 1.26 0 0 1 .94.4 1.35 1.35 0 0 1 0 1.92 1.26 1.26 0 0 1 -.94.4 1.29 1.29 0 0 1 -1-.4 1.34 1.34 0 0 1 -.39-.97z" fill="#fff"/><path d="m205.88 68.23a2.42 2.42 0 0 1 1-.47 5 5 0 0 1 1.15-.15 4.47 4.47 0 0 1 1.77.35 4.16 4.16 0 0 1 1.4 1 4.26 4.26 0 0 1 .91 1.43 4.63 4.63 0 0 1 .33 1.76 4.77 4.77 0 0 1 -.35 1.83 4.3 4.3 0 0 1 -1 1.44 4.6 4.6 0 0 1 -1.5.94 5.34 5.34 0 0 1 -3.75 0 4.6 4.6 0 0 1 -1.5-.94 4.14 4.14 0 0 1 -1-1.44 4.6 4.6 0 0 1 -.36-1.83 4.79 4.79 0 0 1 .12-1.09 5.13 5.13 0 0 1 .33-1c.13-.31.28-.61.42-.88s.3-.54.45-.79l3.9-6.59h1.55zm1.87.45a3.18 3.18 0 0 0 -1.32.27 3.33 3.33 0 0 0 -1.07.73 3.38 3.38 0 0 0 -.72 1.1 3.33 3.33 0 0 0 -.27 1.33 3.71 3.71 0 0 0 .25 1.4 3 3 0 0 0 .69 1.08 3.06 3.06 0 0 0 1.06.7 3.91 3.91 0 0 0 2.75 0 3 3 0 0 0 1.06-.7 3 3 0 0 0 .69-1.08 3.71 3.71 0 0 0 .25-1.4 3.5 3.5 0 0 0 -.26-1.33 3.58 3.58 0 0 0 -.73-1.1 3.33 3.33 0 0 0 -1.07-.73 3.27 3.27 0 0 0 -1.31-.27z" fill="#fff"/><path d="m213.56 69.1c0-.53 0-1.08.07-1.67a12.16 12.16 0 0 1 .26-1.71 9 9 0 0 1 .53-1.59 4.69 4.69 0 0 1 .87-1.34 4 4 0 0 1 1.26-.92 4.35 4.35 0 0 1 1.76-.34 4.28 4.28 0 0 1 1.76.34 4 4 0 0 1 1.27.92 4.88 4.88 0 0 1 .86 1.34 8.25 8.25 0 0 1 .53 1.59 12.18 12.18 0 0 1 .27 1.71c0 .59.07 1.14.07 1.67s0 1.09-.07 1.67a11.81 11.81 0 0 1 -.27 1.7 8.58 8.58 0 0 1 -.53 1.6 5 5 0 0 1 -.86 1.33 4 4 0 0 1 -1.27.92 4.28 4.28 0 0 1 -1.76.34 4.35 4.35 0 0 1 -1.76-.34 4 4 0 0 1 -1.26-.92 4.78 4.78 0 0 1 -.87-1.33 9.38 9.38 0 0 1 -.53-1.6 11.81 11.81 0 0 1 -.26-1.7c-.05-.58-.07-1.14-.07-1.67zm1.34 0v1.27a13.64 13.64 0 0 0 .16 1.4 8.46 8.46 0 0 0 .36 1.4 4.51 4.51 0 0 0 .61 1.2 2.86 2.86 0 0 0 .92.85 2.86 2.86 0 0 0 2.63 0 2.73 2.73 0 0 0 .94-.85 4.83 4.83 0 0 0 .61-1.2 9.55 9.55 0 0 0 .35-1.4 11.37 11.37 0 0 0 .17-1.4c0-.46 0-.89 0-1.27s0-.8 0-1.26a11.69 11.69 0 0 0 -.17-1.42 9.43 9.43 0 0 0 -.35-1.39 4.73 4.73 0 0 0 -.61-1.21 2.84 2.84 0 0 0 -.94-.85 2.84 2.84 0 0 0 -2.58.03 2.91 2.91 0 0 0 -.93.85 4.43 4.43 0 0 0 -.61 1.21 8.35 8.35 0 0 0 -.36 1.39 14 14 0 0 0 -.16 1.42c-.03.43-.04.85-.04 1.23z" fill="#fff"/><path d="m225.26 75.54a1 1 0 0 1 .29-.7 1 1 0 0 1 1.38 0 1 1 0 0 1 .28.7 1 1 0 0 1 -.28.71 1 1 0 0 1 -1.38 0 1 1 0 0 1 -.29-.71z" fill="#fff"/><path d="m231 73.35a3.71 3.71 0 0 0 1.14 1.65 3 3 0 0 0 1.92.57 3.57 3.57 0 0 0 1.4-.25 2.69 2.69 0 0 0 1-.68 3 3 0 0 0 .6-1 3.88 3.88 0 0 0 .2-1.24 2.71 2.71 0 0 0 -.33-1.38 2.84 2.84 0 0 0 -.88-.94 3.74 3.74 0 0 0 -1.22-.53 5.78 5.78 0 0 0 -1.37-.17h-.53v-1.28h.61a4.6 4.6 0 0 0 1.16-.1 3.11 3.11 0 0 0 1-.49 2.55 2.55 0 0 0 .74-.85 2.65 2.65 0 0 0 .28-1.27 2.71 2.71 0 0 0 -.72-1.99 2.57 2.57 0 0 0 -1.94-.75 2.86 2.86 0 0 0 -1.6.47 3.09 3.09 0 0 0 -1.12 1.25l-1.16-.67a3.7 3.7 0 0 1 1.62-1.65 5.15 5.15 0 0 1 3.81-.28 3.88 3.88 0 0 1 1.28.7 3.3 3.3 0 0 1 .86 1.17 4 4 0 0 1 .32 1.65 3.54 3.54 0 0 1 -.66 2.12 3.28 3.28 0 0 1 -1.91 1.27 3.61 3.61 0 0 1 1.25.47 3.75 3.75 0 0 1 1 .84 3.8 3.8 0 0 1 .63 1.11 3.85 3.85 0 0 1 .22 1.32 4.91 4.91 0 0 1 -.27 1.64 3.6 3.6 0 0 1 -.83 1.33 4 4 0 0 1 -1.4.9 5.24 5.24 0 0 1 -2 .33 5.17 5.17 0 0 1 -2.75-.69 4.27 4.27 0 0 1 -1.7-2.18z" fill="#fff"/><path d="m248.45 62.9-5.73 13.51h-1.36l5.83-13.51h-6.91v-1.12h8.17z" fill="#fff"/><path d="m250.79 65.09a3.58 3.58 0 0 1 2.13-3.28 3.44 3.44 0 0 1 2.72 0 3.58 3.58 0 0 1 2.14 3.28 3.51 3.51 0 0 1 -.28 1.38 3.6 3.6 0 0 1 -.75 1.13 3.54 3.54 0 0 1 -1.11.76 3.44 3.44 0 0 1 -2.72 0 3.54 3.54 0 0 1 -1.11-.76 3.6 3.6 0 0 1 -.75-1.13 3.5 3.5 0 0 1 -.27-1.38zm1.09 0a2.39 2.39 0 0 0 .2 1 2.52 2.52 0 0 0 .51.77 2.28 2.28 0 0 0 .77.52 2.32 2.32 0 0 0 1.84 0 2.28 2.28 0 0 0 .77-.52 2.75 2.75 0 0 0 .52-.77 2.57 2.57 0 0 0 .19-1 2.49 2.49 0 0 0 -.19-1 2.66 2.66 0 0 0 -.52-.78 2.25 2.25 0 0 0 -.77-.51 2.32 2.32 0 0 0 -1.84 0 2.25 2.25 0 0 0 -.77.51 2.45 2.45 0 0 0 -.51.78 2.32 2.32 0 0 0 -.2 1zm10.61-4 .94.58-9.29 15.45-.92-.58zm-3.68 12a3.37 3.37 0 0 1 .28-1.38 3.6 3.6 0 0 1 .75-1.13 3.71 3.71 0 0 1 1.11-.76 3.25 3.25 0 0 1 1.36-.28 3.28 3.28 0 0 1 1.36.28 3.71 3.71 0 0 1 1.11.76 3.6 3.6 0 0 1 .75 1.13 3.69 3.69 0 0 1 0 2.77 3.44 3.44 0 0 1 -.75 1.12 3.57 3.57 0 0 1 -1.11.77 3.45 3.45 0 0 1 -1.36.28 3.41 3.41 0 0 1 -1.36-.28 3.57 3.57 0 0 1 -1.11-.77 3.44 3.44 0 0 1 -.75-1.12 3.39 3.39 0 0 1 -.28-1.38zm1.1 0a2.4 2.4 0 0 0 .19 1 2.55 2.55 0 0 0 .52.77 2.51 2.51 0 0 0 .76.52 2.36 2.36 0 0 0 2.61-.52 2.55 2.55 0 0 0 .52-.77 2.55 2.55 0 0 0 0-1.93 2.55 2.55 0 0 0 -.52-.77 2.41 2.41 0 0 0 -2.61-.52 2.51 2.51 0 0 0 -.76.52 2.55 2.55 0 0 0 -.52.77 2.38 2.38 0 0 0 -.19.94z" fill="#fff"/><path d="m118.72 115.6h363.62" fill="none" stroke="#fff" stroke-miterlimit="1.18" stroke-width=".25"/><path d="m65.79 432.5c0-.55 0-1.13.07-1.75a12 12 0 0 1 .29-1.81 9.2 9.2 0 0 1 .56-1.68 5 5 0 0 1 .93-1.4 4.17 4.17 0 0 1 1.36-1 5.12 5.12 0 0 1 3.77 0 4.06 4.06 0 0 1 1.36 1 5 5 0 0 1 .93 1.4 9.22 9.22 0 0 1 .57 1.68 12 12 0 0 1 .28 1.81c0 .62.08 1.2.08 1.75s0 1.16-.08 1.77a12 12 0 0 1 -.28 1.8 9.39 9.39 0 0 1 -.57 1.67 5.23 5.23 0 0 1 -.93 1.41 4.06 4.06 0 0 1 -1.36 1 5.12 5.12 0 0 1 -3.77 0 4.17 4.17 0 0 1 -1.36-1 5.23 5.23 0 0 1 -.93-1.41 9.36 9.36 0 0 1 -.56-1.67 12.06 12.06 0 0 1 -.29-1.8c-.05-.61-.07-1.2-.07-1.77zm1.44 0v1.34s.09 1 .17 1.49a9.37 9.37 0 0 0 .39 1.47 4.61 4.61 0 0 0 .65 1.27 3.12 3.12 0 0 0 1 .89 3.09 3.09 0 0 0 2.82 0 3.08 3.08 0 0 0 1-.89 5.23 5.23 0 0 0 .74-1.27 9.33 9.33 0 0 0 .38-1.47 11.15 11.15 0 0 0 .17-1.49c0-.48 0-.93 0-1.34s0-.83 0-1.33a11 11 0 0 0 -.17-1.49 9.33 9.33 0 0 0 -.38-1.47 5.23 5.23 0 0 0 -.65-1.27 3.23 3.23 0 0 0 -1-.9 3.07 3.07 0 0 0 -2.81 0 3.19 3.19 0 0 0 -1 .9 4.61 4.61 0 0 0 -.65 1.27 9.37 9.37 0 0 0 -.39 1.47c-.08.5-.14 1-.17 1.49s-.1.94-.1 1.33z" fill="#fff"/><path d="m142.73 426.62-2.79 2.29-.8-1 3.81-3.12h1.05v15.43h-1.3z" fill="#fff"/><path d="m148.94 432.5c0-.55 0-1.13.07-1.75a12 12 0 0 1 .29-1.81 8.5 8.5 0 0 1 .56-1.68 5 5 0 0 1 .93-1.4 4.17 4.17 0 0 1 1.36-1 5.12 5.12 0 0 1 3.77 0 4.06 4.06 0 0 1 1.36 1 5 5 0 0 1 .93 1.4 9.22 9.22 0 0 1 .57 1.68 13.38 13.38 0 0 1 .28 1.81c.05.62.08 1.2.08 1.75s0 1.16-.08 1.77a13.48 13.48 0 0 1 -.28 1.8 9.39 9.39 0 0 1 -.57 1.67 5.23 5.23 0 0 1 -.93 1.41 4.06 4.06 0 0 1 -1.36 1 5.12 5.12 0 0 1 -3.77 0 4.17 4.17 0 0 1 -1.36-1 5.23 5.23 0 0 1 -.93-1.41 8.63 8.63 0 0 1 -.56-1.67 12.06 12.06 0 0 1 -.29-1.8c-.01-.61-.07-1.2-.07-1.77zm1.43 0v1.34s.09 1 .17 1.49a10.57 10.57 0 0 0 .38 1.47 4.92 4.92 0 0 0 .66 1.27 3.12 3.12 0 0 0 1 .89 3.09 3.09 0 0 0 2.82 0 3 3 0 0 0 1-.89 4.92 4.92 0 0 0 .66-1.27 10.57 10.57 0 0 0 .38-1.47 13.08 13.08 0 0 0 .17-1.49c0-.48 0-.93 0-1.34s0-.83 0-1.33a12.83 12.83 0 0 0 -.17-1.49 10.57 10.57 0 0 0 -.38-1.47 4.92 4.92 0 0 0 -.66-1.27 3.19 3.19 0 0 0 -1-.9 3.07 3.07 0 0 0 -2.81 0 3.19 3.19 0 0 0 -1 .9 4.92 4.92 0 0 0 -.66 1.27 10.57 10.57 0 0 0 -.38 1.47c-.08.5-.14 1-.17 1.49s-.01.94-.01 1.33z" fill="#fff"/><path d="m215.41 438.69 5.8-6.12c.26-.26.52-.54.79-.84a7.9 7.9 0 0 0 .7-.94 5 5 0 0 0 .52-1 3.52 3.52 0 0 0 .19-1.18 2.66 2.66 0 0 0 -.87-2.11 3.21 3.21 0 0 0 -2.2-.77 3.09 3.09 0 0 0 -2 .7 3.21 3.21 0 0 0 -1.06 1.83l-1.53-.15a4.14 4.14 0 0 1 1.63-2.67 5.21 5.21 0 0 1 3.06-.88 5.36 5.36 0 0 1 1.7.27 4.58 4.58 0 0 1 1.41.77 3.63 3.63 0 0 1 1.33 2.9 4.94 4.94 0 0 1 -.27 1.66 6.76 6.76 0 0 1 -.72 1.45 8.45 8.45 0 0 1 -1 1.29c-.38.41-.77.82-1.16 1.22l-4.82 5h8.09v1.18h-9.55z" fill="#fff"/><path d="m226.42 432.5c0-.55 0-1.13.08-1.75a12 12 0 0 1 .28-1.81 9.22 9.22 0 0 1 .57-1.68 5 5 0 0 1 .92-1.4 4.17 4.17 0 0 1 1.36-1 4.55 4.55 0 0 1 1.89-.36 4.5 4.5 0 0 1 1.88.36 4.21 4.21 0 0 1 1.37 1 5.23 5.23 0 0 1 .92 1.4 9.22 9.22 0 0 1 .57 1.68 12 12 0 0 1 .28 1.81c.05.62.08 1.2.08 1.75s0 1.16-.08 1.77a12 12 0 0 1 -.28 1.8 9.39 9.39 0 0 1 -.57 1.67 5.45 5.45 0 0 1 -.92 1.41 4.21 4.21 0 0 1 -1.37 1 4.5 4.5 0 0 1 -1.88.36 4.55 4.55 0 0 1 -1.89-.36 4.17 4.17 0 0 1 -1.36-1 5.2 5.2 0 0 1 -.92-1.41 9.39 9.39 0 0 1 -.57-1.67 12 12 0 0 1 -.28-1.8c-.05-.61-.08-1.2-.08-1.77zm1.44 0v1.34a13.14 13.14 0 0 0 .18 1.49 8.36 8.36 0 0 0 .38 1.47 4.61 4.61 0 0 0 .65 1.27 3.12 3.12 0 0 0 1 .89 2.79 2.79 0 0 0 1.42.34 2.72 2.72 0 0 0 1.4-.34 3.08 3.08 0 0 0 1-.89 4.9 4.9 0 0 0 .65-1.27 9.33 9.33 0 0 0 .38-1.47 13.14 13.14 0 0 0 .18-1.49c0-.48 0-.93 0-1.34s0-.83 0-1.33a12.87 12.87 0 0 0 -.18-1.49 9.33 9.33 0 0 0 -.38-1.47 4.9 4.9 0 0 0 -.65-1.27 3.23 3.23 0 0 0 -1-.9 2.82 2.82 0 0 0 -1.4-.34 2.88 2.88 0 0 0 -1.41.34 3.19 3.19 0 0 0 -1 .9 4.61 4.61 0 0 0 -.65 1.27 8.36 8.36 0 0 0 -.38 1.47 12.87 12.87 0 0 0 -.18 1.49c0 .5-.01.94-.01 1.33z" fill="#fff"/><path d="m294.31 437a4 4 0 0 0 1.19 1.71 3.22 3.22 0 0 0 2.06.6 3.87 3.87 0 0 0 1.5-.26 2.77 2.77 0 0 0 1.08-.72 3 3 0 0 0 .65-1.07 3.94 3.94 0 0 0 .21-1.26 2.8 2.8 0 0 0 -.36-1.46 3 3 0 0 0 -.93-1 4.06 4.06 0 0 0 -1.31-.56 6.16 6.16 0 0 0 -1.47-.18h-.57v-1.3h.64a4.86 4.86 0 0 0 1.23-.17 3.52 3.52 0 0 0 1.11-.51 2.55 2.55 0 0 0 .79-.9 2.68 2.68 0 0 0 .31-1.34 2.82 2.82 0 0 0 -.77-2 2.79 2.79 0 0 0 -2.09-.8 3.17 3.17 0 0 0 -1.72.49 3.47 3.47 0 0 0 -1.2 1.32l-1.24-.69a4 4 0 0 1 1.73-1.75 5.48 5.48 0 0 1 2.43-.54 5.29 5.29 0 0 1 1.66.25 4 4 0 0 1 1.37.74 3.46 3.46 0 0 1 .93 1.23 4.09 4.09 0 0 1 .34 1.74 3.77 3.77 0 0 1 -.7 2.24 3.62 3.62 0 0 1 -2.05 1.34 3.9 3.9 0 0 1 1.34.49 4.22 4.22 0 0 1 1 .88 3.93 3.93 0 0 1 .67 1.18 4 4 0 0 1 .24 1.4 5.13 5.13 0 0 1 -.29 1.72 3.92 3.92 0 0 1 -.9 1.4 4.19 4.19 0 0 1 -1.49.95 5.75 5.75 0 0 1 -2.09.35 5.56 5.56 0 0 1 -2.95-.73 4.4 4.4 0 0 1 -1.82-2.3z" fill="#fff"/><path d="m303.9 432.5c0-.55 0-1.13.08-1.75a12 12 0 0 1 .28-1.81 9.22 9.22 0 0 1 .57-1.68 5.23 5.23 0 0 1 .92-1.4 4.21 4.21 0 0 1 1.37-1 5.12 5.12 0 0 1 3.77 0 4.17 4.17 0 0 1 1.36 1 4.79 4.79 0 0 1 .92 1.4 9.22 9.22 0 0 1 .57 1.68 13.39 13.39 0 0 1 .29 1.81c.05.62.07 1.2.07 1.75s0 1.16-.07 1.77a13.5 13.5 0 0 1 -.29 1.8 9.39 9.39 0 0 1 -.57 1.67 5 5 0 0 1 -.92 1.41 4.17 4.17 0 0 1 -1.36 1 5.12 5.12 0 0 1 -3.77 0 4.21 4.21 0 0 1 -1.37-1 5.45 5.45 0 0 1 -.92-1.41 9.39 9.39 0 0 1 -.57-1.67 12 12 0 0 1 -.28-1.8c-.05-.61-.08-1.2-.08-1.77zm1.44 0v1.34a13.14 13.14 0 0 0 .18 1.49 9.33 9.33 0 0 0 .38 1.47 5.23 5.23 0 0 0 .65 1.27 3.12 3.12 0 0 0 1 .89 3.11 3.11 0 0 0 2.83 0 3 3 0 0 0 1-.89 4.61 4.61 0 0 0 .65-1.27 9.37 9.37 0 0 0 .39-1.47c.08-.51.14-1 .17-1.49s0-.93 0-1.34 0-.83 0-1.33-.09-1-.17-1.49a9.37 9.37 0 0 0 -.39-1.47 4.61 4.61 0 0 0 -.65-1.27 3.19 3.19 0 0 0 -1-.9 2.88 2.88 0 0 0 -1.41-.34 2.84 2.84 0 0 0 -1.4.34 3.23 3.23 0 0 0 -1 .9 5.23 5.23 0 0 0 -.65 1.27 9.33 9.33 0 0 0 -.38 1.47 12.87 12.87 0 0 0 -.18 1.49c0 .5-.02.94-.02 1.33z" fill="#fff"/><path d="m376.66 436.43h-6.66v-1.55l6.16-10.09h1.84v10.46h2.36v1.18h-2.36v3.79h-1.3zm0-10.2h-.05l-5.45 9h5.5z" fill="#fff"/><path d="m381.38 432.5c0-.55 0-1.13.08-1.75a13.38 13.38 0 0 1 .28-1.81 9.22 9.22 0 0 1 .57-1.68 5 5 0 0 1 .93-1.4 4.17 4.17 0 0 1 1.36-1 5.12 5.12 0 0 1 3.77 0 4.17 4.17 0 0 1 1.36 1 5 5 0 0 1 .93 1.4 8.5 8.5 0 0 1 .56 1.68 12 12 0 0 1 .29 1.81c.05.62.07 1.2.07 1.75s0 1.16-.07 1.77a12.06 12.06 0 0 1 -.29 1.8 8.63 8.63 0 0 1 -.56 1.67 5.23 5.23 0 0 1 -.93 1.41 4.17 4.17 0 0 1 -1.36 1 5.12 5.12 0 0 1 -3.77 0 4.17 4.17 0 0 1 -1.36-1 5.23 5.23 0 0 1 -.93-1.41 9.39 9.39 0 0 1 -.57-1.67 13.48 13.48 0 0 1 -.28-1.8c-.05-.61-.08-1.2-.08-1.77zm1.44 0c0 .41 0 .86.05 1.34a13.08 13.08 0 0 0 .17 1.49 9.33 9.33 0 0 0 .38 1.47 4.92 4.92 0 0 0 .66 1.27 3 3 0 0 0 1 .89 2.73 2.73 0 0 0 1.41.34 2.78 2.78 0 0 0 1.41-.34 3 3 0 0 0 1-.89 4.92 4.92 0 0 0 .66-1.27 10.57 10.57 0 0 0 .38-1.47c.08-.51.14-1 .17-1.49s0-.93 0-1.34 0-.83 0-1.33-.09-1-.17-1.49a10.57 10.57 0 0 0 -.38-1.47 4.92 4.92 0 0 0 -.66-1.27 3.19 3.19 0 0 0 -1-.9 3.07 3.07 0 0 0 -2.81 0 3.09 3.09 0 0 0 -1 .9 4.92 4.92 0 0 0 -.66 1.27 9.33 9.33 0 0 0 -.38 1.47 12.83 12.83 0 0 0 -.17 1.49c-.04.5-.06.94-.06 1.33z" fill="#fff"/><path d="m456.78 426h-6.37l-.06 4.9a3.32 3.32 0 0 1 1.09-.35 7.65 7.65 0 0 1 1.16-.09 4.77 4.77 0 0 1 2 .41 4.49 4.49 0 0 1 1.51 1.1 5 5 0 0 1 1 1.62 5.82 5.82 0 0 1 .34 2 5 5 0 0 1 -.45 2.18 4.6 4.6 0 0 1 -1.17 1.55 4.77 4.77 0 0 1 -1.59.91 5 5 0 0 1 -1.72.31 5.32 5.32 0 0 1 -2.84-.7 4.72 4.72 0 0 1 -1.78-1.92l1.35-.67a3.23 3.23 0 0 0 .54.82 3.82 3.82 0 0 0 .77.67 3.57 3.57 0 0 0 .94.46 3.2 3.2 0 0 0 1 .16 3.13 3.13 0 0 0 1.14-.23 3.78 3.78 0 0 0 1.13-.68 3.68 3.68 0 0 0 .87-1.16 3.57 3.57 0 0 0 .35-1.61 4.09 4.09 0 0 0 -.3-1.56 3.83 3.83 0 0 0 -3.58-2.45 4.67 4.67 0 0 0 -1.61.29 6.16 6.16 0 0 0 -1.44.76l.13-7.87h7.61z" fill="#fff"/><path d="m458.87 432.5c0-.55 0-1.13.07-1.75a12 12 0 0 1 .29-1.81 9.2 9.2 0 0 1 .56-1.68 5 5 0 0 1 .93-1.4 4.17 4.17 0 0 1 1.36-1 5.12 5.12 0 0 1 3.77 0 4.06 4.06 0 0 1 1.36 1 5 5 0 0 1 .93 1.4 9.22 9.22 0 0 1 .57 1.68 13.38 13.38 0 0 1 .28 1.81c.05.62.08 1.2.08 1.75s0 1.16-.08 1.77a13.48 13.48 0 0 1 -.28 1.8 9.39 9.39 0 0 1 -.57 1.67 5.23 5.23 0 0 1 -.93 1.41 4.06 4.06 0 0 1 -1.36 1 5.12 5.12 0 0 1 -3.77 0 4.17 4.17 0 0 1 -1.36-1 5.23 5.23 0 0 1 -.93-1.41 9.36 9.36 0 0 1 -.56-1.67 12.06 12.06 0 0 1 -.29-1.8c-.05-.61-.07-1.2-.07-1.77zm1.44 0v1.34s.09 1 .17 1.49a9.37 9.37 0 0 0 .39 1.47 4.61 4.61 0 0 0 .65 1.27 3.12 3.12 0 0 0 1 .89 3.09 3.09 0 0 0 2.82 0 3 3 0 0 0 1-.89 4.92 4.92 0 0 0 .66-1.27 9.33 9.33 0 0 0 .38-1.47 13.08 13.08 0 0 0 .17-1.49c0-.48.05-.93.05-1.34s0-.83-.05-1.33a12.83 12.83 0 0 0 -.17-1.49 9.33 9.33 0 0 0 -.38-1.47 4.92 4.92 0 0 0 -.66-1.27 3.09 3.09 0 0 0 -1-.9 3.07 3.07 0 0 0 -2.81 0 3.19 3.19 0 0 0 -1 .9 4.61 4.61 0 0 0 -.65 1.27 9.37 9.37 0 0 0 -.39 1.47c-.08.5-.14 1-.17 1.49s-.01.94-.01 1.33z" fill="#fff"/><path d="m528.11 431.59a2.56 2.56 0 0 1 1.05-.49 5.25 5.25 0 0 1 1.23-.17 4.91 4.91 0 0 1 1.9.37 4.64 4.64 0 0 1 1.5 1 4.59 4.59 0 0 1 1 1.5 4.81 4.81 0 0 1 .35 1.86 4.68 4.68 0 0 1 -.38 1.93 4.43 4.43 0 0 1 -1.06 1.52 4.91 4.91 0 0 1 -1.6 1 5.82 5.82 0 0 1 -4 0 4.91 4.91 0 0 1 -1.6-1 4.57 4.57 0 0 1 -1.06-1.52 4.85 4.85 0 0 1 -.38-1.93 4.77 4.77 0 0 1 .13-1.15 6.56 6.56 0 0 1 .35-1c.15-.33.3-.64.46-.93s.32-.57.48-.83l4.18-6.95h1.66zm2 .48a3.53 3.53 0 0 0 -1.42.28 3.64 3.64 0 0 0 -1.14.77 3.7 3.7 0 0 0 -.78 1.16 3.5 3.5 0 0 0 -.28 1.4 4.14 4.14 0 0 0 .26 1.48 3.4 3.4 0 0 0 .74 1.14 3.21 3.21 0 0 0 1.15.74 3.85 3.85 0 0 0 1.47.26 3.92 3.92 0 0 0 1.47-.26 3.27 3.27 0 0 0 1.88-1.88 3.94 3.94 0 0 0 .26-1.48 3.5 3.5 0 0 0 -.28-1.4 3.85 3.85 0 0 0 -.77-1.16 3.73 3.73 0 0 0 -1.16-.77 3.5 3.5 0 0 0 -1.39-.28z" fill="#fff"/><path d="m536.35 432.5c0-.55 0-1.13.08-1.75a12 12 0 0 1 .28-1.81 9.22 9.22 0 0 1 .57-1.68 5 5 0 0 1 .92-1.4 4.17 4.17 0 0 1 1.36-1 4.55 4.55 0 0 1 1.89-.36 4.5 4.5 0 0 1 1.88.36 4.21 4.21 0 0 1 1.37 1 5.23 5.23 0 0 1 .92 1.4 9.22 9.22 0 0 1 .57 1.68 12 12 0 0 1 .28 1.81c0 .62.08 1.2.08 1.75s0 1.16-.08 1.77a12 12 0 0 1 -.28 1.8 9.39 9.39 0 0 1 -.57 1.67 5.45 5.45 0 0 1 -.92 1.41 4.21 4.21 0 0 1 -1.37 1 4.5 4.5 0 0 1 -1.88.36 4.55 4.55 0 0 1 -1.89-.36 4.17 4.17 0 0 1 -1.36-1 5.2 5.2 0 0 1 -.92-1.41 9.39 9.39 0 0 1 -.57-1.67 12 12 0 0 1 -.28-1.8c-.06-.61-.08-1.2-.08-1.77zm1.44 0v1.34a13.14 13.14 0 0 0 .18 1.49 8.36 8.36 0 0 0 .38 1.47 4.61 4.61 0 0 0 .65 1.27 3.12 3.12 0 0 0 1 .89 3.09 3.09 0 0 0 2.82 0 3.08 3.08 0 0 0 1-.89 4.9 4.9 0 0 0 .65-1.27 9.33 9.33 0 0 0 .38-1.47 13.14 13.14 0 0 0 .18-1.49c0-.48 0-.93 0-1.34s0-.83 0-1.33a12.87 12.87 0 0 0 -.18-1.49 9.33 9.33 0 0 0 -.38-1.47 4.9 4.9 0 0 0 -.65-1.27 3.23 3.23 0 0 0 -1-.9 2.84 2.84 0 0 0 -1.4-.34 2.88 2.88 0 0 0 -1.42.3 3.19 3.19 0 0 0 -1 .9 4.61 4.61 0 0 0 -.65 1.27 8.36 8.36 0 0 0 -.38 1.47 12.87 12.87 0 0 0 -.18 1.49c.01.54 0 .98 0 1.37z" fill="#fff"/><path d="m70.89 419.44h464.89" fill="none" stroke="#fff" stroke-miterlimit="10"/><path d="m70.89 419.44v-7.09" fill="none" stroke="#fff" stroke-miterlimit="10"/><path d="m148.37 419.44v-7.09" fill="none" stroke="#fff" stroke-miterlimit="10"/><path d="m225.85 419.44v-7.09" fill="none" stroke="#fff" stroke-miterlimit="10"/><path d="m303.34 419.44v-7.09" fill="none" stroke="#fff" stroke-miterlimit="10"/><path d="m380.82 419.44v-7.09" fill="none" stroke="#fff" stroke-miterlimit="10"/><path d="m458.3 419.44v-7.09" fill="none" stroke="#fff" stroke-miterlimit="10"/><path d="m535.78 419.44v-7.09" fill="none" stroke="#fff" stroke-miterlimit="10"/><path d="m70.89 419.44v-283.77" fill="none" stroke="#fff" stroke-miterlimit="10"/><path d="m70.89 277.55h11.62" fill="none" stroke="#fff" stroke-miterlimit="10"/><path d="m70.89 355.12h57.34v34.05h-57.34z" fill="#585a5c" stroke="#000" stroke-miterlimit="10" stroke-width=".5"/><path d="m70.89 317.28h2.32v34.05h-2.32z" fill="#6497b1" stroke="#fff" stroke-miterlimit="10" stroke-width=".5"/><path d="m70.89 279.45h65.86v34.05h-65.86z" fill="#245b96" stroke="#fff" stroke-miterlimit="10" stroke-width=".5"/><path d="m70.89 241.61h202.23v34.05h-202.23z" fill="#14396c" stroke="#fff" stroke-miterlimit="10" stroke-width=".5"/><path d="m70.89 203.77h447.07v34.05h-447.07z" fill="#061f4b" stroke="#fff" stroke-miterlimit="10" stroke-width=".5"/><path d="m86.46 296.37c0-.12 0-.27 0-.44s0-.34 0-.51 0-.34 0-.49 0-.27 0-.35h.82v.69a1.74 1.74 0 0 0 0 .42 2.19 2.19 0 0 1 .82-.9 2.35 2.35 0 0 1 1.32-.38 2.61 2.61 0 0 1 1.2.24 2 2 0 0 1 .72.61 2.27 2.27 0 0 1 .37.87 5.69 5.69 0 0 1 .1 1v3.79h-.81v-3.75a4.74 4.74 0 0 0 -.06-.75 2.19 2.19 0 0 0 -.24-.65 1.22 1.22 0 0 0 -.47-.46 1.58 1.58 0 0 0 -.8-.17 2.36 2.36 0 0 0 -.84.15 1.78 1.78 0 0 0 -.69.49 2.12 2.12 0 0 0 -.46.81 3.32 3.32 0 0 0 -.17 1.15v3.18h-.82z" fill="#fff"/><path d="m99.52 299.74a2.67 2.67 0 0 1 -1.17 1.05 3.72 3.72 0 0 1 -1.54.32 3.38 3.38 0 0 1 -1.3-.25 3 3 0 0 1 -1-.7 3.07 3.07 0 0 1 -.64-1.06 3.9 3.9 0 0 1 -.23-1.35 3.83 3.83 0 0 1 .23-1.33 3.32 3.32 0 0 1 .65-1.05 3 3 0 0 1 1-.7 3.05 3.05 0 0 1 1.26-.26 3 3 0 0 1 1.27.26 2.84 2.84 0 0 1 .92.67 2.73 2.73 0 0 1 .56 1 3.17 3.17 0 0 1 .19 1.09v.57h-5.27a2.8 2.8 0 0 0 .11.66 2.31 2.31 0 0 0 .37.8 2.56 2.56 0 0 0 .72.66 2.32 2.32 0 0 0 1.18.27 2.6 2.6 0 0 0 1.2-.3 2.19 2.19 0 0 0 .9-.83zm-.62-2.52a2 2 0 0 0 -.17-.8 2.13 2.13 0 0 0 -.46-.65 2.17 2.17 0 0 0 -.69-.45 2.22 2.22 0 0 0 -.85-.16 2.06 2.06 0 0 0 -1.1.27 2.55 2.55 0 0 0 -.7.63 3 3 0 0 0 -.37.7 2.1 2.1 0 0 0 -.11.46z" fill="#fff"/><path d="m106.82 299.15v.43s0 .35 0 .52 0 .34 0 .49 0 .27 0 .35h-.81c0-.24 0-.47 0-.69s0-.36 0-.42a2.29 2.29 0 0 1 -.81.9 2.36 2.36 0 0 1 -1.33.38 2.67 2.67 0 0 1 -1.2-.24 1.91 1.91 0 0 1 -.73-.61 2.47 2.47 0 0 1 -.36-.88 5.66 5.66 0 0 1 -.09-1v-3.79h.81v3.74a3.67 3.67 0 0 0 .07.75 1.73 1.73 0 0 0 .24.66 1.22 1.22 0 0 0 .47.46 1.65 1.65 0 0 0 .79.17 2.22 2.22 0 0 0 .85-.16 1.66 1.66 0 0 0 .69-.48 2.12 2.12 0 0 0 .46-.81 3.62 3.62 0 0 0 .17-1.15v-3.18h.81z" fill="#fff"/><path d="m112.12 295.32h-1.79v4.15a.93.93 0 0 0 .23.66.9.9 0 0 0 .64.23 2 2 0 0 0 .47-.06 2.18 2.18 0 0 0 .45-.16l.07.75-.53.15a2.76 2.76 0 0 1 -.53.07 2 2 0 0 1 -.74-.13 1.27 1.27 0 0 1 -.5-.36 1.34 1.34 0 0 1 -.28-.51 2.2 2.2 0 0 1 -.09-.64v-4.15h-1.36v-.74h1.36v-1.83h.81v1.83h1.79z" fill="#fff"/><path d="m113.57 296.37c0-.12 0-.27 0-.44s0-.34 0-.51 0-.34 0-.49 0-.27 0-.35h.82v.69a1.74 1.74 0 0 0 0 .42 2.85 2.85 0 0 1 .8-.92 1.93 1.93 0 0 1 1.19-.36h.24l.23.05-.09.81a1.18 1.18 0 0 0 -.31-.05 2.36 2.36 0 0 0 -.92.17 1.68 1.68 0 0 0 -.63.48 2.06 2.06 0 0 0 -.38.7 3.17 3.17 0 0 0 -.12.88v3.47h-.81z" fill="#fff"/><path d="m123 298.27v.84.69s0 .41 0 .59a5.14 5.14 0 0 0 .06.55h-.76a5.52 5.52 0 0 1 -.08-1 2.39 2.39 0 0 1 -.87.91 2.74 2.74 0 0 1 -1.32.29 3 3 0 0 1 -.8-.11 2.11 2.11 0 0 1 -.71-.33 1.69 1.69 0 0 1 -.51-.58 1.8 1.8 0 0 1 -.19-.87 1.75 1.75 0 0 1 .36-1.16 2.4 2.4 0 0 1 .9-.64 4.31 4.31 0 0 1 1.14-.27 8.68 8.68 0 0 1 1.07-.07h.94v-.38a1.35 1.35 0 0 0 -.5-1.19 2.16 2.16 0 0 0 -1.26-.35 2.81 2.81 0 0 0 -1.91.71l-.47-.56a2.83 2.83 0 0 1 1.11-.67 4 4 0 0 1 1.27-.23 2.78 2.78 0 0 1 1.82.55 2.11 2.11 0 0 1 .68 1.75zm-1.63-.52a8.14 8.14 0 0 0 -1 .06 3.48 3.48 0 0 0 -.86.24 1.61 1.61 0 0 0 -.62.44 1 1 0 0 0 -.23.69 1 1 0 0 0 .13.51 1.11 1.11 0 0 0 .33.38 1.88 1.88 0 0 0 .45.22 1.79 1.79 0 0 0 .51.07 2.53 2.53 0 0 0 1.07-.19 1.84 1.84 0 0 0 .67-.5 1.69 1.69 0 0 0 .35-.71 3.48 3.48 0 0 0 .09-.79v-.42z" fill="#fff"/><path d="m125.25 290.53h.81v10.41h-.81z" fill="#fff"/><path d="m164 261a1.79 1.79 0 0 0 .76.78 2.23 2.23 0 0 0 1.06.27 1.81 1.81 0 0 0 .51-.08 1.67 1.67 0 0 0 .46-.24 1.29 1.29 0 0 0 .34-.36 1 1 0 0 0 .12-.49.78.78 0 0 0 -.27-.66 2.24 2.24 0 0 0 -.69-.35 9 9 0 0 0 -.89-.21 3.64 3.64 0 0 1 -.9-.28 1.91 1.91 0 0 1 -.68-.51 1.44 1.44 0 0 1 -.28-.94 1.64 1.64 0 0 1 .69-1.38 1.89 1.89 0 0 1 .68-.34 2.87 2.87 0 0 1 .77-.11 2.94 2.94 0 0 1 1.34.29 2 2 0 0 1 .87.91l-.73.44a1.68 1.68 0 0 0 -.58-.67 1.62 1.62 0 0 0 -.9-.23 1.9 1.9 0 0 0 -.45.07 1.87 1.87 0 0 0 -.43.19 1.39 1.39 0 0 0 -.32.32.83.83 0 0 0 -.12.44.76.76 0 0 0 .27.64 2.45 2.45 0 0 0 .69.32 9.09 9.09 0 0 0 .89.2 3.25 3.25 0 0 1 .9.27 1.85 1.85 0 0 1 .68.53 1.57 1.57 0 0 1 .28 1 1.79 1.79 0 0 1 -.19.86 1.68 1.68 0 0 1 -.5.62 2.23 2.23 0 0 1 -.72.37 3 3 0 0 1 -.85.12 3.46 3.46 0 0 1 -1.49-.31 2.35 2.35 0 0 1 -1-1z" fill="#fff"/><path d="m169.42 259.44a3.68 3.68 0 0 1 .24-1.35 3.33 3.33 0 0 1 .68-1.06 3 3 0 0 1 1-.69 3.42 3.42 0 0 1 1.33-.25 3.34 3.34 0 0 1 1.32.25 3.09 3.09 0 0 1 1.05.69 3.16 3.16 0 0 1 .68 1.06 3.89 3.89 0 0 1 0 2.69 3.16 3.16 0 0 1 -.68 1.06 3.27 3.27 0 0 1 -1.05.7 3.52 3.52 0 0 1 -1.32.24 3.61 3.61 0 0 1 -1.33-.24 3.13 3.13 0 0 1 -1-.7 3.33 3.33 0 0 1 -.68-1.06 3.67 3.67 0 0 1 -.24-1.34zm.81 0a3.1 3.1 0 0 0 .17 1 2.29 2.29 0 0 0 .5.82 2.23 2.23 0 0 0 .78.56 2.63 2.63 0 0 0 2.06 0 2.36 2.36 0 0 0 .79-.56 2.42 2.42 0 0 0 .49-.82 3.12 3.12 0 0 0 0-2 2.42 2.42 0 0 0 -.49-.82 2.36 2.36 0 0 0 -.79-.56 2.63 2.63 0 0 0 -2.06 0 2.23 2.23 0 0 0 -.78.56 2.29 2.29 0 0 0 -.5.82 3.12 3.12 0 0 0 -.17 1z" fill="#fff"/><path d="m177.82 258c0-.11 0-.26 0-.43s0-.34 0-.52 0-.33 0-.48 0-.27 0-.36h.81v.69a2.32 2.32 0 0 0 0 .43 2.16 2.16 0 0 1 .81-.9 2.28 2.28 0 0 1 1.33-.38 2.18 2.18 0 0 1 1.14.32 1.85 1.85 0 0 1 .74 1.06 2.07 2.07 0 0 1 .89-1.05 2.48 2.48 0 0 1 1.24-.33 2.71 2.71 0 0 1 1.19.23 1.94 1.94 0 0 1 .73.62 2.42 2.42 0 0 1 .36.87 4.9 4.9 0 0 1 .1 1v3.79h-.81v-3.75a3.67 3.67 0 0 0 -.07-.75 1.93 1.93 0 0 0 -.23-.65 1.35 1.35 0 0 0 -.48-.47 1.65 1.65 0 0 0 -.79-.17 1.79 1.79 0 0 0 -.94.22 1.64 1.64 0 0 0 -.57.54 2.29 2.29 0 0 0 -.3.72 3.17 3.17 0 0 0 -.09.73v3.58h-.81v-3.83a2.79 2.79 0 0 0 -.32-1.42 1.06 1.06 0 0 0 -1-.54 2.42 2.42 0 0 0 -.85.16 2 2 0 0 0 -.69.48 2.4 2.4 0 0 0 -.46.82 3.57 3.57 0 0 0 -.17 1.15v3.18h-.81z" fill="#fff"/><path d="m194.89 261.42a2.85 2.85 0 0 1 -1.17 1.05 3.72 3.72 0 0 1 -1.54.31 3.38 3.38 0 0 1 -1.3-.24 3.1 3.1 0 0 1 -1-.7 3.07 3.07 0 0 1 -.64-1.06 3.92 3.92 0 0 1 -.22-1.36 3.52 3.52 0 0 1 .23-1.32 3 3 0 0 1 2.9-2 2.92 2.92 0 0 1 1.26.25 2.8 2.8 0 0 1 .93.68 3.07 3.07 0 0 1 .56 1 3.36 3.36 0 0 1 .19 1.08v.58h-5.26a2.71 2.71 0 0 0 .1.67 2.37 2.37 0 0 0 .37.79 2.45 2.45 0 0 0 .73.66 2.16 2.16 0 0 0 1.17.28 2.61 2.61 0 0 0 1.21-.3 2.23 2.23 0 0 0 .89-.83zm-.63-2.52a1.8 1.8 0 0 0 -.17-.8 1.88 1.88 0 0 0 -.46-.65 2.06 2.06 0 0 0 -.69-.45 2.17 2.17 0 0 0 -.84-.17 2 2 0 0 0 -1.11.28 2.52 2.52 0 0 0 -.7.63 2.46 2.46 0 0 0 -.36.7 2 2 0 0 0 -.11.46z" fill="#fff"/><path d="m196 256.25h.9l1.51 5.33 1.75-5.33h.84l1.86 5.33 1.48-5.33h.81l-1.84 6.37h-.84l-1.87-5.21-1.74 5.21h-.86z" fill="#fff"/><path d="m206.43 252.2h.81v5.17a2.16 2.16 0 0 1 .81-.9 2.28 2.28 0 0 1 1.33-.38 2.71 2.71 0 0 1 1.19.23 1.94 1.94 0 0 1 .73.62 2.42 2.42 0 0 1 .36.87 4.9 4.9 0 0 1 .1 1v3.79h-.76v-3.75a3.67 3.67 0 0 0 -.07-.75 1.93 1.93 0 0 0 -.23-.65 1.27 1.27 0 0 0 -.48-.47 1.62 1.62 0 0 0 -.79-.17 2.42 2.42 0 0 0 -.85.16 2 2 0 0 0 -.69.48 2.4 2.4 0 0 0 -.46.82 3.57 3.57 0 0 0 -.17 1.15v3.18h-.81z" fill="#fff"/><path d="m218.83 260v.84.68s0 .41 0 .6a5.43 5.43 0 0 0 .06.55h-.76a5.56 5.56 0 0 1 -.08-1 2.25 2.25 0 0 1 -.87.91 2.63 2.63 0 0 1 -1.32.29 3 3 0 0 1 -.8-.1 2.11 2.11 0 0 1 -.71-.33 1.72 1.72 0 0 1 -.51-.59 1.76 1.76 0 0 1 -.19-.86 1.73 1.73 0 0 1 .36-1.16 2.29 2.29 0 0 1 .9-.64 4.33 4.33 0 0 1 1.14-.28c.4 0 .76-.06 1.07-.06h.94v-.39a1.33 1.33 0 0 0 -.5-1.18 2.09 2.09 0 0 0 -1.26-.36 2.82 2.82 0 0 0 -1.91.72l-.39-.64a2.93 2.93 0 0 1 1.11-.66 3.72 3.72 0 0 1 1.27-.23 2.84 2.84 0 0 1 1.82.54 2.14 2.14 0 0 1 .68 1.76zm-1.63-.53a8.12 8.12 0 0 0 -1 .07 4 4 0 0 0 -.86.23 1.53 1.53 0 0 0 -.62.45 1 1 0 0 0 -.23.68 1 1 0 0 0 .13.52 1.07 1.07 0 0 0 .33.37 1.57 1.57 0 0 0 .45.22 1.81 1.81 0 0 0 .51.08 2.7 2.7 0 0 0 1.07-.19 1.76 1.76 0 0 0 .67-.51 1.65 1.65 0 0 0 .35-.7 3.48 3.48 0 0 0 .09-.79v-.43z" fill="#fff"/><path d="m224.05 257h-1.78v4.14a.86.86 0 0 0 .23.66.82.82 0 0 0 .63.24 1.89 1.89 0 0 0 .47-.06 3 3 0 0 0 .45-.16l.07.74a3.07 3.07 0 0 1 -.53.15 2.07 2.07 0 0 1 -.52.07 1.9 1.9 0 0 1 -.75-.13 1.32 1.32 0 0 1 -.5-.35 1.38 1.38 0 0 1 -.28-.52 2.15 2.15 0 0 1 -.09-.64v-4.14h-1.35v-.75h1.35v-1.83h.82v1.83h1.78z" fill="#fff"/><path d="m228.85 256.25h.81v1.12a2.17 2.17 0 0 1 .47-.57 3.05 3.05 0 0 1 1.32-.64 3.51 3.51 0 0 1 .72-.07 3.37 3.37 0 0 1 1.32.25 3 3 0 0 1 1 .69 3.16 3.16 0 0 1 .68 1.06 3.74 3.74 0 0 1 0 2.69 3.16 3.16 0 0 1 -.68 1.06 3.13 3.13 0 0 1 -1 .7 3.56 3.56 0 0 1 -1.32.24 3.51 3.51 0 0 1 -.72-.07 3.05 3.05 0 0 1 -1.32-.64 2.17 2.17 0 0 1 -.47-.57v4.26h-.81zm.73 3.19a2.5 2.5 0 0 0 .21 1 2.57 2.57 0 0 0 .55.82 2.64 2.64 0 0 0 .83.56 2.5 2.5 0 0 0 1 .21 2.46 2.46 0 0 0 1-.21 2.41 2.41 0 0 0 1.28-1.38 3.12 3.12 0 0 0 0-2 2.41 2.41 0 0 0 -2.31-1.59 2.5 2.5 0 0 0 -1 .21 2.64 2.64 0 0 0 -.83.56 2.57 2.57 0 0 0 -.55.82 2.52 2.52 0 0 0 -.18 1z" fill="#fff"/><path d="m237.3 258c0-.11 0-.26 0-.43s0-.34 0-.52 0-.33 0-.48 0-.27 0-.36h.81v.69a1.85 1.85 0 0 0 0 .43 2.86 2.86 0 0 1 .8-.92 2 2 0 0 1 1.19-.36h.24l.24.05-.1.81a.85.85 0 0 0 -.31-.06 2.11 2.11 0 0 0 -.91.18 1.69 1.69 0 0 0 -.64.47 1.93 1.93 0 0 0 -.37.71 3.07 3.07 0 0 0 -.12.88v3.47h-.82z" fill="#fff"/><path d="m241.22 259.44a3.68 3.68 0 0 1 .24-1.35 3.16 3.16 0 0 1 .68-1.06 3 3 0 0 1 1-.69 3.42 3.42 0 0 1 1.33-.25 3.34 3.34 0 0 1 1.32.25 3 3 0 0 1 1 .69 3 3 0 0 1 .69 1.06 3.89 3.89 0 0 1 0 2.69 3 3 0 0 1 -.69 1.06 3.13 3.13 0 0 1 -1 .7 3.52 3.52 0 0 1 -1.32.24 3.61 3.61 0 0 1 -1.33-.24 3.13 3.13 0 0 1 -1-.7 3.16 3.16 0 0 1 -.68-1.06 3.67 3.67 0 0 1 -.24-1.34zm.81 0a3.1 3.1 0 0 0 .17 1 2.42 2.42 0 0 0 .49.82 2.36 2.36 0 0 0 .79.56 2.63 2.63 0 0 0 2.06 0 2.36 2.36 0 0 0 .79-.56 2.42 2.42 0 0 0 .49-.82 3.12 3.12 0 0 0 0-2 2.42 2.42 0 0 0 -.49-.82 2.36 2.36 0 0 0 -.79-.56 2.63 2.63 0 0 0 -2.06 0 2.36 2.36 0 0 0 -.79.56 2.42 2.42 0 0 0 -.49.82 3.12 3.12 0 0 0 -.2 1z" fill="#fff"/><path d="m254.91 260.83v.43s0 .34 0 .52 0 .33 0 .49 0 .27 0 .35h-.81c0-.24 0-.47 0-.69s0-.36 0-.43h-.05a2.16 2.16 0 0 1 -.81.9 2.28 2.28 0 0 1 -1.33.38 2.82 2.82 0 0 1 -1.2-.23 2 2 0 0 1 -.73-.61 2.55 2.55 0 0 1 -.36-.88 5.69 5.69 0 0 1 -.09-1v-3.79h.81v3.73a3.67 3.67 0 0 0 .07.75 1.87 1.87 0 0 0 .24.66 1.3 1.3 0 0 0 .47.46 1.65 1.65 0 0 0 .79.17 2.22 2.22 0 0 0 .85-.16 1.76 1.76 0 0 0 .69-.48 2.45 2.45 0 0 0 .46-.81 3.62 3.62 0 0 0 .17-1.15v-3.19h.81z" fill="#fff"/><path d="m262.62 261.5a2.21 2.21 0 0 1 -.48.57 2.53 2.53 0 0 1 -.62.4 2.82 2.82 0 0 1 -.69.24 3.65 3.65 0 0 1 -.72.07 3.61 3.61 0 0 1 -1.33-.24 3 3 0 0 1 -1-.7 3.16 3.16 0 0 1 -.68-1.06 3.89 3.89 0 0 1 0-2.69 3.16 3.16 0 0 1 .68-1.06 2.87 2.87 0 0 1 1-.69 3.42 3.42 0 0 1 1.33-.25 3.65 3.65 0 0 1 .72.07 2.82 2.82 0 0 1 .69.24 2.53 2.53 0 0 1 .62.4 2.21 2.21 0 0 1 .48.57v-5.17h.82v10.42h-.82zm.08-2.06a2.51 2.51 0 0 0 -.2-1 2.57 2.57 0 0 0 -.55-.82 2.76 2.76 0 0 0 -.83-.56 2.53 2.53 0 0 0 -1-.21 2.46 2.46 0 0 0 -1 .21 2.36 2.36 0 0 0 -.79.56 2.42 2.42 0 0 0 -.49.82 3.12 3.12 0 0 0 0 2 2.42 2.42 0 0 0 .49.82 2.36 2.36 0 0 0 .79.56 2.46 2.46 0 0 0 1 .21 2.53 2.53 0 0 0 1-.21 2.76 2.76 0 0 0 .83-.56 2.57 2.57 0 0 0 .55-.82 2.5 2.5 0 0 0 .2-1z" fill="#fff"/><path d="m444.66 218.1h.93l2.08 5.47 2-5.47h.83l-2.46 6.37h-.84z" fill="#fff"/><path d="m457.35 223.27a2.81 2.81 0 0 1 -1.18 1 3.64 3.64 0 0 1 -1.53.31 3.17 3.17 0 0 1 -1.3-.25 2.84 2.84 0 0 1 -1-.69 3.07 3.07 0 0 1 -.64-1.06 3.92 3.92 0 0 1 -.22-1.36 3.52 3.52 0 0 1 .23-1.32 3.13 3.13 0 0 1 1.64-1.76 3 3 0 0 1 1.26-.25 3 3 0 0 1 1.26.25 2.66 2.66 0 0 1 .92.68 2.91 2.91 0 0 1 .57 1 3.36 3.36 0 0 1 .19 1.08v.58h-5.26a2.71 2.71 0 0 0 .1.67 2.37 2.37 0 0 0 .37.79 2.23 2.23 0 0 0 .73.66 2.16 2.16 0 0 0 1.17.28 2.64 2.64 0 0 0 1.21-.3 2.3 2.3 0 0 0 .89-.83zm-.63-2.52a1.8 1.8 0 0 0 -.17-.8 1.88 1.88 0 0 0 -.46-.65 2.06 2.06 0 0 0 -.69-.45 2.22 2.22 0 0 0 -.85-.17 2 2 0 0 0 -1.1.28 2.39 2.39 0 0 0 -.7.63 2.46 2.46 0 0 0 -.36.7 1.56 1.56 0 0 0 -.11.46z" fill="#fff"/><path d="m459.35 219.89c0-.11 0-.26 0-.43s0-.34 0-.52 0-.33 0-.49 0-.26 0-.35h.82v.69a1.85 1.85 0 0 0 0 .43 2.75 2.75 0 0 1 .8-.92 1.93 1.93 0 0 1 1.19-.36h.24.24l-.1.81a.87.87 0 0 0 -.31 0 2.19 2.19 0 0 0 -.92.17 1.74 1.74 0 0 0 -.63.47 2 2 0 0 0 -.37.71 2.75 2.75 0 0 0 -.13.88v3.47h-.81z" fill="#fff"/><path d="m465.62 226.44a2.28 2.28 0 0 1 -.63 1 1.61 1.61 0 0 1 -1.09.36 2.69 2.69 0 0 1 -.4 0 2.59 2.59 0 0 1 -.4-.09l.08-.77.36.1a1.57 1.57 0 0 0 .37.05.71.71 0 0 0 .39-.1.86.86 0 0 0 .29-.25 1.85 1.85 0 0 0 .21-.33c.06-.13.11-.25.16-.38l.57-1.47-2.53-6.46h.91l2.07 5.36 2-5.36h.87z" fill="#fff"/><path d="m473.48 218.1h.81v1.12a2.17 2.17 0 0 1 .47-.57 2.73 2.73 0 0 1 .62-.4 3.21 3.21 0 0 1 .7-.24 3.51 3.51 0 0 1 .72-.07 3.37 3.37 0 0 1 1.32.25 3 3 0 0 1 1 .69 3.16 3.16 0 0 1 .68 1.06 3.74 3.74 0 0 1 0 2.69 3.16 3.16 0 0 1 -.68 1.06 3 3 0 0 1 -1 .69 3.37 3.37 0 0 1 -1.32.25 3.51 3.51 0 0 1 -.72-.07 3.05 3.05 0 0 1 -1.32-.64 2.17 2.17 0 0 1 -.47-.57v4.26h-.81zm.73 3.19a2.52 2.52 0 0 0 .76 1.83 2.53 2.53 0 0 0 .83.56 2.63 2.63 0 0 0 2.06 0 2.43 2.43 0 0 0 .78-.56 2.35 2.35 0 0 0 .5-.82 3.12 3.12 0 0 0 0-2 2.41 2.41 0 0 0 -1.28-1.38 2.63 2.63 0 0 0 -2.06 0 2.53 2.53 0 0 0 -.83.56 2.77 2.77 0 0 0 -.56.82 2.69 2.69 0 0 0 -.2.99z" fill="#fff"/><path d="m481.93 219.89c0-.11 0-.26 0-.43s0-.34 0-.52 0-.33 0-.49 0-.26 0-.35h.81v.69a1.85 1.85 0 0 0 0 .43 2.86 2.86 0 0 1 .8-.92 2 2 0 0 1 1.19-.36h.24.24l-.1.81a.84.84 0 0 0 -.31 0 2.11 2.11 0 0 0 -.91.17 1.69 1.69 0 0 0 -.64.47 2 2 0 0 0 -.37.71 3.07 3.07 0 0 0 -.12.88v3.47h-.82z" fill="#fff"/><path d="m485.85 221.29a3.68 3.68 0 0 1 .24-1.35 3.16 3.16 0 0 1 .68-1.06 3 3 0 0 1 1-.69 3.42 3.42 0 0 1 1.33-.25 3.34 3.34 0 0 1 1.32.25 3 3 0 0 1 1 .69 3 3 0 0 1 .69 1.06 3.89 3.89 0 0 1 0 2.69 3 3 0 0 1 -.69 1.06 3 3 0 0 1 -1 .69 3.34 3.34 0 0 1 -1.32.25 3.42 3.42 0 0 1 -1.33-.25 3 3 0 0 1 -1-.69 3.16 3.16 0 0 1 -.68-1.06 3.67 3.67 0 0 1 -.24-1.34zm.81 0a3.1 3.1 0 0 0 .17 1 2.41 2.41 0 0 0 1.28 1.38 2.63 2.63 0 0 0 2.06 0 2.36 2.36 0 0 0 .79-.56 2.33 2.33 0 0 0 .49-.82 3.12 3.12 0 0 0 0-2 2.42 2.42 0 0 0 -.49-.82 2.36 2.36 0 0 0 -.79-.56 2.63 2.63 0 0 0 -2.06 0 2.23 2.23 0 0 0 -.78.56 2.29 2.29 0 0 0 -.5.82 3.12 3.12 0 0 0 -.17 1z" fill="#fff"/><path d="m499.54 222.68v.43s0 .34 0 .52 0 .33 0 .49 0 .26 0 .35h-.81c0-.24 0-.47 0-.69s0-.36 0-.43h-.05a2.16 2.16 0 0 1 -.81.9 2.28 2.28 0 0 1 -1.33.38 2.74 2.74 0 0 1 -1.19-.23 2 2 0 0 1 -.74-.61 2.36 2.36 0 0 1 -.35-.88 4.9 4.9 0 0 1 -.1-1v-3.81h.84v3.75a4.54 4.54 0 0 0 .07.75 2.08 2.08 0 0 0 .24.66 1.3 1.3 0 0 0 .47.46 1.68 1.68 0 0 0 .79.17 2.22 2.22 0 0 0 .85-.16 1.87 1.87 0 0 0 .69-.48 2.29 2.29 0 0 0 .46-.81 3.36 3.36 0 0 0 .17-1.15v-3.19h.81z" fill="#fff"/><path d="m507.25 223.35a2.21 2.21 0 0 1 -.48.57 2.67 2.67 0 0 1 -.61.4 3.05 3.05 0 0 1 -.7.24 3.65 3.65 0 0 1 -.72.07 3.42 3.42 0 0 1 -1.33-.25 3 3 0 0 1 -1-.69 3.16 3.16 0 0 1 -.68-1.06 3.89 3.89 0 0 1 0-2.69 3.16 3.16 0 0 1 .68-1.06 3 3 0 0 1 1-.69 3.42 3.42 0 0 1 1.33-.25 3.14 3.14 0 0 1 1.42.31 2.67 2.67 0 0 1 .61.4 2.21 2.21 0 0 1 .48.57v-5.17h.82v10.42h-.82zm.08-2.06a2.51 2.51 0 0 0 -.2-1 2.57 2.57 0 0 0 -.55-.82 2.64 2.64 0 0 0 -.83-.56 2.53 2.53 0 0 0 -1-.21 2.46 2.46 0 0 0 -1 .21 2.36 2.36 0 0 0 -.79.56 2.42 2.42 0 0 0 -.49.82 3.12 3.12 0 0 0 0 2 2.33 2.33 0 0 0 .49.82 2.36 2.36 0 0 0 .79.56 2.46 2.46 0 0 0 1 .21 2.53 2.53 0 0 0 1-.21 2.64 2.64 0 0 0 .83-.56 2.46 2.46 0 0 0 .55-.82 2.5 2.5 0 0 0 .2-1z" fill="#fff"/><path d="m534.5 214.79h-4v3.1a2.26 2.26 0 0 1 .68-.22 5.81 5.81 0 0 1 .72 0 2.89 2.89 0 0 1 1.24.25 2.73 2.73 0 0 1 .94.7 3.06 3.06 0 0 1 .6 1 3.69 3.69 0 0 1 .21 1.25 3.18 3.18 0 0 1 -.28 1.38 2.87 2.87 0 0 1 -.72 1 3.08 3.08 0 0 1 -1 .57 3.16 3.16 0 0 1 -1.07.2 3.34 3.34 0 0 1 -1.77-.44 3 3 0 0 1 -1.1-1.22l.84-.42a2 2 0 0 0 .33.51 2.46 2.46 0 0 0 .48.43 2.42 2.42 0 0 0 .58.29 2 2 0 0 0 .64.1 1.89 1.89 0 0 0 .7-.14 2.37 2.37 0 0 0 .71-.43 2.62 2.62 0 0 0 .54-.74 2.31 2.31 0 0 0 .22-1 2.53 2.53 0 0 0 -.19-1 2.29 2.29 0 0 0 -.51-.8 2.3 2.3 0 0 0 -1.72-.75 2.69 2.69 0 0 0 -1 .19 4 4 0 0 0 -.89.47l.08-5h4.73z" fill="#fff"/><path d="m541.45 214.79-3.82 9h-.91l3.89-9h-4.61v-.74h5.45z" fill="#fff"/><path d="m543.6 223.22a.64.64 0 0 1 .19-.47.66.66 0 0 1 .46-.19.65.65 0 0 1 .65.66.63.63 0 0 1 -.19.47.6.6 0 0 1 -.46.19.62.62 0 0 1 -.46-.19.63.63 0 0 1 -.19-.47z" fill="#fff"/><path d="m552 214.79-3.82 9h-.91l3.88-9h-4.6v-.74h5.45z" fill="#fff"/><path d="m553.57 216.25a2.2 2.2 0 0 1 .19-.92 2.35 2.35 0 0 1 .5-.75 2.44 2.44 0 0 1 .74-.51 2.25 2.25 0 0 1 1.81 0 2.57 2.57 0 0 1 .74.51 2.52 2.52 0 0 1 .5.75 2.36 2.36 0 0 1 .18.92 2.41 2.41 0 0 1 -.18.93 2.52 2.52 0 0 1 -.5.75 2.57 2.57 0 0 1 -.74.51 2.37 2.37 0 0 1 -1.81 0 2.44 2.44 0 0 1 -.74-.51 2.35 2.35 0 0 1 -.5-.75 2.24 2.24 0 0 1 -.19-.93zm.73 0a1.66 1.66 0 0 0 .13.64 1.7 1.7 0 0 0 .35.52 1.54 1.54 0 0 0 .51.35 1.58 1.58 0 0 0 .61.12 1.63 1.63 0 0 0 .62-.12 1.78 1.78 0 0 0 .51-.35 1.67 1.67 0 0 0 .34-.52 1.5 1.5 0 0 0 .13-.64 1.53 1.53 0 0 0 -.13-.64 1.63 1.63 0 0 0 -.34-.51 1.78 1.78 0 0 0 -.51-.35 1.63 1.63 0 0 0 -.62-.12 1.58 1.58 0 0 0 -.61.12 1.54 1.54 0 0 0 -.51.35 1.65 1.65 0 0 0 -.35.51 1.7 1.7 0 0 0 -.13.64zm7.08-2.67.62.39-6.19 10.3-.61-.39zm-2.46 8a2.17 2.17 0 0 1 .19-.92 2.45 2.45 0 0 1 .5-.76 2.57 2.57 0 0 1 .74-.51 2.37 2.37 0 0 1 1.81 0 2.57 2.57 0 0 1 .74.51 2.45 2.45 0 0 1 .5.76 2.44 2.44 0 0 1 0 1.84 2.29 2.29 0 0 1 -.5.75 2.23 2.23 0 0 1 -.74.51 2.25 2.25 0 0 1 -1.81 0 2.23 2.23 0 0 1 -.74-.51 2.29 2.29 0 0 1 -.5-.75 2.17 2.17 0 0 1 -.19-.9zm.74 0a1.53 1.53 0 0 0 .13.64 1.39 1.39 0 0 0 .34.51 1.41 1.41 0 0 0 .51.35 1.64 1.64 0 0 0 1.23 0 1.6 1.6 0 0 0 .51-.35 1.64 1.64 0 0 0 .34-1.79 1.67 1.67 0 0 0 -.34-.52 1.57 1.57 0 0 0 -.51-.34 1.52 1.52 0 0 0 -1.23 0 1.39 1.39 0 0 0 -.51.34 1.69 1.69 0 0 0 -.47 1.16z" fill="#fff"/><path d="m283.43 261.85 3.57-3.85.49-.53a6 6 0 0 0 .44-.59 4 4 0 0 0 .32-.66 2.25 2.25 0 0 0 .12-.74 1.7 1.7 0 0 0 -.54-1.34 2 2 0 0 0 -1.37-.48 1.88 1.88 0 0 0 -1.26.44 2 2 0 0 0 -.67 1.16l-.94-.1a2.61 2.61 0 0 1 1-1.69 3.21 3.21 0 0 1 1.9-.56 3 3 0 0 1 1.05.18 2.6 2.6 0 0 1 .88.49 2.29 2.29 0 0 1 .61.77 2.39 2.39 0 0 1 .22 1.06 3.3 3.3 0 0 1 -.17 1.05 4.06 4.06 0 0 1 -.45.91 5.42 5.42 0 0 1 -.63.82l-.73.77-3 3.13h5v.74h-5.93z" fill="#fff"/><path d="m292.19 257.36a1.58 1.58 0 0 1 .65-.31 3.17 3.17 0 0 1 .77-.11 2.9 2.9 0 0 1 1.18.24 2.76 2.76 0 0 1 .93.64 2.72 2.72 0 0 1 .61.95 3.25 3.25 0 0 1 0 2.4 2.77 2.77 0 0 1 -.65.95 3 3 0 0 1 -1 .63 3.39 3.39 0 0 1 -1.25.23 3.44 3.44 0 0 1 -1.26-.23 3 3 0 0 1 -1-.63 2.79 2.79 0 0 1 -.66-.95 3.09 3.09 0 0 1 -.24-1.22 3.4 3.4 0 0 1 .08-.73 4.64 4.64 0 0 1 .22-.66c.09-.2.19-.4.29-.58s.19-.36.29-.53l2.61-4.39h1zm1.25.3a2.13 2.13 0 0 0 -.88.18 2.2 2.2 0 0 0 -.71.49 2.29 2.29 0 0 0 -.49.73 2.39 2.39 0 0 0 -.17.89 2.52 2.52 0 0 0 .16.93 2.07 2.07 0 0 0 .46.72 2.15 2.15 0 0 0 .71.47 2.47 2.47 0 0 0 .92.16 2.42 2.42 0 0 0 .91-.16 2.06 2.06 0 0 0 1.17-1.19 2.52 2.52 0 0 0 .17-.93 2.21 2.21 0 0 0 -.18-.89 2.44 2.44 0 0 0 -.48-.73 2.25 2.25 0 0 0 -1.59-.67z" fill="#fff"/><path d="m298.07 262.23a.6.6 0 0 1 .19-.46.63.63 0 0 1 .92 0 .6.6 0 0 1 .19.46.63.63 0 0 1 -.19.47.65.65 0 0 1 -.92 0 .63.63 0 0 1 -.19-.47z" fill="#fff"/><path d="m304 254.22-1.73 1.44-.5-.63 2.37-2h.69v9.75h-.83z" fill="#fff"/><path d="m308 255.26a2.36 2.36 0 0 1 .18-.92 2.56 2.56 0 0 1 .51-.75 2.19 2.19 0 0 1 .73-.51 2.32 2.32 0 0 1 .91-.19 2.28 2.28 0 0 1 .91.19 2.33 2.33 0 0 1 .74.51 2.52 2.52 0 0 1 .5.75 2.36 2.36 0 0 1 .18.92 2.41 2.41 0 0 1 -.18.93 2.52 2.52 0 0 1 -.5.75 2.71 2.71 0 0 1 -.74.51 2.27 2.27 0 0 1 -.91.18 2.31 2.31 0 0 1 -.91-.18 2.52 2.52 0 0 1 -.73-.51 2.56 2.56 0 0 1 -.51-.75 2.41 2.41 0 0 1 -.18-.93zm.73 0a1.66 1.66 0 0 0 .13.64 1.7 1.7 0 0 0 .35.52 1.53 1.53 0 0 0 1.12.47 1.63 1.63 0 0 0 .62-.12 1.78 1.78 0 0 0 .51-.35 1.67 1.67 0 0 0 .34-.52 1.5 1.5 0 0 0 .13-.64 1.56 1.56 0 0 0 -.13-.64 1.63 1.63 0 0 0 -.34-.51 1.78 1.78 0 0 0 -.51-.35 1.63 1.63 0 0 0 -.62-.12 1.53 1.53 0 0 0 -1.12.47 1.65 1.65 0 0 0 -.35.51 1.74 1.74 0 0 0 -.09.64zm7.08-2.67.62.39-6.19 10.3-.61-.39zm-2.46 8a2.17 2.17 0 0 1 .19-.92 2.45 2.45 0 0 1 .5-.76 2.36 2.36 0 0 1 .74-.5 2.25 2.25 0 0 1 1.81 0 2.36 2.36 0 0 1 .74.5 2.45 2.45 0 0 1 .5.76 2.44 2.44 0 0 1 0 1.84 2.29 2.29 0 0 1 -.5.75 2.23 2.23 0 0 1 -.74.51 2.25 2.25 0 0 1 -1.81 0 2.23 2.23 0 0 1 -.74-.51 2.29 2.29 0 0 1 -.5-.75 2.17 2.17 0 0 1 -.15-.9zm.73 0a1.64 1.64 0 0 0 .48 1.16 1.52 1.52 0 0 0 .51.34 1.58 1.58 0 0 0 .61.12 1.63 1.63 0 0 0 .62-.12 1.75 1.75 0 0 0 .51-.34 1.67 1.67 0 0 0 .34-.52 1.64 1.64 0 0 0 0-1.28 1.67 1.67 0 0 0 -.34-.52 1.57 1.57 0 0 0 -.51-.34 1.47 1.47 0 0 0 -.62-.13 1.42 1.42 0 0 0 -.61.13 1.39 1.39 0 0 0 -.51.34 1.64 1.64 0 0 0 -.48 1.16z" fill="#fff"/><path d="m146.46 293.56a2.63 2.63 0 0 1 .2-1 2.31 2.31 0 0 1 .56-.8 2.44 2.44 0 0 1 .83-.52 3 3 0 0 1 1-.19 2.9 2.9 0 0 1 1 .19 2.48 2.48 0 0 1 .84.52 2.28 2.28 0 0 1 .55.8 2.46 2.46 0 0 1 .21 1 2.3 2.3 0 0 1 -.11.68 2.46 2.46 0 0 1 -.31.63 2.15 2.15 0 0 1 -.48.52 1.88 1.88 0 0 1 -.63.32 2.28 2.28 0 0 1 1.39.92 2.65 2.65 0 0 1 .35.74 3 3 0 0 1 .13.85 3 3 0 0 1 -.23 1.19 2.59 2.59 0 0 1 -.62.9 2.91 2.91 0 0 1 -.94.58 3.25 3.25 0 0 1 -1.18.21 3.22 3.22 0 0 1 -1.18-.21 2.91 2.91 0 0 1 -.94-.58 2.46 2.46 0 0 1 -.62-.9 3 3 0 0 1 -.23-1.19 3 3 0 0 1 .12-.85 2.68 2.68 0 0 1 .36-.74 2.17 2.17 0 0 1 .59-.58 2.23 2.23 0 0 1 .8-.34 1.92 1.92 0 0 1 -.64-.32 2.15 2.15 0 0 1 -.48-.52 2.43 2.43 0 0 1 -.3-.63 2.3 2.3 0 0 1 -.04-.68zm.56 4.67a2.43 2.43 0 0 0 .14.82 2 2 0 0 0 1.08 1.14 2.21 2.21 0 0 0 1.7 0 1.92 1.92 0 0 0 .65-.46 2 2 0 0 0 .42-.68 2.21 2.21 0 0 0 .15-.82 2.26 2.26 0 0 0 -.16-.88 2.23 2.23 0 0 0 -.44-.67 2 2 0 0 0 -.66-.44 2.26 2.26 0 0 0 -1.62 0 1.78 1.78 0 0 0 -.66.44 2.05 2.05 0 0 0 -.44.67 2.26 2.26 0 0 0 -.18.88zm.33-4.67a1.93 1.93 0 0 0 .13.69 1.85 1.85 0 0 0 .36.57 1.43 1.43 0 0 0 .54.38 1.73 1.73 0 0 0 1.41 0 1.55 1.55 0 0 0 .55-.38 1.65 1.65 0 0 0 .35-.57 1.95 1.95 0 0 0 -.36-2 1.81 1.81 0 0 0 -2.48 0 1.74 1.74 0 0 0 -.5 1.31z" fill="#fff"/><path d="m153.72 300.36a.68.68 0 0 1 .19-.47.66.66 0 0 1 .46-.19.65.65 0 0 1 .65.66.63.63 0 0 1 -.19.47.6.6 0 0 1 -.46.19.62.62 0 0 1 -.46-.19.67.67 0 0 1 -.19-.47z" fill="#fff"/><path d="m162.23 291.93h-4v3.1a2.26 2.26 0 0 1 .68-.22 6.09 6.09 0 0 1 .72-.05 2.94 2.94 0 0 1 1.25.25 2.69 2.69 0 0 1 .93.7 3.06 3.06 0 0 1 .6 1 3.69 3.69 0 0 1 .21 1.25 3.33 3.33 0 0 1 -.27 1.38 2.88 2.88 0 0 1 -.73 1 3.11 3.11 0 0 1 -1 .58 3.16 3.16 0 0 1 -1.07.2 3.28 3.28 0 0 1 -1.77-.45 2.93 2.93 0 0 1 -1.1-1.21l.84-.42a2 2 0 0 0 .33.51 2.46 2.46 0 0 0 .48.43 2.62 2.62 0 0 0 .58.29 2 2 0 0 0 .64.1 2.17 2.17 0 0 0 .71-.14 2.28 2.28 0 0 0 .7-.44 2.14 2.14 0 0 0 .54-.73 2.19 2.19 0 0 0 .22-1 2.7 2.7 0 0 0 -.18-1 2.79 2.79 0 0 0 -.51-.81 2.38 2.38 0 0 0 -1.72-.74 2.62 2.62 0 0 0 -1 .19 3.84 3.84 0 0 0 -.9.47l.08-5h4.73z" fill="#fff"/><path d="m163.69 293.39a2.17 2.17 0 0 1 .19-.92 2.35 2.35 0 0 1 .5-.75 2.23 2.23 0 0 1 .74-.51 2.25 2.25 0 0 1 1.81 0 2.23 2.23 0 0 1 .74.51 2.52 2.52 0 0 1 .5.75 2.32 2.32 0 0 1 .18.92 2.41 2.41 0 0 1 -.18.93 2.52 2.52 0 0 1 -.5.75 2.57 2.57 0 0 1 -.74.51 2.37 2.37 0 0 1 -1.81 0 2.57 2.57 0 0 1 -.74-.51 2.35 2.35 0 0 1 -.5-.75 2.24 2.24 0 0 1 -.19-.93zm.73 0a1.66 1.66 0 0 0 .13.64 1.7 1.7 0 0 0 .35.52 1.39 1.39 0 0 0 .51.34 1.52 1.52 0 0 0 1.23 0 1.57 1.57 0 0 0 .51-.34 1.67 1.67 0 0 0 .34-.52 1.5 1.5 0 0 0 .13-.64 1.64 1.64 0 0 0 -.47-1.15 1.53 1.53 0 0 0 -1.13-.47 1.58 1.58 0 0 0 -.61.12 1.41 1.41 0 0 0 -.51.35 1.54 1.54 0 0 0 -.35.51 1.7 1.7 0 0 0 -.13.64zm7.08-2.67.62.39-6.19 10.3-.61-.39zm-2.46 8a2.41 2.41 0 0 1 .19-.93 2.52 2.52 0 0 1 .5-.75 2.57 2.57 0 0 1 .74-.51 2.37 2.37 0 0 1 1.81 0 2.57 2.57 0 0 1 .74.51 2.52 2.52 0 0 1 .5.75 2.41 2.41 0 0 1 .18.93 2.36 2.36 0 0 1 -.18.92 2.52 2.52 0 0 1 -.5.75 2.23 2.23 0 0 1 -.74.51 2.25 2.25 0 0 1 -1.81 0 2.23 2.23 0 0 1 -.74-.51 2.52 2.52 0 0 1 -.5-.75 2.37 2.37 0 0 1 -.23-.9zm.74 0a1.64 1.64 0 0 0 .47 1.15 1.41 1.41 0 0 0 .51.35 1.64 1.64 0 0 0 1.23 0 1.5 1.5 0 0 0 .51-.35 1.64 1.64 0 0 0 .47-1.15 1.5 1.5 0 0 0 -.13-.64 1.67 1.67 0 0 0 -.34-.52 1.47 1.47 0 0 0 -.51-.34 1.52 1.52 0 0 0 -1.23 0 1.39 1.39 0 0 0 -.51.34 1.67 1.67 0 0 0 -.34.52 1.5 1.5 0 0 0 -.13.66z" fill="#fff"/></svg>