<svg fill="none" height="437" viewBox="0 0 437 437" width="437" xmlns="http://www.w3.org/2000/svg" xmlns:xlink="http://www.w3.org/1999/xlink"><clipPath id="a"><path d="m0 0h436.29v436.29h-436.29z"/></clipPath><g clip-path="url(#a)"><path d="m55 91h323v239h-323z" fill="#fff"/><g fill="#053eff"><path d="m288.45 201.78c-14.46 0-25.49 9.74-27.44 24.57h54.5c-2.32-14.83-12.79-24.57-27.06-24.57z"/><path d="m160.17 226.35h-41.06v41.24h49.49c9.18 0 16.41-10.66 16.41-19.83-.01-17.52-15.67-21.41-24.84-21.41z"/><path d="m176.85 185.1c-.037-4.396-1.812-8.599-4.937-11.69-3.125-3.092-7.347-4.821-11.743-4.81h-41.06v33h41.06c4.396.011 8.618-1.719 11.743-4.81 3.125-3.092 4.9-7.294 4.937-11.69z"/><path d="m339.41.00000052h-242.53c-12.7228-.00131346-25.3213 2.50366948-37.0759 7.37187948-11.7546 4.86822-22.4351 12.00432-31.4315 21.00072s-16.1325 19.6769-21.00072 31.4315c-4.86821 11.7546-7.37319294 24.3531-7.37187948 37.0759v242.53c0 25.694 10.20699948 50.336 28.37549948 68.504 18.1685 18.169 42.8103 28.376 68.5045 28.376h242.53c25.693-.003 50.334-10.21 68.502-28.378s28.375-42.809 28.378-68.502v-242.53c0-25.6942-10.207-50.336-28.376-68.5045-18.168-18.1685-42.81-28.37549948-68.504-28.37549948zm-88.32 143.99999948h74.15v24.7h-74.15zm-82.49 156.5h-82.39v-164.8h82.39c8.98 0 17.715 2.932 24.878 8.35 7.162 5.417 12.36 13.025 14.804 21.666 2.444 8.642 2.001 17.845-1.263 26.211-3.264 8.367-9.169 15.439-16.819 20.143 16.13 5.66 28.08 21 28.08 39-.082 13.128-5.35 25.691-14.656 34.95-9.307 9.26-21.896 14.464-35.024 14.48zm181.48-57.66h-90.64c1.2 18.17 13.25 33 29 33 15.47 0 24.09-9.92 27.15-24.75h33.46c-5.65 28-23.35 49.5-60.61 49.5-37.45 0-62-27.62-62-62 0-34.11 24.47-61.73 61.91-61.73 37.17 0 61.73 27.62 61.73 61.73z"/></g></g></svg>