<svg fill="none" height="437" viewBox="0 0 436 437" width="436" xmlns="http://www.w3.org/2000/svg" xmlns:xlink="http://www.w3.org/1999/xlink"><radialGradient id="a" cx="0" cy="0" gradientTransform="matrix(0 -433.333 403.131 0 115.535 470.276)" gradientUnits="userSpaceOnUse" r="1"><stop offset="0" stop-color="#fd5"/><stop offset=".1" stop-color="#fd5"/><stop offset=".5" stop-color="#ff543e"/><stop offset="1" stop-color="#c837ab"/></radialGradient><radialGradient id="b" cx="0" cy="0" gradientTransform="matrix(38.02828798 189.93341339 -783.09010084 156.78955763 -73.8916 30.8613)" gradientUnits="userSpaceOnUse" r="1"><stop offset="0" stop-color="#3771c8"/><stop offset=".128" stop-color="#3771c8"/><stop offset="1" stop-color="#60f" stop-opacity="0"/></radialGradient><clipPath id="c"><path d="m.199951 0h435.8v436.29h-435.8z"/></clipPath><g clip-path="url(#c)"><path d="m218.108-.636475c-91.293 0-117.993.094182-123.183.524728-18.7349 1.557367-30.3929 4.507277-43.0936 10.830947-9.7879 4.8604-17.5072 10.4945-25.1256 18.3923-13.8746 14.4031-22.28343 32.1228-25.32743 53.1858-1.479958 10.2255-1.910491 12.311-1.997942 64.5417-.033636 17.41 0 40.323 0 71.057 0 91.221.100906 117.895.5381651 123.075 1.5135869 18.231 4.3725969 29.701 10.4269069 42.247 11.5706 24.017 33.669 42.046 59.7028 48.773 9.0143 2.321 18.9703 3.599 31.7517 4.205 5.415.235 60.611.403 115.84.403s110.459-.067 115.739-.336c14.8-.696 23.394-1.85 32.896-4.306 26.202-6.761 47.896-24.52 59.702-48.873 5.937-12.244 8.948-24.151 10.31-41.43.296-3.767.42-63.832.42-123.816 0-59.993-.134-119.9468-.43-123.7141-1.379-17.5582-4.39-29.3646-10.518-41.8436-5.029-10.2154-10.612-17.8441-18.718-25.6444-14.467-13.8178-32.159-22.22692-53.242-25.26765-10.215-1.476634-12.25-1.913906-64.519-2.004725z" fill="url(#a)"/><path d="m218.108-.636475c-91.293 0-117.993.094182-123.183.524728-18.7349 1.557367-30.3929 4.507277-43.0936 10.830947-9.7879 4.8604-17.5072 10.4945-25.1256 18.3923-13.8746 14.4031-22.28343 32.1228-25.32743 53.1858-1.479958 10.2255-1.910491 12.311-1.997942 64.5417-.033636 17.41 0 40.323 0 71.057 0 91.221.100906 117.895.5381651 123.075 1.5135869 18.231 4.3725969 29.701 10.4269069 42.247 11.5706 24.017 33.669 42.046 59.7028 48.773 9.0143 2.321 18.9703 3.599 31.7517 4.205 5.415.235 60.611.403 115.84.403s110.459-.067 115.739-.336c14.8-.696 23.394-1.85 32.896-4.306 26.202-6.761 47.896-24.52 59.702-48.873 5.937-12.244 8.948-24.151 10.31-41.43.296-3.767.42-63.832.42-123.816 0-59.993-.134-119.9468-.43-123.7141-1.379-17.5582-4.39-29.3646-10.518-41.8436-5.029-10.2154-10.612-17.8441-18.718-25.6444-14.467-13.8178-32.159-22.22692-53.242-25.26765-10.215-1.476634-12.25-1.913906-64.519-2.004725z" fill="url(#b)"/><path d="m218.007 56.5454c-43.847 0-49.35.1917-66.571.9755-17.188.7871-28.92 3.5082-39.186 7.5009-10.618 4.1238-19.6258 9.6402-28.5997 18.6177-8.9806 8.9742-14.4968 17.9825-18.634 28.5975-4.0026 10.269-6.727 22.005-7.5007 39.187-.7702 17.221-.972 22.728-.972 66.576s.1951 49.334.9754 66.556c.7904 17.188 3.5115 28.921 7.5007 39.187 4.127 10.619 9.6432 19.626 18.6205 28.601 8.9706 8.981 17.9778 14.51 28.5898 18.634 10.272 3.993 22.008 6.714 39.192 7.501 17.221.784 22.721.976 66.565.976 43.85 0 49.336-.192 66.557-.976 17.188-.787 28.933-3.508 39.205-7.501 10.616-4.124 19.61-9.653 28.58-18.634 8.981-8.975 14.497-17.982 18.634-28.598 3.969-10.269 6.694-22.005 7.501-39.186.774-17.222.976-22.712.976-66.56s-.202-49.351-.976-66.573c-.807-17.188-3.532-28.921-7.501-39.186-4.137-10.619-9.653-19.6273-18.634-28.6015-8.98-8.9809-17.961-14.4973-28.59-18.6177-10.292-3.9927-22.031-6.7138-39.218-7.5009-17.222-.7838-22.704-.9755-66.565-.9755zm-14.484 29.0955c4.299-.0068 9.095 0 14.484 0 43.107 0 48.216.1547 65.239.9283 15.741.7199 24.285 3.3502 29.976 5.5601 7.534 2.9264 12.906 6.4246 18.553 12.0757 5.651 5.651 9.149 11.033 12.082 18.567 2.21 5.685 4.843 14.228 5.56 29.97.773 17.02.941 22.133.941 65.221s-.168 48.201-.941 65.221c-.72 15.742-3.35 24.285-5.56 29.97-2.927 7.534-6.431 12.899-12.082 18.547-5.651 5.651-11.016 9.149-18.553 12.075-5.685 2.22-14.235 4.844-29.976 5.564-17.02.774-22.132.942-65.239.942-43.111 0-48.22-.168-65.239-.942-15.742-.727-24.285-3.357-29.98-5.567-7.534-2.926-12.916-6.424-18.566-12.075-5.6511-5.651-9.1491-11.02-12.0821-18.558-2.2099-5.684-4.8435-14.228-5.56-29.97-.7736-17.02-.9283-22.132-.9283-65.247s.1547-48.201.9283-65.221c.7198-15.742 3.3501-24.286 5.56-29.977 2.9262-7.535 6.431-12.916 12.0821-18.567 5.65-5.6512 11.032-9.1494 18.566-12.0825 5.691-2.22 14.238-4.8436 29.98-5.5668 14.893-.6727 20.665-.8746 50.755-.9082zm100.664 26.8081c-10.696 0-19.374 8.668-19.374 19.368 0 10.696 8.678 19.374 19.374 19.374s19.374-8.678 19.374-19.374-8.678-19.375-19.374-19.375zm-86.18 22.637c-45.788 0-82.911 37.125-82.911 82.914s37.123 82.897 82.911 82.897c45.787 0 82.897-37.108 82.897-82.897s-37.113-82.914-82.901-82.914zm0 29.096c29.72 0 53.816 24.094 53.816 53.818 0 29.721-24.096 53.818-53.816 53.818-29.724 0-53.817-24.097-53.817-53.818 0-29.724 24.093-53.818 53.817-53.818z" fill="#fff"/></g></svg>