<svg fill="none" height="437" viewBox="0 0 436 437" width="436" xmlns="http://www.w3.org/2000/svg" xmlns:xlink="http://www.w3.org/1999/xlink"><clipPath id="a"><path d="m0 0h435.8v436.29h-435.8z"/></clipPath><g clip-path="url(#a)" fill="#ecf2fb"><path d="m217.94 165.51c-10.389 0-20.544 3.081-29.182 8.853-8.637 5.773-15.369 13.977-19.343 23.575-3.974 9.599-5.013 20.161-2.984 30.349 2.029 10.189 7.034 19.547 14.382 26.891s16.709 12.343 26.899 14.367c10.19 2.023 20.751.978 30.347-3.001 9.597-3.98 17.797-10.716 23.564-19.357 5.768-8.641 8.843-18.798 8.837-29.187-.013-13.922-5.552-27.27-15.399-37.112-9.848-9.842-23.199-15.373-37.121-15.378z"/><path d="m279.72 84.1899h-123.56c-19.104.0239-37.419 7.6235-50.928 21.1321-13.5085 13.509-21.1082 31.824-21.132 50.928v123.65c.0079 19.113 7.6012 37.441 21.112 50.959 13.511 13.519 31.835 21.122 50.948 21.141h123.65c19.105-.021 37.421-7.62 50.931-21.129 13.509-13.51 21.108-31.826 21.129-50.931v-123.69c-.029-19.118-7.643-37.444-21.17-50.954-13.527-13.5099-31.862-21.1008-50.98-21.1061zm-61.78 214.1401c-15.882 0-31.407-4.71-44.612-13.533-13.206-8.824-23.498-21.365-29.576-36.038-6.077-14.672-7.667-30.818-4.569-46.395 3.098-15.576 10.746-29.885 21.976-41.115s25.539-18.878 41.115-21.976c15.577-3.099 31.723-1.508 46.395 4.569 14.673 6.078 27.214 16.37 36.038 29.576 8.823 13.205 13.533 28.73 13.533 44.612.004 10.546-2.07 20.99-6.104 30.734-4.035 9.744-9.949 18.598-17.407 26.055-7.457 7.458-16.311 13.372-26.055 17.406-9.744 4.035-20.188 6.109-30.734 6.105zm88.27-148.47c-3.92.006-7.753-1.151-11.015-3.323-3.263-2.172-5.808-5.263-7.314-8.882s-1.905-7.603-1.147-11.449c.758-3.845 2.64-7.38 5.406-10.156 2.767-2.777 6.295-4.67 10.138-5.442s7.828-.387 11.452 1.106 6.724 4.028 8.908 7.282c2.184 3.255 3.354 7.084 3.362 11.004-.005 5.255-2.095 10.293-5.811 14.009s-8.754 5.806-14.009 5.811z"/><path d="m435.51 102c-.015-7.861-.728-15.7051-2.13-23.44-1.76-9.44-4.36-18.61-8.8-27.14-4.721-8.9767-10.852-17.1372-18.16-24.17-11.023-10.8523-24.686-18.64202-39.64-22.6-13.71-3.72-27.78-4.46-41.86-4.46-.1-.1-.1-.1-.1-.19h-213.77v.19c-8 .18-16 .09-24 1.11-8.7431.87244-17.3507 2.78599-25.64 5.7-12.9023 4.7477-24.5585 12.3624-34.09 22.27-10.8619 11.1051-18.67684 24.8234-22.69 39.83-3.63 13.61-4.44 27.5-4.44 41.49l-.19 214.6c.28 9.73.37 19.45 2 29.09 1.75 10.19 4.16 20.1 8.89 29.36 6.2661 12.407 15.2201 23.26 26.21 31.77 7.8612 6.211 16.7253 11.033 26.21 14.26 14 4.54 28.44 6.3 43.16 6.3 9.17.09 18.25.28 27.42.28 66.41-.28 132.91.46 199.32-.37 8.77-.183 17.508-1.113 26.12-2.78 16.302-2.883 31.474-10.26 43.81-21.3 14.63-13.06 24.45-29 28.9-48.26 2.87-12.6 3.61-25.38 3.79-38.16v-2.59c.05-1.12-.32-217.94-.32-220.79zm-55.95 177.81c-.024 26.448-10.541 51.806-29.242 70.508-18.702 18.701-44.06 29.218-70.508 29.242h-123.65c-26.448-.024-51.806-10.541-70.5076-29.242-18.7016-18.702-29.2186-44.06-29.2424-70.508v-123.56c.0238-26.448 10.5408-51.806 29.2424-70.5076s44.0596-29.2186 70.5076-29.2424h123.65c26.447.0265 51.804 10.5443 70.505 29.2453 18.701 18.7007 29.219 44.0577 29.245 70.5047z"/></g></svg>