<?xml version="1.0" encoding="utf-8"?>
<!-- Generator: Adobe Illustrator 25.4.1, SVG Export Plug-In . SVG Version: 6.00 Build 0)  -->
<svg version="1.1" id="Layer_1" xmlns="http://www.w3.org/2000/svg" xmlns:xlink="http://www.w3.org/1999/xlink" x="0px" y="0px"
	 viewBox="0 0 192 192" style="enable-background:new 0 0 192 192;" xml:space="preserve">
<style type="text/css">
	.st0{fill:#EC8539;}
	.st1{fill:none;}
</style>
<g>
	<path class="st0" d="M119.7,185.2h-17.8c-3.1,0-6.2-1.3-8.4-3.6c-2.2-2.3-3.5-5.4-3.5-8.7v-30.7h11.9v30.7h17.8v-30.7h11.9v-24.5
		c0-1.6-0.6-3.2-1.7-4.3c-1.1-1.2-2.6-1.8-4.2-1.8H73.9L62.1,74.8H24.8c-1.6,0-3.1,0.6-4.2,1.8c-1.1,1.2-1.7,2.7-1.7,4.3v36.8h11.9
		v55.2h23.7v-43h11.9v43c0,3.3-1.3,6.4-3.5,8.7c-2.2,2.3-5.2,3.6-8.4,3.6H30.7c-3.1,0-6.2-1.3-8.4-3.6c-2.2-2.3-3.5-5.4-3.5-8.7v-43
		c-3.1,0-6.2-1.3-8.4-3.6C8.3,124.1,7,121,7,117.7V80.9c0-4.9,1.9-9.6,5.2-13c3.3-3.5,7.9-5.4,12.6-5.4h37.3c2.5,0,4.9,0.8,6.9,2.3
		c2,1.5,3.5,3.6,4.3,6.1l9.2,28.4h43.2c4.7,0,9.2,1.9,12.6,5.4c3.3,3.5,5.2,8.1,5.2,13v24.5c0,3.3-1.3,6.4-3.5,8.7
		c-2.2,2.3-5.2,3.6-8.4,3.6v18.4c0,3.3-1.3,6.4-3.5,8.7C125.9,183.9,122.9,185.2,119.7,185.2z"/>
	<path class="st0" d="M167.2,185.2h-11.9v-67.5h17.8V80.9c0-1.6-0.6-3.2-1.7-4.3c-1.1-1.2-2.6-1.8-4.2-1.8h-23.7V62.5h23.7
		c4.7,0,9.2,1.9,12.6,5.4c3.3,3.5,5.2,8.1,5.2,13v36.8c0,3.3-1.3,6.4-3.5,8.7c-2.2,2.3-5.2,3.6-8.4,3.6h-5.9V185.2z"/>
	<path class="st0" d="M42.6,56.3c-4.7,0-9.3-1.4-13.2-4.1c-3.9-2.7-6.9-6.5-8.7-11c-1.8-4.5-2.3-9.4-1.4-14.2
		c0.9-4.8,3.2-9.1,6.5-12.6C29.1,11,33.4,8.7,38,7.7s9.4-0.5,13.7,1.4c4.3,1.9,8,5,10.6,9c2.6,4,4,8.8,4,13.6c0,6.5-2.5,12.7-7,17.3
		C54.9,53.8,48.9,56.3,42.6,56.3z M42.6,19.5c-2.3,0-4.6,0.7-6.6,2.1c-2,1.3-3.5,3.3-4.4,5.5c-0.9,2.2-1.1,4.7-0.7,7.1
		c0.5,2.4,1.6,4.6,3.2,6.3c1.7,1.7,3.8,2.9,6.1,3.4s4.7,0.2,6.9-0.7c2.2-0.9,4-2.5,5.3-4.5c1.3-2,2-4.4,2-6.8c0-3.3-1.3-6.4-3.5-8.7
		C48.8,20.8,45.8,19.5,42.6,19.5z"/>
	<path class="st0" d="M149.4,56.3c-4.7,0-9.3-1.4-13.2-4.1c-3.9-2.7-6.9-6.5-8.7-11c-1.8-4.5-2.3-9.4-1.4-14.2
		c0.9-4.8,3.2-9.1,6.5-12.6c3.3-3.4,7.5-5.8,12.1-6.7s9.4-0.5,13.7,1.4c4.3,1.9,8,5,10.6,9c2.6,4,4,8.8,4,13.6
		c0,6.5-2.5,12.7-7,17.3C161.7,53.8,155.7,56.3,149.4,56.3z M149.4,19.5c-2.3,0-4.6,0.7-6.6,2.1c-2,1.3-3.5,3.3-4.4,5.5
		c-0.9,2.2-1.1,4.7-0.7,7.1c0.5,2.4,1.6,4.6,3.2,6.3c1.7,1.7,3.8,2.9,6.1,3.4c2.3,0.5,4.7,0.2,6.9-0.7c2.2-0.9,4-2.5,5.3-4.5
		c1.3-2,2-4.4,2-6.8c0-3.3-1.3-6.4-3.5-8.7C155.6,20.8,152.5,19.5,149.4,19.5z"/>
	<path class="st0" d="M110.8,93.2c-4.1,0-8.1-1.3-11.5-3.6c-3.4-2.4-6.1-5.7-7.6-9.6c-1.6-3.9-2-8.2-1.2-12.4c0.8-4.2,2.8-8,5.7-11
		c2.9-3,6.6-5,10.6-5.9c4-0.8,8.2-0.4,12,1.2c3.8,1.6,7,4.4,9.3,7.9c2.3,3.5,3.5,7.7,3.5,11.9c0,5.7-2.2,11.2-6.1,15.2
		C121.6,90.9,116.3,93.2,110.8,93.2z M110.8,62.5c-1.8,0-3.5,0.5-4.9,1.6c-1.5,1-2.6,2.4-3.3,4.1c-0.7,1.7-0.8,3.5-0.5,5.3
		c0.3,1.8,1.2,3.4,2.4,4.7c1.2,1.3,2.8,2.2,4.6,2.5c1.7,0.4,3.5,0.2,5.1-0.5c1.6-0.7,3-1.9,4-3.4c1-1.5,1.5-3.3,1.5-5.1
		c0-2.4-0.9-4.8-2.6-6.5C115.5,63.5,113.2,62.5,110.8,62.5z"/>
</g>
<rect class="st1" width="192" height="192"/>
</svg>
