<?xml version="1.0" encoding="utf-8"?>
<!-- Generator: Adobe Illustrator 25.4.1, SVG Export Plug-In . SVG Version: 6.00 Build 0)  -->
<svg version="1.1" id="Layer_1" xmlns="http://www.w3.org/2000/svg" xmlns:xlink="http://www.w3.org/1999/xlink" x="0px" y="0px"
	 viewBox="0 0 192 192" enable-background="new 0 0 192 192" xml:space="preserve">
<rect fill="none" width="192" height="192"/>
<polyline fill="none" stroke="#EC8539" stroke-width="12" stroke-linecap="round" stroke-linejoin="round" stroke-miterlimit="3" points="
	48,96 78,96 90,78 114,114 126,96 144,96 "/>
<path fill="none" stroke="#EC8539" stroke-width="12" stroke-linecap="round" stroke-linejoin="round" stroke-miterlimit="3" d="
	M21.1,72C21,71,21,70,21,69c0-21.5,17.5-39,39-39c15.7,0,29.9,9.5,36,24l0,0c8.3-19.9,31.1-29.3,51-21c14.5,6.1,24,20.3,24,36
	c0,51-75,93-75,93s-30-16.8-52-42"/>
</svg>
