<svg xmlns="http://www.w3.org/2000/svg" viewBox="0 0 300 300"><defs><style>.b30b4d4b-044e-4410-8001-26ab2d44c850{fill:#ec8539;}.be4ab060-9370-4dd5-b339-277f4329c580{fill:none;stroke:#efefef;stroke-linecap:round;stroke-linejoin:round;stroke-width:12px;}</style></defs><g id="edbb697f-5926-46e2-8f8d-d9f3cad79291" data-name="Layer 2"><g id="f4e6b046-320e-4608-b92e-bb97fc9bf2d9" data-name="Layer 1"><path class="b30b4d4b-044e-4410-8001-26ab2d44c850" d="M27.91,0H272.09A28,28,0,0,1,300,27.91V272.09A28,28,0,0,1,272.09,300H27.91A28,28,0,0,1,0,272.09V27.91A28,28,0,0,1,27.91,0Z"/><path class="be4ab060-9370-4dd5-b339-277f4329c580" d="M90,84h24a6,6,0,0,1,6,6V210a6,6,0,0,1-6,6H90a6,6,0,0,1-6-6V90A6,6,0,0,1,90,84Z"/><line class="be4ab060-9370-4dd5-b339-277f4329c580" x1="84" y1="114" x2="120" y2="114"/><path class="be4ab060-9370-4dd5-b339-277f4329c580" d="M126,84h24a6,6,0,0,1,6,6V210a6,6,0,0,1-6,6H126a6,6,0,0,1-6-6V90A6,6,0,0,1,126,84Z"/><line class="be4ab060-9370-4dd5-b339-277f4329c580" x1="120" y1="186" x2="156" y2="186"/><path class="be4ab060-9370-4dd5-b339-277f4329c580" d="M161.8,88.3,185,82.1a5.87,5.87,0,0,1,7.3,4.2l31.1,115.9a5.87,5.87,0,0,1-4.2,7.3L196,215.7a5.87,5.87,0,0,1-7.3-4.2L157.6,95.6A5.91,5.91,0,0,1,161.8,88.3Z"/><line class="be4ab060-9370-4dd5-b339-277f4329c580" x1="182.4" y1="188.4" x2="217.2" y2="179.1"/><line class="be4ab060-9370-4dd5-b339-277f4329c580" x1="163.8" y1="118.8" x2="198.6" y2="109.5"/></g></g></svg>