<svg xmlns="http://www.w3.org/2000/svg" viewBox="0 0 300 300"><defs><style>.bb5c397b-42fa-412f-93e1-9b34d469f418{fill:#ec8539;}.b5f111f6-061d-4a3b-9a86-c4bf3018aa64{fill:none;stroke:#efefef;stroke-linecap:round;stroke-linejoin:round;stroke-width:12px;}</style></defs><g id="aeb6cbf8-9fdb-4dff-b530-20f58f8e7c57" data-name="Layer 2"><g id="ec297812-28d8-4a16-aa93-c9d2e8b2c090" data-name="Layer 1"><path class="bb5c397b-42fa-412f-93e1-9b34d469f418" d="M28.44,0H271.56A28.53,28.53,0,0,1,300,28.44V271.56A28.53,28.53,0,0,1,271.56,300H28.44A28.53,28.53,0,0,1,0,271.56V28.44A28.53,28.53,0,0,1,28.44,0Z"/><line class="b5f111f6-061d-4a3b-9a86-c4bf3018aa64" x1="120" y1="228" x2="180" y2="228"/><path class="b5f111f6-061d-4a3b-9a86-c4bf3018aa64" d="M113,179.3A60,60,0,1,1,197.2,169,57.92,57.92,0,0,1,187,179.2a18.1,18.1,0,0,0-7,14.3V198a6,6,0,0,1-6,6H126a6,6,0,0,1-6-6v-4.5A17.91,17.91,0,0,0,113,179.3Z"/><path class="b5f111f6-061d-4a3b-9a86-c4bf3018aa64" d="M156.1,96.6A36,36,0,0,1,185.5,126"/></g></g></svg>