<svg fill="none" height="290" viewBox="0 0 1173 290" width="1173" xmlns="http://www.w3.org/2000/svg"><g class="svgtext"><path d="m44.044 242.68c0 3.24-2.232 4.944-6.048 5.016l-2.04.024v5.28h-1.536v-15h3.768c3.864 0 5.856 1.824 5.856 4.68zm-1.584.072c0-2.16-1.512-3.336-4.32-3.336h-2.184v6.888l2.136-.048c2.904-.048 4.368-1.224 4.368-3.504zm5.7013 3.192v7.056h-1.488v-10.992l1.488-.312v2.352c.792-1.56 1.872-2.352 3.24-2.352.696 0 1.32.168 1.92.504l-.384 1.392c-.528-.312-1.08-.48-1.68-.48-1.224 0-2.256.936-3.096 2.832zm8.8427-7.56c0 .312-.096.552-.264.768s-.432.336-.744.336-.576-.12-.744-.336-.264-.456-.264-.768c0-.288.096-.528.264-.744s.432-.312.744-.312.576.096.744.312.264.456.264.744zm-.264 14.616h-1.488v-10.992l1.488-.312zm11.5676-.624c-1.008.624-2.136.936-3.408.936-3.288 0-5.376-2.304-5.376-5.784 0-1.704.504-3.12 1.536-4.2 1.008-1.08 2.304-1.632 3.864-1.632 1.32 0 2.448.312 3.432.936l-.384 1.344c-.888-.6-1.92-.888-3.048-.888-2.376 0-3.864 1.752-3.864 4.392 0 2.712 1.536 4.44 3.888 4.44 1.104 0 2.112-.312 3.048-.912zm3.439-4.824v.12c.072 2.52 1.56 4.248 3.84 4.248 1.2 0 2.256-.312 3.192-.912l.288 1.368c-1.008.624-2.184.936-3.528.936-3.144 0-5.304-2.328-5.304-5.712 0-1.728.504-3.144 1.488-4.248s2.208-1.656 3.696-1.656c2.448 0 4.008 1.584 4.008 4.056 0 .648-.072 1.224-.24 1.752zm.096-1.176 6.096-.024c.024-.072.024-.24.024-.48 0-1.728-.936-2.832-2.64-2.832-1.896 0-3.216 1.416-3.48 3.336z"/><path d="m268.488 245.32c2.184.408 3.36 1.704 3.36 3.504 0 2.568-1.728 4.176-5.4 4.176h-4.872v-15h4.68c3.48 0 5.112 1.488 5.112 3.912 0 1.584-.984 2.928-2.88 3.408zm1.344-3.288c0-1.68-1.2-2.64-3.504-2.64h-3.216v5.4h2.976c2.304 0 3.744-.984 3.744-2.76zm.48 6.792c0-1.752-1.368-2.64-4.128-2.64h-3.072v5.424h3.456c2.496 0 3.744-.936 3.744-2.784zm4.172-6.816h1.488v7.104c0 1.848.792 2.784 2.376 2.784 1.248 0 2.376-.528 3.384-1.56v-8.328h1.488v10.992l-1.488.312v-1.776c-1.152 1.176-2.424 1.776-3.792 1.776-2.16 0-3.456-1.392-3.456-3.768zm13.677 3.936v7.056h-1.488v-10.992l1.488-.312v2.352c.792-1.56 1.872-2.352 3.24-2.352.696 0 1.32.168 1.92.504l-.384 1.392c-.528-.312-1.08-.48-1.68-.48-1.224 0-2.256.936-3.096 2.832zm14.225-3.576v-5.544l1.488-.312v16.488h-1.488v-1.032c-.96.888-2.016 1.344-3.192 1.344-2.952 0-4.92-2.328-4.92-5.712 0-1.704.504-3.096 1.536-4.2 1.032-1.08 2.328-1.632 3.912-1.632.912 0 1.8.192 2.664.6zm0 1.584c-.72-.552-1.632-.84-2.736-.84-2.352 0-3.84 1.824-3.84 4.464 0 2.568 1.44 4.368 3.648 4.368 1.08 0 2.064-.408 2.928-1.224v-6.552zm5.728 3.6v.12c.072 2.52 1.56 4.248 3.84 4.248 1.2 0 2.256-.312 3.192-.912l.288 1.368c-1.008.624-2.184.936-3.528.936-3.144 0-5.304-2.328-5.304-5.712 0-1.728.504-3.144 1.488-4.248s2.208-1.656 3.696-1.656c2.448 0 4.008 1.584 4.008 4.056 0 .648-.072 1.224-.24 1.752zm.096-1.176 6.096-.024c.024-.072.024-.24.024-.48 0-1.728-.936-2.832-2.64-2.832-1.896 0-3.216 1.416-3.48 3.336zm19.121 6.624h-1.488v-7.104c0-1.92-.744-2.784-2.424-2.784-1.176 0-2.304.528-3.336 1.56v8.328h-1.488v-10.992l1.488-.312v1.8c1.2-1.2 2.448-1.8 3.744-1.8 2.208 0 3.504 1.344 3.504 3.768zm18.826-5.52c0 1.728-.504 3.12-1.536 4.2s-2.304 1.632-3.864 1.632-2.832-.528-3.816-1.584-1.488-2.448-1.488-4.2c0-1.728.528-3.144 1.56-4.224s2.304-1.608 3.864-1.608 2.832.528 3.816 1.584 1.464 2.448 1.464 4.2zm-1.464.048c0-2.712-1.536-4.488-3.888-4.488-2.304 0-3.864 1.8-3.864 4.44 0 2.712 1.536 4.488 3.888 4.488 2.304 0 3.864-1.8 3.864-4.44zm9.87-10.752-.072.336c-.072.24-.12.456-.192.672l-.096.336c-.648-.312-1.2-.456-1.68-.456-1.224 0-1.824.864-1.824 2.568v1.824h3.456l-.072 1.32h-3.384v9.624h-1.464v-9.576l-1.776-.12.096-.936 1.656-.384.024-1.728c.048-2.64 1.152-3.96 3.312-3.96.672 0 1.344.168 2.016.48zm-112.708 44.8v-3.216c-3.696.408-5.112 1.224-5.112 2.736 0 1.152.936 1.92 2.256 1.92 1.056 0 2.016-.48 2.856-1.44zm.096 1.104h-.072c-.888 1.08-1.944 1.632-3.216 1.632-2.016 0-3.48-1.272-3.48-3.048 0-2.352 2.232-3.648 6.672-3.912v-.648c0-1.752-.864-2.616-2.592-2.616-1.152 0-2.592.576-3.6 1.32l-.336-1.392c1.056-.744 2.688-1.32 4.08-1.32 2.64 0 3.96 1.32 3.936 3.936v5.28c0 .864.192 1.128 1.104 1.104l-.096 1.224c-1.416.096-2.232-.432-2.4-1.56zm13.45 1.32h-1.488v-7.104c0-1.92-.744-2.784-2.424-2.784-1.176 0-2.304.528-3.336 1.56v8.328h-1.488v-10.992l1.488-.312v1.8c1.2-1.2 2.448-1.8 3.744-1.8 2.208 0 3.504 1.344 3.504 3.768zm13.366-5.52c0 1.728-.504 3.12-1.536 4.2s-2.304 1.632-3.864 1.632-2.832-.528-3.816-1.584-1.488-2.448-1.488-4.2c0-1.728.528-3.144 1.56-4.224s2.304-1.608 3.864-1.608 2.832.528 3.816 1.584 1.464 2.448 1.464 4.2zm-1.464.048c0-2.712-1.536-4.488-3.888-4.488-2.304 0-3.864 1.8-3.864 4.44 0 2.712 1.536 4.488 3.888 4.488 2.304 0 3.864-1.8 3.864-4.44zm9.702 5.256c-.816.384-1.632.576-2.448.576-2.04 0-3.024-1.152-2.952-3.456l.168-6.504-1.68-.096.072-.936 1.656-.384.072-2.496h1.416l-.072 2.568h3.672l-.072 1.32h-3.648l-.168 6.576c-.048 1.368.48 2.064 1.608 2.064.6 0 1.296-.168 2.112-.528zm11.162.216h-1.488v-7.104c0-1.848-.792-2.784-2.352-2.784-1.224 0-2.376.528-3.408 1.56v8.328h-1.488v-16.176l1.488-.312v6.936c1.176-1.176 2.448-1.752 3.816-1.752 2.16 0 3.432 1.344 3.432 3.768zm4.173-5.448v.12c.072 2.52 1.56 4.248 3.84 4.248 1.2 0 2.256-.312 3.192-.912l.288 1.368c-1.008.624-2.184.936-3.528.936-3.144 0-5.304-2.328-5.304-5.712 0-1.728.504-3.144 1.488-4.248s2.208-1.656 3.696-1.656c2.448 0 4.008 1.584 4.008 4.056 0 .648-.072 1.224-.24 1.752zm.096-1.176 6.096-.024c.024-.072.024-.24.024-.48 0-1.728-.936-2.832-2.64-2.832-1.896 0-3.216 1.416-3.48 3.336zm11.874-.432v7.056h-1.488v-10.992l1.488-.312v2.352c.792-1.56 1.872-2.352 3.24-2.352.696 0 1.32.168 1.92.504l-.384 1.392c-.528-.312-1.08-.48-1.68-.48-1.224 0-2.256.936-3.096 2.832zm13.367-.096c0 1.632 1.104 2.808 2.832 2.808.84 0 1.488-.264 1.992-.816.504-.528.744-1.224.744-2.064s-.24-1.536-.72-2.064c-.504-.528-1.2-.792-2.088-.792-1.704 0-2.76 1.2-2.76 2.928zm1.296 7.464c-1.32.36-2.232 1.224-2.232 2.16 0 1.32 1.464 2.256 3.744 2.256 2.304 0 4.128-1.104 4.128-2.592 0-1.248-1.056-1.752-3.336-1.752-.912 0-1.68-.024-2.304-.072zm-1.296-.288c-.984-.36-1.488-.936-1.488-1.752 0-.912.744-1.704 1.8-2.088-1.176-.72-1.776-1.848-1.776-3.36 0-2.376 1.752-4.128 4.32-4.128.96 0 1.824.216 2.592.648l3.048-.24.072 1.488-2.424-.24c.504.504.888 1.56.888 2.472 0 2.352-1.8 4.032-4.272 4.032-.504 0-1.032-.096-1.632-.312-.816.336-1.224.768-1.224 1.32 0 .744.624 1.128 2.496 1.128h1.416c3.048 0 4.56.96 4.56 2.88 0 1.176-.576 2.16-1.704 2.928s-2.496 1.152-4.08 1.152c-2.952 0-4.968-1.296-4.968-3.216 0-1.248.96-2.352 2.376-2.712zm16.123-2.448v-3.216c-3.696.408-5.112 1.224-5.112 2.736 0 1.152.936 1.92 2.256 1.92 1.056 0 2.016-.48 2.856-1.44zm.096 1.104h-.072c-.888 1.08-1.944 1.632-3.216 1.632-2.016 0-3.48-1.272-3.48-3.048 0-2.352 2.232-3.648 6.672-3.912v-.648c0-1.752-.864-2.616-2.592-2.616-1.152 0-2.592.576-3.6 1.32l-.336-1.392c1.056-.744 2.688-1.32 4.08-1.32 2.64 0 3.96 1.32 3.936 3.936v5.28c0 .864.192 1.128 1.104 1.104l-.096 1.224c-1.416.096-2.232-.432-2.4-1.56zm12.107-9.312v-5.544l1.488-.312v16.488h-1.488v-1.032c-.96.888-2.016 1.344-3.192 1.344-2.952 0-4.92-2.328-4.92-5.712 0-1.704.504-3.096 1.536-4.2 1.032-1.08 2.328-1.632 3.912-1.632.912 0 1.8.192 2.664.6zm0 1.584c-.72-.552-1.632-.84-2.736-.84-2.352 0-3.84 1.824-3.84 4.464 0 2.568 1.44 4.368 3.648 4.368 1.08 0 2.064-.408 2.928-1.224v-6.552zm5.776 1.896c0 1.632 1.104 2.808 2.832 2.808.84 0 1.488-.264 1.992-.816.504-.528.744-1.224.744-2.064s-.24-1.536-.72-2.064c-.504-.528-1.2-.792-2.088-.792-1.704 0-2.76 1.2-2.76 2.928zm1.296 7.464c-1.32.36-2.232 1.224-2.232 2.16 0 1.32 1.464 2.256 3.744 2.256 2.304 0 4.128-1.104 4.128-2.592 0-1.248-1.056-1.752-3.336-1.752-.912 0-1.68-.024-2.304-.072zm-1.296-.288c-.984-.36-1.488-.936-1.488-1.752 0-.912.744-1.704 1.8-2.088-1.176-.72-1.776-1.848-1.776-3.36 0-2.376 1.752-4.128 4.32-4.128.96 0 1.824.216 2.592.648l3.048-.24.072 1.488-2.424-.24c.504.504.888 1.56.888 2.472 0 2.352-1.8 4.032-4.272 4.032-.504 0-1.032-.096-1.632-.312-.816.336-1.224.768-1.224 1.32 0 .744.624 1.128 2.496 1.128h1.416c3.048 0 4.56.96 4.56 2.88 0 1.176-.576 2.16-1.704 2.928s-2.496 1.152-4.08 1.152c-2.952 0-4.968-1.296-4.968-3.216 0-1.248.96-2.352 2.376-2.712zm11.178-5.472v.12c.072 2.52 1.56 4.248 3.84 4.248 1.2 0 2.256-.312 3.192-.912l.288 1.368c-1.008.624-2.184.936-3.528.936-3.144 0-5.304-2.328-5.304-5.712 0-1.728.504-3.144 1.488-4.248s2.208-1.656 3.696-1.656c2.448 0 4.008 1.584 4.008 4.056 0 .648-.072 1.224-.24 1.752zm.096-1.176 6.096-.024c.024-.072.024-.24.024-.48 0-1.728-.936-2.832-2.64-2.832-1.896 0-3.216 1.416-3.48 3.336zm15.858 6.408c-.816.384-1.632.576-2.448.576-2.04 0-3.024-1.152-2.952-3.456l.168-6.504-1.68-.096.072-.936 1.656-.384.072-2.496h1.416l-.072 2.568h3.672l-.072 1.32h-3.648l-.168 6.576c-.048 1.368.48 2.064 1.608 2.064.6 0 1.296-.168 2.112-.528z"/><path d="m506.321 252v-1.44h-7.416v-13.56h-1.536v15zm8.053-2.424v-3.216c-3.696.408-5.112 1.224-5.112 2.736 0 1.152.936 1.92 2.256 1.92 1.056 0 2.016-.48 2.856-1.44zm.096 1.104h-.072c-.888 1.08-1.944 1.632-3.216 1.632-2.016 0-3.48-1.272-3.48-3.048 0-2.352 2.232-3.648 6.672-3.912v-.648c0-1.752-.864-2.616-2.592-2.616-1.152 0-2.592.576-3.6 1.32l-.336-1.392c1.056-.744 2.688-1.32 4.08-1.32 2.64 0 3.96 1.32 3.936 3.936v5.28c0 .864.192 1.128 1.104 1.104l-.096 1.224c-1.416.096-2.232-.432-2.4-1.56zm12.779.696c-1.008.624-2.136.936-3.408.936-3.288 0-5.376-2.304-5.376-5.784 0-1.704.504-3.12 1.536-4.2 1.008-1.08 2.304-1.632 3.864-1.632 1.32 0 2.448.312 3.432.936l-.384 1.344c-.888-.6-1.92-.888-3.048-.888-2.376 0-3.864 1.752-3.864 4.392 0 2.712 1.536 4.44 3.888 4.44 1.104 0 2.112-.312 3.048-.912zm4.3-4.848 4.944 5.472h1.896l-5.304-5.76 5.28-5.232h-1.872l-4.944 5.064h-.048v-10.56l-1.488.312v16.176h1.488v-5.472zm24.315-.048c0 1.728-.504 3.12-1.536 4.2s-2.304 1.632-3.864 1.632-2.832-.528-3.816-1.584-1.488-2.448-1.488-4.2c0-1.728.528-3.144 1.56-4.224s2.304-1.608 3.864-1.608 2.832.528 3.816 1.584 1.464 2.448 1.464 4.2zm-1.464.048c0-2.712-1.536-4.488-3.888-4.488-2.304 0-3.864 1.8-3.864 4.44 0 2.712 1.536 4.488 3.888 4.488 2.304 0 3.864-1.8 3.864-4.44zm9.87-10.752-.072.336c-.072.24-.12.456-.192.672l-.096.336c-.648-.312-1.2-.456-1.68-.456-1.224 0-1.824.864-1.824 2.568v1.824h3.456l-.072 1.32h-3.384v9.624h-1.464v-9.576l-1.776-.12.096-.936 1.656-.384.024-1.728c.048-2.64 1.152-3.96 3.312-3.96.672 0 1.344.168 2.016.48zm6.874 5.232h1.488v7.104c0 1.848.792 2.784 2.376 2.784 1.248 0 2.376-.528 3.384-1.56v-8.328h1.488v10.992l-1.488.312v-1.776c-1.152 1.176-2.424 1.776-3.792 1.776-2.16 0-3.456-1.392-3.456-3.768zm17.661 10.776c-.816.384-1.632.576-2.448.576-2.04 0-3.024-1.152-2.952-3.456l.168-6.504-1.68-.096.072-.936 1.656-.384.072-2.496h1.416l-.072 2.568h3.672l-.072 1.32h-3.648l-.168 6.576c-.048 1.368.48 2.064 1.608 2.064.6 0 1.296-.168 2.112-.528zm4.203-14.4c0 .312-.096.552-.264.768s-.432.336-.744.336-.576-.12-.744-.336-.264-.456-.264-.768c0-.288.096-.528.264-.744s.432-.312.744-.312.576.096.744.312.264.456.264.744zm-.264 14.616h-1.488v-10.992l1.488-.312zm4.992 0v-16.488l-1.488.312v16.176zm5.233-14.616c0 .312-.096.552-.264.768s-.432.336-.744.336-.576-.12-.744-.336-.264-.456-.264-.768c0-.288.096-.528.264-.744s.432-.312.744-.312.576.096.744.312.264.456.264.744zm-.264 14.616h-1.488v-10.992l1.488-.312zm8.975-.216c-.816.384-1.632.576-2.448.576-2.04 0-3.024-1.152-2.952-3.456l.168-6.504-1.68-.096.072-.936 1.656-.384.072-2.496h1.416l-.072 2.568h3.672l-.072 1.32h-3.648l-.168 6.576c-.048 1.368.48 2.064 1.608 2.064.6 0 1.296-.168 2.112-.528zm10.779-10.776-4.272 10.872-.888 2.376c-.96 2.616-1.968 3.456-3.552 3.456-.648 0-1.344-.168-2.136-.504l.456-1.368c.6.312 1.152.48 1.68.48.912 0 1.512-.552 2.256-2.544l.744-1.944-4.296-10.824h1.608l3.456 9.072 3.384-9.072z"/><path d="m787.677 242.68c0 3.24-2.232 4.944-6.048 5.016l-2.04.024v5.28h-1.536v-15h3.768c3.864 0 5.856 1.824 5.856 4.68zm-1.584.072c0-2.16-1.512-3.336-4.32-3.336h-2.184v6.888l2.136-.048c2.904-.048 4.368-1.224 4.368-3.504zm5.701 3.192v7.056h-1.488v-10.992l1.488-.312v2.352c.792-1.56 1.872-2.352 3.24-2.352.696 0 1.32.168 1.92.504l-.384 1.392c-.528-.312-1.08-.48-1.68-.48-1.224 0-2.256.936-3.096 2.832zm8.843-7.56c0 .312-.096.552-.264.768s-.432.336-.744.336-.576-.12-.744-.336-.264-.456-.264-.768c0-.288.096-.528.264-.744s.432-.312.744-.312.576.096.744.312.264.456.264.744zm-.264 14.616h-1.488v-10.992l1.488-.312zm11.855-10.992h-1.56l-3.36 9.072-3.48-9.072h-1.608l4.344 11.016h1.344zm7.556 8.568v-3.216c-3.696.408-5.112 1.224-5.112 2.736 0 1.152.936 1.92 2.256 1.92 1.056 0 2.016-.48 2.856-1.44zm.096 1.104h-.072c-.888 1.08-1.944 1.632-3.216 1.632-2.016 0-3.48-1.272-3.48-3.048 0-2.352 2.232-3.648 6.672-3.912v-.648c0-1.752-.864-2.616-2.592-2.616-1.152 0-2.592.576-3.6 1.32l-.336-1.392c1.056-.744 2.688-1.32 4.08-1.32 2.64 0 3.96 1.32 3.936 3.936v5.28c0 .864.192 1.128 1.104 1.104l-.096 1.224c-1.416.096-2.232-.432-2.4-1.56zm12.779.696c-1.008.624-2.136.936-3.408.936-3.288 0-5.376-2.304-5.376-5.784 0-1.704.504-3.12 1.536-4.2 1.008-1.08 2.304-1.632 3.864-1.632 1.32 0 2.448.312 3.432.936l-.384 1.344c-.888-.6-1.92-.888-3.048-.888-2.376 0-3.864 1.752-3.864 4.392 0 2.712 1.536 4.44 3.888 4.44 1.104 0 2.112-.312 3.048-.912zm11.116-10.368-4.272 10.872-.888 2.376c-.96 2.616-1.968 3.456-3.552 3.456-.648 0-1.344-.168-2.136-.504l.456-1.368c.6.312 1.152.48 1.68.48.912 0 1.512-.552 2.256-2.544l.744-1.944-4.296-10.824h1.608l3.456 9.072 3.384-9.072z"/><path d="m970.763 252v-1.44h-7.416v-13.56h-1.536v15zm8.053-2.424v-3.216c-3.696.408-5.112 1.224-5.112 2.736 0 1.152.936 1.92 2.256 1.92 1.056 0 2.016-.48 2.856-1.44zm.096 1.104h-.072c-.888 1.08-1.944 1.632-3.216 1.632-2.016 0-3.48-1.272-3.48-3.048 0-2.352 2.232-3.648 6.672-3.912v-.648c0-1.752-.864-2.616-2.592-2.616-1.152 0-2.592.576-3.6 1.32l-.336-1.392c1.056-.744 2.688-1.32 4.08-1.32 2.64 0 3.96 1.32 3.936 3.936v5.28c0 .864.192 1.128 1.104 1.104l-.096 1.224c-1.416.096-2.232-.432-2.4-1.56zm12.778.696c-1.008.624-2.136.936-3.408.936-3.288 0-5.376-2.304-5.376-5.784 0-1.704.504-3.12 1.536-4.2 1.008-1.08 2.304-1.632 3.864-1.632 1.32 0 2.448.312 3.432.936l-.384 1.344c-.888-.6-1.92-.888-3.048-.888-2.376 0-3.864 1.752-3.864 4.392 0 2.712 1.536 4.44 3.888 4.44 1.104 0 2.112-.312 3.048-.912zm4.301-4.848 4.939 5.472h1.9l-5.303-5.76 5.283-5.232h-1.88l-4.939 5.064h-.048v-10.56l-1.488.312v16.176h1.488v-5.472zm24.319-.048c0 1.728-.51 3.12-1.54 4.2s-2.3 1.632-3.86 1.632-2.84-.528-3.82-1.584-1.49-2.448-1.49-4.2c0-1.728.53-3.144 1.56-4.224s2.31-1.608 3.87-1.608 2.83.528 3.81 1.584c.99 1.056 1.47 2.448 1.47 4.2zm-1.47.048c0-2.712-1.53-4.488-3.89-4.488-2.3 0-3.86 1.8-3.86 4.44 0 2.712 1.54 4.488 3.89 4.488 2.3 0 3.86-1.8 3.86-4.44zm9.87-10.752-.07.336c-.07.24-.12.456-.19.672l-.1.336c-.65-.312-1.2-.456-1.68-.456-1.22 0-1.82.864-1.82 2.568v1.824h3.45l-.07 1.32h-3.38v9.624h-1.47v-9.576l-1.77-.12.09-.936 1.66-.384.02-1.728c.05-2.64 1.16-3.96 3.32-3.96.67 0 1.34.168 2.01.48zm8.75 1.608c0 .312-.1.552-.27.768-.16.216-.43.336-.74.336s-.58-.12-.74-.336c-.17-.216-.27-.456-.27-.768 0-.288.1-.528.27-.744.16-.216.43-.312.74-.312s.58.096.74.312c.17.216.27.456.27.744zm-.27 14.616h-1.48v-10.992l1.48-.312zm18.72 0h-1.49v-7.08c0-1.872-.76-2.808-2.32-2.808-1.06 0-2.09.48-3.1 1.416.02.192.05.528.05.984v7.488h-1.49v-7.08c0-1.872-.77-2.808-2.33-2.808-1.08 0-2.09.432-3.05 1.272v8.616h-1.48v-10.992l1.48-.312v1.512c1.11-1.008 2.26-1.512 3.48-1.512 1.47 0 2.45.6 2.98 1.824 1.22-1.224 2.52-1.824 3.89-1.824 2.11 0 3.38 1.368 3.38 3.792zm4.88-9.888c.96-.888 2.02-1.344 3.2-1.344 2.95 0 4.92 2.304 4.92 5.688 0 1.704-.51 3.12-1.52 4.2-1.03 1.104-2.32 1.656-3.91 1.656-.98 0-1.87-.192-2.69-.576v5.856h-1.48v-16.632l1.48-.312zm0 1.248v6.744c.75.576 1.66.864 2.76.864 2.31 0 3.82-1.848 3.82-4.488 0-2.568-1.42-4.344-3.62-4.344-1.08 0-2.07.408-2.96 1.224zm12.36 1.584v7.056h-1.49v-10.992l1.49-.312v2.352c.79-1.56 1.87-2.352 3.24-2.352.69 0 1.32.168 1.92.504l-.39 1.392c-.53-.312-1.08-.48-1.68-.48-1.22 0-2.25.936-3.09 2.832zm16.81 1.536c0 1.728-.5 3.12-1.53 4.2-1.04 1.08-2.31 1.632-3.87 1.632s-2.83-.528-3.81-1.584c-.99-1.056-1.49-2.448-1.49-4.2 0-1.728.53-3.144 1.56-4.224s2.3-1.608 3.86-1.608 2.83.528 3.82 1.584c.98 1.056 1.46 2.448 1.46 4.2zm-1.46.048c0-2.712-1.54-4.488-3.89-4.488-2.3 0-3.86 1.8-3.86 4.44 0 2.712 1.53 4.488 3.88 4.488 2.31 0 3.87-1.8 3.87-4.44zm12.46-5.52h-1.56l-3.36 9.072-3.48-9.072h-1.61l4.35 11.016h1.34zm2.5 5.544v.12c.07 2.52 1.56 4.248 3.84 4.248 1.2 0 2.25-.312 3.19-.912l.29 1.368c-1.01.624-2.19.936-3.53.936-3.14 0-5.3-2.328-5.3-5.712 0-1.728.5-3.144 1.48-4.248.99-1.104 2.21-1.656 3.7-1.656 2.45 0 4.01 1.584 4.01 4.056 0 .648-.07 1.224-.24 1.752zm.09-1.176 6.1-.024c.02-.072.02-.24.02-.48 0-1.728-.93-2.832-2.64-2.832-1.89 0-3.21 1.416-3.48 3.336zm25.6 6.624h-1.48v-7.08c0-1.872-.77-2.808-2.33-2.808-1.06 0-2.09.48-3.1 1.416.03.192.05.528.05.984v7.488h-1.49v-7.08c0-1.872-.77-2.808-2.33-2.808-1.08 0-2.08.432-3.04 1.272v8.616h-1.49v-10.992l1.49-.312v1.512c1.1-1.008 2.25-1.512 3.48-1.512 1.46 0 2.44.6 2.97 1.824 1.23-1.224 2.52-1.824 3.89-1.824 2.11 0 3.38 1.368 3.38 3.792zm4.19-5.448v.12c.07 2.52 1.56 4.248 3.84 4.248 1.2 0 2.26-.312 3.19-.912l.29 1.368c-1.01.624-2.18.936-3.53.936-3.14 0-5.3-2.328-5.3-5.712 0-1.728.5-3.144 1.49-4.248.98-1.104 2.2-1.656 3.69-1.656 2.45 0 4.01 1.584 4.01 4.056 0 .648-.07 1.224-.24 1.752zm.1-1.176 6.09-.024c.03-.072.03-.24.03-.48 0-1.728-.94-2.832-2.64-2.832-1.9 0-3.22 1.416-3.48 3.336zm19.12 6.624h-1.49v-7.104c0-1.92-.74-2.784-2.42-2.784-1.18 0-2.31.528-3.34 1.56v8.328h-1.49v-10.992l1.49-.312v1.8c1.2-1.2 2.45-1.8 3.74-1.8 2.21 0 3.51 1.344 3.51 3.768zm8.85-.216c-.82.384-1.63.576-2.45.576-2.04 0-3.02-1.152-2.95-3.456l.17-6.504-1.68-.096.07-.936 1.66-.384.07-2.496h1.41l-.07 2.568h3.67l-.07 1.32h-3.65l-.16 6.576c-.05 1.368.48 2.064 1.6 2.064.6 0 1.3-.168 2.12-.528zm-161.18 16.6c0 .312-.1.552-.267.768-.168.216-.432.336-.744.336s-.576-.12-.744-.336-.264-.456-.264-.768c0-.288.096-.528.264-.744s.432-.312.744-.312.576.096.744.312c.167.216.267.456.267.744zm-.267 14.616h-1.488v-10.992l1.488-.312zm12.237 0h-1.49v-7.104c0-1.92-.74-2.784-2.42-2.784-1.18 0-2.3.528-3.34 1.56v8.328h-1.48v-10.992l1.48-.312v1.8c1.2-1.2 2.45-1.8 3.75-1.8 2.21 0 3.5 1.344 3.5 3.768zm14.32-.216c-.82.384-1.64.576-2.45.576-2.04 0-3.03-1.152-2.95-3.456l.16-6.504-1.68-.096.08-.936 1.65-.384.07-2.496h1.42l-.07 2.568h3.67l-.07 1.32h-3.65l-.17 6.576c-.05 1.368.48 2.064 1.61 2.064.6 0 1.3-.168 2.11-.528zm3.1-5.232v.12c.07 2.52 1.56 4.248 3.84 4.248 1.2 0 2.25-.312 3.19-.912l.29 1.368c-1.01.624-2.19.936-3.53.936-3.14 0-5.3-2.328-5.3-5.712 0-1.728.5-3.144 1.48-4.248.99-1.104 2.21-1.656 3.7-1.656 2.45 0 4.01 1.584 4.01 4.056 0 .648-.07 1.224-.24 1.752zm.09-1.176 6.1-.024c.02-.072.02-.24.02-.48 0-1.728-.93-2.832-2.64-2.832-1.89 0-3.21 1.416-3.48 3.336zm18.45 6c-1 .624-2.13.936-3.4.936-3.29 0-5.38-2.304-5.38-5.784 0-1.704.5-3.12 1.54-4.2 1-1.08 2.3-1.632 3.86-1.632 1.32 0 2.45.312 3.43.936l-.38 1.344c-.89-.6-1.92-.888-3.05-.888-2.38 0-3.86 1.752-3.86 4.392 0 2.712 1.53 4.44 3.88 4.44 1.11 0 2.12-.312 3.05-.912zm11.5.624h-1.48v-7.104c0-1.848-.8-2.784-2.36-2.784-1.22 0-2.37.528-3.4 1.56v8.328h-1.49v-16.176l1.49-.312v6.936c1.17-1.176 2.44-1.752 3.81-1.752 2.16 0 3.43 1.344 3.43 3.768zm12.12 0h-1.49v-7.104c0-1.92-.74-2.784-2.42-2.784-1.18 0-2.31.528-3.34 1.56v8.328h-1.49v-10.992l1.49-.312v1.8c1.2-1.2 2.45-1.8 3.75-1.8 2.2 0 3.5 1.344 3.5 3.768zm13.37-5.52c0 1.728-.51 3.12-1.54 4.2s-2.3 1.632-3.86 1.632-2.84-.528-3.82-1.584-1.49-2.448-1.49-4.2c0-1.728.53-3.144 1.56-4.224s2.31-1.608 3.87-1.608 2.83.528 3.81 1.584c.99 1.056 1.47 2.448 1.47 4.2zm-1.47.048c0-2.712-1.53-4.488-3.89-4.488-2.3 0-3.86 1.8-3.86 4.44 0 2.712 1.54 4.488 3.89 4.488 2.3 0 3.86-1.8 3.86-4.44zm5.72 5.472v-16.488l-1.49.312v16.176zm13.44-5.52c0 1.728-.5 3.12-1.54 4.2-1.03 1.08-2.3 1.632-3.86 1.632s-2.83-.528-3.82-1.584c-.98-1.056-1.48-2.448-1.48-4.2 0-1.728.52-3.144 1.56-4.224 1.03-1.08 2.3-1.608 3.86-1.608s2.83.528 3.82 1.584c.98 1.056 1.46 2.448 1.46 4.2zm-1.46.048c0-2.712-1.54-4.488-3.89-4.488-2.31 0-3.87 1.8-3.87 4.44 0 2.712 1.54 4.488 3.89 4.488 2.31 0 3.87-1.8 3.87-4.44zm5.07-1.68c0 1.632 1.1 2.808 2.83 2.808.84 0 1.49-.264 1.99-.816.5-.528.74-1.224.74-2.064s-.24-1.536-.72-2.064c-.5-.528-1.2-.792-2.08-.792-1.71 0-2.76 1.2-2.76 2.928zm1.29 7.464c-1.32.36-2.23 1.224-2.23 2.16 0 1.32 1.46 2.256 3.74 2.256 2.31 0 4.13-1.104 4.13-2.592 0-1.248-1.05-1.752-3.33-1.752-.92 0-1.68-.024-2.31-.072zm-1.29-.288c-.99-.36-1.49-.936-1.49-1.752 0-.912.74-1.704 1.8-2.088-1.18-.72-1.78-1.848-1.78-3.36 0-2.376 1.75-4.128 4.32-4.128.96 0 1.83.216 2.59.648l3.05-.24.07 1.488-2.42-.24c.5.504.89 1.56.89 2.472 0 2.352-1.8 4.032-4.27 4.032-.51 0-1.04-.096-1.64-.312-.81.336-1.22.768-1.22 1.32 0 .744.62 1.128 2.5 1.128h1.41c3.05 0 4.56.96 4.56 2.88 0 1.176-.57 2.16-1.7 2.928s-2.5 1.152-4.08 1.152c-2.95 0-4.97-1.296-4.97-3.216 0-1.248.96-2.352 2.38-2.712zm18.74-11.016-4.28 10.872-.88 2.376c-.96 2.616-1.97 3.456-3.56 3.456-.64 0-1.34-.168-2.13-.504l.45-1.368c.6.312 1.16.48 1.68.48.92 0 1.52-.552 2.26-2.544l.74-1.944-4.29-10.824h1.61l3.45 9.072 3.39-9.072z"/><path d="m106.304 179.592-6.648 13.824h2.016l6.768-14.064v-1.704h-9.96l-.072 1.944zm3.673 3.528c0-2.184.72-4.152 2.136-5.904 1.416-1.728 3.432-2.904 6.096-3.528l.6 1.872c-3.72.936-5.952 2.808-6.696 5.616l.048.024c1.08-.984 2.352-1.488 3.816-1.488 2.472 0 4.392 1.896 4.392 4.656 0 2.904-2.016 4.992-5.112 4.992-1.656 0-2.928-.6-3.864-1.8-.936-1.176-1.416-2.664-1.416-4.44zm2.088.624c0 2.112 1.296 3.792 3.288 3.792 1.824 0 3.024-1.248 3.024-3.072 0-1.8-1.2-3-2.928-3-1.296 0-2.52.6-3.264 1.272-.072.288-.12.624-.12 1.008zm11.709 2.544c.432 0 .792.144 1.08.432.288.312.432.672.432 1.08s-.144.768-.432 1.08-.648.48-1.08.48c-.456 0-.816-.168-1.104-.48-.312-.312-.456-.672-.456-1.08s.144-.768.456-1.08c.288-.288.648-.432 1.104-.432zm13.703-2.736c0 2.184-.696 4.152-2.112 5.88-1.416 1.752-3.456 2.928-6.12 3.552l-.6-1.872c3.72-.936 5.952-2.808 6.696-5.616l-.048-.024c-1.08.984-2.352 1.488-3.816 1.488-2.472 0-4.392-1.896-4.392-4.656 0-2.904 2.016-4.992 5.112-4.992 1.656 0 2.952.6 3.888 1.776.936 1.2 1.392 2.688 1.392 4.464zm-2.088-.624c0-2.112-1.296-3.792-3.288-3.792-1.824 0-3.024 1.248-3.024 3.072 0 1.8 1.2 3 2.928 3 1.296 0 2.52-.6 3.264-1.272.072-.288.12-.624.12-1.008zm11.415-5.496c0 2.208-1.56 3.96-3.984 3.96-2.376 0-3.984-1.752-3.984-3.96 0-1.128.36-2.064 1.104-2.856.72-.768 1.68-1.152 2.88-1.152s2.16.384 2.904 1.152c.72.768 1.08 1.728 1.08 2.856zm7.32-3.768-11.952 15.696h-1.512l11.952-15.696zm1.8 11.928c0 1.128-.36 2.064-1.08 2.832-.744.792-1.704 1.176-2.904 1.176s-2.16-.384-2.88-1.152c-.744-.768-1.104-1.728-1.104-2.856 0-2.208 1.584-3.96 3.984-3.96 2.376 0 3.984 1.752 3.984 3.96zm-10.416-8.16c0-.792-.24-1.44-.72-1.968-.504-.528-1.152-.792-1.968-.792s-1.464.264-1.944.792c-.504.528-.744 1.176-.744 1.968 0 .744.24 1.392.744 1.92.48.528 1.128.792 1.944.792s1.464-.264 1.968-.792c.48-.528.72-1.176.72-1.92zm9.12 8.16c0-.744-.24-1.392-.72-1.92-.504-.528-1.152-.792-1.968-.792s-1.464.264-1.944.792c-.504.528-.744 1.176-.744 1.92 0 .792.24 1.44.744 1.968.48.528 1.128.792 1.944.792s1.464-.264 1.968-.792c.48-.528.72-1.176.72-1.968z"/><path d="m355.48 184.92c2.28.36 3.528 1.968 3.528 3.792 0 1.464-.528 2.64-1.56 3.48-1.056.864-2.376 1.296-3.96 1.296-1.704 0-3.072-.312-4.056-.912l.36-1.848c.936.648 2.184.96 3.72.96 2.088 0 3.432-1.008 3.432-2.832 0-1.608-1.272-2.448-3.264-2.52-.6-.024-1.344.048-2.208.192v-1.704c3.24-.744 4.848-1.896 4.848-3.432 0-1.44-.984-2.232-2.712-2.232-1.056 0-2.208.456-3.456 1.392l-.696-1.68c1.32-1.032 2.784-1.56 4.368-1.56 2.904 0 4.656 1.536 4.656 3.792 0 1.704-1.296 3.144-3 3.816zm15.109-5.928c1.08 1.128 1.608 2.568 1.608 4.344s-.528 3.216-1.608 4.344-2.496 1.68-4.2 1.68-3.096-.552-4.176-1.68c-1.08-1.104-1.608-2.544-1.608-4.344s.528-3.24 1.608-4.368c1.08-1.104 2.472-1.656 4.176-1.656s3.12.552 4.2 1.68zm-1.416 7.32c.696-.792 1.056-1.776 1.056-2.976s-.36-2.184-1.056-2.976c-.72-.792-1.656-1.176-2.784-1.176s-2.064.384-2.76 1.152c-.696.792-1.056 1.776-1.056 3s.36 2.208 1.056 2.976c.696.792 1.632 1.176 2.76 1.176s2.064-.384 2.784-1.176zm6.234-.024c.432 0 .792.144 1.08.432.288.312.432.672.432 1.08s-.144.768-.432 1.08-.648.48-1.08.48c-.456 0-.816-.168-1.104-.48-.312-.312-.456-.672-.456-1.08s.144-.768.456-1.08c.288-.288.648-.432 1.104-.432zm9.332-5.4c1.344-.552 2.016-1.464 2.016-2.712 0-1.536-1.152-2.52-2.736-2.52-1.8 0-2.856.96-2.856 2.28 0 .288.072.552.216.816s.312.456.48.624.456.36.864.576c.384.216.696.36.912.456.216.12.6.264 1.104.48zm-1.44 1.344c-1.488.48-2.376 1.512-2.376 2.856 0 1.512 1.296 2.52 3.12 2.52 1.896 0 2.928-.816 2.928-2.256 0-.264-.048-.504-.12-.72s-.216-.432-.432-.648-.408-.384-.552-.504-.408-.264-.816-.456-.672-.312-.792-.384c-.144-.072-.456-.192-.96-.408zm2.928-.672c1.848.936 2.76 2.112 2.76 3.552 0 2.4-1.848 4.248-5.04 4.248-3.24 0-5.016-1.704-5.016-4.056 0-1.8 1.44-3.336 2.88-3.72-1.68-.864-2.64-1.824-2.64-3.432 0-2.52 1.896-4.248 4.944-4.248 3.024 0 4.632 1.776 4.632 4.056 0 1.68-1.176 3.048-2.52 3.6zm12.116-4.128c0 2.208-1.56 3.96-3.984 3.96-2.376 0-3.984-1.752-3.984-3.96 0-1.128.36-2.064 1.104-2.856.72-.768 1.68-1.152 2.88-1.152s2.16.384 2.904 1.152c.72.768 1.08 1.728 1.08 2.856zm7.32-3.768-11.952 15.696h-1.512l11.952-15.696zm1.8 11.928c0 1.128-.36 2.064-1.08 2.832-.744.792-1.704 1.176-2.904 1.176s-2.16-.384-2.88-1.152c-.744-.768-1.104-1.728-1.104-2.856 0-2.208 1.584-3.96 3.984-3.96 2.376 0 3.984 1.752 3.984 3.96zm-10.416-8.16c0-.792-.24-1.44-.72-1.968-.504-.528-1.152-.792-1.968-.792s-1.464.264-1.944.792c-.504.528-.744 1.176-.744 1.968 0 .744.24 1.392.744 1.92.48.528 1.128.792 1.944.792s1.464-.264 1.968-.792c.48-.528.72-1.176.72-1.92zm9.12 8.16c0-.744-.24-1.392-.72-1.92-.504-.528-1.152-.792-1.968-.792s-1.464.264-1.944.792c-.504.528-.744 1.176-.744 1.92 0 .792.24 1.44.744 1.968.48.528 1.128.792 1.944.792s1.464-.264 1.968-.792c.48-.528.72-1.176.72-1.968z"/><path d="m611.128 189h-9.024v-1.704c.336-.264.792-.6 1.392-1.032.6-.408 1.056-.744 1.368-.984s.696-.528 1.152-.888.792-.648 1.056-.888c.24-.24.48-.504.744-.816.264-.288.432-.576.552-.84.096-.264.144-.528.144-.792 0-1.128-.864-1.896-2.28-1.896-1.032 0-2.184.456-3.408 1.368l-.696-1.68c1.296-1.032 2.736-1.536 4.32-1.536 2.472 0 4.152 1.392 4.152 3.504 0 .264-.024.504-.072.744-.072.264-.12.48-.192.696s-.168.432-.336.648c-.168.24-.312.432-.432.6s-.288.36-.552.6c-.264.264-.48.456-.624.576s-.384.312-.72.576c-.36.264-.6.456-.768.576s-.48.336-.888.648c-.432.312-.744.528-.912.648h6.024zm7.321-4.08c2.28.36 3.528 1.968 3.528 3.792 0 1.464-.528 2.64-1.56 3.48-1.056.864-2.376 1.296-3.96 1.296-1.704 0-3.072-.312-4.056-.912l.36-1.848c.936.648 2.184.96 3.72.96 2.088 0 3.432-1.008 3.432-2.832 0-1.608-1.272-2.448-3.264-2.52-.6-.024-1.344.048-2.208.192v-1.704c3.24-.744 4.848-1.896 4.848-3.432 0-1.44-.984-2.232-2.712-2.232-1.056 0-2.208.456-3.456 1.392l-.696-1.68c1.32-1.032 2.784-1.56 4.368-1.56 2.904 0 4.656 1.536 4.656 3.792 0 1.704-1.296 3.144-3 3.816zm7.294 1.368c.432 0 .792.144 1.08.432.288.312.432.672.432 1.08s-.144.768-.432 1.08-.648.48-1.08.48c-.456 0-.816-.168-1.104-.48-.312-.312-.456-.672-.456-1.08s.144-.768.456-1.08c.288-.288.648-.432 1.104-.432zm5.605 2.712h1.944v-11.712l-4.8 1.584.072 1.8 2.784-.888zm12.667-11.568c0 2.208-1.56 3.96-3.984 3.96-2.376 0-3.984-1.752-3.984-3.96 0-1.128.36-2.064 1.104-2.856.72-.768 1.68-1.152 2.88-1.152s2.16.384 2.904 1.152c.72.768 1.08 1.728 1.08 2.856zm7.32-3.768-11.952 15.696h-1.512l11.952-15.696zm1.8 11.928c0 1.128-.36 2.064-1.08 2.832-.744.792-1.704 1.176-2.904 1.176s-2.16-.384-2.88-1.152c-.744-.768-1.104-1.728-1.104-2.856 0-2.208 1.584-3.96 3.984-3.96 2.376 0 3.984 1.752 3.984 3.96zm-10.416-8.16c0-.792-.24-1.44-.72-1.968-.504-.528-1.152-.792-1.968-.792s-1.464.264-1.944.792c-.504.528-.744 1.176-.744 1.968 0 .744.24 1.392.744 1.92.48.528 1.128.792 1.944.792s1.464-.264 1.968-.792c.48-.528.72-1.176.72-1.92zm9.12 8.16c0-.744-.24-1.392-.72-1.92-.504-.528-1.152-.792-1.968-.792s-1.464.264-1.944.792c-.504.528-.744 1.176-.744 1.92 0 .792.24 1.44.744 1.968.48.528 1.128.792 1.944.792s1.464-.264 1.968-.792c.48-.528.72-1.176.72-1.968z"/><path d="m855.864 189h1.944v-11.712l-4.8 1.584.072 1.8 2.784-.888zm7.387-5.16c.792-.072 1.368-.12 1.704-.12 3.144 0 5.16 1.8 5.16 4.608 0 1.512-.504 2.76-1.512 3.72-1.032.96-2.28 1.44-3.768 1.44-1.608 0-3-.336-4.176-1.032l.36-1.944c1.32.744 2.616 1.104 3.84 1.104 1.896 0 3.24-1.272 3.24-3.192 0-1.68-1.296-3-3.384-3-1.056 0-2.04.144-2.952.408l-.528-.48.984-7.704h7.488l.072 1.944h-5.952zm10.187 2.448c.432 0 .792.144 1.08.432.288.312.432.672.432 1.08s-.144.768-.432 1.08-.648.48-1.08.48c-.456 0-.816-.168-1.104-.48-.312-.312-.456-.672-.456-1.08s.144-.768.456-1.08c.288-.288.648-.432 1.104-.432zm15.108 2.472-.072-1.872h-2.28v-9.6h-1.752l-7.752 10.32.192 1.152h7.392v4.656h1.92v-4.656zm-4.272-1.872h-4.824l4.824-6.528zm12.85-9.456c0 2.208-1.56 3.96-3.984 3.96-2.376 0-3.984-1.752-3.984-3.96 0-1.128.36-2.064 1.104-2.856.72-.768 1.68-1.152 2.88-1.152s2.16.384 2.904 1.152c.72.768 1.08 1.728 1.08 2.856zm7.32-3.768-11.952 15.696h-1.512l11.952-15.696zm1.8 11.928c0 1.128-.36 2.064-1.08 2.832-.744.792-1.704 1.176-2.904 1.176s-2.16-.384-2.88-1.152c-.744-.768-1.104-1.728-1.104-2.856 0-2.208 1.584-3.96 3.984-3.96 2.376 0 3.984 1.752 3.984 3.96zm-10.416-8.16c0-.792-.24-1.44-.72-1.968-.504-.528-1.152-.792-1.968-.792s-1.464.264-1.944.792c-.504.528-.744 1.176-.744 1.968 0 .744.24 1.392.744 1.92.48.528 1.128.792 1.944.792s1.464-.264 1.968-.792c.48-.528.72-1.176.72-1.92zm9.12 8.16c0-.744-.24-1.392-.72-1.92-.504-.528-1.152-.792-1.968-.792s-1.464.264-1.944.792c-.504.528-.744 1.176-.744 1.92 0 .792.24 1.44.744 1.968.48.528 1.128.792 1.944.792s1.464-.264 1.968-.792c.48-.528.72-1.176.72-1.968z"/><path d="m1106.86 189h1.95v-11.712l-4.8 1.584.07 1.8 2.78-.888zm7.39-5.16c.79-.072 1.37-.12 1.7-.12 3.15 0 5.16 1.8 5.16 4.608 0 1.512-.5 2.76-1.51 3.72-1.03.96-2.28 1.44-3.77 1.44-1.6 0-3-.336-4.17-1.032l.36-1.944c1.32.744 2.61 1.104 3.84 1.104 1.89 0 3.24-1.272 3.24-3.192 0-1.68-1.3-3-3.39-3-1.05 0-2.04.144-2.95.408l-.53-.48.99-7.704h7.49l.07 1.944h-5.95zm10.19 2.448c.43 0 .79.144 1.08.432.29.312.43.672.43 1.08s-.14.768-.43 1.08-.65.48-1.08.48c-.46 0-.82-.168-1.11-.48-.31-.312-.45-.672-.45-1.08s.14-.768.45-1.08c.29-.288.65-.432 1.11-.432zm15.11 2.472-.08-1.872h-2.28v-9.6h-1.75l-7.75 10.32.19 1.152h7.39v4.656h1.92v-4.656zm-4.28-1.872h-4.82l4.82-6.528zm12.85-9.456c0 2.208-1.56 3.96-3.98 3.96-2.38 0-3.98-1.752-3.98-3.96 0-1.128.36-2.064 1.1-2.856.72-.768 1.68-1.152 2.88-1.152s2.16.384 2.9 1.152c.72.768 1.08 1.728 1.08 2.856zm7.32-3.768-11.95 15.696h-1.51l11.95-15.696zm1.8 11.928c0 1.128-.36 2.064-1.08 2.832-.74.792-1.7 1.176-2.9 1.176s-2.16-.384-2.88-1.152c-.74-.768-1.1-1.728-1.1-2.856 0-2.208 1.58-3.96 3.98-3.96 2.38 0 3.98 1.752 3.98 3.96zm-10.41-8.16c0-.792-.24-1.44-.72-1.968-.51-.528-1.15-.792-1.97-.792s-1.46.264-1.94.792c-.51.528-.75 1.176-.75 1.968 0 .744.24 1.392.75 1.92.48.528 1.12.792 1.94.792s1.46-.264 1.97-.792c.48-.528.72-1.176.72-1.92zm9.12 8.16c0-.744-.24-1.392-.72-1.92-.51-.528-1.15-.792-1.97-.792s-1.46.264-1.94.792c-.51.528-.75 1.176-.75 1.92 0 .792.24 1.44.75 1.968.48.528 1.12.792 1.94.792s1.46-.264 1.97-.792c.48-.528.72-1.176.72-1.968z"/></g><rect fill="#ec8539" fill-opacity=".2" height="50.0001" rx="10" transform="matrix(0 -1 1 0 -159 221)" width="190" x="31" y="190"/><rect fill="#ec8539" fill-opacity=".2" height="49.0001" rx="10" transform="matrix(0 -1 1 0 93 471)" width="189" x="282" y="189"/><rect fill="#ec8539" fill-opacity=".2" height="49.0001" rx="10" transform="matrix(0 -1 1 0 345 723)" width="189" x="534" y="189"/><rect fill="#ec8539" fill-opacity=".2" height="49.0001" rx="10" transform="matrix(0 -1 1 0 596 974)" width="189" x="785" y="189"/><rect fill="#ec8539" fill-opacity=".2" height="49.0001" rx="10" transform="matrix(0 -1 1 0 847 1225)" width="189" x="1036" y="189"/><rect fill="#ec8539" height="50.0001" rx="10" transform="matrix(0 -1 1 0 -159 221)" width="146.11" x="31" y="190"/><rect fill="#ec8539" height="49.0001" rx="10" transform="matrix(0 -1 1 0 345 723)" width="43.659" x="534" y="189"/><rect fill="#ec8539" height="49.0001" rx="10" transform="matrix(0 -1 1 0 596 974)" width="29.106" x="785" y="189"/><rect fill="#ec8539" height="49.0001" rx="10" transform="matrix(0 -1 1 0 847 1225)" width="29.106" x="1036" y="189"/><rect fill="#ec8539" height="49.0001" rx="10" transform="matrix(0 -1 1 0 93 471)" width="58.212" x="282" y="189"/></svg>
