<svg height="135.95" viewBox="0 0 140.8 135.95" width="140.8" xmlns="http://www.w3.org/2000/svg"><path d="m48 25a9.47 9.47 0 0 1 3.63 4.2c.54 1.62 2.75-.09 3.09-1.1s1.7-5.64 3.15-2.81c.57 1.11 1.4 1.58 1.88 3.15a11.35 11.35 0 0 0 2.25 3.56c1.15 1.25 1.82 1.83 3.71 1.72 1.27-.08 4.41-2.21 5.31-3.2.13-2-.31-2.58-.81-4.31-.64-2.17-.62-2.58.87-4.52.89-1.15 4.4-5.6 5.66-2.72.68 1.54-.41 5.62-.34 7.56.09 2.37-2.7 4.32-2.59 8.06.06 2.08.64 2.1 1.08 4 0 .09.11 1.28.11 1.38.08 1.86.69 4.77-1.67 4.77s-3.68.61-3.85 3.11c-.12 1.82-.65 3.29 1.41 4.14 2.94 1.2-1.39 6 1.13 7.65 2.73 1.82 1.94 6.4 5.38 7.78 1.88.75 4.81-.74 4.12-3.38-.76-2.88-.41-3.85-1.78-7-2-4.57-1-9 1-13.32 1.77-3.82-.45-6.86 2.77-9.44 5.12-4.09 6.74 8.84 15.14.41 3.11-3.11-3.4-7.4 2.79-9.9 3.06-1.24 2.38-4.59 4-7.51 1.47-2.64 0-3.54-1.23-5.68-.51-.91-2-1.47-2.09-1.83 0-.09.09-6.28.22-6.79.36-1.33 1.08-2.67 2.67-2.73.74 0 .64 2.18 5 1.55 8.8-1.28 3.92 7.35 11.57 3.27 4.28-2.28 1.07 2.18 4.63 3.21 1.58.45 8.37-3.39 7.47.67-.35 1.56-3.19 5.56.88 6.3 2.22.4 5.48.63 6 3.45.24 1.24-1.94 3.49-3.13 4.17-1.52.87-5.17 4.41-5.21 6.29-.07 2.95.1 1 1.11 3.06.29 5.89.75 8.53-3.54 12.82-3.21 3.2-3.65 7.4-3.16 11.76.7 6.26 7.11 10.2 7.49 12.69.4 2.64-2 3.34-3.26 6.43a7.08 7.08 0 0 0 -.63 4.28c.14 1.7-1 4.21-1.36 5.81-1.54 4.6-1.68 2.19-4.51 4.11-1.6 1.08-2.66 3.23-.4 4.25 3 1.36-2.18 3.3-3.31 7-.59 1.92.69 2.19 2.18 3.23.9.63 5.44 1.49 4.57 3.85a11.67 11.67 0 0 1 -1.34 2.8l-1.62 2.55-9.35 1.2c-3.92 1.43-5.61-.45-9.36 3.48-2.22 2.31-5.44 4.12-8.53 2.22s-8.52 1.26-10.49 3.74c-1.48 1.84-4.53 4.1-6.92 4.25-2.7.18-8.94-.39-10.8 2-3.1 3.93.25 4-6.51 5l-2.59-.08c-.73-.15-2.46-.44-3-.6-4.4-1.28-8-.81-10.29-5a28.33 28.33 0 0 0 -3.69-4.44c-1.59-1.78-6.65-2.31-8.87-2.2s-7 .3-9.24-.18c-.89-.2-9.71-1.1-10.46-1.09-5.65.13-6-.88-8.77-5.33a42.06 42.06 0 0 1 -4.14-11.33 32.91 32.91 0 0 0 -1.09-4.81l3-2.81c.28-1.48 4.27-3.57 5.55-4.1 3.79-1.56 2.48-.37 4.31-.14 3.45.42 1.39-2.16.79-3.47-1.27-2.77 4.45-3.68 5.82-4.16 1.87-.67 5-.44 6-.73 2.88-.84 1.61.29 5.25-1.77 1.62-3 .59-2.42 0-4.64-.53-1.92-1.49-3.17 0-4.52 2.07-1.93 4.83-4.08 7.82-3.49 3.59.71 6-4.11 5.1-7.12a35.18 35.18 0 0 1 -1.24-6.14c-.36-2.22 1-5.86.73-6.41-1.46-2.71-4 .87-6.71 1.57-4.6 1.18-4.19.16-3.32-3.56.55-2.38 2.86-4.26 2.24-5.78-1.45-3.53-2.05-1.9-2.61-6.85 1.23 0 1.59.11 2.73.06s3-.59 3.58-1.59c1.13-1.83 1-1.37 1.33-3.47.19-1.11 2.33-5 3.57-5.33l.2-.07z" fill="#191919" fill-rule="evenodd" stroke="#fff" stroke-miterlimit="1.18" stroke-width=".51"/></svg>