<svg height="70.09" viewBox="0 0 129.08 70.09" width="129.08" xmlns="http://www.w3.org/2000/svg"><path d="m15.87 27c4.4-4.76 8-6.8 12.23-12 3.17-4 4.36-3.5 7.07-8.5.77-1.41 5.83-9.5 6.93-4.8 1 4.19 2.9 10.77 7.61 11.61 3.9.68 4.31-.29 8.06 1.87.26.15 10.49 2.43 11 2.42 4.07-.05 6.16-.37 10.23.23 7.43 1.09 8.51-6.34 16.06-9.13 1-.37 2.93 4.27 14.86-1 3.65-1.61 14.8-4.25 15.93 1.67.48 2.52 2.51 5.14 3 8.68-10.76 3.27-35.6 21.3-35.85 21.25a15.33 15.33 0 0 1 -3.44-1.42c-1.59-.88-4.16.23-7.36 2.49-11.1 7.83-29.94 29.47-42.2 29.47-4 0-6.77-2.06-9.1-3.94.35-.59 3.18-7.36 3.21-7.84.22-3.75-1.4-4.48-4.62-4.48s-9.71 3.53-12.68 5.27c-3.4 2-8.14 2-12 3.06s-5.8-1.32-3.38-3.79c1.28-1.31 2.82-2 4.49-3.72s3.21-4.65 5.08-6.4a10.14 10.14 0 0 0 3.69-6.91c.48-3.67 1.53-4.4 1.53-8.47 0-2.22-.36-3.61-.34-5.67z" fill="#191919" fill-rule="evenodd" stroke="#fff" stroke-miterlimit="1.18" stroke-width=".51"/></svg>