<svg height="117.93" viewBox="0 0 132.28 117.93" width="132.28" xmlns="http://www.w3.org/2000/svg"><path d="m102.78 97.86c1.24 0 1.59.11 2.73.06s3-.59 3.59-1.59a5.79 5.79 0 0 0 1.32-3.47c.19-1.11 2.33-5 3.58-5.33l.2-.07 3.65-1.1a9.54 9.54 0 0 1 3.92-5.51c1.35-.93 4.59-5.25 4.84-6.77 1-6.06-3.31-.77-4.18-5.5s1.62-11.25.47-13.95a10.55 10.55 0 0 1 .56-8c2.54-4.59 3.46-3.06 4.52-9.55l4.07-7.3-19.17 1c-7.4.36-43.76 2.78-47.67-3.48-12.09-5.46-29.73-11.87-37.64-22.96-3.41-.85-4.77-4.52-9.29-4l-11.45 1.18a28.37 28.37 0 0 0 -6.57 8.93l.87 8.08c1.12 4.43 2.34 4.35 3.26 7 1.69 4.85-.32 8.47.89 13.47.74 3 3.59 4.2 5.29 7.4 2.95 5.56.72 6.43-1.42 11.88a16.51 16.51 0 0 0 -1.47 8.44c1.66 4.14 1.15 3.83 1.93 7.47 1.29 6 2.23 11.85 6.07 16.69 3.07 3.86 3.36 10.63 3.64 15.36.11 1.71 2.8 7.79 3.92 8.44 1.69.76 1.3.83 2.49 1.81 1.69 1.38 2.75-1.2 2.9-2.59a4.05 4.05 0 0 1 1.48-2.8c.46-.3 1.27.93 1.54 1.3.94 1.28 1.36 4.64 3.57 4.06 1.77-.47 2.15 2.17 5.57.93 2.58-1 .45-3.85.88-6.22.35-1.94.14-1.49 1.39-3.05 2-2.52.62-3.17-.28-5.73-.41-1.18-.76-1-.54-2.63 0-.21.1-.33.12-.58 2.08-1.28 2.77-1.35 5.07-.79a17.57 17.57 0 0 1 5.27 3.28c3.14 3.91 2.93.25 5.88.87 1.58.34 3.16-.17 2.79-2.11-.23-1.21-.29-2.56 1-3.2 1.82-.89 4.5.6 5.92 1.68a16.15 16.15 0 0 0 8.51 3c2.1 0 5.23.53 6.14 2.69s.92 3.79 1.38 6.07c.49 2.44.14 2.08 1.44 4.46 1.89.7 3.22 1.68 4.34-.77.64-1.41-.68-7.46 0-9.4.9-2.39 1.67-1.41 3.56-3 3.07-2.62 1-4.9 3.91-6.1.63-.26 2.93.6 3.46 1a11.13 11.13 0 0 1 1.7 1.07z" fill="#191919" fill-rule="evenodd" stroke="#fff" stroke-miterlimit="1.18" stroke-width=".51"/></svg>