<svg height="107.43" viewBox="0 0 128.28 107.43" width="128.28" xmlns="http://www.w3.org/2000/svg"><path d="m126.24 15.62c1.25 2.4 2.71 5.88 1 8.51a9.6 9.6 0 0 1 -3.51 3.31c-4.09 2-3.4 2.13-4.8 5.87l1.27 2.39a2.71 2.71 0 0 0 -.58.21c-4.57 2.35-5.41 1.76-8.83 6.19-4 5.25-4.17 8.66-11.31 10.15-3.72.77-3.48-.81-5.44-1.56-1.57-.6-4.67-3-6-1.54-1.84 2.09-1.13 2.92-2.47 5.68a19.7 19.7 0 0 0 -.93 4c0 2.19-2.44 5.86-4.11 6.57s-3.3 2.42-4.63 3.27c-3.62 2.3-4.81 6.31-7.42 8.35-2 1.61-3.4 2.61-6 3-2.19.28-5.84 1.53-6.87 3.63-1.68 3.44-2 2.61-4.89 4.19-3.95 2.13-1.39-.64-6.82 3.57l-5.32 1.37-.77.48c-1 .65-3.69 2.76-4.41 3.15-1.73.93-1.49 2.24-5 3.7s-4.44-.15-7.62.4c-3.44.6-5.67 3.23-8.22 4.86-5.4 3.36-7.41 1.63-12.32-1.52l4.16-11a37.6 37.6 0 0 0 1.11-6.63c-.09-1.91 2-5.23 3.55-6 6.32-3.33 4-11.69 1.55-16.83-1-2.13-1.9-3.69-3-5.72-1.2-2.29-4.85-7.44-4.85-9.88 0-3 .61-4.41.59-7.62l.65-10.17c4.24-1.32 2.69-.56 5.39 1 3.94 2.3 3.86-2.8 7.23-1.72 3 1 5.68.69 7.61-2.06 2.38-3.39 5.51-4.17 9.31-2.83 2.23.79 2.08 2 5.75 1.86 3.44-.14 5.35-2 9.43.16 2 1.08 1.37 1 2.6 2.91.82 1.31.86 3.64 2.29 4.57 2.52.77 2.43 1.11 4.23 2.38 1 .72 5.78 5.49 6.23 5.3 1.27-.55 1.5-3.46.42-4.78-1.72-2.09 1.49-4.41.92-6.66-.29-1.15-1.8-5.63-.06-6 2.31-.52 4.38-1.38 5-4.07.77-3.3-3.94-3.7-6.88 1.62-1.43 2.59-4.16 5-7.34 4.35-2-.38-2.46-2.6-3.09-4.33-2.34-6.46 5.65-9.22 10.12-11.08 3.31-1.34 1.52-6.62 5.66-6.12 6.69.89 8.74-4.51 16.5-3 2.5.48.89 3.23 3.63 3.75 4.23.79 2.58 5.16 4.11 5.69a4.42 4.42 0 0 1 3.07 2.63c.5 1.07.68 9.81 4.85 6.34 3.02-2.5-3.33-10.91 2.52-10.79 3.88.07 3.86-2.57 3.11-5.42-1.33-5 1.56-3.91 3.31-.71.61 1.13 3.17 6.09 3.81 6.55 2.14 1.57 3.82.41 6.11 2.64a16.85 16.85 0 0 0 2.82 2.13z" fill="#191919" fill-rule="evenodd" stroke="#fff" stroke-miterlimit="1.18" stroke-width=".51"/></svg>