<svg height="149.44" viewBox="0 0 190.99 149.44" width="190.99" xmlns="http://www.w3.org/2000/svg"><path d="m189.77 106.68c-5 4.8-8.31 14.19-9 19.9-1 7.65-2.41 12.06-10.42 13.34a13.67 13.67 0 0 0 -1.69.41c-.46-3.55-2.49-6.16-3-8.68-1.13-5.92-12.28-3.28-15.93-1.67-11.93 5.25-13.86.61-14.86 1-7.55 2.79-8.62 10.23-16.05 9.14-4.08-.6-6.16-.29-10.24-.23-.52 0-10.74-2.27-11-2.43-3.75-2.16-4.16-1.18-8-1.87-4.71-.83-6.63-7.41-7.61-11.61-1.11-4.67-6.17 3.4-6.93 4.81-2.72 5-3.91 4.53-7.08 8.42-4.27 5.23-7.83 7.27-12.23 12l-5-2.65c-.86-1.27-3.23-2.13-4.39-2.87-1.41-.9-3.77-1.8-4.69-2.4-3.3-2.17-2.67-2.33-2.75-5.78-.1-4.69 1.71-9 1.78-13 0-1.88 1-5.67 1-6.66-.06-3.53-1.29-3-3.52-4.34a21.89 21.89 0 0 1 -3.55-3.51c-1.86-2.19-4.59 3-6.09-.19-1.19-2.5-4.26-.09-5.13 1.54-3.22 6.08-5 .81-7 1.65-4.09 1.76-3.65 4-5.44 6.55-3.34 4.77-1 7.6-2.66 12-1.31 3.36-1.4 3.76-4.49 6.44l-3.54-7.12.51-13.69 1.57-13.59c3.66-4.13 3.66-3.13 7.51-5.89 4.07-2.88 3.39-4 6.46-7.63a57.5 57.5 0 0 0 5-8.08c.91-2.52 1.67-4.7 2.45-7.26s3.71-3.94 6.07-4.73c2.2-.73 4.49-3 5.86-4.76.06-.08.69-.81.76-.87 1.82-2.19 2.53-2.47 3.51-5 1.06-2.73 6.46-2.14 9.25-5.58.85-1 2.44-2.36 3.57-3.7s1.87-2.35 2.83-3.49c2.59-3.07 4.93-2.93 7.74-7.18 4.07-6.23 11.65-7.98 17.65-12.62 3.67-2.85 2-5.86 9.53-10.18 1.91-1.1 4.76-1.73 7.21-3.09 5.78-3.21 5.8.78 12.12-.28a9.32 9.32 0 0 0 5.19-3.31c5.4-2.32 5.24-2.73 9.67-5.59 1.05-.68 5-2.68 6.4-1.93 4.66 2.58-1.63 9.68 6 13.58 1.94 1 6.75-.5 7.77-2.46.47-.91 1.32-1.61 1.69-3l.15-.34 4.12-3.3c1 3.93 1.82 6.68 3.15 10.46 1.05 3 3.38 12.73-.22 14.63-1.94 1-3.09 4.86-2.82 7 .37 3-.44 10.08-3.55 11.66-2.14 1.09-2.59 1.59-5 2.11-1.7.36-3.45 3.65-2.68 5.34-.31 3.66.15 3.86 1.08 6.92.56 1.84 5 7.69 7 8.41 2.2.8 3.44 2.08 6.27 2.93 3.3 1 6.19 1.68 9.53 2.44 4.69 1.08 7.54 2.56 12.84 3.35 2.93.43 12.65 1.47 13.88 4.32.93 2.16-.12 7.58-.22 10.61l-.36 11.61z" fill="#191919" fill-rule="evenodd" stroke="#fff" stroke-miterlimit="1.18" stroke-width=".51"/></svg>