<svg height="83.33" viewBox="0 0 205.71 83.33" width="205.71" xmlns="http://www.w3.org/2000/svg"><path d="m3.62 35.83c7-6.39 4.6-9.13 6.31-11.06s5.14-1.21 6.78-2.42c2.77-2.05 2.61-5 6.35-7.88 2.79-2.11 3.65-2.81 7.1-3 4.08-.17 5.8-2 9.34-2.14 4.68-.17 6.91-5.13 15.15-3.54a6.54 6.54 0 0 0 3.92-.19c3 2.39 4 3.78 6.56 6.18 3.39 3.22 7.47-1.86 10.05-2.61 1.17-.35 2-1.08 3.74-1.34 2.14-.32 2.5-.84 4.87-.59 4.21.43 7.75-1.9 11.21-3.84a23.18 23.18 0 0 1 12.83-2.8c.34 0 2-.34 2-.34a33 33 0 0 1 1.17 4.8 42.17 42.17 0 0 0 4.15 11.33c2.74 4.46 3.12 5.47 8.76 5.34.75 0 9.57.89 10.46 1.08 2.21.49 6.9.31 9.24.19s7.28.41 8.87 2.2a28.49 28.49 0 0 1 3.7 4.44c2.29 4.21 5.89 3.74 10.28 5 .56.16 2.3.44 3 .59l2.58.09c3.91 4 4.59 3.46 9.87 4.44 7.13 1.32 5.78 4.59 11.83 6.29a56.86 56.86 0 0 0 5.79 1.63c2.65.46 6.63 1.43 5.83 5.12-.24 1.09-3.06 3.27-4.06 4.12-2 1.71-4.26 10.21-4.26 12.89 0 3-1.82 7.08-4.3 8.83-1.83 1.3-6.21 2.72-7.84 4.49-.15-1.06-.49-1.75-1.1-1.87-2.36 0-9.29 3.55-9.29-.56 0-1.69 1.37-7.47.19-8.65a19.81 19.81 0 0 0 -7.14.28c-.31 2.2-.72 4.19-3.09 3.85-4.62-6.48-20.18-6.38-26.09-1.88-1.67 1.27-5.3 6.05-7.32 5.64-1.57-2.6 0-11.65-4.41-11.65a36.79 36.79 0 0 0 -17.55 5.26c-1.38.92-8.46 7.8-9.86 6.39 0-3.6 3.4-15.08-3.75-13.06-7 2-11.6 10.09-16.42 14.94h-.77c-2.55-4.48 13.48-18-.28-20.49-4.84-6.8-8-4-14.64-3.57-7.8 0-12.48-8.66-20.93.19-8.2 8.6-18.34 9.21-30.12 9.21-2 0-5.87-.35-9.61-.49-.32-.23-.8-1.81-1.07-2.11-.49-.53-1.53-1.33-1.38-2s1.73-1.01 2.62-1.67c1.9-1.42 3.23-2.17 4-4.57a5.69 5.69 0 0 1 2-3 6.41 6.41 0 0 0 2.11-5.25c-.14-2.28-1-3.09-2-5a23.26 23.26 0 0 1 -1.55-3.66z" fill="#191919" fill-rule="evenodd" stroke="#fff" stroke-miterlimit="1.18" stroke-width=".51"/></svg>