<svg height="243.37" viewBox="0 0 178.81 243.37" width="178.81" xmlns="http://www.w3.org/2000/svg"><path d="m7.06 30.45c2.41-2 5.24-4.13 6.88-6.8.77-1.26 3.67-4.17 5.28-3.38 3 1.47 5.84.62 8.57-.88.86-.48 3.64-1.34 5.21-2.12 4.28-2.15 7.36-1.86 11.83-.74 4 1 8.19 5.53 12.24 7.46 4.35 2.06 5.25 3.61 10.65 2.65s12.97 5.26 12.28-3.64c-.34-4.62-.33-4.11-1.77-8.26-.55-1.6-.54-.52-.54-2.67 0-2.45 1.44-3.91 3.23-5.43a.76.76 0 0 1 .43-.16c1.96 2.52 2.91 4.12 6.51 3.82 2.56-.21 5.71-2.54 8.14-1 2.78 1.84 11.18-2.14 14.12-3.24 1.1-.41 4.64-.05 5.79 1 2.65 2.51 5.48 3.55 8.36 6.44 1.24 1.23 5.49 3.56 7.23 2.86 3.91-1.58 4.88-2 8-5.14a29.33 29.33 0 0 0 3.5-3.65c.83-1.42 5.57-7.43 7-7.31l2.62 1.25c-2.4 6-1.48 5.29 1.51 10.11 1.24 2 2.37 4.11 4.36 5.46 4.32 2.94-.85 7.05 2.67 10.56 3.21 3.21 2.12 5.29 3.38 8.94s5.11 2.07 6.54 5.32-.43 5.75-.34 8.25c.34 4.1.41 4.32 2.55 7.25 4 5.52.6 9.91.6 16.37 0 4.23.07 8.52 2.89 11.93 1.53 1.85 2 6 1.78 8.35-.32 3.22-2.25 8.65-.33 11.49.92 1.35-.83 4.94-.77 6.6 0 .18-.29 4.18-.29 4.44a36.49 36.49 0 0 0 -7.64 2.67c-1.7 4-1.29 7.46-5.26 10.44-1.36 5.49-9.94 6.23-9.94 11.56 0 3.11-.39 6.27-2.16 8.93a16.31 16.31 0 0 1 -3.85 3.66c-1.79 1.4-1.68 3.59-2.91 5.17a14.3 14.3 0 0 1 1.59 4.42c4.11 4.12-2.17 18.35-4 22.56-2.46 5.57-3.8 12.34-2.07 18.24 1 3.39 3.82 6.75 3.66 10.43-.19 4.42-9.22 11.56-12.29 15.13-5.2 6.08-15.15.5-20.55 6.4-2.06 2-5.68 8-8.92 6.76-5.62-2.12 1.49-17.95.75-22.65-.29-1.83-.14-10.39-.74-15.39 0-.88 3.46-7.74 4.06-8.72 1.66-2.74 1.29-4.24 2.21-6.48 3.64-8.83 3.56-9.07 4.32-18.86a11.11 11.11 0 0 0 .34-2.29c.25-5 2.36-8.14 3.46-12.6a32.91 32.91 0 0 1 3-8.35c3.06-5.26 2.88-3 4.23-9.62.75-3.64 4.45-7.42 3.29-11-1.25-3.89.76-5 .83-6.35.26-5.14-.2-4.08 2.13-9.4 0-.85-.46-6.38-.68-6.92-1.52-3.6-6.11-4.7-9.64-4.7s-9 11.09-12.51 4.62c-2.15-4 2.11-14-2.48-19.84-1.84-2.35-3.29-7.31-3.85-10.3-.87-4.68-1-3.73-3.25-7.55-2.71-4.52-1-3.63-2.15-7.08s-1.91-4-5.08-5.78c-1.47-.11-3.35-.61-5-.59-8.1.09-8.77 4.74-15.1 7.33-2.42 1-3.86-1.44-4.37-3.52-.75-3-4.48-3.53-6.95-2.89-4.56 1.18-6.64.12-9.83.75-2.64.51-3.4-1.86-4.55-1.57-2.64.68-3.59 3.9-6 6.07s-8.27 1.11-11.52 1.11c-4.07 0-8.84 1-12.58 0a41.7 41.7 0 0 0 -4.57-.68c-1.9-.4-3.82-.7-5.78-.92l-.91-5.35a.9.9 0 0 0 -.05-.43c-1-1.91-.37-2-2.06-3.66-3.38-3.27-.61-5.43 2.62-7 1.65-.82 3.46-2.64 3-4.61-.42-1.73-.3-5.63-.36-7.28z" fill="#191919" fill-rule="evenodd" stroke="#fff" stroke-miterlimit="1.18" stroke-width=".51"/></svg>