<svg height="134.23" viewBox="0 0 110.25 134.23" width="110.25" xmlns="http://www.w3.org/2000/svg"><path d="m39.94 29.5c-2.14 5.64-1.46 5.24-6.36 8.42-2.93 1.9-1.66 4.92-4.08 8.42-1.48 2.15-1.29 2.87-3.62 5-1.46 1.3-3.1 2.42-4.13 4.08-2.87 4.58-3.06 2.66-6.45 5.58-2 1.69-2.34 1.83-3.62 4.2-.6 1.1-2.83 2.63-3.95 3.21-2.8 1.45-3.61 3.83-4.28 4.26l-3.24 4.86c2.41 2.93 2.18 2 5 2.7 1.38.34 2.68 0 4.48.62 3.09 1 2.56 0 4.88 3 1.5 2-2 3.59 2.68 8.21 4.47 4.38-2.14 7.82 2.61 13.69 3.55 4.39 3.52 6.76 4.46 12 .3 1.7 2.34 5.65 3.79 6.5 3 1.76 5.89 1.9 8.07 5.23.26.39 5.19 4.25 5.58 4.44l4.35-2.59c10.07-6 20.62-10.21 29.37-19l18.13-27.23c6.24-9.39 9.09-6.63 13.14-3.37.36-.59 3.19-7.36 3.22-7.84.22-3.75-1.4-4.49-4.62-4.49s-9.71 3.54-12.68 5.28c-3.4 2-8.14 2-12 3.06-4 1.1-5.8-1.32-3.38-3.79 1.28-1.31 2.82-2 4.49-3.72s3.28-4.65 5.14-6.39a10.14 10.14 0 0 0 3.69-6.91c.48-3.67 1.53-4.4 1.53-8.47 0-2.22-.36-3.61-.34-5.67l-5.06-2.66c-.85-1.26-3.22-2.12-4.38-2.86-1.41-.9-3.77-1.8-4.69-2.41-3.31-2.17-2.67-2.33-2.75-5.78-.1-4.69 1.7-9 1.78-13 0-1.87 1-5.67 1-6.65-.06-3.54-1.29-3-3.52-4.35a21.49 21.49 0 0 1 -3.46-3.58c-1.86-2.18-4.59 3-6.1-.19-1.18-2.49-4.26-.08-5.12 1.55-3.22 6.07-5 .8-7 1.64-4.09 1.76-3.66 4-5.45 6.56-3.33 4.76-1 7.59-2.66 12-1.3 3.37-1.39 3.76-4.48 6.44z" fill="#191919" fill-rule="evenodd" stroke="#fff" stroke-miterlimit="1.18" stroke-width=".51"/></svg>