<svg height="131.36" viewBox="0 0 173.44 131.36" width="173.44" xmlns="http://www.w3.org/2000/svg"><path d="m19.54 124c3.59-2.11 3.85-2.81 6.7-4.89 1.89-1.38 8.15-6.06 9.73-2.38.63 1.47 2.76 5.28 4.13 5.75 4.46 1.53 8.21 0 12.85 0 1.29 0 2.49-.09 3.8-.09 4.1-.6 3.73-.34 7.25-.34 2.68 0 5.89-.6 8.89-.6 6 0 8.37 1.58 13.9 2.53 2.86.5 6.21.4 8.66-1.27a84.8 84.8 0 0 0 7.12-5.06c2.93-2.46 10.12-5.8 13.81-7a78.44 78.44 0 0 0 11.23-4.48c2.58-1.29 5.76-3.14 8.3-4.25 5.09-2.2 5-3.66 11-2 3 .83 5.72-1.17 10.37.17l15.91 2.42c-.16-1.78-2.18-8.76-3.12-10-1.21-1.65-2.12-3.19-3.15-4.92-2.26-3.76-2.84-5.85-4.15-9.94-.63-1.95-1-2.84-1.58-5s-.51-5.65-.94-7.71c-.72-3.52-.08-9.47-.76-12.58a55 55 0 0 1 -.4-5.72c-.26-3.54-.27-2.09.62-5.4.72-2.66 1.62-1.84 1.08-5.13l-1.54-11.11c-15.78-3.51-25-13.82-35.27-13.82l-10.74-3.4c-4.67-2.63-11.08-5.7-16.43-6.39-7.35-.94-14.35 1.69-22-.19-3.12-.77-5.58-1.84-8 .38-.66 2-1 7.48-2.53 8.74-2.25 5.41-20.12 3.87-25.25 5.5-4.64 1.47-8.43 4.74-13.32 5.83-6 1.32-11.6 3.05-17.44 4l-3.17 12.82c-1.22 4-.83 4.62-.59 8.42.26 4.11.64 5.29-.37 9.53-.63 2.6-.68 9.06-.39 11.87.22 2.18-1.49 8.53-1.62 11.6-.08 2-1.42 9.06.59 10.19 1.35.76 2.78-8.09 4-8.57 2.93-1.14 2.22 6 2.8 8 1.06 3.6 1.59 4.66 5 6.51 2 1.1 4.86 1.44 3.39 4.67-2.38 4.23-2.43 3.82-6.49 5.7-.54.25-3.76 1.84-3.8 2.38 1.24 2.41 2.7 5.88 1 8.51a9.57 9.57 0 0 1 -3.5 3.31c-4.1 2-3.41 2.13-4.81 5.88l1.28 2.38c4.44.89 2.49.85 5.5 1.93s5.59-1.2 8.1-2.78a4.31 4.31 0 0 0 .68-.51l3.7-3.53z" fill="#191919" fill-rule="evenodd" stroke="#fff" stroke-miterlimit="1.18" stroke-width=".51"/></svg>