<svg height="109.64" viewBox="0 0 149.66 109.64" width="149.66" xmlns="http://www.w3.org/2000/svg"><path d="m16.44 97.78c4.25-1.31 2.69-.55 5.4 1 3.94 2.31 3.85-2.8 7.22-1.72 3 1 5.68.69 7.61-2.06 2.38-3.38 5.52-4.17 9.32-2.83 2.22.79 2.07 2 5.74 1.86 3.45-.13 5.36-2 9.44.16 2 1.09 1.37 1 2.59 2.92.83 1.3.87 3.64 2.3 4.57 2.51.76 2.43 1.1 4.23 2.38 1 .71 5.78 5.49 6.23 5.29 1.27-.54 1.5-3.46.42-4.78-1.72-2.09 1.49-4.41.92-6.66-.29-1.14-1.8-5.62-.07-6 2.32-.53 4.38-1.39 5-4.07.77-3.31-3.94-3.71-6.88 1.61-1.43 2.59-4.16 5-7.34 4.36-2-.39-2.47-2.61-3.1-4.34-2.33-6.47 5.67-9.21 10.14-11.07 3.31-1.38 1.53-6.7 5.67-6.15 6.69.88 8.74-4.51 16.5-3 2.5.48.89 3.24 3.63 3.75 4.23.79 2.58 5.17 4.1 5.7a4.38 4.38 0 0 1 3.08 2.62c.49 1.07.68 9.81 4.85 6.34 3-2.49-3.33-10.88 2.52-10.78 3.88.07 3.85-2.57 3.1-5.42-1.32-5 1.56-3.9 3.31-.71.62 1.13 3.18 6.09 3.81 6.56 2.15 1.57 3.83.41 6.12 2.63a17.2 17.2 0 0 0 2.81 2.13l3.59 1.31c.05-.54 3.26-2.13 3.81-2.38 4.05-1.88 4.11-1.47 6.48-5.69 1.48-3.23-1.38-3.58-3.39-4.68-3.36-1.85-3.89-2.91-4.94-6.51-.59-2 .12-9.17-2.8-8-1.23.48-2.66 9.33-4 8.57-2-1.13-.67-8.21-.59-10.19.14-3.07 1.84-9.41 1.62-11.6-.29-2.81-.23-9.27.39-11.87 1-4.24.64-5.42.38-9.53-.25-3.8-.64-4.4.58-8.42l3.22-12.83a51.77 51.77 0 0 1 -8.79.8c-2.94 1.25-5 3.87-7.79 5.26-4.71.37-9.44-2.66-13.47 1.37l-5.49 2.25c-6.85.43-13.46 0-20.29 0-1.52 4.71-4.16 8.83-8.61 10.73s-14.77 3.08-17.36-2.66c-2.46-1.1-4.66-5-6.95-6.66l-7.13-5.17c-5.71-4.17-11.64.83-15.39 4.89-2.28 2.85-2.59 7.21-6.29 9.12l-10.42 5.36a59.83 59.83 0 0 1 -11.23 3.88l1.32 6.87c1.4 5.28 2.28 3.23 3.48 6.55.56 1.55-1.77 3.63-.17 5.1 1.92 1.78-1.58 7.53.68 8.74 1.71.92 1.24 4.4.51 6a6.56 6.56 0 0 0 -.07 5.61c2.86 5.1.14 8.86.7 11.46.8 3.72.47 3.67 3.75 6.1 2.86 2.11 4.46 2.61 5.05 6.5.29 1.91.84 3.61 1 5.43z" fill="#191919" fill-rule="evenodd" stroke="#fff" stroke-miterlimit="1.18" stroke-width=".51"/></svg>