<svg xmlns="http://www.w3.org/2000/svg" viewBox="0 0 427 118.31">
  <defs>
    <style>

      .cls-2 {
        fill: #ed2424;
      }

      .cls-3 {
        fill: #b9d053;
      }

      .cls-4 {
        fill: #242424;
        stroke: #efefef;
      }

      .cls-4, .cls-5 {
        stroke-width: 2px;
      }

      .cls-5 {
        fill: #f2f2f2;
        stroke: #111115;
        stroke-miterlimit: 10;
      }
    </style>
  </defs>
  <g id="Layer_2" data-name="Layer 2">
    <g id="Layer_1-2" data-name="Layer 1">
      <path class="svgtext" d="M134.68,109.14h-2l-.71,2.94h2v.81h-2.21l-.75,3.11h-.86l.76-3.11h-2.84l-.75,3.11h-.87l.78-3.11H125.6v-.81h1.87l.72-2.94h-2v-.76h2.16l.72-3H130l-.75,3h2.84l.73-3h.87l-.75,3h1.76Zm-3.51,2.94.72-2.94H129l-.71,2.94Zm12.59,3V116H136.6V105.35h7v.93h-6v3.84h5.22V111h-5.22v4.07Zm2,.93V105.35h3.6a5.56,5.56,0,0,1,2.24.42,4.44,4.44,0,0,1,1.59,1.14,4.63,4.63,0,0,1,1,1.69,6.58,6.58,0,0,1,.31,2.06,6.39,6.39,0,0,1-.36,2.2,4.92,4.92,0,0,1-1,1.68,4.62,4.62,0,0,1-1.6,1.08,5.52,5.52,0,0,1-2.12.38Zm7.65-5.34a5.4,5.4,0,0,0-.27-1.75,3.92,3.92,0,0,0-.79-1.4,3.38,3.38,0,0,0-1.26-.9,4.27,4.27,0,0,0-1.73-.33h-2.56v8.79h2.56a4.29,4.29,0,0,0,1.74-.33,3.68,3.68,0,0,0,1.28-.93,4,4,0,0,0,.76-1.39A5.55,5.55,0,0,0,153.45,110.66ZM156,116a6.39,6.39,0,0,1,.08-1.08,3.94,3.94,0,0,1,.38-1,4.36,4.36,0,0,1,.76-.94,5.78,5.78,0,0,1,1.26-.87l.87-.42a6.87,6.87,0,0,0,.89-.5,2.75,2.75,0,0,0,.66-.6,1.19,1.19,0,0,0,.27-.78,1.33,1.33,0,0,0-.14-.57,1.39,1.39,0,0,0-.37-.51,1.78,1.78,0,0,0-.62-.36,2.39,2.39,0,0,0-.84-.13,2.57,2.57,0,0,0-.9.15,3.39,3.39,0,0,0-.69.33,2.64,2.64,0,0,0-.5.42c-.14.14-.23.25-.31.34l-.67-.73.34-.33a3.76,3.76,0,0,1,.66-.48,5.25,5.25,0,0,1,1-.42,3.91,3.91,0,0,1,1.28-.2,3.37,3.37,0,0,1,1.19.2,2.64,2.64,0,0,1,.92.51,2.21,2.21,0,0,1,.57.76,2.12,2.12,0,0,1,.2.9,2.08,2.08,0,0,1-.3,1.1,3.3,3.3,0,0,1-.71.78,4.46,4.46,0,0,1-.87.54l-.72.34a8.7,8.7,0,0,0-1.12.59,3.89,3.89,0,0,0-.74.58,2,2,0,0,0-.43.66,3.74,3.74,0,0,0-.2.83h5.25V116Zm12.55,1.9v-2.66h-5v-.91l5.33-6.9h.7v6.88h1.32v.93h-1.32v2.66Zm-3.93-3.59h4V109Zm7.5,1.69a6.38,6.38,0,0,1,.09-1.08,3.62,3.62,0,0,1,.38-1,4.08,4.08,0,0,1,.76-.94,5.78,5.78,0,0,1,1.26-.87l.87-.42a6.87,6.87,0,0,0,.89-.5,2.75,2.75,0,0,0,.66-.6,1.19,1.19,0,0,0,.27-.78,1.33,1.33,0,0,0-.14-.57,1.39,1.39,0,0,0-.37-.51,1.78,1.78,0,0,0-.62-.36,2.39,2.39,0,0,0-.84-.13,2.57,2.57,0,0,0-.9.15,3.15,3.15,0,0,0-.69.33,2.72,2.72,0,0,0-.51.42c-.13.14-.23.25-.3.34l-.67-.73.34-.33a3.76,3.76,0,0,1,.66-.48,5.25,5.25,0,0,1,1-.42,3.89,3.89,0,0,1,1.27-.2,3.43,3.43,0,0,1,1.2.2,2.64,2.64,0,0,1,.92.51,2.21,2.21,0,0,1,.57.76,2.11,2.11,0,0,1,.19.9,2,2,0,0,1-.3,1.1,3.06,3.06,0,0,1-.7.78,4.46,4.46,0,0,1-.87.54l-.72.34a8.9,8.9,0,0,0-1.13.59,3.8,3.8,0,0,0-.73.58,2.18,2.18,0,0,0-.44.66,3.76,3.76,0,0,0-.19.83h5.25V116Zm12.56,1.9v-2.66h-5v-.91l5.33-6.9h.7v6.88H187v.93h-1.32v2.66Zm-3.93-3.59h4V109Z"/>
      <rect class="cls-2" x="113" y="1" width="88" height="88" rx="15"/>
      <path class="svgtext" d="M22.67,109.14h-2l-.7,2.94h2v.81H19.82L19.07,116H18.2l.77-3.11H16.13L15.38,116h-.87l.78-3.11H13.6v-.81h1.87l.72-2.94h-2v-.76h2.16l.72-3H18l-.75,3h2.83l.74-3h.87l-.75,3h1.75Zm-3.51,2.94.72-2.94H17l-.7,2.94Zm13.44,1.17a2.57,2.57,0,0,1-.24,1.11,3,3,0,0,1-.65.88,3.28,3.28,0,0,1-.94.57,3.66,3.66,0,0,1-1.16.19h-5V105.35h5.12a2.08,2.08,0,0,1,1,.24,2.48,2.48,0,0,1,.77.63,2.63,2.63,0,0,1,.48.87,2.73,2.73,0,0,1,.18,1,2.85,2.85,0,0,1-.41,1.49,2.51,2.51,0,0,1-1.12,1,2.62,2.62,0,0,1,1.44,1A2.81,2.81,0,0,1,32.6,113.25Zm-1.05-.18a2.12,2.12,0,0,0-.14-.75,1.81,1.81,0,0,0-.39-.64,1.71,1.71,0,0,0-.58-.45,1.48,1.48,0,0,0-.72-.18H25.64v4h4a1.84,1.84,0,0,0,.77-.17,1.92,1.92,0,0,0,.61-.43,2.31,2.31,0,0,0,.41-.65,2,2,0,0,0,.15-.76Zm-5.91-6.81v3.93H29.3A1.58,1.58,0,0,0,30,110a1.79,1.79,0,0,0,.58-.43A1.91,1.91,0,0,0,31,109a2.11,2.11,0,0,0,0-1.51,1.66,1.66,0,0,0-.36-.62,1.52,1.52,0,0,0-.55-.42,1.46,1.46,0,0,0-.69-.16Zm8.2,4.84a3.55,3.55,0,0,1,.29-1.43,3.83,3.83,0,0,1,.79-1.17,3.77,3.77,0,0,1,1.2-.78,3.88,3.88,0,0,1,1.49-.29,3.72,3.72,0,0,1,1.54.32,3.26,3.26,0,0,1,1.2.87,4,4,0,0,1,.8,1.41,5.68,5.68,0,0,1,.28,1.86,12.58,12.58,0,0,1-.28,2.84,6.18,6.18,0,0,1-.81,2,3.19,3.19,0,0,1-2.84,1.59,3.49,3.49,0,0,1-1.89-.52,3.35,3.35,0,0,1-1.27-1.46l.66-.6a2.46,2.46,0,0,0,1,1.21,2.68,2.68,0,0,0,1.53.47,2.34,2.34,0,0,0,1.2-.32,2.64,2.64,0,0,0,.91-.91,4.53,4.53,0,0,0,.6-1.44,7.92,7.92,0,0,0,.23-2,2.82,2.82,0,0,1-1.14,1.41,3.23,3.23,0,0,1-1.82.52,3.84,3.84,0,0,1-1.44-.27,3.78,3.78,0,0,1-1.15-.76,3.7,3.7,0,0,1-.78-1.16A3.51,3.51,0,0,1,33.84,111.1Zm3.75-2.77a2.65,2.65,0,0,0-1.08.23,2.86,2.86,0,0,0-.88.58,2.91,2.91,0,0,0-.6.89,2.8,2.8,0,0,0,0,2.15,2.93,2.93,0,0,0,1.47,1.47,2.88,2.88,0,0,0,2.16,0,2.91,2.91,0,0,0,.89-.6,2.61,2.61,0,0,0,.6-.87,2.64,2.64,0,0,0,.22-1.08,2.55,2.55,0,0,0-.22-1.06,2.87,2.87,0,0,0-.62-.88,2.81,2.81,0,0,0-1.95-.83ZM43.46,116V105.35h3.6a5.51,5.51,0,0,1,2.23.42,4.44,4.44,0,0,1,1.59,1.14,4.63,4.63,0,0,1,1,1.69,6.58,6.58,0,0,1,.32,2.06,6.39,6.39,0,0,1-.36,2.2,4.92,4.92,0,0,1-1,1.68,4.66,4.66,0,0,1-1.61,1.08,5.47,5.47,0,0,1-2.11.38Zm7.65-5.34a5.4,5.4,0,0,0-.27-1.75,3.94,3.94,0,0,0-.8-1.4,3.38,3.38,0,0,0-1.26-.9,4.22,4.22,0,0,0-1.72-.33H44.49v8.79h2.57a4.29,4.29,0,0,0,1.74-.33,3.64,3.64,0,0,0,1.27-.93,4,4,0,0,0,.77-1.39A5.55,5.55,0,0,0,51.11,110.66Zm10.15,1a5.66,5.66,0,0,1-.29,1.83,4.56,4.56,0,0,1-.79,1.44,3.62,3.62,0,0,1-1.19.94,3.57,3.57,0,0,1-3,0,3.77,3.77,0,0,1-1.2-.94,4.74,4.74,0,0,1-.78-1.44,5.66,5.66,0,0,1-.28-1.83,5.52,5.52,0,0,1,.28-1.82,4.52,4.52,0,0,1,.78-1.44,3.69,3.69,0,0,1,1.2-1,3.39,3.39,0,0,1,3,0,3.56,3.56,0,0,1,1.19,1,4.35,4.35,0,0,1,.79,1.44A5.51,5.51,0,0,1,61.26,111.61Zm-1,0a4.83,4.83,0,0,0-.21-1.47,3.31,3.31,0,0,0-.55-1.13,2.34,2.34,0,0,0-.87-.73,2.27,2.27,0,0,0-1.1-.27,2.35,2.35,0,0,0-1.12.27,2.39,2.39,0,0,0-.86.73,3.53,3.53,0,0,0-.57,1.13,5.78,5.78,0,0,0,0,2.94,3.81,3.81,0,0,0,.57,1.14,2.57,2.57,0,0,0,.86.72,2.46,2.46,0,0,0,1.12.25,2.37,2.37,0,0,0,1.1-.25,2.51,2.51,0,0,0,.87-.72,3.56,3.56,0,0,0,.55-1.14A4.83,4.83,0,0,0,60.22,111.61Zm6.08-.29a3.63,3.63,0,0,1,1.37.25,3.32,3.32,0,0,1,2.11,3.14,3.37,3.37,0,0,1-.3,1.44,3.08,3.08,0,0,1-.79,1.11,3.49,3.49,0,0,1-1.17.72,4,4,0,0,1-2.54.1,3.14,3.14,0,0,1-.94-.4,4.09,4.09,0,0,1-.8-.64,3.46,3.46,0,0,1-.57-.84l.68-.51a3.3,3.3,0,0,0,1.14,1.18,3,3,0,0,0,1.6.45,2.75,2.75,0,0,0,1-.2,2.42,2.42,0,0,0,.84-.52,2.32,2.32,0,0,0,.55-.82,2.61,2.61,0,0,0,.21-1.06,2.48,2.48,0,0,0-.19-1,2.31,2.31,0,0,0-.54-.79,2.42,2.42,0,0,0-.81-.51,2.46,2.46,0,0,0-1-.18,3,3,0,0,0-1.35.31,2.54,2.54,0,0,0-1,.89H62.9c0-.06,0-.2.07-.41s.09-.46.15-.75.13-.61.2-1l.21-1.08c.17-.84.35-1.77.55-2.8h5.15v.94H64.85l-.74,3.83a2.64,2.64,0,0,1,1-.65A3.15,3.15,0,0,1,66.3,111.32Zm9.22,1.14a2.46,2.46,0,0,1,1.58.9,2.79,2.79,0,0,1,.6,1.82,3,3,0,0,1-.26,1.23,2.49,2.49,0,0,1-.7,1,3,3,0,0,1-1.1.61,4.17,4.17,0,0,1-1.41.23,4.09,4.09,0,0,1-2-.47A3,3,0,0,1,71,116.48l.7-.64a2.43,2.43,0,0,0,1,1,3.08,3.08,0,0,0,1.62.39,2.63,2.63,0,0,0,1.77-.56,1.92,1.92,0,0,0,.65-1.56,2.07,2.07,0,0,0-.68-1.63,2.84,2.84,0,0,0-2-.6h-.37v-.87h.4a2.6,2.6,0,0,0,1.77-.54,1.79,1.79,0,0,0,.62-1.4,1.73,1.73,0,0,0-.17-.78,1.51,1.51,0,0,0-.46-.57,1.89,1.89,0,0,0-.69-.36,3.13,3.13,0,0,0-2.37.27,2.43,2.43,0,0,0-1,1l-.66-.63a2.29,2.29,0,0,1,.51-.7,3.19,3.19,0,0,1,.75-.56,3.8,3.8,0,0,1,.93-.34,4.09,4.09,0,0,1,1-.14,3.87,3.87,0,0,1,1.26.2,3,3,0,0,1,1,.55,2.3,2.3,0,0,1,.64.84,2.5,2.5,0,0,1,.24,1.1,2.82,2.82,0,0,1-.13.87,2.44,2.44,0,0,1-.39.73,2.37,2.37,0,0,1-.63.54,2.19,2.19,0,0,1-.83.27Z"/>
      <rect class="cls-3" y="1" width="88" height="88" rx="15"/>
      <path class="svgtext" d="M362.67,109.14h-1.95l-.7,2.94h2v.81h-2.2l-.75,3.11h-.87l.76-3.11h-2.83l-.75,3.11h-.87l.78-3.11h-1.7v-.81h1.88l.72-2.94h-2v-.76h2.16l.72-3H358l-.75,3h2.84l.73-3h.87l-.75,3h1.76Zm-3.51,2.94.72-2.94H357l-.7,2.94ZM364,116a6.38,6.38,0,0,1,.09-1.08,3.59,3.59,0,0,1,.37-1,4.13,4.13,0,0,1,.77-.94,5.78,5.78,0,0,1,1.26-.87l.87-.42a6.73,6.73,0,0,0,.88-.5,2.75,2.75,0,0,0,.66-.6,1.19,1.19,0,0,0,.27-.78,1.31,1.31,0,0,0-.13-.57,1.42,1.42,0,0,0-.38-.51,1.73,1.73,0,0,0-.61-.36,2.39,2.39,0,0,0-.84-.13,2.57,2.57,0,0,0-.9.15,3.15,3.15,0,0,0-.69.33,2.72,2.72,0,0,0-.51.42c-.13.14-.23.25-.3.34l-.68-.73.35-.33a3.76,3.76,0,0,1,.66-.48,5.14,5.14,0,0,1,1-.42,4,4,0,0,1,1.28-.2,3.43,3.43,0,0,1,1.2.2,2.6,2.6,0,0,1,.91.51,2.21,2.21,0,0,1,.57.76,2.12,2.12,0,0,1,.2.9,2,2,0,0,1-.3,1.1,3.1,3.1,0,0,1-.71.78,4.46,4.46,0,0,1-.87.54l-.72.34a8.7,8.7,0,0,0-1.12.59,3.89,3.89,0,0,0-.74.58,2.14,2.14,0,0,0-.43.66,3.74,3.74,0,0,0-.2.83h5.25V116Zm12.56,1.9v-2.66h-5v-.91l5.32-6.9h.71v6.88h1.32v.93H377.6v2.66Zm-3.93-3.59h4V109Zm7.5,1.69a6.38,6.38,0,0,1,.09-1.08,3.59,3.59,0,0,1,.37-1,4.13,4.13,0,0,1,.77-.94,5.78,5.78,0,0,1,1.26-.87l.87-.42a6.73,6.73,0,0,0,.88-.5,2.75,2.75,0,0,0,.66-.6,1.19,1.19,0,0,0,.27-.78,1.31,1.31,0,0,0-.13-.57,1.42,1.42,0,0,0-.38-.51,1.73,1.73,0,0,0-.61-.36,2.39,2.39,0,0,0-.84-.13,2.57,2.57,0,0,0-.9.15,3.15,3.15,0,0,0-.69.33,2.72,2.72,0,0,0-.51.42c-.13.14-.23.25-.3.34l-.68-.73.35-.33a3.76,3.76,0,0,1,.66-.48,5.14,5.14,0,0,1,1-.42,4,4,0,0,1,1.28-.2,3.43,3.43,0,0,1,1.2.2,2.6,2.6,0,0,1,.91.51,2.21,2.21,0,0,1,.57.76,2.12,2.12,0,0,1,.2.9,2,2,0,0,1-.3,1.1,3.1,3.1,0,0,1-.71.78,4.46,4.46,0,0,1-.87.54l-.72.34a8.7,8.7,0,0,0-1.12.59,3.89,3.89,0,0,0-.74.58,2.14,2.14,0,0,0-.43.66,3.74,3.74,0,0,0-.2.83h5.25V116Zm12.56,1.9v-2.66h-5v-.91l5.32-6.9h.71v6.88h1.32v.93h-1.32v2.66Zm-3.93-3.59h4V109Zm7.5,1.69a6.38,6.38,0,0,1,.09-1.08,3.59,3.59,0,0,1,.37-1,4.13,4.13,0,0,1,.77-.94,5.78,5.78,0,0,1,1.26-.87l.87-.42a6.73,6.73,0,0,0,.88-.5,2.75,2.75,0,0,0,.66-.6,1.19,1.19,0,0,0,.27-.78,1.31,1.31,0,0,0-.13-.57,1.42,1.42,0,0,0-.38-.51,1.73,1.73,0,0,0-.61-.36,2.39,2.39,0,0,0-.84-.13,2.57,2.57,0,0,0-.9.15,3.15,3.15,0,0,0-.69.33,2.72,2.72,0,0,0-.51.42c-.13.14-.23.25-.3.34l-.68-.73.35-.33a3.76,3.76,0,0,1,.66-.48,5.14,5.14,0,0,1,1-.42,4,4,0,0,1,1.28-.2,3.43,3.43,0,0,1,1.2.2,2.6,2.6,0,0,1,.91.51,2.21,2.21,0,0,1,.57.76,2.12,2.12,0,0,1,.2.9,2,2,0,0,1-.3,1.1,3.1,3.1,0,0,1-.71.78,4.46,4.46,0,0,1-.87.54l-.72.34a8.7,8.7,0,0,0-1.12.59,3.89,3.89,0,0,0-.74.58,2.14,2.14,0,0,0-.43.66,3.74,3.74,0,0,0-.2.83h5.25V116Zm12.55,1.9v-2.66h-5v-.91l5.33-6.9h.7v6.88h1.32v.93h-1.32v2.66Zm-3.93-3.59h4V109Z"/>
      <rect class="cls-4" x="340" y="2" width="86" height="86" rx="14"/>
      <path class="svgtext" d="M249.68,109.14h-2l-.71,2.94h2v.81h-2.21l-.75,3.11h-.86l.76-3.11h-2.84l-.75,3.11h-.87l.78-3.11H240.6v-.81h1.87l.72-2.94h-2v-.76h2.16l.72-3H245l-.75,3h2.84l.73-3h.87l-.75,3h1.76Zm-3.51,2.94.72-2.94H244l-.71,2.94ZM251.6,116V105.35h7v.93h-5.94v3.91h5v.88h-5V116Zm7.83,0a6.38,6.38,0,0,1,.09-1.08,3.59,3.59,0,0,1,.37-1,4.13,4.13,0,0,1,.77-.94,5.78,5.78,0,0,1,1.26-.87l.87-.42a6.73,6.73,0,0,0,.88-.5,2.75,2.75,0,0,0,.66-.6,1.19,1.19,0,0,0,.27-.78,1.31,1.31,0,0,0-.13-.57,1.42,1.42,0,0,0-.38-.51,1.73,1.73,0,0,0-.61-.36,2.39,2.39,0,0,0-.84-.13,2.57,2.57,0,0,0-.9.15,3.15,3.15,0,0,0-.69.33,2.72,2.72,0,0,0-.51.42c-.13.14-.23.25-.3.34l-.68-.73.35-.33a3.76,3.76,0,0,1,.66-.48,5.14,5.14,0,0,1,1-.42,4,4,0,0,1,1.28-.2,3.43,3.43,0,0,1,1.2.2,2.6,2.6,0,0,1,.91.51,2.21,2.21,0,0,1,.57.76,2.12,2.12,0,0,1,.2.9,2,2,0,0,1-.3,1.1,3.1,3.1,0,0,1-.71.78,4.46,4.46,0,0,1-.87.54l-.72.34A8.7,8.7,0,0,0,262,113a3.89,3.89,0,0,0-.74.58,2.14,2.14,0,0,0-.43.66,3.74,3.74,0,0,0-.2.83h5.25V116Zm8.58,0V105.35h7v.93h-5.94v3.91h5v.88h-5V116Zm7.82,0a6.38,6.38,0,0,1,.09-1.08,3.62,3.62,0,0,1,.38-1,4.08,4.08,0,0,1,.76-.94,5.78,5.78,0,0,1,1.26-.87l.87-.42a6.87,6.87,0,0,0,.89-.5,2.75,2.75,0,0,0,.66-.6,1.19,1.19,0,0,0,.27-.78,1.33,1.33,0,0,0-.14-.57,1.39,1.39,0,0,0-.37-.51,1.78,1.78,0,0,0-.62-.36,2.39,2.39,0,0,0-.84-.13,2.57,2.57,0,0,0-.9.15,3.15,3.15,0,0,0-.69.33,2.72,2.72,0,0,0-.51.42c-.13.14-.23.25-.3.34l-.67-.73.34-.33a3.76,3.76,0,0,1,.66-.48,5.25,5.25,0,0,1,1-.42,3.89,3.89,0,0,1,1.27-.2,3.43,3.43,0,0,1,1.2.2,2.64,2.64,0,0,1,.92.51,2.21,2.21,0,0,1,.57.76,2.11,2.11,0,0,1,.19.9,2,2,0,0,1-.3,1.1,3.06,3.06,0,0,1-.7.78,4.46,4.46,0,0,1-.87.54l-.72.34a8.9,8.9,0,0,0-1.13.59,3.8,3.8,0,0,0-.73.58,2.18,2.18,0,0,0-.44.66,3.76,3.76,0,0,0-.19.83h5.25V116Zm8.59,0V105.35h7v.93h-5.94v3.91h5v.88h-5V116Zm7.82,0a6.38,6.38,0,0,1,.09-1.08,3.62,3.62,0,0,1,.38-1,4.08,4.08,0,0,1,.76-.94,5.78,5.78,0,0,1,1.26-.87l.87-.42a6.87,6.87,0,0,0,.89-.5,2.75,2.75,0,0,0,.66-.6,1.19,1.19,0,0,0,.27-.78,1.33,1.33,0,0,0-.14-.57,1.39,1.39,0,0,0-.37-.51,1.78,1.78,0,0,0-.62-.36,2.39,2.39,0,0,0-.84-.13,2.57,2.57,0,0,0-.9.15,3.15,3.15,0,0,0-.69.33,2.72,2.72,0,0,0-.51.42c-.13.14-.23.25-.3.34l-.67-.73.34-.33a3.76,3.76,0,0,1,.66-.48,5.25,5.25,0,0,1,1-.42,3.89,3.89,0,0,1,1.27-.2,3.43,3.43,0,0,1,1.2.2,2.64,2.64,0,0,1,.92.51,2.21,2.21,0,0,1,.57.76,2.11,2.11,0,0,1,.19.9,2,2,0,0,1-.3,1.1,3.06,3.06,0,0,1-.7.78,4.46,4.46,0,0,1-.87.54l-.72.34a8.9,8.9,0,0,0-1.13.59,3.8,3.8,0,0,0-.73.58,2.18,2.18,0,0,0-.44.66,3.76,3.76,0,0,0-.19.83h5.25V116Z"/>
      <rect class="cls-5" x="226" y="1" width="88" height="88" rx="15"/>
    </g>
  </g>
</svg>
