<?xml version="1.0" encoding="utf-8"?>
<!-- Generator: Adobe Illustrator 25.4.1, SVG Export Plug-In . SVG Version: 6.00 Build 0)  -->
<svg version="1.1" id="Layer_1" xmlns="http://www.w3.org/2000/svg" xmlns:xlink="http://www.w3.org/1999/xlink" x="0px" y="0px"
	 viewBox="0 0 192 192" style="enable-background:new 0 0 192 192;" xml:space="preserve">
<style type="text/css">
	.st0{fill:none;}
	.st1{fill:none;stroke:#799400;stroke-width:12;stroke-linecap:round;stroke-linejoin:round;stroke-miterlimit:3;}
</style>
<rect class="st0" width="192" height="192"/>
<line class="st1" x1="157" y1="109" x2="133" y2="133"/>
<line class="st1" x1="83" y1="35" x2="59" y2="59"/>
<rect class="st0" width="192" height="192"/>
<line class="st1" x1="90" y1="144" x2="48" y2="102"/>
<path class="st1" d="M169.8,121.8L141,93l19.2-19.2c1.1-1.1,1.8-2.7,1.8-4.2V36c0-3.3-2.7-6-6-6h-33.5c-1.6,0-3.1,0.6-4.2,1.8L99,51
	L70.2,22.2c-2.3-2.3-6.1-2.3-8.5,0L22.2,61.8c-2.3,2.3-2.3,6.1,0,8.5L51,99l-22.8,22.8c-2.3,2.3-2.3,6.1,0,8.5l33.5,33.5
	c2.3,2.3,6.1,2.3,8.5,0L93,141l28.8,28.8c2.3,2.3,6.1,2.3,8.5,0l39.5-39.5C172.1,127.9,172.1,124.1,169.8,121.8z"/>
<line class="st1" x1="120.4" y1="30.4" x2="161.6" y2="71.6"/>
<line class="st1" x1="69" y1="123" x2="139" y2="53"/>
<path class="st1" d="M124.2,28.2h33.5c3.3,0,6,2.7,6,6v33.5c0,1.6-0.6,3.1-1.8,4.2l-90,90c-2.3,2.3-6.1,2.3-8.5,0L30,128.5
	c-2.3-2.3-2.3-6.1,0-8.5l90-90C121.1,28.9,122.7,28.2,124.2,28.2z"/>
</svg>
