<?xml version="1.0" encoding="utf-8"?>
<!-- Generator: Adobe Illustrator 25.4.1, SVG Export Plug-In . SVG Version: 6.00 Build 0)  -->
<svg version="1.1" id="Layer_1" xmlns="http://www.w3.org/2000/svg" xmlns:xlink="http://www.w3.org/1999/xlink" x="0px" y="0px"
	 viewBox="0 0 192 192" style="enable-background:new 0 0 192 192;" xml:space="preserve">
<style type="text/css">
	.st0{fill:none;}
	.st1{fill:none;stroke:#799400;stroke-width:12;stroke-linecap:round;stroke-linejoin:round;stroke-miterlimit:3;}
</style>
<rect class="st0" width="192" height="192"/>
<path class="st1" d="M180.5,86.3L162,95.6l-24-46l18.7-9.4c2.9-1.5,6.5-0.3,8,2.6l18.4,35.3C184.7,81.1,183.6,84.7,180.5,86.3
	C180.6,86.3,180.6,86.3,180.5,86.3z"/>
<path class="st1" d="M30,94.8l-18.5-9.3c-3-1.5-4.2-5.1-2.7-8c0,0,0-0.1,0-0.1l18.4-35.3c1.5-2.9,5.1-4.1,8-2.6L54,48.8L30,94.8z"/>
<path class="st1" d="M162,95.6l-12,14l-27.6,27.6c-1.5,1.5-3.7,2.1-5.7,1.6l-43.5-10.9c-0.8-0.2-1.6-0.6-2.2-1.1L30,94.8"/>
<path class="st1" d="M150,109.6l-33-24l-9.6,7.2c-8.5,6.4-20.3,6.4-28.8,0l-4.1-3c-2.7-2-3.2-5.7-1.2-8.4c0.2-0.2,0.4-0.4,0.6-0.6
	l29.4-29.4c1.1-1.1,2.7-1.8,4.2-1.8H138"/>
<path class="st1" d="M54.4,48.8l38.5-11.2c1.4-0.4,2.8-0.3,4.2,0.3L123,49.6"/>
<path class="st1" d="M84,154.6L61.4,149c-0.9-0.2-1.8-0.7-2.5-1.3L42,133"/>
</svg>
