<svg xmlns="http://www.w3.org/2000/svg" viewBox="0 0 557.42 156.91">
  <defs>
  </defs>
  <g id="Layer_2" data-name="Layer 2">
    <g id="Layer_1-2" data-name="Layer 1">
      <g>
        <path class="svgtext" d="M16.17,9.75a6.87,6.87,0,0,1-.84,3.36,6.21,6.21,0,0,1-2.58,2.43,9.08,9.08,0,0,1-4.32.93H5.25V24H.12V3H8.43a9.46,9.46,0,0,1,4.26.87,6,6,0,0,1,2.61,2.4A7,7,0,0,1,16.17,9.75ZM8,12.39a3.06,3.06,0,0,0,2.19-.69A2.57,2.57,0,0,0,11,9.75a2.57,2.57,0,0,0-.72-1.95A3.06,3.06,0,0,0,8,7.11H5.25v5.28Zm19,11.88a9.33,9.33,0,0,1-4.44-1.05,7.82,7.82,0,0,1-3.09-3,9.06,9.06,0,0,1-1.11-4.56,8.81,8.81,0,0,1,1.14-4.53,7.71,7.71,0,0,1,3.12-3,9.33,9.33,0,0,1,4.44-1,9.33,9.33,0,0,1,4.44,1,7.71,7.71,0,0,1,3.12,3,8.81,8.81,0,0,1,1.14,4.53,8.79,8.79,0,0,1-1.17,4.56,7.72,7.72,0,0,1-3.15,3A9.33,9.33,0,0,1,27.06,24.27Zm0-4.44a3.29,3.29,0,0,0,2.49-1.08,4.25,4.25,0,0,0,1.05-3.09,4.33,4.33,0,0,0-1-3.09,3.2,3.2,0,0,0-2.46-1.08,3.23,3.23,0,0,0-2.49,1.08,4.35,4.35,0,0,0-1,3.09,4.5,4.5,0,0,0,1,3.09A3.2,3.2,0,0,0,27.06,19.83ZM44.27,9.66a5.57,5.57,0,0,1,2.07-1.89,6.35,6.35,0,0,1,3.09-.72,6.93,6.93,0,0,1,3.75,1,7.17,7.17,0,0,1,2.64,3,9.88,9.88,0,0,1,1,4.53,10.07,10.07,0,0,1-1,4.56,7.38,7.38,0,0,1-2.64,3,6.93,6.93,0,0,1-3.75,1.05,6.46,6.46,0,0,1-3.09-.72,5.67,5.67,0,0,1-2.07-1.86V32H39.14V7.29h5.13Zm7.32,6a4.05,4.05,0,0,0-1.08-3,3.45,3.45,0,0,0-2.61-1.11,3.51,3.51,0,0,0-2.61,1.11,4.23,4.23,0,0,0-1,3,4.23,4.23,0,0,0,1,3,3.62,3.62,0,0,0,5.22,0A4.27,4.27,0,0,0,51.59,15.63Zm13.64-6A5.57,5.57,0,0,1,67.3,7.77a6.35,6.35,0,0,1,3.09-.72,6.93,6.93,0,0,1,3.75,1,7.17,7.17,0,0,1,2.64,3,9.88,9.88,0,0,1,1,4.53,10.07,10.07,0,0,1-1,4.56,7.38,7.38,0,0,1-2.64,3,6.93,6.93,0,0,1-3.75,1.05,6.46,6.46,0,0,1-3.09-.72,5.67,5.67,0,0,1-2.07-1.86V32H60.1V7.29h5.13Zm7.32,6a4.05,4.05,0,0,0-1.08-3,3.45,3.45,0,0,0-2.61-1.11,3.51,3.51,0,0,0-2.61,1.11,4.23,4.23,0,0,0-1,3,4.23,4.23,0,0,0,1,3,3.62,3.62,0,0,0,5.22,0A4.27,4.27,0,0,0,72.55,15.63ZM83.64,5.55a3.2,3.2,0,0,1-2.22-.78,2.65,2.65,0,0,1-.84-2,2.58,2.58,0,0,1,.84-2A3.13,3.13,0,0,1,83.64,0,3,3,0,0,1,85.8.81a2.54,2.54,0,0,1,.87,2,2.6,2.6,0,0,1-.87,2A3,3,0,0,1,83.64,5.55Zm2.55,1.74V24H81.06V7.29Zm14.52-.18A6,6,0,0,1,105.39,9a7.34,7.34,0,0,1,1.77,5.22V24h-5.1V14.94a3.67,3.67,0,0,0-.87-2.61,3.41,3.41,0,0,0-4.68,0,3.67,3.67,0,0,0-.87,2.61V24H90.51V7.29h5.13V9.51a5.29,5.29,0,0,1,2.1-1.74A6.55,6.55,0,0,1,100.71,7.11Zm17.43,17.16a9.62,9.62,0,0,1-3.9-.75,6.72,6.72,0,0,1-2.7-2,5.48,5.48,0,0,1-1.11-2.94h5.07a2,2,0,0,0,.81,1.41,2.87,2.87,0,0,0,1.77.54,2.53,2.53,0,0,0,1.47-.36,1.18,1.18,0,0,0,.54-1,1.1,1.1,0,0,0-.75-1.05,13.92,13.92,0,0,0-2.43-.78,24.72,24.72,0,0,1-3-.87A5.39,5.39,0,0,1,111.84,15a4.07,4.07,0,0,1-.87-2.73,4.6,4.6,0,0,1,.78-2.61,5.43,5.43,0,0,1,2.34-1.89,9.07,9.07,0,0,1,3.69-.69,7.31,7.31,0,0,1,5,1.56,6,6,0,0,1,2.1,4.14h-4.74a2,2,0,0,0-.78-1.38,2.59,2.59,0,0,0-1.68-.51,2.27,2.27,0,0,0-1.38.36,1.06,1.06,0,0,0-.48.93,1.15,1.15,0,0,0,.75,1.08,12.7,12.7,0,0,0,2.4.72,24,24,0,0,1,3,1,4.93,4.93,0,0,1,2,1.5,4.14,4.14,0,0,1,.93,2.76,4.42,4.42,0,0,1-.84,2.64,5.39,5.39,0,0,1-2.37,1.8A9,9,0,0,1,118.14,24.27Z"/>
        <path class="svgtext" d="M404.79,12.29q0,5.15-2.6,8.09A9.14,9.14,0,0,1,395,23.32a9.31,9.31,0,0,1-7.31-2.88c-1.7-1.94-2.56-4.66-2.56-8.18s.86-6.18,2.58-8.1A9.32,9.32,0,0,1,395,1.28a9.1,9.1,0,0,1,7.21,2.93C403.93,6.16,404.79,8.86,404.79,12.29Zm-17.06,0c0,2.9.61,5.11,1.84,6.61A6.62,6.62,0,0,0,395,21.14a6.52,6.52,0,0,0,5.38-2.24c1.21-1.49,1.82-3.7,1.82-6.61s-.61-5.06-1.82-6.55A6.46,6.46,0,0,0,395,3.5a6.64,6.64,0,0,0-5.42,2.26q-1.85,2.24-1.84,6.53Zm29,11a7.07,7.07,0,0,1-2.87-.57A5.35,5.35,0,0,1,411.65,21h-.18a21.13,21.13,0,0,1,.18,2.67v6.61h-2.43V7h2l.34,2.19h.12a5.58,5.58,0,0,1,2.18-1.9,6.64,6.64,0,0,1,2.86-.59,5.92,5.92,0,0,1,4.92,2.18A9.62,9.62,0,0,1,423.35,15a9.56,9.56,0,0,1-1.77,6.15A5.91,5.91,0,0,1,416.69,23.32Zm-.35-14.57a4.3,4.3,0,0,0-3.56,1.36,7,7,0,0,0-1.13,4.34V15c0,2.25.38,3.87,1.13,4.85a4.3,4.3,0,0,0,3.61,1.45,3.74,3.74,0,0,0,3.26-1.69A8,8,0,0,0,420.83,15a7.62,7.62,0,0,0-1.18-4.6,3.84,3.84,0,0,0-3.31-1.61ZM434.4,23.32a7.44,7.44,0,0,1-5.63-2.16,8.47,8.47,0,0,1-2-6A9.32,9.32,0,0,1,428.63,9a6.35,6.35,0,0,1,5.14-2.29,6.06,6.06,0,0,1,4.77,2,7.61,7.61,0,0,1,1.76,5.23v1.54H429.24a6.36,6.36,0,0,0,1.42,4.29,5,5,0,0,0,3.83,1.47,13,13,0,0,0,5.12-1.08v2.16a12.08,12.08,0,0,1-2.44.79A13,13,0,0,1,434.4,23.32Zm-.66-14.6A4,4,0,0,0,430.65,10a5.86,5.86,0,0,0-1.35,3.48h8.39a5.32,5.32,0,0,0-1-3.51,3.61,3.61,0,0,0-2.93-1.23ZM455.45,23V12.64a4.19,4.19,0,0,0-.9-2.93,3.63,3.63,0,0,0-2.79-1,4.64,4.64,0,0,0-3.7,1.36q-1.17,1.37-1.17,4.5V23h-2.43V7h2l.39,2.19H447a4.94,4.94,0,0,1,2.1-1.83,6.71,6.71,0,0,1,3-.66,6,6,0,0,1,4.36,1.41,5.93,5.93,0,0,1,1.47,4.47V23Zm27.68-5.7a5.23,5.23,0,0,1-2.05,4.41,8.85,8.85,0,0,1-5.56,1.58,13.83,13.83,0,0,1-5.86-1v-2.4a15.57,15.57,0,0,0,2.87.88,15.39,15.39,0,0,0,3.07.32,6.21,6.21,0,0,0,3.75-.94,3.11,3.11,0,0,0,1.26-2.63,3.32,3.32,0,0,0-.45-1.82,4,4,0,0,0-1.49-1.32,21.43,21.43,0,0,0-3.18-1.36,10.14,10.14,0,0,1-4.28-2.54,5.59,5.59,0,0,1-1.27-3.82,4.76,4.76,0,0,1,1.86-3.94,7.71,7.71,0,0,1,4.92-1.46,14.51,14.51,0,0,1,5.87,1.17l-.77,2.17a13.17,13.17,0,0,0-5.16-1.12,5,5,0,0,0-3.09.85,2.8,2.8,0,0,0-1.12,2.36,3.7,3.7,0,0,0,.41,1.83,4.07,4.07,0,0,0,1.38,1.31,18.39,18.39,0,0,0,3,1.3,11.67,11.67,0,0,1,4.63,2.58,5,5,0,0,1,1.27,3.57ZM497,23l-.48-2.29h-.12A6.89,6.89,0,0,1,494,22.8a7.4,7.4,0,0,1-3,.52,5.4,5.4,0,0,1-3.75-1.23,4.48,4.48,0,0,1-1.34-3.5q0-4.86,7.77-5.1l2.73-.08v-1a4,4,0,0,0-.82-2.78,3.3,3.3,0,0,0-2.6-.91A10.62,10.62,0,0,0,488.49,10l-.74-1.86a11.68,11.68,0,0,1,5.43-1.38A6.08,6.08,0,0,1,497.43,8a5.29,5.29,0,0,1,1.39,4.08V23Zm-5.49-1.71a4.92,4.92,0,0,0,3.56-1.25,4.62,4.62,0,0,0,1.3-3.49V15.13l-2.43.11a8.79,8.79,0,0,0-4.19.91,2.69,2.69,0,0,0-1.28,2.47,2.55,2.55,0,0,0,.79,2,3.36,3.36,0,0,0,2.25.69ZM514.83,23V12.64a4.24,4.24,0,0,0-.89-2.93,3.67,3.67,0,0,0-2.8-1,4.6,4.6,0,0,0-3.69,1.36q-1.17,1.37-1.17,4.5V23h-2.43V7h2l.4,2.19h.12a4.86,4.86,0,0,1,2.09-1.83,6.74,6.74,0,0,1,3-.66,6.08,6.08,0,0,1,4.37,1.41c1,.93,1.46,2.42,1.46,4.47V23Zm17.8-4.38A4,4,0,0,1,531,22.11a7.86,7.86,0,0,1-4.69,1.21,10.12,10.12,0,0,1-5-1V20.06a12.42,12.42,0,0,0,2.48.92,10.67,10.67,0,0,0,2.56.34,5.85,5.85,0,0,0,2.93-.6,2,2,0,0,0,1-1.86,2,2,0,0,0-.82-1.6,12.36,12.36,0,0,0-3.17-1.58,18.1,18.1,0,0,1-3.19-1.45,4.53,4.53,0,0,1-1.41-1.42,3.78,3.78,0,0,1-.45-1.89,3.61,3.61,0,0,1,1.59-3.1,7.44,7.44,0,0,1,4.38-1.14,12.7,12.7,0,0,1,5.07,1.06l-.86,2a11.68,11.68,0,0,0-4.38-1,5.08,5.08,0,0,0-2.61.54,1.69,1.69,0,0,0-.88,1.49,1.88,1.88,0,0,0,.32,1.1,3.51,3.51,0,0,0,1.07.87,23.48,23.48,0,0,0,2.82,1.18,10.63,10.63,0,0,1,3.85,2.1,3.69,3.69,0,0,1,1,2.65Z"/>
        <path class="svgtext" d="M18.36,60V81H13.23V72.36h-8V81H.12V60H5.25v8.25h8V60ZM38.44,72.39a13.1,13.1,0,0,1-.09,1.5H26.74a3.59,3.59,0,0,0,1,2.4,3.16,3.16,0,0,0,2.19.81,2.7,2.7,0,0,0,2.67-1.62h5.46a7.64,7.64,0,0,1-4.26,5,8.82,8.82,0,0,1-3.69.75,9,9,0,0,1-4.38-1,7.47,7.47,0,0,1-3-3,9.26,9.26,0,0,1-1.08-4.56,9.48,9.48,0,0,1,1.05-4.56,7.47,7.47,0,0,1,3-3,9,9,0,0,1,4.41-1,9,9,0,0,1,4.32,1A7.23,7.23,0,0,1,37.36,68,8.73,8.73,0,0,1,38.44,72.39ZM33.19,71a2.64,2.64,0,0,0-.9-2.1,3.6,3.6,0,0,0-4.44,0A3.36,3.36,0,0,0,26.77,71Zm7.54,1.59a10.14,10.14,0,0,1,1-4.53,7.37,7.37,0,0,1,2.67-3,6.93,6.93,0,0,1,3.75-1,6.35,6.35,0,0,1,3.09.72,5.28,5.28,0,0,1,2.07,1.89V64.29H58.4V81H53.27V78.66a5.51,5.51,0,0,1-2.1,1.89,6.35,6.35,0,0,1-3.09.72,6.88,6.88,0,0,1-3.72-1,7.59,7.59,0,0,1-2.67-3A10.33,10.33,0,0,1,40.73,72.63Zm12.54,0a4.16,4.16,0,0,0-1.08-3,3.41,3.41,0,0,0-2.58-1.11A3.51,3.51,0,0,0,47,69.63a4.12,4.12,0,0,0-1,3,4.34,4.34,0,0,0,1,3.06,3.51,3.51,0,0,0,2.61,1.11,3.41,3.41,0,0,0,2.58-1.11A4.16,4.16,0,0,0,53.27,72.66Zm8.42,0a10.14,10.14,0,0,1,1-4.53,7.37,7.37,0,0,1,2.67-3,6.93,6.93,0,0,1,3.75-1,6.49,6.49,0,0,1,3,.69,5.47,5.47,0,0,1,2.16,1.86V58.83h5.13V81H74.23v-2.4a5.2,5.2,0,0,1-2.07,1.92,6.35,6.35,0,0,1-3.09.72,6.93,6.93,0,0,1-3.75-1,7.59,7.59,0,0,1-2.67-3,10.33,10.33,0,0,1-1-4.56Zm12.54,0a4.16,4.16,0,0,0-1.08-3,3.41,3.41,0,0,0-2.58-1.11A3.51,3.51,0,0,0,68,69.63a4.12,4.12,0,0,0-1,3,4.34,4.34,0,0,0,1,3.06,3.51,3.51,0,0,0,2.61,1.11,3.41,3.41,0,0,0,2.58-1.11A4.16,4.16,0,0,0,74.23,72.66Zm12-10.11A3.2,3.2,0,0,1,84,61.77a2.65,2.65,0,0,1-.84-2,2.58,2.58,0,0,1,.84-2A3.13,3.13,0,0,1,86.25,57a3,3,0,0,1,2.16.81,2.54,2.54,0,0,1,.87,2,2.6,2.6,0,0,1-.87,2A3,3,0,0,1,86.25,62.55Zm2.55,1.74V81H83.67V64.29Zm14.52-.18A6,6,0,0,1,108,66a7.34,7.34,0,0,1,1.77,5.22V81h-5.1V71.94a3.67,3.67,0,0,0-.87-2.61,3.41,3.41,0,0,0-4.68,0,3.67,3.67,0,0,0-.87,2.61V81H93.12V64.29h5.13v2.22a5.29,5.29,0,0,1,2.1-1.74A6.55,6.55,0,0,1,103.32,64.11Zm17-.06a6.35,6.35,0,0,1,3.09.72,5.28,5.28,0,0,1,2.07,1.89V64.29h5.13V81a9.19,9.19,0,0,1-.93,4.17,6.87,6.87,0,0,1-2.78,3,9,9,0,0,1-4.66,1.11,9.61,9.61,0,0,1-6-1.77,6.54,6.54,0,0,1-2.64-4.74h5.07a2.39,2.39,0,0,0,1.13,1.5,4.08,4.08,0,0,0,2.23.57,3.38,3.38,0,0,0,2.51-.93,3.83,3.83,0,0,0,1-2.91V78.63a5.81,5.81,0,0,1-2.07,1.92,6.34,6.34,0,0,1-3.08.72,6.93,6.93,0,0,1-3.75-1,7.45,7.45,0,0,1-2.67-3,10.33,10.33,0,0,1-1-4.56,10.14,10.14,0,0,1,1-4.53,7.37,7.37,0,0,1,2.67-3A6.9,6.9,0,0,1,120.29,64.05Zm5.16,8.61a4.16,4.16,0,0,0-1.08-3,3.41,3.41,0,0,0-2.58-1.11,3.51,3.51,0,0,0-2.61,1.11,4.12,4.12,0,0,0-1.05,3,4.34,4.34,0,0,0,1.05,3.06,3.51,3.51,0,0,0,2.61,1.11,3.41,3.41,0,0,0,2.58-1.11A4.16,4.16,0,0,0,125.45,72.66Zm29.3-4.29v4.26h-13.2V68.37Zm11.73-3.06a6.59,6.59,0,0,1,2.1-5A7.85,7.85,0,0,1,174,58.62a8.65,8.65,0,0,1,3.84.78,5.54,5.54,0,0,1,2.43,2.13,5.62,5.62,0,0,1,.84,3,4.92,4.92,0,0,1-3.3,4.92v.12a5.41,5.41,0,0,1,2.7,1.89,5.5,5.5,0,0,1,1,3.39,6.26,6.26,0,0,1-.87,3.3,5.76,5.76,0,0,1-2.49,2.22,8.57,8.57,0,0,1-3.87.81,8.81,8.81,0,0,1-5.76-1.77,6.87,6.87,0,0,1-2.25-5.34h5a3.08,3.08,0,0,0,.75,2.1A2.78,2.78,0,0,0,174,77a2.37,2.37,0,0,0,1.8-.66,2.5,2.5,0,0,0,.66-1.8,2.32,2.32,0,0,0-.93-2.07,5,5,0,0,0-2.91-.66h-1V67.59h1a5.11,5.11,0,0,0,2.46-.51,2,2,0,0,0,1-1.89,2.27,2.27,0,0,0-.6-1.68,2.23,2.23,0,0,0-1.65-.6,2.09,2.09,0,0,0-1.71.69,3.16,3.16,0,0,0-.63,1.71Zm18.59,4.47q0-5.16,2-8.13t6.45-3q4.44,0,6.42,3t2,8.13q0,5.22-2,8.19t-6.42,3q-4.44,0-6.45-3T185.07,69.78Zm11.82,0a12.81,12.81,0,0,0-.66-4.65,3.08,3.08,0,0,0-5.46,0,12.81,12.81,0,0,0-.66,4.65,19.88,19.88,0,0,0,.24,3.39,4.48,4.48,0,0,0,1,2.16,2.84,2.84,0,0,0,2.19.81,2.74,2.74,0,0,0,2.16-.81,4.33,4.33,0,0,0,1-2.16,19.88,19.88,0,0,0,.24-3.39Zm21-3.12a5.57,5.57,0,0,1,2.07-1.89,6.35,6.35,0,0,1,3.09-.72,6.93,6.93,0,0,1,3.75,1,7.17,7.17,0,0,1,2.64,3,9.88,9.88,0,0,1,1,4.53,10.07,10.07,0,0,1-1,4.56,7.38,7.38,0,0,1-2.64,3,6.93,6.93,0,0,1-3.75,1,6.46,6.46,0,0,1-3.09-.72,5.67,5.67,0,0,1-2.07-1.86V89H212.7V64.29h5.14Zm7.32,6a4.05,4.05,0,0,0-1.08-3,3.46,3.46,0,0,0-2.61-1.11,3.51,3.51,0,0,0-2.61,1.11,4.9,4.9,0,0,0,0,6.06,3.62,3.62,0,0,0,5.22,0A4.27,4.27,0,0,0,225.16,72.63ZM243.57,81l-3.21-4.65L237.66,81h-5.55l5.52-8.55L232,64.29h5.76l3.21,4.62,2.7-4.62h5.55l-5.61,8.43L249.33,81ZM7.38,131.24a9.51,9.51,0,0,1-3.78-.72A6.31,6.31,0,0,1,1,128.42a5.3,5.3,0,0,1-1-3.15H3.66a3.33,3.33,0,0,0,1,2.22,3.83,3.83,0,0,0,2.67.87,4.14,4.14,0,0,0,2.76-.84,2.82,2.82,0,0,0,1-2.22,2.37,2.37,0,0,0-.63-1.71,4,4,0,0,0-1.53-1,22,22,0,0,0-2.52-.78,26.24,26.24,0,0,1-3.33-1.08A5.63,5.63,0,0,1,1,119a5,5,0,0,1-.9-3.12A5.55,5.55,0,0,1,1,112.7a5.75,5.75,0,0,1,2.52-2.07,9.16,9.16,0,0,1,3.75-.72,7.7,7.7,0,0,1,4.95,1.53,5.52,5.52,0,0,1,2.16,4.14H10.56a2.74,2.74,0,0,0-1.08-2,4,4,0,0,0-2.61-.81,3.7,3.7,0,0,0-2.4.75,2.61,2.61,0,0,0-.93,2.16,2.28,2.28,0,0,0,.57,1.59,4.4,4.4,0,0,0,1.5,1,23.05,23.05,0,0,0,2.46.78,24.88,24.88,0,0,1,3.36,1.14A5.44,5.44,0,0,1,13.65,122a4.92,4.92,0,0,1,.93,3.15,5.62,5.62,0,0,1-.87,3,6.14,6.14,0,0,1-2.49,2.28,8.24,8.24,0,0,1-3.84.84ZM34.19,114.5V131H30.77v-1.95a5.64,5.64,0,0,1-2.13,1.62,6.75,6.75,0,0,1-2.76.57,7.5,7.5,0,0,1-3.51-.81,6,6,0,0,1-2.43-2.4,7.89,7.89,0,0,1-.87-3.84V114.5h3.39v9.21a4.85,4.85,0,0,0,1.11,3.42,4,4,0,0,0,3,1.17,4,4,0,0,0,3-1.17,4.77,4.77,0,0,0,1.14-3.42V114.5ZM42.72,117A6.39,6.39,0,0,1,45.09,115a7.35,7.35,0,0,1,3.39-.78,7.61,7.61,0,0,1,4,1,7.36,7.36,0,0,1,2.79,3,9.26,9.26,0,0,1,1,4.41,9.62,9.62,0,0,1-1,4.47,7.72,7.72,0,0,1-2.82,3.06,7.4,7.4,0,0,1-3.93,1.08,7.55,7.55,0,0,1-3.42-.75,6.58,6.58,0,0,1-2.34-1.92V131H39.3v-22.2h3.42Zm10.05,5.73a5.72,5.72,0,0,0-.72-2.94,4.58,4.58,0,0,0-1.86-1.89,4.83,4.83,0,0,0-2.46-.66,4.93,4.93,0,0,0-2.46.66,5.06,5.06,0,0,0-1.86,1.92,6.09,6.09,0,0,0-.69,3,6.27,6.27,0,0,0,.69,3,5.06,5.06,0,0,0,1.86,1.92,4.93,4.93,0,0,0,2.46.66,4.83,4.83,0,0,0,2.46-.66,4.94,4.94,0,0,0,1.86-2A6.05,6.05,0,0,0,52.77,122.69Zm32.5-12.51V131H81.85v-9.12H72V131H68.62V110.18H72v8.94h9.81v-8.94Zm20.25,12.18a10.69,10.69,0,0,1-.12,1.68H92.78a4.59,4.59,0,0,0,1.47,3.18,4.64,4.64,0,0,0,3.24,1.2,4,4,0,0,0,3.89-2.31h3.69a7.5,7.5,0,0,1-2.73,3.75,8,8,0,0,1-4.85,1.44,8.62,8.62,0,0,1-4.26-1.05,7.85,7.85,0,0,1-2.94-3,10.24,10.24,0,0,1,0-9,7.38,7.38,0,0,1,2.91-3,8.75,8.75,0,0,1,4.32-1,8.41,8.41,0,0,1,4.16,1,7.18,7.18,0,0,1,2.85,2.88,8.54,8.54,0,0,1,1,4.23ZM102,121.28a3.86,3.86,0,0,0-1.35-3,4.8,4.8,0,0,0-3.26-1.14,4.36,4.36,0,0,0-3,1.14,4.64,4.64,0,0,0-1.5,3Zm6.4,1.41a9.26,9.26,0,0,1,1-4.41,7.62,7.62,0,0,1,6.78-4,7,7,0,0,1,3.39.78,6.73,6.73,0,0,1,2.34,1.89v-2.4h3.45V131h-3.45v-2.46a6.79,6.79,0,0,1-2.37,2,7.72,7.72,0,0,1-7.32-.3,8,8,0,0,1-2.82-3.06,9.62,9.62,0,0,1-1-4.47Zm13.53.06a5.89,5.89,0,0,0-.72-3,4.91,4.91,0,0,0-8.61,0,5.92,5.92,0,0,0-.69,2.94,6.27,6.27,0,0,0,.69,3,5.23,5.23,0,0,0,1.86,2,4.93,4.93,0,0,0,2.46.66,4.81,4.81,0,0,0,4.29-2.58A6.05,6.05,0,0,0,121.88,122.75Zm7.4-.06a9.26,9.26,0,0,1,1-4.41,7.62,7.62,0,0,1,6.81-4,7.52,7.52,0,0,1,3.18.72,6.39,6.39,0,0,1,2.52,1.86v-8h3.45V131h-3.45v-2.49a6.37,6.37,0,0,1-2.34,2,7.12,7.12,0,0,1-3.39.78,7.55,7.55,0,0,1-4-1.08,8,8,0,0,1-2.82-3.06,9.62,9.62,0,0,1-1-4.47Zm13.53.06a5.89,5.89,0,0,0-.72-3,4.91,4.91,0,0,0-8.61,0,5.92,5.92,0,0,0-.69,2.94,6.27,6.27,0,0,0,.69,3,5.23,5.23,0,0,0,1.86,2,4.93,4.93,0,0,0,2.46.66,4.81,4.81,0,0,0,4.29-2.58A6.05,6.05,0,0,0,142.81,122.75Zm10.28-10.44a2.19,2.19,0,1,1,0-4.38,2.08,2.08,0,0,1,1.53.63,2.25,2.25,0,0,1,0,3.12A2.08,2.08,0,0,1,153.09,112.31Zm1.68,2.19V131h-3.42V114.5Zm13.43-.27a7.32,7.32,0,0,1,3.48.81,5.74,5.74,0,0,1,2.43,2.4,7.89,7.89,0,0,1,.87,3.84V131h-3.39v-9.24a4.74,4.74,0,0,0-1.11-3.39,3.92,3.92,0,0,0-3-1.2,4,4,0,0,0-3.06,1.2,4.74,4.74,0,0,0-1.11,3.39V131h-3.42V114.5h3.42v1.89a5.69,5.69,0,0,1,2.13-1.59,7,7,0,0,1,2.79-.57Zm18.41,0A7.12,7.12,0,0,1,190,115a6.38,6.38,0,0,1,2.34,1.89v-2.4h3.45v16.8a8.36,8.36,0,0,1-1,4,6.89,6.89,0,0,1-2.79,2.82,8.63,8.63,0,0,1-4.32,1,9.34,9.34,0,0,1-5.58-1.59,5.76,5.76,0,0,1-2.52-4.26H183a3.63,3.63,0,0,0,1.65,2.07,5.63,5.63,0,0,0,3.06.81,4.5,4.5,0,0,0,3.33-1.26,4.89,4.89,0,0,0,1.29-3.66v-2.76a7.05,7.05,0,0,1-5.73,2.76,7.55,7.55,0,0,1-4-1.08,8,8,0,0,1-2.82-3.06,9.62,9.62,0,0,1-1-4.47,9.26,9.26,0,0,1,1-4.41,7.62,7.62,0,0,1,6.78-4Zm5.73,8.52a5.89,5.89,0,0,0-.72-3,4.91,4.91,0,0,0-8.61,0,5.92,5.92,0,0,0-.69,2.94,6.27,6.27,0,0,0,.69,3,5.23,5.23,0,0,0,1.86,2,4.93,4.93,0,0,0,2.46.66,4.81,4.81,0,0,0,4.29-2.58A6.05,6.05,0,0,0,192.34,122.75Zm29.62-4v2.88H209.63v-2.88Zm13.34-4.17a5.77,5.77,0,0,1,2.13-4.35,7.9,7.9,0,0,1,5-1.56,8.17,8.17,0,0,1,3.63.75,5.38,5.38,0,0,1,2.31,2,5.51,5.51,0,0,1,.78,2.91,5.15,5.15,0,0,1-1,3.18,4.81,4.81,0,0,1-2.37,1.77v.12a5,5,0,0,1,2.76,2,6.18,6.18,0,0,1,1,3.63,6.11,6.11,0,0,1-.81,3.15,5.69,5.69,0,0,1-2.4,2.19,8.57,8.57,0,0,1-3.81.78,8.38,8.38,0,0,1-5.34-1.65,6.24,6.24,0,0,1-2.22-4.8h3.3a3.8,3.8,0,0,0,1.23,2.61,4.34,4.34,0,0,0,3,1,3.81,3.81,0,0,0,2.82-1,3.59,3.59,0,0,0,1-2.61,3.26,3.26,0,0,0-1.35-3,7.34,7.34,0,0,0-4.08-.9h-.78V118h.81a7.26,7.26,0,0,0,3.69-.81,2.66,2.66,0,0,0,1.29-2.46,2.92,2.92,0,0,0-.93-2.28,3.72,3.72,0,0,0-2.64-.87,3.67,3.67,0,0,0-2.61.87,3.39,3.39,0,0,0-1.11,2.1Zm18.48,5.25q0-5.19,1.74-8.1t6.06-2.94q4.29,0,6,2.94t1.77,8.1q0,5.25-1.77,8.22t-6,2.94q-4.29,0-6.06-2.94a16.31,16.31,0,0,1-1.74-8.22Zm12.24,0a21.74,21.74,0,0,0-.33-4.11,5.33,5.33,0,0,0-1.26-2.73,4.3,4.3,0,0,0-5.7,0,5.53,5.53,0,0,0-1.29,2.73,23.86,23.86,0,0,0-.3,4.11,25,25,0,0,0,.3,4.23,5.36,5.36,0,0,0,1.26,2.76,3.77,3.77,0,0,0,2.88,1,3.67,3.67,0,0,0,2.85-1,5.23,5.23,0,0,0,1.29-2.76A25,25,0,0,0,266,119.81Zm11.45-2.88a7,7,0,0,1,2.37-1.92,7.24,7.24,0,0,1,3.39-.78,7.62,7.62,0,0,1,6.75,4,9.26,9.26,0,0,1,1,4.41,9.62,9.62,0,0,1-1,4.47,7.72,7.72,0,0,1-2.82,3.06,7.4,7.4,0,0,1-3.93,1.08,7.29,7.29,0,0,1-3.36-.75,7.71,7.71,0,0,1-2.4-1.92v10.26h-3.42V114.5h3.42Zm10,5.76a5.72,5.72,0,0,0-.72-2.94,4.58,4.58,0,0,0-1.86-1.89,4.83,4.83,0,0,0-2.46-.66,4.93,4.93,0,0,0-2.46.66,5.06,5.06,0,0,0-1.86,1.92,6.09,6.09,0,0,0-.69,3,6.27,6.27,0,0,0,.69,3,5.06,5.06,0,0,0,1.86,1.92,4.93,4.93,0,0,0,2.46.66,4.83,4.83,0,0,0,2.46-.66,4.94,4.94,0,0,0,1.86-2A6.05,6.05,0,0,0,287.52,122.69Zm14.54,0L307.4,131h-3.87L300,125.42,296.6,131H293l5.34-8.13L293,114.5h3.87l3.57,5.61,3.36-5.61h3.57Z"/>
        <path class="svgtext" d="M391.34,57a4.73,4.73,0,0,0-3.73,1.57,6.36,6.36,0,0,0-1.35,4.29,6.45,6.45,0,0,0,1.31,4.34,4.71,4.71,0,0,0,3.75,1.52,12.67,12.67,0,0,0,3.4-.54v1.46a10.51,10.51,0,0,1-3.66.56,6.2,6.2,0,0,1-4.87-1.92,7.89,7.89,0,0,1-1.71-5.44A8.61,8.61,0,0,1,385.3,59a5.93,5.93,0,0,1,2.38-2.55,7.25,7.25,0,0,1,3.68-.9,8.8,8.8,0,0,1,3.92.82l-.7,1.42a7.67,7.67,0,0,0-3.24-.76Zm15.47,13L405,65.49h-5.73L397.56,70h-1.68l5.64-14.34h1.4L408.53,70Zm-2.29-6-1.66-4.42a20.32,20.32,0,0,1-.66-2.06,19.17,19.17,0,0,1-.62,2.06L399.9,64Zm15-4.08a4,4,0,0,1-1.49,3.34,6.65,6.65,0,0,1-4.22,1.16h-1.68V70H410.5V55.75h3.7C417.76,55.75,419.55,57.14,419.55,59.91ZM412.16,63h1.49a5.57,5.57,0,0,0,3.19-.71,2.64,2.64,0,0,0,1-2.29,2.46,2.46,0,0,0-.93-2.11,4.86,4.86,0,0,0-2.89-.69h-1.85Zm14.78,7h-1.66V57.23h-4.52V55.75h10.7v1.48h-4.52Zm6.68,0V55.75h1.66V70Zm18-7.16a7.83,7.83,0,0,1-1.74,5.39,6.08,6.08,0,0,1-4.81,2,6.22,6.22,0,0,1-4.88-1.93,8,8,0,0,1-1.71-5.45,7.85,7.85,0,0,1,1.72-5.4,6.23,6.23,0,0,1,4.89-1.92,6.07,6.07,0,0,1,4.8,1.95,7.86,7.86,0,0,1,1.73,5.39Zm-11.38,0a6.84,6.84,0,0,0,1.23,4.41,4.44,4.44,0,0,0,3.6,1.49,4.35,4.35,0,0,0,3.58-1.49,6.88,6.88,0,0,0,1.21-4.41,6.74,6.74,0,0,0-1.21-4.36,4.29,4.29,0,0,0-3.56-1.5,4.4,4.4,0,0,0-3.62,1.51A6.67,6.67,0,0,0,440.22,62.87ZM466,70h-1.9l-7.8-12h-.08c.1,1.4.16,2.69.16,3.86V70h-1.54V55.75h1.88l7.78,11.94h.08c0-.18,0-.74-.09-1.69s-.06-1.64-.05-2v-8.2H466Zm8-4.62V63.93h4.8v1.48ZM495.11,70h-9.39v-1.4l3.76-3.78a26.24,26.24,0,0,0,2.27-2.48,6.65,6.65,0,0,0,.82-1.44,4.19,4.19,0,0,0,.27-1.52,2.37,2.37,0,0,0-.69-1.8,2.67,2.67,0,0,0-1.93-.68,4.81,4.81,0,0,0-1.69.3,6.77,6.77,0,0,0-1.76,1.06l-.86-1.1a6.52,6.52,0,0,1,4.29-1.64,4.54,4.54,0,0,1,3.16,1,3.55,3.55,0,0,1,1.14,2.77,5.3,5.3,0,0,1-.76,2.68,17,17,0,0,1-2.85,3.36l-3.13,3.06v.08h7.35Zm11.52-7.16a10.41,10.41,0,0,1-1.17,5.53,4.3,4.3,0,0,1-7.07,0,10.26,10.26,0,0,1-1.2-5.49,10.39,10.39,0,0,1,1.16-5.54,4.32,4.32,0,0,1,7.07.08A10.23,10.23,0,0,1,506.63,62.87Zm-7.8,0a10.45,10.45,0,0,0,.73,4.54,2.63,2.63,0,0,0,4.68,0,10.63,10.63,0,0,0,.73-4.52,10.49,10.49,0,0,0-.73-4.5,2.63,2.63,0,0,0-4.68,0A10.35,10.35,0,0,0,498.83,62.87Zm15.5,7.36a4.63,4.63,0,0,1-1.91-.39A3.61,3.61,0,0,1,511,68.65h-.11a14,14,0,0,1,.11,1.78v4.4h-1.62V59.33h1.32l.23,1.46H511a3.87,3.87,0,0,1,1.46-1.27,4.42,4.42,0,0,1,1.9-.39,3.93,3.93,0,0,1,3.28,1.46,6.35,6.35,0,0,1,1.17,4.08,6.41,6.41,0,0,1-1.18,4.1A4,4,0,0,1,514.33,70.23Zm-.23-9.72a2.85,2.85,0,0,0-2.37.91,4.69,4.69,0,0,0-.76,2.89v.36a5.31,5.31,0,0,0,.76,3.23,2.84,2.84,0,0,0,2.41,1,2.51,2.51,0,0,0,2.17-1.13,5.33,5.33,0,0,0,.79-3.09,5.13,5.13,0,0,0-.79-3.07,2.59,2.59,0,0,0-2.21-1.07Zm10.1,4-3.72-5.22h1.84l2.82,4.1,2.82-4.1h1.82l-3.72,5.22L530,70h-1.84l-3-4.34-3,4.34h-1.84ZM396.62,95.76a7.21,7.21,0,0,1-1.92,5.4,7.58,7.58,0,0,1-5.52,1.87h-4V88.75h4.38a6.42,6.42,0,0,1,7,7Zm-1.76,0a5.74,5.74,0,0,0-1.41-4.21,5.6,5.6,0,0,0-4.16-1.41h-2.41v11.4h2a6.18,6.18,0,0,0,4.47-1.45A5.83,5.83,0,0,0,394.86,95.81Zm9.23,7.42a5,5,0,0,1-3.75-1.45,5.6,5.6,0,0,1-1.37-4,6.23,6.23,0,0,1,1.27-4.11,4.24,4.24,0,0,1,3.43-1.53,4,4,0,0,1,3.18,1.33A5.07,5.07,0,0,1,408,97v1h-7.38a4.28,4.28,0,0,0,1,2.86,3.3,3.3,0,0,0,2.55,1,8.68,8.68,0,0,0,3.42-.72v1.44a8.78,8.78,0,0,1-1.63.53A8.9,8.9,0,0,1,404.09,103.23Zm-.44-9.74a2.65,2.65,0,0,0-2.06.84,3.86,3.86,0,0,0-.9,2.32h5.6a3.51,3.51,0,0,0-.69-2.34,2.37,2.37,0,0,0-2-.82Zm14.05,6.62a2.7,2.7,0,0,1-1.11,2.31,5.23,5.23,0,0,1-3.13.81,6.82,6.82,0,0,1-3.32-.68v-1.5a8.34,8.34,0,0,0,1.65.61,7.07,7.07,0,0,0,1.71.23,4,4,0,0,0,2-.4,1.37,1.37,0,0,0,.68-1.24,1.31,1.31,0,0,0-.55-1.07,8,8,0,0,0-2.11-1.05,12,12,0,0,1-2.12-1,3,3,0,0,1-.94-1,2.5,2.5,0,0,1-.31-1.26,2.39,2.39,0,0,1,1.07-2.06,4.92,4.92,0,0,1,2.92-.76,8.71,8.71,0,0,1,3.38.7l-.58,1.32a7.79,7.79,0,0,0-2.92-.66,3.37,3.37,0,0,0-1.74.36,1.11,1.11,0,0,0-.58,1,1.26,1.26,0,0,0,.21.73,2.21,2.21,0,0,0,.72.57,14.73,14.73,0,0,0,1.87.8A6.89,6.89,0,0,1,417,98.34,2.45,2.45,0,0,1,417.7,100.11Zm6.93,3.12A4.62,4.62,0,0,1,421,101.8a6,6,0,0,1-1.27-4A6.07,6.07,0,0,1,421,93.6a4.68,4.68,0,0,1,3.69-1.47,7.43,7.43,0,0,1,1.55.17,5.05,5.05,0,0,1,1.21.39l-.5,1.37a7.64,7.64,0,0,0-1.17-.35,5.59,5.59,0,0,0-1.12-.14c-2.18,0-3.27,1.38-3.27,4.16a4.94,4.94,0,0,0,.8,3,2.76,2.76,0,0,0,2.36,1.06,7.07,7.07,0,0,0,2.74-.58v1.44a5.85,5.85,0,0,1-2.7.55Zm10.13-11.1a6.12,6.12,0,0,1,1.28.12l-.22,1.5a5.35,5.35,0,0,0-1.17-.14,2.87,2.87,0,0,0-2.23,1,3.87,3.87,0,0,0-.92,2.63V103h-1.62V92.33h1.34l.19,2h.07a4.73,4.73,0,0,1,1.44-1.61,3.2,3.2,0,0,1,1.84-.57Zm4.91,10.9H438V92.33h1.63Zm-1.76-13.6a1.07,1.07,0,0,1,.27-.81,1,1,0,0,1,1.36,0,1,1,0,0,1,.28.81,1.1,1.1,0,0,1-.28.82,1,1,0,0,1-1.36,0A1.14,1.14,0,0,1,437.91,89.43Zm10.17,13.8a4.63,4.63,0,0,1-1.91-.39,3.68,3.68,0,0,1-1.45-1.19h-.11a14,14,0,0,1,.11,1.78v4.41H443.1V92.33h1.32l.23,1.46h.07a3.87,3.87,0,0,1,1.46-1.27,4.42,4.42,0,0,1,1.9-.39,3.93,3.93,0,0,1,3.28,1.46,7.71,7.71,0,0,1,0,8.18,4,4,0,0,1-3.27,1.46Zm-.23-9.72a2.85,2.85,0,0,0-2.37.91,4.69,4.69,0,0,0-.76,2.89v.36a5.31,5.31,0,0,0,.76,3.23,2.84,2.84,0,0,0,2.41,1,2.52,2.52,0,0,0,2.17-1.12,5.38,5.38,0,0,0,.79-3.1,5.15,5.15,0,0,0-.79-3.07A2.59,2.59,0,0,0,447.85,93.51Zm11,8.38a5.69,5.69,0,0,0,.83-.06,6.32,6.32,0,0,0,.63-.14v1.24a2.59,2.59,0,0,1-.78.21,5.28,5.28,0,0,1-.92.09q-3.1,0-3.1-3.28V93.59H454v-.78l1.54-.68.68-2.28h.94v2.48h3.1v1.26h-3.1v6.3a2.13,2.13,0,0,0,.46,1.48A1.57,1.57,0,0,0,458.83,101.89Zm5.23,1.14h-1.62V92.33h1.62Zm-1.76-13.6a1,1,0,0,1,.28-.81.93.93,0,0,1,.68-.27.94.94,0,0,1,.67.27,1,1,0,0,1,.29.81,1.11,1.11,0,0,1-.29.82,1,1,0,0,1-1.35,0A1.1,1.1,0,0,1,462.3,89.43Zm14.44,8.24a5.92,5.92,0,0,1-1.32,4.09,4.65,4.65,0,0,1-3.64,1.47,4.81,4.81,0,0,1-2.55-.68,4.37,4.37,0,0,1-1.72-1.93,6.64,6.64,0,0,1-.61-3,5.87,5.87,0,0,1,1.31-4.07,4.6,4.6,0,0,1,3.63-1.47,4.51,4.51,0,0,1,3.57,1.5A5.87,5.87,0,0,1,476.74,97.67Zm-8.16,0a5.09,5.09,0,0,0,.82,3.12,3.25,3.25,0,0,0,4.83,0,5.06,5.06,0,0,0,.83-3.13,5,5,0,0,0-.83-3.1,3.31,3.31,0,0,0-4.84,0,5.05,5.05,0,0,0-.81,3.12ZM486.91,103V96.11a2.83,2.83,0,0,0-.59-2,2.43,2.43,0,0,0-1.87-.64,3.06,3.06,0,0,0-2.46.91,4.57,4.57,0,0,0-.78,3V103h-1.62V92.33h1.32l.26,1.46h.08a3.31,3.31,0,0,1,1.39-1.22,4.56,4.56,0,0,1,2-.44,4,4,0,0,1,2.91.94,4,4,0,0,1,1,3v7Zm9.26-4.62V96.93H501v1.48ZM517.35,103H508v-1.4l3.76-3.78A25.72,25.72,0,0,0,514,95.37a5.91,5.91,0,0,0,.82-1.44,4.23,4.23,0,0,0,.28-1.52,2.38,2.38,0,0,0-.7-1.8,2.63,2.63,0,0,0-1.92-.68,4.77,4.77,0,0,0-1.69.3A6.64,6.64,0,0,0,509,91.29l-.86-1.1a6.56,6.56,0,0,1,4.3-1.64,4.51,4.51,0,0,1,3.15,1,3.56,3.56,0,0,1,1.15,2.77A5.4,5.4,0,0,1,516,95a16.75,16.75,0,0,1-2.86,3.36L510,101.45v.08h7.34Zm11.52-7.16a10.41,10.41,0,0,1-1.17,5.53,4.3,4.3,0,0,1-7.07,0,10.26,10.26,0,0,1-1.2-5.49,10.51,10.51,0,0,1,1.16-5.54,4.32,4.32,0,0,1,7.07.08A10.14,10.14,0,0,1,528.87,95.87Zm-7.8,0a10.61,10.61,0,0,0,.73,4.54,2.63,2.63,0,0,0,4.68,0,10.47,10.47,0,0,0,.73-4.52,10.34,10.34,0,0,0-.73-4.5,2.44,2.44,0,0,0-2.34-1.44,2.47,2.47,0,0,0-2.34,1.42,10.5,10.5,0,0,0-.73,4.52Zm20.71,7.36a4.64,4.64,0,0,1-1.92-.39,3.58,3.58,0,0,1-1.44-1.19h-.12a14.12,14.12,0,0,1,.12,1.78v4.41H536.8V92.33h1.31l.23,1.46h.08a3.78,3.78,0,0,1,1.45-1.27,4.46,4.46,0,0,1,1.91-.39,3.94,3.94,0,0,1,3.28,1.46,7.73,7.73,0,0,1,0,8.18,4,4,0,0,1-3.26,1.46Zm-.24-9.72a2.86,2.86,0,0,0-2.37.91,4.63,4.63,0,0,0-.75,2.89v.36a5.39,5.39,0,0,0,.75,3.23,2.84,2.84,0,0,0,2.41,1,2.52,2.52,0,0,0,2.17-1.12,5.31,5.31,0,0,0,.79-3.1,5.08,5.08,0,0,0-.79-3.07,2.59,2.59,0,0,0-2.21-1.07Zm10.1,4-3.72-5.22h1.84l2.83,4.1,2.81-4.1h1.83l-3.73,5.22,3.92,5.48h-1.84l-3-4.34-3,4.34h-1.84ZM390.08,126.29a2.33,2.33,0,0,1,1.1.49,2.85,2.85,0,0,1,.8,1,2.89,2.89,0,0,1-.13,2.8,3.05,3.05,0,0,1-1.26,1.08,4.63,4.63,0,0,1-1.94.38h-4.16V120.88h4a4.57,4.57,0,0,1,1.94.38,2.59,2.59,0,0,1,1.6,2.45,2.47,2.47,0,0,1-.55,1.65,3,3,0,0,1-1.4.93Zm-4.13-.6h2.45a2.35,2.35,0,0,0,1.58-.48,1.85,1.85,0,0,0,0-2.65,2.41,2.41,0,0,0-1.62-.48H386Zm2.57,5.14a2.56,2.56,0,0,0,1.7-.51,2,2,0,0,0,0-2.88,2.58,2.58,0,0,0-1.71-.55H386v3.94Zm13.56-7.57V132h-1.45v-1.3a2.93,2.93,0,0,1-1.17,1.06,3.55,3.55,0,0,1-1.63.37,3.93,3.93,0,0,1-1.84-.42,3.14,3.14,0,0,1-1.3-1.28,4.21,4.21,0,0,1-.46-2.06v-5.14h1.44v5a2.82,2.82,0,0,0,.65,2,2.7,2.7,0,0,0,3.63,0,2.94,2.94,0,0,0,.68-2.09v-4.82Zm4.24,1.2v5.17a1.25,1.25,0,0,0,.27.91,1.35,1.35,0,0,0,.94.26h1.07V132h-1.31a2.61,2.61,0,0,1-1.82-.56,2.39,2.39,0,0,1-.61-1.84v-5.17h-1.14v-1.2h1.14v-2.21h1.46v2.21h2.28v1.2Zm5.82,0v5.17a1.21,1.21,0,0,0,.28.91,1.35,1.35,0,0,0,.94.26h1.07V132h-1.31a2.61,2.61,0,0,1-1.82-.56,2.39,2.39,0,0,1-.61-1.84v-5.17h-1.14v-1.2h1.14v-2.21h1.45v2.21h2.29v1.2Zm7.88,7.71a4.46,4.46,0,0,1-2.24-.56,4.11,4.11,0,0,1-1.57-1.58,5,5,0,0,1-.56-2.4,4.7,4.7,0,0,1,.58-2.37,4,4,0,0,1,1.6-1.58,4.82,4.82,0,0,1,4.51,0,3.85,3.85,0,0,1,1.58,1.57,4.6,4.6,0,0,1,.6,2.38,4.7,4.7,0,0,1-.61,2.4,4.17,4.17,0,0,1-1.62,1.58,4.58,4.58,0,0,1-2.27.56Zm0-1.28a3.13,3.13,0,0,0,1.47-.36,2.82,2.82,0,0,0,1.11-1.11,4,4,0,0,0,0-3.58,2.72,2.72,0,0,0-1.09-1.09,3.07,3.07,0,0,0-2.92,0,2.66,2.66,0,0,0-1.06,1.09,3.67,3.67,0,0,0-.4,1.79,3.94,3.94,0,0,0,.38,1.81,2.68,2.68,0,0,0,1.06,1.1,3,3,0,0,0,1.44.35Zm10.68-7.79a3.53,3.53,0,0,1,2.59,1,3.67,3.67,0,0,1,1,2.78V132h-1.44v-5a2.79,2.79,0,0,0-.66-2,2.32,2.32,0,0,0-1.79-.7,2.43,2.43,0,0,0-1.84.72,3,3,0,0,0-.67,2.09V132h-1.46v-8.77h1.46v1.25a2.85,2.85,0,0,1,1.16-1,3.8,3.8,0,0,1,1.65-.37ZM447,125.55v1.23h-6.38v-1.23Zm6.37-3.76v-1.33h3V132h-1.47V121.79Zm12,1.42a2,2,0,0,0-2.19-1.77,2.37,2.37,0,0,0-2.13,1.1,6.84,6.84,0,0,0-.69,3.6,2.72,2.72,0,0,1,1.22-1.29,3.91,3.91,0,0,1,1.92-.48,3.45,3.45,0,0,1,2.62,1,3.91,3.91,0,0,1,1,2.83,4.24,4.24,0,0,1-.44,1.95,3.1,3.1,0,0,1-1.28,1.38,3.91,3.91,0,0,1-2.06.51,4.06,4.06,0,0,1-2.58-.73,3.8,3.8,0,0,1-1.29-2,11.67,11.67,0,0,1-.37-3.2c0-3.91,1.36-5.87,4.1-5.87a3.29,3.29,0,0,1,3.52,3Zm-2.17,2.39a2.88,2.88,0,0,0-1.3.29,2.24,2.24,0,0,0-1,.84,2.45,2.45,0,0,0-.37,1.38,2.8,2.8,0,0,0,.7,2,2.6,2.6,0,0,0,2,.76,2.34,2.34,0,0,0,1.78-.69,2.66,2.66,0,0,0,.67-1.89,2.83,2.83,0,0,0-.64-2,2.38,2.38,0,0,0-1.87-.72Zm11.84-.72a3.49,3.49,0,0,1,1.28-1.25,3.86,3.86,0,0,1,2-.51,4.08,4.08,0,0,1,2.11.56,4,4,0,0,1,1.51,1.58,4.91,4.91,0,0,1,.54,2.35,5,5,0,0,1-.54,2.37,4.07,4.07,0,0,1-1.51,1.62,4,4,0,0,1-2.11.57,3.88,3.88,0,0,1-2-.49,3.6,3.6,0,0,1-1.3-1.27v5.78h-1.45V123.26H475Zm5.95,2.73a3.5,3.5,0,0,0-.4-1.72,2.72,2.72,0,0,0-1.08-1.12,2.93,2.93,0,0,0-1.49-.39,3,3,0,0,0-1.49.4,2.92,2.92,0,0,0-1.09,1.14,3.48,3.48,0,0,0-.4,1.71,3.6,3.6,0,0,0,.4,1.74,3,3,0,0,0,1.09,1.14,3.11,3.11,0,0,0,3,0,2.83,2.83,0,0,0,1.08-1.14,3.63,3.63,0,0,0,.4-1.76Zm8,4.42-2.08-3.26-2,3.26h-1.52l2.84-4.35-2.84-4.42H485l2.08,3.25,2-3.25h1.52l-2.82,4.34,2.83,4.43ZM385.43,154h-1v-8.57h4.77v.89h-3.78v3.13H389v.89h-3.56Zm10.6-3.22a3.55,3.55,0,0,1-.79,2.46,2.79,2.79,0,0,1-2.18.88,2.87,2.87,0,0,1-1.53-.41,2.59,2.59,0,0,1-1-1.16,3.91,3.91,0,0,1-.37-1.77,3.54,3.54,0,0,1,.79-2.44,2.75,2.75,0,0,1,2.18-.88,2.71,2.71,0,0,1,2.14.9,3.51,3.51,0,0,1,.79,2.42Zm-4.89,0a3.12,3.12,0,0,0,.49,1.88,2,2,0,0,0,2.9,0,3,3,0,0,0,.5-1.88,3,3,0,0,0-.5-1.85,2,2,0,0,0-2.9,0A3,3,0,0,0,391.14,150.81Zm12.15,0a3.6,3.6,0,0,1-.79,2.46,2.82,2.82,0,0,1-2.19.88,2.92,2.92,0,0,1-1.53-.41,2.65,2.65,0,0,1-1-1.16,4.05,4.05,0,0,1-.36-1.77,3.54,3.54,0,0,1,.78-2.44,2.77,2.77,0,0,1,2.18-.88,2.71,2.71,0,0,1,2.14.9,3.51,3.51,0,0,1,.8,2.42Zm-4.89,0a3.05,3.05,0,0,0,.49,1.88,2,2,0,0,0,2.89,0,3,3,0,0,0,.5-1.88,3,3,0,0,0-.5-1.85,1.72,1.72,0,0,0-1.46-.64,1.74,1.74,0,0,0-1.44.62,3.07,3.07,0,0,0-.48,1.87Zm8.67,2.53a4.07,4.07,0,0,0,.5,0,3.43,3.43,0,0,0,.38-.08V154a1.65,1.65,0,0,1-.47.12,2.8,2.8,0,0,1-.55.06c-1.24,0-1.86-.66-1.86-2v-3.82h-.92v-.46l.92-.41.41-1.37H406v1.49h1.87v.75H406v3.78a1.25,1.25,0,0,0,.28.89.93.93,0,0,0,.75.31Zm4.88.81a3,3,0,0,1-2.25-.87,3.4,3.4,0,0,1-.82-2.41,3.7,3.7,0,0,1,.77-2.46,2.53,2.53,0,0,1,2.05-.92,2.42,2.42,0,0,1,1.91.8,3,3,0,0,1,.71,2.09V151h-4.43a2.54,2.54,0,0,0,.57,1.71,2,2,0,0,0,1.53.59,5.18,5.18,0,0,0,2.05-.44v.87a4.65,4.65,0,0,1-1,.32,5.69,5.69,0,0,1-1.11.1Zm-.26-5.84a1.58,1.58,0,0,0-1.24.5,2.41,2.41,0,0,0-.54,1.39h3.36a2.07,2.07,0,0,0-.41-1.4A1.42,1.42,0,0,0,411.69,148.31Zm7.22-.82a3.67,3.67,0,0,1,.77.07l-.14.9a3.85,3.85,0,0,0-.7-.08,1.73,1.73,0,0,0-1.34.63,2.35,2.35,0,0,0-.55,1.58V154h-1v-6.42h.8l.11,1.19h.05a2.93,2.93,0,0,1,.86-1,1.94,1.94,0,0,1,1.11-.34Zm4.55,3.77v-.89h2.87v.89ZM434.14,154h-.95v-6.1c0-.51,0-1,.05-1.45l-.28.26-1.39,1.14-.52-.66,2.27-1.76h.82Zm8.89,0H437.4v-.84l2.26-2.26c.68-.7,1.14-1.2,1.36-1.49a3.87,3.87,0,0,0,.49-.87,2.45,2.45,0,0,0,.16-.91,1.43,1.43,0,0,0-.41-1.08,1.61,1.61,0,0,0-1.16-.41,2.87,2.87,0,0,0-1,.18A4,4,0,0,0,438,147l-.52-.66a3.94,3.94,0,0,1,2.58-1A2.71,2.71,0,0,1,442,146a2.12,2.12,0,0,1,.69,1.66,3.16,3.16,0,0,1-.46,1.61,10.16,10.16,0,0,1-1.71,2l-1.87,1.83v0H443Zm7.79.12a2.88,2.88,0,0,1-1.15-.23,2.31,2.31,0,0,1-.87-.72h-.07a8.11,8.11,0,0,1,.07,1.07v2.64h-1v-9.3h.79l.14.88h0a2.18,2.18,0,0,1,.88-.76,2.58,2.58,0,0,1,1.14-.24,2.37,2.37,0,0,1,2,.87,3.88,3.88,0,0,1,.7,2.45,3.81,3.81,0,0,1-.71,2.46,2.36,2.36,0,0,1-2,.88Zm-.14-5.83a1.75,1.75,0,0,0-1.43.54,2.86,2.86,0,0,0-.45,1.74v.21a3.22,3.22,0,0,0,.45,1.94,1.73,1.73,0,0,0,1.45.58,1.48,1.48,0,0,0,1.3-.67,3.16,3.16,0,0,0,.48-1.86A3,3,0,0,0,452,149a1.53,1.53,0,0,0-1.32-.64Zm6.06,2.42-2.24-3.13h1.11l1.7,2.46,1.68-2.46h1.1l-2.23,3.13,2.35,3.29H459.1l-1.79-2.6-1.82,2.6h-1.1Z"/>
      </g>
    </g>
  </g>
</svg>
