<svg xmlns="http://www.w3.org/2000/svg" viewBox="0 0 1417 808.17">
  <defs>
    <style>
      .clsh-1 {
        fill: #efefef;
      }

      .clsh-2 {
        fill: #799400;
      }

      .clsh-3 {
        fill: #1c1c1c;
      }

      .clsh-4 {
        fill: #ccc;
      }

      .clsh-5, .clsh-8, .clsh-9 {
        fill: none;
        stroke: #799400;
      }

      .clsh-5 {
        stroke-width: 2px;
      }

      .clsh-6 {
        fill: #60681f;
      }

      .clsh-7 {
        fill: #fbfbfb;
      }

      .clsh-8 {
        stroke-linecap: round;
        stroke-linejoin: round;
      }

      .clsh-8, .clsh-9 {
        stroke-dasharray: 5 5;
      }
    </style>
  </defs>
  <g id="Layer_2" data-name="Layer 2">
    <g id="Layer_1-2" data-name="Layer 1">
      <path class="svgtext" d="M659.75,17.5,663.14,0h-1.8l-1.51,7.9H649.72L651.24,0h-1.8l-3.38,17.5h1.79l1.54-8h10.13l-1.56,8ZM677,10.25a7.84,7.84,0,0,1-2,5.32,6.58,6.58,0,0,1-5.13,2.27c-3.33,0-5.57-2.47-5.57-5.88a7.76,7.76,0,0,1,2-5.35,6.44,6.44,0,0,1,5.06-2.27c3.34,0,5.6,2.49,5.6,5.91Zm-1.76.11c0-2.66-1.48-4.51-4-4.51a4.56,4.56,0,0,0-3.76,1.85,6.7,6.7,0,0,0-1.42,4.17c0,2.63,1.51,4.43,4,4.43a4.53,4.53,0,0,0,3.72-1.82,6.49,6.49,0,0,0,1.43-4.12ZM696.6,17.5h-1.74l1.52-7.78a8.93,8.93,0,0,0,.22-1.54,2.12,2.12,0,0,0-2-2.26,2.36,2.36,0,0,0-.46,0,5.68,5.68,0,0,0-3.73,1.7c0,.12-.06.34-.06.42a6.75,6.75,0,0,1-.14,1.1l-1.65,8.34h-1.73l1.54-7.78a6.63,6.63,0,0,0,.19-1.54,2.12,2.12,0,0,0-2-2.26,2.36,2.36,0,0,0-.46,0,5.67,5.67,0,0,0-3.62,1.59l-2,10h-1.65l2.49-12.82,1.82-.37L682.86,6a6,6,0,0,1,4-1.71,3.4,3.4,0,0,1,3.45,2.21,6.78,6.78,0,0,1,4.56-2.21,3.32,3.32,0,0,1,3.6,3,3.23,3.23,0,0,1,0,.44,7.87,7.87,0,0,1-.19,1.68Zm6.12-6.38v.61c0,2.86,1.65,4.51,4.23,4.51a7.45,7.45,0,0,0,3.08-.73l.25,1.57a7.3,7.3,0,0,1-3.47.78,5.63,5.63,0,0,1-5.89-5.34c0-.22,0-.44,0-.66a8.09,8.09,0,0,1,1.87-5.29,6,6,0,0,1,4.79-2.27C710.25,4.3,712,6,712,8.42a6.44,6.44,0,0,1-.56,2.63ZM703,9.77h7.08a3.6,3.6,0,0,0,.2-1.17,2.61,2.61,0,0,0-2.51-2.71,2.68,2.68,0,0,0-.4,0C705.28,5.88,703.6,7.48,703,9.77Zm14.69-4a6.19,6.19,0,0,1,3.61-1.37c2.89,0,5,2.35,5,5.57a8.08,8.08,0,0,1-2,5.6,6.5,6.5,0,0,1-5.09,2.29,6,6,0,0,1-3.64-1.26L714.15,24h-1.74l3.75-19.34L718,4.31Zm-.31,1.57-1.48,7.56a4.71,4.71,0,0,0,6.66.14,4.88,4.88,0,0,0,.48-.54,6.65,6.65,0,0,0,1.48-4.28c0-2.58-1.54-4.31-3.64-4.31A5.31,5.31,0,0,0,717.37,7.34Zm18.08,7.44.73-3.66c-4.42.05-6.64,1-6.64,2.94a2.23,2.23,0,0,0,2.19,2.27H732a4.84,4.84,0,0,0,3.48-1.54Zm.95-4.9.14-.61c.42-2.13-.64-3.36-3-3.36a8,8,0,0,0-3.87,1.15l-.22-1.57a8.69,8.69,0,0,1,4.31-1.15c3.33,0,5.12,1.74,4.42,5.15l-1.09,5.32c-.22,1.12,0,1.57,1,1.54l-.31,1.43c-1.54.08-2.35-.5-2.44-1.79h0a5.28,5.28,0,0,1-4,1.85,3.68,3.68,0,0,1-3.73-3.59c0-2.88,2.72-4.48,8.68-4.37Zm6.48,2.92a4.13,4.13,0,0,1-1.57-3.39,4.8,4.8,0,0,1,1.57-3.59,5.3,5.3,0,0,1,3.67-1.51,5.15,5.15,0,0,1,2.88.81l4-.33.08,1.76-2.94-.17a4,4,0,0,1,.67,2.3,4.83,4.83,0,0,1-1.51,3.61A5.26,5.26,0,0,1,746,13.78a5.57,5.57,0,0,1-2.27-.48c-.7.31-1.23.84-1.23,1.4,0,.9.81,1.34,3,1.79l.76.14c2.88.59,4.34,1.79,4.34,3.59,0,2.4-2.44,4.25-6.5,4.25-3.67,0-6-1.57-6-3.78,0-1.65,1.29-3.05,3.61-3.69a2,2,0,0,1-1.06-1.74,2.86,2.86,0,0,1,2.21-2.46Zm3.22-.4A3.46,3.46,0,0,0,749.6,9V8.79a2.91,2.91,0,0,0-2.72-3.09,2.46,2.46,0,0,0-.47,0A3.53,3.53,0,0,0,743,9.32a2.88,2.88,0,0,0,2.66,3.08Zm-3.19,5.13c-1.9.42-3,1.48-3,2.88,0,1.63,1.87,2.61,4.45,2.61,2.77,0,4.63-1,4.63-2.61,0-1.09-1.15-1.85-3.47-2.29-.81-.14-1.65-.34-2.55-.59Zm12.87-6.41v.61c0,2.86,1.65,4.51,4.22,4.51a7.3,7.3,0,0,0,3.08-.73l.26,1.57a7.24,7.24,0,0,1-3.48.78A5.62,5.62,0,0,1,754,12.5c0-.21,0-.43,0-.64a8.1,8.1,0,0,1,1.88-5.29,6,6,0,0,1,4.79-2.27c2.66,0,4.45,1.68,4.45,4.12a6.44,6.44,0,0,1-.56,2.63ZM756,9.77h7.08a3.6,3.6,0,0,0,.2-1.17,2.61,2.61,0,0,0-2.51-2.71,2.88,2.88,0,0,0-.41,0c-2.08,0-3.76,1.57-4.34,3.86Z"/>
      <rect class="clsh-2" x="43" y="465.17" width="180" height="52" rx="10"/>
      <path class="clsh-3" d="M120.81,498.17V486.92H118v4.37h-4.52v-4.37h-2.86v11.25h2.86v-4.5H118v4.46Zm6.27-8.64a4.47,4.47,0,0,1,3.19,1.19,4.79,4.79,0,0,1-.06,6.5,4.53,4.53,0,0,1-3.24,1.22,4.36,4.36,0,0,1-3.18-1.19,4.1,4.1,0,0,1-1.26-3.24,4.28,4.28,0,0,1,1.29-3.27,4.62,4.62,0,0,1,3.26-1.21Zm1.68,4.45a2.88,2.88,0,0,0-.45-1.71,1.55,1.55,0,0,0-1.31-.6,1.5,1.5,0,0,0-1.28.63,3.47,3.47,0,0,0,0,3.42,1.52,1.52,0,0,0,1.3.63,1.48,1.48,0,0,0,1.29-.63,2.92,2.92,0,0,0,.44-1.71Zm17.57,4.19h-2.77v-4.93c0-.9-.38-1.35-1.13-1.35a2.05,2.05,0,0,0-1.35.54v5.74h-2.77v-4.93c0-.9-.38-1.35-1.16-1.35a2.07,2.07,0,0,0-1.35.5v5.78H133v-8.23l2.77-.34v1.17a3.74,3.74,0,0,1,2.67-1.24A2.43,2.43,0,0,1,140.8,491a3.75,3.75,0,0,1,2.89-1.49c1.64,0,2.61,1.08,2.61,2.9Zm4.21-3.56h0c.09,1.14.86,1.77,2.21,1.77a5.44,5.44,0,0,0,2.74-.81l.27,2.14a7.05,7.05,0,0,1-3.26.68c-2.9,0-4.68-1.6-4.68-4.37a4.29,4.29,0,0,1,4.05-4.52h.49c2.34,0,3.67,1.37,3.67,3.51a4.63,4.63,0,0,1-.18,1.48Zm0-1.39h2.9v-.16c0-1.06-.44-1.6-1.28-1.6a1.73,1.73,0,0,0-1.62,1.78Z"/>
      <rect class="clsh-4" x="945" y="585.17" width="180" height="52" rx="10"/>
      <path d="M1024.26,618.17H1027l-.38-11.25h-4l-2.34,8.44-2.34-8.44h-4l-.4,11.25h2.66l.08-8.66,2.46,8.48h3.06l2.47-8.5Zm6.89-3.56h0c.09,1.14.86,1.77,2.21,1.77a5.44,5.44,0,0,0,2.74-.81l.27,2.14a7.08,7.08,0,0,1-3.26.68c-2.9,0-4.68-1.6-4.68-4.37a4.29,4.29,0,0,1,4-4.52h.49c2.34,0,3.67,1.37,3.67,3.51a5.27,5.27,0,0,1-.18,1.48Zm0-1.39H1034v-.16c0-1.06-.43-1.6-1.27-1.6a1.73,1.73,0,0,0-1.62,1.78Zm15.27,4.95h-2.77v-4.95c0-1-.4-1.33-1.19-1.33a2.31,2.31,0,0,0-1.51.63v5.65h-2.77v-8.23l2.77-.34V611a3.75,3.75,0,0,1,2.81-1.44,2.55,2.55,0,0,1,2.68,2.42,2.36,2.36,0,0,1,0,.46Zm1.88-8.37h2.77v5c0,.9.38,1.35,1.15,1.35a2,2,0,0,0,1.43-.56V609.8h2.77V618l-2.77.35v-1.25a3.59,3.59,0,0,1-2.72,1.3c-1.64,0-2.63-1.1-2.63-2.88Z"/>
      <rect class="clsh-5" x="44" y="392.17" width="178" height="50" rx="9"/>
      <path class="svgtext" d="M81.06,412.92H79.89L76.25,423,72.6,412.92H71.43l4.12,11.25H76.9Zm2.8.29a.9.9,0,0,1-.2.57.72.72,0,0,1-1,.1.47.47,0,0,1-.1-.1.89.89,0,0,1,0-1.13.68.68,0,0,1,.55-.23.7.7,0,0,1,.56.23A.89.89,0,0,1,83.86,413.21Zm-.2,11H82.55V416l1.11-.24ZM91.24,422c0,1.49-1.26,2.48-2.95,2.48a4.94,4.94,0,0,1-2.7-.73l.3-1a4.31,4.31,0,0,0,2.43.76c1.05,0,1.86-.53,1.86-1.39a1.06,1.06,0,0,0-.13-.52,2.55,2.55,0,0,0-.29-.38,2.25,2.25,0,0,0-.5-.29,4.71,4.71,0,0,0-.52-.21l-.63-.2c-1.44-.43-2.4-1.05-2.4-2.34,0-1.48,1.17-2.38,2.79-2.38a5.47,5.47,0,0,1,2.51.61l-.33,1a4.65,4.65,0,0,0-2.25-.61c-1,0-1.65.47-1.65,1.26a.82.82,0,0,0,.12.49,1.22,1.22,0,0,0,.27.36,1.33,1.33,0,0,0,.49.28l.52.22.63.2c1.49.43,2.43,1,2.43,2.41Zm3.34-8.71a.89.89,0,0,1-.19.57.73.73,0,0,1-1.12,0,.89.89,0,0,1,0-1.13.7.7,0,0,1,.56-.23.73.73,0,0,1,.56.23.92.92,0,0,1,.19.52Zm-.19,11H93.27V416l1.12-.24Zm6.73-.16a4.18,4.18,0,0,1-1.84.43c-1.53,0-2.27-.86-2.21-2.59l.12-4.88L95.93,417l.06-.7,1.24-.29v-1.87h1.06V416H101l0,1h-2.7L98.13,422c0,1,.36,1.55,1.2,1.55a3.84,3.84,0,0,0,1.59-.39Zm6.77-2.09c0,1.49-1.26,2.48-3,2.48a4.91,4.91,0,0,1-2.69-.73l.3-1a4.31,4.31,0,0,0,2.43.76c1,0,1.85-.53,1.85-1.39a1,1,0,0,0-.12-.52,2.55,2.55,0,0,0-.29-.38,2.25,2.25,0,0,0-.5-.29,4.87,4.87,0,0,0-.53-.21l-.63-.2c-1.44-.43-2.39-1-2.39-2.34,0-1.48,1.17-2.38,2.79-2.38a5.43,5.43,0,0,1,2.5.61l-.32,1a4.68,4.68,0,0,0-2.25-.61c-1,0-1.66.47-1.66,1.26a.9.9,0,0,0,.13.49,1.22,1.22,0,0,0,.27.36,1.33,1.33,0,0,0,.49.28l.52.22c.12,0,.34.11.63.2,1.49.43,2.43,1,2.43,2.41Zm10.21,2.09a4.18,4.18,0,0,1-1.84.43c-1.53,0-2.27-.86-2.21-2.59l.12-4.88-1.26-.07.06-.7,1.24-.29.05-1.87h1.06V416H118v1h-2.74l-.12,4.93c0,1,.36,1.55,1.2,1.55a3.84,3.84,0,0,0,1.59-.39Zm8.37.16h-1.12v-5.33c0-1.38-.59-2.09-1.76-2.09A3.61,3.61,0,0,0,121,418v6.25h-1.11V412l1.11-.24V417a4,4,0,0,1,2.87-1.34c1.62,0,2.57,1,2.57,2.83Zm3.13-4.09v.09c.05,1.89,1.17,3.19,2.88,3.19a4.21,4.21,0,0,0,2.39-.68l.22,1a4.86,4.86,0,0,1-2.65.7,4,4,0,0,1-4-4.28,4.61,4.61,0,0,1,1.11-3.19,3.61,3.61,0,0,1,2.77-1.24,2.84,2.84,0,0,1,3,2.65,2,2,0,0,1,0,.35,4.17,4.17,0,0,1-.18,1.32Zm.07-.88h4.57a2.16,2.16,0,0,0,0-.36,1.87,1.87,0,0,0-1.62-2.1,1.62,1.62,0,0,0-.38,0,2.67,2.67,0,0,0-2.61,2.5Zm14.35,5,2.25-6.66,2.25,6.66h1L152,416h-1.22L149,422.6,146.79,416h-1l-2.14,6.56L141.74,416h-1.19l2.52,8.28Zm10-4.13v.09c0,1.89,1.17,3.19,2.88,3.19a4.21,4.21,0,0,0,2.39-.68l.22,1a4.86,4.86,0,0,1-2.65.7,4,4,0,0,1-4-4.28A4.61,4.61,0,0,1,154,417a3.61,3.61,0,0,1,2.77-1.24,2.84,2.84,0,0,1,3,2.65,2,2,0,0,1,0,.35,4.17,4.17,0,0,1-.18,1.32Zm.07-.88h4.57a2.16,2.16,0,0,0,0-.36,1.87,1.87,0,0,0-1.62-2.1,1.62,1.62,0,0,0-.38,0,2.67,2.67,0,0,0-2.61,2.5Zm15,.74a4.61,4.61,0,0,1-1.13,3.2,3.75,3.75,0,0,1-2.94,1.26,4.47,4.47,0,0,1-2-.45l-1.12.49v-12.4l1.12-.24v5a3.56,3.56,0,0,1,2.48-1c2.18,0,3.6,1.71,3.6,4.19Zm-1.15,0c0-1.9-1-3.22-2.66-3.22a3.31,3.31,0,0,0-2.28.88v5.06a3.23,3.23,0,0,0,2.07.65c1.72,0,2.82-1.35,2.82-3.39Zm8.09,1.93c0,1.49-1.26,2.48-2.95,2.48a4.94,4.94,0,0,1-2.7-.73l.31-1a4.24,4.24,0,0,0,2.43.76c1,0,1.85-.53,1.85-1.39a1,1,0,0,0-.12-.52,2.55,2.55,0,0,0-.29-.38,2.32,2.32,0,0,0-.51-.29,4.71,4.71,0,0,0-.52-.21l-.63-.2c-1.44-.43-2.39-1-2.39-2.34,0-1.48,1.17-2.38,2.79-2.38a5.43,5.43,0,0,1,2.5.61l-.32,1a4.68,4.68,0,0,0-2.25-.61c-1,0-1.66.47-1.66,1.26a.9.9,0,0,0,.13.49,1.22,1.22,0,0,0,.27.36,1.29,1.29,0,0,0,.48.28l.52.22.63.2c1.5.43,2.43,1,2.43,2.41Zm3.35-8.71a.9.9,0,0,1-.2.57.73.73,0,0,1-1.12,0,.94.94,0,0,1,0-1.13.73.73,0,0,1,.56-.23.7.7,0,0,1,.56.23.87.87,0,0,1,.15.54Zm-.2,11H178V416l1.12-.24Zm6.73-.16a4.17,4.17,0,0,1-1.83.43c-1.53,0-2.27-.86-2.22-2.59L182,417l-1.26-.07v-.7L182,416l.06-1.87h1.06L183,416h2.75v1H183l-.13,4.93c0,1,.36,1.55,1.21,1.55a3.92,3.92,0,0,0,1.58-.39Zm2.33-3.93v.09c0,1.89,1.17,3.19,2.88,3.19a4.21,4.21,0,0,0,2.39-.68l.22,1a4.86,4.86,0,0,1-2.65.7,3.92,3.92,0,0,1-4-3.86,3,3,0,0,1,0-.42A4.67,4.67,0,0,1,188.2,417a3.61,3.61,0,0,1,2.77-1.24,2.84,2.84,0,0,1,3,2.65,2,2,0,0,1,0,.35,4.48,4.48,0,0,1-.18,1.32Zm.07-.88h4.57a2.16,2.16,0,0,0,0-.36,1.87,1.87,0,0,0-1.62-2.1,1.62,1.62,0,0,0-.38,0,2.67,2.67,0,0,0-2.61,2.5Z"/>
      <rect class="clsh-5" x="44" y="323.17" width="178" height="50" rx="9"/>
      <path class="svgtext" d="M77.7,355.17v-1.08H72.14V343.92H71v11.25Zm2.15-4.09v.09c.06,1.89,1.17,3.19,2.88,3.19a4.26,4.26,0,0,0,2.4-.68l.21,1a4.82,4.82,0,0,1-2.64.7,3.92,3.92,0,0,1-4-3.86,3,3,0,0,1,0-.42,4.66,4.66,0,0,1,1.11-3.19,3.61,3.61,0,0,1,2.8-1.24,2.83,2.83,0,0,1,3,2.63,2.28,2.28,0,0,1,0,.37,4.17,4.17,0,0,1-.18,1.32Zm.07-.88H84.5a2.16,2.16,0,0,0,0-.36,1.87,1.87,0,0,0-1.62-2.1,1.62,1.62,0,0,0-.38,0A2.67,2.67,0,0,0,79.92,350.2ZM92,353.35v-2.41c-2.78.31-3.84.92-3.84,2a1.51,1.51,0,0,0,1.55,1.46l.14,0A2.78,2.78,0,0,0,92,353.35Zm.07.83H92a3,3,0,0,1-2.41,1.22A2.37,2.37,0,0,1,87,353.25a.62.62,0,0,1,0-.13c0-1.77,1.68-2.74,5-2.94v-.51a1.72,1.72,0,0,0-1.38-2,2.15,2.15,0,0,0-.62,0,5.06,5.06,0,0,0-2.7,1l-.25-1a5.86,5.86,0,0,1,3.06-1c2,0,3,1,3,3v4c0,.65.15.85.83.83l-.07.92c-1,0-1.61-.39-1.73-1.24Zm4.65-4.3v5.29h-1.1v-8.24l1.12-.26v1.77a2.73,2.73,0,0,1,2.43-1.77,2.92,2.92,0,0,1,1.44.38l-.29,1a2.55,2.55,0,0,0-1.26-.36c-.92.06-1.69.77-2.32,2.19Zm11.85,5.29h-1.11v-5.33c0-1.44-.56-2.09-1.82-2.09a3.56,3.56,0,0,0-2.5,1.17v6.25H102v-8.24l1.12-.24V348a4,4,0,0,1,2.88-1.37c1.66,0,2.63,1,2.63,2.83Zm7.49-2.25c0,1.49-1.26,2.48-3,2.48a4.94,4.94,0,0,1-2.7-.73l.3-1a4.31,4.31,0,0,0,2.43.76c1,0,1.86-.53,1.86-1.39a1.06,1.06,0,0,0-.13-.52,2.55,2.55,0,0,0-.29-.38,2.25,2.25,0,0,0-.5-.29,4.71,4.71,0,0,0-.52-.21l-.63-.2c-1.44-.43-2.4-1-2.4-2.34s1.17-2.38,2.79-2.38a5.43,5.43,0,0,1,2.5.61l-.32,1a4.65,4.65,0,0,0-2.25-.61c-1,0-1.66.47-1.66,1.26a.9.9,0,0,0,.13.49,1.25,1.25,0,0,0,.76.64l.52.22a4.05,4.05,0,0,1,.63.2c1.56.41,2.5,1,2.5,2.39Zm10.41.43v-2.41c-2.78.31-3.84.92-3.84,2a1.51,1.51,0,0,0,1.57,1.46l.13,0a2.79,2.79,0,0,0,2.16-1Zm.07.83h-.06a3,3,0,0,1-2.41,1.22,2.37,2.37,0,0,1-2.6-2.13.76.76,0,0,1,0-.15c0-1.77,1.68-2.74,5-2.94v-.51a1.72,1.72,0,0,0-1.39-2,2.11,2.11,0,0,0-.56,0,5.06,5.06,0,0,0-2.7,1l-.25-1a5.86,5.86,0,0,1,3.06-1c2,0,3,1,2.95,3v4c0,.65.15.85.83.83l-.07.92c-1,0-1.65-.39-1.77-1.24Zm10.73-3.24a4.56,4.56,0,0,1-1.13,3.2,3.73,3.73,0,0,1-2.93,1.26,4.47,4.47,0,0,1-2-.45l-1.12.49V343l1.12-.24v5a3.56,3.56,0,0,1,2.48-1c2.18,0,3.6,1.71,3.6,4.19Zm-1.15,0c0-1.9-1-3.22-2.66-3.22a3.35,3.35,0,0,0-2.27.92v5.06a3.23,3.23,0,0,0,2.07.65c1.79,0,2.88-1.32,2.88-3.36Zm10.64,0a4.35,4.35,0,0,1-1.16,3.15,4.06,4.06,0,0,1-5.76,0,4.47,4.47,0,0,1-1.11-3.15,4.38,4.38,0,0,1,1.17-3.17,3.82,3.82,0,0,1,2.9-1.21,3.77,3.77,0,0,1,2.86,1.19A4.45,4.45,0,0,1,146.76,350.94Zm-1.1,0c0-2-1.15-3.37-2.92-3.37s-2.9,1.35-2.9,3.33,1.16,3.37,2.92,3.37,2.92-1.22,2.92-3.2Zm3.1-4.14h1.11v5.32c0,1.39.6,2.09,1.79,2.09a3.42,3.42,0,0,0,2.53-1.17v-6.11h1.12v8.24l-1.12.23v-1.33a3.92,3.92,0,0,1-2.84,1.33c-1.62,0-2.59-1-2.59-2.82ZM162,355a4.17,4.17,0,0,1-1.83.43c-1.53,0-2.27-.86-2.22-2.59l.13-4.88-1.26-.07.06-.7,1.24-.29,0-1.87h1.06l0,1.92H162v1h-2.74l-.12,4.93c0,1,.36,1.55,1.2,1.55a3.84,3.84,0,0,0,1.59-.39Zm7.22-4.34v4.5h-1.15V343.92h3c2.72,0,4.09,1.21,4.09,3.24a3.27,3.27,0,0,1-2.61,3.17l3.11,4.84h-1.33l-2.88-4.64Zm0-1,2-.07c1.59-.05,2.79-.93,2.79-2.36s-1-2.28-3-2.28h-1.74Zm15.54,1.39a4.34,4.34,0,0,1-1.15,3.15,3.8,3.8,0,0,1-2.9,1.22,3.73,3.73,0,0,1-2.86-1.18,4.92,4.92,0,0,1,0-6.32,3.82,3.82,0,0,1,2.9-1.21,3.77,3.77,0,0,1,2.86,1.19,4.45,4.45,0,0,1,1.1,3.15Zm-1.1,0c0-2-1.15-3.37-2.91-3.37s-2.9,1.35-2.9,3.33,1.15,3.37,2.91,3.37,2.92-1.34,2.92-3.32Zm7.4-8.07-.05.25c0,.18-.09.35-.14.51l-.08.25a3.07,3.07,0,0,0-1.26-.34c-.91,0-1.36.65-1.36,1.92V347h2.59l-.06,1h-2.53v7.22h-1.1V348l-1.33-.09.07-.7,1.24-.29v-1.3c0-2,.86-3,2.48-3a3.78,3.78,0,0,1,1.55.39Zm5.54,0,0,.25c-.06.18-.09.35-.15.51l-.07.25a3.07,3.07,0,0,0-1.26-.34c-.92,0-1.37.65-1.37,1.92V347h2.6l-.06,1H193.7v7.22h-1.09V348l-1.34-.09.08-.7,1.24-.29v-1.3c0-2,.86-3,2.48-3a3.78,3.78,0,0,1,1.55.39Z"/>
      <rect class="clsh-5" x="653" y="708.17" width="178" height="50" rx="9"/>
      <path class="svgtext" d="M708.05,735.67v4.5H706.9V728.92h3c2.72,0,4.09,1.21,4.09,3.24a3.27,3.27,0,0,1-2.61,3.17l3.11,4.84h-1.33l-2.88-4.64Zm0-1,2-.07c1.59,0,2.79-.93,2.79-2.36s-1.08-2.25-3.06-2.25H708Zm8.65,1.44v.09a2.9,2.9,0,0,0,2.88,3.19,4.27,4.27,0,0,0,2.42-.72l.22,1a4.86,4.86,0,0,1-2.65.7,3.92,3.92,0,0,1-4-3.86,3,3,0,0,1,0-.42,4.67,4.67,0,0,1,1.12-3.19,3.61,3.61,0,0,1,2.77-1.24,2.84,2.84,0,0,1,3,2.65,2,2,0,0,1,0,.35,4.48,4.48,0,0,1-.18,1.32Zm.07-.88h4.57a2.16,2.16,0,0,0,0-.36,1.87,1.87,0,0,0-1.62-2.1,1.62,1.62,0,0,0-.38,0,2.67,2.67,0,0,0-2.61,2.5ZM729.51,738c0,1.49-1.26,2.48-3,2.48a4.94,4.94,0,0,1-2.7-.73l.3-1a4.31,4.31,0,0,0,2.43.76c1,0,1.86-.53,1.86-1.39a1.06,1.06,0,0,0-.13-.52,2.55,2.55,0,0,0-.29-.38,2.25,2.25,0,0,0-.5-.29,4.71,4.71,0,0,0-.52-.21l-.63-.2c-1.44-.43-2.4-1.05-2.4-2.34,0-1.48,1.17-2.38,2.79-2.38a5.43,5.43,0,0,1,2.5.61l-.32,1a4.68,4.68,0,0,0-2.25-.61c-1,0-1.66.47-1.66,1.26a.9.9,0,0,0,.13.49,1.22,1.22,0,0,0,.27.36,1.33,1.33,0,0,0,.49.28l.52.22c.12,0,.34.11.63.2,1.54.38,2.48,1,2.48,2.36Zm9.5-1.89a4.34,4.34,0,0,1-1.15,3.15,3.8,3.8,0,0,1-2.9,1.22,3.73,3.73,0,0,1-2.86-1.18,4.92,4.92,0,0,1,0-6.32,3.82,3.82,0,0,1,2.9-1.21,3.77,3.77,0,0,1,2.86,1.19A4.45,4.45,0,0,1,739,736Zm-1.1,0c0-2-1.15-3.37-2.92-3.37S732.1,734,732.1,736s1.15,3.37,2.91,3.37,2.9-1.34,2.9-3.32Zm3.1-4.14h1.12v5.32c0,1.39.59,2.09,1.78,2.09a3.46,3.46,0,0,0,2.54-1.17v-6.24h1.11v8.24l-1.11.23v-1.32a4,4,0,0,1-2.85,1.33c-1.62,0-2.59-1-2.59-2.82Zm10.26,3v5.29h-1.12v-8.24l1.12-.24v1.77a2.72,2.72,0,0,1,2.43-1.78,2.92,2.92,0,0,1,1.44.38l-.29,1a2.55,2.55,0,0,0-1.26-.36c-.92,0-1.69.71-2.32,2.13Zm11.17,4.8a4.64,4.64,0,0,1-2.56.7c-2.46,0-4-1.72-4-4.33a4.41,4.41,0,0,1,1.15-3.15,3.86,3.86,0,0,1,2.9-1.23,4.88,4.88,0,0,1,2.58.7l-.29,1a4.13,4.13,0,0,0-2.29-.66c-1.78,0-2.9,1.31-2.9,3.29s1.16,3.33,2.92,3.33a4.07,4.07,0,0,0,2.29-.68Zm2.58-3.62v.09c.05,1.89,1.17,3.19,2.88,3.19a4.21,4.21,0,0,0,2.39-.68l.22,1a4.86,4.86,0,0,1-2.65.7,3.92,3.92,0,0,1-4-3.86,3,3,0,0,1,0-.42,4.67,4.67,0,0,1,1.12-3.19,3.61,3.61,0,0,1,2.77-1.24,2.84,2.84,0,0,1,3,2.65,2,2,0,0,1,0,.35,4.48,4.48,0,0,1-.18,1.32Zm.07-.88h4.57a2.16,2.16,0,0,0,0-.36,1.87,1.87,0,0,0-1.62-2.1,1.62,1.62,0,0,0-.38,0,2.67,2.67,0,0,0-2.61,2.5Zm12.74,2.72c0,1.49-1.26,2.48-3,2.48a4.94,4.94,0,0,1-2.7-.73l.3-1a4.31,4.31,0,0,0,2.43.76c1,0,1.86-.53,1.86-1.39a1.06,1.06,0,0,0-.13-.52,2.55,2.55,0,0,0-.29-.38,2.25,2.25,0,0,0-.5-.29,4.71,4.71,0,0,0-.52-.21l-.63-.2c-1.44-.43-2.4-1-2.4-2.34,0-1.48,1.17-2.38,2.79-2.38a5.47,5.47,0,0,1,2.51.61l-.33,1a4.67,4.67,0,0,0-2.22-.63c-1,0-1.65.47-1.65,1.26a.82.82,0,0,0,.12.49,1.22,1.22,0,0,0,.27.36,1.33,1.33,0,0,0,.49.28l.52.22.63.2c1.51.46,2.45,1.07,2.45,2.44Z"/>
      <rect class="clsh-5" x="18" y="708.17" width="178" height="50" rx="9"/>
      <path class="svgtext" d="M65.61,740.17V728.92H64.46V734H57.87v-5.08H56.72v11.25h1.15V735h6.59v5.13ZM75.84,736a4.34,4.34,0,0,1-1.15,3.15,3.8,3.8,0,0,1-2.9,1.22,3.73,3.73,0,0,1-2.86-1.18,4.92,4.92,0,0,1,0-6.32,3.82,3.82,0,0,1,2.9-1.21,3.77,3.77,0,0,1,2.86,1.19A4.41,4.41,0,0,1,75.84,736Zm-1.1,0c0-2-1.15-3.37-2.92-3.37S68.93,734,68.93,736s1.15,3.37,2.91,3.37,2.9-1.31,2.9-3.29Zm14.58,4.1H88.21v-5.31c0-1.4-.58-2.11-1.75-2.11a3.47,3.47,0,0,0-2.32,1.07,4.45,4.45,0,0,1,0,.73v5.62H83.06v-5.31c0-1.4-.58-2.11-1.75-2.11a3.44,3.44,0,0,0-2.31,1v6.46H77.91v-8.24l1.09-.22v1.14a3.87,3.87,0,0,1,2.64-1.14A2.22,2.22,0,0,1,83.87,733a4.12,4.12,0,0,1,2.92-1.37c1.58,0,2.53,1,2.53,2.85ZM92.46,736v.09c.06,1.89,1.17,3.19,2.88,3.19a4.26,4.26,0,0,0,2.4-.68l.21,1a4.74,4.74,0,0,1-2.64.7,3.92,3.92,0,0,1-4-3.86,3,3,0,0,1,0-.42,4.67,4.67,0,0,1,1.12-3.19,3.6,3.6,0,0,1,2.79-1.2,2.83,2.83,0,0,1,3,2.63,2.28,2.28,0,0,1,0,.37A4.17,4.17,0,0,1,98,736Zm.08-.88h4.57a2.16,2.16,0,0,0,0-.36,1.9,1.9,0,0,0-1.64-2.11h-.36a2.65,2.65,0,0,0-2.61,2.5Zm17-6.51a5.32,5.32,0,0,1,4,1.62,5.76,5.76,0,0,1,1.57,4.19,5.88,5.88,0,0,1-1.57,4.23,5.67,5.67,0,0,1-8,0,5.76,5.76,0,0,1-1.58-4.2,5.91,5.91,0,0,1,1.57-4.23,5.27,5.27,0,0,1,4-1.63Zm4.36,5.88a5,5,0,0,0-1.22-3.51,4.15,4.15,0,0,0-3.17-1.35,4,4,0,0,0-3.12,1.33,5.54,5.54,0,0,0,0,7,4,4,0,0,0,3.17,1.37,4,4,0,0,0,3.11-1.35,4.88,4.88,0,0,0,1.2-3.45Zm5.78,5.64,2.25-6.66,2.25,6.66h1l2.45-8.28H126.4l-1.71,6.6-2.25-6.59h-1l-2.14,6.56-1.91-6.57h-1.18l2.52,8.28Zm16,0h-1.11v-5.33c0-1.44-.56-2.09-1.82-2.09a3.56,3.56,0,0,0-2.5,1.17v6.25H129.1v-8.24l1.12-.24V733a4,4,0,0,1,2.78-1.37c1.66,0,2.63,1,2.63,2.83Zm3.13-4.09v.09c.06,1.89,1.17,3.19,2.88,3.19a4.26,4.26,0,0,0,2.4-.68l.21,1a4.82,4.82,0,0,1-2.64.7,3.92,3.92,0,0,1-4-3.86,3,3,0,0,1,0-.42,4.66,4.66,0,0,1,1.11-3.19,3.62,3.62,0,0,1,2.78-1.24,2.83,2.83,0,0,1,3,2.63,2.28,2.28,0,0,1,0,.37,4.17,4.17,0,0,1-.18,1.32Zm.07-.88h4.58a2.16,2.16,0,0,0,0-.36,1.87,1.87,0,0,0-1.62-2.1,1.62,1.62,0,0,0-.38,0,2.67,2.67,0,0,0-2.61,2.5Zm8.91-.32v5.29h-1.12v-8.24l1.12-.24v1.77a2.73,2.73,0,0,1,2.43-1.77,2.92,2.92,0,0,1,1.44.38l-.29,1a2.55,2.55,0,0,0-1.26-.36c-1,0-1.72.75-2.35,2.17Zm10.25,3c0,1.49-1.26,2.48-2.95,2.48a4.94,4.94,0,0,1-2.7-.73l.3-1a4.31,4.31,0,0,0,2.43.76c1,0,1.86-.53,1.86-1.39a1.06,1.06,0,0,0-.13-.52,2.55,2.55,0,0,0-.29-.38,2.25,2.25,0,0,0-.5-.29,4.71,4.71,0,0,0-.52-.21l-.63-.2c-1.44-.43-2.4-1-2.4-2.34,0-1.48,1.17-2.38,2.79-2.38a5.47,5.47,0,0,1,2.51.61l-.33,1a4.68,4.68,0,0,0-2.25-.61c-1,0-1.66.47-1.66,1.26a.9.9,0,0,0,.13.49,1.22,1.22,0,0,0,.27.36,1.33,1.33,0,0,0,.49.28l.52.22.63.2c1.49.43,2.43,1,2.43,2.41Z"/>
      <rect class="clsh-5" x="848" y="708.17" width="178" height="50" rx="9"/>
      <path class="svgtext" d="M903.88,728.92h-1.35l-4.27,11.25h1.17l1.19-3.22h5.1l1.18,3.22h1.17Zm1.44,7H901l2.16-5.85Zm11.52,0a4.56,4.56,0,0,1-1.13,3.2,3.72,3.72,0,0,1-2.93,1.26,4.47,4.47,0,0,1-2-.45l-1.12.49V728l1.12-.24v5a3.56,3.56,0,0,1,2.48-1c2.18,0,3.6,1.71,3.6,4.19Zm-1.15.05c0-1.9-1-3.22-2.66-3.22a3.35,3.35,0,0,0-2.27.92v5.06a3.23,3.23,0,0,0,2.07.65C914.59,739.38,915.69,738,915.69,736Zm10.64,0a4.35,4.35,0,0,1-1.16,3.15,4.06,4.06,0,0,1-5.76,0A4.47,4.47,0,0,1,918.3,736a4.38,4.38,0,0,1,1.17-3.17,4.06,4.06,0,0,1,5.76,0,4.46,4.46,0,0,1,1.1,3.21Zm-1.1,0c0-2-1.15-3.37-2.92-3.37s-2.9,1.35-2.9,3.33,1.15,3.37,2.92,3.37,2.9-1.25,2.9-3.23Zm3.1-4.14h1.11v5.32c0,1.39.6,2.09,1.79,2.09a3.42,3.42,0,0,0,2.53-1.17v-6.24h1.12v8.24l-1.12.23v-1.23a3.92,3.92,0,0,1-2.84,1.33c-1.62,0-2.59-1-2.59-2.82Zm13.24,8.08a4.17,4.17,0,0,1-1.83.43c-1.53,0-2.27-.86-2.22-2.59l.13-4.88-1.26-.07.05-.7,1.25-.29v-1.87h1.06v1.92h2.75v1h-2.74l-.12,4.93c0,1,.36,1.55,1.2,1.55a3.84,3.84,0,0,0,1.59-.39Zm7.21-4.34v4.5h-1.15V728.92h3c2.72,0,4.08,1.21,4.08,3.24a3.27,3.27,0,0,1-2.61,3.17l3.12,4.84h-1.33L951,735.53Zm0-1,2-.07c1.58,0,2.79-.93,2.79-2.36s-1.08-2.25-3.06-2.25h-1.75ZM964.33,736a4.34,4.34,0,0,1-1.15,3.15,3.8,3.8,0,0,1-2.9,1.22,3.73,3.73,0,0,1-2.86-1.18,4.94,4.94,0,0,1,.05-6.32,3.82,3.82,0,0,1,2.9-1.21,3.77,3.77,0,0,1,2.86,1.19,4.44,4.44,0,0,1,1.1,3.22Zm-1.1,0c0-2-1.15-3.37-2.92-3.37s-2.89,1.35-2.89,3.33,1.15,3.37,2.91,3.37,2.9-1.24,2.9-3.22Zm7.4-8.07v.25c-.06.18-.09.35-.15.51l-.07.25a3.07,3.07,0,0,0-1.26-.34c-.92,0-1.37.65-1.37,1.92v1.37h2.6l-.06,1h-2.54v7.22h-1.09v-7.18l-1.34-.09.08-.7,1.24-.29v-1.3c0-2,.86-3,2.48-3a3.86,3.86,0,0,1,1.48.49Zm5.54,0v.25c-.06.18-.09.35-.15.51l-.07.25a3.07,3.07,0,0,0-1.26-.34c-.92,0-1.37.65-1.37,1.92v1.37h2.59l0,1h-2.54v7.22h-1.1v-7.18l-1.33-.09.07-.7,1.25-.29v-1.3q.06-3,2.49-3a3.82,3.82,0,0,1,1.47.49Z"/>
      <rect class="clsh-5" x="213" y="708.17" width="178" height="50" rx="9"/>
      <path class="svgtext" d="M263.68,732.43c0,2.43-1.67,3.71-4.54,3.76h-1.53v4h-1.15V728.92h2.83C262.19,728.92,263.68,730.29,263.68,732.43Zm-1.19.05c0-1.62-1.13-2.5-3.24-2.5h-1.64v5.17h1.61c2.17,0,3.27-.92,3.27-2.63Zm4.28,2.4v5.29h-1.12v-8.24l1.12-.24v1.77a2.71,2.71,0,0,1,2.43-1.79,2.92,2.92,0,0,1,1.44.38l-.29,1a2.55,2.55,0,0,0-1.26-.36C268.17,732.75,267.4,733.46,266.77,734.88ZM279.38,736a4.34,4.34,0,0,1-1.15,3.15,3.8,3.8,0,0,1-2.9,1.22,3.73,3.73,0,0,1-2.86-1.18,4.92,4.92,0,0,1,0-6.32,3.82,3.82,0,0,1,2.9-1.21,3.77,3.77,0,0,1,2.86,1.19,4.41,4.41,0,0,1,1.15,3.15Zm-1.1,0c0-2-1.15-3.37-2.91-3.37s-2.9,1.35-2.9,3.33,1.15,3.37,2.92,3.37,2.89-1.31,2.89-3.29Zm7.41-8.07-.06.25c-.05.18-.09.35-.14.51l-.07.25a3.07,3.07,0,0,0-1.26-.34c-.92,0-1.37.65-1.37,1.92v1.37h2.59l-.05,1h-2.54v7.22h-1.1V733l-1.33-.09.07-.7,1.24-.29v-1.3c0-2,.86-3,2.48-3a3.81,3.81,0,0,1,1.52.36Zm1.72,8.08v.09c.06,1.89,1.17,3.19,2.88,3.19a4.26,4.26,0,0,0,2.4-.68l.21,1a4.82,4.82,0,0,1-2.64.7,3.92,3.92,0,0,1-4-3.86,3,3,0,0,1,0-.42,4.66,4.66,0,0,1,1.11-3.19,3.62,3.62,0,0,1,2.78-1.24,2.83,2.83,0,0,1,3,2.63,2.28,2.28,0,0,1,0,.37A4.17,4.17,0,0,1,293,736Zm.07-.88h4.58a2.16,2.16,0,0,0,0-.36,1.87,1.87,0,0,0-1.62-2.1,1.62,1.62,0,0,0-.38,0,2.67,2.67,0,0,0-2.61,2.5Zm12.74,2.72c0,1.49-1.26,2.48-3,2.48a4.94,4.94,0,0,1-2.7-.73l.31-1a4.21,4.21,0,0,0,2.43.76c1,0,1.85-.53,1.85-1.39a1.06,1.06,0,0,0-.13-.52,2.47,2.47,0,0,0-.28-.38,2.32,2.32,0,0,0-.51-.29,4.71,4.71,0,0,0-.52-.21l-.63-.2c-1.44-.43-2.39-1-2.39-2.34,0-1.48,1.17-2.38,2.79-2.38a5.43,5.43,0,0,1,2.5.61l-.33,1a4.65,4.65,0,0,0-2.25-.61c-1,0-1.65.47-1.65,1.26a.82.82,0,0,0,.12.49,1.22,1.22,0,0,0,.27.36,1.33,1.33,0,0,0,.49.28l.52.22.63.2c1.5.43,2.43,1,2.43,2.41Zm7,0c0,1.49-1.26,2.48-3,2.48a4.94,4.94,0,0,1-2.7-.73l.3-1a4.31,4.31,0,0,0,2.43.76c1,0,1.86-.53,1.86-1.39a1.06,1.06,0,0,0-.13-.52,2.55,2.55,0,0,0-.29-.38,2.25,2.25,0,0,0-.5-.29,4.71,4.71,0,0,0-.52-.21l-.63-.2c-1.44-.43-2.4-1-2.4-2.34,0-1.48,1.17-2.38,2.79-2.38a5.47,5.47,0,0,1,2.51.61l-.33,1a4.68,4.68,0,0,0-2.25-.61c-1,0-1.65.47-1.65,1.26a.82.82,0,0,0,.12.49,1.22,1.22,0,0,0,.27.36,1.33,1.33,0,0,0,.49.28l.52.22.63.2c1.49.43,2.43,1,2.43,2.41Zm3.34-8.71a.89.89,0,0,1-.19.57.73.73,0,0,1-1.12,0,.89.89,0,0,1,0-1.13.7.7,0,0,1,.56-.23.73.73,0,0,1,.56.23.91.91,0,0,1,.24.6Zm-.19,11H309.3v-8.24l1.12-.24ZM320.48,736a4.34,4.34,0,0,1-1.15,3.15,3.8,3.8,0,0,1-2.9,1.22,3.73,3.73,0,0,1-2.86-1.18,4.94,4.94,0,0,1,.05-6.32,3.82,3.82,0,0,1,2.9-1.21,3.77,3.77,0,0,1,2.86,1.19,4.41,4.41,0,0,1,1.15,3.15Zm-1.1,0c0-2-1.15-3.37-2.91-3.37s-2.9,1.35-2.9,3.33,1.15,3.37,2.92,3.37,2.94-1.31,2.94-3.29Zm9.73,4.1H328V734.8c0-1.44-.56-2.09-1.82-2.09a3.56,3.56,0,0,0-2.5,1.17v6.25h-1.11v-8.24l1.11-.24V733a4.05,4.05,0,0,1,2.81-1.35c1.66,0,2.63,1,2.63,2.83Zm6.84-1.82V735.9c-2.78.31-3.84.92-3.84,2.05a1.51,1.51,0,0,0,1.55,1.46l.14,0A2.8,2.8,0,0,0,336,738.31Zm.07.83h0a3,3,0,0,1-2.41,1.22,2.37,2.37,0,0,1-2.6-2.13c0-.05,0-.1,0-.15,0-1.77,1.68-2.74,5-2.94v-.47a1.72,1.72,0,0,0-1.39-2,2.11,2.11,0,0,0-.56,0,5.06,5.06,0,0,0-2.7,1l-.23-1a5.86,5.86,0,0,1,3.06-1c2,0,3,1,2.95,3v4c0,.65.15.85.83.83l-.07.92c-1.06.07-1.68-.32-1.8-1.17Zm4.65,1V727.8l-1.12.24v12.13Zm7.54-2.25c0,1.49-1.26,2.48-2.95,2.48a4.94,4.94,0,0,1-2.7-.73l.31-1a4.21,4.21,0,0,0,2.43.76c1,0,1.85-.53,1.85-1.39a1,1,0,0,0-.12-.52,2.12,2.12,0,0,0-.29-.38,2.32,2.32,0,0,0-.51-.29,4.71,4.71,0,0,0-.52-.21l-.63-.2c-1.44-.43-2.39-1-2.39-2.34,0-1.48,1.17-2.38,2.79-2.38a5.43,5.43,0,0,1,2.5.61l-.32,1a4.68,4.68,0,0,0-2.25-.61c-1,0-1.66.47-1.66,1.26a.9.9,0,0,0,.13.49,1.22,1.22,0,0,0,.27.36,1.29,1.29,0,0,0,.48.28l.52.22.63.2c1.5.43,2.43,1,2.43,2.41Z"/>
      <rect class="clsh-5" x="1043" y="708.17" width="178" height="50" rx="9"/>
      <path class="svgtext" d="M1077.09,723.67v4.5h-1.16V716.92h3c2.72,0,4.08,1.21,4.08,3.24a3.27,3.27,0,0,1-2.61,3.17l3.12,4.84h-1.33l-2.88-4.64Zm0-1,2-.07c1.59,0,2.79-.93,2.79-2.36s-1.08-2.25-3.06-2.25h-1.74Zm15.54,1.39a4.34,4.34,0,0,1-1.15,3.15,3.8,3.8,0,0,1-2.9,1.22,3.73,3.73,0,0,1-2.86-1.18,4.92,4.92,0,0,1,0-6.32,3.82,3.82,0,0,1,2.9-1.21,3.77,3.77,0,0,1,2.86,1.19,4.43,4.43,0,0,1,1.15,3.12Zm-1.1,0c0-2-1.15-3.37-2.92-3.37s-2.89,1.35-2.89,3.33,1.15,3.37,2.91,3.37,2.9-1.34,2.9-3.32Zm7.4-8.07v.25c0,.18-.09.35-.14.51l-.08.25a3.07,3.07,0,0,0-1.26-.34c-.91,0-1.36.65-1.36,1.92V720h2.59l-.06,1H1096v7.22h-1.1V721l-1.33-.09.07-.7,1.24-.29v-1.3c0-2,.86-3,2.48-3a3.76,3.76,0,0,1,1.51.36Zm5.54,0v.25c-.06.18-.09.35-.15.51l-.07.25a3.07,3.07,0,0,0-1.26-.34c-.92,0-1.37.65-1.37,1.92V720h2.59l0,1h-2.54v7.22h-1.1V721l-1.33-.09.07-.7,1.25-.29v-1.3q.06-3,2.49-3a3.76,3.76,0,0,1,1.51.36Zm13.69,1.6-.36,1a5.87,5.87,0,0,0-3.13-.9c-2.54,0-4.25,1.78-4.25,4.81s1.67,4.82,4.28,4.82a5,5,0,0,0,3.15-1l.22,1.14a6.07,6.07,0,0,1-3.39.91,5.12,5.12,0,0,1-3.94-1.58,6.79,6.79,0,0,1,0-8.53,5.19,5.19,0,0,1,3.9-1.6,6.64,6.64,0,0,1,3.48.91Zm8.64,10.57h-1.12v-5.33c0-1.38-.59-2.09-1.76-2.09a3.61,3.61,0,0,0-2.56,1.17v6.25h-1.12V716l1.12-.24V721a4,4,0,0,1,2.86-1.32c1.62,0,2.58,1,2.58,2.83Zm6.83-1.82v-2.41c-2.77.31-3.83.92-3.83,2.05a1.51,1.51,0,0,0,1.55,1.46l.14,0A2.78,2.78,0,0,0,1133.63,726.34Zm.08.83h-.06a3,3,0,0,1-2.41,1.22,2.37,2.37,0,0,1-2.6-2.13.76.76,0,0,1,0-.15c0-1.77,1.67-2.74,5-2.94v-.5a1.73,1.73,0,0,0-1.4-2,2,2,0,0,0-.54,0,5.06,5.06,0,0,0-2.7,1l-.25-1a5.86,5.86,0,0,1,3.06-1,2.65,2.65,0,0,1,3,3v4c0,.65.14.85.83.83l-.07.92c-1.07.07-1.68-.32-1.8-1.17Zm14.94,1h-1.11v-5.31c0-1.4-.58-2.11-1.75-2.11a3.47,3.47,0,0,0-2.32,1.07,4.45,4.45,0,0,1,0,.73v5.62h-1.12v-5.31c0-1.4-.58-2.11-1.75-2.11a3.48,3.48,0,0,0-2.28,1v6.46h-1.12V720l1.12-.24v1.14a3.84,3.84,0,0,1,2.68-1.2,2.22,2.22,0,0,1,2.23,1.37,4.12,4.12,0,0,1,2.92-1.37c1.58,0,2.53,1,2.53,2.85Zm3.67-7.42a3.5,3.5,0,0,1,2.39-1c2.21,0,3.69,1.72,3.69,4.26a4.44,4.44,0,0,1-1.13,3.15,3.81,3.81,0,0,1-2.94,1.24,4.48,4.48,0,0,1-2-.43v4.39h-1.12V719.89l1.12-.23Zm0,.94v5.06a3.23,3.23,0,0,0,2.07.65c1.72,0,2.86-1.39,2.86-3.37s-1.06-3.26-2.72-3.26A3.2,3.2,0,0,0,1152.32,721.69Zm16.54,4.66v-2.41c-2.77.31-3.83.92-3.83,2a1.51,1.51,0,0,0,1.55,1.46l.14,0A2.78,2.78,0,0,0,1168.86,726.35Zm.07.83h0a3,3,0,0,1-2.41,1.22,2.36,2.36,0,0,1-2.6-2.11c0-.06,0-.11,0-.17,0-1.77,1.67-2.74,5-2.94v-.51a1.73,1.73,0,0,0-1.4-2,2,2,0,0,0-.54,0,5.06,5.06,0,0,0-2.7,1l-.27-1a5.89,5.89,0,0,1,3.06-1,2.65,2.65,0,0,1,3,3v4c0,.65.14.85.82.83l-.07.92c-1.06.07-1.67-.32-1.8-1.17Zm10.09,1h-1.12v-5.33c0-1.44-.55-2.09-1.81-2.09a3.58,3.58,0,0,0-2.51,1.17v6.25h-1.11v-8.24l1.11-.24v1.35a4.05,4.05,0,0,1,2.81-1.35c1.66,0,2.63,1,2.63,2.83Zm8.08-8V716l1.12-.24v12.39h-1.12v-.77a3.45,3.45,0,0,1-2.39,1c-2.22,0-3.69-1.74-3.69-4.28a4.37,4.37,0,0,1,1.15-3.15,3.9,3.9,0,0,1,2.93-1.22,4.61,4.61,0,0,1,2,.45Zm0,1.18a3.33,3.33,0,0,0-2-.63c-1.77,0-2.88,1.37-2.88,3.35s1.08,3.28,2.73,3.28a3.08,3.08,0,0,0,2.2-.92v-5.08Zm-86.54,29.79h1.17l-.36-11.25h-1.53l-3.75,9.94-3.8-9.94h-1.54l-.38,11.25h1.13l.2-9.85,3.73,9.78h1.26l3.69-9.76Zm7.93-1.82v-2.41c-2.77.31-3.84.92-3.84,2.05a1.51,1.51,0,0,0,1.57,1.46l.13,0A2.78,2.78,0,0,0,1108.49,749.33Zm.07.83h0a3,3,0,0,1-2.42,1.22,2.37,2.37,0,0,1-2.6-2.13.76.76,0,0,1,0-.15c0-1.77,1.68-2.74,5-2.94v-.49a1.72,1.72,0,0,0-1.38-2,2.15,2.15,0,0,0-.62,0,5.06,5.06,0,0,0-2.7,1l-.25-1a5.86,5.86,0,0,1,3.06-1c2,0,3,1,2.95,3v4c0,.65.15.85.83.83l-.07.92c-1,0-1.66-.34-1.79-1.19Zm8.49-1.26c0,1.49-1.26,2.48-3,2.48a4.94,4.94,0,0,1-2.7-.73l.31-1a4.31,4.31,0,0,0,2.43.76c1,0,1.85-.53,1.85-1.39a1,1,0,0,0-.12-.52,2.55,2.55,0,0,0-.29-.38,2.25,2.25,0,0,0-.5-.29,4.87,4.87,0,0,0-.53-.21l-.63-.2c-1.44-.43-2.39-1-2.39-2.34,0-1.48,1.17-2.38,2.79-2.38a5.43,5.43,0,0,1,2.5.61l-.32,1a4.68,4.68,0,0,0-2.25-.61c-1,0-1.66.47-1.66,1.26a.9.9,0,0,0,.13.49,1.22,1.22,0,0,0,.27.36,1.29,1.29,0,0,0,.48.28l.53.22c.12.05.34.11.63.2,1.49.43,2.43,1,2.43,2.41Zm6.11,2.09a4.17,4.17,0,0,1-1.83.43c-1.53,0-2.27-.86-2.22-2.59l.13-4.88-1.26-.07v-.7l1.24-.29.06-1.87h1.06l0,1.92H1123v1h-2.74l-.13,4.93c0,1,.36,1.55,1.21,1.55A3.92,3.92,0,0,0,1123,750Zm2.33-3.93v.09a2.9,2.9,0,0,0,2.88,3.19,4.21,4.21,0,0,0,2.39-.68l.22,1a4.86,4.86,0,0,1-2.65.7,3.92,3.92,0,0,1-4-3.86,3,3,0,0,1,0-.42,4.67,4.67,0,0,1,1.12-3.19,3.61,3.61,0,0,1,2.77-1.24,2.84,2.84,0,0,1,3,2.65,2,2,0,0,1,0,.35A4.48,4.48,0,0,1,1131,747Zm.07-.88h4.57a2.16,2.16,0,0,0,0-.36,1.87,1.87,0,0,0-1.62-2.1,1.62,1.62,0,0,0-.38,0,2.67,2.67,0,0,0-2.61,2.5Zm8.9-.32v5.29h-1.11v-8.24l1.11-.24v1.77a2.73,2.73,0,0,1,2.43-1.77,2.92,2.92,0,0,1,1.44.38l-.28,1a2.55,2.55,0,0,0-1.26-.36c-.92.06-1.7.77-2.33,2.19Zm17.59-4.88V739.9h-9V741h4v10.19h1.15V741Zm3-.79a.9.9,0,0,1-.2.57.73.73,0,0,1-1.12,0,.94.94,0,0,1,0-1.13.73.73,0,0,1,.56-.23.7.7,0,0,1,.56.23.86.86,0,0,1,.24.58Zm-.2,11h-1.12V743l1.12-.24Zm3.74,0V738.8l-1.11.24v12.13Zm3.19-4.09v.09c.06,1.89,1.17,3.19,2.88,3.19a4.26,4.26,0,0,0,2.4-.68l.21,1a4.82,4.82,0,0,1-2.64.7,3.92,3.92,0,0,1-4-3.86,3,3,0,0,1,0-.42,4.66,4.66,0,0,1,1.11-3.19,3.6,3.6,0,0,1,2.78-1.24,2.83,2.83,0,0,1,3,2.63,2.28,2.28,0,0,1,0,.37,4.17,4.17,0,0,1-.18,1.32Zm.07-.88h4.58a2.16,2.16,0,0,0,0-.36,1.87,1.87,0,0,0-1.62-2.1,1.62,1.62,0,0,0-.38,0,2.67,2.67,0,0,0-2.61,2.5Zm8.91-.32v5.29h-1.12V743l1.12-.24v1.77a2.73,2.73,0,0,1,2.43-1.77,2.92,2.92,0,0,1,1.44.38l-.29,1a2.55,2.55,0,0,0-1.26-.36c-.88,0-1.65.73-2.28,2.15Z"/>
      <rect class="clsh-6" x="407" y="707.17" width="180" height="52" rx="10"/>
      <path class="clsh-7" d="M477,739.38c1.57,0,2.67-.92,2.67-2.13s-.87-1.78-2.85-2.35a9.83,9.83,0,0,1-1.18-.44,4.24,4.24,0,0,1-1-.55,2.37,2.37,0,0,1-.79-.9,2.73,2.73,0,0,1-.27-1.26c0-1.79,1.49-3.06,3.6-3.06a6.22,6.22,0,0,1,3.38,1l-.41,1a5.13,5.13,0,0,0-3-.94c-1.62,0-2.51.81-2.51,1.93s.85,1.62,2.85,2.25a12.21,12.21,0,0,1,1.2.43,7.72,7.72,0,0,1,1,.59,2.5,2.5,0,0,1,.77.94,3.38,3.38,0,0,1,.26,1.29c0,1.89-1.55,3.24-3.8,3.24a6.51,6.51,0,0,1-3.62-1l.41-1a5.59,5.59,0,0,0,3.24,1Zm6.41-3.3v.09c.06,1.89,1.18,3.19,2.88,3.19a4.26,4.26,0,0,0,2.4-.68l.22,1a4.86,4.86,0,0,1-2.65.7,3.92,3.92,0,0,1-4-3.86,3,3,0,0,1,0-.42,4.67,4.67,0,0,1,1.12-3.19,3.58,3.58,0,0,1,2.77-1.24,2.84,2.84,0,0,1,3,2.65,2,2,0,0,1,0,.35A4.48,4.48,0,0,1,489,736Zm.08-.88h4.57a2.16,2.16,0,0,0,0-.36,1.9,1.9,0,0,0-1.64-2.11h-.36a2.65,2.65,0,0,0-2.61,2.5Zm12.09,3.15v-2.41c-2.77.31-3.84.92-3.84,2a1.51,1.51,0,0,0,1.57,1.46l.13,0a2.78,2.78,0,0,0,2.14-1.08Zm.07.83h0a3,3,0,0,1-2.42,1.22,2.37,2.37,0,0,1-2.6-2.13s0-.1,0-.15c0-1.77,1.68-2.74,5-2.94v-.51a1.72,1.72,0,0,0-1.39-2,2.11,2.11,0,0,0-.56,0,5.06,5.06,0,0,0-2.7,1l-.25-1a5.86,5.86,0,0,1,3.06-1c2,0,3,1,2.95,3v4c0,.65.15.85.83.83l-.07.92c-1.06.07-1.67-.32-1.8-1.17Zm4.65-4.3v5.29h-1.11v-8.24l1.11-.24v1.77a2.73,2.73,0,0,1,2.43-1.77,2.92,2.92,0,0,1,1.44.38l-.29,1a2.55,2.55,0,0,0-1.26-.36c-.93,0-1.71.75-2.34,2.17Zm11.15,4.79a4.61,4.61,0,0,1-2.55.7c-2.47,0-4-1.72-4-4.33a4.37,4.37,0,0,1,1.15-3.15,3.86,3.86,0,0,1,2.9-1.23,4.82,4.82,0,0,1,2.57.7l-.29,1a4.1,4.1,0,0,0-2.28-.66c-1.79,0-2.9,1.31-2.9,3.29s1.15,3.33,2.91,3.33a4.07,4.07,0,0,0,2.29-.68Zm8.63.47H519v-5.33c0-1.38-.59-2.09-1.76-2.09a3.61,3.61,0,0,0-2.56,1.17v6.25h-1.11V728l1.11-.24V733a4,4,0,0,1,2.82-1.34c1.62,0,2.58,1,2.58,2.83Z"/>
      <rect class="clsh-5" x="1238" y="708.17" width="178" height="50" rx="9"/>
      <path class="svgtext" d="M1297.28,729.6l-.36,1a5.91,5.91,0,0,0-3.14-.9c-2.53,0-4.24,1.78-4.24,4.81s1.67,4.82,4.28,4.82a5,5,0,0,0,3.15-1l.22,1.14a6.07,6.07,0,0,1-3.39.91,5.08,5.08,0,0,1-3.94-1.58,6.79,6.79,0,0,1,0-8.53,5.16,5.16,0,0,1,3.9-1.6,6.64,6.64,0,0,1,3.48.91Zm9.31,6.43a4.35,4.35,0,0,1-1.16,3.15,4.06,4.06,0,0,1-5.76,0,4.47,4.47,0,0,1-1.11-3.15,4.38,4.38,0,0,1,1.17-3.17,3.82,3.82,0,0,1,2.9-1.21,3.77,3.77,0,0,1,2.86,1.19,4.45,4.45,0,0,1,1.1,3.15Zm-1.1,0c0-2-1.15-3.37-2.92-3.37s-2.9,1.35-2.9,3.33,1.16,3.37,2.92,3.37,2.9-1.31,2.9-3.29Zm9.72,4.1h-1.11V734.8c0-1.44-.56-2.09-1.82-2.09a3.56,3.56,0,0,0-2.5,1.17v6.25h-1.12v-8.24l1.12-.24V733a4.05,4.05,0,0,1,2.81-1.35c1.65,0,2.62,1,2.62,2.83Zm6.64-.16a4.17,4.17,0,0,1-1.83.43c-1.53,0-2.27-.86-2.22-2.59l.13-4.88-1.26-.07v-.7l1.25-.29V730H1319v1.92h2.75v1H1319l-.12,4.93c0,1,.36,1.55,1.2,1.55a3.84,3.84,0,0,0,1.59-.39Zm6.12-1.66V735.9c-2.77.31-3.83.92-3.83,2.05a1.51,1.51,0,0,0,1.55,1.46l.14,0A2.78,2.78,0,0,0,1328,738.31Zm.08.83h0a3,3,0,0,1-2.41,1.22,2.37,2.37,0,0,1-2.6-2.13.76.76,0,0,1,0-.15c0-1.77,1.67-2.74,5-2.94v-.47a1.73,1.73,0,0,0-1.4-2,2,2,0,0,0-.54,0,5.06,5.06,0,0,0-2.7,1l-.25-1a5.86,5.86,0,0,1,3.06-1c2,0,3,1,2.95,3v4c0,.65.14.85.83.83l-.07.92c-1.07.07-1.68-.32-1.8-1.17Zm9.58.52a4.61,4.61,0,0,1-2.55.7c-2.47,0-4-1.72-4-4.33a4.38,4.38,0,0,1,1.16-3.15,3.8,3.8,0,0,1,2.89-1.23,4.88,4.88,0,0,1,2.58.7l-.29,1a4.13,4.13,0,0,0-2.29-.66c-1.78,0-2.89,1.31-2.89,3.29s1.15,3.33,2.91,3.33a4.07,4.07,0,0,0,2.29-.68Zm6.18.31a4.18,4.18,0,0,1-1.84.43c-1.53,0-2.27-.86-2.21-2.59l.12-4.88-1.26-.07.06-.7,1.24-.29V730H1341l-.06,1.92h2.76l-.06,1H1341l-.13,4.93c0,1,.36,1.55,1.21,1.55a3.92,3.92,0,0,0,1.58-.39Zm14.41-4.14c0,2.84-1.49,4.53-4.27,4.53s-4.21-1.65-4.21-4.35v-7.13h1.12v7c0,2.2,1.08,3.44,3.15,3.44s3.08-1.19,3.08-3.45v-7h1.13Zm7.55,2c0,1.49-1.26,2.48-3,2.48a4.94,4.94,0,0,1-2.7-.73l.31-1a4.31,4.31,0,0,0,2.43.76c1,0,1.85-.53,1.85-1.39a1,1,0,0,0-.12-.52,2.12,2.12,0,0,0-.29-.38,2.25,2.25,0,0,0-.5-.29,4.87,4.87,0,0,0-.53-.21l-.63-.2c-1.44-.43-2.39-1-2.39-2.34,0-1.48,1.17-2.38,2.79-2.38a5.43,5.43,0,0,1,2.5.61l-.32,1a4.73,4.73,0,0,0-2.17-.62c-1,0-1.66.47-1.66,1.26a.9.9,0,0,0,.13.49,1.22,1.22,0,0,0,.27.36,1.29,1.29,0,0,0,.48.28l.53.22c.12.05.34.11.63.2,1.49.43,2.43,1,2.43,2.41Z"/>
      <path class="clsh-2" d="M257.12,348.17h.9v-3.82h3.52v-.83H258v-3.26h4.25v-.84H257.1Zm7.45-4.12v4.12h-.86v-6.41l.86-.18V343a2.13,2.13,0,0,1,1.89-1.37,2.31,2.31,0,0,1,1.12.29l-.22.81a2,2,0,0,0-1-.28C265.67,342.4,265.06,343,264.57,344.05Zm9.81.9a3.38,3.38,0,0,1-.89,2.45,3,3,0,0,1-2.26,1,2.87,2.87,0,0,1-2.22-.92,3.86,3.86,0,0,1,0-4.92,3,3,0,0,1,2.25-.93,2.92,2.92,0,0,1,2.23.92A3.49,3.49,0,0,1,274.38,345Zm-.85,0a2.28,2.28,0,1,0-4.52-.6,2,2,0,0,0,0,.6c0,1.58.89,2.62,2.27,2.62a2.31,2.31,0,0,0,2.27-2.35,1.94,1.94,0,0,0,0-.24Zm11.34,3.19H284V344c0-1.09-.45-1.64-1.36-1.64a2.69,2.69,0,0,0-1.81.83,5.42,5.42,0,0,1,0,.57v4.37H280V344c0-1.09-.45-1.64-1.36-1.64a2.67,2.67,0,0,0-1.77.74v5H276v-6.38l.87-.18v.88a3.06,3.06,0,0,1,2-.88,1.73,1.73,0,0,1,1.76,1.09,3.22,3.22,0,0,1,2.27-1.06,1.93,1.93,0,0,1,2,2.21Zm8.46-9.47v.19c-.05.14-.07.27-.12.39l0,.2a2.48,2.48,0,0,0-1-.27c-.72,0-1.07.51-1.07,1.5v1.07h2v.77h-2v5.65h-.85v-5.59l-1-.07.06-.54,1-.23v-1c0-1.54.67-2.31,1.93-2.31A3,3,0,0,1,293.33,338.67Zm1.75,5.34v4.16h-.87v-6.41l.87-.18V343a2.11,2.11,0,0,1,1.92-1.37,2.31,2.31,0,0,1,1.12.29l-.23.81a2,2,0,0,0-1-.28c-.71,0-1.32.55-1.81,1.65Zm5.15-4.34a.65.65,0,0,1-.15.45.48.48,0,0,1-.43.2.51.51,0,0,1-.44-.2.65.65,0,0,1-.15-.45.7.7,0,0,1,.15-.43.55.55,0,0,1,.44-.18.55.55,0,0,1,.43.18A.7.7,0,0,1,300.23,339.67Zm-.15,8.53h-.87v-6.44l.87-.18Zm2.51-3.18v.07a2.29,2.29,0,0,0,2.07,2.48h.17a3.3,3.3,0,0,0,1.86-.53l.17.8a3.83,3.83,0,0,1-2.06.54,3.06,3.06,0,0,1-3.11-3c0-.11,0-.21,0-.31a3.64,3.64,0,0,1,.87-2.48,2.8,2.8,0,0,1,2.16-1,2.2,2.2,0,0,1,2.34,2,1.82,1.82,0,0,1,0,.33,3.72,3.72,0,0,1-.14,1Zm.05-.68h3.56a1.31,1.31,0,0,0,0-.28,1.46,1.46,0,0,0-1.25-1.64h-.29a2.09,2.09,0,0,0-2,1.9Zm11.16,3.83h-.87V344c0-1.12-.44-1.63-1.42-1.63a2.78,2.78,0,0,0-1.94.91v4.86h-.87v-6.41l.87-.18v1a3.12,3.12,0,0,1,2.18-1,1.93,1.93,0,0,1,2.06,1.79,1.77,1.77,0,0,1,0,.4Zm6.28-6.2v-3.24l.87-.18v9.62h-.87v-.6a2.6,2.6,0,0,1-1.86.78c-1.72,0-2.87-1.36-2.87-3.33a3.42,3.42,0,0,1,.9-2.45,3,3,0,0,1,2.28-1A3.64,3.64,0,0,1,320.08,342Zm0,.92a2.65,2.65,0,0,0-1.59-.49c-1.38,0-2.24,1.07-2.24,2.61s.84,2.54,2.12,2.54a2.39,2.39,0,0,0,1.71-.71v-3.95Zm6.73,3.53a2.06,2.06,0,0,1-2.15,1.95l-.15,0a3.8,3.8,0,0,1-2.1-.57l.24-.8a3.3,3.3,0,0,0,1.89.59c.81,0,1.44-.41,1.44-1.08a.75.75,0,0,0-.09-.41,1.54,1.54,0,0,0-.23-.29,1.87,1.87,0,0,0-.39-.22l-.41-.17-.49-.16c-1.12-.33-1.86-.81-1.86-1.82a2,2,0,0,1,2.17-1.84,4.25,4.25,0,0,1,1.95.47l-.25.79a3.56,3.56,0,0,0-1.75-.48c-.79,0-1.29.36-1.29,1a.7.7,0,0,0,.1.38,1.21,1.21,0,0,0,.21.28.94.94,0,0,0,.37.22l.41.17.49.15c1.16.34,1.89.82,1.89,1.88Zm4.19-8.08h-.7L326.89,351h.69Zm6.56,6.61a3.39,3.39,0,0,1-.9,2.45,3.14,3.14,0,0,1-4.45,0l0,0a3.86,3.86,0,0,1,0-4.92,3,3,0,0,1,2.26-.93,2.9,2.9,0,0,1,2.22.92,3.44,3.44,0,0,1,.85,2.48Zm-.86,0c0-1.58-.89-2.62-2.26-2.62a2.63,2.63,0,1,0,2.23,3A2.19,2.19,0,0,0,336.7,345Zm7.57,3.19h-.87V344c0-1.12-.44-1.63-1.42-1.63a2.78,2.78,0,0,0-1.94.91v4.86h-.87v-6.41l.87-.18v1a3.12,3.12,0,0,1,2.18-1,1.93,1.93,0,0,1,2.06,1.79,1.77,1.77,0,0,1,0,.4Zm2.84,0v-9.59l-.87.18v9.44Zm3-8.47a.7.7,0,0,1-.15.45.51.51,0,0,1-.44.2.48.48,0,0,1-.43-.2.65.65,0,0,1-.16-.45.72.72,0,0,1,.16-.43.55.55,0,0,1,.43-.18.55.55,0,0,1,.44.18A.77.77,0,0,1,350.11,339.67Zm-.11,8.5h-.87v-6.41l.87-.18Zm7.14,0h-.87V344c0-1.12-.44-1.63-1.42-1.63a2.78,2.78,0,0,0-1.94.91v4.86H352v-6.41l.87-.18v1a3.12,3.12,0,0,1,2.18-1,1.93,1.93,0,0,1,2.06,1.79,1.77,1.77,0,0,1,0,.4Zm2.43-3.18v.07a2.29,2.29,0,0,0,2.07,2.48h.17a3.3,3.3,0,0,0,1.86-.53l.17.8a3.83,3.83,0,0,1-2.06.54,3.06,3.06,0,0,1-3.1-3c0-.1,0-.2,0-.3a3.59,3.59,0,0,1,.87-2.48,2.78,2.78,0,0,1,2.15-1,2.19,2.19,0,0,1,2.3,2.08c0,.11,0,.22,0,.32a3.06,3.06,0,0,1-.14,1Zm.06-.68h3.55a1.31,1.31,0,0,0,0-.28,1.47,1.47,0,0,0-1.28-1.64h-.26a2.07,2.07,0,0,0-2.05,1.93Zm13.94,3.5a3.63,3.63,0,0,1-2,.54,3,3,0,0,1-3.15-3,2.84,2.84,0,0,1,0-.41,3.38,3.38,0,0,1,.9-2.45,3,3,0,0,1,2.25-1,3.71,3.71,0,0,1,2,.54l-.22.79a3.14,3.14,0,0,0-1.78-.52,2.27,2.27,0,0,0-2.27,2.25,3,3,0,0,0,0,.31,2.28,2.28,0,0,0,2,2.57,1.42,1.42,0,0,0,.29,0,3.15,3.15,0,0,0,1.78-.53Zm5-1v-1.93c-2.15.24-3,.71-3,1.6a1.18,1.18,0,0,0,1.23,1.13h.09a2.16,2.16,0,0,0,1.6-.84Zm.06.64h0a2.32,2.32,0,0,1-1.88,1,1.83,1.83,0,0,1-2-1.69.28.28,0,0,1,0-.09c0-1.37,1.3-2.12,3.89-2.28V344a1.34,1.34,0,0,0-1-1.62,1.47,1.47,0,0,0-.66,0,4,4,0,0,0-2.1.77l-.2-.81a4.57,4.57,0,0,1,2.38-.77,2,2,0,0,1,2.3,1.65,2.29,2.29,0,0,1,0,.64V347c0,.51.11.66.64.65l0,.71c-.85.06-1.32-.25-1.42-.91Zm11.62.77h-.86V344c0-1.09-.45-1.64-1.36-1.64a2.69,2.69,0,0,0-1.81.83,5.42,5.42,0,0,1,0,.57v4.37h-.87V344c0-1.09-.45-1.64-1.36-1.64a2.67,2.67,0,0,0-1.77.74v5h-.87v-6.38l.87-.18v.88a3.06,3.06,0,0,1,2-.88,1.72,1.72,0,0,1,1.71,1.09,3.22,3.22,0,0,1,2.27-1.06,1.93,1.93,0,0,1,2,2.21ZM393,342.4a2.69,2.69,0,0,1,1.86-.78c1.73,0,2.87,1.34,2.87,3.32a3.45,3.45,0,0,1-.88,2.45,3,3,0,0,1-2.28,1,3.55,3.55,0,0,1-1.57-.33v3.41h-.87v-9.7l.87-.18Zm0,.73v3.93a2.52,2.52,0,0,0,1.61.51c1.35,0,2.23-1.08,2.23-2.62s-.83-2.53-2.12-2.53A2.52,2.52,0,0,0,393,343.13Zm9.69,3.63v-1.88c-2.16.24-3,.71-3,1.6a1.18,1.18,0,0,0,1.23,1.13H401a2.16,2.16,0,0,0,1.71-.84Zm.05.64h0a2.32,2.32,0,0,1-1.88,1,1.83,1.83,0,0,1-2-1.69.28.28,0,0,1,0-.09c0-1.37,1.31-2.12,3.9-2.28V344a1.34,1.34,0,0,0-1.13-1.52h-.39a4,4,0,0,0-2.1.77l-.19-.81a4.49,4.49,0,0,1,2.38-.77,2,2,0,0,1,2.29,1.66,2.22,2.22,0,0,1,0,.63V347c0,.51.12.66.65.65l-.06.71c-.87,0-1.35-.3-1.45-1Zm3.81-7.73a.65.65,0,0,1-.16.45.57.57,0,0,1-.79.08l-.07-.08a.65.65,0,0,1-.16-.45.72.72,0,0,1,.16-.43.61.61,0,0,1,.85,0h0A.72.72,0,0,1,406.55,339.67Zm-.16,8.53h-.86v-6.44l.86-.18Zm2.54-4.17a1.55,1.55,0,0,0,1.48,1.64h.17a1.46,1.46,0,0,0,1.16-.48,1.64,1.64,0,0,0,.44-1.2,1.74,1.74,0,0,0-.42-1.21,1.66,1.66,0,0,0-1.22-.46,1.56,1.56,0,0,0-1.61,1.51,1,1,0,0,0,0,.17Zm.75,4.35c-.77.21-1.3.72-1.3,1.26,0,.77.86,1.32,2.19,1.32s2.4-.65,2.4-1.51-.61-1-1.94-1h-1.35Zm-.75-.17c-.58-.21-.87-.54-.87-1a1.42,1.42,0,0,1,1.05-1.22,2.13,2.13,0,0,1-1-2,2.37,2.37,0,0,1,2.33-2.4h.19a3.11,3.11,0,0,1,1.52.37l1.77-.14.05.87-1.42-.14a2.25,2.25,0,0,1,.52,1.44,2.34,2.34,0,0,1-2.32,2.37h-.17a2.47,2.47,0,0,1-1-.19c-.48.2-.72.45-.72.77s.37.66,1.46.66h.82c1.78,0,2.66.56,2.66,1.68a2,2,0,0,1-1,1.71,4,4,0,0,1-2.38.67c-1.72,0-2.9-.75-2.9-1.87a1.72,1.72,0,0,1,1.39-1.59Zm11.15,0h-.87V344c0-1.12-.43-1.63-1.41-1.63a2.78,2.78,0,0,0-1.95.91v4.86H415v-6.41l.86-.18v1a3.16,3.16,0,0,1,2.19-1,1.93,1.93,0,0,1,2,1.82,2.23,2.23,0,0,1,0,.37Zm5.82-1.75a2,2,0,0,1-2,2,1,1,0,0,1-.24,0,3.8,3.8,0,0,1-2.1-.57l.24-.8a3.28,3.28,0,0,0,1.89.59c.81,0,1.44-.41,1.44-1.08a.86.86,0,0,0-.1-.41,1.48,1.48,0,0,0-.22-.29,1.56,1.56,0,0,0-.4-.22l-.4-.17-.49-.16c-1.12-.33-1.86-.81-1.86-1.82a2,2,0,0,1,2.17-1.84,4.21,4.21,0,0,1,1.94.47l-.25.79a3.56,3.56,0,0,0-1.75-.48c-.78,0-1.29.36-1.29,1a.7.7,0,0,0,.1.38,1.21,1.21,0,0,0,.21.28,1,1,0,0,0,.38.22l.4.17.49.15c1.17.34,1.89.82,1.89,1.88Zm4.1-8.12h-.7L425.9,351h.68ZM260.86,364.42a2.06,2.06,0,0,1-2.15,1.95l-.15,0a3.8,3.8,0,0,1-2.1-.57l.24-.8a3.3,3.3,0,0,0,1.89.59c.81,0,1.44-.41,1.44-1.08a.86.86,0,0,0-.1-.41,1.48,1.48,0,0,0-.22-.29,1.87,1.87,0,0,0-.39-.22l-.41-.17-.49-.16c-1.12-.33-1.86-.81-1.86-1.82a2,2,0,0,1,2.17-1.84,4.25,4.25,0,0,1,1.95.47l-.26.79a3.56,3.56,0,0,0-1.75-.48c-.78,0-1.28.36-1.28,1a.62.62,0,0,0,.09.38,1.21,1.21,0,0,0,.21.28,1,1,0,0,0,.38.22l.41.17.49.15c1.16.34,1.89.82,1.89,1.88Zm7.39-1.47a3.39,3.39,0,0,1-.9,2.45,3,3,0,0,1-2.25,1,2.9,2.9,0,0,1-2.23-.92,3.86,3.86,0,0,1,0-4.92,3,3,0,0,1,2.26-.93,2.9,2.9,0,0,1,2.22.92A3.45,3.45,0,0,1,268.25,363Zm-.86,0c0-1.58-.89-2.62-2.27-2.62a2.63,2.63,0,1,0,2.25,3C267.38,363.18,267.39,363.07,267.39,363Zm7.17,2.83a3.63,3.63,0,0,1-2,.54,3,3,0,0,1-3.15-3,2.84,2.84,0,0,1,0-.41,3.38,3.38,0,0,1,.9-2.45,3,3,0,0,1,2.25-1,3.71,3.71,0,0,1,2,.54l-.22.79a3.14,3.14,0,0,0-1.78-.52,2.27,2.27,0,0,0-2.27,2.25,3,3,0,0,0,0,.31,2.28,2.28,0,0,0,2,2.57,1.42,1.42,0,0,0,.29,0,3.15,3.15,0,0,0,1.78-.53Zm2.65-8.17a.65.65,0,0,1-.15.45.51.51,0,0,1-.44.2.48.48,0,0,1-.43-.2.63.63,0,0,1-.19-.39.7.7,0,0,1,.15-.43.55.55,0,0,1,.43-.18.55.55,0,0,1,.44.18.7.7,0,0,1,.19.43Zm-.15,8.53h-.87v-6.41l.87-.18Zm5.39-1.41v-1.88c-2.16.24-3,.71-3,1.6a1.17,1.17,0,0,0,1.21,1.13h.1a2.17,2.17,0,0,0,1.69-.81Zm.05.64h0a2.31,2.31,0,0,1-1.87,1,1.83,1.83,0,0,1-2-1.69.28.28,0,0,1,0-.09c0-1.37,1.3-2.12,3.89-2.28v-.38a1.33,1.33,0,0,0-1.13-1.51,1.61,1.61,0,0,0-.38,0,3.82,3.82,0,0,0-2.1.77l-.2-.81a4.57,4.57,0,0,1,2.38-.77,2,2,0,0,1,2.3,1.65,2.29,2.29,0,0,1,0,.64V365c0,.51.11.66.64.65l-.06.71c-.89,0-1.37-.27-1.47-.93Zm3.62.77v-9.62l-.87.18v9.44Zm14.08,0h-.87V362c0-1.09-.45-1.64-1.36-1.64a2.73,2.73,0,0,0-1.8.83v4.94h-.87V362c0-1.09-.45-1.64-1.36-1.64a2.69,2.69,0,0,0-1.78.74v5h-.87V359.7l.87-.18v.88a3.06,3.06,0,0,1,2-.88,1.72,1.72,0,0,1,1.84,1.15,3.22,3.22,0,0,1,2.27-1.06,1.93,1.93,0,0,1,2,2.21Zm2.44-3.18V363a2.29,2.29,0,0,0,2.07,2.48h.17a3.3,3.3,0,0,0,1.86-.53l.17.8a3.83,3.83,0,0,1-2.06.54,3.06,3.06,0,0,1-3.1-3c0-.1,0-.2,0-.3a3.59,3.59,0,0,1,.87-2.48,2.78,2.78,0,0,1,2.15-1,2.2,2.2,0,0,1,2.34,2,1.82,1.82,0,0,1,0,.33,3.06,3.06,0,0,1-.14,1Zm.06-.68h3.55a1.31,1.31,0,0,0,0-.28,1.47,1.47,0,0,0-1.28-1.64h-.26a2.08,2.08,0,0,0-2,2Zm10.37-2.34V356.7l.87-.18v9.62h-.87v-.6a2.6,2.6,0,0,1-1.86.78c-1.73,0-2.87-1.36-2.87-3.33a3.41,3.41,0,0,1,.89-2.45,3,3,0,0,1,2.28-1,3.68,3.68,0,0,1,1.56.43Zm0,.92a2.61,2.61,0,0,0-1.6-.49c-1.37,0-2.24,1.07-2.24,2.61s.84,2.54,2.13,2.54a2.39,2.39,0,0,0,1.71-.71v-3.95Zm3.93-3.19a.65.65,0,0,1-.15.45.48.48,0,0,1-.43.2.51.51,0,0,1-.44-.2.65.65,0,0,1-.15-.45.7.7,0,0,1,.15-.43.55.55,0,0,1,.44-.18.55.55,0,0,1,.43.18A.7.7,0,0,1,317,357.67Zm-.15,8.53H316v-6.41l.87-.18Zm5.39-1.41v-1.88c-2.16.24-3,.71-3,1.6a1.17,1.17,0,0,0,1.21,1.13h.1a2.17,2.17,0,0,0,1.67-.87Zm.06.64h0a2.31,2.31,0,0,1-1.87,1,1.83,1.83,0,0,1-2-1.69.28.28,0,0,1,0-.09c0-1.37,1.3-2.12,3.89-2.28V362a1.33,1.33,0,0,0-1.13-1.51,1.63,1.63,0,0,0-.38,0,4,4,0,0,0-2.1.77l-.2-.81a4.57,4.57,0,0,1,2.38-.77,2,2,0,0,1,2.3,1.65,2.29,2.29,0,0,1,0,.64V365c0,.51.11.66.64.65l-.05.71c-.93,0-1.41-.33-1.5-1Zm5.25-9.06h-.7L323.45,369h.68Zm2.72,9.86,1.75-5.18,1.75,5.18h.77l1.91-6.44h-1l-1.33,5.14-1.75-5.13h-.78l-1.67,5.1-1.48-5.11h-.92l2,6.44ZM343.38,363a3.35,3.35,0,0,1-.9,2.45,3.14,3.14,0,0,1-4.45,0l0,0a3.86,3.86,0,0,1,0-4.92,3,3,0,0,1,2.26-.93,2.92,2.92,0,0,1,2.23.92,3.47,3.47,0,0,1,.87,2.45Zm-.85,0a2.64,2.64,0,1,0,0,.21,1.48,1.48,0,0,0,0-.21Zm3.33-.93v4.12H345v-6.41l.87-.18V361a2.12,2.12,0,0,1,1.89-1.37,2.31,2.31,0,0,1,1.12.29l-.22.81a2,2,0,0,0-1-.28c-.73,0-1.33.55-1.82,1.65Zm8.3-2.08v-3.24l.87-.18v9.62h-.87v-.6a2.6,2.6,0,0,1-1.86.78c-1.73,0-2.87-1.36-2.87-3.33a3.41,3.41,0,0,1,.89-2.45,3,3,0,0,1,2.28-1,3.74,3.74,0,0,1,1.54.4Zm0,.92a2.61,2.61,0,0,0-1.6-.49c-1.37,0-2.24,1.07-2.24,2.61s.84,2.54,2.13,2.54a2.39,2.39,0,0,0,1.71-.71v-3.95ZM366,363a3.39,3.39,0,0,1-.9,2.45,3.14,3.14,0,0,1-4.45,0l0,0a3.86,3.86,0,0,1,0-4.92,3,3,0,0,1,2.26-.93,2.9,2.9,0,0,1,2.22.92A3.45,3.45,0,0,1,366,363Zm-.86,0c0-1.58-.89-2.62-2.27-2.62a2.63,2.63,0,1,0,2.25,3C365.13,363.18,365.14,363.07,365.14,363Zm5.76-6.27v.19a1.25,1.25,0,0,1-.11.39l-.06.2a2.48,2.48,0,0,0-1-.27c-.71,0-1.06.51-1.06,1.5v1.07h2v.77h-2v5.61h-.86v-5.59l-1-.07v-.54l1-.23v-1c0-1.54.67-2.31,1.94-2.31a2.68,2.68,0,0,1,1.18.27Zm12.94,9.46H383V362c0-1.09-.44-1.64-1.35-1.64a2.69,2.69,0,0,0-1.81.83v4.94H379V362c0-1.09-.45-1.64-1.36-1.64a2.69,2.69,0,0,0-1.78.74v5H375V359.7l.86-.18v.88a3.06,3.06,0,0,1,2-.88,1.74,1.74,0,0,1,1.74,1.06,3.22,3.22,0,0,1,2.27-1.06,1.93,1.93,0,0,1,2,2.21Zm7.81-3.22a3.39,3.39,0,0,1-.9,2.45,3,3,0,0,1-2.25,1,2.9,2.9,0,0,1-2.23-.92,3.86,3.86,0,0,1,0-4.92,3,3,0,0,1,2.26-.93,2.9,2.9,0,0,1,2.22.92,3.43,3.43,0,0,1,.93,2.43Zm-.86,0c0-1.58-.89-2.62-2.27-2.62a2.63,2.63,0,1,0,2.25,3C390.78,363.15,390.79,363,390.79,362.92Zm2.41-3.22h.87v4.14c0,1.08.46,1.63,1.39,1.63a2.74,2.74,0,0,0,2-.91V359.7h.87v6.41l-.87.18v-1a3,3,0,0,1-2.21,1,1.94,1.94,0,0,1-2-1.86,2,2,0,0,1,0-.34ZM403.51,366a3.2,3.2,0,0,1-1.43.34c-1.19,0-1.77-.67-1.72-2l.09-3.79-1-.06.05-.54,1-.23v-1.45h.83v1.5h2.14v.77h-2.13l-.1,3.83c0,.8.28,1.21.94,1.21a2.91,2.91,0,0,0,1.23-.31Zm6.51.13h-.87V362c0-1.08-.46-1.63-1.37-1.63a2.82,2.82,0,0,0-2,.91v4.86H405v-9.44l.87-.18v4.05a3.11,3.11,0,0,1,2.22-1,1.93,1.93,0,0,1,2,1.82,2.23,2.23,0,0,1,0,.37Z"/>
      <path class="clsh-2" d="M262.29,479.47l2.35,7.7h.87l2.45-8.75h-.9l-2,7.48-2.27-7.48h-1.06l-2.23,7.48-2-7.48h-.93l2.5,8.75h.85Zm12.34,7.7h-.87V483c0-1.08-.46-1.63-1.37-1.63a2.82,2.82,0,0,0-2,.91v4.86h-.87v-9.44l.87-.18v4.05a3.11,3.11,0,0,1,2.22-1,1.92,1.92,0,0,1,2,1.8,1.7,1.7,0,0,1,0,.39Zm6.84-6.41L279,487.1l-.52,1.39c-.56,1.52-1.15,2-2.07,2a3.18,3.18,0,0,1-1.25-.29l.27-.8a2.09,2.09,0,0,0,1,.28c.53,0,.88-.32,1.32-1.48l.43-1.14-2.51-6.31h.94l2,5.29,2-5.29Zm5.26,2.91v3.5h-.9v-8.75h2.35c2.12,0,3.18.94,3.18,2.52a2.53,2.53,0,0,1-2,2.46l2.42,3.77h-1l-2.24-3.61Zm0-.8h1.57c1.23-.05,2.17-.73,2.17-1.84s-.84-1.75-2.38-1.75h-1.36ZM298.82,484a3.39,3.39,0,0,1-.9,2.45,3,3,0,0,1-2.25,1,2.9,2.9,0,0,1-2.23-.92,3.86,3.86,0,0,1,0-4.92,3,3,0,0,1,2.26-.93,2.9,2.9,0,0,1,2.22.92,3.42,3.42,0,0,1,.86,2.45Zm-.86,0c0-1.58-.89-2.62-2.27-2.62a2.63,2.63,0,1,0,2.25,3C298,484.18,298,484.07,298,484Zm5.76-6.27v.19a1.25,1.25,0,0,1-.11.39l-.06.2a2.48,2.48,0,0,0-1-.27c-.71,0-1.06.51-1.06,1.5v1.07h2v.77h-2v5.61h-.86v-5.59l-1-.07.05-.54,1-.23v-1c0-1.54.67-2.31,1.93-2.31a2.69,2.69,0,0,1,1.18.28Zm4.31,0v.19c0,.14-.07.27-.12.39l-.05.2a2.48,2.48,0,0,0-1-.27c-.72,0-1.07.51-1.07,1.5v1.07h2v.77h-2v5.61h-.85v-5.59l-1-.07.06-.54,1-.23v-1c0-1.54.67-2.31,1.93-2.31a2.82,2.82,0,0,1,1.07.27Zm-.17,8.82a.75.75,0,0,1,.75-.69,1.05,1.05,0,0,1,1,1.1h0c0,.85-.58,1.65-1.74,2.42l-.38-.38c.83-.59,1.23-1.15,1.23-1.67,0-.35-.22-.56-.86-.79Zm12.65-7.27v-.84h-7.05v.84h3.08v7.91h.89v-7.91Zm2.37-.62a.65.65,0,0,1-.16.45.48.48,0,0,1-.43.2.51.51,0,0,1-.44-.2.7.7,0,0,1-.15-.45.77.77,0,0,1,.15-.43.55.55,0,0,1,.44-.18.55.55,0,0,1,.43.18.74.74,0,0,1,.16.49Zm-.16,8.53h-.87v-6.41l.87-.18Zm2.91,0v-9.62l-.86.18v9.44Zm2.48-3.18V484a2.29,2.29,0,0,0,2.07,2.48h.17a3.36,3.36,0,0,0,1.87-.53l.16.8a3.8,3.8,0,0,1-2.05.54,3.06,3.06,0,0,1-3.11-3c0-.11,0-.21,0-.31a3.64,3.64,0,0,1,.87-2.48,2.8,2.8,0,0,1,2.16-1,2.19,2.19,0,0,1,2.33,2,1.71,1.71,0,0,1,0,.32,3.06,3.06,0,0,1-.14,1Zm.06-.68h3.56a1.31,1.31,0,0,0,0-.28,1.47,1.47,0,0,0-1.28-1.64h-.26a2.08,2.08,0,0,0-2,2Zm16.1,3.17a5.09,5.09,0,0,1-3,.87,4,4,0,0,1-3.07-1.23,5.27,5.27,0,0,1,0-6.64,4,4,0,0,1,3-1.24,5.3,5.3,0,0,1,2.77.73l-.29.81a4.58,4.58,0,0,0-2.49-.73c-2,0-3.31,1.39-3.31,3.74s1.3,3.75,3.33,3.75a4.18,4.18,0,0,0,2.1-.53v-2.31h-2.53v-.81h3.4ZM347,483v4.12h-.87v-6.41l.87-.18v1.37a2.12,2.12,0,0,1,1.89-1.37,2.31,2.31,0,0,1,1.12.29l-.22.81a2,2,0,0,0-1-.28c-.72,0-1.32.55-1.81,1.65Zm9.81.9a3.35,3.35,0,0,1-.9,2.45,3.14,3.14,0,0,1-4.45,0l0,0a3.48,3.48,0,0,1-.86-2.45,3.42,3.42,0,0,1,.91-2.47,3,3,0,0,1,2.25-.93,2.92,2.92,0,0,1,2.23.92,3.45,3.45,0,0,1,.85,2.45Zm-.85,0a2.28,2.28,0,1,0,0,.23,1,1,0,0,0,0-.17Zm2.41-3.22h.87v4.14c0,1.08.46,1.63,1.38,1.63a2.74,2.74,0,0,0,2-.91V480.7h.86v6.41l-.86.18v-1a3,3,0,0,1-2.22,1,1.93,1.93,0,0,1-2-1.83,2.23,2.23,0,0,1,0-.37ZM368.7,487a3.2,3.2,0,0,1-1.43.34c-1.19,0-1.76-.67-1.72-2l.1-3.79-1-.06v-.54l1-.23v-1.45h.82v1.5h2.14v.77h-2.13l-.09,3.83c0,.8.28,1.21.93,1.21a3,3,0,0,0,1.24-.31Zm12.43.13H382l-.28-8.75h-1.19l-2.91,7.73-3-7.73h-1.2l-.3,8.75H374l.15-7.66,2.9,7.6h1l2.87-7.58Zm6.17-1.41v-1.88c-2.16.24-3,.71-3,1.6a1.17,1.17,0,0,0,1.21,1.13h.1a2.16,2.16,0,0,0,1.67-.84Zm.05.64h0a2.31,2.31,0,0,1-1.87,1,1.83,1.83,0,0,1-2-1.69.28.28,0,0,1,0-.09c0-1.37,1.3-2.12,3.89-2.28v-.38a1.33,1.33,0,0,0-1.13-1.51,1.63,1.63,0,0,0-.38,0,3.82,3.82,0,0,0-2.1.77l-.2-.81a4.57,4.57,0,0,1,2.38-.77,2,2,0,0,1,2.3,1.65,2.29,2.29,0,0,1,0,.64v3.08c0,.51.11.66.64.65l-.06.71c-.89.07-1.37-.24-1.47-.9Zm5.95.64a3.2,3.2,0,0,1-1.43.34c-1.19,0-1.77-.67-1.72-2l.09-3.79-1-.06.05-.54,1-.23v-1.45h.83v1.5h2.14v.77h-2.13l-.1,3.83c0,.8.28,1.21.94,1.21a2.91,2.91,0,0,0,1.23-.31Zm6.05-.23a3.63,3.63,0,0,1-2,.54,3,3,0,0,1-3.15-3,2.84,2.84,0,0,1,0-.41,3.42,3.42,0,0,1,.9-2.45,3,3,0,0,1,2.25-1,3.8,3.8,0,0,1,2,.54l-.23.79a3.14,3.14,0,0,0-1.78-.52,2.28,2.28,0,0,0-2.27,2.28,2.64,2.64,0,0,0,0,.28,2.28,2.28,0,0,0,2,2.57,1.51,1.51,0,0,0,.3,0,3.23,3.23,0,0,0,1.78-.53Zm6.71.36h-.87V483c0-1.08-.46-1.63-1.37-1.63a2.82,2.82,0,0,0-2,.91v4.86H401v-9.44l.87-.18v4.05a3.11,3.11,0,0,1,2.22-1,1.93,1.93,0,0,1,2,1.82,2.23,2.23,0,0,1,0,.37Zm2.43-3.18V484a2.29,2.29,0,0,0,2.07,2.48h.17a3.3,3.3,0,0,0,1.86-.53l.17.8a3.83,3.83,0,0,1-2.06.54,3.06,3.06,0,0,1-3.1-3c0-.1,0-.2,0-.3a3.59,3.59,0,0,1,.87-2.48,2.78,2.78,0,0,1,2.15-1,2.2,2.2,0,0,1,2.34,2,1.82,1.82,0,0,1,0,.33,3.06,3.06,0,0,1-.14,1Zm.06-.68h3.55a1.31,1.31,0,0,0,0-.28,1.47,1.47,0,0,0-1.28-1.64h-.26a2.07,2.07,0,0,0-2,2Zm6.92-.26v4.12h-.87V480.7l.87-.18v1.37a2.12,2.12,0,0,1,1.89-1.37,2.31,2.31,0,0,1,1.12.29l-.22.81a2,2,0,0,0-1-.28c-.72,0-1.32.55-1.81,1.65Zm2.8,3.48a.75.75,0,0,1,.76-.69,1,1,0,0,1,1,1s0,.08,0,.11c0,.85-.57,1.65-1.74,2.42l-.37-.38c.82-.59,1.23-1.15,1.23-1.67,0-.35-.23-.56-.87-.79ZM263.38,497.26v-.84h-7.06v.84h3.08v7.91h.9v-7.91Zm.87,3.79v4.12h-.87v-6.41l.87-.18V500a2.12,2.12,0,0,1,1.89-1.37,2.31,2.31,0,0,1,1.12.29l-.26.8a2,2,0,0,0-1-.28q-1.06,0-1.8,1.65Zm4.45.94v.07a2.29,2.29,0,0,0,2.07,2.48h.17a3.3,3.3,0,0,0,1.86-.53l.17.8a3.83,3.83,0,0,1-2.06.54,3.06,3.06,0,0,1-3.11-3c0-.11,0-.21,0-.31a3.64,3.64,0,0,1,.87-2.48,2.8,2.8,0,0,1,2.16-1,2.2,2.2,0,0,1,2.34,2,1.82,1.82,0,0,1,0,.33,3.72,3.72,0,0,1-.14,1Zm.05-.68h3.56a1.31,1.31,0,0,0,0-.28,1.46,1.46,0,0,0-1.25-1.64h-.29A2.09,2.09,0,0,0,268.75,501.31Zm11.16,3.86H279V501c0-1.12-.44-1.63-1.42-1.63a2.78,2.78,0,0,0-1.94.91v4.86h-.87v-6.41l.87-.18v1.09a3.09,3.09,0,0,1,2.18-1.05,1.93,1.93,0,0,1,2,1.82,2.23,2.23,0,0,1,0,.37Zm6.28-6.2v-3.24l.87-.18v9.62h-.87v-.6a2.6,2.6,0,0,1-1.86.78c-1.72,0-2.87-1.36-2.87-3.33a3.41,3.41,0,0,1,.89-2.45,3,3,0,0,1,2.29-1A3.64,3.64,0,0,1,286.19,499Zm0,.92a2.61,2.61,0,0,0-1.6-.49c-1.37,0-2.24,1.07-2.24,2.61s.84,2.54,2.13,2.54a2.39,2.39,0,0,0,1.71-.71v-3.95Zm6.73,3.53a2.06,2.06,0,0,1-2.15,1.95l-.15,0a3.8,3.8,0,0,1-2.1-.57l.24-.8a3.3,3.3,0,0,0,1.89.59c.81,0,1.44-.41,1.44-1.08a.75.75,0,0,0-.09-.41,1.54,1.54,0,0,0-.23-.29,1.87,1.87,0,0,0-.39-.22l-.41-.17-.49-.16c-1.12-.33-1.86-.81-1.86-1.82a2,2,0,0,1,2.17-1.84,4.25,4.25,0,0,1,1.95.47l-.25.79a3.56,3.56,0,0,0-1.75-.48c-.79,0-1.29.36-1.29,1a.7.7,0,0,0,.1.38,1.21,1.21,0,0,0,.21.28.94.94,0,0,0,.37.22l.41.17.49.15c1.16.34,1.89.82,1.89,1.88Zm1.07,1.11a.75.75,0,0,1,.76-.69,1,1,0,0,1,1,1s0,.08,0,.11c0,.85-.57,1.65-1.73,2.42l-.38-.38c.83-.59,1.23-1.15,1.23-1.67,0-.35-.23-.56-.87-.79Zm10.43-3.86a2.07,2.07,0,0,1,2,2c0,1.5-1,2.44-3.15,2.44h-2.84v-8.75h2.73c2,0,3,.87,3,2.28a2,2,0,0,1-1.68,2Zm.79-1.92c0-1-.7-1.54-2-1.54h-1.87v3.15H303c1.35,0,2.19-.57,2.19-1.61Zm.28,4c0-1-.8-1.54-2.41-1.54h-1.79v3.17h2c1.47,0,2.2-.57,2.2-1.65Zm3.36,2.44v-9.62l-.87.18v9.44Zm7.84-3.22a3.39,3.39,0,0,1-.9,2.45,3,3,0,0,1-2.25,1,2.9,2.9,0,0,1-2.23-.92,3.86,3.86,0,0,1,0-4.92,3,3,0,0,1,2.26-.93,2.9,2.9,0,0,1,2.22.92,3.42,3.42,0,0,1,.86,2.45Zm-.86,0c0-1.58-.89-2.62-2.27-2.62a2.63,2.63,0,1,0,2.25,3C315.82,502.2,315.83,502.09,315.83,502Zm3-1a1.55,1.55,0,0,0,1.48,1.64h.17a1.46,1.46,0,0,0,1.16-.48,1.64,1.64,0,0,0,.44-1.2,1.74,1.74,0,0,0-.42-1.21,1.66,1.66,0,0,0-1.22-.46,1.58,1.58,0,0,0-1.62,1.53A1.09,1.09,0,0,0,318.83,501Zm.76,4.35c-.77.21-1.31.72-1.31,1.26,0,.77.86,1.32,2.19,1.32s2.41-.65,2.41-1.51-.62-1-1.95-1h-1.34Zm-.76-.17c-.57-.21-.87-.54-.87-1a1.45,1.45,0,0,1,1.05-1.22,2.13,2.13,0,0,1-1-2,2.38,2.38,0,0,1,2.34-2.4h.18a3.11,3.11,0,0,1,1.52.37l1.77-.14.05.87-1.42-.14a2.25,2.25,0,0,1,.52,1.44,2.34,2.34,0,0,1-2.32,2.37h-.17a2.56,2.56,0,0,1-1-.19c-.48.2-.72.45-.72.77s.37.66,1.46.66H321c1.78,0,2.66.56,2.66,1.68a2,2,0,0,1-1,1.71,4,4,0,0,1-2.38.67c-1.72,0-2.9-.75-2.9-1.87a1.72,1.72,0,0,1,1.39-1.59Zm5.29-.65a.75.75,0,0,1,.76-.69,1,1,0,0,1,1,1s0,.08,0,.11c0,.85-.57,1.65-1.73,2.42l-.38-.38c.83-.59,1.23-1.15,1.23-1.67,0-.32-.27-.53-.92-.76Zm12.66-7.27v-.84h-7v.84h3.08v7.91h.89v-7.91Zm.46,4.73V502a2.29,2.29,0,0,0,2.07,2.48h.17a3.36,3.36,0,0,0,1.87-.53l.16.8a3.8,3.8,0,0,1-2.05.54,3.06,3.06,0,0,1-3.11-3c0-.11,0-.21,0-.31a3.64,3.64,0,0,1,.87-2.48,2.8,2.8,0,0,1,2.16-1,2.19,2.19,0,0,1,2.33,2,1.71,1.71,0,0,1,0,.32,3.06,3.06,0,0,1-.14,1Zm.06-.68h3.56a1.31,1.31,0,0,0,0-.28,1.47,1.47,0,0,0-1.28-1.64h-.26a2.08,2.08,0,0,0-2.06,2Zm9.91,2.11a2.06,2.06,0,0,1-2.15,1.95l-.15,0a3.8,3.8,0,0,1-2.1-.57l.24-.8a3.3,3.3,0,0,0,1.89.59c.81,0,1.44-.41,1.44-1.08a.75.75,0,0,0-.09-.41,1.54,1.54,0,0,0-.23-.29,1.87,1.87,0,0,0-.39-.22l-.41-.17-.49-.16c-1.12-.33-1.86-.81-1.86-1.82a2,2,0,0,1,2.17-1.84A4.25,4.25,0,0,1,347,499l-.25.79a3.56,3.56,0,0,0-1.75-.48c-.79,0-1.29.36-1.29,1a.7.7,0,0,0,.1.38,1.21,1.21,0,0,0,.21.28.94.94,0,0,0,.37.22l.41.17.49.15c1.16.34,1.89.82,1.89,1.88ZM352,505a3.2,3.2,0,0,1-1.43.34c-1.19,0-1.77-.67-1.72-2l.09-3.79-1-.06,0-.54,1-.23v-1.45h.83v1.5h2.14v.77H349.7l-.1,3.83c0,.8.28,1.21.94,1.21a2.91,2.91,0,0,0,1.23-.31Zm2.45-8.4a.65.65,0,0,1-.16.45.48.48,0,0,1-.43.2.51.51,0,0,1-.44-.2.7.7,0,0,1-.15-.45.77.77,0,0,1,.15-.43.55.55,0,0,1,.44-.18.55.55,0,0,1,.43.18.72.72,0,0,1,.12.49Zm-.16,8.53h-.87v-6.41l.87-.18Zm10.92,0h-.87V501c0-1.09-.44-1.64-1.35-1.64a2.69,2.69,0,0,0-1.81.83v4.94h-.87V501c0-1.09-.45-1.64-1.36-1.64a2.69,2.69,0,0,0-1.78.74v5h-.86V498.7l.86-.18v.88a3.06,3.06,0,0,1,2-.88,1.74,1.74,0,0,1,1.76,1.15,3.22,3.22,0,0,1,2.27-1.06,1.93,1.93,0,0,1,2,2.21Zm7.81-3.22a3.39,3.39,0,0,1-.9,2.45,3,3,0,0,1-2.25,1,2.9,2.9,0,0,1-2.23-.92,3.86,3.86,0,0,1,0-4.92,3,3,0,0,1,2.26-.93,2.9,2.9,0,0,1,2.22.92A3.42,3.42,0,0,1,373,502Zm-.86,0c0-1.58-.89-2.62-2.27-2.62a2.63,2.63,0,1,0,2.25,3C372.12,502.15,372.13,502,372.13,501.92Zm7.57,3.19h-.87V501c0-1.12-.44-1.63-1.42-1.63a2.78,2.78,0,0,0-1.94.91v4.86h-.87V498.7l.87-.18v1.15a3.09,3.09,0,0,1,2.18-1.05,1.93,1.93,0,0,1,2.06,1.79,1.77,1.77,0,0,1,0,.4Zm3-8.53a.65.65,0,0,1-.15.45.48.48,0,0,1-.43.2.51.51,0,0,1-.44-.2.65.65,0,0,1-.15-.45.7.7,0,0,1,.15-.43.55.55,0,0,1,.44-.18.55.55,0,0,1,.43.18.65.65,0,0,1,.11.52Zm-.15,8.53h-.87V498.7l.87-.18Zm5.39-1.41v-1.88c-2.16.24-3,.71-3,1.6a1.17,1.17,0,0,0,1.21,1.13h.1a2.15,2.15,0,0,0,1.65-.78Zm.06.64h0a2.31,2.31,0,0,1-1.87,1,1.83,1.83,0,0,1-2-1.69.28.28,0,0,1,0-.09c0-1.37,1.3-2.12,3.89-2.28v-.38a1.33,1.33,0,0,0-1.13-1.51,1.61,1.61,0,0,0-.38,0,4,4,0,0,0-2.1.77l-.2-.81a4.57,4.57,0,0,1,2.38-.77,2,2,0,0,1,2.3,1.65,2.29,2.29,0,0,1,0,.64v3.08c0,.51.11.66.64.65l0,.71c-.83.06-1.31-.25-1.4-.91Zm3.61.77v-9.62l-.86.18v9.44Zm5.87-1.75a2.06,2.06,0,0,1-2.15,1.95l-.15,0a3.8,3.8,0,0,1-2.1-.57l.24-.8a3.3,3.3,0,0,0,1.89.59c.81,0,1.44-.41,1.44-1.08a.75.75,0,0,0-.09-.41,1.54,1.54,0,0,0-.23-.29,1.87,1.87,0,0,0-.39-.22l-.41-.17-.49-.16c-1.12-.33-1.86-.81-1.86-1.82a2,2,0,0,1,2.17-1.84,4.25,4.25,0,0,1,1.95.47l-.25.79a3.56,3.56,0,0,0-1.75-.48c-.79,0-1.29.36-1.29,1a.7.7,0,0,0,.1.38,1.21,1.21,0,0,0,.21.28.94.94,0,0,0,.37.22l.41.17.49.15c1.16.34,1.89.82,1.89,1.88Z"/>
      <path class="clsh-2" d="M19,783.67v3.5h-.9v-8.75h2.35c2.12,0,3.18.94,3.18,2.52a2.53,2.53,0,0,1-2,2.46L24,787.17H23l-2.24-3.61Zm0-.8,1.56,0A1.94,1.94,0,0,0,22.73,781c0-1.11-.84-1.75-2.38-1.75H19ZM25.72,784v.07a2.29,2.29,0,0,0,2.07,2.48H28a3.36,3.36,0,0,0,1.87-.53l.16.8a3.8,3.8,0,0,1-2.05.54,3.06,3.06,0,0,1-3.11-3c0-.11,0-.21,0-.31a3.64,3.64,0,0,1,.87-2.48,2.8,2.8,0,0,1,2.16-1,2.19,2.19,0,0,1,2.33,2,1.71,1.71,0,0,1,0,.32,3.06,3.06,0,0,1-.14,1Zm.06-.68h3.56a1.31,1.31,0,0,0,0-.28,1.47,1.47,0,0,0-1.28-1.64H27.8a2.08,2.08,0,0,0-2,1.93Zm10.76,3.5a3.63,3.63,0,0,1-2,.54,3,3,0,0,1-3.14-3,2.71,2.71,0,0,1,0-.4,3.41,3.41,0,0,1,.89-2.45,3,3,0,0,1,2.26-1,3.71,3.71,0,0,1,2,.54l-.22.79a3.14,3.14,0,0,0-1.78-.52,2.28,2.28,0,0,0-2.28,2.27,2.64,2.64,0,0,0,0,.29,2.28,2.28,0,0,0,2,2.57,1.51,1.51,0,0,0,.3,0,3.15,3.15,0,0,0,1.78-.53ZM43.91,784a3.35,3.35,0,0,1-.9,2.45,3.14,3.14,0,0,1-4.45,0l0,0a3.48,3.48,0,0,1-.86-2.45,3.42,3.42,0,0,1,.91-2.47,3,3,0,0,1,2.25-.93,2.92,2.92,0,0,1,2.23.92,3.5,3.5,0,0,1,.85,2.45Zm-.85,0a2.2,2.2,0,1,0,0,.25,1.62,1.62,0,0,0,0-.22Zm11.34,3.19h-.87V783c0-1.09-.45-1.64-1.36-1.64a2.73,2.73,0,0,0-1.8.83v4.94H49.5V783c0-1.09-.45-1.64-1.36-1.64a2.69,2.69,0,0,0-1.78.74v5h-.87V780.7l.87-.18v.88a3.06,3.06,0,0,1,2-.88,1.72,1.72,0,0,1,1.82,1.15,3.22,3.22,0,0,1,2.27-1.06,1.93,1.93,0,0,1,2,2.21Zm10.85,0h-.86V783c0-1.09-.45-1.64-1.36-1.64a2.69,2.69,0,0,0-1.81.83,5.42,5.42,0,0,1,0,.57v4.37H60.4V783c0-1.09-.45-1.64-1.36-1.64a2.67,2.67,0,0,0-1.77.74v5H56.4V780.7l.87-.18v.88a3.06,3.06,0,0,1,2-.88A1.71,1.71,0,0,1,61,781.67a3.22,3.22,0,0,1,2.27-1.06,1.93,1.93,0,0,1,2,2.21ZM67.7,784V784a2.27,2.27,0,0,0,2,2.5,1.13,1.13,0,0,0,.26,0,3.3,3.3,0,0,0,1.86-.53l.17.8a3.83,3.83,0,0,1-2.06.54,3.06,3.06,0,0,1-3.11-3c0-.11,0-.21,0-.31a3.64,3.64,0,0,1,.87-2.48,2.8,2.8,0,0,1,2.16-1,2.19,2.19,0,0,1,2.34,2,1.82,1.82,0,0,1,0,.33,3.72,3.72,0,0,1-.14,1Zm0-.68h3.56a1.31,1.31,0,0,0,0-.28A1.46,1.46,0,0,0,70,781.36h-.29a2.09,2.09,0,0,0-2,2Zm11.16,3.86H78V783c0-1.12-.44-1.63-1.42-1.63a2.78,2.78,0,0,0-1.94.91v4.86h-.87v-6.41l.87-.18v1.12a3.09,3.09,0,0,1,2.18-1,1.93,1.93,0,0,1,2.06,1.79,1.77,1.77,0,0,1,0,.4Zm6.28-6.2V777.7l.87-.18v9.62h-.87v-.6a2.6,2.6,0,0,1-1.86.78c-1.72,0-2.87-1.36-2.87-3.33a3.41,3.41,0,0,1,.89-2.45,3,3,0,0,1,2.29-.95A3.59,3.59,0,0,1,85.14,780.94Zm0,.92a2.61,2.61,0,0,0-1.6-.49c-1.37,0-2.24,1.07-2.24,2.61s.84,2.54,2.13,2.54a2.39,2.39,0,0,0,1.71-.71v-3.95Zm3.34,2.1V784a2.29,2.29,0,0,0,2.07,2.48h.17a3.3,3.3,0,0,0,1.86-.53l.17.8a3.83,3.83,0,0,1-2.06.54,3.06,3.06,0,0,1-3.1-3c0-.1,0-.2,0-.3a3.59,3.59,0,0,1,.87-2.48,2.78,2.78,0,0,1,2.15-1,2.19,2.19,0,0,1,2.38,2,1.7,1.7,0,0,1,0,.45,3.06,3.06,0,0,1-.14,1Zm.06-.68h3.55a1.31,1.31,0,0,0,0-.28,1.47,1.47,0,0,0-1.28-1.64h-.26a2.07,2.07,0,0,0-1.94,2ZM99,781v-3.24l.87-.18v9.62H99v-.6a2.6,2.6,0,0,1-1.86.78c-1.73,0-2.87-1.36-2.87-3.33a3.41,3.41,0,0,1,.89-2.45,3,3,0,0,1,2.28-1A3.66,3.66,0,0,1,99,781Zm0,.92a2.61,2.61,0,0,0-1.6-.49c-1.37,0-2.24,1.07-2.24,2.61s.84,2.54,2.13,2.54a2.39,2.39,0,0,0,1.71-.71v-4Zm11.16,5.28h-.87V783c0-1.12-.43-1.63-1.41-1.63a2.82,2.82,0,0,0-2,.91v4.86H105v-6.41l.87-.18v1.09a3.09,3.09,0,0,1,2.18-1,2,2,0,0,1,2,1.84,2,2,0,0,1,0,.35Zm5.32-1.41v-1.88c-2.16.24-3,.71-3,1.6a1.17,1.17,0,0,0,1.21,1.13h.1a2.16,2.16,0,0,0,1.67-.84Zm0,.64h0a2.31,2.31,0,0,1-1.87,1,1.83,1.83,0,0,1-2-1.69.28.28,0,0,1,0-.09c0-1.37,1.3-2.12,3.89-2.28v-.38a1.33,1.33,0,0,0-1.13-1.51,1.63,1.63,0,0,0-.38,0,3.82,3.82,0,0,0-2.1.77l-.2-.81a4.57,4.57,0,0,1,2.38-.77,2,2,0,0,1,2.3,1.65,2.29,2.29,0,0,1,0,.64V786c0,.51.11.66.64.65l-.06.71c-.82.06-1.3-.25-1.4-.91Zm7.63-5.64h-.91l-2,5.29-2-5.29h-.94l2.53,6.42h.79Zm2.09-2.12a.65.65,0,0,1-.15.45.51.51,0,0,1-.44.2.48.48,0,0,1-.43-.2.65.65,0,0,1-.15-.45.7.7,0,0,1,.15-.43.55.55,0,0,1,.43-.18.55.55,0,0,1,.44.18.71.71,0,0,1,.13.46Zm-.15,8.53h-.87v-6.41l.87-.18Zm2.53-4.17a1.57,1.57,0,0,0,1.5,1.64h.15a1.48,1.48,0,0,0,1.17-.48,1.63,1.63,0,0,0,.43-1.2,1.74,1.74,0,0,0-.42-1.21,1.63,1.63,0,0,0-1.22-.46,1.58,1.58,0,0,0-1.62,1.53A1.09,1.09,0,0,0,127.63,783Zm.76,4.35c-.77.21-1.3.72-1.3,1.26,0,.77.85,1.32,2.18,1.32s2.41-.65,2.41-1.51-.62-1-2-1h-1.34Zm-.76-.17c-.57-.21-.87-.54-.87-1a1.45,1.45,0,0,1,1-1.22,2.13,2.13,0,0,1-1-2,2.37,2.37,0,0,1,2.33-2.4h.19a3,3,0,0,1,1.51.37l1.78-.14v.87l-1.41-.14a2.3,2.3,0,0,1,.51,1.44,2.34,2.34,0,0,1-2.32,2.37h-.17a2.56,2.56,0,0,1-.95-.19c-.48.2-.71.45-.71.77s.36.66,1.45.66h.83c1.78,0,2.66.56,2.66,1.68a2,2,0,0,1-1,1.71,4.05,4.05,0,0,1-2.39.67c-1.72,0-2.89-.75-2.89-1.87a1.73,1.73,0,0,1,1.38-1.57Zm9.41-1.42v-1.88c-2.16.24-3,.71-3,1.6a1.17,1.17,0,0,0,1.21,1.13h.1a2.15,2.15,0,0,0,1.65-.84Zm0,.64h0a2.31,2.31,0,0,1-1.87,1,1.83,1.83,0,0,1-2-1.69.28.28,0,0,1,0-.09c0-1.37,1.3-2.12,3.89-2.28v-.38a1.33,1.33,0,0,0-1.13-1.51,1.63,1.63,0,0,0-.38,0,3.82,3.82,0,0,0-2.1.77l-.2-.81a4.57,4.57,0,0,1,2.38-.77,2,2,0,0,1,2.3,1.65,2.29,2.29,0,0,1,0,.64V786c0,.51.11.66.64.65l-.06.71c-.82.06-1.3-.25-1.4-.91Zm6,.64a3.2,3.2,0,0,1-1.43.34c-1.19,0-1.77-.67-1.72-2l.09-3.79-1-.06L139,781l1-.23v-1.45h.83v1.5H143v.77h-2.13l-.1,3.83c0,.8.28,1.21.94,1.21a2.91,2.91,0,0,0,1.23-.31Zm2.45-8.4a.65.65,0,0,1-.16.45.57.57,0,0,1-.79.08l-.07-.08a.65.65,0,0,1-.16-.45.72.72,0,0,1,.16-.43.61.61,0,0,1,.85,0h0a.71.71,0,0,1,.14.46Zm-.16,8.53h-.86v-6.41l.86-.18ZM153.2,784a3.38,3.38,0,0,1-.89,2.45,3,3,0,0,1-2.26,1,2.87,2.87,0,0,1-2.22-.92,3.86,3.86,0,0,1,0-4.92,3,3,0,0,1,2.25-.93,2.92,2.92,0,0,1,2.23.92,3.5,3.5,0,0,1,.85,2.45Zm-.85,0a2.28,2.28,0,1,0-4.52-.6,2,2,0,0,0,0,.6c0,1.58.89,2.62,2.26,2.62a2.32,2.32,0,0,0,2.26-2.38c0-.07,0-.14,0-.21Zm7.56,3.19H159V783c0-1.12-.43-1.63-1.41-1.63a2.82,2.82,0,0,0-2,.91v4.86h-.87v-6.41l.87-.18v1.12a3.13,3.13,0,0,1,2.19-1,2,2,0,0,1,2,1.84,2,2,0,0,1,0,.35Zm6,0v-9.62l-.87.18v9.44Zm3.09-8.47a.7.7,0,0,1-.15.45.51.51,0,0,1-.44.2.48.48,0,0,1-.43-.2.65.65,0,0,1-.16-.45.72.72,0,0,1,.16-.43.55.55,0,0,1,.43-.18.55.55,0,0,1,.44.18A.77.77,0,0,1,169,778.67Zm-.15,8.53H168v-6.41l.87-.18Zm7.14,0h-.87v-4.14c0-1.12-.44-1.63-1.42-1.63a2.78,2.78,0,0,0-1.94.91v4.86h-.87v-6.41l.87-.18v1.06a3.09,3.09,0,0,1,2.18-1,1.94,1.94,0,0,1,2.07,1.79,2.17,2.17,0,0,1,0,.36Zm2.86-3.19,2.89,3.19h1.1l-3.09-3.36,3.08-3h-1.09l-2.92,2.83h0v-6.16l-.87.18v9.44h.87v-3.19Zm9,1.44a2.06,2.06,0,0,1-2.15,1.95l-.15,0a3.8,3.8,0,0,1-2.1-.57l.24-.8a3.3,3.3,0,0,0,1.89.59c.81,0,1.44-.41,1.44-1.08a.86.86,0,0,0-.1-.41,1.48,1.48,0,0,0-.22-.29,1.87,1.87,0,0,0-.39-.22l-.41-.17-.49-.16c-1.12-.33-1.86-.81-1.86-1.82a2,2,0,0,1,2.17-1.84,4.25,4.25,0,0,1,1.95.47l-.26.79a3.56,3.56,0,0,0-1.75-.48c-.78,0-1.28.36-1.28,1a.62.62,0,0,0,.09.38,1.21,1.21,0,0,0,.21.28,1,1,0,0,0,.38.22l.41.17.49.15c1.16.34,1.89.82,1.89,1.88Z"/>
      <g>
        <path class="clsh-8" d="M.5,665.67h602v142H.5Z"/>
        <path class="clsh-9" d="M136.5,517.17v97"/>
        <path class="clsh-9" d="M107,613.67H945"/>
        <path class="clsh-9" d="M742,658.67h585"/>
        <path class="clsh-9" d="M496.5,697.17v-83"/>
        <path class="clsh-9" d="M1132,697.17v-38"/>
        <path class="clsh-9" d="M1327,697.17v-38"/>
        <path class="clsh-9" d="M937,697.17v-38"/>
        <path class="clsh-9" d="M1034.5,659.17v-22"/>
        <path class="clsh-9" d="M742,697.17v-38"/>
        <path class="clsh-9" d="M302,697.17v-83"/>
        <path class="clsh-9" d="M107,697.17v-83"/>
      </g>
      <circle class="clsh-2" cx="496.54" cy="696.17" r="5"/>
      <circle class="clsh-2" cx="1132" cy="696.17" r="5"/>
      <circle class="clsh-2" cx="1327" cy="696.17" r="5"/>
      <circle class="clsh-2" cx="937" cy="696.17" r="5"/>
      <circle class="clsh-2" cx="742" cy="696.17" r="5"/>
      <circle class="clsh-2" cx="302" cy="696.17" r="5"/>
      <circle class="clsh-2" cx="107" cy="696.17" r="5"/>
      <rect class="clsh-2" x="1087.99" y="92.46" width="76" height="35" rx="10"/>
      <rect class="clsh-6" x="1087.99" y="227.46" width="76" height="35" rx="10"/>
      <rect class="clsh-4" x="1087.99" y="137.46" width="76" height="35" rx="10"/>
      <rect class="clsh-5" x="1088.99" y="183.46" width="74" height="33" rx="9"/>
      <path class="svgtext" d="M1186.6,115.46V104.21h-1.13v11.25Zm9.33,0h-1.11v-5.33c0-1.44-.56-2.09-1.82-2.09a3.56,3.56,0,0,0-2.5,1.17v6.25h-1.12v-8.24l1.12-.24v1.35a4.05,4.05,0,0,1,2.81-1.35c1.65,0,2.62,1,2.62,2.83Zm8.08-8v-4.13l1.12-.24v12.37H1204v-.77a3.45,3.45,0,0,1-2.39,1c-2.21,0-3.69-1.74-3.69-4.28a4.46,4.46,0,0,1,1.15-3.15A3.92,3.92,0,0,1,1202,107a4.56,4.56,0,0,1,2,.45Zm0,1.18a3.33,3.33,0,0,0-2-.63c-1.76,0-2.88,1.37-2.88,3.35s1.08,3.28,2.74,3.28a3.07,3.07,0,0,0,2.19-.92v-5Zm5-4.17a.85.85,0,0,1-.2.57.64.64,0,0,1-.56.26.66.66,0,0,1-.56-.26.94.94,0,0,1,0-1.13.73.73,0,0,1,.56-.23.7.7,0,0,1,.56.23.87.87,0,0,1,.24.59Zm-.2,11h-1.12v-8.25l1.12-.24Zm8.68-.47a4.64,4.64,0,0,1-2.56.7c-2.47,0-4-1.72-4-4.33a4.41,4.41,0,0,1,1.15-3.15A3.82,3.82,0,0,1,1215,107a4.82,4.82,0,0,1,2.57.7l-.29,1A4.07,4.07,0,0,0,1215,108c-1.78,0-2.9,1.31-2.9,3.29s1.15,3.33,2.92,3.33a4,4,0,0,0,2.28-.68Zm6.37-1.35v-2.42c-2.77.31-3.83.92-3.83,2a1.51,1.51,0,0,0,1.55,1.46l.14,0a2.75,2.75,0,0,0,2.18-1Zm.07.83h0a3,3,0,0,1-2.41,1.22,2.37,2.37,0,0,1-2.6-2.11c0-.06,0-.11,0-.17,0-1.77,1.67-2.74,5-2.94V110a1.72,1.72,0,0,0-1.39-2,2,2,0,0,0-.55,0,5.06,5.06,0,0,0-2.7,1l-.26-1a5.89,5.89,0,0,1,3.06-1,2.65,2.65,0,0,1,3,3v4c0,.65.14.85.82.83l-.07.92c-1.11,0-1.72-.39-1.83-1.24Zm7.64.83a4.14,4.14,0,0,1-1.83.43c-1.53,0-2.27-.86-2.22-2.59l.13-4.88-1.26-.07v-.7l1.24-.29.06-1.87h1.06v1.92h2.75v1h-2.74l-.13,4.93c0,1,.36,1.55,1.21,1.55a3.92,3.92,0,0,0,1.58-.39Zm2.33-3.93v.09a2.9,2.9,0,0,0,2.88,3.19,4.21,4.21,0,0,0,2.39-.68l.22,1a4.86,4.86,0,0,1-2.65.7,3.93,3.93,0,0,1-4-3.86,3,3,0,0,1,0-.42,4.67,4.67,0,0,1,1.12-3.19,3.62,3.62,0,0,1,2.83-1.25,2.84,2.84,0,0,1,3,2.65,2,2,0,0,1,0,.35,4.17,4.17,0,0,1-.18,1.32Zm.07-.88h4.57a1.09,1.09,0,0,0,0-.36,1.88,1.88,0,0,0-1.62-2.11,2.38,2.38,0,0,0-.38,0,2.68,2.68,0,0,0-2.55,2.47Zm12.74,2.72c0,1.49-1.26,2.48-3,2.48a4.94,4.94,0,0,1-2.7-.73l.3-1a4.31,4.31,0,0,0,2.43.76c1,0,1.86-.53,1.86-1.39a1,1,0,0,0-.13-.52,2.12,2.12,0,0,0-.29-.38,2.25,2.25,0,0,0-.5-.29,4.71,4.71,0,0,0-.52-.21l-.63-.2c-1.44-.43-2.4-1-2.4-2.34s1.17-2.38,2.79-2.38a5.44,5.44,0,0,1,2.51.61l-.33,1A4.64,4.64,0,0,0,1244,108c-1,0-1.65.47-1.65,1.26a.89.89,0,0,0,.12.49,1.22,1.22,0,0,0,.27.36,1.33,1.33,0,0,0,.49.28l.52.22.63.2c1.49.43,2.43,1,2.43,2.41Zm12.66,2.25h-1.12v-5.34c0-1.38-.59-2.09-1.76-2.09a3.63,3.63,0,0,0-2.56,1.17v6.25h-1.11V103.33l1.11-.24v5.21a4,4,0,0,1,2.86-1.32c1.62,0,2.58,1,2.58,2.83Zm10-4.14a4.34,4.34,0,0,1-1.15,3.15,3.8,3.8,0,0,1-2.9,1.22,3.73,3.73,0,0,1-2.86-1.18,4.92,4.92,0,0,1,0-6.32,3.84,3.84,0,0,1,2.9-1.21,3.75,3.75,0,0,1,2.86,1.19,4.43,4.43,0,0,1,1.21,3.14Zm-1.1,0c0-2-1.15-3.37-2.91-3.37s-2.9,1.35-2.9,3.33,1.15,3.37,2.92,3.37,2.95-1.32,2.95-3.3Zm14.59,4.1h-1.12v-5.28c0-1.4-.57-2.11-1.74-2.11a3.45,3.45,0,0,0-2.33,1.07,4.45,4.45,0,0,1,0,.73v5.62h-1.12v-5.31c0-1.4-.57-2.11-1.74-2.11a3.51,3.51,0,0,0-2.29,1v6.42h-1.11v-8.24l1.11-.24v1.14a3.84,3.84,0,0,1,2.61-1.14,2.19,2.19,0,0,1,2.23,1.37,4.14,4.14,0,0,1,2.92-1.37c1.58,0,2.54,1,2.54,2.85Zm3.14-4.09v.09a2.9,2.9,0,0,0,2.88,3.19,4.21,4.21,0,0,0,2.39-.68l.22,1a4.86,4.86,0,0,1-2.65.7,3.93,3.93,0,0,1-4-3.86,3,3,0,0,1,0-.42,4.67,4.67,0,0,1,1.12-3.19,3.63,3.63,0,0,1,2.77-1.24,2.84,2.84,0,0,1,3,2.65,2,2,0,0,1,0,.35,4.17,4.17,0,0,1-.18,1.32Zm.07-.88h4.57a1.09,1.09,0,0,0,0-.36A1.88,1.88,0,0,0,1289,108a2.38,2.38,0,0,0-.38,0,2.68,2.68,0,0,0-2.51,2.51ZM1295,108a3.48,3.48,0,0,1,2.4-1c2.21,0,3.69,1.72,3.69,4.26a4.4,4.4,0,0,1-1.14,3.15,3.79,3.79,0,0,1-2.93,1.24,4.62,4.62,0,0,1-2-.43v4.39h-1.11V107.18L1295,107Zm0,.94V114a3.23,3.23,0,0,0,2.07.65c1.73,0,2.87-1.39,2.87-3.37s-1.07-3.26-2.72-3.26a3.25,3.25,0,0,0-2.2.93Zm12.45,4.66v-2.38c-2.77.31-3.83.92-3.83,2a1.51,1.51,0,0,0,1.55,1.46l.14,0a2.8,2.8,0,0,0,2.2-1Zm.08.83h-.06a3,3,0,0,1-2.41,1.22,2.37,2.37,0,0,1-2.6-2.13s0-.1,0-.15c0-1.77,1.67-2.74,5-2.94V110a1.72,1.72,0,0,0-1.4-2,2,2,0,0,0-.54,0,5.06,5.06,0,0,0-2.7,1l-.25-1a5.89,5.89,0,0,1,3.06-1c2,0,3,1,3,3v4c0,.65.14.85.83.83l-.07.92c-1,0-1.62-.39-1.74-1.24Zm4.16-4.37a2,2,0,0,0,1.89,2.11h.24a1.87,1.87,0,0,0,1.49-.61,2.11,2.11,0,0,0,.56-1.55,2.26,2.26,0,0,0-.54-1.55,2.13,2.13,0,0,0-1.57-.59,2,2,0,0,0-2.08,1.92,2.53,2.53,0,0,0,0,.28Zm1,5.59c-1,.27-1.67.92-1.67,1.62,0,1,1.1,1.7,2.81,1.7s3.09-.83,3.09-2c0-.93-.79-1.31-2.5-1.31a8.14,8.14,0,0,1-1.7,0Zm-1-.21c-.74-.27-1.11-.7-1.11-1.32a1.81,1.81,0,0,1,1.35-1.56,2.74,2.74,0,0,1-1.34-2.52,3,3,0,0,1,3-3.1h.25a3.88,3.88,0,0,1,2,.49l2.28-.18.06,1.11-1.82-.18a2.89,2.89,0,0,1,.67,1.86,3,3,0,0,1-3,3h-.22a3.39,3.39,0,0,1-1.22-.23c-.61.25-.92.57-.92,1s.47.84,1.87.84h1.06c2.29,0,3.42.72,3.42,2.16a2.58,2.58,0,0,1-1.27,2.2,5.19,5.19,0,0,1-3.06.86c-2.22,0-3.73-1-3.73-2.41a2.2,2.2,0,0,1,1.78-2Zm8.39-4.11v.09c0,1.89,1.17,3.19,2.88,3.19a4.21,4.21,0,0,0,2.39-.68l.22,1a4.86,4.86,0,0,1-2.65.7,3.93,3.93,0,0,1-4-3.86,3,3,0,0,1,0-.42,4.67,4.67,0,0,1,1.12-3.19,3.58,3.58,0,0,1,2.77-1.24,2.84,2.84,0,0,1,3,2.65,2,2,0,0,1,0,.35,4.17,4.17,0,0,1-.18,1.32Zm.07-.88h4.57a1.09,1.09,0,0,0,0-.36,1.87,1.87,0,0,0-1.62-2.1,1.59,1.59,0,0,0-.38,0,2.68,2.68,0,0,0-2.51,2.51Z"/>
      <path class="svgtext" d="M1186.6,206.46V195.21h-1.13v11.25Zm9.33,0h-1.11v-5.33c0-1.44-.56-2.09-1.82-2.09a3.56,3.56,0,0,0-2.5,1.17v6.25h-1.12v-8.24l1.12-.24v1.35a4.05,4.05,0,0,1,2.81-1.35c1.65,0,2.62,1,2.62,2.83Zm8.08-8V194.3l1.12-.24v12.4H1204v-.77a3.45,3.45,0,0,1-2.39,1c-2.21,0-3.69-1.74-3.69-4.28a4.46,4.46,0,0,1,1.15-3.15A3.92,3.92,0,0,1,1202,198a4.56,4.56,0,0,1,2,.45Zm0,1.18a3.33,3.33,0,0,0-2-.63c-1.76,0-2.88,1.37-2.88,3.35s1.08,3.28,2.74,3.28a3.07,3.07,0,0,0,2.19-.92v-5.08Zm5-4.17a.85.85,0,0,1-.2.57.64.64,0,0,1-.56.26.66.66,0,0,1-.56-.26.94.94,0,0,1,0-1.13.73.73,0,0,1,.56-.23.7.7,0,0,1,.56.23.87.87,0,0,1,.24.59Zm-.2,11h-1.12v-8.24l1.12-.24Zm8.68-.47a4.64,4.64,0,0,1-2.56.7c-2.47,0-4-1.72-4-4.33a4.41,4.41,0,0,1,1.15-3.15A3.82,3.82,0,0,1,1215,198a4.82,4.82,0,0,1,2.57.7l-.29,1A4.07,4.07,0,0,0,1215,199c-1.78,0-2.9,1.31-2.9,3.29s1.15,3.33,2.92,3.33a4,4,0,0,0,2.28-.68Zm6.37-1.35v-2.41c-2.77.31-3.83.92-3.83,2a1.51,1.51,0,0,0,1.55,1.46l.14,0a2.79,2.79,0,0,0,2.18-1Zm.07.83h0a3,3,0,0,1-2.41,1.22,2.37,2.37,0,0,1-2.6-2.11c0-.06,0-.11,0-.17,0-1.77,1.67-2.74,5-2.94V201a1.72,1.72,0,0,0-1.39-2,2,2,0,0,0-.55,0,5.06,5.06,0,0,0-2.7,1l-.28-1a5.89,5.89,0,0,1,3.06-1c2,0,3,1,3,2.95v4c0,.65.14.85.82.83l-.07.92c-1.09.05-1.7-.34-1.81-1.19Zm7.64.83a4.14,4.14,0,0,1-1.83.43c-1.53,0-2.27-.86-2.22-2.59l.13-4.88-1.26-.07v-.7l1.24-.29.06-1.87h1.06v1.92h2.75v1h-2.74l-.13,4.93c0,1,.36,1.55,1.21,1.55a3.92,3.92,0,0,0,1.58-.39Zm2.33-3.93v.09a2.9,2.9,0,0,0,2.88,3.19,4.21,4.21,0,0,0,2.39-.68l.22,1a4.86,4.86,0,0,1-2.65.7,3.93,3.93,0,0,1-4-3.86,3,3,0,0,1,0-.42,4.67,4.67,0,0,1,1.12-3.19,3.63,3.63,0,0,1,2.77-1.24,2.84,2.84,0,0,1,3,2.65,2,2,0,0,1,0,.35,4.17,4.17,0,0,1-.18,1.32Zm.07-.88h4.57a1.09,1.09,0,0,0,0-.36,1.88,1.88,0,0,0-1.62-2.11,2.38,2.38,0,0,0-.38,0,2.68,2.68,0,0,0-2.55,2.47Zm12.74,2.72c0,1.49-1.26,2.48-3,2.48a4.94,4.94,0,0,1-2.7-.73l.3-1a4.31,4.31,0,0,0,2.43.76c1,0,1.86-.53,1.86-1.39a1,1,0,0,0-.13-.52,2.12,2.12,0,0,0-.29-.38,2.25,2.25,0,0,0-.5-.29,4.71,4.71,0,0,0-.52-.21l-.63-.2c-1.44-.43-2.4-1.05-2.4-2.34,0-1.48,1.17-2.38,2.79-2.38a5.44,5.44,0,0,1,2.51.61l-.33,1A4.64,4.64,0,0,0,1244,199c-1,0-1.65.47-1.65,1.26a.89.89,0,0,0,.12.49,1.22,1.22,0,0,0,.27.36,1.33,1.33,0,0,0,.49.28l.52.22.63.2c1.49.43,2.43,1,2.43,2.41Zm11.06,0c0,1.49-1.26,2.48-3,2.48a4.94,4.94,0,0,1-2.7-.73l.31-1a4.31,4.31,0,0,0,2.43.76c1,0,1.85-.53,1.85-1.39a1,1,0,0,0-.12-.52,2.12,2.12,0,0,0-.29-.38,2.25,2.25,0,0,0-.5-.29,4.87,4.87,0,0,0-.53-.21l-.63-.2c-1.44-.43-2.39-1.05-2.39-2.34,0-1.48,1.17-2.38,2.79-2.38a5.43,5.43,0,0,1,2.5.61l-.32,1A4.68,4.68,0,0,0,1255,199c-1,0-1.66.47-1.66,1.26a.9.9,0,0,0,.13.49,1.22,1.22,0,0,0,.27.36,1.29,1.29,0,0,0,.48.28l.53.22c.12.05.34.11.63.2,1.49.43,2.43,1,2.43,2.41Zm2.6-1.84v.09c.06,1.89,1.17,3.19,2.88,3.19a4.26,4.26,0,0,0,2.4-.68l.21,1a4.8,4.8,0,0,1-2.64.7,3.93,3.93,0,0,1-4-3.86,3,3,0,0,1,0-.42,4.71,4.71,0,0,1,1.11-3.19,3.62,3.62,0,0,1,2.78-1.24,2.82,2.82,0,0,1,3,2.63,2.28,2.28,0,0,1,0,.37,4.17,4.17,0,0,1-.18,1.32Zm.07-.88H1265a2.16,2.16,0,0,0,0-.36,1.88,1.88,0,0,0-1.62-2.11,2.38,2.38,0,0,0-.38,0,2.67,2.67,0,0,0-2.54,2.47Zm13.84,4.5a4.64,4.64,0,0,1-2.56.7c-2.46,0-4-1.72-4-4.33a4.41,4.41,0,0,1,1.15-3.15,3.88,3.88,0,0,1,2.9-1.23,4.86,4.86,0,0,1,2.58.7l-.29,1a4.13,4.13,0,0,0-2.29-.66c-1.78,0-2.9,1.31-2.9,3.29s1.16,3.33,2.92,3.33a4.07,4.07,0,0,0,2.29-.68Zm9.47-3.67a4.3,4.3,0,0,1-1.15,3.15,3.8,3.8,0,0,1-2.9,1.22,3.73,3.73,0,0,1-2.86-1.18,4.47,4.47,0,0,1-1.11-3.15,4.38,4.38,0,0,1,1.17-3.17,4.06,4.06,0,0,1,5.74,0h0a4.44,4.44,0,0,1,1.13,3.12Zm-1.09,0c0-2-1.16-3.37-2.92-3.37s-2.9,1.35-2.9,3.33,1.15,3.37,2.92,3.37,2.94-1.32,2.94-3.3Zm9.72,4.1h-1.12V201.1c0-1.44-.55-2.09-1.81-2.09a3.6,3.6,0,0,0-2.51,1.17v6.25h-1.11v-8.24L1287,198v1.35a4.05,4.05,0,0,1,2.81-1.35c1.66,0,2.63,1,2.63,2.83Zm8.08-8v-4.16l1.12-.24v12.43h-1.12v-.77a3.45,3.45,0,0,1-2.39,1c-2.22,0-3.69-1.74-3.69-4.28a4.41,4.41,0,0,1,1.15-3.15,3.9,3.9,0,0,1,2.93-1.22,4.61,4.61,0,0,1,2,.45Zm0,1.18a3.33,3.33,0,0,0-2-.63c-1.77,0-2.88,1.37-2.88,3.35s1.08,3.28,2.73,3.28a3.08,3.08,0,0,0,2.2-.92v-5.08Zm8,5V202.2c-2.77.31-3.83.92-3.83,2a1.51,1.51,0,0,0,1.55,1.46l.14,0a2.78,2.78,0,0,0,2.18-1Zm.08.83h-.06a3,3,0,0,1-2.41,1.22,2.37,2.37,0,0,1-2.6-2.13c0-.05,0-.1,0-.15,0-1.77,1.67-2.74,5-2.94V201a1.72,1.72,0,0,0-1.4-2,2,2,0,0,0-.54,0,5.06,5.06,0,0,0-2.7,1l-.25-1.05a5.86,5.86,0,0,1,3.06-1c2,0,3,1,3,3v4c0,.65.14.85.83.83l-.07.92c-1.08.1-1.69-.29-1.81-1.14Zm4.65-4.3v5.29h-1.12v-8.24l1.12-.24v1.77a2.73,2.73,0,0,1,2.43-1.77,2.9,2.9,0,0,1,1.44.38l-.29,1a2.52,2.52,0,0,0-1.26-.36c-.92,0-1.69.71-2.32,2.13Zm11.83-3-3.21,8.15-.66,1.78c-.72,2-1.48,2.59-2.67,2.59a4,4,0,0,1-1.6-.37l.34-1a2.82,2.82,0,0,0,1.26.36c.69,0,1.14-.41,1.69-1.91l.56-1.46-3.22-8.11h1.21l2.59,6.8,2.54-6.8Zm12,8.24h-1v-5.33c0-1.44-.56-2.09-1.82-2.09a3.56,3.56,0,0,0-2.5,1.17v6.25h-1.11v-8.24l1.11-.24v1.35a4.05,4.05,0,0,1,2.81-1.35c1.66,0,2.63,1,2.63,2.83Zm6.84-1.82v-2.41c-2.78.31-3.84.92-3.84,2a1.51,1.51,0,0,0,1.55,1.46l.14,0a2.79,2.79,0,0,0,2.2-1Zm.07.83h-.06a3,3,0,0,1-2.41,1.22,2.37,2.37,0,0,1-2.6-2.13s0-.1,0-.15c0-1.77,1.68-2.74,5-2.94V201a1.72,1.72,0,0,0-1.38-2,2.15,2.15,0,0,0-.62,0,5.06,5.06,0,0,0-2.7,1l-.16-1a5.89,5.89,0,0,1,3.06-1c2,0,3,1,3,2.95v4c0,.65.15.85.83.83l-.07.92c-1.09.05-1.71-.34-1.82-1.19Zm9.8-7.25h-1.17l-2.52,6.8-2.61-6.8h-1.21l3.26,8.26h1Zm2.7-2.72a.9.9,0,0,1-.2.57.74.74,0,0,1-1,.1l-.09-.1a.92.92,0,0,1,0-1.13.81.81,0,0,1,1.12,0,.92.92,0,0,1,.25.64Zm-.2,11h-1.12v-8.24l1.12-.24Zm3.26-5.36a2,2,0,0,0,1.89,2.1h.23a1.87,1.87,0,0,0,1.49-.61,2.11,2.11,0,0,0,.56-1.55,2.26,2.26,0,0,0-.54-1.55,2.09,2.09,0,0,0-1.56-.59,2,2,0,0,0-2,2,2.44,2.44,0,0,0,0,.27Zm1,5.59c-1,.27-1.68.92-1.68,1.62,0,1,1.1,1.7,2.81,1.7s3.1-.83,3.1-2c0-.93-.79-1.31-2.5-1.31a7.67,7.67,0,0,1-1.71,0Zm-1-.21c-.74-.27-1.12-.7-1.12-1.32a1.81,1.81,0,0,1,1.35-1.56,2.73,2.73,0,0,1-1.33-2.52,3,3,0,0,1,2.89-3.1h.35a3.86,3.86,0,0,1,1.94.49l2.29-.18v1.11l-1.82-.18a2.89,2.89,0,0,1,.67,1.86,3,3,0,0,1-3,3h-.21a3.44,3.44,0,0,1-1.23-.23c-.61.25-.92.57-.92,1s.47.84,1.88.84h1.06q3.42,0,3.42,2.16a2.58,2.58,0,0,1-1.28,2.2,5.19,5.19,0,0,1-3.06.86c-2.21,0-3.73-1-3.73-2.41a2.22,2.22,0,0,1,1.79-2Zm12.09-1.84v-2.41c-2.77.31-3.84.92-3.84,2a1.5,1.5,0,0,0,1.57,1.45h.13a2.76,2.76,0,0,0,2.19-1Zm.07.83h0a3,3,0,0,1-2.42,1.22,2.37,2.37,0,0,1-2.6-2.13c0-.05,0-.1,0-.15,0-1.77,1.68-2.74,5-2.94V201a1.72,1.72,0,0,0-1.38-2,2.15,2.15,0,0,0-.62,0,5.06,5.06,0,0,0-2.7,1l-.25-1.05a5.89,5.89,0,0,1,3.06-1c2,0,3,1,3,3v4c0,.65.15.85.83.83l-.07.92c-1,.1-1.66-.29-1.79-1.14Zm7.64.83a4.18,4.18,0,0,1-1.84.43c-1.53,0-2.26-.86-2.21-2.59l.13-4.88-1.26-.07v-.7l1.24-.29.06-1.87h1.06l-.06,1.92h2.76l-.06,1h-2.73l-.13,4.93c0,1,.36,1.55,1.21,1.55a3.92,3.92,0,0,0,1.58-.39Zm3.15-10.8a.85.85,0,0,1-.2.57.72.72,0,0,1-1,.1l-.1-.1a.92.92,0,0,1,0-1.13.7.7,0,0,1,.56-.23.68.68,0,0,1,.55.23.86.86,0,0,1,.25.6Zm-.2,11h-1.11v-8.24l1.11-.24Zm10.12-4.14a4.34,4.34,0,0,1-1.15,3.15,3.8,3.8,0,0,1-2.9,1.22,3.73,3.73,0,0,1-2.86-1.18,4.92,4.92,0,0,1,0-6.32,3.84,3.84,0,0,1,2.9-1.21,3.77,3.77,0,0,1,2.86,1.19,4.44,4.44,0,0,1,1.2,3.15Zm-1.1,0c0-2-1.15-3.37-2.92-3.37s-2.89,1.35-2.89,3.33,1.15,3.37,2.91,3.37,3-1.31,3-3.29Zm9.73,4.1h-1.12v-5.33c0-1.44-.56-2.09-1.82-2.09a3.56,3.56,0,0,0-2.5,1.17v6.25h-1.12v-8.24l1.12-.24v1.35a4.05,4.05,0,0,1,2.81-1.35c1.65,0,2.63,1,2.63,2.83Z"/>
      <path class="svgtext" d="M1186.6,160.46V149.21h-1.13v11.25Zm9.33,0h-1.11v-5.33c0-1.44-.56-2.09-1.82-2.09a3.56,3.56,0,0,0-2.5,1.17v6.25h-1.12v-8.24l1.12-.24v1.35a4.05,4.05,0,0,1,2.81-1.35c1.65,0,2.62,1,2.62,2.83Zm8.08-8V148.3l1.12-.24v12.4H1204v-.77a3.45,3.45,0,0,1-2.39,1c-2.21,0-3.69-1.74-3.69-4.28a4.46,4.46,0,0,1,1.15-3.15A3.92,3.92,0,0,1,1202,152a4.56,4.56,0,0,1,2,.45Zm0,1.18a3.33,3.33,0,0,0-2-.63c-1.76,0-2.88,1.37-2.88,3.35s1.08,3.28,2.74,3.28a3.07,3.07,0,0,0,2.19-.92v-5.08Zm5-4.17a.85.85,0,0,1-.2.57.64.64,0,0,1-.56.26.66.66,0,0,1-.56-.26.94.94,0,0,1,0-1.13.73.73,0,0,1,.56-.23.7.7,0,0,1,.56.23.87.87,0,0,1,.24.59Zm-.2,11h-1.12v-8.24l1.12-.24Zm8.68-.47a4.64,4.64,0,0,1-2.56.7c-2.47,0-4-1.72-4-4.33a4.41,4.41,0,0,1,1.15-3.15A3.82,3.82,0,0,1,1215,152a4.82,4.82,0,0,1,2.57.7l-.29,1A4.07,4.07,0,0,0,1215,153c-1.78,0-2.9,1.31-2.9,3.29s1.15,3.33,2.92,3.33a4,4,0,0,0,2.28-.68Zm6.37-1.35v-2.41c-2.77.31-3.83.92-3.83,2a1.51,1.51,0,0,0,1.55,1.46l.14,0a2.79,2.79,0,0,0,2.18-1Zm.07.83h0a3,3,0,0,1-2.41,1.22,2.37,2.37,0,0,1-2.6-2.11c0-.06,0-.11,0-.17,0-1.77,1.67-2.74,5-2.94V155a1.72,1.72,0,0,0-1.39-2,2,2,0,0,0-.55,0,5.06,5.06,0,0,0-2.7,1l-.28-1a5.89,5.89,0,0,1,3.06-1c2,0,3,1,3,2.95v4c0,.65.14.85.82.83l-.07.92c-1.09.05-1.7-.34-1.81-1.19Zm7.64.83a4.14,4.14,0,0,1-1.83.43c-1.53,0-2.27-.86-2.22-2.59l.13-4.88-1.26-.07v-.7l1.24-.29.06-1.87h1.06v1.92h2.75v1h-2.74l-.13,4.93c0,1,.36,1.55,1.21,1.55a3.92,3.92,0,0,0,1.58-.39Zm2.33-3.93v.09a2.9,2.9,0,0,0,2.88,3.19,4.21,4.21,0,0,0,2.39-.68l.22,1a4.86,4.86,0,0,1-2.65.7,3.93,3.93,0,0,1-4-3.86,3,3,0,0,1,0-.42,4.67,4.67,0,0,1,1.12-3.19,3.63,3.63,0,0,1,2.77-1.24,2.84,2.84,0,0,1,3,2.65,2,2,0,0,1,0,.35,4.17,4.17,0,0,1-.18,1.32Zm.07-.88h4.57a1.09,1.09,0,0,0,0-.36,1.88,1.88,0,0,0-1.62-2.11,2.38,2.38,0,0,0-.38,0,2.68,2.68,0,0,0-2.55,2.47Zm12.74,2.72c0,1.49-1.26,2.48-3,2.48a4.94,4.94,0,0,1-2.7-.73l.3-1a4.31,4.31,0,0,0,2.43.76c1,0,1.86-.53,1.86-1.39a1,1,0,0,0-.13-.52,2.12,2.12,0,0,0-.29-.38,2.25,2.25,0,0,0-.5-.29,4.71,4.71,0,0,0-.52-.21l-.63-.2c-1.44-.43-2.4-1.05-2.4-2.34,0-1.48,1.17-2.38,2.79-2.38a5.44,5.44,0,0,1,2.51.61l-.33,1A4.64,4.64,0,0,0,1244,153c-1,0-1.65.47-1.65,1.26a.89.89,0,0,0,.12.49,1.22,1.22,0,0,0,.27.36,1.33,1.33,0,0,0,.49.28l.52.22.63.2c1.49.43,2.43,1,2.43,2.41Zm7.22-5.17a3.48,3.48,0,0,1,2.4-1c2.21,0,3.69,1.72,3.69,4.26a4.4,4.4,0,0,1-1.14,3.15,3.79,3.79,0,0,1-2.93,1.24,4.62,4.62,0,0,1-2-.43v4.39h-1.11V152.18L1254,152Zm0,.94v5.06a3.23,3.23,0,0,0,2.07.65c1.73,0,2.86-1.39,2.86-3.37s-1.06-3.26-2.71-3.26a3.3,3.3,0,0,0-2.16.89Zm9.27,1.19v5.29h-1.12v-8.24l1.12-.24v1.77a2.73,2.73,0,0,1,2.43-1.77,2.9,2.9,0,0,1,1.44.38l-.29,1a2.52,2.52,0,0,0-1.26-.36c-.92,0-1.69.71-2.32,2.13Zm6.63-5.67a.85.85,0,0,1-.2.57.64.64,0,0,1-.56.26.66.66,0,0,1-.56-.26.94.94,0,0,1,0-1.13.73.73,0,0,1,.56-.23.7.7,0,0,1,.56.23.84.84,0,0,1,.24.55Zm-.2,11h-1.12v-8.24l1.12-.24Zm14,0h-1.12V155.2c0-1.4-.57-2.11-1.74-2.11a3.47,3.47,0,0,0-2.32,1.07v6.35h-1.11V155.2c0-1.4-.58-2.11-1.75-2.11a3.51,3.51,0,0,0-2.29,1v6.46h-1.11v-8.24l1.11-.24v1.14A3.83,3.83,0,0,1,1276,152a2.22,2.22,0,0,1,2.24,1.37,4.1,4.1,0,0,1,2.91-1.37c1.59,0,2.54,1,2.54,2.85Zm6.85-1.82v-2.41c-2.78.31-3.84.92-3.84,2a1.51,1.51,0,0,0,1.55,1.46l.14,0a2.78,2.78,0,0,0,2.23-1.08Zm.07.83h-.06a3,3,0,0,1-2.41,1.22,2.37,2.37,0,0,1-2.6-2.13c0-.05,0-.1,0-.15,0-1.77,1.68-2.74,5-2.94V155a1.72,1.72,0,0,0-1.38-2,2.15,2.15,0,0,0-.62,0,5.06,5.06,0,0,0-2.7,1l-.25-1.05a5.89,5.89,0,0,1,3.06-1c2,0,3,1,3,3v4c0,.65.15.85.83.83l-.07.92c-1,.1-1.59-.29-1.71-1.14Zm4.65-4.3v5.29h-1.12v-8.24l1.12-.24v1.77a2.73,2.73,0,0,1,2.43-1.77,2.9,2.9,0,0,1,1.44.38l-.29,1a2.52,2.52,0,0,0-1.26-.36c-.84,0-1.61.7-2.24,2.12Zm11.83-3-3.21,8.15-.66,1.78c-.72,2-1.48,2.59-2.67,2.59a4,4,0,0,1-1.6-.37l.34-1a2.82,2.82,0,0,0,1.26.36c.69,0,1.14-.41,1.7-1.91l.55-1.46-3.22-8.11h1.21l2.59,6.8,2.54-6.8Zm12,8.24h-1v-5.33c0-1.44-.56-2.09-1.82-2.09a3.56,3.56,0,0,0-2.5,1.17v6.25h-1.12v-8.24l1.12-.24v1.35a4,4,0,0,1,2.8-1.35c1.66,0,2.63,1,2.63,2.83Zm6.84-1.82v-2.41c-2.77.31-3.83.92-3.83,2a1.51,1.51,0,0,0,1.55,1.46l.14,0a2.79,2.79,0,0,0,2.26-1Zm.07.83h0a3,3,0,0,1-2.41,1.22,2.37,2.37,0,0,1-2.6-2.11c0-.06,0-.11,0-.17,0-1.77,1.67-2.74,5-2.94V155a1.72,1.72,0,0,0-1.4-2,2,2,0,0,0-.54,0,5.06,5.06,0,0,0-2.7,1l-.26-1.05a5.89,5.89,0,0,1,3.06-1c2,0,3,1,3,3v4c0,.65.14.85.82.83l-.07.92c-1.06.1-1.67-.29-1.84-1.14Zm9.8-7.25h-1.17l-2.52,6.8-2.61-6.8h-1.2l3.25,8.26h1Zm2.7-2.72a.85.85,0,0,1-.2.57.64.64,0,0,1-.56.26.66.66,0,0,1-.56-.26.94.94,0,0,1,0-1.13.73.73,0,0,1,.56-.23.7.7,0,0,1,.56.23.85.85,0,0,1,.29.56Zm-.2,11h-1.12v-8.24l1.12-.24Zm3.26-5.36a2,2,0,0,0,1.89,2.1h.23a1.89,1.89,0,0,0,1.5-.61,2.15,2.15,0,0,0,.55-1.55,2.26,2.26,0,0,0-.54-1.55,2.09,2.09,0,0,0-1.56-.59,2,2,0,0,0-2,2v.14Zm1,5.59c-1,.27-1.67.92-1.67,1.62,0,1,1.09,1.7,2.8,1.7s3.1-.83,3.1-2c0-.93-.79-1.31-2.5-1.31a16.51,16.51,0,0,1-1.67-.05Zm-1-.21c-.74-.27-1.12-.7-1.12-1.32a1.81,1.81,0,0,1,1.35-1.56,2.75,2.75,0,0,1-1.33-2.52,3,3,0,0,1,2.89-3.1,2,2,0,0,1,.35,0,3.86,3.86,0,0,1,1.94.49l2.29-.18v1.11l-1.81-.18a3,3,0,0,1,.66,1.86,3,3,0,0,1-3,3h-.21a3.44,3.44,0,0,1-1.23-.23c-.61.25-.91.57-.91,1s.46.84,1.87.84h1.06c2.29,0,3.42.72,3.42,2.16a2.58,2.58,0,0,1-1.28,2.2,5.19,5.19,0,0,1-3.06.86c-2.21,0-3.72-1-3.72-2.41a2.2,2.2,0,0,1,1.78-2Zm12.09-1.84v-2.41c-2.77.31-3.83.92-3.83,2a1.51,1.51,0,0,0,1.55,1.46l.14,0a2.78,2.78,0,0,0,2.23-1.07Zm.07.83h0a3,3,0,0,1-2.41,1.22,2.37,2.37,0,0,1-2.6-2.11c0-.06,0-.11,0-.17,0-1.77,1.67-2.74,5-2.94V155a1.72,1.72,0,0,0-1.4-2,2,2,0,0,0-.54,0,5.06,5.06,0,0,0-2.7,1l-.26-1.05a5.89,5.89,0,0,1,3.06-1c2,0,3,1,3,3v4c0,.65.14.85.82.83l-.07.92c-1.06.1-1.67-.29-1.8-1.14Zm7.64.83a4.14,4.14,0,0,1-1.83.43c-1.53,0-2.27-.86-2.22-2.59l.13-4.88-1.26-.07v-.7l1.24-.29.06-1.87h1.06l0,1.92h2.75v1h-2.74l-.13,4.93c0,1,.36,1.55,1.21,1.55a3.92,3.92,0,0,0,1.58-.39Zm3.15-10.8a.89.89,0,0,1-.19.57.73.73,0,0,1-1.12,0,.92.92,0,0,1,0-1.13.7.7,0,0,1,.56-.23.73.73,0,0,1,.56.23.89.89,0,0,1,.28.52Zm-.19,11h-1.12V152.3l1.12-.24Zm10.11-4.14a4.34,4.34,0,0,1-1.15,3.15,3.8,3.8,0,0,1-2.9,1.22,3.73,3.73,0,0,1-2.86-1.18,4.92,4.92,0,0,1,0-6.32,3.84,3.84,0,0,1,2.9-1.21,3.75,3.75,0,0,1,2.86,1.19,4.42,4.42,0,0,1,1.24,3.07Zm-1.1,0c0-2-1.15-3.37-2.91-3.37s-2.9,1.35-2.9,3.33,1.15,3.37,2.92,3.37,3-1.39,3-3.37Zm9.73,4.1h-1v-5.33c0-1.44-.56-2.09-1.82-2.09a3.56,3.56,0,0,0-2.5,1.17v6.25h-1.11v-8.24l1.11-.24v1.35a4.05,4.05,0,0,1,2.81-1.35c1.66,0,2.63,1,2.63,2.83Z"/>
      <path class="svgtext" d="M1186.6,251.46V240.21h-1.13v11.25Zm9.33,0h-1.11v-5.33c0-1.44-.56-2.09-1.82-2.09a3.56,3.56,0,0,0-2.5,1.17v6.25h-1.12v-8.24l1.12-.24v1.35a4.05,4.05,0,0,1,2.81-1.35c1.65,0,2.62,1,2.62,2.83Zm8.08-8V239.3l1.12-.24v12.4H1204v-.77a3.45,3.45,0,0,1-2.39,1c-2.21,0-3.69-1.74-3.69-4.28a4.46,4.46,0,0,1,1.15-3.15A3.92,3.92,0,0,1,1202,243a4.56,4.56,0,0,1,2,.45Zm0,1.18a3.33,3.33,0,0,0-2-.63c-1.76,0-2.88,1.37-2.88,3.35s1.08,3.28,2.74,3.28a3.07,3.07,0,0,0,2.19-.92v-5.08Zm5-4.17a.85.85,0,0,1-.2.57.64.64,0,0,1-.56.26.66.66,0,0,1-.56-.26.94.94,0,0,1,0-1.13.73.73,0,0,1,.56-.23.7.7,0,0,1,.56.23.87.87,0,0,1,.24.59Zm-.2,11h-1.12v-8.24l1.12-.24Zm8.68-.47a4.64,4.64,0,0,1-2.56.7c-2.47,0-4-1.72-4-4.33a4.41,4.41,0,0,1,1.15-3.15A3.82,3.82,0,0,1,1215,243a4.82,4.82,0,0,1,2.57.7l-.29,1A4.07,4.07,0,0,0,1215,244c-1.78,0-2.9,1.31-2.9,3.29s1.15,3.33,2.92,3.33a4,4,0,0,0,2.28-.68Zm6.37-1.35v-2.41c-2.77.31-3.83.92-3.83,2a1.51,1.51,0,0,0,1.55,1.46l.14,0a2.79,2.79,0,0,0,2.18-1Zm.07.83h0a3,3,0,0,1-2.41,1.22,2.37,2.37,0,0,1-2.6-2.11c0-.06,0-.11,0-.17,0-1.77,1.67-2.74,5-2.94V246a1.72,1.72,0,0,0-1.39-2,2,2,0,0,0-.55,0,5.06,5.06,0,0,0-2.7,1l-.28-1a5.89,5.89,0,0,1,3.06-1c2,0,3,1,3,2.95v4c0,.65.14.85.82.83l-.07.92c-1.09.05-1.7-.34-1.81-1.19Zm7.64.83a4.14,4.14,0,0,1-1.83.43c-1.53,0-2.27-.86-2.22-2.59l.13-4.88-1.26-.07v-.7l1.24-.29.06-1.87h1.06v1.92h2.75v1h-2.74l-.13,4.93c0,1,.36,1.55,1.21,1.55a3.92,3.92,0,0,0,1.58-.39Zm2.33-3.93v.09a2.9,2.9,0,0,0,2.88,3.19,4.21,4.21,0,0,0,2.39-.68l.22,1a4.86,4.86,0,0,1-2.65.7,3.93,3.93,0,0,1-4-3.86,3,3,0,0,1,0-.42,4.67,4.67,0,0,1,1.12-3.19,3.63,3.63,0,0,1,2.77-1.24,2.84,2.84,0,0,1,3,2.65,2,2,0,0,1,0,.35,4.17,4.17,0,0,1-.18,1.32Zm.07-.88h4.57a1.09,1.09,0,0,0,0-.36,1.88,1.88,0,0,0-1.62-2.11,2.38,2.38,0,0,0-.38,0,2.68,2.68,0,0,0-2.55,2.47Zm12.74,2.72c0,1.49-1.26,2.48-3,2.48a4.94,4.94,0,0,1-2.7-.73l.3-1a4.31,4.31,0,0,0,2.43.76c1,0,1.86-.53,1.86-1.39a1,1,0,0,0-.13-.52,2.12,2.12,0,0,0-.29-.38,2.25,2.25,0,0,0-.5-.29,4.71,4.71,0,0,0-.52-.21l-.63-.2c-1.44-.43-2.4-1.05-2.4-2.34,0-1.48,1.17-2.38,2.79-2.38a5.44,5.44,0,0,1,2.51.61l-.33,1A4.64,4.64,0,0,0,1244,244c-1,0-1.65.47-1.65,1.26a.89.89,0,0,0,.12.49,1.22,1.22,0,0,0,.27.36,1.33,1.33,0,0,0,.49.28l.52.22.63.2c1.49.43,2.43,1,2.43,2.41Zm14.57-8.32-.36,1a5.91,5.91,0,0,0-3.14-.9c-2.53,0-4.24,1.78-4.24,4.81s1.67,4.82,4.28,4.82a5,5,0,0,0,3.15-1l.22,1.14a6,6,0,0,1-3.39.91,5.08,5.08,0,0,1-3.94-1.58,6.79,6.79,0,0,1,0-8.53,5.16,5.16,0,0,1,3.9-1.6,6.64,6.64,0,0,1,3.48.91Zm6.39,8.75v-2.41c-2.78.31-3.84.92-3.84,2a1.51,1.51,0,0,0,1.55,1.46l.14,0a2.78,2.78,0,0,0,2.19-1Zm.07.83h-.06a3,3,0,0,1-2.41,1.22,2.37,2.37,0,0,1-2.6-2.13s0-.1,0-.15c0-1.77,1.68-2.74,5-2.94V246a1.72,1.72,0,0,0-1.38-2,2.15,2.15,0,0,0-.62,0,5.06,5.06,0,0,0-2.7,1l-.25-1.05a5.89,5.89,0,0,1,3.06-1c2,0,3,1,3,3v4c0,.65.15.85.83.83l-.07.92c-1,.1-1.58-.29-1.7-1.14Zm4.65,1V239.09l-1.12.24v12.13Zm3.71,0V239.09l-1.12.24v12.13Zm6-3.85v-1.07H1278v1.05Zm6,3.69a4.14,4.14,0,0,1-1.83.43c-1.53,0-2.27-.86-2.22-2.59l.13-4.88-1.26-.07v-.7l1.24-.29.06-1.87h1.06v1.92H1288v1h-2.74l-.13,4.93c0,1,.36,1.55,1.21,1.55a3.92,3.92,0,0,0,1.58-.39Zm9.22-4a4.34,4.34,0,0,1-1.15,3.15,3.8,3.8,0,0,1-2.9,1.22,3.73,3.73,0,0,1-2.86-1.18,4.92,4.92,0,0,1,0-6.32,3.84,3.84,0,0,1,2.9-1.21,3.75,3.75,0,0,1,2.86,1.19,4.4,4.4,0,0,1,1.14,3.15Zm-1.1,0c0-2-1.15-3.37-2.91-3.37s-2.9,1.35-2.9,3.33,1.15,3.37,2.92,3.37,2.88-1.31,2.88-3.29Zm6.56.25v-1h-4.07v1.05Zm6.37-7.4h-1.35l-4.26,11.25h1.17l1.19-3.22H1311l1.19,3.22h1.17Zm1.44,7h-4.3l2.16-5.85ZM1321,251a4.64,4.64,0,0,1-2.56.7c-2.47,0-4-1.72-4-4.33a4.41,4.41,0,0,1,1.15-3.15,3.88,3.88,0,0,1,2.9-1.23,4.82,4.82,0,0,1,2.57.7l-.29,1a4.07,4.07,0,0,0-2.28-.66c-1.78,0-2.9,1.31-2.9,3.29s1.15,3.33,2.92,3.33a4,4,0,0,0,2.28-.68Zm6.17.31a4.14,4.14,0,0,1-1.83.43c-1.53,0-2.27-.86-2.22-2.59l.13-4.88-1.26-.07v-.7l1.24-.29.06-1.87h1.06v1.92h2.75v1h-2.74l-.13,4.93c0,1,.36,1.55,1.21,1.55a3.92,3.92,0,0,0,1.58-.39Zm3.15-10.8a.89.89,0,0,1-.19.57.73.73,0,0,1-1.12,0,.92.92,0,0,1,0-1.13.7.7,0,0,1,.56-.23.73.73,0,0,1,.56.23.9.9,0,0,1,.16.59Zm-.19,11H1329v-8.24l1.12-.24Zm10.11-4.14a4.34,4.34,0,0,1-1.15,3.15,3.8,3.8,0,0,1-2.9,1.22,3.73,3.73,0,0,1-2.86-1.18,4.92,4.92,0,0,1,0-6.32,3.84,3.84,0,0,1,2.9-1.21,3.75,3.75,0,0,1,2.86,1.19,4.42,4.42,0,0,1,1.12,3.14Zm-1.1,0c0-2-1.15-3.37-2.91-3.37s-2.9,1.35-2.9,3.33,1.15,3.37,2.92,3.37,2.86-1.32,2.86-3.3Zm9.73,4.1h-1.12V246.1c0-1.44-.56-2.09-1.82-2.09a3.56,3.56,0,0,0-2.5,1.17v6.25h-1.11v-8.24l1.11-.24v1.35a4.05,4.05,0,0,1,2.81-1.35c1.66,0,2.63,1,2.63,2.83Z"/>
    </g>
  </g>
</svg>
