<svg xmlns="http://www.w3.org/2000/svg" viewBox="0 0 1507.26 667.74"><defs><style>.a3b1c948-6e17-4abb-95d4-0af82fc1c4bd,.b27b6480-27d6-4179-ac13-648975c83e2a,.b9f27813-ce35-4796-a162-c8af1e0f0f8f,.ea99bb9e-a22a-494d-bb32-2434d59db913{fill:none;stroke:#799400;}.a3b1c948-6e17-4abb-95d4-0af82fc1c4bd,.ea99bb9e-a22a-494d-bb32-2434d59db913{stroke-linecap:round;stroke-linejoin:round;}.a3b1c948-6e17-4abb-95d4-0af82fc1c4bd,.b9f27813-ce35-4796-a162-c8af1e0f0f8f{stroke-dasharray:5 5;}.b765bd75-83bb-49b0-b357-46cf6fa757ad{fill:#799400;}.b27b6480-27d6-4179-ac13-648975c83e2a{stroke-width:2px;}.ba894c68-1ea9-45f7-9e46-215780c5839a{fill:#111115;}</style></defs><g id="a4b1e012-6fe1-4347-bbdf-82dda5238d7c" data-name="Layer 2"><g id="ecf3fd96-32f6-4920-be7f-3d69b3eba12d" data-name="Layer 1"><path class="ea99bb9e-a22a-494d-bb32-2434d59db913" d="M.5.5H1506.76V667.24H.5Z"/><path class="a3b1c948-6e17-4abb-95d4-0af82fc1c4bd" d="M33.27,251.28H252.81V472.14H33.27Z"/><path class="b765bd75-83bb-49b0-b357-46cf6fa757ad" d="M60.08,99.65h1.05v10.73H60l-6.08-9.2v9.09H52.82V99.65h1.23l6,9.11Z"/><path class="b765bd75-83bb-49b0-b357-46cf6fa757ad" d="M67.87,109.34h-.05a2.88,2.88,0,0,1-2.28,1.16,2.26,2.26,0,0,1-2.47-2.16q0-2.5,4.73-2.77v-.46A1.63,1.63,0,0,0,66,103.25a4.76,4.76,0,0,0-2.55.94l-.23-1a5.48,5.48,0,0,1,2.89-.93,2.45,2.45,0,0,1,2.78,2.79v3.74c0,.61.14.79.78.78l-.06.86C68.56,110.51,68,110.14,67.87,109.34Zm-.07-.78v-2.28c-2.62.29-3.62.87-3.62,1.94a1.43,1.43,0,0,0,1.6,1.36A2.66,2.66,0,0,0,67.8,108.56Z"/><path class="b765bd75-83bb-49b0-b357-46cf6fa757ad" d="M74.05,110.29h-1L70,102.49h1.13l2.47,6.43L76,102.49h1.11Z"/><path class="b765bd75-83bb-49b0-b357-46cf6fa757ad" d="M85.21,106.28a4.4,4.4,0,0,1-1.07,3,3.61,3.61,0,0,1-2.77,1.19,4.37,4.37,0,0,1-1.91-.43l-1,.46V98.82l1-.22v4.7a3.33,3.33,0,0,1,2.35-1C83.86,102.32,85.21,103.93,85.21,106.28Zm-1.09,0c0-1.8-1-3-2.52-3a3.07,3.07,0,0,0-2.14.87v4.77a3.08,3.08,0,0,0,2,.61C83.08,109.54,84.12,108.25,84.12,106.33Z"/><path class="b765bd75-83bb-49b0-b357-46cf6fa757ad" d="M91.22,109.34h0a2.86,2.86,0,0,1-2.27,1.16,2.26,2.26,0,0,1-2.47-2.16q0-2.5,4.73-2.77v-.46a1.64,1.64,0,0,0-1.84-1.86,4.73,4.73,0,0,0-2.55.94l-.24-1a5.54,5.54,0,0,1,2.89-.93,2.45,2.45,0,0,1,2.79,2.79v3.74c0,.61.14.79.78.78l-.07.86C91.92,110.51,91.34,110.14,91.22,109.34Zm-.06-.78v-2.28c-2.62.29-3.62.87-3.62,1.94a1.42,1.42,0,0,0,1.59,1.36A2.67,2.67,0,0,0,91.16,108.56Z"/><path class="b765bd75-83bb-49b0-b357-46cf6fa757ad" d="M95.61,105.28v5h-1v-7.78l1-.22v1.66a2.57,2.57,0,0,1,2.3-1.66,2.71,2.71,0,0,1,1.36.36l-.28,1a2.28,2.28,0,0,0-1.19-.34C96.94,103.27,96.21,103.93,95.61,105.28Z"/><path class="b765bd75-83bb-49b0-b357-46cf6fa757ad" d="M58.31,267.11l-.34,1a5.4,5.4,0,0,0-2.95-.85c-2.4,0-4,1.68-4,4.54s1.58,4.56,4,4.56a4.87,4.87,0,0,0,3-1l.2,1.07a5.72,5.72,0,0,1-3.2.87,4.86,4.86,0,0,1-3.72-1.49,5.68,5.68,0,0,1-1.41-4,5.61,5.61,0,0,1,1.45-4A4.85,4.85,0,0,1,55,266.25,6.15,6.15,0,0,1,58.31,267.11Z"/><path class="b765bd75-83bb-49b0-b357-46cf6fa757ad" d="M64.42,276.16h0a2.86,2.86,0,0,1-2.28,1.15,2.25,2.25,0,0,1-2.47-2.16q0-2.49,4.73-2.77v-.46a1.63,1.63,0,0,0-1.84-1.85A4.76,4.76,0,0,0,60,271l-.23-1a5.4,5.4,0,0,1,2.89-.94,2.45,2.45,0,0,1,2.78,2.79v3.74c0,.61.14.8.79.78l-.07.87C65.12,277.33,64.54,277,64.42,276.16Zm-.07-.79V273.1c-2.62.28-3.62.86-3.62,1.93a1.42,1.42,0,0,0,1.6,1.36A2.66,2.66,0,0,0,64.35,275.37Z"/><path class="b765bd75-83bb-49b0-b357-46cf6fa757ad" d="M68.8,272.09v5h-1V269.3l1-.22v1.67a2.57,2.57,0,0,1,2.3-1.67,2.71,2.71,0,0,1,1.36.36l-.27,1a2.34,2.34,0,0,0-1.19-.34C70.13,270.09,69.4,270.75,68.8,272.09Z"/><path class="b765bd75-83bb-49b0-b357-46cf6fa757ad" d="M80.7,273.18a4.14,4.14,0,0,1-1.08,3,3.66,3.66,0,0,1-2.74,1.15,3.49,3.49,0,0,1-2.7-1.12,4.65,4.65,0,0,1,0-6A3.61,3.61,0,0,1,77,269.08a3.54,3.54,0,0,1,2.71,1.13A4.18,4.18,0,0,1,80.7,273.18Zm-1,0c0-1.92-1.09-3.17-2.76-3.17s-2.73,1.27-2.73,3.14,1.08,3.18,2.75,3.18S79.67,275.08,79.67,273.21Z"/><path class="b765bd75-83bb-49b0-b357-46cf6fa757ad" d="M82.59,269.3h1v5c0,1.3.56,2,1.69,2a3.29,3.29,0,0,0,2.39-1.11v-5.9h1.06v7.79l-1.06.22v-1.26A3.68,3.68,0,0,1,85,277.31a2.35,2.35,0,0,1-2.45-2.67Z"/><path class="b765bd75-83bb-49b0-b357-46cf6fa757ad" d="M95.9,275c0,1.41-1.19,2.34-2.79,2.34a4.69,4.69,0,0,1-2.55-.7l.29-1a4.06,4.06,0,0,0,2.3.72c1,0,1.75-.49,1.75-1.31a1,1,0,0,0-.12-.49,2,2,0,0,0-.27-.36,2.13,2.13,0,0,0-.48-.27l-.49-.21-.6-.18c-1.36-.41-2.26-1-2.26-2.21,0-1.4,1.11-2.25,2.64-2.25a5,5,0,0,1,2.36.58l-.31.95a4.28,4.28,0,0,0-2.12-.57c-1,0-1.56.44-1.56,1.19a.84.84,0,0,0,.11.45,1.25,1.25,0,0,0,.26.34,1.31,1.31,0,0,0,.46.28l.49.2c.12.05.32.1.6.19C95,273.1,95.9,273.67,95.9,275Z"/><path class="b765bd75-83bb-49b0-b357-46cf6fa757ad" d="M98.37,273.23v.09c0,1.78,1.1,3,2.72,3a4.15,4.15,0,0,0,2.26-.65l.2,1a4.66,4.66,0,0,1-2.5.66,3.72,3.72,0,0,1-3.75-4,4.33,4.33,0,0,1,1-3,3.33,3.33,0,0,1,2.62-1.18,2.68,2.68,0,0,1,2.84,2.88,4.37,4.37,0,0,1-.17,1.24Zm.06-.83,4.32,0a1.34,1.34,0,0,0,0-.34,1.78,1.78,0,0,0-1.87-2A2.52,2.52,0,0,0,98.43,272.4Z"/><path class="b765bd75-83bb-49b0-b357-46cf6fa757ad" d="M105.8,277.09V265.63l1-.22v11.68Z"/><path class="b765bd75-83bb-49b0-b357-46cf6fa757ad" d="M300.76,277.09v-4.84h-6.22v4.84h-1.09V266.47h1.09v4.79h6.22v-4.79h1.09v10.62Z"/><path class="b765bd75-83bb-49b0-b357-46cf6fa757ad" d="M311.5,273.18a4.14,4.14,0,0,1-1.08,3,3.65,3.65,0,0,1-2.74,1.15,3.49,3.49,0,0,1-2.7-1.12,4.65,4.65,0,0,1,0-6,3.62,3.62,0,0,1,2.74-1.14,3.53,3.53,0,0,1,2.7,1.13A4.18,4.18,0,0,1,311.5,273.18Zm-1,0c0-1.92-1.09-3.17-2.76-3.17s-2.73,1.27-2.73,3.14,1.09,3.18,2.75,3.18S310.47,275.08,310.47,273.21Z"/><path class="b765bd75-83bb-49b0-b357-46cf6fa757ad" d="M324.24,277.09h-1.06v-5c0-1.33-.54-2-1.65-2a3.27,3.27,0,0,0-2.19,1,5.11,5.11,0,0,1,0,.7v5.3h-1.06v-5c0-1.33-.54-2-1.65-2a3.22,3.22,0,0,0-2.16.9v6.1h-1.05V269.3l1.05-.22v1.07a3.65,3.65,0,0,1,2.47-1.07,2.09,2.09,0,0,1,2.11,1.3,3.84,3.84,0,0,1,2.75-1.3c1.5,0,2.4,1,2.4,2.69Z"/><path class="b765bd75-83bb-49b0-b357-46cf6fa757ad" d="M327.2,273.23v.09c.05,1.78,1.1,3,2.72,3a4.15,4.15,0,0,0,2.26-.65l.2,1a4.66,4.66,0,0,1-2.5.66,3.73,3.73,0,0,1-3.76-4,4.34,4.34,0,0,1,1.06-3,3.33,3.33,0,0,1,2.62-1.18,2.68,2.68,0,0,1,2.84,2.88,4.37,4.37,0,0,1-.17,1.24Zm.06-.83,4.32,0a1.34,1.34,0,0,0,0-.34,1.78,1.78,0,0,0-1.87-2A2.52,2.52,0,0,0,327.26,272.4Z"/><path class="b765bd75-83bb-49b0-b357-46cf6fa757ad" d="M335.68,270.09a3.26,3.26,0,0,1,2.26-1c2.09,0,3.48,1.64,3.48,4a4.19,4.19,0,0,1-1.07,3,3.63,3.63,0,0,1-2.77,1.17,4.44,4.44,0,0,1-1.9-.41v4.15h-1.06V269.27l1.06-.22Zm0,.88v4.78a3.07,3.07,0,0,0,1.95.61c1.64,0,2.71-1.31,2.71-3.18s-1-3.08-2.57-3.08A3,3,0,0,0,335.68,271Z"/><path class="b765bd75-83bb-49b0-b357-46cf6fa757ad" d="M347.51,276.16h-.05a2.86,2.86,0,0,1-2.28,1.15,2.24,2.24,0,0,1-2.46-2.16c0-1.66,1.58-2.58,4.72-2.77v-.46a1.62,1.62,0,0,0-1.83-1.85,4.7,4.7,0,0,0-2.55.94l-.24-1a5.43,5.43,0,0,1,2.89-.94,2.46,2.46,0,0,1,2.79,2.79v3.74c0,.61.13.8.78.78l-.07.87C348.21,277.33,347.63,277,347.51,276.16Zm-.07-.79V273.1c-2.62.28-3.62.86-3.62,1.93a1.42,1.42,0,0,0,1.6,1.36A2.63,2.63,0,0,0,347.44,275.37Z"/><path class="b765bd75-83bb-49b0-b357-46cf6fa757ad" d="M351.44,277.11c-.7-.26-1.06-.67-1.06-1.24a1.71,1.71,0,0,1,1.28-1.48A2.61,2.61,0,0,1,350.4,272a2.88,2.88,0,0,1,3.06-2.93,3.78,3.78,0,0,1,1.84.46l2.15-.17.06,1.06-1.72-.17a2.69,2.69,0,0,1,.63,1.75,2.85,2.85,0,0,1-3,2.85,3.19,3.19,0,0,1-1.15-.22c-.58.24-.87.55-.87.94s.44.8,1.77.8h1c2.16,0,3.23.68,3.23,2a2.44,2.44,0,0,1-1.21,2.07,5,5,0,0,1-2.89.82c-2.09,0-3.52-.92-3.52-2.28A2.07,2.07,0,0,1,351.44,277.11Zm.92.2c-.94.26-1.58.87-1.58,1.53,0,.94,1,1.6,2.65,1.6s2.92-.78,2.92-1.84c0-.88-.75-1.24-2.36-1.24C353.34,277.36,352.8,277.34,352.36,277.31Zm-.92-5.29a1.89,1.89,0,0,0,2,2,1.78,1.78,0,0,0,1.41-.57,2,2,0,0,0,.53-1.47,2.11,2.11,0,0,0-.51-1.46,2,2,0,0,0-1.48-.56A1.9,1.9,0,0,0,351.44,272Z"/><path class="b765bd75-83bb-49b0-b357-46cf6fa757ad" d="M359.36,273.23v.09c.05,1.78,1.1,3,2.72,3a4.12,4.12,0,0,0,2.26-.65l.2,1a4.63,4.63,0,0,1-2.49.66,3.72,3.72,0,0,1-3.76-4,4.38,4.38,0,0,1,1-3,3.35,3.35,0,0,1,2.62-1.18A2.68,2.68,0,0,1,364.8,272a4,4,0,0,1-.17,1.24Zm.07-.83,4.31,0a1.34,1.34,0,0,0,0-.34,1.78,1.78,0,0,0-1.87-2A2.51,2.51,0,0,0,359.43,272.4Z"/><path class="b765bd75-83bb-49b0-b357-46cf6fa757ad" d="M378.65,267.11l-.34,1a5.4,5.4,0,0,0-2.95-.85c-2.4,0-4,1.68-4,4.54s1.58,4.56,4,4.56a4.87,4.87,0,0,0,3-1l.2,1.07a5.72,5.72,0,0,1-3.2.87,4.86,4.86,0,0,1-3.72-1.49,5.68,5.68,0,0,1-1.41-4,5.61,5.61,0,0,1,1.45-4,4.85,4.85,0,0,1,3.68-1.51A6.15,6.15,0,0,1,378.65,267.11Z"/><path class="b765bd75-83bb-49b0-b357-46cf6fa757ad" d="M387.44,273.18a4.14,4.14,0,0,1-1.08,3,3.66,3.66,0,0,1-2.74,1.15,3.49,3.49,0,0,1-2.7-1.12,4.65,4.65,0,0,1,.05-6,3.61,3.61,0,0,1,2.73-1.14,3.54,3.54,0,0,1,2.71,1.13A4.18,4.18,0,0,1,387.44,273.18Zm-1,0c0-1.92-1.09-3.17-2.76-3.17s-2.73,1.27-2.73,3.14,1.08,3.18,2.75,3.18S386.41,275.08,386.41,273.21Z"/><path class="b765bd75-83bb-49b0-b357-46cf6fa757ad" d="M395.59,277.09h-1.06v-5c0-1.36-.53-2-1.71-2a3.33,3.33,0,0,0-2.37,1.1v5.9H389.4V269.3l1.05-.22v1.28a3.77,3.77,0,0,1,2.65-1.28,2.35,2.35,0,0,1,2.49,2.67Z"/><path class="b765bd75-83bb-49b0-b357-46cf6fa757ad" d="M401.86,276.94a4.08,4.08,0,0,1-1.74.4c-1.44,0-2.14-.81-2.09-2.44l.12-4.61-1.19-.07.05-.66,1.18-.27.05-1.77h1l-.05,1.82h2.6l-.05.93h-2.58l-.12,4.66c0,1,.34,1.46,1.14,1.46a3.85,3.85,0,0,0,1.49-.37Z"/><path class="b765bd75-83bb-49b0-b357-46cf6fa757ad" d="M404.05,273.23v.09c.05,1.78,1.11,3,2.72,3a4.12,4.12,0,0,0,2.26-.65l.21,1a4.69,4.69,0,0,1-2.5.66,3.72,3.72,0,0,1-3.76-4,4.38,4.38,0,0,1,1-3,3.35,3.35,0,0,1,2.62-1.18,2.67,2.67,0,0,1,2.84,2.88,4,4,0,0,1-.17,1.24Zm.07-.83,4.32,0a2.66,2.66,0,0,0,0-.34,1.78,1.78,0,0,0-1.87-2A2.51,2.51,0,0,0,404.12,272.4Z"/><path class="b765bd75-83bb-49b0-b357-46cf6fa757ad" d="M417.67,277.09h-1.05v-5c0-1.36-.53-2-1.72-2a3.37,3.37,0,0,0-2.37,1.1v5.9h-1V269.3l1-.22v1.28a3.79,3.79,0,0,1,2.66-1.28,2.35,2.35,0,0,1,2.48,2.67Z"/><path class="b765bd75-83bb-49b0-b357-46cf6fa757ad" d="M423.94,276.94a4,4,0,0,1-1.73.4c-1.45,0-2.14-.81-2.09-2.44l.12-4.61-1.19-.07.05-.66,1.17-.27.05-1.77h1l-.05,1.82h2.6l-.05.93h-2.58l-.12,4.66c0,1,.34,1.46,1.14,1.46a3.81,3.81,0,0,0,1.49-.37Z"/><rect class="b27b6480-27d6-4179-ac13-648975c83e2a" x="664.63" y="29.49" width="178" height="50" rx="9"/><path class="b765bd75-83bb-49b0-b357-46cf6fa757ad" d="M677.31,34H830c4.74,0,8.59,3.31,8.59,7.4V67.64c0,4.09-3.85,7.4-8.59,7.4H677.31c-4.74,0-8.59-3.31-8.59-7.4V41.35C668.72,37.26,672.57,34,677.31,34Z"/><path class="ba894c68-1ea9-45f7-9e46-215780c5839a" d="M703.33,56.08v4.25h-1.09V49.71h2.86c2.56,0,3.85,1.14,3.85,3.06a3.08,3.08,0,0,1-2.46,3l2.94,4.57h-1.26L705.45,56Zm0-1,1.9-.07c1.5,0,2.64-.89,2.64-2.23s-1-2.12-2.89-2.12h-1.65Z"/><path class="ba894c68-1ea9-45f7-9e46-215780c5839a" d="M718,56.42a4.13,4.13,0,0,1-1.09,3,3.63,3.63,0,0,1-2.74,1.15,3.52,3.52,0,0,1-2.7-1.12,4.67,4.67,0,0,1,0-6,3.59,3.59,0,0,1,2.74-1.14,3.52,3.52,0,0,1,2.7,1.12A4.16,4.16,0,0,1,718,56.42Zm-1,0c0-1.92-1.09-3.18-2.75-3.18s-2.74,1.27-2.74,3.14,1.09,3.18,2.75,3.18S717,58.33,717,56.46Z"/><path class="ba894c68-1ea9-45f7-9e46-215780c5839a" d="M724,48.84l-.05.24c0,.17-.09.32-.14.48l-.07.24a2.69,2.69,0,0,0-1.19-.33c-.86,0-1.29.61-1.29,1.82v1.29h2.45l0,.94h-2.4v6.81h-1V53.55l-1.25-.08.06-.67,1.18-.27V51.31c0-1.87.82-2.81,2.35-2.81A3.4,3.4,0,0,1,724,48.84Z"/><path class="ba894c68-1ea9-45f7-9e46-215780c5839a" d="M729.18,48.84l0,.24c0,.17-.08.32-.13.48l-.07.24a2.69,2.69,0,0,0-1.19-.33c-.87,0-1.29.61-1.29,1.82v1.29h2.44l0,.94h-2.39v6.81h-1V53.55l-1.26-.08.07-.67,1.17-.27,0-1.22c0-1.87.82-2.81,2.35-2.81A3.36,3.36,0,0,1,729.18,48.84Z"/><path class="ba894c68-1ea9-45f7-9e46-215780c5839a" d="M741.57,60.33V55.49h-6.22v4.84h-1.08V49.71h1.08V54.5h6.22V49.71h1.09V60.33Z"/><path class="ba894c68-1ea9-45f7-9e46-215780c5839a" d="M752.32,56.42a4.13,4.13,0,0,1-1.09,3,3.63,3.63,0,0,1-2.74,1.15,3.52,3.52,0,0,1-2.7-1.12,4.19,4.19,0,0,1-1-3,4.14,4.14,0,0,1,1.1-3,3.59,3.59,0,0,1,2.74-1.14,3.51,3.51,0,0,1,2.7,1.12A4.16,4.16,0,0,1,752.32,56.42Zm-1,0c0-1.92-1.09-3.18-2.75-3.18s-2.74,1.27-2.74,3.14,1.09,3.18,2.76,3.18S751.28,58.33,751.28,56.46Z"/><path class="ba894c68-1ea9-45f7-9e46-215780c5839a" d="M765.05,60.33h-1v-5c0-1.33-.55-2-1.65-2a3.23,3.23,0,0,0-2.19,1c0,.14,0,.38,0,.7v5.3h-1.05v-5c0-1.33-.55-2-1.65-2a3.25,3.25,0,0,0-2.16.9v6.1h-1.06V52.55l1.06-.22V53.4a3.58,3.58,0,0,1,2.46-1.07,2.07,2.07,0,0,1,2.11,1.29,3.87,3.87,0,0,1,2.76-1.29c1.49,0,2.39,1,2.39,2.68Z"/><path class="ba894c68-1ea9-45f7-9e46-215780c5839a" d="M768,56.48v.08c0,1.78,1.11,3,2.72,3a4,4,0,0,0,2.26-.65l.21,1a4.69,4.69,0,0,1-2.5.66,3.72,3.72,0,0,1-3.76-4,4.39,4.39,0,0,1,1-3,3.37,3.37,0,0,1,2.62-1.17,2.67,2.67,0,0,1,2.84,2.87,4,4,0,0,1-.17,1.24Zm.07-.84h4.32a2.75,2.75,0,0,0,0-.34,1.78,1.78,0,0,0-1.87-2A2.51,2.51,0,0,0,768.08,55.64Z"/><path class="ba894c68-1ea9-45f7-9e46-215780c5839a" d="M776.49,53.33a3.25,3.25,0,0,1,2.26-.95c2.09,0,3.49,1.63,3.49,4a4.21,4.21,0,0,1-1.07,3,3.63,3.63,0,0,1-2.77,1.17,4.45,4.45,0,0,1-1.91-.4V64.3h-1V52.51l1-.22Zm0,.89V59a3.1,3.1,0,0,0,2,.61c1.63,0,2.7-1.31,2.7-3.18s-1-3.07-2.57-3.07A3,3,0,0,0,776.49,54.22Z"/><path class="ba894c68-1ea9-45f7-9e46-215780c5839a" d="M788.32,59.4h-.05A2.83,2.83,0,0,1,786,60.55a2.25,2.25,0,0,1-2.47-2.15q0-2.51,4.73-2.77v-.46a1.63,1.63,0,0,0-1.84-1.86,4.76,4.76,0,0,0-2.55.94l-.24-1a5.54,5.54,0,0,1,2.89-.93,2.45,2.45,0,0,1,2.79,2.79v3.74c0,.61.14.79.78.78l-.06.86C789,60.57,788.44,60.2,788.32,59.4Zm-.06-.78V56.34c-2.62.29-3.62.87-3.62,1.94a1.42,1.42,0,0,0,1.59,1.36A2.67,2.67,0,0,0,788.26,58.62Z"/><path class="ba894c68-1ea9-45f7-9e46-215780c5839a" d="M792.25,60.35c-.69-.25-1-.66-1-1.24a1.71,1.71,0,0,1,1.27-1.48,2.61,2.61,0,0,1-1.25-2.38,2.87,2.87,0,0,1,3.06-2.92,3.63,3.63,0,0,1,1.83.46l2.16-.17.05,1.05-1.72-.17a2.73,2.73,0,0,1,.63,1.75,2.84,2.84,0,0,1-3,2.86,3.47,3.47,0,0,1-1.16-.22q-.87.34-.87.93c0,.53.45.8,1.77.8h1c2.16,0,3.23.68,3.23,2a2.43,2.43,0,0,1-1.2,2.07,5,5,0,0,1-2.89.82c-2.09,0-3.52-.92-3.52-2.28A2.08,2.08,0,0,1,792.25,60.35Zm.92.2c-.93.26-1.58.87-1.58,1.54,0,.93,1,1.59,2.65,1.59s2.92-.78,2.92-1.83c0-.89-.74-1.24-2.36-1.24C794.16,60.61,793.61,60.59,793.17,60.55Zm-.92-5.28a1.9,1.9,0,0,0,2,2,1.81,1.81,0,0,0,1.41-.58,2,2,0,0,0,.53-1.46,2.08,2.08,0,0,0-.51-1.46,1.94,1.94,0,0,0-1.48-.57A1.91,1.91,0,0,0,792.25,55.27Z"/><path class="ba894c68-1ea9-45f7-9e46-215780c5839a" d="M800.17,56.48v.08c.06,1.78,1.11,3,2.72,3a4.1,4.1,0,0,0,2.27-.65l.2,1a4.69,4.69,0,0,1-2.5.66,3.72,3.72,0,0,1-3.76-4,4.35,4.35,0,0,1,1.06-3,3.34,3.34,0,0,1,2.62-1.17,2.66,2.66,0,0,1,2.83,2.87,4,4,0,0,1-.17,1.24Zm.07-.84h4.32a1.39,1.39,0,0,0,0-.34,1.79,1.79,0,0,0-1.87-2A2.51,2.51,0,0,0,800.24,55.64Z"/><rect class="b27b6480-27d6-4179-ac13-648975c83e2a" x="45.93" y="131.05" width="178" height="50" rx="9"/><path class="b765bd75-83bb-49b0-b357-46cf6fa757ad" d="M112.66,154.58c0,2.29-1.58,3.5-4.28,3.55l-1.45,0v3.74h-1.08V151.26h2.66C111.25,151.26,112.66,152.55,112.66,154.58Zm-1.12,0c0-1.53-1.07-2.36-3.06-2.36h-1.55v4.87l1.52,0C110.5,157.08,111.54,156.24,111.54,154.63Z"/><path class="b765bd75-83bb-49b0-b357-46cf6fa757ad" d="M115.59,156.89v5h-1.06V154.1l1.06-.22v1.67a2.55,2.55,0,0,1,2.29-1.67,2.69,2.69,0,0,1,1.36.36l-.27,1a2.31,2.31,0,0,0-1.19-.34Q116.48,154.88,115.59,156.89Z"/><path class="b765bd75-83bb-49b0-b357-46cf6fa757ad" d="M127.49,158a4.11,4.11,0,0,1-1.09,3,3.6,3.6,0,0,1-2.74,1.16A3.56,3.56,0,0,1,121,161a4.68,4.68,0,0,1,.05-6,3.62,3.62,0,0,1,2.74-1.14,3.56,3.56,0,0,1,2.7,1.12A4.18,4.18,0,0,1,127.49,158Zm-1,0c0-1.92-1.09-3.18-2.75-3.18S121,156.11,121,158s1.09,3.18,2.75,3.18S126.45,159.88,126.45,158Z"/><path class="b765bd75-83bb-49b0-b357-46cf6fa757ad" d="M134.68,154.36v-3.93l1-.22v11.68h-1v-.73a3.25,3.25,0,0,1-2.26,1c-2.1,0-3.49-1.65-3.49-4.05a4.17,4.17,0,0,1,1.09-3,3.65,3.65,0,0,1,2.77-1.16A4.35,4.35,0,0,1,134.68,154.36Zm0,1.12a3.12,3.12,0,0,0-1.94-.6c-1.67,0-2.72,1.29-2.72,3.17s1,3.09,2.58,3.09a3,3,0,0,0,2.08-.87v-4.79Z"/><path class="b765bd75-83bb-49b0-b357-46cf6fa757ad" d="M138.11,154.1h1.06v5c0,1.31.56,2,1.68,2a3.27,3.27,0,0,0,2.39-1.1v-5.9h1.06v7.79l-1.06.22v-1.26a3.71,3.71,0,0,1-2.68,1.26,2.36,2.36,0,0,1-2.45-2.67Z"/><path class="b765bd75-83bb-49b0-b357-46cf6fa757ad" d="M152.46,161.44a4.39,4.39,0,0,1-2.41.67c-2.33,0-3.81-1.63-3.81-4.1a4.12,4.12,0,0,1,1.09-3,3.57,3.57,0,0,1,2.73-1.16,4.4,4.4,0,0,1,2.43.66l-.27,1a3.75,3.75,0,0,0-2.16-.63c-1.68,0-2.73,1.24-2.73,3.11s1.08,3.14,2.75,3.14a4,4,0,0,0,2.16-.64Z"/><path class="b765bd75-83bb-49b0-b357-46cf6fa757ad" d="M158.29,161.73a4,4,0,0,1-1.73.41c-1.45,0-2.15-.81-2.09-2.45l.11-4.6L153.4,155l0-.66,1.17-.27,0-1.77h1l0,1.82h2.6l-.05.93h-2.58l-.12,4.66c0,1,.34,1.46,1.14,1.46a3.81,3.81,0,0,0,1.49-.37Z"/><path class="b765bd75-83bb-49b0-b357-46cf6fa757ad" d="M164.68,159.76c0,1.41-1.19,2.35-2.79,2.35a4.74,4.74,0,0,1-2.55-.7l.29-1a4.06,4.06,0,0,0,2.3.72c1,0,1.75-.5,1.75-1.31a1,1,0,0,0-.12-.5,1.52,1.52,0,0,0-.27-.35,2.09,2.09,0,0,0-.48-.28,4.62,4.62,0,0,0-.49-.2l-.6-.19c-1.35-.4-2.26-1-2.26-2.21,0-1.39,1.11-2.24,2.64-2.24a5,5,0,0,1,2.36.58l-.3.95a4.35,4.35,0,0,0-2.13-.58c-.95,0-1.56.44-1.56,1.19a.79.79,0,0,0,.12.46,1.43,1.43,0,0,0,.25.34,1.26,1.26,0,0,0,.46.27l.49.21c.12,0,.33.1.6.18C163.8,157.89,164.68,158.47,164.68,159.76Z"/><rect class="b27b6480-27d6-4179-ac13-648975c83e2a" x="249.55" y="131.05" width="178" height="50" rx="9"/><path class="b765bd75-83bb-49b0-b357-46cf6fa757ad" d="M285.86,156.5c0,3.36-2.09,5.39-5.71,5.39h-2.81V151.26h2.89a5.79,5.79,0,0,1,4.11,1.43A5,5,0,0,1,285.86,156.5Zm-1.09.08c0-2.7-1.68-4.31-4.61-4.31h-1.73v8.61h1.77C283,160.88,284.77,159.42,284.77,156.58Z"/><path class="b765bd75-83bb-49b0-b357-46cf6fa757ad" d="M289.14,151.54a.83.83,0,0,1-.19.54.69.69,0,0,1-1.05,0,.85.85,0,0,1,0-1.07.6.6,0,0,1,.52-.22.61.61,0,0,1,.53.22A.82.82,0,0,1,289.14,151.54ZM289,161.89H287.9V154.1l1.05-.22Z"/><path class="b765bd75-83bb-49b0-b357-46cf6fa757ad" d="M296.11,159.76c0,1.41-1.19,2.35-2.79,2.35a4.69,4.69,0,0,1-2.55-.7l.29-1a4,4,0,0,0,2.29.72c1,0,1.75-.5,1.75-1.31a1,1,0,0,0-.11-.5,1.53,1.53,0,0,0-.28-.35,1.78,1.78,0,0,0-.47-.28,3.88,3.88,0,0,0-.5-.2l-.59-.19c-1.36-.4-2.26-1-2.26-2.21,0-1.39,1.1-2.24,2.63-2.24a5,5,0,0,1,2.37.58l-.31.95a4.32,4.32,0,0,0-2.12-.58c-1,0-1.57.44-1.57,1.19a.88.88,0,0,0,.12.46,1.43,1.43,0,0,0,.26.34,1.12,1.12,0,0,0,.45.27l.5.21c.12,0,.32.1.59.18C295.22,157.89,296.11,158.47,296.11,159.76Z"/><path class="b765bd75-83bb-49b0-b357-46cf6fa757ad" d="M303.72,161.44a4.39,4.39,0,0,1-2.41.67c-2.33,0-3.81-1.63-3.81-4.1a4.12,4.12,0,0,1,1.09-3,3.57,3.57,0,0,1,2.74-1.16,4.45,4.45,0,0,1,2.43.66l-.27,1a3.75,3.75,0,0,0-2.16-.63c-1.69,0-2.74,1.24-2.74,3.11s1.09,3.14,2.75,3.14a3.93,3.93,0,0,0,2.16-.64Z"/><path class="b765bd75-83bb-49b0-b357-46cf6fa757ad" d="M312.66,158a4.1,4.1,0,0,1-1.08,3,3.6,3.6,0,0,1-2.74,1.16,3.54,3.54,0,0,1-2.7-1.12,4.65,4.65,0,0,1,.05-6,3.62,3.62,0,0,1,2.74-1.14,3.56,3.56,0,0,1,2.7,1.12A4.22,4.22,0,0,1,312.66,158Zm-1,0c0-1.92-1.09-3.18-2.76-3.18s-2.73,1.28-2.73,3.15,1.09,3.18,2.75,3.18S311.63,159.88,311.63,158Z"/><path class="b765bd75-83bb-49b0-b357-46cf6fa757ad" d="M317.39,161.9h-.95l-3.08-7.8h1.14l2.47,6.43,2.38-6.43h1.1Z"/><path class="b765bd75-83bb-49b0-b357-46cf6fa757ad" d="M322.22,158v.08c0,1.79,1.1,3,2.72,3a4.12,4.12,0,0,0,2.26-.64l.2,1a4.55,4.55,0,0,1-2.49.67,3.73,3.73,0,0,1-3.76-4.05,4.41,4.41,0,0,1,1.05-3,3.37,3.37,0,0,1,2.62-1.17,2.67,2.67,0,0,1,2.84,2.87,4,4,0,0,1-.17,1.24Zm.07-.83,4.31,0a1.34,1.34,0,0,0,0-.34,1.78,1.78,0,0,0-1.87-2A2.51,2.51,0,0,0,322.29,157.2Z"/><path class="b765bd75-83bb-49b0-b357-46cf6fa757ad" d="M330.7,156.89v5h-1.05V154.1l1.05-.22v1.67a2.56,2.56,0,0,1,2.3-1.67,2.71,2.71,0,0,1,1.36.36l-.28,1a2.27,2.27,0,0,0-1.18-.34C332,154.88,331.3,155.55,330.7,156.89Z"/><path class="b765bd75-83bb-49b0-b357-46cf6fa757ad" d="M342.41,161.14c1.48,0,2.52-.87,2.52-2s-.81-1.68-2.69-2.22c-.44-.14-.81-.28-1.12-.41a4.92,4.92,0,0,1-1-.53,2.24,2.24,0,0,1-.74-.85,2.61,2.61,0,0,1-.26-1.19c0-1.68,1.41-2.89,3.4-2.89a5.86,5.86,0,0,1,3.2.92l-.39.95a4.85,4.85,0,0,0-2.79-.88c-1.53,0-2.37.76-2.37,1.82s.8,1.53,2.69,2.12a12,12,0,0,1,1.14.41,6.91,6.91,0,0,1,1,.56,2.38,2.38,0,0,1,.73.88,3.17,3.17,0,0,1,.24,1.23c0,1.78-1.46,3.06-3.59,3.06a6.17,6.17,0,0,1-3.42-1l.4-1A5.23,5.23,0,0,0,342.41,161.14Z"/><path class="b765bd75-83bb-49b0-b357-46cf6fa757ad" d="M355,158a4.11,4.11,0,0,1-1.09,3,3.6,3.6,0,0,1-2.74,1.16,3.56,3.56,0,0,1-2.7-1.12,4.68,4.68,0,0,1,.05-6,3.62,3.62,0,0,1,2.74-1.14,3.56,3.56,0,0,1,2.7,1.12A4.18,4.18,0,0,1,355,158Zm-1,0c0-1.92-1.09-3.18-2.75-3.18s-2.74,1.28-2.74,3.15,1.09,3.18,2.75,3.18S353.94,159.88,353.94,158Z"/><path class="b765bd75-83bb-49b0-b357-46cf6fa757ad" d="M356.93,161.89V150.43l1.06-.22v11.68Z"/><path class="b765bd75-83bb-49b0-b357-46cf6fa757ad" d="M360.37,154.1h1.05v5c0,1.31.56,2,1.68,2a3.28,3.28,0,0,0,2.4-1.1v-5.9h1.05v7.79l-1.05.22v-1.26a3.75,3.75,0,0,1-2.69,1.26,2.35,2.35,0,0,1-2.44-2.67Z"/><path class="b765bd75-83bb-49b0-b357-46cf6fa757ad" d="M372.88,161.73a4,4,0,0,1-1.74.41c-1.44,0-2.14-.81-2.09-2.45l.12-4.6L368,155l0-.66,1.18-.27.05-1.77h1l-.05,1.82h2.6l-.05.93h-2.58l-.12,4.66c0,1,.34,1.46,1.14,1.46a3.85,3.85,0,0,0,1.49-.37Z"/><path class="b765bd75-83bb-49b0-b357-46cf6fa757ad" d="M375.85,151.54a.82.82,0,0,1-.18.54.71.71,0,0,1-1.06,0,.82.82,0,0,1-.18-.54.81.81,0,0,1,.18-.53.75.75,0,0,1,1.06,0A.81.81,0,0,1,375.85,151.54Zm-.18,10.35h-1.06V154.1l1.06-.22Z"/><path class="b765bd75-83bb-49b0-b357-46cf6fa757ad" d="M385.22,158a4.11,4.11,0,0,1-1.09,3,3.82,3.82,0,0,1-5.44,0,4.23,4.23,0,0,1-1.05-3,4.16,4.16,0,0,1,1.1-3,3.62,3.62,0,0,1,2.74-1.14,3.54,3.54,0,0,1,2.7,1.12A4.18,4.18,0,0,1,385.22,158Zm-1,0c0-1.92-1.09-3.18-2.75-3.18s-2.74,1.28-2.74,3.15,1.09,3.18,2.76,3.18S384.18,159.88,384.18,158Z"/><path class="b765bd75-83bb-49b0-b357-46cf6fa757ad" d="M393.36,161.89h-1.05v-5c0-1.36-.53-2-1.72-2a3.34,3.34,0,0,0-2.36,1.11v5.9h-1.06V154.1l1.06-.22v1.28a3.76,3.76,0,0,1,2.65-1.28,2.35,2.35,0,0,1,2.48,2.67Z"/><path class="b765bd75-83bb-49b0-b357-46cf6fa757ad" d="M400.43,159.76c0,1.41-1.19,2.35-2.78,2.35a4.69,4.69,0,0,1-2.55-.7l.29-1a4,4,0,0,0,2.29.72c1,0,1.75-.5,1.75-1.31a1,1,0,0,0-.12-.5A1.29,1.29,0,0,0,399,159a1.71,1.71,0,0,0-.48-.28,4.62,4.62,0,0,0-.49-.2l-.59-.19c-1.36-.4-2.26-1-2.26-2.21,0-1.39,1.1-2.24,2.63-2.24a5,5,0,0,1,2.36.58l-.3.95a4.33,4.33,0,0,0-2.13-.58c-.95,0-1.56.44-1.56,1.19a.79.79,0,0,0,.12.46,1.43,1.43,0,0,0,.25.34,1.26,1.26,0,0,0,.46.27l.49.21c.12,0,.33.1.6.18C399.55,157.89,400.43,158.47,400.43,159.76Z"/><rect class="b27b6480-27d6-4179-ac13-648975c83e2a" x="453.17" y="131.05" width="178" height="50" rx="9"/><path class="b765bd75-83bb-49b0-b357-46cf6fa757ad" d="M529.45,152.28v9.61h-1.08v-9.61h-3.74v-1h8.56v1Z"/><path class="b765bd75-83bb-49b0-b357-46cf6fa757ad" d="M540.27,158a4.11,4.11,0,0,1-1.09,3,3.6,3.6,0,0,1-2.74,1.16,3.56,3.56,0,0,1-2.7-1.12,4.65,4.65,0,0,1,0-6,3.62,3.62,0,0,1,2.74-1.14,3.56,3.56,0,0,1,2.7,1.12A4.18,4.18,0,0,1,540.27,158Zm-1,0c0-1.92-1.09-3.18-2.75-3.18s-2.74,1.28-2.74,3.15,1.09,3.18,2.75,3.18S539.23,159.88,539.23,158Z"/><path class="b765bd75-83bb-49b0-b357-46cf6fa757ad" d="M549.29,158a4.06,4.06,0,0,1-1.09,3,3.82,3.82,0,0,1-5.44,0,4.23,4.23,0,0,1-1-3,4.13,4.13,0,0,1,1.11-3,3.61,3.61,0,0,1,2.73-1.14,3.53,3.53,0,0,1,2.7,1.12A4.18,4.18,0,0,1,549.29,158Zm-1,0c0-1.92-1.08-3.18-2.75-3.18s-2.74,1.28-2.74,3.15,1.09,3.18,2.76,3.18S548.25,159.88,548.25,158Z"/><path class="b765bd75-83bb-49b0-b357-46cf6fa757ad" d="M551.25,161.89V150.43l1-.22v11.68Z"/><path class="b765bd75-83bb-49b0-b357-46cf6fa757ad" d="M559.42,159.76c0,1.41-1.19,2.35-2.78,2.35a4.69,4.69,0,0,1-2.55-.7l.28-1a4.06,4.06,0,0,0,2.3.72c1,0,1.75-.5,1.75-1.31a1,1,0,0,0-.12-.5A1.29,1.29,0,0,0,558,159a1.71,1.71,0,0,0-.48-.28,4.62,4.62,0,0,0-.49-.2l-.59-.19c-1.36-.4-2.27-1-2.27-2.21,0-1.39,1.11-2.24,2.64-2.24a5,5,0,0,1,2.36.58l-.3.95a4.33,4.33,0,0,0-2.13-.58c-.95,0-1.56.44-1.56,1.19a.79.79,0,0,0,.12.46,1.43,1.43,0,0,0,.25.34,1.26,1.26,0,0,0,.46.27l.49.21c.12,0,.33.1.6.18C558.54,157.89,559.42,158.47,559.42,159.76Z"/><rect class="b27b6480-27d6-4179-ac13-648975c83e2a" x="656.79" y="131.05" width="178" height="50" rx="9"/><path class="b765bd75-83bb-49b0-b357-46cf6fa757ad" d="M724,161.89h-1.1l-1.12-3H717l-1.12,3h-1.11l4-10.63h1.27Zm-4.62-9.56-2,5.53h4.06Z"/><path class="b765bd75-83bb-49b0-b357-46cf6fa757ad" d="M732.3,157.89a4.34,4.34,0,0,1-1.07,3,3.57,3.57,0,0,1-2.77,1.19,4.36,4.36,0,0,1-1.9-.43l-1.06.46V150.43l1.06-.22v4.71a3.32,3.32,0,0,1,2.34-1C731,153.93,732.3,155.55,732.3,157.89Zm-1.08.05c0-1.8-1-3-2.52-3a3.07,3.07,0,0,0-2.14.87v4.77a3.05,3.05,0,0,0,2,.62C730.18,161.16,731.22,159.86,731.22,157.94Z"/><path class="b765bd75-83bb-49b0-b357-46cf6fa757ad" d="M741.26,158a4.06,4.06,0,0,1-1.09,3,3.82,3.82,0,0,1-5.44,0,4.23,4.23,0,0,1-1.05-3,4.16,4.16,0,0,1,1.1-3,3.65,3.65,0,0,1,2.74-1.14,3.53,3.53,0,0,1,2.7,1.12A4.18,4.18,0,0,1,741.26,158Zm-1,0c0-1.92-1.08-3.18-2.75-3.18s-2.74,1.28-2.74,3.15,1.09,3.18,2.76,3.18S740.22,159.88,740.22,158Z"/><path class="b765bd75-83bb-49b0-b357-46cf6fa757ad" d="M743.15,154.1h1.05v5c0,1.31.56,2,1.69,2a3.27,3.27,0,0,0,2.39-1.1v-5.9h1.06v7.79l-1.06.22v-1.26a3.71,3.71,0,0,1-2.68,1.26,2.36,2.36,0,0,1-2.45-2.67Z"/><path class="b765bd75-83bb-49b0-b357-46cf6fa757ad" d="M755.66,161.73a4,4,0,0,1-1.73.41c-1.45,0-2.15-.81-2.09-2.45l.11-4.6-1.18-.07.05-.66,1.17-.27,0-1.77h1l0,1.82h2.6l-.05.93H753l-.12,4.66c0,1,.34,1.46,1.14,1.46a3.81,3.81,0,0,0,1.49-.37Z"/><path class="b765bd75-83bb-49b0-b357-46cf6fa757ad" d="M769.28,157.82c0,2.69-1.41,4.29-4,4.29s-4-1.57-4-4.12v-6.73h1.05v6.6c0,2.07,1,3.24,3,3.24s2.91-1.12,2.91-3.26v-6.58h1.07Z"/><path class="b765bd75-83bb-49b0-b357-46cf6fa757ad" d="M776.4,159.76c0,1.41-1.19,2.35-2.79,2.35a4.69,4.69,0,0,1-2.55-.7l.29-1a4.06,4.06,0,0,0,2.3.72c1,0,1.75-.5,1.75-1.31a1.06,1.06,0,0,0-.12-.5A1.86,1.86,0,0,0,775,159a2.09,2.09,0,0,0-.48-.28,4.62,4.62,0,0,0-.49-.2l-.6-.19c-1.36-.4-2.26-1-2.26-2.21,0-1.39,1.11-2.24,2.64-2.24a5,5,0,0,1,2.36.58l-.31.95a4.29,4.29,0,0,0-2.12-.58c-1,0-1.57.44-1.57,1.19a.88.88,0,0,0,.12.46,1.43,1.43,0,0,0,.26.34,1.18,1.18,0,0,0,.46.27l.49.21c.12,0,.32.1.6.18C775.52,157.89,776.4,158.47,776.4,159.76Z"/><rect class="b27b6480-27d6-4179-ac13-648975c83e2a" x="290.78" y="311.94" width="178" height="50" rx="9"/><path class="b765bd75-83bb-49b0-b357-46cf6fa757ad" d="M336.81,323v9.61h-1.08V323H332v-1h8.56v1Z"/><path class="b765bd75-83bb-49b0-b357-46cf6fa757ad" d="M343.43,322.23a.83.83,0,0,1-.19.54.67.67,0,0,1-.53.24.63.63,0,0,1-.52-.24.85.85,0,0,1,0-1.07.62.62,0,0,1,.52-.22.65.65,0,0,1,.53.22A.82.82,0,0,1,343.43,322.23Zm-.19,10.35h-1.05v-7.79l1.05-.22Z"/><path class="b765bd75-83bb-49b0-b357-46cf6fa757ad" d="M345.72,332.58V321.12l1.06-.22v11.68Z"/><path class="b765bd75-83bb-49b0-b357-46cf6fa757ad" d="M349.78,328.72v.08c.06,1.79,1.11,3,2.72,3a4.18,4.18,0,0,0,2.27-.64l.2,1a4.58,4.58,0,0,1-2.5.67,3.73,3.73,0,0,1-3.76-4.05,4.37,4.37,0,0,1,1.06-3,3.34,3.34,0,0,1,2.62-1.17,2.66,2.66,0,0,1,2.83,2.87,4,4,0,0,1-.17,1.24Zm.07-.83,4.32,0a1.34,1.34,0,0,0,0-.34,1.79,1.79,0,0,0-1.87-2A2.52,2.52,0,0,0,349.85,327.89Z"/><path class="b765bd75-83bb-49b0-b357-46cf6fa757ad" d="M365.22,331.64h-.05a2.85,2.85,0,0,1-2.28,1.16,2.24,2.24,0,0,1-2.46-2.16c0-1.67,1.58-2.58,4.72-2.77v-.46a1.62,1.62,0,0,0-1.83-1.85,4.76,4.76,0,0,0-2.55.93l-.24-1a5.43,5.43,0,0,1,2.89-.94,2.46,2.46,0,0,1,2.79,2.79v3.74c0,.61.13.8.78.78l-.07.87C365.92,332.82,365.34,332.44,365.22,331.64Zm-.07-.78v-2.28c-2.62.29-3.62.87-3.62,1.94a1.42,1.42,0,0,0,1.6,1.36A2.63,2.63,0,0,0,365.15,330.86Z"/><path class="b765bd75-83bb-49b0-b357-46cf6fa757ad" d="M374.74,332.58h-1.05v-5c0-1.36-.53-2-1.72-2a3.34,3.34,0,0,0-2.36,1.11v5.9h-1.06v-7.79l1.06-.22v1.28a3.76,3.76,0,0,1,2.65-1.28,2.35,2.35,0,0,1,2.48,2.67Z"/><path class="b765bd75-83bb-49b0-b357-46cf6fa757ad" d="M382.37,325.05v-3.93l1.06-.22v11.68h-1.06v-.73a3.23,3.23,0,0,1-2.26.95c-2.09,0-3.48-1.65-3.48-4.05a4.17,4.17,0,0,1,1.09-3,3.64,3.64,0,0,1,2.77-1.16A4.34,4.34,0,0,1,382.37,325.05Zm0,1.12a3.09,3.09,0,0,0-1.93-.6c-1.67,0-2.72,1.3-2.72,3.17s1,3.09,2.58,3.09a2.94,2.94,0,0,0,2.07-.87v-4.79Z"/><path class="b765bd75-83bb-49b0-b357-46cf6fa757ad" d="M392.59,331.83c1.48,0,2.52-.87,2.52-2s-.82-1.68-2.69-2.22c-.44-.14-.81-.28-1.12-.41a4.65,4.65,0,0,1-1-.53,2.27,2.27,0,0,1-.75-.85,2.61,2.61,0,0,1-.25-1.19c0-1.68,1.41-2.89,3.4-2.89a5.8,5.8,0,0,1,3.19.92l-.39,1a4.83,4.83,0,0,0-2.79-.88c-1.53,0-2.36.76-2.36,1.82s.8,1.53,2.69,2.12c.44.14.81.27,1.14.41a6.82,6.82,0,0,1,1,.56,2.32,2.32,0,0,1,.74.88,3.17,3.17,0,0,1,.23,1.23c0,1.78-1.46,3.06-3.58,3.06a6.17,6.17,0,0,1-3.42-1l.39-1A5.28,5.28,0,0,0,392.59,331.83Z"/><path class="b765bd75-83bb-49b0-b357-46cf6fa757ad" d="M402,332.42a4,4,0,0,1-1.74.41c-1.44,0-2.14-.81-2.09-2.45l.12-4.6-1.19-.07.05-.66,1.18-.27,0-1.77h1l0,1.82h2.6l-.05.93h-2.59l-.11,4.66c0,1,.34,1.46,1.14,1.46a3.85,3.85,0,0,0,1.49-.37Z"/><path class="b765bd75-83bb-49b0-b357-46cf6fa757ad" d="M410.66,328.67a4.11,4.11,0,0,1-1.09,3,3.82,3.82,0,0,1-5.44,0,4.23,4.23,0,0,1-1.05-3,4.16,4.16,0,0,1,1.1-3,3.65,3.65,0,0,1,2.74-1.14,3.53,3.53,0,0,1,2.7,1.12A4.18,4.18,0,0,1,410.66,328.67Zm-1,0c0-1.92-1.08-3.18-2.75-3.18s-2.74,1.28-2.74,3.15,1.09,3.18,2.76,3.18S409.62,330.57,409.62,328.7Z"/><path class="b765bd75-83bb-49b0-b357-46cf6fa757ad" d="M418.8,332.58h-1.05v-5c0-1.36-.53-2-1.72-2a3.34,3.34,0,0,0-2.36,1.11v5.9h-1.05v-7.79l1.05-.22v1.28a3.76,3.76,0,0,1,2.65-1.28c1.57,0,2.48.95,2.48,2.67Z"/><path class="b765bd75-83bb-49b0-b357-46cf6fa757ad" d="M421.76,328.72v.08c.05,1.79,1.11,3,2.72,3a4.12,4.12,0,0,0,2.26-.64l.21,1a4.61,4.61,0,0,1-2.5.67,3.73,3.73,0,0,1-3.76-4.05,4.41,4.41,0,0,1,1.05-3,3.37,3.37,0,0,1,2.62-1.17,2.66,2.66,0,0,1,2.84,2.87,4,4,0,0,1-.17,1.24Zm.07-.83,4.32,0a2.66,2.66,0,0,0,0-.34,1.78,1.78,0,0,0-1.87-2A2.52,2.52,0,0,0,421.83,327.89Z"/><path class="b765bd75-83bb-49b0-b357-46cf6fa757ad" d="M328.58,342.35h6.25v1h-5.16v4H334v1h-4.28V353h-1.09Z"/><path class="b765bd75-83bb-49b0-b357-46cf6fa757ad" d="M337.84,342.63a.88.88,0,0,1-.18.54.71.71,0,0,1-1.06,0,.85.85,0,0,1,0-1.07.75.75,0,0,1,1.06,0A.87.87,0,0,1,337.84,342.63ZM337.66,353H336.6v-7.79l1.06-.22Z"/><path class="b765bd75-83bb-49b0-b357-46cf6fa757ad" d="M344.37,353l-2.11-3.28L340.17,353H339l2.69-4-2.52-3.79h1.17l1.94,3,1.91-3h1.17L342.86,349l2.68,4Z"/><path class="b765bd75-83bb-49b0-b357-46cf6fa757ad" d="M348.09,342.63a.82.82,0,0,1-.18.54.71.71,0,0,1-1.06,0,.85.85,0,0,1,0-1.07.75.75,0,0,1,1.06,0A.81.81,0,0,1,348.09,342.63ZM347.91,353h-1.06v-7.79l1.06-.22Z"/><path class="b765bd75-83bb-49b0-b357-46cf6fa757ad" d="M356.57,353h-1.05v-5c0-1.36-.53-2-1.72-2a3.34,3.34,0,0,0-2.36,1.11V353h-1.05v-7.79l1.05-.22v1.28a3.77,3.77,0,0,1,2.65-1.28c1.57,0,2.48.95,2.48,2.67Z"/><path class="b765bd75-83bb-49b0-b357-46cf6fa757ad" d="M359.57,353c-.7-.25-1.06-.66-1.06-1.24a1.73,1.73,0,0,1,1.28-1.48,2.6,2.6,0,0,1-1.26-2.38,2.87,2.87,0,0,1,3.06-2.92,3.67,3.67,0,0,1,1.84.46l2.15-.17.06,1.05-1.72-.17a2.73,2.73,0,0,1,.63,1.75,2.85,2.85,0,0,1-3,2.86,3.42,3.42,0,0,1-1.15-.22c-.58.24-.87.54-.87.93s.44.8,1.77.8h1c2.16,0,3.23.68,3.23,2a2.46,2.46,0,0,1-1.21,2.08,5,5,0,0,1-2.89.81c-2.09,0-3.52-.92-3.52-2.28A2.08,2.08,0,0,1,359.57,353Zm.92.21c-.94.25-1.58.86-1.58,1.53,0,.93,1,1.6,2.65,1.6s2.92-.79,2.92-1.84c0-.88-.75-1.24-2.36-1.24C361.47,353.25,360.93,353.23,360.49,353.2Zm-.92-5.29a1.89,1.89,0,0,0,2,2,1.78,1.78,0,0,0,1.41-.58,2,2,0,0,0,.53-1.46,2.1,2.1,0,0,0-.51-1.46,1.93,1.93,0,0,0-1.48-.56A1.9,1.9,0,0,0,359.57,347.91Z"/><path class="b765bd75-83bb-49b0-b357-46cf6fa757ad" d="M373.64,352.23c1.48,0,2.52-.87,2.52-2s-.82-1.68-2.69-2.22c-.44-.14-.81-.28-1.12-.41a4.92,4.92,0,0,1-1-.53,2.27,2.27,0,0,1-.75-.85,2.61,2.61,0,0,1-.25-1.19c0-1.68,1.41-2.89,3.4-2.89a5.86,5.86,0,0,1,3.2.92l-.4.95a4.8,4.8,0,0,0-2.78-.88c-1.53,0-2.37.76-2.37,1.82s.8,1.53,2.69,2.12a12,12,0,0,1,1.14.41,7.52,7.52,0,0,1,1,.56,2.38,2.38,0,0,1,.73.88,3.17,3.17,0,0,1,.24,1.23c0,1.78-1.47,3.06-3.59,3.06a6.17,6.17,0,0,1-3.42-1l.39-1A5.28,5.28,0,0,0,373.64,352.23Z"/><path class="b765bd75-83bb-49b0-b357-46cf6fa757ad" d="M386.21,349.07a4.11,4.11,0,0,1-1.09,3,3.6,3.6,0,0,1-2.74,1.16,3.56,3.56,0,0,1-2.7-1.12,4.65,4.65,0,0,1,.05-6,3.59,3.59,0,0,1,2.74-1.14,3.52,3.52,0,0,1,2.7,1.12A4.18,4.18,0,0,1,386.21,349.07Zm-1,0c0-1.92-1.09-3.18-2.75-3.18s-2.74,1.28-2.74,3.15,1.09,3.18,2.75,3.18S385.17,351,385.17,349.1Z"/><path class="b765bd75-83bb-49b0-b357-46cf6fa757ad" d="M388.16,353V341.52l1-.22V353Z"/><path class="b765bd75-83bb-49b0-b357-46cf6fa757ad" d="M391.6,345.19h1v5c0,1.31.56,2,1.68,2a3.3,3.3,0,0,0,2.4-1.1v-5.9h1V353l-1,.22v-1.26A3.75,3.75,0,0,1,394,353.2a2.35,2.35,0,0,1-2.44-2.67Z"/><path class="b765bd75-83bb-49b0-b357-46cf6fa757ad" d="M404.11,352.82a4,4,0,0,1-1.74.41c-1.44,0-2.14-.81-2.09-2.45l.12-4.6-1.19-.07.05-.66,1.18-.28.05-1.76h1l-.05,1.82H404l-.05.93H401.4l-.12,4.66c0,1,.35,1.46,1.14,1.46a3.85,3.85,0,0,0,1.5-.37Z"/><path class="b765bd75-83bb-49b0-b357-46cf6fa757ad" d="M407.08,342.63a.88.88,0,0,1-.18.54.71.71,0,0,1-1.06,0,.85.85,0,0,1,0-1.07.75.75,0,0,1,1.06,0A.87.87,0,0,1,407.08,342.63ZM406.9,353h-1.06v-7.79l1.06-.22Z"/><path class="b765bd75-83bb-49b0-b357-46cf6fa757ad" d="M416.45,349.07a4.11,4.11,0,0,1-1.09,3,3.6,3.6,0,0,1-2.74,1.16,3.56,3.56,0,0,1-2.7-1.12,4.68,4.68,0,0,1,.05-6,3.59,3.59,0,0,1,2.74-1.14,3.52,3.52,0,0,1,2.7,1.12A4.18,4.18,0,0,1,416.45,349.07Zm-1,0c0-1.92-1.09-3.18-2.75-3.18s-2.74,1.28-2.74,3.15,1.09,3.18,2.75,3.18S415.41,351,415.41,349.1Z"/><path class="b765bd75-83bb-49b0-b357-46cf6fa757ad" d="M424.59,353h-1v-5c0-1.36-.53-2-1.72-2a3.34,3.34,0,0,0-2.36,1.11V353H418.4v-7.79l1.06-.22v1.28a3.76,3.76,0,0,1,2.65-1.28,2.35,2.35,0,0,1,2.48,2.67Z"/><path class="b765bd75-83bb-49b0-b357-46cf6fa757ad" d="M431.66,350.85c0,1.41-1.19,2.35-2.79,2.35a4.74,4.74,0,0,1-2.55-.7l.29-1a4.06,4.06,0,0,0,2.3.72c1,0,1.75-.5,1.75-1.31a1,1,0,0,0-.12-.5,1.52,1.52,0,0,0-.27-.35,2.09,2.09,0,0,0-.48-.28,4.62,4.62,0,0,0-.49-.2l-.6-.19c-1.35-.4-2.26-1-2.26-2.21,0-1.39,1.11-2.24,2.64-2.24a5,5,0,0,1,2.36.58l-.3.95a4.33,4.33,0,0,0-2.13-.58c-.95,0-1.56.44-1.56,1.19a.79.79,0,0,0,.12.46,1.43,1.43,0,0,0,.25.34,1.26,1.26,0,0,0,.46.27l.49.21c.12.05.33.1.6.18C430.78,349,431.66,349.56,431.66,350.85Z"/><rect class="b27b6480-27d6-4179-ac13-648975c83e2a" x="54.04" y="302.73" width="178" height="50" rx="9"/><path class="b765bd75-83bb-49b0-b357-46cf6fa757ad" d="M116.28,333.57h-1l-3-10.63h1.12l2.48,9.08,2.71-9.08h1.29l2.75,9.08,2.38-9.08H126l-3,10.63h-1l-2.86-9.35Z"/><path class="b765bd75-83bb-49b0-b357-46cf6fa757ad" d="M134.15,333.57h-1.06v-5c0-1.31-.56-2-1.66-2a3.42,3.42,0,0,0-2.42,1.11v5.9h-1V322.11l1-.22v4.91a3.8,3.8,0,0,1,2.71-1.24c1.53,0,2.43.95,2.43,2.67Z"/><path class="b765bd75-83bb-49b0-b357-46cf6fa757ad" d="M142.46,325.78l-3,7.7-.63,1.69c-.68,1.85-1.4,2.44-2.52,2.44a4,4,0,0,1-1.51-.35l.32-1a2.64,2.64,0,0,0,1.19.34c.65,0,1.07-.39,1.6-1.8l.53-1.38-3-7.67h1.14l2.45,6.43,2.4-6.43Z"/><path class="b765bd75-83bb-49b0-b357-46cf6fa757ad" d="M148.85,329.32v4.25h-1.08V322.94h2.85c2.57,0,3.86,1.14,3.86,3.06a3.1,3.1,0,0,1-2.46,3l2.94,4.57H153.7L151,329.18Zm0-1,1.91-.07c1.49,0,2.63-.88,2.63-2.23s-1-2.12-2.89-2.12h-1.65Z"/><path class="b765bd75-83bb-49b0-b357-46cf6fa757ad" d="M163.52,329.66a4.1,4.1,0,0,1-1.08,3,3.62,3.62,0,0,1-2.74,1.16,3.53,3.53,0,0,1-2.7-1.12,4.65,4.65,0,0,1,.05-6,3.61,3.61,0,0,1,2.73-1.14,3.57,3.57,0,0,1,2.71,1.12A4.22,4.22,0,0,1,163.52,329.66Zm-1,0c0-1.92-1.09-3.18-2.76-3.18s-2.73,1.28-2.73,3.15,1.08,3.18,2.75,3.18S162.49,331.56,162.49,329.69Z"/><path class="b765bd75-83bb-49b0-b357-46cf6fa757ad" d="M169.47,322.08l-.05.23c0,.17-.08.33-.13.48l-.07.24a2.8,2.8,0,0,0-1.19-.32c-.87,0-1.29.61-1.29,1.81v1.3h2.45l-.06.93h-2.39v6.82h-1v-6.78l-1.26-.09.07-.66,1.17-.27,0-1.23c0-1.87.82-2.8,2.35-2.8A3.36,3.36,0,0,1,169.47,322.08Z"/><path class="b765bd75-83bb-49b0-b357-46cf6fa757ad" d="M174.71,322.08l-.05.23c0,.17-.09.33-.14.48l-.07.24a2.76,2.76,0,0,0-1.19-.32c-.86,0-1.29.61-1.29,1.81v1.3h2.45l0,.93H172v6.82h-1v-6.78l-1.26-.09.07-.66,1.17-.27,0-1.23c0-1.87.81-2.8,2.34-2.8A3.4,3.4,0,0,1,174.71,322.08Z"/><rect class="b27b6480-27d6-4179-ac13-648975c83e2a" x="54.04" y="375.43" width="178" height="50" rx="9"/><path class="b765bd75-83bb-49b0-b357-46cf6fa757ad" d="M104.23,396.67v9.6h-1.09v-9.6H99.4v-1H108v1Z"/><path class="b765bd75-83bb-49b0-b357-46cf6fa757ad" d="M110.84,395.92a.93.93,0,0,1-.18.55.73.73,0,0,1-1.06,0,.87.87,0,0,1-.19-.55.86.86,0,0,1,.19-.53.75.75,0,0,1,1.06,0A.91.91,0,0,1,110.84,395.92Zm-.18,10.35H109.6v-7.78l1.06-.22Z"/><path class="b765bd75-83bb-49b0-b357-46cf6fa757ad" d="M113.14,406.27V394.82l1-.23v11.68Z"/><path class="b765bd75-83bb-49b0-b357-46cf6fa757ad" d="M117.2,402.41v.09c0,1.78,1.1,3,2.72,3a4,4,0,0,0,2.26-.65l.2,1a4.63,4.63,0,0,1-2.49.66,3.72,3.72,0,0,1-3.76-4,4.38,4.38,0,0,1,1.05-3,3.37,3.37,0,0,1,2.62-1.17,2.67,2.67,0,0,1,2.84,2.87,4,4,0,0,1-.17,1.24Zm.07-.83,4.31,0a1.34,1.34,0,0,0,0-.34,1.78,1.78,0,0,0-1.87-2A2.5,2.5,0,0,0,117.27,401.58Z"/><path class="b765bd75-83bb-49b0-b357-46cf6fa757ad" d="M136.83,405.44a6.29,6.29,0,0,1-3.62,1.05,4.86,4.86,0,0,1-3.72-1.49,6.39,6.39,0,0,1,0-8.06,4.85,4.85,0,0,1,3.68-1.51,6.34,6.34,0,0,1,3.37.88l-.36,1a5.39,5.39,0,0,0-3-.89c-2.4,0-4,1.69-4,4.54s1.59,4.56,4,4.56a5.2,5.2,0,0,0,2.55-.65V402H132.7v-1h4.13Z"/><path class="b765bd75-83bb-49b0-b357-46cf6fa757ad" d="M140.18,401.28v5h-1.05v-7.78l1.05-.22v1.66a2.57,2.57,0,0,1,2.3-1.66,2.7,2.7,0,0,1,1.36.35l-.27,1a2.34,2.34,0,0,0-1.19-.34C141.51,399.27,140.78,399.93,140.18,401.28Z"/><path class="b765bd75-83bb-49b0-b357-46cf6fa757ad" d="M152.08,402.36a4.09,4.09,0,0,1-1.09,3,3.62,3.62,0,0,1-2.73,1.15,3.49,3.49,0,0,1-2.7-1.12,4.64,4.64,0,0,1,.05-6,3.58,3.58,0,0,1,2.73-1.14,3.53,3.53,0,0,1,2.71,1.12A4.19,4.19,0,0,1,152.08,402.36Zm-1,0c0-1.92-1.09-3.18-2.76-3.18s-2.73,1.27-2.73,3.14,1.08,3.18,2.75,3.18S151.05,404.27,151.05,402.4Z"/><path class="b765bd75-83bb-49b0-b357-46cf6fa757ad" d="M154,398.49H155v5c0,1.31.56,2,1.69,2a3.27,3.27,0,0,0,2.39-1.1v-5.9h1.06v7.78l-1.06.22v-1.25a3.7,3.7,0,0,1-2.68,1.25,2.35,2.35,0,0,1-2.45-2.67Z"/><path class="b765bd75-83bb-49b0-b357-46cf6fa757ad" d="M166.48,406.12a4.06,4.06,0,0,1-1.73.41c-1.45,0-2.14-.82-2.09-2.45l.12-4.61-1.19-.06,0-.67,1.17-.27.05-1.77h1l-.05,1.82h2.6l0,.94h-2.58l-.12,4.65c0,1,.34,1.47,1.14,1.47a3.67,3.67,0,0,0,1.49-.38Z"/><path class="b765bd75-83bb-49b0-b357-46cf6fa757ad" d="M169.46,395.92a.87.87,0,0,1-.19.55.66.66,0,0,1-.53.23.63.63,0,0,1-.52-.23.87.87,0,0,1-.19-.55.86.86,0,0,1,.19-.53.62.62,0,0,1,.52-.22.65.65,0,0,1,.53.22A.86.86,0,0,1,169.46,395.92Zm-.19,10.35h-1.05v-7.78l1.05-.22Z"/><path class="b765bd75-83bb-49b0-b357-46cf6fa757ad" d="M177.94,406.27h-1.05v-5c0-1.36-.53-2-1.72-2a3.33,3.33,0,0,0-2.36,1.1v5.9h-1.06v-7.78l1.06-.22v1.27a3.74,3.74,0,0,1,2.65-1.27,2.34,2.34,0,0,1,2.48,2.66Z"/><path class="b765bd75-83bb-49b0-b357-46cf6fa757ad" d="M180.93,406.29c-.69-.26-1.05-.66-1.05-1.24a1.71,1.71,0,0,1,1.27-1.48,2.61,2.61,0,0,1-1.25-2.38,2.87,2.87,0,0,1,3-2.92,3.64,3.64,0,0,1,1.84.46l2.16-.17.05,1.05-1.72-.17a2.71,2.71,0,0,1,.63,1.75,2.84,2.84,0,0,1-3,2.86,3.27,3.27,0,0,1-1.16-.23c-.58.24-.87.55-.87.94s.45.8,1.77.8h1c2.16,0,3.23.68,3.23,2a2.43,2.43,0,0,1-1.2,2.07,5,5,0,0,1-2.89.82c-2.09,0-3.52-.92-3.52-2.28A2.08,2.08,0,0,1,180.93,406.29Zm.92.2c-.94.26-1.58.87-1.58,1.53,0,.94,1,1.6,2.65,1.6s2.92-.78,2.92-1.83c0-.89-.74-1.24-2.36-1.24C182.84,406.55,182.29,406.53,181.85,406.49Zm-.92-5.28a1.9,1.9,0,0,0,2,2,1.81,1.81,0,0,0,1.41-.58,2,2,0,0,0,.53-1.46,2.12,2.12,0,0,0-.51-1.47,2,2,0,0,0-1.48-.56A1.9,1.9,0,0,0,180.93,401.21Z"/><rect class="b27b6480-27d6-4179-ac13-648975c83e2a" x="485.07" y="311.94" width="178" height="50" rx="9"/><path class="b765bd75-83bb-49b0-b357-46cf6fa757ad" d="M517.82,342.78V332.15h6.42v1h-5.33V337h4.45v1h-4.45v3.82h5.33v1Z"/><path class="b765bd75-83bb-49b0-b357-46cf6fa757ad" d="M530.53,342.78l-2.1-3.28-2.09,3.28h-1.19l2.68-4L525.32,335h1.17l1.94,3,1.9-3h1.17L529,338.75l2.69,4Z"/><path class="b765bd75-83bb-49b0-b357-46cf6fa757ad" d="M534.05,335.77a3.25,3.25,0,0,1,2.26-.95c2.1,0,3.49,1.63,3.49,4a4.2,4.2,0,0,1-1.07,3A3.6,3.6,0,0,1,536,343a4.45,4.45,0,0,1-1.91-.41v4.15h-1V335l1-.22Zm0,.89v4.77a3.1,3.1,0,0,0,2,.62c1.63,0,2.7-1.31,2.7-3.18s-1-3.08-2.57-3.08A3,3,0,0,0,534.05,336.66Z"/><path class="b765bd75-83bb-49b0-b357-46cf6fa757ad" d="M541.75,342.78V331.32l1.06-.22v11.68Z"/><path class="b765bd75-83bb-49b0-b357-46cf6fa757ad" d="M552.33,338.87a4.11,4.11,0,0,1-1.09,3A3.6,3.6,0,0,1,548.5,343a3.56,3.56,0,0,1-2.7-1.12,4.68,4.68,0,0,1,.05-6,3.59,3.59,0,0,1,2.74-1.14,3.52,3.52,0,0,1,2.7,1.12A4.18,4.18,0,0,1,552.33,338.87Zm-1,0c0-1.92-1.09-3.18-2.75-3.18s-2.74,1.28-2.74,3.15,1.09,3.18,2.75,3.18S551.29,340.77,551.29,338.9Z"/><path class="b765bd75-83bb-49b0-b357-46cf6fa757ad" d="M555.34,337.78v5h-1.06V335l1.06-.22v1.67a2.55,2.55,0,0,1,2.29-1.67,2.69,2.69,0,0,1,1.36.36l-.27,1a2.31,2.31,0,0,0-1.19-.34Q556.22,335.77,555.34,337.78Z"/><path class="b765bd75-83bb-49b0-b357-46cf6fa757ad" d="M560.73,338.92V339c0,1.79,1.1,3,2.72,3a4.14,4.14,0,0,0,2.26-.64l.2,1a4.58,4.58,0,0,1-2.5.67,3.72,3.72,0,0,1-3.75-4.05,4.35,4.35,0,0,1,1.05-3,3.36,3.36,0,0,1,2.62-1.17,2.67,2.67,0,0,1,2.84,2.87,4.32,4.32,0,0,1-.17,1.24Zm.06-.83,4.32,0a1.34,1.34,0,0,0,0-.34,1.78,1.78,0,0,0-1.87-2A2.52,2.52,0,0,0,560.79,338.09Z"/><path class="b765bd75-83bb-49b0-b357-46cf6fa757ad" d="M579,335.47c0,2.29-1.58,3.5-4.28,3.55l-1.45,0v3.74h-1.08V332.15h2.67C577.57,332.15,579,333.44,579,335.47Zm-1.12,0c0-1.53-1.07-2.36-3.06-2.36h-1.55V338l1.52,0C576.82,338,577.86,337.13,577.86,335.52Z"/><path class="b765bd75-83bb-49b0-b357-46cf6fa757ad" d="M581.91,337.78v5h-1.06V335l1.06-.22v1.67a2.55,2.55,0,0,1,2.29-1.67,2.66,2.66,0,0,1,1.36.36l-.27,1a2.28,2.28,0,0,0-1.19-.34Q582.8,335.77,581.91,337.78Z"/><path class="b765bd75-83bb-49b0-b357-46cf6fa757ad" d="M593.81,338.87a4.11,4.11,0,0,1-1.09,3A3.6,3.6,0,0,1,590,343a3.56,3.56,0,0,1-2.7-1.12,4.68,4.68,0,0,1,.05-6,3.59,3.59,0,0,1,2.74-1.14,3.52,3.52,0,0,1,2.7,1.12A4.18,4.18,0,0,1,593.81,338.87Zm-1,0c0-1.92-1.09-3.18-2.75-3.18s-2.74,1.28-2.74,3.15,1.09,3.18,2.75,3.18S592.77,340.77,592.77,338.9Z"/><path class="b765bd75-83bb-49b0-b357-46cf6fa757ad" d="M601,335.25v-3.93l1-.22v11.68h-1v-.73a3.3,3.3,0,0,1-2.26.95c-2.09,0-3.49-1.65-3.49-4.05a4.17,4.17,0,0,1,1.09-3,3.65,3.65,0,0,1,2.77-1.16A4.35,4.35,0,0,1,601,335.25Zm0,1.12a3.12,3.12,0,0,0-1.94-.6c-1.67,0-2.72,1.29-2.72,3.16s1,3.1,2.58,3.1a3,3,0,0,0,2.08-.87v-4.79Z"/><path class="b765bd75-83bb-49b0-b357-46cf6fa757ad" d="M604.43,335h1.06v5c0,1.31.56,2,1.68,2a3.31,3.31,0,0,0,2.4-1.1V335h1v7.79l-1,.22v-1.26a3.75,3.75,0,0,1-2.69,1.26,2.36,2.36,0,0,1-2.45-2.67Z"/><path class="b765bd75-83bb-49b0-b357-46cf6fa757ad" d="M618.78,342.33a4.39,4.39,0,0,1-2.41.67c-2.33,0-3.81-1.63-3.81-4.1a4.12,4.12,0,0,1,1.09-3,3.57,3.57,0,0,1,2.73-1.16,4.46,4.46,0,0,1,2.44.66l-.28.95a3.82,3.82,0,0,0-2.16-.62c-1.68,0-2.73,1.24-2.73,3.11s1.09,3.14,2.75,3.14a4,4,0,0,0,2.16-.64Z"/><path class="b765bd75-83bb-49b0-b357-46cf6fa757ad" d="M624.61,342.62a3.92,3.92,0,0,1-1.73.41c-1.45,0-2.14-.81-2.09-2.45l.12-4.6-1.19-.07,0-.66,1.17-.28,0-1.76h1l0,1.82h2.6l0,.93h-2.58l-.12,4.66c0,1,.34,1.46,1.14,1.46a3.81,3.81,0,0,0,1.49-.37Z"/><path class="b765bd75-83bb-49b0-b357-46cf6fa757ad" d="M631,340.65c0,1.41-1.19,2.35-2.78,2.35a4.69,4.69,0,0,1-2.55-.7l.28-1a4.06,4.06,0,0,0,2.3.72c1,0,1.75-.5,1.75-1.31a1,1,0,0,0-.12-.5,1.29,1.29,0,0,0-.27-.35,1.71,1.71,0,0,0-.48-.28,4.62,4.62,0,0,0-.49-.2l-.59-.19c-1.36-.4-2.27-1-2.27-2.21,0-1.39,1.11-2.24,2.64-2.24a5,5,0,0,1,2.36.58l-.3.95a4.33,4.33,0,0,0-2.13-.58c-1,0-1.56.44-1.56,1.19a.79.79,0,0,0,.12.46,1.43,1.43,0,0,0,.25.34,1.26,1.26,0,0,0,.46.27l.49.21c.12.05.33.1.6.18C630.12,338.78,631,339.36,631,340.65Z"/><rect class="b27b6480-27d6-4179-ac13-648975c83e2a" x="679.36" y="311.94" width="178" height="50" rx="9"/><path class="b765bd75-83bb-49b0-b357-46cf6fa757ad" d="M736.65,338.71c0,2.69-1.41,4.29-4,4.29s-4-1.57-4-4.12v-6.73h1.06v6.6c0,2.07,1,3.24,3,3.24s2.91-1.12,2.91-3.26v-6.58h1.07Z"/><path class="b765bd75-83bb-49b0-b357-46cf6fa757ad" d="M743.77,340.65c0,1.41-1.19,2.35-2.79,2.35a4.69,4.69,0,0,1-2.55-.7l.29-1a4.06,4.06,0,0,0,2.3.72c1,0,1.75-.5,1.75-1.31a1.06,1.06,0,0,0-.12-.5,1.86,1.86,0,0,0-.27-.35,2.09,2.09,0,0,0-.48-.28,4.62,4.62,0,0,0-.49-.2l-.6-.19c-1.36-.4-2.26-1-2.26-2.21,0-1.39,1.11-2.24,2.64-2.24a5,5,0,0,1,2.36.58l-.31.95a4.29,4.29,0,0,0-2.12-.58c-1,0-1.56.44-1.56,1.19a.87.87,0,0,0,.11.46,1.43,1.43,0,0,0,.26.34,1.18,1.18,0,0,0,.46.27l.49.21c.12.05.32.1.6.18C742.89,338.78,743.77,339.36,743.77,340.65Z"/><path class="b765bd75-83bb-49b0-b357-46cf6fa757ad" d="M746.24,338.92V339c0,1.79,1.1,3,2.72,3a4.14,4.14,0,0,0,2.26-.64l.2,1a4.58,4.58,0,0,1-2.5.67,3.72,3.72,0,0,1-3.75-4.05,4.35,4.35,0,0,1,1.05-3,3.36,3.36,0,0,1,2.62-1.17,2.67,2.67,0,0,1,2.84,2.87,4.32,4.32,0,0,1-.17,1.24Zm.06-.83,4.32,0a1.34,1.34,0,0,0,0-.34,1.78,1.78,0,0,0-1.87-2A2.52,2.52,0,0,0,746.3,338.09Z"/><path class="b765bd75-83bb-49b0-b357-46cf6fa757ad" d="M757.66,331.29l0,.23c-.05.17-.09.33-.14.48l-.06.24a2.83,2.83,0,0,0-1.19-.33c-.87,0-1.3.62-1.3,1.82V335h2.45l0,.93h-2.4v6.82h-1V336l-1.26-.08.07-.66,1.17-.28,0-1.22c0-1.87.81-2.8,2.34-2.8A3.26,3.26,0,0,1,757.66,331.29Z"/><path class="b765bd75-83bb-49b0-b357-46cf6fa757ad" d="M758.66,335h1.06v5c0,1.31.56,2,1.68,2a3.31,3.31,0,0,0,2.4-1.1V335h1.05v7.79l-1.05.22v-1.26a3.75,3.75,0,0,1-2.69,1.26,2.36,2.36,0,0,1-2.45-2.67Z"/><path class="b765bd75-83bb-49b0-b357-46cf6fa757ad" d="M767.3,342.78V331.32l1.05-.22v11.68Z"/><path class="b765bd75-83bb-49b0-b357-46cf6fa757ad" d="M778.67,333.17v9.61h-1.09v-9.61h-3.74v-1h8.57v1Z"/><path class="b765bd75-83bb-49b0-b357-46cf6fa757ad" d="M789.48,338.87a4.1,4.1,0,0,1-1.08,3,3.63,3.63,0,0,1-2.74,1.16,3.53,3.53,0,0,1-2.7-1.12,4.65,4.65,0,0,1,0-6,3.58,3.58,0,0,1,2.73-1.14,3.53,3.53,0,0,1,2.71,1.12A4.22,4.22,0,0,1,789.48,338.87Zm-1,0c0-1.92-1.09-3.18-2.76-3.18S783,337,783,338.87s1.08,3.18,2.75,3.18S788.45,340.77,788.45,338.9Z"/><path class="b765bd75-83bb-49b0-b357-46cf6fa757ad" d="M798.51,338.87a4.11,4.11,0,0,1-1.09,3,3.82,3.82,0,0,1-5.44,0,4.23,4.23,0,0,1-1.05-3,4.16,4.16,0,0,1,1.1-3,3.59,3.59,0,0,1,2.74-1.14,3.51,3.51,0,0,1,2.7,1.12A4.18,4.18,0,0,1,798.51,338.87Zm-1,0c0-1.92-1.09-3.18-2.75-3.18S792,337,792,338.87s1.09,3.18,2.76,3.18S797.47,340.77,797.47,338.9Z"/><path class="b765bd75-83bb-49b0-b357-46cf6fa757ad" d="M800.46,342.78V331.32l1.06-.22v11.68Z"/><path class="b765bd75-83bb-49b0-b357-46cf6fa757ad" d="M808.64,340.65c0,1.41-1.19,2.35-2.79,2.35a4.69,4.69,0,0,1-2.55-.7l.29-1a4.06,4.06,0,0,0,2.3.72c1,0,1.75-.5,1.75-1.31a1.06,1.06,0,0,0-.12-.5,1.86,1.86,0,0,0-.27-.35,2.09,2.09,0,0,0-.48-.28,4.62,4.62,0,0,0-.49-.2l-.6-.19c-1.36-.4-2.26-1-2.26-2.21,0-1.39,1.11-2.24,2.64-2.24a5,5,0,0,1,2.36.58l-.31.95a4.29,4.29,0,0,0-2.12-.58c-1,0-1.56.44-1.56,1.19a.87.87,0,0,0,.11.46,1.43,1.43,0,0,0,.26.34,1.18,1.18,0,0,0,.46.27l.49.21c.12.05.32.1.6.18C807.76,338.78,808.64,339.36,808.64,340.65Z"/><rect class="b27b6480-27d6-4179-ac13-648975c83e2a" x="873.65" y="311.94" width="178" height="50" rx="9"/><path class="b765bd75-83bb-49b0-b357-46cf6fa757ad" d="M908.16,327.14a2.51,2.51,0,0,1,2.38,2.48c0,1.82-1.22,3-3.82,3h-3.46V322h3.32c2.46,0,3.62,1.06,3.62,2.77A2.46,2.46,0,0,1,908.16,327.14Zm1-2.33c0-1.19-.85-1.87-2.48-1.87h-2.28v3.82h2.11C908.09,326.76,909.11,326.07,909.11,324.81Zm.34,4.81c0-1.24-1-1.87-2.92-1.87h-2.18v3.84h2.45C908.57,331.59,909.45,330.93,909.45,329.62Z"/><path class="b765bd75-83bb-49b0-b357-46cf6fa757ad" d="M912.48,332.58V321.12l1-.22v11.68Z"/><path class="b765bd75-83bb-49b0-b357-46cf6fa757ad" d="M923.05,328.67a4.06,4.06,0,0,1-1.09,3,3.82,3.82,0,0,1-5.44,0,4.23,4.23,0,0,1-1-3,4.16,4.16,0,0,1,1.1-3,3.65,3.65,0,0,1,2.74-1.14,3.53,3.53,0,0,1,2.7,1.12A4.18,4.18,0,0,1,923.05,328.67Zm-1,0c0-1.92-1.08-3.18-2.75-3.18s-2.74,1.28-2.74,3.15,1.09,3.18,2.76,3.18S922,330.57,922,328.7Z"/><path class="b765bd75-83bb-49b0-b357-46cf6fa757ad" d="M925.6,332.59c-.69-.25-1.05-.66-1.05-1.24a1.72,1.72,0,0,1,1.27-1.48,2.59,2.59,0,0,1-1.25-2.37,2.87,2.87,0,0,1,3-2.93,3.64,3.64,0,0,1,1.84.46l2.16-.17,0,1.05-1.72-.17a2.74,2.74,0,0,1,.63,1.76,2.84,2.84,0,0,1-3,2.85,3.47,3.47,0,0,1-1.16-.22c-.58.24-.87.54-.87.93s.45.8,1.77.8h1c2.16,0,3.23.68,3.23,2a2.45,2.45,0,0,1-1.2,2.08,5.06,5.06,0,0,1-2.89.81c-2.09,0-3.52-.91-3.52-2.28A2.08,2.08,0,0,1,925.6,332.59Zm.92.21c-.94.25-1.58.87-1.58,1.53,0,.93,1,1.6,2.65,1.6s2.92-.79,2.92-1.84c0-.88-.74-1.24-2.36-1.24C927.51,332.85,927,332.83,926.52,332.8Zm-.92-5.29a1.89,1.89,0,0,0,2,2,1.81,1.81,0,0,0,1.41-.58,2,2,0,0,0,.53-1.46A2.1,2.1,0,0,0,929,326a2,2,0,0,0-1.48-.56A1.9,1.9,0,0,0,925.6,327.51Z"/><path class="b765bd75-83bb-49b0-b357-46cf6fa757ad" d="M937.64,330.45c0,1.41-1.19,2.35-2.79,2.35a4.69,4.69,0,0,1-2.55-.7l.29-1a4,4,0,0,0,2.29.72c1,0,1.75-.5,1.75-1.31a1,1,0,0,0-.11-.5,1.53,1.53,0,0,0-.28-.35,1.57,1.57,0,0,0-.47-.27,4.33,4.33,0,0,0-.5-.21l-.59-.19c-1.36-.4-2.26-1-2.26-2.21,0-1.39,1.1-2.24,2.63-2.24a5,5,0,0,1,2.37.58l-.31,1a4.32,4.32,0,0,0-2.12-.58c-1,0-1.57.45-1.57,1.19a.88.88,0,0,0,.12.46,1.43,1.43,0,0,0,.26.34,1.12,1.12,0,0,0,.45.27l.5.21c.12.05.32.1.59.18C936.75,328.58,937.64,329.16,937.64,330.45Z"/><path class="b765bd75-83bb-49b0-b357-46cf6fa757ad" d="M947.55,331.64h0a2.85,2.85,0,0,1-2.28,1.16,2.25,2.25,0,0,1-2.47-2.16c0-1.67,1.59-2.58,4.73-2.77v-.46a1.63,1.63,0,0,0-1.84-1.85,4.76,4.76,0,0,0-2.54.93l-.24-1a5.43,5.43,0,0,1,2.89-.94,2.45,2.45,0,0,1,2.78,2.79v3.74c0,.61.14.8.79.78l-.07.87C948.25,332.82,947.67,332.44,947.55,331.64Zm-.07-.78v-2.28c-2.62.29-3.62.87-3.62,1.94a1.42,1.42,0,0,0,1.6,1.36A2.63,2.63,0,0,0,947.48,330.86Z"/><path class="b765bd75-83bb-49b0-b357-46cf6fa757ad" d="M957.07,332.58H956v-5c0-1.36-.52-2-1.71-2a3.37,3.37,0,0,0-2.37,1.11v5.9h-1v-7.79l1-.22v1.28a3.78,3.78,0,0,1,2.66-1.28,2.35,2.35,0,0,1,2.48,2.67Z"/><path class="b765bd75-83bb-49b0-b357-46cf6fa757ad" d="M964.7,325.05v-3.93l1.06-.22v11.68H964.7v-.73a3.25,3.25,0,0,1-2.26.95c-2.09,0-3.48-1.65-3.48-4.05a4.16,4.16,0,0,1,1.08-3,3.67,3.67,0,0,1,2.77-1.16A4.35,4.35,0,0,1,964.7,325.05Zm0,1.12a3.1,3.1,0,0,0-1.94-.6c-1.66,0-2.72,1.3-2.72,3.17s1,3.09,2.59,3.09a2.94,2.94,0,0,0,2.07-.87v-4.79Z"/><path class="b765bd75-83bb-49b0-b357-46cf6fa757ad" d="M980.07,322.6l-.34,1a5.41,5.41,0,0,0-3-.85c-2.4,0-4,1.68-4,4.54s1.58,4.55,4,4.55a4.86,4.86,0,0,0,3-.95l.2,1.07a5.68,5.68,0,0,1-3.19.87,4.84,4.84,0,0,1-3.72-1.5,6.4,6.4,0,0,1,0-8.05,4.84,4.84,0,0,1,3.69-1.52A6.16,6.16,0,0,1,980.07,322.6Z"/><path class="b765bd75-83bb-49b0-b357-46cf6fa757ad" d="M981.89,324.79h1.05v5c0,1.31.56,2,1.69,2a3.29,3.29,0,0,0,2.39-1.11v-5.9h1.06v7.79l-1.06.22v-1.26a3.71,3.71,0,0,1-2.68,1.26,2.36,2.36,0,0,1-2.45-2.67Z"/><path class="b765bd75-83bb-49b0-b357-46cf6fa757ad" d="M991.58,327.58v5h-1.05v-7.79l1.05-.22v1.67a2.56,2.56,0,0,1,2.29-1.67,2.66,2.66,0,0,1,1.36.36l-.27,1a2.28,2.28,0,0,0-1.19-.34C992.91,325.57,992.17,326.24,991.58,327.58Z"/><path class="b765bd75-83bb-49b0-b357-46cf6fa757ad" d="M997.63,327.58v5h-1v-7.79l1-.22v1.67a2.56,2.56,0,0,1,2.3-1.67,2.71,2.71,0,0,1,1.36.36l-.28,1a2.28,2.28,0,0,0-1.19-.34Q998.53,325.57,997.63,327.58Z"/><path class="b765bd75-83bb-49b0-b357-46cf6fa757ad" d="M1003,328.72v.08c.05,1.79,1.1,3,2.72,3a4.12,4.12,0,0,0,2.26-.64l.2,1a4.55,4.55,0,0,1-2.49.67,3.73,3.73,0,0,1-3.76-4.05,4.41,4.41,0,0,1,1-3,3.37,3.37,0,0,1,2.62-1.17,2.67,2.67,0,0,1,2.84,2.87,4,4,0,0,1-.17,1.24Zm.07-.83,4.32,0a2.66,2.66,0,0,0,0-.34,1.78,1.78,0,0,0-1.87-2A2.52,2.52,0,0,0,1003.09,327.89Z"/><path class="b765bd75-83bb-49b0-b357-46cf6fa757ad" d="M1016.64,332.58h-1.06v-5c0-1.36-.52-2-1.71-2a3.35,3.35,0,0,0-2.37,1.11v5.9h-1v-7.79l1-.22v1.28a3.78,3.78,0,0,1,2.66-1.28,2.35,2.35,0,0,1,2.48,2.67Z"/><path class="b765bd75-83bb-49b0-b357-46cf6fa757ad" d="M1022.91,332.42a4,4,0,0,1-1.73.41c-1.45,0-2.15-.81-2.1-2.45l.12-4.6-1.19-.07.06-.66,1.17-.27,0-1.77h1l0,1.82h2.6l-.05.93h-2.58l-.12,4.66c0,1,.34,1.46,1.14,1.46a3.81,3.81,0,0,0,1.49-.37Z"/><path class="b765bd75-83bb-49b0-b357-46cf6fa757ad" d="M945.12,343.37V353H944v-9.61h-3.74v-1h8.57v1Z"/><path class="b765bd75-83bb-49b0-b357-46cf6fa757ad" d="M949.91,348v5h-1v-7.79l1-.22v1.67a2.56,2.56,0,0,1,2.3-1.67,2.71,2.71,0,0,1,1.36.36l-.28,1a2.28,2.28,0,0,0-1.19-.34Q950.81,346,949.91,348Z"/><path class="b765bd75-83bb-49b0-b357-46cf6fa757ad" d="M955.3,349.12v.08c.05,1.79,1.11,3,2.72,3a4.12,4.12,0,0,0,2.26-.64l.21,1a4.61,4.61,0,0,1-2.5.67,3.73,3.73,0,0,1-3.76-4.05,4.39,4.39,0,0,1,1-3A3.37,3.37,0,0,1,957.9,345a2.66,2.66,0,0,1,2.84,2.87,4,4,0,0,1-.17,1.24Zm.07-.83,4.32,0a2.66,2.66,0,0,0,0-.34,1.78,1.78,0,0,0-1.87-2A2.51,2.51,0,0,0,955.37,348.29Z"/><path class="b765bd75-83bb-49b0-b357-46cf6fa757ad" d="M968.92,353h-1.06v-5c0-1.36-.52-2-1.71-2a3.37,3.37,0,0,0-2.37,1.11V353h-1v-7.79l1-.22v1.28a3.78,3.78,0,0,1,2.66-1.28,2.35,2.35,0,0,1,2.48,2.67Z"/><path class="b765bd75-83bb-49b0-b357-46cf6fa757ad" d="M976.55,345.45v-3.93l1.05-.22V353h-1.05v-.73a3.25,3.25,0,0,1-2.26.95c-2.09,0-3.49-1.65-3.49-4.05a4.17,4.17,0,0,1,1.09-3,3.65,3.65,0,0,1,2.77-1.16A4.35,4.35,0,0,1,976.55,345.45Zm0,1.12a3.12,3.12,0,0,0-1.94-.6c-1.66,0-2.72,1.3-2.72,3.16s1,3.1,2.59,3.1a2.94,2.94,0,0,0,2.07-.87v-4.79Z"/><path class="b765bd75-83bb-49b0-b357-46cf6fa757ad" d="M984.73,350.85c0,1.41-1.19,2.35-2.79,2.35a4.69,4.69,0,0,1-2.55-.7l.29-1a4,4,0,0,0,2.29.72c1,0,1.75-.5,1.75-1.31a1,1,0,0,0-.11-.5,1.53,1.53,0,0,0-.28-.35,1.78,1.78,0,0,0-.47-.28,3.88,3.88,0,0,0-.5-.2l-.59-.19c-1.36-.4-2.26-1-2.26-2.21,0-1.39,1.1-2.24,2.63-2.24a5,5,0,0,1,2.37.58l-.31.95a4.32,4.32,0,0,0-2.12-.58c-1,0-1.57.44-1.57,1.19a.88.88,0,0,0,.12.46,1.43,1.43,0,0,0,.26.34,1.12,1.12,0,0,0,.45.27l.5.21c.12.05.32.1.59.18C983.84,349,984.73,349.56,984.73,350.85Z"/><rect class="b27b6480-27d6-4179-ac13-648975c83e2a" x="1067.94" y="311.94" width="178" height="50" rx="9"/><path class="b765bd75-83bb-49b0-b357-46cf6fa757ad" d="M1113.89,339.51c0,2.2-1,3.49-3.19,3.49a4.31,4.31,0,0,1-2.37-.67l.19-1.05a4.16,4.16,0,0,0,2.19.73c1.41,0,2.11-.85,2.11-2.53v-7.33h1.07Z"/><path class="b765bd75-83bb-49b0-b357-46cf6fa757ad" d="M1123.43,338.87a4.11,4.11,0,0,1-1.09,3,3.6,3.6,0,0,1-2.74,1.16,3.56,3.56,0,0,1-2.7-1.12,4.68,4.68,0,0,1,0-6,3.59,3.59,0,0,1,2.74-1.14,3.51,3.51,0,0,1,2.7,1.12A4.18,4.18,0,0,1,1123.43,338.87Zm-1,0c0-1.92-1.09-3.18-2.75-3.18s-2.74,1.28-2.74,3.15,1.09,3.18,2.76,3.18S1122.39,340.77,1122.39,338.9Z"/><path class="b765bd75-83bb-49b0-b357-46cf6fa757ad" d="M1126.64,332.42a.83.83,0,0,1-.19.55.63.63,0,0,1-.52.24.67.67,0,0,1-.53-.24.83.83,0,0,1-.19-.55.81.81,0,0,1,.19-.52.62.62,0,0,1,.53-.22.59.59,0,0,1,.52.22A.81.81,0,0,1,1126.64,332.42Zm-.19,10.36h-1V335l1-.22Z"/><path class="b765bd75-83bb-49b0-b357-46cf6fa757ad" d="M1135.12,342.78h-1v-5c0-1.37-.53-2-1.72-2a3.34,3.34,0,0,0-2.36,1.11v5.9h-1V335l1-.22v1.28a3.76,3.76,0,0,1,2.65-1.28c1.57,0,2.48,1,2.48,2.67Z"/><path class="b765bd75-83bb-49b0-b357-46cf6fa757ad" d="M1141.4,342.62a4,4,0,0,1-1.74.41c-1.44,0-2.14-.81-2.09-2.45l.12-4.6-1.19-.07,0-.66,1.18-.28,0-1.76h1l0,1.82h2.6l0,.93h-2.59l-.12,4.66c0,1,.35,1.46,1.14,1.46a3.85,3.85,0,0,0,1.5-.37Z"/><path class="b765bd75-83bb-49b0-b357-46cf6fa757ad" d="M1151.1,342.78h-1.27l-3.89-10.63h1.1l3.45,9.5,3.44-9.5h1.1Z"/><path class="b765bd75-83bb-49b0-b357-46cf6fa757ad" d="M1156.39,338.92V339c0,1.79,1.11,3,2.72,3a4.12,4.12,0,0,0,2.26-.64l.21,1a4.61,4.61,0,0,1-2.5.67,3.73,3.73,0,0,1-3.76-4.05,4.39,4.39,0,0,1,1-3,3.37,3.37,0,0,1,2.62-1.17,2.66,2.66,0,0,1,2.84,2.87,4,4,0,0,1-.17,1.24Zm.07-.83,4.32,0a2.66,2.66,0,0,0,0-.34,1.78,1.78,0,0,0-1.87-2A2.51,2.51,0,0,0,1156.46,338.09Z"/><path class="b765bd75-83bb-49b0-b357-46cf6fa757ad" d="M1170,342.78H1169v-5c0-1.37-.52-2-1.71-2a3.37,3.37,0,0,0-2.37,1.11v5.9h-1V335l1-.22v1.28a3.78,3.78,0,0,1,2.66-1.28,2.35,2.35,0,0,1,2.48,2.67Z"/><path class="b765bd75-83bb-49b0-b357-46cf6fa757ad" d="M1176.28,342.62a4,4,0,0,1-1.73.41c-1.45,0-2.14-.81-2.09-2.45l.11-4.6-1.18-.07,0-.66,1.17-.28.05-1.76h1l-.05,1.82h2.6l0,.93h-2.58l-.12,4.66c0,1,.34,1.46,1.14,1.46a3.81,3.81,0,0,0,1.49-.37Z"/><path class="b765bd75-83bb-49b0-b357-46cf6fa757ad" d="M1177.93,335h1v5c0,1.31.56,2,1.69,2a3.27,3.27,0,0,0,2.39-1.1V335h1.06v7.79l-1.06.22v-1.26a3.71,3.71,0,0,1-2.68,1.26,2.36,2.36,0,0,1-2.45-2.67Z"/><path class="b765bd75-83bb-49b0-b357-46cf6fa757ad" d="M1187.62,337.78v5h-1V335l1-.22v1.67a2.56,2.56,0,0,1,2.29-1.67,2.72,2.72,0,0,1,1.37.36l-.28,1a2.28,2.28,0,0,0-1.19-.34Q1188.52,335.77,1187.62,337.78Z"/><path class="b765bd75-83bb-49b0-b357-46cf6fa757ad" d="M1193,338.92V339c0,1.79,1.1,3,2.72,3a4.12,4.12,0,0,0,2.26-.64l.2,1a4.55,4.55,0,0,1-2.49.67,3.73,3.73,0,0,1-3.76-4.05,4.39,4.39,0,0,1,1-3,3.37,3.37,0,0,1,2.62-1.17,2.67,2.67,0,0,1,2.84,2.87,4,4,0,0,1-.17,1.24Zm.07-.83,4.31,0a1.34,1.34,0,0,0,0-.34,1.78,1.78,0,0,0-1.87-2A2.51,2.51,0,0,0,1193.08,338.09Z"/><path class="b765bd75-83bb-49b0-b357-46cf6fa757ad" d="M1205.11,340.65c0,1.41-1.19,2.35-2.79,2.35a4.68,4.68,0,0,1-2.54-.7l.28-1a4.06,4.06,0,0,0,2.3.72c1,0,1.75-.5,1.75-1.31a1,1,0,0,0-.12-.5,1.52,1.52,0,0,0-.27-.35,2.09,2.09,0,0,0-.48-.28,4.62,4.62,0,0,0-.49-.2l-.59-.19c-1.36-.4-2.27-1-2.27-2.21,0-1.39,1.11-2.24,2.64-2.24a5,5,0,0,1,2.36.58l-.3.95a4.33,4.33,0,0,0-2.13-.58c-1,0-1.56.44-1.56,1.19a.79.79,0,0,0,.12.46,1.43,1.43,0,0,0,.25.34,1.26,1.26,0,0,0,.46.27l.49.21c.12.05.33.1.6.18C1204.23,338.78,1205.11,339.36,1205.11,340.65Z"/><rect class="b27b6480-27d6-4179-ac13-648975c83e2a" x="1262.24" y="311.94" width="178" height="50" rx="9"/><path class="b765bd75-83bb-49b0-b357-46cf6fa757ad" d="M1314.79,333.17v9.61h-1.09v-9.61H1310v-1h8.57v1Z"/><path class="b765bd75-83bb-49b0-b357-46cf6fa757ad" d="M1319.09,338.92V339c.05,1.79,1.1,3,2.72,3a4.12,4.12,0,0,0,2.26-.64l.2,1a4.56,4.56,0,0,1-2.5.67A3.72,3.72,0,0,1,1318,339a4.35,4.35,0,0,1,1-3,3.37,3.37,0,0,1,2.62-1.17,2.67,2.67,0,0,1,2.84,2.87,4,4,0,0,1-.17,1.24Zm.07-.83,4.31,0a1.34,1.34,0,0,0,0-.34,1.78,1.78,0,0,0-1.87-2A2.51,2.51,0,0,0,1319.16,338.09Z"/><path class="b765bd75-83bb-49b0-b357-46cf6fa757ad" d="M1331.19,340.65c0,1.41-1.19,2.35-2.79,2.35a4.74,4.74,0,0,1-2.55-.7l.29-1a4.06,4.06,0,0,0,2.3.72c1,0,1.75-.5,1.75-1.31a1,1,0,0,0-.12-.5,1.52,1.52,0,0,0-.27-.35,2.09,2.09,0,0,0-.48-.28,4.62,4.62,0,0,0-.49-.2l-.6-.19c-1.36-.4-2.26-1-2.26-2.21,0-1.39,1.11-2.24,2.64-2.24a5,5,0,0,1,2.36.58l-.31.95a4.29,4.29,0,0,0-2.12-.58c-1,0-1.56.44-1.56,1.19a.79.79,0,0,0,.12.46,1.43,1.43,0,0,0,.25.34,1.26,1.26,0,0,0,.46.27l.49.21c.12.05.33.1.6.18C1330.31,338.78,1331.19,339.36,1331.19,340.65Z"/><path class="b765bd75-83bb-49b0-b357-46cf6fa757ad" d="M1337,342.62a3.92,3.92,0,0,1-1.73.41c-1.45,0-2.14-.81-2.09-2.45l.12-4.6-1.19-.07.05-.66,1.17-.28,0-1.76h1l0,1.82h2.6l-.05.93h-2.58l-.12,4.66c0,1,.34,1.46,1.14,1.46a3.81,3.81,0,0,0,1.49-.37Z"/><path class="b765bd75-83bb-49b0-b357-46cf6fa757ad" d="M1340,332.42a.83.83,0,0,1-.19.55.67.67,0,0,1-.53.24.63.63,0,0,1-.52-.24.83.83,0,0,1-.19-.55.81.81,0,0,1,.19-.52.59.59,0,0,1,.52-.22.62.62,0,0,1,.53.22A.81.81,0,0,1,1340,332.42Zm-.19,10.36h-1V335l1-.22Z"/><path class="b765bd75-83bb-49b0-b357-46cf6fa757ad" d="M1353,342.78h-1v-5c0-1.32-.55-2-1.65-2a3.24,3.24,0,0,0-2.2,1,4.93,4.93,0,0,1,0,.69v5.31h-1.06v-5c0-1.32-.54-2-1.65-2a3.25,3.25,0,0,0-2.15.9v6.11h-1.06V335l1.06-.22v1.07a3.61,3.61,0,0,1,2.46-1.07,2.09,2.09,0,0,1,2.11,1.29,3.88,3.88,0,0,1,2.75-1.29c1.5,0,2.4,1,2.4,2.69Z"/><path class="b765bd75-83bb-49b0-b357-46cf6fa757ad" d="M1362.49,338.87a4.11,4.11,0,0,1-1.09,3,3.6,3.6,0,0,1-2.74,1.16,3.56,3.56,0,0,1-2.7-1.12,4.68,4.68,0,0,1,0-6,3.59,3.59,0,0,1,2.74-1.14,3.52,3.52,0,0,1,2.7,1.12A4.18,4.18,0,0,1,1362.49,338.87Zm-1,0c0-1.92-1.09-3.18-2.75-3.18S1356,337,1356,338.87s1.09,3.18,2.75,3.18S1361.45,340.77,1361.45,338.9Z"/><path class="b765bd75-83bb-49b0-b357-46cf6fa757ad" d="M1370.63,342.78h-1.05v-5c0-1.37-.53-2-1.72-2a3.34,3.34,0,0,0-2.36,1.11v5.9h-1.06V335l1.06-.22v1.28a3.76,3.76,0,0,1,2.65-1.28,2.35,2.35,0,0,1,2.48,2.67Z"/><path class="b765bd75-83bb-49b0-b357-46cf6fa757ad" d="M1374.29,332.42a.83.83,0,0,1-.19.55.67.67,0,0,1-.53.24.63.63,0,0,1-.52-.24.83.83,0,0,1-.19-.55.81.81,0,0,1,.19-.52.59.59,0,0,1,.52-.22.62.62,0,0,1,.53.22A.81.81,0,0,1,1374.29,332.42Zm-.19,10.36h-1V335l1-.22Z"/><path class="b765bd75-83bb-49b0-b357-46cf6fa757ad" d="M1380.71,341.84h0a2.85,2.85,0,0,1-2.28,1.16,2.24,2.24,0,0,1-2.46-2.16c0-1.67,1.58-2.58,4.72-2.77v-.46a1.62,1.62,0,0,0-1.83-1.85,4.68,4.68,0,0,0-2.55.93l-.24-1a5.43,5.43,0,0,1,2.89-.94,2.46,2.46,0,0,1,2.79,2.79v3.74c0,.61.13.8.78.78l-.07.87C1381.41,343,1380.83,342.64,1380.71,341.84Zm-.07-.78v-2.28c-2.61.29-3.62.87-3.62,1.94a1.42,1.42,0,0,0,1.6,1.36A2.63,2.63,0,0,0,1380.64,341.06Z"/><path class="b765bd75-83bb-49b0-b357-46cf6fa757ad" d="M1384,342.78V331.32l1.06-.22v11.68Z"/><path class="b765bd75-83bb-49b0-b357-46cf6fa757ad" d="M1392.22,340.65c0,1.41-1.19,2.35-2.79,2.35a4.69,4.69,0,0,1-2.55-.7l.29-1a4.06,4.06,0,0,0,2.3.72c1,0,1.75-.5,1.75-1.31a1.06,1.06,0,0,0-.12-.5,1.86,1.86,0,0,0-.27-.35,2.09,2.09,0,0,0-.48-.28,4.62,4.62,0,0,0-.49-.2l-.6-.19c-1.36-.4-2.26-1-2.26-2.21,0-1.39,1.11-2.24,2.64-2.24a5,5,0,0,1,2.36.58l-.31.95a4.29,4.29,0,0,0-2.12-.58c-1,0-1.57.44-1.57,1.19a.88.88,0,0,0,.12.46,1.43,1.43,0,0,0,.26.34,1.18,1.18,0,0,0,.46.27l.49.21c.12.05.32.1.6.18C1391.34,338.78,1392.22,339.36,1392.22,340.65Z"/><rect class="b765bd75-83bb-49b0-b357-46cf6fa757ad" x="850.42" y="131.05" width="178" height="50" rx="9"/><path class="ba894c68-1ea9-45f7-9e46-215780c5839a" d="M920.52,161.14c1.48,0,2.52-.87,2.52-2s-.82-1.68-2.69-2.22c-.44-.14-.82-.28-1.12-.41a4.65,4.65,0,0,1-1-.53,2.27,2.27,0,0,1-.75-.85,2.61,2.61,0,0,1-.25-1.19c0-1.68,1.41-2.89,3.4-2.89a5.8,5.8,0,0,1,3.19.92l-.39.95a4.83,4.83,0,0,0-2.79-.88c-1.53,0-2.36.76-2.36,1.82s.8,1.53,2.69,2.12c.44.14.81.27,1.14.41a6.82,6.82,0,0,1,1,.56,2.29,2.29,0,0,1,.73.88,3,3,0,0,1,.24,1.23c0,1.78-1.46,3.06-3.58,3.06a6.17,6.17,0,0,1-3.42-1l.39-1A5.28,5.28,0,0,0,920.52,161.14Z"/><path class="ba894c68-1ea9-45f7-9e46-215780c5839a" d="M926.57,158v.08c0,1.79,1.11,3,2.72,3a4.12,4.12,0,0,0,2.26-.64l.21,1a4.61,4.61,0,0,1-2.5.67,3.73,3.73,0,0,1-3.76-4.05,4.37,4.37,0,0,1,1.06-3,3.34,3.34,0,0,1,2.61-1.17,2.66,2.66,0,0,1,2.84,2.87,4,4,0,0,1-.17,1.24Zm.07-.83,4.32,0a1.34,1.34,0,0,0,0-.34,1.79,1.79,0,0,0-1.87-2A2.52,2.52,0,0,0,926.64,157.2Z"/><path class="ba894c68-1ea9-45f7-9e46-215780c5839a" d="M938.13,161h0a2.85,2.85,0,0,1-2.28,1.16,2.25,2.25,0,0,1-2.46-2.16c0-1.67,1.58-2.58,4.72-2.77v-.46a1.62,1.62,0,0,0-1.83-1.85,4.68,4.68,0,0,0-2.55.93l-.24-1a5.43,5.43,0,0,1,2.89-.94,2.46,2.46,0,0,1,2.79,2.79v3.74c0,.61.13.8.78.78l-.07.87C938.83,162.13,938.25,161.75,938.13,161Zm-.07-.78v-2.28c-2.61.29-3.62.87-3.62,1.94a1.42,1.42,0,0,0,1.6,1.36A2.63,2.63,0,0,0,938.06,160.17Z"/><path class="ba894c68-1ea9-45f7-9e46-215780c5839a" d="M942.52,156.89v5h-1.06V154.1l1.06-.22v1.67a2.55,2.55,0,0,1,2.29-1.67,2.66,2.66,0,0,1,1.36.36l-.27,1a2.28,2.28,0,0,0-1.19-.34Q943.41,154.88,942.52,156.89Z"/><path class="ba894c68-1ea9-45f7-9e46-215780c5839a" d="M953.06,161.44a4.43,4.43,0,0,1-2.42.67c-2.32,0-3.8-1.63-3.8-4.1a4.12,4.12,0,0,1,1.08-3,3.6,3.6,0,0,1,2.74-1.16,4.4,4.4,0,0,1,2.43.66l-.27,1a3.75,3.75,0,0,0-2.16-.63c-1.68,0-2.74,1.24-2.74,3.11s1.09,3.14,2.76,3.14a4,4,0,0,0,2.16-.64Z"/><path class="ba894c68-1ea9-45f7-9e46-215780c5839a" d="M961.2,161.89h-1.05v-5c0-1.31-.56-2-1.67-2a3.38,3.38,0,0,0-2.41,1.11v5.9H955V150.43l1.06-.22v4.91a3.76,3.76,0,0,1,2.7-1.24c1.53,0,2.43,1,2.43,2.67Z"/><rect class="b765bd75-83bb-49b0-b357-46cf6fa757ad" x="1054.04" y="131.05" width="178" height="50" rx="9"/><path class="ba894c68-1ea9-45f7-9e46-215780c5839a" d="M1100.44,151.26h6.26v1h-5.17v4h4.29v1h-4.29v4.64h-1.09Z"/><path class="ba894c68-1ea9-45f7-9e46-215780c5839a" d="M1109.71,151.54a.83.83,0,0,1-.19.54.69.69,0,0,1-1,0,.85.85,0,0,1,0-1.07.6.6,0,0,1,.52-.22.61.61,0,0,1,.53.22A.82.82,0,0,1,1109.71,151.54Zm-.19,10.35h-1V154.1l1-.22Z"/><path class="ba894c68-1ea9-45f7-9e46-215780c5839a" d="M1118.19,161.89h-1v-5c0-1.36-.53-2-1.72-2a3.34,3.34,0,0,0-2.36,1.11v5.9H1112V154.1l1.06-.22v1.28a3.76,3.76,0,0,1,2.65-1.28,2.35,2.35,0,0,1,2.48,2.67Z"/><path class="ba894c68-1ea9-45f7-9e46-215780c5839a" d="M1125.82,154.36v-3.93l1.06-.22v11.68h-1.06v-.73a3.23,3.23,0,0,1-2.26,1c-2.09,0-3.48-1.65-3.48-4.05a4.17,4.17,0,0,1,1.09-3,3.65,3.65,0,0,1,2.77-1.16A4.34,4.34,0,0,1,1125.82,154.36Zm0,1.12a3.09,3.09,0,0,0-1.93-.6c-1.67,0-2.72,1.29-2.72,3.17s1,3.09,2.58,3.09a2.93,2.93,0,0,0,2.07-.87v-4.79Z"/><path class="ba894c68-1ea9-45f7-9e46-215780c5839a" d="M1137.33,161h0a2.83,2.83,0,0,1-2.28,1.16,2.25,2.25,0,0,1-2.46-2.16c0-1.67,1.58-2.58,4.73-2.77v-.46a1.63,1.63,0,0,0-1.84-1.85,4.68,4.68,0,0,0-2.55.93l-.24-1a5.46,5.46,0,0,1,2.89-.94,2.46,2.46,0,0,1,2.79,2.79v3.74c0,.61.14.8.78.78l-.07.87C1138,162.13,1137.45,161.75,1137.33,161Zm-.06-.78v-2.28c-2.62.29-3.62.87-3.62,1.94a1.42,1.42,0,0,0,1.59,1.36A2.67,2.67,0,0,0,1137.27,160.17Z"/><path class="ba894c68-1ea9-45f7-9e46-215780c5839a" d="M1153.19,156.5c0,3.36-2.09,5.39-5.71,5.39h-2.8V151.26h2.89a5.81,5.81,0,0,1,4.11,1.43A5.06,5.06,0,0,1,1153.19,156.5Zm-1.08.08c0-2.7-1.69-4.31-4.61-4.31h-1.73v8.61h1.76C1150.36,160.88,1152.11,159.42,1152.11,156.58Z"/><path class="ba894c68-1ea9-45f7-9e46-215780c5839a" d="M1155.78,158v.08c0,1.79,1.1,3,2.72,3a4.12,4.12,0,0,0,2.26-.64l.2,1a4.56,4.56,0,0,1-2.5.67,3.72,3.72,0,0,1-3.75-4.05,4.41,4.41,0,0,1,1-3,3.37,3.37,0,0,1,2.62-1.17,2.67,2.67,0,0,1,2.84,2.87,4,4,0,0,1-.17,1.24Zm.07-.83,4.31,0a1.34,1.34,0,0,0,0-.34,1.78,1.78,0,0,0-1.87-2A2.51,2.51,0,0,0,1155.85,157.2Z"/><path class="ba894c68-1ea9-45f7-9e46-215780c5839a" d="M1167.34,161h0a2.85,2.85,0,0,1-2.28,1.16,2.25,2.25,0,0,1-2.47-2.16c0-1.67,1.59-2.58,4.73-2.77v-.46a1.63,1.63,0,0,0-1.84-1.85,4.68,4.68,0,0,0-2.54.93l-.24-1a5.43,5.43,0,0,1,2.89-.94,2.45,2.45,0,0,1,2.78,2.79v3.74c0,.61.14.8.79.78l-.07.87C1168,162.13,1167.46,161.75,1167.34,161Zm-.07-.78v-2.28c-2.62.29-3.62.87-3.62,1.94a1.42,1.42,0,0,0,1.6,1.36A2.63,2.63,0,0,0,1167.27,160.17Z"/><path class="ba894c68-1ea9-45f7-9e46-215780c5839a" d="M1170.67,161.89V150.43l1-.22v11.68Z"/><path class="ba894c68-1ea9-45f7-9e46-215780c5839a" d="M1174.73,158v.08c0,1.79,1.11,3,2.72,3a4.12,4.12,0,0,0,2.26-.64l.21,1a4.61,4.61,0,0,1-2.5.67,3.73,3.73,0,0,1-3.76-4.05,4.37,4.37,0,0,1,1.06-3,3.34,3.34,0,0,1,2.61-1.17,2.66,2.66,0,0,1,2.84,2.87A4,4,0,0,1,1180,158Zm.07-.83,4.32,0a1.34,1.34,0,0,0,0-.34,1.79,1.79,0,0,0-1.87-2A2.52,2.52,0,0,0,1174.8,157.2Z"/><path class="ba894c68-1ea9-45f7-9e46-215780c5839a" d="M1183.22,156.89v5h-1.06V154.1l1.06-.22v1.67a2.55,2.55,0,0,1,2.29-1.67,2.69,2.69,0,0,1,1.36.36l-.27,1a2.31,2.31,0,0,0-1.19-.34Q1184.11,154.88,1183.22,156.89Z"/><rect class="b27b6480-27d6-4179-ac13-648975c83e2a" x="1257.66" y="131.05" width="178" height="50" rx="9"/><path class="b765bd75-83bb-49b0-b357-46cf6fa757ad" d="M1338.18,152.61l-3.49,9.21h-1.19l-3.52-9.23-.18,9.3h-1.07l.35-10.63h1.46l3.59,9.39,3.54-9.39h1.44l.34,10.63h-1.1Z"/><path class="b765bd75-83bb-49b0-b357-46cf6fa757ad" d="M1342.34,158v.08c.05,1.79,1.11,3,2.72,3a4.12,4.12,0,0,0,2.26-.64l.21,1a4.61,4.61,0,0,1-2.5.67,3.73,3.73,0,0,1-3.76-4.05,4.41,4.41,0,0,1,1-3,3.37,3.37,0,0,1,2.62-1.17,2.66,2.66,0,0,1,2.84,2.87,4,4,0,0,1-.17,1.24Zm.07-.83,4.32,0a2.66,2.66,0,0,0,0-.34,1.78,1.78,0,0,0-1.87-2A2.52,2.52,0,0,0,1342.41,157.2Z"/><path class="b765bd75-83bb-49b0-b357-46cf6fa757ad" d="M1356,161.89h-1v-5c0-1.36-.53-2-1.72-2a3.38,3.38,0,0,0-2.37,1.11v5.9h-1V154.1l1-.22v1.28a3.79,3.79,0,0,1,2.66-1.28,2.35,2.35,0,0,1,2.48,2.67Z"/><path class="b765bd75-83bb-49b0-b357-46cf6fa757ad" d="M1358.29,154.1h1v5c0,1.31.56,2,1.69,2a3.27,3.27,0,0,0,2.39-1.1v-5.9h1.06v7.79l-1.06.22v-1.26a3.73,3.73,0,0,1-2.68,1.26,2.36,2.36,0,0,1-2.45-2.67Z"/><path class="b765bd75-83bb-49b0-b357-46cf6fa757ad" d="M60.08,522.29h1.05V533H60l-6.08-9.2v9.1H52.82V522.29h1.23l6,9.11Z"/><path class="b765bd75-83bb-49b0-b357-46cf6fa757ad" d="M67.87,532h-.05a2.85,2.85,0,0,1-2.28,1.16A2.25,2.25,0,0,1,63.07,531c0-1.67,1.58-2.58,4.73-2.77v-.46A1.63,1.63,0,0,0,66,525.9a4.74,4.74,0,0,0-2.55.93l-.23-1a5.4,5.4,0,0,1,2.89-.94,2.45,2.45,0,0,1,2.78,2.79v3.74c0,.61.14.8.78.78l-.06.87C68.56,533.16,68,532.78,67.87,532Zm-.07-.78v-2.28c-2.62.29-3.62.87-3.62,1.94a1.42,1.42,0,0,0,1.6,1.36A2.66,2.66,0,0,0,67.8,531.2Z"/><path class="b765bd75-83bb-49b0-b357-46cf6fa757ad" d="M74.05,532.93h-1L70,525.13h1.13l2.47,6.43L76,525.13h1.11Z"/><path class="b765bd75-83bb-49b0-b357-46cf6fa757ad" d="M85.21,528.92a4.38,4.38,0,0,1-1.07,3,3.57,3.57,0,0,1-2.77,1.19,4.37,4.37,0,0,1-1.91-.43l-1,.46V521.46l1-.22V526a3.34,3.34,0,0,1,2.35-1C83.86,525,85.21,526.58,85.21,528.92Zm-1.09.05c0-1.8-1-3-2.52-3a3.07,3.07,0,0,0-2.14.87v4.77a3.08,3.08,0,0,0,2,.62C83.08,532.19,84.12,530.89,84.12,529Z"/><path class="b765bd75-83bb-49b0-b357-46cf6fa757ad" d="M91.22,532h0a2.83,2.83,0,0,1-2.27,1.16A2.25,2.25,0,0,1,86.43,531c0-1.67,1.58-2.58,4.73-2.77v-.46a1.63,1.63,0,0,0-1.84-1.85,4.71,4.71,0,0,0-2.55.93l-.24-1a5.46,5.46,0,0,1,2.89-.94,2.46,2.46,0,0,1,2.79,2.79v3.74c0,.61.14.8.78.78l-.07.87C91.92,533.16,91.34,532.78,91.22,532Zm-.06-.78v-2.28c-2.62.29-3.62.87-3.62,1.94a1.42,1.42,0,0,0,1.59,1.36A2.67,2.67,0,0,0,91.16,531.2Z"/><path class="b765bd75-83bb-49b0-b357-46cf6fa757ad" d="M95.61,527.92v5h-1v-7.79l1-.22v1.67a2.56,2.56,0,0,1,2.3-1.67,2.71,2.71,0,0,1,1.36.36l-.28,1a2.28,2.28,0,0,0-1.19-.34Q96.51,525.91,95.61,527.92Z"/><rect class="b27b6480-27d6-4179-ac13-648975c83e2a" x="249.55" y="578.69" width="178" height="50" rx="9"/><path class="b765bd75-83bb-49b0-b357-46cf6fa757ad" d="M270.26,599.92v9.61h-1.09v-9.61h-3.74v-1H274v1Z"/><path class="b765bd75-83bb-49b0-b357-46cf6fa757ad" d="M274.56,605.67v.09c.05,1.78,1.1,3,2.72,3a4.12,4.12,0,0,0,2.26-.64l.2,1a4.63,4.63,0,0,1-2.49.66,3.73,3.73,0,0,1-3.76-4,4.37,4.37,0,0,1,1.05-3,3.35,3.35,0,0,1,2.62-1.18,2.67,2.67,0,0,1,2.84,2.87,4.11,4.11,0,0,1-.17,1.25Zm.07-.83,4.32,0a2.66,2.66,0,0,0,0-.34,1.78,1.78,0,0,0-1.87-2A2.52,2.52,0,0,0,274.63,604.84Z"/><path class="b765bd75-83bb-49b0-b357-46cf6fa757ad" d="M283,604.53v5H282v-7.79l1.05-.22v1.67a2.56,2.56,0,0,1,2.3-1.67,2.71,2.71,0,0,1,1.36.36l-.27,1a2.24,2.24,0,0,0-1.19-.34C284.37,602.53,283.64,603.19,283,604.53Z"/><path class="b765bd75-83bb-49b0-b357-46cf6fa757ad" d="M298.82,609.53h-1.06v-5c0-1.32-.54-2-1.64-2a3.27,3.27,0,0,0-2.2,1,4.93,4.93,0,0,1,0,.69v5.31H292.9v-5c0-1.32-.54-2-1.65-2a3.24,3.24,0,0,0-2.16.9v6.1h-1v-7.79l1-.22v1.07a3.65,3.65,0,0,1,2.47-1.07,2.09,2.09,0,0,1,2.11,1.29,3.87,3.87,0,0,1,2.75-1.29c1.5,0,2.4,1,2.4,2.69Z"/><path class="b765bd75-83bb-49b0-b357-46cf6fa757ad" d="M305.89,607.4c0,1.41-1.19,2.35-2.79,2.35a4.69,4.69,0,0,1-2.55-.7l.29-1a4.06,4.06,0,0,0,2.3.72c1,0,1.75-.5,1.75-1.31a1,1,0,0,0-.12-.49,1.67,1.67,0,0,0-.27-.36,1.8,1.8,0,0,0-.48-.27c-.22-.11-.39-.17-.49-.21l-.6-.18c-1.36-.41-2.26-1-2.26-2.21,0-1.4,1.11-2.25,2.64-2.25a5,5,0,0,1,2.36.58l-.31.95a4.29,4.29,0,0,0-2.12-.58c-.95,0-1.57.45-1.57,1.19a.88.88,0,0,0,.12.46,1.25,1.25,0,0,0,.26.34,1.18,1.18,0,0,0,.46.27l.49.21c.12,0,.32.1.6.19C305,605.53,305.89,606.11,305.89,607.4Z"/><path class="b765bd75-83bb-49b0-b357-46cf6fa757ad" d="M315.8,608.59h-.05a2.85,2.85,0,0,1-2.28,1.16,2.24,2.24,0,0,1-2.46-2.16c0-1.67,1.58-2.58,4.72-2.77v-.46a1.62,1.62,0,0,0-1.83-1.85,4.76,4.76,0,0,0-2.55.93l-.24-1a5.43,5.43,0,0,1,2.89-.94,2.46,2.46,0,0,1,2.79,2.79v3.74c0,.61.13.8.78.78l-.07.87C316.5,609.77,315.92,609.39,315.8,608.59Zm-.07-.78v-2.28c-2.61.29-3.62.87-3.62,1.94a1.42,1.42,0,0,0,1.6,1.36A2.63,2.63,0,0,0,315.73,607.81Z"/><path class="b765bd75-83bb-49b0-b357-46cf6fa757ad" d="M325.32,609.53h-1.05v-5c0-1.36-.53-2-1.72-2a3.33,3.33,0,0,0-2.36,1.1v5.9h-1.06v-7.79l1.06-.22v1.28a3.76,3.76,0,0,1,2.65-1.28,2.35,2.35,0,0,1,2.48,2.67Z"/><path class="b765bd75-83bb-49b0-b357-46cf6fa757ad" d="M333,602v-3.93l1.06-.22v11.68H333v-.73a3.23,3.23,0,0,1-2.26,1c-2.09,0-3.48-1.65-3.48-4a4.17,4.17,0,0,1,1.09-3,3.65,3.65,0,0,1,2.77-1.16A4.34,4.34,0,0,1,333,602Zm0,1.12a3.08,3.08,0,0,0-1.93-.59c-1.67,0-2.72,1.29-2.72,3.16s1,3.09,2.58,3.09a2.93,2.93,0,0,0,2.07-.87v-4.79Z"/><path class="b765bd75-83bb-49b0-b357-46cf6fa757ad" d="M348.32,599.55l-.34,1a5.41,5.41,0,0,0-3-.85c-2.39,0-4,1.68-4,4.54s1.58,4.55,4.05,4.55a4.84,4.84,0,0,0,3-1l.21,1.07a5.74,5.74,0,0,1-3.2.87,4.8,4.8,0,0,1-3.72-1.5,6.4,6.4,0,0,1,0-8,4.84,4.84,0,0,1,3.69-1.52A6.16,6.16,0,0,1,348.32,599.55Z"/><path class="b765bd75-83bb-49b0-b357-46cf6fa757ad" d="M357.11,605.62a4.11,4.11,0,0,1-1.09,3,3.6,3.6,0,0,1-2.73,1.16,3.53,3.53,0,0,1-2.71-1.12,4.23,4.23,0,0,1-1.05-3,4.18,4.18,0,0,1,1.1-3,3.65,3.65,0,0,1,2.74-1.14,3.53,3.53,0,0,1,2.7,1.12A4.18,4.18,0,0,1,357.11,605.62Zm-1,0c0-1.92-1.08-3.18-2.75-3.18s-2.74,1.28-2.74,3.15,1.09,3.18,2.76,3.18S356.07,607.52,356.07,605.65Z"/><path class="b765bd75-83bb-49b0-b357-46cf6fa757ad" d="M365.25,609.53H364.2v-5c0-1.36-.53-2-1.72-2a3.33,3.33,0,0,0-2.36,1.1v5.9h-1.05v-7.79l1.05-.22v1.28a3.76,3.76,0,0,1,2.65-1.28c1.57,0,2.48,1,2.48,2.67Z"/><path class="b765bd75-83bb-49b0-b357-46cf6fa757ad" d="M372.89,602v-3.93l1.05-.22v11.68h-1.05v-.73a3.25,3.25,0,0,1-2.26,1c-2.1,0-3.49-1.65-3.49-4a4.17,4.17,0,0,1,1.09-3,3.65,3.65,0,0,1,2.77-1.16A4.35,4.35,0,0,1,372.89,602Zm0,1.12a3.11,3.11,0,0,0-1.94-.59c-1.67,0-2.72,1.29-2.72,3.16s1,3.09,2.58,3.09a3,3,0,0,0,2.08-.87v-4.79Z"/><path class="b765bd75-83bb-49b0-b357-46cf6fa757ad" d="M377.65,599.18a.83.83,0,0,1-.19.54.69.69,0,0,1-1,0,.85.85,0,0,1,0-1.07.63.63,0,0,1,.52-.22.64.64,0,0,1,.53.22A.82.82,0,0,1,377.65,599.18Zm-.19,10.35h-1v-7.79l1-.22Z"/><path class="b765bd75-83bb-49b0-b357-46cf6fa757ad" d="M383.82,609.38a4.08,4.08,0,0,1-1.74.4c-1.44,0-2.14-.81-2.09-2.44l.12-4.61-1.19-.07L379,602l1.18-.27.05-1.77h1l-.05,1.82h2.6l-.05.93h-2.58l-.12,4.66c0,1,.34,1.46,1.14,1.46a3.85,3.85,0,0,0,1.49-.37Z"/><path class="b765bd75-83bb-49b0-b357-46cf6fa757ad" d="M386.79,599.18a.82.82,0,0,1-.18.54.71.71,0,0,1-1.06,0,.82.82,0,0,1-.18-.54.81.81,0,0,1,.18-.53.75.75,0,0,1,1.06,0A.81.81,0,0,1,386.79,599.18Zm-.18,10.35h-1.06v-7.79l1.06-.22Z"/><path class="b765bd75-83bb-49b0-b357-46cf6fa757ad" d="M396.16,605.62a4.11,4.11,0,0,1-1.09,3,3.6,3.6,0,0,1-2.74,1.16,3.52,3.52,0,0,1-2.7-1.12,4.23,4.23,0,0,1-1.05-3,4.18,4.18,0,0,1,1.1-3,3.62,3.62,0,0,1,2.74-1.14,3.54,3.54,0,0,1,2.7,1.12A4.18,4.18,0,0,1,396.16,605.62Zm-1,0c0-1.92-1.09-3.18-2.75-3.18s-2.74,1.28-2.74,3.15,1.09,3.18,2.76,3.18S395.12,607.52,395.12,605.65Z"/><path class="b765bd75-83bb-49b0-b357-46cf6fa757ad" d="M404.3,609.53h-1.05v-5c0-1.36-.53-2-1.72-2a3.33,3.33,0,0,0-2.36,1.1v5.9h-1.06v-7.79l1.06-.22v1.28a3.76,3.76,0,0,1,2.65-1.28,2.35,2.35,0,0,1,2.48,2.67Z"/><path class="b765bd75-83bb-49b0-b357-46cf6fa757ad" d="M411.37,607.4c0,1.41-1.19,2.35-2.78,2.35a4.69,4.69,0,0,1-2.55-.7l.28-1a4.06,4.06,0,0,0,2.3.72c1,0,1.75-.5,1.75-1.31a.89.89,0,0,0-.12-.49,1.2,1.2,0,0,0-.27-.36,1.52,1.52,0,0,0-.48-.27c-.22-.11-.39-.17-.49-.21l-.59-.18c-1.36-.41-2.26-1-2.26-2.21,0-1.4,1.1-2.25,2.63-2.25a5,5,0,0,1,2.36.58l-.3.95a4.33,4.33,0,0,0-2.13-.58c-1,0-1.56.45-1.56,1.19a.79.79,0,0,0,.12.46,1.25,1.25,0,0,0,.25.34,1.26,1.26,0,0,0,.46.27l.49.21c.12,0,.33.1.6.19C410.49,605.53,411.37,606.11,411.37,607.4Z"/><rect class="b27b6480-27d6-4179-ac13-648975c83e2a" x="453.17" y="578.69" width="178" height="50" rx="9"/><path class="b765bd75-83bb-49b0-b357-46cf6fa757ad" d="M504.66,602.22c0,2.29-1.58,3.5-4.28,3.55l-1.45,0v3.74h-1.09V598.9h2.67C503.25,598.9,504.66,600.2,504.66,602.22Zm-1.12,0c0-1.53-1.07-2.36-3.06-2.36h-1.55v4.88l1.52,0C502.5,604.72,503.54,603.88,503.54,602.27Z"/><path class="b765bd75-83bb-49b0-b357-46cf6fa757ad" d="M507.58,604.53v5h-1.05v-7.79l1.05-.22v1.67a2.57,2.57,0,0,1,2.3-1.67,2.69,2.69,0,0,1,1.36.36l-.27,1a2.24,2.24,0,0,0-1.19-.34C508.91,602.53,508.18,603.19,507.58,604.53Z"/><path class="b765bd75-83bb-49b0-b357-46cf6fa757ad" d="M513.84,599.18a.83.83,0,0,1-.19.54.65.65,0,0,1-.52.24.67.67,0,0,1-.53-.24.85.85,0,0,1,0-1.07.65.65,0,0,1,.53-.22.63.63,0,0,1,.52.22A.82.82,0,0,1,513.84,599.18Zm-.19,10.35h-1v-7.79l1-.22Z"/><path class="b765bd75-83bb-49b0-b357-46cf6fa757ad" d="M519,609.55h-1L515,601.74h1.14l2.47,6.43,2.38-6.43h1.1Z"/><path class="b765bd75-83bb-49b0-b357-46cf6fa757ad" d="M527.47,608.59h-.05a2.83,2.83,0,0,1-2.27,1.16,2.25,2.25,0,0,1-2.47-2.16c0-1.67,1.58-2.58,4.73-2.77v-.46a1.63,1.63,0,0,0-1.84-1.85,4.79,4.79,0,0,0-2.55.93l-.24-1a5.46,5.46,0,0,1,2.89-.94,2.46,2.46,0,0,1,2.79,2.79v3.74c0,.61.14.8.78.78l-.07.87C528.17,609.77,527.59,609.39,527.47,608.59Zm-.06-.78v-2.28c-2.62.29-3.62.87-3.62,1.94a1.42,1.42,0,0,0,1.59,1.36A2.67,2.67,0,0,0,527.41,607.81Z"/><path class="b765bd75-83bb-49b0-b357-46cf6fa757ad" d="M536.52,609.09a4.51,4.51,0,0,1-2.42.66c-2.32,0-3.8-1.63-3.8-4.1a4.13,4.13,0,0,1,1.08-3,3.6,3.6,0,0,1,2.74-1.16,4.32,4.32,0,0,1,2.43.67l-.27.95a3.75,3.75,0,0,0-2.16-.63c-1.68,0-2.74,1.24-2.74,3.11s1.09,3.14,2.76,3.14a4,4,0,0,0,2.16-.64Z"/><path class="b765bd75-83bb-49b0-b357-46cf6fa757ad" d="M544.39,601.74l-3,7.7-.63,1.69c-.68,1.85-1.39,2.44-2.51,2.44a3.81,3.81,0,0,1-1.51-.35l.32-1a2.57,2.57,0,0,0,1.19.34c.65,0,1.07-.39,1.6-1.8l.52-1.38-3-7.67h1.14l2.45,6.43,2.39-6.43Z"/><path class="b765bd75-83bb-49b0-b357-46cf6fa757ad" d="M556.51,602.22c0,2.29-1.58,3.5-4.28,3.55l-1.45,0v3.74h-1.09V598.9h2.67C555.1,598.9,556.51,600.2,556.51,602.22Zm-1.12,0c0-1.53-1.07-2.36-3.06-2.36h-1.55v4.88l1.51,0C554.35,604.72,555.39,603.88,555.39,602.27Z"/><path class="b765bd75-83bb-49b0-b357-46cf6fa757ad" d="M565.2,605.62a4.11,4.11,0,0,1-1.09,3,3.6,3.6,0,0,1-2.74,1.16,3.52,3.52,0,0,1-2.7-1.12,4.68,4.68,0,0,1,.05-6,3.62,3.62,0,0,1,2.74-1.14,3.56,3.56,0,0,1,2.7,1.12A4.18,4.18,0,0,1,565.2,605.62Zm-1,0c0-1.92-1.09-3.18-2.75-3.18s-2.74,1.28-2.74,3.15,1.09,3.18,2.75,3.18S564.16,607.52,564.16,605.65Z"/><path class="b765bd75-83bb-49b0-b357-46cf6fa757ad" d="M567.15,609.53V598.07l1.06-.22v11.68Z"/><path class="b765bd75-83bb-49b0-b357-46cf6fa757ad" d="M571.91,599.18a.88.88,0,0,1-.18.54.71.71,0,0,1-1.06,0,.85.85,0,0,1,0-1.07.75.75,0,0,1,1.06,0A.87.87,0,0,1,571.91,599.18Zm-.18,10.35h-1.06v-7.79l1.06-.22Z"/><path class="b765bd75-83bb-49b0-b357-46cf6fa757ad" d="M579.92,609.09a4.51,4.51,0,0,1-2.42.66c-2.32,0-3.8-1.63-3.8-4.1a4.13,4.13,0,0,1,1.08-3,3.6,3.6,0,0,1,2.74-1.16,4.32,4.32,0,0,1,2.43.67l-.27.95a3.75,3.75,0,0,0-2.16-.63c-1.68,0-2.74,1.24-2.74,3.11s1.09,3.14,2.76,3.14a4,4,0,0,0,2.16-.64Z"/><path class="b765bd75-83bb-49b0-b357-46cf6fa757ad" d="M587.79,601.74l-3,7.7-.63,1.69c-.68,1.85-1.39,2.44-2.51,2.44a3.81,3.81,0,0,1-1.51-.35l.32-1a2.57,2.57,0,0,0,1.19.34c.65,0,1.07-.39,1.6-1.8l.52-1.38-3-7.67h1.14l2.45,6.43,2.39-6.43Z"/><rect class="b765bd75-83bb-49b0-b357-46cf6fa757ad" x="45.93" y="578.69" width="178" height="50" rx="9"/><path class="ba894c68-1ea9-45f7-9e46-215780c5839a" d="M96.94,608.78c1.48,0,2.51-.87,2.51-2s-.81-1.68-2.68-2.22a9.79,9.79,0,0,1-1.12-.41,4,4,0,0,1-1-.53,2.27,2.27,0,0,1-.75-.85,2.61,2.61,0,0,1-.25-1.19c0-1.68,1.41-2.89,3.39-2.89a5.81,5.81,0,0,1,3.2.92l-.39.95a4.83,4.83,0,0,0-2.79-.88c-1.53,0-2.36.76-2.36,1.82s.8,1.53,2.68,2.12c.45.14.82.28,1.14.41a6.38,6.38,0,0,1,1,.56,2.25,2.25,0,0,1,.73.89,2.92,2.92,0,0,1,.24,1.22c0,1.79-1.46,3.06-3.58,3.06a6.15,6.15,0,0,1-3.42-1l.39-1A5.34,5.34,0,0,0,96.94,608.78Z"/><path class="ba894c68-1ea9-45f7-9e46-215780c5839a" d="M109.5,605.62a4.06,4.06,0,0,1-1.09,3,3.6,3.6,0,0,1-2.73,1.16,3.53,3.53,0,0,1-2.71-1.12,4.23,4.23,0,0,1-1-3,4.14,4.14,0,0,1,1.11-3,3.61,3.61,0,0,1,2.73-1.14,3.53,3.53,0,0,1,2.7,1.12A4.18,4.18,0,0,1,109.5,605.62Zm-1,0c0-1.92-1.08-3.18-2.75-3.18s-2.74,1.28-2.74,3.15,1.09,3.18,2.76,3.18S108.46,607.52,108.46,605.65Z"/><path class="ba894c68-1ea9-45f7-9e46-215780c5839a" d="M117.17,609.09a4.51,4.51,0,0,1-2.42.66c-2.32,0-3.8-1.63-3.8-4.1a4.13,4.13,0,0,1,1.08-3,3.6,3.6,0,0,1,2.74-1.16,4.32,4.32,0,0,1,2.43.67l-.27.95a3.75,3.75,0,0,0-2.16-.63c-1.68,0-2.74,1.24-2.74,3.11s1.09,3.14,2.76,3.14a4,4,0,0,0,2.16-.64Z"/><path class="ba894c68-1ea9-45f7-9e46-215780c5839a" d="M120.38,599.18a.88.88,0,0,1-.18.54.71.71,0,0,1-1.06,0,.85.85,0,0,1,0-1.07.75.75,0,0,1,1.06,0A.87.87,0,0,1,120.38,599.18Zm-.18,10.35h-1.06v-7.79l1.06-.22Z"/><path class="ba894c68-1ea9-45f7-9e46-215780c5839a" d="M126.81,608.59h0a2.85,2.85,0,0,1-2.28,1.16,2.25,2.25,0,0,1-2.47-2.16c0-1.67,1.58-2.58,4.73-2.77v-.46a1.63,1.63,0,0,0-1.84-1.85,4.82,4.82,0,0,0-2.55.93l-.23-1a5.4,5.4,0,0,1,2.89-.94,2.45,2.45,0,0,1,2.78,2.79v3.74c0,.61.14.8.78.78l-.06.87C127.5,609.77,126.93,609.39,126.81,608.59Zm-.07-.78v-2.28c-2.62.29-3.62.87-3.62,1.94a1.42,1.42,0,0,0,1.6,1.36A2.66,2.66,0,0,0,126.74,607.81Z"/><path class="ba894c68-1ea9-45f7-9e46-215780c5839a" d="M130.14,609.53V598.07l1.05-.22v11.68Z"/><path class="ba894c68-1ea9-45f7-9e46-215780c5839a" d="M146.85,600.25l-3.48,9.21h-1.19l-3.52-9.23-.19,9.3H137.4l.36-10.62h1.46l3.58,9.38,3.54-9.38h1.44l.34,10.62H147Z"/><path class="ba894c68-1ea9-45f7-9e46-215780c5839a" d="M151,605.67v.09c0,1.78,1.1,3,2.72,3a4.17,4.17,0,0,0,2.26-.64l.2,1a4.66,4.66,0,0,1-2.5.66,3.73,3.73,0,0,1-3.76-4,4.33,4.33,0,0,1,1.06-3,3.33,3.33,0,0,1,2.62-1.18,2.66,2.66,0,0,1,2.83,2.88,4.09,4.09,0,0,1-.17,1.24Zm.06-.83,4.32,0a1.34,1.34,0,0,0,0-.34,1.79,1.79,0,0,0-1.87-2A2.52,2.52,0,0,0,151.08,604.84Z"/><path class="ba894c68-1ea9-45f7-9e46-215780c5839a" d="M163.68,602v-3.93l1-.22v11.68h-1v-.73a3.25,3.25,0,0,1-2.26,1c-2.09,0-3.49-1.65-3.49-4a4.17,4.17,0,0,1,1.09-3,3.65,3.65,0,0,1,2.77-1.16A4.35,4.35,0,0,1,163.68,602Zm0,1.12a3.11,3.11,0,0,0-1.94-.59c-1.66,0-2.72,1.29-2.72,3.16s1,3.09,2.59,3.09a2.94,2.94,0,0,0,2.07-.87v-4.79Z"/><path class="ba894c68-1ea9-45f7-9e46-215780c5839a" d="M168.44,599.18a.83.83,0,0,1-.19.54.65.65,0,0,1-.52.24.67.67,0,0,1-.53-.24.85.85,0,0,1,0-1.07.65.65,0,0,1,.53-.22.63.63,0,0,1,.52.22A.82.82,0,0,1,168.44,599.18Zm-.19,10.35H167.2v-7.79l1.05-.22Z"/><path class="ba894c68-1ea9-45f7-9e46-215780c5839a" d="M174.87,608.59h-.05a2.85,2.85,0,0,1-2.28,1.16,2.25,2.25,0,0,1-2.47-2.16c0-1.67,1.58-2.58,4.73-2.77v-.46a1.63,1.63,0,0,0-1.84-1.85,4.82,4.82,0,0,0-2.55.93l-.24-1a5.46,5.46,0,0,1,2.89-.94,2.46,2.46,0,0,1,2.79,2.79v3.74c0,.61.14.8.78.78l-.06.87C175.56,609.77,175,609.39,174.87,608.59Zm-.07-.78v-2.28c-2.62.29-3.62.87-3.62,1.94a1.42,1.42,0,0,0,1.6,1.36A2.66,2.66,0,0,0,174.8,607.81Z"/><rect class="b27b6480-27d6-4179-ac13-648975c83e2a" x="1257.66" y="578.69" width="178" height="50" rx="9"/><path class="b765bd75-83bb-49b0-b357-46cf6fa757ad" d="M1318.59,599.55l-.34,1a5.4,5.4,0,0,0-3-.85c-2.4,0-4,1.68-4,4.54s1.59,4.55,4,4.55a4.84,4.84,0,0,0,3-1l.21,1.07a5.74,5.74,0,0,1-3.2.87,4.83,4.83,0,0,1-3.72-1.5,6.4,6.4,0,0,1,0-8,4.86,4.86,0,0,1,3.69-1.52A6.16,6.16,0,0,1,1318.59,599.55Z"/><path class="b765bd75-83bb-49b0-b357-46cf6fa757ad" d="M1327.38,605.62a4.06,4.06,0,0,1-1.09,3,3.6,3.6,0,0,1-2.73,1.16,3.49,3.49,0,0,1-2.7-1.12,4.65,4.65,0,0,1,.05-6,3.61,3.61,0,0,1,2.73-1.14,3.57,3.57,0,0,1,2.71,1.12A4.22,4.22,0,0,1,1327.38,605.62Zm-1,0c0-1.92-1.09-3.18-2.76-3.18s-2.73,1.28-2.73,3.15,1.08,3.18,2.75,3.18S1326.35,607.52,1326.35,605.65Z"/><path class="b765bd75-83bb-49b0-b357-46cf6fa757ad" d="M1335.53,609.53h-1.06v-5c0-1.36-.53-2-1.72-2a3.33,3.33,0,0,0-2.36,1.1v5.9h-1.05v-7.79l1.05-.22v1.28a3.77,3.77,0,0,1,2.65-1.28,2.35,2.35,0,0,1,2.49,2.67Z"/><path class="b765bd75-83bb-49b0-b357-46cf6fa757ad" d="M1341.8,609.38a4.08,4.08,0,0,1-1.74.4c-1.44,0-2.14-.81-2.09-2.44l.12-4.61-1.19-.07,0-.66,1.18-.27,0-1.77h1l0,1.82h2.6l0,.93h-2.58l-.12,4.66c0,1,.34,1.46,1.14,1.46a3.85,3.85,0,0,0,1.49-.37Z"/><path class="b765bd75-83bb-49b0-b357-46cf6fa757ad" d="M1347.65,608.59h-.05a2.85,2.85,0,0,1-2.28,1.16,2.25,2.25,0,0,1-2.47-2.16c0-1.67,1.58-2.58,4.73-2.77v-.46a1.63,1.63,0,0,0-1.84-1.85,4.82,4.82,0,0,0-2.55.93l-.24-1a5.46,5.46,0,0,1,2.89-.94,2.46,2.46,0,0,1,2.79,2.79v3.74c0,.61.14.8.78.78l-.06.87C1348.34,609.77,1347.77,609.39,1347.65,608.59Zm-.07-.78v-2.28c-2.62.29-3.62.87-3.62,1.94a1.42,1.42,0,0,0,1.6,1.36A2.66,2.66,0,0,0,1347.58,607.81Z"/><path class="b765bd75-83bb-49b0-b357-46cf6fa757ad" d="M1356.69,609.09a4.47,4.47,0,0,1-2.41.66c-2.33,0-3.81-1.63-3.81-4.1a4.14,4.14,0,0,1,1.09-3,3.57,3.57,0,0,1,2.73-1.16,4.32,4.32,0,0,1,2.43.67l-.27.95a3.75,3.75,0,0,0-2.16-.63c-1.68,0-2.73,1.24-2.73,3.11s1.08,3.14,2.75,3.14a4,4,0,0,0,2.16-.64Z"/><path class="b765bd75-83bb-49b0-b357-46cf6fa757ad" d="M1362.52,609.38a4,4,0,0,1-1.73.4c-1.45,0-2.14-.81-2.09-2.44l.12-4.61-1.19-.07,0-.66,1.17-.27.05-1.77h1l-.05,1.82h2.6l0,.93h-2.58l-.12,4.66c0,1,.34,1.46,1.14,1.46a3.81,3.81,0,0,0,1.49-.37Z"/><path class="b765bd75-83bb-49b0-b357-46cf6fa757ad" d="M1376.14,605.47c0,2.68-1.41,4.28-4,4.28s-4-1.56-4-4.11V598.9h1.06v6.6c0,2.07,1,3.25,3,3.25s2.91-1.12,2.91-3.27V598.9h1.07Z"/><path class="b765bd75-83bb-49b0-b357-46cf6fa757ad" d="M1383.26,607.4c0,1.41-1.19,2.35-2.79,2.35a4.69,4.69,0,0,1-2.55-.7l.29-1a4.06,4.06,0,0,0,2.3.72c1,0,1.75-.5,1.75-1.31a1,1,0,0,0-.12-.49,1.67,1.67,0,0,0-.27-.36,1.8,1.8,0,0,0-.48-.27c-.22-.11-.39-.17-.49-.21l-.6-.18c-1.36-.41-2.26-1-2.26-2.21,0-1.4,1.11-2.25,2.64-2.25a5,5,0,0,1,2.36.58l-.31.95a4.29,4.29,0,0,0-2.12-.58c-.95,0-1.57.45-1.57,1.19a.88.88,0,0,0,.12.46,1.25,1.25,0,0,0,.26.34,1.18,1.18,0,0,0,.46.27l.49.21c.12,0,.32.1.6.19C1382.38,605.53,1383.26,606.11,1383.26,607.4Z"/><rect class="b27b6480-27d6-4179-ac13-648975c83e2a" x="1054.04" y="578.69" width="178" height="50" rx="9"/><path class="b765bd75-83bb-49b0-b357-46cf6fa757ad" d="M1119.71,608.78c1.48,0,2.52-.87,2.52-2s-.82-1.68-2.69-2.22a10.56,10.56,0,0,1-1.12-.41,4.92,4.92,0,0,1-1-.53,2.27,2.27,0,0,1-.75-.85,2.61,2.61,0,0,1-.25-1.19c0-1.68,1.41-2.89,3.4-2.89a5.86,5.86,0,0,1,3.2.92l-.4.95a4.8,4.8,0,0,0-2.78-.88c-1.53,0-2.37.76-2.37,1.82s.8,1.53,2.69,2.12a12,12,0,0,1,1.14.41,7.52,7.52,0,0,1,1,.56,2.34,2.34,0,0,1,.73.89,3.08,3.08,0,0,1,.24,1.22c0,1.78-1.47,3.06-3.59,3.06a6.17,6.17,0,0,1-3.42-1l.39-1A5.34,5.34,0,0,0,1119.71,608.78Z"/><path class="b765bd75-83bb-49b0-b357-46cf6fa757ad" d="M1126.46,599.18a.82.82,0,0,1-.18.54.71.71,0,0,1-1.06,0,.85.85,0,0,1,0-1.07.75.75,0,0,1,1.06,0A.81.81,0,0,1,1126.46,599.18Zm-.18,10.35h-1.06v-7.79l1.06-.22Z"/><path class="b765bd75-83bb-49b0-b357-46cf6fa757ad" d="M1132.63,609.38a4,4,0,0,1-1.73.4c-1.45,0-2.14-.81-2.09-2.44l.12-4.61-1.19-.07,0-.66,1.17-.27,0-1.77h1l-.06,1.82h2.61l-.06.93h-2.58l-.12,4.66c0,1,.34,1.46,1.14,1.46a3.85,3.85,0,0,0,1.5-.37Z"/><path class="b765bd75-83bb-49b0-b357-46cf6fa757ad" d="M1134.83,605.67v.09c.05,1.78,1.1,3,2.72,3a4.14,4.14,0,0,0,2.26-.64l.2,1a4.66,4.66,0,0,1-2.5.66,3.72,3.72,0,0,1-3.75-4,4.32,4.32,0,0,1,1-3,3.33,3.33,0,0,1,2.62-1.18,2.67,2.67,0,0,1,2.84,2.87,4.44,4.44,0,0,1-.17,1.25Zm.06-.83,4.32,0a1.34,1.34,0,0,0,0-.34,1.78,1.78,0,0,0-1.87-2A2.53,2.53,0,0,0,1134.89,604.84Z"/><path class="b765bd75-83bb-49b0-b357-46cf6fa757ad" d="M1153,609.53h-1v-5c0-1.32-.54-2-1.65-2a3.23,3.23,0,0,0-2.19,1c0,.13,0,.37,0,.69v5.31h-1.05v-5q0-2-1.65-2a3.21,3.21,0,0,0-2.16.9v6.1h-1v-7.79l1-.22v1.07a3.63,3.63,0,0,1,2.46-1.07,2.08,2.08,0,0,1,2.11,1.29,3.9,3.9,0,0,1,2.76-1.29c1.49,0,2.39,1,2.39,2.69Z"/><path class="b765bd75-83bb-49b0-b357-46cf6fa757ad" d="M1159.56,608.59h0a2.85,2.85,0,0,1-2.28,1.16,2.24,2.24,0,0,1-2.46-2.16c0-1.67,1.58-2.58,4.72-2.77v-.46a1.62,1.62,0,0,0-1.83-1.85,4.76,4.76,0,0,0-2.55.93l-.24-1a5.43,5.43,0,0,1,2.89-.94,2.46,2.46,0,0,1,2.79,2.79v3.74c0,.61.13.8.78.78l-.07.87C1160.26,609.77,1159.68,609.39,1159.56,608.59Zm-.07-.78v-2.28c-2.61.29-3.62.87-3.62,1.94a1.42,1.42,0,0,0,1.6,1.36A2.63,2.63,0,0,0,1159.49,607.81Z"/><path class="b765bd75-83bb-49b0-b357-46cf6fa757ad" d="M1164,602.53a3.26,3.26,0,0,1,2.26-1c2.09,0,3.48,1.64,3.48,4a4.19,4.19,0,0,1-1.07,3,3.63,3.63,0,0,1-2.77,1.17,4.41,4.41,0,0,1-1.9-.41v4.15h-1.06V601.71l1.06-.22Zm0,.88v4.78a3.11,3.11,0,0,0,2,.61c1.63,0,2.71-1.31,2.71-3.18s-1-3.08-2.57-3.08A3,3,0,0,0,1164,603.41Z"/><path class="b9f27813-ce35-4796-a162-c8af1e0f0f8f" d="M37.48,210.71H1472.94"/><path class="b9f27813-ce35-4796-a162-c8af1e0f0f8f" d="M37.48,553.83H1472.94"/></g></g></svg>