<svg xmlns="http://www.w3.org/2000/svg" viewBox="0 0 1507.26 667.74"><defs><style>.a9fbddfa-f584-4d4e-ba20-798bf7e1ce19,.aaf7874f-7097-49a0-9334-0ee242475572,.b386d1b9-a216-43c3-b83f-ed7e61b4b85b,.f8d26d33-da0d-405f-917e-257a5e050eef{fill:none;stroke:#799400;}.a9fbddfa-f584-4d4e-ba20-798bf7e1ce19,.b386d1b9-a216-43c3-b83f-ed7e61b4b85b{stroke-linecap:round;stroke-linejoin:round;}.a9fbddfa-f584-4d4e-ba20-798bf7e1ce19,.aaf7874f-7097-49a0-9334-0ee242475572{stroke-dasharray:5 5;}.e8a65cc8-d40f-441b-9cc9-253ce6d5147a{fill:#799400;}.f8d26d33-da0d-405f-917e-257a5e050eef{stroke-width:2px;}.af005155-5747-45be-8c7d-7e9691cee1c2{fill:#111115;}</style></defs><g id="a0db5ec0-acc9-4b70-8519-1059e0d228d1" data-name="Layer 2"><g id="baf8249e-54fa-467b-8c4e-8c5db3fde2c8" data-name="Layer 1"><path class="b386d1b9-a216-43c3-b83f-ed7e61b4b85b" d="M.5.5H1506.76V667.24H.5Z"/><path class="a9fbddfa-f584-4d4e-ba20-798bf7e1ce19" d="M441.48,264.42H639V506.11H441.48Z"/><path class="a9fbddfa-f584-4d4e-ba20-798bf7e1ce19" d="M655.1,264.42H852.6V581.84H655.1Z"/><path class="e8a65cc8-d40f-441b-9cc9-253ce6d5147a" d="M60.08,99.65h1.05v10.73H60l-6.08-9.2v9.09H52.82V99.65h1.23l6,9.11Z"/><path class="e8a65cc8-d40f-441b-9cc9-253ce6d5147a" d="M67.87,109.34h-.05a2.88,2.88,0,0,1-2.28,1.16,2.26,2.26,0,0,1-2.47-2.16q0-2.5,4.73-2.77v-.46A1.63,1.63,0,0,0,66,103.25a4.76,4.76,0,0,0-2.55.94l-.23-1a5.48,5.48,0,0,1,2.89-.93,2.45,2.45,0,0,1,2.78,2.79v3.74c0,.61.14.79.78.78l-.06.86C68.56,110.51,68,110.14,67.87,109.34Zm-.07-.78v-2.28c-2.62.29-3.62.87-3.62,1.94a1.43,1.43,0,0,0,1.6,1.36A2.66,2.66,0,0,0,67.8,108.56Z"/><path class="e8a65cc8-d40f-441b-9cc9-253ce6d5147a" d="M74.05,110.29h-1L70,102.49h1.14l2.46,6.43L76,102.49h1.11Z"/><path class="e8a65cc8-d40f-441b-9cc9-253ce6d5147a" d="M85.21,106.28a4.4,4.4,0,0,1-1.07,3,3.61,3.61,0,0,1-2.77,1.19,4.37,4.37,0,0,1-1.91-.43l-1,.46V98.82l1-.22v4.7a3.33,3.33,0,0,1,2.35-1C83.86,102.32,85.21,103.93,85.21,106.28Zm-1.09,0c0-1.8-1-3-2.52-3a3.07,3.07,0,0,0-2.14.87v4.77a3.08,3.08,0,0,0,2,.61C83.08,109.54,84.12,108.25,84.12,106.33Z"/><path class="e8a65cc8-d40f-441b-9cc9-253ce6d5147a" d="M91.22,109.34h0a2.84,2.84,0,0,1-2.27,1.16,2.26,2.26,0,0,1-2.47-2.16q0-2.5,4.73-2.77v-.46a1.63,1.63,0,0,0-1.84-1.86,4.73,4.73,0,0,0-2.55.94l-.24-1a5.54,5.54,0,0,1,2.89-.93,2.45,2.45,0,0,1,2.79,2.79v3.74c0,.61.14.79.78.78l-.07.86C91.92,110.51,91.34,110.14,91.22,109.34Zm-.06-.78v-2.28c-2.62.29-3.62.87-3.62,1.94a1.42,1.42,0,0,0,1.59,1.36A2.67,2.67,0,0,0,91.16,108.56Z"/><path class="e8a65cc8-d40f-441b-9cc9-253ce6d5147a" d="M95.61,105.28v5h-1v-7.78l1-.22v1.66a2.57,2.57,0,0,1,2.3-1.66,2.71,2.71,0,0,1,1.36.36l-.28,1a2.28,2.28,0,0,0-1.19-.34C96.94,103.27,96.21,103.93,95.61,105.28Z"/><rect class="f8d26d33-da0d-405f-917e-257a5e050eef" x="664.63" y="29.49" width="178" height="50" rx="9"/><path class="e8a65cc8-d40f-441b-9cc9-253ce6d5147a" d="M677.31,34H830c4.74,0,8.59,3.31,8.59,7.4V67.64c0,4.09-3.85,7.4-8.59,7.4H677.31c-4.74,0-8.59-3.31-8.59-7.4V41.35C668.72,37.26,672.57,34,677.31,34Z"/><path class="af005155-5747-45be-8c7d-7e9691cee1c2" d="M703.33,56.08v4.25h-1.09V49.71h2.85c2.57,0,3.86,1.14,3.86,3.06a3.08,3.08,0,0,1-2.46,3l2.94,4.57h-1.26L705.45,56Zm0-1,1.9-.07c1.5,0,2.64-.89,2.64-2.23s-1-2.12-2.89-2.12h-1.65Z"/><path class="af005155-5747-45be-8c7d-7e9691cee1c2" d="M718,56.42a4.13,4.13,0,0,1-1.09,3,3.63,3.63,0,0,1-2.74,1.15,3.52,3.52,0,0,1-2.7-1.12,4.67,4.67,0,0,1,0-6,3.59,3.59,0,0,1,2.74-1.14,3.52,3.52,0,0,1,2.7,1.12A4.16,4.16,0,0,1,718,56.42Zm-1,0c0-1.92-1.09-3.18-2.75-3.18s-2.74,1.27-2.74,3.14,1.09,3.18,2.75,3.18S717,58.33,717,56.46Z"/><path class="af005155-5747-45be-8c7d-7e9691cee1c2" d="M724,48.84l-.05.24c-.06.17-.09.32-.14.48l-.07.23a2.8,2.8,0,0,0-1.19-.32c-.86,0-1.29.61-1.29,1.82v1.29h2.45l0,.94h-2.4v6.81h-1V53.55l-1.25-.08.06-.67,1.18-.27V51.31c0-1.87.82-2.81,2.35-2.81A3.4,3.4,0,0,1,724,48.84Z"/><path class="af005155-5747-45be-8c7d-7e9691cee1c2" d="M729.18,48.84l0,.24c0,.17-.08.32-.13.48l-.07.23a2.8,2.8,0,0,0-1.19-.32c-.87,0-1.29.61-1.29,1.82v1.29h2.44l0,.94h-2.39v6.81h-1V53.55l-1.26-.08.07-.67,1.17-.27,0-1.22c0-1.87.82-2.81,2.34-2.81A3.37,3.37,0,0,1,729.18,48.84Z"/><path class="af005155-5747-45be-8c7d-7e9691cee1c2" d="M741.58,60.33V55.49h-6.23v4.84h-1.09V49.71h1.09V54.5h6.23V49.71h1.08V60.33Z"/><path class="af005155-5747-45be-8c7d-7e9691cee1c2" d="M752.32,56.42a4.13,4.13,0,0,1-1.09,3,3.62,3.62,0,0,1-2.73,1.15,3.53,3.53,0,0,1-2.71-1.12,4.67,4.67,0,0,1,.05-6,3.59,3.59,0,0,1,2.74-1.14,3.51,3.51,0,0,1,2.7,1.12A4.16,4.16,0,0,1,752.32,56.42Zm-1,0c0-1.92-1.09-3.18-2.75-3.18s-2.74,1.27-2.74,3.14,1.09,3.18,2.76,3.18S751.28,58.33,751.28,56.46Z"/><path class="af005155-5747-45be-8c7d-7e9691cee1c2" d="M765.05,60.33h-1v-5c0-1.33-.55-2-1.65-2a3.23,3.23,0,0,0-2.19,1c0,.14,0,.38,0,.7v5.3h-1.05v-5c0-1.33-.55-2-1.65-2a3.25,3.25,0,0,0-2.16.9v6.1h-1.06V52.55l1.06-.22V53.4a3.58,3.58,0,0,1,2.46-1.07,2.07,2.07,0,0,1,2.11,1.29,3.85,3.85,0,0,1,2.76-1.29c1.49,0,2.39,1,2.39,2.68Z"/><path class="af005155-5747-45be-8c7d-7e9691cee1c2" d="M768,56.48v.08c0,1.78,1.1,3,2.72,3a4,4,0,0,0,2.26-.65l.2,1a4.63,4.63,0,0,1-2.49.66,3.72,3.72,0,0,1-3.76-4,4.39,4.39,0,0,1,1-3,3.37,3.37,0,0,1,2.62-1.17,2.67,2.67,0,0,1,2.84,2.87,4,4,0,0,1-.17,1.24Zm.07-.84h4.32a2.75,2.75,0,0,0,0-.34,1.78,1.78,0,0,0-1.87-2A2.5,2.5,0,0,0,768.08,55.64Z"/><path class="af005155-5747-45be-8c7d-7e9691cee1c2" d="M776.49,53.33a3.25,3.25,0,0,1,2.26-.95c2.09,0,3.49,1.63,3.49,4a4.21,4.21,0,0,1-1.07,3,3.63,3.63,0,0,1-2.77,1.17,4.45,4.45,0,0,1-1.91-.4v4.14h-1V52.51l1-.22Zm0,.88V59a3.1,3.1,0,0,0,2,.61c1.63,0,2.7-1.31,2.7-3.18s-1-3.07-2.57-3.07A3.06,3.06,0,0,0,776.49,54.21Z"/><path class="af005155-5747-45be-8c7d-7e9691cee1c2" d="M788.33,59.4h-.06A2.83,2.83,0,0,1,786,60.55a2.25,2.25,0,0,1-2.47-2.15q0-2.51,4.73-2.77v-.46a1.63,1.63,0,0,0-1.84-1.86,4.73,4.73,0,0,0-2.55.94l-.24-1a5.54,5.54,0,0,1,2.89-.93,2.45,2.45,0,0,1,2.79,2.79v3.74c0,.61.14.79.78.78l-.07.86C789,60.57,788.44,60.2,788.33,59.4Zm-.07-.78V56.34c-2.62.29-3.62.87-3.62,1.94a1.42,1.42,0,0,0,1.59,1.36A2.67,2.67,0,0,0,788.26,58.62Z"/><path class="af005155-5747-45be-8c7d-7e9691cee1c2" d="M792.25,60.35c-.69-.25-1-.66-1-1.24a1.71,1.71,0,0,1,1.27-1.48,2.61,2.61,0,0,1-1.25-2.38,2.87,2.87,0,0,1,3-2.92,3.64,3.64,0,0,1,1.84.46l2.16-.17.05,1.05-1.72-.17a2.73,2.73,0,0,1,.63,1.75,2.84,2.84,0,0,1-3,2.86,3.47,3.47,0,0,1-1.16-.22q-.87.34-.87.93c0,.53.45.8,1.77.8h1c2.16,0,3.23.68,3.23,2a2.43,2.43,0,0,1-1.2,2.07,5,5,0,0,1-2.89.82c-2.09,0-3.52-.92-3.52-2.28A2.08,2.08,0,0,1,792.25,60.35Zm.92.2c-.93.26-1.58.87-1.58,1.54,0,.93,1,1.59,2.65,1.59s2.93-.78,2.93-1.83c0-.89-.75-1.24-2.37-1.24C794.16,60.61,793.61,60.59,793.17,60.55Zm-.92-5.28a1.9,1.9,0,0,0,2,2,1.81,1.81,0,0,0,1.41-.58,2,2,0,0,0,.53-1.46,2.08,2.08,0,0,0-.51-1.46,1.94,1.94,0,0,0-1.48-.57A1.9,1.9,0,0,0,792.25,55.27Z"/><path class="af005155-5747-45be-8c7d-7e9691cee1c2" d="M800.17,56.48v.08c.06,1.78,1.11,3,2.72,3a4.1,4.1,0,0,0,2.27-.65l.2,1a4.69,4.69,0,0,1-2.5.66,3.72,3.72,0,0,1-3.76-4,4.35,4.35,0,0,1,1.06-3,3.34,3.34,0,0,1,2.61-1.17,2.66,2.66,0,0,1,2.84,2.87,4,4,0,0,1-.17,1.24Zm.07-.84h4.32a1.39,1.39,0,0,0,0-.34,1.79,1.79,0,0,0-1.87-2A2.51,2.51,0,0,0,800.24,55.64Z"/><rect class="f8d26d33-da0d-405f-917e-257a5e050eef" x="43.98" y="131.05" width="178" height="50" rx="9"/><path class="e8a65cc8-d40f-441b-9cc9-253ce6d5147a" d="M110.72,154.58c0,2.29-1.58,3.5-4.28,3.55l-1.45,0v3.74h-1.08V151.26h2.66C109.31,151.26,110.72,152.55,110.72,154.58Zm-1.12,0c0-1.53-1.07-2.36-3.06-2.36H105v4.87l1.52,0C108.56,157.08,109.6,156.24,109.6,154.63Z"/><path class="e8a65cc8-d40f-441b-9cc9-253ce6d5147a" d="M113.65,156.89v5h-1.06V154.1l1.06-.22v1.67a2.55,2.55,0,0,1,2.29-1.67,2.69,2.69,0,0,1,1.36.36l-.27,1a2.31,2.31,0,0,0-1.19-.34Q114.54,154.88,113.65,156.89Z"/><path class="e8a65cc8-d40f-441b-9cc9-253ce6d5147a" d="M125.55,158a4.11,4.11,0,0,1-1.09,3,3.6,3.6,0,0,1-2.74,1.16A3.56,3.56,0,0,1,119,161a4.65,4.65,0,0,1,0-6,3.59,3.59,0,0,1,2.74-1.14,3.52,3.52,0,0,1,2.7,1.12A4.18,4.18,0,0,1,125.55,158Zm-1,0c0-1.92-1.09-3.18-2.75-3.18S119,156.11,119,158s1.09,3.18,2.75,3.18S124.51,159.88,124.51,158Z"/><path class="e8a65cc8-d40f-441b-9cc9-253ce6d5147a" d="M132.74,154.36v-3.93l1-.22v11.68h-1v-.73a3.25,3.25,0,0,1-2.26,1c-2.1,0-3.49-1.65-3.49-4.05a4.17,4.17,0,0,1,1.09-3,3.65,3.65,0,0,1,2.77-1.16A4.35,4.35,0,0,1,132.74,154.36Zm0,1.12a3.12,3.12,0,0,0-1.94-.6c-1.67,0-2.72,1.29-2.72,3.16s1,3.1,2.58,3.1a3,3,0,0,0,2.08-.87v-4.79Z"/><path class="e8a65cc8-d40f-441b-9cc9-253ce6d5147a" d="M136.17,154.1h1.06v5c0,1.31.56,2,1.68,2a3.27,3.27,0,0,0,2.39-1.1v-5.9h1.06v7.79l-1.06.22v-1.26a3.71,3.71,0,0,1-2.68,1.26,2.36,2.36,0,0,1-2.45-2.67Z"/><path class="e8a65cc8-d40f-441b-9cc9-253ce6d5147a" d="M150.52,161.44a4.39,4.39,0,0,1-2.41.67c-2.33,0-3.81-1.63-3.81-4.1a4.12,4.12,0,0,1,1.09-3,3.57,3.57,0,0,1,2.73-1.16,4.4,4.4,0,0,1,2.43.66l-.27,1a3.75,3.75,0,0,0-2.16-.63c-1.68,0-2.73,1.24-2.73,3.11s1.08,3.14,2.75,3.14a4,4,0,0,0,2.16-.64Z"/><path class="e8a65cc8-d40f-441b-9cc9-253ce6d5147a" d="M156.35,161.73a4,4,0,0,1-1.73.41c-1.45,0-2.15-.81-2.09-2.45l.11-4.6-1.18-.07,0-.66,1.17-.27,0-1.77h1l0,1.82h2.6l-.05.93h-2.58l-.12,4.66c0,1,.34,1.46,1.14,1.46a3.81,3.81,0,0,0,1.49-.37Z"/><path class="e8a65cc8-d40f-441b-9cc9-253ce6d5147a" d="M162.74,159.76c0,1.41-1.19,2.35-2.79,2.35a4.74,4.74,0,0,1-2.55-.7l.29-1a4.06,4.06,0,0,0,2.3.72c1,0,1.75-.5,1.75-1.31a1,1,0,0,0-.12-.5,1.52,1.52,0,0,0-.27-.35,2.09,2.09,0,0,0-.48-.28,4.62,4.62,0,0,0-.49-.2l-.6-.19c-1.36-.4-2.26-1-2.26-2.21,0-1.39,1.11-2.24,2.64-2.24a5,5,0,0,1,2.36.58l-.31.95a4.29,4.29,0,0,0-2.12-.58c-1,0-1.56.44-1.56,1.19a.79.79,0,0,0,.12.46,1.43,1.43,0,0,0,.25.34,1.26,1.26,0,0,0,.46.27l.49.21c.12,0,.33.1.6.18C161.86,157.89,162.74,158.47,162.74,159.76Z"/><rect class="f8d26d33-da0d-405f-917e-257a5e050eef" x="247.61" y="131.05" width="178" height="50" rx="9"/><path class="e8a65cc8-d40f-441b-9cc9-253ce6d5147a" d="M283.92,156.5c0,3.36-2.09,5.39-5.71,5.39H275.4V151.26h2.89a5.79,5.79,0,0,1,4.11,1.43A5,5,0,0,1,283.92,156.5Zm-1.09.08c0-2.7-1.68-4.31-4.61-4.31h-1.73v8.61h1.77C281.08,160.88,282.83,159.42,282.83,156.58Z"/><path class="e8a65cc8-d40f-441b-9cc9-253ce6d5147a" d="M287.2,151.54a.83.83,0,0,1-.19.54.69.69,0,0,1-1.05,0,.85.85,0,0,1,0-1.07.6.6,0,0,1,.52-.22.61.61,0,0,1,.53.22A.82.82,0,0,1,287.2,151.54ZM287,161.89H286V154.1l1.05-.22Z"/><path class="e8a65cc8-d40f-441b-9cc9-253ce6d5147a" d="M294.17,159.76c0,1.41-1.19,2.35-2.79,2.35a4.69,4.69,0,0,1-2.55-.7l.29-1a4,4,0,0,0,2.29.72c1,0,1.75-.5,1.75-1.31a1,1,0,0,0-.11-.5,1.53,1.53,0,0,0-.28-.35,1.78,1.78,0,0,0-.47-.28,3.88,3.88,0,0,0-.5-.2l-.59-.19c-1.36-.4-2.26-1-2.26-2.21,0-1.39,1.1-2.24,2.63-2.24a5,5,0,0,1,2.37.58l-.31.95a4.32,4.32,0,0,0-2.12-.58c-1,0-1.57.44-1.57,1.19a.88.88,0,0,0,.12.46,1.43,1.43,0,0,0,.26.34,1.12,1.12,0,0,0,.45.27l.5.21c.12,0,.32.1.59.18C293.28,157.89,294.17,158.47,294.17,159.76Z"/><path class="e8a65cc8-d40f-441b-9cc9-253ce6d5147a" d="M301.78,161.44a4.39,4.39,0,0,1-2.41.67c-2.33,0-3.81-1.63-3.81-4.1a4.12,4.12,0,0,1,1.09-3,3.57,3.57,0,0,1,2.74-1.16,4.45,4.45,0,0,1,2.43.66l-.27,1a3.75,3.75,0,0,0-2.16-.63c-1.69,0-2.74,1.24-2.74,3.11s1.09,3.14,2.75,3.14a3.93,3.93,0,0,0,2.16-.64Z"/><path class="e8a65cc8-d40f-441b-9cc9-253ce6d5147a" d="M310.72,158a4.1,4.1,0,0,1-1.08,3,3.62,3.62,0,0,1-2.74,1.16,3.54,3.54,0,0,1-2.7-1.12,4.65,4.65,0,0,1,.05-6,3.59,3.59,0,0,1,2.74-1.14,3.52,3.52,0,0,1,2.7,1.12A4.22,4.22,0,0,1,310.72,158Zm-1,0c0-1.92-1.09-3.18-2.76-3.18s-2.73,1.28-2.73,3.15,1.09,3.18,2.75,3.18S309.69,159.88,309.69,158Z"/><path class="e8a65cc8-d40f-441b-9cc9-253ce6d5147a" d="M315.45,161.9h-.95l-3.08-7.8h1.14l2.47,6.43,2.38-6.43h1.1Z"/><path class="e8a65cc8-d40f-441b-9cc9-253ce6d5147a" d="M320.28,158v.08c.05,1.79,1.1,3,2.72,3a4.12,4.12,0,0,0,2.26-.64l.2,1a4.56,4.56,0,0,1-2.5.67,3.72,3.72,0,0,1-3.75-4.05,4.41,4.41,0,0,1,1.05-3,3.37,3.37,0,0,1,2.62-1.17,2.67,2.67,0,0,1,2.84,2.87,4,4,0,0,1-.17,1.24Zm.07-.83,4.31,0a1.34,1.34,0,0,0,0-.34,1.78,1.78,0,0,0-1.87-2A2.51,2.51,0,0,0,320.35,157.2Z"/><path class="e8a65cc8-d40f-441b-9cc9-253ce6d5147a" d="M328.76,156.89v5h-1.05V154.1l1.05-.22v1.67a2.56,2.56,0,0,1,2.3-1.67,2.71,2.71,0,0,1,1.36.36l-.28,1a2.27,2.27,0,0,0-1.18-.34C330.09,154.88,329.36,155.55,328.76,156.89Z"/><path class="e8a65cc8-d40f-441b-9cc9-253ce6d5147a" d="M340.47,161.14c1.48,0,2.52-.87,2.52-2s-.82-1.68-2.69-2.22c-.44-.14-.81-.28-1.12-.41a4.92,4.92,0,0,1-1-.53,2.24,2.24,0,0,1-.74-.85,2.61,2.61,0,0,1-.26-1.19c0-1.68,1.41-2.89,3.4-2.89a5.86,5.86,0,0,1,3.2.92l-.39.95a4.85,4.85,0,0,0-2.79-.88c-1.53,0-2.37.76-2.37,1.82s.8,1.53,2.69,2.12a12,12,0,0,1,1.14.41,6.91,6.91,0,0,1,1,.56,2.38,2.38,0,0,1,.73.88,3.17,3.17,0,0,1,.24,1.23c0,1.78-1.46,3.06-3.59,3.06a6.17,6.17,0,0,1-3.42-1l.4-1A5.23,5.23,0,0,0,340.47,161.14Z"/><path class="e8a65cc8-d40f-441b-9cc9-253ce6d5147a" d="M353,158a4.11,4.11,0,0,1-1.09,3,3.6,3.6,0,0,1-2.74,1.16,3.56,3.56,0,0,1-2.7-1.12,4.68,4.68,0,0,1,.05-6,3.59,3.59,0,0,1,2.74-1.14A3.52,3.52,0,0,1,352,155,4.18,4.18,0,0,1,353,158Zm-1,0c0-1.92-1.09-3.18-2.75-3.18s-2.74,1.28-2.74,3.15,1.09,3.18,2.75,3.18S352,159.88,352,158Z"/><path class="e8a65cc8-d40f-441b-9cc9-253ce6d5147a" d="M355,161.89V150.43l1.06-.22v11.68Z"/><path class="e8a65cc8-d40f-441b-9cc9-253ce6d5147a" d="M358.43,154.1h1.05v5c0,1.31.56,2,1.68,2a3.28,3.28,0,0,0,2.4-1.1v-5.9h1.05v7.79l-1.05.22v-1.26a3.75,3.75,0,0,1-2.69,1.26,2.35,2.35,0,0,1-2.44-2.67Z"/><path class="e8a65cc8-d40f-441b-9cc9-253ce6d5147a" d="M370.94,161.73a4,4,0,0,1-1.74.41c-1.44,0-2.14-.81-2.09-2.45l.12-4.6L366,155l0-.66,1.18-.27.05-1.77h1l-.05,1.82h2.6l-.05.93h-2.58l-.12,4.66c0,1,.34,1.46,1.14,1.46a3.85,3.85,0,0,0,1.49-.37Z"/><path class="e8a65cc8-d40f-441b-9cc9-253ce6d5147a" d="M373.91,151.54a.82.82,0,0,1-.18.54.71.71,0,0,1-1.06,0,.82.82,0,0,1-.18-.54.81.81,0,0,1,.18-.53.75.75,0,0,1,1.06,0A.81.81,0,0,1,373.91,151.54Zm-.18,10.35h-1.06V154.1l1.06-.22Z"/><path class="e8a65cc8-d40f-441b-9cc9-253ce6d5147a" d="M383.28,158a4.11,4.11,0,0,1-1.09,3,3.82,3.82,0,0,1-5.44,0,4.23,4.23,0,0,1-1.05-3,4.16,4.16,0,0,1,1.1-3,3.59,3.59,0,0,1,2.74-1.14,3.51,3.51,0,0,1,2.7,1.12A4.18,4.18,0,0,1,383.28,158Zm-1,0c0-1.92-1.09-3.18-2.75-3.18s-2.74,1.28-2.74,3.15,1.09,3.18,2.76,3.18S382.24,159.88,382.24,158Z"/><path class="e8a65cc8-d40f-441b-9cc9-253ce6d5147a" d="M391.42,161.89h-1.05v-5c0-1.36-.53-2-1.72-2a3.34,3.34,0,0,0-2.36,1.11v5.9h-1.06V154.1l1.06-.22v1.28a3.76,3.76,0,0,1,2.65-1.28,2.35,2.35,0,0,1,2.48,2.67Z"/><path class="e8a65cc8-d40f-441b-9cc9-253ce6d5147a" d="M398.49,159.76c0,1.41-1.19,2.35-2.78,2.35a4.69,4.69,0,0,1-2.55-.7l.29-1a4,4,0,0,0,2.29.72c1,0,1.75-.5,1.75-1.31a1,1,0,0,0-.12-.5,1.29,1.29,0,0,0-.27-.35,1.71,1.71,0,0,0-.48-.28,4.62,4.62,0,0,0-.49-.2l-.59-.19c-1.36-.4-2.26-1-2.26-2.21,0-1.39,1.1-2.24,2.63-2.24a5,5,0,0,1,2.36.58l-.3.95a4.33,4.33,0,0,0-2.13-.58c-.95,0-1.56.44-1.56,1.19a.79.79,0,0,0,.12.46,1.43,1.43,0,0,0,.25.34,1.26,1.26,0,0,0,.46.27l.49.21c.12,0,.33.1.6.18C397.61,157.89,398.49,158.47,398.49,159.76Z"/><rect class="f8d26d33-da0d-405f-917e-257a5e050eef" x="451.23" y="131.05" width="178" height="50" rx="9"/><path class="e8a65cc8-d40f-441b-9cc9-253ce6d5147a" d="M527.51,152.28v9.61h-1.08v-9.61h-3.74v-1h8.56v1Z"/><path class="e8a65cc8-d40f-441b-9cc9-253ce6d5147a" d="M538.32,158a4.1,4.1,0,0,1-1.08,3,3.62,3.62,0,0,1-2.74,1.16,3.53,3.53,0,0,1-2.7-1.12,4.65,4.65,0,0,1,.05-6,3.59,3.59,0,0,1,2.74-1.14,3.52,3.52,0,0,1,2.7,1.12A4.22,4.22,0,0,1,538.32,158Zm-1,0c0-1.92-1.09-3.18-2.76-3.18s-2.73,1.28-2.73,3.15,1.08,3.18,2.75,3.18S537.29,159.88,537.29,158Z"/><path class="e8a65cc8-d40f-441b-9cc9-253ce6d5147a" d="M547.35,158a4.11,4.11,0,0,1-1.09,3,3.82,3.82,0,0,1-5.44,0,4.23,4.23,0,0,1-1.05-3,4.16,4.16,0,0,1,1.1-3,3.62,3.62,0,0,1,2.74-1.14,3.49,3.49,0,0,1,2.7,1.12A4.18,4.18,0,0,1,547.35,158Zm-1,0c0-1.92-1.08-3.18-2.75-3.18s-2.74,1.28-2.74,3.15,1.09,3.18,2.76,3.18S546.31,159.88,546.31,158Z"/><path class="e8a65cc8-d40f-441b-9cc9-253ce6d5147a" d="M549.31,161.89V150.43l1.05-.22v11.68Z"/><path class="e8a65cc8-d40f-441b-9cc9-253ce6d5147a" d="M557.48,159.76c0,1.41-1.19,2.35-2.79,2.35a4.74,4.74,0,0,1-2.55-.7l.29-1a4.06,4.06,0,0,0,2.3.72c1,0,1.75-.5,1.75-1.31a1,1,0,0,0-.12-.5,1.52,1.52,0,0,0-.27-.35,2.09,2.09,0,0,0-.48-.28,4.62,4.62,0,0,0-.49-.2l-.6-.19c-1.35-.4-2.26-1-2.26-2.21,0-1.39,1.11-2.24,2.64-2.24a5,5,0,0,1,2.36.58l-.3.95a4.33,4.33,0,0,0-2.13-.58c-1,0-1.56.44-1.56,1.19a.79.79,0,0,0,.12.46,1.43,1.43,0,0,0,.25.34,1.26,1.26,0,0,0,.46.27l.49.21c.12,0,.33.1.6.18C556.6,157.89,557.48,158.47,557.48,159.76Z"/><rect class="f8d26d33-da0d-405f-917e-257a5e050eef" x="664.6" y="131.05" width="178" height="50" rx="9"/><path class="e8a65cc8-d40f-441b-9cc9-253ce6d5147a" d="M731.84,161.89h-1.11l-1.12-3H724.8l-1.12,3h-1.11l4-10.63h1.28Zm-4.63-9.56-2,5.53h4.06Z"/><path class="e8a65cc8-d40f-441b-9cc9-253ce6d5147a" d="M740.12,157.89a4.34,4.34,0,0,1-1.08,3,3.56,3.56,0,0,1-2.77,1.19,4.36,4.36,0,0,1-1.9-.43l-1,.46V150.43l1-.22v4.71a3.29,3.29,0,0,1,2.34-1C738.77,153.93,740.12,155.55,740.12,157.89Zm-1.09.05c0-1.8-1-3-2.52-3a3.07,3.07,0,0,0-2.14.87v4.77a3.07,3.07,0,0,0,2,.62C738,161.16,739,159.86,739,157.94Z"/><path class="e8a65cc8-d40f-441b-9cc9-253ce6d5147a" d="M749.07,158a4.1,4.1,0,0,1-1.08,3,3.63,3.63,0,0,1-2.74,1.16,3.53,3.53,0,0,1-2.7-1.12,4.65,4.65,0,0,1,.05-6,3.58,3.58,0,0,1,2.73-1.14A3.53,3.53,0,0,1,748,155,4.22,4.22,0,0,1,749.07,158Zm-1,0c0-1.92-1.09-3.18-2.76-3.18s-2.73,1.28-2.73,3.15,1.08,3.18,2.75,3.18S748,159.88,748,158Z"/><path class="e8a65cc8-d40f-441b-9cc9-253ce6d5147a" d="M751,154.1h1v5c0,1.31.57,2,1.69,2a3.27,3.27,0,0,0,2.39-1.1v-5.9h1.06v7.79l-1.06.22v-1.26a3.71,3.71,0,0,1-2.68,1.26,2.36,2.36,0,0,1-2.45-2.67Z"/><path class="e8a65cc8-d40f-441b-9cc9-253ce6d5147a" d="M763.47,161.73a3.92,3.92,0,0,1-1.73.41c-1.45,0-2.14-.81-2.09-2.45l.12-4.6-1.19-.07,0-.66,1.17-.27.05-1.77h1l-.05,1.82h2.6l0,.93h-2.58l-.12,4.66c0,1,.34,1.46,1.14,1.46a3.89,3.89,0,0,0,1.5-.37Z"/><path class="e8a65cc8-d40f-441b-9cc9-253ce6d5147a" d="M777.09,157.82c0,2.69-1.41,4.29-4,4.29s-4-1.57-4-4.12v-6.73h1.06v6.6c0,2.07,1,3.24,3,3.24S776,160,776,157.84v-6.58h1.07Z"/><path class="e8a65cc8-d40f-441b-9cc9-253ce6d5147a" d="M784.21,159.76c0,1.41-1.19,2.35-2.79,2.35a4.74,4.74,0,0,1-2.55-.7l.29-1a4.06,4.06,0,0,0,2.3.72c1,0,1.75-.5,1.75-1.31a1.06,1.06,0,0,0-.12-.5,1.86,1.86,0,0,0-.27-.35,2.09,2.09,0,0,0-.48-.28,4.62,4.62,0,0,0-.49-.2l-.6-.19c-1.36-.4-2.26-1-2.26-2.21,0-1.39,1.11-2.24,2.64-2.24a5,5,0,0,1,2.36.58l-.31.95a4.29,4.29,0,0,0-2.12-.58c-.95,0-1.56.44-1.56,1.19a.79.79,0,0,0,.12.46,1.43,1.43,0,0,0,.25.34,1.26,1.26,0,0,0,.46.27l.49.21c.12,0,.33.1.6.18C783.33,157.89,784.21,158.47,784.21,159.76Z"/><rect class="f8d26d33-da0d-405f-917e-257a5e050eef" x="451.23" y="360.26" width="178" height="50" rx="9"/><path class="svgtext" d="M487.84,380.9V370.28h6.43v1h-5.34v3.81h4.46v1h-4.46v3.82h5.34v1Z"/><path class="svgtext" d="M497.38,373.9a3.25,3.25,0,0,1,2.26-.95c2.09,0,3.49,1.63,3.49,4a4.21,4.21,0,0,1-1.07,3,3.63,3.63,0,0,1-2.77,1.17,4.45,4.45,0,0,1-1.91-.4v4.14h-1.05V373.08l1.05-.22Zm0,.88v4.78a3.08,3.08,0,0,0,2,.61c1.63,0,2.7-1.31,2.7-3.18s-1-3.07-2.57-3.07A3.06,3.06,0,0,0,497.38,374.78Z"/><path class="svgtext" d="M512.15,377a4.12,4.12,0,0,1-1.08,3,3.65,3.65,0,0,1-2.74,1.15,3.49,3.49,0,0,1-2.7-1.12,4.64,4.64,0,0,1,.05-6,3.59,3.59,0,0,1,2.74-1.14,3.52,3.52,0,0,1,2.7,1.12A4.19,4.19,0,0,1,512.15,377Zm-1,0c0-1.92-1.09-3.18-2.76-3.18s-2.73,1.27-2.73,3.14,1.08,3.18,2.75,3.18S511.12,378.9,511.12,377Z"/><path class="svgtext" d="M518.26,380.9l-2.11-3.28-2.09,3.28h-1.19l2.68-4L513,373.12h1.17l1.94,3,1.9-3h1.18l-2.49,3.75,2.69,4Z"/><path class="svgtext" d="M526.89,373.12l-3,7.7-.63,1.68c-.68,1.85-1.4,2.45-2.52,2.45a3.84,3.84,0,0,1-1.51-.36l.32-1a2.64,2.64,0,0,0,1.19.34c.65,0,1.07-.39,1.6-1.8l.53-1.38-3.05-7.66h1.14l2.45,6.42,2.4-6.42Z"/><path class="svgtext" d="M540.05,370.92l-.34,1a5.41,5.41,0,0,0-3-.85c-2.39,0-4,1.69-4,4.54s1.58,4.56,4,4.56a4.9,4.9,0,0,0,3-.95l.21,1.07a5.82,5.82,0,0,1-3.2.86,4.83,4.83,0,0,1-3.72-1.49,6.41,6.41,0,0,1,0-8.06,4.87,4.87,0,0,1,3.69-1.51A6.24,6.24,0,0,1,540.05,370.92Z"/><path class="svgtext" d="M548.84,377a4.13,4.13,0,0,1-1.09,3,3.62,3.62,0,0,1-2.73,1.15,3.53,3.53,0,0,1-2.71-1.12,4.21,4.21,0,0,1-1-3,4.14,4.14,0,0,1,1.1-3,3.6,3.6,0,0,1,2.74-1.14,3.49,3.49,0,0,1,2.7,1.12A4.16,4.16,0,0,1,548.84,377Zm-1,0c0-1.92-1.09-3.18-2.75-3.18s-2.74,1.27-2.74,3.14,1.09,3.18,2.76,3.18S547.8,378.9,547.8,377Z"/><path class="svgtext" d="M553.57,380.92h-1l-3.07-7.8h1.14l2.46,6.42,2.38-6.42h1.11Z"/><path class="svgtext" d="M558.39,377v.09c.06,1.78,1.11,3,2.72,3a4.1,4.1,0,0,0,2.27-.65l.2,1a4.69,4.69,0,0,1-2.5.66,3.72,3.72,0,0,1-3.76-4,4.34,4.34,0,0,1,1.06-3A3.34,3.34,0,0,1,561,372.9a2.66,2.66,0,0,1,2.83,2.87,4,4,0,0,1-.17,1.24Zm.07-.83,4.32,0a1.34,1.34,0,0,0,0-.34,1.78,1.78,0,0,0-1.87-2A2.51,2.51,0,0,0,558.46,376.21Z"/><path class="svgtext" d="M566.88,375.91v5h-1.06v-7.78l1.06-.22v1.66a2.56,2.56,0,0,1,2.29-1.66,2.65,2.65,0,0,1,1.36.35l-.27,1a2.28,2.28,0,0,0-1.19-.34C568.2,373.9,567.47,374.56,566.88,375.91Z"/><path class="svgtext" d="M575.92,380h0a2.86,2.86,0,0,1-2.28,1.15,2.25,2.25,0,0,1-2.46-2.16c0-1.66,1.58-2.58,4.72-2.77v-.45a1.63,1.63,0,0,0-1.83-1.86,4.7,4.7,0,0,0-2.55.94l-.24-1a5.42,5.42,0,0,1,2.89-.93,2.46,2.46,0,0,1,2.79,2.78v3.74c0,.62.13.8.78.79l-.07.86C576.62,381.14,576,380.77,575.92,380Zm-.07-.78v-2.28c-2.61.29-3.62.86-3.62,1.94a1.43,1.43,0,0,0,1.6,1.36A2.63,2.63,0,0,0,575.85,379.19Z"/><path class="svgtext" d="M579.85,380.92c-.7-.26-1.05-.66-1.05-1.24a1.7,1.7,0,0,1,1.27-1.48,2.61,2.61,0,0,1-1.26-2.38,2.87,2.87,0,0,1,3.06-2.92,3.67,3.67,0,0,1,1.84.46l2.16-.17,0,1.05-1.72-.17a2.71,2.71,0,0,1,.63,1.75,2.85,2.85,0,0,1-3,2.86,3.22,3.22,0,0,1-1.15-.23c-.58.24-.87.55-.87.94s.44.8,1.77.8h1c2.16,0,3.23.68,3.23,2a2.44,2.44,0,0,1-1.21,2.07,4.94,4.94,0,0,1-2.89.82c-2.09,0-3.51-.92-3.51-2.28A2.07,2.07,0,0,1,579.85,380.92Zm.92.2c-.94.26-1.58.87-1.58,1.53,0,.94,1,1.6,2.65,1.6s2.92-.78,2.92-1.83c0-.89-.75-1.25-2.36-1.25C581.75,381.17,581.21,381.16,580.77,381.12Zm-.92-5.28a1.9,1.9,0,0,0,2,2,1.82,1.82,0,0,0,1.42-.58,2.07,2.07,0,0,0,.52-1.46,2.12,2.12,0,0,0-.51-1.47,2,2,0,0,0-1.48-.56A1.9,1.9,0,0,0,579.85,375.84Z"/><path class="svgtext" d="M587.77,377v.09c.05,1.78,1.11,3,2.72,3a4,4,0,0,0,2.26-.65l.21,1a4.69,4.69,0,0,1-2.5.66,3.72,3.72,0,0,1-3.76-4,4.38,4.38,0,0,1,1-3,3.37,3.37,0,0,1,2.62-1.17,2.66,2.66,0,0,1,2.84,2.87A4,4,0,0,1,593,377Zm.07-.83,4.32,0a2.66,2.66,0,0,0,0-.34,1.78,1.78,0,0,0-1.87-2A2.51,2.51,0,0,0,587.84,376.21Z"/><path class="svgtext" d="M515.09,391.32l-.34,1a5.44,5.44,0,0,0-3-.85c-2.4,0-4,1.69-4,4.54s1.58,4.56,4,4.56a4.93,4.93,0,0,0,3-1l.2,1.07a5.76,5.76,0,0,1-3.19.86,4.87,4.87,0,0,1-3.73-1.49,6.39,6.39,0,0,1,0-8.06,4.85,4.85,0,0,1,3.69-1.51A6.27,6.27,0,0,1,515.09,391.32Z"/><path class="svgtext" d="M521.19,400.37h-.05a2.86,2.86,0,0,1-2.28,1.15,2.24,2.24,0,0,1-2.46-2.16c0-1.66,1.58-2.58,4.72-2.77v-.46a1.62,1.62,0,0,0-1.83-1.85,4.7,4.7,0,0,0-2.55.94l-.24-1a5.42,5.42,0,0,1,2.89-.93,2.46,2.46,0,0,1,2.79,2.78v3.74c0,.61.13.8.78.78l-.07.87C521.89,401.54,521.31,401.17,521.19,400.37Zm-.07-.78v-2.28c-2.62.29-3.62.86-3.62,1.94a1.42,1.42,0,0,0,1.6,1.35A2.65,2.65,0,0,0,521.12,399.59Z"/><path class="svgtext" d="M524.52,401.3V389.84l1.06-.22V401.3Z"/><path class="svgtext" d="M533.74,400.86a4.53,4.53,0,0,1-2.42.66c-2.33,0-3.81-1.63-3.81-4.09a4.16,4.16,0,0,1,1.09-3,3.61,3.61,0,0,1,2.74-1.15,4.45,4.45,0,0,1,2.43.66l-.27,1a3.83,3.83,0,0,0-2.16-.63c-1.68,0-2.74,1.24-2.74,3.11s1.09,3.15,2.76,3.15a3.85,3.85,0,0,0,2.15-.65Z"/><path class="svgtext" d="M535.62,393.52h1.06v5c0,1.31.56,2,1.68,2a3.31,3.31,0,0,0,2.4-1.1v-5.9h1v7.78l-1,.22v-1.26a3.71,3.71,0,0,1-2.69,1.26,2.35,2.35,0,0,1-2.45-2.67Z"/><path class="svgtext" d="M544.26,401.3V389.84l1-.22V401.3Z"/><path class="svgtext" d="M551.89,400.37h0a2.86,2.86,0,0,1-2.28,1.15,2.24,2.24,0,0,1-2.46-2.16c0-1.66,1.58-2.58,4.72-2.77v-.46a1.62,1.62,0,0,0-1.83-1.85,4.7,4.7,0,0,0-2.55.94l-.24-1a5.42,5.42,0,0,1,2.89-.93,2.46,2.46,0,0,1,2.79,2.78v3.74c0,.61.13.8.78.78l-.07.87C552.59,401.54,552,401.17,551.89,400.37Zm-.07-.78v-2.28c-2.61.29-3.62.86-3.62,1.94a1.42,1.42,0,0,0,1.6,1.35A2.65,2.65,0,0,0,551.82,399.59Z"/><path class="svgtext" d="M559.1,401.15a4.09,4.09,0,0,1-1.73.41c-1.45,0-2.15-.82-2.1-2.45l.12-4.61-1.19-.07,0-.66,1.18-.27.05-1.77h1l-.05,1.82H559l0,.94H556.4l-.12,4.65c0,1,.34,1.46,1.14,1.46a3.64,3.64,0,0,0,1.49-.37Z"/><path class="svgtext" d="M567.8,397.39a4.09,4.09,0,0,1-1.09,3,3.62,3.62,0,0,1-2.73,1.15,3.49,3.49,0,0,1-2.7-1.12,4.65,4.65,0,0,1,.05-6,3.61,3.61,0,0,1,2.73-1.13,3.53,3.53,0,0,1,2.71,1.12A4.19,4.19,0,0,1,567.8,397.39Zm-1,0c0-1.93-1.09-3.18-2.76-3.18s-2.73,1.27-2.73,3.14,1.08,3.18,2.75,3.18S566.77,399.3,566.77,397.43Z"/><path class="svgtext" d="M570.81,396.3v5h-1v-7.78l1-.22V395a2.57,2.57,0,0,1,2.3-1.66,2.81,2.81,0,0,1,1.36.35l-.28,1a2.28,2.28,0,0,0-1.19-.34C572.14,394.3,571.41,395,570.81,396.3Z"/><rect class="f8d26d33-da0d-405f-917e-257a5e050eef" x="451.23" y="438.21" width="178" height="50" rx="9"/><path class="svgtext" d="M479,449.25v9.6h-1.09v-9.6h-3.74v-1h8.57v1Z"/><path class="svgtext" d="M485.59,448.5a.88.88,0,0,1-.18.54.71.71,0,0,1-1.06,0,.85.85,0,0,1,0-1.07.75.75,0,0,1,1.06,0A.87.87,0,0,1,485.59,448.5Zm-.18,10.35h-1.06v-7.79l1.06-.22Z"/><path class="svgtext" d="M487.89,458.85V447.39l1.05-.22v11.68Z"/><path class="svgtext" d="M492,455v.09c.05,1.78,1.1,3,2.72,3a4.12,4.12,0,0,0,2.26-.65l.2,1a4.63,4.63,0,0,1-2.49.66,3.72,3.72,0,0,1-3.76-4,4.38,4.38,0,0,1,1.05-3,3.35,3.35,0,0,1,2.62-1.18,2.67,2.67,0,0,1,2.84,2.88,4.09,4.09,0,0,1-.17,1.24Zm.07-.83,4.32,0a2.66,2.66,0,0,0,0-.34,1.78,1.78,0,0,0-1.87-2A2.52,2.52,0,0,0,492,454.16Z"/><path class="svgtext" d="M511.55,458.85h-1.1l-1.13-3h-4.81l-1.12,3h-1.1l4-10.62h1.28Zm-4.62-9.55-2,5.52H509Z"/><path class="svgtext" d="M518.27,451.32v-3.93l1.05-.22v11.68h-1.05v-.73a3.26,3.26,0,0,1-2.27.95c-2.09,0-3.48-1.65-3.48-4a4.18,4.18,0,0,1,1.09-3,3.69,3.69,0,0,1,2.77-1.16A4.38,4.38,0,0,1,518.27,451.32Zm0,1.12a3.11,3.11,0,0,0-1.94-.59c-1.67,0-2.72,1.29-2.72,3.16s1,3.09,2.58,3.09a3,3,0,0,0,2.08-.87v-4.79Z"/><path class="svgtext" d="M528,458.85H526.9v-5c0-1.31-.56-2-1.66-2a3.39,3.39,0,0,0-2.42,1.1v5.9h-1.05V447.39l1.05-.22v4.91a3.8,3.8,0,0,1,2.71-1.24c1.53,0,2.43,1,2.43,2.67Z"/><path class="svgtext" d="M530.92,455v.09c.05,1.78,1.1,3,2.71,3a4.18,4.18,0,0,0,2.27-.65l.2,1a4.66,4.66,0,0,1-2.5.66,3.72,3.72,0,0,1-3.76-4,4.34,4.34,0,0,1,1.06-3,3.32,3.32,0,0,1,2.62-1.18,2.66,2.66,0,0,1,2.83,2.88,4.09,4.09,0,0,1-.17,1.24Zm.06-.83,4.32,0a1.34,1.34,0,0,0,0-.34,1.79,1.79,0,0,0-1.87-2A2.52,2.52,0,0,0,531,454.16Z"/><path class="svgtext" d="M543,456.72c0,1.42-1.19,2.35-2.79,2.35a4.69,4.69,0,0,1-2.55-.7l.29-1a4,4,0,0,0,2.29.72c1,0,1.76-.49,1.76-1.31a1,1,0,0,0-.12-.49,1.67,1.67,0,0,0-.27-.36,2.13,2.13,0,0,0-.48-.27l-.49-.21-.6-.18c-1.36-.41-2.26-1-2.26-2.21,0-1.4,1.11-2.25,2.63-2.25a5,5,0,0,1,2.37.58l-.31.95a4.29,4.29,0,0,0-2.12-.58c-1,0-1.57.45-1.57,1.2a.84.84,0,0,0,.12.45,1.25,1.25,0,0,0,.26.34,1.31,1.31,0,0,0,.46.28l.49.2c.12.05.32.1.59.19C542.13,454.86,543,455.43,543,456.72Z"/><path class="svgtext" d="M546.18,448.5a.83.83,0,0,1-.19.54.63.63,0,0,1-.52.24.67.67,0,0,1-.53-.24.85.85,0,0,1,0-1.07.65.65,0,0,1,.53-.22.62.62,0,0,1,.52.22A.82.82,0,0,1,546.18,448.5ZM546,458.85h-1v-7.79l1-.22Z"/><path class="svgtext" d="M551.33,458.87h-1l-3.08-7.81h1.14l2.47,6.43,2.38-6.43h1.1Z"/><path class="svgtext" d="M556.16,455v.09c.05,1.78,1.1,3,2.72,3a4.12,4.12,0,0,0,2.26-.65l.2,1a4.63,4.63,0,0,1-2.49.66,3.72,3.72,0,0,1-3.76-4,4.38,4.38,0,0,1,1-3,3.35,3.35,0,0,1,2.62-1.18,2.67,2.67,0,0,1,2.84,2.88,4.09,4.09,0,0,1-.17,1.24Zm.07-.83,4.32,0a2.66,2.66,0,0,0,0-.34,1.78,1.78,0,0,0-1.87-2A2.52,2.52,0,0,0,556.23,454.16Z"/><path class="svgtext" d="M575.49,454.79c0,2.68-1.41,4.28-4,4.28s-4-1.56-4-4.11v-6.73h1.06v6.59c0,2.07,1,3.25,3,3.25s2.91-1.12,2.91-3.27v-6.57h1.07Z"/><path class="svgtext" d="M582.61,456.72c0,1.42-1.19,2.35-2.79,2.35a4.69,4.69,0,0,1-2.55-.7l.29-1a4.06,4.06,0,0,0,2.3.72c1,0,1.75-.49,1.75-1.31a1,1,0,0,0-.12-.49,1.67,1.67,0,0,0-.27-.36,2.13,2.13,0,0,0-.48-.27l-.49-.21-.6-.18c-1.36-.41-2.26-1-2.26-2.21,0-1.4,1.11-2.25,2.64-2.25a5,5,0,0,1,2.36.58l-.31.95a4.29,4.29,0,0,0-2.12-.58c-1,0-1.56.45-1.56,1.2a.84.84,0,0,0,.11.45,1.25,1.25,0,0,0,.26.34,1.31,1.31,0,0,0,.46.28l.49.2c.12.05.33.1.6.19C581.73,454.86,582.61,455.43,582.61,456.72Z"/><path class="svgtext" d="M588.65,457.92h0a2.86,2.86,0,0,1-2.28,1.15,2.25,2.25,0,0,1-2.47-2.16q0-2.49,4.73-2.77v-.46a1.63,1.63,0,0,0-1.84-1.85,4.82,4.82,0,0,0-2.55.93l-.23-1a5.4,5.4,0,0,1,2.88-.94,2.46,2.46,0,0,1,2.79,2.79v3.74c0,.61.14.8.78.78l-.06.87C589.34,459.09,588.77,458.71,588.65,457.92Zm-.07-.79v-2.27c-2.62.28-3.62.86-3.62,1.93a1.42,1.42,0,0,0,1.6,1.36A2.66,2.66,0,0,0,588.58,457.13Z"/><path class="svgtext" d="M592.57,458.87c-.69-.26-1.05-.67-1.05-1.24a1.71,1.71,0,0,1,1.28-1.48,2.59,2.59,0,0,1-1.26-2.38,2.88,2.88,0,0,1,3.06-2.93,3.71,3.71,0,0,1,1.83.46l2.16-.17,0,1.06-1.72-.17a2.69,2.69,0,0,1,.63,1.75,2.84,2.84,0,0,1-3,2.85,3.47,3.47,0,0,1-1.16-.22c-.57.24-.86.55-.86.94s.44.8,1.76.8h1c2.16,0,3.23.68,3.23,2a2.44,2.44,0,0,1-1.21,2.07,5.06,5.06,0,0,1-2.89.82c-2.09,0-3.52-.92-3.52-2.28A2.06,2.06,0,0,1,592.57,458.87Zm.92.2c-.93.26-1.58.87-1.58,1.53,0,.94,1,1.6,2.65,1.6s2.93-.78,2.93-1.84c0-.88-.75-1.24-2.37-1.24C594.48,459.12,593.93,459.1,593.49,459.07Zm-.92-5.29a1.9,1.9,0,0,0,2,2,1.8,1.8,0,0,0,1.41-.57,2,2,0,0,0,.53-1.47,2.11,2.11,0,0,0-.51-1.46,2,2,0,0,0-1.48-.56A1.9,1.9,0,0,0,592.57,453.78Z"/><path class="svgtext" d="M600.5,455v.09c0,1.78,1.1,3,2.72,3a4.15,4.15,0,0,0,2.26-.65l.2,1a4.66,4.66,0,0,1-2.5.66,3.73,3.73,0,0,1-3.76-4,4.34,4.34,0,0,1,1.06-3,3.33,3.33,0,0,1,2.62-1.18,2.67,2.67,0,0,1,2.84,2.88,4.42,4.42,0,0,1-.17,1.24Zm.06-.83,4.32,0a1.34,1.34,0,0,0,0-.34,1.78,1.78,0,0,0-1.87-2A2.53,2.53,0,0,0,600.56,454.16Z"/><path class="svgtext" d="M515.09,469.27l-.34,1a5.44,5.44,0,0,0-3-.85c-2.4,0-4,1.68-4,4.54s1.58,4.55,4,4.55a4.86,4.86,0,0,0,3-1l.2,1.07a5.68,5.68,0,0,1-3.19.87,4.84,4.84,0,0,1-3.73-1.5,6.38,6.38,0,0,1,0-8.05,4.83,4.83,0,0,1,3.69-1.52A6.18,6.18,0,0,1,515.09,469.27Z"/><path class="svgtext" d="M521.19,478.31h-.05a2.85,2.85,0,0,1-2.28,1.16,2.24,2.24,0,0,1-2.46-2.16c0-1.66,1.58-2.58,4.72-2.77v-.46a1.62,1.62,0,0,0-1.83-1.85,4.76,4.76,0,0,0-2.55.93l-.24-1a5.43,5.43,0,0,1,2.89-.94,2.46,2.46,0,0,1,2.79,2.79v3.74c0,.61.13.8.78.78l-.07.87C521.89,479.49,521.31,479.11,521.19,478.31Zm-.07-.78v-2.28c-2.62.29-3.62.87-3.62,1.94a1.42,1.42,0,0,0,1.6,1.36A2.63,2.63,0,0,0,521.12,477.53Z"/><path class="svgtext" d="M524.52,479.25V467.79l1.06-.22v11.68Z"/><path class="svgtext" d="M533.74,478.81a4.53,4.53,0,0,1-2.42.66c-2.33,0-3.81-1.63-3.81-4.1a4.14,4.14,0,0,1,1.09-3,3.59,3.59,0,0,1,2.74-1.16,4.37,4.37,0,0,1,2.43.67l-.27.95a3.75,3.75,0,0,0-2.16-.63c-1.68,0-2.74,1.24-2.74,3.11s1.09,3.14,2.76,3.14a3.92,3.92,0,0,0,2.15-.64Z"/><path class="svgtext" d="M535.62,471.46h1.06v5c0,1.3.56,2,1.68,2a3.32,3.32,0,0,0,2.4-1.11v-5.9h1v7.79l-1,.22v-1.26a3.75,3.75,0,0,1-2.69,1.26,2.36,2.36,0,0,1-2.45-2.67Z"/><path class="svgtext" d="M544.26,479.25V467.79l1-.22v11.68Z"/><path class="svgtext" d="M551.89,478.31h0a2.85,2.85,0,0,1-2.28,1.16,2.24,2.24,0,0,1-2.46-2.16c0-1.66,1.58-2.58,4.72-2.77v-.46a1.62,1.62,0,0,0-1.83-1.85,4.76,4.76,0,0,0-2.55.93l-.24-1a5.43,5.43,0,0,1,2.89-.94,2.46,2.46,0,0,1,2.79,2.79v3.74c0,.61.13.8.78.78l-.07.87C552.59,479.49,552,479.11,551.89,478.31Zm-.07-.78v-2.28c-2.61.29-3.62.87-3.62,1.94a1.42,1.42,0,0,0,1.6,1.36A2.63,2.63,0,0,0,551.82,477.53Z"/><path class="svgtext" d="M559.1,479.1a4.08,4.08,0,0,1-1.73.4c-1.45,0-2.15-.81-2.1-2.44l.12-4.61-1.19-.07,0-.66,1.18-.27.05-1.77h1l-.05,1.82H559l0,.93H556.4l-.12,4.66c0,1,.34,1.46,1.14,1.46a3.81,3.81,0,0,0,1.49-.37Z"/><path class="svgtext" d="M567.8,475.34a4.06,4.06,0,0,1-1.09,3,3.6,3.6,0,0,1-2.73,1.16,3.49,3.49,0,0,1-2.7-1.12,4.65,4.65,0,0,1,.05-6,3.61,3.61,0,0,1,2.73-1.14,3.57,3.57,0,0,1,2.71,1.12A4.22,4.22,0,0,1,567.8,475.34Zm-1,0c0-1.92-1.09-3.18-2.76-3.18s-2.73,1.28-2.73,3.15,1.08,3.18,2.75,3.18S566.77,477.24,566.77,475.37Z"/><path class="svgtext" d="M570.81,474.25v5h-1v-7.79l1-.22v1.67a2.56,2.56,0,0,1,2.3-1.67,2.71,2.71,0,0,1,1.36.36l-.28,1a2.19,2.19,0,0,0-1.19-.34C572.14,472.25,571.41,472.91,570.81,474.25Z"/><rect class="f8d26d33-da0d-405f-917e-257a5e050eef" x="451.23" y="282.32" width="178" height="50" rx="9"/><path class="svgtext" d="M467.1,303.55v9.61H466v-9.61h-3.74v-1h8.57v1Z"/><path class="svgtext" d="M473.71,302.8a.87.87,0,0,1-.19.55.69.69,0,0,1-1,0,.87.87,0,0,1-.19-.55.81.81,0,0,1,.19-.52.61.61,0,0,1,.53-.22.6.6,0,0,1,.52.22A.81.81,0,0,1,473.71,302.8Zm-.19,10.36h-1v-7.79l1-.22Z"/><path class="svgtext" d="M476,313.16V301.7l1.06-.22v11.68Z"/><path class="svgtext" d="M480.07,309.3v.08c.05,1.79,1.1,3,2.72,3a4,4,0,0,0,2.26-.65l.2,1a4.56,4.56,0,0,1-2.5.67,3.72,3.72,0,0,1-3.75-4.05,4.35,4.35,0,0,1,1.05-3,3.36,3.36,0,0,1,2.62-1.17,2.67,2.67,0,0,1,2.84,2.87,4,4,0,0,1-.17,1.24Zm.07-.84h4.31a1.34,1.34,0,0,0,0-.34,1.78,1.78,0,0,0-1.87-2A2.5,2.5,0,0,0,480.14,308.46Z"/><path class="svgtext" d="M495.5,312.22h-.05a2.83,2.83,0,0,1-2.28,1.16,2.25,2.25,0,0,1-2.46-2.16c0-1.67,1.58-2.59,4.72-2.77V308a1.63,1.63,0,0,0-1.83-1.86,4.7,4.7,0,0,0-2.55.94l-.24-1a5.54,5.54,0,0,1,2.89-.93,2.45,2.45,0,0,1,2.79,2.79v3.74c0,.61.14.8.78.78l-.07.87C496.2,313.39,495.62,313,495.5,312.22Zm-.07-.78v-2.28c-2.61.29-3.61.87-3.61,1.94a1.42,1.42,0,0,0,1.59,1.36A2.63,2.63,0,0,0,495.43,311.44Z"/><path class="svgtext" d="M505,313.16h-1v-5c0-1.36-.53-2-1.72-2a3.34,3.34,0,0,0-2.36,1.11v5.9h-1.05v-7.79l1.05-.22v1.27a3.74,3.74,0,0,1,2.65-1.27,2.35,2.35,0,0,1,2.48,2.67Z"/><path class="svgtext" d="M512.66,305.63V301.7l1.05-.22v11.68h-1.05v-.74a3.26,3.26,0,0,1-2.26,1c-2.1,0-3.49-1.65-3.49-4.05a4.15,4.15,0,0,1,1.09-3,3.65,3.65,0,0,1,2.77-1.16A4.38,4.38,0,0,1,512.66,305.63Zm0,1.12a3.12,3.12,0,0,0-1.94-.6c-1.67,0-2.72,1.29-2.72,3.16s1,3.1,2.58,3.1a3,3,0,0,0,2.08-.87v-4.79Z"/><path class="svgtext" d="M528.36,312.32a6.3,6.3,0,0,1-3.62,1.06,4.87,4.87,0,0,1-3.72-1.5,6.39,6.39,0,0,1,0-8.06,4.85,4.85,0,0,1,3.68-1.51,6.34,6.34,0,0,1,3.37.88l-.36,1a5.44,5.44,0,0,0-3-.88c-2.4,0-4,1.68-4,4.54s1.59,4.55,4,4.55a5.2,5.2,0,0,0,2.55-.65v-2.89h-3.08v-1h4.13Z"/><path class="svgtext" d="M531.71,308.16v5h-1.05v-7.79l1.05-.22v1.66a2.57,2.57,0,0,1,2.3-1.66,2.71,2.71,0,0,1,1.36.36l-.27,1a2.34,2.34,0,0,0-1.19-.34C533,306.15,532.31,306.81,531.71,308.16Z"/><path class="svgtext" d="M543.61,309.25a4.06,4.06,0,0,1-1.09,3,3.6,3.6,0,0,1-2.73,1.16,3.5,3.5,0,0,1-2.7-1.13,4.64,4.64,0,0,1,0-6,3.58,3.58,0,0,1,2.73-1.14,3.53,3.53,0,0,1,2.71,1.12A4.2,4.2,0,0,1,543.61,309.25Zm-1,0c0-1.92-1.09-3.18-2.76-3.18s-2.73,1.28-2.73,3.15,1.08,3.17,2.75,3.17S542.58,311.15,542.58,309.28Z"/><path class="svgtext" d="M545.5,305.37h1v5c0,1.31.56,2,1.69,2a3.27,3.27,0,0,0,2.39-1.1v-5.9h1.06v7.79l-1.06.22v-1.26a3.71,3.71,0,0,1-2.68,1.26,2.36,2.36,0,0,1-2.45-2.67Z"/><path class="svgtext" d="M558,313a4.06,4.06,0,0,1-1.73.41c-1.45,0-2.14-.82-2.09-2.45l.12-4.6-1.19-.07,0-.66,1.17-.28,0-1.76h1l0,1.81h2.6l-.05.94h-2.58l-.12,4.66c0,1,.34,1.46,1.14,1.46a3.75,3.75,0,0,0,1.5-.38Z"/><path class="svgtext" d="M572.94,303.87l-3.49,9.22h-1.19l-3.52-9.23-.18,9.3h-1.07l.35-10.63h1.47l3.58,9.38,3.54-9.38h1.44l.34,10.63h-1.1Z"/><path class="svgtext" d="M580.67,312.22h0a2.83,2.83,0,0,1-2.28,1.16,2.25,2.25,0,0,1-2.46-2.16c0-1.67,1.58-2.59,4.72-2.77V308a1.63,1.63,0,0,0-1.83-1.86,4.7,4.7,0,0,0-2.55.94l-.24-1a5.51,5.51,0,0,1,2.89-.93,2.46,2.46,0,0,1,2.79,2.79v3.74c0,.61.13.8.78.78l-.07.87C581.37,313.39,580.79,313,580.67,312.22Zm-.07-.78v-2.28c-2.61.29-3.62.87-3.62,1.94a1.43,1.43,0,0,0,1.6,1.36A2.63,2.63,0,0,0,580.6,311.44Z"/><path class="svgtext" d="M587.88,313a4.09,4.09,0,0,1-1.73.41c-1.45,0-2.15-.82-2.09-2.45l.11-4.6-1.18-.07,0-.66,1.17-.28,0-1.76h1l0,1.81h2.6l0,.94h-2.58l-.12,4.66c0,1,.34,1.46,1.14,1.46a3.67,3.67,0,0,0,1.49-.38Z"/><path class="svgtext" d="M595.22,312.71a4.39,4.39,0,0,1-2.41.67c-2.33,0-3.81-1.64-3.81-4.1a4.16,4.16,0,0,1,1.09-3,3.6,3.6,0,0,1,2.74-1.15,4.45,4.45,0,0,1,2.43.66l-.27.95a3.83,3.83,0,0,0-2.16-.63c-1.69,0-2.74,1.25-2.74,3.12s1.09,3.14,2.75,3.14a3.86,3.86,0,0,0,2.16-.65Z"/><path class="svgtext" d="M603.37,313.16h-1.06v-5c0-1.31-.56-2-1.66-2a3.4,3.4,0,0,0-2.42,1.11v5.9h-1.05V301.7l1.05-.22v4.91a3.8,3.8,0,0,1,2.71-1.24c1.53,0,2.43,1,2.43,2.67Z"/><path class="svgtext" d="M606.33,309.3v.08c0,1.79,1.1,3,2.72,3a4.07,4.07,0,0,0,2.26-.65l.2,1a4.58,4.58,0,0,1-2.5.67,3.73,3.73,0,0,1-3.76-4.05,4.35,4.35,0,0,1,1.06-3,3.34,3.34,0,0,1,2.62-1.17,2.66,2.66,0,0,1,2.83,2.87,4,4,0,0,1-.17,1.24Zm.06-.84h4.32a1.34,1.34,0,0,0,0-.34,1.78,1.78,0,0,0-1.87-2A2.51,2.51,0,0,0,606.39,308.46Z"/><path class="svgtext" d="M614.81,308.16v5h-1.06v-7.79l1.06-.22v1.66a2.56,2.56,0,0,1,2.29-1.66,2.66,2.66,0,0,1,1.36.36l-.27,1a2.28,2.28,0,0,0-1.19-.34C616.13,306.15,615.4,306.81,614.81,308.16Z"/><rect class="f8d26d33-da0d-405f-917e-257a5e050eef" x="664.85" y="280.67" width="178" height="50" rx="9"/><path class="e8a65cc8-d40f-441b-9cc9-253ce6d5147a" d="M727.09,311.51h-1l-3-10.62h1.12l2.49,9.08,2.7-9.08h1.29l2.75,9.08,2.38-9.08h1.09l-3,10.62h-1.06L730,302.17Z"/><path class="e8a65cc8-d40f-441b-9cc9-253ce6d5147a" d="M745,311.51h-1.05v-5c0-1.31-.56-2-1.67-2a3.34,3.34,0,0,0-2.41,1.11v5.89h-1.06V300.06l1.06-.22v4.91a3.76,3.76,0,0,1,2.7-1.24c1.53,0,2.43.95,2.43,2.67Z"/><path class="e8a65cc8-d40f-441b-9cc9-253ce6d5147a" d="M753.27,303.73l-3,7.7-.63,1.68c-.68,1.85-1.39,2.45-2.52,2.45a3.84,3.84,0,0,1-1.51-.36l.32-1a2.64,2.64,0,0,0,1.19.34c.65,0,1.07-.39,1.6-1.8l.53-1.38-3-7.66h1.13l2.45,6.42,2.4-6.42Z"/><path class="e8a65cc8-d40f-441b-9cc9-253ce6d5147a" d="M759.67,307.26v4.25h-1.09V300.89h2.85c2.57,0,3.86,1.14,3.86,3.06a3.08,3.08,0,0,1-2.46,3l2.94,4.57h-1.26l-2.72-4.38Zm0-1,1.9-.06c1.5-.05,2.64-.89,2.64-2.23s-1-2.12-2.89-2.12h-1.65Z"/><path class="e8a65cc8-d40f-441b-9cc9-253ce6d5147a" d="M774.34,307.6a4.13,4.13,0,0,1-1.09,3,3.63,3.63,0,0,1-2.74,1.15,3.52,3.52,0,0,1-2.7-1.12,4.67,4.67,0,0,1,.05-6,3.59,3.59,0,0,1,2.74-1.14,3.52,3.52,0,0,1,2.7,1.12A4.16,4.16,0,0,1,774.34,307.6Zm-1,0c0-1.92-1.09-3.18-2.75-3.18s-2.74,1.27-2.74,3.14,1.09,3.18,2.75,3.18S773.3,309.51,773.3,307.64Z"/><path class="e8a65cc8-d40f-441b-9cc9-253ce6d5147a" d="M780.29,300l0,.24c-.06.17-.09.32-.14.48L780,301a2.8,2.8,0,0,0-1.19-.32c-.87,0-1.29.61-1.29,1.82v1.29H780l0,.94h-2.4v6.81h-1v-6.78l-1.26-.08.07-.67,1.18-.27v-1.22c0-1.87.82-2.81,2.35-2.81A3.4,3.4,0,0,1,780.29,300Z"/><path class="e8a65cc8-d40f-441b-9cc9-253ce6d5147a" d="M785.52,300l0,.24c-.05.17-.08.32-.13.48l-.07.23a2.8,2.8,0,0,0-1.19-.32c-.87,0-1.29.61-1.29,1.82v1.29h2.44l-.05.94h-2.39v6.81h-1v-6.78l-1.26-.08.07-.67,1.17-.27,0-1.22c0-1.87.81-2.81,2.34-2.81A3.37,3.37,0,0,1,785.52,300Z"/><rect class="f8d26d33-da0d-405f-917e-257a5e050eef" x="664.85" y="358.01" width="178" height="50" rx="9"/><path class="e8a65cc8-d40f-441b-9cc9-253ce6d5147a" d="M730.22,379.25v9.6h-1.09v-9.6h-3.74v-1H734v1Z"/><path class="e8a65cc8-d40f-441b-9cc9-253ce6d5147a" d="M736.84,378.5a.87.87,0,0,1-.19.55.73.73,0,0,1-1.06,0,.93.93,0,0,1-.18-.55.91.91,0,0,1,.18-.53.75.75,0,0,1,1.06,0A.86.86,0,0,1,736.84,378.5Zm-.19,10.35h-1.06v-7.78l1.06-.22Z"/><path class="e8a65cc8-d40f-441b-9cc9-253ce6d5147a" d="M749.91,388.85h-1.06v-5c0-1.33-.54-2-1.65-2a3.27,3.27,0,0,0-2.19,1,5.23,5.23,0,0,1,0,.7v5.3H744v-5c0-1.33-.54-2-1.65-2a3.27,3.27,0,0,0-2.16.9v6.1h-1v-7.78l1-.22v1.07a3.61,3.61,0,0,1,2.47-1.07,2.08,2.08,0,0,1,2.11,1.29,3.83,3.83,0,0,1,2.75-1.29c1.5,0,2.4,1,2.4,2.68Z"/><path class="e8a65cc8-d40f-441b-9cc9-253ce6d5147a" d="M752.87,385v.08c0,1.78,1.1,3,2.72,3a4.07,4.07,0,0,0,2.26-.65l.2,1a4.66,4.66,0,0,1-2.5.66,3.72,3.72,0,0,1-3.75-4,4.33,4.33,0,0,1,1.05-3,3.36,3.36,0,0,1,2.62-1.17,2.67,2.67,0,0,1,2.84,2.87,4.32,4.32,0,0,1-.17,1.24Zm.06-.84,4.32,0a1.34,1.34,0,0,0,0-.34,1.78,1.78,0,0,0-1.87-2A2.52,2.52,0,0,0,752.93,384.16Z"/><path class="e8a65cc8-d40f-441b-9cc9-253ce6d5147a" d="M760.3,388.85V377.4l1.05-.23v11.68Z"/><path class="e8a65cc8-d40f-441b-9cc9-253ce6d5147a" d="M765.05,378.5a.87.87,0,0,1-.18.55.73.73,0,0,1-1.06,0,.93.93,0,0,1-.18-.55.91.91,0,0,1,.18-.53.75.75,0,0,1,1.06,0A.85.85,0,0,1,765.05,378.5Zm-.18,10.35h-1.06v-7.78l1.06-.22Z"/><path class="e8a65cc8-d40f-441b-9cc9-253ce6d5147a" d="M773.54,388.85h-1.06v-5c0-1.36-.52-2-1.71-2a3.33,3.33,0,0,0-2.37,1.1v5.9h-1v-7.78l1-.22v1.27a3.76,3.76,0,0,1,2.66-1.27,2.34,2.34,0,0,1,2.48,2.66Z"/><path class="e8a65cc8-d40f-441b-9cc9-253ce6d5147a" d="M776.5,385v.08c0,1.78,1.1,3,2.72,3a4.07,4.07,0,0,0,2.26-.65l.2,1a4.66,4.66,0,0,1-2.5.66,3.73,3.73,0,0,1-3.76-4,4.34,4.34,0,0,1,1.06-3,3.36,3.36,0,0,1,2.62-1.17,2.67,2.67,0,0,1,2.84,2.87,4.32,4.32,0,0,1-.17,1.24Zm.06-.84,4.32,0a1.34,1.34,0,0,0,0-.34,1.78,1.78,0,0,0-1.87-2A2.52,2.52,0,0,0,776.56,384.16Z"/><rect class="f8d26d33-da0d-405f-917e-257a5e050eef" x="664.85" y="438.21" width="178" height="50" rx="9"/><path class="e8a65cc8-d40f-441b-9cc9-253ce6d5147a" d="M717.41,459.45v9.6h-1.09v-9.6h-3.74v-1h8.56v1Z"/><path class="e8a65cc8-d40f-441b-9cc9-253ce6d5147a" d="M721.71,465.19v.09c0,1.78,1.1,3,2.72,3a4.15,4.15,0,0,0,2.26-.65l.2,1a4.66,4.66,0,0,1-2.5.66,3.73,3.73,0,0,1-3.76-4,4.34,4.34,0,0,1,1.06-3,3.33,3.33,0,0,1,2.62-1.18,2.68,2.68,0,0,1,2.84,2.88,4.37,4.37,0,0,1-.17,1.24Zm.06-.83,4.32,0a1.34,1.34,0,0,0,0-.34,1.78,1.78,0,0,0-1.87-2A2.52,2.52,0,0,0,721.77,464.36Z"/><path class="e8a65cc8-d40f-441b-9cc9-253ce6d5147a" d="M733.81,466.92c0,1.42-1.19,2.35-2.79,2.35a4.69,4.69,0,0,1-2.55-.7l.29-1a4,4,0,0,0,2.3.72c1,0,1.75-.49,1.75-1.31a1,1,0,0,0-.12-.49,2,2,0,0,0-.27-.36,2.13,2.13,0,0,0-.48-.27l-.49-.21-.6-.18c-1.36-.41-2.26-1-2.26-2.21,0-1.4,1.11-2.25,2.64-2.25a5,5,0,0,1,2.36.58l-.31.95a4.28,4.28,0,0,0-2.12-.57c-.95,0-1.57.44-1.57,1.19a.84.84,0,0,0,.12.45,1.25,1.25,0,0,0,.26.34,1.31,1.31,0,0,0,.46.28l.49.2c.12.05.32.1.59.19C732.93,465.06,733.81,465.63,733.81,466.92Z"/><path class="e8a65cc8-d40f-441b-9cc9-253ce6d5147a" d="M739.59,468.9a4.08,4.08,0,0,1-1.73.4c-1.45,0-2.15-.81-2.1-2.44l.12-4.61-1.19-.07.06-.66,1.17-.27.05-1.77h1l-.05,1.82h2.6l0,.93h-2.58l-.12,4.66c0,1,.34,1.46,1.14,1.46a3.81,3.81,0,0,0,1.49-.37Z"/><path class="e8a65cc8-d40f-441b-9cc9-253ce6d5147a" d="M742.56,458.7a.82.82,0,0,1-.18.54.71.71,0,0,1-1.06,0,.89.89,0,0,1,0-1.07.75.75,0,0,1,1.06,0A.81.81,0,0,1,742.56,458.7Zm-.18,10.35h-1.06v-7.79l1.06-.22Z"/><path class="e8a65cc8-d40f-441b-9cc9-253ce6d5147a" d="M755.64,469.05h-1.06v-5c0-1.33-.54-2-1.65-2a3.27,3.27,0,0,0-2.19,1,5.11,5.11,0,0,1,0,.7v5.3h-1.06v-5c0-1.33-.54-2-1.65-2a3.22,3.22,0,0,0-2.16.9v6.1h-1v-7.79l1-.22v1.07a3.65,3.65,0,0,1,2.47-1.07,2.09,2.09,0,0,1,2.11,1.3,3.84,3.84,0,0,1,2.75-1.3c1.5,0,2.4,1,2.4,2.69Z"/><path class="e8a65cc8-d40f-441b-9cc9-253ce6d5147a" d="M765.11,465.14a4.15,4.15,0,0,1-1.09,3,3.63,3.63,0,0,1-2.74,1.15,3.52,3.52,0,0,1-2.7-1.12,4.65,4.65,0,0,1,0-6,3.62,3.62,0,0,1,2.74-1.14,3.53,3.53,0,0,1,2.7,1.13A4.14,4.14,0,0,1,765.11,465.14Zm-1,0c0-1.92-1.09-3.17-2.75-3.17s-2.74,1.27-2.74,3.14,1.09,3.18,2.75,3.18S764.07,467,764.07,465.17Z"/><path class="e8a65cc8-d40f-441b-9cc9-253ce6d5147a" d="M773.25,469.05h-1.06v-5c0-1.36-.52-2-1.71-2a3.35,3.35,0,0,0-2.37,1.1v5.9h-1.05v-7.79l1.05-.22v1.28a3.78,3.78,0,0,1,2.66-1.28,2.35,2.35,0,0,1,2.48,2.67Z"/><path class="e8a65cc8-d40f-441b-9cc9-253ce6d5147a" d="M776.9,458.7a.82.82,0,0,1-.18.54.71.71,0,0,1-1.06,0,.82.82,0,0,1-.18-.54.81.81,0,0,1,.18-.53.75.75,0,0,1,1.06,0A.81.81,0,0,1,776.9,458.7Zm-.18,10.35h-1.06v-7.79l1.06-.22Z"/><path class="e8a65cc8-d40f-441b-9cc9-253ce6d5147a" d="M783.33,468.12h-.05a2.86,2.86,0,0,1-2.28,1.15,2.24,2.24,0,0,1-2.46-2.16c0-1.66,1.58-2.58,4.72-2.77v-.46a1.63,1.63,0,0,0-1.84-1.85,4.76,4.76,0,0,0-2.54.93l-.24-1a5.43,5.43,0,0,1,2.89-.94,2.46,2.46,0,0,1,2.79,2.79v3.74c0,.61.13.8.78.78l-.07.87C784,469.29,783.45,468.91,783.33,468.12Zm-.07-.79v-2.27c-2.62.28-3.62.86-3.62,1.93a1.42,1.42,0,0,0,1.6,1.36A2.63,2.63,0,0,0,783.26,467.33Z"/><path class="e8a65cc8-d40f-441b-9cc9-253ce6d5147a" d="M786.66,469.05V457.59l1.05-.22v11.68Z"/><path class="e8a65cc8-d40f-441b-9cc9-253ce6d5147a" d="M794.84,466.92c0,1.42-1.19,2.35-2.79,2.35a4.69,4.69,0,0,1-2.55-.7l.29-1a4,4,0,0,0,2.29.72c1,0,1.76-.49,1.76-1.31a1,1,0,0,0-.12-.49,1.61,1.61,0,0,0-.28-.36,1.82,1.82,0,0,0-.47-.27l-.49-.21-.6-.18c-1.36-.41-2.26-1-2.26-2.21,0-1.4,1.1-2.25,2.63-2.25a5,5,0,0,1,2.37.58l-.31.95a4.3,4.3,0,0,0-2.12-.57c-1,0-1.57.44-1.57,1.19a.84.84,0,0,0,.12.45,1.25,1.25,0,0,0,.26.34,1.22,1.22,0,0,0,.46.28l.49.2c.12.05.32.1.59.19C794,465.06,794.84,465.63,794.84,466.92Z"/><rect class="f8d26d33-da0d-405f-917e-257a5e050eef" x="664.85" y="515.55" width="178" height="50" rx="9"/><path class="e8a65cc8-d40f-441b-9cc9-253ce6d5147a" d="M713.76,542.14v4.25h-1.09V535.76h2.86c2.56,0,3.85,1.14,3.85,3.06a3.09,3.09,0,0,1-2.46,3l2.94,4.57H718.6L715.88,542Zm0-1,1.9-.07c1.5-.05,2.64-.88,2.64-2.22s-1-2.13-2.89-2.13h-1.65Z"/><path class="e8a65cc8-d40f-441b-9cc9-253ce6d5147a" d="M728.43,542.48a4.11,4.11,0,0,1-1.09,3,3.6,3.6,0,0,1-2.74,1.16,3.52,3.52,0,0,1-2.7-1.12,4.23,4.23,0,0,1-1-3,4.18,4.18,0,0,1,1.1-3,3.62,3.62,0,0,1,2.74-1.14,3.54,3.54,0,0,1,2.7,1.12A4.18,4.18,0,0,1,728.43,542.48Zm-1,0c0-1.92-1.09-3.18-2.75-3.18s-2.74,1.28-2.74,3.15,1.09,3.18,2.76,3.18S727.39,544.38,727.39,542.51Z"/><path class="e8a65cc8-d40f-441b-9cc9-253ce6d5147a" d="M734.38,534.9l0,.24c-.05.17-.09.32-.14.47l-.07.24a2.76,2.76,0,0,0-1.19-.32c-.86,0-1.29.61-1.29,1.82v1.29h2.45l-.05.93h-2.4v6.82h-1v-6.78l-1.26-.09.07-.66,1.17-.27,0-1.23c0-1.87.81-2.8,2.34-2.8A3.4,3.4,0,0,1,734.38,534.9Z"/><path class="e8a65cc8-d40f-441b-9cc9-253ce6d5147a" d="M739.61,534.9l-.05.24c0,.17-.08.32-.13.47l-.07.24a2.8,2.8,0,0,0-1.19-.32c-.87,0-1.29.61-1.29,1.82v1.29h2.45l-.06.93h-2.39v6.82h-1v-6.78l-1.26-.09.07-.66,1.17-.27,0-1.23c0-1.87.82-2.8,2.35-2.8A3.36,3.36,0,0,1,739.61,534.9Z"/><path class="e8a65cc8-d40f-441b-9cc9-253ce6d5147a" d="M745.82,536a.83.83,0,0,1-.19.54.69.69,0,0,1-1,0,.85.85,0,0,1,0-1.07.63.63,0,0,1,.52-.22.64.64,0,0,1,.53.22A.82.82,0,0,1,745.82,536Zm-.19,10.35h-1V538.6l1-.22Z"/><path class="e8a65cc8-d40f-441b-9cc9-253ce6d5147a" d="M754.3,546.39h-1v-5c0-1.36-.53-2-1.72-2a3.33,3.33,0,0,0-2.36,1.1v5.9h-1.06V538.6l1.06-.22v1.28a3.76,3.76,0,0,1,2.65-1.28,2.35,2.35,0,0,1,2.48,2.67Z"/><path class="e8a65cc8-d40f-441b-9cc9-253ce6d5147a" d="M768,535.76h1v10.73h-1.17l-6.09-9.2v9.1h-1V535.76h1.22l6,9.12Z"/><path class="e8a65cc8-d40f-441b-9cc9-253ce6d5147a" d="M772.19,542.53v.09c0,1.78,1.1,3,2.72,3a4.17,4.17,0,0,0,2.26-.64l.2,1a4.66,4.66,0,0,1-2.5.66,3.73,3.73,0,0,1-3.76-4.05,4.33,4.33,0,0,1,1.06-3,3.33,3.33,0,0,1,2.62-1.18,2.67,2.67,0,0,1,2.84,2.87,4.44,4.44,0,0,1-.17,1.25Zm.06-.83,4.32,0a1.34,1.34,0,0,0,0-.34,1.79,1.79,0,0,0-1.87-2A2.53,2.53,0,0,0,772.25,541.7Z"/><path class="e8a65cc8-d40f-441b-9cc9-253ce6d5147a" d="M781.2,546.42l-2.38-7.82h1.12l1.8,6.21,2-6.19h1l2.13,6.22,1.61-6.24h1.16l-2.31,7.82h-.94l-2.12-6.29-2.13,6.29Z"/><path class="e8a65cc8-d40f-441b-9cc9-253ce6d5147a" d="M795.71,544.26c0,1.41-1.19,2.35-2.79,2.35a4.68,4.68,0,0,1-2.54-.7l.28-1a4.06,4.06,0,0,0,2.3.72c1,0,1.75-.49,1.75-1.31a.89.89,0,0,0-.12-.49,1.4,1.4,0,0,0-.27-.36,1.8,1.8,0,0,0-.48-.27l-.49-.21-.6-.18c-1.35-.41-2.26-1-2.26-2.21,0-1.4,1.11-2.25,2.64-2.25a5,5,0,0,1,2.36.58l-.3.95a4.33,4.33,0,0,0-2.13-.58c-.95,0-1.56.45-1.56,1.19a.79.79,0,0,0,.12.46,1.25,1.25,0,0,0,.25.34,1.26,1.26,0,0,0,.46.27l.49.21c.12.05.33.1.6.19C794.83,542.39,795.71,543,795.71,544.26Z"/><rect class="e8a65cc8-d40f-441b-9cc9-253ce6d5147a" x="858.23" y="131.05" width="178" height="50" rx="9"/><path class="af005155-5747-45be-8c7d-7e9691cee1c2" d="M928.33,161.14c1.48,0,2.52-.87,2.52-2s-.82-1.68-2.69-2.22c-.44-.14-.81-.28-1.12-.41a4.65,4.65,0,0,1-1-.53,2.27,2.27,0,0,1-.75-.85,2.61,2.61,0,0,1-.25-1.19c0-1.68,1.41-2.89,3.4-2.89a5.8,5.8,0,0,1,3.19.92l-.39.95a4.81,4.81,0,0,0-2.79-.88c-1.53,0-2.36.76-2.36,1.82s.8,1.53,2.69,2.12c.44.14.81.27,1.14.41a7.52,7.52,0,0,1,1,.56,2.38,2.38,0,0,1,.73.88,3.17,3.17,0,0,1,.23,1.23c0,1.78-1.46,3.06-3.58,3.06a6.17,6.17,0,0,1-3.42-1l.39-1A5.28,5.28,0,0,0,928.33,161.14Z"/><path class="af005155-5747-45be-8c7d-7e9691cee1c2" d="M934.38,158v.08c0,1.79,1.11,3,2.72,3a4.12,4.12,0,0,0,2.26-.64l.21,1a4.61,4.61,0,0,1-2.5.67,3.73,3.73,0,0,1-3.76-4.05,4.37,4.37,0,0,1,1.06-3,3.34,3.34,0,0,1,2.61-1.17,2.66,2.66,0,0,1,2.84,2.87,4,4,0,0,1-.17,1.24Zm.07-.83,4.32,0a1.34,1.34,0,0,0,0-.34,1.79,1.79,0,0,0-1.87-2A2.52,2.52,0,0,0,934.45,157.2Z"/><path class="af005155-5747-45be-8c7d-7e9691cee1c2" d="M945.94,161h-.05a2.83,2.83,0,0,1-2.28,1.16,2.25,2.25,0,0,1-2.46-2.16c0-1.67,1.58-2.58,4.73-2.77v-.46a1.63,1.63,0,0,0-1.84-1.85,4.68,4.68,0,0,0-2.55.93l-.24-1a5.46,5.46,0,0,1,2.89-.94,2.46,2.46,0,0,1,2.79,2.79v3.74c0,.61.14.8.78.78l-.07.87C946.64,162.13,946.06,161.75,945.94,161Zm-.06-.78v-2.28c-2.62.29-3.63.87-3.63,1.94a1.42,1.42,0,0,0,1.6,1.36A2.67,2.67,0,0,0,945.88,160.17Z"/><path class="af005155-5747-45be-8c7d-7e9691cee1c2" d="M950.33,156.89v5h-1.05V154.1l1.05-.22v1.67a2.56,2.56,0,0,1,2.29-1.67,2.66,2.66,0,0,1,1.36.36l-.27,1a2.28,2.28,0,0,0-1.19-.34C951.66,154.88,950.92,155.55,950.33,156.89Z"/><path class="af005155-5747-45be-8c7d-7e9691cee1c2" d="M960.87,161.44a4.39,4.39,0,0,1-2.41.67c-2.33,0-3.81-1.63-3.81-4.1a4.08,4.08,0,0,1,1.09-3,3.57,3.57,0,0,1,2.73-1.16,4.4,4.4,0,0,1,2.43.66l-.27,1a3.75,3.75,0,0,0-2.16-.63c-1.68,0-2.73,1.24-2.73,3.11s1.08,3.14,2.75,3.14a4,4,0,0,0,2.16-.64Z"/><path class="af005155-5747-45be-8c7d-7e9691cee1c2" d="M969,161.89h-1v-5c0-1.31-.56-2-1.67-2a3.38,3.38,0,0,0-2.41,1.11v5.9h-1.06V150.43l1.06-.22v4.91a3.76,3.76,0,0,1,2.7-1.24c1.53,0,2.43,1,2.43,2.67Z"/><rect class="e8a65cc8-d40f-441b-9cc9-253ce6d5147a" x="1061.85" y="131.05" width="178" height="50" rx="9"/><path class="af005155-5747-45be-8c7d-7e9691cee1c2" d="M1108.26,151.26h6.25v1h-5.17v4h4.29v1h-4.29v4.64h-1.08Z"/><path class="af005155-5747-45be-8c7d-7e9691cee1c2" d="M1117.52,151.54a.88.88,0,0,1-.18.54.71.71,0,0,1-1.06,0,.85.85,0,0,1,0-1.07.75.75,0,0,1,1.06,0A.87.87,0,0,1,1117.52,151.54Zm-.18,10.35h-1.06V154.1l1.06-.22Z"/><path class="af005155-5747-45be-8c7d-7e9691cee1c2" d="M1126,161.89h-1v-5c0-1.36-.53-2-1.72-2a3.34,3.34,0,0,0-2.36,1.11v5.9h-1V154.1l1-.22v1.28a3.76,3.76,0,0,1,2.65-1.28c1.57,0,2.48,1,2.48,2.67Z"/><path class="af005155-5747-45be-8c7d-7e9691cee1c2" d="M1133.64,154.36v-3.93l1-.22v11.68h-1v-.73a3.25,3.25,0,0,1-2.26,1c-2.09,0-3.49-1.65-3.49-4.05a4.17,4.17,0,0,1,1.09-3,3.65,3.65,0,0,1,2.77-1.16A4.35,4.35,0,0,1,1133.64,154.36Zm0,1.12a3.12,3.12,0,0,0-1.94-.6c-1.67,0-2.72,1.29-2.72,3.16s1,3.1,2.58,3.1a3,3,0,0,0,2.08-.87v-4.79Z"/><path class="af005155-5747-45be-8c7d-7e9691cee1c2" d="M1145.15,161h-.05a2.85,2.85,0,0,1-2.28,1.16,2.25,2.25,0,0,1-2.47-2.16c0-1.67,1.58-2.58,4.73-2.77v-.46a1.63,1.63,0,0,0-1.84-1.85,4.74,4.74,0,0,0-2.55.93l-.23-1a5.4,5.4,0,0,1,2.88-.94,2.45,2.45,0,0,1,2.79,2.79v3.74c0,.61.14.8.79.78l-.07.87C1145.84,162.13,1145.27,161.75,1145.15,161Zm-.07-.78v-2.28c-2.62.29-3.62.87-3.62,1.94a1.42,1.42,0,0,0,1.6,1.36A2.66,2.66,0,0,0,1145.08,160.17Z"/><path class="af005155-5747-45be-8c7d-7e9691cee1c2" d="M1161,156.5c0,3.36-2.09,5.39-5.71,5.39h-2.81V151.26h2.89a5.83,5.83,0,0,1,4.12,1.43A5.06,5.06,0,0,1,1161,156.5Zm-1.09.08c0-2.7-1.68-4.31-4.61-4.31h-1.73v8.61h1.77C1158.17,160.88,1159.92,159.42,1159.92,156.58Z"/><path class="af005155-5747-45be-8c7d-7e9691cee1c2" d="M1163.59,158v.08c.05,1.79,1.11,3,2.72,3a4.12,4.12,0,0,0,2.26-.64l.21,1a4.61,4.61,0,0,1-2.5.67,3.73,3.73,0,0,1-3.76-4.05,4.37,4.37,0,0,1,1.06-3,3.34,3.34,0,0,1,2.61-1.17,2.66,2.66,0,0,1,2.84,2.87,4,4,0,0,1-.17,1.24Zm.07-.83,4.32,0a1.34,1.34,0,0,0,0-.34,1.79,1.79,0,0,0-1.88-2A2.52,2.52,0,0,0,1163.66,157.2Z"/><path class="af005155-5747-45be-8c7d-7e9691cee1c2" d="M1175.15,161h-.05a2.85,2.85,0,0,1-2.28,1.16,2.25,2.25,0,0,1-2.46-2.16c0-1.67,1.58-2.58,4.72-2.77v-.46a1.62,1.62,0,0,0-1.83-1.85,4.68,4.68,0,0,0-2.55.93l-.24-1a5.43,5.43,0,0,1,2.89-.94,2.46,2.46,0,0,1,2.79,2.79v3.74c0,.61.13.8.78.78l-.07.87C1175.85,162.13,1175.27,161.75,1175.15,161Zm-.07-.78v-2.28c-2.61.29-3.62.87-3.62,1.94a1.42,1.42,0,0,0,1.6,1.36A2.63,2.63,0,0,0,1175.08,160.17Z"/><path class="af005155-5747-45be-8c7d-7e9691cee1c2" d="M1178.48,161.89V150.43l1.06-.22v11.68Z"/><path class="af005155-5747-45be-8c7d-7e9691cee1c2" d="M1182.55,158v.08c0,1.79,1.1,3,2.72,3a4.14,4.14,0,0,0,2.26-.64l.2,1a4.58,4.58,0,0,1-2.5.67,3.72,3.72,0,0,1-3.75-4.05,4.36,4.36,0,0,1,1-3,3.36,3.36,0,0,1,2.62-1.17,2.67,2.67,0,0,1,2.84,2.87,4.32,4.32,0,0,1-.17,1.24Zm.06-.83,4.32,0a1.34,1.34,0,0,0,0-.34,1.78,1.78,0,0,0-1.87-2A2.53,2.53,0,0,0,1182.61,157.2Z"/><path class="af005155-5747-45be-8c7d-7e9691cee1c2" d="M1191,156.89v5h-1V154.1l1-.22v1.67a2.56,2.56,0,0,1,2.3-1.67,2.65,2.65,0,0,1,1.35.36l-.27,1a2.28,2.28,0,0,0-1.19-.34Q1191.93,154.88,1191,156.89Z"/><rect class="f8d26d33-da0d-405f-917e-257a5e050eef" x="1265.47" y="131.05" width="178" height="50" rx="9"/><path class="e8a65cc8-d40f-441b-9cc9-253ce6d5147a" d="M1346,152.61l-3.49,9.21h-1.19l-3.52-9.23-.18,9.3h-1.07l.35-10.63h1.47l3.58,9.39,3.54-9.39h1.44l.34,10.63h-1.1Z"/><path class="e8a65cc8-d40f-441b-9cc9-253ce6d5147a" d="M1350.15,158v.08c0,1.79,1.11,3,2.72,3a4.12,4.12,0,0,0,2.26-.64l.21,1a4.61,4.61,0,0,1-2.5.67,3.73,3.73,0,0,1-3.76-4.05,4.37,4.37,0,0,1,1.06-3,3.34,3.34,0,0,1,2.61-1.17,2.66,2.66,0,0,1,2.84,2.87,4,4,0,0,1-.17,1.24Zm.07-.83,4.32,0a1.34,1.34,0,0,0,0-.34,1.79,1.79,0,0,0-1.87-2A2.52,2.52,0,0,0,1350.22,157.2Z"/><path class="e8a65cc8-d40f-441b-9cc9-253ce6d5147a" d="M1363.77,161.89h-1v-5c0-1.36-.53-2-1.72-2a3.34,3.34,0,0,0-2.36,1.11v5.9h-1.06V154.1l1.06-.22v1.28a3.76,3.76,0,0,1,2.65-1.28,2.35,2.35,0,0,1,2.48,2.67Z"/><path class="e8a65cc8-d40f-441b-9cc9-253ce6d5147a" d="M1366.1,154.1h1.05v5c0,1.31.56,2,1.69,2a3.27,3.27,0,0,0,2.39-1.1v-5.9h1.06v7.79l-1.06.22v-1.26a3.71,3.71,0,0,1-2.68,1.26,2.36,2.36,0,0,1-2.45-2.67Z"/><path class="aaf7874f-7097-49a0-9334-0ee242475572" d="M37.48,210.71H1472.94"/><line class="aaf7874f-7097-49a0-9334-0ee242475572" x1="540.23" y1="181.05" x2="540.23" y2="246.09"/><circle class="e8a65cc8-d40f-441b-9cc9-253ce6d5147a" cx="540.23" cy="245.9" r="3.76"/><line class="aaf7874f-7097-49a0-9334-0ee242475572" x1="753.6" y1="181.05" x2="753.6" y2="246.09"/><circle class="e8a65cc8-d40f-441b-9cc9-253ce6d5147a" cx="753.6" cy="245.9" r="3.76"/><path class="a9fbddfa-f584-4d4e-ba20-798bf7e1ce19" d="M1052.1,265.9h197.5V429.65H1052.1Z"/><path class="a9fbddfa-f584-4d4e-ba20-798bf7e1ce19" d="M1259.05,265.9h197.51V583.33H1259.05Z"/><rect class="f8d26d33-da0d-405f-917e-257a5e050eef" x="1061.85" y="361.75" width="178" height="50" rx="9"/><path class="svgtext" d="M1097.51,392.59h-1.27l-3.9-10.63h1.11l3.45,9.51,3.43-9.51h1.11Z"/><path class="svgtext" d="M1104.09,382.24a.83.83,0,0,1-.19.54.63.63,0,0,1-.52.24.67.67,0,0,1-.53-.24.85.85,0,0,1,0-1.07.65.65,0,0,1,.53-.22.62.62,0,0,1,.52.22A.82.82,0,0,1,1104.09,382.24Zm-.19,10.35h-1.05V384.8l1.05-.22Z"/><path class="svgtext" d="M1107,388.73v.08c0,1.79,1.1,3,2.72,3a4.14,4.14,0,0,0,2.26-.64l.2,1a4.64,4.64,0,0,1-2.5.66,3.72,3.72,0,0,1-3.75-4.05,4.36,4.36,0,0,1,1-3,3.36,3.36,0,0,1,2.62-1.17,2.67,2.67,0,0,1,2.84,2.87,4.11,4.11,0,0,1-.17,1.25Zm.06-.83,4.32,0a1.34,1.34,0,0,0,0-.34,1.78,1.78,0,0,0-1.87-2A2.53,2.53,0,0,0,1107,387.9Z"/><path class="svgtext" d="M1116,392.62l-2.38-7.82h1.12l1.8,6.21,2-6.19h1l2.12,6.22,1.61-6.24h1.16l-2.31,7.82h-.94l-2.12-6.29-2.12,6.29Z"/><path class="svgtext" d="M1138.33,387.2c0,3.37-2.09,5.39-5.71,5.39h-2.81V382h2.89a5.82,5.82,0,0,1,4.12,1.43A5.06,5.06,0,0,1,1138.33,387.2Zm-1.09.08c0-2.7-1.68-4.31-4.61-4.31h-1.73v8.62h1.77C1135.49,391.59,1137.24,390.12,1137.24,387.28Z"/><path class="svgtext" d="M1140.91,388.73v.08c0,1.79,1.11,3,2.72,3a4.12,4.12,0,0,0,2.26-.64l.21,1a4.69,4.69,0,0,1-2.5.66,3.73,3.73,0,0,1-3.76-4.05,4.37,4.37,0,0,1,1.06-3,3.34,3.34,0,0,1,2.61-1.17,2.66,2.66,0,0,1,2.84,2.87,4.11,4.11,0,0,1-.17,1.25Zm.07-.83,4.32,0a1.34,1.34,0,0,0,0-.34,1.79,1.79,0,0,0-1.87-2A2.52,2.52,0,0,0,1141,387.9Z"/><path class="svgtext" d="M1152.47,391.65h0a2.83,2.83,0,0,1-2.28,1.16,2.25,2.25,0,0,1-2.46-2.16c0-1.67,1.58-2.58,4.72-2.77v-.46a1.62,1.62,0,0,0-1.83-1.85,4.76,4.76,0,0,0-2.55.93l-.24-1a5.43,5.43,0,0,1,2.89-.94,2.46,2.46,0,0,1,2.79,2.79v3.74c0,.61.13.8.78.78l-.07.87C1153.17,392.83,1152.59,392.45,1152.47,391.65Zm-.07-.78v-2.28c-2.61.29-3.62.87-3.62,1.94a1.42,1.42,0,0,0,1.6,1.36A2.63,2.63,0,0,0,1152.4,390.87Z"/><path class="svgtext" d="M1155.8,392.59V381.13l1.06-.22v11.68Z"/><path class="svgtext" d="M1159.87,388.73v.08c.05,1.79,1.1,3,2.72,3a4.12,4.12,0,0,0,2.26-.64l.2,1a4.64,4.64,0,0,1-2.5.66,3.72,3.72,0,0,1-3.75-4.05,4.36,4.36,0,0,1,1-3,3.37,3.37,0,0,1,2.62-1.17,2.67,2.67,0,0,1,2.84,2.87,4.11,4.11,0,0,1-.17,1.25Zm.07-.83,4.31,0a1.34,1.34,0,0,0,0-.34,1.78,1.78,0,0,0-1.87-2A2.51,2.51,0,0,0,1159.94,387.9Z"/><path class="svgtext" d="M1168.35,387.59v5h-1V384.8l1-.22v1.67a2.56,2.56,0,0,1,2.3-1.67,2.71,2.71,0,0,1,1.36.36l-.28,1a2.27,2.27,0,0,0-1.19-.33C1169.68,385.59,1169,386.25,1168.35,387.59Z"/><path class="svgtext" d="M1178,390.46c0,1.41-1.19,2.35-2.78,2.35a4.69,4.69,0,0,1-2.55-.7l.28-1a4.06,4.06,0,0,0,2.3.72c1,0,1.75-.5,1.75-1.31a1,1,0,0,0-.12-.5,1.25,1.25,0,0,0-.75-.62c-.22-.11-.39-.17-.49-.21l-.59-.18c-1.36-.41-2.27-1-2.27-2.21,0-1.4,1.11-2.25,2.64-2.25a5,5,0,0,1,2.36.58l-.3.95a4.33,4.33,0,0,0-2.13-.58c-.95,0-1.56.45-1.56,1.19a.79.79,0,0,0,.12.46,1.25,1.25,0,0,0,.25.34,1.26,1.26,0,0,0,.46.27l.49.21c.12.05.33.1.6.19C1177.14,388.59,1178,389.17,1178,390.46Z"/><path class="svgtext" d="M1179.25,382.25a.89.89,0,0,1,.92-.85,1.27,1.27,0,0,1,1.2,1.35c0,1-.69,2-2.11,2.92l-.45-.43c1-.73,1.49-1.41,1.49-2C1180.3,382.8,1180,382.54,1179.25,382.25Z"/><path class="svgtext" d="M1187,392.59V382h1.09v9.61h5.25v1Z"/><path class="svgtext" d="M1196.28,382.24a.83.83,0,0,1-.19.54.63.63,0,0,1-.52.24.67.67,0,0,1-.53-.24.85.85,0,0,1,0-1.07.65.65,0,0,1,.53-.22.62.62,0,0,1,.52.22A.82.82,0,0,1,1196.28,382.24Zm-.19,10.35h-1V384.8l1-.22Z"/><path class="svgtext" d="M1203.25,390.46c0,1.41-1.19,2.35-2.79,2.35a4.69,4.69,0,0,1-2.55-.7l.29-1a4.06,4.06,0,0,0,2.3.72c1,0,1.75-.5,1.75-1.31a1.06,1.06,0,0,0-.12-.5,1.86,1.86,0,0,0-.27-.35,1.8,1.8,0,0,0-.48-.27c-.22-.11-.39-.17-.49-.21l-.6-.18c-1.36-.41-2.26-1-2.26-2.21,0-1.4,1.11-2.25,2.64-2.25a5,5,0,0,1,2.36.58l-.31.95a4.29,4.29,0,0,0-2.12-.58c-.95,0-1.56.45-1.56,1.19a.87.87,0,0,0,.11.46,1.25,1.25,0,0,0,.26.34,1.18,1.18,0,0,0,.46.27l.49.21c.12.05.32.1.6.19C1202.37,388.59,1203.25,389.17,1203.25,390.46Z"/><path class="svgtext" d="M1209,392.43a3.92,3.92,0,0,1-1.73.41c-1.45,0-2.14-.81-2.09-2.44l.12-4.61-1.19-.07,0-.66,1.17-.27.05-1.77h1l-.05,1.82h2.6l0,.93h-2.58l-.12,4.66c0,1,.34,1.46,1.14,1.46a3.81,3.81,0,0,0,1.49-.37Z"/><rect class="f8d26d33-da0d-405f-917e-257a5e050eef" x="1061.85" y="283.8" width="178" height="50" rx="9"/><path class="svgtext" d="M1102.46,314.64V304h6.42v1h-5.33v3.81H1108v1h-4.45v3.83h5.33v1Z"/><path class="svgtext" d="M1117.13,314.64h-1.05v-5c0-1.36-.53-2-1.72-2a3.33,3.33,0,0,0-2.36,1.1v5.9h-1.06v-7.78l1.06-.23v1.28a3.76,3.76,0,0,1,2.65-1.28,2.35,2.35,0,0,1,2.48,2.67Z"/><path class="svgtext" d="M1123.4,314.49a4,4,0,0,1-1.73.41c-1.45,0-2.14-.82-2.09-2.45l.12-4.61-1.19-.07,0-.66,1.17-.27,0-1.77h1l-.06,1.82h2.61l-.06.93h-2.58l-.12,4.66c0,1,.34,1.46,1.14,1.46a3.85,3.85,0,0,0,1.5-.37Z"/><path class="svgtext" d="M1125.6,310.78v.09c.05,1.78,1.1,3,2.72,3a4.15,4.15,0,0,0,2.26-.65l.2,1a4.66,4.66,0,0,1-2.5.66,3.72,3.72,0,0,1-3.75-4,4.33,4.33,0,0,1,1-3,3.36,3.36,0,0,1,2.62-1.18,2.68,2.68,0,0,1,2.84,2.88,4.37,4.37,0,0,1-.17,1.24Zm.06-.83,4.32,0a1.34,1.34,0,0,0,0-.34,1.78,1.78,0,0,0-1.87-2A2.52,2.52,0,0,0,1125.66,310Z"/><path class="svgtext" d="M1134.08,309.64v5h-1v-7.78l1-.23v1.67a2.58,2.58,0,0,1,2.29-1.67,2.66,2.66,0,0,1,1.36.36l-.27,1a2.28,2.28,0,0,0-1.19-.34C1135.41,307.64,1134.67,308.3,1134.08,309.64Z"/><path class="svgtext" d="M1143.09,314.64V304h1.09v9.6h5.25v1Z"/><path class="svgtext" d="M1158,310.73a4.13,4.13,0,0,1-1.09,3,3.62,3.62,0,0,1-2.73,1.15,3.53,3.53,0,0,1-2.71-1.12,4.68,4.68,0,0,1,0-6,3.65,3.65,0,0,1,2.74-1.14,3.5,3.5,0,0,1,2.7,1.13A4.14,4.14,0,0,1,1158,310.73Zm-1,0c0-1.92-1.08-3.17-2.75-3.17s-2.74,1.27-2.74,3.14,1.09,3.18,2.76,3.18S1156.94,312.63,1156.94,310.76Z"/><path class="svgtext" d="M1165.65,314.2a4.53,4.53,0,0,1-2.42.66c-2.33,0-3.8-1.63-3.8-4.1a4.15,4.15,0,0,1,1.08-3,3.64,3.64,0,0,1,2.74-1.16,4.43,4.43,0,0,1,2.43.67l-.27.95a3.75,3.75,0,0,0-2.16-.63c-1.68,0-2.74,1.24-2.74,3.11s1.09,3.15,2.76,3.15a4,4,0,0,0,2.16-.65Z"/><path class="svgtext" d="M1171.73,313.71h0a2.85,2.85,0,0,1-2.28,1.15,2.25,2.25,0,0,1-2.46-2.16q0-2.49,4.73-2.77v-.46a1.63,1.63,0,0,0-1.84-1.85,4.7,4.7,0,0,0-2.55.94l-.24-1a5.46,5.46,0,0,1,2.89-.94,2.46,2.46,0,0,1,2.79,2.79v3.74c0,.61.14.8.78.78l-.07.87C1172.43,314.88,1171.85,314.5,1171.73,313.71Zm-.06-.79v-2.27c-2.62.28-3.62.86-3.62,1.93a1.42,1.42,0,0,0,1.59,1.36A2.67,2.67,0,0,0,1171.67,312.92Z"/><path class="svgtext" d="M1178.94,314.49a4.06,4.06,0,0,1-1.73.41c-1.45,0-2.14-.82-2.09-2.45l.12-4.61-1.19-.07,0-.66,1.17-.27,0-1.77h1l0,1.82h2.6l0,.93h-2.58l-.12,4.66c0,1,.34,1.46,1.14,1.46a3.81,3.81,0,0,0,1.49-.37Z"/><path class="svgtext" d="M1181.92,304.29a.83.83,0,0,1-.19.54.64.64,0,0,1-.53.24.62.62,0,0,1-.52-.24.83.83,0,0,1-.19-.54.86.86,0,0,1,.19-.53.63.63,0,0,1,.52-.22.65.65,0,0,1,.53.22A.86.86,0,0,1,1181.92,304.29Zm-.19,10.35h-1v-7.78l1-.23Z"/><path class="svgtext" d="M1191.28,310.73a4.09,4.09,0,0,1-1.09,3,3.62,3.62,0,0,1-2.73,1.15,3.53,3.53,0,0,1-2.71-1.12,4.67,4.67,0,0,1,.06-6,3.61,3.61,0,0,1,2.73-1.14,3.54,3.54,0,0,1,2.71,1.13A4.18,4.18,0,0,1,1191.28,310.73Zm-1,0c0-1.92-1.09-3.17-2.76-3.17s-2.74,1.27-2.74,3.14,1.09,3.18,2.76,3.18S1190.25,312.63,1190.25,310.76Z"/><path class="svgtext" d="M1199.42,314.64h-1.05v-5c0-1.36-.53-2-1.72-2a3.33,3.33,0,0,0-2.36,1.1v5.9h-1v-7.78l1-.23v1.28a3.77,3.77,0,0,1,2.65-1.28,2.34,2.34,0,0,1,2.48,2.67Z"/><rect class="f8d26d33-da0d-405f-917e-257a5e050eef" x="1268.81" y="282.16" width="178" height="50" rx="9"/><path class="e8a65cc8-d40f-441b-9cc9-253ce6d5147a" d="M1309.1,303.72l-3.48,9.21h-1.19l-3.52-9.23-.19,9.3h-1.07l.36-10.62h1.46l3.59,9.38,3.53-9.38H1310l.34,10.62h-1.11Z"/><path class="e8a65cc8-d40f-441b-9cc9-253ce6d5147a" d="M1316.84,312.07h0a2.86,2.86,0,0,1-2.28,1.15,2.25,2.25,0,0,1-2.47-2.16q0-2.49,4.73-2.77v-.46a1.63,1.63,0,0,0-1.84-1.85,4.76,4.76,0,0,0-2.55.94l-.24-1A5.46,5.46,0,0,1,1315,305a2.46,2.46,0,0,1,2.79,2.79v3.74c0,.61.14.8.78.78l-.06.87C1317.53,313.24,1317,312.86,1316.84,312.07Zm-.07-.79V309c-2.62.28-3.62.86-3.62,1.93a1.42,1.42,0,0,0,1.6,1.36A2.66,2.66,0,0,0,1316.77,311.28Z"/><path class="e8a65cc8-d40f-441b-9cc9-253ce6d5147a" d="M1321.22,308v5h-1v-7.79l1-.22v1.67a2.56,2.56,0,0,1,2.3-1.67,2.71,2.71,0,0,1,1.36.36l-.28,1a2.27,2.27,0,0,0-1.18-.34C1322.55,306,1321.82,306.66,1321.22,308Z"/><path class="e8a65cc8-d40f-441b-9cc9-253ce6d5147a" d="M1332.34,317h-1v-4.69a3.26,3.26,0,0,1-2.27,1c-2.09,0-3.48-1.65-3.48-4a4.18,4.18,0,0,1,1.09-3,3.69,3.69,0,0,1,2.77-1.16,4.92,4.92,0,0,1,2.06.45l.88-.5Zm-1-10.37a3.08,3.08,0,0,0-1.94-.61c-1.67,0-2.72,1.31-2.72,3.18s1,3.11,2.58,3.11a2.92,2.92,0,0,0,2.08-.89v-4.79Z"/><path class="e8a65cc8-d40f-441b-9cc9-253ce6d5147a" d="M1334.72,305.21h1v5c0,1.3.57,2,1.69,2a3.29,3.29,0,0,0,2.39-1.11v-5.9h1.06V313l-1.06.22V312a3.68,3.68,0,0,1-2.68,1.26,2.35,2.35,0,0,1-2.45-2.67Z"/><path class="e8a65cc8-d40f-441b-9cc9-253ce6d5147a" d="M1343.92,309.14v.09c0,1.78,1.1,3,2.72,3a4.12,4.12,0,0,0,2.26-.65l.2,1a4.64,4.64,0,0,1-2.5.66,3.72,3.72,0,0,1-3.75-4,4.33,4.33,0,0,1,1.05-3,3.33,3.33,0,0,1,2.62-1.18,2.68,2.68,0,0,1,2.84,2.88,4,4,0,0,1-.17,1.24Zm.07-.83,4.31,0a1.34,1.34,0,0,0,0-.34,1.78,1.78,0,0,0-1.87-2A2.5,2.5,0,0,0,1344,308.31Z"/><path class="e8a65cc8-d40f-441b-9cc9-253ce6d5147a" d="M1351.91,309.14v.09c0,1.78,1.1,3,2.72,3a4.12,4.12,0,0,0,2.26-.65l.2,1a4.64,4.64,0,0,1-2.5.66,3.72,3.72,0,0,1-3.75-4,4.33,4.33,0,0,1,1.05-3,3.35,3.35,0,0,1,2.62-1.18,2.68,2.68,0,0,1,2.84,2.88,4,4,0,0,1-.17,1.24Zm.07-.83,4.31,0a1.34,1.34,0,0,0,0-.34,1.78,1.78,0,0,0-1.87-2A2.5,2.5,0,0,0,1352,308.31Z"/><path class="e8a65cc8-d40f-441b-9cc9-253ce6d5147a" d="M1370.17,305.69c0,2.3-1.58,3.5-4.29,3.55l-1.44,0V313h-1.09V302.38H1366C1368.75,302.38,1370.17,303.67,1370.17,305.69Zm-1.13.05c0-1.53-1.07-2.36-3.06-2.36h-1.54v4.88l1.51,0C1368,308.19,1369,307.36,1369,305.74Z"/><path class="e8a65cc8-d40f-441b-9cc9-253ce6d5147a" d="M1373.09,308v5h-1v-7.79l1-.22v1.67a2.56,2.56,0,0,1,2.29-1.67,2.72,2.72,0,0,1,1.37.36l-.28,1a2.28,2.28,0,0,0-1.19-.34C1374.42,306,1373.69,306.66,1373.09,308Z"/><path class="e8a65cc8-d40f-441b-9cc9-253ce6d5147a" d="M1385,309.09a4.15,4.15,0,0,1-1.09,3,3.62,3.62,0,0,1-2.73,1.15,3.53,3.53,0,0,1-2.71-1.12,4.68,4.68,0,0,1,0-6,3.62,3.62,0,0,1,2.74-1.14,3.52,3.52,0,0,1,2.7,1.13A4.14,4.14,0,0,1,1385,309.09Zm-1,0c0-1.92-1.09-3.17-2.75-3.17s-2.74,1.27-2.74,3.14,1.09,3.18,2.76,3.18S1384,311,1384,309.12Z"/><path class="e8a65cc8-d40f-441b-9cc9-253ce6d5147a" d="M1386.18,317.25l-.71-.75c1.13-.59,1.49-1.29,1.49-3v-8.33L1388,305v8.55C1388,315.55,1387.52,316.52,1386.18,317.25Zm2-14.6a.88.88,0,0,1-.18.54.71.71,0,0,1-1.06,0,.85.85,0,0,1,0-1.07.75.75,0,0,1,1.06,0A.87.87,0,0,1,1388.2,302.65Z"/><path class="e8a65cc8-d40f-441b-9cc9-253ce6d5147a" d="M1391,309.14v.09c.06,1.78,1.11,3,2.72,3a4.12,4.12,0,0,0,2.26-.65l.21,1a4.66,4.66,0,0,1-2.5.66,3.72,3.72,0,0,1-3.76-4,4.34,4.34,0,0,1,1.06-3,3.32,3.32,0,0,1,2.62-1.18,2.67,2.67,0,0,1,2.83,2.88,4,4,0,0,1-.17,1.24Zm.07-.83,4.32,0a1.34,1.34,0,0,0,0-.34,1.78,1.78,0,0,0-1.87-2A2.51,2.51,0,0,0,1391.09,308.31Z"/><path class="e8a65cc8-d40f-441b-9cc9-253ce6d5147a" d="M1404.17,312.56a4.53,4.53,0,0,1-2.42.66c-2.33,0-3.81-1.63-3.81-4.1a4.15,4.15,0,0,1,1.09-3,3.59,3.59,0,0,1,2.74-1.16,4.37,4.37,0,0,1,2.43.67l-.27.95a3.75,3.75,0,0,0-2.16-.63c-1.68,0-2.74,1.24-2.74,3.11s1.09,3.15,2.76,3.15a3.93,3.93,0,0,0,2.15-.65Z"/><path class="e8a65cc8-d40f-441b-9cc9-253ce6d5147a" d="M1410,312.85a4.08,4.08,0,0,1-1.74.4c-1.44,0-2.14-.81-2.09-2.44l.12-4.61-1.19-.07.05-.66,1.17-.27.06-1.77h1l-.05,1.82h2.6l0,.93h-2.59l-.12,4.66c0,1,.34,1.46,1.14,1.46a3.85,3.85,0,0,0,1.5-.37Z"/><path class="e8a65cc8-d40f-441b-9cc9-253ce6d5147a" d="M1416.39,310.88c0,1.41-1.19,2.34-2.79,2.34a4.69,4.69,0,0,1-2.55-.7l.29-1a4,4,0,0,0,2.29.72c1,0,1.75-.49,1.75-1.31a1,1,0,0,0-.11-.49,1.61,1.61,0,0,0-.28-.36,1.82,1.82,0,0,0-.47-.27l-.5-.21-.59-.18c-1.36-.41-2.26-1-2.26-2.21,0-1.4,1.1-2.25,2.63-2.25a5,5,0,0,1,2.37.58l-.31.95a4.3,4.3,0,0,0-2.12-.57c-1,0-1.57.44-1.57,1.19a.84.84,0,0,0,.12.45,1.33,1.33,0,0,0,.71.62l.5.2c.12,0,.32.1.59.19C1415.5,309,1416.39,309.58,1416.39,310.88Z"/><rect class="e8a65cc8-d40f-441b-9cc9-253ce6d5147a" x="1268.81" y="359.5" width="178" height="50" rx="9"/><path class="af005155-5747-45be-8c7d-7e9691cee1c2" d="M1286.35,380.36l-.34,1a5.4,5.4,0,0,0-3-.85c-2.4,0-4,1.68-4,4.54s1.58,4.55,4,4.55a4.86,4.86,0,0,0,3-.95l.2,1.07a5.72,5.72,0,0,1-3.2.87,4.83,4.83,0,0,1-3.72-1.5,6.38,6.38,0,0,1,0-8.05,4.82,4.82,0,0,1,3.68-1.52A6.16,6.16,0,0,1,1286.35,380.36Z"/><path class="af005155-5747-45be-8c7d-7e9691cee1c2" d="M1294.51,390.34h-1v-5c0-1.31-.56-2-1.66-2a3.39,3.39,0,0,0-2.42,1.1v5.9h-1.05V378.88l1.05-.22v4.91a3.78,3.78,0,0,1,2.7-1.24c1.53,0,2.43.95,2.43,2.67Z"/><path class="af005155-5747-45be-8c7d-7e9691cee1c2" d="M1301,389.4h0a2.83,2.83,0,0,1-2.28,1.16,2.25,2.25,0,0,1-2.46-2.16c0-1.67,1.58-2.58,4.72-2.77v-.46a1.62,1.62,0,0,0-1.83-1.85,4.76,4.76,0,0,0-2.55.93l-.24-1a5.43,5.43,0,0,1,2.89-.94,2.46,2.46,0,0,1,2.79,2.79v3.74c0,.61.14.8.78.78l-.07.87C1301.74,390.58,1301.16,390.2,1301,389.4Zm-.07-.78v-2.28c-2.61.29-3.62.87-3.62,1.94a1.42,1.42,0,0,0,1.6,1.36A2.63,2.63,0,0,0,1301,388.62Z"/><path class="af005155-5747-45be-8c7d-7e9691cee1c2" d="M1315.15,390.34h-1.05v-5q0-2-1.65-2a3.19,3.19,0,0,0-2.19,1c0,.13,0,.37,0,.69v5.31h-1v-5q0-2-1.65-2a3.21,3.21,0,0,0-2.16.9v6.1h-1v-7.79l1-.22v1.07a3.63,3.63,0,0,1,2.46-1.07,2.08,2.08,0,0,1,2.11,1.29,3.9,3.9,0,0,1,2.76-1.29c1.49,0,2.39,1,2.39,2.69Z"/><path class="af005155-5747-45be-8c7d-7e9691cee1c2" d="M1318.6,383.34a3.26,3.26,0,0,1,2.26-1c2.1,0,3.49,1.63,3.49,4a4.24,4.24,0,0,1-1.07,3,3.63,3.63,0,0,1-2.77,1.17,4.45,4.45,0,0,1-1.91-.41v4.15h-1V382.52l1-.22Zm0,.88V389a3.16,3.16,0,0,0,2,.61c1.63,0,2.7-1.31,2.7-3.18s-1-3.08-2.57-3.08A3,3,0,0,0,1318.6,384.22Z"/><path class="af005155-5747-45be-8c7d-7e9691cee1c2" d="M1334.31,389.4h0a2.85,2.85,0,0,1-2.28,1.16,2.24,2.24,0,0,1-2.46-2.16c0-1.67,1.58-2.58,4.72-2.77v-.46a1.62,1.62,0,0,0-1.83-1.85,4.76,4.76,0,0,0-2.55.93l-.24-1a5.43,5.43,0,0,1,2.89-.94,2.46,2.46,0,0,1,2.79,2.79v3.74c0,.61.13.8.78.78l-.07.87C1335,390.58,1334.43,390.2,1334.31,389.4Zm-.07-.78v-2.28c-2.61.29-3.62.87-3.62,1.94a1.42,1.42,0,0,0,1.6,1.36A2.63,2.63,0,0,0,1334.24,388.62Z"/><path class="af005155-5747-45be-8c7d-7e9691cee1c2" d="M1343.83,390.34h-1v-5c0-1.36-.53-2-1.72-2a3.33,3.33,0,0,0-2.36,1.1v5.9h-1.06v-7.79l1.06-.22v1.28a3.76,3.76,0,0,1,2.65-1.28,2.35,2.35,0,0,1,2.48,2.67Z"/><path class="af005155-5747-45be-8c7d-7e9691cee1c2" d="M1351.46,382.81v-3.93l1.06-.22v11.68h-1.06v-.73a3.23,3.23,0,0,1-2.26.95c-2.09,0-3.48-1.65-3.48-4.05a4.17,4.17,0,0,1,1.09-3,3.65,3.65,0,0,1,2.77-1.16A4.34,4.34,0,0,1,1351.46,382.81Zm0,1.12a3.08,3.08,0,0,0-1.93-.59c-1.67,0-2.72,1.29-2.72,3.16s1,3.09,2.58,3.09a2.93,2.93,0,0,0,2.07-.87v-4.79Z"/><path class="af005155-5747-45be-8c7d-7e9691cee1c2" d="M1368.17,381.06l-3.48,9.21h-1.19L1360,381l-.18,9.3h-1.08l.36-10.63h1.46l3.59,9.39,3.54-9.39h1.44l.34,10.63h-1.11Z"/><path class="af005155-5747-45be-8c7d-7e9691cee1c2" d="M1375.91,389.4h-.05a2.85,2.85,0,0,1-2.28,1.16,2.24,2.24,0,0,1-2.46-2.16c0-1.67,1.58-2.58,4.72-2.77v-.46a1.62,1.62,0,0,0-1.83-1.85,4.76,4.76,0,0,0-2.55.93l-.24-1a5.43,5.43,0,0,1,2.89-.94,2.46,2.46,0,0,1,2.79,2.79v3.74c0,.61.13.8.78.78l-.07.87C1376.61,390.58,1376,390.2,1375.91,389.4Zm-.07-.78v-2.28c-2.62.29-3.62.87-3.62,1.94a1.42,1.42,0,0,0,1.6,1.36A2.63,2.63,0,0,0,1375.84,388.62Z"/><path class="af005155-5747-45be-8c7d-7e9691cee1c2" d="M1383.92,388.21c0,1.41-1.19,2.35-2.79,2.35a4.69,4.69,0,0,1-2.55-.7l.29-1a4,4,0,0,0,2.29.72c1,0,1.75-.5,1.75-1.31a1,1,0,0,0-.11-.5,1.53,1.53,0,0,0-.28-.35,1.57,1.57,0,0,0-.47-.27,4.33,4.33,0,0,0-.5-.21l-.59-.18c-1.36-.41-2.26-1-2.26-2.21,0-1.4,1.1-2.25,2.63-2.25a5,5,0,0,1,2.37.58l-.31.95a4.32,4.32,0,0,0-2.12-.58c-1,0-1.57.45-1.57,1.19a.88.88,0,0,0,.12.46,1.25,1.25,0,0,0,.26.34,1.12,1.12,0,0,0,.45.27l.5.21c.12.05.32.1.59.19C1383,386.34,1383.92,386.92,1383.92,388.21Z"/><path class="af005155-5747-45be-8c7d-7e9691cee1c2" d="M1389.7,390.18a4,4,0,0,1-1.74.41c-1.44,0-2.14-.81-2.09-2.44l.12-4.61-1.19-.07,0-.66,1.18-.27,0-1.77h1l0,1.82h2.6l-.05.93H1387l-.11,4.66c0,1,.34,1.46,1.13,1.46a3.85,3.85,0,0,0,1.5-.37Z"/><path class="af005155-5747-45be-8c7d-7e9691cee1c2" d="M1391.89,386.48v.08c0,1.79,1.11,3,2.72,3a4.12,4.12,0,0,0,2.26-.64l.21,1a4.69,4.69,0,0,1-2.5.66,3.73,3.73,0,0,1-3.76-4.05,4.41,4.41,0,0,1,1-3,3.37,3.37,0,0,1,2.62-1.17,2.67,2.67,0,0,1,2.84,2.87,4.11,4.11,0,0,1-.17,1.25Zm.07-.83,4.32,0a2.66,2.66,0,0,0,0-.34,1.78,1.78,0,0,0-1.87-2A2.52,2.52,0,0,0,1392,385.65Z"/><path class="af005155-5747-45be-8c7d-7e9691cee1c2" d="M1400.37,385.34v5h-1v-7.79l1-.22V384a2.56,2.56,0,0,1,2.3-1.67,2.71,2.71,0,0,1,1.36.36l-.27,1a2.32,2.32,0,0,0-1.19-.33C1401.7,383.34,1401,384,1400.37,385.34Z"/><path class="af005155-5747-45be-8c7d-7e9691cee1c2" d="M1413.24,380.73v9.61h-1.09v-9.61h-3.74v-1H1417v1Z"/><path class="af005155-5747-45be-8c7d-7e9691cee1c2" d="M1419.85,380a.82.82,0,0,1-.18.54.71.71,0,0,1-1.06,0,.89.89,0,0,1,0-1.07.75.75,0,0,1,1.06,0A.81.81,0,0,1,1419.85,380Zm-.18,10.35h-1.06v-7.79l1.06-.22Z"/><path class="af005155-5747-45be-8c7d-7e9691cee1c2" d="M1422.15,390.34V378.88l1-.22v11.68Z"/><path class="af005155-5747-45be-8c7d-7e9691cee1c2" d="M1426.21,386.48v.08c0,1.79,1.11,3,2.72,3a4.12,4.12,0,0,0,2.26-.64l.21,1a4.69,4.69,0,0,1-2.5.66,3.73,3.73,0,0,1-3.76-4.05,4.37,4.37,0,0,1,1.06-3,3.34,3.34,0,0,1,2.61-1.17,2.66,2.66,0,0,1,2.84,2.87,4.11,4.11,0,0,1-.17,1.25Zm.07-.83,4.32,0a1.34,1.34,0,0,0,0-.34,1.79,1.79,0,0,0-1.87-2A2.52,2.52,0,0,0,1426.28,385.65Z"/><path class="af005155-5747-45be-8c7d-7e9691cee1c2" d="M1434.7,385.34v5h-1.06v-7.79l1.06-.22V384a2.55,2.55,0,0,1,2.29-1.67,2.69,2.69,0,0,1,1.36.36l-.27,1a2.32,2.32,0,0,0-1.19-.33C1436,383.34,1435.29,384,1434.7,385.34Z"/><rect class="f8d26d33-da0d-405f-917e-257a5e050eef" x="1268.81" y="439.69" width="178" height="50" rx="9"/><path class="e8a65cc8-d40f-441b-9cc9-253ce6d5147a" d="M1329.74,460.56l-.34,1a5.35,5.35,0,0,0-3-.85c-2.4,0-4,1.68-4,4.53s1.58,4.56,4,4.56a4.86,4.86,0,0,0,3-.95l.2,1.07a5.68,5.68,0,0,1-3.19.87,4.84,4.84,0,0,1-3.72-1.5,6.38,6.38,0,0,1,0-8.06,4.87,4.87,0,0,1,3.69-1.51A6.16,6.16,0,0,1,1329.74,460.56Z"/><path class="e8a65cc8-d40f-441b-9cc9-253ce6d5147a" d="M1338.53,466.63a4.11,4.11,0,0,1-1.09,3,3.6,3.6,0,0,1-2.74,1.16,3.53,3.53,0,0,1-2.7-1.13,4.67,4.67,0,0,1,0-6,3.59,3.59,0,0,1,2.74-1.14,3.52,3.52,0,0,1,2.7,1.12A4.16,4.16,0,0,1,1338.53,466.63Zm-1,0c0-1.92-1.09-3.18-2.75-3.18s-2.74,1.28-2.74,3.15,1.09,3.17,2.75,3.17S1337.49,468.53,1337.49,466.66Z"/><path class="e8a65cc8-d40f-441b-9cc9-253ce6d5147a" d="M1346.67,470.54h-1.05v-5c0-1.36-.53-2-1.72-2a3.34,3.34,0,0,0-2.36,1.11v5.9h-1.06v-7.79l1.06-.22v1.27a3.74,3.74,0,0,1,2.65-1.27,2.35,2.35,0,0,1,2.48,2.67Z"/><path class="e8a65cc8-d40f-441b-9cc9-253ce6d5147a" d="M1352.94,470.38a4,4,0,0,1-1.73.41c-1.45,0-2.14-.82-2.09-2.45l.12-4.6-1.19-.07,0-.67,1.17-.27,0-1.77h1l-.06,1.82h2.61l-.06.94h-2.58l-.12,4.66c0,1,.34,1.46,1.14,1.46a3.71,3.71,0,0,0,1.5-.38Z"/><path class="e8a65cc8-d40f-441b-9cc9-253ce6d5147a" d="M1358.79,469.6h0a2.85,2.85,0,0,1-2.28,1.16,2.24,2.24,0,0,1-2.46-2.16c0-1.67,1.58-2.59,4.72-2.77v-.46a1.63,1.63,0,0,0-1.83-1.86,4.7,4.7,0,0,0-2.55.94l-.24-1a5.51,5.51,0,0,1,2.89-.93,2.46,2.46,0,0,1,2.79,2.79v3.74c0,.61.13.8.78.78l-.07.87C1359.49,470.77,1358.91,470.4,1358.79,469.6Zm-.07-.78v-2.28c-2.61.29-3.62.87-3.62,1.94a1.43,1.43,0,0,0,1.6,1.36A2.63,2.63,0,0,0,1358.72,468.82Z"/><path class="e8a65cc8-d40f-441b-9cc9-253ce6d5147a" d="M1367.84,470.09a4.45,4.45,0,0,1-2.42.67c-2.33,0-3.81-1.64-3.81-4.1a4.16,4.16,0,0,1,1.09-3,3.61,3.61,0,0,1,2.74-1.15,4.45,4.45,0,0,1,2.43.66l-.27.95a3.83,3.83,0,0,0-2.16-.63c-1.69,0-2.74,1.25-2.74,3.12s1.09,3.14,2.76,3.14a3.85,3.85,0,0,0,2.15-.65Z"/><path class="e8a65cc8-d40f-441b-9cc9-253ce6d5147a" d="M1373.67,470.38a4.1,4.1,0,0,1-1.74.41c-1.44,0-2.14-.82-2.09-2.45l.12-4.6-1.19-.07,0-.67,1.17-.27.06-1.77h1l0,1.82h2.6l0,.94H1371l-.12,4.66c0,1,.34,1.46,1.14,1.46a3.71,3.71,0,0,0,1.5-.38Z"/><path class="e8a65cc8-d40f-441b-9cc9-253ce6d5147a" d="M1387.28,466.47c0,2.69-1.41,4.29-4,4.29s-4-1.57-4-4.12v-6.73h1v6.6c0,2.07,1,3.24,3,3.24s2.91-1.12,2.91-3.26v-6.58h1.07Z"/><path class="e8a65cc8-d40f-441b-9cc9-253ce6d5147a" d="M1394.41,468.41c0,1.41-1.19,2.35-2.79,2.35a4.69,4.69,0,0,1-2.55-.7l.29-1a4,4,0,0,0,2.29.71c1,0,1.75-.49,1.75-1.3a1,1,0,0,0-.12-.5,1.29,1.29,0,0,0-.27-.35,1.78,1.78,0,0,0-.47-.28c-.23-.1-.4-.17-.5-.2l-.59-.19c-1.36-.41-2.26-1-2.26-2.21,0-1.39,1.1-2.24,2.63-2.24a5,5,0,0,1,2.36.58l-.3.95a4.33,4.33,0,0,0-2.13-.58c-1,0-1.56.44-1.56,1.19a.81.81,0,0,0,.12.46,1.66,1.66,0,0,0,.25.34,1.42,1.42,0,0,0,.46.27l.5.21c.11.05.32.1.59.18C1393.52,466.54,1394.41,467.12,1394.41,468.41Z"/><rect class="e8a65cc8-d40f-441b-9cc9-253ce6d5147a" x="1268.81" y="517.03" width="178" height="50" rx="9"/><path class="af005155-5747-45be-8c7d-7e9691cee1c2" d="M1300.33,527.7l-.34,1a5.41,5.41,0,0,0-3-.85c-2.4,0-4,1.69-4,4.54s1.58,4.56,4,4.56a4.86,4.86,0,0,0,3-.95l.2,1.07a5.76,5.76,0,0,1-3.19.86,4.83,4.83,0,0,1-3.72-1.49,6.41,6.41,0,0,1,0-8.06,4.87,4.87,0,0,1,3.69-1.51A6.16,6.16,0,0,1,1300.33,527.7Z"/><path class="af005155-5747-45be-8c7d-7e9691cee1c2" d="M1309.12,533.76a4.13,4.13,0,0,1-1.09,3,3.63,3.63,0,0,1-2.74,1.15,3.52,3.52,0,0,1-2.7-1.12,4.67,4.67,0,0,1,.05-6,3.59,3.59,0,0,1,2.74-1.14,3.52,3.52,0,0,1,2.7,1.12A4.16,4.16,0,0,1,1309.12,533.76Zm-1,0c0-1.92-1.09-3.18-2.75-3.18s-2.74,1.27-2.74,3.14,1.09,3.18,2.75,3.18S1308.08,535.67,1308.08,533.8Z"/><path class="af005155-5747-45be-8c7d-7e9691cee1c2" d="M1317.26,537.67h-1v-5c0-1.36-.53-2-1.72-2a3.33,3.33,0,0,0-2.36,1.1v5.9h-1.06v-7.78l1.06-.22v1.27a3.74,3.74,0,0,1,2.65-1.27,2.35,2.35,0,0,1,2.48,2.67Z"/><path class="af005155-5747-45be-8c7d-7e9691cee1c2" d="M1325.85,537.67h-1.06v-5c0-1.36-.53-2-1.71-2a3.33,3.33,0,0,0-2.37,1.1v5.9h-1v-7.78l1-.22v1.27a3.76,3.76,0,0,1,2.65-1.27,2.35,2.35,0,0,1,2.49,2.67Z"/><path class="af005155-5747-45be-8c7d-7e9691cee1c2" d="M1328.8,533.81v.09c.06,1.78,1.11,3,2.72,3a4.1,4.1,0,0,0,2.27-.65l.2,1a4.69,4.69,0,0,1-2.5.66,3.72,3.72,0,0,1-3.76-4,4.34,4.34,0,0,1,1.06-3,3.34,3.34,0,0,1,2.62-1.17,2.66,2.66,0,0,1,2.83,2.87,4,4,0,0,1-.17,1.24Zm.07-.83,4.32,0a1.34,1.34,0,0,0,0-.34,1.78,1.78,0,0,0-1.87-2A2.51,2.51,0,0,0,1328.87,533Z"/><path class="af005155-5747-45be-8c7d-7e9691cee1c2" d="M1342,537.23a4.53,4.53,0,0,1-2.42.66c-2.33,0-3.81-1.63-3.81-4.09a4.16,4.16,0,0,1,1.09-3,3.61,3.61,0,0,1,2.74-1.15,4.45,4.45,0,0,1,2.43.66l-.27.95a3.83,3.83,0,0,0-2.16-.63c-1.68,0-2.74,1.24-2.74,3.11s1.09,3.15,2.76,3.15a3.85,3.85,0,0,0,2.15-.65Z"/><path class="af005155-5747-45be-8c7d-7e9691cee1c2" d="M1347.78,537.52a4.1,4.1,0,0,1-1.74.41c-1.44,0-2.14-.82-2.09-2.45l.12-4.61-1.19-.06,0-.67,1.17-.27.06-1.77h1l-.05,1.82h2.6l0,.94h-2.59l-.12,4.65c0,1,.35,1.47,1.14,1.47a3.71,3.71,0,0,0,1.5-.38Z"/><path class="af005155-5747-45be-8c7d-7e9691cee1c2" d="M1354.78,537.71l-2.38-7.82h1.12l1.8,6.2,2-6.19h1l2.12,6.23,1.62-6.24h1.15l-2.31,7.82H1360l-2.13-6.29-2.12,6.29Z"/><path class="af005155-5747-45be-8c7d-7e9691cee1c2" d="M1365.88,527.32a.87.87,0,0,1-.19.55.63.63,0,0,1-.52.23.66.66,0,0,1-.53-.23.87.87,0,0,1-.19-.55.86.86,0,0,1,.19-.53.65.65,0,0,1,.53-.22.62.62,0,0,1,.52.22A.86.86,0,0,1,1365.88,527.32Zm-.19,10.35h-1v-7.78l1-.22Z"/><path class="af005155-5747-45be-8c7d-7e9691cee1c2" d="M1372.05,537.52a4.06,4.06,0,0,1-1.73.41c-1.45,0-2.14-.82-2.09-2.45l.12-4.61-1.19-.06,0-.67,1.17-.27,0-1.77h1l0,1.82h2.6l0,.94h-2.58l-.12,4.65c0,1,.34,1.47,1.14,1.47a3.67,3.67,0,0,0,1.49-.38Z"/><path class="af005155-5747-45be-8c7d-7e9691cee1c2" d="M1380,537.67h-1.06v-5c0-1.31-.56-2-1.66-2a3.39,3.39,0,0,0-2.42,1.1v5.9h-1V526.22l1-.22v4.91a3.76,3.76,0,0,1,2.71-1.24c1.53,0,2.43,1,2.43,2.67Z"/><path class="af005155-5747-45be-8c7d-7e9691cee1c2" d="M1390.36,536.74h0a2.86,2.86,0,0,1-2.28,1.15,2.24,2.24,0,0,1-2.46-2.15c0-1.67,1.58-2.59,4.72-2.78v-.46a1.62,1.62,0,0,0-1.83-1.85,4.7,4.7,0,0,0-2.55.94l-.24-1a5.42,5.42,0,0,1,2.89-.93,2.46,2.46,0,0,1,2.79,2.78v3.74c0,.62.13.8.78.79l-.07.86C1391.06,537.91,1390.48,537.54,1390.36,536.74Zm-.07-.78v-2.28c-2.62.29-3.62.86-3.62,1.94a1.43,1.43,0,0,0,1.6,1.36A2.63,2.63,0,0,0,1390.29,536Z"/><path class="af005155-5747-45be-8c7d-7e9691cee1c2" d="M1398.79,533.42v4.25h-1.09V527.05h2.86c2.57,0,3.86,1.14,3.86,3.06a3.09,3.09,0,0,1-2.47,3l2.94,4.57h-1.25l-2.72-4.38Zm0-1,1.91-.06c1.49,0,2.63-.89,2.63-2.23s-1-2.12-2.89-2.12h-1.65Z"/><path class="af005155-5747-45be-8c7d-7e9691cee1c2" d="M1413.46,533.76a4.12,4.12,0,0,1-1.08,3,3.66,3.66,0,0,1-2.74,1.15,3.49,3.49,0,0,1-2.7-1.12,4.64,4.64,0,0,1,0-6,3.58,3.58,0,0,1,2.73-1.14,3.53,3.53,0,0,1,2.71,1.12A4.19,4.19,0,0,1,1413.46,533.76Zm-1,0c0-1.92-1.09-3.18-2.76-3.18s-2.73,1.27-2.73,3.14,1.08,3.18,2.75,3.18S1412.43,535.67,1412.43,533.8Z"/><path class="af005155-5747-45be-8c7d-7e9691cee1c2" d="M1419.41,526.18l-.05.24c0,.17-.08.32-.13.48l-.07.23a2.8,2.8,0,0,0-1.19-.32c-.87,0-1.29.61-1.29,1.82v1.29h2.44l0,.94h-2.39v6.81h-1v-6.78l-1.26-.08.07-.67,1.17-.27,0-1.22c0-1.87.82-2.81,2.35-2.81A3.36,3.36,0,0,1,1419.41,526.18Z"/><path class="af005155-5747-45be-8c7d-7e9691cee1c2" d="M1424.65,526.18l-.05.24c0,.17-.09.32-.14.48l-.07.23a2.8,2.8,0,0,0-1.19-.32c-.86,0-1.29.61-1.29,1.82v1.29h2.45l0,.94h-2.4v6.81h-1v-6.78l-1.26-.08.06-.67,1.18-.27,0-1.22c0-1.87.81-2.81,2.34-2.81A3.4,3.4,0,0,1,1424.65,526.18Z"/><path class="af005155-5747-45be-8c7d-7e9691cee1c2" d="M1337.18,558.07V547.45h6.43v1h-5.34v3.81h4.46v1h-4.46v3.82h5.34v1Z"/><path class="af005155-5747-45be-8c7d-7e9691cee1c2" d="M1349.9,558.07l-2.11-3.28-2.09,3.28h-1.19l2.69-4-2.52-3.79h1.18l1.93,3,1.91-3h1.17l-2.48,3.75,2.68,4Z"/><path class="af005155-5747-45be-8c7d-7e9691cee1c2" d="M1353.42,551.07a3.25,3.25,0,0,1,2.26-1c2.09,0,3.49,1.63,3.49,4a4.17,4.17,0,0,1-1.08,3,3.61,3.61,0,0,1-2.77,1.17,4.43,4.43,0,0,1-1.9-.4V562h-1.05V550.25l1.05-.22Zm0,.88v4.78a3.08,3.08,0,0,0,2,.61c1.63,0,2.7-1.31,2.7-3.18s-1-3.07-2.57-3.07A3.06,3.06,0,0,0,1353.42,552Z"/><path class="af005155-5747-45be-8c7d-7e9691cee1c2" d="M1361.68,554.21v.09c0,1.78,1.11,3,2.72,3a4,4,0,0,0,2.26-.65l.21,1a4.69,4.69,0,0,1-2.5.66,3.72,3.72,0,0,1-3.76-4,4.34,4.34,0,0,1,1.06-3,3.34,3.34,0,0,1,2.61-1.17,2.66,2.66,0,0,1,2.84,2.87,4,4,0,0,1-.17,1.24Zm.07-.83,4.32,0a1.34,1.34,0,0,0,0-.34,1.78,1.78,0,0,0-1.88-2A2.51,2.51,0,0,0,1361.75,553.38Z"/><path class="af005155-5747-45be-8c7d-7e9691cee1c2" d="M1370.17,553.08v5h-1.06v-7.78l1.06-.22v1.66a2.56,2.56,0,0,1,2.29-1.66,2.68,2.68,0,0,1,1.36.35l-.27,1a2.34,2.34,0,0,0-1.19-.34C1371.49,551.07,1370.76,551.73,1370.17,553.08Z"/><path class="af005155-5747-45be-8c7d-7e9691cee1c2" d="M1379.29,557.92a4,4,0,0,1-1.73.41c-1.44,0-2.14-.82-2.09-2.45l.12-4.61-1.19-.06,0-.67,1.17-.27.05-1.77h1l0,1.82h2.6l-.06.94h-2.58l-.12,4.65c0,1,.34,1.47,1.14,1.47a3.71,3.71,0,0,0,1.5-.38Z"/><line class="aaf7874f-7097-49a0-9334-0ee242475572" x1="1150.85" y1="182.53" x2="1150.85" y2="247.58"/><path class="e8a65cc8-d40f-441b-9cc9-253ce6d5147a" d="M1147.09,247.39a3.76,3.76,0,1,0,3.76-3.76A3.76,3.76,0,0,0,1147.09,247.39Z"/><line class="aaf7874f-7097-49a0-9334-0ee242475572" x1="1357.56" y1="182.53" x2="1357.56" y2="247.58"/><path class="e8a65cc8-d40f-441b-9cc9-253ce6d5147a" d="M1353.8,247.39a3.76,3.76,0,1,0,3.76-3.76A3.76,3.76,0,0,0,1353.8,247.39Z"/></g></g></svg>
