<svg xmlns="http://www.w3.org/2000/svg" viewBox="0 0 1507.26 667.74"><defs><style>.a13cc738-5118-4979-9a4d-ac0e78eab016,.a5c8af85-607f-4095-9b90-3b2c60f8d096,.bef220d7-ec34-4843-8694-8e002668e897,.bf92d24f-9e2e-45b7-a0c1-c1152af369dc,.e3806031-be68-4502-8730-72ce3ceec30c{fill:none;stroke:#799400;}.a5c8af85-607f-4095-9b90-3b2c60f8d096,.bef220d7-ec34-4843-8694-8e002668e897{stroke-linecap:round;stroke-linejoin:round;}.ea746ab7-7d58-42e8-857d-d2e5cdedb854{fill:#799400;}.a13cc738-5118-4979-9a4d-ac0e78eab016{stroke-width:2px;}.e6a7cdd6-7562-4f32-ad2d-c84efb74d17e{fill:#111115;}.a5c8af85-607f-4095-9b90-3b2c60f8d096,.bf92d24f-9e2e-45b7-a0c1-c1152af369dc,.e3806031-be68-4502-8730-72ce3ceec30c{stroke-dasharray:5 5;}.bf92d24f-9e2e-45b7-a0c1-c1152af369dc{stroke-miterlimit:10;}</style></defs><g id="b3f6b1d7-e8eb-4941-ab04-bc4d28d18ca2" data-name="Layer 2"><g id="b4986a4c-8513-48d2-9d09-03dfef654478" data-name="Layer 1"><path class="bef220d7-ec34-4843-8694-8e002668e897" d="M.5.5H1506.76V667.24H.5Z"/><path class="ea746ab7-7d58-42e8-857d-d2e5cdedb854" d="M651.1,385.32c0,2.29-1.58,3.5-4.29,3.55l-1.44,0v3.74h-1.09V382H647C649.69,382,651.1,383.3,651.1,385.32Zm-1.12.05c0-1.53-1.07-2.36-3.06-2.36h-1.55v4.88l1.51,0C648.94,387.82,650,387,650,385.37Z"/><path class="ea746ab7-7d58-42e8-857d-d2e5cdedb854" d="M654,387.63v5h-1v-7.79l1-.22v1.67a2.56,2.56,0,0,1,2.3-1.67,2.71,2.71,0,0,1,1.36.36l-.27,1a2.24,2.24,0,0,0-1.19-.34C655.35,385.63,654.62,386.29,654,387.63Z"/><path class="ea746ab7-7d58-42e8-857d-d2e5cdedb854" d="M665.92,388.72a4.06,4.06,0,0,1-1.09,3,3.6,3.6,0,0,1-2.73,1.16,3.53,3.53,0,0,1-2.71-1.12,4.23,4.23,0,0,1-1-3,4.14,4.14,0,0,1,1.11-3,3.61,3.61,0,0,1,2.73-1.14,3.53,3.53,0,0,1,2.7,1.12A4.18,4.18,0,0,1,665.92,388.72Zm-1,0c0-1.92-1.08-3.18-2.75-3.18s-2.74,1.28-2.74,3.15,1.09,3.18,2.76,3.18S664.88,390.62,664.88,388.75Z"/><path class="ea746ab7-7d58-42e8-857d-d2e5cdedb854" d="M673.11,385.1v-3.93l1.06-.22v11.68h-1.06v-.73a3.25,3.25,0,0,1-2.26,1c-2.09,0-3.48-1.65-3.48-4.05a4.16,4.16,0,0,1,1.08-3,3.67,3.67,0,0,1,2.78-1.16A4.34,4.34,0,0,1,673.11,385.1Zm0,1.12a3.09,3.09,0,0,0-1.94-.59c-1.66,0-2.72,1.29-2.72,3.16s1,3.09,2.59,3.09a2.94,2.94,0,0,0,2.07-.87v-4.79Z"/><path class="ea746ab7-7d58-42e8-857d-d2e5cdedb854" d="M676.55,384.84h1.05v5c0,1.3.56,2,1.68,2a3.29,3.29,0,0,0,2.4-1.11v-5.9h1.05v7.79l-1.05.22v-1.26a3.73,3.73,0,0,1-2.69,1.26,2.35,2.35,0,0,1-2.44-2.67Z"/><path class="ea746ab7-7d58-42e8-857d-d2e5cdedb854" d="M690.9,392.19a4.53,4.53,0,0,1-2.42.66c-2.33,0-3.81-1.63-3.81-4.1a4.14,4.14,0,0,1,1.09-3,3.59,3.59,0,0,1,2.74-1.16,4.37,4.37,0,0,1,2.43.67l-.27.95a3.75,3.75,0,0,0-2.16-.63c-1.68,0-2.74,1.24-2.74,3.11s1.09,3.14,2.76,3.14a3.92,3.92,0,0,0,2.15-.64Z"/><path class="ea746ab7-7d58-42e8-857d-d2e5cdedb854" d="M696.73,392.48a4.08,4.08,0,0,1-1.74.4c-1.44,0-2.14-.81-2.09-2.44l.12-4.61-1.19-.07,0-.66,1.17-.27.06-1.77h1l-.05,1.82h2.6l0,.93H694l-.12,4.66c0,1,.34,1.46,1.14,1.46a3.85,3.85,0,0,0,1.5-.37Z"/><path class="ea746ab7-7d58-42e8-857d-d2e5cdedb854" d="M702.49,392.63V382h1.07v10.63Z"/><path class="ea746ab7-7d58-42e8-857d-d2e5cdedb854" d="M717,392.63h-1.05v-5q0-2-1.65-2a3.23,3.23,0,0,0-2.19,1c0,.13,0,.37,0,.7v5.3h-1.05v-5q0-2-1.65-2a3.21,3.21,0,0,0-2.16.9v6.1h-1v-7.79l1-.22v1.07a3.63,3.63,0,0,1,2.46-1.07,2.08,2.08,0,0,1,2.11,1.3,3.88,3.88,0,0,1,2.76-1.3c1.49,0,2.39,1,2.39,2.69Z"/><path class="ea746ab7-7d58-42e8-857d-d2e5cdedb854" d="M723.5,391.69h0a2.85,2.85,0,0,1-2.28,1.16,2.24,2.24,0,0,1-2.46-2.16c0-1.66,1.58-2.58,4.72-2.77v-.46a1.62,1.62,0,0,0-1.83-1.85,4.76,4.76,0,0,0-2.55.93l-.24-1a5.43,5.43,0,0,1,2.89-.94,2.46,2.46,0,0,1,2.79,2.79v3.74c0,.61.13.8.78.78l-.07.87C724.2,392.87,723.62,392.49,723.5,391.69Zm-.07-.78v-2.28c-2.61.29-3.62.87-3.62,1.94a1.42,1.42,0,0,0,1.6,1.36A2.63,2.63,0,0,0,723.43,390.91Z"/><path class="ea746ab7-7d58-42e8-857d-d2e5cdedb854" d="M727.43,392.65c-.7-.26-1.06-.67-1.06-1.24a1.71,1.71,0,0,1,1.28-1.48,2.61,2.61,0,0,1-1.26-2.38,2.88,2.88,0,0,1,3.06-2.93,3.78,3.78,0,0,1,1.84.46l2.16-.17,0,1.06-1.72-.17a2.69,2.69,0,0,1,.63,1.75,2.85,2.85,0,0,1-3,2.85,3.42,3.42,0,0,1-1.15-.22c-.58.24-.87.54-.87.94s.44.8,1.77.8h1c2.16,0,3.23.67,3.23,2a2.45,2.45,0,0,1-1.21,2.07,5,5,0,0,1-2.89.81c-2.09,0-3.52-.91-3.52-2.27A2.07,2.07,0,0,1,727.43,392.65Zm.92.2c-.94.25-1.58.87-1.58,1.53,0,.93,1,1.6,2.65,1.6s2.92-.78,2.92-1.84c0-.88-.75-1.24-2.36-1.24C729.33,392.9,728.79,392.88,728.35,392.85Zm-.92-5.29a1.89,1.89,0,0,0,2,2,1.75,1.75,0,0,0,1.41-.58,2,2,0,0,0,.53-1.46,2.1,2.1,0,0,0-.51-1.46,2,2,0,0,0-1.48-.56A1.9,1.9,0,0,0,727.43,387.56Z"/><path class="ea746ab7-7d58-42e8-857d-d2e5cdedb854" d="M735.35,388.77v.09c0,1.78,1.1,3,2.72,3a4.12,4.12,0,0,0,2.26-.64l.2,1a4.63,4.63,0,0,1-2.49.66,3.73,3.73,0,0,1-3.76-4.05,4.37,4.37,0,0,1,1.05-3,3.35,3.35,0,0,1,2.62-1.18,2.67,2.67,0,0,1,2.84,2.88,4.09,4.09,0,0,1-.17,1.24Zm.07-.83,4.32,0a2.66,2.66,0,0,0,0-.34,1.78,1.78,0,0,0-1.87-2A2.52,2.52,0,0,0,735.42,387.94Z"/><path class="ea746ab7-7d58-42e8-857d-d2e5cdedb854" d="M747.45,390.5c0,1.42-1.19,2.35-2.78,2.35a4.69,4.69,0,0,1-2.55-.7l.29-1a4,4,0,0,0,2.29.72c1,0,1.75-.49,1.75-1.31a.89.89,0,0,0-.12-.49,1.2,1.2,0,0,0-.27-.36,1.52,1.52,0,0,0-.48-.27l-.49-.21-.59-.18c-1.36-.41-2.26-1-2.26-2.21,0-1.4,1.1-2.25,2.63-2.25a5,5,0,0,1,2.36.58l-.3.95a4.33,4.33,0,0,0-2.13-.58c-.95,0-1.56.45-1.56,1.19a.79.79,0,0,0,.12.46,1.25,1.25,0,0,0,.25.34,1.41,1.41,0,0,0,.46.28l.49.2c.12,0,.33.1.6.19C746.57,388.63,747.45,389.21,747.45,390.5Z"/><path class="ea746ab7-7d58-42e8-857d-d2e5cdedb854" d="M757.37,391.69h-.06a2.81,2.81,0,0,1-2.27,1.16,2.25,2.25,0,0,1-2.47-2.16q0-2.49,4.73-2.77v-.46a1.63,1.63,0,0,0-1.84-1.85,4.82,4.82,0,0,0-2.55.93l-.24-1a5.46,5.46,0,0,1,2.89-.94,2.46,2.46,0,0,1,2.79,2.79v3.74c0,.61.14.8.78.78l-.06.87C758.06,392.87,757.48,392.49,757.37,391.69Zm-.07-.78v-2.28c-2.62.29-3.62.87-3.62,1.94a1.42,1.42,0,0,0,1.59,1.36A2.67,2.67,0,0,0,757.3,390.91Z"/><path class="ea746ab7-7d58-42e8-857d-d2e5cdedb854" d="M766.88,392.63h-1v-5c0-1.36-.53-2-1.72-2a3.33,3.33,0,0,0-2.36,1.1v5.9h-1v-7.79l1-.22v1.28a3.77,3.77,0,0,1,2.65-1.28c1.57,0,2.48.95,2.48,2.67Z"/><path class="ea746ab7-7d58-42e8-857d-d2e5cdedb854" d="M774.52,385.1v-3.93l1.05-.22v11.68h-1.05v-.73a3.25,3.25,0,0,1-2.26,1c-2.09,0-3.49-1.65-3.49-4.05a4.17,4.17,0,0,1,1.09-3,3.65,3.65,0,0,1,2.77-1.16A4.35,4.35,0,0,1,774.52,385.1Zm0,1.12a3.11,3.11,0,0,0-1.94-.59c-1.67,0-2.72,1.29-2.72,3.16s1,3.09,2.58,3.09a3,3,0,0,0,2.08-.87v-4.79Z"/><path class="ea746ab7-7d58-42e8-857d-d2e5cdedb854" d="M790.55,387.24c0,3.37-2.09,5.39-5.71,5.39H782V382h2.89a5.82,5.82,0,0,1,4.12,1.43A5.06,5.06,0,0,1,790.55,387.24Zm-1.09.09c0-2.71-1.68-4.32-4.61-4.32h-1.73v8.62h1.77C787.71,391.63,789.46,390.16,789.46,387.33Z"/><path class="ea746ab7-7d58-42e8-857d-d2e5cdedb854" d="M793.13,388.77v.09c0,1.78,1.11,3,2.72,3a4.12,4.12,0,0,0,2.26-.64l.21,1a4.69,4.69,0,0,1-2.5.66,3.73,3.73,0,0,1-3.76-4.05,4.33,4.33,0,0,1,1.06-3,3.31,3.31,0,0,1,2.61-1.18,2.67,2.67,0,0,1,2.84,2.88,4.09,4.09,0,0,1-.17,1.24Zm.07-.83,4.32,0a1.34,1.34,0,0,0,0-.34,1.79,1.79,0,0,0-1.87-2A2.52,2.52,0,0,0,793.2,387.94Z"/><path class="ea746ab7-7d58-42e8-857d-d2e5cdedb854" d="M805.24,390.5c0,1.42-1.19,2.35-2.79,2.35a4.69,4.69,0,0,1-2.55-.7l.29-1a4,4,0,0,0,2.29.72c1,0,1.75-.49,1.75-1.31a1,1,0,0,0-.11-.49,1.41,1.41,0,0,0-.28-.36,1.57,1.57,0,0,0-.47-.27l-.5-.21-.59-.18c-1.36-.41-2.26-1-2.26-2.21,0-1.4,1.1-2.25,2.63-2.25a5,5,0,0,1,2.37.58l-.31.95a4.32,4.32,0,0,0-2.12-.58c-1,0-1.57.45-1.57,1.19a.88.88,0,0,0,.12.46,1.33,1.33,0,0,0,.71.62l.5.2c.12,0,.32.1.59.19C804.35,388.63,805.24,389.21,805.24,390.5Z"/><path class="ea746ab7-7d58-42e8-857d-d2e5cdedb854" d="M812.85,392.19a4.47,4.47,0,0,1-2.41.66c-2.33,0-3.81-1.63-3.81-4.1a4.14,4.14,0,0,1,1.09-3,3.57,3.57,0,0,1,2.74-1.16,4.37,4.37,0,0,1,2.43.67l-.27.95a3.75,3.75,0,0,0-2.16-.63c-1.69,0-2.74,1.24-2.74,3.11s1.09,3.14,2.75,3.14a3.93,3.93,0,0,0,2.16-.64Z"/><path class="ea746ab7-7d58-42e8-857d-d2e5cdedb854" d="M815.86,387.63v5h-1.05v-7.79l1.05-.22v1.67a2.56,2.56,0,0,1,2.3-1.67,2.71,2.71,0,0,1,1.36.36l-.28,1a2.18,2.18,0,0,0-1.18-.34C817.19,385.63,816.46,386.29,815.86,387.63Z"/><path class="ea746ab7-7d58-42e8-857d-d2e5cdedb854" d="M822.12,382.28a.83.83,0,0,1-.19.54.69.69,0,0,1-1,0,.85.85,0,0,1,0-1.07.63.63,0,0,1,.52-.22.64.64,0,0,1,.53.22A.82.82,0,0,1,822.12,382.28Zm-.19,10.35h-1v-7.79l1-.22Z"/><path class="ea746ab7-7d58-42e8-857d-d2e5cdedb854" d="M825.47,385.63a3.26,3.26,0,0,1,2.26-1c2.09,0,3.48,1.64,3.48,4a4.19,4.19,0,0,1-1.07,3,3.63,3.63,0,0,1-2.77,1.17,4.37,4.37,0,0,1-1.9-.41v4.15h-1.06V384.81l1.06-.22Zm0,.88v4.78a3.11,3.11,0,0,0,1.95.61c1.63,0,2.7-1.31,2.7-3.18s-1-3.08-2.56-3.08A3,3,0,0,0,825.47,386.51Z"/><path class="ea746ab7-7d58-42e8-857d-d2e5cdedb854" d="M837,392.48a4,4,0,0,1-1.73.4c-1.44,0-2.14-.81-2.09-2.44l.12-4.61-1.19-.07.05-.66,1.17-.27,0-1.77h1l-.06,1.82H837l-.06.93h-2.58l-.12,4.66c0,1,.34,1.46,1.14,1.46a3.85,3.85,0,0,0,1.5-.37Z"/><path class="ea746ab7-7d58-42e8-857d-d2e5cdedb854" d="M840,382.28a.83.83,0,0,1-.19.54.69.69,0,0,1-1.05,0,.85.85,0,0,1,0-1.07.63.63,0,0,1,.52-.22.64.64,0,0,1,.53.22A.82.82,0,0,1,840,382.28Zm-.19,10.35h-1.05v-7.79l1.05-.22Z"/><path class="ea746ab7-7d58-42e8-857d-d2e5cdedb854" d="M849.38,388.72a4.1,4.1,0,0,1-1.08,3,3.62,3.62,0,0,1-2.74,1.16,3.49,3.49,0,0,1-2.7-1.12,4.65,4.65,0,0,1,0-6,3.62,3.62,0,0,1,2.74-1.14,3.56,3.56,0,0,1,2.7,1.12A4.22,4.22,0,0,1,849.38,388.72Zm-1,0c0-1.92-1.09-3.18-2.76-3.18s-2.73,1.28-2.73,3.15,1.09,3.18,2.75,3.18S848.35,390.62,848.35,388.75Z"/><path class="ea746ab7-7d58-42e8-857d-d2e5cdedb854" d="M857.53,392.63h-1.06v-5c0-1.36-.52-2-1.71-2a3.33,3.33,0,0,0-2.37,1.1v5.9h-1v-7.79l1-.22v1.28a3.78,3.78,0,0,1,2.66-1.28,2.35,2.35,0,0,1,2.48,2.67Z"/><rect class="a13cc738-5118-4979-9a4d-ac0e78eab016" x="664.63" y="29.49" width="178" height="50" rx="9"/><path class="ea746ab7-7d58-42e8-857d-d2e5cdedb854" d="M677.31,34H830c4.74,0,8.59,3.31,8.59,7.4V67.64c0,4.09-3.85,7.4-8.59,7.4H677.31c-4.74,0-8.59-3.31-8.59-7.4V41.35C668.72,37.26,672.57,34,677.31,34Z"/><path class="e6a7cdd6-7562-4f32-ad2d-c84efb74d17e" d="M703.33,56.08v4.25h-1.09V49.71h2.86c2.56,0,3.85,1.14,3.85,3.06a3.08,3.08,0,0,1-2.46,3l2.94,4.57h-1.26L705.45,56Zm0-1,1.9-.07c1.5,0,2.64-.89,2.64-2.23s-1-2.12-2.89-2.12h-1.65Z"/><path class="e6a7cdd6-7562-4f32-ad2d-c84efb74d17e" d="M718,56.42a4.13,4.13,0,0,1-1.09,3,3.63,3.63,0,0,1-2.74,1.15,3.52,3.52,0,0,1-2.7-1.12,4.67,4.67,0,0,1,0-6,3.59,3.59,0,0,1,2.74-1.14,3.52,3.52,0,0,1,2.7,1.12A4.16,4.16,0,0,1,718,56.42Zm-1,0c0-1.92-1.09-3.18-2.75-3.18s-2.74,1.27-2.74,3.14,1.09,3.18,2.75,3.18S717,58.33,717,56.46Z"/><path class="e6a7cdd6-7562-4f32-ad2d-c84efb74d17e" d="M724,48.84l-.05.24c0,.17-.09.32-.14.48l-.07.23a2.8,2.8,0,0,0-1.19-.32c-.86,0-1.29.61-1.29,1.82v1.29h2.45l0,.94h-2.4v6.81h-1V53.55l-1.25-.08.06-.67,1.18-.27V51.31c0-1.87.82-2.81,2.35-2.81A3.4,3.4,0,0,1,724,48.84Z"/><path class="e6a7cdd6-7562-4f32-ad2d-c84efb74d17e" d="M729.18,48.84l0,.24c0,.17-.08.32-.13.48l-.07.23a2.8,2.8,0,0,0-1.19-.32c-.87,0-1.29.61-1.29,1.82v1.29h2.44l0,.94h-2.39v6.81h-1V53.55l-1.26-.08.07-.67,1.17-.27,0-1.22c0-1.87.82-2.81,2.35-2.81A3.36,3.36,0,0,1,729.18,48.84Z"/><path class="e6a7cdd6-7562-4f32-ad2d-c84efb74d17e" d="M741.57,60.33V55.49h-6.22v4.84h-1.08V49.71h1.08V54.5h6.22V49.71h1.09V60.33Z"/><path class="e6a7cdd6-7562-4f32-ad2d-c84efb74d17e" d="M752.32,56.42a4.13,4.13,0,0,1-1.09,3,3.63,3.63,0,0,1-2.74,1.15,3.52,3.52,0,0,1-2.7-1.12,4.19,4.19,0,0,1-1-3,4.14,4.14,0,0,1,1.1-3,3.59,3.59,0,0,1,2.74-1.14,3.51,3.51,0,0,1,2.7,1.12A4.16,4.16,0,0,1,752.32,56.42Zm-1,0c0-1.92-1.09-3.18-2.75-3.18s-2.74,1.27-2.74,3.14,1.09,3.18,2.76,3.18S751.28,58.33,751.28,56.46Z"/><path class="e6a7cdd6-7562-4f32-ad2d-c84efb74d17e" d="M765.05,60.33h-1v-5c0-1.33-.55-2-1.65-2a3.23,3.23,0,0,0-2.19,1c0,.14,0,.38,0,.7v5.3h-1.05v-5c0-1.33-.55-2-1.65-2a3.25,3.25,0,0,0-2.16.9v6.1h-1.06V52.55l1.06-.22V53.4a3.58,3.58,0,0,1,2.46-1.07,2.07,2.07,0,0,1,2.11,1.29,3.87,3.87,0,0,1,2.76-1.29c1.49,0,2.39,1,2.39,2.68Z"/><path class="e6a7cdd6-7562-4f32-ad2d-c84efb74d17e" d="M768,56.48v.08c0,1.78,1.11,3,2.72,3a4,4,0,0,0,2.26-.65l.21,1a4.69,4.69,0,0,1-2.5.66,3.72,3.72,0,0,1-3.76-4,4.39,4.39,0,0,1,1-3,3.37,3.37,0,0,1,2.62-1.17,2.67,2.67,0,0,1,2.84,2.87,4,4,0,0,1-.17,1.24Zm.07-.84h4.32a2.75,2.75,0,0,0,0-.34,1.78,1.78,0,0,0-1.87-2A2.51,2.51,0,0,0,768.08,55.64Z"/><path class="e6a7cdd6-7562-4f32-ad2d-c84efb74d17e" d="M776.49,53.33a3.25,3.25,0,0,1,2.26-.95c2.09,0,3.49,1.63,3.49,4a4.21,4.21,0,0,1-1.07,3,3.63,3.63,0,0,1-2.77,1.17,4.45,4.45,0,0,1-1.91-.4v4.14h-1V52.51l1-.22Zm0,.88V59a3.1,3.1,0,0,0,2,.61c1.63,0,2.7-1.31,2.7-3.18s-1-3.07-2.57-3.07A3.06,3.06,0,0,0,776.49,54.21Z"/><path class="e6a7cdd6-7562-4f32-ad2d-c84efb74d17e" d="M788.32,59.4h-.05A2.83,2.83,0,0,1,786,60.55a2.25,2.25,0,0,1-2.47-2.15q0-2.51,4.73-2.77v-.46a1.63,1.63,0,0,0-1.84-1.86,4.76,4.76,0,0,0-2.55.94l-.24-1a5.54,5.54,0,0,1,2.89-.93,2.45,2.45,0,0,1,2.79,2.79v3.74c0,.61.14.79.78.78l-.06.86C789,60.57,788.44,60.2,788.32,59.4Zm-.06-.78V56.34c-2.62.29-3.62.87-3.62,1.94a1.42,1.42,0,0,0,1.59,1.36A2.67,2.67,0,0,0,788.26,58.62Z"/><path class="e6a7cdd6-7562-4f32-ad2d-c84efb74d17e" d="M792.25,60.35c-.69-.25-1-.66-1-1.24a1.71,1.71,0,0,1,1.27-1.48,2.61,2.61,0,0,1-1.25-2.38,2.87,2.87,0,0,1,3.06-2.92,3.63,3.63,0,0,1,1.83.46l2.16-.17.05,1.05-1.72-.17a2.73,2.73,0,0,1,.63,1.75,2.84,2.84,0,0,1-3,2.86,3.47,3.47,0,0,1-1.16-.22q-.87.34-.87.93c0,.53.45.8,1.77.8h1c2.16,0,3.23.68,3.23,2a2.43,2.43,0,0,1-1.2,2.07,5,5,0,0,1-2.89.82c-2.09,0-3.52-.92-3.52-2.28A2.08,2.08,0,0,1,792.25,60.35Zm.92.2c-.93.26-1.58.87-1.58,1.54,0,.93,1,1.59,2.65,1.59s2.92-.78,2.92-1.83c0-.89-.74-1.24-2.36-1.24C794.16,60.61,793.61,60.59,793.17,60.55Zm-.92-5.28a1.9,1.9,0,0,0,2,2,1.81,1.81,0,0,0,1.41-.58,2,2,0,0,0,.53-1.46,2.08,2.08,0,0,0-.51-1.46,1.94,1.94,0,0,0-1.48-.57A1.9,1.9,0,0,0,792.25,55.27Z"/><path class="e6a7cdd6-7562-4f32-ad2d-c84efb74d17e" d="M800.17,56.48v.08c.06,1.78,1.11,3,2.72,3a4.1,4.1,0,0,0,2.27-.65l.2,1a4.69,4.69,0,0,1-2.5.66,3.72,3.72,0,0,1-3.76-4,4.35,4.35,0,0,1,1.06-3,3.34,3.34,0,0,1,2.62-1.17,2.66,2.66,0,0,1,2.83,2.87,4,4,0,0,1-.17,1.24Zm.07-.84h4.32a1.39,1.39,0,0,0,0-.34,1.79,1.79,0,0,0-1.87-2A2.51,2.51,0,0,0,800.24,55.64Z"/><rect class="a13cc738-5118-4979-9a4d-ac0e78eab016" x="45.93" y="131.05" width="178" height="50" rx="9"/><path class="ea746ab7-7d58-42e8-857d-d2e5cdedb854" d="M112.66,154.58c0,2.29-1.58,3.5-4.28,3.55l-1.45,0v3.74h-1.08V151.26h2.66C111.25,151.26,112.66,152.55,112.66,154.58Zm-1.12,0c0-1.53-1.07-2.36-3.06-2.36h-1.55v4.87l1.52,0C110.5,157.08,111.54,156.24,111.54,154.63Z"/><path class="ea746ab7-7d58-42e8-857d-d2e5cdedb854" d="M115.59,156.89v5h-1.06V154.1l1.06-.22v1.67a2.55,2.55,0,0,1,2.29-1.67,2.69,2.69,0,0,1,1.36.36l-.27,1a2.31,2.31,0,0,0-1.19-.34Q116.48,154.88,115.59,156.89Z"/><path class="ea746ab7-7d58-42e8-857d-d2e5cdedb854" d="M127.49,158a4.11,4.11,0,0,1-1.09,3,3.6,3.6,0,0,1-2.74,1.16A3.56,3.56,0,0,1,121,161a4.68,4.68,0,0,1,.05-6,3.59,3.59,0,0,1,2.74-1.14,3.52,3.52,0,0,1,2.7,1.12A4.18,4.18,0,0,1,127.49,158Zm-1,0c0-1.92-1.09-3.18-2.75-3.18S121,156.11,121,158s1.09,3.18,2.75,3.18S126.45,159.88,126.45,158Z"/><path class="ea746ab7-7d58-42e8-857d-d2e5cdedb854" d="M134.68,154.36v-3.93l1-.22v11.68h-1v-.73a3.25,3.25,0,0,1-2.26,1c-2.1,0-3.49-1.65-3.49-4.05a4.17,4.17,0,0,1,1.09-3,3.65,3.65,0,0,1,2.77-1.16A4.35,4.35,0,0,1,134.68,154.36Zm0,1.12a3.12,3.12,0,0,0-1.94-.6c-1.67,0-2.72,1.29-2.72,3.16s1,3.1,2.58,3.1a3,3,0,0,0,2.08-.87v-4.79Z"/><path class="ea746ab7-7d58-42e8-857d-d2e5cdedb854" d="M138.11,154.1h1.06v5c0,1.31.56,2,1.68,2a3.27,3.27,0,0,0,2.39-1.1v-5.9h1.06v7.79l-1.06.22v-1.26a3.71,3.71,0,0,1-2.68,1.26,2.36,2.36,0,0,1-2.45-2.67Z"/><path class="ea746ab7-7d58-42e8-857d-d2e5cdedb854" d="M152.46,161.44a4.39,4.39,0,0,1-2.41.67c-2.33,0-3.81-1.63-3.81-4.1a4.12,4.12,0,0,1,1.09-3,3.57,3.57,0,0,1,2.73-1.16,4.4,4.4,0,0,1,2.43.66l-.27,1a3.75,3.75,0,0,0-2.16-.63c-1.68,0-2.73,1.24-2.73,3.11s1.08,3.14,2.75,3.14a4,4,0,0,0,2.16-.64Z"/><path class="ea746ab7-7d58-42e8-857d-d2e5cdedb854" d="M158.29,161.73a4,4,0,0,1-1.73.41c-1.45,0-2.15-.81-2.09-2.45l.11-4.6L153.4,155l0-.66,1.17-.27,0-1.77h1l0,1.82h2.6l-.05.93h-2.58l-.12,4.66c0,1,.34,1.46,1.14,1.46a3.81,3.81,0,0,0,1.49-.37Z"/><path class="ea746ab7-7d58-42e8-857d-d2e5cdedb854" d="M164.68,159.76c0,1.41-1.19,2.35-2.79,2.35a4.74,4.74,0,0,1-2.55-.7l.29-1a4.06,4.06,0,0,0,2.3.72c1,0,1.75-.5,1.75-1.31a1,1,0,0,0-.12-.5,1.52,1.52,0,0,0-.27-.35,2.09,2.09,0,0,0-.48-.28,4.62,4.62,0,0,0-.49-.2l-.6-.19c-1.35-.4-2.26-1-2.26-2.21,0-1.39,1.11-2.24,2.64-2.24a5,5,0,0,1,2.36.58l-.3.95a4.35,4.35,0,0,0-2.13-.58c-.95,0-1.56.44-1.56,1.19a.79.79,0,0,0,.12.46,1.43,1.43,0,0,0,.25.34,1.26,1.26,0,0,0,.46.27l.49.21c.12,0,.33.1.6.18C163.8,157.89,164.68,158.47,164.68,159.76Z"/><rect class="a13cc738-5118-4979-9a4d-ac0e78eab016" x="249.55" y="131.05" width="178" height="50" rx="9"/><path class="ea746ab7-7d58-42e8-857d-d2e5cdedb854" d="M285.86,156.5c0,3.36-2.09,5.39-5.71,5.39h-2.81V151.26h2.89a5.79,5.79,0,0,1,4.11,1.43A5,5,0,0,1,285.86,156.5Zm-1.09.08c0-2.7-1.68-4.31-4.61-4.31h-1.73v8.61h1.77C283,160.88,284.77,159.42,284.77,156.58Z"/><path class="ea746ab7-7d58-42e8-857d-d2e5cdedb854" d="M289.14,151.54a.83.83,0,0,1-.19.54.69.69,0,0,1-1.05,0,.85.85,0,0,1,0-1.07.6.6,0,0,1,.52-.22.61.61,0,0,1,.53.22A.82.82,0,0,1,289.14,151.54ZM289,161.89H287.9V154.1l1.05-.22Z"/><path class="ea746ab7-7d58-42e8-857d-d2e5cdedb854" d="M296.11,159.76c0,1.41-1.19,2.35-2.79,2.35a4.69,4.69,0,0,1-2.55-.7l.29-1a4,4,0,0,0,2.29.72c1,0,1.75-.5,1.75-1.31a1,1,0,0,0-.11-.5,1.53,1.53,0,0,0-.28-.35,1.78,1.78,0,0,0-.47-.28,3.88,3.88,0,0,0-.5-.2l-.59-.19c-1.36-.4-2.26-1-2.26-2.21,0-1.39,1.1-2.24,2.63-2.24a5,5,0,0,1,2.37.58l-.31.95a4.32,4.32,0,0,0-2.12-.58c-1,0-1.57.44-1.57,1.19a.88.88,0,0,0,.12.46,1.43,1.43,0,0,0,.26.34,1.12,1.12,0,0,0,.45.27l.5.21c.12,0,.32.1.59.18C295.22,157.89,296.11,158.47,296.11,159.76Z"/><path class="ea746ab7-7d58-42e8-857d-d2e5cdedb854" d="M303.72,161.44a4.39,4.39,0,0,1-2.41.67c-2.33,0-3.81-1.63-3.81-4.1a4.12,4.12,0,0,1,1.09-3,3.57,3.57,0,0,1,2.74-1.16,4.45,4.45,0,0,1,2.43.66l-.27,1a3.75,3.75,0,0,0-2.16-.63c-1.69,0-2.74,1.24-2.74,3.11s1.09,3.14,2.75,3.14a3.93,3.93,0,0,0,2.16-.64Z"/><path class="ea746ab7-7d58-42e8-857d-d2e5cdedb854" d="M312.66,158a4.1,4.1,0,0,1-1.08,3,3.6,3.6,0,0,1-2.74,1.16,3.54,3.54,0,0,1-2.7-1.12,4.65,4.65,0,0,1,.05-6,3.59,3.59,0,0,1,2.74-1.14,3.52,3.52,0,0,1,2.7,1.12A4.22,4.22,0,0,1,312.66,158Zm-1,0c0-1.92-1.09-3.18-2.76-3.18s-2.73,1.28-2.73,3.15,1.09,3.18,2.75,3.18S311.63,159.88,311.63,158Z"/><path class="ea746ab7-7d58-42e8-857d-d2e5cdedb854" d="M317.39,161.9h-.95l-3.08-7.8h1.14l2.47,6.43,2.38-6.43h1.1Z"/><path class="ea746ab7-7d58-42e8-857d-d2e5cdedb854" d="M322.22,158v.08c0,1.79,1.1,3,2.72,3a4.12,4.12,0,0,0,2.26-.64l.2,1a4.55,4.55,0,0,1-2.49.67,3.73,3.73,0,0,1-3.76-4.05,4.41,4.41,0,0,1,1.05-3,3.37,3.37,0,0,1,2.62-1.17,2.67,2.67,0,0,1,2.84,2.87,4,4,0,0,1-.17,1.24Zm.07-.83,4.31,0a1.34,1.34,0,0,0,0-.34,1.78,1.78,0,0,0-1.87-2A2.51,2.51,0,0,0,322.29,157.2Z"/><path class="ea746ab7-7d58-42e8-857d-d2e5cdedb854" d="M330.7,156.89v5h-1.05V154.1l1.05-.22v1.67a2.56,2.56,0,0,1,2.3-1.67,2.71,2.71,0,0,1,1.36.36l-.28,1a2.27,2.27,0,0,0-1.18-.34C332,154.88,331.3,155.55,330.7,156.89Z"/><path class="ea746ab7-7d58-42e8-857d-d2e5cdedb854" d="M342.41,161.14c1.48,0,2.52-.87,2.52-2s-.81-1.68-2.69-2.22c-.44-.14-.81-.28-1.12-.41a4.92,4.92,0,0,1-1-.53,2.24,2.24,0,0,1-.74-.85,2.61,2.61,0,0,1-.26-1.19c0-1.68,1.41-2.89,3.4-2.89a5.86,5.86,0,0,1,3.2.92l-.39.95a4.85,4.85,0,0,0-2.79-.88c-1.53,0-2.37.76-2.37,1.82s.8,1.53,2.69,2.12a12,12,0,0,1,1.14.41,6.91,6.91,0,0,1,1,.56,2.38,2.38,0,0,1,.73.88,3.17,3.17,0,0,1,.24,1.23c0,1.78-1.46,3.06-3.59,3.06a6.17,6.17,0,0,1-3.42-1l.4-1A5.23,5.23,0,0,0,342.41,161.14Z"/><path class="ea746ab7-7d58-42e8-857d-d2e5cdedb854" d="M355,158a4.11,4.11,0,0,1-1.09,3,3.6,3.6,0,0,1-2.74,1.16,3.56,3.56,0,0,1-2.7-1.12,4.68,4.68,0,0,1,.05-6,3.59,3.59,0,0,1,2.74-1.14,3.52,3.52,0,0,1,2.7,1.12A4.18,4.18,0,0,1,355,158Zm-1,0c0-1.92-1.09-3.18-2.75-3.18s-2.74,1.28-2.74,3.15,1.09,3.18,2.75,3.18S353.94,159.88,353.94,158Z"/><path class="ea746ab7-7d58-42e8-857d-d2e5cdedb854" d="M356.93,161.89V150.43l1.06-.22v11.68Z"/><path class="ea746ab7-7d58-42e8-857d-d2e5cdedb854" d="M360.37,154.1h1.05v5c0,1.31.56,2,1.68,2a3.28,3.28,0,0,0,2.4-1.1v-5.9h1.05v7.79l-1.05.22v-1.26a3.75,3.75,0,0,1-2.69,1.26,2.35,2.35,0,0,1-2.44-2.67Z"/><path class="ea746ab7-7d58-42e8-857d-d2e5cdedb854" d="M372.88,161.73a4,4,0,0,1-1.74.41c-1.44,0-2.14-.81-2.09-2.45l.12-4.6L368,155l0-.66,1.18-.27.05-1.77h1l-.05,1.82h2.6l-.05.93h-2.58l-.12,4.66c0,1,.34,1.46,1.14,1.46a3.85,3.85,0,0,0,1.49-.37Z"/><path class="ea746ab7-7d58-42e8-857d-d2e5cdedb854" d="M375.85,151.54a.82.82,0,0,1-.18.54.71.71,0,0,1-1.06,0,.82.82,0,0,1-.18-.54.81.81,0,0,1,.18-.53.75.75,0,0,1,1.06,0A.81.81,0,0,1,375.85,151.54Zm-.18,10.35h-1.06V154.1l1.06-.22Z"/><path class="ea746ab7-7d58-42e8-857d-d2e5cdedb854" d="M385.22,158a4.11,4.11,0,0,1-1.09,3,3.82,3.82,0,0,1-5.44,0,4.23,4.23,0,0,1-1.05-3,4.16,4.16,0,0,1,1.1-3,3.59,3.59,0,0,1,2.74-1.14,3.51,3.51,0,0,1,2.7,1.12A4.18,4.18,0,0,1,385.22,158Zm-1,0c0-1.92-1.09-3.18-2.75-3.18s-2.74,1.28-2.74,3.15,1.09,3.18,2.76,3.18S384.18,159.88,384.18,158Z"/><path class="ea746ab7-7d58-42e8-857d-d2e5cdedb854" d="M393.36,161.89h-1.05v-5c0-1.36-.53-2-1.72-2a3.34,3.34,0,0,0-2.36,1.11v5.9h-1.06V154.1l1.06-.22v1.28a3.76,3.76,0,0,1,2.65-1.28,2.35,2.35,0,0,1,2.48,2.67Z"/><path class="ea746ab7-7d58-42e8-857d-d2e5cdedb854" d="M400.43,159.76c0,1.41-1.19,2.35-2.78,2.35a4.69,4.69,0,0,1-2.55-.7l.29-1a4,4,0,0,0,2.29.72c1,0,1.75-.5,1.75-1.31a1,1,0,0,0-.12-.5A1.29,1.29,0,0,0,399,159a1.71,1.71,0,0,0-.48-.28,4.62,4.62,0,0,0-.49-.2l-.59-.19c-1.36-.4-2.26-1-2.26-2.21,0-1.39,1.1-2.24,2.63-2.24a5,5,0,0,1,2.36.58l-.3.95a4.33,4.33,0,0,0-2.13-.58c-.95,0-1.56.44-1.56,1.19a.79.79,0,0,0,.12.46,1.43,1.43,0,0,0,.25.34,1.26,1.26,0,0,0,.46.27l.49.21c.12,0,.33.1.6.18C399.55,157.89,400.43,158.47,400.43,159.76Z"/><rect class="a13cc738-5118-4979-9a4d-ac0e78eab016" x="453.17" y="131.05" width="178" height="50" rx="9"/><path class="ea746ab7-7d58-42e8-857d-d2e5cdedb854" d="M529.45,152.28v9.61h-1.08v-9.61h-3.74v-1h8.56v1Z"/><path class="ea746ab7-7d58-42e8-857d-d2e5cdedb854" d="M540.27,158a4.11,4.11,0,0,1-1.09,3,3.6,3.6,0,0,1-2.74,1.16,3.56,3.56,0,0,1-2.7-1.12,4.65,4.65,0,0,1,0-6,3.59,3.59,0,0,1,2.74-1.14,3.52,3.52,0,0,1,2.7,1.12A4.18,4.18,0,0,1,540.27,158Zm-1,0c0-1.92-1.09-3.18-2.75-3.18s-2.74,1.28-2.74,3.15,1.09,3.18,2.75,3.18S539.23,159.88,539.23,158Z"/><path class="ea746ab7-7d58-42e8-857d-d2e5cdedb854" d="M549.29,158a4.06,4.06,0,0,1-1.09,3,3.82,3.82,0,0,1-5.44,0,4.23,4.23,0,0,1-1-3,4.13,4.13,0,0,1,1.11-3,3.58,3.58,0,0,1,2.73-1.14,3.49,3.49,0,0,1,2.7,1.12A4.18,4.18,0,0,1,549.29,158Zm-1,0c0-1.92-1.08-3.18-2.75-3.18s-2.74,1.28-2.74,3.15,1.09,3.18,2.76,3.18S548.25,159.88,548.25,158Z"/><path class="ea746ab7-7d58-42e8-857d-d2e5cdedb854" d="M551.25,161.89V150.43l1-.22v11.68Z"/><path class="ea746ab7-7d58-42e8-857d-d2e5cdedb854" d="M559.42,159.76c0,1.41-1.19,2.35-2.78,2.35a4.69,4.69,0,0,1-2.55-.7l.28-1a4.06,4.06,0,0,0,2.3.72c1,0,1.75-.5,1.75-1.31a1,1,0,0,0-.12-.5A1.29,1.29,0,0,0,558,159a1.71,1.71,0,0,0-.48-.28,4.62,4.62,0,0,0-.49-.2l-.59-.19c-1.36-.4-2.27-1-2.27-2.21,0-1.39,1.11-2.24,2.64-2.24a5,5,0,0,1,2.36.58l-.3.95a4.33,4.33,0,0,0-2.13-.58c-.95,0-1.56.44-1.56,1.19a.79.79,0,0,0,.12.46,1.43,1.43,0,0,0,.25.34,1.26,1.26,0,0,0,.46.27l.49.21c.12,0,.33.1.6.18C558.54,157.89,559.42,158.47,559.42,159.76Z"/><rect class="a13cc738-5118-4979-9a4d-ac0e78eab016" x="656.79" y="131.05" width="178" height="50" rx="9"/><path class="ea746ab7-7d58-42e8-857d-d2e5cdedb854" d="M724,161.89h-1.1l-1.12-3H717l-1.12,3h-1.11l4-10.63h1.27Zm-4.62-9.56-2,5.53h4.06Z"/><path class="ea746ab7-7d58-42e8-857d-d2e5cdedb854" d="M732.3,157.89a4.34,4.34,0,0,1-1.07,3,3.57,3.57,0,0,1-2.77,1.19,4.36,4.36,0,0,1-1.9-.43l-1.06.46V150.43l1.06-.22v4.71a3.27,3.27,0,0,1,2.34-1C731,153.93,732.3,155.55,732.3,157.89Zm-1.08.05c0-1.8-1-3-2.52-3a3.07,3.07,0,0,0-2.14.87v4.77a3.05,3.05,0,0,0,2,.62C730.18,161.16,731.22,159.86,731.22,157.94Z"/><path class="ea746ab7-7d58-42e8-857d-d2e5cdedb854" d="M741.26,158a4.06,4.06,0,0,1-1.09,3,3.82,3.82,0,0,1-5.44,0,4.23,4.23,0,0,1-1.05-3,4.16,4.16,0,0,1,1.1-3,3.62,3.62,0,0,1,2.74-1.14,3.49,3.49,0,0,1,2.7,1.12A4.18,4.18,0,0,1,741.26,158Zm-1,0c0-1.92-1.08-3.18-2.75-3.18s-2.74,1.28-2.74,3.15,1.09,3.18,2.76,3.18S740.22,159.88,740.22,158Z"/><path class="ea746ab7-7d58-42e8-857d-d2e5cdedb854" d="M743.15,154.1h1.05v5c0,1.31.56,2,1.69,2a3.27,3.27,0,0,0,2.39-1.1v-5.9h1.06v7.79l-1.06.22v-1.26a3.71,3.71,0,0,1-2.68,1.26,2.36,2.36,0,0,1-2.45-2.67Z"/><path class="ea746ab7-7d58-42e8-857d-d2e5cdedb854" d="M755.66,161.73a4,4,0,0,1-1.73.41c-1.45,0-2.15-.81-2.09-2.45l.11-4.6-1.18-.07.05-.66,1.17-.27,0-1.77h1l0,1.82h2.6l-.05.93H753l-.12,4.66c0,1,.34,1.46,1.14,1.46a3.81,3.81,0,0,0,1.49-.37Z"/><path class="ea746ab7-7d58-42e8-857d-d2e5cdedb854" d="M769.28,157.82c0,2.69-1.41,4.29-4,4.29s-4-1.57-4-4.12v-6.73h1.05v6.6c0,2.07,1,3.24,3,3.24s2.91-1.12,2.91-3.26v-6.58h1.07Z"/><path class="ea746ab7-7d58-42e8-857d-d2e5cdedb854" d="M776.4,159.76c0,1.41-1.19,2.35-2.79,2.35a4.69,4.69,0,0,1-2.55-.7l.29-1a4.06,4.06,0,0,0,2.3.72c1,0,1.75-.5,1.75-1.31a1.06,1.06,0,0,0-.12-.5A1.86,1.86,0,0,0,775,159a2.09,2.09,0,0,0-.48-.28,4.62,4.62,0,0,0-.49-.2l-.6-.19c-1.36-.4-2.26-1-2.26-2.21,0-1.39,1.11-2.24,2.64-2.24a5,5,0,0,1,2.36.58l-.31.95a4.29,4.29,0,0,0-2.12-.58c-1,0-1.57.44-1.57,1.19a.88.88,0,0,0,.12.46,1.43,1.43,0,0,0,.26.34,1.18,1.18,0,0,0,.46.27l.49.21c.12,0,.32.1.6.18C775.52,157.89,776.4,158.47,776.4,159.76Z"/><rect class="a13cc738-5118-4979-9a4d-ac0e78eab016" x="656.79" y="256.28" width="178" height="50" rx="9"/><path class="svgtext" d="M702.91,279.81c0,2.3-1.58,3.51-4.28,3.56h-1.45v3.74h-1.09V276.5h2.67C701.5,276.5,702.91,277.79,702.91,279.81Zm-1.12.06c0-1.53-1.07-2.37-3.06-2.37h-1.55v4.88l1.52,0C700.75,282.31,701.79,281.48,701.79,279.87Z"/><path class="svgtext" d="M705.83,282.13v5h-1.05v-7.78l1.05-.22v1.66a2.58,2.58,0,0,1,2.3-1.66,2.78,2.78,0,0,1,1.36.35l-.27,1a2.34,2.34,0,0,0-1.19-.34C707.16,280.12,706.43,280.78,705.83,282.13Z"/><path class="svgtext" d="M717.73,283.21a4.12,4.12,0,0,1-1.08,3,3.65,3.65,0,0,1-2.74,1.15,3.49,3.49,0,0,1-2.7-1.12,4.64,4.64,0,0,1,0-6,3.58,3.58,0,0,1,2.73-1.14,3.53,3.53,0,0,1,2.71,1.12A4.19,4.19,0,0,1,717.73,283.21Zm-1,0c0-1.92-1.09-3.18-2.76-3.18s-2.73,1.27-2.73,3.14,1.08,3.18,2.75,3.18S716.7,285.12,716.7,283.25Z"/><path class="svgtext" d="M724.92,279.59v-3.92l1.06-.22v11.67h-1.06v-.73a3.23,3.23,0,0,1-2.26.95c-2.09,0-3.48-1.64-3.48-4a4.15,4.15,0,0,1,1.09-3,3.65,3.65,0,0,1,2.77-1.16A4.33,4.33,0,0,1,724.92,279.59Zm0,1.13a3.09,3.09,0,0,0-1.93-.6c-1.67,0-2.72,1.29-2.72,3.16s1,3.1,2.58,3.1a2.93,2.93,0,0,0,2.07-.87v-4.79Z"/><path class="svgtext" d="M728.36,279.34h1v5c0,1.31.56,2,1.69,2a3.27,3.27,0,0,0,2.39-1.1v-5.9h1.06v7.78l-1.06.22v-1.25a3.7,3.7,0,0,1-2.68,1.25,2.35,2.35,0,0,1-2.45-2.66Z"/><path class="svgtext" d="M742.71,286.68a4.51,4.51,0,0,1-2.42.66c-2.33,0-3.8-1.63-3.8-4.09a4.16,4.16,0,0,1,1.08-3,3.63,3.63,0,0,1,2.74-1.15,4.42,4.42,0,0,1,2.43.66l-.27,1a3.83,3.83,0,0,0-2.16-.63c-1.68,0-2.74,1.24-2.74,3.11s1.09,3.15,2.76,3.15a3.91,3.91,0,0,0,2.16-.65Z"/><path class="svgtext" d="M748.54,287a4.1,4.1,0,0,1-1.74.41c-1.44,0-2.14-.82-2.09-2.45l.12-4.6-1.19-.07.05-.67,1.18-.27,0-1.77h1l0,1.82h2.6l-.05.94h-2.58l-.12,4.65c0,1,.34,1.47,1.14,1.47a3.71,3.71,0,0,0,1.49-.38Z"/><path class="svgtext" d="M754.27,287.12V276.5h1.09v9.6h5.25v1Z"/><path class="svgtext" d="M763.52,276.77a.87.87,0,0,1-.19.55.66.66,0,0,1-.53.23.63.63,0,0,1-.52-.23.87.87,0,0,1-.19-.55.81.81,0,0,1,.19-.52.6.6,0,0,1,.52-.23.63.63,0,0,1,.53.23A.81.81,0,0,1,763.52,276.77Zm-.19,10.35h-1.05v-7.78l1.05-.22Z"/><path class="svgtext" d="M770.49,285c0,1.41-1.19,2.34-2.79,2.34a4.68,4.68,0,0,1-2.55-.69l.29-1a4,4,0,0,0,2.29.71c1,0,1.75-.49,1.75-1.31a.91.91,0,0,0-.12-.49,1.53,1.53,0,0,0-.27-.36,1.82,1.82,0,0,0-.47-.27l-.5-.2-.59-.19c-1.36-.41-2.26-1-2.26-2.21,0-1.39,1.1-2.24,2.63-2.24a4.88,4.88,0,0,1,2.36.58l-.3.95a4.33,4.33,0,0,0-2.13-.58c-1,0-1.56.44-1.56,1.19a.81.81,0,0,0,.12.46,1.66,1.66,0,0,0,.25.34,1.42,1.42,0,0,0,.46.27l.5.2a4.12,4.12,0,0,0,.59.19C769.6,283.13,770.49,283.71,770.49,285Z"/><path class="svgtext" d="M776.27,287a4.1,4.1,0,0,1-1.74.41c-1.44,0-2.14-.82-2.09-2.45l.12-4.6-1.19-.07,0-.67,1.17-.27,0-1.77h1l0,1.82h2.6l-.05.94h-2.59l-.12,4.65c0,1,.34,1.47,1.14,1.47a3.71,3.71,0,0,0,1.5-.38Z"/><path class="svgtext" d="M779.24,276.77a.87.87,0,0,1-.19.55.64.64,0,0,1-.52.23.66.66,0,0,1-.53-.23.87.87,0,0,1-.19-.55.81.81,0,0,1,.19-.52.63.63,0,0,1,.53-.23.61.61,0,0,1,.52.23A.81.81,0,0,1,779.24,276.77Zm-.19,10.35h-1v-7.78l1-.22Z"/><path class="svgtext" d="M787.72,287.12h-1.05v-5c0-1.36-.53-2-1.72-2a3.34,3.34,0,0,0-2.36,1.11v5.89h-1.06v-7.78l1.06-.22v1.27a3.74,3.74,0,0,1,2.65-1.27,2.35,2.35,0,0,1,2.48,2.67Z"/><path class="svgtext" d="M790.71,287.14c-.69-.25-1.05-.66-1.05-1.24a1.71,1.71,0,0,1,1.28-1.48,2.59,2.59,0,0,1-1.26-2.38,2.87,2.87,0,0,1,3.06-2.92,3.61,3.61,0,0,1,1.83.46l2.16-.17,0,1-1.71-.17a2.79,2.79,0,0,1,.63,1.75,2.85,2.85,0,0,1-3,2.86,3.47,3.47,0,0,1-1.16-.22c-.57.23-.86.54-.86.93s.44.8,1.76.8h1c2.16,0,3.23.68,3.23,2a2.44,2.44,0,0,1-1.21,2.07,5,5,0,0,1-2.89.82c-2.09,0-3.52-.92-3.52-2.28A2.08,2.08,0,0,1,790.71,287.14Zm.92.2c-.93.26-1.58.87-1.58,1.54,0,.93,1,1.59,2.65,1.59s2.93-.78,2.93-1.83c0-.89-.75-1.24-2.37-1.24C792.62,287.4,792.07,287.38,791.63,287.34Zm-.92-5.28a1.91,1.91,0,0,0,2,2,1.78,1.78,0,0,0,1.41-.58,2,2,0,0,0,.53-1.46,2.08,2.08,0,0,0-.51-1.46,1.94,1.94,0,0,0-1.48-.57A1.91,1.91,0,0,0,790.71,282.06Z"/><path class="svgtext" d="M539.4,276.5h6.26v1h-5.17v4h4.28v1h-4.28v4.64H539.4Z"/><path class="svgtext" d="M548.66,276.77a.87.87,0,0,1-.18.55.73.73,0,0,1-1.06,0,.87.87,0,0,1-.18-.55.85.85,0,0,1,.18-.53.75.75,0,0,1,1.06,0A.85.85,0,0,1,548.66,276.77Zm-.18,10.35h-1.06v-7.78l1.06-.22Z"/><path class="svgtext" d="M551,287.12V275.67l1-.22v11.67Z"/><path class="svgtext" d="M558.34,287a4.1,4.1,0,0,1-1.74.41c-1.44,0-2.14-.82-2.09-2.45l.12-4.61-1.19-.06,0-.67,1.17-.27.06-1.77h1l-.05,1.82h2.6l0,.94h-2.59l-.12,4.65c0,1,.35,1.47,1.14,1.47a3.71,3.71,0,0,0,1.5-.38Z"/><path class="svgtext" d="M560.53,283.26v.09c.05,1.78,1.1,3,2.72,3a4,4,0,0,0,2.26-.65l.2,1a4.63,4.63,0,0,1-2.49.66,3.72,3.72,0,0,1-3.76-4,4.38,4.38,0,0,1,1-3,3.37,3.37,0,0,1,2.62-1.17A2.67,2.67,0,0,1,566,282a4,4,0,0,1-.17,1.24Zm.07-.83,4.31,0a1.34,1.34,0,0,0,0-.34,1.78,1.78,0,0,0-1.87-2A2.5,2.5,0,0,0,560.6,282.43Z"/><path class="svgtext" d="M569,282.13v5h-1v-7.78l1-.22v1.66a2.57,2.57,0,0,1,2.3-1.66,2.81,2.81,0,0,1,1.36.35l-.27,1a2.34,2.34,0,0,0-1.19-.34C570.34,280.12,569.61,280.78,569,282.13Z"/><path class="svgtext" d="M584.84,279.81c0,2.3-1.58,3.51-4.28,3.56h-1.45v3.74H578V276.5h2.67C583.43,276.5,584.84,277.79,584.84,279.81Zm-1.12.06c0-1.53-1.07-2.37-3.06-2.37h-1.55v4.88l1.51,0C582.68,282.31,583.72,281.48,583.72,279.87Z"/><path class="svgtext" d="M587.76,282.13v5h-1v-7.78l1-.22v1.66a2.57,2.57,0,0,1,2.3-1.66,2.81,2.81,0,0,1,1.36.35l-.27,1a2.34,2.34,0,0,0-1.19-.34C589.09,280.12,588.36,280.78,587.76,282.13Z"/><path class="svgtext" d="M599.66,283.21a4.09,4.09,0,0,1-1.09,3,3.62,3.62,0,0,1-2.73,1.15,3.49,3.49,0,0,1-2.7-1.12,4.64,4.64,0,0,1,.05-6,3.58,3.58,0,0,1,2.73-1.14,3.53,3.53,0,0,1,2.71,1.12A4.19,4.19,0,0,1,599.66,283.21Zm-1,0c0-1.92-1.09-3.18-2.76-3.18s-2.73,1.27-2.73,3.14,1.08,3.18,2.75,3.18S598.63,285.12,598.63,283.25Z"/><path class="svgtext" d="M606.85,279.59v-3.92l1.06-.22v11.67h-1.06v-.73a3.23,3.23,0,0,1-2.26.95c-2.09,0-3.48-1.64-3.48-4a4.2,4.2,0,0,1,1.09-3,3.66,3.66,0,0,1,2.77-1.15A4.33,4.33,0,0,1,606.85,279.59Zm0,1.12a3.08,3.08,0,0,0-1.93-.59c-1.67,0-2.72,1.29-2.72,3.16s1,3.1,2.58,3.1a2.94,2.94,0,0,0,2.07-.87v-4.8Z"/><path class="svgtext" d="M610.29,279.34h1.05v5c0,1.31.56,2,1.69,2a3.27,3.27,0,0,0,2.39-1.1v-5.9h1.06v7.78l-1.06.22v-1.25a3.72,3.72,0,0,1-2.68,1.25,2.35,2.35,0,0,1-2.45-2.67Z"/><path class="svgtext" d="M624.64,286.68a4.53,4.53,0,0,1-2.42.66c-2.33,0-3.81-1.63-3.81-4.09a4.16,4.16,0,0,1,1.09-3,3.61,3.61,0,0,1,2.74-1.15,4.45,4.45,0,0,1,2.43.66l-.27,1a3.83,3.83,0,0,0-2.16-.63c-1.68,0-2.74,1.24-2.74,3.11s1.09,3.15,2.76,3.15a3.85,3.85,0,0,0,2.15-.65Z"/><path class="svgtext" d="M630.47,287a4.1,4.1,0,0,1-1.74.41c-1.44,0-2.14-.82-2.09-2.45l.12-4.61-1.19-.06,0-.67,1.18-.27.05-1.77h1l-.05,1.82h2.6l0,.94h-2.59l-.11,4.65c0,1,.34,1.47,1.13,1.47a3.71,3.71,0,0,0,1.5-.38Z"/><path class="svgtext" d="M636.86,285c0,1.41-1.19,2.34-2.79,2.34a4.68,4.68,0,0,1-2.55-.69l.29-1a4.1,4.1,0,0,0,2.3.71c1,0,1.75-.49,1.75-1.31a1,1,0,0,0-.12-.49,2.4,2.4,0,0,0-.27-.36A2.13,2.13,0,0,0,635,284a4.62,4.62,0,0,0-.49-.2l-.6-.19c-1.36-.41-2.26-1-2.26-2.21,0-1.39,1.11-2.24,2.64-2.24a5,5,0,0,1,2.36.57l-.31,1a4.29,4.29,0,0,0-2.12-.58c-1,0-1.57.44-1.57,1.19a.9.9,0,0,0,.12.46,1.67,1.67,0,0,0,.26.34,1.49,1.49,0,0,0,.46.27l.49.2a4.6,4.6,0,0,0,.59.19C636,283.13,636.86,283.71,636.86,285Z"/><rect class="ea746ab7-7d58-42e8-857d-d2e5cdedb854" x="850.42" y="131.05" width="178" height="50" rx="9"/><path class="e6a7cdd6-7562-4f32-ad2d-c84efb74d17e" d="M920.52,161.14c1.48,0,2.52-.87,2.52-2s-.82-1.68-2.69-2.22c-.44-.14-.82-.28-1.12-.41a4.65,4.65,0,0,1-1-.53,2.27,2.27,0,0,1-.75-.85,2.61,2.61,0,0,1-.25-1.19c0-1.68,1.41-2.89,3.4-2.89a5.8,5.8,0,0,1,3.19.92l-.39.95a4.83,4.83,0,0,0-2.79-.88c-1.53,0-2.36.76-2.36,1.82s.8,1.53,2.69,2.12c.44.14.81.27,1.14.41a6.82,6.82,0,0,1,1,.56,2.29,2.29,0,0,1,.73.88,3,3,0,0,1,.24,1.23c0,1.78-1.46,3.06-3.58,3.06a6.17,6.17,0,0,1-3.42-1l.39-1A5.28,5.28,0,0,0,920.52,161.14Z"/><path class="e6a7cdd6-7562-4f32-ad2d-c84efb74d17e" d="M926.57,158v.08c0,1.79,1.11,3,2.72,3a4.12,4.12,0,0,0,2.26-.64l.21,1a4.61,4.61,0,0,1-2.5.67,3.73,3.73,0,0,1-3.76-4.05,4.37,4.37,0,0,1,1.06-3,3.34,3.34,0,0,1,2.61-1.17,2.66,2.66,0,0,1,2.84,2.87,4,4,0,0,1-.17,1.24Zm.07-.83,4.32,0a1.34,1.34,0,0,0,0-.34,1.79,1.79,0,0,0-1.87-2A2.52,2.52,0,0,0,926.64,157.2Z"/><path class="e6a7cdd6-7562-4f32-ad2d-c84efb74d17e" d="M938.13,161h0a2.85,2.85,0,0,1-2.28,1.16,2.25,2.25,0,0,1-2.46-2.16c0-1.67,1.58-2.58,4.72-2.77v-.46a1.62,1.62,0,0,0-1.83-1.85,4.68,4.68,0,0,0-2.55.93l-.24-1a5.43,5.43,0,0,1,2.89-.94,2.46,2.46,0,0,1,2.79,2.79v3.74c0,.61.13.8.78.78l-.07.87C938.83,162.13,938.25,161.75,938.13,161Zm-.07-.78v-2.28c-2.61.29-3.62.87-3.62,1.94a1.42,1.42,0,0,0,1.6,1.36A2.63,2.63,0,0,0,938.06,160.17Z"/><path class="e6a7cdd6-7562-4f32-ad2d-c84efb74d17e" d="M942.52,156.89v5h-1.06V154.1l1.06-.22v1.67a2.55,2.55,0,0,1,2.29-1.67,2.66,2.66,0,0,1,1.36.36l-.27,1a2.28,2.28,0,0,0-1.19-.34Q943.41,154.88,942.52,156.89Z"/><path class="e6a7cdd6-7562-4f32-ad2d-c84efb74d17e" d="M953.06,161.44a4.43,4.43,0,0,1-2.42.67c-2.32,0-3.8-1.63-3.8-4.1a4.12,4.12,0,0,1,1.08-3,3.6,3.6,0,0,1,2.74-1.16,4.4,4.4,0,0,1,2.43.66l-.27,1a3.75,3.75,0,0,0-2.16-.63c-1.68,0-2.74,1.24-2.74,3.11s1.09,3.14,2.76,3.14a4,4,0,0,0,2.16-.64Z"/><path class="e6a7cdd6-7562-4f32-ad2d-c84efb74d17e" d="M961.2,161.89h-1.05v-5c0-1.31-.56-2-1.67-2a3.38,3.38,0,0,0-2.41,1.11v5.9H955V150.43l1.06-.22v4.91a3.76,3.76,0,0,1,2.7-1.24c1.53,0,2.43,1,2.43,2.67Z"/><rect class="ea746ab7-7d58-42e8-857d-d2e5cdedb854" x="1054.04" y="131.05" width="178" height="50" rx="9"/><path class="e6a7cdd6-7562-4f32-ad2d-c84efb74d17e" d="M1100.44,151.26h6.26v1h-5.17v4h4.29v1h-4.29v4.64h-1.09Z"/><path class="e6a7cdd6-7562-4f32-ad2d-c84efb74d17e" d="M1109.71,151.54a.83.83,0,0,1-.19.54.69.69,0,0,1-1,0,.85.85,0,0,1,0-1.07.6.6,0,0,1,.52-.22.61.61,0,0,1,.53.22A.82.82,0,0,1,1109.71,151.54Zm-.19,10.35h-1V154.1l1-.22Z"/><path class="e6a7cdd6-7562-4f32-ad2d-c84efb74d17e" d="M1118.19,161.89h-1v-5c0-1.36-.53-2-1.72-2a3.34,3.34,0,0,0-2.36,1.11v5.9H1112V154.1l1.06-.22v1.28a3.76,3.76,0,0,1,2.65-1.28,2.35,2.35,0,0,1,2.48,2.67Z"/><path class="e6a7cdd6-7562-4f32-ad2d-c84efb74d17e" d="M1125.82,154.36v-3.93l1.06-.22v11.68h-1.06v-.73a3.23,3.23,0,0,1-2.26,1c-2.09,0-3.48-1.65-3.48-4.05a4.17,4.17,0,0,1,1.09-3,3.65,3.65,0,0,1,2.77-1.16A4.34,4.34,0,0,1,1125.82,154.36Zm0,1.12a3.09,3.09,0,0,0-1.93-.6c-1.67,0-2.72,1.29-2.72,3.16s1,3.1,2.58,3.1a2.93,2.93,0,0,0,2.07-.87v-4.79Z"/><path class="e6a7cdd6-7562-4f32-ad2d-c84efb74d17e" d="M1137.33,161h0a2.83,2.83,0,0,1-2.28,1.16,2.25,2.25,0,0,1-2.46-2.16c0-1.67,1.58-2.58,4.73-2.77v-.46a1.63,1.63,0,0,0-1.84-1.85,4.68,4.68,0,0,0-2.55.93l-.24-1a5.46,5.46,0,0,1,2.89-.94,2.46,2.46,0,0,1,2.79,2.79v3.74c0,.61.14.8.78.78l-.07.87C1138,162.13,1137.45,161.75,1137.33,161Zm-.06-.78v-2.28c-2.62.29-3.62.87-3.62,1.94a1.42,1.42,0,0,0,1.59,1.36A2.67,2.67,0,0,0,1137.27,160.17Z"/><path class="e6a7cdd6-7562-4f32-ad2d-c84efb74d17e" d="M1153.19,156.5c0,3.36-2.09,5.39-5.71,5.39h-2.8V151.26h2.89a5.81,5.81,0,0,1,4.11,1.43A5.06,5.06,0,0,1,1153.19,156.5Zm-1.08.08c0-2.7-1.69-4.31-4.61-4.31h-1.73v8.61h1.76C1150.36,160.88,1152.11,159.42,1152.11,156.58Z"/><path class="e6a7cdd6-7562-4f32-ad2d-c84efb74d17e" d="M1155.78,158v.08c0,1.79,1.1,3,2.72,3a4.12,4.12,0,0,0,2.26-.64l.2,1a4.56,4.56,0,0,1-2.5.67,3.72,3.72,0,0,1-3.75-4.05,4.41,4.41,0,0,1,1-3,3.37,3.37,0,0,1,2.62-1.17,2.67,2.67,0,0,1,2.84,2.87,4,4,0,0,1-.17,1.24Zm.07-.83,4.31,0a1.34,1.34,0,0,0,0-.34,1.78,1.78,0,0,0-1.87-2A2.51,2.51,0,0,0,1155.85,157.2Z"/><path class="e6a7cdd6-7562-4f32-ad2d-c84efb74d17e" d="M1167.34,161h0a2.85,2.85,0,0,1-2.28,1.16,2.25,2.25,0,0,1-2.47-2.16c0-1.67,1.59-2.58,4.73-2.77v-.46a1.63,1.63,0,0,0-1.84-1.85,4.68,4.68,0,0,0-2.54.93l-.24-1a5.43,5.43,0,0,1,2.89-.94,2.45,2.45,0,0,1,2.78,2.79v3.74c0,.61.14.8.79.78l-.07.87C1168,162.13,1167.46,161.75,1167.34,161Zm-.07-.78v-2.28c-2.62.29-3.62.87-3.62,1.94a1.42,1.42,0,0,0,1.6,1.36A2.63,2.63,0,0,0,1167.27,160.17Z"/><path class="e6a7cdd6-7562-4f32-ad2d-c84efb74d17e" d="M1170.67,161.89V150.43l1-.22v11.68Z"/><path class="e6a7cdd6-7562-4f32-ad2d-c84efb74d17e" d="M1174.73,158v.08c0,1.79,1.11,3,2.72,3a4.12,4.12,0,0,0,2.26-.64l.21,1a4.61,4.61,0,0,1-2.5.67,3.73,3.73,0,0,1-3.76-4.05,4.37,4.37,0,0,1,1.06-3,3.34,3.34,0,0,1,2.61-1.17,2.66,2.66,0,0,1,2.84,2.87A4,4,0,0,1,1180,158Zm.07-.83,4.32,0a1.34,1.34,0,0,0,0-.34,1.79,1.79,0,0,0-1.87-2A2.52,2.52,0,0,0,1174.8,157.2Z"/><path class="e6a7cdd6-7562-4f32-ad2d-c84efb74d17e" d="M1183.22,156.89v5h-1.06V154.1l1.06-.22v1.67a2.55,2.55,0,0,1,2.29-1.67,2.69,2.69,0,0,1,1.36.36l-.27,1a2.31,2.31,0,0,0-1.19-.34Q1184.11,154.88,1183.22,156.89Z"/><rect class="a13cc738-5118-4979-9a4d-ac0e78eab016" x="1257.66" y="131.05" width="178" height="50" rx="9"/><path class="ea746ab7-7d58-42e8-857d-d2e5cdedb854" d="M1338.18,152.61l-3.49,9.21h-1.19l-3.52-9.23-.18,9.3h-1.07l.35-10.63h1.46l3.59,9.39,3.54-9.39h1.44l.34,10.63h-1.1Z"/><path class="ea746ab7-7d58-42e8-857d-d2e5cdedb854" d="M1342.34,158v.08c.05,1.79,1.11,3,2.72,3a4.12,4.12,0,0,0,2.26-.64l.21,1a4.61,4.61,0,0,1-2.5.67,3.73,3.73,0,0,1-3.76-4.05,4.41,4.41,0,0,1,1-3,3.37,3.37,0,0,1,2.62-1.17,2.66,2.66,0,0,1,2.84,2.87,4,4,0,0,1-.17,1.24Zm.07-.83,4.32,0a2.66,2.66,0,0,0,0-.34,1.78,1.78,0,0,0-1.87-2A2.52,2.52,0,0,0,1342.41,157.2Z"/><path class="ea746ab7-7d58-42e8-857d-d2e5cdedb854" d="M1356,161.89h-1v-5c0-1.36-.53-2-1.72-2a3.38,3.38,0,0,0-2.37,1.11v5.9h-1V154.1l1-.22v1.28a3.79,3.79,0,0,1,2.66-1.28,2.35,2.35,0,0,1,2.48,2.67Z"/><path class="ea746ab7-7d58-42e8-857d-d2e5cdedb854" d="M1358.29,154.1h1v5c0,1.31.56,2,1.69,2a3.27,3.27,0,0,0,2.39-1.1v-5.9h1.06v7.79l-1.06.22v-1.26a3.73,3.73,0,0,1-2.68,1.26,2.36,2.36,0,0,1-2.45-2.67Z"/><rect class="a13cc738-5118-4979-9a4d-ac0e78eab016" x="554.98" y="562.39" width="178" height="50" rx="9"/><path class="svgtext" d="M619.48,589.16c0,2.69-1.41,4.29-4,4.29s-4-1.57-4-4.12V582.6h1v6.6c0,2.07,1,3.24,3,3.24s2.9-1.12,2.9-3.26V582.6h1.07Z"/><path class="svgtext" d="M626.61,591.1c0,1.41-1.19,2.35-2.79,2.35a4.69,4.69,0,0,1-2.55-.7l.29-1a4,4,0,0,0,2.29.72c1,0,1.75-.5,1.75-1.31a1,1,0,0,0-.11-.5,1.53,1.53,0,0,0-.28-.35,1.78,1.78,0,0,0-.47-.28,3.88,3.88,0,0,0-.5-.2l-.59-.19c-1.36-.41-2.26-1-2.26-2.21,0-1.39,1.1-2.24,2.63-2.24a5,5,0,0,1,2.37.58l-.31,1a4.32,4.32,0,0,0-2.12-.58c-1,0-1.57.44-1.57,1.19a.9.9,0,0,0,.12.46,1.43,1.43,0,0,0,.26.34,1.12,1.12,0,0,0,.45.27l.5.21c.12.05.32.1.59.18C625.72,589.23,626.61,589.81,626.61,591.1Z"/><path class="svgtext" d="M629.07,589.37v.08c0,1.79,1.11,3,2.72,3a4,4,0,0,0,2.26-.65l.21,1a4.61,4.61,0,0,1-2.5.67A3.73,3.73,0,0,1,628,589.4a4.35,4.35,0,0,1,1.06-3,3.34,3.34,0,0,1,2.61-1.17,2.66,2.66,0,0,1,2.84,2.87,4,4,0,0,1-.17,1.24Zm.07-.84h4.32a1.34,1.34,0,0,0,0-.34,1.79,1.79,0,0,0-1.87-2A2.51,2.51,0,0,0,629.14,588.53Z"/><path class="svgtext" d="M648.37,583.25l-.34,1a5.44,5.44,0,0,0-3-.85c-2.4,0-4,1.68-4,4.54s1.58,4.55,4,4.55a4.86,4.86,0,0,0,3-1l.2,1.07a5.68,5.68,0,0,1-3.19.87,4.87,4.87,0,0,1-3.73-1.5,6.39,6.39,0,0,1,0-8.06,4.85,4.85,0,0,1,3.69-1.51A6.18,6.18,0,0,1,648.37,583.25Z"/><path class="svgtext" d="M654.47,592.29h-.05a2.85,2.85,0,0,1-2.28,1.16,2.24,2.24,0,0,1-2.46-2.16c0-1.67,1.58-2.59,4.72-2.77v-.46a1.62,1.62,0,0,0-1.83-1.85,4.68,4.68,0,0,0-2.55.93l-.24-1a5.51,5.51,0,0,1,2.89-.93,2.46,2.46,0,0,1,2.79,2.79v3.74c0,.61.13.8.78.78l-.07.87C655.17,593.46,654.59,593.09,654.47,592.29Zm-.07-.78v-2.28c-2.62.29-3.62.87-3.62,1.94a1.43,1.43,0,0,0,1.6,1.36A2.63,2.63,0,0,0,654.4,591.51Z"/><path class="svgtext" d="M662.48,591.1c0,1.41-1.19,2.35-2.79,2.35a4.69,4.69,0,0,1-2.55-.7l.29-1a4,4,0,0,0,2.29.72c1,0,1.75-.5,1.75-1.31a1,1,0,0,0-.11-.5,1.53,1.53,0,0,0-.28-.35,1.78,1.78,0,0,0-.47-.28,3.88,3.88,0,0,0-.5-.2l-.59-.19c-1.36-.41-2.26-1-2.26-2.21,0-1.39,1.1-2.24,2.63-2.24a5,5,0,0,1,2.37.58l-.31,1a4.32,4.32,0,0,0-2.12-.58c-1,0-1.57.44-1.57,1.19a.9.9,0,0,0,.12.46,1.43,1.43,0,0,0,.26.34,1.12,1.12,0,0,0,.45.27l.5.21c.12.05.32.1.59.18C661.59,589.23,662.48,589.81,662.48,591.1Z"/><path class="svgtext" d="M664.94,589.37v.08c0,1.79,1.11,3,2.72,3a4,4,0,0,0,2.26-.65l.21,1a4.61,4.61,0,0,1-2.5.67,3.73,3.73,0,0,1-3.76-4.05,4.35,4.35,0,0,1,1.06-3,3.34,3.34,0,0,1,2.61-1.17,2.66,2.66,0,0,1,2.84,2.87,4,4,0,0,1-.17,1.24Zm.07-.84h4.32a1.34,1.34,0,0,0,0-.34,1.79,1.79,0,0,0-1.87-2A2.51,2.51,0,0,0,665,588.53Z"/><path class="svgtext" d="M677.05,591.1c0,1.41-1.19,2.35-2.79,2.35a4.69,4.69,0,0,1-2.55-.7l.29-1a4,4,0,0,0,2.29.72c1,0,1.75-.5,1.75-1.31a1,1,0,0,0-.12-.5,1.29,1.29,0,0,0-.27-.35,1.78,1.78,0,0,0-.47-.28,3.88,3.88,0,0,0-.5-.2l-.59-.19c-1.36-.41-2.26-1-2.26-2.21,0-1.39,1.1-2.24,2.63-2.24a5,5,0,0,1,2.37.58l-.31,1a4.32,4.32,0,0,0-2.12-.58c-1,0-1.57.44-1.57,1.19a.9.9,0,0,0,.12.46,1.43,1.43,0,0,0,.25.34,1.26,1.26,0,0,0,.46.27l.5.21c.12.05.32.1.59.18C676.16,589.23,677.05,589.81,677.05,591.1Z"/><rect class="a13cc738-5118-4979-9a4d-ac0e78eab016" x="758.6" y="562.39" width="178" height="50" rx="9"/><path class="svgtext" d="M788.5,573.42V583h-1.08v-9.61h-3.74v-1h8.56v1Z"/><path class="svgtext" d="M792.81,579.17v.08c.05,1.79,1.1,3,2.72,3a4.09,4.09,0,0,0,2.26-.65l.2,1a4.58,4.58,0,0,1-2.5.67,3.73,3.73,0,0,1-3.76-4,4.35,4.35,0,0,1,1.06-3,3.36,3.36,0,0,1,2.62-1.17,2.66,2.66,0,0,1,2.83,2.87,4,4,0,0,1-.17,1.24Zm.06-.84h4.32a1.34,1.34,0,0,0,0-.34,1.79,1.79,0,0,0-1.87-2A2.51,2.51,0,0,0,792.87,578.33Z"/><path class="svgtext" d="M806.42,583h-1v-5c0-1.36-.53-2-1.72-2a3.34,3.34,0,0,0-2.36,1.11V583h-1.06v-7.79l1.06-.22v1.27a3.74,3.74,0,0,1,2.65-1.27,2.35,2.35,0,0,1,2.48,2.67Z"/><path class="svgtext" d="M812.7,582.87a4.1,4.1,0,0,1-1.74.41c-1.44,0-2.14-.82-2.09-2.45l.12-4.6-1.19-.07.05-.66,1.17-.28.05-1.76h1l-.05,1.81h2.6l0,.94H810l-.12,4.66c0,1,.34,1.46,1.14,1.46a3.71,3.71,0,0,0,1.5-.38Z"/><path class="svgtext" d="M818.54,582.09h0a2.83,2.83,0,0,1-2.28,1.16,2.25,2.25,0,0,1-2.46-2.16c0-1.67,1.58-2.59,4.72-2.77v-.46a1.63,1.63,0,0,0-1.83-1.86,4.7,4.7,0,0,0-2.55.94l-.24-1a5.51,5.51,0,0,1,2.89-.93,2.45,2.45,0,0,1,2.79,2.79v3.74c0,.61.13.8.78.78l-.07.87C819.24,583.26,818.66,582.89,818.54,582.09Zm-.07-.78V579c-2.61.29-3.62.87-3.62,1.94a1.43,1.43,0,0,0,1.6,1.36A2.63,2.63,0,0,0,818.47,581.31Z"/><path class="svgtext" d="M825.75,582.87a4.09,4.09,0,0,1-1.73.41c-1.45,0-2.15-.82-2.09-2.45l.11-4.6-1.18-.07,0-.66,1.17-.28,0-1.76h1l0,1.81h2.6l0,.94h-2.58l-.12,4.66c0,1,.34,1.46,1.14,1.46a3.67,3.67,0,0,0,1.49-.38Z"/><path class="svgtext" d="M828.73,572.67a.87.87,0,0,1-.19.55.67.67,0,0,1-.53.24.63.63,0,0,1-.52-.24.87.87,0,0,1-.19-.55.81.81,0,0,1,.19-.52.59.59,0,0,1,.52-.22.62.62,0,0,1,.53.22A.81.81,0,0,1,828.73,572.67ZM828.54,583h-1v-7.79l1-.22Z"/><path class="svgtext" d="M833.88,583h-1l-3.07-7.8H831l2.46,6.43,2.38-6.43h1.11Z"/><path class="svgtext" d="M838.71,579.17v.08c0,1.79,1.1,3,2.72,3a4.07,4.07,0,0,0,2.26-.65l.2,1a4.58,4.58,0,0,1-2.5.67,3.73,3.73,0,0,1-3.76-4,4.35,4.35,0,0,1,1.06-3,3.36,3.36,0,0,1,2.62-1.17,2.67,2.67,0,0,1,2.84,2.87,4.32,4.32,0,0,1-.17,1.24Zm.06-.84h4.32a1.34,1.34,0,0,0,0-.34,1.78,1.78,0,0,0-1.87-2A2.52,2.52,0,0,0,838.77,578.33Z"/><path class="svgtext" d="M858,573.05l-.34,1a5.41,5.41,0,0,0-3-.85c-2.39,0-4,1.68-4,4.54s1.58,4.55,4,4.55a4.86,4.86,0,0,0,3-1l.2,1.07a5.68,5.68,0,0,1-3.19.87,4.84,4.84,0,0,1-3.72-1.5,6.41,6.41,0,0,1,0-8.06,4.87,4.87,0,0,1,3.69-1.51A6.16,6.16,0,0,1,858,573.05Z"/><path class="svgtext" d="M866.79,579.12a4.11,4.11,0,0,1-1.09,3,3.6,3.6,0,0,1-2.74,1.16,3.53,3.53,0,0,1-2.7-1.13,4.67,4.67,0,0,1,0-6,3.59,3.59,0,0,1,2.74-1.14,3.51,3.51,0,0,1,2.7,1.12A4.18,4.18,0,0,1,866.79,579.12Zm-1,0c0-1.92-1.09-3.18-2.75-3.18s-2.74,1.28-2.74,3.15,1.09,3.17,2.76,3.17S865.75,581,865.75,579.15Z"/><path class="svgtext" d="M871.51,583h-1l-3.07-7.8h1.13l2.47,6.43,2.38-6.43h1.1Z"/><path class="svgtext" d="M876.34,579.17v.08c0,1.79,1.11,3,2.72,3a4,4,0,0,0,2.26-.65l.21,1a4.61,4.61,0,0,1-2.5.67,3.73,3.73,0,0,1-3.76-4,4.35,4.35,0,0,1,1.06-3,3.34,3.34,0,0,1,2.61-1.17,2.66,2.66,0,0,1,2.84,2.87,4,4,0,0,1-.17,1.24Zm.07-.84h4.32a1.34,1.34,0,0,0,0-.34,1.79,1.79,0,0,0-1.87-2A2.51,2.51,0,0,0,876.41,578.33Z"/><path class="svgtext" d="M884.83,578v5h-1.06v-7.79l1.06-.22v1.66a2.56,2.56,0,0,1,2.29-1.66,2.69,2.69,0,0,1,1.36.36l-.27,1A2.34,2.34,0,0,0,887,576C886.15,576,885.42,576.68,884.83,578Z"/><path class="svgtext" d="M893.87,582.09h0a2.85,2.85,0,0,1-2.28,1.16,2.24,2.24,0,0,1-2.46-2.16c0-1.67,1.58-2.59,4.72-2.77v-.46A1.63,1.63,0,0,0,892,576a4.7,4.7,0,0,0-2.55.94l-.24-1a5.51,5.51,0,0,1,2.89-.93,2.46,2.46,0,0,1,2.79,2.79v3.74c0,.61.13.8.78.78l-.07.87C894.57,583.26,894,582.89,893.87,582.09Zm-.07-.78V579c-2.62.29-3.62.87-3.62,1.94a1.43,1.43,0,0,0,1.6,1.36A2.63,2.63,0,0,0,893.8,581.31Z"/><path class="svgtext" d="M897.8,583c-.7-.25-1.06-.66-1.06-1.24a1.72,1.72,0,0,1,1.28-1.48,2.61,2.61,0,0,1-1.26-2.38,2.87,2.87,0,0,1,3.06-2.92,3.67,3.67,0,0,1,1.84.46l2.15-.17.06,1.05-1.72-.17a2.73,2.73,0,0,1,.63,1.75,2.85,2.85,0,0,1-3,2.86,3.42,3.42,0,0,1-1.15-.22c-.58.24-.87.54-.87.93s.44.8,1.77.8h1c2.16,0,3.23.68,3.23,2a2.44,2.44,0,0,1-1.21,2.07,5,5,0,0,1-2.89.82c-2.09,0-3.52-.92-3.52-2.28A2.08,2.08,0,0,1,897.8,583Zm.91.21c-.93.25-1.58.86-1.58,1.53,0,.93,1,1.59,2.66,1.59s2.92-.78,2.92-1.83c0-.89-.75-1.24-2.36-1.24C899.7,583.3,899.16,583.28,898.71,583.25ZM897.8,578a1.89,1.89,0,0,0,2,2,1.78,1.78,0,0,0,1.41-.58,2,2,0,0,0,.53-1.46,2.08,2.08,0,0,0-.51-1.46,1.93,1.93,0,0,0-1.48-.56A1.89,1.89,0,0,0,897.8,578Z"/><path class="svgtext" d="M905.72,579.17v.08c0,1.79,1.1,3,2.72,3a4,4,0,0,0,2.26-.65l.2,1a4.55,4.55,0,0,1-2.49.67,3.73,3.73,0,0,1-3.76-4,4.39,4.39,0,0,1,1.05-3,3.37,3.37,0,0,1,2.62-1.17,2.67,2.67,0,0,1,2.84,2.87,4,4,0,0,1-.17,1.24Zm.07-.84h4.31a1.34,1.34,0,0,0,0-.34,1.78,1.78,0,0,0-1.87-2A2.5,2.5,0,0,0,905.79,578.33Z"/><path class="svgtext" d="M822.46,593.45l-.34,1a5.33,5.33,0,0,0-3-.85c-2.39,0-4,1.68-4,4.53s1.58,4.56,4.05,4.56a4.84,4.84,0,0,0,3-.95l.21,1.07a5.74,5.74,0,0,1-3.2.87,4.84,4.84,0,0,1-3.72-1.5,6.41,6.41,0,0,1,0-8.06,4.87,4.87,0,0,1,3.69-1.51A6.16,6.16,0,0,1,822.46,593.45Z"/><path class="svgtext" d="M828.56,602.49h0a2.86,2.86,0,0,1-2.27,1.16,2.25,2.25,0,0,1-2.47-2.16q0-2.5,4.73-2.77v-.46a1.64,1.64,0,0,0-1.84-1.86,4.7,4.7,0,0,0-2.55.94l-.24-1a5.54,5.54,0,0,1,2.89-.93,2.45,2.45,0,0,1,2.79,2.79V602c0,.61.14.8.78.78l-.07.86C829.26,603.66,828.68,603.29,828.56,602.49Zm-.06-.78v-2.28c-2.62.29-3.62.87-3.62,1.94a1.42,1.42,0,0,0,1.59,1.36A2.67,2.67,0,0,0,828.5,601.71Z"/><path class="svgtext" d="M831.9,603.42V592l1.05-.22v11.67Z"/><path class="svgtext" d="M841.11,603a4.48,4.48,0,0,1-2.41.67c-2.33,0-3.81-1.64-3.81-4.1a4.16,4.16,0,0,1,1.09-3,3.59,3.59,0,0,1,2.73-1.15,4.4,4.4,0,0,1,2.43.66l-.27.95a3.83,3.83,0,0,0-2.16-.63c-1.68,0-2.73,1.25-2.73,3.12s1.08,3.14,2.75,3.14a3.88,3.88,0,0,0,2.16-.65Z"/><path class="svgtext" d="M843,595.64h1v5c0,1.31.56,2,1.68,2a3.28,3.28,0,0,0,2.4-1.1v-5.9h1v7.78l-1,.23v-1.26a3.73,3.73,0,0,1-2.68,1.26A2.36,2.36,0,0,1,843,601Z"/><path class="svgtext" d="M851.63,603.42V592l1.06-.22v11.67Z"/><path class="svgtext" d="M859.27,602.49h0a2.88,2.88,0,0,1-2.28,1.16,2.25,2.25,0,0,1-2.47-2.16q0-2.5,4.73-2.77v-.46a1.63,1.63,0,0,0-1.84-1.86,4.76,4.76,0,0,0-2.55.94l-.24-1a5.54,5.54,0,0,1,2.89-.93,2.45,2.45,0,0,1,2.79,2.79V602c0,.61.14.8.78.78l-.06.86C860,603.66,859.39,603.29,859.27,602.49Zm-.07-.78v-2.28c-2.62.29-3.62.87-3.62,1.94a1.43,1.43,0,0,0,1.6,1.36A2.66,2.66,0,0,0,859.2,601.71Z"/><path class="svgtext" d="M866.47,603.27a4,4,0,0,1-1.73.41c-1.44,0-2.14-.82-2.09-2.45l.12-4.6-1.19-.07,0-.67,1.17-.27.05-1.77h1l-.05,1.82h2.6l0,.94h-2.59l-.12,4.66c0,1,.34,1.46,1.14,1.46a3.71,3.71,0,0,0,1.5-.38Z"/><path class="svgtext" d="M875.18,599.52a4.12,4.12,0,0,1-1.09,3,3.64,3.64,0,0,1-2.74,1.16,3.53,3.53,0,0,1-2.7-1.13,4.67,4.67,0,0,1,.05-6,3.59,3.59,0,0,1,2.74-1.14,3.52,3.52,0,0,1,2.7,1.12A4.16,4.16,0,0,1,875.18,599.52Zm-1,0c0-1.92-1.09-3.18-2.75-3.18s-2.74,1.28-2.74,3.15,1.09,3.17,2.75,3.17S874.14,601.42,874.14,599.55Z"/><path class="svgtext" d="M878.19,598.43v5h-1.06v-7.78l1.06-.22v1.66a2.56,2.56,0,0,1,2.29-1.66,2.69,2.69,0,0,1,1.36.36l-.27,1a2.31,2.31,0,0,0-1.19-.34C879.51,596.42,878.78,597.08,878.19,598.43Z"/><rect class="ea746ab7-7d58-42e8-857d-d2e5cdedb854" x="554.98" y="418.05" width="178" height="50" rx="9"/><path class="e6a7cdd6-7562-4f32-ad2d-c84efb74d17e" d="M601.39,438.27h6.26v1h-5.17v4h4.28v1h-4.28v4.64h-1.09Z"/><path class="e6a7cdd6-7562-4f32-ad2d-c84efb74d17e" d="M610.65,438.54a.87.87,0,0,1-.18.55.73.73,0,0,1-1.06,0,.87.87,0,0,1-.18-.55.85.85,0,0,1,.18-.53.75.75,0,0,1,1.06,0A.85.85,0,0,1,610.65,438.54Zm-.18,10.35h-1.06v-7.78l1.06-.22Z"/><path class="e6a7cdd6-7562-4f32-ad2d-c84efb74d17e" d="M619.14,448.89h-1.06v-5c0-1.36-.52-2-1.71-2A3.33,3.33,0,0,0,614,443v5.9h-1v-7.78l1-.22v1.27a3.76,3.76,0,0,1,2.66-1.27,2.34,2.34,0,0,1,2.48,2.66Z"/><path class="e6a7cdd6-7562-4f32-ad2d-c84efb74d17e" d="M626.77,441.36v-3.93l1.05-.22v11.68h-1.05v-.73a3.25,3.25,0,0,1-2.26.95c-2.09,0-3.49-1.65-3.49-4a4.18,4.18,0,0,1,1.09-3,3.68,3.68,0,0,1,2.77-1.15A4.34,4.34,0,0,1,626.77,441.36Zm0,1.12a3.11,3.11,0,0,0-1.94-.59c-1.66,0-2.72,1.29-2.72,3.16s1,3.09,2.59,3.09a3,3,0,0,0,2.07-.86v-4.8Z"/><path class="e6a7cdd6-7562-4f32-ad2d-c84efb74d17e" d="M638.28,448h0a2.86,2.86,0,0,1-2.28,1.15,2.24,2.24,0,0,1-2.46-2.16c0-1.66,1.58-2.58,4.72-2.77v-.45a1.63,1.63,0,0,0-1.84-1.86,4.7,4.7,0,0,0-2.54.94l-.24-1a5.42,5.42,0,0,1,2.89-.93,2.46,2.46,0,0,1,2.79,2.78v3.74c0,.61.13.8.78.78l-.07.87C639,449.13,638.4,448.76,638.28,448Zm-.07-.79V444.9c-2.62.29-3.62.86-3.62,1.94a1.42,1.42,0,0,0,1.6,1.35A2.63,2.63,0,0,0,638.21,447.17Z"/><path class="e6a7cdd6-7562-4f32-ad2d-c84efb74d17e" d="M654.14,443.5c0,3.37-2.09,5.39-5.71,5.39h-2.81V438.27h2.89a5.77,5.77,0,0,1,4.12,1.43A5,5,0,0,1,654.14,443.5Zm-1.09.09c0-2.7-1.68-4.32-4.6-4.32h-1.74v8.62h1.77C651.3,447.89,653.05,446.43,653.05,443.59Z"/><path class="e6a7cdd6-7562-4f32-ad2d-c84efb74d17e" d="M656.72,445v.09c.06,1.78,1.11,3,2.72,3a4,4,0,0,0,2.26-.65l.21,1a4.69,4.69,0,0,1-2.5.66,3.72,3.72,0,0,1-3.76-4,4.34,4.34,0,0,1,1.06-3,3.34,3.34,0,0,1,2.61-1.17,2.66,2.66,0,0,1,2.84,2.87A4,4,0,0,1,662,445Zm.07-.83,4.32,0a1.34,1.34,0,0,0,0-.34,1.78,1.78,0,0,0-1.87-2A2.51,2.51,0,0,0,656.79,444.2Z"/><path class="e6a7cdd6-7562-4f32-ad2d-c84efb74d17e" d="M668.28,448h0a2.85,2.85,0,0,1-2.28,1.15,2.25,2.25,0,0,1-2.46-2.16q0-2.49,4.73-2.77v-.45a1.63,1.63,0,0,0-1.84-1.86,4.7,4.7,0,0,0-2.55.94l-.24-1a5.45,5.45,0,0,1,2.89-.93c1.87,0,2.81.93,2.79,2.78v3.74c0,.61.14.8.78.78l-.07.87C669,449.13,668.4,448.76,668.28,448Zm-.06-.79V444.9c-2.62.29-3.62.86-3.62,1.94a1.41,1.41,0,0,0,1.59,1.35A2.67,2.67,0,0,0,668.22,447.17Z"/><path class="e6a7cdd6-7562-4f32-ad2d-c84efb74d17e" d="M671.62,448.89V437.43l1-.22v11.68Z"/><path class="e6a7cdd6-7562-4f32-ad2d-c84efb74d17e" d="M675.68,445v.09c.05,1.78,1.1,3,2.72,3a4,4,0,0,0,2.26-.65l.2,1a4.63,4.63,0,0,1-2.49.66,3.72,3.72,0,0,1-3.76-4,4.38,4.38,0,0,1,1-3,3.37,3.37,0,0,1,2.62-1.17,2.67,2.67,0,0,1,2.84,2.87A4,4,0,0,1,681,445Zm.07-.83,4.31,0a1.34,1.34,0,0,0,0-.34,1.78,1.78,0,0,0-1.87-2A2.5,2.5,0,0,0,675.75,444.2Z"/><path class="e6a7cdd6-7562-4f32-ad2d-c84efb74d17e" d="M684.16,443.9v5h-1v-7.78l1-.22v1.66a2.57,2.57,0,0,1,2.3-1.66,2.7,2.7,0,0,1,1.36.35l-.28,1a2.27,2.27,0,0,0-1.18-.34C685.49,441.89,684.76,442.55,684.16,443.9Z"/><rect class="ea746ab7-7d58-42e8-857d-d2e5cdedb854" x="758.04" y="418.05" width="178" height="50" rx="9"/><path class="e6a7cdd6-7562-4f32-ad2d-c84efb74d17e" d="M789.56,428.71l-.34,1a5.4,5.4,0,0,0-3-.85c-2.4,0-4,1.69-4,4.54s1.59,4.56,4,4.56a4.93,4.93,0,0,0,3-.95l.2,1.07a5.79,5.79,0,0,1-3.2.86,4.86,4.86,0,0,1-3.72-1.49,6.39,6.39,0,0,1,0-8.06,4.85,4.85,0,0,1,3.68-1.51A6.24,6.24,0,0,1,789.56,428.71Z"/><path class="e6a7cdd6-7562-4f32-ad2d-c84efb74d17e" d="M798.35,434.78a4.12,4.12,0,0,1-1.08,3,3.66,3.66,0,0,1-2.74,1.15,3.49,3.49,0,0,1-2.7-1.12,4.64,4.64,0,0,1,0-6,3.58,3.58,0,0,1,2.73-1.14,3.53,3.53,0,0,1,2.71,1.12A4.19,4.19,0,0,1,798.35,434.78Zm-1,0c0-1.92-1.09-3.18-2.76-3.18s-2.73,1.27-2.73,3.14,1.08,3.18,2.75,3.18S797.32,436.69,797.32,434.82Z"/><path class="e6a7cdd6-7562-4f32-ad2d-c84efb74d17e" d="M806.5,438.69h-1.06v-5c0-1.36-.53-2-1.71-2a3.33,3.33,0,0,0-2.37,1.1v5.9h-1.05v-7.78l1.05-.22V432a3.76,3.76,0,0,1,2.65-1.27,2.34,2.34,0,0,1,2.49,2.66Z"/><path class="e6a7cdd6-7562-4f32-ad2d-c84efb74d17e" d="M815.08,438.69H814v-5c0-1.36-.53-2-1.72-2a3.33,3.33,0,0,0-2.36,1.1v5.9h-1.06v-7.78l1.06-.22V432a3.74,3.74,0,0,1,2.65-1.27,2.34,2.34,0,0,1,2.48,2.66Z"/><path class="e6a7cdd6-7562-4f32-ad2d-c84efb74d17e" d="M818,434.83v.09c.05,1.78,1.1,3,2.72,3a4,4,0,0,0,2.26-.65l.2,1a4.63,4.63,0,0,1-2.49.66,3.72,3.72,0,0,1-3.76-4,4.38,4.38,0,0,1,1-3,3.37,3.37,0,0,1,2.62-1.17,2.67,2.67,0,0,1,2.84,2.87,4,4,0,0,1-.17,1.24Zm.07-.83,4.31,0a1.34,1.34,0,0,0,0-.34,1.78,1.78,0,0,0-1.87-2A2.5,2.5,0,0,0,818.11,434Z"/><path class="e6a7cdd6-7562-4f32-ad2d-c84efb74d17e" d="M831.18,438.25a4.47,4.47,0,0,1-2.41.66c-2.33,0-3.81-1.63-3.81-4.09a4.16,4.16,0,0,1,1.09-3,3.59,3.59,0,0,1,2.73-1.15,4.4,4.4,0,0,1,2.43.66l-.27.95a3.83,3.83,0,0,0-2.16-.63c-1.68,0-2.73,1.24-2.73,3.11s1.08,3.15,2.75,3.15a3.88,3.88,0,0,0,2.16-.65Z"/><path class="e6a7cdd6-7562-4f32-ad2d-c84efb74d17e" d="M837,438.54a4.06,4.06,0,0,1-1.73.41c-1.45,0-2.14-.82-2.09-2.45l.12-4.61-1.19-.06,0-.67,1.17-.27,0-1.77h1l0,1.82h2.6l-.05.94h-2.58l-.12,4.65c0,1,.34,1.47,1.14,1.47a3.67,3.67,0,0,0,1.49-.38Z"/><path class="e6a7cdd6-7562-4f32-ad2d-c84efb74d17e" d="M844,438.73l-2.38-7.82h1.12l1.8,6.2,2-6.19h.95l2.13,6.23,1.61-6.24h1.16l-2.31,7.82h-.94l-2.12-6.29-2.13,6.29Z"/><path class="e6a7cdd6-7562-4f32-ad2d-c84efb74d17e" d="M855.12,428.34a.83.83,0,0,1-.19.54.64.64,0,0,1-.53.24.61.61,0,0,1-.52-.24.83.83,0,0,1-.19-.54.86.86,0,0,1,.19-.53.62.62,0,0,1,.52-.22.65.65,0,0,1,.53.22A.86.86,0,0,1,855.12,428.34Zm-.19,10.35h-1v-7.78l1-.22Z"/><path class="e6a7cdd6-7562-4f32-ad2d-c84efb74d17e" d="M861.29,438.54a4.1,4.1,0,0,1-1.74.41c-1.44,0-2.14-.82-2.09-2.45l.12-4.61-1.19-.06.05-.67,1.18-.27,0-1.77h1l0,1.82h2.6l-.05.94h-2.59l-.12,4.65c0,1,.35,1.47,1.14,1.47a3.71,3.71,0,0,0,1.5-.38Z"/><path class="e6a7cdd6-7562-4f32-ad2d-c84efb74d17e" d="M869.19,438.69h-1.05v-5c0-1.31-.56-2-1.67-2a3.37,3.37,0,0,0-2.41,1.1v5.9H863V427.24l1.06-.23v4.92a3.72,3.72,0,0,1,2.7-1.24c1.53,0,2.43.95,2.43,2.66Z"/><path class="e6a7cdd6-7562-4f32-ad2d-c84efb74d17e" d="M879.6,437.76h-.06a2.83,2.83,0,0,1-2.27,1.15,2.25,2.25,0,0,1-2.47-2.16q0-2.49,4.73-2.77v-.46a1.63,1.63,0,0,0-1.84-1.85,4.76,4.76,0,0,0-2.55.94l-.24-1a5.45,5.45,0,0,1,2.89-.93c1.87,0,2.81.93,2.79,2.78v3.74c0,.62.14.8.78.79l-.06.86C880.29,438.93,879.71,438.56,879.6,437.76Zm-.07-.78V434.7c-2.62.29-3.62.86-3.62,1.94A1.42,1.42,0,0,0,877.5,438,2.67,2.67,0,0,0,879.53,437Z"/><path class="e6a7cdd6-7562-4f32-ad2d-c84efb74d17e" d="M888,434.44v4.25h-1.09V428.07h2.86c2.56,0,3.85,1.14,3.85,3.06a3.08,3.08,0,0,1-2.46,3l2.94,4.57h-1.26l-2.72-4.38Zm0-1,1.9-.06c1.5-.06,2.64-.89,2.64-2.23s-1-2.13-2.89-2.13H888Z"/><path class="e6a7cdd6-7562-4f32-ad2d-c84efb74d17e" d="M902.7,434.78a4.13,4.13,0,0,1-1.09,3,3.63,3.63,0,0,1-2.74,1.15,3.52,3.52,0,0,1-2.7-1.12,4.67,4.67,0,0,1,.05-6,3.59,3.59,0,0,1,2.74-1.14,3.52,3.52,0,0,1,2.7,1.12A4.16,4.16,0,0,1,902.7,434.78Zm-1,0c0-1.92-1.09-3.18-2.75-3.18s-2.74,1.27-2.74,3.14,1.09,3.18,2.75,3.18S901.66,436.69,901.66,434.82Z"/><path class="e6a7cdd6-7562-4f32-ad2d-c84efb74d17e" d="M908.65,427.2l0,.24c-.05.17-.09.32-.14.48l-.07.23a2.8,2.8,0,0,0-1.19-.32c-.86,0-1.29.61-1.29,1.82v1.29h2.45l-.05.94h-2.4v6.81h-1v-6.78l-1.25-.08.06-.67,1.18-.27v-1.22c0-1.87.82-2.81,2.35-2.81A3.4,3.4,0,0,1,908.65,427.2Z"/><path class="e6a7cdd6-7562-4f32-ad2d-c84efb74d17e" d="M913.88,427.2l0,.24c-.05.17-.08.32-.13.48l-.07.23a2.8,2.8,0,0,0-1.19-.32c-.87,0-1.29.61-1.29,1.82v1.29h2.44l-.05.94h-2.39v6.81h-1v-6.78l-1.26-.08.07-.67,1.17-.27,0-1.22c0-1.87.82-2.81,2.35-2.81A3.36,3.36,0,0,1,913.88,427.2Z"/><path class="e6a7cdd6-7562-4f32-ad2d-c84efb74d17e" d="M826.42,459.09V448.47h6.43v1h-5.34v3.81H832v1h-4.45v3.83h5.34v1Z"/><path class="e6a7cdd6-7562-4f32-ad2d-c84efb74d17e" d="M839.14,459.09,837,455.81l-2.09,3.28h-1.19l2.68-4-2.51-3.79h1.17l1.94,3,1.9-3h1.18l-2.49,3.75,2.69,4Z"/><path class="e6a7cdd6-7562-4f32-ad2d-c84efb74d17e" d="M842.66,452.09a3.23,3.23,0,0,1,2.26-.95c2.09,0,3.48,1.63,3.48,4a4.23,4.23,0,0,1-1.07,3,3.63,3.63,0,0,1-2.77,1.17,4.37,4.37,0,0,1-1.9-.4v4.14H841.6V451.27l1.06-.22Zm0,.88v4.78a3,3,0,0,0,2,.61c1.63,0,2.7-1.31,2.7-3.18s-1-3.08-2.56-3.08A3,3,0,0,0,842.66,453Z"/><path class="e6a7cdd6-7562-4f32-ad2d-c84efb74d17e" d="M850.92,455.23v.09c.05,1.78,1.1,3,2.72,3a4.12,4.12,0,0,0,2.26-.65l.2,1a4.64,4.64,0,0,1-2.5.66,3.72,3.72,0,0,1-3.75-4,4.33,4.33,0,0,1,1-3,3.36,3.36,0,0,1,2.62-1.17,2.67,2.67,0,0,1,2.84,2.87,4,4,0,0,1-.17,1.24Zm.07-.83,4.31,0a1.34,1.34,0,0,0,0-.34,1.78,1.78,0,0,0-1.87-2A2.5,2.5,0,0,0,851,454.4Z"/><path class="e6a7cdd6-7562-4f32-ad2d-c84efb74d17e" d="M859.4,454.09v5h-1v-7.78l1-.22v1.66a2.57,2.57,0,0,1,2.3-1.66,2.7,2.7,0,0,1,1.36.35l-.28,1a2.28,2.28,0,0,0-1.19-.34C860.73,452.09,860,452.75,859.4,454.09Z"/><path class="e6a7cdd6-7562-4f32-ad2d-c84efb74d17e" d="M868.53,458.94a4.1,4.1,0,0,1-1.74.41c-1.44,0-2.14-.82-2.09-2.45l.12-4.61-1.19-.07,0-.66,1.18-.27,0-1.77h1l0,1.82h2.6l-.05.93h-2.58l-.12,4.66c0,1,.34,1.46,1.14,1.46a3.67,3.67,0,0,0,1.49-.37Z"/><rect class="a13cc738-5118-4979-9a4d-ac0e78eab016" x="758.6" y="488.61" width="178" height="50" rx="9"/><path class="svgtext" d="M816.41,509.84v9.61h-1.09v-9.61h-3.74v-1h8.57v1Z"/><path class="svgtext" d="M830.42,514.06c0,3.36-2.09,5.39-5.71,5.39H821.9V508.82h2.89a5.79,5.79,0,0,1,4.11,1.43A5,5,0,0,1,830.42,514.06Zm-1.09.08c0-2.7-1.68-4.31-4.61-4.31H823v8.61h1.77C827.58,518.44,829.33,517,829.33,514.14Z"/><path class="svgtext" d="M835.28,518.7c1.48,0,2.51-.87,2.51-2s-.81-1.68-2.68-2.22c-.44-.14-.82-.28-1.12-.41a4.41,4.41,0,0,1-1-.53,2.27,2.27,0,0,1-.75-.85,2.61,2.61,0,0,1-.25-1.19c0-1.68,1.41-2.89,3.39-2.89a5.81,5.81,0,0,1,3.2.92l-.39,1a4.83,4.83,0,0,0-2.79-.88c-1.53,0-2.36.76-2.36,1.82s.8,1.53,2.68,2.12a11.06,11.06,0,0,1,1.14.41,6.38,6.38,0,0,1,1,.56,2.29,2.29,0,0,1,.73.88,3,3,0,0,1,.24,1.23c0,1.78-1.46,3.06-3.59,3.06a6.22,6.22,0,0,1-3.41-1l.39-1A5.28,5.28,0,0,0,835.28,518.7Z"/><path class="svgtext" d="M839.67,522.83h-.84L843,507.51h.85Z"/><path class="svgtext" d="M854.3,510.17l-3.48,9.21h-1.19l-3.52-9.23-.19,9.3h-1.07l.36-10.63h1.46l3.59,9.39,3.53-9.39h1.45l.34,10.63h-1.11Z"/><path class="svgtext" d="M860.74,518.7c1.48,0,2.52-.87,2.52-2s-.82-1.68-2.69-2.22c-.44-.14-.81-.28-1.12-.41a4.92,4.92,0,0,1-1-.53,2.24,2.24,0,0,1-.74-.85,2.61,2.61,0,0,1-.26-1.19c0-1.68,1.41-2.89,3.4-2.89a5.86,5.86,0,0,1,3.2.92l-.4,1a4.8,4.8,0,0,0-2.78-.88c-1.53,0-2.37.76-2.37,1.82s.8,1.53,2.69,2.12a12,12,0,0,1,1.14.41,7.52,7.52,0,0,1,1,.56,2.38,2.38,0,0,1,.73.88,3.17,3.17,0,0,1,.24,1.23c0,1.78-1.47,3.06-3.59,3.06a6.26,6.26,0,0,1-3.42-1l.39-1A5.28,5.28,0,0,0,860.74,518.7Z"/><path class="svgtext" d="M874.89,514.06c0,3.36-2.09,5.39-5.71,5.39h-2.81V508.82h2.89a5.79,5.79,0,0,1,4.11,1.43A5,5,0,0,1,874.89,514.06Zm-1.09.08c0-2.7-1.68-4.31-4.61-4.31h-1.73v8.61h1.77C872.05,518.44,873.8,517,873.8,514.14Z"/><path class="svgtext" d="M879.75,518.7c1.48,0,2.52-.87,2.52-2s-.82-1.68-2.69-2.22c-.44-.14-.82-.28-1.12-.41a4.65,4.65,0,0,1-1-.53,2.27,2.27,0,0,1-.75-.85,2.61,2.61,0,0,1-.25-1.19c0-1.68,1.41-2.89,3.4-2.89a5.8,5.8,0,0,1,3.19.92l-.39,1a4.83,4.83,0,0,0-2.79-.88c-1.53,0-2.36.76-2.36,1.82s.8,1.53,2.69,2.12c.44.14.81.27,1.14.41a6.82,6.82,0,0,1,1,.56,2.29,2.29,0,0,1,.73.88,3,3,0,0,1,.24,1.23c0,1.78-1.46,3.06-3.58,3.06a6.26,6.26,0,0,1-3.42-1l.39-1A5.28,5.28,0,0,0,879.75,518.7Z"/><rect class="a13cc738-5118-4979-9a4d-ac0e78eab016" x="554.98" y="488.61" width="178" height="50" rx="9"/><path class="svgtext" d="M622.88,514a2.51,2.51,0,0,1,2.38,2.48c0,1.82-1.22,3-3.82,3H618V508.82h3.31c2.47,0,3.62,1.06,3.62,2.77A2.46,2.46,0,0,1,622.88,514Zm1-2.33c0-1.19-.85-1.87-2.49-1.87h-2.27v3.82h2.1C622.82,513.63,623.84,512.94,623.84,511.68Zm.34,4.81c0-1.24-1-1.87-2.93-1.87h-2.17v3.84h2.44C623.29,518.46,624.18,517.8,624.18,516.49Z"/><path class="svgtext" d="M627.76,515.59v.08c0,1.79,1.11,3,2.72,3a4.12,4.12,0,0,0,2.26-.64l.21,1a4.61,4.61,0,0,1-2.5.67,3.73,3.73,0,0,1-3.76-4,4.35,4.35,0,0,1,1.06-3,3.34,3.34,0,0,1,2.61-1.17,2.66,2.66,0,0,1,2.84,2.87,4,4,0,0,1-.17,1.24Zm.07-.84h4.32a1.34,1.34,0,0,0,0-.34,1.79,1.79,0,0,0-1.87-2A2.51,2.51,0,0,0,627.83,514.75Z"/><path class="svgtext" d="M641.38,519.45h-1v-5c0-1.37-.53-2-1.72-2a3.34,3.34,0,0,0-2.36,1.11v5.9h-1.06v-7.79l1.06-.22v1.27a3.78,3.78,0,0,1,2.65-1.27,2.35,2.35,0,0,1,2.48,2.67Z"/><path class="svgtext" d="M644.34,515.59v.08c0,1.79,1.1,3,2.72,3a4.12,4.12,0,0,0,2.26-.64l.2,1a4.56,4.56,0,0,1-2.5.67,3.72,3.72,0,0,1-3.75-4,4.35,4.35,0,0,1,1.05-3,3.37,3.37,0,0,1,2.62-1.17,2.67,2.67,0,0,1,2.84,2.87,4,4,0,0,1-.17,1.24Zm.07-.84h4.31a1.34,1.34,0,0,0,0-.34,1.78,1.78,0,0,0-1.87-2A2.5,2.5,0,0,0,644.41,514.75Z"/><path class="svgtext" d="M655.76,508l0,.23c-.05.17-.08.33-.14.48l-.06.24a2.83,2.83,0,0,0-1.19-.33c-.87,0-1.29.62-1.29,1.82v1.3h2.44l-.05.93H653v6.82h-1v-6.79l-1.26-.08.07-.66,1.17-.28,0-1.22c0-1.87.81-2.8,2.34-2.8A3.23,3.23,0,0,1,655.76,508Z"/><path class="svgtext" d="M658.09,509.09a.83.83,0,0,1-.19.55.65.65,0,0,1-.52.24.67.67,0,0,1-.53-.24.83.83,0,0,1-.19-.55.81.81,0,0,1,.19-.52.62.62,0,0,1,.53-.22.6.6,0,0,1,.52.22A.81.81,0,0,1,658.09,509.09Zm-.19,10.36h-1v-7.79l1-.22Z"/><path class="svgtext" d="M664.26,519.29a3.92,3.92,0,0,1-1.73.41c-1.45,0-2.14-.81-2.09-2.45l.12-4.6-1.19-.07,0-.66,1.17-.28,0-1.76h1l0,1.82h2.6l-.05.93h-2.58l-.12,4.66c0,1,.34,1.46,1.14,1.46a3.81,3.81,0,0,0,1.49-.37Z"/><path class="svgtext" d="M670.65,517.32c0,1.41-1.19,2.35-2.78,2.35a4.69,4.69,0,0,1-2.55-.7l.28-1a4.06,4.06,0,0,0,2.3.72c1,0,1.75-.5,1.75-1.31a1,1,0,0,0-.12-.5,1.52,1.52,0,0,0-.27-.35,2.09,2.09,0,0,0-.48-.28,4.62,4.62,0,0,0-.49-.2l-.59-.19c-1.36-.4-2.27-1-2.27-2.21,0-1.39,1.11-2.24,2.64-2.24a5,5,0,0,1,2.36.58l-.3,1a4.33,4.33,0,0,0-2.13-.58c-1,0-1.56.44-1.56,1.19a.79.79,0,0,0,.12.46,1.43,1.43,0,0,0,.25.34,1.26,1.26,0,0,0,.46.27l.49.21c.12,0,.33.1.6.18C669.77,515.45,670.65,516,670.65,517.32Z"/><path class="e3806031-be68-4502-8730-72ce3ceec30c" d="M37.48,210.71H1472.94"/><path class="a5c8af85-607f-4095-9b90-3b2c60f8d096" d="M515,351.86h461.6V637.53H515Z"/><polyline class="bf92d24f-9e2e-45b7-a0c1-c1152af369dc" points="134.93 188.77 134.93 220.4 745.79 220.4 745.79 244.99"/><path class="ea746ab7-7d58-42e8-857d-d2e5cdedb854" d="M742,244.8a3.76,3.76,0,1,0,3.76-3.76A3.76,3.76,0,0,0,742,244.8Z"/><line class="bf92d24f-9e2e-45b7-a0c1-c1152af369dc" x1="745.79" y1="306.28" x2="745.79" y2="369.05"/><path class="ea746ab7-7d58-42e8-857d-d2e5cdedb854" d="M745.79,375.08a30.12,30.12,0,0,0-4.75-8.54l4.75,1.72,4.76-1.72A30.15,30.15,0,0,0,745.79,375.08Z"/></g></g></svg>
