<svg xmlns="http://www.w3.org/2000/svg" viewBox="0 0 1358.04 923.52">
  <defs>
    <style>
      .clsm-1 {
        fill: #efefef;
      }

      .clsm-2 {
        fill: #799400;
      }

      .clsm-3 {
        fill: #1c1c1c;
      }

      .clsm-4 {
        fill: #ccc;
      }

      .clsm-5, .clsm-6 {
        fill: none;
        stroke: #799400;
      }

      .clsm-5 {
        stroke-width: 2px;
      }

      .clsm-6 {
        stroke-dasharray: 5 5;
      }

      .clsm-7 {
        fill: #60681f;
      }
    </style>
  </defs>
  <g id="Layer_2" data-name="Layer 2">
    <g id="Layer_1-2" data-name="Layer 1">
      <path class="svgtext" d="M562.69,19.24h1.82l2.86-17.5h-2.55L556,17.16,553.09,1.74h-2.41l-4.06,17.5h1.87l3.39-15.18,2.75,15.06h2L565.32,4Zm7.69-6.39c0,.14,0,.51,0,.62,0,2.85,1.65,4.51,4.22,4.51a7.46,7.46,0,0,0,3.08-.73l.26,1.57a7.26,7.26,0,0,1-3.48.78,5.63,5.63,0,0,1-5.88-6,8.1,8.1,0,0,1,1.88-5.29,6,6,0,0,1,4.79-2.27c2.66,0,4.45,1.68,4.45,4.11a6.62,6.62,0,0,1-.56,2.64Zm.26-1.34,7.08,0a3.7,3.7,0,0,0,.2-1.18A2.61,2.61,0,0,0,575,7.62C572.9,7.62,571.22,9.21,570.64,11.51Zm20.85,7.73h-1.74l1.52-7.79a9.31,9.31,0,0,0,.22-1.54c0-1.43-.9-2.24-2.52-2.24a6.28,6.28,0,0,0-4,1.88L583,19.24H581.3l2.49-12.83,1.82-.36L585.25,8a6.83,6.83,0,0,1,4.36-1.93,3.35,3.35,0,0,1,3.67,3.44,10.43,10.43,0,0,1-.22,1.74Zm6.33-12.83h1.73L598,14.2a9.31,9.31,0,0,0-.22,1.54c0,1.42.89,2.24,2.52,2.24a6.27,6.27,0,0,0,4-1.85l1.9-9.72H608l-2.49,12.83-1.82.36.36-1.93a6.85,6.85,0,0,1-4.37,1.93A3.36,3.36,0,0,1,596,16.16a10.66,10.66,0,0,1,.23-1.74Zm25.46,10.11.73-3.67q-6.64.09-6.64,2.94a2.23,2.23,0,0,0,2.44,2.27A4.84,4.84,0,0,0,623.28,16.52Zm1-4.9.14-.62c.42-2.12-.64-3.36-3-3.36a8.15,8.15,0,0,0-3.86,1.15l-.22-1.57a8.85,8.85,0,0,1,4.31-1.14c3.33,0,5.12,1.73,4.42,5.15L625,16.55c-.22,1.12-.06,1.57,1,1.54l-.31,1.43c-1.54.08-2.35-.51-2.44-1.8h0a5.22,5.22,0,0,1-3.94,1.85A3.68,3.68,0,0,1,615.55,16c0-2.89,2.72-4.48,8.68-4.37Zm14.29,7.62h-1.73l1.51-7.79a9.31,9.31,0,0,0,.22-1.54c0-1.43-.89-2.24-2.52-2.24a6.28,6.28,0,0,0-4,1.88l-1.9,9.69h-1.74l2.49-12.83,1.82-.36L632.28,8a6.85,6.85,0,0,1,4.37-1.93,3.35,3.35,0,0,1,3.66,3.44,10.43,10.43,0,0,1-.22,1.74Zm15-11.88,1.34-7,1.8-.36-3.73,19.24h-1.73l.19-1a6,6,0,0,1-3.61,1.4c-2.88,0-5-2.32-5-5.6a8.11,8.11,0,0,1,2.07-5.6,6.57,6.57,0,0,1,5.07-2.27,5.94,5.94,0,0,1,3.61,1.23Zm-.34,1.74a4.91,4.91,0,0,0-3.44-1.48A4.55,4.55,0,0,0,646,9.46a6.71,6.71,0,0,0-1.48,4.29c0,2.57,1.54,4.34,3.64,4.34a5.49,5.49,0,0,0,3.5-1.43ZM676.27,12a7.76,7.76,0,0,1-2,5.32,6.52,6.52,0,0,1-5.12,2.27c-3.34,0-5.58-2.46-5.58-5.88a7.85,7.85,0,0,1,2-5.35,6.44,6.44,0,0,1,5.07-2.26c3.33,0,5.6,2.49,5.6,5.9Zm-1.77.12c0-2.66-1.48-4.51-4-4.51a4.5,4.5,0,0,0-3.75,1.85,6.67,6.67,0,0,0-1.43,4.17c0,2.63,1.51,4.42,4,4.42a4.53,4.53,0,0,0,3.73-1.82,6.44,6.44,0,0,0,1.42-4.11Zm10,5.54.28,1.51a6.75,6.75,0,0,1-2.66.51c-2,0-3.33-1-3.33-2.83a8.32,8.32,0,0,1,.25-1.68l1.57-7.09-1.88-.14.09-1.09L681,6.38l.67-2.91h1.66l-.68,3h4.23L686.75,8h-4.51l-1.6,7.25a8.94,8.94,0,0,0-.22,1.29c0,1,.62,1.54,1.88,1.54a6.54,6.54,0,0,0,2.18-.48Zm13.19,1.6h-1.74l1.54-7.93a6.61,6.61,0,0,0,.17-1.31c0-1.54-.93-2.36-2.58-2.36a6.37,6.37,0,0,0-3.92,1.71l-1.93,9.89h-1.74L691.14.36,693,0l-1.54,8a6.85,6.85,0,0,1,4.37-1.9,3.35,3.35,0,0,1,3.67,3.5,7.61,7.61,0,0,1-.17,1.42Zm6.1-6.39c0,.14,0,.51,0,.62,0,2.85,1.65,4.51,4.23,4.51a7.49,7.49,0,0,0,3.08-.73l.25,1.57a7.25,7.25,0,0,1-3.47.78,5.62,5.62,0,0,1-5.88-6,8.09,8.09,0,0,1,1.87-5.29,6,6,0,0,1,4.79-2.27c2.66,0,4.45,1.68,4.45,4.11a6.45,6.45,0,0,1-.56,2.64Zm.25-1.34,7.08,0a3.7,3.7,0,0,0,.2-1.18,2.6,2.6,0,0,0-2.91-2.68C706.29,7.62,704.61,9.21,704,11.51Zm14.05-.76-1.65,8.49h-1.74l2.49-12.83L719,6.05l-.47,2.43a4.62,4.62,0,0,1,3.72-2.43,4.31,4.31,0,0,1,2.35.61l-.47,1.68a4.49,4.49,0,0,0-2.24-.64C720.45,7.7,719.16,8.71,718.07,10.75Zm14.7,8.49L736.52,0,734.7.36,731,19.24Zm9.52-17.06a1.39,1.39,0,0,1-.34,1,1.21,1.21,0,0,1-1,.42,1.11,1.11,0,0,1-.92-.42,1.39,1.39,0,0,1-.34-1,1.39,1.39,0,0,1,.34-1A1.18,1.18,0,0,1,741,.84a1.29,1.29,0,0,1,1,.39A1.39,1.39,0,0,1,742.29,2.18Zm-3.72,17.06h-1.74l2.46-12.69,1.8-.36Zm14.28,0h-1.74l1.51-7.79a9.63,9.63,0,0,0,.23-1.54c0-1.43-.9-2.24-2.52-2.24a6.31,6.31,0,0,0-4,1.88l-1.9,9.69h-1.74l2.5-12.83L747,6.05,746.6,8A6.85,6.85,0,0,1,751,6.05a3.36,3.36,0,0,1,3.67,3.44,10.66,10.66,0,0,1-.23,1.74Zm7-6.64,4.71,6.64h2.12l-5-6.84,7.28-6h-2.44L760,12h-.06l2.38-12-1.82.36-3.67,18.88h1.74l1.29-6.64Zm17.43,3c0,2.33-2,4-4.7,4A8.14,8.14,0,0,1,768,18.2l.58-1.6a7.31,7.31,0,0,0,4.12,1.46c1.62,0,2.88-.84,2.88-2.24a1.54,1.54,0,0,0-.61-1.26,10.73,10.73,0,0,0-2.19-1.23,8.08,8.08,0,0,1-2.32-1.49,2.7,2.7,0,0,1-.76-2c0-2.24,2-3.75,4.37-3.75a8.38,8.38,0,0,1,4.4,1.29L778,8.93a7.63,7.63,0,0,0-4-1.34c-1.51,0-2.58.78-2.58,2s.62,1.48,2.75,2.49S777.3,13.89,777.3,15.62Z"/>
      <rect class="clsm-2" y="345.52" width="180" height="52" rx="10"/>
      <path class="clsm-3" d="M77.81,378.52V367.27H75v4.37H70.43v-4.37H67.57v11.25h2.86v-4.47H75v4.47Zm6.27-8.64a4.39,4.39,0,0,1,3.19,1.19,4.78,4.78,0,0,1-.06,6.49A4.55,4.55,0,0,1,84,378.79a4.43,4.43,0,0,1-3.18-1.19,4.14,4.14,0,0,1-1.26-3.24,4.27,4.27,0,0,1,1.29-3.28,4.58,4.58,0,0,1,3.26-1.2Zm1.68,4.44a2.89,2.89,0,0,0-.45-1.71A1.54,1.54,0,0,0,84,372a1.51,1.51,0,0,0-1.28.63,2.91,2.91,0,0,0-.45,1.73,2.8,2.8,0,0,0,.45,1.69,1.52,1.52,0,0,0,1.3.63,1.49,1.49,0,0,0,1.29-.63,2.9,2.9,0,0,0,.44-1.71Zm17.57,4.2h-2.77v-4.93c0-.9-.38-1.35-1.13-1.35a2,2,0,0,0-1.35.54v5.74H95.31v-4.93c0-.9-.38-1.35-1.16-1.35a2,2,0,0,0-1.35.5v5.78H90v-8.23L92.8,370v1.17a3.67,3.67,0,0,1,2.67-1.24,2.42,2.42,0,0,1,2.36,1.49,3.74,3.74,0,0,1,2.89-1.49c1.64,0,2.61,1.08,2.61,2.9Zm4.21-3.57v0c.09,1.13.86,1.76,2.21,1.76a5.48,5.48,0,0,0,2.74-.81l.27,2.15a7.15,7.15,0,0,1-3.26.68c-2.9,0-4.68-1.6-4.68-4.37a4.29,4.29,0,0,1,4.54-4.52c2.34,0,3.67,1.37,3.67,3.51a4.76,4.76,0,0,1-.18,1.47Zm0-1.38,2.9,0v-.16c0-1.06-.44-1.6-1.28-1.6a1.73,1.73,0,0,0-1.62,1.78Z"/>
      <rect class="clsm-4" x="790" y="465.52" width="180" height="52" rx="10"/>
      <path d="M869.26,498.52H872l-.38-11.25h-4l-2.34,8.44-2.35-8.44h-4l-.4,11.25h2.66l.08-8.66,2.46,8.48h3.06l2.47-8.5Zm6.89-3.57v0c.09,1.13.86,1.76,2.21,1.76a5.51,5.51,0,0,0,2.74-.81l.27,2.15a7.15,7.15,0,0,1-3.26.68c-2.9,0-4.68-1.6-4.68-4.37a4.29,4.29,0,0,1,4.54-4.52c2.34,0,3.67,1.37,3.67,3.51a5.08,5.08,0,0,1-.18,1.47Zm0-1.38,2.89,0v-.16c0-1.06-.43-1.6-1.27-1.6a1.73,1.73,0,0,0-1.62,1.78Zm15.27,4.95h-2.77v-4.95c0-1-.4-1.33-1.19-1.33a2.23,2.23,0,0,0-1.51.63v5.65H883.2v-8.23L886,490v1.37a3.7,3.7,0,0,1,2.81-1.44,2.55,2.55,0,0,1,2.66,2.88Zm1.88-8.37h2.77v5c0,.9.38,1.35,1.15,1.35a2.07,2.07,0,0,0,1.43-.56v-5.74h2.77v8.24l-2.77.34v-1.24a3.6,3.6,0,0,1-2.72,1.3c-1.64,0-2.63-1.1-2.63-2.88Z"/>
      <rect class="clsm-5" x="1" y="272.52" width="178" height="50" rx="9"/>
      <path class="svgtext" d="M38.06,293.27H36.89l-3.64,10.06L29.6,293.27H28.43l4.12,11.25H33.9Zm2.8.29a.86.86,0,0,1-.2.57.74.74,0,0,1-1.11,0,.9.9,0,0,1,0-1.13.66.66,0,0,1,.55-.24.67.67,0,0,1,.56.24A.85.85,0,0,1,40.86,293.56Zm-.2,11H39.55v-8.25l1.11-.23Zm7.58-2.25c0,1.49-1.26,2.48-3,2.48a4.92,4.92,0,0,1-2.7-.74l.3-1a4.34,4.34,0,0,0,2.43.75c1,0,1.86-.52,1.86-1.38a1,1,0,0,0-.13-.52,1.56,1.56,0,0,0-.29-.38,2.05,2.05,0,0,0-.5-.29c-.23-.11-.41-.18-.52-.22l-.63-.19c-1.44-.44-2.4-1.05-2.4-2.34,0-1.48,1.17-2.38,2.79-2.38a5.38,5.38,0,0,1,2.51.61l-.33,1a4.59,4.59,0,0,0-2.25-.61c-1,0-1.65.47-1.65,1.26a.86.86,0,0,0,.12.48,1.31,1.31,0,0,0,.76.65l.52.22.63.2c1.49.43,2.43,1,2.43,2.41Zm3.34-8.71a.91.91,0,0,1-.19.57.71.71,0,0,1-.56.25.69.69,0,0,1-.56-.25.9.9,0,0,1,0-1.13.68.68,0,0,1,.56-.24.7.7,0,0,1,.56.24A.9.9,0,0,1,51.58,293.56Zm-.19,11H50.27v-8.25l1.12-.23Zm6.73-.16a4.45,4.45,0,0,1-1.84.43c-1.53,0-2.27-.87-2.21-2.59l.12-4.88-1.26-.07.06-.71,1.24-.28.05-1.88h1.06l-.05,1.93H58l0,1H55.25l-.12,4.93c0,1,.36,1.55,1.2,1.55a4,4,0,0,0,1.59-.4Zm6.77-2.09c0,1.49-1.26,2.48-3,2.48a5,5,0,0,1-2.7-.74l.31-1a4.34,4.34,0,0,0,2.43.75c1,0,1.85-.52,1.85-1.38a1,1,0,0,0-.12-.52,1.56,1.56,0,0,0-.29-.38,2.05,2.05,0,0,0-.5-.29c-.24-.11-.42-.18-.53-.22l-.63-.19c-1.44-.44-2.39-1.05-2.39-2.34,0-1.48,1.17-2.38,2.79-2.38a5.34,5.34,0,0,1,2.5.61l-.32,1a4.62,4.62,0,0,0-2.25-.61c-1,0-1.66.47-1.66,1.26a.86.86,0,0,0,.13.48,1.4,1.4,0,0,0,.27.36,1.43,1.43,0,0,0,.48.29l.53.22c.12,0,.34.11.63.2,1.49.43,2.43,1,2.43,2.41Zm10.21,2.09a4.41,4.41,0,0,1-1.84.43c-1.53,0-2.27-.87-2.21-2.59l.12-4.88-1.26-.07.06-.71,1.24-.28.05-1.88h1.07l-.06,1.93H75l-.06,1H72.24l-.13,4.93c0,1,.36,1.55,1.21,1.55a4,4,0,0,0,1.58-.4Zm8.37.16H82.35v-5.33c0-1.39-.59-2.09-1.76-2.09A3.62,3.62,0,0,0,78,298.27v6.25H76.92V292.39l1.11-.24v5.2A4,4,0,0,1,80.9,296c1.62,0,2.57,1,2.57,2.83Zm3.13-4.09v.09c.05,1.89,1.17,3.19,2.88,3.19a4.32,4.32,0,0,0,2.39-.69l.22,1a4.92,4.92,0,0,1-2.65.7,3.94,3.94,0,0,1-4-4.28,4.61,4.61,0,0,1,1.12-3.19A3.55,3.55,0,0,1,89.35,296a2.83,2.83,0,0,1,3,3,4.53,4.53,0,0,1-.18,1.32Zm.07-.88,4.57,0a1.49,1.49,0,0,0,0-.36,1.88,1.88,0,0,0-2-2.12A2.66,2.66,0,0,0,86.67,299.55Zm14.35,5,2.25-6.66,2.25,6.66h1l2.45-8.28h-1.22L106,302.88l-2.25-6.59h-1l-2.14,6.55-1.91-6.57H97.53l2.52,8.28Zm10-4.12v.09c0,1.89,1.17,3.19,2.88,3.19a4.32,4.32,0,0,0,2.39-.69l.22,1a4.92,4.92,0,0,1-2.65.7c-2.35,0-4-1.74-4-4.28a4.61,4.61,0,0,1,1.11-3.19,3.55,3.55,0,0,1,2.77-1.24,2.83,2.83,0,0,1,3,3,4.22,4.22,0,0,1-.18,1.32Zm.07-.88,4.57,0a1.49,1.49,0,0,0,0-.36,1.88,1.88,0,0,0-2-2.12A2.66,2.66,0,0,0,111.05,299.55Zm15,.74a4.63,4.63,0,0,1-1.13,3.2,3.79,3.79,0,0,1-2.94,1.26,4.54,4.54,0,0,1-2-.45l-1.12.49v-12.4l1.12-.24v5a3.5,3.5,0,0,1,2.48-1.05c2.18,0,3.6,1.71,3.6,4.2Zm-1.15,0c0-1.91-1-3.22-2.67-3.22A3.25,3.25,0,0,0,120,298v5.06a3.26,3.26,0,0,0,2.07.64C123.79,303.74,124.89,302.38,124.89,300.34Zm8.09,1.93c0,1.49-1.26,2.48-2.95,2.48a5,5,0,0,1-2.7-.74l.31-1a4.3,4.3,0,0,0,2.43.75c1,0,1.85-.52,1.85-1.38a1,1,0,0,0-.12-.52,1.56,1.56,0,0,0-.29-.38,2,2,0,0,0-.51-.29c-.23-.11-.41-.18-.52-.22l-.63-.19c-1.44-.44-2.39-1.05-2.39-2.34,0-1.48,1.17-2.38,2.79-2.38a5.34,5.34,0,0,1,2.5.61l-.32,1a4.62,4.62,0,0,0-2.25-.61c-1,0-1.66.47-1.66,1.26a.86.86,0,0,0,.13.48,1.4,1.4,0,0,0,.27.36,1.43,1.43,0,0,0,.48.29l.52.22.63.2c1.5.43,2.43,1,2.43,2.41Zm3.35-8.71a.92.92,0,0,1-.2.57.75.75,0,0,1-1.12,0,.94.94,0,0,1,0-1.13.77.77,0,0,1,1.12,0A.91.91,0,0,1,136.33,293.56Zm-.2,11H135v-8.25l1.12-.23Zm6.73-.16a4.38,4.38,0,0,1-1.84.43c-1.53,0-2.26-.87-2.21-2.59l.13-4.88-1.26-.07,0-.71,1.24-.28.06-1.88h1.06l-.05,1.93h2.75l0,1H140l-.13,4.93c0,1,.36,1.55,1.21,1.55a4,4,0,0,0,1.58-.4Zm2.33-3.93v.09c.05,1.89,1.17,3.19,2.88,3.19a4.32,4.32,0,0,0,2.39-.69l.22,1a4.92,4.92,0,0,1-2.65.7,3.94,3.94,0,0,1-4-4.28,4.61,4.61,0,0,1,1.12-3.19,3.55,3.55,0,0,1,2.77-1.24,2.83,2.83,0,0,1,3,3,4.53,4.53,0,0,1-.18,1.32Zm.07-.88,4.57,0a1.49,1.49,0,0,0,0-.36,1.88,1.88,0,0,0-2-2.12,2.66,2.66,0,0,0-2.61,2.5Z"/>
      <rect class="clsm-5" x="498" y="656.52" width="178" height="50" rx="9"/>
      <path class="svgtext" d="M577.83,682.76a2.66,2.66,0,0,1,2.52,2.63c0,1.92-1.3,3.13-4.05,3.13h-3.65V677.27h3.51c2.61,0,3.83,1.11,3.83,2.93a2.6,2.6,0,0,1-2.16,2.56Zm1-2.47c0-1.26-.9-2-2.63-2H573.8v4.05H576C577.76,682.36,578.84,681.62,578.84,680.29Zm.36,5.1c0-1.32-1-2-3.1-2h-2.3v4.06h2.59c1.87,0,2.81-.7,2.81-2.08Zm4.32,3.13V676.15l-1.12.24v12.13Zm10.08-4.14a4.35,4.35,0,0,1-1.16,3.15,3.81,3.81,0,0,1-2.89,1.22,3.73,3.73,0,0,1-2.87-1.19,4.45,4.45,0,0,1-1.11-3.15,4.38,4.38,0,0,1,1.17-3.16,3.82,3.82,0,0,1,2.9-1.21,3.74,3.74,0,0,1,2.86,1.19A4.4,4.4,0,0,1,593.6,684.38Zm-1.1,0c0-2-1.15-3.36-2.92-3.36s-2.9,1.35-2.9,3.33,1.16,3.36,2.92,3.36S592.5,686.39,592.5,684.41Zm3.8-1.26a2,2,0,0,0,2.12,2.11,1.93,1.93,0,0,0,1.5-.61,2.16,2.16,0,0,0,.56-1.55,2.23,2.23,0,0,0-.54-1.55,2.09,2.09,0,0,0-1.57-.59,2,2,0,0,0-2.07,2.19Zm1,5.6c-1,.27-1.67.92-1.67,1.62,0,1,1.1,1.69,2.81,1.69s3.09-.82,3.09-1.94c0-.94-.79-1.31-2.5-1.31-.68,0-1.26,0-1.73-.06Zm-1-.21c-.74-.27-1.12-.71-1.12-1.32a1.8,1.8,0,0,1,1.35-1.56,2.76,2.76,0,0,1-1.33-2.52,3,3,0,0,1,3.24-3.1,3.87,3.87,0,0,1,1.95.49l2.28-.18.06,1.11-1.82-.18a2.89,2.89,0,0,1,.66,1.86,3,3,0,0,1-3.2,3,3.58,3.58,0,0,1-1.22-.23c-.62.25-.92.57-.92,1s.47.84,1.87.84h1.06c2.29,0,3.42.72,3.42,2.16a2.6,2.6,0,0,1-1.28,2.2,5.35,5.35,0,0,1-3.06.86c-2.21,0-3.72-1-3.72-2.41a2.19,2.19,0,0,1,1.78-2Z"/>
      <rect class="clsm-5" x="498" y="728.52" width="178" height="50" rx="9"/>
      <path class="svgtext" d="M535.61,760.52h1.17l-.36-11.25h-1.53l-3.74,9.93-3.8-9.93H525.8l-.38,11.25h1.14l.2-9.85,3.72,9.78h1.26l3.69-9.76Zm7.94-1.82v-2.41c-2.78.3-3.84.92-3.84,2.05a1.51,1.51,0,0,0,1.69,1.44,2.81,2.81,0,0,0,2.15-1.08Zm.07.83h-.06a3,3,0,0,1-2.41,1.22,2.38,2.38,0,0,1-2.61-2.28c0-1.77,1.68-2.74,5-2.94v-.48a1.73,1.73,0,0,0-1.95-2,5.11,5.11,0,0,0-2.7,1l-.25-1a5.77,5.77,0,0,1,3.06-1c2,0,3,1,2.95,3v4c0,.65.15.85.83.83l-.07.92c-1.06.07-1.68-.33-1.8-1.17Zm4.65-4.3v5.29h-1.12v-8.25l1.12-.23v1.76A2.7,2.7,0,0,1,550.7,752a2.9,2.9,0,0,1,1.44.38l-.29,1a2.45,2.45,0,0,0-1.26-.36c-.92,0-1.69.7-2.32,2.13Zm11.78,9.48h-1.11v-5a3.43,3.43,0,0,1-2.4,1c-2.21,0-3.69-1.74-3.69-4.28a4.39,4.39,0,0,1,1.16-3.15,3.87,3.87,0,0,1,2.93-1.23,5.33,5.33,0,0,1,2.18.47l.93-.52Zm-1.11-11a3.26,3.26,0,0,0-2.05-.65c-1.77,0-2.88,1.39-2.88,3.37s1.08,3.29,2.73,3.29a3.11,3.11,0,0,0,2.2-.93v-5.08Zm3.63-1.46h1.11v5.33c0,1.39.6,2.09,1.79,2.09a3.48,3.48,0,0,0,2.53-1.17v-6.25h1.12v8.25l-1.12.23v-1.33a3.93,3.93,0,0,1-2.84,1.33c-1.62,0-2.59-1-2.59-2.82Zm9.73,4.16v.09c.06,1.89,1.17,3.19,2.88,3.19a4.35,4.35,0,0,0,2.4-.69l.21,1a4.86,4.86,0,0,1-2.64.7,3.94,3.94,0,0,1-4-4.28,4.61,4.61,0,0,1,1.12-3.19,3.52,3.52,0,0,1,2.77-1.24,2.82,2.82,0,0,1,3,3,4.22,4.22,0,0,1-.18,1.32Zm.08-.88,4.57,0a1.49,1.49,0,0,0,0-.36,1.89,1.89,0,0,0-2-2.12,2.66,2.66,0,0,0-2.61,2.5Zm8.38.88v.09c0,1.89,1.17,3.19,2.88,3.19A4.32,4.32,0,0,0,586,759l.22,1a4.92,4.92,0,0,1-2.65.7c-2.35,0-4-1.74-4-4.28a4.61,4.61,0,0,1,1.11-3.19,3.55,3.55,0,0,1,2.77-1.24,2.83,2.83,0,0,1,3,3,4.22,4.22,0,0,1-.18,1.32Zm.07-.88,4.57,0a1.49,1.49,0,0,0,0-.36,1.88,1.88,0,0,0-2-2.12,2.66,2.66,0,0,0-2.61,2.5Zm19.25-2.77c0,2.43-1.68,3.71-4.54,3.76l-1.53,0v4h-1.15V749.27h2.83c2.89,0,4.39,1.37,4.39,3.51Zm-1.19.05c0-1.62-1.13-2.5-3.24-2.5H594v5.17l1.6,0C597.79,755.42,598.89,754.54,598.89,752.83Zm4.28,2.4v5.29h-1.12v-8.25l1.12-.23v1.76A2.7,2.7,0,0,1,605.6,752a2.9,2.9,0,0,1,1.44.38l-.29,1a2.48,2.48,0,0,0-1.26-.36c-.92,0-1.69.7-2.32,2.13Zm12.61,1.15a4.38,4.38,0,0,1-1.15,3.15,3.84,3.84,0,0,1-2.9,1.22,3.69,3.69,0,0,1-2.86-1.19,4.92,4.92,0,0,1,0-6.31,3.82,3.82,0,0,1,2.9-1.21,3.74,3.74,0,0,1,2.86,1.19A4.4,4.4,0,0,1,615.78,756.38Zm-1.1,0c0-2-1.15-3.36-2.92-3.36s-2.89,1.35-2.89,3.33,1.15,3.36,2.91,3.36S614.68,758.39,614.68,756.41Zm4.51-6.85a.92.92,0,0,1-.2.57.75.75,0,0,1-1.12,0,.9.9,0,0,1,0-1.13.77.77,0,0,1,1.12,0A.91.91,0,0,1,619.19,749.56ZM617,765l-.75-.79c1.2-.63,1.58-1.37,1.58-3.14v-8.82L619,752v9.05c0,2.13-.52,3.15-2,3.93Zm5.13-8.59v.09c.06,1.89,1.17,3.19,2.88,3.19a4.35,4.35,0,0,0,2.4-.69l.21,1a4.86,4.86,0,0,1-2.64.7,3.94,3.94,0,0,1-4-4.28,4.61,4.61,0,0,1,1.12-3.19,3.52,3.52,0,0,1,2.77-1.24,2.82,2.82,0,0,1,3,3,4.22,4.22,0,0,1-.18,1.32Zm.08-.88,4.57,0a1.49,1.49,0,0,0,0-.36,1.89,1.89,0,0,0-2-2.12,2.65,2.65,0,0,0-2.61,2.5Zm13.83,4.5a4.7,4.7,0,0,1-2.55.7c-2.47,0-4-1.73-4-4.34a4.38,4.38,0,0,1,1.16-3.15,3.78,3.78,0,0,1,2.89-1.22,4.68,4.68,0,0,1,2.58.7l-.29,1a4,4,0,0,0-2.29-.67c-1.78,0-2.89,1.32-2.89,3.3s1.15,3.33,2.91,3.33a4.16,4.16,0,0,0,2.29-.69Zm6.18.31a4.38,4.38,0,0,1-1.84.43c-1.53,0-2.26-.87-2.21-2.59l.13-4.88-1.26-.07,0-.71,1.24-.28.06-1.88h1.06l-.06,1.93h2.76l-.06,1H639.4l-.13,4.93c0,1,.36,1.55,1.21,1.55a4,4,0,0,0,1.58-.4Zm6.77-2.09c0,1.49-1.26,2.48-2.95,2.48a4.92,4.92,0,0,1-2.7-.74l.3-1a4.34,4.34,0,0,0,2.43.75c1,0,1.86-.52,1.86-1.38a1,1,0,0,0-.13-.52,1.56,1.56,0,0,0-.29-.38,2.05,2.05,0,0,0-.5-.29c-.23-.11-.41-.18-.52-.22l-.63-.19c-1.44-.44-2.4-1-2.4-2.34,0-1.48,1.17-2.38,2.79-2.38a5.38,5.38,0,0,1,2.51.61l-.33,1a4.59,4.59,0,0,0-2.25-.61c-1,0-1.65.47-1.65,1.26a.86.86,0,0,0,.12.48,1.31,1.31,0,0,0,.76.65l.52.22.63.2c1.49.43,2.43,1,2.43,2.41Z"/>
      <rect class="clsm-5" x="693" y="728.52" width="178" height="50" rx="9"/>
      <path class="svgtext" d="M736.42,757.06c0,2.32-1.1,3.69-3.38,3.69a4.58,4.58,0,0,1-2.5-.7l.19-1.12a4.36,4.36,0,0,0,2.33.78c1.49,0,2.23-.9,2.23-2.68v-7.76h1.13Zm10.1-.68a4.38,4.38,0,0,1-1.15,3.15,3.83,3.83,0,0,1-2.9,1.22,3.71,3.71,0,0,1-2.86-1.19,4.92,4.92,0,0,1,0-6.31,3.83,3.83,0,0,1,2.9-1.21,3.73,3.73,0,0,1,2.86,1.19A4.4,4.4,0,0,1,746.52,756.38Zm-1.1,0c0-2-1.15-3.36-2.91-3.36s-2.9,1.35-2.9,3.33,1.15,3.36,2.92,3.36S745.42,758.39,745.42,756.41Zm4.51-6.85a.86.86,0,0,1-.2.57.69.69,0,0,1-.56.25.71.71,0,0,1-.56-.25.94.94,0,0,1,0-1.13.7.7,0,0,1,.56-.24.68.68,0,0,1,.56.24A.85.85,0,0,1,749.93,749.56Zm-.2,11h-1.12v-8.25l1.12-.23Zm9.18,0h-1.12v-5.33c0-1.44-.55-2.09-1.81-2.09a3.56,3.56,0,0,0-2.51,1.17v6.25h-1.11v-8.25l1.11-.23v1.35a4,4,0,0,1,2.81-1.35c1.66,0,2.63,1,2.63,2.83Zm6.64-.16a4.38,4.38,0,0,1-1.84.43c-1.53,0-2.26-.87-2.21-2.59l.13-4.88-1.26-.07,0-.71,1.24-.28.06-1.88h1.06l-.06,1.93h2.76l-.06,1h-2.73l-.13,4.93c0,1,.36,1.55,1.21,1.55a4,4,0,0,0,1.58-.4ZM780,749.27h-1.17l-3.64,10.06-3.65-10.06h-1.17l4.12,11.25h1.35Zm1.43,7.16v.09c.05,1.89,1.17,3.19,2.88,3.19a4.32,4.32,0,0,0,2.39-.69l.22,1a4.92,4.92,0,0,1-2.65.7c-2.35,0-4-1.74-4-4.28a4.61,4.61,0,0,1,1.11-3.19,3.55,3.55,0,0,1,2.77-1.24,2.83,2.83,0,0,1,3,3,4.22,4.22,0,0,1-.18,1.32Zm.07-.88,4.57,0a1.49,1.49,0,0,0,0-.36,1.88,1.88,0,0,0-2-2.12,2.66,2.66,0,0,0-2.61,2.5Zm14.34,5h-1.11v-5.33c0-1.44-.56-2.09-1.82-2.09a3.54,3.54,0,0,0-2.5,1.17v6.25h-1.12v-8.25l1.12-.23v1.35A4,4,0,0,1,793.2,752c1.65,0,2.62,1,2.62,2.83Zm6.64-.16a4.37,4.37,0,0,1-1.83.43c-1.53,0-2.27-.87-2.22-2.59l.13-4.88-1.26-.07.05-.71,1.25-.28,0-1.88h1.06l-.05,1.93h2.75l0,1H799.6l-.12,4.93c0,1,.36,1.55,1.2,1.55a4.06,4.06,0,0,0,1.59-.4Zm1.75-8.09h1.12v5.33c0,1.39.59,2.09,1.78,2.09a3.5,3.5,0,0,0,2.54-1.17v-6.25h1.11v8.25l-1.11.23v-1.33a4,4,0,0,1-2.85,1.33c-1.62,0-2.59-1-2.59-2.82Zm10.26,3v5.29h-1.12v-8.25l1.12-.23v1.76A2.7,2.7,0,0,1,816.9,752a2.9,2.9,0,0,1,1.44.38l-.29,1a2.45,2.45,0,0,0-1.26-.36c-.92,0-1.69.7-2.32,2.13Zm5.72,1.2v.09c0,1.89,1.17,3.19,2.88,3.19a4.32,4.32,0,0,0,2.39-.69l.22,1a4.92,4.92,0,0,1-2.65.7,3.94,3.94,0,0,1-4-4.28,4.61,4.61,0,0,1,1.12-3.19,3.55,3.55,0,0,1,2.77-1.24,2.83,2.83,0,0,1,3,3,4.53,4.53,0,0,1-.18,1.32Zm.07-.88,4.57,0a1.49,1.49,0,0,0,0-.36,1.88,1.88,0,0,0-2-2.12,2.66,2.66,0,0,0-2.61,2.5ZM833,758.27c0,1.49-1.26,2.48-3,2.48a4.92,4.92,0,0,1-2.7-.74l.3-1a4.34,4.34,0,0,0,2.43.75c1,0,1.86-.52,1.86-1.38a1,1,0,0,0-.13-.52,1.56,1.56,0,0,0-.29-.38,2.05,2.05,0,0,0-.5-.29c-.23-.11-.41-.18-.52-.22l-.63-.19c-1.44-.44-2.4-1-2.4-2.34,0-1.48,1.17-2.38,2.79-2.38a5.38,5.38,0,0,1,2.51.61l-.33,1a4.59,4.59,0,0,0-2.25-.61c-1,0-1.65.47-1.65,1.26a.86.86,0,0,0,.12.48,1.31,1.31,0,0,0,.76.65l.52.22.63.2c1.49.43,2.43,1,2.43,2.41Z"/>
      <rect class="clsm-5" x="693" y="872.52" width="178" height="50" rx="9"/>
      <path class="svgtext" d="M747.36,894.35v-1.08h-9.07v1.08h4v10.17h1.15V894.35Zm.6,6.08v.09c0,1.89,1.17,3.19,2.88,3.19a4.32,4.32,0,0,0,2.39-.69l.22,1a4.92,4.92,0,0,1-2.65.7c-2.35,0-4-1.74-4-4.28a4.61,4.61,0,0,1,1.11-3.19,3.55,3.55,0,0,1,2.77-1.24,2.83,2.83,0,0,1,3,3,4.22,4.22,0,0,1-.18,1.32Zm.07-.88,4.57,0a1.49,1.49,0,0,0,0-.36,1.88,1.88,0,0,0-2-2.12,2.66,2.66,0,0,0-2.61,2.5Zm12.74,2.72c0,1.49-1.26,2.48-2.95,2.48a4.92,4.92,0,0,1-2.7-.74l.3-1a4.34,4.34,0,0,0,2.43.75c1,0,1.86-.52,1.86-1.38a1,1,0,0,0-.13-.52,1.35,1.35,0,0,0-.29-.38,2.05,2.05,0,0,0-.5-.29c-.23-.11-.41-.18-.52-.22l-.63-.19c-1.44-.44-2.4-1-2.4-2.34,0-1.48,1.17-2.38,2.79-2.38a5.38,5.38,0,0,1,2.51.61l-.33,1a4.56,4.56,0,0,0-2.25-.61c-1,0-1.65.47-1.65,1.26a.86.86,0,0,0,.12.48,1.4,1.4,0,0,0,.27.36,1.49,1.49,0,0,0,.49.29l.52.22.63.2c1.5.43,2.43,1,2.43,2.41Zm6.12,2.09a4.45,4.45,0,0,1-1.84.43c-1.53,0-2.27-.87-2.21-2.59l.12-4.88-1.26-.07.06-.71,1.24-.28,0-1.88h1.06l-.05,1.93h2.75l0,1H764l-.12,4.93c0,1,.36,1.55,1.2,1.55a4,4,0,0,0,1.59-.4Zm3.15-10.8a.86.86,0,0,1-.2.57.69.69,0,0,1-.56.25.71.71,0,0,1-.56-.25.94.94,0,0,1,0-1.13.7.7,0,0,1,.56-.24.68.68,0,0,1,.56.24A.85.85,0,0,1,770,893.56Zm-.2,11h-1.12v-8.25l1.12-.23Zm14,0h-1.12v-5.31c0-1.41-.57-2.11-1.74-2.11a3.42,3.42,0,0,0-2.32,1.06c0,.15,0,.4,0,.74v5.62h-1.11v-5.31c0-1.41-.58-2.11-1.75-2.11a3.45,3.45,0,0,0-2.29,1v6.46h-1.11v-8.25l1.11-.23v1.13a3.87,3.87,0,0,1,2.61-1.13,2.21,2.21,0,0,1,2.24,1.37,4.07,4.07,0,0,1,2.91-1.37c1.59,0,2.54,1,2.54,2.84Zm10-4.14a4.38,4.38,0,0,1-1.15,3.15,3.83,3.83,0,0,1-2.9,1.22,3.71,3.71,0,0,1-2.86-1.19,4.92,4.92,0,0,1,0-6.31A3.83,3.83,0,0,1,790,896a3.73,3.73,0,0,1,2.86,1.19A4.4,4.4,0,0,1,793.91,900.38Zm-1.1,0c0-2-1.15-3.36-2.91-3.36s-2.9,1.35-2.9,3.33,1.15,3.36,2.92,3.36S792.81,902.39,792.81,900.41Zm9.73,4.11h-1.12v-5.33c0-1.44-.56-2.09-1.82-2.09a3.56,3.56,0,0,0-2.5,1.17v6.25H796v-8.25l1.11-.23v1.35a4,4,0,0,1,2.81-1.35c1.66,0,2.63,1,2.63,2.83Zm3.87-11a.92.92,0,0,1-.2.57.75.75,0,0,1-1.12,0,.9.9,0,0,1,0-1.13.77.77,0,0,1,1.12,0A.91.91,0,0,1,806.41,893.56Zm-.2,11h-1.12v-8.25l1.12-.23Zm6.93-1.82v-2.41c-2.77.3-3.84.92-3.84,2.05a1.52,1.52,0,0,0,1.7,1.44,2.81,2.81,0,0,0,2.14-1.08Zm.07.83h-.05a3,3,0,0,1-2.42,1.22,2.38,2.38,0,0,1-2.61-2.28c0-1.77,1.68-2.74,5-2.94v-.48a1.73,1.73,0,0,0-1.94-2,5.11,5.11,0,0,0-2.71,1l-.25-1a5.77,5.77,0,0,1,3.06-1c2,0,3,1,3,3v4c0,.65.14.85.82.83l-.07.92c-1.06.07-1.67-.33-1.8-1.17Zm4.65,1V892.15l-1.11.24v12.13Zm7.55-2.25c0,1.49-1.26,2.48-3,2.48a5,5,0,0,1-2.7-.74l.31-1a4.34,4.34,0,0,0,2.43.75c1,0,1.85-.52,1.85-1.38a1,1,0,0,0-.12-.52,1.56,1.56,0,0,0-.29-.38,2.05,2.05,0,0,0-.5-.29c-.24-.11-.42-.18-.53-.22l-.63-.19c-1.44-.44-2.39-1-2.39-2.34,0-1.48,1.17-2.38,2.79-2.38a5.34,5.34,0,0,1,2.5.61l-.32,1a4.62,4.62,0,0,0-2.25-.61c-1,0-1.66.47-1.66,1.26a.86.86,0,0,0,.13.48,1.4,1.4,0,0,0,.27.36,1.43,1.43,0,0,0,.48.29l.53.22c.12.05.34.11.63.2,1.49.43,2.43,1,2.43,2.41Z"/>
      <rect class="clsm-5" x="693" y="656.52" width="178" height="50" rx="9"/>
      <path class="svgtext" d="M760.94,678.35v-1.08h-9.07v1.08h4v10.17H757V678.35Zm3-.79a.86.86,0,0,1-.2.57.74.74,0,0,1-1.11,0,.9.9,0,0,1,0-1.13.67.67,0,0,1,.56-.24.66.66,0,0,1,.55.24A.85.85,0,0,1,764,677.56Zm-.2,11h-1.11v-8.25l1.11-.23Zm14,0h-1.11v-5.31c0-1.41-.58-2.11-1.75-2.11a3.44,3.44,0,0,0-2.32,1.06,5.84,5.84,0,0,1,0,.74v5.62h-1.12v-5.31c0-1.41-.58-2.11-1.75-2.11a3.42,3.42,0,0,0-2.28,1v6.46h-1.12v-8.25l1.12-.23v1.13a3.85,3.85,0,0,1,2.61-1.13,2.2,2.2,0,0,1,2.23,1.37,4.09,4.09,0,0,1,2.92-1.37c1.58,0,2.53,1,2.53,2.84Zm3.14-4.09v.09c.06,1.89,1.17,3.19,2.88,3.19a4.38,4.38,0,0,0,2.4-.69l.21,1a4.89,4.89,0,0,1-2.64.7,3.94,3.94,0,0,1-4-4.28,4.66,4.66,0,0,1,1.11-3.19,3.55,3.55,0,0,1,2.78-1.24,2.82,2.82,0,0,1,3,3,4.22,4.22,0,0,1-.18,1.32Zm.07-.88,4.58,0a3,3,0,0,0,0-.36,1.88,1.88,0,0,0-2-2.12,2.65,2.65,0,0,0-2.61,2.5Zm8.91,5V676.15l-1.12.24v12.13Zm3.92-11a.91.91,0,0,1-.19.57.75.75,0,0,1-1.12,0,.9.9,0,0,1,0-1.13.77.77,0,0,1,1.12,0A.9.9,0,0,1,793.86,677.56Zm-.19,11h-1.12v-8.25l1.12-.23Zm9.18,0h-1.12v-5.33c0-1.44-.56-2.09-1.82-2.09a3.54,3.54,0,0,0-2.5,1.17v6.25h-1.12v-8.25l1.12-.23v1.35a4,4,0,0,1,2.81-1.35c1.65,0,2.63,1,2.63,2.83Zm3.13-4.09v.09c0,1.89,1.17,3.19,2.88,3.19a4.32,4.32,0,0,0,2.39-.69l.22,1a4.92,4.92,0,0,1-2.65.7,3.94,3.94,0,0,1-4-4.28,4.61,4.61,0,0,1,1.12-3.19,3.53,3.53,0,0,1,2.77-1.24,2.83,2.83,0,0,1,3,3,4.53,4.53,0,0,1-.18,1.32Zm.07-.88,4.57,0a1.49,1.49,0,0,0,0-.36,1.88,1.88,0,0,0-2-2.12,2.66,2.66,0,0,0-2.61,2.5Z"/>
      <rect class="clsm-5" x="693" y="800.52" width="178" height="50" rx="9"/>
      <path class="svgtext" d="M739.56,828v4.5h-1.15V821.27h3c2.72,0,4.09,1.2,4.09,3.24a3.28,3.28,0,0,1-2.61,3.17l3.11,4.84h-1.33l-2.88-4.65Zm0-1,2-.07c1.59,0,2.79-.94,2.79-2.36s-1.08-2.25-3.06-2.25h-1.74Zm15.54,1.39a4.38,4.38,0,0,1-1.15,3.15,3.84,3.84,0,0,1-2.9,1.22,3.71,3.71,0,0,1-2.86-1.19,4.92,4.92,0,0,1,0-6.31,3.83,3.83,0,0,1,2.9-1.21,3.74,3.74,0,0,1,2.86,1.19A4.4,4.4,0,0,1,755.1,828.38Zm-1.1,0c0-2-1.15-3.36-2.91-3.36s-2.9,1.35-2.9,3.33,1.15,3.36,2.91,3.36S754,830.39,754,828.41Zm7.41-8.06-.06.25c-.05.18-.09.34-.14.51l-.07.25a2.91,2.91,0,0,0-1.26-.34c-.92,0-1.37.64-1.37,1.92v1.37h2.59l-.06,1h-2.53v7.22h-1.1v-7.18l-1.33-.09.07-.71,1.24-.28,0-1.3c0-2,.86-3,2.48-3A3.67,3.67,0,0,1,761.41,820.35Zm5.53,0-.05.25c-.06.18-.09.34-.15.51l-.07.25a2.84,2.84,0,0,0-1.26-.34c-.92,0-1.37.64-1.37,1.92v1.37h2.6l-.06,1H764v7.22H763v-7.18l-1.34-.09.08-.71,1.24-.28,0-1.3c0-2,.86-3,2.48-3A3.63,3.63,0,0,1,766.94,820.35Zm6.56,1.21a.86.86,0,0,1-.2.57.74.74,0,0,1-1.11,0,.9.9,0,0,1,0-1.13.67.67,0,0,1,.56-.24.66.66,0,0,1,.55.24A.85.85,0,0,1,773.5,821.56Zm-.2,11h-1.11v-8.25l1.11-.23Zm9.18,0h-1.11v-5.33c0-1.44-.56-2.09-1.82-2.09a3.54,3.54,0,0,0-2.5,1.17v6.25h-1.12v-8.25l1.12-.23v1.35a4,4,0,0,1,2.8-1.35c1.66,0,2.63,1,2.63,2.82Zm14.46-1.6-6.39-9.65h-1.29v11.25h1.11v-9.63l6.45,9.74h1.24V821.27h-1.12Zm4.48-2.49v.09c.05,1.89,1.17,3.19,2.88,3.19a4.32,4.32,0,0,0,2.39-.69l.22,1a4.92,4.92,0,0,1-2.65.7,3.94,3.94,0,0,1-4-4.28,4.61,4.61,0,0,1,1.12-3.19,3.53,3.53,0,0,1,2.77-1.24,2.82,2.82,0,0,1,3,3,4.22,4.22,0,0,1-.18,1.32Zm.07-.88,4.57,0a1.49,1.49,0,0,0,0-.36,1.88,1.88,0,0,0-2-2.12,2.66,2.66,0,0,0-2.61,2.5Zm10.43,5,2.25-6.66,2.25,6.66h1l2.45-8.28h-1.23l-1.71,6.61-2.25-6.59h-1l-2.14,6.55-1.91-6.57h-1.18l2.52,8.28Zm14.4-2.28c0,1.49-1.26,2.48-3,2.48a4.92,4.92,0,0,1-2.7-.74l.3-1a4.34,4.34,0,0,0,2.43.75c1.05,0,1.86-.52,1.86-1.38a1,1,0,0,0-.13-.52,1.56,1.56,0,0,0-.29-.38,2.05,2.05,0,0,0-.5-.29c-.23-.11-.41-.18-.52-.22l-.63-.19c-1.44-.44-2.4-1-2.4-2.34,0-1.48,1.17-2.38,2.79-2.38a5.38,5.38,0,0,1,2.51.61l-.33,1a4.59,4.59,0,0,0-2.25-.61c-1,0-1.65.47-1.65,1.26a.86.86,0,0,0,.12.48,1.31,1.31,0,0,0,.76.65l.52.22.63.2c1.49.43,2.43,1,2.43,2.41Z"/>
      <rect class="clsm-5" x="1" y="203.52" width="178" height="50" rx="9"/>
      <path class="svgtext" d="M34.7,235.52v-1.08H29.13V224.27H28v11.25Zm2.15-4.09v.09c.06,1.89,1.17,3.19,2.88,3.19a4.38,4.38,0,0,0,2.4-.69l.21,1a4.89,4.89,0,0,1-2.64.7,3.94,3.94,0,0,1-4-4.28,4.66,4.66,0,0,1,1.11-3.19A3.55,3.55,0,0,1,39.61,227a2.82,2.82,0,0,1,3,3,4.22,4.22,0,0,1-.18,1.32Zm.07-.88,4.58,0a3,3,0,0,0,0-.36,1.88,1.88,0,0,0-2-2.12A2.66,2.66,0,0,0,36.92,230.55ZM49,233.7v-2.41c-2.78.3-3.84.92-3.84,2.05a1.51,1.51,0,0,0,1.69,1.44A2.81,2.81,0,0,0,49,233.7Zm.07.83H49a3,3,0,0,1-2.41,1.22A2.38,2.38,0,0,1,44,233.47c0-1.77,1.68-2.74,5-2.94v-.48a1.73,1.73,0,0,0-2-2,5.11,5.11,0,0,0-2.7,1l-.25-1a5.77,5.77,0,0,1,3.06-1c2,0,3,1,3,3v4c0,.65.15.85.83.83l-.07.92C49.83,235.77,49.21,235.37,49.09,234.53Zm4.65-4.3v5.29H52.62v-8.25l1.12-.23v1.76A2.7,2.7,0,0,1,56.17,227a2.9,2.9,0,0,1,1.44.38l-.29,1a2.45,2.45,0,0,0-1.26-.36C55.14,228.1,54.37,228.8,53.74,230.23Zm11.85,5.29H64.48v-5.33c0-1.44-.56-2.09-1.82-2.09a3.54,3.54,0,0,0-2.5,1.17v6.25H59v-8.25l1.12-.23v1.35A4,4,0,0,1,63,227c1.66,0,2.63,1,2.63,2.83Zm7.49-2.25c0,1.49-1.26,2.48-3,2.48a4.92,4.92,0,0,1-2.7-.74l.3-1a4.34,4.34,0,0,0,2.43.75c1,0,1.86-.52,1.86-1.38a1,1,0,0,0-.13-.52,1.56,1.56,0,0,0-.29-.38,2.05,2.05,0,0,0-.5-.29l-.52-.22-.63-.19c-1.44-.44-2.4-1-2.4-2.34,0-1.48,1.17-2.38,2.79-2.38a5.34,5.34,0,0,1,2.5.61l-.32,1a4.59,4.59,0,0,0-2.25-.61c-1,0-1.66.47-1.66,1.26a.86.86,0,0,0,.13.48,1.31,1.31,0,0,0,.76.65l.52.22c.12.05.34.11.63.2C72.14,231.29,73.08,231.9,73.08,233.27Zm10.41.43v-2.41c-2.78.3-3.84.92-3.84,2.05a1.51,1.51,0,0,0,1.69,1.44A2.81,2.81,0,0,0,83.49,233.7Zm.07.83H83.5a3,3,0,0,1-2.41,1.22,2.38,2.38,0,0,1-2.61-2.28c0-1.77,1.68-2.74,5-2.94v-.48a1.73,1.73,0,0,0-1.95-2,5.11,5.11,0,0,0-2.7,1l-.25-1a5.77,5.77,0,0,1,3.06-1c2,0,3,1,2.95,3v4c0,.65.15.85.83.83l-.07.92C84.3,235.77,83.68,235.37,83.56,234.53Zm10.73-3.24a4.59,4.59,0,0,1-1.13,3.2,3.77,3.77,0,0,1-2.93,1.26,4.58,4.58,0,0,1-2-.45l-1.12.49v-12.4l1.12-.24v5a3.53,3.53,0,0,1,2.48-1C92.87,227.09,94.29,228.8,94.29,231.29Zm-1.15.05c0-1.91-1-3.22-2.66-3.22a3.28,3.28,0,0,0-2.27.92v5.06a3.28,3.28,0,0,0,2.07.64C92,234.74,93.14,233.38,93.14,231.34Zm10.64,0a4.35,4.35,0,0,1-1.16,3.15,3.81,3.81,0,0,1-2.89,1.22,3.73,3.73,0,0,1-2.87-1.19,4.45,4.45,0,0,1-1.11-3.15,4.38,4.38,0,0,1,1.17-3.16,3.82,3.82,0,0,1,2.9-1.21,3.74,3.74,0,0,1,2.86,1.19A4.4,4.4,0,0,1,103.78,231.38Zm-1.1,0c0-2-1.15-3.36-2.92-3.36s-2.9,1.35-2.9,3.33,1.16,3.36,2.92,3.36S102.68,233.39,102.68,231.41Zm3.1-4.14h1.11v5.33c0,1.39.6,2.09,1.79,2.09a3.48,3.48,0,0,0,2.53-1.17v-6.25h1.12v8.25l-1.12.23v-1.33a3.93,3.93,0,0,1-2.84,1.33c-1.62,0-2.59-1-2.59-2.82ZM119,235.36a4.37,4.37,0,0,1-1.83.43c-1.53,0-2.27-.87-2.22-2.59l.13-4.88-1.26-.07,0-.71,1.25-.28,0-1.88h1.06l0,1.93H119l0,1h-2.74l-.12,4.93c0,1,.36,1.55,1.2,1.55a4.06,4.06,0,0,0,1.59-.4Zm7.22-4.34v4.5h-1.16V224.27h3c2.72,0,4.08,1.2,4.08,3.24a3.27,3.27,0,0,1-2.61,3.17l3.12,4.84h-1.33l-2.88-4.65Zm0-1,2-.07c1.59,0,2.79-.94,2.79-2.36s-1.08-2.25-3.06-2.25h-1.74Zm15.54,1.39a4.38,4.38,0,0,1-1.15,3.15,3.84,3.84,0,0,1-2.9,1.22,3.71,3.71,0,0,1-2.86-1.19,4.92,4.92,0,0,1,0-6.31,3.83,3.83,0,0,1,2.9-1.21,3.74,3.74,0,0,1,2.86,1.19,4.4,4.4,0,0,1,1.1,3.15Zm-1.1,0c0-2-1.15-3.36-2.91-3.36s-2.9,1.35-2.9,3.33,1.15,3.36,2.91,3.36S140.68,233.39,140.68,231.41Zm7.4-8.06-.05.25c-.05.18-.09.34-.14.51l-.08.25a2.84,2.84,0,0,0-1.26-.34c-.91,0-1.36.64-1.36,1.92v1.37h2.59l-.06,1h-2.53v7.22h-1.1v-7.18l-1.33-.09.07-.71,1.24-.28,0-1.3c0-2,.86-3,2.48-3A3.59,3.59,0,0,1,148.08,223.35Zm5.54,0-.05.25c-.06.18-.09.34-.15.51l-.07.25a2.84,2.84,0,0,0-1.26-.34c-.92,0-1.37.64-1.37,1.92v1.37h2.6l-.06,1h-2.54v7.22h-1.09v-7.18l-1.34-.09.08-.71,1.24-.28,0-1.3c0-2,.86-3,2.48-3A3.63,3.63,0,0,1,153.62,223.35Z"/>
      <rect class="clsm-4" x="497" y="587.52" width="180" height="52" rx="10"/>
      <path d="M550.14,616.85v3.67h-2.87V609.27h4.52c2.94,0,4.56,1.35,4.56,3.56a3.25,3.25,0,0,1-2.31,3.24l2.88,4.45H553.7l-2.25-3.78Zm-.06-2.13,1.44,0q1.89-.13,1.89-1.68c0-1-.7-1.47-2.12-1.47h-1.21ZM560.19,617v0c.09,1.13.86,1.76,2.21,1.76a5.48,5.48,0,0,0,2.74-.81l.27,2.15a7.15,7.15,0,0,1-3.26.68c-2.89,0-4.68-1.6-4.68-4.37a4.29,4.29,0,0,1,4.54-4.52c2.34,0,3.67,1.37,3.67,3.51a4.76,4.76,0,0,1-.18,1.47Zm0-1.38,2.9,0v-.16c0-1.06-.44-1.6-1.28-1.6a1.73,1.73,0,0,0-1.62,1.78Zm10.67-.29a5.88,5.88,0,0,1,2.37,1A2.16,2.16,0,0,1,574,618a2.42,2.42,0,0,1-1,2,4.47,4.47,0,0,1-2.79.79,8.6,8.6,0,0,1-3.55-.74l.54-2a6.7,6.7,0,0,0,3.06.79c.76,0,1.13-.23,1.13-.68s-.37-.63-1.42-.86c-2.1-.42-3.18-1.17-3.18-2.74s1.4-2.68,3.69-2.68a8.74,8.74,0,0,1,3.4.72l-.56,2a6.56,6.56,0,0,0-2.88-.76c-.68,0-1,.22-1,.63s.44.61,1.44.83Zm8.74-3.4a4.39,4.39,0,0,1,3.19,1.19,4.78,4.78,0,0,1-.06,6.49,4.55,4.55,0,0,1-3.24,1.23,4.43,4.43,0,0,1-3.18-1.19,4.14,4.14,0,0,1-1.26-3.24,4.27,4.27,0,0,1,1.29-3.28A4.58,4.58,0,0,1,579.62,611.88Zm1.68,4.44a2.89,2.89,0,0,0-.45-1.71,1.54,1.54,0,0,0-1.3-.63,1.51,1.51,0,0,0-1.28.63,2.91,2.91,0,0,0-.45,1.73,2.8,2.8,0,0,0,.45,1.69,1.52,1.52,0,0,0,1.3.63,1.49,1.49,0,0,0,1.29-.63A2.9,2.9,0,0,0,581.3,616.32Zm4.22-4.17h2.77v5c0,.9.38,1.35,1.15,1.35a2,2,0,0,0,1.42-.56v-5.74h2.78v8.24l-2.78.34v-1.24a3.57,3.57,0,0,1-2.71,1.3c-1.64,0-2.63-1.1-2.63-2.88Zm12.86,3.49v4.88h-2.77v-8.23l2.77-.34v1.22a2.25,2.25,0,0,1,2-1.29,3,3,0,0,1,1.38.34l-.55,2.45a2.49,2.49,0,0,0-1.05-.25,2.06,2.06,0,0,0-1.8,1.22Zm11.44,4.46a5.85,5.85,0,0,1-3.06.69c-2.82,0-4.53-1.57-4.53-4.39a4.24,4.24,0,0,1,4.6-4.52,6,6,0,0,1,3,.7l-.54,2.09a4.51,4.51,0,0,0-2.22-.65,2.31,2.31,0,0,0,.08,4.61,4.23,4.23,0,0,0,2.21-.63Zm3.74-3.15v0c.09,1.13.86,1.76,2.21,1.76a5.51,5.51,0,0,0,2.74-.81l.27,2.15a7.15,7.15,0,0,1-3.26.68c-2.9,0-4.68-1.6-4.68-4.37a4.29,4.29,0,0,1,4.54-4.52c2.34,0,3.67,1.37,3.67,3.51a5.08,5.08,0,0,1-.18,1.47Zm0-1.38,2.89,0v-.16c0-1.06-.43-1.6-1.27-1.6a1.73,1.73,0,0,0-1.62,1.78Zm10.66-.29a5.93,5.93,0,0,1,2.38,1,2.16,2.16,0,0,1,.77,1.8,2.4,2.4,0,0,1-1,2,4.43,4.43,0,0,1-2.79.79,8.55,8.55,0,0,1-3.54-.74l.54-2a6.67,6.67,0,0,0,3.06.79c.75,0,1.13-.23,1.13-.68s-.38-.63-1.42-.86c-2.11-.42-3.19-1.17-3.19-2.74s1.41-2.68,3.69-2.68a8.75,8.75,0,0,1,3.41.72l-.56,2a6.56,6.56,0,0,0-2.88-.76c-.69,0-1,.22-1,.63s.43.61,1.44.83Z"/>
      <rect class="clsm-4" x="692" y="587.52" width="180" height="52" rx="10"/>
      <path d="M746.12,609.27h-3.58l-4,11.25h2.84l.81-2.4h4.18l.83,2.4H750Zm-.38,6.62H742.8l1.5-4.41Zm14,.34a4.54,4.54,0,0,1-1.22,3.28,3.93,3.93,0,0,1-3,1.26,5.47,5.47,0,0,1-1.89-.34l-2.61.36V608.62l2.77-.34V613a3.28,3.28,0,0,1,2.36-1.13c2.1,0,3.56,1.71,3.56,4.35Zm-2.77.15c0-1.44-.61-2.29-1.74-2.29a2,2,0,0,0-1.41.58v3.69a2.22,2.22,0,0,0,1.28.34c1.19,0,1.87-.9,1.87-2.32Zm8.4-4.5a4.39,4.39,0,0,1,3.18,1.19,4.79,4.79,0,0,1,0,6.49,4.59,4.59,0,0,1-3.24,1.23,4.44,4.44,0,0,1-3.19-1.19,4.17,4.17,0,0,1-1.26-3.24,4.24,4.24,0,0,1,1.3-3.28A4.54,4.54,0,0,1,765.38,611.88Zm1.67,4.44a2.82,2.82,0,0,0-.45-1.71,1.54,1.54,0,0,0-1.3-.63,1.49,1.49,0,0,0-1.27.63,2.85,2.85,0,0,0-.45,1.73A2.74,2.74,0,0,0,764,618a1.49,1.49,0,0,0,1.29.63,1.52,1.52,0,0,0,1.3-.63A2.9,2.9,0,0,0,767.05,616.32Zm4.22-4.17h2.78v5c0,.9.37,1.35,1.15,1.35a2,2,0,0,0,1.42-.56v-5.74h2.77v8.24l-2.77.34v-1.24a3.57,3.57,0,0,1-2.72,1.3c-1.64,0-2.63-1.1-2.63-2.88Zm15.49,8.33a7,7,0,0,1-2,.31c-2.14,0-3.17-.9-3.08-3l.13-3.19-1.26-.22.05-1.76,1.26-.41,0-1.91h2.68l0,2h2.09l0,2.17h-2.24l-.09,3c0,.74.33,1.1,1.1,1.1a3.39,3.39,0,0,0,1.1-.22Zm8.53-3.63v3.67h-2.86V609.27h4.51c2.94,0,4.56,1.35,4.56,3.56a3.25,3.25,0,0,1-2.31,3.24l2.88,4.45h-3.22l-2.25-3.78Zm-.06-2.13,1.44,0q1.89-.13,1.89-1.68c0-1-.7-1.47-2.12-1.47h-1.21Zm11.95-2.84a4.37,4.37,0,0,1,3.18,1.19,4.77,4.77,0,0,1-.05,6.49,4.55,4.55,0,0,1-3.24,1.23,4.44,4.44,0,0,1-3.19-1.19,4.17,4.17,0,0,1-1.26-3.24,4.28,4.28,0,0,1,1.3-3.28A4.54,4.54,0,0,1,807.18,611.88Zm1.67,4.44a2.82,2.82,0,0,0-.45-1.71,1.53,1.53,0,0,0-1.29-.63,1.5,1.5,0,0,0-1.28.63,2.85,2.85,0,0,0-.45,1.73,2.74,2.74,0,0,0,.45,1.69,1.5,1.5,0,0,0,1.29.63,1.52,1.52,0,0,0,1.3-.63A2.9,2.9,0,0,0,808.85,616.32Zm10.29-7.92,0,.24c0,.16-.08.36-.13.57s-.11.45-.16.69-.09.41-.13.57l0,.22a4.16,4.16,0,0,0-1.41-.32c-.7,0-1,.37-1,1.22v.67h2.34l-.05,2.17h-2.16v6.09H813.6v-6.07l-1.44-.11.07-1.76,1.35-.4,0-.72c.07-2.41,1.13-3.47,3.27-3.47a6.12,6.12,0,0,1,2.27.41Zm6.68,0-.05.24c0,.16-.08.36-.13.57s-.11.45-.16.69-.09.41-.13.57l-.05.22a4.16,4.16,0,0,0-1.41-.32c-.7,0-1,.37-1,1.22v.67h2.34l0,2.17h-2.16v6.09h-2.77v-6.07l-1.44-.11.07-1.76,1.35-.4,0-.72c.07-2.41,1.13-3.47,3.27-3.47a6.12,6.12,0,0,1,2.27.41Z"/>
      <rect class="clsm-4" x="887" y="587.52" width="180" height="52" rx="10"/>
      <path d="M917,604.85v3.67h-2.86V597.27h4.52c2.93,0,4.55,1.35,4.55,3.56a3.24,3.24,0,0,1-2.3,3.24l2.88,4.45H920.6l-2.25-3.78Zm-.06-2.13,1.44,0c1.26-.09,1.9-.65,1.9-1.68s-.71-1.47-2.13-1.47H917Zm11.95-2.84a4.37,4.37,0,0,1,3.18,1.19,4.77,4.77,0,0,1-.05,6.49,4.55,4.55,0,0,1-3.24,1.23,4.44,4.44,0,0,1-3.19-1.19,4.17,4.17,0,0,1-1.26-3.24,4.28,4.28,0,0,1,1.3-3.28A4.54,4.54,0,0,1,928.93,599.88Zm1.67,4.44a2.82,2.82,0,0,0-.45-1.71,1.53,1.53,0,0,0-1.29-.63,1.5,1.5,0,0,0-1.28.63,2.85,2.85,0,0,0-.45,1.73,2.74,2.74,0,0,0,.45,1.69,1.5,1.5,0,0,0,1.29.63,1.52,1.52,0,0,0,1.3-.63A2.9,2.9,0,0,0,930.6,604.32Zm10.29-7.92,0,.24c0,.16-.07.36-.13.57s-.11.45-.16.69-.09.41-.13.57l0,.22a4.11,4.11,0,0,0-1.4-.32c-.71,0-1,.37-1,1.22v.67h2.34l-.05,2.17h-2.16v6.09h-2.77v-6.07l-1.44-.11.07-1.76,1.35-.4,0-.72c.07-2.41,1.13-3.47,3.27-3.47a6.12,6.12,0,0,1,2.27.41Zm6.68,0-.05.24c0,.16-.08.36-.13.57s-.11.45-.16.69-.09.41-.13.57l-.05.22a4.11,4.11,0,0,0-1.4-.32c-.71,0-1,.37-1,1.22v.67H947l0,2.17H944.8v6.09H942v-6.07l-1.44-.11.07-1.76,1.35-.4,0-.72c.07-2.41,1.13-3.47,3.27-3.47a6.12,6.12,0,0,1,2.27.41Zm14.27,1.44-.87,2.4a5.47,5.47,0,0,0-2.84-.81c-2,0-3.2,1.31-3.2,3.44s1.18,3.49,3.22,3.49a5.28,5.28,0,0,0,3-.92l.59,2.54a7.6,7.6,0,0,1-3.69.81c-3.69,0-6-2.11-6-5.85a5.82,5.82,0,0,1,1.63-4.34,6.13,6.13,0,0,1,4.43-1.6,8.57,8.57,0,0,1,3.73.84Zm9.78,10.68h-2.77v-4.95c0-.88-.38-1.33-1.16-1.33a2.26,2.26,0,0,0-1.54.63v5.65h-2.78v-11.9l2.78-.34v5a3.65,3.65,0,0,1,2.82-1.42,2.56,2.56,0,0,1,2.65,2.88Zm6.43-2.13v-1.6c-1.73.2-2.34.51-2.34,1.26a.94.94,0,0,0,1,.9A1.65,1.65,0,0,0,978.05,606.39Zm.07,1.12h0a3.15,3.15,0,0,1-2.41,1.28,2.43,2.43,0,0,1-2.56-2.32c0-1.89,1.66-2.88,4.95-3v-.17c0-.9-.43-1.27-1.47-1.27a6.73,6.73,0,0,0-2.85.84l-.57-2a8,8,0,0,1,3.85-1c2.79,0,3.87,1.19,3.81,3.65V606c0,.55.09.63.68.68l-.27,2c-1.66.22-2.68-.18-3.1-1.17Zm17.93,1h-2.77v-4.93q0-1.35-1.14-1.35a2,2,0,0,0-1.35.54v5.74H988v-4.93c0-.9-.38-1.35-1.15-1.35a2,2,0,0,0-1.35.5v5.78h-2.77v-8.23l2.77-.34v1.17a3.65,3.65,0,0,1,2.66-1.24,2.42,2.42,0,0,1,2.36,1.49,3.77,3.77,0,0,1,2.9-1.49c1.64,0,2.61,1.08,2.61,2.9Zm4.71-7.51a3.27,3.27,0,0,1,2.34-1.13c2.1,0,3.58,1.71,3.58,4.35a4.54,4.54,0,0,1-1.22,3.28,3.93,3.93,0,0,1-3,1.26,5.73,5.73,0,0,1-1.73-.27v3.74H998v-12l2.77-.34Zm0,1.66v3.69a2.2,2.2,0,0,0,1.28.34c1.18,0,1.87-.9,1.87-2.32s-.61-2.29-1.75-2.29A2,2,0,0,0,1000.76,602.67Zm16.09,3.72v-1.6c-1.73.2-2.34.51-2.34,1.26a.93.93,0,0,0,1,.9,1.68,1.68,0,0,0,1.3-.56Zm.07,1.12h-.06a3.15,3.15,0,0,1-2.41,1.28,2.42,2.42,0,0,1-2.55-2.32q0-2.84,5-3v-.17c0-.9-.44-1.27-1.48-1.27a6.7,6.7,0,0,0-2.84.84l-.58-2a8,8,0,0,1,3.85-1c2.79,0,3.87,1.19,3.82,3.65l0,2.49c0,.55.09.63.68.68l-.27,2c-1.65.22-2.68-.18-3.09-1.17Zm12.86,1H1027v-4.95c0-1-.39-1.33-1.19-1.33a2.23,2.23,0,0,0-1.51.63v5.65h-2.77v-8.23l2.77-.34v1.37a3.71,3.71,0,0,1,2.81-1.44c1.66,0,2.66,1.06,2.66,2.88Zm7.43-8.34v-3.56l2.77-.34v12.24h-2.77v-.87a3.24,3.24,0,0,1-2.34,1.12c-2.11,0-3.58-1.71-3.58-4.34a4.5,4.5,0,0,1,1.22-3.27,3.93,3.93,0,0,1,3-1.26,5.36,5.36,0,0,1,1.73.28Zm0,2.13a2.15,2.15,0,0,0-1.28-.36c-1.15,0-1.87.92-1.87,2.34s.7,2.27,1.74,2.27a1.92,1.92,0,0,0,1.41-.58v-3.67Zm-96.9,30.21H943l-.38-11.25h-4l-2.34,8.44L934,621.27h-4.05l-.39,11.25h2.66l.07-8.66,2.47,8.48h3.06l2.46-8.5Zm9.12-2.13v-1.6c-1.73.2-2.34.51-2.34,1.26a.93.93,0,0,0,1,.9A1.68,1.68,0,0,0,949.43,630.39Zm.07,1.12h-.06a3.15,3.15,0,0,1-2.41,1.28,2.42,2.42,0,0,1-2.55-2.32q0-2.84,4.95-3v-.17c0-.9-.44-1.27-1.48-1.27a6.7,6.7,0,0,0-2.84.84l-.58-2a8,8,0,0,1,3.85-1c2.79,0,3.87,1.19,3.82,3.65l0,2.49c0,.55.09.63.68.68l-.27,2c-1.65.22-2.68-.18-3.09-1.17Zm8.26-4.23a5.88,5.88,0,0,1,2.37,1,2.17,2.17,0,0,1,.78,1.8,2.43,2.43,0,0,1-1,2,4.45,4.45,0,0,1-2.79.79,8.6,8.6,0,0,1-3.55-.74l.54-2a6.73,6.73,0,0,0,3.06.79c.76,0,1.14-.23,1.14-.68s-.38-.63-1.43-.86c-2.1-.42-3.18-1.17-3.18-2.74s1.4-2.68,3.69-2.68a8.74,8.74,0,0,1,3.4.72l-.56,2a6.52,6.52,0,0,0-2.88-.76c-.68,0-1,.22-1,.63s.43.61,1.44.83Zm10,5.2a7.11,7.11,0,0,1-2,.31c-2.14,0-3.16-.9-3.07-3l.12-3.19-1.26-.22.06-1.76,1.26-.41,0-1.91h2.68v2h2.08l0,2.17h-2.23l-.09,3c0,.74.32,1.1,1.1,1.1a3.38,3.38,0,0,0,1.09-.22Zm3.56-3.53v0c.09,1.13.87,1.76,2.22,1.76a5.45,5.45,0,0,0,2.73-.81l.27,2.15a7.13,7.13,0,0,1-3.25.68c-2.9,0-4.68-1.6-4.68-4.37a4.28,4.28,0,0,1,4.53-4.52c2.34,0,3.67,1.37,3.67,3.51a4.76,4.76,0,0,1-.18,1.47Zm0-1.38,2.9,0v-.16c0-1.06-.43-1.6-1.28-1.6a1.73,1.73,0,0,0-1.62,1.78Zm9.8.07v4.88h-2.77v-8.23l2.77-.34v1.22a2.25,2.25,0,0,1,2-1.29,3,3,0,0,1,1.39.34l-.56,2.45a2.45,2.45,0,0,0-1-.25A2.07,2.07,0,0,0,981.18,627.64Zm18-4v-2.39h-10v2.39h3.58v8.86h2.86v-8.86Zm4.2-2.18a1.35,1.35,0,0,1-.44,1.08,1.66,1.66,0,0,1-1.2.4,1.7,1.7,0,0,1-1.21-.4,1.35,1.35,0,0,1-.43-1.08,1.42,1.42,0,0,1,.43-1.11,1.79,1.79,0,0,1,1.21-.38,1.74,1.74,0,0,1,1.2.38A1.43,1.43,0,0,1,1003.36,621.48Zm-.26,11h-2.77v-8.23l2.77-.34Zm4.75,0V620.28l-2.77.34v11.9Zm4.24-3.57v0c.09,1.13.87,1.76,2.22,1.76a5.45,5.45,0,0,0,2.73-.81l.27,2.15a7.15,7.15,0,0,1-3.26.68c-2.89,0-4.68-1.6-4.68-4.37a4.29,4.29,0,0,1,4.54-4.52c2.34,0,3.67,1.37,3.67,3.51a4.76,4.76,0,0,1-.18,1.47Zm0-1.38,2.9,0v-.16c0-1.06-.43-1.6-1.28-1.6a1.73,1.73,0,0,0-1.62,1.78Zm9.8.07v4.88h-2.77v-8.23l2.77-.34v1.22a2.25,2.25,0,0,1,2-1.29,3,3,0,0,1,1.38.34l-.55,2.45a2.49,2.49,0,0,0-1-.25,2.06,2.06,0,0,0-1.8,1.22Z"/>
      <rect class="clsm-4" x="4" y="587.52" width="180" height="52" rx="10"/>
      <path d="M71.61,618.43c1,0,1.71-.38,1.71-1.06s-.58-.94-2.31-1.42a7.94,7.94,0,0,1-1.28-.44,5.14,5.14,0,0,1-1.11-.61,2.37,2.37,0,0,1-.9-1,2.92,2.92,0,0,1-.33-1.4c0-2.14,1.57-3.47,4.32-3.47a8.55,8.55,0,0,1,4.22,1l-.56,2.35a7.71,7.71,0,0,0-3.64-1c-1,0-1.47.33-1.47,1a.71.71,0,0,0,.16.47,1.38,1.38,0,0,0,.54.37,3.43,3.43,0,0,0,.72.27c.2.08.52.17.95.29a9.9,9.9,0,0,1,1.3.43,6.76,6.76,0,0,1,1.1.63,2.72,2.72,0,0,1,1.13,2.34c0,2.2-1.69,3.66-4.61,3.66a8.6,8.6,0,0,1-4.34-1l.54-2.37a8.18,8.18,0,0,0,3.86,1Zm8.5-1.48v0c.09,1.13.86,1.76,2.21,1.76a5.48,5.48,0,0,0,2.74-.81l.27,2.15a7.15,7.15,0,0,1-3.26.68c-2.9,0-4.68-1.6-4.68-4.37a4.29,4.29,0,0,1,4.54-4.52c2.34,0,3.67,1.37,3.67,3.51a4.76,4.76,0,0,1-.18,1.47Zm0-1.38,2.9,0v-.16c0-1.06-.44-1.6-1.28-1.6a1.73,1.73,0,0,0-1.62,1.78Zm11.53,2.82v-1.6c-1.73.2-2.34.51-2.34,1.26a.93.93,0,0,0,1,.9A1.67,1.67,0,0,0,91.66,618.39Zm.07,1.12h0a3.15,3.15,0,0,1-2.42,1.28,2.42,2.42,0,0,1-2.55-2.32q0-2.84,5-3v-.17c0-.9-.43-1.27-1.48-1.27a6.7,6.7,0,0,0-2.84.84l-.58-2a8,8,0,0,1,3.85-1c2.79,0,3.87,1.19,3.82,3.65l0,2.49c0,.55.09.63.69.68l-.27,2c-1.66.22-2.69-.18-3.1-1.17Zm7.39-3.87v4.88H96.35v-8.23l2.77-.34v1.22a2.25,2.25,0,0,1,2-1.29,3,3,0,0,1,1.39.34l-.56,2.45a2.45,2.45,0,0,0-1-.25,2.07,2.07,0,0,0-1.8,1.22Zm11.44,4.46a5.85,5.85,0,0,1-3.06.69c-2.82,0-4.53-1.57-4.53-4.39a4.25,4.25,0,0,1,4.61-4.52,6,6,0,0,1,3,.7l-.54,2.09a4.51,4.51,0,0,0-2.22-.65,2.31,2.31,0,0,0,.08,4.61,4.23,4.23,0,0,0,2.21-.63Zm9.8.42h-2.77v-4.95c0-.88-.38-1.33-1.15-1.33a2.28,2.28,0,0,0-1.55.63v5.65h-2.77v-11.9l2.77-.34v5a3.68,3.68,0,0,1,2.83-1.42,2.55,2.55,0,0,1,2.64,2.88Z"/>
      <rect class="clsm-4" x="1082" y="587.52" width="180" height="52" rx="10"/>
      <path d="M1139,609.84l-.86,2.4a5.5,5.5,0,0,0-2.84-.81c-2,0-3.21,1.31-3.21,3.44s1.19,3.49,3.22,3.49a5.23,5.23,0,0,0,3-.92l.6,2.54a7.63,7.63,0,0,1-3.69.81c-3.69,0-6-2.11-6-5.85a5.79,5.79,0,0,1,1.64-4.34,6.11,6.11,0,0,1,4.43-1.6,8.52,8.52,0,0,1,3.72.84Zm5.38,2a4.39,4.39,0,0,1,3.19,1.19,4.29,4.29,0,0,1,1.24,3.24,4.22,4.22,0,0,1-1.3,3.25,4.55,4.55,0,0,1-3.24,1.23,4.41,4.41,0,0,1-3.18-1.19,4.14,4.14,0,0,1-1.26-3.24,4.27,4.27,0,0,1,1.29-3.28,4.58,4.58,0,0,1,3.26-1.2Zm1.67,4.44a2.82,2.82,0,0,0-.45-1.71,1.63,1.63,0,0,0-2.57,0,2.85,2.85,0,0,0-.45,1.73A2.74,2.74,0,0,0,1143,618a1.52,1.52,0,0,0,1.3.63,1.5,1.5,0,0,0,1.29-.63,2.9,2.9,0,0,0,.43-1.71Zm12.52,4.2h-2.77v-4.95c0-1-.39-1.33-1.19-1.33a2.23,2.23,0,0,0-1.51.63v5.65h-2.77v-8.23l2.77-.34v1.37a3.71,3.71,0,0,1,2.81-1.44c1.66,0,2.66,1.06,2.66,2.88Zm7.34,0a7.11,7.11,0,0,1-2,.31c-2.14,0-3.16-.9-3.07-3l.12-3.19-1.26-.22.06-1.76,1.26-.41,0-1.91h2.68v2h2.08l0,2.17h-2.23l-.09,3c0,.74.32,1.1,1.1,1.1a3.38,3.38,0,0,0,1.09-.22Zm5.88-2.09v-1.6c-1.72.2-2.34.51-2.34,1.26a.94.94,0,0,0,1,.9,1.65,1.65,0,0,0,1.29-.56Zm.08,1.12h-.06a3.15,3.15,0,0,1-2.41,1.28,2.43,2.43,0,0,1-2.56-2.32c0-1.89,1.66-2.88,5-3v-.17c0-.9-.43-1.27-1.47-1.27a6.73,6.73,0,0,0-2.85.84l-.57-2a8,8,0,0,1,3.85-1c2.79,0,3.87,1.19,3.82,3.65l0,2.49c0,.55.09.63.68.68l-.27,2c-1.65.22-2.68-.18-3.09-1.17Zm11.78.59a5.88,5.88,0,0,1-3.06.69c-2.83,0-4.54-1.57-4.54-4.39a4.25,4.25,0,0,1,4.61-4.52,6,6,0,0,1,3,.7l-.54,2.09A4.44,4.44,0,0,0,1181,614a2.31,2.31,0,0,0,.07,4.61,4.29,4.29,0,0,0,2.22-.63Zm7,.38a7.11,7.11,0,0,1-2,.31c-2.14,0-3.17-.9-3.08-3l.13-3.19-1.26-.22.05-1.76,1.26-.41,0-1.91h2.68l0,2h2.09l0,2.17h-2.23l-.09,3c0,.74.32,1.1,1.09,1.1a3.39,3.39,0,0,0,1.1-.22Zm15.5-4.55c0,3.2-1.85,4.86-5,4.86s-5-1.51-5-4.61v-6.91h2.85v6.53c0,1.71.72,2.58,2.18,2.58s2-.76,2-2.47v-6.64h2.84Zm5.71-.65a5.88,5.88,0,0,1,2.37,1,2.17,2.17,0,0,1,.78,1.8,2.43,2.43,0,0,1-1,2,4.45,4.45,0,0,1-2.79.79,8.6,8.6,0,0,1-3.55-.74l.54-2a6.73,6.73,0,0,0,3.06.79c.76,0,1.14-.23,1.14-.68s-.38-.63-1.43-.86c-2.1-.42-3.18-1.17-3.18-2.74s1.4-2.68,3.69-2.68a8.74,8.74,0,0,1,3.4.72l-.56,2a6.52,6.52,0,0,0-2.88-.76c-.68,0-1,.22-1,.63s.43.61,1.44.83Z"/>
      <path class="clsm-2" d="M214.12,228.52h.9V224.7h3.52v-.83H215v-3.26h4.25v-.84h-5.15Zm7.45-4.12v4.12h-.86v-6.41l.86-.19v1.38a2.14,2.14,0,0,1,1.89-1.38,2.16,2.16,0,0,1,1.12.3l-.22.81a1.92,1.92,0,0,0-1-.28C222.67,222.75,222.07,223.3,221.57,224.4Zm9.81.9a3.39,3.39,0,0,1-.89,2.45,3,3,0,0,1-2.25.95,2.91,2.91,0,0,1-2.23-.92,3.85,3.85,0,0,1,0-4.92,3,3,0,0,1,2.26-.94,2.88,2.88,0,0,1,2.22.93,3.41,3.41,0,0,1,.86,2.45Zm-.85,0c0-1.59-.9-2.62-2.27-2.62A2.31,2.31,0,0,0,226,225.3c0,1.58.89,2.62,2.27,2.62A2.31,2.31,0,0,0,230.53,225.33Zm11.34,3.19H241v-4.13c0-1.09-.45-1.64-1.36-1.64a2.66,2.66,0,0,0-1.81.83,3.67,3.67,0,0,1,0,.57v4.37H237v-4.13c0-1.09-.45-1.64-1.36-1.64a2.64,2.64,0,0,0-1.77.74v5H233v-6.41l.87-.19v.89a3,3,0,0,1,2-.89,1.71,1.71,0,0,1,1.73,1.07,3.18,3.18,0,0,1,2.27-1.07c1.23,0,2,.8,2,2.22Zm8.46-9.47,0,.2c0,.14-.07.27-.12.39l0,.2a2.35,2.35,0,0,0-1-.27c-.72,0-1.07.51-1.07,1.5v1.06h2l0,.77h-2v5.62h-.85v-5.59l-1-.07.06-.54,1-.23v-1c0-1.54.67-2.31,1.93-2.31a2.8,2.8,0,0,1,1.18.28Zm1.75,5.35v4.12h-.87v-6.41l.87-.19v1.38a2.12,2.12,0,0,1,1.89-1.38,2.21,2.21,0,0,1,1.12.3l-.23.81a1.92,1.92,0,0,0-1-.28Q252.82,222.75,252.08,224.4Zm5.15-4.41a.7.7,0,0,1-.15.45.52.52,0,0,1-.43.2.54.54,0,0,1-.44-.2.76.76,0,0,1-.15-.45.7.7,0,0,1,.15-.43.53.53,0,0,1,.44-.18.51.51,0,0,1,.43.18A.64.64,0,0,1,257.23,220Zm-.15,8.53h-.87v-6.41l.87-.19Zm2.51-3.18v.07a2.28,2.28,0,0,0,2.24,2.48,3.37,3.37,0,0,0,1.86-.53l.17.79a3.8,3.8,0,0,1-2.06.55,3.07,3.07,0,0,1-3.1-3.33,3.6,3.6,0,0,1,.87-2.48,2.79,2.79,0,0,1,2.16-1,2.2,2.2,0,0,1,2.34,2.37,3.27,3.27,0,0,1-.14,1Zm.05-.69h3.56a1.8,1.8,0,0,0,0-.28,1.46,1.46,0,0,0-1.54-1.65A2.07,2.07,0,0,0,259.64,224.65Zm11.16,3.87h-.87v-4.15c0-1.12-.44-1.62-1.42-1.62a2.75,2.75,0,0,0-1.94.91v4.86h-.87v-6.41l.87-.19V223a3.1,3.1,0,0,1,2.18-1.05,1.94,1.94,0,0,1,2.05,2.2Zm6.28-6.2v-3.24l.87-.18v9.62h-.87v-.6a2.7,2.7,0,0,1-1.86.78c-1.72,0-2.87-1.36-2.87-3.33a3.39,3.39,0,0,1,.9-2.45,3,3,0,0,1,2.28-.95A3.54,3.54,0,0,1,277.08,222.32Zm0,.92a2.55,2.55,0,0,0-1.59-.49c-1.38,0-2.24,1.06-2.24,2.6s.84,2.55,2.12,2.55a2.45,2.45,0,0,0,1.71-.71v-3.95Zm6.73,3.53a2,2,0,0,1-2.29,1.93,3.93,3.93,0,0,1-2.1-.57l.23-.8a3.37,3.37,0,0,0,1.89.59c.82,0,1.45-.41,1.45-1.08a.8.8,0,0,0-.1-.41,1.47,1.47,0,0,0-.23-.29,1.72,1.72,0,0,0-.39-.23,3.2,3.2,0,0,0-.4-.16l-.49-.16c-1.12-.33-1.87-.81-1.87-1.82a1.92,1.92,0,0,1,2.17-1.85,4.17,4.17,0,0,1,1.95.48l-.25.78a3.57,3.57,0,0,0-1.75-.47c-.79,0-1.29.36-1.29,1a.72.72,0,0,0,.1.38,1.36,1.36,0,0,0,.21.28,1,1,0,0,0,.38.22l.4.17.49.15c1.16.34,1.89.81,1.89,1.88Zm4.14-8.08h-.7l-3.41,12.61h.69Zm6.56,6.61a3.4,3.4,0,0,1-.9,2.45,3.15,3.15,0,0,1-4.48,0,3.85,3.85,0,0,1,0-4.92,3,3,0,0,1,2.26-.94,2.88,2.88,0,0,1,2.22.93A3.41,3.41,0,0,1,294.51,225.3Zm-.86,0c0-1.59-.89-2.62-2.26-2.62a2.63,2.63,0,1,0,2.26,2.62Zm7.57,3.19h-.87v-4.15c0-1.12-.43-1.62-1.42-1.62a2.75,2.75,0,0,0-1.94.91v4.86h-.87v-6.41l.87-.19V223a3.1,3.1,0,0,1,2.18-1.05,1.94,1.94,0,0,1,2.05,2.2Zm2.84,0V218.9l-.87.18v9.44Zm3.05-8.53a.76.76,0,0,1-.15.45.54.54,0,0,1-.44.2.52.52,0,0,1-.43-.2.71.71,0,0,1-.16-.45.65.65,0,0,1,.16-.43.51.51,0,0,1,.43-.18.53.53,0,0,1,.44.18A.7.7,0,0,1,307.11,220Zm-.15,8.53h-.87v-6.41l.87-.19Zm7.14,0h-.87v-4.15c0-1.12-.44-1.62-1.42-1.62a2.75,2.75,0,0,0-1.94.91v4.86H309v-6.41l.87-.19V223a3.1,3.1,0,0,1,2.18-1.05,1.94,1.94,0,0,1,2.05,2.2Zm2.43-3.18v.07a2.28,2.28,0,0,0,2.24,2.48,3.35,3.35,0,0,0,1.86-.53l.17.79a3.78,3.78,0,0,1-2.06.55,3.07,3.07,0,0,1-3.09-3.33,3.56,3.56,0,0,1,.87-2.48,2.77,2.77,0,0,1,2.15-1,2.2,2.2,0,0,1,2.34,2.37,3.27,3.27,0,0,1-.14,1Zm.06-.69h3.55a.91.91,0,0,0,0-.28,1.47,1.47,0,0,0-1.54-1.65A2.06,2.06,0,0,0,316.59,224.65Zm13.94,3.5a3.6,3.6,0,0,1-2,.55,3.06,3.06,0,0,1-3.14-3.37,3.37,3.37,0,0,1,.9-2.45,3,3,0,0,1,2.25-1,3.65,3.65,0,0,1,2,.55l-.22.78a3.12,3.12,0,0,0-1.78-.51,2.26,2.26,0,0,0-2.25,2.56,2.29,2.29,0,0,0,2.26,2.59,3.2,3.2,0,0,0,1.78-.53Zm5-1.05v-1.87c-2.15.24-3,.71-3,1.59a1.17,1.17,0,0,0,1.32,1.12A2.18,2.18,0,0,0,335.49,227.1Zm.06.65h0a2.36,2.36,0,0,1-1.88.95,1.85,1.85,0,0,1-2-1.78q0-2.05,3.89-2.28v-.38a1.34,1.34,0,0,0-1.51-1.52,3.86,3.86,0,0,0-2.1.77l-.19-.82a4.49,4.49,0,0,1,2.38-.77,2,2,0,0,1,2.29,2.3v3.08c0,.5.11.66.65.64l-.06.72C336.12,228.71,335.65,228.41,335.55,227.75Zm11.63.77h-.87v-4.13c0-1.09-.45-1.64-1.36-1.64a2.66,2.66,0,0,0-1.81.83,3.67,3.67,0,0,1,0,.57v4.37h-.87v-4.13c0-1.09-.44-1.64-1.35-1.64a2.67,2.67,0,0,0-1.78.74v5h-.87v-6.41l.87-.19v.89a3,3,0,0,1,2-.89,1.7,1.7,0,0,1,1.73,1.07,3.18,3.18,0,0,1,2.27-1.07c1.23,0,2,.8,2,2.22Zm2.84-5.77a2.67,2.67,0,0,1,1.86-.78c1.73,0,2.87,1.34,2.87,3.31a3.44,3.44,0,0,1-.88,2.45,3,3,0,0,1-2.28,1,3.57,3.57,0,0,1-1.57-.34v3.42h-.87v-9.7l.87-.18Zm0,.73v3.93a2.54,2.54,0,0,0,1.61.51c1.35,0,2.23-1.08,2.23-2.62s-.83-2.54-2.12-2.54A2.48,2.48,0,0,0,350,223.48Zm9.69,3.62v-1.87c-2.16.24-3,.71-3,1.59a1.17,1.17,0,0,0,1.32,1.12A2.18,2.18,0,0,0,359.71,227.1Zm.05.65h0a2.34,2.34,0,0,1-1.88.95,1.85,1.85,0,0,1-2-1.78c0-1.37,1.31-2.13,3.9-2.28v-.38a1.34,1.34,0,0,0-1.52-1.52,3.86,3.86,0,0,0-2.1.77l-.19-.82a4.52,4.52,0,0,1,2.38-.77,2,2,0,0,1,2.29,2.3v3.08c0,.5.12.66.65.64l-.06.72C360.34,228.71,359.86,228.41,359.76,227.75Zm3.79-7.76a.71.71,0,0,1-.16.45.56.56,0,0,1-.86,0,.71.71,0,0,1-.16-.45.65.65,0,0,1,.16-.43.6.6,0,0,1,.86,0A.65.65,0,0,1,363.55,220Zm-.16,8.53h-.86v-6.41l.86-.19Zm2.54-4.17a1.55,1.55,0,0,0,1.65,1.63,1.47,1.47,0,0,0,1.16-.47,1.67,1.67,0,0,0,.44-1.21,1.72,1.72,0,0,0-.42-1.2,1.61,1.61,0,0,0-1.22-.46A1.56,1.56,0,0,0,365.93,224.35Zm.75,4.35c-.77.21-1.3.71-1.3,1.26,0,.77.86,1.32,2.19,1.32s2.4-.65,2.4-1.52c0-.72-.61-1-1.94-1-.53,0-1,0-1.35,0Zm-.75-.17c-.58-.21-.87-.54-.87-1a1.42,1.42,0,0,1,1.05-1.22,2.14,2.14,0,0,1-1-2,2.38,2.38,0,0,1,2.52-2.41,3.09,3.09,0,0,1,1.52.38l1.77-.14.05.87-1.42-.14a2.21,2.21,0,0,1,.52,1.44,2.34,2.34,0,0,1-2.49,2.35,2.65,2.65,0,0,1-1-.18c-.48.2-.72.45-.72.77s.37.66,1.46.66h.82c1.78,0,2.66.56,2.66,1.68a2,2,0,0,1-1,1.71,4.13,4.13,0,0,1-2.38.67c-1.72,0-2.9-.76-2.9-1.88a1.71,1.71,0,0,1,1.39-1.58Zm11.15,0h-.86v-4.15c0-1.12-.44-1.62-1.42-1.62a2.75,2.75,0,0,0-1.94.91v4.86H372v-6.41l.87-.19V223a3.08,3.08,0,0,1,2.18-1.05,1.93,1.93,0,0,1,2,2.2Zm5.83-1.75a2.05,2.05,0,0,1-2.3,1.93,3.93,3.93,0,0,1-2.1-.57l.24-.8a3.37,3.37,0,0,0,1.89.59c.81,0,1.44-.41,1.44-1.08a.8.8,0,0,0-.1-.41,1.46,1.46,0,0,0-.22-.29,1.72,1.72,0,0,0-.39-.23,3.88,3.88,0,0,0-.41-.16l-.49-.16c-1.12-.33-1.86-.81-1.86-1.82a1.92,1.92,0,0,1,2.17-1.85,4.13,4.13,0,0,1,1.94.48l-.25.78a3.54,3.54,0,0,0-1.75-.47c-.78,0-1.29.36-1.29,1a.72.72,0,0,0,.1.38,1.36,1.36,0,0,0,.21.28,1.15,1.15,0,0,0,.38.22l.41.17c.09,0,.26.08.49.15,1.16.34,1.89.81,1.89,1.88Zm4.13-8.08h-.7l-3.4,12.61h.68ZM217.86,244.77a2.05,2.05,0,0,1-2.3,1.93,3.93,3.93,0,0,1-2.1-.57l.24-.8a3.37,3.37,0,0,0,1.89.59c.81,0,1.44-.41,1.44-1.08a.8.8,0,0,0-.1-.41,1.46,1.46,0,0,0-.22-.29,1.72,1.72,0,0,0-.39-.23,2.7,2.7,0,0,0-.41-.16l-.49-.16c-1.12-.33-1.86-.81-1.86-1.82a1.92,1.92,0,0,1,2.17-1.85,4.17,4.17,0,0,1,2,.48l-.26.78a3.54,3.54,0,0,0-1.75-.47c-.78,0-1.28.36-1.28,1a.71.71,0,0,0,.09.38,1.36,1.36,0,0,0,.21.28,1.15,1.15,0,0,0,.38.22l.41.17.49.15c1.16.34,1.89.81,1.89,1.88Zm7.39-1.47a3.4,3.4,0,0,1-.9,2.45,3,3,0,0,1-2.25.95,2.93,2.93,0,0,1-2.23-.92,3.85,3.85,0,0,1,0-4.92,3,3,0,0,1,2.26-.94,2.88,2.88,0,0,1,2.22.93,3.41,3.41,0,0,1,.86,2.45Zm-.86,0c0-1.59-.89-2.62-2.27-2.62a2.63,2.63,0,1,0,2.27,2.62Zm7.17,2.82a3.6,3.6,0,0,1-2,.55,3.06,3.06,0,0,1-3.14-3.37,3.37,3.37,0,0,1,.9-2.45,3,3,0,0,1,2.25-1,3.65,3.65,0,0,1,2,.55l-.22.78a3.12,3.12,0,0,0-1.78-.51,2.26,2.26,0,0,0-2.25,2.56,2.29,2.29,0,0,0,2.26,2.59,3.2,3.2,0,0,0,1.78-.53Zm2.65-8.16a.7.7,0,0,1-.15.45.53.53,0,0,1-.44.2.52.52,0,0,1-.43-.2A.7.7,0,0,1,233,238a.64.64,0,0,1,.15-.43.51.51,0,0,1,.43-.18.52.52,0,0,1,.44.18A.64.64,0,0,1,234.21,238Zm-.15,8.53h-.87v-6.41l.87-.19Zm5.39-1.42v-1.87c-2.16.24-3,.71-3,1.59a1.16,1.16,0,0,0,1.31,1.12A2.18,2.18,0,0,0,239.45,245.1Zm.05.65h0a2.34,2.34,0,0,1-1.87.95,1.85,1.85,0,0,1-2-1.78q0-2.05,3.89-2.28v-.38a1.34,1.34,0,0,0-1.51-1.52,3.81,3.81,0,0,0-2.1.77l-.2-.82a4.55,4.55,0,0,1,2.38-.77,2,2,0,0,1,2.3,2.3v3.08c0,.5.11.66.64.64l-.06.72C240.08,246.71,239.6,246.41,239.5,245.75Zm3.62.77V236.9l-.87.18v9.44Zm14.08,0h-.87v-4.13c0-1.09-.45-1.64-1.36-1.64a2.66,2.66,0,0,0-1.8.83,5.65,5.65,0,0,1,0,.57v4.37h-.87v-4.13c0-1.09-.45-1.64-1.36-1.64a2.67,2.67,0,0,0-1.78.74v5h-.87v-6.41l.87-.19v.89a3,3,0,0,1,2-.89A1.71,1.71,0,0,1,253,241a3.16,3.16,0,0,1,2.27-1.07c1.23,0,2,.8,2,2.22Zm2.44-3.18v.07a2.28,2.28,0,0,0,2.24,2.48,3.35,3.35,0,0,0,1.86-.53l.17.79a3.78,3.78,0,0,1-2.06.55,3.07,3.07,0,0,1-3.09-3.33,3.56,3.56,0,0,1,.87-2.48,2.77,2.77,0,0,1,2.15-1,2.2,2.2,0,0,1,2.34,2.37,3.27,3.27,0,0,1-.14,1Zm.06-.69h3.55a.91.91,0,0,0,0-.28,1.47,1.47,0,0,0-1.54-1.65A2.06,2.06,0,0,0,259.7,242.65Zm10.37-2.33v-3.24l.87-.18v9.62h-.87v-.6a2.72,2.72,0,0,1-1.86.78c-1.73,0-2.87-1.36-2.87-3.33a3.42,3.42,0,0,1,.89-2.45,3,3,0,0,1,2.28-.95A3.58,3.58,0,0,1,270.07,240.32Zm0,.92a2.56,2.56,0,0,0-1.6-.49,2.3,2.3,0,0,0-2.24,2.6c0,1.5.84,2.55,2.13,2.55a2.47,2.47,0,0,0,1.71-.71v-3.95ZM274,238a.7.7,0,0,1-.15.45.52.52,0,0,1-.43.2.53.53,0,0,1-.44-.2.7.7,0,0,1-.15-.45.64.64,0,0,1,.15-.43.52.52,0,0,1,.44-.18.51.51,0,0,1,.43.18A.64.64,0,0,1,274,238Zm-.15,8.53H273v-6.41l.87-.19Zm5.39-1.42v-1.87c-2.16.24-3,.71-3,1.59a1.16,1.16,0,0,0,1.31,1.12A2.18,2.18,0,0,0,279.22,245.1Zm.06.65h0a2.33,2.33,0,0,1-1.87.95,1.85,1.85,0,0,1-2-1.78q0-2.05,3.89-2.28v-.38a1.34,1.34,0,0,0-1.51-1.52,3.86,3.86,0,0,0-2.1.77l-.2-.82a4.55,4.55,0,0,1,2.38-.77,2,2,0,0,1,2.3,2.3v3.08c0,.5.11.66.64.64l-.05.72C279.85,246.71,279.37,246.41,279.28,245.75Zm5.25-9.06h-.7l-3.4,12.61h.68Zm2.72,9.86,1.75-5.18,1.75,5.18h.77l1.91-6.44h-1l-1.33,5.13-1.75-5.12h-.78l-1.67,5.1-1.48-5.11h-.92l2,6.44Zm13.11-3.25a3.35,3.35,0,0,1-.9,2.45,3.15,3.15,0,0,1-4.48,0,3.85,3.85,0,0,1,0-4.92,3,3,0,0,1,2.26-.94,2.91,2.91,0,0,1,2.23.93A3.45,3.45,0,0,1,300.36,243.3Zm-.85,0c0-1.59-.9-2.62-2.27-2.62a2.63,2.63,0,1,0,2.27,2.62Zm3.33-.93v4.12H302v-6.41l.87-.19v1.38a2.12,2.12,0,0,1,1.89-1.38,2.19,2.19,0,0,1,1.12.3l-.22.81a1.92,1.92,0,0,0-1-.28C303.93,240.75,303.33,241.3,302.84,242.4Zm8.3-2.08v-3.24l.87-.18v9.62h-.87v-.6a2.72,2.72,0,0,1-1.86.78c-1.73,0-2.87-1.36-2.87-3.33a3.42,3.42,0,0,1,.89-2.45,3,3,0,0,1,2.28-.95A3.58,3.58,0,0,1,311.14,240.32Zm0,.92a2.56,2.56,0,0,0-1.6-.49,2.3,2.3,0,0,0-2.24,2.6c0,1.5.84,2.55,2.13,2.55a2.47,2.47,0,0,0,1.71-.71v-3.95ZM323,243.3a3.4,3.4,0,0,1-.9,2.45,3.15,3.15,0,0,1-4.48,0,3.85,3.85,0,0,1,0-4.92,3,3,0,0,1,2.26-.94,2.88,2.88,0,0,1,2.22.93A3.41,3.41,0,0,1,323,243.3Zm-.86,0c0-1.59-.89-2.62-2.27-2.62a2.63,2.63,0,1,0,2.27,2.62Zm5.76-6.28,0,.2c0,.14-.07.27-.11.39l-.06.2a2.35,2.35,0,0,0-1-.27c-.71,0-1.06.51-1.06,1.5v1.06h2l0,.77h-2v5.62h-.86v-5.59l-1-.07,0-.54,1-.23v-1c0-1.54.67-2.31,1.94-2.31A2.79,2.79,0,0,1,327.93,237.05Zm12.94,9.47H340v-4.13c0-1.09-.44-1.64-1.35-1.64a2.66,2.66,0,0,0-1.81.83,5.65,5.65,0,0,1,0,.57v4.37H336v-4.13c0-1.09-.45-1.64-1.36-1.64a2.67,2.67,0,0,0-1.78.74v5H332v-6.41l.86-.19v.89a3,3,0,0,1,2-.89,1.71,1.71,0,0,1,1.74,1.07,3.16,3.16,0,0,1,2.27-1.07c1.23,0,2,.8,2,2.22Zm7.81-3.22a3.4,3.4,0,0,1-.9,2.45,3,3,0,0,1-2.25.95,2.93,2.93,0,0,1-2.23-.92,3.85,3.85,0,0,1,0-4.92,3,3,0,0,1,2.26-.94,2.88,2.88,0,0,1,2.22.93A3.41,3.41,0,0,1,348.68,243.3Zm-.86,0c0-1.59-.89-2.62-2.27-2.62a2.63,2.63,0,1,0,2.27,2.62Zm2.41-3.22h.87v4.14c0,1.08.46,1.62,1.39,1.62a2.69,2.69,0,0,0,2-.91v-4.85h.87v6.41l-.87.18v-1a3,3,0,0,1-2.21,1,1.94,1.94,0,0,1-2-2.2Zm10.31,6.28a3.29,3.29,0,0,1-1.43.34c-1.19,0-1.77-.67-1.72-2l.09-3.79-1-.06.05-.54,1-.23,0-1.45h.83l0,1.49h2.14l0,.77h-2.13l-.1,3.84c0,.8.28,1.2.94,1.2a3,3,0,0,0,1.23-.3Zm6.51.13h-.87v-4.15c0-1.07-.46-1.62-1.37-1.62a2.79,2.79,0,0,0-2,.91v4.86H362v-9.44l.87-.18v4a3.09,3.09,0,0,1,2.22-1,1.92,1.92,0,0,1,2,2.2Z"/>
      <path class="clsm-2" d="M1103.59,668.3l-.28.8a4.48,4.48,0,0,0-2.44-.7c-2,0-3.3,1.38-3.3,3.74s1.3,3.75,3.33,3.75a4,4,0,0,0,2.45-.79l.17.89a4.76,4.76,0,0,1-2.63.71,4,4,0,0,1-3.07-1.23,5.28,5.28,0,0,1,0-6.64,4,4,0,0,1,3-1.24,5.06,5.06,0,0,1,2.7.71Zm7.24,5a3.35,3.35,0,0,1-.9,2.45,3.15,3.15,0,0,1-4.48,0,3.47,3.47,0,0,1-.86-2.45,3.41,3.41,0,0,1,.91-2.47,3,3,0,0,1,2.25-.94,2.91,2.91,0,0,1,2.23.93,3.45,3.45,0,0,1,.85,2.45Zm-.85,0c0-1.59-.9-2.62-2.27-2.62a2.63,2.63,0,1,0,2.27,2.62Zm7.56,3.19h-.87v-4.15c0-1.12-.43-1.62-1.41-1.62a2.75,2.75,0,0,0-2,.91v4.86h-.87v-6.41l.87-.19V671a3.1,3.1,0,0,1,2.19-1.05,1.94,1.94,0,0,1,2,2.2Zm5.16-.13a3.22,3.22,0,0,1-1.42.34c-1.19,0-1.77-.67-1.73-2l.1-3.79-1-.06,0-.54,1-.23,0-1.45h.83l0,1.49h2.14l0,.77h-2.13l-.1,3.84c0,.8.28,1.2.94,1.2a3.08,3.08,0,0,0,1.23-.3Zm4.77-1.29v-1.87c-2.16.24-3,.71-3,1.59a1.17,1.17,0,0,0,1.32,1.12A2.18,2.18,0,0,0,1127.47,675.1Zm0,.65h0a2.34,2.34,0,0,1-1.88,1,1.85,1.85,0,0,1-2-1.78c0-1.37,1.31-2.13,3.9-2.28v-.38a1.34,1.34,0,0,0-1.52-1.52,3.86,3.86,0,0,0-2.1.77l-.19-.82a4.52,4.52,0,0,1,2.38-.77,2,2,0,0,1,2.29,2.3v3.08c0,.5.12.66.65.64l-.06.72c-.82.05-1.3-.25-1.4-.91Zm7.46.4a3.66,3.66,0,0,1-2,.55,3.06,3.06,0,0,1-3.14-3.37,3.41,3.41,0,0,1,.9-2.45,3,3,0,0,1,2.25-1,3.65,3.65,0,0,1,2,.55l-.22.78a3.12,3.12,0,0,0-1.78-.51,2.6,2.6,0,0,0,0,5.15,3.19,3.19,0,0,0,1.77-.53Zm4.8.24a3.26,3.26,0,0,1-1.43.34c-1.19,0-1.76-.67-1.72-2l.1-3.79-1-.06,0-.54,1-.23,0-1.45h.82l0,1.49h2.14l0,.77h-2.13l-.09,3.84q0,1.2.93,1.2a3.31,3.31,0,0,0,1.24-.3Zm7.89-9.34,0,.2c0,.14-.07.27-.11.39l-.06.2a2.35,2.35,0,0,0-1-.27c-.71,0-1.06.51-1.06,1.5v1.06h2l0,.77h-2v5.62h-.86v-5.59l-1-.07,0-.54,1-.23v-1c0-1.54.68-2.31,1.94-2.31a2.79,2.79,0,0,1,1.17.28Zm6.7,6.25a3.39,3.39,0,0,1-.89,2.45,3,3,0,0,1-2.26,1,2.9,2.9,0,0,1-2.22-.92,3.85,3.85,0,0,1,0-4.92,3,3,0,0,1,2.25-.94,2.9,2.9,0,0,1,2.23.93,3.45,3.45,0,0,1,.85,2.45Zm-.85,0c0-1.59-.9-2.62-2.27-2.62a2.31,2.31,0,0,0-2.25,2.59c0,1.58.89,2.62,2.27,2.62A2.31,2.31,0,0,0,1153.52,673.33Zm3.34-.93v4.12H1156v-6.41l.87-.19v1.38a2.12,2.12,0,0,1,1.89-1.38,2.21,2.21,0,0,1,1.12.3l-.23.81a1.92,1.92,0,0,0-1-.28Q1157.6,670.75,1156.86,672.4Zm13,4.12H1169v-4.13c0-1.09-.45-1.64-1.36-1.64a2.66,2.66,0,0,0-1.81.83,3.67,3.67,0,0,1,0,.57v4.37H1165v-4.13c0-1.09-.45-1.64-1.36-1.64a2.64,2.64,0,0,0-1.77.74v5H1161v-6.41l.87-.19v.89a3,3,0,0,1,2-.89,1.71,1.71,0,0,1,1.73,1.07,3.18,3.18,0,0,1,2.27-1.07c1.23,0,2,.8,2,2.22Zm8.36-.13a3.23,3.23,0,0,1-1.43.34c-1.19,0-1.76-.67-1.72-2l.1-3.79-1-.06,0-.54,1-.23,0-1.45h.83l0,1.49h2.15l-.05.77H1176l-.1,3.84c0,.8.28,1.2.94,1.2a3.08,3.08,0,0,0,1.23-.3Zm7.17-3.09a3.39,3.39,0,0,1-.89,2.45,3,3,0,0,1-2.26,1,2.9,2.9,0,0,1-2.22-.92,3.85,3.85,0,0,1,0-4.92,3,3,0,0,1,2.25-.94,2.91,2.91,0,0,1,2.23.93,3.45,3.45,0,0,1,.85,2.45Zm-.85,0c0-1.59-.9-2.62-2.27-2.62a2.31,2.31,0,0,0-2.25,2.59c0,1.58.89,2.62,2.26,2.62A2.32,2.32,0,0,0,1184.53,673.33Zm6.14-1a1.56,1.56,0,0,0,1.65,1.63,1.51,1.51,0,0,0,1.17-.47,1.92,1.92,0,0,0,0-2.41,1.59,1.59,0,0,0-1.22-.46,1.57,1.57,0,0,0-1.61,1.71Zm.76,4.35c-.77.21-1.3.71-1.3,1.26,0,.77.85,1.32,2.18,1.32s2.41-.65,2.41-1.52-.62-1-2-1c-.53,0-1,0-1.34,0Zm-.76-.17c-.57-.21-.87-.54-.87-1a1.43,1.43,0,0,1,1-1.22,2.15,2.15,0,0,1-1-2,2.37,2.37,0,0,1,2.52-2.41,3.05,3.05,0,0,1,1.51.38l1.78-.14,0,.87-1.41-.14a2.26,2.26,0,0,1,.51,1.44,2.34,2.34,0,0,1-2.49,2.35,2.68,2.68,0,0,1-1-.18c-.48.2-.71.45-.71.77s.36.66,1.45.66h.83c1.78,0,2.66.56,2.66,1.68a2,2,0,0,1-1,1.71,4.09,4.09,0,0,1-2.38.67c-1.72,0-2.89-.76-2.89-1.88a1.71,1.71,0,0,1,1.38-1.58Zm6.52-3.19v.07a2.28,2.28,0,0,0,2.24,2.48,3.35,3.35,0,0,0,1.86-.53l.17.79a3.78,3.78,0,0,1-2.06.55,3.07,3.07,0,0,1-3.09-3.33,3.56,3.56,0,0,1,.87-2.48,2.77,2.77,0,0,1,2.15-1,2.2,2.2,0,0,1,2.34,2.37,3.27,3.27,0,0,1-.14,1Zm.06-.69h3.55a.91.91,0,0,0,0-.28,1.47,1.47,0,0,0-1.54-1.65A2.06,2.06,0,0,0,1197.25,672.65Zm9.25,3.74a3.26,3.26,0,0,1-1.43.34c-1.19,0-1.76-.67-1.72-2l.1-3.79-1-.06,0-.54,1-.23,0-1.45h.82l0,1.49h2.14l0,.77h-2.13l-.1,3.84c0,.8.28,1.2.94,1.2a3,3,0,0,0,1.23-.3Zm5.06-3v.07a2.28,2.28,0,0,0,2.24,2.48,3.35,3.35,0,0,0,1.86-.53l.17.79a3.78,3.78,0,0,1-2.06.55,3.07,3.07,0,0,1-3.09-3.33,3.56,3.56,0,0,1,.87-2.48,2.77,2.77,0,0,1,2.15-1,2.2,2.2,0,0,1,2.34,2.37,3.27,3.27,0,0,1-.14,1Zm.06-.69h3.55a.91.91,0,0,0,0-.28,1.47,1.47,0,0,0-1.54-1.65A2.06,2.06,0,0,0,1211.62,672.65Zm14.93,3.87h-.87v-4.13c0-1.09-.44-1.64-1.35-1.64a2.66,2.66,0,0,0-1.81.83,5.65,5.65,0,0,1,0,.57v4.37h-.87v-4.13c0-1.09-.45-1.64-1.36-1.64a2.67,2.67,0,0,0-1.78.74v5h-.86v-6.41l.86-.19v.89a3,3,0,0,1,2-.89,1.71,1.71,0,0,1,1.74,1.07,3.16,3.16,0,0,1,2.27-1.07c1.23,0,2,.8,2,2.22Zm5.33-1.42v-1.87c-2.16.24-3,.71-3,1.59a1.16,1.16,0,0,0,1.31,1.12,2.18,2.18,0,0,0,1.67-.84Zm0,.65h0a2.34,2.34,0,0,1-1.87,1,1.85,1.85,0,0,1-2-1.78q0-2.05,3.89-2.28v-.38a1.34,1.34,0,0,0-1.51-1.52,3.81,3.81,0,0,0-2.1.77l-.2-.82a4.55,4.55,0,0,1,2.38-.77,2,2,0,0,1,2.3,2.3v3.08c0,.5.11.66.64.64l-.06.72c-.82.05-1.3-.25-1.4-.91Zm3.79-7.76a.76.76,0,0,1-.15.45.54.54,0,0,1-.44.2.52.52,0,0,1-.43-.2.71.71,0,0,1-.16-.45.65.65,0,0,1,.16-.43.51.51,0,0,1,.43-.18.53.53,0,0,1,.44.18A.7.7,0,0,1,1235.72,668Zm-.15,8.53h-.87v-6.41l.87-.19Zm2.91,0V666.9l-.87.18v9.44Zm-139,13c1-.43,1.5-1,1.5-1.79a1.41,1.41,0,0,0-1.5-1.38,1.39,1.39,0,0,0-1.51,1.38C1098,688.51,1098.51,689.1,1099.51,689.53Zm2.17,2.62a6.35,6.35,0,0,0-2.54-2c-1.22.55-1.84,1.25-1.84,2.11a1.67,1.67,0,0,0,1.81,1.67A3.33,3.33,0,0,0,1101.68,692.15Zm.4.48a3.76,3.76,0,0,1-3.08,2.07,2.39,2.39,0,0,1-2.58-2.39,2.69,2.69,0,0,1,2.17-2.45,2.32,2.32,0,0,1-1.48-2.06,2.07,2.07,0,0,1,.7-1.54,2.46,2.46,0,0,1,1.77-.66,2.11,2.11,0,0,1,2.29,2.07,2.4,2.4,0,0,1-1.77,2.13,6.77,6.77,0,0,1,2.06,1.74l1.48-2.36h1l-2.1,2.83,2,2.45-.86.25Zm15.73,1.89h-.87v-4.13c0-1.09-.45-1.64-1.36-1.64a2.66,2.66,0,0,0-1.81.83,3.67,3.67,0,0,1,0,.57v4.37h-.87v-4.13c0-1.09-.44-1.64-1.35-1.64a2.67,2.67,0,0,0-1.78.74v5h-.87v-6.41l.87-.19v.89a3,3,0,0,1,2-.89,1.7,1.7,0,0,1,1.73,1.07,3.18,3.18,0,0,1,2.27-1.07c1.23,0,2,.8,2,2.22Zm7.8-3.22a3.35,3.35,0,0,1-.9,2.45,3.15,3.15,0,0,1-4.48,0,3.47,3.47,0,0,1-.86-2.45,3.41,3.41,0,0,1,.91-2.47,3,3,0,0,1,2.25-.94,2.91,2.91,0,0,1,2.23.93,3.45,3.45,0,0,1,.85,2.45Zm-.85,0c0-1.59-.9-2.62-2.27-2.62a2.63,2.63,0,1,0,2.27,2.62Zm8.06-.1a3.58,3.58,0,0,1-.88,2.49,2.94,2.94,0,0,1-2.28,1,3.56,3.56,0,0,1-1.57-.35l-.87.38v-9.65l.87-.18v3.88A2.7,2.7,0,0,1,1130,688c1.7,0,2.8,1.33,2.8,3.26Zm-.89,0c0-1.48-.82-2.51-2.08-2.51a2.53,2.53,0,0,0-1.76.72v3.93a2.52,2.52,0,0,0,1.61.51c1.37,0,2.23-1.07,2.23-2.65Zm3.48-5.28a.76.76,0,0,1-.15.45.54.54,0,0,1-.44.2.52.52,0,0,1-.43-.2.71.71,0,0,1-.16-.45.65.65,0,0,1,.16-.43.51.51,0,0,1,.43-.18.53.53,0,0,1,.44.18A.7.7,0,0,1,1135.41,686Zm-.15,8.53h-.87v-6.41l.87-.19Zm2.91,0V684.9l-.87.18v9.44Zm2.48-3.18v.07a2.28,2.28,0,0,0,2.24,2.48,3.37,3.37,0,0,0,1.86-.53l.17.79a3.8,3.8,0,0,1-2.06.55,3.07,3.07,0,0,1-3.1-3.33,3.6,3.6,0,0,1,.87-2.48,2.79,2.79,0,0,1,2.16-1,2.2,2.2,0,0,1,2.34,2.37,3.59,3.59,0,0,1-.14,1Zm0-.69h3.56a1.8,1.8,0,0,0,0-.28,1.46,1.46,0,0,0-1.54-1.65A2.07,2.07,0,0,0,1140.7,690.65Zm14.34,3.87h-.87v-4.15c0-1.12-.43-1.62-1.41-1.62a2.77,2.77,0,0,0-2,.91v4.86H1150v-6.41l.86-.19V689a3.1,3.1,0,0,1,2.19-1.05,1.93,1.93,0,0,1,2,2.2Zm1.92-6.41h.87v4.14q0,1.62,1.38,1.62a2.69,2.69,0,0,0,2-.91v-4.85h.86v6.41l-.86.18v-1a3.08,3.08,0,0,1-2.22,1,1.93,1.93,0,0,1-2-2.2Zm16,6.41h-.86v-4.13c0-1.09-.45-1.64-1.36-1.64a2.66,2.66,0,0,0-1.81.83,3.67,3.67,0,0,1,0,.57v4.37h-.87v-4.13c0-1.09-.45-1.64-1.36-1.64a2.64,2.64,0,0,0-1.77.74v5h-.87v-6.41l.87-.19v.89a3,3,0,0,1,2-.89,1.71,1.71,0,0,1,1.73,1.07,3.18,3.18,0,0,1,2.27-1.07c1.23,0,2,.8,2,2.22Zm7.58-3.29a3.58,3.58,0,0,1-.88,2.49,2.94,2.94,0,0,1-2.28,1,3.6,3.6,0,0,1-1.57-.35l-.87.38v-9.65l.87-.18v3.88a2.72,2.72,0,0,1,1.93-.81c1.7,0,2.8,1.33,2.8,3.26Zm-.89,0c0-1.48-.81-2.51-2.07-2.51a2.54,2.54,0,0,0-1.77.72v3.93a2.54,2.54,0,0,0,1.61.51c1.37,0,2.23-1.07,2.23-2.65Zm2.91.07v.07a2.28,2.28,0,0,0,2.24,2.48,3.37,3.37,0,0,0,1.86-.53l.17.79a3.8,3.8,0,0,1-2.06.55,3.07,3.07,0,0,1-3.1-3.33,3.6,3.6,0,0,1,.87-2.48,2.79,2.79,0,0,1,2.16-1,2.2,2.2,0,0,1,2.34,2.37,3.59,3.59,0,0,1-.14,1Zm0-.69h3.56a1.8,1.8,0,0,0,0-.28,1.46,1.46,0,0,0-1.54-1.65A2.07,2.07,0,0,0,1182.59,690.65Zm6.93-.25v4.12h-.87v-6.41l.87-.19v1.38a2.12,2.12,0,0,1,1.89-1.38,2.21,2.21,0,0,1,1.12.3l-.23.81a1.89,1.89,0,0,0-1-.28Q1190.25,688.75,1189.52,690.4Z"/>
      <g>
        <path class="clsm-6" d="M93.5,397.52v177"/>
        <path class="clsm-6" d="M93,494H790"/>
        <path class="clsm-6" d="M587,539h585"/>
        <path class="clsm-6" d="M977,577.52v-38"/>
        <path class="clsm-6" d="M1172,577.52v-38"/>
        <path class="clsm-6" d="M782,577.52v-38"/>
        <path class="clsm-6" d="M879.5,539.52v-22"/>
        <path class="clsm-6" d="M587,577.52v-38"/>
      </g>
      <circle class="clsm-2" cx="94" cy="576.52" r="5"/>
      <circle class="clsm-2" cx="977" cy="576.52" r="5"/>
      <circle class="clsm-2" cx="1172" cy="576.52" r="5"/>
      <circle class="clsm-2" cx="782" cy="576.52" r="5"/>
      <circle class="clsm-2" cx="587" cy="576.52" r="5"/>
      <rect class="clsm-2" x="1044.99" y="90.06" width="76" height="35" rx="10"/>
      <rect class="clsm-7" x="1044.99" y="225.06" width="76" height="35" rx="10"/>
      <rect class="clsm-4" x="1044.99" y="135.06" width="76" height="35" rx="10"/>
      <rect class="clsm-5" x="1045.99" y="181.06" width="74" height="33" rx="9"/>
      <path class="svgtext" d="M1143.6,113.06V101.81h-1.13v11.25Zm9.33,0h-1.11v-5.33c0-1.44-.56-2.09-1.82-2.09a3.54,3.54,0,0,0-2.5,1.17v6.25h-1.12v-8.25l1.12-.23v1.35a4,4,0,0,1,2.81-1.35c1.65,0,2.62,1,2.62,2.82Zm8.08-8v-4.16l1.12-.23v12.37H1161v-.78a3.43,3.43,0,0,1-2.39,1c-2.21,0-3.69-1.75-3.69-4.28a4.41,4.41,0,0,1,1.15-3.15,3.91,3.91,0,0,1,2.94-1.23A4.66,4.66,0,0,1,1161,105.08Zm0,1.19a3.29,3.29,0,0,0-2-.63c-1.76,0-2.88,1.37-2.88,3.35s1.08,3.27,2.74,3.27a3.1,3.1,0,0,0,2.19-.91v-5.08Zm5-4.18a.87.87,0,0,1-.2.58.69.69,0,0,1-.56.25.71.71,0,0,1-.56-.25.92.92,0,0,1-.19-.58.89.89,0,0,1,.19-.55.67.67,0,0,1,.56-.24.66.66,0,0,1,.56.24A.85.85,0,0,1,1166.05,102.09Zm-.2,11h-1.12v-8.25l1.12-.23Zm8.68-.47a4.76,4.76,0,0,1-2.56.7c-2.47,0-4-1.73-4-4.34a4.4,4.4,0,0,1,1.15-3.15,3.81,3.81,0,0,1,2.9-1.22,4.65,4.65,0,0,1,2.57.7l-.29,1a4,4,0,0,0-2.28-.67c-1.78,0-2.9,1.32-2.9,3.3s1.15,3.33,2.92,3.33a4.15,4.15,0,0,0,2.28-.69Zm6.37-1.35v-2.41c-2.77.3-3.83.91-3.83,2a1.51,1.51,0,0,0,1.69,1.44A2.81,2.81,0,0,0,1180.9,111.24Zm.07.83h0a3,3,0,0,1-2.41,1.22,2.37,2.37,0,0,1-2.61-2.29c0-1.76,1.67-2.73,5-2.93v-.49a1.72,1.72,0,0,0-1.94-2,5,5,0,0,0-2.7,1l-.26-1a5.8,5.8,0,0,1,3.06-1c2,0,3,1,3,3v4c0,.65.14.85.82.83l-.07.92C1181.71,113.31,1181.1,112.91,1181,112.07Zm7.64.82a4.24,4.24,0,0,1-1.83.44c-1.53,0-2.27-.87-2.22-2.6l.13-4.87-1.26-.08,0-.7,1.24-.29.06-1.87h1.06l0,1.93h2.75l0,1h-2.74l-.13,4.93c0,1,.36,1.55,1.21,1.55a4,4,0,0,0,1.58-.4Zm2.33-3.92v.09c0,1.89,1.17,3.19,2.88,3.19a4.32,4.32,0,0,0,2.39-.69l.22,1a4.92,4.92,0,0,1-2.65.7,3.94,3.94,0,0,1-4-4.28,4.61,4.61,0,0,1,1.12-3.19,3.55,3.55,0,0,1,2.77-1.24,2.83,2.83,0,0,1,3,3,4.41,4.41,0,0,1-.18,1.31Zm.07-.88,4.57,0a1.49,1.49,0,0,0,0-.36,1.88,1.88,0,0,0-2-2.12A2.66,2.66,0,0,0,1191,108.09Zm12.74,2.72c0,1.49-1.26,2.48-3,2.48a4.92,4.92,0,0,1-2.7-.74l.3-1a4.34,4.34,0,0,0,2.43.75c1.05,0,1.86-.52,1.86-1.38a1.07,1.07,0,0,0-.13-.53,1.7,1.7,0,0,0-.29-.37,2.05,2.05,0,0,0-.5-.29c-.23-.11-.41-.18-.52-.22l-.63-.2c-1.44-.43-2.4-1-2.4-2.34,0-1.47,1.17-2.37,2.79-2.37a5.38,5.38,0,0,1,2.51.61l-.33,1a4.49,4.49,0,0,0-2.25-.61c-1,0-1.65.46-1.65,1.26a.86.86,0,0,0,.12.48,1.6,1.6,0,0,0,.27.36,1.39,1.39,0,0,0,.49.29l.52.22c.13,0,.34.1.63.19,1.49.44,2.43,1,2.43,2.42Zm12.66,2.25h-1.12v-5.33c0-1.39-.59-2.09-1.76-2.09a3.62,3.62,0,0,0-2.56,1.17v6.25h-1.11V100.92l1.11-.23v5.2a4,4,0,0,1,2.86-1.31c1.62,0,2.58,1,2.58,2.82Zm10-4.14a4.38,4.38,0,0,1-1.15,3.15,3.83,3.83,0,0,1-2.9,1.22,3.74,3.74,0,0,1-2.86-1.19,4.93,4.93,0,0,1,0-6.32,3.83,3.83,0,0,1,2.9-1.2,3.69,3.69,0,0,1,2.86,1.19A4.4,4.4,0,0,1,1226.43,108.92Zm-1.1,0c0-2-1.15-3.36-2.91-3.36s-2.9,1.35-2.9,3.33,1.15,3.36,2.92,3.36S1225.33,110.93,1225.33,109Zm14.59,4.11h-1.12v-5.31c0-1.41-.57-2.11-1.74-2.11a3.45,3.45,0,0,0-2.33,1.06,5.84,5.84,0,0,1,0,.74v5.62h-1.12v-5.31c0-1.41-.57-2.11-1.74-2.11a3.43,3.43,0,0,0-2.29,1v6.47h-1.11v-8.25l1.11-.23v1.13a3.85,3.85,0,0,1,2.61-1.13,2.19,2.19,0,0,1,2.23,1.37,4.09,4.09,0,0,1,2.92-1.37c1.58,0,2.54,1,2.54,2.84Zm3.14-4.09v.09c0,1.89,1.17,3.19,2.88,3.19a4.32,4.32,0,0,0,2.39-.69l.22,1a4.92,4.92,0,0,1-2.65.7,3.94,3.94,0,0,1-4-4.28,4.61,4.61,0,0,1,1.12-3.19,3.55,3.55,0,0,1,2.77-1.24,2.83,2.83,0,0,1,3,3,4.41,4.41,0,0,1-.18,1.31Zm.07-.88,4.57,0a1.49,1.49,0,0,0,0-.36,1.88,1.88,0,0,0-2-2.12A2.66,2.66,0,0,0,1243.13,108.09Zm8.9-2.45a3.45,3.45,0,0,1,2.4-1c2.21,0,3.69,1.73,3.69,4.27a4.43,4.43,0,0,1-1.14,3.15,3.81,3.81,0,0,1-2.93,1.24,4.66,4.66,0,0,1-2-.43v4.39h-1.11V104.78l1.11-.24Zm0,.94v5a3.24,3.24,0,0,0,2.07.65c1.73,0,2.87-1.38,2.87-3.36s-1.07-3.26-2.72-3.26A3.19,3.19,0,0,0,1252,106.58Zm12.45,4.66v-2.41c-2.77.3-3.83.91-3.83,2a1.51,1.51,0,0,0,1.69,1.44A2.81,2.81,0,0,0,1264.48,111.24Zm.08.83h-.06a3,3,0,0,1-2.41,1.22,2.38,2.38,0,0,1-2.61-2.29c0-1.76,1.67-2.73,5-2.93v-.49a1.72,1.72,0,0,0-1.94-2,5,5,0,0,0-2.7,1l-.25-1a5.74,5.74,0,0,1,3.06-1c2,0,3,1,2.95,3v4c0,.65.14.85.83.83l-.07.92C1265.29,113.31,1264.68,112.91,1264.56,112.07Zm4.16-4.38a2,2,0,0,0,2.13,2.11,1.91,1.91,0,0,0,1.49-.61,2.16,2.16,0,0,0,.56-1.55,2.23,2.23,0,0,0-.54-1.55,2.05,2.05,0,0,0-1.57-.59,2,2,0,0,0-2.07,2.19Zm1,5.6c-1,.27-1.67.92-1.67,1.62,0,1,1.1,1.69,2.81,1.69s3.09-.83,3.09-1.94c0-.94-.79-1.32-2.5-1.32C1270.74,113.34,1270.16,113.33,1269.69,113.29Zm-1-.22c-.74-.27-1.11-.7-1.11-1.31a1.81,1.81,0,0,1,1.35-1.57,2.74,2.74,0,0,1-1.34-2.52,3,3,0,0,1,3.24-3.09,4,4,0,0,1,2,.48l2.28-.18.06,1.12-1.82-.18a2.89,2.89,0,0,1,.67,1.85,3,3,0,0,1-3.21,3,3.38,3.38,0,0,1-1.22-.24c-.61.26-.92.58-.92,1,0,.56.47.85,1.87.85h1.06c2.29,0,3.42.72,3.42,2.16a2.61,2.61,0,0,1-1.27,2.2,5.39,5.39,0,0,1-3.06.86c-2.22,0-3.73-1-3.73-2.41a2.2,2.2,0,0,1,1.78-2Zm8.39-4.1v.09c.05,1.89,1.17,3.19,2.88,3.19a4.32,4.32,0,0,0,2.39-.69l.22,1a4.92,4.92,0,0,1-2.65.7,3.94,3.94,0,0,1-4-4.28,4.61,4.61,0,0,1,1.12-3.19,3.53,3.53,0,0,1,2.77-1.24,2.83,2.83,0,0,1,3,3,4.41,4.41,0,0,1-.18,1.31Zm.07-.88,4.57,0a1.49,1.49,0,0,0,0-.36,1.88,1.88,0,0,0-2-2.12A2.66,2.66,0,0,0,1277.18,108.09Z"/>
      <path class="svgtext" d="M1143.6,204.06V192.81h-1.13v11.25Zm9.33,0h-1.11v-5.33c0-1.44-.56-2.09-1.82-2.09a3.54,3.54,0,0,0-2.5,1.17v6.25h-1.12v-8.25l1.12-.23v1.35a4,4,0,0,1,2.81-1.35c1.65,0,2.62,1,2.62,2.82Zm8.08-8v-4.16l1.12-.23v12.37H1161v-.78a3.43,3.43,0,0,1-2.39,1c-2.21,0-3.69-1.75-3.69-4.28a4.41,4.41,0,0,1,1.15-3.15,3.91,3.91,0,0,1,2.94-1.23A4.66,4.66,0,0,1,1161,196.08Zm0,1.19a3.29,3.29,0,0,0-2-.63c-1.76,0-2.88,1.37-2.88,3.35s1.08,3.27,2.74,3.27a3.1,3.1,0,0,0,2.19-.91v-5.08Zm5-4.18a.87.87,0,0,1-.2.58.69.69,0,0,1-.56.25.71.71,0,0,1-.56-.25.92.92,0,0,1-.19-.58.89.89,0,0,1,.19-.55.67.67,0,0,1,.56-.24.66.66,0,0,1,.56.24A.85.85,0,0,1,1166.05,193.09Zm-.2,11h-1.12v-8.25l1.12-.23Zm8.68-.47a4.76,4.76,0,0,1-2.56.7c-2.47,0-4-1.73-4-4.34a4.4,4.4,0,0,1,1.15-3.15,3.81,3.81,0,0,1,2.9-1.22,4.65,4.65,0,0,1,2.57.7l-.29,1a4,4,0,0,0-2.28-.67c-1.78,0-2.9,1.32-2.9,3.3s1.15,3.33,2.92,3.33a4.15,4.15,0,0,0,2.28-.69Zm6.37-1.35v-2.41c-2.77.3-3.83.91-3.83,2a1.51,1.51,0,0,0,1.69,1.44A2.81,2.81,0,0,0,1180.9,202.24Zm.07.83h0a3,3,0,0,1-2.41,1.22,2.37,2.37,0,0,1-2.61-2.29c0-1.76,1.67-2.73,5-2.93v-.49a1.72,1.72,0,0,0-1.94-2,5,5,0,0,0-2.7,1l-.26-1a5.8,5.8,0,0,1,3.06-1c2,0,3,1,3,2.95v4c0,.65.14.85.82.83l-.07.92C1181.71,204.31,1181.1,203.91,1181,203.07Zm7.64.82a4.24,4.24,0,0,1-1.83.44c-1.53,0-2.27-.87-2.22-2.6l.13-4.87-1.26-.08,0-.7,1.24-.29.06-1.87h1.06l0,1.93h2.75l0,1h-2.74l-.13,4.93c0,1,.36,1.55,1.21,1.55a4,4,0,0,0,1.58-.4Zm2.33-3.92v.09c0,1.89,1.17,3.19,2.88,3.19a4.32,4.32,0,0,0,2.39-.69l.22,1a4.92,4.92,0,0,1-2.65.7,3.94,3.94,0,0,1-4-4.28,4.61,4.61,0,0,1,1.12-3.19,3.55,3.55,0,0,1,2.77-1.24,2.83,2.83,0,0,1,3,3,4.41,4.41,0,0,1-.18,1.31Zm.07-.88,4.57,0a1.49,1.49,0,0,0,0-.36,1.88,1.88,0,0,0-2-2.12A2.66,2.66,0,0,0,1191,199.09Zm12.74,2.72c0,1.49-1.26,2.48-3,2.48a4.92,4.92,0,0,1-2.7-.74l.3-1a4.34,4.34,0,0,0,2.43.75c1.05,0,1.86-.52,1.86-1.38a1.07,1.07,0,0,0-.13-.53,1.7,1.7,0,0,0-.29-.37,2.05,2.05,0,0,0-.5-.29c-.23-.11-.41-.18-.52-.22l-.63-.2c-1.44-.43-2.4-1-2.4-2.34,0-1.47,1.17-2.37,2.79-2.37a5.38,5.38,0,0,1,2.51.61l-.33,1a4.49,4.49,0,0,0-2.25-.61c-1,0-1.65.46-1.65,1.26a.86.86,0,0,0,.12.48,1.6,1.6,0,0,0,.27.36,1.39,1.39,0,0,0,.49.29l.52.22c.13.05.34.1.63.19,1.49.44,2.43,1.05,2.43,2.42Zm11.06,0c0,1.49-1.26,2.48-3,2.48a5,5,0,0,1-2.7-.74l.31-1a4.34,4.34,0,0,0,2.43.75c1,0,1.85-.52,1.85-1.38a1.06,1.06,0,0,0-.12-.53,1.7,1.7,0,0,0-.29-.37,2.05,2.05,0,0,0-.5-.29c-.24-.11-.42-.18-.53-.22l-.63-.2c-1.44-.43-2.39-1-2.39-2.34,0-1.47,1.17-2.37,2.79-2.37a5.34,5.34,0,0,1,2.5.61l-.32,1a4.51,4.51,0,0,0-2.25-.61c-1,0-1.66.46-1.66,1.26a.86.86,0,0,0,.13.48,1.6,1.6,0,0,0,.27.36,1.43,1.43,0,0,0,.48.29l.53.22c.12.05.34.1.63.19,1.49.44,2.43,1.05,2.43,2.42Zm2.6-1.84v.09c.06,1.89,1.17,3.19,2.88,3.19a4.38,4.38,0,0,0,2.4-.69l.21,1a4.89,4.89,0,0,1-2.64.7,3.94,3.94,0,0,1-4-4.28,4.66,4.66,0,0,1,1.11-3.19,3.55,3.55,0,0,1,2.78-1.24,2.82,2.82,0,0,1,3,3,4.11,4.11,0,0,1-.18,1.31Zm.07-.88,4.58,0a3,3,0,0,0,0-.36,1.88,1.88,0,0,0-2-2.12A2.66,2.66,0,0,0,1217.48,199.09Zm13.84,4.5a4.73,4.73,0,0,1-2.56.7c-2.46,0-4-1.73-4-4.34a4.4,4.4,0,0,1,1.15-3.15,3.81,3.81,0,0,1,2.9-1.22,4.68,4.68,0,0,1,2.58.7l-.29,1a4,4,0,0,0-2.29-.67c-1.78,0-2.9,1.32-2.9,3.3s1.16,3.33,2.92,3.33a4.18,4.18,0,0,0,2.29-.69Zm9.47-3.67a4.34,4.34,0,0,1-1.15,3.15,3.83,3.83,0,0,1-2.9,1.22,3.74,3.74,0,0,1-2.86-1.19,5,5,0,0,1,.06-6.32,3.79,3.79,0,0,1,2.89-1.2,3.73,3.73,0,0,1,2.87,1.19A4.44,4.44,0,0,1,1240.79,199.92Zm-1.09,0c0-2-1.16-3.36-2.92-3.36s-2.9,1.35-2.9,3.33,1.15,3.36,2.92,3.36S1239.7,201.93,1239.7,200Zm9.72,4.11h-1.12v-5.33c0-1.44-.55-2.09-1.81-2.09a3.56,3.56,0,0,0-2.51,1.17v6.25h-1.11v-8.25l1.11-.23v1.35a4,4,0,0,1,2.81-1.35c1.66,0,2.63,1,2.63,2.82Zm8.08-8v-4.16l1.12-.23v12.37h-1.12v-.78a3.43,3.43,0,0,1-2.39,1c-2.22,0-3.69-1.75-3.69-4.28a4.37,4.37,0,0,1,1.15-3.15,3.87,3.87,0,0,1,2.93-1.23,4.7,4.7,0,0,1,2,.45Zm0,1.19a3.29,3.29,0,0,0-2-.63c-1.77,0-2.88,1.37-2.88,3.35s1.08,3.27,2.73,3.27a3.14,3.14,0,0,0,2.2-.91v-5.08Zm8,5v-2.41c-2.77.3-3.83.91-3.83,2a1.51,1.51,0,0,0,1.69,1.44A2.81,2.81,0,0,0,1265.5,202.24Zm.08.83h-.06a3,3,0,0,1-2.41,1.22,2.38,2.38,0,0,1-2.61-2.29c0-1.76,1.67-2.73,5-2.93v-.49a1.72,1.72,0,0,0-1.94-2,5,5,0,0,0-2.7,1l-.25-1a5.74,5.74,0,0,1,3.06-1c2,0,3,1,2.95,2.95v4c0,.65.14.85.83.83l-.07.92C1266.31,204.31,1265.7,203.91,1265.58,203.07Zm4.65-4.31v5.3h-1.12v-8.25l1.12-.23v1.76a2.7,2.7,0,0,1,2.43-1.76,2.8,2.8,0,0,1,1.44.38l-.29,1a2.48,2.48,0,0,0-1.26-.36c-.92,0-1.69.7-2.32,2.12Zm11.83-2.95-3.21,8.16-.66,1.78c-.72,2-1.48,2.59-2.67,2.59a4.16,4.16,0,0,1-1.6-.38l.34-1a2.82,2.82,0,0,0,1.26.36c.69,0,1.14-.42,1.69-1.91l.56-1.46-3.22-8.12h1.21l2.59,6.81,2.54-6.81Zm12,8.25H1293v-5.33c0-1.44-.56-2.09-1.82-2.09a3.56,3.56,0,0,0-2.5,1.17v6.25h-1.11v-8.25l1.11-.23v1.35a4,4,0,0,1,2.81-1.35c1.66,0,2.63,1,2.63,2.82Zm6.84-1.82v-2.41c-2.78.3-3.84.91-3.84,2a1.51,1.51,0,0,0,1.69,1.44A2.81,2.81,0,0,0,1300.91,202.24Zm.07.83h-.06a3,3,0,0,1-2.41,1.22,2.38,2.38,0,0,1-2.61-2.29c0-1.76,1.68-2.73,5-2.93v-.49a1.73,1.73,0,0,0-2-2,5,5,0,0,0-2.7,1l-.25-1a5.77,5.77,0,0,1,3.06-1c2,0,3,1,3,2.95v4c0,.65.15.85.83.83l-.07.92C1301.72,204.31,1301.1,203.91,1301,203.07Zm9.8-7.26h-1.17l-2.52,6.81-2.61-6.81h-1.21l3.26,8.26h1Zm2.7-2.72a.92.92,0,0,1-.2.58.75.75,0,0,1-1.12,0,.92.92,0,0,1-.2-.58.9.9,0,0,1,.2-.55.77.77,0,0,1,1.12,0A.9.9,0,0,1,1313.48,193.09Zm-.2,11h-1.12v-8.25l1.12-.23Zm3.26-5.37a2,2,0,0,0,2.12,2.11,1.89,1.89,0,0,0,1.49-.61,2.16,2.16,0,0,0,.56-1.55,2.23,2.23,0,0,0-.54-1.55,2,2,0,0,0-1.56-.59A2,2,0,0,0,1316.54,198.69Zm1,5.6c-1,.27-1.68.92-1.68,1.62,0,1,1.1,1.69,2.81,1.69s3.1-.83,3.1-1.94c0-.94-.79-1.32-2.5-1.32C1318.55,204.34,1318,204.33,1317.51,204.29Zm-1-.22c-.74-.27-1.12-.7-1.12-1.31a1.83,1.83,0,0,1,1.35-1.57,2.75,2.75,0,0,1-1.33-2.52,3,3,0,0,1,3.24-3.09,3.9,3.9,0,0,1,1.94.48l2.29-.18,0,1.12-1.82-.18a2.89,2.89,0,0,1,.67,1.85,3,3,0,0,1-3.2,3,3.43,3.43,0,0,1-1.23-.24c-.61.26-.92.58-.92,1,0,.56.47.85,1.88.85h1.06q3.42,0,3.42,2.16a2.6,2.6,0,0,1-1.28,2.2,5.37,5.37,0,0,1-3.06.86c-2.21,0-3.73-1-3.73-2.41a2.2,2.2,0,0,1,1.79-2Zm12.09-1.83v-2.41c-2.77.3-3.84.91-3.84,2a1.52,1.52,0,0,0,1.7,1.44A2.81,2.81,0,0,0,1328.63,202.24Zm.07.83h0a3,3,0,0,1-2.42,1.22,2.38,2.38,0,0,1-2.61-2.29c0-1.76,1.68-2.73,5-2.93v-.49a1.73,1.73,0,0,0-2-2,5,5,0,0,0-2.7,1l-.25-1a5.77,5.77,0,0,1,3.06-1c2,0,3,1,3,2.95v4c0,.65.15.85.83.83l-.07.92C1329.44,204.31,1328.83,203.91,1328.7,203.07Zm7.64.82a4.25,4.25,0,0,1-1.84.44c-1.53,0-2.26-.87-2.21-2.6l.13-4.87-1.26-.08,0-.7,1.24-.29.06-1.87h1.06l-.06,1.93h2.76l-.06,1h-2.73l-.13,4.93c0,1,.36,1.55,1.21,1.55a4,4,0,0,0,1.58-.4Zm3.15-10.8a.87.87,0,0,1-.2.58.74.74,0,0,1-1.11,0,.87.87,0,0,1-.2-.58.85.85,0,0,1,.2-.55.64.64,0,0,1,.56-.24.64.64,0,0,1,.55.24A.85.85,0,0,1,1339.49,193.09Zm-.2,11h-1.11v-8.25l1.11-.23Zm10.12-4.14a4.38,4.38,0,0,1-1.15,3.15,3.84,3.84,0,0,1-2.9,1.22,3.73,3.73,0,0,1-2.86-1.19,4.93,4.93,0,0,1,0-6.32,3.81,3.81,0,0,1,2.9-1.2,3.71,3.71,0,0,1,2.86,1.19A4.4,4.4,0,0,1,1349.41,199.92Zm-1.1,0c0-2-1.15-3.36-2.92-3.36s-2.89,1.35-2.89,3.33,1.15,3.36,2.91,3.36S1348.31,201.93,1348.31,200Zm9.73,4.11h-1.12v-5.33c0-1.44-.56-2.09-1.82-2.09a3.54,3.54,0,0,0-2.5,1.17v6.25h-1.12v-8.25l1.12-.23v1.35a4,4,0,0,1,2.81-1.35c1.65,0,2.63,1,2.63,2.82Z"/>
      <path class="svgtext" d="M1143.6,158.06V146.81h-1.13v11.25Zm9.33,0h-1.11v-5.33c0-1.44-.56-2.09-1.82-2.09a3.54,3.54,0,0,0-2.5,1.17v6.25h-1.12v-8.25l1.12-.23v1.35a4,4,0,0,1,2.81-1.35c1.65,0,2.62,1,2.62,2.82Zm8.08-8v-4.16l1.12-.23v12.37H1161v-.78a3.43,3.43,0,0,1-2.39,1c-2.21,0-3.69-1.75-3.69-4.28a4.41,4.41,0,0,1,1.15-3.15,3.91,3.91,0,0,1,2.94-1.23A4.66,4.66,0,0,1,1161,150.08Zm0,1.19a3.29,3.29,0,0,0-2-.63c-1.76,0-2.88,1.37-2.88,3.35s1.08,3.27,2.74,3.27a3.1,3.1,0,0,0,2.19-.91v-5.08Zm5-4.18a.87.87,0,0,1-.2.58.69.69,0,0,1-.56.25.71.71,0,0,1-.56-.25.92.92,0,0,1-.19-.58.89.89,0,0,1,.19-.55.67.67,0,0,1,.56-.24.66.66,0,0,1,.56.24A.85.85,0,0,1,1166.05,147.09Zm-.2,11h-1.12v-8.25l1.12-.23Zm8.68-.47a4.76,4.76,0,0,1-2.56.7c-2.47,0-4-1.73-4-4.34a4.4,4.4,0,0,1,1.15-3.15,3.81,3.81,0,0,1,2.9-1.22,4.65,4.65,0,0,1,2.57.7l-.29,1a4,4,0,0,0-2.28-.67c-1.78,0-2.9,1.32-2.9,3.3s1.15,3.33,2.92,3.33a4.15,4.15,0,0,0,2.28-.69Zm6.37-1.35v-2.41c-2.77.3-3.83.91-3.83,2a1.51,1.51,0,0,0,1.69,1.44A2.81,2.81,0,0,0,1180.9,156.24Zm.07.83h0a3,3,0,0,1-2.41,1.22,2.37,2.37,0,0,1-2.61-2.29c0-1.76,1.67-2.73,5-2.93v-.49a1.72,1.72,0,0,0-1.94-2,5,5,0,0,0-2.7,1l-.26-1a5.8,5.8,0,0,1,3.06-1c2,0,3,1,3,2.95v4c0,.65.14.85.82.83l-.07.92C1181.71,158.31,1181.1,157.91,1181,157.07Zm7.64.82a4.24,4.24,0,0,1-1.83.44c-1.53,0-2.27-.87-2.22-2.6l.13-4.87-1.26-.08,0-.7,1.24-.29.06-1.87h1.06l0,1.93h2.75l0,1h-2.74l-.13,4.93c0,1,.36,1.55,1.21,1.55a4,4,0,0,0,1.58-.4Zm2.33-3.92v.09c0,1.89,1.17,3.19,2.88,3.19a4.32,4.32,0,0,0,2.39-.69l.22,1a4.92,4.92,0,0,1-2.65.7,3.94,3.94,0,0,1-4-4.28,4.61,4.61,0,0,1,1.12-3.19,3.55,3.55,0,0,1,2.77-1.24,2.83,2.83,0,0,1,3,3,4.41,4.41,0,0,1-.18,1.31Zm.07-.88,4.57,0a1.49,1.49,0,0,0,0-.36,1.88,1.88,0,0,0-2-2.12A2.66,2.66,0,0,0,1191,153.09Zm12.74,2.72c0,1.49-1.26,2.48-3,2.48a4.92,4.92,0,0,1-2.7-.74l.3-1a4.34,4.34,0,0,0,2.43.75c1.05,0,1.86-.52,1.86-1.38a1.07,1.07,0,0,0-.13-.53,1.7,1.7,0,0,0-.29-.37,2.05,2.05,0,0,0-.5-.29c-.23-.11-.41-.18-.52-.22l-.63-.2c-1.44-.43-2.4-1-2.4-2.34,0-1.47,1.17-2.37,2.79-2.37a5.38,5.38,0,0,1,2.51.61l-.33,1a4.49,4.49,0,0,0-2.25-.61c-1,0-1.65.46-1.65,1.26a.86.86,0,0,0,.12.48,1.6,1.6,0,0,0,.27.36,1.39,1.39,0,0,0,.49.29l.52.22c.13.05.34.1.63.19,1.49.44,2.43,1.05,2.43,2.42Zm7.22-5.17a3.43,3.43,0,0,1,2.4-1c2.21,0,3.69,1.73,3.69,4.27a4.43,4.43,0,0,1-1.14,3.15,3.81,3.81,0,0,1-2.93,1.24,4.63,4.63,0,0,1-2-.43v4.39h-1.11V149.78l1.11-.24Zm0,.94v5a3.22,3.22,0,0,0,2.07.65c1.73,0,2.86-1.38,2.86-3.36s-1.06-3.26-2.71-3.26A3.19,3.19,0,0,0,1211,151.58Zm9.27,1.18v5.3h-1.12v-8.25l1.12-.23v1.76a2.7,2.7,0,0,1,2.43-1.76,2.8,2.8,0,0,1,1.44.38l-.29,1a2.48,2.48,0,0,0-1.26-.36c-.92,0-1.69.7-2.32,2.12Zm6.63-5.67a.87.87,0,0,1-.2.58.69.69,0,0,1-.56.25.71.71,0,0,1-.56-.25.92.92,0,0,1-.19-.58.89.89,0,0,1,.19-.55.67.67,0,0,1,.56-.24.66.66,0,0,1,.56.24A.85.85,0,0,1,1226.87,147.09Zm-.2,11h-1.12v-8.25l1.12-.23Zm14,0h-1.12v-5.31c0-1.41-.57-2.11-1.74-2.11a3.42,3.42,0,0,0-2.32,1.06c0,.15,0,.4,0,.74v5.62h-1.11v-5.31c0-1.41-.58-2.11-1.75-2.11a3.43,3.43,0,0,0-2.29,1v6.47h-1.11v-8.25l1.11-.23v1.13a3.87,3.87,0,0,1,2.61-1.13,2.21,2.21,0,0,1,2.24,1.37,4.07,4.07,0,0,1,2.91-1.37c1.59,0,2.54,1,2.54,2.84Zm6.85-1.82v-2.41c-2.78.3-3.84.91-3.84,2a1.51,1.51,0,0,0,1.69,1.44A2.81,2.81,0,0,0,1247.56,156.24Zm.07.83h-.06a3,3,0,0,1-2.41,1.22,2.38,2.38,0,0,1-2.61-2.29c0-1.76,1.68-2.73,5-2.93v-.49a1.73,1.73,0,0,0-2-2,5,5,0,0,0-2.7,1l-.25-1a5.77,5.77,0,0,1,3.06-1c2,0,3,1,3,2.95v4c0,.65.15.85.83.83l-.07.92C1248.37,158.31,1247.75,157.91,1247.63,157.07Zm4.65-4.31v5.3h-1.12v-8.25l1.12-.23v1.76a2.7,2.7,0,0,1,2.43-1.76,2.8,2.8,0,0,1,1.44.38l-.29,1a2.45,2.45,0,0,0-1.26-.36C1253.68,150.64,1252.91,151.34,1252.28,152.76Zm11.83-2.95L1260.9,158l-.66,1.78c-.72,2-1.48,2.59-2.67,2.59a4.2,4.2,0,0,1-1.6-.38l.34-1a2.82,2.82,0,0,0,1.26.36c.69,0,1.14-.42,1.7-1.91l.55-1.46-3.22-8.12h1.21l2.59,6.81,2.54-6.81Zm12,8.25H1275v-5.33c0-1.44-.56-2.09-1.82-2.09a3.54,3.54,0,0,0-2.5,1.17v6.25h-1.12v-8.25l1.12-.23v1.35a4,4,0,0,1,2.8-1.35c1.66,0,2.63,1,2.63,2.82Zm6.84-1.82v-2.41c-2.77.3-3.83.91-3.83,2a1.51,1.51,0,0,0,1.69,1.44A2.81,2.81,0,0,0,1283,156.24Zm.07.83h0a3,3,0,0,1-2.41,1.22A2.37,2.37,0,0,1,1278,156c0-1.76,1.67-2.73,5-2.93v-.49a1.72,1.72,0,0,0-1.94-2,5,5,0,0,0-2.7,1l-.26-1a5.8,5.8,0,0,1,3.06-1c2,0,3,1,3,2.95v4c0,.65.14.85.82.83l-.07.92C1283.77,158.31,1283.16,157.91,1283,157.07Zm9.8-7.26h-1.17l-2.52,6.81-2.61-6.81h-1.2l3.25,8.26h1Zm2.7-2.72a.87.87,0,0,1-.2.58.69.69,0,0,1-.56.25.71.71,0,0,1-.56-.25.92.92,0,0,1-.19-.58.89.89,0,0,1,.19-.55.67.67,0,0,1,.56-.24.66.66,0,0,1,.56.24A.85.85,0,0,1,1295.53,147.09Zm-.2,11h-1.12v-8.25l1.12-.23Zm3.26-5.37a2,2,0,0,0,2.12,2.11,1.93,1.93,0,0,0,1.5-.61,2.19,2.19,0,0,0,.55-1.55,2.23,2.23,0,0,0-.54-1.55,2,2,0,0,0-1.56-.59A2,2,0,0,0,1298.59,152.69Zm1,5.6c-1,.27-1.67.92-1.67,1.62,0,1,1.09,1.69,2.8,1.69s3.1-.83,3.1-1.94c0-.94-.79-1.32-2.5-1.32C1300.6,158.34,1300,158.33,1299.56,158.29Zm-1-.22c-.74-.27-1.12-.7-1.12-1.31a1.83,1.83,0,0,1,1.35-1.57,2.75,2.75,0,0,1-1.33-2.52,3,3,0,0,1,3.24-3.09,3.9,3.9,0,0,1,1.94.48l2.29-.18,0,1.12-1.81-.18a2.94,2.94,0,0,1,.66,1.85,3,3,0,0,1-3.2,3,3.43,3.43,0,0,1-1.23-.24c-.61.26-.91.58-.91,1,0,.56.46.85,1.87.85h1.06c2.29,0,3.42.72,3.42,2.16a2.6,2.6,0,0,1-1.28,2.2,5.35,5.35,0,0,1-3.06.86c-2.21,0-3.72-1-3.72-2.41a2.2,2.2,0,0,1,1.78-2Zm12.09-1.83v-2.41c-2.77.3-3.83.91-3.83,2a1.51,1.51,0,0,0,1.69,1.44A2.81,2.81,0,0,0,1310.68,156.24Zm.07.83h0a3,3,0,0,1-2.41,1.22,2.37,2.37,0,0,1-2.61-2.29c0-1.76,1.67-2.73,5-2.93v-.49a1.72,1.72,0,0,0-1.94-2,5,5,0,0,0-2.7,1l-.26-1a5.8,5.8,0,0,1,3.06-1c2,0,3,1,3,2.95v4c0,.65.14.85.82.83l-.07.92C1311.49,158.31,1310.88,157.91,1310.75,157.07Zm7.64.82a4.24,4.24,0,0,1-1.83.44c-1.53,0-2.27-.87-2.22-2.6l.13-4.87-1.26-.08,0-.7,1.24-.29.06-1.87h1.06l0,1.93h2.75l0,1h-2.74l-.13,4.93c0,1,.36,1.55,1.21,1.55a4,4,0,0,0,1.58-.4Zm3.15-10.8a.92.92,0,0,1-.19.58.71.71,0,0,1-.56.25.69.69,0,0,1-.56-.25.87.87,0,0,1-.2-.58.85.85,0,0,1,.2-.55.66.66,0,0,1,.56-.24.67.67,0,0,1,.56.24A.89.89,0,0,1,1321.54,147.09Zm-.19,11h-1.12v-8.25l1.12-.23Zm10.11-4.14a4.38,4.38,0,0,1-1.15,3.15,3.83,3.83,0,0,1-2.9,1.22,3.74,3.74,0,0,1-2.86-1.19,4.93,4.93,0,0,1,0-6.32,3.83,3.83,0,0,1,2.9-1.2,3.69,3.69,0,0,1,2.86,1.19A4.4,4.4,0,0,1,1331.46,153.92Zm-1.1,0c0-2-1.15-3.36-2.91-3.36s-2.9,1.35-2.9,3.33,1.15,3.36,2.92,3.36S1330.36,155.93,1330.36,154Zm9.73,4.11H1339v-5.33c0-1.44-.56-2.09-1.82-2.09a3.56,3.56,0,0,0-2.5,1.17v6.25h-1.11v-8.25l1.11-.23v1.35a4,4,0,0,1,2.81-1.35c1.66,0,2.63,1,2.63,2.82Z"/>
      <path class="svgtext" d="M1143.6,249.06V237.81h-1.13v11.25Zm9.33,0h-1.11v-5.33c0-1.44-.56-2.09-1.82-2.09a3.54,3.54,0,0,0-2.5,1.17v6.25h-1.12v-8.25l1.12-.23v1.35a4,4,0,0,1,2.81-1.35c1.65,0,2.62,1,2.62,2.82Zm8.08-8v-4.16l1.12-.23v12.37H1161v-.78a3.43,3.43,0,0,1-2.39,1c-2.21,0-3.69-1.75-3.69-4.28a4.41,4.41,0,0,1,1.15-3.15,3.91,3.91,0,0,1,2.94-1.23A4.66,4.66,0,0,1,1161,241.08Zm0,1.19a3.29,3.29,0,0,0-2-.63c-1.76,0-2.88,1.37-2.88,3.35s1.08,3.27,2.74,3.27a3.1,3.1,0,0,0,2.19-.91v-5.08Zm5-4.18a.87.87,0,0,1-.2.58.69.69,0,0,1-.56.25.71.71,0,0,1-.56-.25.92.92,0,0,1-.19-.58.89.89,0,0,1,.19-.55.67.67,0,0,1,.56-.24.66.66,0,0,1,.56.24A.85.85,0,0,1,1166.05,238.09Zm-.2,11h-1.12v-8.25l1.12-.23Zm8.68-.47a4.76,4.76,0,0,1-2.56.7c-2.47,0-4-1.73-4-4.34a4.4,4.4,0,0,1,1.15-3.15,3.81,3.81,0,0,1,2.9-1.22,4.65,4.65,0,0,1,2.57.7l-.29,1a4,4,0,0,0-2.28-.67c-1.78,0-2.9,1.32-2.9,3.3s1.15,3.33,2.92,3.33a4.15,4.15,0,0,0,2.28-.69Zm6.37-1.35v-2.41c-2.77.3-3.83.91-3.83,2a1.51,1.51,0,0,0,1.69,1.44A2.81,2.81,0,0,0,1180.9,247.24Zm.07.83h0a3,3,0,0,1-2.41,1.22,2.37,2.37,0,0,1-2.61-2.29c0-1.76,1.67-2.73,5-2.93v-.49a1.72,1.72,0,0,0-1.94-2,5,5,0,0,0-2.7,1l-.26-1a5.8,5.8,0,0,1,3.06-1c2,0,3,1,3,2.95v4c0,.65.14.85.82.83l-.07.92C1181.71,249.31,1181.1,248.91,1181,248.07Zm7.64.82a4.24,4.24,0,0,1-1.83.44c-1.53,0-2.27-.87-2.22-2.6l.13-4.87-1.26-.08,0-.7,1.24-.29.06-1.87h1.06l0,1.93h2.75l0,1h-2.74l-.13,4.93c0,1,.36,1.55,1.21,1.55a4,4,0,0,0,1.58-.4Zm2.33-3.92v.09c0,1.89,1.17,3.19,2.88,3.19a4.32,4.32,0,0,0,2.39-.69l.22,1a4.92,4.92,0,0,1-2.65.7,3.94,3.94,0,0,1-4-4.28,4.61,4.61,0,0,1,1.12-3.19,3.55,3.55,0,0,1,2.77-1.24,2.83,2.83,0,0,1,3,3,4.41,4.41,0,0,1-.18,1.31Zm.07-.88,4.57,0a1.49,1.49,0,0,0,0-.36,1.88,1.88,0,0,0-2-2.12A2.66,2.66,0,0,0,1191,244.09Zm12.74,2.72c0,1.49-1.26,2.48-3,2.48a4.92,4.92,0,0,1-2.7-.74l.3-1a4.34,4.34,0,0,0,2.43.75c1.05,0,1.86-.52,1.86-1.38a1.07,1.07,0,0,0-.13-.53,1.7,1.7,0,0,0-.29-.37,2.05,2.05,0,0,0-.5-.29c-.23-.11-.41-.18-.52-.22l-.63-.2c-1.44-.43-2.4-1-2.4-2.34,0-1.47,1.17-2.37,2.79-2.37a5.38,5.38,0,0,1,2.51.61l-.33,1a4.49,4.49,0,0,0-2.25-.61c-1,0-1.65.46-1.65,1.26a.86.86,0,0,0,.12.48,1.6,1.6,0,0,0,.27.36,1.39,1.39,0,0,0,.49.29l.52.22c.13.05.34.1.63.19,1.49.44,2.43,1.05,2.43,2.42Zm14.57-8.32-.36,1a5.7,5.7,0,0,0-3.14-.9c-2.53,0-4.24,1.78-4.24,4.8s1.67,4.83,4.28,4.83a5.18,5.18,0,0,0,3.15-1l.22,1.13a6.09,6.09,0,0,1-3.39.92,5.12,5.12,0,0,1-3.94-1.58,6.79,6.79,0,0,1,0-8.54,5.13,5.13,0,0,1,3.9-1.6,6.58,6.58,0,0,1,3.48.92Zm6.39,8.75v-2.41c-2.78.3-3.84.91-3.84,2a1.51,1.51,0,0,0,1.69,1.44A2.81,2.81,0,0,0,1224.71,247.24Zm.07.83h-.06a3,3,0,0,1-2.41,1.22,2.38,2.38,0,0,1-2.61-2.29c0-1.76,1.68-2.73,5-2.93v-.49a1.73,1.73,0,0,0-2-2,5,5,0,0,0-2.7,1l-.25-1a5.77,5.77,0,0,1,3.06-1c2,0,3,1,3,2.95v4c0,.65.15.85.83.83l-.07.92C1225.52,249.31,1224.9,248.91,1224.78,248.07Zm4.65,1V236.69l-1.12.23v12.14Zm3.71,0V236.69l-1.12.23v12.14Zm6-3.86v-1h-4.07v1Zm6,3.69a4.24,4.24,0,0,1-1.83.44c-1.53,0-2.27-.87-2.22-2.6l.13-4.87-1.26-.08,0-.7,1.24-.29.06-1.87h1.06l0,1.93H1245l0,1h-2.74l-.13,4.93c0,1,.36,1.55,1.21,1.55a4,4,0,0,0,1.58-.4Zm9.22-4a4.38,4.38,0,0,1-1.15,3.15,3.83,3.83,0,0,1-2.9,1.22,3.74,3.74,0,0,1-2.86-1.19,4.93,4.93,0,0,1,0-6.32,3.83,3.83,0,0,1,2.9-1.2,3.69,3.69,0,0,1,2.86,1.19A4.4,4.4,0,0,1,1254.31,244.92Zm-1.1,0c0-2-1.15-3.36-2.91-3.36s-2.9,1.35-2.9,3.33,1.15,3.36,2.92,3.36S1253.21,246.93,1253.21,245Zm6.56.25v-1h-4.07v1Zm6.37-7.39h-1.35l-4.26,11.25h1.17l1.19-3.23H1268l1.19,3.23h1.17Zm1.44,7h-4.3l2.16-5.85Zm10.38,3.8a4.76,4.76,0,0,1-2.56.7c-2.47,0-4-1.73-4-4.34a4.4,4.4,0,0,1,1.15-3.15,3.81,3.81,0,0,1,2.9-1.22,4.65,4.65,0,0,1,2.57.7l-.29,1a4,4,0,0,0-2.28-.67c-1.78,0-2.9,1.32-2.9,3.3s1.15,3.33,2.92,3.33a4.15,4.15,0,0,0,2.28-.69Zm6.17.3a4.24,4.24,0,0,1-1.83.44c-1.53,0-2.27-.87-2.22-2.6l.13-4.87-1.26-.08,0-.7,1.24-.29.06-1.87h1.06l0,1.93h2.75l0,1h-2.74l-.13,4.93c0,1,.36,1.55,1.21,1.55a4,4,0,0,0,1.58-.4Zm3.15-10.8a.92.92,0,0,1-.19.58.71.71,0,0,1-.56.25.69.69,0,0,1-.56-.25.87.87,0,0,1-.2-.58.85.85,0,0,1,.2-.55.66.66,0,0,1,.56-.24.67.67,0,0,1,.56.24A.89.89,0,0,1,1287.28,238.09Zm-.19,11H1286v-8.25l1.12-.23Zm10.11-4.14a4.38,4.38,0,0,1-1.15,3.15,3.83,3.83,0,0,1-2.9,1.22,3.74,3.74,0,0,1-2.86-1.19,4.93,4.93,0,0,1,0-6.32,3.83,3.83,0,0,1,2.9-1.2,3.69,3.69,0,0,1,2.86,1.19A4.4,4.4,0,0,1,1297.2,244.92Zm-1.1,0c0-2-1.15-3.36-2.91-3.36s-2.9,1.35-2.9,3.33,1.15,3.36,2.92,3.36S1296.1,246.93,1296.1,245Zm9.73,4.11h-1.12v-5.33c0-1.44-.56-2.09-1.82-2.09a3.56,3.56,0,0,0-2.5,1.17v6.25h-1.11v-8.25l1.11-.23v1.35a4,4,0,0,1,2.81-1.35c1.66,0,2.63,1,2.63,2.82Z"/>
    </g>
  </g>
</svg>
