<?xml version="1.0" encoding="utf-8"?>
<!-- Generator: Adobe Illustrator 25.4.1, SVG Export Plug-In . SVG Version: 6.00 Build 0)  -->
<svg version="1.1" id="Layer_1" xmlns="http://www.w3.org/2000/svg" xmlns:xlink="http://www.w3.org/1999/xlink" x="0px" y="0px"
	 viewBox="0 0 600.3 445.4" style="enable-background:new 0 0 600.3 445.4;" xml:space="preserve">
<style type="text/css">
	.st0{fill:#FFFFFF;}
	.st1{fill:#00ACD4;}
</style>
<path class="st0" d="M556.8,402.1c9.4,0,17-7.6,17-17V60.3c0-9.4-7.6-17-17-17c0,0,0,0,0,0H43.5c-9.4,0-17,7.6-17,17c0,0,0,0,0,0
	v324.9c0,9.4,7.6,17,17,17L556.8,402.1"/>
<rect x="45.7" y="61.3" class="st1" width="115.3" height="110.5"/>
<rect x="176.5" y="61.3" class="st1" width="115.3" height="110.5"/>
<rect x="439.4" y="61.3" class="st1" width="115.3" height="110.5"/>
<rect x="308.6" y="61.3" class="st1" width="115.3" height="110.5"/>
<rect x="45.7" y="182.5" width="508.9" height="80.5"/>
<rect x="230" y="196" class="st0" width="9.6" height="54.3"/>
<path class="st0" d="M317.6,231.9v18.4h-9.6v-54.3h32.8c0,0,12.9,0,12.9,15.6c0,17.7-9.8,19.9-9.8,19.9l13.4,18.9h-11.4l-12.6-18.4
	L317.6,231.9"/>
<polygon class="st0" points="127.1,250.4 127.1,240.7 106.4,240.7 106.4,196 96.7,196 96.7,250.4 "/>
<polyline class="st0" points="160.6,196 151,196 131.5,250.4 141.2,250.4 146.1,236.5 169.7,236.5 174.6,250.4 184.2,250.4 
	164.7,196 155.1,196 "/>
<path class="st0" d="M261.8,223.6V235c0,8.2,7.4,7.1,7.4,7.1h14.1c6.3,0,4.8-7.2,4.8-7.2h9.6v5.9c0,10.7-9.9,10.5-9.9,10.5h-23.3
	c-12.6,0-12.3-14.7-12.3-14.7v-25.8c0,0-0.3-14.7,12.3-14.7h23.2c0,0,9.9-0.2,9.9,10.5v5.9h-9.6c0,0,1.5-7.2-4.8-7.2h-14.1
	c0,0-7.4-1.2-7.4,7.1L261.8,223.6"/>
<polygon class="st0" points="487.8,223.6 475.3,214.7 475.3,232.7 "/>
<polygon points="157.9,205 166.2,226.9 149.6,226.9 "/>
<path d="M339.7,206.5c0,0,3.7-0.7,3.7,7.8s-3.7,8.7-3.7,8.7h-22.1v-16.5L339.7,206.5"/>
<polygon class="st0" points="206,205.6 206,250.4 196.4,250.4 196.4,205.6 180.8,205.6 180.8,196 222.2,196 222.2,205.6 "/>
<polygon class="st0" points="366.8,250.4 366.8,196 403.4,196 403.4,205.6 376.4,205.6 376.4,240.7 403.4,240.7 403.4,250.4 "/>
<polygon class="st0" points="461,250.4 461,196 497.6,196 497.6,205.6 470.7,205.6 470.7,240.7 497.6,240.7 497.6,250.4 "/>
<polygon class="st0" points="437.1,205.6 437.1,250.4 427.4,250.4 427.4,205.6 411.8,205.6 411.8,196 453.2,196 453.2,205.6 "/>
<polygon class="st0" points="393.5,223.6 381.1,214.7 381.1,232.7 "/>
<rect x="45.7" y="275" class="st1" width="115.3" height="110.5"/>
<rect x="176.5" y="275" class="st1" width="115.3" height="110.5"/>
<rect x="439.4" y="275" class="st1" width="115.3" height="110.5"/>
<rect x="308.6" y="275" class="st1" width="115.3" height="110.5"/>
</svg>
