<?xml version="1.0" encoding="utf-8"?>
<!-- Generator: Adobe Illustrator 25.4.1, SVG Export Plug-In . SVG Version: 6.00 Build 0)  -->
<svg version="1.1" id="Layer_1" xmlns="http://www.w3.org/2000/svg" xmlns:xlink="http://www.w3.org/1999/xlink" x="0px" y="0px"
	 viewBox="0 0 300 300" style="enable-background:new 0 0 300 300;" xml:space="preserve">
<style type="text/css">
	.st0{fill:#799400;}
	.st1{fill:none;}
	.st2{fill:none;stroke:#FFFFFF;stroke-width:12;stroke-linecap:round;stroke-linejoin:round;stroke-miterlimit:3;}
</style>
<path class="st0" d="M28.9,0h242.3C287.1,0,300,12.9,300,28.9v242.3c0,15.9-12.9,28.9-28.9,28.9H28.9c-16-0.1-28.9-13-28.9-29V28.9
	C0,12.9,12.9,0,28.9,0z"/>
<rect x="54" y="54" class="st1" width="192" height="192"/>
<rect x="54" y="54" class="st1" width="192" height="192"/>
<polyline class="st2" points="186.1,128.8 222.1,128.8 222.1,92.8 "/>
<path class="st2" d="M103.3,103.3c25.8-25.8,67.6-25.8,93.3,0c0,0,0,0,0,0l25.5,25.5"/>
<polyline class="st2" points="113.9,171.2 77.9,171.2 77.9,207.2 "/>
<path class="st2" d="M196.7,196.7c-25.8,25.8-67.6,25.8-93.3,0c0,0,0,0,0,0l-25.5-25.5"/>
</svg>
