<svg xmlns="http://www.w3.org/2000/svg" viewBox="0 0 57.08 33.46">
  <defs>
    <style>
      .cls-1 {
        fill: #92c746;
      }

      .cls-2 {
        fill: #d50f67;
      }

      .cls-3 {
        fill: #3ba510;
      }
    </style>
  </defs>
  <g id="Layer_2" data-name="Layer 2">
    <g id="Layer_1-2" data-name="Layer 1">
      <g>
        <g>
          <path class="cls-1" d="M.27,24.67a2.69,2.69,0,0,0,1.24,3.57A2.68,2.68,0,0,0,5.08,27l1.09-2.18L3.91,17.31Z"/>
          <path class="cls-1" d="M15.2.27a2.69,2.69,0,0,0-3.57,1.24L7.34,10.32l2.25,7.5L16.44,3.91A2.68,2.68,0,0,0,15.2.27Z"/>
          <path class="cls-2" d="M8.21,31.59a2.71,2.71,0,0,0,3.35,1.75A2.81,2.81,0,0,0,13.38,30L9.67,17.75l-3.5,7.07Z"/>
          <path class="cls-2" d="M5.81,5.37A2.81,2.81,0,0,0,2.46,3.55,2.81,2.81,0,0,0,.63,6.9L3.84,17.31l3.5-7.06Z"/>
          <polygon class="cls-3" points="3.84 17.31 6.17 24.89 9.59 17.82 7.34 10.32 3.84 17.31"/>
        </g>
        <g class="svgtext">
          <path d="M19.57,20.23H14.69v-.29a3,3,0,0,1,1.68-2.77,7.19,7.19,0,0,1,1.16-.73A2.06,2.06,0,0,0,17.9,16a1.38,1.38,0,0,0,.14-.58.83.83,0,0,0-.87-.87c-.66,0-1,.43-1,1.31H14.69a2.06,2.06,0,0,1,.8-1.9,2.63,2.63,0,0,1,1.68-.58c1.46,0,2.4.8,2.4,2,0,.94-.51,1.6-1.82,2.47-1,.66-1.16.81-1.24,1.24h3.06v1.17Z"/>
          <path d="M21.61,18.19a1,1,0,0,0,1.09,1.09c.66,0,1-.36,1-.87s-.43-.95-1.45-.95h-.15V16.29h.15c1,0,1.38-.21,1.38-.87a.86.86,0,0,0-.95-.87c-.65,0-1,.36-1,1.09H20.23a2,2,0,0,1,.8-1.75,2.66,2.66,0,0,1,1.75-.51c1.45,0,2.4.73,2.4,1.89a1.57,1.57,0,0,1-1.31,1.61,1.3,1.3,0,0,1,.58.22,1.59,1.59,0,0,1,.8,1.45c0,1.24-.94,2-2.47,2-1.68,0-2.62-.87-2.62-2.4h1.45Z"/>
          <path d="M28.24,14.91a2.56,2.56,0,0,1,1.75.58,2.21,2.21,0,0,1,.51,1.75v1.24a9.57,9.57,0,0,0,.14,1.75H29.41a1.66,1.66,0,0,1-.08-.58v-.22a1.76,1.76,0,0,1-1.75.94,1.69,1.69,0,0,1-1.89-1.6,1.8,1.8,0,0,1,.36-1,2.48,2.48,0,0,1,1.39-.58C28,17.1,28.6,17,29,17c0-.73-.29-1-.87-1s-.88.29-.88.73H25.84C26,15.57,26.86,14.91,28.24,14.91ZM29,18l-.51.07c-.88.15-1.24.37-1.24.73s.29.58.8.58c.73,0,1.09-.51,1.17-1.45Z"/>
          <path d="M32.83,15.71A1.73,1.73,0,0,1,34.36,15,1.61,1.61,0,0,1,36,16a3,3,0,0,1,.15,1.39V20.3H34.65V17.24c0-.8-.22-1.16-.8-1.16s-1,.51-1,1.53V20.3H31.44V15.06h1.39v.65Z"/>
          <path d="M41.79,20.23H40.4v-.66a1.79,1.79,0,0,1-1.53.8c-1.23,0-2.11-1.09-2.11-2.69s.8-2.7,2-2.7a1.58,1.58,0,0,1,1.53.8V13.09h1.46v7.14Zm-2.48-1c.66,0,1.09-.58,1.09-1.53s-.43-1.53-1.09-1.53-1.09.58-1.09,1.53S38.66,19.21,39.31,19.21Z"/>
          <path d="M51,20.23H49.51V14.47l-1.75,5.76H46.23l-1.75-5.76v5.76H43V13.09h2.4l1.67,5.39,1.61-5.39H51v7.14Z"/>
          <path d="M54.53,20.37a2.52,2.52,0,0,1-2.62-2.76,2.5,2.5,0,0,1,2.62-2.7c1.61,0,2.55,1.09,2.55,2.84v.37H53.44a1.07,1.07,0,0,0,1.17,1.16.9.9,0,0,0,.94-.58h1.53A2.42,2.42,0,0,1,54.53,20.37Zm1-3.27A1,1,0,0,0,54.46,16c-.65,0-1,.37-1.09,1.1Z"/>
        </g>
      </g>
    </g>
  </g>
</svg>
