<?xml version="1.0" encoding="utf-8"?>
<!-- Generator: Adobe Illustrator 25.4.1, SVG Export Plug-In . SVG Version: 6.00 Build 0)  -->
<svg version="1.1" id="Layer_1" xmlns="http://www.w3.org/2000/svg" xmlns:xlink="http://www.w3.org/1999/xlink" x="0px" y="0px"
	 viewBox="0 0 192 192" style="enable-background:new 0 0 192 192;" xml:space="preserve">
<style type="text/css">
	.st0{fill:#EC8539;}
</style>
<g id="b3011b77-083a-4f5b-a040-575ab509d6fd">
	<g id="b0ba31cc-8b86-449e-9e44-60ba57effd9f">
		<path class="st0" d="M39.4,68.3c-1.1,0-2.3-0.3-3.2-1c-0.9-0.7-1.5-1.6-1.9-2.6c-0.3-1-0.3-2.2,0.1-3.2c0.4-1,1.1-1.9,2.1-2.5
			l52.2-32.3c0.6-0.4,1.2-0.6,1.9-0.8c0.7-0.1,1.4-0.1,2.1,0c0.7,0.1,1.3,0.4,1.9,0.8c0.6,0.4,1.1,0.9,1.5,1.4
			c0.4,0.6,0.6,1.2,0.8,1.9c0.1,0.7,0.1,1.3,0,2c-0.1,0.7-0.4,1.3-0.8,1.8c-0.4,0.6-0.9,1-1.5,1.4L42.2,67.4
			C41.4,68,40.4,68.3,39.4,68.3z"/>
		<path class="st0" d="M65.2,79.3c-1.1,0-2.2-0.3-3.1-0.9c-1.8-1.2-2.6-3.5-1.8-5.6c0.4-1,1.2-1.9,2.1-2.4l30.2-18
			c0.6-0.4,1.2-0.6,1.9-0.7c0.7-0.1,1.3-0.1,2,0c0.7,0.1,1.3,0.4,1.9,0.7c0.6,0.3,1.1,0.8,1.4,1.4c0.4,0.5,0.7,1.2,0.8,1.8
			c0.1,0.6,0.1,1.3,0,1.9c-0.1,0.6-0.4,1.3-0.8,1.8c-0.4,0.5-0.9,1-1.5,1.3L68,78.8C67.1,79.2,66.1,79.4,65.2,79.3z"/>
		<path class="st0" d="M102.2,166.3c-1.1,0-2.3-0.3-3.2-1c-0.9-0.7-1.5-1.6-1.9-2.6c-0.3-1-0.3-2.2,0.1-3.2c0.4-1,1.1-1.9,2.1-2.5
			l52.2-32.3c1.2-0.7,2.6-1,4-0.7c1.4,0.3,2.6,1.1,3.4,2.2c0.8,1.1,1.1,2.5,0.8,3.9c-0.3,1.3-1.1,2.5-2.3,3.2L105,165.5
			C104.1,166,103.2,166.3,102.2,166.3z"/>
		<path class="st0" d="M98.4,144.1c-1.1,0-2.2-0.3-3.1-1c-0.9-0.7-1.6-1.6-1.9-2.7c-0.3-1.1-0.3-2.2,0.1-3.3c0.4-1,1.1-1.9,2.1-2.5
			l30.2-19.2c2.4-1.6,5.6-1,7.2,1.4c0,0,0,0,0,0c0.8,1.1,1.1,2.5,0.8,3.9c-0.3,1.3-1.1,2.5-2.2,3.3l-30.4,19.3
			C100.3,143.8,99.4,144.1,98.4,144.1z"/>
		<path class="st0" d="M113.6,25.1c1.9,3.1,3,6.6,3.1,10.2c0.2,3.6-0.6,7.2-2.2,10.4L97.9,79.4h13l14-28.4c2.5-5,3.7-10.5,3.5-16.1
			c-0.2-5.6-1.9-11-4.8-15.8c-2.9-4.8-6.9-8.7-11.8-11.4C106.9,5,101.5,3.6,96,3.5H65.7l-5.8,11.7h35.9c3.6,0,7.1,0.9,10.2,2.6
			C109.1,19.6,111.7,22.1,113.6,25.1z"/>
		<path class="st0" d="M180.4,112.4c-2.2-6.4-6.3-11.8-11.8-15.7c-5.5-3.9-12.1-6-18.9-6H42.6c-2.8,0-5.5-0.5-8.1-1.6
			c-2.6-1-4.9-2.6-6.8-4.6c-1.9-2-3.5-4.3-4.5-6.9c-2.2-5.5-1.8-11.7,1.1-16.9l24.9-48.8c0.7-1.4,0.8-3,0.3-4.4
			c-0.5-1.5-1.6-2.7-3-3.3c-1.4-0.7-3-0.8-4.5-0.3c-1.5,0.5-2.7,1.5-3.4,2.9L13.9,55.3c-2.1,3.8-3.3,8.1-3.7,12.4
			c-0.4,4.3,0.1,8.7,1.4,12.8c4.5,13.1,16.9,21.9,30.8,21.7h44.4l-20.1,39.5c-3.4,6.6-4.3,14.2-2.8,21.4c1.6,7.3,5.7,13.7,11.5,18.4
			c5.7,4.6,12.9,7.1,20.3,7h30.7l5.8-11.5H95.8c-3.6,0-7.2-0.9-10.3-2.6c-3.1-1.7-5.8-4.2-7.7-7.2c-3.8-6.1-4.2-13.8-0.8-20.2
			l22.8-44.8h49.9c4.5-0.1,9,1.4,12.6,4.1c3.8,2.9,6.5,7,7.6,11.7c1.1,4.7,0.5,9.5-1.7,13.8L144,179c-0.7,1.4-0.8,3-0.3,4.4
			c0.4,1.5,1.5,2.7,2.9,3.3c1.4,0.7,3,0.8,4.5,0.3c1.5-0.5,2.7-1.5,3.4-2.9l23.7-46.6c2.1-3.8,3.3-8.1,3.7-12.4
			C182.2,120.8,181.7,116.5,180.4,112.4z"/>
	</g>
</g>
</svg>
