<?xml version="1.0" encoding="utf-8"?>
<!-- Generator: Adobe Illustrator 25.4.1, SVG Export Plug-In . SVG Version: 6.00 Build 0)  -->
<svg version="1.1" id="Layer_1" xmlns="http://www.w3.org/2000/svg" xmlns:xlink="http://www.w3.org/1999/xlink" x="0px" y="0px"
	 viewBox="0 0 192 192" enable-background="new 0 0 192 192" xml:space="preserve">
<rect fill="none" width="192" height="192"/>
<path fill="none" stroke="#EC8539" stroke-width="12" stroke-linecap="round" stroke-linejoin="round" stroke-miterlimit="3" d="
	M48,42h18c3.3,0,6,2.7,6,6v96c0,3.3-2.7,6-6,6H48c-3.3,0-6-2.7-6-6V48C42,44.7,44.7,42,48,42z"/>
<path fill="none" stroke="#EC8539" stroke-width="12" stroke-linecap="round" stroke-linejoin="round" stroke-miterlimit="3" d="
	M126,42h18c3.3,0,6,2.7,6,6v96c0,3.3-2.7,6-6,6h-18c-3.3,0-6-2.7-6-6V48C120,44.7,122.7,42,126,42z"/>
<path fill="none" stroke="#EC8539" stroke-width="12" stroke-linecap="round" stroke-linejoin="round" stroke-miterlimit="3" d="
	M150,60h18c3.3,0,6,2.7,6,6v60c0,3.3-2.7,6-6,6h-18"/>
<path fill="none" stroke="#EC8539" stroke-width="12" stroke-linecap="round" stroke-linejoin="round" stroke-miterlimit="3" d="
	M42,132H24c-3.3,0-6-2.7-6-6V66c0-3.3,2.7-6,6-6h18"/>
<line fill="none" stroke="#EC8539" stroke-width="12" stroke-linecap="round" stroke-linejoin="round" stroke-miterlimit="3" x1="72" y1="96" x2="120" y2="96"/>
<line fill="none" stroke="#EC8539" stroke-width="12" stroke-linecap="round" stroke-linejoin="round" stroke-miterlimit="3" x1="174" y1="96" x2="186" y2="96"/>
<line fill="none" stroke="#EC8539" stroke-width="12" stroke-linecap="round" stroke-linejoin="round" stroke-miterlimit="3" x1="6" y1="96" x2="18" y2="96"/>
</svg>
