<svg xmlns="http://www.w3.org/2000/svg" viewBox="0 0 1347 573.4"><defs><style>.a380a0b9-7ff0-40c1-9163-e17f0ecd4dfa,.a6964105-de87-4d99-a39f-cb4de989fee5,.b0bf58a2-c2f6-463f-99af-b3952e681f6b,.e3994e3b-d8f6-4fd3-81e4-52372fe94151,.f1aaa5b2-99b9-432e-bc34-31271e16296d,.f3330710-72f3-4d6e-990d-09b1f7d4f1e1{fill:none;}.a380a0b9-7ff0-40c1-9163-e17f0ecd4dfa,.b0bf58a2-c2f6-463f-99af-b3952e681f6b,.e3994e3b-d8f6-4fd3-81e4-52372fe94151,.f1aaa5b2-99b9-432e-bc34-31271e16296d,.f3330710-72f3-4d6e-990d-09b1f7d4f1e1,.ffc3431f-66dc-4b89-a84e-8ee7145e3382{stroke:#ec8539;}.a380a0b9-7ff0-40c1-9163-e17f0ecd4dfa,.a6964105-de87-4d99-a39f-cb4de989fee5,.b0bf58a2-c2f6-463f-99af-b3952e681f6b,.e3994e3b-d8f6-4fd3-81e4-52372fe94151,.ef11d33d-ff65-4d66-a413-1bdc7e399fff,.f1aaa5b2-99b9-432e-bc34-31271e16296d,.f3330710-72f3-4d6e-990d-09b1f7d4f1e1,.ffc3431f-66dc-4b89-a84e-8ee7145e3382{stroke-miterlimit:10;}.f1aaa5b2-99b9-432e-bc34-31271e16296d{stroke-dasharray:5;}.ef11d33d-ff65-4d66-a413-1bdc7e399fff{fill:#ccc;}.a6964105-de87-4d99-a39f-cb4de989fee5,.ef11d33d-ff65-4d66-a413-1bdc7e399fff{stroke:#ccc;}.a6964105-de87-4d99-a39f-cb4de989fee5,.ef11d33d-ff65-4d66-a413-1bdc7e399fff,.f3330710-72f3-4d6e-990d-09b1f7d4f1e1,.ffc3431f-66dc-4b89-a84e-8ee7145e3382{stroke-width:2px;}.a6436b9d-8e1d-431c-9cbb-2181a5f1c6bb{isolation:isolate;}.eb6cf7b5-8c00-49b6-84a8-3bbb7535c863,.ffc3431f-66dc-4b89-a84e-8ee7145e3382{fill:#ec8539;}.e32f7453-1ebf-4941-bf07-c5198c528e88{fill:#111115;}.a380a0b9-7ff0-40c1-9163-e17f0ecd4dfa{stroke-dasharray:5.12 5.12;}.e3994e3b-d8f6-4fd3-81e4-52372fe94151{stroke-dasharray:5.53 5.53;}</style></defs><g id="fd198065-84bc-4dee-9fae-ffb044f1cedf" data-name="Layer 2"><g id="f30d3ceb-5fde-4438-ba8a-6d798bebbe9b" data-name="Layer 1"><line class="f1aaa5b2-99b9-432e-bc34-31271e16296d" x1="197.8" y1="223.6" x2="1168" y2="223.6"/><path class="ef11d33d-ff65-4d66-a413-1bdc7e399fff" d="M29.6,290.2h156a11,11,0,0,1,11,11v28a11,11,0,0,1-11,11H29.6a11,11,0,0,1-11-11v-28A11.1,11.1,0,0,1,29.6,290.2Z"/><path class="f3330710-72f3-4d6e-990d-09b1f7d4f1e1" d="M30.8,76.9h156a11,11,0,0,1,11,11v28a11,11,0,0,1-11,11H30.8a11,11,0,0,1-11-11v-28A11,11,0,0,1,30.8,76.9Z"/><g class="a6436b9d-8e1d-431c-9cbb-2181a5f1c6bb"><path class="svgtext" d="M35.58,107.77V97.15h1.09v9.6h5.25v1Z"/></g><g class="a6436b9d-8e1d-431c-9cbb-2181a5f1c6bb"><path class="svgtext" d="M50.48,103.86a4.15,4.15,0,0,1-1.09,3A3.63,3.63,0,0,1,46.65,108a3.52,3.52,0,0,1-2.7-1.12,4.65,4.65,0,0,1,0-6,3.62,3.62,0,0,1,2.74-1.14,3.53,3.53,0,0,1,2.7,1.13A4.14,4.14,0,0,1,50.48,103.86Zm-1,0c0-1.92-1.09-3.17-2.76-3.17S44,102,44,103.86,45,107,46.7,107,49.44,105.76,49.44,103.89Z"/><path class="svgtext" d="M53,107.79c-.7-.26-1.06-.67-1.06-1.24a1.71,1.71,0,0,1,1.28-1.48A2.59,2.59,0,0,1,52,102.69a2.88,2.88,0,0,1,3.06-2.93,3.71,3.71,0,0,1,1.83.46l2.16-.17.05,1.06-1.71-.17a2.75,2.75,0,0,1,.63,1.75,2.85,2.85,0,0,1-3,2.85,3.24,3.24,0,0,1-1.16-.22c-.57.24-.86.55-.86.94s.44.8,1.77.8h1c2.16,0,3.23.68,3.23,2a2.44,2.44,0,0,1-1.21,2.07,5.06,5.06,0,0,1-2.89.82c-2.09,0-3.52-.92-3.52-2.28A2.06,2.06,0,0,1,53,107.79Zm.91.2c-.93.26-1.58.87-1.58,1.53,0,.94,1,1.6,2.65,1.6s2.93-.78,2.93-1.84c0-.88-.75-1.24-2.36-1.24C54.93,108,54.39,108,53.94,108ZM53,102.7a1.89,1.89,0,0,0,2,2,1.78,1.78,0,0,0,1.41-.57,2,2,0,0,0,.53-1.47,2.11,2.11,0,0,0-.51-1.46,2,2,0,0,0-1.48-.56A1.89,1.89,0,0,0,53,102.7Z"/><path class="svgtext" d="M61.64,97.42a.82.82,0,0,1-.18.54.71.71,0,0,1-1.06,0,.82.82,0,0,1-.18-.54.81.81,0,0,1,.18-.53.75.75,0,0,1,1.06,0A.81.81,0,0,1,61.64,97.42Zm-.18,10.35H60.4V100l1.06-.22Z"/><path class="svgtext" d="M70.13,107.77H69.07v-5c0-1.36-.52-2-1.71-2a3.33,3.33,0,0,0-2.37,1.1v5.9h-1V100l1-.22V101a3.78,3.78,0,0,1,2.66-1.28,2.35,2.35,0,0,1,2.48,2.67Z"/><path class="svgtext" d="M80.53,106.84h0A2.86,2.86,0,0,1,78.2,108a2.24,2.24,0,0,1-2.46-2.16c0-1.66,1.58-2.58,4.72-2.77v-.46a1.62,1.62,0,0,0-1.83-1.85,4.7,4.7,0,0,0-2.55.94l-.24-1a5.43,5.43,0,0,1,2.89-.94,2.46,2.46,0,0,1,2.79,2.79v3.74c0,.61.13.8.78.78l-.07.87C81.23,108,80.65,107.63,80.53,106.84Zm-.07-.79v-2.27c-2.61.28-3.62.86-3.62,1.93a1.42,1.42,0,0,0,1.6,1.36A2.63,2.63,0,0,0,80.46,106.05Z"/><path class="svgtext" d="M90.05,107.77H89v-5c0-1.36-.53-2-1.72-2a3.33,3.33,0,0,0-2.36,1.1v5.9H83.86V100l1.06-.22V101a3.76,3.76,0,0,1,2.65-1.28,2.35,2.35,0,0,1,2.48,2.67Z"/><path class="svgtext" d="M97.68,100.24V96.31l1.06-.22v11.68H97.68V107a3.23,3.23,0,0,1-2.26.95c-2.09,0-3.48-1.65-3.48-4A4.14,4.14,0,0,1,93,101a3.67,3.67,0,0,1,2.77-1.16A4.34,4.34,0,0,1,97.68,100.24Zm0,1.12a3.08,3.08,0,0,0-1.93-.59c-1.67,0-2.72,1.29-2.72,3.16s1,3.09,2.58,3.09a2.94,2.94,0,0,0,2.07-.87v-4.79Z"/><path class="svgtext" d="M109.87,96.93a5,5,0,0,1,3.74,1.52,5.48,5.48,0,0,1,1.48,4,5.56,5.56,0,0,1-1.48,4,5.25,5.25,0,0,1-7.48,0,5.41,5.41,0,0,1-1.49-4,5.56,5.56,0,0,1,1.48-4A4.94,4.94,0,0,1,109.87,96.93Zm4.12,5.55a4.78,4.78,0,0,0-1.16-3.31,3.89,3.89,0,0,0-3-1.28,3.8,3.8,0,0,0-2.94,1.26,4.62,4.62,0,0,0-1.16,3.27,4.7,4.7,0,0,0,1.17,3.31,3.86,3.86,0,0,0,3,1.29,3.79,3.79,0,0,0,2.94-1.27A4.67,4.67,0,0,0,114,102.48Z"/><path class="svgtext" d="M123.3,107.77h-1v-5c0-1.36-.53-2-1.72-2a3.33,3.33,0,0,0-2.36,1.1v5.9h-1.06V100l1.06-.22V101a3.76,3.76,0,0,1,2.65-1.28,2.35,2.35,0,0,1,2.48,2.67Z"/><path class="svgtext" d="M132.5,103.78a4.37,4.37,0,0,1-1.07,3,3.57,3.57,0,0,1-2.77,1.19,4.54,4.54,0,0,1-1.91-.42l-1,.45V96.31l1-.22v4.71a3.34,3.34,0,0,1,2.35-1C131.16,99.81,132.5,101.43,132.5,103.78Zm-1.09,0c0-1.81-1-3-2.51-3a3.09,3.09,0,0,0-2.15.87v4.78a3.1,3.1,0,0,0,2,.61C130.37,107,131.41,105.75,131.41,103.83Z"/><path class="svgtext" d="M141.46,103.86a4.15,4.15,0,0,1-1.09,3,3.63,3.63,0,0,1-2.74,1.15,3.52,3.52,0,0,1-2.7-1.12,4.68,4.68,0,0,1,0-6,3.62,3.62,0,0,1,2.74-1.14,3.53,3.53,0,0,1,2.7,1.13A4.14,4.14,0,0,1,141.46,103.86Zm-1,0c0-1.92-1.09-3.17-2.75-3.17s-2.74,1.27-2.74,3.14S136,107,137.68,107,140.42,105.76,140.42,103.89Z"/><path class="svgtext" d="M147.54,106.84h0a2.85,2.85,0,0,1-2.27,1.15,2.25,2.25,0,0,1-2.47-2.16q0-2.49,4.73-2.77v-.46a1.63,1.63,0,0,0-1.84-1.85,4.7,4.7,0,0,0-2.55.94l-.24-1a5.46,5.46,0,0,1,2.89-.94,2.46,2.46,0,0,1,2.79,2.79v3.74c0,.61.14.8.78.78l-.07.87C148.24,108,147.66,107.63,147.54,106.84Zm-.06-.79v-2.27c-2.62.28-3.62.86-3.62,1.93a1.42,1.42,0,0,0,1.59,1.36A2.67,2.67,0,0,0,147.48,106.05Z"/></g><g class="a6436b9d-8e1d-431c-9cbb-2181a5f1c6bb"><path class="svgtext" d="M151.93,102.77v5h-1.06V100l1.06-.22v1.67a2.55,2.55,0,0,1,2.29-1.67,2.66,2.66,0,0,1,1.36.36l-.27,1a2.28,2.28,0,0,0-1.19-.34C153.25,100.77,152.52,101.43,151.93,102.77Z"/></g><g class="a6436b9d-8e1d-431c-9cbb-2181a5f1c6bb"><path class="svgtext" d="M162,100.24V96.31l1-.22v11.68h-1V107a3.25,3.25,0,0,1-2.26.95c-2.09,0-3.49-1.65-3.49-4a4.18,4.18,0,0,1,1.09-3,3.69,3.69,0,0,1,2.77-1.16A4.35,4.35,0,0,1,162,100.24Zm0,1.12a3.11,3.11,0,0,0-1.94-.59c-1.66,0-2.72,1.29-2.72,3.16s1,3.09,2.59,3.09a2.94,2.94,0,0,0,2.07-.87v-4.79Z"/><path class="svgtext" d="M166.75,97.42a.83.83,0,0,1-.19.54.69.69,0,0,1-1.05,0,.85.85,0,0,1,0-1.07.64.64,0,0,1,.53-.22.63.63,0,0,1,.52.22A.82.82,0,0,1,166.75,97.42Zm-.19,10.35h-1.05V100l1.05-.22Z"/><path class="svgtext" d="M175.23,107.77h-1v-5c0-1.36-.53-2-1.72-2a3.33,3.33,0,0,0-2.36,1.1v5.9H169V100l1.06-.22V101a3.76,3.76,0,0,1,2.65-1.28,2.35,2.35,0,0,1,2.48,2.67Z"/><path class="svgtext" d="M178.22,107.79c-.69-.26-1.05-.67-1.05-1.24a1.71,1.71,0,0,1,1.27-1.48,2.61,2.61,0,0,1-1.25-2.38,2.88,2.88,0,0,1,3.06-2.93,3.71,3.71,0,0,1,1.83.46l2.16-.17,0,1.06-1.71-.17a2.74,2.74,0,0,1,.62,1.75,2.84,2.84,0,0,1-3,2.85,3.24,3.24,0,0,1-1.16-.22c-.58.24-.86.55-.86.94s.44.8,1.76.8h1c2.16,0,3.23.68,3.23,2a2.44,2.44,0,0,1-1.21,2.07,5.06,5.06,0,0,1-2.89.82c-2.09,0-3.52-.92-3.52-2.28A2.06,2.06,0,0,1,178.22,107.79Zm.92.2c-.93.26-1.58.87-1.58,1.53,0,.94,1,1.6,2.65,1.6s2.93-.78,2.93-1.84c0-.88-.75-1.24-2.37-1.24C180.13,108,179.58,108,179.14,108Zm-.92-5.29a1.9,1.9,0,0,0,2,2,1.8,1.8,0,0,0,1.41-.57,2,2,0,0,0,.53-1.47,2.11,2.11,0,0,0-.51-1.46,2,2,0,0,0-1.48-.56A1.9,1.9,0,0,0,178.22,102.7Z"/></g><path class="ffc3431f-66dc-4b89-a84e-8ee7145e3382" d="M30.8,1h156a11,11,0,0,1,11,11V40a11,11,0,0,1-11,11H30.8a11,11,0,0,1-11-11V12A11,11,0,0,1,30.8,1Z"/><g class="a6436b9d-8e1d-431c-9cbb-2181a5f1c6bb"><path class="e32f7453-1ebf-4941-bf07-c5198c528e88" d="M90.93,31.07a9.76,9.76,0,0,1-4.45,1,6.17,6.17,0,0,1-4.32-1.45,5.22,5.22,0,0,1-1.6-4.08,5.38,5.38,0,0,1,1.6-4.13,6.1,6.1,0,0,1,4.35-1.48,8.47,8.47,0,0,1,4.24.92l-1,2.75a6.35,6.35,0,0,0-3.06-.86,2.57,2.57,0,0,0-2.75,2.73c0,1.94.9,2.91,2.68,2.91a4,4,0,0,0,1.38-.2V28.07H85.53V25.51h5.4Z"/><path class="e32f7453-1ebf-4941-bf07-c5198c528e88" d="M95.27,28.6v0c.12.78.73,1.17,1.85,1.17A5.45,5.45,0,0,0,99.83,29l.25,2.41a7.83,7.83,0,0,1-3.3.65c-2.92,0-4.66-1.46-4.66-4.17s1.79-4.28,4.49-4.28c2.42,0,3.74,1.36,3.74,3.45a4.91,4.91,0,0,1-.17,1.46Zm0-1.46h2.07a.44.44,0,0,0,0-.17c0-.87-.31-1.31-.93-1.31S95.34,26.26,95.27,27.14Z"/><path class="e32f7453-1ebf-4941-bf07-c5198c528e88" d="M110.11,31.78h-3.25V27.22c0-.66-.29-1-.86-1a1.58,1.58,0,0,0-1.11.47v5.07h-3.25V24l3.25-.37V25a3.39,3.39,0,0,1,2.7-1.44,2.42,2.42,0,0,1,2.52,2.74Z"/><path class="e32f7453-1ebf-4941-bf07-c5198c528e88" d="M114.45,28.6v0c.11.78.73,1.17,1.85,1.17A5.44,5.44,0,0,0,119,29l.26,2.41A7.87,7.87,0,0,1,116,32c-2.93,0-4.66-1.46-4.66-4.17s1.79-4.28,4.49-4.28c2.41,0,3.74,1.36,3.74,3.45a4.91,4.91,0,0,1-.17,1.46Zm0-1.46h2.07a.44.44,0,0,0,0-.17c0-.87-.31-1.31-.94-1.31S114.51,26.26,114.45,27.14Z"/><path class="e32f7453-1ebf-4941-bf07-c5198c528e88" d="M121,21.16h8.12v2.68h-4.82v1.53h3.77V28h-3.77v3.76H121Z"/><path class="e32f7453-1ebf-4941-bf07-c5198c528e88" d="M133.25,20.19a1.73,1.73,0,0,1,0,2.41,2.16,2.16,0,0,1-1.38.41,2.06,2.06,0,0,1-1.36-.41,1.68,1.68,0,0,1,0-2.41,2.06,2.06,0,0,1,1.36-.41A2.16,2.16,0,0,1,133.25,20.19Zm.24,11.59h-3.25V24.05l3.25-.39Z"/><path class="e32f7453-1ebf-4941-bf07-c5198c528e88" d="M140.69,31.78a7.61,7.61,0,0,1-2,.26c-2.28,0-3.37-.89-3.25-3.1l.12-2.33-1.12-.25.05-2.08,1.12-.39,0-1.85h3.15V24h1.75l0,2.45h-2l-.06,2c0,.71.37,1,1.05,1a2.52,2.52,0,0,0,.83-.15Z"/></g><path class="ffc3431f-66dc-4b89-a84e-8ee7145e3382" d="M942.4,200.5h156a11,11,0,0,1,11,11v28a11,11,0,0,1-11,11h-156a11,11,0,0,1-11-11v-28A11.1,11.1,0,0,1,942.4,200.5Z"/><g class="a6436b9d-8e1d-431c-9cbb-2181a5f1c6bb"><path class="e32f7453-1ebf-4941-bf07-c5198c528e88" d="M1015,226c0,3.37-2.09,5.39-5.72,5.39h-2.8V220.76h2.89a5.79,5.79,0,0,1,4.11,1.42A5,5,0,0,1,1015,226Zm-1.09.09c0-2.71-1.68-4.32-4.61-4.32h-1.73v8.62h1.77C1012.19,230.38,1013.94,228.92,1013.94,226.08Z"/><path class="e32f7453-1ebf-4941-bf07-c5198c528e88" d="M1024.44,220.76h1.06v10.72h-1.17l-6.09-9.19v9.09h-1V220.76h1.22l6,9.11Z"/><path class="e32f7453-1ebf-4941-bf07-c5198c528e88" d="M1036.39,231.38h-1.1l-1.12-3h-4.81l-1.12,3h-1.11l4-10.62h1.27Zm-4.62-9.55-2,5.52h4.06Z"/></g><path class="a6964105-de87-4d99-a39f-cb4de989fee5" d="M29.9,438.1h156a11,11,0,0,1,11,11v28a11,11,0,0,1-11,11H29.9a11,11,0,0,1-11-11v-28A11,11,0,0,1,29.9,438.1Z"/><g class="a6436b9d-8e1d-431c-9cbb-2181a5f1c6bb"><path class="svgtext" d="M80,468.9H79l-3-10.62h1.12l2.48,9.07,2.7-9.07h1.29l2.76,9.07,2.38-9.07h1.09l-3,10.62H85.74l-2.86-9.35Z"/></g><g class="a6436b9d-8e1d-431c-9cbb-2181a5f1c6bb"><path class="svgtext" d="M91.48,465v.09c.06,1.78,1.11,3,2.72,3a4.18,4.18,0,0,0,2.27-.65l.2,1a4.66,4.66,0,0,1-2.5.66,3.72,3.72,0,0,1-3.76-4,4.34,4.34,0,0,1,1.06-3,3.36,3.36,0,0,1,2.62-1.18,2.67,2.67,0,0,1,2.83,2.88,4,4,0,0,1-.17,1.24Zm.07-.83,4.32,0a1.34,1.34,0,0,0,0-.34,1.78,1.78,0,0,0-1.87-2A2.51,2.51,0,0,0,91.55,464.21Z"/><path class="svgtext" d="M98.91,468.9V457.44l1.06-.22V468.9Z"/><path class="svgtext" d="M102.42,468.9V457.44l1-.22V468.9Z"/><path class="svgtext" d="M112.72,464.91a4.37,4.37,0,0,1-1.07,3,3.57,3.57,0,0,1-2.77,1.19,4.36,4.36,0,0,1-1.91-.42l-1,.46V457.44l1-.22v4.71a3.33,3.33,0,0,1,2.35-1C111.37,461,112.72,462.56,112.72,464.91Zm-1.09,0c0-1.8-1-3-2.52-3a3.07,3.07,0,0,0-2.14.87v4.78a3.08,3.08,0,0,0,2,.61C110.59,468.17,111.63,466.88,111.63,465Z"/><path class="svgtext" d="M115.17,465v.09c0,1.78,1.1,3,2.71,3a4.18,4.18,0,0,0,2.27-.65l.2,1a4.66,4.66,0,0,1-2.5.66,3.72,3.72,0,0,1-3.76-4,4.34,4.34,0,0,1,1.06-3,3.36,3.36,0,0,1,2.62-1.18,2.67,2.67,0,0,1,2.83,2.88,4,4,0,0,1-.17,1.24Zm.06-.83,4.32,0a1.34,1.34,0,0,0,0-.34,1.78,1.78,0,0,0-1.87-2A2.51,2.51,0,0,0,115.23,464.21Z"/><path class="svgtext" d="M123.85,458.55a.88.88,0,0,1-.18.54.71.71,0,0,1-1.06,0,.85.85,0,0,1,0-1.07.75.75,0,0,1,1.06,0A.87.87,0,0,1,123.85,458.55Zm-.18,10.35h-1.06v-7.78l1.06-.23Z"/><path class="svgtext" d="M132.33,468.9h-1.05v-5c0-1.36-.53-2-1.72-2a3.33,3.33,0,0,0-2.36,1.1v5.9h-1v-7.78l1-.23v1.28a3.77,3.77,0,0,1,2.65-1.28,2.34,2.34,0,0,1,2.48,2.67Z"/><path class="svgtext" d="M135.33,468.92c-.7-.26-1.06-.67-1.06-1.24a1.71,1.71,0,0,1,1.28-1.48,2.61,2.61,0,0,1-1.26-2.38,2.88,2.88,0,0,1,3.06-2.93,3.78,3.78,0,0,1,1.84.46l2.15-.17.06,1.06-1.72-.17a2.69,2.69,0,0,1,.63,1.75,2.85,2.85,0,0,1-3,2.85,3.15,3.15,0,0,1-1.15-.22c-.58.24-.87.55-.87.94s.44.8,1.77.8h1c2.16,0,3.23.68,3.23,2a2.44,2.44,0,0,1-1.21,2.07,5.06,5.06,0,0,1-2.89.82c-2.09,0-3.52-.92-3.52-2.28A2.06,2.06,0,0,1,135.33,468.92Zm.92.2c-.94.26-1.59.87-1.59,1.53,0,.94,1,1.6,2.66,1.6s2.92-.78,2.92-1.84c0-.88-.75-1.24-2.36-1.24C137.23,469.17,136.69,469.16,136.25,469.12Zm-.92-5.29a1.89,1.89,0,0,0,2,2,1.78,1.78,0,0,0,1.41-.57,2,2,0,0,0,.53-1.47,2.11,2.11,0,0,0-.51-1.46,2,2,0,0,0-1.48-.56A1.9,1.9,0,0,0,135.33,463.83Z"/></g><g class="a6436b9d-8e1d-431c-9cbb-2181a5f1c6bb"><path class="e32f7453-1ebf-4941-bf07-c5198c528e88" d="M67.54,321.09v-4.84H61.32v4.84H60.23V310.47h1.09v4.79h6.22v-4.79h1.09v10.62Z"/><path class="e32f7453-1ebf-4941-bf07-c5198c528e88" d="M71.77,317.23v.09c0,1.78,1.11,3,2.72,3a4.12,4.12,0,0,0,2.26-.65l.21,1a4.69,4.69,0,0,1-2.5.66,3.72,3.72,0,0,1-3.76-4,4.34,4.34,0,0,1,1.06-3,3.31,3.31,0,0,1,2.61-1.18A2.67,2.67,0,0,1,77.21,316,4,4,0,0,1,77,317.2Zm.07-.83,4.32,0a1.34,1.34,0,0,0,0-.34,1.78,1.78,0,0,0-1.87-2A2.51,2.51,0,0,0,71.84,316.4Z"/><path class="e32f7453-1ebf-4941-bf07-c5198c528e88" d="M83.33,320.16h0A2.86,2.86,0,0,1,81,321.31a2.25,2.25,0,0,1-2.46-2.16c0-1.66,1.58-2.58,4.72-2.77v-.46a1.62,1.62,0,0,0-1.83-1.85,4.76,4.76,0,0,0-2.55.93l-.24-1a5.43,5.43,0,0,1,2.89-.94,2.46,2.46,0,0,1,2.79,2.79v3.74c0,.61.13.8.78.78l-.07.87C84,321.33,83.45,321,83.33,320.16Zm-.07-.79V317.1c-2.61.28-3.62.86-3.62,1.93a1.42,1.42,0,0,0,1.6,1.36A2.63,2.63,0,0,0,83.26,319.37Z"/><path class="e32f7453-1ebf-4941-bf07-c5198c528e88" d="M86.66,321.09V309.63l1.06-.22v11.68Z"/><path class="e32f7453-1ebf-4941-bf07-c5198c528e88" d="M94,320.94a4,4,0,0,1-1.73.4c-1.45,0-2.14-.81-2.09-2.44l.12-4.61-1.19-.07,0-.66,1.17-.27,0-1.77h1l0,1.82H94l0,.93H91.34l-.12,4.66c0,1,.34,1.46,1.14,1.46a3.81,3.81,0,0,0,1.49-.37Z"/><path class="e32f7453-1ebf-4941-bf07-c5198c528e88" d="M102,321.09h-1.06v-5c0-1.31-.56-2-1.66-2a3.39,3.39,0,0,0-2.42,1.1v5.9h-1V309.63l1-.22v4.91a3.8,3.8,0,0,1,2.71-1.24c1.53,0,2.43,1,2.43,2.67Z"/><path class="e32f7453-1ebf-4941-bf07-c5198c528e88" d="M117.55,311.81,114.07,321h-1.19l-3.52-9.23-.19,9.3H108.1l.36-10.62h1.46l3.59,9.38,3.53-9.38h1.45l.34,10.62h-1.11Z"/><path class="e32f7453-1ebf-4941-bf07-c5198c528e88" d="M121.72,317.23v.09c0,1.78,1.1,3,2.72,3a4.12,4.12,0,0,0,2.26-.65l.2,1a4.64,4.64,0,0,1-2.5.66,3.72,3.72,0,0,1-3.75-4,4.33,4.33,0,0,1,1-3,3.33,3.33,0,0,1,2.62-1.18,2.68,2.68,0,0,1,2.84,2.88,4,4,0,0,1-.17,1.24Zm.07-.83,4.31,0a1.34,1.34,0,0,0,0-.34,1.78,1.78,0,0,0-1.87-2A2.5,2.5,0,0,0,121.79,316.4Z"/><path class="e32f7453-1ebf-4941-bf07-c5198c528e88" d="M133,320.94a4,4,0,0,1-1.73.4c-1.45,0-2.14-.81-2.09-2.44l.12-4.61-1.19-.07.05-.66,1.17-.27.05-1.77h1l-.05,1.82H133l0,.93h-2.58l-.12,4.66c0,1,.34,1.46,1.14,1.46a3.89,3.89,0,0,0,1.5-.37Z"/><path class="e32f7453-1ebf-4941-bf07-c5198c528e88" d="M135.79,316.09v5h-1V313.3l1-.22v1.67a2.56,2.56,0,0,1,2.3-1.67,2.71,2.71,0,0,1,1.36.36l-.27,1a2.34,2.34,0,0,0-1.19-.34C137.12,314.09,136.39,314.75,135.79,316.09Z"/><path class="e32f7453-1ebf-4941-bf07-c5198c528e88" d="M142.05,310.74a.83.83,0,0,1-.19.54.69.69,0,0,1-1.05,0,.85.85,0,0,1,0-1.07.63.63,0,0,1,.52-.22.64.64,0,0,1,.53.22A.82.82,0,0,1,142.05,310.74Zm-.19,10.35h-1.05V313.3l1.05-.22Z"/><path class="e32f7453-1ebf-4941-bf07-c5198c528e88" d="M150.06,320.65a4.53,4.53,0,0,1-2.42.66c-2.33,0-3.81-1.63-3.81-4.1a4.14,4.14,0,0,1,1.09-3,3.59,3.59,0,0,1,2.74-1.16,4.37,4.37,0,0,1,2.43.67l-.27.95a3.75,3.75,0,0,0-2.16-.63c-1.68,0-2.74,1.24-2.74,3.11s1.09,3.15,2.76,3.15a3.93,3.93,0,0,0,2.15-.65Z"/><path class="e32f7453-1ebf-4941-bf07-c5198c528e88" d="M156.69,319c0,1.42-1.19,2.35-2.79,2.35a4.69,4.69,0,0,1-2.55-.7l.29-1a4,4,0,0,0,2.29.72c1,0,1.75-.49,1.75-1.31a.89.89,0,0,0-.12-.49,1.35,1.35,0,0,0-.27-.36,1.82,1.82,0,0,0-.47-.27l-.5-.21-.59-.18c-1.36-.41-2.26-1-2.26-2.21,0-1.4,1.1-2.25,2.63-2.25a5,5,0,0,1,2.36.58l-.3.95A4.31,4.31,0,0,0,154,314c-.95,0-1.56.44-1.56,1.19a.76.76,0,0,0,.12.45,1.25,1.25,0,0,0,.25.34,1.41,1.41,0,0,0,.46.28l.5.2c.12.05.32.1.59.19C155.8,317.1,156.69,317.67,156.69,319Z"/></g><path class="ef11d33d-ff65-4d66-a413-1bdc7e399fff" d="M245.6,290.2h156a11,11,0,0,1,11,11v28a11,11,0,0,1-11,11h-156a11,11,0,0,1-11-11v-28A11,11,0,0,1,245.6,290.2Z"/><g class="a6436b9d-8e1d-431c-9cbb-2181a5f1c6bb"><path class="e32f7453-1ebf-4941-bf07-c5198c528e88" d="M289.51,310.47h1.05v10.72h-1.17L283.3,312v9.09h-1.05V310.47h1.22l6,9.11Z"/><path class="e32f7453-1ebf-4941-bf07-c5198c528e88" d="M300.23,317.18a4.14,4.14,0,0,1-1.08,3,3.63,3.63,0,0,1-2.74,1.15,3.51,3.51,0,0,1-2.7-1.12,4.65,4.65,0,0,1,.05-6,3.62,3.62,0,0,1,2.74-1.14,3.53,3.53,0,0,1,2.7,1.13A4.13,4.13,0,0,1,300.23,317.18Zm-1,0c0-1.92-1.09-3.17-2.76-3.17s-2.73,1.27-2.73,3.14,1.09,3.18,2.75,3.18S299.2,319.08,299.2,317.21Z"/><path class="e32f7453-1ebf-4941-bf07-c5198c528e88" d="M306.07,320.94a4.08,4.08,0,0,1-1.74.4c-1.44,0-2.14-.81-2.09-2.44l.12-4.61-1.19-.07.05-.66,1.17-.27.06-1.77h1l-.05,1.82H306l-.05.93h-2.59l-.12,4.66c0,1,.34,1.46,1.14,1.46a3.85,3.85,0,0,0,1.5-.37Z"/><path class="e32f7453-1ebf-4941-bf07-c5198c528e88" d="M309,310.74a.83.83,0,0,1-.19.54.63.63,0,0,1-.52.24.67.67,0,0,1-.53-.24.85.85,0,0,1,0-1.07.65.65,0,0,1,.53-.22.62.62,0,0,1,.52.22A.82.82,0,0,1,309,310.74Zm-.19,10.35H307.8V313.3l1.05-.22Z"/><path class="e32f7453-1ebf-4941-bf07-c5198c528e88" d="M315.33,309.6l-.05.24c0,.17-.08.32-.14.47l-.06.24a2.8,2.8,0,0,0-1.19-.32c-.87,0-1.3.61-1.3,1.82v1.29H315l-.05.93h-2.4v6.82h-1v-6.78l-1.26-.09.07-.66,1.17-.27,0-1.23c0-1.87.81-2.8,2.34-2.8A3.37,3.37,0,0,1,315.33,309.6Z"/><path class="e32f7453-1ebf-4941-bf07-c5198c528e88" d="M317.66,310.74a.83.83,0,0,1-.19.54.65.65,0,0,1-.52.24.67.67,0,0,1-.53-.24.85.85,0,0,1,0-1.07A.65.65,0,0,1,317,310a.63.63,0,0,1,.52.22A.82.82,0,0,1,317.66,310.74Zm-.19,10.35h-1.05V313.3l1.05-.22Z"/><path class="e32f7453-1ebf-4941-bf07-c5198c528e88" d="M325.67,320.65a4.53,4.53,0,0,1-2.42.66c-2.33,0-3.8-1.63-3.8-4.1a4.13,4.13,0,0,1,1.08-3,3.6,3.6,0,0,1,2.74-1.16,4.35,4.35,0,0,1,2.43.67l-.27.95a3.75,3.75,0,0,0-2.16-.63c-1.68,0-2.74,1.24-2.74,3.11s1.09,3.15,2.76,3.15a4,4,0,0,0,2.16-.65Z"/><path class="e32f7453-1ebf-4941-bf07-c5198c528e88" d="M331.75,320.16h-.05a2.85,2.85,0,0,1-2.28,1.15,2.25,2.25,0,0,1-2.46-2.16q0-2.49,4.73-2.77v-.46a1.63,1.63,0,0,0-1.84-1.85,4.76,4.76,0,0,0-2.55.93l-.24-1a5.46,5.46,0,0,1,2.89-.94,2.46,2.46,0,0,1,2.79,2.79v3.74c0,.61.14.8.78.78l-.07.87C332.45,321.33,331.87,321,331.75,320.16Zm-.06-.79V317.1c-2.62.28-3.63.86-3.63,1.93a1.42,1.42,0,0,0,1.6,1.36A2.67,2.67,0,0,0,331.69,319.37Z"/><path class="e32f7453-1ebf-4941-bf07-c5198c528e88" d="M339,320.94a4,4,0,0,1-1.73.4c-1.45,0-2.14-.81-2.09-2.44l.12-4.61-1.19-.07.05-.66,1.17-.27,0-1.77h1l0,1.82h2.6l-.05.93h-2.58l-.12,4.66c0,1,.34,1.46,1.14,1.46a3.81,3.81,0,0,0,1.49-.37Z"/><path class="e32f7453-1ebf-4941-bf07-c5198c528e88" d="M341.94,310.74a.83.83,0,0,1-.19.54.71.71,0,0,1-1.06,0,.89.89,0,0,1,0-1.07.75.75,0,0,1,1.06,0A.82.82,0,0,1,341.94,310.74Zm-.19,10.35h-1.06V313.3l1.06-.22Z"/><path class="e32f7453-1ebf-4941-bf07-c5198c528e88" d="M351.3,317.18a4.1,4.1,0,0,1-1.09,3,3.62,3.62,0,0,1-2.73,1.15,3.53,3.53,0,0,1-2.71-1.12,4.67,4.67,0,0,1,.06-6,3.61,3.61,0,0,1,2.73-1.14,3.54,3.54,0,0,1,2.71,1.13A4.18,4.18,0,0,1,351.3,317.18Zm-1,0c0-1.92-1.09-3.17-2.76-3.17s-2.74,1.27-2.74,3.14,1.09,3.18,2.76,3.18S350.27,319.08,350.27,317.21Z"/><path class="e32f7453-1ebf-4941-bf07-c5198c528e88" d="M359.45,321.09h-1.06v-5c0-1.36-.53-2-1.72-2a3.33,3.33,0,0,0-2.36,1.1v5.9h-1.05V313.3l1.05-.22v1.28a3.77,3.77,0,0,1,2.65-1.28,2.35,2.35,0,0,1,2.49,2.67Z"/><path class="e32f7453-1ebf-4941-bf07-c5198c528e88" d="M366.52,319c0,1.42-1.19,2.35-2.79,2.35a4.69,4.69,0,0,1-2.55-.7l.29-1a4,4,0,0,0,2.29.72c1,0,1.75-.49,1.75-1.31a1,1,0,0,0-.11-.49,1.61,1.61,0,0,0-.28-.36,1.82,1.82,0,0,0-.47-.27l-.5-.21-.59-.18c-1.36-.41-2.26-1-2.26-2.21,0-1.4,1.1-2.25,2.63-2.25a5,5,0,0,1,2.37.58l-.31.95a4.3,4.3,0,0,0-2.12-.57c-1,0-1.57.44-1.57,1.19a.84.84,0,0,0,.12.45,1.33,1.33,0,0,0,.71.62l.5.2c.12.05.32.1.59.19C365.63,317.1,366.52,317.67,366.52,319Z"/></g><path class="ef11d33d-ff65-4d66-a413-1bdc7e399fff" d="M461.5,290.2h156a11,11,0,0,1,11,11v28a11,11,0,0,1-11,11h-156a11,11,0,0,1-11-11v-28A11,11,0,0,1,461.5,290.2Z"/><g class="a6436b9d-8e1d-431c-9cbb-2181a5f1c6bb"><path class="e32f7453-1ebf-4941-bf07-c5198c528e88" d="M500.5,311.49v9.6h-1.09v-9.6h-3.74v-1h8.57v1Z"/></g><g class="a6436b9d-8e1d-431c-9cbb-2181a5f1c6bb"><path class="e32f7453-1ebf-4941-bf07-c5198c528e88" d="M511.3,317.18a4.14,4.14,0,0,1-1.08,3,3.65,3.65,0,0,1-2.74,1.15,3.51,3.51,0,0,1-2.7-1.12,4.65,4.65,0,0,1,.05-6,3.62,3.62,0,0,1,2.74-1.14,3.53,3.53,0,0,1,2.7,1.13A4.18,4.18,0,0,1,511.3,317.18Zm-1,0c0-1.92-1.09-3.17-2.76-3.17s-2.73,1.27-2.73,3.14,1.09,3.18,2.75,3.18S510.27,319.08,510.27,317.21Z"/><path class="e32f7453-1ebf-4941-bf07-c5198c528e88" d="M518.5,313.56v-3.93l1-.22v11.68h-1v-.73a3.25,3.25,0,0,1-2.26.95c-2.1,0-3.49-1.65-3.49-4a4.18,4.18,0,0,1,1.09-3,3.69,3.69,0,0,1,2.77-1.16A4.41,4.41,0,0,1,518.5,313.56Zm0,1.12a3.11,3.11,0,0,0-1.94-.59c-1.67,0-2.72,1.29-2.72,3.16s1,3.09,2.58,3.09a3,3,0,0,0,2.08-.87v-4.79Z"/><path class="e32f7453-1ebf-4941-bf07-c5198c528e88" d="M526.13,320.16h0a2.86,2.86,0,0,1-2.28,1.15,2.24,2.24,0,0,1-2.46-2.16c0-1.66,1.58-2.58,4.72-2.77v-.46a1.62,1.62,0,0,0-1.83-1.85,4.76,4.76,0,0,0-2.55.93l-.24-1a5.43,5.43,0,0,1,2.89-.94,2.46,2.46,0,0,1,2.79,2.79v3.74c0,.61.13.8.78.78l-.07.87C526.83,321.33,526.25,321,526.13,320.16Zm-.07-.79V317.1c-2.62.28-3.62.86-3.62,1.93a1.42,1.42,0,0,0,1.6,1.36A2.63,2.63,0,0,0,526.06,319.37Z"/></g><g class="a6436b9d-8e1d-431c-9cbb-2181a5f1c6bb"><path class="e32f7453-1ebf-4941-bf07-c5198c528e88" d="M535.38,313.3l-3,7.7-.63,1.69c-.68,1.85-1.39,2.45-2.51,2.45a3.84,3.84,0,0,1-1.51-.36l.32-1a2.57,2.57,0,0,0,1.19.34c.64,0,1.07-.39,1.6-1.8l.52-1.38-3-7.67h1.14l2.45,6.43,2.39-6.43Z"/></g><g class="a6436b9d-8e1d-431c-9cbb-2181a5f1c6bb"><path class="e32f7453-1ebf-4941-bf07-c5198c528e88" d="M536.25,310.75a.88.88,0,0,1,.92-.84,1.27,1.27,0,0,1,1.2,1.34c0,1-.69,2-2.1,2.92l-.46-.42c1-.73,1.49-1.41,1.49-2C537.3,311.3,537,311,536.25,310.75Z"/></g><g class="a6436b9d-8e1d-431c-9cbb-2181a5f1c6bb"><path class="e32f7453-1ebf-4941-bf07-c5198c528e88" d="M544.27,319c0,1.42-1.19,2.35-2.79,2.35a4.69,4.69,0,0,1-2.55-.7l.29-1a4,4,0,0,0,2.29.72c1,0,1.76-.49,1.76-1.31a1,1,0,0,0-.12-.49,1.61,1.61,0,0,0-.28-.36,1.82,1.82,0,0,0-.47-.27l-.49-.21-.6-.18c-1.36-.41-2.26-1-2.26-2.21,0-1.4,1.1-2.25,2.63-2.25a5,5,0,0,1,2.37.58l-.31.95a4.3,4.3,0,0,0-2.12-.57c-1,0-1.57.44-1.57,1.19a.84.84,0,0,0,.12.45,1.25,1.25,0,0,0,.26.34,1.31,1.31,0,0,0,.46.28l.49.2c.12.05.32.1.59.19C543.38,317.1,544.27,317.67,544.27,319Z"/></g><g class="a6436b9d-8e1d-431c-9cbb-2181a5f1c6bb"><path class="e32f7453-1ebf-4941-bf07-c5198c528e88" d="M554.05,311.49v9.6H553v-9.6h-3.74v-1h8.57v1Z"/></g><g class="a6436b9d-8e1d-431c-9cbb-2181a5f1c6bb"><path class="e32f7453-1ebf-4941-bf07-c5198c528e88" d="M562,320.16h0a2.85,2.85,0,0,1-2.27,1.15,2.25,2.25,0,0,1-2.47-2.16q0-2.49,4.73-2.77v-.46a1.63,1.63,0,0,0-1.84-1.85,4.76,4.76,0,0,0-2.55.93l-.24-1a5.46,5.46,0,0,1,2.89-.94,2.46,2.46,0,0,1,2.79,2.79v3.74c0,.61.14.8.78.78l-.07.87C562.7,321.33,562.12,321,562,320.16Zm-.06-.79V317.1c-2.62.28-3.62.86-3.62,1.93a1.42,1.42,0,0,0,1.59,1.36A2.67,2.67,0,0,0,561.94,319.37Z"/><path class="e32f7453-1ebf-4941-bf07-c5198c528e88" d="M570,319c0,1.42-1.19,2.35-2.79,2.35a4.69,4.69,0,0,1-2.55-.7l.29-1a4.06,4.06,0,0,0,2.3.72c1,0,1.75-.49,1.75-1.31a1,1,0,0,0-.12-.49,2,2,0,0,0-.27-.36,2.13,2.13,0,0,0-.48-.27l-.49-.21-.6-.18c-1.36-.41-2.26-1-2.26-2.21,0-1.4,1.11-2.25,2.64-2.25a5,5,0,0,1,2.36.58l-.31.95a4.28,4.28,0,0,0-2.12-.57c-1,0-1.56.44-1.56,1.19a.84.84,0,0,0,.11.45,1.25,1.25,0,0,0,.26.34,1.31,1.31,0,0,0,.46.28l.49.2c.12.05.32.1.6.19C569.13,317.1,570,317.67,570,319Z"/><path class="e32f7453-1ebf-4941-bf07-c5198c528e88" d="M573,317.21v3.88h-1.05V309.63l1.05-.22v7.48h0l3.51-3.59h1.32L574.09,317l3.76,4.08h-1.34L573,317.21Z"/><path class="e32f7453-1ebf-4941-bf07-c5198c528e88" d="M584,319c0,1.42-1.19,2.35-2.79,2.35a4.69,4.69,0,0,1-2.55-.7l.29-1a4,4,0,0,0,2.29.72c1,0,1.75-.49,1.75-1.31a1,1,0,0,0-.11-.49,1.61,1.61,0,0,0-.28-.36,1.82,1.82,0,0,0-.47-.27l-.5-.21-.59-.18c-1.36-.41-2.26-1-2.26-2.21,0-1.4,1.1-2.25,2.63-2.25a5,5,0,0,1,2.37.58l-.31.95a4.3,4.3,0,0,0-2.12-.57c-1,0-1.57.44-1.57,1.19a.84.84,0,0,0,.12.45,1.33,1.33,0,0,0,.71.62l.5.2c.12.05.32.1.59.19C583.08,317.1,584,317.67,584,319Z"/></g><path class="ef11d33d-ff65-4d66-a413-1bdc7e399fff" d="M677.4,290.2h156a11,11,0,0,1,11,11v28a11,11,0,0,1-11,11h-156a11,11,0,0,1-11-11v-28A11,11,0,0,1,677.4,290.2Z"/><g class="a6436b9d-8e1d-431c-9cbb-2181a5f1c6bb"><path class="e32f7453-1ebf-4941-bf07-c5198c528e88" d="M742.14,313.78c0,2.3-1.58,3.5-4.29,3.55l-1.44,0v3.74h-1.09V310.47H738C740.73,310.47,742.14,311.76,742.14,313.78Zm-1.13.05c0-1.53-1.07-2.36-3-2.36h-1.55v4.88l1.51,0C740,316.28,741,315.45,741,313.83Z"/></g><g class="a6436b9d-8e1d-431c-9cbb-2181a5f1c6bb"><path class="e32f7453-1ebf-4941-bf07-c5198c528e88" d="M745.06,316.09v5H744V313.3l1.06-.22v1.67a2.55,2.55,0,0,1,2.29-1.67,2.66,2.66,0,0,1,1.36.36l-.27,1a2.28,2.28,0,0,0-1.19-.34C746.38,314.09,745.65,314.75,745.06,316.09Z"/></g><g class="a6436b9d-8e1d-431c-9cbb-2181a5f1c6bb"><path class="e32f7453-1ebf-4941-bf07-c5198c528e88" d="M757,317.18a4.14,4.14,0,0,1-1.08,3,3.63,3.63,0,0,1-2.74,1.15,3.51,3.51,0,0,1-2.7-1.12,4.65,4.65,0,0,1,0-6,3.62,3.62,0,0,1,2.74-1.14,3.53,3.53,0,0,1,2.7,1.13A4.18,4.18,0,0,1,757,317.18Zm-1,0c0-1.92-1.09-3.17-2.76-3.17s-2.73,1.27-2.73,3.14,1.09,3.18,2.75,3.18S755.93,319.08,755.93,317.21Z"/><path class="e32f7453-1ebf-4941-bf07-c5198c528e88" d="M762.92,309.6l-.06.24c-.05.17-.08.32-.13.47l-.07.24a2.8,2.8,0,0,0-1.19-.32c-.87,0-1.29.61-1.29,1.82v1.29h2.45l0,.93h-2.4v6.82h-1v-6.78l-1.26-.09.07-.66,1.17-.27,0-1.23c0-1.87.82-2.8,2.35-2.8A3.44,3.44,0,0,1,762.92,309.6Z"/><path class="e32f7453-1ebf-4941-bf07-c5198c528e88" d="M765.24,310.74a.82.82,0,0,1-.18.54.71.71,0,0,1-1.06,0,.82.82,0,0,1-.18-.54.81.81,0,0,1,.18-.53.75.75,0,0,1,1.06,0A.81.81,0,0,1,765.24,310.74Zm-.18,10.35H764V313.3l1.06-.22Z"/><path class="e32f7453-1ebf-4941-bf07-c5198c528e88" d="M767.54,321.09V309.63l1.05-.22v11.68Z"/><path class="e32f7453-1ebf-4941-bf07-c5198c528e88" d="M771.6,317.23v.09c0,1.78,1.11,3,2.72,3a4.12,4.12,0,0,0,2.26-.65l.21,1a4.69,4.69,0,0,1-2.5.66,3.72,3.72,0,0,1-3.76-4,4.38,4.38,0,0,1,1.05-3,3.35,3.35,0,0,1,2.62-1.18A2.67,2.67,0,0,1,777,316a4,4,0,0,1-.17,1.24Zm.07-.83,4.32,0a2.66,2.66,0,0,0,0-.34,1.78,1.78,0,0,0-1.87-2A2.51,2.51,0,0,0,771.67,316.4Z"/></g><path class="a6964105-de87-4d99-a39f-cb4de989fee5" d="M29.4,503.6h156a11,11,0,0,1,11,11v28a11,11,0,0,1-11,11H29.4a11,11,0,0,1-11-11v-28A11,11,0,0,1,29.4,503.6Z"/><g class="a6436b9d-8e1d-431c-9cbb-2181a5f1c6bb"><path class="svgtext" d="M75.36,527.09c0,2.3-1.58,3.5-4.29,3.55l-1.44,0v3.74H68.54V523.78h2.67C74,523.78,75.36,525.07,75.36,527.09Zm-1.13,0c0-1.53-1.07-2.36-3.06-2.36H69.63v4.88l1.51,0C73.2,529.59,74.23,528.76,74.23,527.14Z"/></g><g class="a6436b9d-8e1d-431c-9cbb-2181a5f1c6bb"><path class="svgtext" d="M78.28,529.4v5H77.22v-7.78l1.06-.23v1.67a2.57,2.57,0,0,1,2.29-1.67,2.66,2.66,0,0,1,1.36.36l-.27,1a2.28,2.28,0,0,0-1.19-.34C79.6,527.4,78.87,528.06,78.28,529.4Z"/></g><g class="a6436b9d-8e1d-431c-9cbb-2181a5f1c6bb"><path class="svgtext" d="M90.19,530.49a4.15,4.15,0,0,1-1.09,3,3.63,3.63,0,0,1-2.74,1.15,3.51,3.51,0,0,1-2.7-1.12,4.65,4.65,0,0,1,0-6,3.62,3.62,0,0,1,2.74-1.14,3.53,3.53,0,0,1,2.7,1.13A4.14,4.14,0,0,1,90.19,530.49Zm-1,0c0-1.92-1.09-3.17-2.76-3.17s-2.73,1.27-2.73,3.14,1.09,3.18,2.75,3.18S89.15,532.39,89.15,530.52Z"/><path class="svgtext" d="M97.38,526.87v-3.93l1.05-.22V534.4H97.38v-.73a3.25,3.25,0,0,1-2.26,1c-2.1,0-3.49-1.65-3.49-4a4.18,4.18,0,0,1,1.09-3,3.68,3.68,0,0,1,2.77-1.15A4.37,4.37,0,0,1,97.38,526.87Zm0,1.12a3.11,3.11,0,0,0-1.94-.59c-1.67,0-2.72,1.29-2.72,3.16s1,3.09,2.58,3.09a3,3,0,0,0,2.08-.86V528Z"/><path class="svgtext" d="M100.81,526.62h1v5c0,1.31.57,2,1.69,2a3.29,3.29,0,0,0,2.39-1.11v-5.89H107v7.78l-1.06.22v-1.26a3.68,3.68,0,0,1-2.68,1.26,2.35,2.35,0,0,1-2.45-2.67Z"/><path class="svgtext" d="M115.16,534a4.51,4.51,0,0,1-2.42.66c-2.32,0-3.8-1.63-3.8-4.1a4.15,4.15,0,0,1,1.08-3,3.64,3.64,0,0,1,2.74-1.16,4.4,4.4,0,0,1,2.43.67l-.27,1a3.75,3.75,0,0,0-2.16-.63c-1.68,0-2.74,1.24-2.74,3.11s1.09,3.15,2.76,3.15a4,4,0,0,0,2.16-.65Z"/><path class="svgtext" d="M121,534.25a4.09,4.09,0,0,1-1.73.41c-1.45,0-2.15-.82-2.1-2.45l.12-4.61-1.19-.07,0-.66,1.18-.27.05-1.77h1l-.05,1.82h2.6l0,.93h-2.58l-.12,4.66c0,1,.34,1.46,1.14,1.46a3.85,3.85,0,0,0,1.49-.37Z"/><path class="svgtext" d="M124,524.05a.82.82,0,0,1-.18.54.71.71,0,0,1-1.06,0,.82.82,0,0,1-.18-.54.81.81,0,0,1,.18-.53.75.75,0,0,1,1.06,0A.81.81,0,0,1,124,524.05Zm-.18,10.35h-1.06v-7.78l1.06-.23Z"/><path class="svgtext" d="M129.12,534.42h-1l-3.07-7.8h1.14l2.46,6.42,2.38-6.42h1.1Z"/><path class="svgtext" d="M134.73,524.05a.83.83,0,0,1-.19.54.71.71,0,0,1-1.06,0,.89.89,0,0,1,0-1.07.75.75,0,0,1,1.06,0A.82.82,0,0,1,134.73,524.05Zm-.19,10.35h-1.06v-7.78l1.06-.23Z"/><path class="svgtext" d="M140.9,534.25a4.1,4.1,0,0,1-1.74.41c-1.44,0-2.14-.82-2.09-2.45l.12-4.61-1.19-.07.05-.66,1.17-.27.06-1.77h1l-.05,1.82h2.6l-.05.93h-2.59l-.12,4.66c0,1,.34,1.46,1.14,1.46a3.85,3.85,0,0,0,1.5-.37Z"/><path class="svgtext" d="M148.53,526.62l-3,7.7-.63,1.68c-.68,1.85-1.39,2.45-2.51,2.45a3.84,3.84,0,0,1-1.51-.36l.32-1a2.57,2.57,0,0,0,1.19.34c.64,0,1.07-.39,1.6-1.8l.52-1.38-3-7.66h1.14L145,533l2.39-6.42Z"/></g><path class="a6964105-de87-4d99-a39f-cb4de989fee5" d="M245.6,370.9h156a11,11,0,0,1,11,11v28a11,11,0,0,1-11,11h-156a11,11,0,0,1-11-11v-28A11,11,0,0,1,245.6,370.9Z"/><g class="a6436b9d-8e1d-431c-9cbb-2181a5f1c6bb"><path class="svgtext" d="M308.48,401.78h-1.11l-1.12-3h-4.81l-1.12,3h-1.11l4-10.62h1.28Zm-4.62-9.55-2,5.52h4.06Z"/><path class="svgtext" d="M315.67,401.34a4.47,4.47,0,0,1-2.41.66c-2.33,0-3.81-1.63-3.81-4.1a4.15,4.15,0,0,1,1.09-3,3.6,3.6,0,0,1,2.73-1.16,4.4,4.4,0,0,1,2.43.67l-.27.95a3.75,3.75,0,0,0-2.16-.63c-1.68,0-2.73,1.24-2.73,3.11s1.08,3.15,2.75,3.15a4,4,0,0,0,2.16-.65Z"/><path class="svgtext" d="M321.5,401.63a4.06,4.06,0,0,1-1.73.41c-1.45,0-2.14-.82-2.09-2.45l.12-4.61-1.19-.07.05-.66,1.17-.27.05-1.77h1l-.05,1.82h2.6l-.05.93H318.8l-.12,4.66c0,1,.34,1.46,1.14,1.46a3.81,3.81,0,0,0,1.49-.37Z"/><path class="svgtext" d="M324.48,391.43a.83.83,0,0,1-.19.54.67.67,0,0,1-.53.24.63.63,0,0,1-.52-.24.85.85,0,0,1,0-1.07.62.62,0,0,1,.52-.22.65.65,0,0,1,.53.22A.82.82,0,0,1,324.48,391.43Zm-.19,10.35h-1.05V394l1.05-.23Z"/><path class="svgtext" d="M329.63,401.8h-.95L325.6,394h1.14l2.46,6.42,2.38-6.42h1.11Z"/><path class="svgtext" d="M335.24,391.43a.83.83,0,0,1-.19.54.67.67,0,0,1-.53.24A.65.65,0,0,1,334,392a.85.85,0,0,1,0-1.07.63.63,0,0,1,.52-.22.65.65,0,0,1,.53.22A.82.82,0,0,1,335.24,391.43Zm-.19,10.35H334V394l1.05-.23Z"/><path class="svgtext" d="M341.41,401.63a4.1,4.1,0,0,1-1.74.41c-1.44,0-2.14-.82-2.09-2.45l.12-4.61-1.19-.07.05-.66,1.18-.27.05-1.77h1l-.05,1.82h2.6l0,.93h-2.58l-.12,4.66c0,1,.34,1.46,1.14,1.46a3.85,3.85,0,0,0,1.49-.37Z"/><path class="svgtext" d="M349,394l-3,7.7-.63,1.68c-.68,1.85-1.4,2.45-2.52,2.45a3.84,3.84,0,0,1-1.51-.36l.32-1a2.64,2.64,0,0,0,1.19.34c.65,0,1.07-.39,1.6-1.8l.53-1.38L342,394h1.14l2.45,6.42,2.4-6.42Z"/></g><path class="a6964105-de87-4d99-a39f-cb4de989fee5" d="M29.4,372.6h156a11,11,0,0,1,11,11v28a11,11,0,0,1-11,11H29.4a11,11,0,0,1-11-11v-28A11,11,0,0,1,29.4,372.6Z"/><g class="a6436b9d-8e1d-431c-9cbb-2181a5f1c6bb"><path class="svgtext" d="M85.69,392.78H92v1H86.78v4h4.28v1H86.78v4.64H85.69Z"/><path class="svgtext" d="M95,393.05a.82.82,0,0,1-.18.54.71.71,0,0,1-1.06,0,.82.82,0,0,1-.18-.54.81.81,0,0,1,.18-.53.75.75,0,0,1,1.06,0A.81.81,0,0,1,95,393.05Zm-.18,10.35H93.71v-7.78l1.06-.23Z"/><path class="svgtext" d="M101.13,403.25a4.1,4.1,0,0,1-1.74.41c-1.44,0-2.14-.82-2.09-2.45l.12-4.61-1.19-.07,0-.66,1.17-.27,0-1.77h1l-.05,1.82h2.6l0,.93H98.42l-.12,4.66c0,1,.34,1.46,1.14,1.46a3.85,3.85,0,0,0,1.5-.37Z"/><path class="svgtext" d="M109,403.4h-1v-5c0-1.36-.53-2-1.72-2a3.33,3.33,0,0,0-2.36,1.1v5.9h-1.06v-7.78l1.06-.23v1.28a3.76,3.76,0,0,1,2.65-1.28,2.35,2.35,0,0,1,2.48,2.67Z"/><path class="svgtext" d="M112,399.54v.09c.05,1.78,1.1,3,2.72,3A4.12,4.12,0,0,0,117,402l.2,1a4.64,4.64,0,0,1-2.5.66,3.72,3.72,0,0,1-3.75-4,4.33,4.33,0,0,1,1-3,3.38,3.38,0,0,1,2.62-1.18,2.68,2.68,0,0,1,2.84,2.88,4,4,0,0,1-.17,1.24Zm.07-.83,4.31,0a1.34,1.34,0,0,0,0-.34,1.78,1.78,0,0,0-1.87-2A2.5,2.5,0,0,0,112.06,398.71Z"/></g><g class="a6436b9d-8e1d-431c-9cbb-2181a5f1c6bb"><path class="svgtext" d="M124.09,401.28c0,1.41-1.19,2.34-2.79,2.34a4.69,4.69,0,0,1-2.55-.7l.29-1a4.09,4.09,0,0,0,2.29.71c1,0,1.76-.49,1.76-1.31a1,1,0,0,0-.12-.49,1.61,1.61,0,0,0-.28-.36,1.82,1.82,0,0,0-.47-.27,4.62,4.62,0,0,0-.49-.2c-.11,0-.31-.11-.6-.19-1.36-.41-2.26-1-2.26-2.21,0-1.4,1.1-2.25,2.63-2.25a5,5,0,0,1,2.37.58l-.31.95a4.3,4.3,0,0,0-2.12-.57c-1,0-1.57.44-1.57,1.19a.9.9,0,0,0,.12.46,1.35,1.35,0,0,0,.26.33,1.22,1.22,0,0,0,.46.28l.49.2c.12.05.32.1.59.19C123.2,399.41,124.09,400,124.09,401.28Z"/></g><g class="a6436b9d-8e1d-431c-9cbb-2181a5f1c6bb"><path class="svgtext" d="M130.76,401.28c0,1.41-1.19,2.34-2.79,2.34a4.69,4.69,0,0,1-2.55-.7l.29-1a4.09,4.09,0,0,0,2.29.71c1,0,1.76-.49,1.76-1.31a1,1,0,0,0-.12-.49,1.61,1.61,0,0,0-.28-.36,1.82,1.82,0,0,0-.47-.27,4.62,4.62,0,0,0-.49-.2c-.11,0-.31-.11-.6-.19-1.36-.41-2.26-1-2.26-2.21,0-1.4,1.1-2.25,2.63-2.25a5,5,0,0,1,2.37.58l-.31.95a4.3,4.3,0,0,0-2.12-.57c-1,0-1.57.44-1.57,1.19a.9.9,0,0,0,.12.46,1.35,1.35,0,0,0,.26.33,1.22,1.22,0,0,0,.46.28l.49.2c.12.05.32.1.59.19C129.87,399.41,130.76,400,130.76,401.28Z"/></g><path class="a6964105-de87-4d99-a39f-cb4de989fee5" d="M942.7,356.7h156a11,11,0,0,1,11,11v28a11,11,0,0,1-11,11h-156a11,11,0,0,1-11-11v-28A11,11,0,0,1,942.7,356.7Z"/><g class="a6436b9d-8e1d-431c-9cbb-2181a5f1c6bb"><path class="svgtext" d="M991.41,371.93c0,3.37-2.09,5.39-5.72,5.39h-2.8V366.7h2.89a5.79,5.79,0,0,1,4.11,1.42A5,5,0,0,1,991.41,371.93Zm-1.09.09c0-2.71-1.68-4.32-4.61-4.32H984v8.62h1.77C988.57,376.32,990.32,374.86,990.32,372Z"/><path class="svgtext" d="M1000.82,366.7h1.06v10.72h-1.17l-6.09-9.19v9.09h-1V366.7h1.22l6,9.11Z"/><path class="svgtext" d="M1012.77,377.32h-1.1l-1.12-3h-4.81l-1.12,3h-1.11l4-10.62h1.27Zm-4.62-9.55-2,5.52h4.06Z"/><path class="svgtext" d="M1025.08,370c0,2.3-1.58,3.5-4.28,3.55l-1.45,0v3.74h-1.08V366.7h2.67C1023.67,366.7,1025.08,368,1025.08,370Zm-1.12.05c0-1.53-1.07-2.36-3.06-2.36h-1.55v4.88l1.52,0C1022.92,372.51,1024,371.68,1024,370.06Z"/></g><g class="a6436b9d-8e1d-431c-9cbb-2181a5f1c6bb"><path class="svgtext" d="M1028,372.32v5H1027v-7.78l1.06-.23V371a2.57,2.57,0,0,1,2.29-1.67,2.69,2.69,0,0,1,1.36.36l-.27,1a2.31,2.31,0,0,0-1.19-.34C1029.33,370.32,1028.6,371,1028,372.32Z"/></g><g class="a6436b9d-8e1d-431c-9cbb-2181a5f1c6bb"><path class="svgtext" d="M1039.91,373.41a4.15,4.15,0,0,1-1.09,3,3.63,3.63,0,0,1-2.74,1.15,3.52,3.52,0,0,1-2.7-1.12,4.65,4.65,0,0,1,0-6,3.62,3.62,0,0,1,2.74-1.14,3.53,3.53,0,0,1,2.7,1.13A4.14,4.14,0,0,1,1039.91,373.41Zm-1,0c0-1.92-1.09-3.17-2.76-3.17s-2.73,1.27-2.73,3.14,1.09,3.18,2.75,3.18S1038.87,375.31,1038.87,373.44Z"/><path class="svgtext" d="M1045.86,365.83l-.06.24c0,.17-.08.32-.13.47l-.07.24a2.8,2.8,0,0,0-1.19-.32c-.87,0-1.29.61-1.29,1.82v1.29h2.45l0,.93h-2.4v6.82h-1v-6.78l-1.26-.09.07-.66,1.17-.27,0-1.23c0-1.87.82-2.8,2.35-2.8A3.44,3.44,0,0,1,1045.86,365.83Z"/><path class="svgtext" d="M1048.18,367a.82.82,0,0,1-.18.54.71.71,0,0,1-1.06,0,.89.89,0,0,1,0-1.07.75.75,0,0,1,1.06,0A.81.81,0,0,1,1048.18,367Zm-.18,10.35h-1.06v-7.78l1.06-.23Z"/><path class="svgtext" d="M1050.48,377.32V365.86l1-.22v11.68Z"/><path class="svgtext" d="M1054.54,373.46v.09c0,1.78,1.11,3,2.72,3a4.12,4.12,0,0,0,2.26-.65l.21,1a4.69,4.69,0,0,1-2.5.66,3.72,3.72,0,0,1-3.76-4,4.34,4.34,0,0,1,1.06-3,3.34,3.34,0,0,1,2.61-1.18,2.67,2.67,0,0,1,2.84,2.88,4,4,0,0,1-.17,1.24Zm.07-.83,4.32,0a1.34,1.34,0,0,0,0-.34,1.78,1.78,0,0,0-1.87-2A2.51,2.51,0,0,0,1054.61,372.63Z"/></g><g class="a6436b9d-8e1d-431c-9cbb-2181a5f1c6bb"><path class="svgtext" d="M995.35,386.88a5,5,0,0,1,3.74,1.52,5.47,5.47,0,0,1,1.48,4,5.56,5.56,0,0,1-1.48,4,5.24,5.24,0,0,1-7.47,0,5.38,5.38,0,0,1-1.5-4,5.56,5.56,0,0,1,1.48-4A4.94,4.94,0,0,1,995.35,386.88Zm4.12,5.55a4.74,4.74,0,0,0-1.16-3.31,3.89,3.89,0,0,0-3-1.28,3.8,3.8,0,0,0-2.94,1.26,5.21,5.21,0,0,0,0,6.58,3.83,3.83,0,0,0,3,1.29,3.79,3.79,0,0,0,2.94-1.27A4.67,4.67,0,0,0,999.47,392.43Z"/></g><g class="a6436b9d-8e1d-431c-9cbb-2181a5f1c6bb"><path class="svgtext" d="M1005.45,397.74h-1l-3.08-7.81h1.14l2.47,6.43,2.37-6.43h1.11Z"/></g><g class="a6436b9d-8e1d-431c-9cbb-2181a5f1c6bb"><path class="svgtext" d="M1010.27,393.86V394c.06,1.78,1.11,3,2.72,3a4.12,4.12,0,0,0,2.26-.65l.21,1a4.66,4.66,0,0,1-2.5.66,3.72,3.72,0,0,1-3.76-4,4.34,4.34,0,0,1,1.06-3,3.33,3.33,0,0,1,2.62-1.18,2.66,2.66,0,0,1,2.83,2.88,4.09,4.09,0,0,1-.17,1.24Zm.07-.83,4.32,0a1.34,1.34,0,0,0,0-.34,1.78,1.78,0,0,0-1.87-2A2.51,2.51,0,0,0,1010.34,393Z"/></g><g class="a6436b9d-8e1d-431c-9cbb-2181a5f1c6bb"><path class="svgtext" d="M1018.76,392.72v5h-1.06v-7.79l1.06-.22v1.67a2.55,2.55,0,0,1,2.29-1.67,2.69,2.69,0,0,1,1.36.36l-.27,1a2.19,2.19,0,0,0-1.19-.34C1020.08,390.72,1019.35,391.38,1018.76,392.72Z"/></g><g class="a6436b9d-8e1d-431c-9cbb-2181a5f1c6bb"><path class="svgtext" d="M1026.87,397.74h-.95l-3.08-7.81H1024l2.47,6.43,2.37-6.43h1.11Z"/><path class="svgtext" d="M1032.48,387.37a.83.83,0,0,1-.19.54.69.69,0,0,1-1,0,.85.85,0,0,1,0-1.07.64.64,0,0,1,.53-.22.63.63,0,0,1,.52.22A.82.82,0,0,1,1032.48,387.37Zm-.19,10.35h-1v-7.79l1-.22Z"/></g><g class="a6436b9d-8e1d-431c-9cbb-2181a5f1c6bb"><path class="svgtext" d="M1035.33,393.86V394c.06,1.78,1.11,3,2.72,3a4.18,4.18,0,0,0,2.27-.65l.2,1a4.66,4.66,0,0,1-2.5.66,3.72,3.72,0,0,1-3.76-4,4.34,4.34,0,0,1,1.06-3,3.32,3.32,0,0,1,2.62-1.18,2.66,2.66,0,0,1,2.83,2.88,4.09,4.09,0,0,1-.17,1.24Zm.07-.83,4.32,0a1.34,1.34,0,0,0,0-.34,1.78,1.78,0,0,0-1.87-2A2.51,2.51,0,0,0,1035.4,393Z"/></g><g class="a6436b9d-8e1d-431c-9cbb-2181a5f1c6bb"><path class="svgtext" d="M1044.34,397.75l-2.38-7.82h1.13l1.8,6.21,2-6.19h.95l2.13,6.22,1.61-6.24h1.16l-2.31,7.82h-.94l-2.12-6.29-2.13,6.29Z"/></g><path class="a6964105-de87-4d99-a39f-cb4de989fee5" d="M942.2,422.2h156a11,11,0,0,1,11,11v28a11,11,0,0,1-11,11h-156a11,11,0,0,1-11-11v-28A11,11,0,0,1,942.2,422.2Z"/><g class="a6436b9d-8e1d-431c-9cbb-2181a5f1c6bb"><path class="svgtext" d="M1000.38,453h-1.11l-1.12-3h-4.81l-1.12,3h-1.1l4-10.62h1.28Zm-4.62-9.55-2,5.52h4.06Z"/><path class="svgtext" d="M1008.05,453H1007v-5c0-1.36-.52-2-1.71-2a3.33,3.33,0,0,0-2.37,1.1V453h-1v-7.79l1-.22v1.28a3.77,3.77,0,0,1,2.65-1.28,2.35,2.35,0,0,1,2.49,2.67Z"/></g><g class="a6436b9d-8e1d-431c-9cbb-2181a5f1c6bb"><path class="svgtext" d="M1016.16,452.58a4.53,4.53,0,0,1-2.42.66c-2.33,0-3.81-1.63-3.81-4.1a4.15,4.15,0,0,1,1.09-3,3.59,3.59,0,0,1,2.74-1.16,4.37,4.37,0,0,1,2.43.67l-.27.95a3.75,3.75,0,0,0-2.16-.63c-1.68,0-2.74,1.24-2.74,3.11s1.09,3.15,2.76,3.15a3.93,3.93,0,0,0,2.15-.65Z"/></g><g class="a6436b9d-8e1d-431c-9cbb-2181a5f1c6bb"><path class="svgtext" d="M1018.58,449.16v.09c.06,1.78,1.11,3,2.72,3a4.18,4.18,0,0,0,2.27-.65l.2,1a4.66,4.66,0,0,1-2.5.66,3.72,3.72,0,0,1-3.76-4,4.34,4.34,0,0,1,1.06-3,3.32,3.32,0,0,1,2.62-1.18,2.66,2.66,0,0,1,2.83,2.88,4,4,0,0,1-.17,1.24Zm.07-.83,4.32,0a1.34,1.34,0,0,0,0-.34,1.79,1.79,0,0,0-1.87-2A2.52,2.52,0,0,0,1018.65,448.33Z"/><path class="svgtext" d="M1030.69,450.89c0,1.42-1.19,2.35-2.79,2.35a4.69,4.69,0,0,1-2.55-.7l.29-1a4,4,0,0,0,2.29.72c1,0,1.76-.49,1.76-1.31a1,1,0,0,0-.12-.49,1.41,1.41,0,0,0-.28-.36,1.57,1.57,0,0,0-.47-.27l-.49-.21-.6-.18c-1.36-.41-2.26-1-2.26-2.21,0-1.4,1.1-2.25,2.63-2.25a5,5,0,0,1,2.37.58l-.31,1A4.32,4.32,0,0,0,1028,446c-1,0-1.57.45-1.57,1.2a.9.9,0,0,0,.12.46,1.67,1.67,0,0,0,.26.34,1.37,1.37,0,0,0,.46.27l.49.2c.12.05.32.1.59.19C1029.8,449,1030.69,449.6,1030.69,450.89Z"/><path class="svgtext" d="M1036.47,452.87a4.1,4.1,0,0,1-1.74.41c-1.44,0-2.14-.82-2.09-2.45l.12-4.61-1.19-.07,0-.66,1.18-.27,0-1.77h1l0,1.82h2.6l-.05.93h-2.58l-.12,4.66c0,1,.34,1.46,1.14,1.46a3.85,3.85,0,0,0,1.49-.37Z"/></g><g class="a6436b9d-8e1d-431c-9cbb-2181a5f1c6bb"><path class="svgtext" d="M1039.24,448v5h-1.06v-7.79l1.06-.22v1.67a2.55,2.55,0,0,1,2.29-1.67,2.66,2.66,0,0,1,1.36.36l-.27,1a2.19,2.19,0,0,0-1.19-.34C1040.56,446,1039.83,446.68,1039.24,448Z"/></g><g class="a6436b9d-8e1d-431c-9cbb-2181a5f1c6bb"><path class="svgtext" d="M1050.41,445.23l-3,7.71-.63,1.68c-.68,1.85-1.39,2.45-2.51,2.45a3.84,3.84,0,0,1-1.51-.36l.32-1a2.61,2.61,0,0,0,1.19.34c.64,0,1.07-.39,1.6-1.8l.52-1.38-3-7.67h1.14l2.45,6.43,2.39-6.43Z"/></g><path class="ef11d33d-ff65-4d66-a413-1bdc7e399fff" d="M942.2,487.7h156a11,11,0,0,1,11,11v28a11,11,0,0,1-11,11h-156a11,11,0,0,1-11-11v-28A11,11,0,0,1,942.2,487.7Z"/><g class="a6436b9d-8e1d-431c-9cbb-2181a5f1c6bb"><path class="e32f7453-1ebf-4941-bf07-c5198c528e88" d="M971,518.52h-1.28l-3.89-10.62h1.1l3.46,9.5,3.43-9.5h1.1Z"/><path class="e32f7453-1ebf-4941-bf07-c5198c528e88" d="M977.53,508.17a.83.83,0,0,1-.19.54.64.64,0,0,1-.53.24.62.62,0,0,1-.52-.24.85.85,0,0,1,0-1.07.63.63,0,0,1,.52-.22.65.65,0,0,1,.53.22A.82.82,0,0,1,977.53,508.17Zm-.19,10.35h-1.05v-7.79l1.05-.22Z"/></g><g class="a6436b9d-8e1d-431c-9cbb-2181a5f1c6bb"><path class="e32f7453-1ebf-4941-bf07-c5198c528e88" d="M980.38,514.66v.09c.06,1.78,1.11,3,2.72,3a4.18,4.18,0,0,0,2.27-.65l.2,1a4.66,4.66,0,0,1-2.5.66,3.72,3.72,0,0,1-3.76-4,4.34,4.34,0,0,1,1.06-3,3.32,3.32,0,0,1,2.62-1.18,2.66,2.66,0,0,1,2.83,2.88,4,4,0,0,1-.17,1.24Zm.07-.83,4.32,0a1.34,1.34,0,0,0,0-.34,1.79,1.79,0,0,0-1.87-2A2.52,2.52,0,0,0,980.45,513.83Z"/></g><g class="a6436b9d-8e1d-431c-9cbb-2181a5f1c6bb"><path class="e32f7453-1ebf-4941-bf07-c5198c528e88" d="M989.39,518.55,987,510.73h1.13l1.8,6.21,2-6.19h.95L995,517l1.61-6.24h1.16l-2.31,7.82h-.94l-2.12-6.29-2.13,6.29Z"/></g><g class="a6436b9d-8e1d-431c-9cbb-2181a5f1c6bb"><path class="e32f7453-1ebf-4941-bf07-c5198c528e88" d="M1003.25,507.9h6.25v1h-5.16v4h4.28v1h-4.28v4.64h-1.09Z"/></g><g class="a6436b9d-8e1d-431c-9cbb-2181a5f1c6bb"><path class="e32f7453-1ebf-4941-bf07-c5198c528e88" d="M1010.94,510.73h1v5c0,1.3.56,2,1.68,2a3.29,3.29,0,0,0,2.4-1.11v-5.9h1v7.79l-1,.22v-1.26a3.71,3.71,0,0,1-2.69,1.26c-1.53,0-2.44-1-2.44-2.67Z"/><path class="e32f7453-1ebf-4941-bf07-c5198c528e88" d="M1019.57,518.52V507.06l1.06-.22v11.68Z"/><path class="e32f7453-1ebf-4941-bf07-c5198c528e88" d="M1023.07,518.52V507.06l1.06-.22v11.68Z"/></g><g class="a6436b9d-8e1d-431c-9cbb-2181a5f1c6bb"><path class="e32f7453-1ebf-4941-bf07-c5198c528e88" d="M1031.67,514.27v4.25h-1.09V507.9h2.86c2.56,0,3.85,1.14,3.85,3.06a3.08,3.08,0,0,1-2.46,3l2.94,4.57h-1.26l-2.72-4.39Zm0-1,1.9-.07c1.5-.05,2.64-.88,2.64-2.22s-1-2.13-2.89-2.13h-1.65Z"/></g><g class="a6436b9d-8e1d-431c-9cbb-2181a5f1c6bb"><path class="e32f7453-1ebf-4941-bf07-c5198c528e88" d="M1039.83,514.66v.09c.06,1.78,1.11,3,2.72,3a4.18,4.18,0,0,0,2.27-.65l.2,1a4.66,4.66,0,0,1-2.5.66,3.72,3.72,0,0,1-3.76-4,4.34,4.34,0,0,1,1.06-3,3.32,3.32,0,0,1,2.62-1.18,2.66,2.66,0,0,1,2.83,2.88,4,4,0,0,1-.17,1.24Zm.07-.83,4.32,0a1.34,1.34,0,0,0,0-.34,1.79,1.79,0,0,0-1.87-2A2.52,2.52,0,0,0,1039.9,513.83Z"/><path class="e32f7453-1ebf-4941-bf07-c5198c528e88" d="M1048.32,511.52a3.26,3.26,0,0,1,2.26-1c2.09,0,3.48,1.64,3.48,4a4.19,4.19,0,0,1-1.07,3,3.63,3.63,0,0,1-2.77,1.17,4.27,4.27,0,0,1-1.9-.41v4.15h-1.06V510.7l1.06-.22Zm0,.88v4.78a3,3,0,0,0,2,.61c1.63,0,2.7-1.31,2.7-3.18s-1-3.08-2.56-3.08A3,3,0,0,0,1048.32,512.4Z"/><path class="e32f7453-1ebf-4941-bf07-c5198c528e88" d="M1063.09,514.61a4.15,4.15,0,0,1-1.09,3,3.62,3.62,0,0,1-2.73,1.15,3.53,3.53,0,0,1-2.71-1.12,4.23,4.23,0,0,1-1-3,4.18,4.18,0,0,1,1.1-3,3.64,3.64,0,0,1,2.74-1.14,3.53,3.53,0,0,1,2.7,1.12A4.18,4.18,0,0,1,1063.09,514.61Zm-1,0c0-1.92-1.09-3.18-2.75-3.18s-2.74,1.28-2.74,3.15,1.09,3.18,2.76,3.18S1062.05,516.51,1062.05,514.64Z"/></g><g class="a6436b9d-8e1d-431c-9cbb-2181a5f1c6bb"><path class="e32f7453-1ebf-4941-bf07-c5198c528e88" d="M1066.1,513.52v5H1065v-7.79l1.06-.22v1.67a2.55,2.55,0,0,1,2.29-1.67,2.66,2.66,0,0,1,1.36.36l-.27,1a2.19,2.19,0,0,0-1.19-.34C1067.42,511.52,1066.69,512.18,1066.1,513.52Z"/></g><g class="a6436b9d-8e1d-431c-9cbb-2181a5f1c6bb"><path class="e32f7453-1ebf-4941-bf07-c5198c528e88" d="M1075.22,518.37a4.09,4.09,0,0,1-1.73.41c-1.45,0-2.15-.82-2.1-2.45l.12-4.61-1.19-.07.06-.66,1.17-.27,0-1.77h1l0,1.82h2.6l-.05.93h-2.58l-.12,4.66c0,1,.34,1.46,1.14,1.46a3.85,3.85,0,0,0,1.49-.37Z"/></g><path class="a6964105-de87-4d99-a39f-cb4de989fee5" d="M942.2,291.2h156a11,11,0,0,1,11,11v28a11,11,0,0,1-11,11h-156a11,11,0,0,1-11-11v-28A11,11,0,0,1,942.2,291.2Z"/><g class="a6436b9d-8e1d-431c-9cbb-2181a5f1c6bb"><path class="svgtext" d="M1146,31a6.37,6.37,0,0,1-3.62,1.05,4.85,4.85,0,0,1-3.72-1.49,5.63,5.63,0,0,1-1.41-4,5.6,5.6,0,0,1,1.44-4,4.85,4.85,0,0,1,3.69-1.51,6.26,6.26,0,0,1,3.37.88l-.36,1a5.39,5.39,0,0,0-3-.89c-2.4,0-4,1.68-4,4.54s1.58,4.56,4.05,4.56a5.31,5.31,0,0,0,2.55-.65V27.54h-3.08v-1H1146Z"/><path class="svgtext" d="M1148.3,31.84V20.38l1-.22V31.84Z"/><path class="svgtext" d="M1158.87,27.93a4.15,4.15,0,0,1-1.09,3,3.62,3.62,0,0,1-2.73,1.15,3.53,3.53,0,0,1-2.71-1.12,4.21,4.21,0,0,1-1-3,4.18,4.18,0,0,1,1.11-3,3.61,3.61,0,0,1,2.73-1.14,3.5,3.5,0,0,1,2.7,1.13A4.14,4.14,0,0,1,1158.87,27.93Zm-1,0c0-1.92-1.08-3.17-2.75-3.17s-2.74,1.27-2.74,3.14,1.09,3.18,2.76,3.18S1157.83,29.83,1157.83,28Z"/><path class="svgtext" d="M1167.63,27.85a4.37,4.37,0,0,1-1.07,3,3.57,3.57,0,0,1-2.77,1.19,4.51,4.51,0,0,1-1.91-.42l-1.05.45V20.38l1.05-.22v4.71a3.34,3.34,0,0,1,2.35-1C1166.28,23.88,1167.63,25.5,1167.63,27.85Zm-1.09,0c0-1.81-1-3-2.52-3a3.07,3.07,0,0,0-2.14.87V30.5a3.08,3.08,0,0,0,2,.61C1165.5,31.11,1166.54,29.82,1166.54,27.9Z"/><path class="svgtext" d="M1173.64,30.91h-.05a2.85,2.85,0,0,1-2.27,1.15,2.25,2.25,0,0,1-2.47-2.16q0-2.49,4.73-2.77v-.46a1.63,1.63,0,0,0-1.84-1.85,4.79,4.79,0,0,0-2.55.93l-.24-1a5.46,5.46,0,0,1,2.89-.94,2.46,2.46,0,0,1,2.79,2.79v3.74c0,.61.14.8.78.78l-.07.87C1174.34,32.08,1173.76,31.7,1173.64,30.91Zm-.06-.79V27.85c-2.62.28-3.62.86-3.62,1.93a1.42,1.42,0,0,0,1.59,1.36A2.67,2.67,0,0,0,1173.58,30.12Z"/><path class="svgtext" d="M1177,31.84V20.38l1-.22V31.84Z"/><path class="svgtext" d="M1191.75,21.22h1V31.94h-1.17l-6.09-9.19v9.09h-1V21.22h1.22l6,9.11Z"/><path class="svgtext" d="M1199.54,30.91h-.06a2.83,2.83,0,0,1-2.27,1.15,2.25,2.25,0,0,1-2.47-2.16q0-2.49,4.73-2.77v-.46a1.63,1.63,0,0,0-1.84-1.85,4.82,4.82,0,0,0-2.55.93l-.24-1a5.46,5.46,0,0,1,2.89-.94,2.46,2.46,0,0,1,2.79,2.79v3.74c0,.61.14.8.78.78l-.06.87C1200.23,32.08,1199.65,31.7,1199.54,30.91Zm-.07-.79V27.85c-2.62.28-3.62.86-3.62,1.93a1.42,1.42,0,0,0,1.59,1.36A2.67,2.67,0,0,0,1199.47,30.12Z"/><path class="svgtext" d="M1205.72,31.86h-1l-3.08-7.81h1.14l2.47,6.43,2.38-6.43h1.1Z"/><path class="svgtext" d="M1211.33,21.49a.82.82,0,0,1-.18.54.71.71,0,0,1-1.06,0,.82.82,0,0,1-.18-.54.81.81,0,0,1,.18-.53.75.75,0,0,1,1.06,0A.81.81,0,0,1,1211.33,21.49Zm-.18,10.35h-1.06V24.05l1.06-.22Z"/><path class="svgtext" d="M1214.22,31.86c-.69-.26-1-.67-1-1.24a1.71,1.71,0,0,1,1.28-1.48,2.59,2.59,0,0,1-1.26-2.38,2.88,2.88,0,0,1,3.06-2.93,3.71,3.71,0,0,1,1.83.46l2.16-.17,0,1.06-1.71-.17a2.74,2.74,0,0,1,.62,1.75,2.84,2.84,0,0,1-3,2.85,3.47,3.47,0,0,1-1.16-.22c-.57.24-.86.55-.86.94s.44.8,1.76.8h1c2.15,0,3.23.68,3.23,2a2.44,2.44,0,0,1-1.21,2.07,5.06,5.06,0,0,1-2.89.82c-2.09,0-3.52-.92-3.52-2.28A2.06,2.06,0,0,1,1214.22,31.86Zm.92.2c-.93.26-1.58.87-1.58,1.53,0,.94,1,1.6,2.65,1.6s2.93-.78,2.93-1.84c0-.88-.75-1.24-2.37-1.24C1216.13,32.11,1215.58,32.09,1215.14,32.06Zm-.92-5.29a1.9,1.9,0,0,0,2,2,1.8,1.8,0,0,0,1.41-.57,2,2,0,0,0,.53-1.47,2.11,2.11,0,0,0-.51-1.46,2,2,0,0,0-1.48-.56A1.9,1.9,0,0,0,1214.22,26.77Z"/><path class="svgtext" d="M1225.71,30.91h0a2.83,2.83,0,0,1-2.27,1.15,2.25,2.25,0,0,1-2.47-2.16q0-2.49,4.73-2.77v-.46a1.63,1.63,0,0,0-1.84-1.85,4.82,4.82,0,0,0-2.55.93l-.24-1a5.46,5.46,0,0,1,2.89-.94,2.46,2.46,0,0,1,2.79,2.79v3.74c0,.61.14.8.78.78l-.06.87C1226.41,32.08,1225.83,31.7,1225.71,30.91Zm-.06-.79V27.85c-2.62.28-3.62.86-3.62,1.93a1.42,1.42,0,0,0,1.59,1.36A2.67,2.67,0,0,0,1225.65,30.12Z"/><path class="svgtext" d="M1232.92,31.69a4,4,0,0,1-1.73.4c-1.45,0-2.14-.81-2.09-2.44l.12-4.61L1228,25l0-.66,1.17-.27,0-1.77h1l-.06,1.82h2.61l-.06.93h-2.58l-.12,4.66c0,1,.34,1.46,1.14,1.46a3.85,3.85,0,0,0,1.5-.37Z"/><path class="svgtext" d="M1235.9,21.49a.83.83,0,0,1-.19.54.69.69,0,0,1-1,0,.85.85,0,0,1,0-1.07.63.63,0,0,1,.52-.22.64.64,0,0,1,.53.22A.82.82,0,0,1,1235.9,21.49Zm-.19,10.35h-1V24.05l1-.22Z"/><path class="svgtext" d="M1245.26,27.93a4.14,4.14,0,0,1-1.08,3,3.65,3.65,0,0,1-2.74,1.15,3.49,3.49,0,0,1-2.7-1.12,4.18,4.18,0,0,1-1.06-3,4.18,4.18,0,0,1,1.11-3,3.62,3.62,0,0,1,2.74-1.14,3.53,3.53,0,0,1,2.7,1.13A4.18,4.18,0,0,1,1245.26,27.93Zm-1,0c0-1.92-1.09-3.17-2.76-3.17s-2.73,1.27-2.73,3.14,1.09,3.18,2.75,3.18S1244.23,29.83,1244.23,28Z"/><path class="svgtext" d="M1253.41,31.84h-1.06v-5c0-1.36-.52-2-1.71-2a3.33,3.33,0,0,0-2.37,1.1v5.9h-1V24.05l1-.22v1.28a3.78,3.78,0,0,1,2.66-1.28,2.35,2.35,0,0,1,2.48,2.67Z"/></g><g class="a6436b9d-8e1d-431c-9cbb-2181a5f1c6bb"><path class="svgtext" d="M1139.89,76.18c1.48,0,2.52-.87,2.52-2s-.82-1.69-2.69-2.23a10.56,10.56,0,0,1-1.12-.41,4.85,4.85,0,0,1-1-.52,2.38,2.38,0,0,1-.75-.86,2.59,2.59,0,0,1-.25-1.18c0-1.69,1.41-2.89,3.4-2.89a5.79,5.79,0,0,1,3.19.91l-.39,1a4.74,4.74,0,0,0-2.78-.89c-1.53,0-2.37.77-2.37,1.82s.8,1.53,2.69,2.13c.44.13.81.27,1.14.4a8.91,8.91,0,0,1,1,.56,2.34,2.34,0,0,1,.73.89,3.08,3.08,0,0,1,.24,1.22c0,1.79-1.47,3.06-3.59,3.06a6.25,6.25,0,0,1-3.42-1l.39-1A5.34,5.34,0,0,0,1139.89,76.18Z"/><path class="svgtext" d="M1145.94,73.07v.09c.06,1.78,1.11,3,2.72,3a4.12,4.12,0,0,0,2.26-.65l.21,1a4.66,4.66,0,0,1-2.5.66,3.72,3.72,0,0,1-3.76-4,4.34,4.34,0,0,1,1.06-3,3.32,3.32,0,0,1,2.62-1.18,2.67,2.67,0,0,1,2.83,2.88,4,4,0,0,1-.17,1.24Zm.07-.83,4.32,0a1.34,1.34,0,0,0,0-.34,1.78,1.78,0,0,0-1.87-2A2.51,2.51,0,0,0,1146,72.24Z"/></g><g class="a6436b9d-8e1d-431c-9cbb-2181a5f1c6bb"><path class="svgtext" d="M1159.09,76.49a4.53,4.53,0,0,1-2.42.66c-2.33,0-3.81-1.63-3.81-4.1a4.15,4.15,0,0,1,1.09-3,3.59,3.59,0,0,1,2.74-1.16,4.45,4.45,0,0,1,2.43.67l-.27,1a3.75,3.75,0,0,0-2.16-.63c-1.68,0-2.74,1.24-2.74,3.11s1.09,3.15,2.76,3.15a3.93,3.93,0,0,0,2.15-.65Z"/></g><g class="a6436b9d-8e1d-431c-9cbb-2181a5f1c6bb"><path class="svgtext" d="M1168,73a4.15,4.15,0,0,1-1.09,3,3.65,3.65,0,0,1-2.74,1.15,3.52,3.52,0,0,1-2.7-1.12,4.65,4.65,0,0,1,0-6,3.62,3.62,0,0,1,2.74-1.14,3.53,3.53,0,0,1,2.7,1.13A4.14,4.14,0,0,1,1168,73Zm-1,0c0-1.92-1.09-3.17-2.76-3.17s-2.73,1.27-2.73,3.14,1.09,3.18,2.75,3.18S1167,74.92,1167,73.05Z"/><path class="svgtext" d="M1176.17,76.93h-1.06v-5c0-1.36-.52-2-1.71-2A3.31,3.31,0,0,0,1171,71v5.9H1170V69.15l1.06-.23V70.2a3.74,3.74,0,0,1,2.65-1.28,2.35,2.35,0,0,1,2.48,2.67Z"/><path class="svgtext" d="M1183.8,69.4V65.47l1.06-.22V76.93h-1.06V76.2a3.25,3.25,0,0,1-2.26,1c-2.09,0-3.48-1.65-3.48-4a4.17,4.17,0,0,1,1.08-3,3.7,3.7,0,0,1,2.77-1.15A4.34,4.34,0,0,1,1183.8,69.4Zm0,1.12a3.11,3.11,0,0,0-1.94-.59c-1.66,0-2.72,1.29-2.72,3.16s1,3.09,2.59,3.09a2.94,2.94,0,0,0,2.07-.87V70.52Z"/><path class="svgtext" d="M1191.43,76h0a2.85,2.85,0,0,1-2.27,1.15,2.25,2.25,0,0,1-2.47-2.16q0-2.49,4.73-2.77v-.46a1.63,1.63,0,0,0-1.84-1.85,4.7,4.7,0,0,0-2.55.94l-.24-1a5.46,5.46,0,0,1,2.89-.94,2.46,2.46,0,0,1,2.79,2.79v3.74c0,.61.14.8.78.78l-.07.87C1192.13,77.17,1191.55,76.79,1191.43,76Zm-.06-.79V72.94c-2.62.28-3.62.86-3.62,1.93a1.42,1.42,0,0,0,1.59,1.36A2.67,2.67,0,0,0,1191.37,75.21Z"/></g><g class="a6436b9d-8e1d-431c-9cbb-2181a5f1c6bb"><path class="svgtext" d="M1195.82,71.93v5h-1.06V69.15l1.06-.23v1.67a2.55,2.55,0,0,1,2.29-1.67,2.66,2.66,0,0,1,1.36.36l-.27,1a2.28,2.28,0,0,0-1.19-.34C1197.14,69.93,1196.41,70.59,1195.82,71.93Z"/></g><g class="a6436b9d-8e1d-431c-9cbb-2181a5f1c6bb"><path class="svgtext" d="M1207,69.15l-3,7.7-.63,1.68c-.68,1.85-1.39,2.45-2.51,2.45a3.84,3.84,0,0,1-1.51-.36l.32-1a2.57,2.57,0,0,0,1.19.34c.64,0,1.07-.39,1.6-1.8l.52-1.38-3-7.66H1201l2.45,6.42,2.39-6.42Z"/><path class="svgtext" d="M1219.55,66.31h1.06V77h-1.18l-6.08-9.19v9.09h-1.06V66.31h1.23l6,9.11Z"/><path class="svgtext" d="M1227.34,76h0a2.86,2.86,0,0,1-2.28,1.15,2.25,2.25,0,0,1-2.47-2.16q0-2.49,4.73-2.77v-.46a1.63,1.63,0,0,0-1.84-1.85,4.76,4.76,0,0,0-2.55.94l-.23-1a5.4,5.4,0,0,1,2.89-.94,2.45,2.45,0,0,1,2.78,2.79v3.74c0,.61.14.8.79.78l-.07.87C1228,77.17,1227.46,76.79,1227.34,76Zm-.07-.79V72.94c-2.62.28-3.62.86-3.62,1.93a1.42,1.42,0,0,0,1.6,1.36A2.65,2.65,0,0,0,1227.27,75.21Z"/><path class="svgtext" d="M1233.53,77h-1l-3.07-7.8h1.14l2.46,6.42,2.38-6.42h1.11Z"/><path class="svgtext" d="M1239.14,66.58a.83.83,0,0,1-.19.54.67.67,0,0,1-.53.24.63.63,0,0,1-.52-.24.85.85,0,0,1,0-1.07.62.62,0,0,1,.52-.22.65.65,0,0,1,.53.22A.82.82,0,0,1,1239.14,66.58ZM1239,76.93h-1V69.15l1-.23Z"/><path class="svgtext" d="M1242,77c-.7-.26-1.06-.67-1.06-1.24a1.71,1.71,0,0,1,1.28-1.48,2.59,2.59,0,0,1-1.26-2.38,2.88,2.88,0,0,1,3.06-2.93,3.71,3.71,0,0,1,1.83.46l2.16-.17,0,1.06-1.71-.17a2.75,2.75,0,0,1,.63,1.75,2.85,2.85,0,0,1-3,2.85,3.15,3.15,0,0,1-1.15-.22c-.58.24-.87.55-.87.94s.44.8,1.77.8h1c2.16,0,3.23.68,3.23,2a2.44,2.44,0,0,1-1.21,2.07,5.06,5.06,0,0,1-2.89.82c-2.09,0-3.52-.92-3.52-2.28A2.06,2.06,0,0,1,1242,77Zm.91.2c-.93.26-1.58.87-1.58,1.53,0,.94,1,1.6,2.65,1.6s2.93-.78,2.93-1.84c0-.88-.75-1.24-2.36-1.24C1243.93,77.2,1243.39,77.19,1242.94,77.15Zm-.91-5.29a1.89,1.89,0,0,0,2,2,1.78,1.78,0,0,0,1.41-.57,2,2,0,0,0,.53-1.47,2.11,2.11,0,0,0-.51-1.46,2,2,0,0,0-1.48-.56A1.89,1.89,0,0,0,1242,71.86Z"/><path class="svgtext" d="M1253.52,76h0a2.86,2.86,0,0,1-2.28,1.15,2.25,2.25,0,0,1-2.47-2.16q0-2.49,4.73-2.77v-.46a1.63,1.63,0,0,0-1.84-1.85,4.76,4.76,0,0,0-2.55.94l-.23-1a5.4,5.4,0,0,1,2.89-.94,2.45,2.45,0,0,1,2.78,2.79v3.74c0,.61.14.8.79.78l-.07.87C1254.21,77.17,1253.64,76.79,1253.52,76Zm-.07-.79V72.94c-2.62.28-3.62.86-3.62,1.93a1.42,1.42,0,0,0,1.6,1.36A2.66,2.66,0,0,0,1253.45,75.21Z"/><path class="svgtext" d="M1260.73,76.78a4.1,4.1,0,0,1-1.74.41c-1.44,0-2.14-.82-2.09-2.45l.12-4.61-1.19-.07.05-.66,1.17-.27.06-1.77h1l0,1.82h2.6l-.05.93H1258l-.12,4.66c0,1,.34,1.46,1.14,1.46a3.85,3.85,0,0,0,1.5-.37Z"/><path class="svgtext" d="M1263.7,66.58a.83.83,0,0,1-.19.54.65.65,0,0,1-.52.24.67.67,0,0,1-.53-.24.85.85,0,0,1,0-1.07.65.65,0,0,1,.53-.22.63.63,0,0,1,.52.22A.82.82,0,0,1,1263.7,66.58Zm-.19,10.35h-1V69.15l1-.23Z"/><path class="svgtext" d="M1273.07,73a4.15,4.15,0,0,1-1.09,3,3.63,3.63,0,0,1-2.74,1.15,3.52,3.52,0,0,1-2.7-1.12,4.68,4.68,0,0,1,0-6,3.62,3.62,0,0,1,2.74-1.14,3.53,3.53,0,0,1,2.7,1.13A4.14,4.14,0,0,1,1273.07,73Zm-1,0c0-1.92-1.09-3.17-2.75-3.17s-2.74,1.27-2.74,3.14,1.09,3.18,2.75,3.18S1272,74.92,1272,73.05Z"/><path class="svgtext" d="M1281.21,76.93h-1v-5c0-1.36-.53-2-1.72-2a3.33,3.33,0,0,0-2.36,1.1v5.9H1275V69.15l1.06-.23V70.2a3.76,3.76,0,0,1,2.65-1.28,2.35,2.35,0,0,1,2.48,2.67Z"/></g><g class="a6436b9d-8e1d-431c-9cbb-2181a5f1c6bb"><path class="svgtext" d="M1139.89,121.27c1.48,0,2.52-.87,2.52-2s-.82-1.69-2.69-2.23a10.56,10.56,0,0,1-1.12-.41,4.45,4.45,0,0,1-1-.53,2.27,2.27,0,0,1-.75-.85,2.61,2.61,0,0,1-.25-1.19c0-1.68,1.41-2.88,3.4-2.88a5.79,5.79,0,0,1,3.19.91l-.39,1a4.74,4.74,0,0,0-2.78-.89c-1.53,0-2.37.77-2.37,1.82s.8,1.53,2.69,2.12c.44.14.81.28,1.14.41a8.91,8.91,0,0,1,1,.56,2.34,2.34,0,0,1,.73.89,3.08,3.08,0,0,1,.24,1.22c0,1.79-1.47,3.06-3.59,3.06a6.25,6.25,0,0,1-3.42-1l.39-1A5.34,5.34,0,0,0,1139.89,121.27Z"/><path class="svgtext" d="M1145.94,118.16v.09c.06,1.78,1.11,3,2.72,3a4.12,4.12,0,0,0,2.26-.65l.21,1a4.66,4.66,0,0,1-2.5.66,3.72,3.72,0,0,1-3.76-4,4.34,4.34,0,0,1,1.06-3,3.32,3.32,0,0,1,2.62-1.18,2.67,2.67,0,0,1,2.83,2.88,4,4,0,0,1-.17,1.24Zm.07-.83,4.32,0a1.34,1.34,0,0,0,0-.34,1.78,1.78,0,0,0-1.87-2A2.51,2.51,0,0,0,1146,117.33Z"/><path class="svgtext" d="M1159.08,121.58a4.47,4.47,0,0,1-2.41.66c-2.33,0-3.81-1.63-3.81-4.1a4.15,4.15,0,0,1,1.09-3,3.59,3.59,0,0,1,2.74-1.16,4.37,4.37,0,0,1,2.43.67l-.27.95a3.75,3.75,0,0,0-2.16-.63c-1.68,0-2.74,1.24-2.74,3.11s1.09,3.15,2.76,3.15a3.93,3.93,0,0,0,2.15-.65Z"/><path class="svgtext" d="M1164.92,121.87a4.08,4.08,0,0,1-1.74.4c-1.44,0-2.14-.81-2.09-2.44l.12-4.61-1.19-.07,0-.66,1.17-.27,0-1.77h1l0,1.82h2.6l0,.93h-2.59l-.12,4.66c0,1,.34,1.46,1.14,1.46a3.85,3.85,0,0,0,1.5-.37Z"/><path class="svgtext" d="M1167.89,111.67a.83.83,0,0,1-.19.54.65.65,0,0,1-.52.24.67.67,0,0,1-.53-.24.85.85,0,0,1,0-1.07.65.65,0,0,1,.53-.22.63.63,0,0,1,.52.22A.82.82,0,0,1,1167.89,111.67ZM1167.7,122h-1v-7.79l1-.22Z"/><path class="svgtext" d="M1177.26,118.11a4.15,4.15,0,0,1-1.09,3,3.63,3.63,0,0,1-2.74,1.15,3.52,3.52,0,0,1-2.7-1.12,4.68,4.68,0,0,1,0-6,3.62,3.62,0,0,1,2.74-1.14,3.53,3.53,0,0,1,2.7,1.13A4.14,4.14,0,0,1,1177.26,118.11Zm-1,0c0-1.92-1.09-3.17-2.75-3.17s-2.74,1.27-2.74,3.14,1.09,3.18,2.75,3.18S1176.22,120,1176.22,118.14Z"/><path class="svgtext" d="M1185.4,122h-1.05v-5c0-1.36-.53-2-1.72-2a3.33,3.33,0,0,0-2.36,1.1V122h-1.06v-7.79l1.06-.22v1.28a3.76,3.76,0,0,1,2.65-1.28,2.35,2.35,0,0,1,2.48,2.67Z"/></g><path class="a6964105-de87-4d99-a39f-cb4de989fee5" d="M1179,356.7h156a11,11,0,0,1,11,11v28a11,11,0,0,1-11,11H1179a11,11,0,0,1-11-11v-28A11,11,0,0,1,1179,356.7Z"/><g class="a6436b9d-8e1d-431c-9cbb-2181a5f1c6bb"><path class="svgtext" d="M1218.13,380.21c0,2.3-1.59,3.5-4.29,3.55l-1.44,0v3.74h-1.09V376.9H1214C1216.71,376.9,1218.13,378.19,1218.13,380.21Zm-1.13.05c0-1.53-1.07-2.36-3.06-2.36h-1.54v4.88l1.51,0C1216,382.71,1217,381.88,1217,380.26Z"/></g><g class="a6436b9d-8e1d-431c-9cbb-2181a5f1c6bb"><path class="svgtext" d="M1226.81,383.61a4.14,4.14,0,0,1-1.08,3,3.65,3.65,0,0,1-2.74,1.15,3.51,3.51,0,0,1-2.7-1.12,4.65,4.65,0,0,1,0-6,3.62,3.62,0,0,1,2.74-1.14,3.56,3.56,0,0,1,2.7,1.12A4.22,4.22,0,0,1,1226.81,383.61Zm-1,0c0-1.92-1.09-3.18-2.76-3.18s-2.73,1.28-2.73,3.15,1.09,3.18,2.75,3.18S1225.78,385.51,1225.78,383.64Z"/><path class="svgtext" d="M1230,377.17a.83.83,0,0,1-.19.54.63.63,0,0,1-.53.24.62.62,0,0,1-.52-.24.85.85,0,0,1,0-1.07.63.63,0,0,1,.52-.22.64.64,0,0,1,.53.22A.82.82,0,0,1,1230,377.17Zm-.19,10.35h-1v-7.79l1-.22Z"/><path class="svgtext" d="M1238.51,387.52h-1v-5c0-1.36-.53-2-1.72-2a3.33,3.33,0,0,0-2.36,1.1v5.9h-1.06v-7.79l1.06-.22v1.28a3.76,3.76,0,0,1,2.65-1.28,2.35,2.35,0,0,1,2.48,2.67Z"/><path class="svgtext" d="M1244.78,387.37a4,4,0,0,1-1.73.41c-1.44,0-2.14-.82-2.09-2.45l.12-4.61-1.19-.07,0-.66,1.17-.27.05-1.77h1l-.05,1.82h2.6l0,.93h-2.59l-.12,4.66c0,1,.34,1.46,1.14,1.46a3.85,3.85,0,0,0,1.5-.37Z"/><path class="svgtext" d="M1251.18,385.39c0,1.42-1.19,2.35-2.79,2.35a4.69,4.69,0,0,1-2.55-.7l.29-1a4,4,0,0,0,2.29.72c1,0,1.75-.49,1.75-1.31a.89.89,0,0,0-.12-.49,1.2,1.2,0,0,0-.27-.36,1.57,1.57,0,0,0-.47-.27l-.5-.21-.59-.18c-1.36-.41-2.26-1-2.26-2.21,0-1.4,1.1-2.25,2.63-2.25a5.06,5.06,0,0,1,2.37.58l-.31,1a4.33,4.33,0,0,0-2.13-.58c-1,0-1.56.45-1.56,1.2a.81.81,0,0,0,.12.46,1.66,1.66,0,0,0,.25.34,1.62,1.62,0,0,0,.46.27l.5.2c.12.05.32.1.59.19C1250.29,383.53,1251.18,384.1,1251.18,385.39Z"/><path class="svgtext" d="M1264.4,387.52v-4.84h-6.22v4.84h-1.09V376.9h1.09v4.79h6.22V376.9h1.09v10.62Z"/><path class="svgtext" d="M1269.33,377.17a.83.83,0,0,1-.19.54.61.61,0,0,1-.52.24.64.64,0,0,1-.53-.24.85.85,0,0,1,0-1.07.65.65,0,0,1,.53-.22.62.62,0,0,1,.52.22A.82.82,0,0,1,1269.33,377.17Zm-.19,10.35h-1.05v-7.79l1.05-.22Z"/><path class="svgtext" d="M1276.3,385.39c0,1.42-1.19,2.35-2.79,2.35a4.71,4.71,0,0,1-2.55-.7l.29-1a4.06,4.06,0,0,0,2.3.72c1,0,1.75-.49,1.75-1.31a1,1,0,0,0-.12-.49,1.67,1.67,0,0,0-.27-.36,1.8,1.8,0,0,0-.48-.27l-.49-.21-.6-.18c-1.36-.41-2.26-1-2.26-2.21,0-1.4,1.11-2.25,2.64-2.25a5,5,0,0,1,2.36.58l-.31,1a4.29,4.29,0,0,0-2.12-.58c-1,0-1.56.45-1.56,1.2a.81.81,0,0,0,.12.46,1.66,1.66,0,0,0,.25.34,1.49,1.49,0,0,0,.46.27l.49.2c.12.05.32.1.6.19C1275.42,383.53,1276.3,384.1,1276.3,385.39Z"/></g><g class="a6436b9d-8e1d-431c-9cbb-2181a5f1c6bb"><path class="svgtext" d="M1282.08,387.37a4.09,4.09,0,0,1-1.73.41c-1.45,0-2.15-.82-2.1-2.45l.12-4.61-1.19-.07,0-.66,1.18-.27,0-1.77h1l0,1.82h2.6l0,.93h-2.58l-.12,4.66c0,1,.34,1.46,1.14,1.46a3.85,3.85,0,0,0,1.49-.37Z"/></g><g class="a6436b9d-8e1d-431c-9cbb-2181a5f1c6bb"><path class="svgtext" d="M1290.79,383.61a4.15,4.15,0,0,1-1.09,3,3.63,3.63,0,0,1-2.74,1.15,3.52,3.52,0,0,1-2.7-1.12,4.65,4.65,0,0,1,0-6,3.62,3.62,0,0,1,2.74-1.14,3.56,3.56,0,0,1,2.7,1.12A4.18,4.18,0,0,1,1290.79,383.61Zm-1,0c0-1.92-1.09-3.18-2.76-3.18s-2.73,1.28-2.73,3.15,1.09,3.18,2.75,3.18S1289.75,385.51,1289.75,383.64Z"/></g><g class="a6436b9d-8e1d-431c-9cbb-2181a5f1c6bb"><path class="svgtext" d="M1293.79,382.52v5h-1.06v-7.79l1.06-.22v1.67a2.55,2.55,0,0,1,2.29-1.67,2.66,2.66,0,0,1,1.36.36l-.27,1a2.19,2.19,0,0,0-1.19-.34C1295.11,380.52,1294.38,381.18,1293.79,382.52Z"/></g><g class="a6436b9d-8e1d-431c-9cbb-2181a5f1c6bb"><path class="svgtext" d="M1305,379.73l-3,7.71-.63,1.68c-.68,1.85-1.39,2.45-2.51,2.45a3.84,3.84,0,0,1-1.51-.36l.32-1a2.61,2.61,0,0,0,1.19.34c.64,0,1.07-.39,1.6-1.8l.52-1.38-3-7.67H1299l2.45,6.43,2.39-6.43Z"/></g><path class="ef11d33d-ff65-4d66-a413-1bdc7e399fff" d="M1178.6,291.2h156a11,11,0,0,1,11,11v28a11,11,0,0,1-11,11h-156a11,11,0,0,1-11-11v-28A11,11,0,0,1,1178.6,291.2Z"/><g class="a6436b9d-8e1d-431c-9cbb-2181a5f1c6bb"><path class="e32f7453-1ebf-4941-bf07-c5198c528e88" d="M1241.57,311.17a5,5,0,0,1,3.74,1.52,5.47,5.47,0,0,1,1.48,4,5.56,5.56,0,0,1-1.48,4,5.25,5.25,0,0,1-7.48,0,5.41,5.41,0,0,1-1.49-4,5.56,5.56,0,0,1,1.48-4A4.94,4.94,0,0,1,1241.57,311.17Zm4.12,5.55a4.74,4.74,0,0,0-1.16-3.31,3.89,3.89,0,0,0-3-1.28,3.82,3.82,0,0,0-2.94,1.26,5.21,5.21,0,0,0,0,6.58,3.83,3.83,0,0,0,3,1.29,3.79,3.79,0,0,0,2.94-1.27A4.67,4.67,0,0,0,1245.69,316.72Z"/></g><g class="a6436b9d-8e1d-431c-9cbb-2181a5f1c6bb"><path class="e32f7453-1ebf-4941-bf07-c5198c528e88" d="M1252.81,310.52l0,.24c0,.17-.09.32-.14.47l-.07.24a2.8,2.8,0,0,0-1.19-.32c-.86,0-1.29.61-1.29,1.82v1.29h2.45l0,.93h-2.4V322h-1v-6.78l-1.26-.09.06-.66,1.18-.27,0-1.23c0-1.87.81-2.8,2.34-2.8A3.4,3.4,0,0,1,1252.81,310.52Z"/></g><g class="a6436b9d-8e1d-431c-9cbb-2181a5f1c6bb"><path class="e32f7453-1ebf-4941-bf07-c5198c528e88" d="M1258.05,310.52l0,.24c0,.17-.09.32-.14.47l-.07.24a2.8,2.8,0,0,0-1.19-.32c-.86,0-1.29.61-1.29,1.82v1.29h2.45l0,.93h-2.4V322h-1v-6.78l-1.26-.09.06-.66,1.18-.27,0-1.23c0-1.87.81-2.8,2.34-2.8A3.4,3.4,0,0,1,1258.05,310.52Z"/><path class="e32f7453-1ebf-4941-bf07-c5198c528e88" d="M1259.68,318.15v.09c0,1.78,1.11,3,2.72,3a4.12,4.12,0,0,0,2.26-.65l.21,1a4.69,4.69,0,0,1-2.5.66,3.72,3.72,0,0,1-3.76-4,4.38,4.38,0,0,1,1.05-3,3.35,3.35,0,0,1,2.62-1.18,2.67,2.67,0,0,1,2.84,2.88,4.09,4.09,0,0,1-.17,1.24Zm.07-.83,4.32,0a2.66,2.66,0,0,0,0-.34,1.78,1.78,0,0,0-1.87-2A2.51,2.51,0,0,0,1259.75,317.32Z"/><path class="e32f7453-1ebf-4941-bf07-c5198c528e88" d="M1268.16,317v5h-1.05v-7.79l1.05-.22v1.67a2.56,2.56,0,0,1,2.3-1.67,2.71,2.71,0,0,1,1.36.36l-.27,1a2.24,2.24,0,0,0-1.19-.34C1269.49,315,1268.76,315.67,1268.16,317Z"/><path class="e32f7453-1ebf-4941-bf07-c5198c528e88" d="M1277.84,319.88c0,1.42-1.19,2.35-2.79,2.35a4.69,4.69,0,0,1-2.55-.7l.29-1a4,4,0,0,0,2.29.72c1,0,1.75-.49,1.75-1.31a.89.89,0,0,0-.12-.49,1.35,1.35,0,0,0-.27-.36,1.82,1.82,0,0,0-.47-.27l-.5-.21-.59-.18c-1.36-.41-2.26-1-2.26-2.21,0-1.4,1.1-2.25,2.63-2.25a5.06,5.06,0,0,1,2.37.58l-.31.95a4.31,4.31,0,0,0-2.13-.57c-1,0-1.56.44-1.56,1.19a.76.76,0,0,0,.12.45,1.25,1.25,0,0,0,.25.34,1.41,1.41,0,0,0,.46.28l.5.2c.12.05.32.1.59.19C1277,318,1277.84,318.59,1277.84,319.88Z"/></g><path class="ffc3431f-66dc-4b89-a84e-8ee7145e3382" d="M1175.8,200.5h156a11,11,0,0,1,11,11v28a11,11,0,0,1-11,11h-156a11,11,0,0,1-11-11v-28A11.1,11.1,0,0,1,1175.8,200.5Z"/><g class="a6436b9d-8e1d-431c-9cbb-2181a5f1c6bb"><path class="e32f7453-1ebf-4941-bf07-c5198c528e88" d="M1228.3,227.13v4.25h-1.09V220.76h2.86c2.56,0,3.85,1.13,3.85,3.06a3.08,3.08,0,0,1-2.46,3l2.94,4.57h-1.26l-2.72-4.39Zm0-1,1.9-.07c1.5-.05,2.64-.88,2.64-2.22s-1-2.13-2.89-2.13h-1.65Z"/></g><g class="a6436b9d-8e1d-431c-9cbb-2181a5f1c6bb"><path class="e32f7453-1ebf-4941-bf07-c5198c528e88" d="M1236.46,227.52v.09c0,1.78,1.1,3,2.71,3a4.18,4.18,0,0,0,2.27-.65l.2,1a4.66,4.66,0,0,1-2.5.66,3.72,3.72,0,0,1-3.76-4,4.34,4.34,0,0,1,1.06-3,3.32,3.32,0,0,1,2.62-1.18,2.67,2.67,0,0,1,2.83,2.88,4,4,0,0,1-.17,1.24Zm.06-.83,4.32,0a1.34,1.34,0,0,0,0-.34,1.78,1.78,0,0,0-1.87-2A2.51,2.51,0,0,0,1236.52,226.69Z"/></g><g class="a6436b9d-8e1d-431c-9cbb-2181a5f1c6bb"><path class="e32f7453-1ebf-4941-bf07-c5198c528e88" d="M1245.46,231.41l-2.38-7.82h1.13l1.8,6.21,2-6.19h1l2.13,6.22,1.61-6.24h1.16l-2.31,7.82h-.94l-2.12-6.29-2.13,6.29Z"/></g><g class="a6436b9d-8e1d-431c-9cbb-2181a5f1c6bb"><path class="e32f7453-1ebf-4941-bf07-c5198c528e88" d="M1259.47,230.45h0a2.85,2.85,0,0,1-2.27,1.15,2.25,2.25,0,0,1-2.47-2.16q0-2.49,4.73-2.77v-.46a1.63,1.63,0,0,0-1.84-1.85,4.76,4.76,0,0,0-2.55.93l-.24-1a5.46,5.46,0,0,1,2.89-.94,2.46,2.46,0,0,1,2.79,2.79v3.74c0,.61.14.8.78.78l-.07.87C1260.17,231.62,1259.59,231.24,1259.47,230.45Zm-.06-.79v-2.27c-2.62.28-3.62.86-3.62,1.93a1.42,1.42,0,0,0,1.59,1.36A2.67,2.67,0,0,0,1259.41,229.66Z"/></g><g class="a6436b9d-8e1d-431c-9cbb-2181a5f1c6bb"><path class="e32f7453-1ebf-4941-bf07-c5198c528e88" d="M1263.86,226.38v5h-1.06v-7.79l1.06-.22V225a2.55,2.55,0,0,1,2.29-1.67,2.66,2.66,0,0,1,1.36.36l-.27,1a2.28,2.28,0,0,0-1.19-.34C1265.18,224.38,1264.45,225,1263.86,226.38Z"/></g><g class="a6436b9d-8e1d-431c-9cbb-2181a5f1c6bb"><path class="e32f7453-1ebf-4941-bf07-c5198c528e88" d="M1273.93,223.85v-3.93l1-.22v11.68h-1v-.73a3.25,3.25,0,0,1-2.26.95c-2.09,0-3.49-1.65-3.49-4a4.18,4.18,0,0,1,1.09-3,3.69,3.69,0,0,1,2.77-1.16A4.35,4.35,0,0,1,1273.93,223.85Zm0,1.12a3.11,3.11,0,0,0-1.94-.59c-1.66,0-2.72,1.29-2.72,3.16s1,3.09,2.59,3.09a2.94,2.94,0,0,0,2.07-.87V225Z"/><path class="e32f7453-1ebf-4941-bf07-c5198c528e88" d="M1282.11,229.25c0,1.42-1.19,2.35-2.79,2.35a4.69,4.69,0,0,1-2.55-.7l.29-1a4,4,0,0,0,2.29.72c1,0,1.75-.49,1.75-1.31a.89.89,0,0,0-.12-.49,1.35,1.35,0,0,0-.27-.36,1.82,1.82,0,0,0-.47-.27l-.5-.21-.59-.18c-1.36-.41-2.26-1-2.26-2.21,0-1.4,1.1-2.25,2.63-2.25a5,5,0,0,1,2.36.58l-.3,1a4.31,4.31,0,0,0-2.13-.57c-1,0-1.56.44-1.56,1.19a.76.76,0,0,0,.12.45,1.25,1.25,0,0,0,.25.34,1.41,1.41,0,0,0,.46.28l.5.2c.11.05.32.1.59.19C1281.22,227.39,1282.11,228,1282.11,229.25Z"/></g><line class="b0bf58a2-c2f6-463f-99af-b3952e681f6b" x1="107.4" y1="126.9" x2="107.4" y2="129.4"/><line class="a380a0b9-7ff0-40c1-9163-e17f0ecd4dfa" x1="107.4" y1="134.6" x2="107.4" y2="275.2"/><line class="b0bf58a2-c2f6-463f-99af-b3952e681f6b" x1="107.4" y1="277.8" x2="107.4" y2="280.3"/><circle class="eb6cf7b5-8c00-49b6-84a8-3bbb7535c863" cx="107.4" cy="280.1" r="3.8"/><line class="b0bf58a2-c2f6-463f-99af-b3952e681f6b" x1="324" y1="225.5" x2="324" y2="228"/><line class="e3994e3b-d8f6-4fd3-81e4-52372fe94151" x1="324" y1="233.6" x2="324" y2="275"/><line class="b0bf58a2-c2f6-463f-99af-b3952e681f6b" x1="324" y1="277.8" x2="324" y2="280.3"/><circle class="eb6cf7b5-8c00-49b6-84a8-3bbb7535c863" cx="324" cy="280.1" r="3.8"/><line class="b0bf58a2-c2f6-463f-99af-b3952e681f6b" x1="540.7" y1="225.5" x2="540.7" y2="228"/><line class="e3994e3b-d8f6-4fd3-81e4-52372fe94151" x1="540.7" y1="233.6" x2="540.7" y2="275"/><line class="b0bf58a2-c2f6-463f-99af-b3952e681f6b" x1="540.7" y1="277.8" x2="540.7" y2="280.3"/><circle class="eb6cf7b5-8c00-49b6-84a8-3bbb7535c863" cx="540.7" cy="280.1" r="3.8"/><line class="b0bf58a2-c2f6-463f-99af-b3952e681f6b" x1="757.3" y1="225.5" x2="757.3" y2="228"/><line class="e3994e3b-d8f6-4fd3-81e4-52372fe94151" x1="757.3" y1="233.6" x2="757.3" y2="275"/><line class="b0bf58a2-c2f6-463f-99af-b3952e681f6b" x1="757.3" y1="277.8" x2="757.3" y2="280.3"/><circle class="eb6cf7b5-8c00-49b6-84a8-3bbb7535c863" cx="757.3" cy="280.1" r="3.8"/><line class="b0bf58a2-c2f6-463f-99af-b3952e681f6b" x1="1020.2" y1="225.5" x2="1020.2" y2="228"/><line class="e3994e3b-d8f6-4fd3-81e4-52372fe94151" x1="1020.2" y1="233.6" x2="1020.2" y2="275"/><line class="b0bf58a2-c2f6-463f-99af-b3952e681f6b" x1="1020.2" y1="277.8" x2="1020.2" y2="280.3"/><circle class="eb6cf7b5-8c00-49b6-84a8-3bbb7535c863" cx="1020.2" cy="280.1" r="3.8"/><line class="b0bf58a2-c2f6-463f-99af-b3952e681f6b" x1="1257.5" y1="225.5" x2="1257.5" y2="228"/><line class="e3994e3b-d8f6-4fd3-81e4-52372fe94151" x1="1257.5" y1="233.6" x2="1257.5" y2="275"/><line class="b0bf58a2-c2f6-463f-99af-b3952e681f6b" x1="1257.5" y1="277.8" x2="1257.5" y2="280.3"/><circle class="eb6cf7b5-8c00-49b6-84a8-3bbb7535c863" cx="1257.5" cy="280.1" r="3.8"/><path class="ffc3431f-66dc-4b89-a84e-8ee7145e3382" d="M1045.9,8.5h54a11,11,0,0,1,11,11v13a11,11,0,0,1-11,11h-54a11,11,0,0,1-11-11v-13A11,11,0,0,1,1045.9,8.5Z"/><path class="ef11d33d-ff65-4d66-a413-1bdc7e399fff" d="M1045.9,53.6h54a11,11,0,0,1,11,11v13a11,11,0,0,1-11,11h-54a11,11,0,0,1-11-11v-13A11,11,0,0,1,1045.9,53.6Z"/><path class="a6964105-de87-4d99-a39f-cb4de989fee5" d="M1045.9,98.7h54a11,11,0,0,1,11,11v13a11,11,0,0,1-11,11h-54a11,11,0,0,1-11-11v-13A11,11,0,0,1,1045.9,98.7Z"/><path class="ffc3431f-66dc-4b89-a84e-8ee7145e3382" d="M30.4,200.5h156a11,11,0,0,1,11,11v28a11,11,0,0,1-11,11H30.4a11,11,0,0,1-11-11v-28A11,11,0,0,1,30.4,200.5Z"/><g class="a6436b9d-8e1d-431c-9cbb-2181a5f1c6bb"><path class="e32f7453-1ebf-4941-bf07-c5198c528e88" d="M96.84,231.38v-4.84H90.62v4.84H89.53V220.76h1.09v4.79h6.22v-4.79h1.09v10.62Z"/><path class="e32f7453-1ebf-4941-bf07-c5198c528e88" d="M107.58,227.47a4.14,4.14,0,0,1-1.08,3,3.66,3.66,0,0,1-2.74,1.15,3.49,3.49,0,0,1-2.7-1.12,4.65,4.65,0,0,1,0-6,3.61,3.61,0,0,1,2.73-1.14,3.54,3.54,0,0,1,2.71,1.13A4.18,4.18,0,0,1,107.58,227.47Zm-1,0c0-1.92-1.09-3.17-2.76-3.17s-2.73,1.27-2.73,3.14,1.08,3.18,2.75,3.18S106.55,229.37,106.55,227.5Z"/><path class="e32f7453-1ebf-4941-bf07-c5198c528e88" d="M120.32,231.38h-1.06v-5c0-1.33-.54-2-1.65-2a3.23,3.23,0,0,0-2.19,1,5.59,5.59,0,0,1,0,.7v5.3h-1v-5c0-1.33-.54-2-1.65-2a3.22,3.22,0,0,0-2.16.9v6.1h-1v-7.79l1-.22v1.07a3.63,3.63,0,0,1,2.47-1.07,2.07,2.07,0,0,1,2.1,1.3,3.88,3.88,0,0,1,2.76-1.3c1.49,0,2.4,1,2.4,2.69Z"/><path class="e32f7453-1ebf-4941-bf07-c5198c528e88" d="M123.27,227.52v.09c.06,1.78,1.11,3,2.72,3a4.12,4.12,0,0,0,2.26-.65l.21,1a4.66,4.66,0,0,1-2.5.66,3.72,3.72,0,0,1-3.76-4,4.34,4.34,0,0,1,1.06-3,3.32,3.32,0,0,1,2.62-1.18,2.67,2.67,0,0,1,2.83,2.88,4,4,0,0,1-.17,1.24Zm.07-.83,4.32,0a1.34,1.34,0,0,0,0-.34,1.78,1.78,0,0,0-1.87-2A2.51,2.51,0,0,0,123.34,226.69Z"/></g><rect class="f1aaa5b2-99b9-432e-bc34-31271e16296d" x="0.5" y="264" width="861.4" height="308.9"/><path class="svgtext" d="M960.6,301.8l-.3,1a5.29,5.29,0,0,0-3-.9c-2.4,0-4,1.7-4,4.5s1.6,4.6,4,4.6a4.72,4.72,0,0,0,3-1l.2,1.1a6.2,6.2,0,0,1-3.2.9,4.63,4.63,0,0,1-3.7-1.5,6.47,6.47,0,0,1,0-8.1,4.76,4.76,0,0,1,3.7-1.5A9.54,9.54,0,0,1,960.6,301.8Z"/><path class="svgtext" d="M963.6,306.8v5h-1.1V304l1.1-.2v1.7a2.73,2.73,0,0,1,2.3-1.7,2.5,2.5,0,0,1,1.4.4l-.3,1a2.66,2.66,0,0,0-1.2-.3C965,304.8,964.2,305.5,963.6,306.8Z"/><path class="svgtext" d="M969.9,301.5a.76.76,0,0,1-.2.5c-.1.2-.3.2-.5.2a.76.76,0,0,1-.5-.2,1.69,1.69,0,0,1-.2-.5.76.76,0,0,1,.2-.5c.1-.2.3-.2.5-.2a.68.68,0,0,1,.7.7Zm-.2,10.3h-1V304l1-.2Z"/><path class="svgtext" d="M976,311.7a3.29,3.29,0,0,1-1.7.4c-1.5,0-2.1-.8-2.1-2.5l.1-4.6-1.2-.1v-.7l1.2-.3v-1.8h1v1.8h2.6v.9h-2.6l-.1,4.6c0,1,.3,1.5,1.1,1.5a2.82,2.82,0,0,0,1.5-.4Z"/><path class="svgtext" d="M979,301.5a.76.76,0,0,1-.2.5c-.1.2-.3.2-.5.2a.76.76,0,0,1-.5-.2,1.69,1.69,0,0,1-.2-.5.76.76,0,0,1,.2-.5c.1-.2.3-.2.5-.2a.68.68,0,0,1,.7.7Zm-.2,10.3h-1V304l1-.2Z"/><path class="svgtext" d="M987,311.4a5.13,5.13,0,0,1-2.4.7c-2.3,0-3.8-1.6-3.8-4.1a4.14,4.14,0,0,1,1.1-3,3.17,3.17,0,0,1,2.7-1.1,4,4,0,0,1,2.4.7l-.3,1a4,4,0,0,0-2.2-.6c-1.7,0-2.7,1.2-2.7,3.1s1.1,3.1,2.8,3.1a4.28,4.28,0,0,0,2.2-.6Z"/><path class="svgtext" d="M993.1,310.9h0a2.84,2.84,0,0,1-2.3,1.1,2.39,2.39,0,0,1-2.5-2v-.1c0-1.7,1.6-2.6,4.7-2.8v-.5a1.75,1.75,0,0,0-1.4-1.9h-.5a5.38,5.38,0,0,0-2.5.9l-.2-1a5.21,5.21,0,0,1,2.9-.9,2.47,2.47,0,0,1,2.8,2.1v4.4c0,.6.1.8.8.8l-.1.9C993.8,312,993.2,311.7,993.1,310.9Zm-.1-.8v-2.3c-2.6.3-3.6.9-3.6,1.9a1.45,1.45,0,0,0,1.5,1.4h.1A2.46,2.46,0,0,0,993,310.1Z"/><path class="svgtext" d="M996.5,311.8V300.3l1.1-.2v11.7Z"/><path class="svgtext" d="M1008,310.9h0a3,3,0,0,1-2.3,1.1,2.39,2.39,0,0,1-2.5-2v-.1c0-1.7,1.6-2.6,4.7-2.8v-.5a1.75,1.75,0,0,0-1.4-1.9h-.5a5.38,5.38,0,0,0-2.5.9l-.2-1a5.21,5.21,0,0,1,2.9-.9,2.47,2.47,0,0,1,2.8,2.1v4.4c0,.6.1.8.8.8l-.1.9C1008.7,312,1008.1,311.7,1008,310.9Zm-.1-.8v-2.3c-2.6.3-3.6.9-3.6,1.9a1.45,1.45,0,0,0,1.5,1.4h.1a2.61,2.61,0,0,0,2-1Z"/><path class="svgtext" d="M1017.5,311.8h-1v-5c0-1.4-.5-2-1.7-2a3.19,3.19,0,0,0-2.4,1.1v5.9h-1.1V304l1.1-.2v1.3a3.87,3.87,0,0,1,2.7-1.3,2.35,2.35,0,0,1,2.5,2.2v.5Z"/><path class="svgtext" d="M1025.1,304.3v-3.9l1.1-.2v11.7h-1.1v-.7a3.73,3.73,0,0,1-2.3,1c-2.1,0-3.5-1.6-3.5-4a4.14,4.14,0,0,1,1.1-3,3.25,3.25,0,0,1,2.8-1.1A2.49,2.49,0,0,1,1025.1,304.3Zm0,1.1a3.29,3.29,0,0,0-1.9-.6c-1.7,0-2.7,1.3-2.7,3.2s1,3.1,2.6,3.1a2.88,2.88,0,0,0,2.1-.9v-4.8Z"/><path class="svgtext" d="M1032.7,311.8V301.2h1.1v10.6Z"/><path class="svgtext" d="M1042.6,311.8h-1.1v-5c0-1.4-.5-2-1.7-2a3.19,3.19,0,0,0-2.4,1.1v5.9h-1.1V304l1.1-.2v1.3a3.87,3.87,0,0,1,2.7-1.3,2.35,2.35,0,0,1,2.5,2.2v5.8Z"/><path class="svgtext" d="M1049,300.3v.2a.9.9,0,0,0-.1.5l-.1.2a2.66,2.66,0,0,0-1.2-.3c-.9,0-1.3.6-1.3,1.8V304h2.4l-.1.9h-2.4v6.8h-1V305l-1.2-.1.1-.7,1.2-.3v-1.2c0-1.9.8-2.8,2.3-2.8A5.73,5.73,0,0,1,1049,300.3Z"/><path class="svgtext" d="M1057.1,307.9a3.77,3.77,0,0,1-1.1,3,3.17,3.17,0,0,1-2.7,1.1,3.86,3.86,0,0,1-2.7-1.1,4.06,4.06,0,0,1-1-3,4.14,4.14,0,0,1,1.1-3,3.17,3.17,0,0,1,2.7-1.1,3.86,3.86,0,0,1,2.7,1.1A4.06,4.06,0,0,1,1057.1,307.9Zm-1,0c0-1.9-1.1-3.2-2.8-3.2s-2.7,1.3-2.7,3.1a2.9,2.9,0,0,0,2.8,3.2c1.7,0,2.7-1.2,2.7-3.1Z"/><path class="svgtext" d="M1060.1,306.8v5H1059V304l1.1-.2v1.7a2.73,2.73,0,0,1,2.3-1.7,2.5,2.5,0,0,1,1.4.4l-.3,1a2.66,2.66,0,0,0-1.2-.3C1061.4,304.8,1060.7,305.5,1060.1,306.8Z"/><path class="svgtext" d="M1075.9,311.8h-1v-5c0-1.3-.5-2-1.7-2a3.21,3.21,0,0,0-2.2,1v6h-1v-5c0-1.3-.6-2-1.7-2a3.1,3.1,0,0,0-2.2.9v6.1H1065V304l1.1-.2v1.1a3.84,3.84,0,0,1,2.5-1.1,2,2,0,0,1,2.1,1.3,3.72,3.72,0,0,1,2.8-1.3c1.5,0,2.4,1,2.4,2.7Z"/><path class="svgtext" d="M1082.4,310.9h0a3,3,0,0,1-2.3,1.1,2.39,2.39,0,0,1-2.5-2v-.1c0-1.7,1.6-2.6,4.7-2.8v-.5a1.75,1.75,0,0,0-1.4-1.9h-.5a6.22,6.22,0,0,0-2.6.9l-.2-1a5.21,5.21,0,0,1,2.9-.9,2.47,2.47,0,0,1,2.8,2.1v4.4c0,.6.1.8.8.8l-.1.9C1083.1,312,1082.5,311.7,1082.4,310.9Zm-.1-.8v-2.3c-2.6.3-3.6.9-3.6,1.9a1.45,1.45,0,0,0,1.5,1.4h.1a2.61,2.61,0,0,0,2-1Z"/><path class="svgtext" d="M1085.1,308.2v-1h3.8v1Z"/><path class="svgtext" d="M981.5,332.1a3.29,3.29,0,0,1-1.7.4c-1.4,0-2.1-.8-2.1-2.5l.1-4.6-1.2-.1v-.7l1.2-.3v-1.8h1v1.8h2.6l-.1.9h-2.6l-.1,4.6c0,1,.3,1.5,1.1,1.5a2.82,2.82,0,0,0,1.5-.4Z"/><path class="svgtext" d="M984.5,321.9a.76.76,0,0,1-.2.5c-.1.2-.3.2-.5.2a.76.76,0,0,1-.5-.2,1.69,1.69,0,0,1-.2-.5.76.76,0,0,1,.2-.5c.1-.2.3-.2.5-.2a.68.68,0,0,1,.7.7Zm-.2,10.3h-1v-7.8l1-.2Z"/><path class="svgtext" d="M993.8,328.3a3.77,3.77,0,0,1-1.1,3,3.17,3.17,0,0,1-2.7,1.1,3.86,3.86,0,0,1-2.7-1.1,4.68,4.68,0,0,1,0-6,3.17,3.17,0,0,1,2.7-1.1,3.86,3.86,0,0,1,2.7,1.1A3.77,3.77,0,0,1,993.8,328.3Zm-1,0c0-1.9-1.1-3.2-2.8-3.2s-2.7,1.3-2.7,3.1a2.9,2.9,0,0,0,2.8,3.2c1.7,0,2.7-1.2,2.7-3.1Z"/><path class="svgtext" d="M1002,332.2h-1.1v-5c0-1.4-.5-2-1.7-2a3.19,3.19,0,0,0-2.4,1.1v5.9h-1v-7.8l1-.2v1.3a3.87,3.87,0,0,1,2.7-1.3,2.35,2.35,0,0,1,2.5,2.2v5.8Z"/><path class="svgtext" d="M1008.5,331.3h0a3,3,0,0,1-2.3,1.1,2.39,2.39,0,0,1-2.5-2v-.1c0-1.7,1.6-2.6,4.7-2.8V327a1.75,1.75,0,0,0-1.4-1.9h-.5a5.38,5.38,0,0,0-2.5.9l-.2-1a5.21,5.21,0,0,1,2.9-.9,2.47,2.47,0,0,1,2.8,2.1v4.4c0,.6.1.8.8.8l-.1.9C1009.2,332.5,1008.6,332.1,1008.5,331.3Zm-.1-.8v-2.3c-2.6.3-3.6.9-3.6,1.9a1.45,1.45,0,0,0,1.5,1.4h.1A2.61,2.61,0,0,0,1008.4,330.5Z"/><path class="svgtext" d="M1011.8,332.2V320.8l1-.2v11.7Z"/><path class="svgtext" d="M1020.4,328v4.2h-1.1V321.5h2.9c2.6,0,3.9,1.1,3.9,3.1a3,3,0,0,1-2.5,3l2.9,4.6h-1.3l-2.7-4.4Zm0-1,1.9-.1a2.33,2.33,0,0,0,2.6-2.2c0-1.3-1-2.1-2.9-2.1h-1.7Z"/><path class="svgtext" d="M1028.6,328.4h0c.1,1.9,1.1,3.1,2.7,3.1a4.65,4.65,0,0,0,2.3-.6l.2,1a4.51,4.51,0,0,1-2.5.7,3.78,3.78,0,0,1-3.8-3.7v-.3a4.06,4.06,0,0,1,1-3,3.37,3.37,0,0,1,2.6-1.2,2.61,2.61,0,0,1,2.8,2.5v.4a2.54,2.54,0,0,1-.2,1.2Zm.1-.9h4.3v-.3a1.8,1.8,0,0,0-1.5-2h-.3a2.38,2.38,0,0,0-2.5,2.3Z"/><path class="svgtext" d="M1037.1,325.2a3.73,3.73,0,0,1,2.3-1c2.1,0,3.5,1.6,3.5,4a4.14,4.14,0,0,1-1.1,3,3.63,3.63,0,0,1-2.8,1.2,4.06,4.06,0,0,1-1.9-.4v4.1h-1V324.3l1-.2Zm0,.9v4.8a3.61,3.61,0,0,0,2,.6c1.6,0,2.7-1.3,2.7-3.2s-1-3.1-2.6-3.1A2.72,2.72,0,0,0,1037.1,326.1Z"/><path class="svgtext" d="M1051.8,328.3a3.77,3.77,0,0,1-1.1,3,3.17,3.17,0,0,1-2.7,1.1,3.86,3.86,0,0,1-2.7-1.1,4.56,4.56,0,0,1,0-6,3.17,3.17,0,0,1,2.7-1.1,3.86,3.86,0,0,1,2.7,1.1A3.77,3.77,0,0,1,1051.8,328.3Zm-1,0c0-1.9-1.1-3.2-2.8-3.2s-2.7,1.3-2.7,3.1a2.9,2.9,0,0,0,2.8,3.2c1.7,0,2.7-1.2,2.7-3.1Z"/><path class="svgtext" d="M1054.8,327.2v5h-1v-7.8l1-.2v1.7a2.73,2.73,0,0,1,2.3-1.7,2.5,2.5,0,0,1,1.4.4l-.3,1a2.66,2.66,0,0,0-1.2-.3C1056.2,325.2,1055.4,325.9,1054.8,327.2Z"/><path class="svgtext" d="M1064,332.1a3.29,3.29,0,0,1-1.7.4c-1.4,0-2.1-.8-2.1-2.5l.1-4.6-1.2-.1.1-.7,1.2-.3v-1.8h1v1.8h2.6l-.1.9h-2.6l-.1,4.6c0,1,.3,1.5,1.1,1.5a2.82,2.82,0,0,0,1.5-.4Z"/></g></g></svg>
