<svg fill="none" height="259" viewBox="0 0 1173 259" width="1173" xmlns="http://www.w3.org/2000/svg"><g class="svgtext"><path d="m31.2932 238.912-.48 1.368c-1.248-.792-2.64-1.2-4.176-1.2-3.384 0-5.664 2.376-5.664 6.408 0 3.96 2.232 6.432 5.712 6.432 1.608 0 3-.456 4.2-1.344l.288 1.512c-1.248.816-2.76 1.224-4.512 1.224-2.184 0-3.936-.696-5.256-2.112s-1.992-3.288-1.992-5.664.672-4.272 2.04-5.712c1.344-1.416 3.072-2.136 5.208-2.136 1.752 0 3.288.408 4.632 1.224zm8.5185 11.664v-3.216c-3.696.408-5.112 1.224-5.112 2.736 0 1.152.936 1.92 2.256 1.92 1.056 0 2.016-.48 2.856-1.44zm.096 1.104h-.072c-.888 1.08-1.944 1.632-3.216 1.632-2.016 0-3.48-1.272-3.48-3.048 0-2.352 2.232-3.648 6.672-3.912v-.648c0-1.752-.864-2.616-2.592-2.616-1.152 0-2.592.576-3.6 1.32l-.336-1.392c1.056-.744 2.688-1.32 4.08-1.32 2.64 0 3.96 1.32 3.936 3.936v5.28c0 .864.192 1.128 1.104 1.104l-.096 1.224c-1.416.096-2.232-.432-2.4-1.56zm6.2028 1.32v-16.488l-1.488.312v16.176zm13.4413-5.52c0 1.728-.504 3.12-1.536 4.2s-2.304 1.632-3.864 1.632-2.832-.528-3.816-1.584-1.488-2.448-1.488-4.2c0-1.728.528-3.144 1.56-4.224s2.304-1.608 3.864-1.608 2.832.528 3.816 1.584 1.464 2.448 1.464 4.2zm-1.464.048c0-2.712-1.536-4.488-3.888-4.488-2.304 0-3.864 1.8-3.864 4.44 0 2.712 1.536 4.488 3.888 4.488 2.304 0 3.864-1.8 3.864-4.44zm5.718-1.584v7.056h-1.488v-10.992l1.488-.312v2.352c.792-1.56 1.872-2.352 3.24-2.352.696 0 1.32.168 1.92.504l-.384 1.392c-.528-.312-1.08-.48-1.68-.48-1.224 0-2.256.936-3.096 2.832zm8.8427-7.56c0 .312-.096.552-.264.768s-.432.336-.744.336-.576-.12-.744-.336-.264-.456-.264-.768c0-.288.096-.528.264-.744s.432-.312.744-.312.576.096.744.312.264.456.264.744zm-.264 14.616h-1.488v-10.992l1.488-.312zm4.2957-5.448v.12c.072 2.52 1.56 4.248 3.84 4.248 1.2 0 2.256-.312 3.192-.912l.288 1.368c-1.008.624-2.184.936-3.528.936-3.144 0-5.304-2.328-5.304-5.712 0-1.728.504-3.144 1.488-4.248s2.208-1.656 3.696-1.656c2.448 0 4.008 1.584 4.008 4.056 0 .648-.072 1.224-.24 1.752zm.096-1.176 6.096-.024c.024-.072.024-.24.024-.48 0-1.728-.936-2.832-2.64-2.832-1.896 0-3.216 1.416-3.48 3.336zm16.9854 3.624c0 1.992-1.68 3.312-3.936 3.312-1.368 0-2.568-.336-3.6-.984l.408-1.368c1.008.672 2.088 1.008 3.24 1.008 1.392 0 2.472-.696 2.472-1.848 0-.264-.048-.48-.168-.696s-.264-.384-.384-.504-.36-.24-.672-.384-.552-.24-.696-.288-.432-.144-.84-.264c-1.92-.576-3.192-1.392-3.192-3.12 0-1.968 1.56-3.168 3.72-3.168 1.176 0 2.28.264 3.336.816l-.432 1.344c-.984-.552-1.992-.816-3-.816-1.344 0-2.208.624-2.208 1.68 0 .24.048.456.168.648.12.216.24.36.36.48s.336.264.648.384c.288.12.528.216.696.288s.456.144.84.264c1.992.576 3.24 1.392 3.24 3.216z"/><path d="m287.509 251.944c2.088 0 3.552-1.224 3.552-2.832 0-1.632-1.152-2.376-3.792-3.144-.624-.192-1.152-.384-1.584-.576-.456-.168-.912-.432-1.368-.744s-.816-.72-1.056-1.2-.36-1.032-.36-1.68c0-2.376 1.992-4.08 4.8-4.08 1.656 0 3.168.432 4.512 1.296l-.552 1.344c-1.224-.84-2.52-1.248-3.936-1.248-2.16 0-3.336 1.08-3.336 2.568 0 1.536 1.128 2.16 3.792 3 .624.192 1.152.384 1.608.576.456.216.912.48 1.368.792.456.336.792.744 1.032 1.248.216.504.336 1.08.336 1.728 0 2.52-2.064 4.32-5.064 4.32-1.752 0-3.36-.456-4.824-1.392l.552-1.368c1.368.936 2.808 1.392 4.32 1.392zm13.23.84c-.816.384-1.632.576-2.448.576-2.04 0-3.024-1.152-2.952-3.456l.168-6.504-1.68-.096.072-.936 1.656-.384.072-2.496h1.416l-.072 2.568h3.672l-.072 1.32h-3.648l-.168 6.576c-.048 1.368.48 2.064 1.608 2.064.6 0 1.296-.168 2.112-.528zm3.101-5.232v.12c.072 2.52 1.56 4.248 3.84 4.248 1.2 0 2.256-.312 3.192-.912l.288 1.368c-1.008.624-2.184.936-3.528.936-3.144 0-5.304-2.328-5.304-5.712 0-1.728.504-3.144 1.488-4.248s2.208-1.656 3.696-1.656c2.448 0 4.008 1.584 4.008 4.056 0 .648-.072 1.224-.24 1.752zm.096-1.176 6.096-.024c.024-.072.024-.24.024-.48 0-1.728-.936-2.832-2.64-2.832-1.896 0-3.216 1.416-3.48 3.336zm11.874-3.264c.96-.888 2.016-1.344 3.192-1.344 2.952 0 4.92 2.304 4.92 5.688 0 1.704-.504 3.12-1.512 4.2-1.032 1.104-2.328 1.656-3.912 1.656-.984 0-1.872-.192-2.688-.576v5.856h-1.488v-16.632l1.488-.312zm0 1.248v6.744c.744.576 1.656.864 2.76.864 2.304 0 3.816-1.848 3.816-4.488 0-2.568-1.416-4.344-3.624-4.344-1.08 0-2.064.408-2.952 1.224zm17.463 5.64c0 1.992-1.68 3.312-3.936 3.312-1.368 0-2.568-.336-3.6-.984l.408-1.368c1.008.672 2.088 1.008 3.24 1.008 1.392 0 2.472-.696 2.472-1.848 0-.264-.048-.48-.168-.696s-.264-.384-.384-.504-.36-.24-.672-.384-.552-.24-.696-.288-.432-.144-.84-.264c-1.92-.576-3.192-1.392-3.192-3.12 0-1.968 1.56-3.168 3.72-3.168 1.176 0 2.28.264 3.336.816l-.432 1.344c-.984-.552-1.992-.816-3-.816-1.344 0-2.208.624-2.208 1.68 0 .24.048.456.168.648.12.216.24.36.36.48s.336.264.648.384c.288.12.528.216.696.288s.456.144.84.264c1.992.576 3.24 1.392 3.24 3.216z"/><path d="m524.624 252v-15h-1.536v6.768h-8.784v-6.768h-1.536v15h1.536v-6.84h8.784v6.84zm4.447-5.448v.12c.072 2.52 1.56 4.248 3.84 4.248 1.2 0 2.256-.312 3.192-.912l.288 1.368c-1.008.624-2.184.936-3.528.936-3.144 0-5.304-2.328-5.304-5.712 0-1.728.504-3.144 1.488-4.248s2.208-1.656 3.696-1.656c2.448 0 4.008 1.584 4.008 4.056 0 .648-.072 1.224-.24 1.752zm.096-1.176 6.096-.024c.024-.072.024-.24.024-.48 0-1.728-.936-2.832-2.64-2.832-1.896 0-3.216 1.416-3.48 3.336zm16.121 4.2v-3.216c-3.696.408-5.112 1.224-5.112 2.736 0 1.152.936 1.92 2.256 1.92 1.056 0 2.016-.48 2.856-1.44zm.096 1.104h-.072c-.888 1.08-1.944 1.632-3.216 1.632-2.016 0-3.48-1.272-3.48-3.048 0-2.352 2.232-3.648 6.672-3.912v-.648c0-1.752-.864-2.616-2.592-2.616-1.152 0-2.592.576-3.6 1.32l-.336-1.392c1.056-.744 2.688-1.32 4.08-1.32 2.64 0 3.96 1.32 3.936 3.936v5.28c0 .864.192 1.128 1.104 1.104l-.096 1.224c-1.416.096-2.232-.432-2.4-1.56zm6.203-5.736v7.056h-1.488v-10.992l1.488-.312v2.352c.792-1.56 1.872-2.352 3.24-2.352.696 0 1.32.168 1.92.504l-.384 1.392c-.528-.312-1.08-.48-1.68-.48-1.224 0-2.256.936-3.096 2.832zm12.89 6.84c-.816.384-1.632.576-2.448.576-2.04 0-3.024-1.152-2.952-3.456l.168-6.504-1.68-.096.072-.936 1.656-.384.072-2.496h1.416l-.072 2.568h3.672l-.072 1.32h-3.648l-.168 6.576c-.048 1.368.48 2.064 1.608 2.064.6 0 1.296-.168 2.112-.528zm12.027-5.424c0 1.728-.504 3.144-1.512 4.272-1.032 1.128-2.328 1.68-3.912 1.68-.936 0-1.824-.192-2.688-.6l-1.488.648v-16.536l1.488-.312v6.648c.984-.936 2.088-1.392 3.312-1.392 2.904 0 4.8 2.28 4.8 5.592zm-1.536.072c0-2.544-1.392-4.296-3.552-4.296-1.128 0-2.136.408-3.024 1.224v6.744c.744.576 1.656.864 2.76.864 2.352 0 3.816-1.824 3.816-4.536zm4.986.12v.12c.072 2.52 1.56 4.248 3.84 4.248 1.2 0 2.256-.312 3.192-.912l.288 1.368c-1.008.624-2.184.936-3.528.936-3.144 0-5.304-2.328-5.304-5.712 0-1.728.504-3.144 1.488-4.248s2.208-1.656 3.696-1.656c2.448 0 4.008 1.584 4.008 4.056 0 .648-.072 1.224-.24 1.752zm.096-1.176 6.096-.024c.024-.072.024-.24.024-.48 0-1.728-.936-2.832-2.64-2.832-1.896 0-3.216 1.416-3.48 3.336zm16.121 4.2v-3.216c-3.696.408-5.112 1.224-5.112 2.736 0 1.152.936 1.92 2.256 1.92 1.056 0 2.016-.48 2.856-1.44zm.096 1.104h-.072c-.888 1.08-1.944 1.632-3.216 1.632-2.016 0-3.48-1.272-3.48-3.048 0-2.352 2.232-3.648 6.672-3.912v-.648c0-1.752-.864-2.616-2.592-2.616-1.152 0-2.592.576-3.6 1.32l-.336-1.392c1.056-.744 2.688-1.32 4.08-1.32 2.64 0 3.96 1.32 3.936 3.936v5.28c0 .864.192 1.128 1.104 1.104l-.096 1.224c-1.416.096-2.232-.432-2.4-1.56zm10.187 1.104c-.816.384-1.632.576-2.448.576-2.04 0-3.024-1.152-2.952-3.456l.168-6.504-1.68-.096.072-.936 1.656-.384.072-2.496h1.416l-.072 2.568h3.672l-.072 1.32h-3.648l-.168 6.576c-.048 1.368.48 2.064 1.608 2.064.6 0 1.296-.168 2.112-.528z"/><path d="m786.815 239.8 4.032 13.2h1.488l4.2-15h-1.536l-3.36 12.816-3.888-12.816h-1.824l-3.816 12.816-3.504-12.816h-1.584l4.272 15h1.464zm12.135 7.752v.12c.072 2.52 1.56 4.248 3.84 4.248 1.2 0 2.256-.312 3.192-.912l.288 1.368c-1.008.624-2.184.936-3.528.936-3.144 0-5.304-2.328-5.304-5.712 0-1.728.504-3.144 1.488-4.248s2.208-1.656 3.696-1.656c2.448 0 4.008 1.584 4.008 4.056 0 .648-.072 1.224-.24 1.752zm.096-1.176 6.096-.024c.024-.072.024-.24.024-.48 0-1.728-.936-2.832-2.64-2.832-1.896 0-3.216 1.416-3.48 3.336zm12.161-7.992c0 .312-.096.552-.264.768s-.432.336-.744.336-.576-.12-.744-.336-.264-.456-.264-.768c0-.288.096-.528.264-.744s.432-.312.744-.312.576.096.744.312.264.456.264.744zm-.264 14.616h-1.488v-10.992l1.488-.312zm4.344-7.152c0 1.632 1.104 2.808 2.832 2.808.84 0 1.488-.264 1.992-.816.504-.528.744-1.224.744-2.064s-.24-1.536-.72-2.064c-.504-.528-1.2-.792-2.088-.792-1.704 0-2.76 1.2-2.76 2.928zm1.296 7.464c-1.32.36-2.232 1.224-2.232 2.16 0 1.32 1.464 2.256 3.744 2.256 2.304 0 4.128-1.104 4.128-2.592 0-1.248-1.056-1.752-3.336-1.752-.912 0-1.68-.024-2.304-.072zm-1.296-.288c-.984-.36-1.488-.936-1.488-1.752 0-.912.744-1.704 1.8-2.088-1.176-.72-1.776-1.848-1.776-3.36 0-2.376 1.752-4.128 4.32-4.128.96 0 1.824.216 2.592.648l3.048-.24.072 1.488-2.424-.24c.504.504.888 1.56.888 2.472 0 2.352-1.8 4.032-4.272 4.032-.504 0-1.032-.096-1.632-.312-.816.336-1.224.768-1.224 1.32 0 .744.624 1.128 2.496 1.128h1.416c3.048 0 4.56.96 4.56 2.88 0 1.176-.576 2.16-1.704 2.928s-2.496 1.152-4.08 1.152c-2.952 0-4.968-1.296-4.968-3.216 0-1.248.96-2.352 2.376-2.712zm19.122-.024h-1.488v-7.104c0-1.848-.792-2.784-2.352-2.784-1.224 0-2.376.528-3.408 1.56v8.328h-1.488v-16.176l1.488-.312v6.936c1.176-1.176 2.448-1.752 3.816-1.752 2.16 0 3.432 1.344 3.432 3.768zm8.853-.216c-.816.384-1.632.576-2.448.576-2.04 0-3.024-1.152-2.952-3.456l.168-6.504-1.68-.096.072-.936 1.656-.384.072-2.496h1.416l-.072 2.568h3.672l-.072 1.32h-3.648l-.168 6.576c-.048 1.368.48 2.064 1.608 2.064.6 0 1.296-.168 2.112-.528z"/><path d="m1013.46 250.944c2.09 0 3.55-1.224 3.55-2.832 0-1.632-1.15-2.376-3.79-3.144-.62-.192-1.15-.384-1.58-.576-.46-.168-.91-.432-1.37-.744s-.82-.72-1.06-1.2-.36-1.032-.36-1.68c0-2.376 2-4.08 4.8-4.08 1.66 0 3.17.432 4.52 1.296l-.56 1.344c-1.22-.84-2.52-1.248-3.93-1.248-2.16 0-3.34 1.08-3.34 2.568 0 1.536 1.13 2.16 3.79 3 .63.192 1.16.384 1.61.576.46.216.91.48 1.37.792.46.336.79.744 1.03 1.248.22.504.34 1.08.34 1.728 0 2.52-2.07 4.32-5.07 4.32-1.75 0-3.36-.456-4.82-1.392l.55-1.368c1.37.936 2.81 1.392 4.32 1.392zm9.25 1.056v-16.488l-1.49.312v16.176zm4.25-5.448v.12c.07 2.52 1.56 4.248 3.84 4.248 1.2 0 2.25-.312 3.19-.912l.29 1.368c-1.01.624-2.19.936-3.53.936-3.14 0-5.3-2.328-5.3-5.712 0-1.728.5-3.144 1.48-4.248.99-1.104 2.21-1.656 3.7-1.656 2.45 0 4.01 1.584 4.01 4.056 0 .648-.07 1.224-.24 1.752zm.09-1.176 6.1-.024c.02-.072.02-.24.02-.48 0-1.728-.93-2.832-2.64-2.832-1.89 0-3.21 1.416-3.48 3.336zm11.18 1.176v.12c.07 2.52 1.56 4.248 3.84 4.248 1.2 0 2.26-.312 3.19-.912l.29 1.368c-1.01.624-2.18.936-3.53.936-3.14 0-5.3-2.328-5.3-5.712 0-1.728.5-3.144 1.49-4.248.98-1.104 2.2-1.656 3.69-1.656 2.45 0 4.01 1.584 4.01 4.056 0 .648-.07 1.224-.24 1.752zm.1-1.176 6.09-.024c.03-.072.03-.24.03-.48 0-1.728-.94-2.832-2.64-2.832-1.9 0-3.22 1.416-3.48 3.336zm11.87-3.264c.96-.888 2.02-1.344 3.19-1.344 2.95 0 4.92 2.304 4.92 5.688 0 1.704-.5 3.12-1.51 4.2-1.03 1.104-2.33 1.656-3.91 1.656-.99 0-1.87-.192-2.69-.576v5.856h-1.49v-16.632l1.49-.312zm0 1.248v6.744c.74.576 1.66.864 2.76.864 2.3 0 3.82-1.848 3.82-4.488 0-2.568-1.42-4.344-3.63-4.344-1.08 0-2.06.408-2.95 1.224zm15.38 3.504v-1.392h-5.43v1.392zm10.56 4.512c-1.01.624-2.14.936-3.41.936-3.29 0-5.38-2.304-5.38-5.784 0-1.704.51-3.12 1.54-4.2 1.01-1.08 2.3-1.632 3.86-1.632 1.32 0 2.45.312 3.43.936l-.38 1.344c-.89-.6-1.92-.888-3.05-.888-2.37 0-3.86 1.752-3.86 4.392 0 2.712 1.53 4.44 3.89 4.44 1.1 0 2.11-.312 3.04-.912zm11.11-10.368-4.27 10.872-.89 2.376c-.96 2.616-1.97 3.456-3.55 3.456-.65 0-1.34-.168-2.14-.504l.46-1.368c.6.312 1.15.48 1.68.48.91 0 1.51-.552 2.26-2.544l.74-1.944-4.3-10.824h1.61l3.46 9.072 3.38-9.072zm9.77 10.368c-1.01.624-2.14.936-3.41.936-3.29 0-5.38-2.304-5.38-5.784 0-1.704.51-3.12 1.54-4.2 1.01-1.08 2.3-1.632 3.86-1.632 1.32 0 2.45.312 3.44.936l-.39 1.344c-.89-.6-1.92-.888-3.05-.888-2.37 0-3.86 1.752-3.86 4.392 0 2.712 1.54 4.44 3.89 4.44 1.1 0 2.11-.312 3.05-.912zm4.25.624v-16.488l-1.49.312v16.176zm4.25-5.448v.12c.07 2.52 1.56 4.248 3.84 4.248 1.2 0 2.26-.312 3.19-.912l.29 1.368c-1.01.624-2.18.936-3.53.936-3.14 0-5.3-2.328-5.3-5.712 0-1.728.5-3.144 1.49-4.248.98-1.104 2.2-1.656 3.69-1.656 2.45 0 4.01 1.584 4.01 4.056 0 .648-.07 1.224-.24 1.752zm.1-1.176 6.09-.024c.03-.072.03-.24.03-.48 0-1.728-.94-2.832-2.64-2.832-1.9 0-3.22 1.416-3.48 3.336z"/><path d="m99.032 183.12c0-2.184.72-4.152 2.136-5.904 1.416-1.728 3.432-2.904 6.096-3.528l.6 1.872c-3.72.936-5.952 2.808-6.696 5.616l.048.024c1.08-.984 2.352-1.488 3.816-1.488 2.472 0 4.392 1.896 4.392 4.656 0 2.904-2.016 4.992-5.112 4.992-1.656 0-2.928-.6-3.864-1.8-.936-1.176-1.416-2.664-1.416-4.44zm2.088.624c0 2.112 1.296 3.792 3.288 3.792 1.824 0 3.024-1.248 3.024-3.072 0-1.8-1.2-3-2.928-3-1.296 0-2.52.6-3.264 1.272-.072.288-.12.624-.12 1.008zm10.287-.624c0-2.184.72-4.152 2.136-5.904 1.416-1.728 3.432-2.904 6.096-3.528l.6 1.872c-3.72.936-5.952 2.808-6.696 5.616l.048.024c1.08-.984 2.352-1.488 3.816-1.488 2.472 0 4.392 1.896 4.392 4.656 0 2.904-2.016 4.992-5.112 4.992-1.656 0-2.928-.6-3.864-1.8-.936-1.176-1.416-2.664-1.416-4.44zm2.088.624c0 2.112 1.296 3.792 3.288 3.792 1.824 0 3.024-1.248 3.024-3.072 0-1.8-1.2-3-2.928-3-1.296 0-2.52.6-3.264 1.272-.072.288-.12.624-.12 1.008zm11.709 2.544c.432 0 .792.144 1.08.432.288.312.432.672.432 1.08s-.144.768-.432 1.08-.648.48-1.08.48c-.456 0-.816-.168-1.104-.48-.312-.312-.456-.672-.456-1.08s.144-.768.456-1.08c.288-.288.648-.432 1.104-.432zm10.655-6.696-6.648 13.824h2.016l6.768-14.064v-1.704h-9.96l-.072 1.944zm10.945-2.16c0 2.208-1.56 3.96-3.984 3.96-2.376 0-3.984-1.752-3.984-3.96 0-1.128.36-2.064 1.104-2.856.72-.768 1.68-1.152 2.88-1.152s2.16.384 2.904 1.152c.72.768 1.08 1.728 1.08 2.856zm7.32-3.768-11.952 15.696h-1.512l11.952-15.696zm1.8 11.928c0 1.128-.36 2.064-1.08 2.832-.744.792-1.704 1.176-2.904 1.176s-2.16-.384-2.88-1.152c-.744-.768-1.104-1.728-1.104-2.856 0-2.208 1.584-3.96 3.984-3.96 2.376 0 3.984 1.752 3.984 3.96zm-10.416-8.16c0-.792-.24-1.44-.72-1.968-.504-.528-1.152-.792-1.968-.792s-1.464.264-1.944.792c-.504.528-.744 1.176-.744 1.968 0 .744.24 1.392.744 1.92.48.528 1.128.792 1.944.792s1.464-.264 1.968-.792c.48-.528.72-1.176.72-1.92zm9.12 8.16c0-.744-.24-1.392-.72-1.92-.504-.528-1.152-.792-1.968-.792s-1.464.264-1.944.792c-.504.528-.744 1.176-.744 1.92 0 .792.24 1.44.744 1.968.48.528 1.128.792 1.944.792s1.464-.264 1.968-.792c.48-.528.72-1.176.72-1.968z"/><path d="m350.032 183.12c0-2.184.72-4.152 2.136-5.904 1.416-1.728 3.432-2.904 6.096-3.528l.6 1.872c-3.72.936-5.952 2.808-6.696 5.616l.048.024c1.08-.984 2.352-1.488 3.816-1.488 2.472 0 4.392 1.896 4.392 4.656 0 2.904-2.016 4.992-5.112 4.992-1.656 0-2.928-.6-3.864-1.8-.936-1.176-1.416-2.664-1.416-4.44zm2.088.624c0 2.112 1.296 3.792 3.288 3.792 1.824 0 3.024-1.248 3.024-3.072 0-1.8-1.2-3-2.928-3-1.296 0-2.52.6-3.264 1.272-.072.288-.12.624-.12 1.008zm10.287-.624c0-2.184.72-4.152 2.136-5.904 1.416-1.728 3.432-2.904 6.096-3.528l.6 1.872c-3.72.936-5.952 2.808-6.696 5.616l.048.024c1.08-.984 2.352-1.488 3.816-1.488 2.472 0 4.392 1.896 4.392 4.656 0 2.904-2.016 4.992-5.112 4.992-1.656 0-2.928-.6-3.864-1.8-.936-1.176-1.416-2.664-1.416-4.44zm2.088.624c0 2.112 1.296 3.792 3.288 3.792 1.824 0 3.024-1.248 3.024-3.072 0-1.8-1.2-3-2.928-3-1.296 0-2.52.6-3.264 1.272-.072.288-.12.624-.12 1.008zm11.709 2.544c.432 0 .792.144 1.08.432.288.312.432.672.432 1.08s-.144.768-.432 1.08-.648.48-1.08.48c-.456 0-.816-.168-1.104-.48-.312-.312-.456-.672-.456-1.08s.144-.768.456-1.08c.288-.288.648-.432 1.104-.432zm10.655-6.696-6.648 13.824h2.016l6.768-14.064v-1.704h-9.96l-.072 1.944zm10.945-2.16c0 2.208-1.56 3.96-3.984 3.96-2.376 0-3.984-1.752-3.984-3.96 0-1.128.36-2.064 1.104-2.856.72-.768 1.68-1.152 2.88-1.152s2.16.384 2.904 1.152c.72.768 1.08 1.728 1.08 2.856zm7.32-3.768-11.952 15.696h-1.512l11.952-15.696zm1.8 11.928c0 1.128-.36 2.064-1.08 2.832-.744.792-1.704 1.176-2.904 1.176s-2.16-.384-2.88-1.152c-.744-.768-1.104-1.728-1.104-2.856 0-2.208 1.584-3.96 3.984-3.96 2.376 0 3.984 1.752 3.984 3.96zm-10.416-8.16c0-.792-.24-1.44-.72-1.968-.504-.528-1.152-.792-1.968-.792s-1.464.264-1.944.792c-.504.528-.744 1.176-.744 1.968 0 .744.24 1.392.744 1.92.48.528 1.128.792 1.944.792s1.464-.264 1.968-.792c.48-.528.72-1.176.72-1.92zm9.12 8.16c0-.744-.24-1.392-.72-1.92-.504-.528-1.152-.792-1.968-.792s-1.464.264-1.944.792c-.504.528-.744 1.176-.744 1.92 0 .792.24 1.44.744 1.968.48.528 1.128.792 1.944.792s1.464-.264 1.968-.792c.48-.528.72-1.176.72-1.968z"/><path d="m604.024 183.84c.792-.072 1.368-.12 1.704-.12 3.144 0 5.16 1.8 5.16 4.608 0 1.512-.504 2.76-1.512 3.72-1.032.96-2.28 1.44-3.768 1.44-1.608 0-3-.336-4.176-1.032l.36-1.944c1.32.744 2.616 1.104 3.84 1.104 1.896 0 3.24-1.272 3.24-3.192 0-1.68-1.296-3-3.384-3-1.056 0-2.04.144-2.952.408l-.528-.48.984-7.704h7.488l.072 1.944h-5.952zm18.377-4.848c1.08 1.128 1.608 2.568 1.608 4.344s-.528 3.216-1.608 4.344-2.496 1.68-4.2 1.68-3.096-.552-4.176-1.68c-1.08-1.104-1.608-2.544-1.608-4.344s.528-3.24 1.608-4.368c1.08-1.104 2.472-1.656 4.176-1.656s3.12.552 4.2 1.68zm-1.416 7.32c.696-.792 1.056-1.776 1.056-2.976s-.36-2.184-1.056-2.976c-.72-.792-1.656-1.176-2.784-1.176s-2.064.384-2.76 1.152c-.696.792-1.056 1.776-1.056 3s.36 2.208 1.056 2.976c.696.792 1.632 1.176 2.76 1.176s2.064-.384 2.784-1.176zm12.46-8.88c0 2.208-1.56 3.96-3.984 3.96-2.376 0-3.984-1.752-3.984-3.96 0-1.128.36-2.064 1.104-2.856.72-.768 1.68-1.152 2.88-1.152s2.16.384 2.904 1.152c.72.768 1.08 1.728 1.08 2.856zm7.32-3.768-11.952 15.696h-1.512l11.952-15.696zm1.8 11.928c0 1.128-.36 2.064-1.08 2.832-.744.792-1.704 1.176-2.904 1.176s-2.16-.384-2.88-1.152c-.744-.768-1.104-1.728-1.104-2.856 0-2.208 1.584-3.96 3.984-3.96 2.376 0 3.984 1.752 3.984 3.96zm-10.416-8.16c0-.792-.24-1.44-.72-1.968-.504-.528-1.152-.792-1.968-.792s-1.464.264-1.944.792c-.504.528-.744 1.176-.744 1.968 0 .744.24 1.392.744 1.92.48.528 1.128.792 1.944.792s1.464-.264 1.968-.792c.48-.528.72-1.176.72-1.92zm9.12 8.16c0-.744-.24-1.392-.72-1.92-.504-.528-1.152-.792-1.968-.792s-1.464.264-1.944.792c-.504.528-.744 1.176-.744 1.92 0 .792.24 1.44.744 1.968.48.528 1.128.792 1.944.792s1.464-.264 1.968-.792c.48-.528.72-1.176.72-1.968z"/><path d="m858.48 184.92c2.28.36 3.528 1.968 3.528 3.792 0 1.464-.528 2.64-1.56 3.48-1.056.864-2.376 1.296-3.96 1.296-1.704 0-3.072-.312-4.056-.912l.36-1.848c.936.648 2.184.96 3.72.96 2.088 0 3.432-1.008 3.432-2.832 0-1.608-1.272-2.448-3.264-2.52-.6-.024-1.344.048-2.208.192v-1.704c3.24-.744 4.848-1.896 4.848-3.432 0-1.44-.984-2.232-2.712-2.232-1.056 0-2.208.456-3.456 1.392l-.696-1.68c1.32-1.032 2.784-1.56 4.368-1.56 2.904 0 4.656 1.536 4.656 3.792 0 1.704-1.296 3.144-3 3.816zm10.477 0c2.28.36 3.528 1.968 3.528 3.792 0 1.464-.528 2.64-1.56 3.48-1.056.864-2.376 1.296-3.96 1.296-1.704 0-3.072-.312-4.056-.912l.36-1.848c.936.648 2.184.96 3.72.96 2.088 0 3.432-1.008 3.432-2.832 0-1.608-1.272-2.448-3.264-2.52-.6-.024-1.344.048-2.208.192v-1.704c3.24-.744 4.848-1.896 4.848-3.432 0-1.44-.984-2.232-2.712-2.232-1.056 0-2.208.456-3.456 1.392l-.696-1.68c1.32-1.032 2.784-1.56 4.368-1.56 2.904 0 4.656 1.536 4.656 3.792 0 1.704-1.296 3.144-3 3.816zm7.293 1.368c.432 0 .792.144 1.08.432.288.312.432.672.432 1.08s-.144.768-.432 1.08-.648.48-1.08.48c-.456 0-.816-.168-1.104-.48-.312-.312-.456-.672-.456-1.08s.144-.768.456-1.08c.288-.288.648-.432 1.104-.432zm8.832-1.368c2.28.36 3.528 1.968 3.528 3.792 0 1.464-.528 2.64-1.56 3.48-1.056.864-2.376 1.296-3.96 1.296-1.704 0-3.072-.312-4.056-.912l.36-1.848c.936.648 2.184.96 3.72.96 2.088 0 3.432-1.008 3.432-2.832 0-1.608-1.272-2.448-3.264-2.52-.6-.024-1.344.048-2.208.192v-1.704c3.24-.744 4.848-1.896 4.848-3.432 0-1.44-.984-2.232-2.712-2.232-1.056 0-2.208.456-3.456 1.392l-.696-1.68c1.32-1.032 2.784-1.56 4.368-1.56 2.904 0 4.656 1.536 4.656 3.792 0 1.704-1.296 3.144-3 3.816zm12.3-7.488c0 2.208-1.56 3.96-3.984 3.96-2.376 0-3.984-1.752-3.984-3.96 0-1.128.36-2.064 1.104-2.856.72-.768 1.68-1.152 2.88-1.152s2.16.384 2.904 1.152c.72.768 1.08 1.728 1.08 2.856zm7.32-3.768-11.952 15.696h-1.512l11.952-15.696zm1.8 11.928c0 1.128-.36 2.064-1.08 2.832-.744.792-1.704 1.176-2.904 1.176s-2.16-.384-2.88-1.152c-.744-.768-1.104-1.728-1.104-2.856 0-2.208 1.584-3.96 3.984-3.96 2.376 0 3.984 1.752 3.984 3.96zm-10.416-8.16c0-.792-.24-1.44-.72-1.968-.504-.528-1.152-.792-1.968-.792s-1.464.264-1.944.792c-.504.528-.744 1.176-.744 1.968 0 .744.24 1.392.744 1.92.48.528 1.128.792 1.944.792s1.464-.264 1.968-.792c.48-.528.72-1.176.72-1.92zm9.12 8.16c0-.744-.24-1.392-.72-1.92-.504-.528-1.152-.792-1.968-.792s-1.464.264-1.944.792c-.504.528-.744 1.176-.744 1.92 0 .792.24 1.44.744 1.968.48.528 1.128.792 1.944.792s1.464-.264 1.968-.792c.48-.528.72-1.176.72-1.968z"/><path d="m1106.86 189h1.95v-11.712l-4.8 1.584.07 1.8 2.78-.888zm5.4-5.88c0-2.184.72-4.152 2.13-5.904 1.42-1.728 3.44-2.904 6.1-3.528l.6 1.872c-3.72.936-5.95 2.808-6.7 5.616l.05.024c1.08-.984 2.35-1.488 3.82-1.488 2.47 0 4.39 1.896 4.39 4.656 0 2.904-2.02 4.992-5.11 4.992-1.66 0-2.93-.6-3.87-1.8-.93-1.176-1.41-2.664-1.41-4.44zm2.09.624c0 2.112 1.29 3.792 3.28 3.792 1.83 0 3.03-1.248 3.03-3.072 0-1.8-1.2-3-2.93-3-1.3 0-2.52.6-3.26 1.272-.08.288-.12.624-.12 1.008zm11.71 2.544c.43 0 .79.144 1.08.432.28.312.43.672.43 1.08s-.15.768-.43 1.08c-.29.312-.65.48-1.08.48-.46 0-.82-.168-1.11-.48-.31-.312-.45-.672-.45-1.08s.14-.768.45-1.08c.29-.288.65-.432 1.11-.432zm10.65-6.696-6.65 13.824h2.02l6.77-14.064v-1.704h-9.96l-.08 1.944zm10.95-2.16c0 2.208-1.56 3.96-3.99 3.96-2.37 0-3.98-1.752-3.98-3.96 0-1.128.36-2.064 1.1-2.856.72-.768 1.68-1.152 2.88-1.152s2.16.384 2.91 1.152c.72.768 1.08 1.728 1.08 2.856zm7.32-3.768-11.96 15.696h-1.51l11.95-15.696zm1.8 11.928c0 1.128-.36 2.064-1.08 2.832-.75.792-1.71 1.176-2.91 1.176s-2.16-.384-2.88-1.152c-.74-.768-1.1-1.728-1.1-2.856 0-2.208 1.58-3.96 3.98-3.96 2.38 0 3.99 1.752 3.99 3.96zm-10.42-8.16c0-.792-.24-1.44-.72-1.968-.5-.528-1.15-.792-1.97-.792-.81 0-1.46.264-1.94.792-.51.528-.75 1.176-.75 1.968 0 .744.24 1.392.75 1.92.48.528 1.13.792 1.94.792.82 0 1.47-.264 1.97-.792.48-.528.72-1.176.72-1.92zm9.12 8.16c0-.744-.24-1.392-.72-1.92-.5-.528-1.15-.792-1.97-.792-.81 0-1.46.264-1.94.792-.51.528-.75 1.176-.75 1.92 0 .792.24 1.44.75 1.968.48.528 1.13.792 1.94.792.82 0 1.47-.264 1.97-.792.48-.528.72-1.176.72-1.968z"/></g><rect fill="#ec8539" fill-opacity=".2" height="50.0001" rx="10" transform="matrix(0 -1 1 0 -159 221)" width="190" x="31" y="190"/><rect fill="#ec8539" fill-opacity=".2" height="49.0001" rx="10" transform="matrix(0 -1 1 0 93 471)" width="189" x="282" y="189"/><rect fill="#ec8539" fill-opacity=".2" height="49.0001" rx="10" transform="matrix(0 -1 1 0 345 723)" width="189" x="534" y="189"/><rect fill="#ec8539" fill-opacity=".2" height="49.0001" rx="10" transform="matrix(0 -1 1 0 596 974)" width="189" x="785" y="189"/><rect fill="#ec8539" fill-opacity=".2" height="49.0001" rx="10" transform="matrix(0 -1 1 0 847 1225)" width="189" x="1036" y="189"/><rect fill="#ec8539" height="50.0001" rx="10" transform="matrix(0 -1 1 0 -159 221)" width="126.73" x="31" y="190"/><rect fill="#ec8539" height="49" rx="10" transform="matrix(0 -1 1 0 93 471)" width="127" x="282" y="189"/><rect fill="#ec8539" height="49.0001" rx="10" transform="matrix(0 -1 1 0 345 723)" width="94.5" x="534" y="189"/><rect fill="#ec8539" height="49.0001" rx="10" transform="matrix(0 -1 1 0 596 974)" width="62.937" x="785" y="189"/><rect fill="#ec8539" height="49.0001" rx="10" transform="matrix(0 -1 1 0 847 1225)" width="31.563" x="1036" y="189"/></svg>
