<svg fill="none" height="302" viewBox="0 0 358 302" width="358" xmlns="http://www.w3.org/2000/svg"><g class="svgtext"><path d="m292.909 264h1.464v-11.64l-4.32 1.584.072 1.368 2.784-1.056zm14.957-5.616c0 2.136-.72 4.128-2.136 5.928-1.44 1.824-3.504 3.048-6.216 3.672l-.432-1.392c3.96-.936 6.48-3.336 7.176-6.48l-.048-.024c-1.2 1.128-2.544 1.68-4.032 1.68-1.2 0-2.232-.408-3.072-1.2s-1.272-1.896-1.272-3.264c0-2.904 1.944-4.944 4.944-4.944 1.56 0 2.808.576 3.72 1.704.912 1.152 1.368 2.592 1.368 4.32zm-1.56-.312c0-2.472-1.392-4.344-3.6-4.344-2.064 0-3.36 1.416-3.36 3.504 0 1.968 1.32 3.216 3.12 3.216 1.416 0 2.664-.528 3.768-1.584.048-.24.072-.504.072-.792zm8.854.792v-1.392h-5.424v1.392zm10.371 5.136h-8.592v-1.368c2.52-1.896 4.08-3.12 4.656-3.648 1.224-1.104 1.824-2.088 1.824-2.976 0-1.32-.984-2.256-2.52-2.256-1.08 0-2.208.456-3.408 1.392l-.528-1.272c1.272-1.008 2.64-1.512 4.08-1.512 2.352 0 3.936 1.392 3.936 3.456 0 .288-.024.552-.072.816-.072.264-.168.552-.312.816s-.288.504-.408.72c-.144.216-.36.48-.648.744l-.672.696c-.168.168-.456.408-.84.72-.408.312-.696.552-.912.696-.216.168-.552.408-1.008.768-.48.36-.84.624-1.056.792h6.48zm3.37-4.992c.6-.168 1.272-.24 2.016-.24 3.024 0 4.992 1.848 4.992 4.56 0 1.488-.504 2.712-1.488 3.672-1.008.96-2.256 1.44-3.744 1.44-1.416 0-2.712-.336-3.84-.984l.288-1.464c1.248.696 2.448 1.032 3.6 1.032 2.16 0 3.672-1.44 3.672-3.624 0-1.896-1.416-3.336-3.624-3.336-.984 0-1.944.144-2.856.456l-.504-.48.96-7.392h7.128l.072 1.44h-5.976z"/><path d="m9.72 24h-8.592v-1.368c2.52-1.896 4.08-3.12 4.656-3.648 1.224-1.104 1.824-2.088 1.824-2.976 0-1.32-.984-2.256-2.52-2.256-1.08 0-2.208.456-3.408 1.392l-.528-1.272c1.272-1.008 2.64-1.512 4.08-1.512 2.352 0 3.936 1.392 3.936 3.456 0 .288-.024.552-.072.816-.072.264-.168.552-.312.816s-.288.504-.408.72c-.144.216-.36.48-.648.744l-.672.696c-.168.168-.456.408-.84.72-.408.312-.696.552-.912.696-.216.168-.552.408-1.008.768-.48.36-.84.624-1.056.792h6.48zm2.0235-5.712c0-2.136.72-4.128 2.16-5.952 1.44-1.8 3.504-3.024 6.192-3.648l.432 1.392c-3.96.936-6.48 3.336-7.176 6.48l.048.024c1.2-1.128 2.544-1.68 4.032-1.68 1.2 0 2.232.408 3.072 1.2s1.272 1.896 1.272 3.264c0 2.904-1.968 4.944-4.92 4.944-1.584 0-2.832-.576-3.744-1.728-.912-1.128-1.368-2.568-1.368-4.296zm1.56.312c0 1.2.336 2.232.984 3.072s1.512 1.272 2.616 1.272c2.064 0 3.36-1.416 3.36-3.504 0-1.968-1.32-3.216-3.12-3.216-1.416 0-2.664.528-3.768 1.584-.048.24-.072.504-.072.792zm15.6943.264v-1.392h-5.424v1.392zm3.2878.144c.6-.168 1.272-.24 2.016-.24 3.024 0 4.992 1.848 4.992 4.56 0 1.488-.504 2.712-1.488 3.672-1.008.96-2.256 1.44-3.744 1.44-1.416 0-2.712-.336-3.84-.984l.288-1.464c1.248.696 2.448 1.032 3.6 1.032 2.16 0 3.672-1.44 3.672-3.624 0-1.896-1.416-3.336-3.624-3.336-.984 0-1.944.144-2.856.456l-.504-.48.96-7.392h7.128l.072 1.44h-5.976zm14.4467-6.648c1.656 0 3.048.552 4.152 1.68s1.656 2.544 1.656 4.296-.552 3.168-1.656 4.296-2.496 1.68-4.152 1.68-3.024-.552-4.104-1.68c-1.104-1.128-1.656-2.544-1.656-4.296s.552-3.168 1.656-4.296c1.08-1.128 2.448-1.68 4.104-1.68zm0 10.536c1.272 0 2.304-.432 3.12-1.296.792-.864 1.2-1.944 1.2-3.264s-.408-2.4-1.2-3.264c-.816-.864-1.848-1.296-3.12-1.296-1.248 0-2.28.432-3.072 1.296s-1.2 1.944-1.2 3.264.408 2.4 1.2 3.264 1.824 1.296 3.072 1.296z"/><path d="m289.956 289.732c0-2.184.72-4.152 2.136-5.904 1.416-1.728 3.432-2.904 6.096-3.528l.6 1.872c-3.72.936-5.952 2.808-6.696 5.616l.048.024c1.08-.984 2.352-1.488 3.816-1.488 2.472 0 4.392 1.896 4.392 4.656 0 2.904-2.016 4.992-5.112 4.992-1.656 0-2.928-.6-3.864-1.8-.936-1.176-1.416-2.664-1.416-4.44zm2.088.624c0 2.112 1.296 3.792 3.288 3.792 1.824 0 3.024-1.248 3.024-3.072 0-1.8-1.2-3-2.928-3-1.296 0-2.52.6-3.264 1.272-.072.288-.12.624-.12 1.008zm13.119 5.256h1.944v-11.712l-4.8 1.584.072 1.8 2.784-.888zm6.582-2.712c.432 0 .792.144 1.08.432.288.312.432.672.432 1.08s-.144.768-.432 1.08-.648.48-1.08.48c-.456 0-.816-.168-1.104-.48-.312-.312-.456-.672-.456-1.08s.144-.768.456-1.08c.288-.288.648-.432 1.104-.432zm5.375-2.448c.792-.072 1.368-.12 1.704-.12 3.144 0 5.16 1.8 5.16 4.608 0 1.512-.504 2.76-1.512 3.72-1.032.96-2.28 1.44-3.768 1.44-1.608 0-3-.336-4.176-1.032l.36-1.944c1.32.744 2.616 1.104 3.84 1.104 1.896 0 3.24-1.272 3.24-3.192 0-1.68-1.296-3-3.384-3-1.056 0-2.04.144-2.952.408l-.528-.48.984-7.704h7.488l.072 1.944h-5.952zm15.569-6.408c0 2.208-1.56 3.96-3.984 3.96-2.376 0-3.984-1.752-3.984-3.96 0-1.128.36-2.064 1.104-2.856.72-.768 1.68-1.152 2.88-1.152s2.16.384 2.904 1.152c.72.768 1.08 1.728 1.08 2.856zm7.32-3.768-11.952 15.696h-1.512l11.952-15.696zm1.8 11.928c0 1.128-.36 2.064-1.08 2.832-.744.792-1.704 1.176-2.904 1.176s-2.16-.384-2.88-1.152c-.744-.768-1.104-1.728-1.104-2.856 0-2.208 1.584-3.96 3.984-3.96 2.376 0 3.984 1.752 3.984 3.96zm-10.416-8.16c0-.792-.24-1.44-.72-1.968-.504-.528-1.152-.792-1.968-.792s-1.464.264-1.944.792c-.504.528-.744 1.176-.744 1.968 0 .744.24 1.392.744 1.92.48.528 1.128.792 1.944.792s1.464-.264 1.968-.792c.48-.528.72-1.176.72-1.92zm9.12 8.16c0-.744-.24-1.392-.72-1.92-.504-.528-1.152-.792-1.968-.792s-1.464.264-1.944.792c-.504.528-.744 1.176-.744 1.92 0 .792.24 1.44.744 1.968.48.528 1.128.792 1.944.792s1.464-.264 1.968-.792c.48-.528.72-1.176.72-1.968z"/><path d="m6.48 50.92c2.28.36 3.528 1.968 3.528 3.792 0 1.464-.528 2.64-1.56 3.48-1.056.864-2.376 1.296-3.96 1.296-1.704 0-3.072-.312-4.056-.912l.36-1.848c.936.648 2.184.96 3.72.96 2.088 0 3.432-1.008 3.432-2.832 0-1.608-1.272-2.448-3.264-2.52-.6-.024-1.344.048-2.208.192v-1.704c3.24-.744 4.848-1.896 4.848-3.432 0-1.44-.984-2.232-2.712-2.232-1.056 0-2.208.456-3.456 1.392l-.696-1.68c1.32-1.032 2.784-1.56 4.368-1.56 2.904 0 4.656 1.536 4.656 3.792 0 1.704-1.296 3.144-3 3.816zm10.8606-4.032c1.344-.552 2.016-1.464 2.016-2.712 0-1.536-1.152-2.52-2.736-2.52-1.8 0-2.856.96-2.856 2.28 0 .288.072.552.216.816s.312.456.48.624.456.36.864.576c.384.216.696.36.912.456.216.12.6.264 1.104.48zm-1.44 1.344c-1.488.48-2.376 1.512-2.376 2.856 0 1.512 1.296 2.52 3.12 2.52 1.896 0 2.928-.816 2.928-2.256 0-.264-.048-.504-.12-.72s-.216-.432-.432-.648-.408-.384-.552-.504-.408-.264-.816-.456-.672-.312-.792-.384c-.144-.072-.456-.192-.96-.408zm2.928-.672c1.848.936 2.76 2.112 2.76 3.552 0 2.4-1.848 4.248-5.04 4.248-3.24 0-5.016-1.704-5.016-4.056 0-1.8 1.44-3.336 2.88-3.72-1.68-.864-2.64-1.824-2.64-3.432 0-2.52 1.896-4.248 4.944-4.248 3.024 0 4.632 1.776 4.632 4.056 0 1.68-1.176 3.048-2.52 3.6zm6.3828 4.728c.432 0 .792.144 1.08.432.288.312.432.672.432 1.08s-.144.768-.432 1.08-.648.48-1.08.48c-.456 0-.816-.168-1.104-.48-.312-.312-.456-.672-.456-1.08s.144-.768.456-1.08c.288-.288.648-.432 1.104-.432zm5.3751-2.448c.792-.072 1.368-.12 1.704-.12 3.144 0 5.16 1.8 5.16 4.608 0 1.512-.504 2.76-1.512 3.72-1.032.96-2.28 1.44-3.768 1.44-1.608 0-3-.336-4.176-1.032l.36-1.944c1.32.744 2.616 1.104 3.84 1.104 1.896 0 3.24-1.272 3.24-3.192 0-1.68-1.296-3-3.384-3-1.056 0-2.04.144-2.952.408l-.528-.48.984-7.704h7.488l.072 1.944h-5.952zm15.5691-6.408c0 2.208-1.56 3.96-3.984 3.96-2.376 0-3.984-1.752-3.984-3.96 0-1.128.36-2.064 1.104-2.856.72-.768 1.68-1.152 2.88-1.152s2.16.384 2.904 1.152c.72.768 1.08 1.728 1.08 2.856zm7.32-3.768-11.952 15.696h-1.512l11.952-15.696zm1.8 11.928c0 1.128-.36 2.064-1.08 2.832-.744.792-1.704 1.176-2.904 1.176s-2.16-.384-2.88-1.152c-.744-.768-1.104-1.728-1.104-2.856 0-2.208 1.584-3.96 3.984-3.96 2.376 0 3.984 1.752 3.984 3.96zm-10.416-8.16c0-.792-.24-1.44-.72-1.968-.504-.528-1.152-.792-1.968-.792s-1.464.264-1.944.792c-.504.528-.744 1.176-.744 1.968 0 .744.24 1.392.744 1.92.48.528 1.128.792 1.944.792s1.464-.264 1.968-.792c.48-.528.72-1.176.72-1.92zm9.12 8.16c0-.744-.24-1.392-.72-1.92-.504-.528-1.152-.792-1.968-.792s-1.464.264-1.944.792c-.504.528-.744 1.176-.744 1.92 0 .792.24 1.44.744 1.968.48.528 1.128.792 1.944.792s1.464-.264 1.968-.792c.48-.528.72-1.176.72-1.968z"/></g><path d="m173.631 18c-25.927 0-51.238 7.8958-72.566 22.6365-21.3283 14.7408-37.6614 35.6274-46.8257 59.8805-9.1643 24.252-10.7252 50.721-4.475 75.882 6.2502 25.162 20.0151 47.824 39.4627 64.969l84.404-95.737z" fill="#ec8539" fill-opacity=".2"/><path d="m173.631 18.0452c20.65 0 40.991 5.0105 59.279 14.6014 18.287 9.591 33.974 23.476 45.715 40.4634s19.184 36.57 21.692 57.067.004 41.296-7.295 60.613-19.176 36.574-34.612 50.291-33.97 23.483-54.011 28.461c-20.04 4.979-40.99 5.02-61.05.12-20.06-4.899-38.632-14.593-54.122-28.249l84.404-95.737z" fill="#ec8539"/></svg>
