<svg fill="none" height="302" viewBox="0 0 369 302" width="369" xmlns="http://www.w3.org/2000/svg"><g class="svgtext"><path d="m313.165 264h1.56l-.48-15h-2.04l-4.992 13.248-5.064-13.248h-2.064l-.504 15h1.512l.264-13.128 4.968 13.032h1.68l4.92-13.008zm10.578-2.424v-3.216c-3.696.408-5.112 1.224-5.112 2.736 0 1.152.936 1.92 2.256 1.92 1.056 0 2.016-.48 2.856-1.44zm.096 1.104h-.072c-.888 1.08-1.944 1.632-3.216 1.632-2.016 0-3.48-1.272-3.48-3.048 0-2.352 2.232-3.648 6.672-3.912v-.648c0-1.752-.864-2.616-2.592-2.616-1.152 0-2.592.576-3.6 1.32l-.336-1.392c1.056-.744 2.688-1.32 4.08-1.32 2.64 0 3.96 1.32 3.936 3.936v5.28c0 .864.192 1.128 1.104 1.104l-.096 1.224c-1.416.096-2.232-.432-2.4-1.56zm6.203 1.32v-16.488l-1.488.312v16.176zm4.249-5.448v.12c.072 2.52 1.56 4.248 3.84 4.248 1.2 0 2.256-.312 3.192-.912l.288 1.368c-1.008.624-2.184.936-3.528.936-3.144 0-5.304-2.328-5.304-5.712 0-1.728.504-3.144 1.488-4.248s2.208-1.656 3.696-1.656c2.448 0 4.008 1.584 4.008 4.056 0 .648-.072 1.224-.24 1.752zm.096-1.176 6.096-.024c.024-.072.024-.24.024-.48 0-1.728-.936-2.832-2.64-2.832-1.896 0-3.216 1.416-3.48 3.336z"/><path d="m1.94148 24h1.536v-6.552h6.04801v-1.416h-6.04801v-5.592h7.29602v-1.44h-8.83202zm11.85002-5.448v.12c.072 2.52 1.56 4.248 3.84 4.248 1.2 0 2.256-.312 3.192-.912l.288 1.368c-1.008.624-2.184.936-3.528.936-3.144 0-5.304-2.328-5.304-5.712 0-1.728.504-3.144 1.488-4.248s2.208-1.656 3.696-1.656c2.448 0 4.008 1.584 4.008 4.056 0 .648-.072 1.224-.24 1.752zm.096-1.176 6.096-.024c.024-.072.024-.24.024-.48 0-1.728-.936-2.832-2.64-2.832-1.896 0-3.216 1.416-3.48 3.336zm25.6014 6.624h-1.488v-7.08c0-1.872-.768-2.808-2.328-2.808-1.056 0-2.088.48-3.096 1.416.024.192.048.528.048.984v7.488h-1.488v-7.08c0-1.872-.768-2.808-2.328-2.808-1.08 0-2.088.432-3.048 1.272v8.616h-1.488v-10.992l1.488-.312v1.512c1.104-1.008 2.256-1.512 3.48-1.512 1.464 0 2.448.6 2.976 1.824 1.224-1.224 2.52-1.824 3.888-1.824 2.112 0 3.384 1.368 3.384 3.792zm9.1294-2.424v-3.216c-3.696.408-5.112 1.224-5.112 2.736 0 1.152.936 1.92 2.256 1.92 1.056 0 2.016-.48 2.856-1.44zm.096 1.104h-.072c-.888 1.08-1.944 1.632-3.216 1.632-2.016 0-3.48-1.272-3.48-3.048 0-2.352 2.232-3.648 6.672-3.912v-.648c0-1.752-.864-2.616-2.592-2.616-1.152 0-2.592.576-3.6 1.32l-.336-1.392c1.056-.744 2.688-1.32 4.08-1.32 2.64 0 3.96 1.32 3.936 3.936v5.28c0 .864.192 1.128 1.104 1.104l-.096 1.224c-1.416.096-2.232-.432-2.4-1.56zm6.2029 1.32v-16.488l-1.488.312v16.176zm4.2493-5.448v.12c.072 2.52 1.56 4.248 3.84 4.248 1.2 0 2.256-.312 3.192-.912l.288 1.368c-1.008.624-2.184.936-3.528.936-3.144 0-5.304-2.328-5.304-5.712 0-1.728.504-3.144 1.488-4.248s2.208-1.656 3.696-1.656c2.448 0 4.008 1.584 4.008 4.056 0 .648-.072 1.224-.24 1.752zm.096-1.176 6.096-.024c.024-.072.024-.24.024-.48 0-1.728-.936-2.832-2.64-2.832-1.896 0-3.216 1.416-3.48 3.336z"/><path d="m299.29 289.732c0-2.184.72-4.152 2.136-5.904 1.416-1.728 3.432-2.904 6.096-3.528l.6 1.872c-3.72.936-5.952 2.808-6.696 5.616l.048.024c1.08-.984 2.352-1.488 3.816-1.488 2.472 0 4.392 1.896 4.392 4.656 0 2.904-2.016 4.992-5.112 4.992-1.656 0-2.928-.6-3.864-1.8-.936-1.176-1.416-2.664-1.416-4.44zm2.088.624c0 2.112 1.296 3.792 3.288 3.792 1.824 0 3.024-1.248 3.024-3.072 0-1.8-1.2-3-2.928-3-1.296 0-2.52.6-3.264 1.272-.072.288-.12.624-.12 1.008zm13.119 5.256h1.944v-11.712l-4.8 1.584.072 1.8 2.784-.888zm6.582-2.712c.432 0 .792.144 1.08.432.288.312.432.672.432 1.08s-.144.768-.432 1.08-.648.48-1.08.48c-.456 0-.816-.168-1.104-.48-.312-.312-.456-.672-.456-1.08s.144-.768.456-1.08c.288-.288.648-.432 1.104-.432zm5.375-2.448c.792-.072 1.368-.12 1.704-.12 3.144 0 5.16 1.8 5.16 4.608 0 1.512-.504 2.76-1.512 3.72-1.032.96-2.28 1.44-3.768 1.44-1.608 0-3-.336-4.176-1.032l.36-1.944c1.32.744 2.616 1.104 3.84 1.104 1.896 0 3.24-1.272 3.24-3.192 0-1.68-1.296-3-3.384-3-1.056 0-2.04.144-2.952.408l-.528-.48.984-7.704h7.488l.072 1.944h-5.952zm15.569-6.408c0 2.208-1.56 3.96-3.984 3.96-2.376 0-3.984-1.752-3.984-3.96 0-1.128.36-2.064 1.104-2.856.72-.768 1.68-1.152 2.88-1.152s2.16.384 2.904 1.152c.72.768 1.08 1.728 1.08 2.856zm7.32-3.768-11.952 15.696h-1.512l11.952-15.696zm1.8 11.928c0 1.128-.36 2.064-1.08 2.832-.744.792-1.704 1.176-2.904 1.176s-2.16-.384-2.88-1.152c-.744-.768-1.104-1.728-1.104-2.856 0-2.208 1.584-3.96 3.984-3.96 2.376 0 3.984 1.752 3.984 3.96zm-10.416-8.16c0-.792-.24-1.44-.72-1.968-.504-.528-1.152-.792-1.968-.792s-1.464.264-1.944.792c-.504.528-.744 1.176-.744 1.968 0 .744.24 1.392.744 1.92.48.528 1.128.792 1.944.792s1.464-.264 1.968-.792c.48-.528.72-1.176.72-1.92zm9.12 8.16c0-.744-.24-1.392-.72-1.92-.504-.528-1.152-.792-1.968-.792s-1.464.264-1.944.792c-.504.528-.744 1.176-.744 1.92 0 .792.24 1.44.744 1.968.48.528 1.128.792 1.944.792s1.464-.264 1.968-.792c.48-.528.72-1.176.72-1.968z"/><path d="m6.50148 50.92c2.28.36 3.52802 1.968 3.52802 3.792 0 1.464-.52802 2.64-1.56001 3.48-1.056.864-2.37601 1.296-3.96001 1.296-1.704 0-3.072-.312-4.055996-.912l.36-1.848c.935996.648 2.183996.96 3.719996.96 2.088 0 3.43201-1.008 3.43201-2.832 0-1.608-1.272-2.448-3.26401-2.52-.6-.024-1.344.048-2.208.192v-1.704c3.24-.744 4.848-1.896 4.848-3.432 0-1.44-.984-2.232-2.712-2.232-1.056 0-2.208.456-3.456 1.392l-.695996-1.68c1.319996-1.032 2.783996-1.56 4.367996-1.56 2.90401 0 4.656 1.536 4.656 3.792 0 1.704-1.296 3.144-3 3.816zm10.86052-4.032c1.344-.552 2.016-1.464 2.016-2.712 0-1.536-1.152-2.52-2.736-2.52-1.8 0-2.856.96-2.856 2.28 0 .288.072.552.216.816s.312.456.48.624.456.36.864.576c.384.216.696.36.912.456.216.12.6.264 1.104.48zm-1.44 1.344c-1.488.48-2.376 1.512-2.376 2.856 0 1.512 1.296 2.52 3.12 2.52 1.896 0 2.928-.816 2.928-2.256 0-.264-.048-.504-.12-.72s-.216-.432-.432-.648-.408-.384-.552-.504-.408-.264-.816-.456-.672-.312-.792-.384c-.144-.072-.456-.192-.96-.408zm2.928-.672c1.848.936 2.76 2.112 2.76 3.552 0 2.4-1.848 4.248-5.04 4.248-3.24 0-5.016-1.704-5.016-4.056 0-1.8 1.44-3.336 2.88-3.72-1.68-.864-2.64-1.824-2.64-3.432 0-2.52 1.896-4.248 4.944-4.248 3.024 0 4.632 1.776 4.632 4.056 0 1.68-1.176 3.048-2.52 3.6zm6.3829 4.728c.432 0 .792.144 1.08.432.288.312.432.672.432 1.08s-.144.768-.432 1.08-.648.48-1.08.48c-.456 0-.816-.168-1.104-.48-.312-.312-.456-.672-.456-1.08s.144-.768.456-1.08c.288-.288.648-.432 1.104-.432zm5.3751-2.448c.792-.072 1.368-.12 1.704-.12 3.144 0 5.16 1.8 5.16 4.608 0 1.512-.504 2.76-1.512 3.72-1.032.96-2.28 1.44-3.768 1.44-1.608 0-3-.336-4.176-1.032l.36-1.944c1.32.744 2.616 1.104 3.84 1.104 1.896 0 3.24-1.272 3.24-3.192 0-1.68-1.296-3-3.384-3-1.056 0-2.04.144-2.952.408l-.528-.48.984-7.704h7.488l.072 1.944h-5.952zm15.569-6.408c0 2.208-1.56 3.96-3.984 3.96-2.376 0-3.984-1.752-3.984-3.96 0-1.128.36-2.064 1.104-2.856.72-.768 1.68-1.152 2.88-1.152s2.16.384 2.904 1.152c.72.768 1.08 1.728 1.08 2.856zm7.32-3.768-11.952 15.696h-1.512l11.952-15.696zm1.8 11.928c0 1.128-.36 2.064-1.08 2.832-.744.792-1.704 1.176-2.904 1.176s-2.16-.384-2.88-1.152c-.744-.768-1.104-1.728-1.104-2.856 0-2.208 1.584-3.96 3.984-3.96 2.376 0 3.984 1.752 3.984 3.96zm-10.416-8.16c0-.792-.24-1.44-.72-1.968-.504-.528-1.152-.792-1.968-.792s-1.464.264-1.944.792c-.504.528-.744 1.176-.744 1.968 0 .744.24 1.392.744 1.92.48.528 1.128.792 1.944.792s1.464-.264 1.968-.792c.48-.528.72-1.176.72-1.92zm9.12 8.16c0-.744-.24-1.392-.72-1.92-.504-.528-1.152-.792-1.968-.792s-1.464.264-1.944.792c-.504.528-.744 1.176-.744 1.92 0 .792.24 1.44.744 1.968.48.528 1.128.792 1.944.792s1.464-.264 1.968-.792c.48-.528.72-1.176.72-1.968z"/></g><path d="m170.429 18.0701c20.65 0 40.991 5.0105 59.278 14.6014 18.288 9.591 33.975 23.476 45.716 40.4634s19.184 36.5701 21.692 57.0671c2.507 20.497.004 41.296-7.295 60.613s-19.176 36.574-34.612 50.291-33.97 23.483-54.011 28.461c-20.041 4.979-40.99 5.02-61.05.12-20.061-4.899-38.632-14.593-54.1221-28.249l84.4041-95.737z" fill="#ec8539"/><path d="m170.408 18.0299c-25.926 0-51.238 7.8958-72.5659 22.6366-21.3281 14.7407-37.6611 35.6273-46.8254 59.8795-9.1644 24.253-10.7253 50.722-4.4751 75.883 6.2502 25.162 20.0151 47.824 39.4628 64.969l84.4036-95.737z" fill="#ec8539" fill-opacity=".2"/></svg>
