<svg fill="none" height="148" viewBox="0 0 1187 148" width="1187" xmlns="http://www.w3.org/2000/svg"><g class="svgtext"><path d="m832.864 141h1.944v-11.712l-4.8 1.584.072 1.8 2.784-.888zm5.395-5.88c0-2.184.72-4.152 2.136-5.904 1.416-1.728 3.432-2.904 6.096-3.528l.6 1.872c-3.72.936-5.952 2.808-6.696 5.616l.048.024c1.08-.984 2.352-1.488 3.816-1.488 2.472 0 4.392 1.896 4.392 4.656 0 2.904-2.016 4.992-5.112 4.992-1.656 0-2.928-.6-3.864-1.8-.936-1.176-1.416-2.664-1.416-4.44zm2.088.624c0 2.112 1.296 3.792 3.288 3.792 1.824 0 3.024-1.248 3.024-3.072 0-1.8-1.2-3-2.928-3-1.296 0-2.52.6-3.264 1.272-.072.288-.12.624-.12 1.008zm11.708 2.544c.432 0 .792.144 1.08.432.288.312.432.672.432 1.08s-.144.768-.432 1.08-.648.48-1.08.48c-.456 0-.816-.168-1.104-.48-.312-.312-.456-.672-.456-1.08s.144-.768.456-1.08c.288-.288.648-.432 1.104-.432zm3.149-3.168c0-2.184.72-4.152 2.136-5.904 1.416-1.728 3.432-2.904 6.096-3.528l.6 1.872c-3.72.936-5.952 2.808-6.696 5.616l.048.024c1.08-.984 2.352-1.488 3.816-1.488 2.472 0 4.392 1.896 4.392 4.656 0 2.904-2.016 4.992-5.112 4.992-1.656 0-2.928-.6-3.864-1.8-.936-1.176-1.416-2.664-1.416-4.44zm2.088.624c0 2.112 1.296 3.792 3.288 3.792 1.824 0 3.024-1.248 3.024-3.072 0-1.8-1.2-3-2.928-3-1.296 0-2.52.6-3.264 1.272-.072.288-.12.624-.12 1.008zm17.559-6.312c0 2.208-1.56 3.96-3.984 3.96-2.376 0-3.984-1.752-3.984-3.96 0-1.128.36-2.064 1.104-2.856.72-.768 1.68-1.152 2.88-1.152s2.16.384 2.904 1.152c.72.768 1.08 1.728 1.08 2.856zm7.32-3.768-11.952 15.696h-1.512l11.952-15.696zm1.8 11.928c0 1.128-.36 2.064-1.08 2.832-.744.792-1.704 1.176-2.904 1.176s-2.16-.384-2.88-1.152c-.744-.768-1.104-1.728-1.104-2.856 0-2.208 1.584-3.96 3.984-3.96 2.376 0 3.984 1.752 3.984 3.96zm-10.416-8.16c0-.792-.24-1.44-.72-1.968-.504-.528-1.152-.792-1.968-.792s-1.464.264-1.944.792c-.504.528-.744 1.176-.744 1.968 0 .744.24 1.392.744 1.92.48.528 1.128.792 1.944.792s1.464-.264 1.968-.792c.48-.528.72-1.176.72-1.92zm9.12 8.16c0-.744-.24-1.392-.72-1.92-.504-.528-1.152-.792-1.968-.792s-1.464.264-1.944.792c-.504.528-.744 1.176-.744 1.92 0 .792.24 1.44.744 1.968.48.528 1.128.792 1.944.792s1.464-.264 1.968-.792c.48-.528.72-1.176.72-1.968z"/><path d="m1089.3 96.592-6.64 13.824h2.01l6.77-14.064v-1.704h-9.96l-.07 1.944zm4.37 6.696c.43 0 .79.144 1.08.432.29.312.43.672.43 1.08s-.14.768-.43 1.08-.65.48-1.08.48c-.45 0-.81-.168-1.1-.48-.31-.312-.46-.672-.46-1.08s.15-.768.46-1.08c.29-.288.65-.432 1.1-.432zm10.66-6.696-6.65 13.824h2.02l6.76-14.064v-1.704h-9.96l-.07 1.944zm10.94-2.16c0 2.208-1.56 3.96-3.98 3.96-2.38 0-3.99-1.752-3.99-3.96 0-1.128.36-2.064 1.11-2.856.72-.768 1.68-1.152 2.88-1.152s2.16.384 2.9 1.152c.72.768 1.08 1.728 1.08 2.856zm7.32-3.768-11.95 15.696h-1.51l11.95-15.696zm1.8 11.928c0 1.128-.36 2.064-1.08 2.832-.74.792-1.7 1.176-2.9 1.176s-2.16-.384-2.88-1.152c-.75-.768-1.11-1.728-1.11-2.856 0-2.208 1.59-3.96 3.99-3.96 2.37 0 3.98 1.752 3.98 3.96zm-10.41-8.16c0-.792-.24-1.44-.72-1.968-.51-.528-1.16-.792-1.97-.792-.82 0-1.47.264-1.95.792-.5.528-.74 1.176-.74 1.968 0 .744.24 1.392.74 1.92.48.528 1.13.792 1.95.792.81 0 1.46-.264 1.97-.792.48-.528.72-1.176.72-1.92zm9.12 8.16c0-.744-.24-1.392-.72-1.92-.51-.528-1.16-.792-1.97-.792-.82 0-1.47.264-1.95.792-.5.528-.74 1.176-.74 1.92 0 .792.24 1.44.74 1.968.48.528 1.13.792 1.95.792.81 0 1.46-.264 1.97-.792.48-.528.72-1.176.72-1.968z"/><path d="m33.776 44v-15h-1.536v6.768h-8.784v-6.768h-1.536v15h1.536v-6.84h8.784v6.84zm4.4471-5.448v.12c.072 2.52 1.56 4.248 3.84 4.248 1.2 0 2.256-.312 3.192-.912l.288 1.368c-1.008.624-2.184.936-3.528.936-3.144 0-5.304-2.328-5.304-5.712 0-1.728.504-3.144 1.488-4.248s2.208-1.656 3.696-1.656c2.448 0 4.008 1.584 4.008 4.056 0 .648-.072 1.224-.24 1.752zm.096-1.176 6.096-.024c.024-.072.024-.24.024-.48 0-1.728-.936-2.832-2.64-2.832-1.896 0-3.216 1.416-3.48 3.336zm16.1215 4.2v-3.216c-3.696.408-5.112 1.224-5.112 2.736 0 1.152.936 1.92 2.256 1.92 1.056 0 2.016-.48 2.856-1.44zm.096 1.104h-.072c-.888 1.08-1.944 1.632-3.216 1.632-2.016 0-3.48-1.272-3.48-3.048 0-2.352 2.232-3.648 6.672-3.912v-.648c0-1.752-.864-2.616-2.592-2.616-1.152 0-2.592.576-3.6 1.32l-.336-1.392c1.056-.744 2.688-1.32 4.08-1.32 2.64 0 3.96 1.32 3.936 3.936v5.28c0 .864.192 1.128 1.104 1.104l-.096 1.224c-1.416.096-2.232-.432-2.4-1.56zm6.2028-5.736v7.056h-1.488v-10.992l1.488-.312v2.352c.792-1.56 1.872-2.352 3.24-2.352.696 0 1.32.168 1.92.504l-.384 1.392c-.528-.312-1.08-.48-1.68-.48-1.224 0-2.256.936-3.096 2.832zm8.8427-7.56c0 .312-.096.552-.264.768s-.432.336-.744.336-.576-.12-.744-.336-.264-.456-.264-.768c0-.288.096-.528.264-.744s.432-.312.744-.312.576.096.744.312.264.456.264.744zm-.264 14.616h-1.488v-10.992l1.488-.312zm12.2397 0h-1.488v-7.104c0-1.92-.744-2.784-2.424-2.784-1.176 0-2.304.528-3.336 1.56v8.328h-1.488v-10.992l1.488-.312v1.8c1.2-1.2 2.448-1.8 3.744-1.8 2.208 0 3.504 1.344 3.504 3.768zm4.2211-7.152c0 1.632 1.104 2.808 2.832 2.808.84 0 1.488-.264 1.992-.816.504-.528.744-1.224.744-2.064s-.24-1.536-.72-2.064c-.504-.528-1.2-.792-2.088-.792-1.704 0-2.76 1.2-2.76 2.928zm1.296 7.464c-1.32.36-2.232 1.224-2.232 2.16 0 1.32 1.464 2.256 3.744 2.256 2.304 0 4.128-1.104 4.128-2.592 0-1.248-1.056-1.752-3.336-1.752-.912 0-1.68-.024-2.304-.072zm-1.296-.288c-.984-.36-1.488-.936-1.488-1.752 0-.912.744-1.704 1.8-2.088-1.176-.72-1.776-1.848-1.776-3.36 0-2.376 1.752-4.128 4.32-4.128.96 0 1.824.216 2.592.648l3.048-.24.072 1.488-2.424-.24c.504.504.888 1.56.888 2.472 0 2.352-1.8 4.032-4.272 4.032-.504 0-1.032-.096-1.632-.312-.816.336-1.224.768-1.224 1.32 0 .744.624 1.128 2.496 1.128h1.416c3.048 0 4.56.96 4.56 2.88 0 1.176-.576 2.16-1.704 2.928s-2.496 1.152-4.08 1.152c-2.952 0-4.968-1.296-4.968-3.216 0-1.248.96-2.352 2.376-2.712zm17.6231-14.64c0 .312-.096.552-.264.768s-.432.336-.744.336-.576-.12-.744-.336-.264-.456-.264-.768c0-.288.096-.528.264-.744s.432-.312.744-.312.576.096.744.312.264.456.264.744zm-.264 14.616h-1.488v-10.992l1.488-.312zm8.976-.216c-.816.384-1.632.576-2.448.576-2.04 0-3.024-1.152-2.952-3.456l.168-6.504-1.68-.096.072-.936 1.656-.384.072-2.496h1.416l-.072 2.568h3.672l-.072 1.32h-3.648l-.168 6.576c-.048 1.368.48 2.064 1.608 2.064.6 0 1.296-.168 2.112-.528zm13.527-16.008-.072.336c-.072.24-.12.456-.192.672l-.096.336c-.648-.312-1.2-.456-1.68-.456-1.224 0-1.824.864-1.824 2.568v1.824h3.456l-.072 1.32h-3.384v9.624h-1.464v-9.576l-1.776-.12.096-.936 1.656-.384.024-1.728c.048-2.64 1.152-3.96 3.312-3.96.672 0 1.344.168 2.016.48zm11.493 10.704c0 1.728-.504 3.12-1.536 4.2s-2.304 1.632-3.864 1.632-2.832-.528-3.816-1.584-1.488-2.448-1.488-4.2c0-1.728.528-3.144 1.56-4.224s2.304-1.608 3.864-1.608 2.832.528 3.816 1.584 1.464 2.448 1.464 4.2zm-1.464.048c0-2.712-1.536-4.488-3.888-4.488-2.304 0-3.864 1.8-3.864 4.44 0 2.712 1.536 4.488 3.888 4.488 2.304 0 3.864-1.8 3.864-4.44zm5.718-1.584v7.056h-1.488v-10.992l1.488-.312v2.352c.792-1.56 1.872-2.352 3.24-2.352.696 0 1.32.168 1.92.504l-.384 1.392c-.528-.312-1.08-.48-1.68-.48-1.224 0-2.256.936-3.096 2.832zm18 6.84c-.816.384-1.632.576-2.448.576-2.04 0-3.024-1.152-2.952-3.456l.168-6.504-1.68-.096.072-.936 1.656-.384.072-2.496h1.416l-.072 2.568h3.672l-.072 1.32h-3.648l-.168 6.576c-.049 1.368.48 2.064 1.608 2.064.6 0 1.296-.168 2.112-.528zm11.162.216h-1.488v-7.104c0-1.848-.792-2.784-2.352-2.784-1.224 0-2.376.528-3.408 1.56v8.328h-1.488v-16.176l1.488-.312v6.936c1.176-1.176 2.448-1.752 3.816-1.752 2.16 0 3.432 1.344 3.432 3.768zm4.173-5.448v.12c.072 2.52 1.56 4.248 3.84 4.248 1.2 0 2.256-.312 3.192-.912l.288 1.368c-1.008.624-2.184.936-3.528.936-3.144 0-5.304-2.328-5.304-5.712 0-1.728.504-3.144 1.488-4.248s2.208-1.656 3.696-1.656c2.448 0 4.008 1.584 4.008 4.056 0 .648-.072 1.224-.24 1.752zm.096-1.176 6.096-.024c.024-.072.024-.24.024-.48 0-1.728-.936-2.832-2.64-2.832-1.896 0-3.216 1.416-3.48 3.336zm21.487-9.6-.072.336c-.072.24-.12.456-.192.672l-.096.336c-.648-.312-1.2-.456-1.68-.456-1.224 0-1.824.864-1.824 2.568v1.824h3.456l-.072 1.32h-3.384v9.624h-1.464v-9.576l-1.776-.12.096-.936 1.656-.384.024-1.728c.048-2.64 1.152-3.96 3.312-3.96.672 0 1.344.168 2.016.48zm3.284 1.608c0 .312-.096.552-.264.768s-.432.336-.744.336-.576-.12-.744-.336-.264-.456-.264-.768c0-.288.096-.528.264-.744s.432-.312.744-.312.576.096.744.312.264.456.264.744zm-.264 14.616h-1.488v-10.992l1.488-.312zm4.992-7.056v7.056h-1.488v-10.992l1.488-.312v2.352c.792-1.56 1.872-2.352 3.24-2.352.696 0 1.32.168 1.92.504l-.384 1.392c-.528-.312-1.08-.48-1.68-.48-1.224 0-2.256.936-3.096 2.832zm13.666 4.056c0 1.992-1.68 3.312-3.936 3.312-1.368 0-2.568-.336-3.6-.984l.408-1.368c1.008.672 2.088 1.008 3.24 1.008 1.392 0 2.472-.696 2.472-1.848 0-.264-.048-.48-.168-.696s-.264-.384-.384-.504-.36-.24-.672-.384-.552-.24-.696-.288-.432-.144-.84-.264c-1.92-.576-3.192-1.392-3.192-3.12 0-1.968 1.56-3.168 3.72-3.168 1.176 0 2.28.264 3.336.816l-.432 1.344c-.984-.552-1.992-.816-3-.816-1.344 0-2.208.624-2.208 1.68 0 .24.048.456.168.648.12.216.24.36.36.48s.336.264.648.384c.288.12.528.216.696.288s.456.144.84.264c1.992.576 3.24 1.392 3.24 3.216zm8.154 2.784c-.816.384-1.632.576-2.448.576-2.04 0-3.024-1.152-2.952-3.456l.168-6.504-1.68-.096.072-.936 1.656-.384.072-2.496h1.416l-.072 2.568h3.672l-.072 1.32h-3.648l-.168 6.576c-.049 1.368.48 2.064 1.608 2.064.6 0 1.296-.168 2.112-.528zm13.359 0c-.816.384-1.632.576-2.448.576-2.04 0-3.024-1.152-2.952-3.456l.168-6.504-1.68-.096.072-.936 1.656-.384.072-2.496h1.416l-.072 2.568h3.672l-.072 1.32h-3.648l-.168 6.576c-.048 1.368.48 2.064 1.608 2.064.6 0 1.296-.168 2.112-.528zm4.202-14.4c0 .312-.096.552-.264.768s-.432.336-.744.336-.576-.12-.744-.336-.264-.456-.264-.768c0-.288.096-.528.264-.744s.432-.312.744-.312.576.096.744.312.264.456.264.744zm-.264 14.616h-1.488v-10.992l1.488-.312zm18.72 0h-1.488v-7.08c0-1.872-.768-2.808-2.328-2.808-1.056 0-2.088.48-3.096 1.416.024.192.048.528.048.984v7.488h-1.488v-7.08c0-1.872-.768-2.808-2.328-2.808-1.08 0-2.088.432-3.048 1.272v8.616h-1.488v-10.992l1.488-.312v1.512c1.104-1.008 2.256-1.512 3.48-1.512 1.464 0 2.448.6 2.976 1.824 1.224-1.224 2.52-1.824 3.888-1.824 2.112 0 3.384 1.368 3.384 3.792zm4.185-5.448v.12c.072 2.52 1.56 4.248 3.84 4.248 1.2 0 2.256-.312 3.192-.912l.288 1.368c-1.008.624-2.184.936-3.528.936-3.144 0-5.304-2.328-5.304-5.712 0-1.728.504-3.144 1.488-4.248s2.208-1.656 3.696-1.656c2.448 0 4.008 1.584 4.008 4.056 0 .648-.072 1.224-.24 1.752zm.096-1.176 6.096-.024c.024-.072.024-.24.024-.48 0-1.728-.936-2.832-2.64-2.832-1.896 0-3.216 1.416-3.48 3.336z"/><path d="m832.48 44v-15h-1.512v15zm17.906 0h-1.488v-7.104c0-1.848-.792-2.784-2.352-2.784-1.224 0-2.376.528-3.408 1.56v8.328h-1.488v-16.176l1.488-.312v6.936c1.176-1.176 2.448-1.752 3.816-1.752 2.16 0 3.432 1.344 3.432 3.768zm9.117-2.424v-3.216c-3.696.408-5.112 1.224-5.112 2.736 0 1.152.936 1.92 2.256 1.92 1.056 0 2.016-.48 2.856-1.44zm.096 1.104h-.072c-.888 1.08-1.944 1.632-3.216 1.632-2.016 0-3.48-1.272-3.48-3.048 0-2.352 2.232-3.648 6.672-3.912v-.648c0-1.752-.864-2.616-2.592-2.616-1.152 0-2.592.576-3.6 1.32l-.336-1.392c1.056-.744 2.688-1.32 4.08-1.32 2.64 0 3.96 1.32 3.936 3.936v5.28c0 .864.192 1.128 1.104 1.104l-.096 1.224c-1.416.096-2.232-.432-2.4-1.56zm13.067-9.672h-1.56l-3.36 9.072-3.48-9.072h-1.608l4.344 11.016h1.344zm2.495 5.544v.12c.072 2.52 1.56 4.248 3.84 4.248 1.2 0 2.256-.312 3.192-.912l.288 1.368c-1.008.624-2.184.936-3.528.936-3.144 0-5.304-2.328-5.304-5.712 0-1.728.504-3.144 1.488-4.248s2.208-1.656 3.696-1.656c2.448 0 4.008 1.584 4.008 4.056 0 .648-.072 1.224-.24 1.752zm.096-1.176 6.096-.024c.024-.072.024-.24.024-.48 0-1.728-.936-2.832-2.64-2.832-1.896 0-3.216 1.416-3.48 3.336zm31.062 6.624h-1.488v-7.08c0-1.872-.768-2.808-2.328-2.808-1.056 0-2.088.48-3.096 1.416.024.192.048.528.048.984v7.488h-1.488v-7.08c0-1.872-.768-2.808-2.328-2.808-1.08 0-2.088.432-3.048 1.272v8.616h-1.488v-10.992l1.488-.312v1.512c1.104-1.008 2.256-1.512 3.48-1.512 1.464 0 2.448.6 2.976 1.824 1.224-1.224 2.52-1.824 3.888-1.824 2.112 0 3.384 1.368 3.384 3.792zm11.745-10.992-4.272 10.872-.888 2.376c-.96 2.616-1.968 3.456-3.552 3.456-.648 0-1.344-.168-2.136-.504l.456-1.368c.6.312 1.152.48 1.68.48.912 0 1.512-.552 2.256-2.544l.744-1.944-4.296-10.824h1.608l3.456 9.072 3.384-9.072zm12.921-5.232-.072.336c-.072.24-.12.456-.192.672l-.096.336c-.648-.312-1.2-.456-1.68-.456-1.224 0-1.824.864-1.824 2.568v1.824h3.456l-.072 1.32h-3.384v9.624h-1.464v-9.576l-1.776-.12.096-.936 1.656-.384.024-1.728c.048-2.64 1.152-3.96 3.312-3.96.672 0 1.344.168 2.016.48zm7.245 13.8v-3.216c-3.696.408-5.112 1.224-5.112 2.736 0 1.152.936 1.92 2.256 1.92 1.056 0 2.016-.48 2.856-1.44zm.096 1.104h-.072c-.888 1.08-1.944 1.632-3.216 1.632-2.016 0-3.48-1.272-3.48-3.048 0-2.352 2.232-3.648 6.672-3.912v-.648c0-1.752-.864-2.616-2.592-2.616-1.152 0-2.592.576-3.6 1.32l-.336-1.392c1.056-.744 2.688-1.32 4.08-1.32 2.64 0 3.96 1.32 3.936 3.936v5.28c0 .864.192 1.128 1.104 1.104l-.096 1.224c-1.416.096-2.232-.432-2.4-1.56zm6.491-13.296c0 .312-.096.552-.264.768s-.432.336-.744.336-.576-.12-.744-.336c-.169-.216-.264-.456-.264-.768 0-.288.095-.528.264-.744.168-.216.432-.312.744-.312s.576.096.744.312.264.456.264.744zm-.264 14.616h-1.488v-10.992l1.488-.312zm4.991-7.056v7.056h-1.488v-10.992l1.488-.312v2.352c.792-1.56 1.872-2.352 3.24-2.352.696 0 1.32.168 1.92.504l-.384 1.392c-.528-.312-1.08-.48-1.68-.48-1.224 0-2.256.936-3.096 2.832zm-117.28 32.584 4.944 5.472h1.896l-5.304-5.76 5.28-5.232h-1.872l-4.944 5.064h-.048v-10.56l-1.488.312v16.176h1.488v-5.472zm17.606 5.472h-1.488v-7.104c0-1.92-.744-2.784-2.424-2.784-1.176 0-2.304.528-3.336 1.56v8.328h-1.488v-10.992l1.488-.312v1.8c1.2-1.2 2.448-1.8 3.744-1.8 2.208 0 3.504 1.344 3.504 3.768zm13.365-5.52c0 1.728-.504 3.12-1.536 4.2s-2.304 1.632-3.864 1.632-2.832-.528-3.816-1.584-1.488-2.448-1.488-4.2c0-1.728.528-3.144 1.56-4.224s2.304-1.608 3.864-1.608 2.832.528 3.816 1.584 1.464 2.448 1.464 4.2zm-1.464.048c0-2.712-1.536-4.488-3.888-4.488-2.304 0-3.864 1.8-3.864 4.44 0 2.712 1.536 4.488 3.888 4.488 2.304 0 3.864-1.8 3.864-4.44zm7.401 5.52 3-8.88 3 8.88h1.32l3.264-11.04h-1.632l-2.28 8.808-3-8.784h-1.344l-2.856 8.736-2.544-8.76h-1.584l3.36 11.04zm14.091-.048v-16.488l-1.488.312v16.176zm4.249-5.448v.12c.072 2.52 1.56 4.248 3.84 4.248 1.2 0 2.256-.312 3.192-.912l.288 1.368c-1.008.624-2.184.936-3.528.936-3.144 0-5.304-2.328-5.304-5.712 0-1.728.504-3.144 1.488-4.248s2.208-1.656 3.696-1.656c2.448 0 4.008 1.584 4.008 4.056 0 .648-.072 1.224-.24 1.752zm.096-1.176 6.096-.024c.024-.072.024-.24.024-.48 0-1.728-.936-2.832-2.64-2.832-1.896 0-3.216 1.416-3.48 3.336zm17.778-4.008v-5.544l1.488-.312v16.488h-1.488v-1.032c-.96.888-2.016 1.344-3.192 1.344-2.952 0-4.92-2.328-4.92-5.712 0-1.704.504-3.096 1.536-4.2 1.032-1.08 2.328-1.632 3.912-1.632.912 0 1.8.192 2.664.6zm0 1.584c-.72-.552-1.632-.84-2.736-.84-2.352 0-3.84 1.824-3.84 4.464 0 2.568 1.44 4.368 3.648 4.368 1.08 0 2.064-.408 2.928-1.224v-6.552zm5.776 1.896c0 1.632 1.104 2.808 2.832 2.808.84 0 1.488-.264 1.992-.816.504-.528.744-1.224.744-2.064s-.24-1.536-.72-2.064c-.504-.528-1.2-.792-2.088-.792-1.704 0-2.76 1.2-2.76 2.928zm1.296 7.464c-1.32.36-2.232 1.224-2.232 2.16 0 1.32 1.464 2.256 3.744 2.256 2.304 0 4.128-1.104 4.128-2.592 0-1.248-1.056-1.752-3.336-1.752-.912 0-1.68-.024-2.304-.072zm-1.296-.288c-.984-.36-1.488-.936-1.488-1.752 0-.912.744-1.704 1.8-2.088-1.176-.72-1.776-1.848-1.776-3.36 0-2.376 1.752-4.128 4.32-4.128.96 0 1.824.216 2.592.648l3.048-.24.072 1.488-2.424-.24c.504.504.888 1.56.888 2.472 0 2.352-1.8 4.032-4.272 4.032-.504 0-1.032-.096-1.632-.312-.816.336-1.224.768-1.224 1.32 0 .744.624 1.128 2.496 1.128h1.416c3.048 0 4.56.96 4.56 2.88 0 1.176-.576 2.16-1.704 2.928s-2.496 1.152-4.08 1.152c-2.952 0-4.968-1.296-4.968-3.216 0-1.248.96-2.352 2.376-2.712zm11.178-5.472v.12c.072 2.52 1.56 4.248 3.84 4.248 1.2 0 2.256-.312 3.192-.912l.288 1.368c-1.008.624-2.184.936-3.528.936-3.144 0-5.304-2.328-5.304-5.712 0-1.728.504-3.144 1.488-4.248s2.208-1.656 3.696-1.656c2.448 0 4.008 1.584 4.008 4.056 0 .648-.072 1.224-.24 1.752zm.096-1.176 6.096-.024c.024-.072.024-.24.024-.48 0-1.728-.936-2.832-2.64-2.832-1.896 0-3.216 1.416-3.48 3.336zm-85.972 35.2v-3.216c-3.696.408-5.112 1.224-5.112 2.736 0 1.152.936 1.92 2.256 1.92 1.056 0 2.016-.48 2.856-1.44zm.096 1.104h-.072c-.888 1.08-1.944 1.632-3.216 1.632-2.016 0-3.48-1.272-3.48-3.048 0-2.352 2.232-3.648 6.672-3.912v-.648c0-1.752-.864-2.616-2.592-2.616-1.152 0-2.592.576-3.6 1.32l-.336-1.392c1.056-.744 2.688-1.32 4.08-1.32 2.64 0 3.96 1.32 3.936 3.936v5.28c0 .864.192 1.128 1.104 1.104l-.096 1.224c-1.416.096-2.232-.432-2.4-1.56zm14.315-4.32c0 1.728-.504 3.144-1.512 4.272-1.032 1.128-2.328 1.68-3.912 1.68-.936 0-1.824-.192-2.688-.6l-1.488.648v-16.536l1.488-.312v6.648c.984-.936 2.088-1.392 3.312-1.392 2.904 0 4.8 2.28 4.8 5.592zm-1.536.072c0-2.544-1.392-4.296-3.552-4.296-1.128 0-2.136.408-3.024 1.224v6.744c.744.576 1.656.864 2.76.864 2.352 0 3.816-1.824 3.816-4.536zm14.178.048c0 1.728-.504 3.12-1.536 4.2s-2.304 1.632-3.864 1.632-2.832-.528-3.816-1.584-1.488-2.448-1.488-4.2c0-1.728.528-3.144 1.56-4.224s2.304-1.608 3.864-1.608 2.832.528 3.816 1.584 1.464 2.448 1.464 4.2zm-1.464.048c0-2.712-1.536-4.488-3.888-4.488-2.304 0-3.864 1.8-3.864 4.44 0 2.712 1.536 4.488 3.888 4.488 2.304 0 3.864-1.8 3.864-4.44zm4.134-5.52h1.488v7.104c0 1.848.792 2.784 2.376 2.784 1.248 0 2.376-.528 3.384-1.56v-8.328h1.488v10.992l-1.488.312v-1.776c-1.152 1.176-2.424 1.776-3.792 1.776-2.16 0-3.456-1.392-3.456-3.768zm17.661 10.776c-.816.384-1.632.576-2.448.576-2.04 0-3.024-1.152-2.952-3.456l.168-6.504-1.68-.096.072-.936 1.656-.384.072-2.496h1.416l-.072 2.568h3.672l-.072 1.32h-3.648l-.168 6.576c-.048 1.368.48 2.064 1.608 2.064.6 0 1.296-.168 2.112-.528zm9.664-14.4c0 .312-.096.552-.264.768s-.432.336-.744.336-.576-.12-.744-.336-.264-.456-.264-.768c0-.288.096-.528.264-.744s.432-.312.744-.312.576.096.744.312.264.456.264.744zm-.264 14.616h-1.488v-10.992l1.488-.312zm8.975-.216c-.816.384-1.632.576-2.448.576-2.04 0-3.024-1.152-2.952-3.456l.168-6.504-1.68-.096.072-.936 1.656-.384.072-2.496h1.416l-.072 2.568h3.672l-.072 1.32h-3.648l-.168 6.576c-.048 1.368.48 2.064 1.608 2.064.6 0 1.296-.168 2.112-.528z"/><path d="m1084.48 44v-15h-1.51v15zm24.39 0h-1.49v-7.08c0-1.872-.77-2.808-2.33-2.808-1.06 0-2.09.48-3.1 1.416.03.192.05.528.05.984v7.488h-1.49v-7.08c0-1.872-.76-2.808-2.32-2.808-1.08 0-2.09.432-3.05 1.272v8.616h-1.49v-10.992l1.49-.312v1.512c1.1-1.008 2.25-1.512 3.48-1.512 1.46 0 2.45.6 2.97 1.824 1.23-1.224 2.52-1.824 3.89-1.824 2.11 0 3.39 1.368 3.39 3.792zm9.13-2.424v-3.216c-3.7.408-5.12 1.224-5.12 2.736 0 1.152.94 1.92 2.26 1.92 1.06 0 2.02-.48 2.86-1.44zm.09 1.104h-.07c-.89 1.08-1.94 1.632-3.22 1.632-2.01 0-3.48-1.272-3.48-3.048 0-2.352 2.24-3.648 6.68-3.912v-.648c0-1.752-.87-2.616-2.6-2.616-1.15 0-2.59.576-3.6 1.32l-.33-1.392c1.05-.744 2.69-1.32 4.08-1.32 2.64 0 3.96 1.32 3.93 3.936v5.28c0 .864.2 1.128 1.11 1.104l-.1 1.224c-1.41.096-2.23-.432-2.4-1.56zm13.07-9.672-4.27 10.872-.89 2.376c-.96 2.616-1.97 3.456-3.55 3.456-.65 0-1.35-.168-2.14-.504l.46-1.368c.6.312 1.15.48 1.68.48.91 0 1.51-.552 2.25-2.544l.75-1.944-4.3-10.824h1.61l3.45 9.072 3.39-9.072zm16.01 10.992h-1.48v-7.104c0-1.848-.8-2.784-2.36-2.784-1.22 0-2.37.528-3.4 1.56v8.328h-1.49v-16.176l1.49-.312v6.936c1.17-1.176 2.44-1.752 3.81-1.752 2.16 0 3.43 1.344 3.43 3.768zm9.12-2.424v-3.216c-3.69.408-5.11 1.224-5.11 2.736 0 1.152.94 1.92 2.26 1.92 1.05 0 2.01-.48 2.85-1.44zm.1 1.104h-.07c-.89 1.08-1.95 1.632-3.22 1.632-2.02 0-3.48-1.272-3.48-3.048 0-2.352 2.23-3.648 6.67-3.912v-.648c0-1.752-.86-2.616-2.59-2.616-1.15 0-2.59.576-3.6 1.32l-.34-1.392c1.06-.744 2.69-1.32 4.08-1.32 2.64 0 3.96 1.32 3.94 3.936v5.28c0 .864.19 1.128 1.1 1.104l-.09 1.224c-1.42.096-2.23-.432-2.4-1.56zm13.07-9.672h-1.56l-3.36 9.072-3.48-9.072h-1.61l4.34 11.016h1.35zm2.49 5.544v.12c.07 2.52 1.56 4.248 3.84 4.248 1.2 0 2.26-.312 3.19-.912l.29 1.368c-1.01.624-2.18.936-3.53.936-3.14 0-5.3-2.328-5.3-5.712 0-1.728.5-3.144 1.49-4.248.98-1.104 2.2-1.656 3.69-1.656 2.45 0 4.01 1.584 4.01 4.056 0 .648-.07 1.224-.24 1.752zm.1-1.176 6.09-.024c.03-.072.03-.24.03-.48 0-1.728-.94-2.832-2.64-2.832-1.9 0-3.22 1.416-3.48 3.336zm-80.59 37.624h-1.48v-7.104c0-1.848-.8-2.784-2.36-2.784-1.22 0-2.37.528-3.4 1.56v8.328h-1.49v-16.176l1.49-.312v6.936c1.17-1.176 2.44-1.752 3.81-1.752 2.16 0 3.43 1.344 3.43 3.768zm4.18-5.448v.12c.07 2.52 1.56 4.248 3.84 4.248 1.2 0 2.25-.312 3.19-.912l.29 1.368c-1.01.624-2.19.936-3.53.936-3.14 0-5.3-2.328-5.3-5.712 0-1.728.5-3.144 1.48-4.248.99-1.104 2.21-1.656 3.7-1.656 2.45 0 4.01 1.584 4.01 4.056 0 .648-.07 1.224-.24 1.752zm.09-1.176 6.1-.024c.02-.072.02-.24.02-.48 0-1.728-.93-2.832-2.64-2.832-1.89 0-3.21 1.416-3.48 3.336zm16.12 4.2v-3.216c-3.69.408-5.11 1.224-5.11 2.736 0 1.152.94 1.92 2.26 1.92 1.05 0 2.01-.48 2.85-1.44zm.1 1.104h-.07c-.89 1.08-1.95 1.632-3.22 1.632-2.01 0-3.48-1.272-3.48-3.048 0-2.352 2.23-3.648 6.67-3.912v-.648c0-1.752-.86-2.616-2.59-2.616-1.15 0-2.59.576-3.6 1.32l-.33-1.392c1.05-.744 2.68-1.32 4.08-1.32 2.64 0 3.96 1.32 3.93 3.936v5.28c0 .864.19 1.128 1.11 1.104l-.1 1.224c-1.42.096-2.23-.432-2.4-1.56zm6.2-5.736v7.056h-1.48v-10.992l1.48-.312v2.352c.8-1.56 1.88-2.352 3.24-2.352.7 0 1.32.168 1.92.504l-.38 1.392c-.53-.312-1.08-.48-1.68-.48-1.22 0-2.26.936-3.1 2.832zm14.23-3.576v-5.544l1.49-.312v16.488h-1.49v-1.032c-.96.888-2.02 1.344-3.19 1.344-2.96 0-4.92-2.328-4.92-5.712 0-1.704.5-3.096 1.53-4.2 1.03-1.08 2.33-1.632 3.91-1.632.92 0 1.8.192 2.67.6zm0 1.584c-.72-.552-1.63-.84-2.74-.84-2.35 0-3.84 1.824-3.84 4.464 0 2.568 1.44 4.368 3.65 4.368 1.08 0 2.06-.408 2.93-1.224v-6.552zm20.38 3.528c0 1.728-.51 3.12-1.54 4.2s-2.3 1.632-3.86 1.632-2.83-.528-3.82-1.584c-.98-1.056-1.49-2.448-1.49-4.2 0-1.728.53-3.144 1.56-4.224 1.04-1.08 2.31-1.608 3.87-1.608s2.83.528 3.81 1.584c.99 1.056 1.47 2.448 1.47 4.2zm-1.47.048c0-2.712-1.53-4.488-3.88-4.488-2.31 0-3.87 1.8-3.87 4.44 0 2.712 1.54 4.488 3.89 4.488 2.3 0 3.86-1.8 3.86-4.44zm9.87-10.752-.07.336c-.07.24-.12.456-.19.672l-.1.336c-.64-.312-1.2-.456-1.68-.456-1.22 0-1.82.864-1.82 2.568v1.824h3.46l-.08 1.32h-3.38v9.624h-1.46v-9.576l-1.78-.12.1-.936 1.65-.384.03-1.728c.04-2.64 1.15-3.96 3.31-3.96.67 0 1.34.168 2.01.48zm8.75 1.608c0 .312-.1.552-.26.768-.17.216-.44.336-.75.336s-.57-.12-.74-.336-.27-.456-.27-.768c0-.288.1-.528.27-.744s.43-.312.74-.312.58.096.75.312c.16.216.26.456.26.744zm-.26 14.616h-1.49v-10.992l1.49-.312zm8.97-.216c-.81.384-1.63.576-2.45.576-2.04 0-3.02-1.152-2.95-3.456l.17-6.504-1.68-.096.07-.936 1.66-.384.07-2.496h1.42l-.08 2.568h3.68l-.08 1.32h-3.64l-.17 6.576c-.05 1.368.48 2.064 1.61 2.064.6 0 1.29-.168 2.11-.528z"/><path d="m21.032 65.12c0-2.184.72-4.152 2.136-5.904 1.416-1.728 3.432-2.904 6.096-3.528l.6 1.872c-3.72.936-5.952 2.808-6.696 5.616l.048.024c1.08-.984 2.352-1.488 3.816-1.488 2.472 0 4.392 1.896 4.392 4.656 0 2.904-2.016 4.992-5.112 4.992-1.656 0-2.928-.6-3.864-1.8-.936-1.176-1.416-2.664-1.416-4.44zm2.088.624c0 2.112 1.296 3.792 3.288 3.792 1.824 0 3.024-1.248 3.024-3.072 0-1.8-1.2-3-2.928-3-1.296 0-2.52.6-3.264 1.272-.072.288-.12.624-.12 1.008zm20.607-.192c0 2.184-.696 4.152-2.112 5.88-1.416 1.752-3.456 2.928-6.12 3.552l-.6-1.872c3.72-.936 5.952-2.808 6.696-5.616l-.048-.024c-1.08.984-2.352 1.488-3.816 1.488-2.472 0-4.392-1.896-4.392-4.656 0-2.904 2.016-4.992 5.112-4.992 1.656 0 2.952.6 3.888 1.776.936 1.2 1.392 2.688 1.392 4.464zm-2.088-.624c0-2.112-1.296-3.792-3.288-3.792-1.824 0-3.024 1.248-3.024 3.072 0 1.8 1.2 3 2.928 3 1.296 0 2.52-.6 3.264-1.272.072-.288.12-.624.12-1.008zm5.6818 3.36c.432 0 .792.144 1.08.432.288.312.432.672.432 1.08s-.144.768-.432 1.08-.648.48-1.08.48c-.456 0-.816-.168-1.104-.48-.312-.312-.456-.672-.456-1.08s.144-.768.456-1.08c.288-.288.648-.432 1.104-.432zm12.7135 2.712h-9.024v-1.704c.336-.264.792-.6 1.392-1.032.6-.408 1.056-.744 1.368-.984s.696-.528 1.152-.888.792-.648 1.056-.888c.24-.24.48-.504.744-.816.264-.288.432-.576.552-.84.096-.264.144-.528.144-.792 0-1.128-.864-1.896-2.28-1.896-1.032 0-2.184.456-3.408 1.368l-.696-1.68c1.296-1.032 2.736-1.536 4.32-1.536 2.472 0 4.152 1.392 4.152 3.504 0 .264-.024.504-.072.744-.072.264-.12.48-.192.696s-.168.432-.336.648c-.168.24-.312.432-.432.6s-.288.36-.552.6c-.264.264-.48.456-.624.576s-.384.312-.72.576c-.36.264-.6.456-.768.576s-.48.336-.888.648c-.432.312-.744.528-.912.648h6.024zm9.1447-11.568c0 2.208-1.56 3.96-3.984 3.96-2.376 0-3.984-1.752-3.984-3.96 0-1.128.36-2.064 1.104-2.856.72-.768 1.68-1.152 2.88-1.152s2.16.384 2.904 1.152c.72.768 1.08 1.728 1.08 2.856zm7.32-3.768-11.952 15.696h-1.512l11.952-15.696zm1.8 11.928c0 1.128-.36 2.064-1.08 2.832-.744.792-1.704 1.176-2.904 1.176s-2.16-.384-2.88-1.152c-.744-.768-1.104-1.728-1.104-2.856 0-2.208 1.584-3.96 3.984-3.96 2.376 0 3.984 1.752 3.984 3.96zm-10.416-8.16c0-.792-.24-1.44-.72-1.968-.504-.528-1.152-.792-1.968-.792s-1.464.264-1.944.792c-.504.528-.744 1.176-.744 1.968 0 .744.24 1.392.744 1.92.48.528 1.128.792 1.944.792s1.464-.264 1.968-.792c.48-.528.72-1.176.72-1.92zm9.12 8.16c0-.744-.24-1.392-.72-1.92-.504-.528-1.152-.792-1.968-.792s-1.464.264-1.944.792c-.504.528-.744 1.176-.744 1.92 0 .792.24 1.44.744 1.968.48.528 1.128.792 1.944.792s1.464-.264 1.968-.792c.48-.528.72-1.176.72-1.968z"/></g><rect fill="#ec8539" fill-opacity=".2" height="15" rx="7.5" width="1186"/><rect fill="#ec8539" height="15" rx="7.5" width="817.252"/><rect fill="#ec8539" fill-opacity=".5" height="15" rx="7.5" width="273.735" x="807"/></svg>
