<svg fill="none" height="287" viewBox="0 0 336 287" width="336" xmlns="http://www.w3.org/2000/svg"><path d="m13.68 9.816-.912 2.544c-1.224-.792-2.52-1.2-3.936-1.2-2.952 0-4.872 2.04-4.872 5.28 0 3.336 1.896 5.4 4.92 5.4 1.44 0 2.808-.456 4.104-1.344l.552 2.688c-1.32.792-2.904 1.176-4.776 1.176-2.328 0-4.2-.696-5.616-2.088s-2.136-3.312-2.136-5.736c0-2.376.72-4.296 2.16-5.736 1.416-1.44 3.312-2.16 5.664-2.16 1.824 0 3.432.384 4.848 1.176zm12.7386 8.64c0 1.776-.552 3.192-1.632 4.272s-2.448 1.632-4.104 1.632-3-.528-4.032-1.584-1.56-2.496-1.56-4.296.552-3.24 1.632-4.32 2.448-1.608 4.104-1.608c3.312 0 5.592 2.28 5.592 5.904zm-5.64 3.6c.888 0 1.584-.336 2.088-.984s.744-1.512.744-2.592-.264-1.968-.768-2.64-1.224-1.008-2.112-1.008c-1.824 0-2.856 1.44-2.856 3.624 0 2.16 1.08 3.6 2.904 3.6zm24.7427 1.944h-2.832v-6.72c0-1.584-.6-2.208-1.824-2.208-.792 0-1.56.336-2.304.984v7.944h-2.832v-6.72c0-1.608-.576-2.208-1.8-2.208-.888 0-1.656.312-2.304.912v8.016h-2.832v-11.016l2.832-.384v1.56c1.056-1.056 2.232-1.584 3.528-1.584 1.464 0 2.472.624 3.024 1.896 1.176-1.272 2.472-1.896 3.936-1.896 2.112 0 3.408 1.416 3.408 3.84zm5.768-10.008c.984-.936 2.016-1.416 3.096-1.416 2.928 0 4.848 2.352 4.848 5.784 0 1.752-.528 3.168-1.608 4.296s-2.4 1.68-3.984 1.68c-.888 0-1.68-.096-2.352-.312v5.256h-2.832v-16.296l2.832-.384zm0 1.872v5.592c.552.408 1.248.624 2.088.624 1.872 0 2.976-1.488 2.976-3.6 0-2.184-1.056-3.528-2.784-3.528-.84 0-1.584.312-2.28.912zm10.2205-2.928h2.832v6.744c0 1.584.624 2.16 1.872 2.16.9359 0 1.752-.312 2.424-.96v-7.944h2.832v10.992l-2.832.384v-1.632c-1.032 1.128-2.256 1.68-3.648 1.68-2.184 0-3.48-1.44-3.48-3.816zm19.4666 10.992c-.84.288-1.704.432-2.568.432-2.544 0-3.768-1.128-3.672-3.744l.168-5.208-1.728-.192.072-1.8 1.728-.552.048-2.448h2.736l-.048 2.592h3.12l-.072 2.328h-3.216l-.144 5.112c-.024 1.008.48 1.512 1.464 1.512.48 0 1.056-.12 1.728-.336zm4.1404-4.92v.072c.12 1.824 1.344 3.024 3.312 3.024 1.224 0 2.376-.336 3.456-1.008l.36 2.352c-1.128.6-2.448.912-4.008.912-3.576 0-5.904-2.256-5.904-5.784 0-1.8.528-3.24 1.608-4.344s2.448-1.656 4.104-1.656c2.904 0 4.56 1.728 4.56 4.488 0 .696-.072 1.32-.24 1.848zm.072-1.656 4.752-.024v-.192c0-1.608-.696-2.424-2.112-2.424-1.488 0-2.472 1.152-2.64 2.64zm12.6005-.192v6.84h-2.832v-10.992l2.832-.408v1.8c.72-1.224 1.68-1.824 2.8797-1.824.744 0 1.416.168 1.968.504l-.624 2.544c-.528-.288-1.056-.432-1.584-.432-1.0317 0-1.9197.648-2.6397 1.968zm21.9157 6.84v-2.568h-6.768v-12.432h-2.928v15zm5.42-14.784c0 1.056-.624 1.704-1.752 1.704-1.104 0-1.728-.648-1.728-1.704 0-1.032.624-1.704 1.728-1.704 1.128 0 1.752.672 1.752 1.704zm-.336 14.784h-2.832v-10.992l2.832-.408zm9.508-.072c-.84.288-1.704.432-2.568.432-2.544 0-3.768-1.128-3.672-3.744l.168-5.208-1.728-.192.072-1.8 1.728-.552.048-2.448h2.736l-.048 2.592h3.12l-.072 2.328h-3.216l-.144 5.112c-.024 1.008.48 1.512 1.464 1.512.48 0 1.056-.12 1.728-.336zm4.14-4.92v.072c.12 1.824 1.344 3.024 3.312 3.024 1.224 0 2.376-.336 3.456-1.008l.36 2.352c-1.128.6-2.448.912-4.008.912-3.576 0-5.904-2.256-5.904-5.784 0-1.8.528-3.24 1.608-4.344s2.448-1.656 4.104-1.656c2.904 0 4.56 1.728 4.56 4.488 0 .696-.072 1.32-.24 1.848zm.072-1.656 4.752-.024v-.192c0-1.608-.696-2.424-2.112-2.424-1.488 0-2.472 1.152-2.64 2.64zm12.601-.192v6.84h-2.832v-10.992l2.832-.408v1.8c.72-1.224 1.68-1.824 2.88-1.824.744 0 1.416.168 1.968.504l-.624 2.544c-.528-.288-1.056-.432-1.584-.432-1.032 0-1.92.648-2.64 1.968zm12.306 5.568h-.096c-.888 1.08-1.944 1.632-3.12 1.632-1.992 0-3.432-1.344-3.432-3.12 0-2.472 2.184-3.792 6.552-3.936v-.264c0-1.512-.624-2.112-2.208-2.112-1.08 0-2.304.384-3.672 1.176l-.576-2.232c1.392-.864 2.928-1.296 4.632-1.296 3.384 0 4.728 1.44 4.656 4.56v3.96c0 .84.12.936.984 1.008l-.216 2.136c-1.896.216-3.048-.288-3.504-1.512zm-.096-1.392v-2.544c-2.76.36-3.768.864-3.768 2.064 0 .864.648 1.44 1.656 1.44.816 0 1.512-.312 2.112-.96zm14.675 2.112c-1.008.6-2.28.912-3.84.912-3.6 0-5.736-2.184-5.736-5.856 0-3.6 2.328-5.928 5.832-5.928 1.488 0 2.76.312 3.816.936l-.6 2.28c-.936-.6-1.944-.888-3-.888-2.016 0-3.144 1.344-3.144 3.528 0 2.256 1.248 3.576 3.144 3.576 1.152 0 2.184-.288 3.072-.864zm12.257-10.512-4.224 10.848-.648 1.728c-1.104 2.952-2.28 3.936-4.392 3.936-.936 0-1.872-.216-2.808-.648l.84-2.328c.744.36 1.32.528 1.752.528.84 0 1.272-.384 1.848-1.872l.48-1.272-4.32-10.92h3.048l2.76 7.92 2.64-7.92z" fill="#fbfbfb"/><rect fill="#ec8539" fill-opacity=".2" height="11" rx="5.5" width="336" y="63"/><rect fill="#ec8539" height="11" rx="5.5" width="209" y="63"/><path d="m12.768 118.016c0 3.432-2.328 5.28-6.408 5.304l-1.704.024v4.656h-2.928v-15h4.848c4.056 0 6.192 1.968 6.192 5.016zm-2.928.096c0-1.776-1.152-2.664-3.456-2.664h-1.776v5.472l1.872-.048c2.232-.048 3.36-.96 3.36-2.76zm15.2978 9.888h-2.832v-6.744c0-1.584-.6-2.184-1.848-2.184-.96 0-1.8.336-2.52 1.032v7.896h-2.832v-16.032l2.832-.384v6.744c1.08-1.176 2.328-1.752 3.744-1.752 2.16 0 3.456 1.44 3.456 3.816zm12.8643-11.064-4.224 10.848-.648 1.728c-1.104 2.952-2.28 3.936-4.392 3.936-.936 0-1.872-.216-2.808-.648l.84-2.328c.744.36 1.32.528 1.752.528.84 0 1.272-.384 1.848-1.872l.48-1.272-4.32-10.92h3.048l2.76 7.92 2.64-7.92zm9.4952 7.848c0 2.112-1.8 3.6-4.608 3.6-1.656 0-3.072-.336-4.296-1.032l.624-2.208c1.224.696 2.472 1.032 3.744 1.032 1.128 0 1.824-.456 1.824-1.224 0-.816-.72-1.128-2.232-1.488-2.376-.552-3.744-1.464-3.744-3.432 0-2.088 1.752-3.456 4.416-3.456 1.536 0 2.88.288 4.032.888l-.624 2.208c-1.176-.6-2.352-.912-3.48-.912-1.104 0-1.656.36-1.656 1.104 0 .768.696 1.056 2.232 1.44 2.424.576 3.768 1.488 3.768 3.48zm5.464-11.568c0 1.056-.624 1.704-1.752 1.704-1.104 0-1.728-.648-1.728-1.704 0-1.032.624-1.704 1.728-1.704 1.128 0 1.752.672 1.752 1.704zm-.336 14.784h-2.832v-10.992l2.832-.408zm11.9553-.552c-1.008.6-2.28.912-3.84.912-3.6 0-5.736-2.184-5.736-5.856 0-3.6 2.328-5.928 5.832-5.928 1.488 0 2.76.312 3.816.936l-.6 2.28c-.936-.6-1.944-.888-3-.888-2.016 0-3.144 1.344-3.144 3.528 0 2.256 1.248 3.576 3.144 3.576 1.152 0 2.184-.288 3.072-.864zm8.2495-.72h-.096c-.888 1.08-1.944 1.632-3.12 1.632-1.992 0-3.432-1.344-3.432-3.12 0-2.472 2.184-3.792 6.552-3.936v-.264c0-1.512-.624-2.112-2.208-2.112-1.08 0-2.304.384-3.672 1.176l-.576-2.232c1.392-.864 2.928-1.296 4.632-1.296 3.384 0 4.728 1.44 4.656 4.56v3.96c0 .84.12.936.984 1.008l-.216 2.136c-1.896.216-3.048-.288-3.504-1.512zm-.096-1.392v-2.544c-2.76.36-3.768.864-3.768 2.064 0 .864.648 1.44 1.656 1.44.816 0 1.512-.312 2.112-.96zm8.5787 2.664v-16.416l-2.832.384v16.032zm16.0963-15h-3.552l-5.472 15h2.952l1.224-3.552h6.048l1.248 3.552h2.9519zm.456 9.024h-4.536l2.28-6.504zm15.4889 5.424c-1.008.6-2.28.912-3.84.912-3.6 0-5.736-2.184-5.736-5.856 0-3.6 2.328-5.928 5.832-5.928 1.488 0 2.76.312 3.816.936l-.6 2.28c-.936-.6-1.944-.888-3-.888-2.016 0-3.144 1.344-3.144 3.528 0 2.256 1.248 3.576 3.144 3.576 1.152 0 2.184-.288 3.072-.864zm8.826.48c-.84.288-1.704.432-2.568.432-2.544 0-3.768-1.128-3.672-3.744l.168-5.208-1.728-.192.072-1.8 1.728-.552.048-2.448h2.736l-.048 2.592h3.12l-.072 2.328h-3.216l-.144 5.112c-.024 1.008.48 1.512 1.464 1.512.48 0 1.056-.12 1.728-.336zm5.289-14.712c0 1.056-.624 1.704-1.752 1.704-1.104 0-1.728-.648-1.728-1.704 0-1.032.624-1.704 1.728-1.704 1.128 0 1.752.672 1.752 1.704zm-.336 14.784h-2.832v-10.992l2.832-.408zm13.011-11.064h-3.048l-2.664 8.088-2.784-8.088h-3.024l4.224 11.088h3.024zm4.645-3.72c0 1.056-.624 1.704-1.752 1.704-1.104 0-1.728-.648-1.728-1.704 0-1.032.624-1.704 1.728-1.704 1.128 0 1.752.672 1.752 1.704zm-.336 14.784h-2.832v-10.992l2.832-.408zm9.508-.072c-.84.288-1.704.432-2.568.432-2.544 0-3.768-1.128-3.672-3.744l.168-5.208-1.728-.192.072-1.8 1.728-.552.048-2.448h2.736l-.048 2.592h3.12l-.072 2.328h-3.216l-.144 5.112c-.024 1.008.48 1.512 1.464 1.512.48 0 1.056-.12 1.728-.336zm12.033-10.992-4.224 10.848-.648 1.728c-1.104 2.952-2.28 3.936-4.392 3.936-.936 0-1.872-.216-2.808-.648l.84-2.328c.744.36 1.32.528 1.752.528.84 0 1.272-.384 1.848-1.872l.48-1.272-4.32-10.92h3.048l2.76 7.92 2.64-7.92z" fill="#fbfbfb"/><rect fill="#ec8539" fill-opacity=".2" height="12" rx="6" width="336" y="166"/><rect fill="#ec8539" height="12" rx="6" width="100.261" y="166"/><path d="m12.504 230.804 4.44 2.064-1.2 2.448-6.552-3.48c-.096 0-.384.024-.48.024-2.28 0-4.128-.696-5.544-2.112-1.44-1.392-2.16-3.288-2.16-5.712 0-2.304.744-4.2 2.208-5.688 1.464-1.464 3.288-2.208 5.52-2.208 2.256 0 4.104.696 5.544 2.088 1.416 1.392 2.136 3.288 2.136 5.712 0 3.048-1.464 5.568-3.912 6.864zm.984-6.768c0-3.312-1.896-5.448-4.824-5.448-2.856 0-4.704 2.136-4.704 5.352 0 3.312 1.872 5.52 4.8 5.52 2.856 0 4.728-2.136 4.728-5.424zm5.3421-3.6h2.832v6.744c0 1.584.624 2.16 1.872 2.16.936 0 1.752-.312 2.424-.96v-7.944h2.832v10.992l-2.832.384v-1.632c-1.032 1.128-2.256 1.68-3.648 1.68-2.184 0-3.48-1.44-3.48-3.816zm18.8906 9.792h-.096c-.888 1.08-1.944 1.632-3.12 1.632-1.992 0-3.432-1.344-3.432-3.12 0-2.472 2.184-3.792 6.552-3.936v-.264c0-1.512-.624-2.112-2.208-2.112-1.08 0-2.304.384-3.672 1.176l-.576-2.232c1.392-.864 2.928-1.296 4.632-1.296 3.384 0 4.728 1.44 4.656 4.56v3.96c0 .84.12.936.984 1.008l-.216 2.136c-1.896.216-3.048-.288-3.504-1.512zm-.096-1.392v-2.544c-2.76.36-3.768.864-3.768 2.064 0 .864.648 1.44 1.656 1.44.816 0 1.512-.312 2.112-.96zm8.5787 2.664v-16.416l-2.832.384v16.032zm6.1954-14.784c0 1.056-.624 1.704-1.752 1.704-1.104 0-1.728-.648-1.728-1.704 0-1.032.624-1.704 1.728-1.704 1.128 0 1.752.672 1.752 1.704zm-.336 14.784h-2.832v-10.992l2.832-.408zm9.5073-.072c-.84.288-1.704.432-2.568.432-2.544 0-3.768-1.128-3.672-3.744l.168-5.208-1.728-.192.072-1.8 1.728-.552.048-2.448h2.736l-.048 2.592h3.12l-.072 2.328h-3.216l-.144 5.112c-.024 1.008.48 1.512 1.464 1.512.48 0 1.056-.12 1.728-.336zm12.0336-10.992-4.224 10.848-.648 1.728c-1.104 2.952-2.28 3.936-4.392 3.936-.936 0-1.872-.216-2.808-.648l.84-2.328c.744.36 1.32.528 1.752.528.84 0 1.272-.384 1.848-1.872l.48-1.272-4.32-10.92h3.048l2.76 7.92 2.64-7.92zm17.5961 5.52c0 1.776-.552 3.192-1.632 4.272s-2.448 1.632-4.104 1.632-3-.528-4.032-1.584-1.56-2.496-1.56-4.296.552-3.24 1.632-4.32 2.448-1.608 4.104-1.608c3.312 0 5.592 2.28 5.592 5.904zm-5.64 3.6c.888 0 1.584-.336 2.088-.984s.744-1.512.744-2.592-.264-1.968-.768-2.64-1.224-1.008-2.112-1.008c-1.824 0-2.856 1.44-2.856 3.624 0 2.16 1.08 3.6 2.904 3.6zm15.1432-14.208-.048.264c-.048.168-.096.36-.144.6-.072.24-.12.48-.192.72s-.12.432-.144.6l-.072.24c-.6725-.312-1.2725-.456-1.8005-.456-1.032 0-1.464.576-1.464 1.968v1.224h3.2885l-.072 2.328h-3.1445v8.664h-2.832v-8.64l-1.92-.144.096-1.8 1.8-.528.024-1.176c.072-2.952 1.392-4.416 4.008-4.416.888 0 1.776.192 2.6165.552zm19.735 16.152v-15h-2.904v6.168h-7.128v-6.168h-2.928v15h2.928v-6.288h7.128v6.288zm5.39-4.992v.072c.12 1.824 1.344 3.024 3.312 3.024 1.224 0 2.376-.336 3.456-1.008l.36 2.352c-1.128.6-2.448.912-4.008.912-3.576 0-5.904-2.256-5.904-5.784 0-1.8.528-3.24 1.608-4.344s2.448-1.656 4.104-1.656c2.904 0 4.56 1.728 4.56 4.488 0 .696-.072 1.32-.24 1.848zm.072-1.656 4.752-.024v-.192c0-1.608-.696-2.424-2.112-2.424-1.488 0-2.472 1.152-2.64 2.64zm15.672 5.376h-.096c-.888 1.08-1.944 1.632-3.12 1.632-1.992 0-3.432-1.344-3.432-3.12 0-2.472 2.184-3.792 6.552-3.936v-.264c0-1.512-.624-2.112-2.208-2.112-1.08 0-2.304.384-3.672 1.176l-.576-2.232c1.392-.864 2.928-1.296 4.632-1.296 3.384 0 4.728 1.44 4.656 4.56v3.96c0 .84.12.936.984 1.008l-.216 2.136c-1.896.216-3.048-.288-3.504-1.512zm-.096-1.392v-2.544c-2.76.36-3.768.864-3.768 2.064 0 .864.648 1.44 1.656 1.44.816 0 1.512-.312 2.112-.96zm8.579 2.664v-16.416l-2.832.384v16.032zm9.507-.072c-.84.288-1.704.432-2.568.432-2.544 0-3.768-1.128-3.672-3.744l.168-5.208-1.728-.192.072-1.8 1.728-.552.048-2.448h2.736l-.048 2.592h3.12l-.072 2.328h-3.216l-.144 5.112c-.024 1.008.48 1.512 1.464 1.512.48 0 1.056-.12 1.728-.336zm12.154.072h-2.832v-6.744c0-1.584-.6-2.184-1.848-2.184-.96 0-1.8.336-2.52 1.032v7.896h-2.832v-16.032l2.832-.384v6.744c1.08-1.176 2.328-1.752 3.744-1.752 2.16 0 3.456 1.44 3.456 3.816z" fill="#fbfbfb"/><rect fill="#ec8539" fill-opacity=".2" height="12" rx="6" width="336" y="271"/><rect fill="#ec8539" height="12" rx="6" width="273.437" y="271"/><g fill="#fbfbfb"><circle cx="209" cy="68.5" r="10"/><circle cx="97.7617" cy="172" r="10"/><circle cx="271.697" cy="277" r="10"/></g></svg>