<?xml version="1.0" encoding="utf-8"?>
<!-- Generator: Adobe Illustrator 25.4.1, SVG Export Plug-In . SVG Version: 6.00 Build 0)  -->
<svg version="1.1" id="Layer_1" xmlns="http://www.w3.org/2000/svg" xmlns:xlink="http://www.w3.org/1999/xlink" x="0px" y="0px"
	 viewBox="0 0 192 192" style="enable-background:new 0 0 192 192;" xml:space="preserve">
<style type="text/css">
	.st0books{fill:none;}
	.svgstroke{stroke-width:12;stroke-linecap:round;stroke-linejoin:round;stroke-miterlimit:3;}
</style>
<rect class="st0books" width="192" height="192"/>
<path class="svgstroke" d="M36,30h24c3.3,0,6,2.7,6,6v120c0,3.3-2.7,6-6,6H36c-3.3,0-6-2.7-6-6V36C30,32.7,32.7,30,36,30z"/>
<line class="svgstroke" x1="30" y1="60" x2="66" y2="60"/>
<path class="svgstroke" d="M72,30h24c3.3,0,6,2.7,6,6v120c0,3.3-2.7,6-6,6H72c-3.3,0-6-2.7-6-6V36C66,32.7,68.7,30,72,30z"/>
<line class="svgstroke" x1="66" y1="132" x2="102" y2="132"/>
<path class="svgstroke" d="M107.8,34.3l23.2-6.2c3.2-0.9,6.5,1,7.3,4.2l31.1,115.9c0.9,3.2-1,6.5-4.2,7.3l-23.2,6.2
	c-3.2,0.9-6.5-1-7.3-4.2L103.6,41.6C102.7,38.4,104.6,35.1,107.8,34.3z"/>
<line class="svgstroke" x1="128.4" y1="134.4" x2="163.2" y2="125.1"/>
<line class="svgstroke" x1="109.8" y1="64.8" x2="144.6" y2="55.5"/>
</svg>
