<svg viewBox="0 0 491.14 157.14" xmlns="http://www.w3.org/2000/svg"><g fill="#fff"><path d="m184.94 156.73c-2.82 0-5.64 0-8.46 0a4.2 4.2 0 0 1 -3.3-1.43c-3.5-3.58-7.08-7.11-10.63-10.63l-6.6-6.56-23-22.93c-.45-.44-.89-.88-1.38-1.28a3.31 3.31 0 0 0 -4.88.12c-1 .92-2 1.89-3 2.87q-8.48 8.4-16.93 16.82l-20.5 20.42a18.52 18.52 0 0 0 -1.31 1.35 3.46 3.46 0 0 1 -2.81 1.25c-2.93 0-5.83 0-8.74 0s-5.9 0-8.84 0a3.46 3.46 0 0 1 -3.62-3.65c0-5.76 0-11.53 0-17.29a3.55 3.55 0 0 1 1.31-3 8.82 8.82 0 0 0 .84-.77l40.58-40.51a4 4 0 0 0 1.29-2.14 3.52 3.52 0 0 0 -1.09-3.24c-2.35-2.35-4.68-4.71-7-7.07l-24.19-24.2-8.55-8.59c-.58-.58-1.17-1.13-1.77-1.67a3.52 3.52 0 0 1 -1.22-2.74v-17.57a3.37 3.37 0 0 1 3.69-3.67h17.17a3.79 3.79 0 0 1 3.16 1.38c.28.33.59.65.9 1l40.29 40.25c.22.22.45.44.69.64a3.39 3.39 0 0 0 4.4-.11 8.38 8.38 0 0 0 .6-.59l32.32-32.29 7.38-7.37c.54-.53 1.06-1.07 1.55-1.64a3.53 3.53 0 0 1 2.71-1.25h17.76a3.29 3.29 0 0 1 3.42 3.16 1.4 1.4 0 0 1 0 .29v17.91a3.54 3.54 0 0 1 -1.13 2.59l-19.92 19.88-12.67 12.71-8.72 8.72a5.53 5.53 0 0 0 -.58.61 3.4 3.4 0 0 0 .12 4.6c.85.91 1.75 1.79 2.64 2.68q14.08 14.09 28.17 28.21l9.82 9.84a9.29 9.29 0 0 0 1.05.94 3.33 3.33 0 0 1 1.4 2.83v17.39a5.08 5.08 0 0 1 -.05 1 3.24 3.24 0 0 1 -3.25 2.71c-2.16 0-4.32 0-6.48 0h-2.64z"/><path d="m234.47 157.11v-154.31h1 52.17 4.13a52 52 0 0 1 31.42 11.58 55.33 55.33 0 0 1 14.15 17.47 48.75 48.75 0 0 1 5.62 18.45c.52 5.25.71 10.5.76 15.76.05 5.54.14 11.09.1 16.63q-.07 9-.39 18a96.56 96.56 0 0 1 -1.43 14.08 40.42 40.42 0 0 1 -4.12 11.93 59.69 59.69 0 0 1 -12.88 16.61 54.74 54.74 0 0 1 -26 12.82 52.42 52.42 0 0 1 -12.05 1zm23.53-132.17v109.93h.81 27.19a46.71 46.71 0 0 0 11-1.31 29.87 29.87 0 0 0 22.43-25.94c.34-4 .64-8.06.71-12.09.18-10.71.25-21.42-.08-32.13a95.3 95.3 0 0 0 -1-11.69 27.86 27.86 0 0 0 -4.19-11.46 60.54 60.54 0 0 0 -4.07-5.4 26.29 26.29 0 0 0 -11.92-8.19 38.33 38.33 0 0 0 -11.94-1.75c-9.31 0-18.61 0-27.92 0z"/><path d="m491.14 157.06h-24.76q-5.86-17.19-11.76-34.38h-58.46q-6 17.17-12 34.38h-24.74q28-77.2 55.91-154.27h19.73zm-43.32-55.32c-.1-.36-.17-.66-.27-.95l-4.24-12.79q-8.71-26.32-17.44-52.65c-.11-.31 0-.83-.57-.83s-.46.54-.57.86q-6.12 18.43-12.21 36.88l-9.37 28.33c-.12.37-.22.75-.35 1.17z"/><path d="m0 2.79h23.21c.21.69.28 152.76.09 154.15-.68.18-22.09.23-23.3 0z"/><path d="m146.43 17.44a3.34 3.34 0 0 1 -1.07 2.37l-4 4-9.56 9.58a3.54 3.54 0 0 1 -3.49 1.13 4 4 0 0 1 -1.88-1.17l-9-9-4.43-4.44a3.38 3.38 0 0 1 0-5.15q6.72-6.76 13.48-13.5a3.43 3.43 0 0 1 5.28 0q6.8 6.76 13.56 13.54a3.53 3.53 0 0 1 1.11 2.67z"/></g><path d="m85.65 23.9v18a3.28 3.28 0 0 1 -3.28 3.28h-18a3.28 3.28 0 0 1 -3.28-3.28v-18a3.28 3.28 0 0 1 3.28-3.28h18a3.28 3.28 0 0 1 3.28 3.28z" fill="#66b933"/><path d="m197.37 23.9v18a3.28 3.28 0 0 1 -3.28 3.28h-18a3.28 3.28 0 0 1 -3.28-3.28v-18a3.28 3.28 0 0 1 3.28-3.28h18a3.28 3.28 0 0 1 3.28 3.28z" fill="#66b933"/><path d="m197.37 135.49v18a3.28 3.28 0 0 1 -3.28 3.28h-18a3.28 3.28 0 0 1 -3.28-3.28v-18a3.28 3.28 0 0 1 3.28-3.28h18a3.28 3.28 0 0 1 3.28 3.28z" fill="#66b933"/><path d="m85.44 135.49v18a3.28 3.28 0 0 1 -3.28 3.28h-18a3.28 3.28 0 0 1 -3.28-3.28v-18a3.28 3.28 0 0 1 3.28-3.28h18a3.28 3.28 0 0 1 3.28 3.28z" fill="#66b933"/></svg>