<?xml version="1.0" encoding="utf-8"?>
<!-- Generator: Adobe Illustrator 25.4.1, SVG Export Plug-In . SVG Version: 6.00 Build 0)  -->
<svg version="1.1" id="Layer_1" xmlns="http://www.w3.org/2000/svg" xmlns:xlink="http://www.w3.org/1999/xlink" x="0px" y="0px"
	 viewBox="0 0 600 374.3" style="enable-background:new 0 0 600 374.3;" xml:space="preserve">
<style type="text/css">
	.st0{fill:#111115;}
</style>
<g>
	<path class="st0" d="M412.5,2.5c1.6-1.6,3.8-2.5,6.1-2.5H527c4.8,0,8.8,3.9,8.8,8.8c0,2.7-1.3,5.3-3.4,7L373.2,154.2
		c-3.4,3.4-9,3.4-12.4,0c-0.1-0.1-0.2-0.2-0.3-0.3l-54.2-47.2c-3.2-3.6-3-9.1,0.6-12.4c0.1-0.1,0.2-0.2,0.3-0.2L412.5,2.5z"/>
	<path class="st0" d="M412.5,371.8c1.6,1.6,3.8,2.5,6.1,2.5H527c4.8,0,8.8-3.9,8.8-8.8c0-2.7-1.3-5.3-3.4-7L373.2,220
		c-3.4-3.4-9-3.4-12.4,0c-0.1,0.1-0.2,0.2-0.3,0.3l-54.2,47.2c-3.2,3.6-3,9.1,0.6,12.4c0.1,0.1,0.2,0.2,0.3,0.2L412.5,371.8
		L412.5,371.8z"/>
	<path class="st0" d="M123.2,372c-1.6,1.5-3.7,2.3-5.9,2.3H8.8c-4.8,0-8.8-3.9-8.8-8.7c0-2.3,0.9-4.6,2.6-6.2l190.2-165.5
		c3.7-3.1,4.2-8.6,1.1-12.3c-0.2-0.3-0.5-0.5-0.8-0.8L3.1,15.4c-3.7-3.1-4.1-8.7-1-12.3C3.7,1.1,6.2,0,8.7,0h108.5
		c2.2,0,4.3,0.8,5.9,2.3l204.7,178.2c3.7,3.2,4.1,8.7,0.9,12.3c-0.3,0.3-0.6,0.6-0.9,0.9L123.2,372z"/>
	<path class="st0" d="M550.4,349.1h-7.2c-1.3,0-2.4-1.1-2.4-2.4c0-1.3,1.1-2.4,2.4-2.4c0,0,0,0,0,0H563c1.3,0,2.4,1.1,2.4,2.4
		c0,1.3-1.1,2.4-2.4,2.4h-7.3v22.6c-0.1,1.5-1.3,2.6-2.8,2.5c-1.3-0.1-2.4-1.1-2.5-2.5L550.4,349.1L550.4,349.1z"/>
	<path class="st0" d="M570.7,346.7c0-1.5,1.2-2.6,2.6-2.6c0,0,0,0,0,0h0.5c1,0,1.9,0.5,2.4,1.4l9,14.1l9.1-14.2
		c0.5-0.9,1.4-1.4,2.4-1.4h0.6c1.4,0,2.6,1.2,2.6,2.6c0,0,0,0,0,0v25c0,1.4-1.1,2.6-2.6,2.6c0,0,0,0-0.1,0c-1.4,0-2.6-1.2-2.6-2.6
		v-17.9l-7.3,11c-0.6,1.2-2.1,1.7-3.3,1.1c-0.5-0.2-0.9-0.6-1.1-1.1l-7.2-10.9v17.9c0,1.4-1.1,2.5-2.5,2.6c0,0,0,0-0.1,0
		c-1.4,0-2.5-1.1-2.6-2.5c0,0,0-0.1,0-0.1L570.7,346.7L570.7,346.7z"/>
</g>
</svg>
