<?xml version="1.0" encoding="utf-8"?>
<!-- Generator: Adobe Illustrator 25.4.1, SVG Export Plug-In . SVG Version: 6.00 Build 0)  -->
<svg version="1.1" id="Layer_1" xmlns="http://www.w3.org/2000/svg" xmlns:xlink="http://www.w3.org/1999/xlink" x="0px" y="0px"
	 viewBox="0 0 500 500" style="enable-background:new 0 0 500 500;" xml:space="preserve">
<g id="ed50360b-5309-420f-a87e-c406fbd284a6">
	<g id="acc2662a-5a00-430e-9ab4-5dba253d7c82">
		<path class="svgtext" d="M495.3,250.1c0-32.5-40.7-63.3-103.1-82.4c14.4-63.6,8-114.2-20.2-130.4c-6.8-3.8-14.6-5.8-22.4-5.6V54
			c4-0.1,7.9,0.8,11.4,2.6c13.6,7.8,19.5,37.5,14.9,75.7c-1.1,9.4-2.9,19.3-5.1,29.4c-20.9-5-42.1-8.7-63.5-10.9
			c-12.7-17.6-26.6-34.3-41.6-50c32.6-30.3,63.2-46.9,84-46.9V31.6l0,0c-27.5,0-63.5,19.6-99.9,53.6C213.4,51.4,177.4,32,149.9,32
			v22.3c20.7,0,51.4,16.5,84,46.6c-14.9,15.7-28.7,32.3-41.3,49.9c-21.4,2.2-42.7,5.9-63.6,11c-2.3-10-4-19.7-5.2-29
			c-4.7-38.2,1.1-67.9,14.6-75.8c3-1.8,6.9-2.6,11.5-2.6V32.1l0,0c-7.9-0.2-15.7,1.8-22.6,5.6c-28.1,16.2-34.4,66.7-19.9,130.1
			C45.2,186.9,4.7,217.7,4.7,250.1s40.7,63.3,103.1,82.4c-14.4,63.6-8,114.2,20.2,130.4c6.5,3.8,14.1,5.6,22.5,5.6
			c27.5,0,63.5-19.6,99.9-53.6c36.4,33.8,72.4,53.2,99.9,53.2c7.9,0.2,15.7-1.8,22.6-5.6c28.1-16.2,34.4-66.7,19.9-130.1
			C454.8,313.2,495.3,282.5,495.3,250.1z M365.1,183.4c-3.7,12.9-8.3,26.2-13.5,39.5c-4.1-8-8.4-16-13.1-24s-9.5-15.8-14.4-23.4
			C338.3,177.6,352,180.2,365.1,183.4z M319.3,289.8c-7.8,13.5-15.8,26.3-24.1,38.2c-14.9,1.3-30,2-45.2,2c-15.2,0-30.2-0.7-45-1.9
			c-8.3-11.9-16.4-24.6-24.2-38c-7.6-13.1-14.5-26.3-20.8-39.8c6.2-13.4,13.2-26.8,20.7-39.9c7.8-13.5,15.8-26.3,24.1-38.2
			c14.9-1.3,30-2,45.2-2c15.2,0,30.2,0.7,45,1.9c8.3,11.9,16.4,24.6,24.2,38c7.6,13.1,14.5,26.4,20.8,39.8
			C333.7,263.4,326.8,276.8,319.3,289.8z M351.6,276.8c5.4,13.4,10,26.8,13.8,39.8c-13.1,3.2-26.9,5.9-41.2,8
			c4.9-7.7,9.8-15.6,14.4-23.7C343.2,292.8,347.5,284.9,351.6,276.8L351.6,276.8z M250.2,383.5c-9.8-10.2-19.1-20.9-27.8-32
			c9,0.4,18.2,0.7,27.5,0.7c9.3,0,18.7-0.2,27.8-0.7C269.1,362.7,259.9,373.4,250.2,383.5z M175.8,324.7c-14.2-2.1-27.9-4.7-41-7.9
			c3.7-12.9,8.3-26.2,13.5-39.5c4.1,8,8.4,16,13.1,24S170.9,317,175.8,324.7z M249.7,116.6c9.8,10.2,19.1,20.9,27.8,32
			c-9-0.4-18.2-0.7-27.5-0.7s-18.7,0.2-27.8,0.7C230.8,137.4,240,126.7,249.7,116.6z M175.7,175.4c-4.9,7.7-9.8,15.6-14.4,23.7
			s-8.9,16-13,24c-5.4-13.4-10-26.8-13.8-39.8C147.6,180.2,161.4,177.6,175.7,175.4z M85.2,300.7c-35.4-15.1-58.3-34.9-58.3-50.6
			s22.9-35.6,58.3-50.6c8.6-3.7,18-7,27.7-10.1c6.1,20.8,13.6,41.1,22.5,60.9c-8.8,19.7-16.2,39.9-22.2,60.6
			C103.3,307.8,93.9,304.3,85.2,300.7z M139,443.5c-13.6-7.8-19.5-37.5-14.9-75.7c1.1-9.4,2.9-19.3,5.1-29.4
			c20.9,5,42.1,8.7,63.5,10.9c12.7,17.6,26.6,34.3,41.6,50c-32.6,30.3-63.2,46.9-84,46.9C146.4,446.3,142.5,445.4,139,443.5z
			 M376.2,367.3c4.7,38.2-1.1,67.9-14.6,75.8c-3,1.8-6.9,2.6-11.5,2.6c-20.7,0-51.4-16.5-84-46.6c14.9-15.7,28.7-32.3,41.3-49.9
			c21.4-2.2,42.7-5.9,63.6-11C373.2,347.9,375,357.6,376.2,367.3z M414.7,300.7c-8.6,3.7-18,7-27.7,10.1
			c-6.1-20.8-13.6-41.1-22.5-60.9c8.8-19.7,16.2-39.9,22.2-60.6c9.9,3.1,19.3,6.5,28.1,10.2c35.4,15.1,58.3,34.9,58.3,50.6
			S450.1,285.7,414.7,300.7z"/>
		<circle class="svgtext" cx="249.9" cy="250.1" r="45.7"/>
	</g>
</g>
</svg>
