<svg enable-background="new 0 0 535.5 521.2" viewBox="0 0 535.5 521.2" xmlns="http://www.w3.org/2000/svg"><g fill="#fff"><path d="m284.8 211.8c1.4.1 2.7-.1 4-.6 23.3-6.9 47.2-7.9 71.2-6.1s47.3 6.8 70.6 12.7c9.7 2.4 13.9 7.9 7 17.8-1.3 1.9-2.4 4-3.6 6-.9 1.3-1.9 2.5-2.7 3.8-10.1 15.2-21.5 29.6-34 43-16.5 17.6-34.6 33-56.1 44.3-21.9 11.5-44.9 17.2-69.8 14.2-12.7-1.6-24.6-5.8-36.2-11-2.8-2.1-6-3.8-9.3-4.9-1.3-1.1-2.8-2.1-4.2-3.1-2.6-1.5-4.8-4.8-7.9-4.3s-4.9 3.6-7.2 5.8c-36.2 34.4-58.8 76.4-70.4 124.7-.8 3.1-2 6.3-1.1 9.7l.1-.3c-1.6.3-1.7 2.5-3.4 2.5h-11.5c-3.4-2-1.9-6.2-4-8.8.3-2.8-.7-5.4-1.2-8-7.6-35.9-12.5-72.1-12.8-108.9-.3-36.1 3.5-71.6 15.9-105.7 2.2-6.2 2.2-11.8 1.5-18.1-7.5-62.2 14.7-111 67.3-145.3 23.8-15.5 50.4-24.4 77.9-30.5 29.2-6.4 58.8-9.2 88.7-9.9 7.7-.2 11.2 3.9 9.8 11.4-.9 4.6-2.9 8.9-3.4 13.5-1.4 2-1.8 4.3-2.5 6.5-8.3 25.5-18.8 50.3-31.4 74-13.3 24.7-28.9 47.6-49.1 67.2-15.5 15.1-33 27.2-53.6 34.4-27.2 9.5-54.3 8.4-81.4-.3-5.5-1.8-5.4-3.1-8 4.1-10.3 29.8-14.2 60.6-14.7 91.8-.5 29.3 2.4 58.3 7 87.2.2 1.4.3 2.9 1.8 4.1 1.4-3.4 2.6-6.5 2.9-9.8 1.4-1.2 1.8-3 2.4-4.6 15.6-38.9 38.3-72.8 70.2-100.3 2.4-2 4-4.8 4.4-7.9 2.5-16 8.3-31.3 17.1-44.9 2.2-3.4 5.1-6.3 6.8-10.1 1.5-1.5 3.2-2.9 4.6-4.4 11.5-12.2 25.6-21.6 41.2-27.7 2.4-.7 4.8-1.8 7.1-3.2zm-45.8 73.3c2.4-1.2 4.8-2.5 7.3-3.7 5.6-2.8 11.1-5.8 17-7.8 4.3-1.4 9 .9 10.4 5.2 1.2 3.6-.2 7.5-3.4 9.5-1.5.9-3.1 1.7-4.7 2.3-10.7 4.7-21 10.3-30.7 16.7-2.1 1.4-4.3 2.5-6.1 4.9 14.3 9.7 29.5 16.1 46.5 18 23.7 2.6 45.1-4.1 65-16.2 31.2-19 54.9-45.6 75.3-75.4 1.6-1.6 2.8-3.6 3.5-5.8-1.1-1.3-2.5-1.4-3.8-1.7-22.5-5.5-45.3-9.4-68.5-10.1-19.8-.6-39.3 1.1-58.1 7.7-28.2 9.9-48.3 28.4-59 56.5-.7 1.9-1.9 3.7-1.1 6.3zm102-228.2c1.4-1.3 1.5-3.2 2-4.8 1.2-3.9.9-4.3-3.4-4.1-24 1.2-47.8 3.8-71.2 9-26.8 6-52.5 14.8-75.5 30.2-33 22-52.6 52.4-57.2 92-.8 5.3-.9 10.7-.5 16 .7.2 1.4 0 1.8-.7.6-.9 1.7-1.7 1.7-3l4.7-6.6c9.3-13.1 20.2-24.7 33.4-34 3.6-2.6 7.4-5.2 11.6-6.7 4.5-1.5 9.3.9 10.8 5.4 1.1 3.2.2 6.7-2.3 9-1.2 1-2.5 1.8-3.9 2.6-21.9 13.8-36.9 33.7-48.7 56.3-1.2 2.4-.6 3.4 1.9 4.2 29.2 9.4 57.9 8.9 85.6-5.3 20.1-10.3 36.2-25.5 50.2-42.9 22.2-27.8 38-59.2 50.9-92.1 3-8.2 6.4-16.1 8.1-24.5z"/><path d="m55.9 381.3c1 3.9 3.9 6.7 6.2 9.7 5.6 7.5 11.6 14.6 18 21.4 3.2 3.3 4.3 6.8 2.4 11.1-5.6 5.7-9.5 5.7-15.1-.3-33.3-36.1-55-78.3-63.3-126.7-12-70.2 2.2-135 44.4-192.5 43.3-59.1 102-93 174.9-102.1 7.9-1 15.9-1.4 23.9-1.7 1.6-.1 3.1-.1 4.7 0 3.5.5 6.3 2.2 7.4 5.7 1.3 3.2.1 6.9-2.8 8.7-.4.4-.8.8-1.2 1.3-1.5-.6-2.2 1.3-3.7 1.1-8.1-1.3-16.2 0-24.3.8-9.6.9-19.3 2-28.5 5.1-18.8 4.1-36.9 10.7-54 19.5-13.8 7.1-27 15.2-38.8 25.3-.6-.1-.9.2-.9.8l-.2.1c-.5-.1-1.1.2-1.2.8v.2c-1.9.8-3.5 2.2-4.7 3.9-.4-.1-.9.1-1 .5v.3l-.2.2c-.6 0-1 .4-1.1.9v.1l-.1.1c-.6 0-1.1.4-1.2 1-.7 0-1.2.5-1.3 1.1-6.4 5.2-12.3 11-17.4 17.5-.6.1-1.1.6-1.1 1.2l-.1.1c-.6 0-1 .4-1 1v.1l-.1.1c-.5 0-.9.4-.9.9v.1l-.2.2c-.6 0-.8.3-.8.8-1.3.8-2.3 2-2.8 3.5-.6.1-1 .7-1 1.3l-.1.1c-.5 0-.8.4-.8.9v.1c-.9.4-1.5 1.2-1.7 2.2-.6.2-1.1.7-1.1 1.4-.6.2-1.1.7-1.1 1.4-.5.1-.9.3-.8.9-2.6 2.7-4.7 5.8-6.4 9.1-.6.2-1.1.8-1 1.4l-.1.1c-.4 0-.8.4-.7.8v.2c-5.4 7-9.5 14.7-13.4 22.5-3.5 7.1-7.3 14.1-9.3 21.9-.8.5-1.2 1.5-1 2.4-1.9 3.5-3.1 7.3-3.8 11.3-.8.7-1.2 1.7-.9 2.7-.3.2-.4.6-.2.9-.8.6-1.1 1.6-.9 2.6l-.4 1.9c-.8.7-1.2 1.8-.9 2.8-.4 1.3-1 2.5-1.3 3.9-6.6 27.3-8.2 55.5-4.9 83.4 3.8 32.7 14.5 64.3 31.4 92.5.6 1.1.8 2.7 2.6 2.7v-.1c-.5 1.3 0 2 1.2 2.4v-.1c0 2.4 1.4 3.4 2.7 4.5z"/><path d="m131.8 466c-.4.4-.8.8-1.1 1.2-3.4-.8-7.2 1.2-10.4-1.2z"/><path d="m486.7 254.7c.1-35.5-6.5-66.9-19.5-97-.5-1.1-.9-2.1-1.3-3.3-1.2-4.5.7-8.5 4.6-10.2s8.5-.1 10.5 3.8c1.3 2.4 2.4 4.9 3.4 7.4 14.4 35.1 21.1 71.8 18.7 109.6-4.1 66-29.9 122.3-77.5 168.3-35.6 34.4-77.8 56.2-126.3 65.6-39.5 7.7-78.7 5.8-117.4-5.2-1.5-.4-3-.9-4.4-1.6-4-2.1-5.6-7-3.5-11.1 1.5-3 4.7-4.7 8.1-4.4 2.1.3 4.2.7 6.3 1.4 63.7 16.9 124.7 10.1 181.5-23.6 64.9-38.4 102.9-95.9 114.6-170.5 1.5-9.5 2.2-19.3 2.2-29.2z"/><path d="m441.3 90.7c2.2-.1 4.3.8 5.7 2.5 3.2 3.4 6.1 7.1 8.5 11.1 2.1 3.7 1.1 7.6-2.3 10.4-3 2.5-7.3 2.4-10.2-.2-3.7-3.4-6.8-7.5-9.2-11.9-2.1-4-.5-8.9 3.5-10.9 1.2-.8 2.6-1.1 4-1z"/><path d="m395.5 47.6c1.8-.1 3.6.4 5.1 1.3 3.8 2.4 7.3 5.2 10.5 8.3 2.9 2.8 3.2 7.4.8 10.6-2.3 3.4-6.8 4.4-10.4 2.4-4.2-2.4-8.1-5.4-11.5-8.9-2.5-2.4-3-6.1-1.3-9.2 1.2-2.6 3.8-4.4 6.8-4.5z"/><path d="m27.7 181.5c.3 1 0 2.1-.9 2.7-.3-1 .1-2 .9-2.7z"/><path d="m26.6 185.2c.2 1-.1 2-.9 2.6-.2-1 .1-2 .9-2.6z"/><path d="m32.5 167.8c.2.9-.2 1.9-1 2.4-.2-.9.2-1.9 1-2.4z"/><path d="m25.3 189.6c.1 1.1.1 2.1-.9 2.8-.2-1 .1-2.1.9-2.8z"/><path d="m76.9 95.3c-.1.6-.5 1.1-1.1 1.2 0-.6.5-1.1 1.1-1.2z"/><path d="m95.6 76.7c-.2.6-.7 1-1.3 1.1.1-.7.6-1.2 1.3-1.1z"/><path d="m56.9 120.8c0 .6-.4 1.2-1 1.4 0-.6.4-1.2 1-1.4z"/><path d="m55.9 122.4c-.2.3-.5.7-.7 1-.1-.4.1-.8.5-1z"/><path d="m75.7 96.6-1 1.1c-.1-.5.3-1.1.9-1.1z"/><path d="m73.5 99.2c-.2.3-.5.6-.8.8-.1-.5.2-.8.8-.8z"/><path d="m98 74.5-1.1 1c0-.5.5-1 1.1-1-.1 0 0 0 0 0z"/><path d="m99.1 73.5-1 .8c0-.4.3-.8.7-.9.1.1.2.1.3.1z"/><path d="m64.1 110.8-.8.9c-.1-.6.2-.9.8-.9z"/><path d="m105 68.7-1.2 1c0-.6.4-1 1-1 0-.1.1 0 .2 0z"/><path d="m66.3 108c-.1.6-.5 1.2-1.1 1.4 0-.7.5-1.2 1.1-1.4z"/><path d="m106.1 67.8-.9.8c0-.6.3-.9.9-.8z"/><path d="m69.9 103.5-1 1.3c-.1-.7.4-1.2 1-1.3z"/><path d="m68.8 104.9-.8 1c-.1-.5.2-.9.7-1z"/><path d="m74.6 97.9-.9 1.1c-.1-.5.3-1 .8-1.1z"/><path d="m96.8 75.6c-.2.5-.6.9-1.2 1 .1-.6.6-1 1.2-1z"/></g></svg>