<svg enable-background="new 0 0 1000 1000" viewBox="0 0 1000 1000" xmlns="http://www.w3.org/2000/svg"><g opacity=".25"><path d="m782.2 530.4c-4.9-77.1-20.8-129.1-86.7-177.1 7.9-21.6 12.3-44.8 12.3-69.1 0-110.5-89.9-200.4-200.4-200.4-110.5 0-200.4 89.9-200.4 200.4s89.9 200.4 200.4 200.4c72.9 0 136.9-39.2 171.9-97.6 46 34.9 61.5 70.6 66.2 146.5 0 .5.1 1.1.2 1.7.6 4.1.6 9.7.6 14.6v71c-25.7-28.3-62.7-46.1-103.9-46.1-77.5 0-140.6 63.1-140.6 140.6 0 41.2 17.9 78.1 46.1 103.9h-176.5c-41.1 0-74.4-31.7-74.4-70.8 5.5 0 9.2-2.8 9.2-6.4v-4.6c1.8-3.7 2.8-10.1 3.7-13.8 1.8-9.2 2.8-18.4 2.8-27.6v-66.2c.9-13.8-3.7-25.7-10.1-35.8-2.8-5.5-4.6-11-4.6-17.5v-30.3c0-3.7-2.8-6.4-6.4-6.4h-24.8c-3.7 0-6.4 2.8-6.4 6.4v30.3c0 6.4-1.8 11.9-4.6 17.5-6.4 11-11 23-11 34.9v66.1c0 9.2.9 18.4 2.8 27.6.9 3.7 1.8 10.1 3.7 13.8v5.5c0 3.7 4.6 6.4 9.2 6.4 0 59.3 49.9 107.5 111.2 107.5h271.1c77.5 0 140.6-63.1 140.6-140.6v-165.4c-.3-5.7-.3-12.7-1.2-19.4zm-274.8-82.6c-90.2 0-163.6-73.4-163.6-163.6s73.4-163.6 163.6-163.6 163.6 73.3 163.6 163.6-73.4 163.6-163.6 163.6zm135.1 371.3c-57.3 0-103.9-46.6-103.9-103.9s46.6-103.9 103.9-103.9 103.9 46.7 103.9 103.9-46.6 103.9-103.9 103.9z"/><path d="m273 478.1c-.9 0-1.8.9-1.8 1.8v39.5c0 .9.9 1.8 1.8 1.8h12.9c.9 0 1.8-.9 1.8-1.8v-39.5s-.9-1.8-1.8-1.8z"/><path d="m287.7 473.5c2.8-13.8 0-22.1-8.3-26.7-8.3 6.4-11 14.7-8.3 26.7z"/><path d="m507.4 296.1c6.4 0 11.9-5.5 11.9-11.9s-5.5-11.9-11.9-11.9-11.9 5.5-11.9 11.9c-.1 6.4 5.5 11.9 11.9 11.9z"/><path d="m605.4 174.8-136.9 66.2c-3.2 1.5-5.2 4.7-5.2 8.3v69.9c0 5.1 4.1 9.2 9.2 9.2h69.9c3.5 0 6.7-2 8.2-5.1l67.1-136c1.7-3.5 1.1-7.8-1.7-10.5-2.8-3-7-3.7-10.6-2zm-68.8 135.1h-54.9v-54.9l107.7-52z"/></g><path d="m636.9 1000h-273.5c-200.3 0-363.3-160.3-363.3-357.3v-285.4c0-197 163-357.3 363.3-357.3h273.5c200.3 0 363.2 160.3 363.2 357.3v285.3c0 197.1-162.9 357.4-363.2 357.4zm-273.5-965.7c-181.1 0-328.4 144.9-328.4 323v285.3c0 178.1 147.3 323 328.4 323h273.5c181.1 0 328.4-144.9 328.4-323v-285.3c0-178.1-147.3-323.1-328.4-323.1h-273.5z" opacity=".25"/></svg>