<?xml version="1.0" encoding="UTF-8"?><svg id="Layer_2" xmlns="http://www.w3.org/2000/svg" viewBox="0 0 564.83 540.03"><defs><style>.cls-1{fill:#111115;}</style></defs><g id="Layer_1-2"><path class="cls-1" d="m270.32,65.26c2.28,4.03,4.57,8.06,6.85,12.09-.56,1.67.56,2.39,1.74,3.09-.27,2.31,1.74,3.82,2.07,5.92-.24.76.06,1.19.83,1.34.48,1.83.96,3.66,1.44,5.49.63,3.05,1.25,6.11,1.88,9.16,3.52,5.22,1.71,11.37,2.99,16.99-.53,1.85.3,3.1,1.81,4.05l.19,6.95c-.45,1.65.76,2.28,1.83,3.01-.23,5.17-.77,10.05,1.85,15.28,1.44,2.85-.37,7.73-.92,11.63-.77,5.43-1.71,10.73-.65,16.22.46,2.36-2.32,4.21-1.5,6.77-1.73,2.57-.61,5.38-.67,8.08-4.01,11.32-1.87,23.85-6.88,34.98-.02,1.34-.04,2.67-.05,4.01.02.34.03.68.05,1.01-.8,1.21-1.71,2.38-1.12,3.98.19,4.04-1.5,7.58-3.05,11.15-.71,1.63-1.85,3.12-1.36,5.06-2.33,1.29-2.74,3.4-2.49,5.79-.08.33-.15.66-.23.98-1.18,1.07-1.9,2.38-2.04,3.98-1.56,1.37-2.28,3.02-1.7,5.11-1.68,1.22-1.74,3.13-2.08,4.92-2.58,6.66-5.14,13.33-7.74,19.99-.29.75-.96,1.39-1.09,2.15-.41,2.24-1.33,5.09.38,6.56,1.49,1.28,4.1.21,5.99-.93,7.12-4.32,14.22-8.67,21.33-13.02.76.28.87-.12.77-.74,1.41-1.4,2.81-2.8,4.22-4.21.69.15,1-.05.72-.79.09-.33.19-.66.28-.99.59-.08,1.07-.25.74-1.01.74-4.34,1.49-8.68,2.23-13.02,1.27-.25,1.01-1.14.85-2,1.54-4.53,2.43-9.16,2.26-13.96.99-1.55,2.07-3.09.96-5.04-.67-1.85,1.17-3.22.96-4.98.4-.19.95-.29.55-.95,1.61-4.61,1.87-9.66,4.48-13.96.6-.12,1.01-.36.71-1.07.07-.67.15-1.35.22-2.02,1.27-.25.99-1.15.84-1.99.07-.32.13-.65.2-.97.54-.13.95-.34.77-1.01,2.1-5.32,4.21-10.65,6.31-15.97,1.08-.38.87-1.22.72-2.04.08-.33.16-.65.24-.98,1.07-1.13,1.82-2.4,1.76-4.02.15-.28.22-.58.22-.89,1.28-.63,1.94-1.66,2.01-3.08.66-1.64,1.33-3.28,1.99-4.92.56-.14,1.01-.37.8-1.09.09-.32.17-.65.26-.97.54-.15.99-.35.62-1.04.44-1.31.87-2.61,1.31-3.92,1.36-.55,1.97-1.61,2.06-3.02l-.03.03c1.87-.75,2.01-2.36,2.02-4.04l-.03.03c.55-.15,1.01-.35.73-1.07,1.02-4.83,5.21-8.37,5.49-13.5l.17-.14c3.49-1.9,3.26-6.03,5.29-8.87,3.07-4.29,5.53-9.02,8.26-13.56.56-.06.98-.23.77-.93,3.08-4.43,6.15-8.86,9.23-13.29,1.56-.26,2.02-1.31,1.96-2.73,1.68-1.98,3.36-3.95,5.05-5.93.59-.1,1.03-.32.82-1.05,2.77-5.46,7.2-9.61,11.35-13.92,2.47-2.57,5.42-4.66,6.88-8.07.34-.33.67-.66,1.01-.99,5.38-7.93,13.7-12.5,20.96-18.27.67.18.89-.07.71-.73,4.18-2.62,7.42-6.64,12.28-8.25.71.2.91-.17.9-.79l.05-.09c.35-.29.7-.58,1.05-.88,4.35-1.33,8.32-3.84,12.99-4.18.87.19,1.73.37,2.1-.78,1.97-.74,3.93-1.48,5.9-2.22.87.2,1.73.38,2.11-.78.64-.07,1.27-.14,1.91-.21.71.21.94-.23,1.06-.8,6.71-.38,13.37-1.45,20.14-1.11,2.47.12,4.75.37,6.78,1.82.99.12,1.98.24,2.97.36,1.01,1.78,2.72.47,4.04.9.29,1.13,1.17.97,2,.91.99,2.77,3.62,2.64,5.79,3.52,1.5.61,3.44.89,4.41,2.57-.18.7.1.95.79.81,1.76.37.23,2.78,1.97,3.16h.01c3.04,3.33,7.22,5.62,9.08,10.01-.11,1.13-.66,2.39.92,3.01.06,1.66.13,3.32.19,4.99-.35,2.29.68,4.17,1.83,6-.01.96-.03,1.92-.04,2.89-.25.15-.5.29-.76.44.25.26.5.52.76.78.03,1.63.06,3.27.09,4.9-1.65,1.02-.83,2.61-.92,3.99-.15,3.9-3.27,6.94-3.16,10.92-1.25.65-1.07,2.1-1.73,3.08-.09.33-.17.66-.26.99-.93,1.19-1.92,2.35-1.8,4.01-.06.66-.12,1.31-.18,1.97-1.05.74-2.27,1.38-1.8,3.03-1.73,2.67-3.46,5.34-5.18,8.02-1.36.04-2.18.52-1.7,2.07l-.2.21c-1.66.13-2.02,1.32-2.18,2.67-2.57,1.24-3.23,4.06-4.93,6.02-1.65.98-3.05,2.18-3.78,4.02-.1.32-.19.65-.29.97-1.21.31-.75,1.29-.84,2.05l-.06.06c-.59,0-.95.23-.8.9-.09.65-.17,1.31-.26,1.96-.28.36-.56.72-.83,1.07-2.05,2.32-4.1,4.63-6.15,6.95-1.52-.2-2.18.5-2.08,1.99-6.46,5.06-10.68,12.33-16.98,17.48-6.51,5.32-13.28,10.55-19.27,16.23-5.96,5.66-12.79,10.34-18.34,16.41-1.18,1.29-2.63,2.43-4.16,3.28-7.36,4.1-13.04,10.52-20.44,14.62-7.1,3.94-11.78,11.11-19.11,14.88-3,1.54-6.23,2.75-8.61,5.32-.68-.18-.9.23-1.01.78-7.97,5.98-15.57,12.51-24.99,16.26-.68-.19-.93.03-.71.72-1.7,2.74-4.5,3.97-7.27,5.25-1.6-.42-2.38.53-2.98,1.77-4.88,4.84-11.53,7.69-15.32,13.76-.48.77-.62,1.46-.54,2.28-1.3.16-1.09,1.08-.99,1.95.02.34.03.68.05,1.01-1.14,1.49-1.48,3.16-1.06,4.98-.62,11.33-.54,22.65-.09,33.98.17,2.03-1.12,4.26.87,6.02.57,9.01,1.29,18.01,1.68,27.03.33,7.6,1.29,9.01,8.79,10.25,5.6.93,9.12,4.48,11.56,9.16,4.64,8.86,12.96,13.14,21.36,17.12,2.29,1.09,4.56,3.41,7.64,2.43.25,1.05,1.21.9,1.94,1.13.15.56.41.92,1.06.61.67.03,1.34.05,2.01.08.33.05.66.11.99.16.24,1.09,1.22.89,1.95,1.12,1.87,1.09,3.96,1.37,6.05,1.65,1.34.01,2.67.03,4.01.04,4.58.05,9.16.09,13.74.15,2.9.04,5.14-1.4,7.26-3.15.72.18.98-.11.82-.81.35-.54.94-1.05,1.02-1.64.98-7.16,6.14-9.73,12.25-11.32,6.68-1.73,12.64-5.14,18.81-8.07,3.04-1.44,5.73-4.24,8.85-4.74,6.61-1.08,10.65-5.95,15.65-9.29,5.69-3.8,6.94-11.69,3.33-15.92.49-1.61-.4-2.46-1.7-3.08-5.11-6.74-13.78-9.25-18.96-15.92-.05-.67-.34-1.02-1.06-.83-8.17-.44-9.83-1.79-9.64-7.87.27-8.59,2.89-11.33,10.68-11.32,5.98,0,11.96-.1,17.94-.15,2.79-.22,6.03,1.58,8.14-1.78,1.7-.26,3.38.77,4.03-2.58,2.59-13.39,3.06-27.09,6.28-40.36.57-2.34.9-4.73,1.34-7.1l-.02-.97c.43-2.33.86-4.66,1.29-6.99,1.19-.32.95-1.18.78-2.02-.02-6.19.67-12.17,3.04-18.04,1.41-3.5,1.32-7.58,2.13-11.35,2.49-11.59,5.1-23.16,8.95-34.4,2.65-7.73,5.36-15.44,8.04-23.16.59-.08,1.05-.26.75-1,2.69-9.41,9.88-16.17,14.49-24.47,3.82-6.87,11.61-7.37,17.62-2.09,5.51,4.84,9.69,10.62,13.41,16.94,2.44,4.15,4.62,8.42,6.94,12.62-.25.68.1,1,.7,1.17.47.94.93,1.87,1.4,2.81-.21,1.66.56,2.93,1.65,4.07.39,1.31.79,2.62,1.18,3.93-.54,1.29.52,2.04,1.01,2.99,0,.34,0,.67-.02,1.01-.36,1.62-.17,2.98,1.67,3.58.29,13.19.31,26.37-1.29,39.49-2.61,1.04-1.15,3.22-1.39,4.92-.63,5-1.25,10.01-1.88,15.01-.15.34-.09.65.17.92-1.05,1.88-1.56,3.89-1.44,6.04-1.77.81-2.26,2.21-1.81,4.02-1,3.02-1.99,6.03-2.99,9.05-1.59,2.06-2.37,4.45-2.9,6.95-3.25,6-6.27,12.09-7.29,18.95-.34.34-.68.68-1.02,1.02h.01c-.64.05-.98.33-.8,1.02-1.07,1.98-2.13,3.96-3.2,5.94-1.94,1.12-2.44,3.11-3,5.05-2.48,4.29-2.12,5.26,2.26,5.31,2.92.03,5.85-.31,8.77-.48.71.19.93-.21.98-.82,5.34.3,10.24-2.67,15.61-2.1,1.76.19,4.62-.43,2.59,3.04-.09-.82.4-2-1.19-1.85-1.3,3.41-4.56,4.9-7.01,7.18-.76-.33-.97.22-1.2.74-.6.41-1.2.82-1.8,1.23-.74-.28-.92.16-.97.76-2.34,1.06-4.68,2.12-7.02,3.18-.71-.19-.94.21-1,.82-5.67,1.45-11.35,2.89-17.02,4.34-.32-.03-.64-.06-.96-.1-6.22-.16-9.51,4.43-13,8.37-7.15,8.08-14.19,16.24-22.03,23.67-.69-.23-.89.03-.71.69-.09.34-.18.67-.27,1.01-1.23.62-2.24,1.38-1.84,3.01-.97,2.52,1.12,4.6,1,6.99.85,1.93.09,4.36,1.91,5.98-.69,1.91,1.06,3.27,1.12,5.02-.15.86-.38,1.75.88,1.98.04,1.34.08,2.68.11,4.02-.17.83-.43,1.69.74,2.03.08,1.66.16,3.31.25,4.97.01,1.97.23,3.96-.01,5.89-.33,2.65,2.58,4.64,1.2,7.49-1.35,2.77-.76,5.71-.12,8.59-.81,3.04-1.18,6.37-.24,9.14,1.15,3.41-1,2.69-2.79,3.63.07-5.76.66-11.05-1.59-16.07-1.18-2.63-4.19-4.33-3.89-7.69.33-.73-.16-.89-.7-1.02-.06-.66-.12-1.31-.18-1.97.19-.69-.12-1.02-.78-1.12-2.68-4.59-2.39-10.03-4.23-14.87-.07-1.28-.82-2.01-2.03-1.91-1.06.09-.7,1.17-.88,1.86-1.28.25-.76,1.29-.89,2.05-1.85.99-.8,2.62-.88,4-.04,1.33-.08,2.67-.12,4-1.47,1.35-1.46,3.24-1.82,5-.56,8.03-1.12,16.05-1.68,24.08-2.54.58-1.22,2.5-1.36,3.91.52,19.67-2.21,39.29-1.02,58.98-1.59,1.38.29,2.67.1,4.01-.34.69.11.89.65,1.04.1.99.2,1.97.3,2.96v3.99c.8.95.39,2.81,2.22,2.99.03,2.61.2,5.19,1.77,7.44l.03.28c.56,3.65.05,7.73,3.96,10.06,1.92,2.01,4.49.89,6.73,1.38l-.05-.05c.09,1.64.19,3.27.28,4.91.03.34.05.68.08,1.01-.8,1.21-1.55,2.44-1.01,3.99-1.33,4.12-3.78,5.95-8.1,3.96-.15-.56-.38-1.01-1.1-.8-1.01-.05-2.02-.11-3.03-.16-.33-.33-.65-.66-.98-.99-2.12-3.36-4.25-6.71-6.37-10.07.15-.77.7-1.67-.6-2.01-.43-.98-.85-1.95-1.28-2.93.54-2.34-1.27-3.03-2.76-3.95-.42-.69-.85-1.38-1.27-2.07.02-.32.04-.65.06-.97-.67-2.67-1.34-5.33-2-8v-3.01c-.75-8.35-1.5-16.7-2.25-25.04-.17-.31-.35-.61-.52-.92-.36-8.83-.76-17.66-1.8-26.46-.3-2.5,1.69-4.75,1.86-7.42.9-13.89,2.07-27.75,2.9-41.64.17-2.91,2.7-4.92,1.84-8.35-1.04-4.14-2.56-5.15-6.21-3.2-.85.45-1.72.86-2.58,1.28-.86-.26-1.64-.3-2.03.73-.33.06-.65.12-.98.18-.7-.17-.98.21-1.06.84l.02-.02c-.32.06-.63.15-.94.26-4.48,3.07-9.91,4.86-13.04,9.73-.73.26-1.83-.22-2.08,1.03-.31.32-.62.64-.93.95-.76.24-1.84-.19-2.14,1.01-4.34,1.99-6.79,5.98-9.83,9.33-.66-.13-.91.13-.75.78l-.19.19c-.64-.15-.95.06-.79.75-3.08,4.22-7.74,6.09-12.26,8.17-.7-.19-.98.2-1.1.81-7.91,1.9-15.9.43-23.85.5-2.65.03-5.3-.32-7.95-.5-.13-.59-.33-1.08-1.09-.75-5.72-.58-10.99-3.46-16.86-3.28-.22-.49-.43-.98-1.13-.69-2.61-1.48-6.11-.67-8.28-3.24-.96-1.2-2.16-1.95-3.74-1.99v-.02c-.03-.63-.26-1.01-.98-.8-1.01-.49-2.53.31-3.15-1.21.24-.77-.24-.95-.84-1.04-2.26-1.08-4.55-2.04-6.7-3.44-3.68-2.39-7.76-2.88-11.73-.46-1.85,1.13-3.67,1.92-5.92,1.96-7.09.13-6.01-.28-8.93-6.97-3.57-8.17-3.97-16.82-6.21-25.14-.67-2.48-.36-5.3-.16-7.94.51-6.88-1.18-13.43-2.74-20.01.26-3.99.22-7.98-.35-11.94.43-.64.47-1.3.07-1.97.13-1.97,1.44-4.16-1.02-5.66,1-.59.7-1.48.53-2.34-1.86-6.31.44-12.68-.23-19.01.05-.16.16-.33.13-.47-.43-2.25,2.75-4.93-.18-6.65-2.53-1.48-4.45,1.26-6.59,2.29-.74-.22-.95.21-1.01.83-1,.44-2,.87-3.01,1.31-.72-.33-.86.19-1.02.69-.66.39-1.31.79-1.97,1.18-.8-.29-.95.34-1.17.85-3.61,2.39-7.22,4.77-10.82,7.16-.77-.29-.98.17-1.05.8-3.15.47-4.84,2.94-7.02,4.87-14.02,12.44-27.01,25.86-39.16,40.11-1.27,1.49-2.71,2.88-2.77,5.02-1.09.71-2.26,1.37-1.81,3.01-1.09,4.86,2.43,8.2,4.47,11.72,3.8,6.57,9.24,12.22,12.84,18.89,6.2,11.49,16.61,19.82,22.61,31.37-.44,1.32.56,2.04,1.24,2.88.9,1.37,1.79,2.75,2.69,4.12-.24.77.14,1.16.83,1.36-.65,2.97,2.44,4.81,2.29,7.63.02,1.07-.81,2.34.73,3.05.09.32.18.63.27.95,2.28,4.83,1.55,9.16-2.14,13l-1,.17c-.86-.18-1.69-.29-2,.84-4.58.15-9.2.46-12.93-3.04-.68-1.19-1.55-2.06-3.08-1.78-4.15-1.34-8.06-3.11-11.24-6.2.17-.67-.07-.92-.74-.73-.93-.56-1.69-1.52-2.97-1.27-.1-.59-.32-1.01-1.04-.81-5.79-2.9-11.86-5.38-17.25-8.9-2.47-1.62-4.35-3.25-7.55-3.56-2.38-.22-5.26-.86-7.11-2.79-4.73-4.97-11.17-7.03-16.86-10.38-5.8-3.42-8.47-3.09-14.07.48-8.88,5.65-18.09,10.79-27.16,16.14-.88-.19-1.68-.21-1.98.89-.67-.08-.97.26-1.04.88-.7.3-1.82-.24-2.04,1.02l.02-.02c-2.64.19-2.52,2.24-2.76,4.06-.05.67-.09,1.34-.14,2.02-1.21.26-1.17,1.06-.86,1.98-3,2.4-2.1,5.78-2.25,8.9-1.02.8-2.17,1.53-1.87,3.12l-.05.07c-1.19.6-2.3,1.25-1.96,2.89-1.87,7.29-5.27,13.5-12.11,17.31-.77-.11-1.57-.3-1.95.69-2.64-.01-5.29-.03-7.93-.04-.21-.45-.36-.99-1.07-.73-1.64-.39-3.47-.03-4.88-1.29-.42-2.97-2.51-3.8-5.1-4.01l.03.03c-.46-3.03-3.26-4.07-5.06-5.96-.78-2.74-2.79-4.45-4.99-6.02-.32-.33-.65-.66-.97-.99-1.16-3.3-2.27-6.63-5.01-9.06-.43-.98-.85-1.96-1.28-2.94.74-4.43-2.08-7.16-4.76-9.96v-.02c-.52-1.94-.92-3.94-3.02-4.9.3-1.9-1.53-2.68-2.17-4.09.06-1.1.71-2.34-.77-3.05l.02.02c.21-1.25-.8-1.98-1.24-2.96,0-.34,0-.67.02-1.01.19-2.79-2.31-3.53-3.81-5.04-.07-.33-.14-.65-.21-.98.25-.69-.11-1.01-.72-1.18-2.99-3.76-4.07-8.33-5.4-12.79.29-3.75-1.98-6.01-4.67-8.03,0-.62-.31-.94-.91-1.01.04-1.51-.78-2.44-2.06-3.06-1.22-6.77-4.57-12.82-6.45-19.38-2.83-9.86-5.85-19.67-8.78-29.5.64-1.72-.37-2.59-1.69-3.29.3-3.28.89-6.62-2.29-9.06-.39-.3-.44-1.19-.47-1.82-.58-10.95-4.06-21.3-6.58-31.85.46-.77-.1-1.01-.66-1.24-1.9-7.12.12-14.63-2.1-21.72,2.3-1.86-.26-2.19-.97-3.11.01-.27,0-.54,0-.82.24-.25.49-.5.73-.75l-.75-.36c-1.32-7.28-2.64-14.57-3.96-21.85.23-.13.46-.27.69-.4-.25-.22-.5-.44-.76-.66-.07-.35-.13-.71-.2-1.06.3-.74-.19-.94-.75-1.08-.03-.32-.1-.62-.24-.91-.02-7,.79-14.03-.91-20.96.61-4.86.53-9.63-2.05-14.03-.63-3.48,1.98-7.48-1.68-10.47-.94-6.75,2.18-12.96,2.62-19.52.8-3.04-.21-6.01-.32-9.01,1.19-2.31.77-4.64.1-6.98.64-2.32.58-4.66.16-7.01-.4-3.88,2.68-7.08,2.11-10.99v-8.01c.08-.33.16-.65.24-.98,1.15-.34.94-1.19.77-2.02-.02-.34-.03-.67-.05-1.01-.4-1.51,1.9-2.35,1-3.99.82-10.52,4.18-20.52,6.31-30.76.23-.28.46-.57.69-.85-.26-.13-.51-.26-.77-.39,1.47-2.79,2.91-5.59,3.05-8.83.6-.14,1.04-.4.82-1.13,1.38-3.66,2.75-7.32,4.13-10.97.65-.04,1.06-.27.83-1.02,2.06-3.65,4.12-7.3,6.18-10.95.64-.06,1.05-.3.8-1.04.15-.28.23-.58.22-.9.59-.13,1.11-.31.72-1.09.09-.32.17-.64.26-.97.64-.06,1.06-.29.82-1.04,1.06-1.66,2.11-3.32,3.17-4.98.59-.09,1.01-.31.8-1.02,6.38-10.3,14.73-19.03,23.84-26.72,9.49-8.01,19.69-15.26,31.22-20.44,10.3-4.63,20.75-8.36,32.11-9.03,1.64.48,2.34-.69,3.09-1.76C134.49,1.52,143.95-.08,153.39,0c5.97.05,12.01.25,18.02.54.85,2.36,2.8,1.73,4.54,1.66,6.83.69,13.56,1.94,20.14,3.91.86.61,1.59,1.55,2.86,1.07,7.22,1.33,13.52,4.94,20.05,8,.12,1.25,1.06,1.18,1.94,1.21.14.66.61.83,1.21.8.81.66,1.6,1.39,2.8,1,4.53,1.9,6.9,6.88,11.81,8.24.03,1.38.71,2.11,2.1,2.13,1.92,3.49,5.74,4.83,8.39,7.45,4,3.95,7.58,8.34,11.39,12.48.98,1.06,2.18,1.91,3.28,2.86,0,1.45.79,2.37,2.01,3-.05.65.35.9.9,1.03.16.84.07,1.86,1.37,1.87-.34,2.35,1.91,3.34,2.68,5.11-.13,1.27.69,2.05,1.44,2.88v.02Zm197.63,85.1c.93-.38,1.55-1.02,1.72-2.03,3.47-4.73,7.1-9.36,9.29-14.89.51-.17,1.03-.34.69-1.07.37-1.33,2.23-1.63,2.23-3.23.58.06.92-.12.77-.78l1.27-2.05c.55-.08.94-.29.78-.95.41-.67.82-1.34,1.23-2.02l1.73-1.62c1.1-2.1,2.2-4.2,3.3-6.3,1.22-1.19,3.24-1.83,2.78-4.15l.13-.16c.6.1.94-.07.79-.76,1.98-1.57.69-4.26,2.07-6.03,0-.32,0-.65-.01-.97.37-1.01.75-2.03,1.12-3.04,1.12-.29,1.02-1.12.87-1.98-.02-.34-.05-.68-.07-1.02-.03-.64-.07-1.27-.1-1.91.17-2.34.34-4.67.52-7.01,1.99-1.88-.21-2.26-1.11-3.11-1.37-2.65-2.73-5.3-4.1-7.95.22-.84-.16-1.07-.92-.91-4.06-4.7-9.93-6.74-14.89-10.12-.68-1.22-1.53-2.14-3.12-1.78-3.18-1.72-6.6-1.59-10.04-1.29-.72.22-1.76-.16-1.99,1.03-1.34.15-2.67.31-4.01.46-.78-.19-1.54-.32-1.95.62-8.84.06-17.41,1.19-25.01,6.22-.68-.16-.9.2-.9.8-1.98,2.2-5.86,1.68-7.1,4.95-.32.13-.63.25-.95.38-.68-.04-1.36-.08-2.04-.12-1.72-.64-2.13.25-2.02,1.74-1.99,1.69-3.98,3.39-5.97,5.08-1.78.4-3.99.2-4.07,2.95-4.26,4.05-8.75,7.89-11.98,12.9-2.76,0-4.63,1.03-4.7,4.11-8.4,9.49-15.33,20.11-23.27,29.95-1.02.77-2.39,1.32-1.87,3.03-2.98,4.02-4.74,8.7-7.11,13.05-.71-.07-.94.27-.79.93-.6,1.94-3.3,2.46-3.28,4.82-1.19.49-1.1,1.21-.38,2.05-2.67,4.63-5.96,8.93-7.55,14.13-1.21,1.06-1.89,2.36-1.79,4.01-.07.33-.14.67-.21,1-2.12,1.01-2.61,2.96-2.86,5.03-1.34.16-.89,1.29-1.11,2.05-1.34.51-2.39,1.2-1.83,2.91-.14.3-.21.61-.23.94-1.21.4-1.01,1.1-.39,1.88-1.87,3.96-2.53,8.62-6.81,11.15-.82.49-1.59,1.82-.96,2.6,3.16,3.87-.31,6.03-1.89,8.82-.94,1.66-2.1,3.39-1.97,5.5-1.07,1.18-1.91,2.45-1.78,4.15-1.27.08-1.08,1.12-1.25,1.92-1.18.33-.84,1.23-.75,2.03-.32,2.47-2.29,4.5-1.92,7.16-.54.88-1.64,1.54-1.07,2.84-.13.3-.2.61-.22.94-1.22,2.24-3.4,4.1-2.82,7.06-.39.97-1.68,1.66-.97,2.99-.43,2.32-.87,4.64-1.3,6.96-.55.13-.96.36-.72,1.04-.04.67-.08,1.34-.12,2.01,0,2.67-.02,5.33-.03,8,.76,2.47,2.04,3.04,4,1.08,1.56-.25,2.96-.81,3.96-2.12,1.44,0,2.49-.6,3.09-1.94,1.41,0,2.38-.67,2.95-1.94,1.42-.09,2.41-.77,2.92-2.1,2.42-.82,4.04-2.79,6.06-4.19.68.17.95-.08.76-.77,6.08-4.09,12.16-8.18,18.24-12.27.73.33.91-.18,1.09-.71,4.07-1.45,6.6-5.06,10.21-7.22,10.67-6.36,20.72-13.65,30.67-21.07,1.01-.19,1.69-.76,2.04-1.73,2.33-1.73,4.65-3.46,6.98-5.19.7.15.94-.11.72-.79,5.93-6.44,13.11-11.33,20.27-16.23.72.22.93-.19.98-.79,1.02-.97,2.03-1.93,3.05-2.9.54-.16,1.03-.35.74-1.08,8.41-8.09,16.82-16.19,25.24-24.28.65.13.87-.14.69-.76.73-.1,1.16-.5,1.24-1.25.68.17.9-.26,1.03-.8,2.64-.76,2.71-4.04,5.03-5.11.71.23.93-.19,1.01-.78h.04Zm-214.99,129.96c.55-.11.96-.33.78-1.01,2.23-5.58,4.81-11.04,6.24-16.91.52-.17,1.03-.35.71-1.07.36-1.42.72-2.83,1.08-4.25,1.04-1.07,1.45-2.31.99-3.78,2.82-9.26,4.12-18.95,8.11-27.88.71-1.59,1.35-3.39.81-5.26.91-1.22,2.34-2.4.34-3.87.63-9.41,4.47-18.34,4.09-27.9,1.23-.37.82-1.26.66-2.07.06-.33.11-.66.17-.99,1.31-.69,1.37-1.35-.04-1.99-1.1-2.52,1.93-4.98.12-7.51,1.12-.92,1.47-2.11,1.25-3.51.82-3,.87-5.99-.09-8.97-.03-2.01-.06-4.02-.08-6.03,1.1-2.31,1.34-4.64.09-6.98.45-.7.48-1.41-.01-2.1.46-2.2-.14-4.15-1.44-5.92,0-.98,0-1.97-.01-2.95,1.34-4.33.98-8.56.43-13.06-.46-3.74-2.33-6.68-3.39-10.01-3.14-9.92-4.45-20.34-8.64-29.99-1.06-2.43-3.33-3.56-4.15-5.96-6.07-17.65-19.14-30.25-32.87-41.44-9.58-7.81-21.04-14.06-33.49-17.2-14.73-3.72-29.5-7.3-44.91-6.58-3.63.17-7.28,1.26-10.75,1.05-18.34-1.09-34.35,7.02-50.8,12.86-6.63,2.35-12.46,7.42-18.14,11.91-8.02,6.34-13.79,14.95-20.96,22.2-1.49,1.5-4.13,2.4-4.1,5.2-1.35.99-1.67,2.5-2.04,3.99-2,2.97-4,5.93-6,8.9-.59.14-.97.41-.69,1.09-.88,2.65-3.72,4.15-4.17,7.05-1.28.22-1.1,1.09-.88,1.97-.06.35-.13.71-.19,1.06-2.15,1.4-2.62,3.61-2.85,5.94l-.17,3c-1.61.63-.82,1.93-.84,3-.18.28-.25.58-.2.91-1,.8-2.44,1.34-1.81,3.09-.54.94-1.52,1.7-1.19,2.98-1.2.3-.96,1.17-.8,2.01.02.34.04.68.06,1.01-1.21,1.48-1.48,3.16-1.06,4.98-.08.99-.16,1.97-.25,2.96-1.22.32-1.11,1.13-.74,2.04-.12.64-.23,1.28-.35,1.92-1.18.34-.98,1.21-.79,2.07-.02.99-.05,1.99-.07,2.98-2.05,1.35-.93,3.29-.91,5.02.03.34.06.68.09,1.01-.92,1.18-1.62,2.41-1.09,3.99-.04.12-.13.25-.11.35.04.23.14.44.22.66-.27,1.01-1.83,1.61-.97,2.99-.06.33-.11.67-.17,1-.26.12-.52.23-.78.35.24.25.49.51.73.76-.08.29-.07.57.03.85-2.64,3.46-1.3,7.34-1.14,11.09-1.11,1.94-1.03,4.09-1.09,6.21-.15,6.21,1.21,12.41-.02,18.62-1.39,3.74-1.66,7.46.14,11.15.29.64.58,1.29.87,1.93-.34,1.04-.53,2.08.03,3.11-1.05,3.93-.62,7.86-.07,11.8-.14,2.7-.27,5.41-.41,8.11-.57.65-.6,1.31-.05,1.99-.57,1.49.45,2.12,1.48,2.74.45,3.42.91,6.84,1.36,10.26-.17.87-.34,1.74.87,2.02.39,1.66.78,3.32,1.17,4.98-.32,3.07-1.12,6.17.67,9.09-.01.61-.03,1.21-.04,1.82-1.18.37-.97,1.23-.73,2.09v2c-.19,4.79.48,9.45,2.07,13.98,0,.34-.02.68-.03,1.01.04,2.38-1.16,4.9.79,7.06.05.98.1,1.96.15,2.94-.53,1.87-.08,3.52,1.18,4.97-.03.34-.05.69-.08,1.03-.18.8-.5,1.63.51,2.15.12,1.62.23,3.23.35,4.85-.25,1.12-.67,2.27.48,3.19.17,1.6.34,3.21.5,4.81-.2,1.13-.75,2.34.61,3.17.14,1.61.27,3.22.41,4.83-.17,1.13-.82,2.34.6,3.17-.4,2.85.39,5.61,1.22,8.21,2.06,6.46.51,13.88,5.21,19.61-.19.87-.39,1.74.79,2.09,1.51,3.13-.21,6.97,2.18,9.91-.35,1.18-.81,2.39.73,3.13-.4,1.37.69,2.02,1.37,2.87-.21.74-.32,1.43.78,1.49,1.11,3.79,2.23,7.57,3.34,11.36.25,2.15-.06,4.44,1.61,6.23l.18,2.91c1.73,5.97,3.87,11.76,7.71,16.77.81,3.07,1.62,6.15,2.42,9.22l.05,2.01v.99c1.41,2.29,2.82,4.57,4.22,6.86,1.37,2.04,2.18,4.48,3.45,6.44,2.89,4.48,2.73,10.73,7.99,13.77-.1,1.58.91,2.43,2.07,3.19,2.43,4.73,4.84,9.47,8,13.78-.35,1.71.89,2.38,2.04,3.11.1,1.15,1.13,1.36,1.88,1.83-.04.84.37,1.14,1.18.95,1.71,3.02,5.06,5.1,5.16,9.04-.45,1.25.09,2.01,1.21,2.5l.14.14c.77.8,1.13,2.08,2.5,2.2,3.41,1.45,6.77,4.39,10.35.28,3.79-4.34,5.92-9.38,6.44-15.11.55-3.14-1.73-2.99-3.71-3.19-1.02-1.62-2.63-.58-3.94-.87-1.44-2.75-3.89-1.76-6.1-1.65-.34-.1-.68-.2-1.02-.3-.84-2.49-3.28-3.44-4.96-5.13-.11-.95-.22-1.9-.32-2.85.47-2.33.21-4.44-1.91-5.94.85-1.87-1.07-3.29-.82-5.06.24-.22.48-.44.72-.66-.24-.11-.49-.21-.73-.32-2.77-3.64,1.15-7.25.06-10.89.26-.15.52-.29.78-.44-.27-.26-.53-.53-.8-.79,2.36-6.69,4.74-13.33,10.63-17.98,5.65-4.46,11.27-8.91,18.33-10.97.33-.04.65-.1.97-.2,1.84-.81,3.45-1.85,5.72-1.9,2.45-.05,5.1-.56,7.31-2.03.68.15.98-.1.85-.81.35-.54.92-1.04,1.03-1.63,2.44-12.77,4.83-25.55,7.23-38.32,1.13-.38.91-1.21.69-2.05,1.32-1.25,1.19-2.88,1.23-4.51.13-6.59,1.81-12.95,3-19.38.26-.14.52-.28.78-.41-.27-.25-.53-.51-.8-.76,1.01-5.92,1.96-11.85,2-17.88.4-.21.92-.35.56-.99.16-.96.32-1.92.48-2.89.59-.16,1.07-.41.79-1.16l.97-8.01-.03-2.01.21-.98c.25-.24.5-.48.75-.72-.24-.14-.48-.27-.71-.41.34-13.28.68-26.57,1.02-39.85,1.76-7.71-1.57-15.32-.46-23.06.21-1.5.93-3.48-.63-4.94-.05-1-.09-2-.14-3.01v-3.01c.07-1.64.13-3.28.2-4.92.25-.14.51-.27.76-.41-.25-.26-.5-.52-.75-.78.65-.96,1.31-1.92,1.96-2.88,1.21-.22.69-1.33,1.03-2,3.86-3.01,7.99-2.63,12.23-.99-.24.71.06.91.72.78.27.2.57.28.9.24.2,1.85,1.01,3.07,3.08,3.01l-.02-.02c.18,3.57.55,7.09,2.93,10.02.06,1.65.12,3.3.18,4.94-1.41,5.93-1.4,11.96-1.12,17.99,0,.33.02.67.04,1-.53,1.34-.57,2.7-.13,4.07-1.27,4.63-.5,9.31-.42,13.98-2.72,1.89-1.11,4.58-1.28,6.95-.06,1.61-.12,3.23-.19,4.84-.63.12-.97.45-.77,1.14-.04.34-.07.69-.11,1.03-1.14,1.84-2.39,3.63-1.89,5.98-.03,1.01-.07,2.01-.1,3.02-2.13,1.71-.72,3.97-.91,5.98-.31.66-.63,1.33-.94,1.99v3.01c-.12,3.65-.24,7.29-.35,10.94-1.19.36-1.11,1.15-.7,2.05-.43,1.57-.86,3.14-1.29,4.71-.72.14-1.03.55-.83,1.28,0,.34,0,.67.02,1.01-.66.89-1.46,1.74-.91,3-.06.33-.12.66-.18.99-2.08,3.43-.04,7.53-1.82,11.01-.08.99-.16,1.98-.24,2.97-1.2.3-1.05,1.15-.83,2.03-.03,8.91-3.56,17.12-5.18,25.7-1.4,7.48-4.49,14.63-4.32,22.41-2.52,2.03-2.54,5.13-3.4,7.88.04.35.08.69.13,1.04,0,.97.02,1.94.02,2.9,0,1.03-.03,2.05-.04,3.08-.46.78.12.93.66,1.11,1.68,4,5.39,4.9,9.03,5.92.65,1.52,1.91.95,3.02.89,4.28.66,8.65,1.1,12.21-1.95,3.51-3,6.95-6.15,9.93-9.66,3.56-4.18,8.68-7.27,9.89-13.23.56-.15,1.06-.34.73-1.08.45-.87,1.32-1.74,1.3-2.6-.18-8.26,3.76-14.68,8.94-20.58.72.2.96-.2,1.03-.82,6.43-7.58,12.27-15.74,20.94-21.1.64.04.99-.18.82-.89,4.93-4.28,9.53-8.87,12.48-14.79,5.16-10.33,8.96-21.3,14.54-31.44.63-.82,1.36-1.6,1.2-2.76l-.04.06Zm235.02,34.84l.06.08c.15.59.31,1.7.44,1.7,6.11-.1,12.3,1,18.31-.97.71.04,1.41.08,2.12.13,1.37-.08,2.97.88,3.99-.84,3.12.13,6.01-.16,7.06-3.84.55-.17,1.02-.39.77-1.11,5.6-6.88,10.5-14.3,14.06-22.35,5.62-12.71,10.92-25.67,12.59-39.6.81-6.76,3.72-13.1,3.67-19.93-.13-16.83-.22-33.64-6.99-49.64-2.39-5.63-4.96-10.82-9.85-14.57-1.61-1.24-3.23-2.74-5.67-1.16-7.67,4.94-10.91,12.7-13.49,20.86-.52,1.66-.03,3.46-1,5.2-6.5,11.73-7.77,25.19-12.25,37.59-3.11,8.59-3.97,17.64-5.52,26.46-1.39,7.95-4.53,15.81-3.28,24.15-1.25.23-1.04,1.12-.9,1.98-.06,1-.13,1.99-.19,2.99-1.2.29-.98,1.16-.83,2.01.39,3.75-1.88,7.28-.9,11.08-1.84.43-1.1,1.8-1.07,2.92-.65,3.36-1.31,6.71-1.96,10.07-2.01,2.54-2.18,4.86.83,6.79Zm-287.1,76.12c-2.19-.06-3.73.53-5.06,2.37-2.58,3.57-5.3,7.11-8.38,10.24-6.56,6.66-6.61,7.68,1.27,12.1,6.88,3.86,13.48,8.17,20.64,11.59,7.06,3.36,14.58,5.84,21.05,10.43,1.02.72,2.52.77,3.76-.06,1.76-1.18.27-2.52-.16-3.38-1.78-3.55-3.85-6.94-6.86-9.68-4.87-4.44-9.85-8.9-12.38-15.17-2.63-6.51-9.74-10.12-10.98-17.51-.24-1.4-2-.64-2.89-.92h-.01Zm-92.43,39.85c-.04,2.79.56,5.42,3.01,6.99,1.23.79,10.76-5.6,11.22-7.4,1.32-5.16,2.81-10.3,3.68-15.53.34-2.03-.11-4.79-3.85-3.82-6.69,1.73-14.01,11.85-14.07,19.77h.01Zm392.63-96.86c-13-.28-17.89,2.81-19.03,12.02-.26,2.12-1.32,5.03,1.17,6.41,2.63,1.47,4.39-.91,6.24-2.46,5.08-4.26,7.66-10.29,11.62-15.97Zm-357.16,80.91c-.47.04-1.31.06-2.12.2-3.39.6-3.79,3.72-4.7,6.13-.49,1.29-1,3.62.64,4.51,2.55,1.4,3.97-1.56,6.01-2.33,1.14-.43,2.01-1.67,2.91-2.63,1.18-1.26,3.15-2.33,2.06-4.49-.91-1.8-2.82-1.33-4.79-1.4h0Z"/></g></svg>
