<svg enable-background="new 0 0 119.7 120.9" viewBox="0 0 119.7 120.9" xmlns="http://www.w3.org/2000/svg"><g stroke-miterlimit="10"><path d="m76 5.2h-31.2c-21.8 0-39.4 17.4-39.4 38.8v32.5c0 21.4 17.7 38.7 39.4 38.7h31.2c21.7 0 39.4-17.4 39.4-38.7v-32.5c0-21.4-17.7-38.8-39.4-38.8z" fill="#191919" stroke="#eb0029" stroke-linecap="round" stroke-linejoin="round" stroke-width="4"/><g stroke="#fff"><path d="m88.6 84v-18c0-.6 0-1.3-.1-1.9-.6-8.9-2.6-13.7-10.2-18.5" fill="none" stroke-linecap="round" stroke-linejoin="round" stroke-width="4"/><path d="m35.6 87.6c0 5.4 4.6 9.7 10.1 9.7h29.5" fill="none" stroke-linecap="round" stroke-linejoin="round" stroke-width="4"/><ellipse cx="75.2" cy="84" fill="none" rx="13.3" ry="13.3" stroke-linecap="round" stroke-linejoin="round" stroke-width="4"/><circle cx="60.5" cy="37.1" fill="none" r="19.8" stroke-linecap="round" stroke-linejoin="round" stroke-width="4"/><path d="m36.4 58.2h-1.4c-.1 0-.2.1-.2.2v4.3c0 .1.1.2.2.2h1.4c.1 0 .2-.1.2-.2v-4.3s-.1-.2-.2-.2z" fill="#fff"/><path d="m36.6 56.7c.3-1.5 0-2.4-.9-2.9-.9.7-1.2 1.6-.9 2.9z" fill="#fff"/><path d="m38.2 70.8c-.3-.6-.5-1.2-.5-1.9v-3.3c0-.4-.3-.7-.7-.7h-2.7c-.4 0-.7.3-.7.7v3.3c0 .7-.2 1.3-.5 1.9-.7 1.2-1.2 2.5-1.2 3.8v7.2c0 1 .1 2 .3 3 .1.4.2 1.1.4 1.5v.6c0 .4.5.7 1 .7h4c.6 0 1-.3 1-.7v-.5c.2-.4.3-1.1.4-1.5.2-1 .3-2 .3-3v-7.2c.1-1.5-.4-2.8-1.1-3.9z" fill="#fff"/><path d="m60.5 38.4c.7 0 1.3-.6 1.3-1.3s-.6-1.3-1.3-1.3-1.3.6-1.3 1.3.6 1.3 1.3 1.3z" fill="#fff"/><path d="m56.7 33.3v7.6h7.6l7.3-14.8z" fill="none" stroke-linecap="round" stroke-linejoin="round" stroke-width="2"/></g></g></svg>