<svg enable-background="new 0 0 122 1000" viewBox="0 0 122 1000" xmlns="http://www.w3.org/2000/svg"><path d="m0 800h50v200h-50z" fill="#dfeae2"/><path d="m0 600h50v200h-50z" fill="#b4d6c1"/><path d="m0 400h50v200h-50z" fill="#8dc3a7"/><path d="m0 200h50v200h-50z" fill="#4e9c81"/><path d="m0 0h50v200h-50z" fill="#207567"/><g fill="none" stroke-miterlimit="10"><path d="m24.5 0v1000" stroke="#000"/><path d="m.7 999.5h88.3" stroke="#fff"/><path d="m.7 799.5h88.3" stroke="#fff"/><path d="m.7 599.5h88.3" stroke="#fff"/><path d="m.7 400.5h88.3" stroke="#fff"/><path d="m.7 200.5h88.3" stroke="#fff"/><path d="m0 .5h88.3" stroke="#fff"/></g><g enable-background="new" fill="#fff"><path d="m65.7 12.3-3.2 2.7-.9-1.2 4.4-3.6h1.3v17.7h-1.5v-15.6z"/><path d="m72.8 19.1c0-.6 0-1.3.1-2s.2-1.4.3-2.1c.2-.7.4-1.3.6-1.9.3-.6.6-1.1 1.1-1.6s1-.8 1.6-1.1 1.3-.4 2.2-.4c.8 0 1.6.1 2.2.4s1.1.6 1.6 1.1.8 1 1.1 1.6.5 1.2.7 1.9.3 1.4.3 2.1c.1.7.1 1.4.1 2s0 1.3-.1 2-.2 1.4-.3 2.1c-.2.7-.4 1.3-.7 1.9s-.6 1.1-1.1 1.6-1 .8-1.6 1.1-1.3.4-2.2.4c-.8 0-1.6-.1-2.2-.4s-1.1-.6-1.6-1.1-.8-1-1.1-1.6-.5-1.2-.6-1.9c-.2-.7-.3-1.4-.3-2.1s-.1-1.4-.1-2zm1.7 0v1.5s.1 1.1.2 1.7.2 1.1.4 1.7.4 1 .8 1.5c.3.4.7.8 1.1 1 .5.3 1 .4 1.6.4s1.2-.1 1.6-.4c.5-.3.8-.6 1.2-1 .3-.4.6-.9.8-1.5.2-.5.3-1.1.4-1.7s.2-1.1.2-1.7.1-1.1.1-1.5c0-.5 0-1-.1-1.5s-.1-1.1-.2-1.7-.2-1.1-.4-1.7c-.2-.5-.4-1-.8-1.5-.3-.4-.7-.8-1.2-1-.5-.3-1-.4-1.6-.4s-1.2.1-1.6.4c-.5.3-.8.6-1.2 1s-.6.9-.8 1.5-.3 1.1-.4 1.7-.2 1.1-.2 1.7.1 1 .1 1.5z"/><path d="m85.8 19.1c0-.6 0-1.3.1-2s.2-1.4.3-2.1c.2-.7.4-1.3.6-1.9.3-.6.6-1.1 1.1-1.6s1-.8 1.6-1.1 1.3-.4 2.2-.4c.8 0 1.6.1 2.2.4s1.1.6 1.6 1.1.8 1 1.1 1.6.5 1.2.7 1.9.3 1.4.3 2.1c.1.7.1 1.4.1 2s0 1.3-.1 2-.2 1.4-.3 2.1c-.2.7-.4 1.3-.7 1.9s-.6 1.1-1.1 1.6-1 .8-1.6 1.1-1.3.4-2.2.4c-.8 0-1.6-.1-2.2-.4s-1.1-.6-1.6-1.1-.8-1-1.1-1.6-.5-1.2-.6-1.9c-.2-.7-.3-1.4-.3-2.1s-.1-1.4-.1-2zm1.7 0v1.5s.1 1.1.2 1.7.2 1.1.4 1.7.4 1 .8 1.5c.3.4.7.8 1.1 1 .5.3 1 .4 1.6.4s1.2-.1 1.6-.4c.5-.3.8-.6 1.2-1 .3-.4.6-.9.8-1.5.2-.5.3-1.1.4-1.7s.2-1.1.2-1.7.1-1.1.1-1.5c0-.5 0-1-.1-1.5s-.1-1.1-.2-1.7-.2-1.1-.4-1.7c-.2-.5-.4-1-.8-1.5-.3-.4-.7-.8-1.2-1-.5-.3-1-.4-1.6-.4s-1.2.1-1.6.4c-.5.3-.8.6-1.2 1s-.6.9-.8 1.5-.3 1.1-.4 1.7-.2 1.1-.2 1.7.1 1 .1 1.5z"/><path d="m99.1 14.2c0-.6.1-1.2.3-1.7s.5-1 .9-1.4.8-.7 1.4-.9c.5-.2 1.1-.3 1.7-.3s1.2.1 1.7.3 1 .5 1.4.9.7.8.9 1.4c.2.5.3 1.1.3 1.7s-.1 1.2-.3 1.7-.5 1-.9 1.4-.8.7-1.4.9c-.5.2-1.1.3-1.7.3s-1.2-.1-1.7-.3-1-.5-1.4-.9-.7-.8-.9-1.4c-.2-.5-.3-1.1-.3-1.7zm1.4 0c0 .4.1.8.2 1.2.2.4.4.7.6.9s.6.5.9.6c.4.1.7.2 1.1.2s.8-.1 1.1-.2c.4-.2.7-.4.9-.6s.5-.6.6-.9c.2-.4.2-.7.2-1.2 0-.4-.1-.8-.2-1.2-.2-.4-.4-.7-.6-.9s-.6-.5-.9-.6c-.4-.2-.7-.2-1.1-.2s-.8.1-1.1.2c-.4.1-.7.4-.9.6s-.5.6-.6.9c-.2.4-.2.8-.2 1.2zm13-4.8 1.1.7-11.4 18.7-1.1-.7zm-4.5 14.5c0-.6.1-1.2.3-1.7s.5-1 .9-1.4.8-.7 1.4-.9c.5-.2 1.1-.3 1.7-.3s1.2.1 1.7.3 1 .5 1.4.9.7.8.9 1.4c.2.5.3 1.1.3 1.7s-.1 1.2-.3 1.7-.5 1-.9 1.4-.8.7-1.4.9c-.5.2-1.1.3-1.7.3s-1.2-.1-1.7-.3-1-.5-1.4-.9-.7-.8-.9-1.4c-.2-.5-.3-1.1-.3-1.7zm1.3 0c0 .4.1.8.2 1.2.2.4.4.7.6.9.3.3.6.5.9.6.4.2.7.2 1.1.2s.8-.1 1.1-.2c.4-.1.7-.4.9-.6.3-.3.5-.6.6-.9.2-.4.2-.7.2-1.2 0-.4-.1-.8-.2-1.2-.2-.4-.4-.7-.6-.9s-.6-.5-.9-.6c-.4-.2-.7-.2-1.1-.2s-.8.1-1.1.2c-.4.1-.7.4-.9.6s-.5.6-.6.9c-.1.4-.2.8-.2 1.2z"/></g><g enable-background="new" fill="#fff"><path d="m67.3 212.5c0-.7.1-1.3.4-1.9.2-.6.6-1 1-1.4s.9-.7 1.5-.9 1.2-.3 1.9-.3 1.3.1 1.9.3 1.1.5 1.5.9.8.9 1 1.4c.2.6.4 1.2.4 1.9 0 .4-.1.8-.2 1.2s-.3.8-.6 1.1c-.2.4-.5.7-.9.9s-.7.5-1.2.6c.6.1 1.1.3 1.5.6s.8.6 1.1 1 .5.9.7 1.3c.2.5.2 1 .2 1.5 0 .8-.1 1.5-.4 2.2-.3.6-.7 1.2-1.1 1.6-.5.5-1.1.8-1.7 1-.7.2-1.4.4-2.2.4s-1.5-.1-2.2-.4c-.7-.2-1.2-.6-1.7-1-.5-.5-.9-1-1.2-1.6s-.4-1.4-.4-2.2c0-.5.1-1 .2-1.5.2-.5.4-.9.7-1.3s.6-.8 1.1-1c.4-.3.9-.5 1.5-.6-.4-.1-.8-.3-1.2-.6-.3-.3-.6-.6-.9-.9-.2-.4-.4-.7-.6-1.1 0-.3-.1-.7-.1-1.2zm1 8.5c0 .5.1 1 .3 1.5s.4.9.8 1.2c.3.4.7.6 1.2.8s1 .3 1.6.3 1.1-.1 1.6-.3.9-.5 1.2-.8.6-.8.8-1.2.3-1 .3-1.5c0-.6-.1-1.1-.3-1.6s-.5-.9-.8-1.2-.7-.6-1.2-.8-1-.3-1.5-.3-1 .1-1.5.3-.9.4-1.2.8c-.3.3-.6.8-.8 1.2-.4.5-.5 1-.5 1.6zm.7-8.5c0 .5.1.9.2 1.3.2.4.4.7.6 1 .3.3.6.5 1 .7s.8.3 1.3.3.9-.1 1.3-.3.7-.4 1-.7.5-.6.7-1 .2-.8.2-1.3c0-1-.3-1.8-.9-2.4s-1.4-.9-2.3-.9-1.7.3-2.3.9c-.5.7-.8 1.5-.8 2.4z"/><path d="m79.3 217.1c0-.6 0-1.3.1-2s.2-1.4.3-2.1c.2-.7.4-1.3.6-1.9.3-.6.6-1.1 1.1-1.6s1-.8 1.6-1.1 1.3-.4 2.2-.4c.8 0 1.6.1 2.2.4s1.1.6 1.6 1.1.8 1 1.1 1.6.5 1.2.7 1.9.3 1.4.3 2.1c.1.7.1 1.4.1 2s0 1.3-.1 2-.2 1.4-.3 2.1c-.2.7-.4 1.3-.7 1.9s-.6 1.1-1.1 1.6-1 .8-1.6 1.1-1.3.4-2.2.4c-.8 0-1.6-.1-2.2-.4s-1.1-.6-1.6-1.1-.8-1-1.1-1.6-.5-1.2-.6-1.9c-.2-.7-.3-1.4-.3-2.1s-.1-1.4-.1-2zm1.7 0v1.5s.1 1.1.2 1.7.2 1.1.4 1.7.4 1 .8 1.5c.3.4.7.8 1.1 1 .5.3 1 .4 1.6.4s1.2-.1 1.6-.4c.5-.3.8-.6 1.2-1 .3-.4.6-.9.8-1.5.2-.5.3-1.1.4-1.7s.2-1.1.2-1.7.1-1.1.1-1.5c0-.5 0-1-.1-1.5s-.1-1.1-.2-1.7-.2-1.1-.4-1.7c-.2-.5-.4-1-.8-1.5-.3-.4-.7-.8-1.2-1-.5-.3-1-.4-1.6-.4s-1.2.1-1.6.4c-.5.3-.8.6-1.2 1s-.6.9-.8 1.5-.3 1.1-.4 1.7-.2 1.1-.2 1.7.1 1 .1 1.5z"/><path d="m92.6 212.2c0-.6.1-1.2.3-1.7s.5-1 .9-1.4.8-.7 1.4-.9c.5-.2 1.1-.3 1.7-.3s1.2.1 1.7.3 1 .5 1.4.9.7.8.9 1.4c.2.5.3 1.1.3 1.7s-.1 1.2-.3 1.7-.5 1-.9 1.4-.8.7-1.4.9c-.5.2-1.1.3-1.7.3s-1.2-.1-1.7-.3-1-.5-1.4-.9-.7-.8-.9-1.4c-.2-.5-.3-1.1-.3-1.7zm1.4 0c0 .4.1.8.2 1.2s.4.7.6.9.6.5.9.6c.4.1.7.2 1.1.2s.8-.1 1.1-.2c.4-.2.7-.4.9-.6.3-.3.5-.6.6-.9s.2-.7.2-1.2c0-.4-.1-.8-.2-1.2s-.4-.7-.6-.9c-.3-.3-.6-.5-.9-.6-.4-.2-.7-.2-1.1-.2s-.8.1-1.1.2c-.4.1-.7.4-.9.6s-.5.6-.6.9-.2.8-.2 1.2zm13-4.8 1.2.7-11.4 18.7-1.1-.7zm-4.5 14.5c0-.6.1-1.2.3-1.7s.5-1 .9-1.4.8-.7 1.4-.9c.5-.2 1.1-.3 1.7-.3s1.2.1 1.7.3 1 .5 1.4.9.7.8.9 1.4c.2.5.3 1.1.3 1.7s-.1 1.2-.3 1.7-.5 1-.9 1.4-.8.7-1.4.9c-.5.2-1.1.3-1.7.3s-1.2-.1-1.7-.3-1-.5-1.4-.9-.7-.8-.9-1.4c-.2-.5-.3-1.1-.3-1.7zm1.3 0c0 .4.1.8.2 1.2.2.4.4.7.6.9.3.3.6.5.9.6.4.2.7.2 1.1.2s.8-.1 1.1-.2c.4-.1.7-.4.9-.6.3-.3.5-.6.6-.9.2-.4.2-.7.2-1.2 0-.4-.1-.8-.2-1.2s-.4-.7-.6-.9c-.3-.3-.6-.5-.9-.6-.4-.2-.7-.2-1.1-.2s-.8.1-1.1.2c-.4.1-.7.4-.9.6s-.5.6-.6.9-.2.8-.2 1.2z"/></g><g enable-background="new" fill="#fff"><path d="m70.9 416c.3-.2.8-.4 1.3-.6.5-.1 1-.2 1.4-.2.8 0 1.5.1 2.2.4s1.2.7 1.7 1.2.9 1.1 1.1 1.7c.3.7.4 1.4.4 2.1 0 .8-.1 1.5-.4 2.2s-.7 1.3-1.2 1.7-1.1.9-1.8 1.1c-.7.3-1.5.4-2.3.4s-1.6-.1-2.3-.4-1.3-.7-1.8-1.1c-.5-.5-.9-1.1-1.2-1.7-.3-.7-.4-1.4-.4-2.2 0-.5 0-.9.2-1.3.1-.4.2-.8.4-1.2s.3-.7.5-1.1c.2-.3.4-.6.5-.9l4.8-8h1.9zm2.3.6c-.6 0-1.1.1-1.6.3s-.9.5-1.3.9-.7.8-.9 1.3-.3 1-.3 1.6.1 1.2.3 1.7.5.9.8 1.3c.4.4.8.7 1.3.9s1.1.3 1.7.3 1.2-.1 1.7-.3.9-.5 1.3-.9.7-.8.9-1.3.3-1.1.3-1.7-.1-1.1-.3-1.6-.5-1-.9-1.3-.8-.7-1.3-.9c-.6-.2-1.2-.3-1.7-.3z"/><path d="m80.3 417.1c0-.6 0-1.3.1-2s.2-1.4.3-2.1c.2-.7.4-1.3.6-1.9.3-.6.6-1.1 1.1-1.6s1-.8 1.6-1.1 1.3-.4 2.2-.4c.8 0 1.6.1 2.2.4s1.1.6 1.6 1.1.8 1 1.1 1.6.5 1.2.7 1.9.3 1.4.3 2.1c.1.7.1 1.4.1 2s0 1.3-.1 2-.2 1.4-.3 2.1c-.2.7-.4 1.3-.7 1.9s-.6 1.1-1.1 1.6-1 .8-1.6 1.1-1.3.4-2.2.4c-.8 0-1.6-.1-2.2-.4s-1.1-.6-1.6-1.1-.8-1-1.1-1.6-.5-1.2-.6-1.9c-.2-.7-.3-1.4-.3-2.1s-.1-1.4-.1-2zm1.7 0v1.5s.1 1.1.2 1.7.2 1.1.4 1.7.4 1 .8 1.5c.3.4.7.8 1.1 1 .5.3 1 .4 1.6.4s1.2-.1 1.6-.4c.5-.3.8-.6 1.2-1 .3-.4.6-.9.8-1.5.2-.5.3-1.1.4-1.7s.2-1.1.2-1.7.1-1.1.1-1.5c0-.5 0-1-.1-1.5s-.1-1.1-.2-1.7-.2-1.1-.4-1.7c-.2-.5-.4-1-.8-1.5-.3-.4-.7-.8-1.2-1-.5-.3-1-.4-1.6-.4s-1.2.1-1.6.4c-.5.3-.8.6-1.2 1s-.6.9-.8 1.5-.3 1.1-.4 1.7-.2 1.1-.2 1.7.1 1 .1 1.5z"/><path d="m93.6 412.2c0-.6.1-1.2.3-1.7s.5-1 .9-1.4.8-.7 1.4-.9c.5-.2 1.1-.3 1.7-.3s1.2.1 1.7.3 1 .5 1.4.9.7.8.9 1.4c.2.5.3 1.1.3 1.7s-.1 1.2-.3 1.7-.5 1-.9 1.4-.8.7-1.4.9c-.5.2-1.1.3-1.7.3s-1.2-.1-1.7-.3-1-.5-1.4-.9-.7-.8-.9-1.4c-.2-.5-.3-1.1-.3-1.7zm1.4 0c0 .4.1.8.2 1.2s.4.7.6.9.6.5.9.6c.4.1.7.2 1.1.2s.8-.1 1.1-.2c.4-.2.7-.4.9-.6.3-.3.5-.6.6-.9s.2-.7.2-1.2c0-.4-.1-.8-.2-1.2s-.4-.7-.6-.9c-.3-.3-.6-.5-.9-.6-.4-.2-.7-.2-1.1-.2s-.8.1-1.1.2c-.4.1-.7.4-.9.6s-.5.6-.6.9-.2.8-.2 1.2zm13-4.8 1.2.7-11.4 18.7-1.1-.7zm-4.5 14.5c0-.6.1-1.2.3-1.7s.5-1 .9-1.4.8-.7 1.4-.9c.5-.2 1.1-.3 1.7-.3s1.2.1 1.7.3 1 .5 1.4.9.7.8.9 1.4c.2.5.3 1.1.3 1.7s-.1 1.2-.3 1.7-.5 1-.9 1.4-.8.7-1.4.9c-.5.2-1.1.3-1.7.3s-1.2-.1-1.7-.3-1-.5-1.4-.9-.7-.8-.9-1.4c-.2-.5-.3-1.1-.3-1.7zm1.3 0c0 .4.1.8.2 1.2.2.4.4.7.6.9.3.3.6.5.9.6.4.2.7.2 1.1.2s.8-.1 1.1-.2c.4-.1.7-.4.9-.6.3-.3.5-.6.6-.9.2-.4.2-.7.2-1.2 0-.4-.1-.8-.2-1.2s-.4-.7-.6-.9c-.3-.3-.6-.5-.9-.6-.4-.2-.7-.2-1.1-.2s-.8.1-1.1.2c-.4.1-.7.4-.9.6s-.5.6-.6.9-.2.8-.2 1.2z"/></g><g enable-background="new" fill="#fff"><path d="m73.9 588.6h-7.7v-1.8l7.1-11.6h2.1v12h2.7v1.4h-2.7v4.3h-1.5zm0-11.7-6.3 10.3h6.3z"/><path d="m79.3 584.1c0-.6 0-1.3.1-2s.2-1.4.3-2.1c.2-.7.4-1.3.6-1.9.3-.6.6-1.1 1.1-1.6s1-.8 1.6-1.1 1.3-.4 2.2-.4c.8 0 1.6.1 2.2.4s1.1.6 1.6 1.1.8 1 1.1 1.6.5 1.2.7 1.9.3 1.4.3 2.1c.1.7.1 1.4.1 2s0 1.3-.1 2-.2 1.4-.3 2.1c-.2.7-.4 1.3-.7 1.9s-.6 1.1-1.1 1.6-1 .8-1.6 1.1-1.3.4-2.2.4c-.8 0-1.6-.1-2.2-.4s-1.1-.6-1.6-1.1-.8-1-1.1-1.6-.5-1.2-.6-1.9c-.2-.7-.3-1.4-.3-2.1s-.1-1.4-.1-2zm1.7 0v1.5s.1 1.1.2 1.7.2 1.1.4 1.7.4 1 .8 1.5c.3.4.7.8 1.1 1 .5.3 1 .4 1.6.4s1.2-.1 1.6-.4c.5-.3.8-.6 1.2-1 .3-.4.6-.9.8-1.5.2-.5.3-1.1.4-1.7s.2-1.1.2-1.7.1-1.1.1-1.5c0-.5 0-1-.1-1.5s-.1-1.1-.2-1.7-.2-1.1-.4-1.7c-.2-.5-.4-1-.8-1.5-.3-.4-.7-.8-1.2-1-.5-.3-1-.4-1.6-.4s-1.2.1-1.6.4c-.5.3-.8.6-1.2 1s-.6.9-.8 1.5-.3 1.1-.4 1.7-.2 1.1-.2 1.7.1 1 .1 1.5z"/><path d="m92.6 579.2c0-.6.1-1.2.3-1.7s.5-1 .9-1.4.8-.7 1.4-.9c.5-.2 1.1-.3 1.7-.3s1.2.1 1.7.3 1 .5 1.4.9.7.8.9 1.4c.2.5.3 1.1.3 1.7s-.1 1.2-.3 1.7-.5 1-.9 1.4-.8.7-1.4.9c-.5.2-1.1.3-1.7.3s-1.2-.1-1.7-.3-1-.5-1.4-.9-.7-.8-.9-1.4c-.2-.5-.3-1.1-.3-1.7zm1.4 0c0 .4.1.8.2 1.2s.4.7.6.9.6.5.9.6c.4.1.7.2 1.1.2s.8-.1 1.1-.2c.4-.2.7-.4.9-.6.3-.3.5-.6.6-.9s.2-.7.2-1.2c0-.4-.1-.8-.2-1.2s-.4-.7-.6-.9c-.3-.3-.6-.5-.9-.6-.4-.2-.7-.2-1.1-.2s-.8.1-1.1.2c-.4.1-.7.4-.9.6s-.5.6-.6.9-.2.8-.2 1.2zm13-4.8 1.2.7-11.4 18.7-1.1-.7zm-4.5 14.5c0-.6.1-1.2.3-1.7s.5-1 .9-1.4.8-.7 1.4-.9c.5-.2 1.1-.3 1.7-.3s1.2.1 1.7.3 1 .5 1.4.9.7.8.9 1.4c.2.5.3 1.1.3 1.7s-.1 1.2-.3 1.7-.5 1-.9 1.4-.8.7-1.4.9c-.5.2-1.1.3-1.7.3s-1.2-.1-1.7-.3-1-.5-1.4-.9-.7-.8-.9-1.4c-.2-.5-.3-1.1-.3-1.7zm1.3 0c0 .4.1.8.2 1.2.2.4.4.7.6.9.3.3.6.5.9.6.4.2.7.2 1.1.2s.8-.1 1.1-.2c.4-.1.7-.4.9-.6.3-.3.5-.6.6-.9.2-.4.2-.7.2-1.2 0-.4-.1-.8-.2-1.2s-.4-.7-.6-.9c-.3-.3-.6-.5-.9-.6-.4-.2-.7-.2-1.1-.2s-.8.1-1.1.2c-.4.1-.7.4-.9.6s-.5.6-.6.9-.2.8-.2 1.2z"/></g><g enable-background="new" fill="#fff"><path d="m64.7 791.2 6.6-7c.3-.3.6-.6.9-1s.6-.7.8-1.1.4-.8.6-1.2c.1-.4.2-.9.2-1.3 0-1-.3-1.8-1-2.4s-1.5-.9-2.5-.9c-.9 0-1.7.3-2.3.8s-1 1.2-1.2 2.1l-1.8-.2c.3-1.4.9-2.4 1.9-3.1s2.1-1 3.5-1c.7 0 1.3.1 2 .3.6.2 1.2.5 1.6.9s.8.9 1.1 1.4c.3.6.4 1.2.4 1.9s-.1 1.3-.3 1.9-.5 1.1-.8 1.7c-.3.5-.7 1-1.2 1.5-.4.5-.9.9-1.3 1.4l-5.5 5.7h9.3v1.3h-11z"/><path d="m77.3 784.1c0-.6 0-1.3.1-2s.2-1.4.3-2.1c.2-.7.4-1.3.6-1.9.3-.6.6-1.1 1.1-1.6s1-.8 1.6-1.1 1.3-.4 2.2-.4c.8 0 1.6.1 2.2.4s1.1.6 1.6 1.1.8 1 1.1 1.6.5 1.2.7 1.9.3 1.4.3 2.1c.1.7.1 1.4.1 2s0 1.3-.1 2-.2 1.4-.3 2.1c-.2.7-.4 1.3-.7 1.9s-.6 1.1-1.1 1.6-1 .8-1.6 1.1-1.3.4-2.2.4c-.8 0-1.6-.1-2.2-.4s-1.1-.6-1.6-1.1-.8-1-1.1-1.6-.5-1.2-.6-1.9c-.2-.7-.3-1.4-.3-2.1s-.1-1.4-.1-2zm1.7 0v1.5s.1 1.1.2 1.7.2 1.1.4 1.7.4 1 .8 1.5c.3.4.7.8 1.1 1 .5.3 1 .4 1.6.4s1.2-.1 1.6-.4c.5-.3.8-.6 1.2-1 .3-.4.6-.9.8-1.5.2-.5.3-1.1.4-1.7s.2-1.1.2-1.7.1-1.1.1-1.5c0-.5 0-1-.1-1.5s-.1-1.1-.2-1.7-.2-1.1-.4-1.7c-.2-.5-.4-1-.8-1.5-.3-.4-.7-.8-1.2-1-.5-.3-1-.4-1.6-.4s-1.2.1-1.6.4c-.5.3-.8.6-1.2 1s-.6.9-.8 1.5-.3 1.1-.4 1.7-.2 1.1-.2 1.7.1 1 .1 1.5z"/><path d="m90.6 779.2c0-.6.1-1.2.3-1.7s.5-1 .9-1.4.8-.7 1.4-.9c.5-.2 1.1-.3 1.7-.3s1.2.1 1.7.3 1 .5 1.4.9.7.8.9 1.4c.2.5.3 1.1.3 1.7s-.1 1.2-.3 1.7-.5 1-.9 1.4-.8.7-1.4.9c-.5.2-1.1.3-1.7.3s-1.2-.1-1.7-.3-1-.5-1.4-.9-.7-.8-.9-1.4c-.2-.5-.3-1.1-.3-1.7zm1.4 0c0 .4.1.8.2 1.2s.4.7.6.9.6.5.9.6c.4.1.7.2 1.1.2s.8-.1 1.1-.2c.4-.2.7-.4.9-.6.3-.3.5-.6.6-.9s.2-.7.2-1.2c0-.4-.1-.8-.2-1.2s-.4-.7-.6-.9c-.3-.3-.6-.5-.9-.6-.4-.2-.7-.2-1.1-.2s-.8.1-1.1.2c-.4.1-.7.4-.9.6s-.5.6-.6.9-.2.8-.2 1.2zm13-4.8 1.2.7-11.4 18.7-1.1-.7zm-4.5 14.5c0-.6.1-1.2.3-1.7s.5-1 .9-1.4.8-.7 1.4-.9c.5-.2 1.1-.3 1.7-.3s1.2.1 1.7.3 1 .5 1.4.9.7.8.9 1.4c.2.5.3 1.1.3 1.7s-.1 1.2-.3 1.7-.5 1-.9 1.4-.8.7-1.4.9c-.5.2-1.1.3-1.7.3s-1.2-.1-1.7-.3-1-.5-1.4-.9-.7-.8-.9-1.4c-.2-.5-.3-1.1-.3-1.7zm1.3 0c0 .4.1.8.2 1.2.2.4.4.7.6.9.3.3.6.5.9.6.4.2.7.2 1.1.2s.8-.1 1.1-.2c.4-.1.7-.4.9-.6.3-.3.5-.6.6-.9.2-.4.2-.7.2-1.2 0-.4-.1-.8-.2-1.2s-.4-.7-.6-.9c-.3-.3-.6-.5-.9-.6-.4-.2-.7-.2-1.1-.2s-.8.1-1.1.2c-.4.1-.7.4-.9.6s-.5.6-.6.9-.2.8-.2 1.2z"/></g><g enable-background="new" fill="#fff"><path d="m72.8 984.1c0-.6 0-1.3.1-2s.2-1.4.3-2.1.4-1.3.7-1.9.6-1.1 1.1-1.6c.4-.5 1-.8 1.6-1.1s1.3-.4 2.2-.4 1.6.1 2.2.4 1.1.6 1.6 1.1c.4.5.8 1 1.1 1.6s.5 1.2.6 1.9.3 1.4.3 2.1.1 1.4.1 2 0 1.3-.1 2-.2 1.4-.3 2.1-.4 1.3-.6 1.9c-.3.6-.6 1.1-1.1 1.6-.4.5-1 .8-1.6 1.1s-1.3.4-2.2.4-1.6-.1-2.2-.4-1.1-.6-1.6-1.1c-.4-.5-.8-1-1.1-1.6s-.5-1.2-.7-1.9-.3-1.4-.3-2.1-.1-1.4-.1-2zm1.7 0c0 .5 0 1 .1 1.5 0 .6.1 1.1.2 1.7s.2 1.1.4 1.7.4 1 .8 1.5c.3.4.7.8 1.1 1 .5.3 1 .4 1.6.4s1.2-.1 1.6-.4c.5-.3.8-.6 1.2-1 .3-.4.6-.9.8-1.5s.3-1.1.4-1.7.2-1.1.2-1.7 0-1.1 0-1.5c0-.5 0-1 0-1.5 0-.6-.1-1.1-.2-1.7s-.2-1.1-.4-1.7c-.2-.5-.4-1-.8-1.5s-.7-.8-1.2-1c-.5-.3-1-.4-1.6-.4s-1.2.1-1.6.4c-.5.3-.8.6-1.2 1s-.6.9-.8 1.5-.3 1.1-.4 1.7-.2 1.1-.2 1.7z"/><path d="m86.1 979.2c0-.6.1-1.2.3-1.7s.5-1 .9-1.4.8-.7 1.4-.9c.5-.2 1.1-.3 1.7-.3s1.2.1 1.7.3 1 .5 1.4.9.7.8.9 1.4c.2.5.3 1.1.3 1.7s-.1 1.2-.3 1.7-.5 1-.9 1.4-.8.7-1.4.9c-.5.2-1.1.3-1.7.3s-1.2-.1-1.7-.3-1-.5-1.4-.9-.7-.8-.9-1.4c-.2-.5-.3-1.1-.3-1.7zm1.4 0c0 .4.1.8.2 1.2s.4.7.6.9.6.5.9.6c.4.1.7.2 1.1.2s.8-.1 1.1-.2c.4-.2.7-.4.9-.6.3-.3.5-.6.6-.9s.2-.7.2-1.2c0-.4-.1-.8-.2-1.2s-.4-.7-.6-.9c-.3-.3-.6-.5-.9-.6-.4-.2-.7-.2-1.1-.2s-.8.1-1.1.2c-.4.1-.7.4-.9.6s-.5.6-.6.9-.2.8-.2 1.2zm13-4.8 1.2.7-11.4 18.7-1.1-.7zm-4.5 14.5c0-.6.1-1.2.3-1.7s.5-1 .9-1.4.8-.7 1.4-.9c.5-.2 1.1-.3 1.7-.3s1.2.1 1.7.3 1 .5 1.4.9.7.8.9 1.4c.2.5.3 1.1.3 1.7s-.1 1.2-.3 1.7-.5 1-.9 1.4-.8.7-1.4.9c-.5.2-1.1.3-1.7.3s-1.2-.1-1.7-.3-1-.5-1.4-.9-.7-.8-.9-1.4c-.2-.5-.3-1.1-.3-1.7zm1.3 0c0 .4.1.8.2 1.2.2.4.4.7.6.9.3.3.6.5.9.6.4.2.7.2 1.1.2s.8-.1 1.1-.2c.4-.1.7-.4.9-.6.3-.3.5-.6.6-.9.2-.4.2-.7.2-1.2 0-.4-.1-.8-.2-1.2s-.4-.7-.6-.9c-.3-.3-.6-.5-.9-.6-.4-.2-.7-.2-1.1-.2s-.8.1-1.1.2c-.4.1-.7.4-.9.6s-.5.6-.6.9-.2.8-.2 1.2z"/></g></svg>