<svg xmlns="http://www.w3.org/2000/svg" viewBox="0 0 855.94 808.03"><defs><style>.f4a42ee0-51d3-4869-a3eb-716dec7e39db{fill:#3f3d56;}.b7b7a587-10c7-43af-b53e-eac01960fb48,.bca9cbbc-123b-4ce4-9f38-3f079db422c6{fill:#f0f0f0;}.bca9cbbc-123b-4ce4-9f38-3f079db422c6{isolation:isolate;opacity:0.3;}.a11ec5d3-0936-4d33-bfb1-77f07c1b5fa4{fill:#f2f2f2;}.b7a7ac0c-ef58-4c05-ae7e-ef20c80f13b7{fill:#fff;}.f2d99501-e277-4b5a-8e11-0fffe1f3049f{fill:#e4e4e4;}.ec79c77a-861c-48a5-803b-a18c5f3509c6{fill:#9183c1;}.eb06c3a0-1314-4547-998b-63060b6388f1{fill:#ff6584;}.e689ac01-3c79-4ea8-8e51-016fa11ad68e{fill:#2f2e41;}.bc5e6816-1a80-4928-b8bc-15ce207499cc{fill:#efefef;stroke:#111115;stroke-miterlimit:10;}.b0245209-a538-44d8-9529-28cfe9f024ee{fill:#9287c9;}</style></defs><g id="bfa50217-f161-44c6-aaa3-eb376127c1b5" data-name="Layer 2"><g id="b610c83b-1d20-4768-92cb-e3f3730d678e" data-name="Layer 1"><path class="f4a42ee0-51d3-4869-a3eb-716dec7e39db" d="M763.4,338.09c-3.73,43.08-22.51,84.71-49.3,119.14q-1.68,2.16-3.4,4.28-3.87,4.77-7.94,9.36-5,5.65-10.25,11.05-4.29,4.44-8.78,8.69-3.47,3.31-7,6.5C648.29,522.8,615.63,544,582,562.54c-65.67,36.17-137.65,63.57-212.52,67.56s-153-17.46-207.91-68.52C87.56,492.77,66.91,378,97,281.53c20-64.18,60.76-122.24,116.26-160.16,55-37.59,124.43-54.51,190.12-43.45C455.77,46.05,524.42,45.44,581.43,69c30.42,12.59,57.72,31.31,81.67,53.93a338.87,338.87,0,0,1,30.72,33.23q1.45,1.78,2.88,3.6,6,7.54,11.55,15.4,8,11.26,15.21,23c1.32,2.16,2.63,4.33,3.91,6.52.86,1.47,1.73,2.95,2.58,4.44a.3.3,0,0,1,0,.1c13.31,23.41,24.19,48.39,29.86,74.5,1,4.62,1.84,9.26,2.49,13.94h0q.85,6,1.29,12a175.89,175.89,0,0,1-.23,28.39Z"/><path class="bca9cbbc-123b-4ce4-9f38-3f079db422c6" d="M568,403.22,419.58,279.54,563.81,408.17a3.48,3.48,0,0,0,1.13,1.16,3.35,3.35,0,0,0,1.53.51,3.41,3.41,0,0,0,1.61-.24,3.51,3.51,0,0,0,1.31-1,3.43,3.43,0,0,0,.72-3.06,3.5,3.5,0,0,0-.75-1.44,3.42,3.42,0,0,0-1.32-.93Z"/><path class="a11ec5d3-0936-4d33-bfb1-77f07c1b5fa4" d="M227.58,340.28a89,89,0,1,0-89-89A89,89,0,0,0,227.58,340.28Z"/><path class="b7a7ac0c-ef58-4c05-ae7e-ef20c80f13b7" d="M306.58,245.28a81,81,0,1,1-11.73-42.06,81,81,0,0,1,11.73,42.06Z"/><path class="f2d99501-e277-4b5a-8e11-0fffe1f3049f" d="M211.58,243.28a25,25,0,1,0-25-25A25,25,0,0,0,211.58,243.28Z"/><path class="a11ec5d3-0936-4d33-bfb1-77f07c1b5fa4" d="M303.42,222.81a25,25,0,0,1-27.6-41.08A81,81,0,0,1,303.42,222.81Z"/><path class="f2d99501-e277-4b5a-8e11-0fffe1f3049f" d="M252.58,281.28a9,9,0,1,0-9-9A9,9,0,0,0,252.58,281.28Z"/><path class="a11ec5d3-0936-4d33-bfb1-77f07c1b5fa4" d="M215.58,323.28a8.8,8.8,0,0,1-.31,2.34,79.74,79.74,0,0,1-17.49-4.24,9,9,0,0,1,17.8,1.9Z"/><path class="a11ec5d3-0936-4d33-bfb1-77f07c1b5fa4" d="M162.58,241.28a18,18,0,0,1-16.8,18,81.59,81.59,0,0,1,1.76-35.71,18,18,0,0,1,15,17.75Z"/><path class="ec79c77a-861c-48a5-803b-a18c5f3509c6" d="M606.46,212.68a3.7,3.7,0,1,0-3.71-3.7A3.7,3.7,0,0,0,606.46,212.68Z"/><path class="b7b7a587-10c7-43af-b53e-eac01960fb48" d="M572.3,122.61a2.16,2.16,0,1,0-2.16-2.16A2.17,2.17,0,0,0,572.3,122.61Z"/><path class="b7b7a587-10c7-43af-b53e-eac01960fb48" d="M225.3,546.61a2.17,2.17,0,1,0-2.16-2.16A2.17,2.17,0,0,0,225.3,546.61Z"/><path class="b7b7a587-10c7-43af-b53e-eac01960fb48" d="M584.58,334.26a2.17,2.17,0,1,0-2.16-2.17A2.16,2.16,0,0,0,584.58,334.26Z"/><path class="ec79c77a-861c-48a5-803b-a18c5f3509c6" d="M305.46,354.68a3.7,3.7,0,1,0-3.71-3.7A3.7,3.7,0,0,0,305.46,354.68Z"/><path class="ec79c77a-861c-48a5-803b-a18c5f3509c6" d="M171.46,434.47A17.49,17.49,0,1,0,154,417,17.49,17.49,0,0,0,171.46,434.47Z"/><path class="b7b7a587-10c7-43af-b53e-eac01960fb48" d="M267.3,438.61a2.16,2.16,0,1,0-2.16-2.16A2.17,2.17,0,0,0,267.3,438.61Z"/><path class="b7b7a587-10c7-43af-b53e-eac01960fb48" d="M487.3,100.61a2.16,2.16,0,1,0-2.16-2.16A2.17,2.17,0,0,0,487.3,100.61Z"/><path class="b7b7a587-10c7-43af-b53e-eac01960fb48" d="M358.3,561.61a2.17,2.17,0,1,0-2.16-2.16A2.17,2.17,0,0,0,358.3,561.61Z"/><path class="b7b7a587-10c7-43af-b53e-eac01960fb48" d="M326.3,120.61a2.16,2.16,0,1,0-2.16-2.16A2.17,2.17,0,0,0,326.3,120.61Z"/><path class="b7b7a587-10c7-43af-b53e-eac01960fb48" d="M382.3,225.61a2.16,2.16,0,1,0-2.16-2.16A2.17,2.17,0,0,0,382.3,225.61Z"/><path class="b7b7a587-10c7-43af-b53e-eac01960fb48" d="M296.58,483.26a2.17,2.17,0,1,0-2.16-2.17A2.16,2.16,0,0,0,296.58,483.26Z"/><path class="b7b7a587-10c7-43af-b53e-eac01960fb48" d="M549.58,497.26a2.17,2.17,0,1,0-2.16-2.17A2.16,2.16,0,0,0,549.58,497.26Z"/><path class="b7b7a587-10c7-43af-b53e-eac01960fb48" d="M437.58,371.26a2.17,2.17,0,1,0-2.16-2.17A2.16,2.16,0,0,0,437.58,371.26Z"/><path class="b7b7a587-10c7-43af-b53e-eac01960fb48" d="M494.58,225.26a2.17,2.17,0,1,0-2.16-2.17A2.16,2.16,0,0,0,494.58,225.26Z"/><path class="eb06c3a0-1314-4547-998b-63060b6388f1" d="M598.21,297.44a4.29,4.29,0,1,0-4.29-4.29A4.29,4.29,0,0,0,598.21,297.44Z"/><path class="eb06c3a0-1314-4547-998b-63060b6388f1" d="M424.21,155.44a4.29,4.29,0,1,0-4.29-4.29A4.29,4.29,0,0,0,424.21,155.44Z"/><path class="eb06c3a0-1314-4547-998b-63060b6388f1" d="M424.21,450.44a4.29,4.29,0,1,0-4.29-4.29A4.29,4.29,0,0,0,424.21,450.44Z"/><path class="ec79c77a-861c-48a5-803b-a18c5f3509c6" d="M691.42,470.87a7.68,7.68,0,0,0-7.39,5.58,7.59,7.59,0,0,0-.3,2.12v12q4.49-4.25,8.78-8.69,5.26-5.4,10.25-11.05Z"/><path class="ec79c77a-861c-48a5-803b-a18c5f3509c6" d="M718.65,533.43q-19.36,0-42.46-1.46c-79.61-5.06-182.73-22.64-290.37-49.49s-206.93-59.8-279.59-92.74C70.84,373.69,43.68,358.5,25.5,344.59,6.25,329.87-2.17,317,.47,306.44c5.15-20.63,50.73-25.14,88.07-25.3v3c-51.27.22-81.51,8.39-85.17,23C-1.27,325.81,36.67,354.91,107.47,387c72.5,32.87,171.61,65.74,279.08,92.56S597,523.93,676.39,529C754,533.9,801.13,526,805.78,507.39c3.86-15.47-21.6-38.27-71.69-64.19l1.38-2.67c36.4,18.84,78.64,45.85,73.22,67.59-2.64,10.59-16.1,18-40,21.92C755.05,532.3,738.3,533.43,718.65,533.43Z"/><path class="b7a7ac0c-ef58-4c05-ae7e-ef20c80f13b7" d="M714.58,309.78a100.5,100.5,0,1,0-100.5-100.5A100.49,100.49,0,0,0,714.58,309.78Z"/><path class="e689ac01-3c79-4ea8-8e51-016fa11ad68e" d="M714.58,107.28A101.71,101.71,0,1,0,753.67,115a102,102,0,0,0-39.09-7.67Zm0,201a98.6,98.6,0,1,1,37.95-7.43,99.06,99.06,0,0,1-37.95,7.43Z"/><path class="e689ac01-3c79-4ea8-8e51-016fa11ad68e" d="M626.39,233.35a2,2,0,0,1-1.27-.45,2,2,0,0,1-.69-1.15,97.68,97.68,0,0,1,22.34-83.13,2,2,0,0,1,1.38-.66,2,2,0,0,1,1.44.5,2.07,2.07,0,0,1,.67,1.38,2,2,0,0,1-.5,1.44A93.57,93.57,0,0,0,628.35,231a2,2,0,0,1,0,.88,2.17,2.17,0,0,1-.39.79,2.06,2.06,0,0,1-.7.54,1.92,1.92,0,0,1-.85.19Z"/><path class="ec79c77a-861c-48a5-803b-a18c5f3509c6" d="M714.52,302.65a63.88,63.88,0,1,0-63.88-63.88A63.88,63.88,0,0,0,714.52,302.65Z"/><path class="e689ac01-3c79-4ea8-8e51-016fa11ad68e" d="M694.22,262.89c-4.14-.12-9.3-.26-13.27-3.16a10.22,10.22,0,0,1-2.84-3.36,10,10,0,0,1-1.16-4.25,6.81,6.81,0,0,1,2.33-5.62c2.07-1.76,5.1-2.17,8.36-1.21l-3.38-24.7,2.48-.34,4,29-2.08-.95c-2.4-1.1-5.7-1.66-7.75.07a4.46,4.46,0,0,0-1.14,1.64,4.36,4.36,0,0,0-.3,2,7.78,7.78,0,0,0,.87,3.16,7.86,7.86,0,0,0,2.11,2.51c3.09,2.25,7.2,2.55,11.86,2.68Z"/><path class="e689ac01-3c79-4ea8-8e51-016fa11ad68e" d="M672,222.72h-13.5v2.5H672Z"/><path class="e689ac01-3c79-4ea8-8e51-016fa11ad68e" d="M714.57,222.72H701.08v2.5h13.49Z"/><path class="e689ac01-3c79-4ea8-8e51-016fa11ad68e" d="M717.2,318.44H659.3a8.16,8.16,0,0,0-8.14,8.14V454.91a47.67,47.67,0,0,0,25.56,42.2q3.56-3.18,7-6.5,4.49-4.25,8.78-8.69,5.26-5.4,10.25-11.05,4.08-4.59,7.94-9.36,1.72-2.11,3.4-4.28c26.79-34.43,45.57-76.06,49.3-119.14a64,64,0,0,0-46.2-19.65Z"/><path class="ec79c77a-861c-48a5-803b-a18c5f3509c6" d="M719.31,345.22a14.59,14.59,0,0,0-10.43-4.17,14.47,14.47,0,0,0-9.16,3.36,13.13,13.13,0,0,0-1.17,1.07l-47.39,48.6-34.37,35.25a6.94,6.94,0,0,0-1.28,1.8,7.36,7.36,0,0,0-.77,3.32,7,7,0,0,0,.59,2.75,7.11,7.11,0,0,0,1.59,2.32l1.35,1.32,9.8,9.55h0a7.18,7.18,0,0,0,9.73-.55l1.59-1.62,11.38-11.67.38-.39L719.57,366a14.69,14.69,0,0,0-.26-20.77Z"/><path class="e689ac01-3c79-4ea8-8e51-016fa11ad68e" d="M718.83,209c2.11-4.46-.05-9.23-3.76-12.09-4.68-3.59-10.73-3-16-1.3-5.82,1.87-11.52,5.22-17.81,5A11.16,11.16,0,0,1,671,193.33c-3.37-8.64.43-18.3,6.3-24.85a34.29,34.29,0,0,1,26.54-11.58,34.63,34.63,0,0,1,28.07,16.9,1.58,1.58,0,0,0,.92.68,1.53,1.53,0,0,0,1.13-.14,36.93,36.93,0,0,1,28.4-.72,36.31,36.31,0,0,1,22.58,34.49c0,1.94,3,1.93,3,0a39.92,39.92,0,0,0-10.6-27.81,38.79,38.79,0,0,0-27.57-12.17,39.35,39.35,0,0,0-17.32,3.62l2.05.54a37.68,37.68,0,0,0-25.1-17.73A36.48,36.48,0,0,0,680,161.88c-7.7,6-13.54,15.38-13.18,25.41.16,4.35,1.45,8.8,4.46,12,3.86,4.14,9.63,4.85,15,3.79,7.08-1.41,13.54-6.06,20.91-5.92a10.17,10.17,0,0,1,7.64,3.45c1.63,1.83,2.61,4.47,1.5,6.81-.82,1.74,1.77,3.26,2.59,1.51Z"/><path class="ec79c77a-861c-48a5-803b-a18c5f3509c6" d="M240.06,569.86c-35.6,0-68.69-1.22-98.32-3.69-38.73-3.22-69.41-8.4-91.21-15.4-23.08-7.4-35.32-16.66-36.39-27.52-2.08-21.16,39.34-40.73,74.45-53.42l1,2.82c-48.22,17.43-74,35.29-72.48,50.3C19,542.07,64.52,556.73,142,563.18c79.33,6.6,183.72,4.26,294-6.59S649,527.68,725.53,505.74C800.26,484.32,842,461.07,840.15,442c-1.56-15.88-33.2-28.8-89.09-36.38l.4-3c40.61,5.52,89.48,16.77,91.68,39.06,1.07,10.86-9.14,22.33-30.33,34.1-20,11.11-49.1,22.17-86.45,32.88-76.69,22-179.72,40.08-290.13,51C367,566.39,300,569.86,240.06,569.86Z"/><path class="ec79c77a-861c-48a5-803b-a18c5f3509c6" d="M838.46,452.47A17.49,17.49,0,1,0,821,435,17.49,17.49,0,0,0,838.46,452.47Z"/><path class="bc5e6816-1a80-4928-b8bc-15ce207499cc" d="M331.46,35.47A17.49,17.49,0,1,0,314,18,17.49,17.49,0,0,0,331.46,35.47Z"/><path class="bc5e6816-1a80-4928-b8bc-15ce207499cc" d="M19.46,451.47A17.49,17.49,0,1,0,2,434,17.49,17.49,0,0,0,19.46,451.47Z"/><path class="eb06c3a0-1314-4547-998b-63060b6388f1" d="M127.46,119.68A10.7,10.7,0,1,0,116.75,109,10.7,10.7,0,0,0,127.46,119.68Z"/><path class="eb06c3a0-1314-4547-998b-63060b6388f1" d="M77.46,525.68A10.7,10.7,0,1,0,66.75,515,10.7,10.7,0,0,0,77.46,525.68Z"/><path class="eb06c3a0-1314-4547-998b-63060b6388f1" d="M807.46,350.68A10.7,10.7,0,1,0,796.75,340,10.7,10.7,0,0,0,807.46,350.68Z"/><path class="bc5e6816-1a80-4928-b8bc-15ce207499cc" d="M645.46,616.47A17.49,17.49,0,1,0,628,599,17.49,17.49,0,0,0,645.46,616.47Z"/><path class="violetwanderer" d="M199,783V764.54H155.63V747h34.84V728.68H155.63V711.4H199V693H133.16v90Zm50.17-17V753.16c-13.82,1.59-18.72,4-18.72,10.08,0,4.18,3.32,7.2,8.36,7.2A13.31,13.31,0,0,0,249.14,766Zm.58,8.93h-.43c-5.76,6.76-12.24,10.22-19.3,10.22-11.52,0-20.45-8.21-20.45-18.58,0-15.12,13.25-23,39.6-23.76V741.5c0-7.2-3.45-10.22-11.8-10.22-6.2,0-13.68,2.3-22.76,6.76L210,721.77a64.54,64.54,0,0,1,30.81-7.92c22.32,0,31,9.5,30.53,29.23L271.18,763c0,4.46.72,5,5.47,5.47l-2.16,15.84C261.24,786,253,782.83,249.72,774.91Zm59.15-31v39H286.69V717.16l22.18-2.73v9.79c3.89-6.91,9.36-10.37,16.12-10.37a23.43,23.43,0,0,1,11.09,2.74l-4.46,19.58a19.34,19.34,0,0,0-8.35-2C317.36,734.16,312.61,737.47,308.87,744Zm80.22,38.73a56.89,56.89,0,0,1-16.27,2.45c-17.13,0-25.34-7.2-24.62-24.34l1-25.48-10.08-1.73.43-14.11,10.08-3.31.29-15.27h21.45l-.14,16h16.7l-.43,17.42H369.65l-.72,24.05c-.28,5.9,2.6,8.78,8.79,8.78a28.44,28.44,0,0,0,8.78-1.73Zm77,.29H444v-39.6c0-7-3-10.65-9.22-10.65a18.43,18.43,0,0,0-12.38,5V783H400.17V687.79l22.18-2.74v40.18c6.63-7.64,14.11-11.38,22.61-11.38,13.25,0,21.17,8.79,21.17,23Zm121.39-.43L587.08,765H573.26V713.13H549.07l-39,55.73,2.74,13.68h39.74V808h20.74V782.54Zm-34-17.14H531.64l21.89-32.68Zm113.08-17.13q0,16.62-9.94,26.78c-6.77,6.77-15.55,10.08-26.64,10.08s-19.87-3.31-26.35-9.93-9.79-15.41-9.79-26.5,3.31-20,9.93-26.79,15.41-9.93,26.5-9.93,19.87,3.31,26.49,9.79S666.61,737.18,666.61,748.27Zm-36.29,20.16a12.87,12.87,0,0,0,10.8-5.33c2.73-3.6,4-8.35,4-14.55s-1.3-10.94-4-14.54a13.13,13.13,0,0,0-11-5.33,12.87,12.87,0,0,0-10.8,5.33c-2.73,3.6-4,8.35-4,14.54C615.34,761.08,621.25,768.43,630.32,768.43Zm120.32,14.11L750.21,765H736.38V713.13H712.19l-39,55.73,2.73,13.68h39.75V808h20.73V782.54Zm-34-17.14H694.77l21.89-32.68Z"/></g></g></svg>
